<?xml version="1.0" encoding="utf-8"?>
<!-- Generator: Adobe Illustrator 25.2.3, SVG Export Plug-In . SVG Version: 6.00 Build 0)  -->
<svg version="1.1" xmlns="http://www.w3.org/2000/svg" xmlns:xlink="http://www.w3.org/1999/xlink" x="0px" y="0px"
	 viewBox="0 0 300 280" style="enable-background:new 0 0 300 280;" xml:space="preserve">
<style type="text/css">
	.st0{opacity:0.37;}
	.st1{opacity:0.49;}
	.st2{fill:none;stroke:#FCFFFF;stroke-miterlimit:10;}
	.st3{fill:#9E1F25;}
	.st4{fill:#CF232E;}
	.st5{fill:#F7A33B;}
	.st6{fill:#F5C032;}
	.st7{fill:#FFF6D1;}
	.st8{fill:#23763E;}
	.st9{fill:#03464F;}
	.st10{fill:#026385;}
	.st11{fill:#35BCC0;}
	.st12{fill:#018F9F;}
	.st13{fill:#A53A1C;}
	.st14{fill:#DF5330;}
	.st15{fill:#FF8039;}
	.st16{fill:#EE5E2F;}
	.st17{fill:#A51959;}
	.st18{fill:#C12573;}
	.st19{fill:#FF4DA6;}
	.st20{fill:#D2276E;}
	.st21{fill:#163A20;}
	.st22{fill:#1A5C31;}
	.st23{fill:#3E9B50;}
	.st24{fill:#41296D;}
	.st25{fill:#513C82;}
	.st26{fill:#775ABF;}
	.st27{fill:#614293;}
	.st28{fill:#6C0F13;}
	.st29{fill:#E8222E;}
	.st30{fill:#D27633;}
	.st31{fill:#DD8A34;}
	.st32{fill:#F3A634;}
	.st33{fill:none;stroke:#161616;stroke-miterlimit:10;}
	.st34{fill:#7F7973;}
	.st35{fill:#C0B5AA;}
	.st36{fill:#E4DED5;}
	.st37{fill:#514A43;}
	.st38{fill:#606161;}
	.st39{fill:#BEBFB9;}
	.st40{fill:#3A3A3A;}
	.st41{fill:#302C28;}
	.st42{fill:#161616;}
	.st43{fill:#E1E1DF;}
	.st44{fill:#757DE0;}
	.st45{fill:#CAC5FF;}
	.st46{fill:#E9ECFD;}
	.st47{fill:#FCB912;}
	.st48{fill:#FCF54D;}
	.st49{stroke:#000000;stroke-width:0.25;stroke-miterlimit:10;}
	.st50{fill:#FFDE01;}
	.st51{fill:#6F6252;}
	.st52{fill:#32A00D;}
</style>
<g id="layout">
</g>
<g id="Layer_3">
	<g>
		<rect x="3.8" y="156.8" class="st11" width="31.7" height="5.2"/>
		<polygon class="st11" points="72.6,146.4 67.3,146.4 56.7,146.4 56.7,151.6 67.3,151.6 72.6,151.6 88.4,151.6 93.7,151.6 
			93.7,146.4 88.4,146.4 		"/>
		<polygon class="st11" points="93.7,141.2 93.7,146.4 104.3,146.4 109.6,146.4 109.6,141.2 104.3,141.2 		"/>
		<rect x="109.6" y="136" class="st11" width="10.6" height="5.2"/>
		<polygon class="st11" points="35.5,151.6 35.5,156.8 46.1,156.8 56.7,156.8 56.7,151.6 46.1,151.6 		"/>
		<polygon class="st11" points="120.2,130.8 120.2,136 125.5,136 130.7,136 130.7,130.8 125.5,130.8 		"/>
		<polygon class="st11" points="130.7,125.6 130.7,130.8 141.3,130.8 146.6,130.8 146.6,125.6 141.3,125.6 		"/>
		<polygon class="st11" points="157.2,120.4 151.9,120.4 146.6,120.4 146.6,125.6 151.9,125.6 157.2,125.6 162.5,125.6 167.8,125.6 
			167.8,120.4 162.5,120.4 		"/>
		<polygon class="st11" points="167.8,115.2 167.8,120.4 183.6,120.4 188.9,120.4 188.9,115.2 183.6,115.2 		"/>
		<rect x="188.9" y="110" class="st11" width="10.6" height="5.2"/>
		<polygon class="st11" points="199.5,104.8 199.5,110 204.8,110 210.1,110 210.1,104.8 204.8,104.8 		"/>
		<rect x="210.1" y="99.6" class="st11" width="37" height="5.2"/>
		<rect x="294.7" y="84" class="st11" width="5.3" height="5.2"/>
		<polygon class="st11" points="284.1,89.2 278.8,89.2 278.8,94.4 284.1,94.4 289.4,94.4 294.7,94.4 294.7,89.2 289.4,89.2 		"/>
		<polygon class="st11" points="268.3,94.4 263,94.4 247.1,94.4 247.1,99.6 263,99.6 268.3,99.6 273.6,99.6 278.8,99.6 278.8,94.4 
			273.6,94.4 		"/>
	</g>
	<polygon class="st44" points="272,219 263,219 263,210 272,210 272,201 272,192 263,192 263,183 254,183 254,192 245,192 245,201 
		245,210 254,210 254,219 245,219 236,219 236,228 245,228 245,246 254,246 254,255 263,255 263,246 272,246 272,228 281,228 
		281,219 	"/>
	<polygon class="st44" points="83,102 83,93 74,93 74,84 83,84 83,75 83,57 74,57 74,48 65,48 65,57 56,57 56,66 56,84 65,84 65,93 
		47,93 47,102 38,102 38,111 47,111 47,120 56,120 56,129 74,129 74,120 83,120 83,111 92,111 92,102 	"/>
	<polygon class="st45" points="65,75 65,93 56,93 56,102 65,102 65,111 74,111 74,102 74,93 74,75 	"/>
	<rect x="65" y="84" class="st46" width="9" height="9"/>
	<polygon class="st45" points="263,210 263,201 254,201 254,210 254,210 254,219 254,219 254,237 263,237 263,219 263,219 263,210 	
		"/>
	<rect x="254" y="210" class="st46" width="9" height="9"/>
	<polygon class="st44" points="38,201 38,192 29,192 29,183 20,183 20,192 11,192 11,210 20,210 20,219 29,219 29,228 20,228 
		20,237 11,237 11,246 20,246 20,255 29,255 38,255 47,255 47,246 47,237 47,228 47,210 47,201 	"/>
	<polygon class="st45" points="47,219 38,219 38,210 29,210 29,219 29,228 29,237 38,237 38,228 47,228 	"/>
	<rect x="29" y="219" class="st46" width="9" height="9"/>
</g>
<g id="GUIDES">
	<g>
		<path class="st49" d="M75.3,6.9h-3.5V5.1h8.8v1.8h-3.5v10.5h-1.8V6.9z"/>
		<path class="st49" d="M85,12.1h-0.9v5.3h-1.8V5.1h7V6h0.9v0.9h0.9v3.5h-0.9v0.9h-0.9v0.9h-1.8V13h0.9v0.9h0.9v0.9h0.9v0.9h0.9v1.8
			h-1.8v-0.9h-0.9v-0.9h-0.9v-0.9h-0.9v-0.9h-0.9V13H85V12.1z M84.1,6.9v3.5h4.4V9.5h0.9V7.7h-0.9V6.9H84.1z"/>
		<path class="st49" d="M101.7,5.1v1.8h-7v3.5h5.3v1.8h-5.3v3.5h7v1.8h-8.8V5.1H101.7z"/>
		<path class="st49" d="M105.2,10.4v7h-1.8V5.1h1.8v2.6h0.9v0.9h0.9v0.9h0.9v0.9h0.9v0.9h0.9v0.9h0.9v-7h1.8v12.3h-1.8v-2.6h-0.9
			v-0.9h-0.9V13h-0.9v-0.9h-0.9v-0.9h-0.9v-0.9H105.2z"/>
		<path class="st49" d="M114,17.4V5.1h7V6h0.9v0.9h0.9v8.8h-0.9v0.9H121v0.9H114z M115.7,6.9v8.8h4.4v-0.9h0.9v-7h-0.9V6.9H115.7z"
			/>
		<path class="st49" d="M132.4,6.9h0.9v1.8h-1.8V7.7h-0.9V6.9h-3.5v0.9h-0.9v1.8h0.9v0.9h4.4v0.9h0.9v0.9h0.9v3.5h-0.9v0.9h-0.9v0.9
			h-5.3v-0.9h-0.9v-0.9h-0.9v-1.8h1.8v0.9h0.9v0.9h3.5v-0.9h0.9V13h-0.9v-0.9h-4.4v-0.9h-0.9v-0.9h-0.9V6.9h0.9V6h0.9V5.1h5.3V6h0.9
			V6.9z"/>
		<path class="st49" d="M148.2,15.6h3.5v-0.9h0.9v-0.9h1.8v1.8h-0.9v0.9h-0.9v0.9h-5.3v-0.9h-0.9v-0.9h-0.9V6.9h0.9V6h0.9V5.1h5.3V6
			h0.9v0.9h0.9v1.8h-1.8V7.7h-0.9V6.9h-3.5v0.9h-0.9v7h0.9V15.6z"/>
		<path class="st49" d="M157.9,6V5.1h5.3V6h0.9v0.9h0.9v8.8h-0.9v0.9h-0.9v0.9h-5.3v-0.9H157v-0.9h-0.9V6.9h0.9V6H157.9z M162.3,6.9
			h-3.5v0.9h-0.9v7h0.9v0.9h3.5v-0.9h0.9v-7h-0.9V6.9z"/>
		<path class="st49" d="M168.5,10.4v7h-1.8V5.1h1.8v2.6h0.9v0.9h0.9v0.9h0.9v0.9h0.9v0.9h0.9v0.9h0.9v-7h1.8v12.3h-1.8v-2.6h-0.9
			v-0.9H172V13h-0.9v-0.9h-0.9v-0.9h-0.9v-0.9H168.5z"/>
		<path class="st49" d="M180.8,6.9h-3.5V5.1h8.8v1.8h-3.5v10.5h-1.8V6.9z"/>
		<path class="st49" d="M189.6,17.4v-1.8h1.8V6.9h-1.8V5.1h5.3v1.8h-1.8v8.8h1.8v1.8H189.6z"/>
		<path class="st49" d="M200.1,10.4v7h-1.8V5.1h1.8v2.6h0.9v0.9h0.9v0.9h0.9v0.9h0.9v0.9h0.9v0.9h0.9v-7h1.8v12.3h-1.8v-2.6h-0.9
			v-0.9h-0.9V13h-0.9v-0.9h-0.9v-0.9H201v-0.9H200.1z"/>
		<path class="st49" d="M209.8,15.6h-0.9V5.1h1.8v9.7h0.9v0.9h3.5v-0.9h0.9V5.1h1.8v10.5h-0.9v0.9h-0.9v0.9h-5.3v-0.9h-0.9V15.6z"/>
		<path class="st49" d="M228.2,5.1v1.8h-7v3.5h5.3v1.8h-5.3v3.5h7v1.8h-8.8V5.1H228.2z"/>
	</g>
	<g>
		<polygon class="st51" points="224.6,143.5 217.1,143.5 217.1,136.1 209.6,136.1 209.6,128.8 89.4,128.8 89.4,136.1 81.9,136.1 
			81.9,143.5 74.4,143.5 74.4,180.3 81.9,180.3 81.9,187.6 89.4,187.6 89.4,195 209.6,195 209.6,187.6 217.1,187.6 217.1,180.3 
			224.6,180.3 		"/>
		<rect x="187" y="143.5" width="7.5" height="14.7"/>
		<rect x="209.6" y="143.5" width="7.5" height="14.7"/>
		<rect x="194.6" y="165.6" width="15" height="7.4"/>
		<rect x="104.4" y="195" width="7.5" height="29.4"/>
		<rect x="187" y="195" width="7.5" height="29.4"/>
		<rect x="172" y="195" width="7.5" height="29.4"/>
		<rect x="119.4" y="195" width="7.5" height="29.4"/>
		<rect x="187" y="92" width="7.5" height="36.8"/>
		<polygon class="st52" points="171.9,69.5 176.6,74.7 171.4,79.3 166.6,74.2 150.9,88.2 165.2,103.6 170.4,98.9 175.2,104 
			180.4,99.4 185.2,104.5 200.9,90.5 196.1,85.4 201.4,80.8 196.6,75.6 201.9,71 187.6,55.6 		"/>
	</g>
</g>
</svg>
