<?xml version="1.0" encoding="utf-8"?>
<!-- Generator: Adobe Illustrator 25.2.3, SVG Export Plug-In . SVG Version: 6.00 Build 0)  -->
<svg version="1.1" xmlns="http://www.w3.org/2000/svg" xmlns:xlink="http://www.w3.org/1999/xlink" x="0px" y="0px"
	 viewBox="0 0 300 280" style="enable-background:new 0 0 300 280;" xml:space="preserve">
<style type="text/css">
	.st0{opacity:0.37;}
	.st1{opacity:0.49;}
	.st2{fill:none;stroke:#FCFFFF;stroke-miterlimit:10;}
	.st3{fill:#9E1F25;}
	.st4{fill:#CF232E;}
	.st5{fill:#F7A33B;}
	.st6{fill:#F5C032;}
	.st7{fill:#FFF6D1;}
	.st8{fill:#23763E;}
	.st9{fill:#03464F;}
	.st10{fill:#026385;}
	.st11{fill:#35BCC0;}
	.st12{fill:#018F9F;}
	.st13{fill:#A53A1C;}
	.st14{fill:#DF5330;}
	.st15{fill:#FF8039;}
	.st16{fill:#EE5E2F;}
	.st17{fill:#A51959;}
	.st18{fill:#C12573;}
	.st19{fill:#FF4DA6;}
	.st20{fill:#D2276E;}
	.st21{fill:#163A20;}
	.st22{fill:#1A5C31;}
	.st23{fill:#3E9B50;}
	.st24{fill:#41296D;}
	.st25{fill:#513C82;}
	.st26{fill:#775ABF;}
	.st27{fill:#614293;}
	.st28{fill:#6C0F13;}
	.st29{fill:#E8222E;}
	.st30{fill:#D27633;}
	.st31{fill:#DD8A34;}
	.st32{fill:#F3A634;}
	.st33{fill:none;stroke:#161616;stroke-miterlimit:10;}
	.st34{fill:#7F7973;}
	.st35{fill:#C0B5AA;}
	.st36{fill:#E4DED5;}
	.st37{fill:#514A43;}
	.st38{fill:#606161;}
	.st39{fill:#BEBFB9;}
	.st40{fill:#3A3A3A;}
	.st41{fill:#302C28;}
	.st42{fill:#161616;}
	.st43{fill:#E1E1DF;}
	.st44{fill:#757DE0;}
	.st45{fill:#CAC5FF;}
	.st46{fill:#E9ECFD;}
	.st47{fill:#FCB912;}
	.st48{fill:#FCF54D;}
	.st49{stroke:#000000;stroke-width:0.25;stroke-miterlimit:10;}
	.st50{fill:#FFDE01;}
	.st51{fill:#6F6252;}
	.st52{fill:#32A00D;}
</style>
<g id="layout">
</g>
<g id="Layer_3">
	<g>
		<g>
			<rect x="117.9" y="41" class="st3" width="3.1" height="3.1"/>
			<rect x="120.9" y="44.1" class="st3" width="3.1" height="3.1"/>
			<rect x="191.3" y="47.1" class="st3" width="3.1" height="3.1"/>
			<rect x="194.4" y="44.1" class="st3" width="3.1" height="3.1"/>
			<rect x="197.4" y="41" class="st3" width="3.1" height="3.1"/>
			<polygon class="st3" points="246.4,126.7 246.4,117.5 243.4,117.5 243.4,114.5 240.3,114.5 240.3,105.3 237.2,105.3 237.2,99.2 
				234.2,99.2 234.2,120.6 231.1,120.6 228.1,120.6 228.1,123.6 225,123.6 225,120.6 218.9,120.6 218.9,117.5 212.8,117.5 
				209.7,117.5 209.7,114.5 206.6,114.5 206.6,108.3 203.6,108.3 203.6,99.2 200.5,99.2 200.5,83.9 197.4,83.9 197.4,77.7 
				194.4,77.7 194.4,74.7 191.3,74.7 191.3,71.6 188.3,71.6 188.3,68.5 185.2,68.5 185.2,56.3 188.3,56.3 188.3,53.2 191.3,53.2 
				191.3,50.2 188.3,50.2 185.2,50.2 185.2,53.2 182.1,53.2 182.1,56.3 179.1,56.3 179.1,59.4 176,59.4 176,62.4 173,62.4 173,86.9 
				176,86.9 176,93 179.1,93 179.1,105.3 176,105.3 176,111.4 173,111.4 173,120.6 169.9,120.6 169.9,123.6 160.7,123.6 
				160.7,120.6 157.7,120.6 157.7,114.5 154.6,114.5 154.6,111.4 154.6,108.3 148.5,108.3 148.5,105.3 136.2,105.3 136.2,102.2 
				133.2,102.2 133.2,93 136.2,93 136.2,90 139.3,90 139.3,86.9 142.3,86.9 142.3,83.9 145.4,83.9 145.4,68.5 142.3,68.5 
				142.3,65.5 139.3,65.5 139.3,62.4 136.2,62.4 136.2,56.3 133.2,56.3 133.2,53.2 130.1,53.2 130.1,47.1 127,47.1 124,47.1 
				124,50.2 127,50.2 127,56.3 130.1,56.3 130.1,65.5 127,65.5 127,68.5 124,68.5 120.9,68.5 120.9,71.6 117.9,71.6 117.9,77.7 
				114.8,77.7 114.8,80.8 111.7,80.8 111.7,90 108.7,90 108.7,93 105.6,93 105.6,102.2 102.6,102.2 102.6,105.3 99.5,105.3 
				99.5,108.3 96.4,108.3 96.4,111.4 90.3,111.4 90.3,114.5 68.9,114.5 68.9,108.3 71.9,108.3 71.9,99.2 75,99.2 75,90 71.9,90 
				71.9,93 68.9,93 68.9,99.2 65.8,99.2 65.8,102.2 62.8,102.2 62.8,105.3 59.7,105.3 59.7,108.3 56.6,108.3 56.6,114.5 53.6,114.5 
				53.6,120.6 50.5,120.6 50.5,132.8 53.6,132.8 53.6,135.9 56.6,135.9 56.6,139 59.7,139 59.7,142 62.8,142 62.8,145.1 62.8,148.1 
				65.8,148.1 65.8,154.3 65.8,160.4 65.8,163.4 65.8,169.6 65.8,172.6 65.8,178.7 68.9,178.7 68.9,181.8 65.8,181.8 65.8,218.5 
				68.9,218.5 68.9,221.6 71.9,221.6 71.9,224.7 75,224.7 75,227.7 75,230.8 78.1,230.8 78.1,233.8 81.1,233.8 81.1,236.9 81.1,240 
				84.2,240 84.2,243 87.2,243 87.2,246.1 90.3,246.1 90.3,249.2 93.4,249.2 93.4,252.2 99.5,252.2 99.5,255.3 105.6,255.3 
				105.6,258.3 108.7,258.3 108.7,261.4 120.9,261.4 120.9,264.5 154.6,264.5 157.7,264.5 166.8,264.5 166.8,261.4 176,261.4 
				176,258.3 182.1,258.3 182.1,255.3 188.3,255.3 188.3,252.2 191.3,252.2 191.3,249.2 194.4,249.2 194.4,246.1 200.5,246.1 
				200.5,243 203.6,243 203.6,240 206.6,240 206.6,236.9 206.6,233.8 209.7,233.8 209.7,227.7 212.8,227.7 212.8,218.5 215.8,218.5 
				215.8,200.2 218.9,200.2 218.9,187.9 221.9,187.9 221.9,175.7 225,175.7 225,166.5 228.1,166.5 228.1,163.4 231.1,163.4 
				231.1,157.3 234.2,157.3 234.2,154.3 237.2,154.3 237.2,151.2 240.3,151.2 240.3,148.1 243.4,148.1 243.4,145.1 246.4,145.1 
				246.4,142 249.5,142 249.5,126.7 			"/>
		</g>
		<polygon class="st4" points="203.6,175.7 203.6,160.4 200.5,160.4 197.4,160.4 197.4,151.2 194.4,151.2 194.4,145.1 191.3,145.1 
			191.3,139 188.3,139 188.3,135.9 188.3,132.8 188.3,129.8 185.2,129.8 185.2,132.8 182.1,132.8 182.1,139 179.1,139 179.1,145.1 
			176,145.1 176,148.1 173,148.1 173,151.2 169.9,151.2 169.9,154.3 166.8,154.3 166.8,148.1 163.8,148.1 163.8,135.9 166.8,135.9 
			166.8,129.8 169.9,129.8 169.9,120.6 173,120.6 173,117.5 176,117.5 176,90 173,90 173,71.6 169.9,71.6 169.9,65.5 166.8,65.5 
			166.8,62.4 163.8,62.4 163.8,59.4 160.7,59.4 160.7,53.2 157.7,53.2 157.7,50.2 154.6,50.2 154.6,44.1 151.5,44.1 151.5,74.7 
			148.5,74.7 148.5,86.9 145.4,86.9 145.4,96.1 142.3,96.1 142.3,105.3 139.3,105.3 139.3,111.4 136.2,111.4 136.2,114.5 
			133.2,114.5 133.2,120.6 130.1,120.6 130.1,117.5 127,117.5 127,105.3 124,105.3 124,108.3 120.9,108.3 120.9,111.4 117.9,111.4 
			117.9,117.5 114.8,117.5 114.8,120.6 111.7,120.6 111.7,126.7 108.7,126.7 108.7,135.9 105.6,135.9 105.6,166.5 108.7,166.5 
			108.7,175.7 111.7,175.7 111.7,181.8 108.7,181.8 108.7,178.7 105.6,178.7 105.6,175.7 102.6,175.7 102.6,172.6 99.5,172.6 
			99.5,166.5 96.4,166.5 96.4,163.4 93.4,163.4 93.4,157.3 93.4,148.1 90.3,148.1 90.3,157.3 87.2,157.3 87.2,166.5 84.2,166.5 
			84.2,172.6 81.1,172.6 81.1,181.8 78.1,181.8 78.1,209.4 81.1,209.4 81.1,215.5 84.2,215.5 84.2,221.6 87.2,221.6 87.2,227.7 
			90.3,227.7 90.3,233.8 93.4,233.8 93.4,240 96.4,240 96.4,243 96.4,246.1 102.6,246.1 102.6,249.2 105.6,249.2 108.7,249.2 
			108.7,252.2 114.8,252.2 114.8,255.3 120.9,255.3 120.9,258.3 130.1,258.3 130.1,261.4 142.3,261.4 151.5,261.4 151.5,258.3 
			160.7,258.3 160.7,255.3 169.9,255.3 169.9,252.2 179.1,252.2 179.1,249.2 182.1,249.2 182.1,246.1 185.2,246.1 185.2,243 
			188.3,243 188.3,240 191.3,240 191.3,236.9 197.4,236.9 197.4,233.8 200.5,233.8 200.5,227.7 203.6,227.7 203.6,218.5 
			203.6,215.5 206.6,215.5 206.6,175.7 		"/>
		<g>
			<polygon class="st5" points="178.9,191.1 178.9,182 175.9,182 175.9,175.8 175.9,172.8 169.7,172.8 169.7,169.7 166.7,169.7 
				166.7,166.7 163.6,166.7 163.6,163.6 160.6,163.6 160.6,160.5 157.5,160.5 157.5,157.5 154.4,157.5 154.4,154.4 145.3,154.4 
				145.3,151.4 142.2,151.4 142.2,148.3 136.1,148.3 136.1,142.2 133,142.2 133,145.2 130,145.2 130,148.3 133,148.3 133,151.4 
				136.1,151.4 136.1,154.4 136.1,157.5 139.1,157.5 139.1,160.5 142.2,160.5 142.2,163.6 145.3,163.6 145.3,166.7 145.3,169.7 
				148.3,169.7 148.3,172.8 148.3,175.8 151.4,175.8 151.4,178.9 151.4,182 148.3,182 148.3,188.1 145.3,188.1 145.3,191.1 
				142.2,191.1 142.2,194.2 139.1,194.2 139.1,200.3 136.1,200.3 136.1,206.6 127.1,206.6 127.1,215.6 123.8,215.6 123.8,240.1 
				123.8,246.2 123.8,249.3 123.8,252.4 123.8,255.4 126.9,255.4 126.9,258.5 130,258.5 130,261.6 154.4,261.6 154.4,258.5 
				160.6,258.5 160.6,255.4 163.6,255.4 163.6,252.4 166.7,252.4 166.7,249.3 169.7,249.3 169.7,246.2 172.8,246.2 172.8,237.1 
				175.9,237.1 175.9,230.9 178.9,230.9 178.9,227.9 182,227.9 182,191.1 			"/>
			<rect x="126.9" y="142.2" class="st5" width="3.1" height="3.1"/>
		</g>
		<polygon class="st6" points="166.8,230.8 166.8,233.8 163.8,233.8 163.8,236.9 160.7,236.9 160.7,240 157.7,240 157.7,236.9 
			154.6,236.9 154.6,230.8 151.5,230.8 151.5,224.7 145.4,224.7 145.4,218.5 142.3,218.5 142.3,209.4 136.2,209.4 136.2,203.2 
			133.2,203.2 133.2,200.2 130.1,200.2 130.1,197.1 127,197.1 127,194.1 124,194.1 124,178.7 120.9,178.7 120.9,172.6 117.9,172.6 
			117.9,169.6 114.8,169.6 114.8,191 117.9,191 117.9,200.2 120.9,200.2 120.9,209.4 120.9,212.4 117.9,212.4 117.9,218.5 
			114.8,218.5 114.8,227.7 117.9,227.7 117.9,236.9 114.8,236.9 114.8,233.8 111.7,233.8 111.7,240 114.8,240 114.8,249.2 
			117.9,249.2 117.9,252.2 120.9,252.2 120.9,255.3 124,255.3 124,258.3 130.1,258.3 130.1,261.4 136.2,261.4 148.5,261.4 
			154.6,261.4 154.6,258.3 157.7,258.3 160.7,258.3 160.7,252.2 163.8,252.2 163.8,249.2 166.8,249.2 166.8,240 169.9,240 
			169.9,230.8 		"/>
		<g>
			<rect x="127" y="218.5" class="st7" width="3.1" height="3.1"/>
			<polygon class="st7" points="154.6,236.9 154.6,233.8 151.5,233.8 151.5,236.9 148.5,236.9 142.3,236.9 142.3,233.8 145.4,233.8 
				145.4,224.7 142.3,224.7 142.3,221.6 139.3,221.6 139.3,218.5 142.3,218.5 142.3,215.5 142.3,212.4 139.3,212.4 139.3,215.5 
				136.2,215.5 133.2,215.5 133.2,218.5 136.2,218.5 136.2,221.6 133.2,221.6 130.1,221.6 130.1,224.7 133.2,224.7 136.2,224.7 
				136.2,230.8 133.2,230.8 133.2,233.8 130.1,233.8 130.1,227.7 127,227.7 120.9,227.7 120.9,230.8 127,230.8 127,236.9 127,246.1 
				130.1,246.1 130.1,249.2 130.1,252.2 130.1,255.3 130.1,261.4 133.2,261.4 133.2,255.3 133.2,252.2 133.2,249.2 136.2,249.2 
				136.2,261.4 139.3,261.4 139.3,249.2 142.3,249.2 145.4,249.2 145.4,261.4 148.5,261.4 148.5,249.2 151.5,249.2 151.5,261.4 
				154.6,261.4 154.6,249.2 154.6,246.1 157.7,246.1 157.7,236.9 			"/>
			<rect x="157.7" y="246.1" class="st7" width="3.1" height="3.1"/>
		</g>
	</g>
</g>
<g id="GUIDES">
	<g>
		<path class="st49" d="M101.7,5.2v1.8h-7v3.5h5.3v1.8h-5.3v3.5h7v1.8h-8.8V5.2H101.7z"/>
		<path class="st49" d="M106.1,12.2h-0.9v5.3h-1.8V5.2h7V6h0.9v0.9h0.9v3.5h-0.9v0.9h-0.9v0.9h-1.8v0.9h0.9V14h0.9v0.9h0.9v0.9h0.9
			v1.8h-1.8v-0.9h-0.9v-0.9h-0.9v-0.9h-0.9V14h-0.9v-0.9h-0.9V12.2z M105.2,6.9v3.5h4.4V9.6h0.9V7.8h-0.9V6.9H105.2z"/>
		<path class="st49" d="M115.7,17.5H114V8.7h0.9V7.8h0.9V6.9h0.9V6h0.9V5.2h1.8V6h0.9v0.9h0.9v0.9h0.9v0.9h0.9v8.8H121V14h-5.3V17.5
			z M115.7,12.2h5.3V9.6h-0.9V8.7h-0.9V7.8h-1.8v0.9h-0.9v0.9h-0.9V12.2z"/>
		<path class="st49" d="M124.5,17.5V5.2h7V6h0.9v0.9h0.9v8.8h-0.9v0.9h-0.9v0.9H124.5z M126.3,6.9v8.8h4.4v-0.9h0.9v-7h-0.9V6.9
			H126.3z"/>
		<path class="st49" d="M136.8,17.5v-1.8h1.8V6.9h-1.8V5.2h5.3v1.8h-1.8v8.8h1.8v1.8H136.8z"/>
		<path class="st49" d="M148.2,15.7h3.5v-0.9h0.9V14h1.8v1.8h-0.9v0.9h-0.9v0.9h-5.3v-0.9h-0.9v-0.9h-0.9V6.9h0.9V6h0.9V5.2h5.3V6
			h0.9v0.9h0.9v1.8h-1.8V7.8h-0.9V6.9h-3.5v0.9h-0.9v7h0.9V15.7z"/>
		<path class="st49" d="M157.9,17.5h-1.8V8.7h0.9V7.8h0.9V6.9h0.9V6h0.9V5.2h1.8V6h0.9v0.9h0.9v0.9h0.9v0.9h0.9v8.8h-1.8V14h-5.3
			V17.5z M157.9,12.2h5.3V9.6h-0.9V8.7h-0.9V7.8h-1.8v0.9h-0.9v0.9h-0.9V12.2z"/>
		<path class="st49" d="M170.2,6.9h-3.5V5.2h8.8v1.8H172v10.5h-1.8V6.9z"/>
		<path class="st49" d="M179,17.5v-1.8h1.8V6.9H179V5.2h5.3v1.8h-1.8v8.8h1.8v1.8H179z"/>
		<path class="st49" d="M189.6,6V5.2h5.3V6h0.9v0.9h0.9v8.8h-0.9v0.9h-0.9v0.9h-5.3v-0.9h-0.9v-0.9h-0.9V6.9h0.9V6H189.6z
			 M193.9,6.9h-3.5v0.9h-0.9v7h0.9v0.9h3.5v-0.9h0.9v-7h-0.9V6.9z"/>
		<path class="st49" d="M200.1,10.4v7h-1.8V5.2h1.8v2.6h0.9v0.9h0.9v0.9h0.9v0.9h0.9v0.9h0.9v0.9h0.9v-7h1.8v12.3h-1.8v-2.6h-0.9V14
			h-0.9v-0.9h-0.9v-0.9h-0.9v-0.9H201v-0.9H200.1z"/>
	</g>
</g>
</svg>
