<?xml version="1.0" encoding="utf-8"?>
<!-- Generator: Adobe Illustrator 25.2.3, SVG Export Plug-In . SVG Version: 6.00 Build 0)  -->
<svg version="1.1" xmlns="http://www.w3.org/2000/svg" xmlns:xlink="http://www.w3.org/1999/xlink" x="0px" y="0px"
	 viewBox="0 0 250 150" style="enable-background:new 0 0 250 150;" xml:space="preserve">
<style type="text/css">
	.st0{fill:#41B5B1;}
	.st1{fill:#EFBD38;}
	.st2{fill:#E3963A;}
	.st3{fill:#DD5832;}
	.st4{fill:#1D5B76;}
	.st5{fill:#D2C6B1;}
	.st6{fill:#8C2429;}
	.st7{fill:#E3DBCE;}
	.st8{fill:#9CA051;}
	.st9{fill:#343533;}
	.st10{fill:#B16447;}
	.st11{fill:#613C34;}
	.st12{fill:#706353;}
	.st13{fill:#010101;}
	.st14{fill:#33A14D;}
	.st15{fill:#E4DED5;}
	.st16{fill:#C0B5AA;}
	.st17{fill:#D18238;}
	.st18{clip-path:url(#SVGID_2_);}
	.st19{fill:#296D3C;}
	.st20{fill:#38874B;}
	.st21{fill:#BE2830;}
	.st22{clip-path:url(#SVGID_4_);}
	.st23{display:none;}
	.st24{display:inline;}
	.st25{fill:none;stroke:#E3963A;stroke-width:3;stroke-miterlimit:10;}
	.st26{display:inline;fill:none;stroke:#E3963A;stroke-width:3;stroke-miterlimit:10;}
</style>
<g id="Layer_1">
	<g>
		<path class="st0" d="M182.5,125.5l-0.7-0.7l-0.7,0.7l-0.7-0.7l-2.1,2.1l-2.1-2.1l-0.7,0.7l-0.7-0.7l-0.7,0.7l-0.7-0.7l-0.7,0.7
			l0.7,0.7l-0.7,0.7l0.7,0.7l-0.7,0.7l2.1,2.1l-2.1,2.1l0.7,0.7l-0.7,0.7l0.7,0.7l-0.7,0.7l0.7,0.7l0.7-0.7l0.7,0.7l0.7-0.7l0.7,0.7
			l2.1-2.1l2.1,2.1l0.7-0.7l0.7,0.7l0.7-0.7l0.7,0.7l0.7-0.7l-0.7-0.7l0.7-0.7l-0.7-0.7l0.7-0.7l-2.1-2.1l2.1-2.1l-0.7-0.7l0.7-0.7
			l-0.7-0.7l0.7-0.7l-0.7-0.7L182.5,125.5z"/>
		<polygon class="st0" points="178.4,129.7 179.1,129 177.7,129 		"/>
		<polygon class="st0" points="177.7,130.4 177,129.7 177,131.1 		"/>
		<polygon class="st0" points="178.4,131.1 177.7,131.8 179.1,131.8 		"/>
		<polygon class="st0" points="179.1,130.4 179.8,131.1 179.8,129.7 		"/>
	</g>
	<g>
		<polygon class="st1" points="227.4,13.1 227.4,8.2 229.4,8.2 229.4,7.2 233.3,7.2 233.3,5.2 234.3,5.2 234.3,4.2 238.2,4.2 
			238.2,5.2 239.2,5.2 239.2,7.2 243.2,7.2 243.2,8.2 245.1,8.2 245.1,13.1 244.1,13.1 244.1,14.1 245.1,14.1 245.1,18 244.1,18 
			244.1,19 243.2,19 243.2,20 239.2,20 239.2,22 238.2,22 238.2,23 234.3,23 234.3,22 233.3,22 233.3,20 229.4,20 229.4,19 
			228.4,19 228.4,18 227.4,18 227.4,14.1 228.4,14.1 228.4,13.1 		"/>
		<g>
			<rect x="240.2" y="9.2" class="st2" width="1" height="1"/>
			<rect x="239.2" y="10.2" class="st2" width="1" height="1"/>
			<polygon class="st2" points="239.2,10.2 238.2,10.2 238.2,9.2 238.2,7.2 239.2,7.2 239.2,9.2 			"/>
			<rect x="243.2" y="7.2" class="st2" width="1" height="1"/>
			<rect x="244.1" y="8.2" class="st2" width="1" height="1"/>
			<rect x="245.1" y="9.2" class="st2" width="1" height="3.9"/>
			<polygon class="st2" points="243.2,15.1 241.2,15.1 241.2,14.1 243.2,14.1 244.1,14.1 244.1,15.1 			"/>
			<polygon class="st2" points="240.2,13.1 240.2,12.1 241.2,12.1 241.2,13.1 241.2,14.1 240.2,14.1 			"/>
			<rect x="231.3" y="9.2" class="st2" width="1" height="1"/>
			<rect x="232.3" y="10.2" class="st2" width="1" height="1"/>
			<polygon class="st2" points="234.3,9.2 234.3,10.2 233.3,10.2 233.3,9.2 233.3,7.2 234.3,7.2 			"/>
			<polygon class="st2" points="233.3,7.2 232.3,7.2 230.3,7.2 229.4,7.2 229.4,6.2 230.3,6.2 232.3,6.2 232.3,5.2 233.3,5.2 
				233.3,6.2 			"/>
			<rect x="228.4" y="7.2" class="st2" width="1" height="1"/>
			<rect x="227.4" y="8.2" class="st2" width="1" height="1"/>
			<rect x="226.4" y="9.2" class="st2" width="1" height="3.9"/>
			<polygon class="st2" points="231.3,14.1 231.3,15.1 229.4,15.1 228.4,15.1 228.4,14.1 229.4,14.1 			"/>
			<polygon class="st2" points="231.3,12.1 232.3,12.1 232.3,13.1 232.3,14.1 231.3,14.1 231.3,13.1 			"/>
			<polygon class="st2" points="240.2,7.2 239.2,7.2 239.2,6.2 239.2,5.2 240.2,5.2 240.2,6.2 242.2,6.2 243.2,6.2 243.2,7.2 
				242.2,7.2 			"/>
			<rect x="238.2" y="4.2" class="st2" width="1" height="1"/>
			<rect x="233.3" y="4.2" class="st2" width="1" height="1"/>
			<rect x="234.3" y="3.3" class="st2" width="3.9" height="1"/>
			<rect x="240.2" y="17.1" class="st2" width="1" height="1"/>
			<rect x="239.2" y="16.1" class="st2" width="1" height="1"/>
			<polygon class="st2" points="238.2,18 238.2,17.1 239.2,17.1 239.2,18 239.2,20 238.2,20 			"/>
			<rect x="243.2" y="19" class="st2" width="1" height="1"/>
			<rect x="244.1" y="18" class="st2" width="1" height="1"/>
			<rect x="245.1" y="14.1" class="st2" width="1" height="3.9"/>
			<rect x="244.1" y="13.1" class="st2" width="1" height="1"/>
			<rect x="231.3" y="17.1" class="st2" width="1" height="1"/>
			<rect x="232.3" y="16.1" class="st2" width="1" height="1"/>
			<polygon class="st2" points="233.3,17.1 234.3,17.1 234.3,18 234.3,20 233.3,20 233.3,18 			"/>
			<polygon class="st2" points="232.3,20 233.3,20 233.3,21 233.3,22 232.3,22 232.3,21 230.3,21 229.4,21 229.4,20 230.3,20 			"/>
			<rect x="228.4" y="19" class="st2" width="1" height="1"/>
			<rect x="227.4" y="18" class="st2" width="1" height="1"/>
			<rect x="226.4" y="14.1" class="st2" width="1" height="3.9"/>
			<rect x="227.4" y="13.1" class="st2" width="1" height="1"/>
			<polygon class="st2" points="239.2,20 240.2,20 242.2,20 243.2,20 243.2,21 242.2,21 240.2,21 240.2,22 239.2,22 239.2,21 			"/>
			<rect x="238.2" y="22" class="st2" width="1" height="1"/>
			<rect x="233.3" y="22" class="st2" width="1" height="1"/>
			<rect x="234.3" y="23" class="st2" width="3.9" height="1"/>
		</g>
		<polygon class="st3" points="233.3,13.1 234.3,13.1 234.3,12.1 235.3,12.1 235.3,11.1 237.2,11.1 237.2,12.1 238.2,12.1 
			238.2,13.1 239.2,13.1 239.2,14.1 238.2,14.1 238.2,15.1 237.2,15.1 237.2,16.1 235.3,16.1 235.3,15.1 234.3,15.1 234.3,14.1 
			233.3,14.1 		"/>
	</g>
	<g>
		<polygon class="st1" points="108.3,55 108.3,50.1 110.3,50.1 110.3,49.1 114.2,49.1 114.2,47.1 115.2,47.1 115.2,46.1 119.2,46.1 
			119.2,47.1 120.2,47.1 120.2,49.1 124.1,49.1 124.1,50.1 126.1,50.1 126.1,55 125.1,55 125.1,56 126.1,56 126.1,59.9 125.1,59.9 
			125.1,60.9 124.1,60.9 124.1,61.9 120.2,61.9 120.2,63.9 119.2,63.9 119.2,64.9 115.2,64.9 115.2,63.9 114.2,63.9 114.2,61.9 
			110.3,61.9 110.3,60.9 109.3,60.9 109.3,59.9 108.3,59.9 108.3,56 109.3,56 109.3,55 		"/>
		<g>
			<rect x="121.1" y="51.1" class="st2" width="1" height="1"/>
			<rect x="120.2" y="52" class="st2" width="1" height="1"/>
			<polygon class="st2" points="120.2,52 119.2,52 119.2,51.1 119.2,49.1 120.2,49.1 120.2,51.1 			"/>
			<rect x="124.1" y="49.1" class="st2" width="1" height="1"/>
			<rect x="125.1" y="50.1" class="st2" width="1" height="1"/>
			<rect x="126.1" y="51.1" class="st2" width="1" height="3.9"/>
			<polygon class="st2" points="124.1,57 122.1,57 122.1,56 124.1,56 125.1,56 125.1,57 			"/>
			<polygon class="st2" points="121.1,55 121.1,54 122.1,54 122.1,55 122.1,56 121.1,56 			"/>
			<rect x="112.3" y="51.1" class="st2" width="1" height="1"/>
			<rect x="113.3" y="52" class="st2" width="1" height="1"/>
			<polygon class="st2" points="115.2,51.1 115.2,52 114.2,52 114.2,51.1 114.2,49.1 115.2,49.1 			"/>
			<polygon class="st2" points="114.2,49.1 113.3,49.1 111.3,49.1 110.3,49.1 110.3,48.1 111.3,48.1 113.3,48.1 113.3,47.1 
				114.2,47.1 114.2,48.1 			"/>
			<rect x="109.3" y="49.1" class="st2" width="1" height="1"/>
			<rect x="108.3" y="50.1" class="st2" width="1" height="1"/>
			<rect x="107.3" y="51.1" class="st2" width="1" height="3.9"/>
			<polygon class="st2" points="112.3,56 112.3,57 110.3,57 109.3,57 109.3,56 110.3,56 			"/>
			<polygon class="st2" points="112.3,54 113.3,54 113.3,55 113.3,56 112.3,56 112.3,55 			"/>
			<polygon class="st2" points="121.1,49.1 120.2,49.1 120.2,48.1 120.2,47.1 121.1,47.1 121.1,48.1 123.1,48.1 124.1,48.1 
				124.1,49.1 123.1,49.1 			"/>
			<rect x="119.2" y="46.1" class="st2" width="1" height="1"/>
			<rect x="114.2" y="46.1" class="st2" width="1" height="1"/>
			<rect x="115.2" y="45.1" class="st2" width="3.9" height="1"/>
			<rect x="121.1" y="58.9" class="st2" width="1" height="1"/>
			<rect x="120.2" y="58" class="st2" width="1" height="1"/>
			<polygon class="st2" points="119.2,59.9 119.2,58.9 120.2,58.9 120.2,59.9 120.2,61.9 119.2,61.9 			"/>
			<rect x="124.1" y="60.9" class="st2" width="1" height="1"/>
			<rect x="125.1" y="59.9" class="st2" width="1" height="1"/>
			<rect x="126.1" y="56" class="st2" width="1" height="3.9"/>
			<rect x="125.1" y="55" class="st2" width="1" height="1"/>
			<rect x="112.3" y="58.9" class="st2" width="1" height="1"/>
			<rect x="113.3" y="58" class="st2" width="1" height="1"/>
			<polygon class="st2" points="114.2,58.9 115.2,58.9 115.2,59.9 115.2,61.9 114.2,61.9 114.2,59.9 			"/>
			<polygon class="st2" points="113.3,61.9 114.2,61.9 114.2,62.9 114.2,63.9 113.3,63.9 113.3,62.9 111.3,62.9 110.3,62.9 
				110.3,61.9 111.3,61.9 			"/>
			<rect x="109.3" y="60.9" class="st2" width="1" height="1"/>
			<rect x="108.3" y="59.9" class="st2" width="1" height="1"/>
			<rect x="107.3" y="56" class="st2" width="1" height="3.9"/>
			<rect x="108.3" y="55" class="st2" width="1" height="1"/>
			<polygon class="st2" points="120.2,61.9 121.1,61.9 123.1,61.9 124.1,61.9 124.1,62.9 123.1,62.9 121.1,62.9 121.1,63.9 
				120.2,63.9 120.2,62.9 			"/>
			<rect x="119.2" y="63.9" class="st2" width="1" height="1"/>
			<rect x="114.2" y="63.9" class="st2" width="1" height="1"/>
			<rect x="115.2" y="64.9" class="st2" width="3.9" height="1"/>
		</g>
		<polygon class="st3" points="114.2,55 115.2,55 115.2,54 116.2,54 116.2,53 118.2,53 118.2,54 119.2,54 119.2,55 120.2,55 
			120.2,56 119.2,56 119.2,57 118.2,57 118.2,58 116.2,58 116.2,57 115.2,57 115.2,56 114.2,56 		"/>
	</g>
	<rect x="177.9" y="128.9" transform="matrix(0.7071 -0.7071 0.7071 0.7071 -39.9492 164.3074)" class="st1" width="1" height="3"/>
	<rect x="176.9" y="129.9" transform="matrix(0.7071 -0.7071 0.7071 0.7071 -39.9492 164.3074)" class="st1" width="3" height="1"/>
	<path class="st4" d="M180.5,127.6l-0.7-0.7l-1.4,1.4l-1.4-1.4l-0.7,0.7l-1.4-1.4l-0.7,0.7l1.4,1.4l-0.7,0.7l1.4,1.4l-1.4,1.4
		l0.7,0.7l-1.4,1.4l0.7,0.7l1.4-1.4l0.7,0.7l1.4-1.4l1.4,1.4l0.7-0.7l1.4,1.4l0.7-0.7l-1.4-1.4l0.7-0.7l-1.4-1.4l1.4-1.4l-0.7-0.7
		l1.4-1.4l-0.7-0.7L180.5,127.6z M179.8,129.7l-0.7,0.7l0.7,0.7l-0.7,0.7l-0.7-0.7l-0.7,0.7l-0.7-0.7l0.7-0.7l-0.7-0.7l0.7-0.7
		l0.7,0.7l0.7-0.7L179.8,129.7z"/>
	<g>
		<polygon class="st5" points="187.7,70.3 192.7,70.3 192.7,68.3 207.4,68.3 207.4,67.3 213.4,67.3 213.4,66.3 213.4,65.4 
			214.3,65.4 214.3,66.3 215.3,66.3 215.3,68.3 215.3,69.3 216.3,69.3 216.3,71.3 216.3,72.2 217.3,72.2 217.3,73.2 218.3,73.2 
			218.3,75.2 219.3,75.2 219.3,77.2 220.3,77.2 220.3,79.1 221.2,79.1 221.2,81.1 220.3,81.1 220.3,82.1 198.6,82.1 198.6,84.1 
			195.6,84.1 195.6,85.1 194.6,85.1 194.6,84.1 193.6,84.1 193.6,81.1 192.7,81.1 192.7,79.1 190.7,79.1 190.7,78.2 187.7,78.2 		
			"/>
		<polygon class="st6" points="188.7,68.3 188.7,67.3 192.7,67.3 192.7,65.4 213.4,65.4 213.4,67.3 211.4,67.3 211.4,68.3 
			209.4,68.3 209.4,69.3 205.5,69.3 205.5,70.3 188.7,70.3 188.7,69.3 187.7,69.3 187.7,68.3 		"/>
		<polygon class="st0" points="198.6,30.9 198.6,31.8 199.6,31.8 202.5,31.8 202.5,32.8 205.5,32.8 205.5,33.8 206.5,33.8 
			208.4,33.8 208.4,34.8 210.4,34.8 210.4,35.8 211.4,35.8 211.4,36.8 213.4,36.8 213.4,37.8 214.3,37.8 215.3,37.8 215.3,38.7 
			214.3,38.7 214.3,42.7 197.6,42.7 197.6,37.8 197.6,36.8 196.6,36.8 196.6,33.8 195.6,33.8 195.6,32.8 195.6,31.8 195.6,30.9 		
			"/>
		<polygon class="st7" points="193.6,35.8 193.6,34.8 197.6,34.8 197.6,35.8 198.6,35.8 198.6,38.7 197.6,38.7 197.6,39.7 
			193.6,39.7 193.6,38.7 192.7,38.7 192.7,35.8 		"/>
		<polygon class="st7" points="214.3,42.7 214.3,40.7 215.3,40.7 217.3,40.7 217.3,54.5 215.3,54.5 215.3,53.5 214.3,53.5 
			214.3,51.6 215.3,51.6 215.3,42.7 		"/>
		<polygon class="st8" points="191.7,65.4 191.7,64.4 193.6,64.4 193.6,63.4 194.6,63.4 194.6,62.4 198.6,62.4 198.6,63.4 
			202.5,63.4 202.5,62.4 211.4,62.4 211.4,63.4 214.3,63.4 214.3,64.4 213.4,64.4 213.4,65.4 212.4,65.4 212.4,66.3 210.4,66.3 
			210.4,67.3 208.4,67.3 208.4,68.3 204.5,68.3 204.5,69.3 190.7,69.3 190.7,68.3 189.7,68.3 189.7,66.3 189.7,65.4 		"/>
		<polygon class="st9" points="211.4,48.6 211.4,51.6 212.4,51.6 212.4,55.5 213.4,55.5 213.4,56.5 213.4,57.5 214.3,57.5 
			214.3,58.5 215.3,58.5 215.3,59.4 216.3,59.4 216.3,60.4 216.3,61.4 217.3,61.4 217.3,62.4 218.3,62.4 218.3,63.4 219.3,63.4 
			219.3,64.4 220.3,64.4 220.3,65.4 221.2,65.4 221.2,66.3 215.3,66.3 215.3,65.4 211.4,65.4 211.4,64.4 209.4,64.4 209.4,63.4 
			206.5,63.4 206.5,62.4 205.5,62.4 203.5,62.4 203.5,53.5 203.5,50.6 203.5,48.6 		"/>
		<polygon class="st6" points="217.3,44.7 217.3,43.7 216.3,43.7 216.3,40.7 217.3,40.7 217.3,39.7 218.3,39.7 218.3,38.7 
			220.3,38.7 220.3,37.8 221.2,37.8 221.2,38.7 222.2,38.7 222.2,39.7 222.2,40.7 223.2,40.7 223.2,42.7 224.2,42.7 224.2,44.7 
			224.2,46.6 224.2,49.6 224.2,51.6 224.2,53.5 223.2,53.5 223.2,55.5 222.2,55.5 222.2,56.5 222.2,57.5 221.2,57.5 221.2,58.5 
			220.3,58.5 220.3,57.5 218.3,57.5 218.3,56.5 217.3,56.5 217.3,55.5 216.3,55.5 216.3,53.5 216.3,52.5 216.3,48.6 217.3,48.6 
			217.3,46.6 		"/>
		<polygon class="st10" points="190.7,53.5 190.7,52.5 191.7,52.5 191.7,50.6 192.7,50.6 192.7,49.6 192.7,48.6 192.7,48.6 
			192.7,47.6 192.7,47.6 192.7,46.6 193.6,46.6 200.5,46.6 201.5,46.6 202.5,46.6 202.5,51.6 202.5,52.5 202.5,54.5 201.5,54.5 
			201.5,56.5 201.5,59.4 201.5,60.4 203.5,60.4 203.5,61.4 203.5,62.4 204.5,62.4 204.5,63.4 203.5,63.4 203.5,64.4 198.6,64.4 
			198.6,63.4 195.6,63.4 195.6,62.4 195.6,61.4 195.6,60.4 192.7,60.4 192.7,59.4 191.7,59.4 191.7,57.5 191.7,57.5 191.7,55.5 
			191.7,55.5 191.7,53.5 		"/>
		<polygon class="st0" points="201.5,55.5 201.5,54.5 205.5,54.5 205.5,55.5 206.5,55.5 206.5,59.4 205.5,59.4 205.5,60.4 
			201.5,60.4 201.5,59.4 200.5,59.4 200.5,55.5 		"/>
		<polygon class="st7" points="223.2,42.7 223.2,40.7 222.2,40.7 222.2,38.7 221.2,38.7 221.2,36.8 222.2,36.8 222.2,35.8 
			223.2,35.8 223.2,34.8 224.2,34.8 224.2,33.8 225.2,33.8 225.2,35.8 226.2,35.8 226.2,37.8 227.2,37.8 227.2,39.7 228.1,39.7 
			228.1,42.7 229.1,42.7 229.1,53.5 228.1,53.5 228.1,56.5 227.2,56.5 227.2,58.5 226.2,58.5 226.2,60.4 225.2,60.4 225.2,62.4 
			224.2,62.4 224.2,61.4 223.2,61.4 223.2,60.4 222.2,60.4 222.2,59.4 221.2,59.4 221.2,57.5 222.2,57.5 222.2,55.5 223.2,55.5 
			223.2,53.5 224.2,53.5 224.2,42.7 		"/>
		<g>
			<rect x="190.7" y="41.7" class="st6" width="2" height="2"/>
			<polygon class="st6" points="202.5,43.7 202.5,44.7 206.5,44.7 206.5,45.6 208.4,45.6 209.4,45.6 209.4,46.6 210.4,46.6 
				210.4,47.6 210.4,48.6 209.4,48.6 208.4,48.6 208.4,47.6 203.5,47.6 203.5,46.6 202.5,46.6 202.5,45.6 194.6,45.6 194.6,46.6 
				190.7,46.6 190.7,45.6 191.7,45.6 191.7,44.7 192.7,44.7 192.7,43.7 			"/>
		</g>
		<polygon class="st6" points="214.3,40.7 214.3,42.7 215.3,42.7 215.3,51.6 214.3,51.6 214.3,52.5 213.4,52.5 213.4,40.7 		"/>
		<g>
			<polygon class="st7" points="202.5,46.6 203.5,46.6 203.5,47.6 208.4,47.6 208.4,48.6 203.5,48.6 203.5,54.5 202.5,54.5 
				202.5,48.6 202.5,47.6 194.6,47.6 194.6,45.6 202.5,45.6 			"/>
			<polygon class="st7" points="205.5,41.7 205.5,42.7 209.4,42.7 209.4,43.7 210.4,43.7 211.4,43.7 211.4,41.7 213.4,41.7 
				213.4,51.6 211.4,51.6 211.4,48.6 210.4,48.6 210.4,46.6 209.4,46.6 209.4,45.6 206.5,45.6 206.5,44.7 202.5,44.7 202.5,43.7 
				193.6,43.7 193.6,42.7 193.6,41.7 			"/>
		</g>
		<polygon class="st6" points="193.6,39.7 206.5,39.7 206.5,40.7 209.4,40.7 209.4,41.7 211.4,41.7 211.4,43.7 209.4,43.7 
			209.4,42.7 205.5,42.7 205.5,41.7 193.6,41.7 		"/>
		<g>
			<rect x="194.6" y="36.8" class="st6" width="2" height="2"/>
			<polygon class="st6" points="190.7,33.8 192.7,33.8 192.7,32.8 193.6,32.8 193.6,33.8 194.6,33.8 194.6,32.8 197.6,32.8 
				197.6,34.8 194.6,34.8 193.6,34.8 193.6,35.8 192.7,35.8 192.7,36.8 191.7,36.8 191.7,35.8 190.7,35.8 189.7,35.8 189.7,33.8 			
				"/>
		</g>
		
			<rect x="190.7" y="38.7" transform="matrix(-1 -4.475410e-11 4.475410e-11 -1 383.3357 79.4482)" class="st7" width="2" height="2"/>
		
			<rect x="209.4" y="39.7" transform="matrix(-1 -4.521551e-11 4.521551e-11 -1 420.7892 81.4194)" class="st7" width="2" height="2"/>
		
			<rect x="200.5" y="36.8" transform="matrix(-1 -4.521551e-11 4.521551e-11 -1 403.048 75.5057)" class="st7" width="2" height="2"/>
		<polygon class="st6" points="195.6,26.9 195.6,27.9 196.6,27.9 200.5,27.9 200.5,28.9 204.5,28.9 204.5,29.9 207.4,29.9 
			207.4,30.9 208.4,30.9 209.4,30.9 209.4,31.8 211.4,31.8 211.4,32.8 213.4,32.8 213.4,33.8 215.3,33.8 215.3,34.8 216.3,34.8 
			216.3,35.8 217.3,35.8 217.3,36.8 215.3,36.8 215.3,37.8 213.4,37.8 213.4,36.8 211.4,36.8 211.4,35.8 210.4,35.8 210.4,34.8 
			208.4,34.8 208.4,33.8 205.5,33.8 205.5,32.8 202.5,32.8 202.5,31.8 198.6,31.8 198.6,30.9 195.6,30.9 195.6,29.9 194.6,29.9 
			194.6,26.9 		"/>
		
			<rect x="196.6" y="20" transform="matrix(-1 -4.503121e-11 4.503121e-11 -1 398.1199 41.0091)" class="st2" width="4.9" height="1"/>
		<polygon class="st2" points="196.6,22 196.6,20 197.6,20 197.6,21 205.5,21 205.5,22 209.4,22 209.4,23 212.4,23 212.4,24 
			213.4,24 213.4,24.9 215.3,24.9 215.3,25.9 217.3,25.9 217.3,26.9 218.3,26.9 218.3,27.9 219.3,27.9 219.3,28.9 220.3,28.9 
			220.3,29.9 221.2,29.9 221.2,30.9 222.2,30.9 222.2,31.8 221.2,31.8 221.2,32.8 220.3,32.8 220.3,33.8 219.3,33.8 219.3,34.8 
			218.3,34.8 218.3,35.8 217.3,35.8 216.3,35.8 216.3,34.8 215.3,34.8 215.3,33.8 213.4,33.8 213.4,32.8 211.4,32.8 211.4,31.8 
			209.4,31.8 209.4,30.9 207.4,30.9 207.4,29.9 204.5,29.9 204.5,28.9 200.5,28.9 200.5,27.9 197.6,27.9 195.6,27.9 195.6,26.9 
			195.6,25.9 195.6,22 		"/>
		
			<rect x="191.7" y="56.5" transform="matrix(-1 -4.490820e-11 4.490820e-11 -1 386.2925 113.9448)" class="st11" width="3" height="1"/>
		
			<rect x="192.7" y="56.5" transform="matrix(-1 -4.429314e-11 4.429314e-11 -1 386.2925 113.9448)" class="st11" width="1" height="1"/>
		
			<rect x="194.6" y="49.6" transform="matrix(-1 -4.429314e-11 4.429314e-11 -1 390.235 100.1462)" class="st9" width="1" height="1"/>
		
			<rect x="195.6" y="48.6" transform="matrix(-1 -4.429314e-11 4.429314e-11 -1 392.2062 98.1749)" class="st9" width="1" height="1"/>
		
			<rect x="193.6" y="48.6" transform="matrix(-1 -4.613833e-11 4.613833e-11 -1 388.2638 98.1749)" class="st9" width="1" height="1"/>
		
			<rect x="196.6" y="49.6" transform="matrix(-1 -4.429314e-11 4.429314e-11 -1 394.1775 100.1462)" class="st9" width="1" height="1"/>
		
			<rect x="194.6" y="48.6" transform="matrix(-1 -4.429314e-11 4.429314e-11 -1 390.235 98.1749)" class="st9" width="1" height="1"/>
		
			<rect x="191.7" y="53.5" transform="matrix(-1 -4.429314e-11 4.429314e-11 -1 384.3213 108.0311)" class="st11" width="1" height="1"/>
		
			<rect x="192.7" y="52.5" transform="matrix(-1 -4.521551e-11 4.521551e-11 -1 387.2782 107.0455)" class="st0" width="2" height="2"/>
		
			<rect x="196.6" y="59.4" transform="matrix(-1 -4.613833e-11 4.613833e-11 -1 394.1775 119.8585)" class="st11" width="1" height="1"/>
		
			<rect x="197.6" y="58.5" transform="matrix(-1 -4.429314e-11 4.429314e-11 -1 396.1487 117.8873)" class="st11" width="1" height="1"/>
		
			<rect x="195.6" y="60.4" transform="matrix(-1 -4.429314e-11 4.429314e-11 -1 392.2062 121.8297)" class="st11" width="1" height="1"/>
		
			<rect x="203.5" y="6.2" transform="matrix(-1 -4.521551e-11 4.521551e-11 -1 408.9617 13.4119)" class="st8" width="2" height="1"/>
		<polygon class="st8" points="187.7,23 187.7,21 188.7,21 188.7,19 189.7,19 189.7,16.1 190.7,16.1 190.7,14.1 191.7,14.1 
			191.7,12.1 192.7,12.1 192.7,10.2 193.6,10.2 193.6,8.2 194.6,8.2 194.6,5.2 195.6,5.2 195.6,4.2 195.6,3.3 196.6,3.3 196.6,4.2 
			196.6,6.2 196.6,10.2 195.6,10.2 195.6,12.1 194.6,12.1 194.6,14.1 193.6,14.1 193.6,17.1 194.6,17.1 194.6,15.1 195.6,15.1 
			195.6,14.1 196.6,14.1 196.6,13.1 196.6,12.1 197.6,12.1 197.6,11.1 198.6,11.1 198.6,10.2 199.6,10.2 199.6,9.2 199.6,8.2 
			201.5,8.2 201.5,7.2 204.5,7.2 204.5,8.2 203.5,8.2 203.5,9.2 202.5,9.2 202.5,10.2 202.5,11.1 201.5,11.1 201.5,12.1 200.5,12.1 
			200.5,13.1 200.5,14.1 198.6,14.1 198.6,16.1 197.6,16.1 197.6,18 196.6,18 196.6,20 195.6,20 195.6,22 194.6,22 194.6,24 
			193.6,24 193.6,29.9 192.7,29.9 192.7,32.8 191.7,32.8 191.7,30.9 190.7,30.9 189.7,30.9 188.7,30.9 187.7,30.9 186.7,30.9 
			186.7,23 		"/>
		
			<rect x="192.7" y="29.9" transform="matrix(-1 -4.490820e-11 4.490820e-11 -1 388.2638 62.6927)" class="st2" width="3" height="3"/>
		
			<rect x="193.6" y="24" transform="matrix(-1 -4.521551e-11 4.521551e-11 -1 388.2638 57.7646)" class="st2" width="1" height="9.9"/>
		
			<rect x="189.7" y="32.8" transform="matrix(-1 -4.490820e-11 4.490820e-11 -1 382.3501 66.6352)" class="st2" width="3" height="1"/>
		
			<rect x="187.7" y="31.8" transform="matrix(-1 -4.498503e-11 4.498503e-11 -1 379.3932 64.6639)" class="st2" width="3.9" height="1"/>
		
			<rect x="184.8" y="30.9" transform="matrix(-1 -4.495216e-11 4.495216e-11 -1 376.4364 62.6927)" class="st2" width="6.9" height="1"/>
		
			<rect x="183.8" y="29.9" transform="matrix(-1 -4.490820e-11 4.490820e-11 -1 373.4795 60.7215)" class="st2" width="5.9" height="1"/>
		
			<rect x="182.8" y="28.9" transform="matrix(-1 -4.490820e-11 4.490820e-11 -1 371.5083 58.7502)" class="st2" width="5.9" height="1"/>
		<polygon class="st10" points="171,64.4 171,65.4 172.9,65.4 172.9,66.3 174.9,66.3 176.9,66.3 176.9,67.3 176.9,69.3 187.7,69.3 
			187.7,74.2 173.9,74.2 172,74.2 172,73.2 170,73.2 170,72.2 170,67.3 170,66.3 170,65.4 170,64.4 		"/>
		<polygon class="st10" points="172.9,87 172.9,82.1 173.9,82.1 181.8,82.1 181.8,81.1 184.8,81.1 184.8,80.1 187.7,80.1 
			187.7,79.1 187.7,78.2 190.7,78.2 190.7,79.1 192.7,79.1 192.7,80.1 192.7,81.1 193.6,81.1 193.6,83.1 193.6,84.1 191.7,84.1 
			191.7,85.1 188.7,85.1 188.7,86 175.9,86 175.9,88 174.9,88 174.9,89 173.9,89 173.9,90 172.9,90 172.9,91 170,91 170,90 168,90 
			168,89 167,89 167,88 167,87 		"/>
		<polygon class="st10" points="212.4,104.8 212.4,103.8 213.4,103.8 214.3,103.8 214.3,104.8 215.3,104.8 215.3,105.8 216.3,105.8 
			216.3,104.8 215.3,104.8 215.3,101.8 213.4,101.8 213.4,100.8 213.4,99.8 212.4,99.8 212.4,98.9 212.4,97.9 213.4,97.9 
			213.4,95.9 218.3,95.9 218.3,96.9 219.3,96.9 219.3,97.9 219.3,98.9 218.3,98.9 218.3,99.8 218.3,100.8 219.3,100.8 219.3,101.8 
			221.2,101.8 221.2,106.7 221.2,107.7 220.3,107.7 220.3,108.7 219.3,108.7 219.3,107.7 217.3,107.7 217.3,106.7 216.3,106.7 
			216.3,109.7 216.3,110.7 216.3,111.7 217.3,111.7 217.3,112.7 218.3,112.7 218.3,114.6 217.3,114.6 217.3,115.6 216.3,115.6 
			216.3,117.6 215.3,117.6 215.3,118.6 214.3,118.6 214.3,114.6 214.3,112.7 213.4,112.7 213.4,111.7 212.4,111.7 212.4,109.7 
			209.4,109.7 209.4,108.7 209.4,105.8 209.4,104.8 		"/>
		
			<rect x="177.9" y="74.2" transform="matrix(-1 -4.429314e-11 4.429314e-11 -1 357.7096 149.427)" class="st6" width="2" height="1"/>
		<polygon class="st6" points="177.9,70.3 177.9,69.3 177.9,68.3 178.9,68.3 178.9,69.3 180.8,69.3 180.8,68.3 181.8,68.3 
			181.8,71.3 180.8,71.3 180.8,74.2 180.8,75.2 179.8,75.2 179.8,74.2 177.9,74.2 177.9,75.2 176.9,75.2 176.9,70.3 		"/>
		<polygon class="st0" points="178.9,70.3 178.9,68.3 180.8,68.3 180.8,70.3 179.8,70.3 179.8,73.2 179.8,74.2 179.8,75.2 
			177.9,75.2 177.9,74.2 177.9,73.2 177.9,70.3 		"/>
		<polygon class="st6" points="176.9,83.1 176.9,82.1 176.9,81.1 177.9,81.1 177.9,82.1 179.8,82.1 179.8,81.1 180.8,81.1 
			180.8,84.1 179.8,84.1 179.8,87 179.8,88 178.9,88 178.9,87 176.9,87 176.9,88 175.9,88 175.9,83.1 		"/>
		<polygon class="st0" points="177.9,83.1 177.9,81.1 179.8,81.1 179.8,83.1 178.9,83.1 178.9,86 178.9,87 178.9,88 176.9,88 
			176.9,87 176.9,86 176.9,83.1 		"/>
		<polygon class="st6" points="171,73.2 172,73.2 172,74.2 173.9,74.2 173.9,79.1 171,79.1 171,78.2 170,78.2 170,73.2 		"/>
		<polygon class="st6" points="176.9,54.5 176.9,55.5 176.9,56.5 175.9,56.5 175.9,59.4 174.9,59.4 174.9,66.3 172.9,66.3 
			172.9,65.4 171,65.4 171,64.4 170,64.4 170,59.4 170,58.5 170,57.5 169,57.5 169,56.5 169,55.5 169,54.5 		"/>
		<polygon class="st8" points="167,52.5 167,50.6 169,50.6 169,49.6 170,49.6 170,48.6 174.9,48.6 174.9,49.6 175.9,49.6 
			175.9,50.6 177.9,50.6 177.9,52.5 178.9,52.5 178.9,53.5 176.9,53.5 176.9,54.5 168,54.5 168,53.5 166,53.5 166,52.5 		"/>
		<polygon class="st2" points="163.1,49.6 163.1,48.6 166,48.6 166,46.6 167,46.6 167,45.6 170,45.6 170,44.7 171,44.7 171,43.7 
			173.9,43.7 173.9,44.7 174.9,44.7 174.9,45.6 177.9,45.6 177.9,46.6 178.9,46.6 178.9,48.6 181.8,48.6 181.8,49.6 182.8,49.6 
			182.8,53.5 178.9,53.5 178.9,52.5 177.9,52.5 177.9,50.6 175.9,50.6 175.9,49.6 174.9,49.6 174.9,48.6 173.9,48.6 171,48.6 
			170,48.6 170,49.6 169,49.6 169,50.6 167,50.6 167,52.5 166,52.5 166,53.5 162.1,53.5 162.1,49.6 		"/>
		
			<rect x="185.8" y="92.9" transform="matrix(-1 -4.429314e-11 4.429314e-11 -1 372.4939 195.751)" class="st6" width="1" height="9.9"/>
		
			<rect x="184.8" y="94.9" transform="matrix(-1 -4.429314e-11 4.429314e-11 -1 370.5227 196.7366)" class="st6" width="1" height="6.9"/>
		<polygon class="st6" points="184.8,97.9 186.7,97.9 186.7,92 186.7,91 187.7,91 187.7,89 190.7,89 190.7,88 191.7,88 191.7,87 
			192.7,87 192.7,86 194.6,86 194.6,85.1 195.6,85.1 195.6,84.1 198.6,84.1 198.6,82.1 221.2,82.1 221.2,86 222.2,86 222.2,92 
			221.2,92 221.2,92.9 220.3,92.9 220.3,93.9 219.3,93.9 219.3,94.9 218.3,94.9 218.3,95.9 213.4,95.9 213.4,97.9 212.4,97.9 
			212.4,99.8 212.4,100.8 212.4,101.8 211.4,101.8 211.4,103.8 209.4,103.8 209.4,104.8 209.4,110.7 208.4,110.7 208.4,111.7 
			207.4,111.7 205.5,111.7 205.5,110.7 204.5,110.7 203.5,110.7 203.5,109.7 202.5,109.7 202.5,108.7 200.5,108.7 200.5,107.7 
			198.6,107.7 198.6,106.7 196.6,106.7 196.6,105.8 194.6,105.8 194.6,104.8 191.7,104.8 190.7,104.8 190.7,103.8 187.7,103.8 
			186.7,103.8 186.7,99.8 184.8,99.8 		"/>
		<polygon class="st7" points="210.4,68.3 211.4,68.3 211.4,67.3 215.3,67.3 215.3,68.3 216.3,68.3 216.3,71.3 215.3,71.3 
			215.3,72.2 211.4,72.2 211.4,71.3 210.4,71.3 		"/>
		<polygon class="st7" points="203.5,71.3 204.5,71.3 204.5,70.3 208.4,70.3 208.4,71.3 209.4,71.3 209.4,74.2 208.4,74.2 
			208.4,75.2 204.5,75.2 204.5,74.2 203.5,74.2 		"/>
		<polygon class="st7" points="194.6,71.3 195.6,71.3 195.6,70.3 199.6,70.3 199.6,71.3 200.5,71.3 200.5,74.2 199.6,74.2 
			199.6,75.2 195.6,75.2 195.6,74.2 194.6,74.2 		"/>
		<polygon class="st7" points="183.8,70.3 184.8,70.3 184.8,69.3 188.7,69.3 188.7,70.3 189.7,70.3 189.7,73.2 188.7,73.2 
			188.7,74.2 184.8,74.2 184.8,73.2 183.8,73.2 		"/>
		<polygon class="st8" points="168,86 168,85.1 171,85.1 171,83.1 172,83.1 172,82.1 172.9,82.1 172.9,83.1 173.9,83.1 173.9,86 
			172.9,86 172.9,87 172,87 172,88 169,88 169,87 167,87 167,86 		"/>
		<polygon class="st2" points="164.1,77.2 164.1,76.2 165.1,76.2 169,76.2 169,77.2 170,77.2 170,78.2 171,78.2 171,79.1 
			172.9,79.1 172.9,82.1 172,82.1 172,83.1 171,83.1 171,84.1 171,85.1 168,85.1 168,86 166,86 166,85.1 166,84.1 165.1,84.1 
			165.1,83.1 164.1,83.1 164.1,82.1 163.1,82.1 163.1,77.2 		"/>
	</g>
	<g>
		<polygon class="st1" points="225.4,124.5 225.4,119.5 227.4,119.5 227.4,118.5 231.3,118.5 231.3,116.6 232.3,116.6 232.3,115.6 
			236.3,115.6 236.3,116.6 237.2,116.6 237.2,118.5 241.2,118.5 241.2,119.5 243.2,119.5 243.2,124.5 242.2,124.5 242.2,125.4 
			243.2,125.4 243.2,129.4 242.2,129.4 242.2,130.4 241.2,130.4 241.2,131.4 237.2,131.4 237.2,133.3 236.3,133.3 236.3,134.3 
			232.3,134.3 232.3,133.3 231.3,133.3 231.3,131.4 227.4,131.4 227.4,130.4 226.4,130.4 226.4,129.4 225.4,129.4 225.4,125.4 
			226.4,125.4 226.4,124.5 		"/>
		<g>
			<rect x="238.2" y="120.5" class="st2" width="1" height="1"/>
			<rect x="237.2" y="121.5" class="st2" width="1" height="1"/>
			<polygon class="st2" points="237.2,121.5 236.3,121.5 236.3,120.5 236.3,118.5 237.2,118.5 237.2,120.5 			"/>
			<rect x="241.2" y="118.5" class="st2" width="1" height="1"/>
			<rect x="242.2" y="119.5" class="st2" width="1" height="1"/>
			<rect x="243.2" y="120.5" class="st2" width="1" height="3.9"/>
			<polygon class="st2" points="241.2,126.4 239.2,126.4 239.2,125.4 241.2,125.4 242.2,125.4 242.2,126.4 			"/>
			<polygon class="st2" points="238.2,124.5 238.2,123.5 239.2,123.5 239.2,124.5 239.2,125.4 238.2,125.4 			"/>
			<rect x="229.4" y="120.5" class="st2" width="1" height="1"/>
			<rect x="230.3" y="121.5" class="st2" width="1" height="1"/>
			<polygon class="st2" points="232.3,120.5 232.3,121.5 231.3,121.5 231.3,120.5 231.3,118.5 232.3,118.5 			"/>
			<polygon class="st2" points="231.3,118.5 230.3,118.5 228.4,118.5 227.4,118.5 227.4,117.6 228.4,117.6 230.3,117.6 230.3,116.6 
				231.3,116.6 231.3,117.6 			"/>
			<rect x="226.4" y="118.5" class="st2" width="1" height="1"/>
			<rect x="225.4" y="119.5" class="st2" width="1" height="1"/>
			<rect x="224.4" y="120.5" class="st2" width="1" height="3.9"/>
			<polygon class="st2" points="229.4,125.4 229.4,126.4 227.4,126.4 226.4,126.4 226.4,125.4 227.4,125.4 			"/>
			<polygon class="st2" points="229.4,123.5 230.3,123.5 230.3,124.5 230.3,125.4 229.4,125.4 229.4,124.5 			"/>
			<polygon class="st2" points="238.2,118.5 237.2,118.5 237.2,117.6 237.2,116.6 238.2,116.6 238.2,117.6 240.2,117.6 241.2,117.6 
				241.2,118.5 240.2,118.5 			"/>
			<rect x="236.3" y="115.6" class="st2" width="1" height="1"/>
			<rect x="231.3" y="115.6" class="st2" width="1" height="1"/>
			<rect x="232.3" y="114.6" class="st2" width="3.9" height="1"/>
			<rect x="238.2" y="128.4" class="st2" width="1" height="1"/>
			<rect x="237.2" y="127.4" class="st2" width="1" height="1"/>
			<polygon class="st2" points="236.3,129.4 236.3,128.4 237.2,128.4 237.2,129.4 237.2,131.4 236.3,131.4 			"/>
			<rect x="241.2" y="130.4" class="st2" width="1" height="1"/>
			<rect x="242.2" y="129.4" class="st2" width="1" height="1"/>
			<rect x="243.2" y="125.4" class="st2" width="1" height="3.9"/>
			<rect x="242.2" y="124.5" class="st2" width="1" height="1"/>
			<rect x="229.4" y="128.4" class="st2" width="1" height="1"/>
			<rect x="230.3" y="127.4" class="st2" width="1" height="1"/>
			<polygon class="st2" points="231.3,128.4 232.3,128.4 232.3,129.4 232.3,131.4 231.3,131.4 231.3,129.4 			"/>
			<polygon class="st2" points="230.3,131.4 231.3,131.4 231.3,132.3 231.3,133.3 230.3,133.3 230.3,132.3 228.4,132.3 227.4,132.3 
				227.4,131.4 228.4,131.4 			"/>
			<rect x="226.4" y="130.4" class="st2" width="1" height="1"/>
			<rect x="225.4" y="129.4" class="st2" width="1" height="1"/>
			<rect x="224.4" y="125.4" class="st2" width="1" height="3.9"/>
			<rect x="225.4" y="124.5" class="st2" width="1" height="1"/>
			<polygon class="st2" points="237.2,131.4 238.2,131.4 240.2,131.4 241.2,131.4 241.2,132.3 240.2,132.3 238.2,132.3 238.2,133.3 
				237.2,133.3 237.2,132.3 			"/>
			<rect x="236.3" y="133.3" class="st2" width="1" height="1"/>
			<rect x="231.3" y="133.3" class="st2" width="1" height="1"/>
			<rect x="232.3" y="134.3" class="st2" width="3.9" height="1"/>
		</g>
		<polygon class="st3" points="231.3,124.5 232.3,124.5 232.3,123.5 233.3,123.5 233.3,122.5 235.3,122.5 235.3,123.5 236.3,123.5 
			236.3,124.5 237.2,124.5 237.2,125.4 236.3,125.4 236.3,126.4 235.3,126.4 235.3,127.4 233.3,127.4 233.3,126.4 232.3,126.4 
			232.3,125.4 231.3,125.4 		"/>
	</g>
	<g>
		<polygon class="st12" points="66,98.1 65.4,98.1 65.4,97.5 64.8,97.5 64.8,96.9 55.2,96.9 55.2,97.5 54.6,97.5 54.6,98.1 54,98.1 
			54,101.1 54.6,101.1 54.6,101.7 55.2,101.7 55.2,102.3 64.8,102.3 64.8,101.7 65.4,101.7 65.4,101.1 66,101.1 		"/>
		<rect x="63" y="98.1" class="st13" width="0.6" height="1.2"/>
		<rect x="64.8" y="98.1" class="st13" width="0.6" height="1.2"/>
		<rect x="63.6" y="99.9" class="st13" width="1.2" height="0.6"/>
		<rect x="56.4" y="102.3" class="st13" width="0.6" height="2.4"/>
		<rect x="63" y="102.3" class="st13" width="0.6" height="2.4"/>
		<rect x="61.8" y="102.3" class="st13" width="0.6" height="2.4"/>
		<rect x="57.6" y="102.3" class="st13" width="0.6" height="2.4"/>
		<rect x="63" y="93.9" class="st13" width="0.6" height="3"/>
		<polygon class="st14" points="61.8,92.1 62.2,92.5 61.8,92.9 61.4,92.5 60.1,93.6 61.3,94.9 61.7,94.5 62.1,94.9 62.5,94.5 
			62.9,95 64.1,93.8 63.7,93.4 64.1,93 63.8,92.6 64.2,92.2 63,91 		"/>
	</g>
	<rect x="52.8" y="104.7" class="st15" width="16.2" height="45.3"/>
	<rect x="52.8" y="115.5" class="st16" width="16.2" height="2.7"/>
	<rect x="52.8" y="139.8" class="st16" width="16.2" height="2.7"/>
	<rect x="63.6" y="126.3" class="st16" width="2.7" height="2.7"/>
	<rect x="55.5" y="110.1" class="st16" width="2.7" height="2.7"/>
	<rect x="55.5" y="126.3" class="st16" width="2.7" height="2.7"/>
	<rect x="63.6" y="134.4" class="st16" width="2.7" height="2.7"/>
	<rect x="55.5" y="145.7" class="st16" width="2.7" height="2.7"/>
	<g>
		<rect x="93.4" y="10.5" class="st17" width="1.2" height="1.2"/>
		<polygon class="st17" points="89.9,5.8 89.9,6.9 91.1,6.9 91.1,8.1 92.3,8.1 92.3,9.3 93.4,9.3 93.4,10.5 92.3,10.5 91.1,10.5 
			91.1,9.3 87.6,9.3 87.6,8.1 86.4,8.1 86.4,6.9 85.2,6.9 85.2,5.8 		"/>
	</g>
	<polygon class="st17" points="71.2,14 72.3,14 73.5,14 73.5,15.1 73.5,16.3 73.5,22.2 72.3,22.2 72.3,19.8 71.2,19.8 71.2,17.5 
		70,17.5 70,16.3 70,15.1 70,14 	"/>
	<g>
		<rect x="87.6" y="19.8" class="st3" width="1.2" height="1.2"/>
		<polygon class="st3" points="84.1,9.3 85.2,9.3 85.2,10.5 86.4,10.5 86.4,11.6 86.4,12.8 86.4,14 87.6,14 87.6,18.7 87.6,19.8 
			86.4,19.8 85.2,19.8 85.2,18.7 81.7,18.7 81.7,17.5 80.5,17.5 78.2,17.5 78.2,16.3 77,16.3 77,15.1 75.9,15.1 75.9,14 75.9,12.8 
			75.9,9.3 		"/>
	</g>
	<polygon class="st3" points="92.3,-0.1 108.7,-0.1 108.7,1.1 105.1,1.1 105.1,2.3 99.3,2.3 99.3,3.4 94.6,3.4 94.6,4.6 89.9,4.6 
		89.9,3.4 89.9,2.3 89.9,1.1 89.9,-0.1 	"/>
	<g>
		<rect x="25.5" y="10.5" class="st17" width="1.2" height="1.2"/>
		<polygon class="st17" points="30.2,5.8 30.2,6.9 29,6.9 29,8.1 27.8,8.1 27.8,9.3 26.6,9.3 26.6,10.5 27.8,10.5 29,10.5 29,9.3 
			32.5,9.3 32.5,8.1 33.7,8.1 33.7,6.9 34.8,6.9 34.8,5.8 		"/>
	</g>
	<polygon class="st17" points="48.9,14 47.7,14 46.6,14 46.6,15.1 46.6,16.3 46.6,22.2 47.7,22.2 47.7,19.8 48.9,19.8 48.9,17.5 
		50.1,17.5 50.1,16.3 50.1,15.1 50.1,14 	"/>
	<polygon class="st3" points="60.6,15.1 59.5,15.1 53.6,15.1 53.6,16.3 54.8,16.3 54.8,19.8 55.9,19.8 55.9,22.2 57.1,22.2 
		57.1,23.3 57.1,25.7 58.3,25.7 58.3,28 59.5,28 59.5,30.4 60.6,30.4 60.6,28 61.8,28 61.8,25.7 63,25.7 63,23.3 63,22.2 64.1,22.2 
		64.1,19.8 65.3,19.8 65.3,16.3 66.5,16.3 66.5,15.1 	"/>
	<g>
		<rect x="31.3" y="19.8" class="st3" width="1.2" height="1.2"/>
		<polygon class="st3" points="36,9.3 34.8,9.3 34.8,10.5 33.7,10.5 33.7,11.6 33.7,12.8 33.7,14 32.5,14 32.5,18.7 32.5,19.8 
			33.7,19.8 34.8,19.8 34.8,18.7 38.4,18.7 38.4,17.5 39.5,17.5 41.9,17.5 41.9,16.3 43.1,16.3 43.1,15.1 44.2,15.1 44.2,14 
			44.2,12.8 44.2,9.3 		"/>
	</g>
	<polygon class="st3" points="27.8,-0.1 11.4,-0.1 11.4,1.1 14.9,1.1 14.9,2.3 20.8,2.3 20.8,3.4 25.5,3.4 25.5,4.6 30.2,4.6 
		30.2,3.4 30.2,2.3 30.2,1.1 30.2,-0.1 	"/>
	<polygon class="st1" points="91.1,-0.1 61.8,-0.1 60.6,-0.1 59.5,-0.1 58.3,-0.1 29,-0.1 27.8,-0.1 27.8,2.3 29,2.3 30.2,2.3 
		30.2,4.6 31.3,4.6 31.3,5.8 32.5,5.8 32.5,6.9 34.8,6.9 34.8,8.1 36,8.1 36,9.3 38.4,9.3 38.4,11.6 41.9,11.6 41.9,12.8 46.6,12.8 
		46.6,14 47.7,14 47.7,15.1 58.3,15.1 59.5,15.1 60.6,15.1 61.8,15.1 72.3,15.1 72.3,14 73.5,14 73.5,12.8 78.2,12.8 78.2,11.6 
		81.7,11.6 81.7,9.3 84.1,9.3 84.1,8.1 85.2,8.1 85.2,6.9 87.6,6.9 87.6,5.8 88.7,5.8 88.7,4.6 89.9,4.6 89.9,2.3 91.1,2.3 
		92.3,2.3 92.3,-0.1 	"/>
	<polygon class="st3" points="59.5,15.1 60.6,15.1 66.5,15.1 66.5,16.3 65.3,16.3 65.3,19.8 64.1,19.8 64.1,22.2 63,22.2 63,23.3 
		63,25.7 61.8,25.7 61.8,28 60.6,28 60.6,30.4 59.5,30.4 59.5,28 58.3,28 58.3,25.7 57.1,25.7 57.1,23.3 57.1,22.2 55.9,22.2 
		55.9,19.8 54.8,19.8 54.8,16.3 53.6,16.3 53.6,15.1 	"/>
	<g>
		<polygon class="st1" points="11.9,128.8 11.9,123.9 13.9,123.9 13.9,122.9 17.8,122.9 17.8,120.9 18.8,120.9 18.8,120 22.8,120 
			22.8,120.9 23.7,120.9 23.7,122.9 27.7,122.9 27.7,123.9 29.7,123.9 29.7,128.8 28.7,128.8 28.7,129.8 29.7,129.8 29.7,133.8 
			28.7,133.8 28.7,134.7 27.7,134.7 27.7,135.7 23.7,135.7 23.7,137.7 22.8,137.7 22.8,138.7 18.8,138.7 18.8,137.7 17.8,137.7 
			17.8,135.7 13.9,135.7 13.9,134.7 12.9,134.7 12.9,133.8 11.9,133.8 11.9,129.8 12.9,129.8 12.9,128.8 		"/>
		<g>
			<rect x="24.7" y="124.9" class="st2" width="1" height="1"/>
			<rect x="23.7" y="125.9" class="st2" width="1" height="1"/>
			<polygon class="st2" points="23.7,125.9 22.8,125.9 22.8,124.9 22.8,122.9 23.7,122.9 23.7,124.9 			"/>
			<rect x="27.7" y="122.9" class="st2" width="1" height="1"/>
			<rect x="28.7" y="123.9" class="st2" width="1" height="1"/>
			<rect x="29.7" y="124.9" class="st2" width="1" height="3.9"/>
			<polygon class="st2" points="27.7,130.8 25.7,130.8 25.7,129.8 27.7,129.8 28.7,129.8 28.7,130.8 			"/>
			<polygon class="st2" points="24.7,128.8 24.7,127.8 25.7,127.8 25.7,128.8 25.7,129.8 24.7,129.8 			"/>
			<rect x="15.9" y="124.9" class="st2" width="1" height="1"/>
			<rect x="16.8" y="125.9" class="st2" width="1" height="1"/>
			<polygon class="st2" points="18.8,124.9 18.8,125.9 17.8,125.9 17.8,124.9 17.8,122.9 18.8,122.9 			"/>
			<polygon class="st2" points="17.8,122.9 16.8,122.9 14.9,122.9 13.9,122.9 13.9,121.9 14.9,121.9 16.8,121.9 16.8,120.9 
				17.8,120.9 17.8,121.9 			"/>
			<rect x="12.9" y="122.9" class="st2" width="1" height="1"/>
			<rect x="11.9" y="123.9" class="st2" width="1" height="1"/>
			<rect x="10.9" y="124.9" class="st2" width="1" height="3.9"/>
			<polygon class="st2" points="15.9,129.8 15.9,130.8 13.9,130.8 12.9,130.8 12.9,129.8 13.9,129.8 			"/>
			<polygon class="st2" points="15.9,127.8 16.8,127.8 16.8,128.8 16.8,129.8 15.9,129.8 15.9,128.8 			"/>
			<polygon class="st2" points="24.7,122.9 23.7,122.9 23.7,121.9 23.7,120.9 24.7,120.9 24.7,121.9 26.7,121.9 27.7,121.9 
				27.7,122.9 26.7,122.9 			"/>
			<rect x="22.8" y="120" class="st2" width="1" height="1"/>
			<rect x="17.8" y="120" class="st2" width="1" height="1"/>
			<rect x="18.8" y="119" class="st2" width="3.9" height="1"/>
			<rect x="24.7" y="132.8" class="st2" width="1" height="1"/>
			<rect x="23.7" y="131.8" class="st2" width="1" height="1"/>
			<polygon class="st2" points="22.8,133.8 22.8,132.8 23.7,132.8 23.7,133.8 23.7,135.7 22.8,135.7 			"/>
			<rect x="27.7" y="134.7" class="st2" width="1" height="1"/>
			<rect x="28.7" y="133.8" class="st2" width="1" height="1"/>
			<rect x="29.7" y="129.8" class="st2" width="1" height="3.9"/>
			<rect x="28.7" y="128.8" class="st2" width="1" height="1"/>
			<rect x="15.9" y="132.8" class="st2" width="1" height="1"/>
			<rect x="16.8" y="131.8" class="st2" width="1" height="1"/>
			<polygon class="st2" points="17.8,132.8 18.8,132.8 18.8,133.8 18.8,135.7 17.8,135.7 17.8,133.8 			"/>
			<polygon class="st2" points="16.8,135.7 17.8,135.7 17.8,136.7 17.8,137.7 16.8,137.7 16.8,136.7 14.9,136.7 13.9,136.7 
				13.9,135.7 14.9,135.7 			"/>
			<rect x="12.9" y="134.7" class="st2" width="1" height="1"/>
			<rect x="11.9" y="133.8" class="st2" width="1" height="1"/>
			<rect x="10.9" y="129.8" class="st2" width="1" height="3.9"/>
			<rect x="11.9" y="128.8" class="st2" width="1" height="1"/>
			<polygon class="st2" points="23.7,135.7 24.7,135.7 26.7,135.7 27.7,135.7 27.7,136.7 26.7,136.7 24.7,136.7 24.7,137.7 
				23.7,137.7 23.7,136.7 			"/>
			<rect x="22.8" y="137.7" class="st2" width="1" height="1"/>
			<rect x="17.8" y="137.7" class="st2" width="1" height="1"/>
			<rect x="18.8" y="138.7" class="st2" width="3.9" height="1"/>
		</g>
		<polygon class="st3" points="17.8,128.8 18.8,128.8 18.8,127.8 19.8,127.8 19.8,126.9 21.8,126.9 21.8,127.8 22.8,127.8 
			22.8,128.8 23.7,128.8 23.7,129.8 22.8,129.8 22.8,130.8 21.8,130.8 21.8,131.8 19.8,131.8 19.8,130.8 18.8,130.8 18.8,129.8 
			17.8,129.8 		"/>
	</g>
	<g>
		<defs>
			
				<rect id="SVGID_1_" x="170.8" y="90.8" transform="matrix(6.660900e-11 -1 1 6.660900e-11 71.947 321.2448)" width="51.6" height="67.7"/>
		</defs>
		<clipPath id="SVGID_2_">
			<use xlink:href="#SVGID_1_"  style="overflow:visible;"/>
		</clipPath>
		<g class="st18">
			<g>
				<polygon class="st19" points="170.4,248.5 168.4,248.5 168.4,247.5 166.3,247.5 166.3,246.5 163.3,246.5 163.3,245.5 
					161.3,245.5 161.3,244.5 160.2,244.5 160.2,242.4 159.2,242.4 159.2,241.4 158.2,241.4 158.2,239.4 157.2,239.4 157.2,238.4 
					156.2,238.4 156.2,237.3 155.1,237.3 155.1,235.3 155.1,234.3 155.1,233.3 154.1,233.3 154.1,229.2 153.1,229.2 153.1,227.2 
					153.1,225.1 152.1,225.1 152.1,223.1 151.1,223.1 149,223.1 149,222.1 147,222.1 145,222.1 145,223.1 142.9,223.1 142.9,226.1 
					143.9,226.1 143.9,227.2 145,227.2 145,232.3 146,232.3 146,236.3 147,236.3 147,241.4 146,241.4 146,239.4 145,239.4 
					145,236.3 143.9,236.3 143.9,233.3 142.9,233.3 142.9,232.3 141.9,232.3 141.9,223.1 141.9,222.1 141.9,221.1 140.9,221.1 
					140.9,220 139.9,220 139.9,219 137.8,219 137.8,212.9 137.8,211.9 147,211.9 148,211.9 149,211.9 151.1,211.9 151.1,212.9 
					152.1,212.9 152.1,213.9 153.1,213.9 153.1,214.9 154.1,214.9 154.1,216 155.1,216 155.1,217 156.2,217 156.2,218 157.2,218 
					157.2,220 158.2,220 158.2,222.1 159.2,222.1 159.2,224.1 160.2,224.1 160.2,226.1 161.3,226.1 161.3,227.2 162.3,227.2 
					162.3,228.2 163.3,228.2 163.3,230.2 164.3,230.2 164.3,231.2 165.3,231.2 165.3,232.3 165.3,233.3 166.3,233.3 166.3,234.3 
					167.4,234.3 167.4,235.3 176.5,235.3 176.5,233.3 177.5,233.3 177.5,232.3 177.5,230.2 178.6,230.2 178.6,227.2 179.6,227.2 
					179.6,224.1 180.6,224.1 180.6,221.1 181.6,221.1 181.6,218 182.6,218 182.6,216 183.7,216 183.7,214.9 183.7,212.9 
					184.7,212.9 184.7,209.9 185.7,209.9 185.7,208.8 186.7,208.8 186.7,207.8 188.7,207.8 188.7,206.8 190.8,206.8 190.8,205.8 
					191.8,205.8 191.8,204.8 192.8,204.8 192.8,203.7 195.9,203.7 195.9,202.7 197.9,202.7 197.9,201.7 201,201.7 201,202.7 
					203,202.7 203,203.7 206.1,203.7 206.1,204.8 208.1,204.8 208.1,205.8 209.1,205.8 209.1,206.8 210.1,206.8 210.1,193.6 
					211.1,193.6 211.1,185.4 211.1,182.4 211.1,177.3 210.1,177.3 210.1,176.3 210.1,175.2 209.1,175.2 209.1,174.2 208.1,174.2 
					208.1,173.2 207.1,173.2 207.1,171.2 206.1,171.2 206.1,170.2 205,170.2 205,169.1 204,169.1 204,167.1 203,167.1 203,166.1 
					202,166.1 202,165.1 201,165.1 201,164 199.9,164 199.9,162 198.9,162 198.9,161 197.9,161 197.9,159 196.9,159 196.9,157.9 
					196.9,154.9 196.9,139.6 201,139.6 202,139.6 202,153.9 203,153.9 203,159 204,159 204,160 205,160 205,162 207.1,162 
					207.1,163 208.1,163 208.1,165.1 209.1,165.1 209.1,166.1 210.1,166.1 210.1,167.1 211.1,167.1 211.1,169.1 212.2,169.1 
					212.2,170.2 214.2,170.2 214.2,171.2 215.2,171.2 215.2,173.2 216.2,173.2 216.2,174.2 217.3,174.2 217.3,175.2 218.3,175.2 
					218.3,176.3 219.3,176.3 219.3,177.3 219.3,182.4 220.3,182.4 220.3,184.4 221.3,184.4 221.3,193.6 221.3,194.6 222.3,194.6 
					222.3,198.7 223.4,198.7 223.4,208.8 222.3,208.8 222.3,210.9 221.3,210.9 221.3,211.9 221.3,212.9 220.3,212.9 220.3,214.9 
					219.3,214.9 219.3,218 218.3,218 218.3,219 217.3,219 217.3,220 217.3,221.1 214.2,221.1 214.2,220 209.1,220 209.1,219 
					203,219 203,218 197.9,218 197.9,217 195.9,217 195.9,219 194.9,219 194.9,223.1 193.8,223.1 193.8,226.1 192.8,226.1 
					192.8,228.2 191.8,228.2 191.8,231.2 190.8,231.2 190.8,233.3 189.8,233.3 189.8,235.3 188.7,235.3 188.7,237.3 188.7,239.4 
					187.7,239.4 187.7,241.4 186.7,241.4 186.7,244.5 185.7,244.5 185.7,245.5 185.7,246.5 181.6,246.5 181.6,247.5 179.6,247.5 
					179.6,248.5 176.5,248.5 176.5,249.6 170.4,249.6 				"/>
				<rect x="131.7" y="225.1" class="st19" width="1" height="1"/>
				<rect x="130.7" y="226.1" class="st19" width="1" height="1"/>
				<rect x="129.7" y="227.2" class="st19" width="1" height="1"/>
				<polygon class="st19" points="129.7,230.2 129.7,232.3 129.7,233.3 127.7,233.3 127.7,234.3 124.6,234.3 124.6,233.3 
					123.6,233.3 123.6,232.3 121.6,232.3 121.6,231.2 123.6,231.2 123.6,230.2 125.6,230.2 125.6,229.2 127.7,229.2 127.7,228.2 
					128.7,228.2 129.7,228.2 129.7,229.2 				"/>
			</g>
			<polygon class="st20" points="114.4,223.1 112.4,223.1 112.4,222.1 113.4,222.1 113.4,221.1 115.4,221.1 115.4,220 117.5,220 
				117.5,219 122.6,219 122.6,220 125.6,220 125.6,219 124.6,219 124.6,218 121.6,218 121.6,217 119.5,217 119.5,216 116.5,216 
				116.5,214.9 115.4,214.9 115.4,213.9 112.4,213.9 112.4,212.9 117.5,212.9 117.5,211.9 120.5,211.9 120.5,212.9 122.6,212.9 
				122.6,213.9 124.6,213.9 124.6,214.9 126.6,214.9 126.6,216 128.7,216 128.7,217 129.7,217 129.7,218 131.7,218 131.7,217 
				130.7,217 130.7,216 129.7,216 129.7,214.9 128.7,214.9 128.7,212.9 127.7,212.9 127.7,211.9 125.6,211.9 125.6,210.9 
				124.6,210.9 124.6,209.9 123.6,209.9 123.6,207.8 122.6,207.8 122.6,206.8 121.6,206.8 121.6,205.8 119.5,205.8 119.5,204.8 
				120.5,204.8 120.5,203.7 125.6,203.7 125.6,204.8 126.6,204.8 126.6,205.8 127.7,205.8 127.7,206.8 127.7,207.8 128.7,207.8 
				128.7,208.8 129.7,208.8 129.7,209.9 130.7,209.9 130.7,210.9 131.7,210.9 131.7,211.9 132.8,211.9 132.8,210.9 133.8,210.9 
				133.8,208.8 132.8,208.8 132.8,204.8 131.7,204.8 131.7,202.7 130.7,202.7 130.7,199.7 131.7,199.7 131.7,200.7 132.8,200.7 
				132.8,201.7 133.8,201.7 133.8,202.7 134.8,202.7 134.8,203.7 135.8,203.7 135.8,205.8 136.8,205.8 136.8,217 137.8,217 
				137.8,206.8 138.9,206.8 138.9,204.8 138.9,203.7 138.9,198.7 139.9,198.7 139.9,196.6 140.9,196.6 140.9,199.7 140.9,201.7 
				141.9,201.7 141.9,202.7 142.9,202.7 142.9,211.9 142.9,212.9 143.9,212.9 143.9,211.9 145,211.9 145,210.9 146,210.9 146,208.8 
				147,208.8 147,206.8 148,206.8 148,204.8 149,204.8 149,202.7 150.1,202.7 150.1,209.9 149,209.9 149,210.9 148,210.9 148,212.9 
				147,212.9 147,213.9 146,213.9 146,214.9 145,214.9 145,217 143.9,217 143.9,218 142.9,218 138.9,218 138.9,219 135.8,219 
				135.8,220 134.8,220 134.8,221.1 133.8,221.1 133.8,222.1 133.8,223.1 133.8,224.1 114.4,224.1 			"/>
			<polygon class="st2" points="196.9,140.6 196.9,139.6 195.9,139.6 195.9,138.6 194.9,138.6 194.9,134.5 195.9,134.5 195.9,133.5 
				196.9,133.5 196.9,132.5 202,132.5 202,133.5 203,133.5 203,134.5 204,134.5 204,138.6 203,138.6 203,139.6 202,139.6 202,140.6 
							"/>
			<g>
				<rect x="186.7" y="118.2" class="st20" width="1" height="1"/>
				<rect x="192.8" y="116.2" class="st20" width="1" height="1"/>
				<rect x="191.8" y="115.2" class="st20" width="1" height="1"/>
				<polygon class="st20" points="203,133.5 202,133.5 202,132.5 201,132.5 199.9,132.5 198.9,132.5 197.9,132.5 196.9,132.5 
					195.9,132.5 194.9,132.5 194.9,131.5 193.8,131.5 193.8,130.4 193.8,129.4 192.8,129.4 192.8,128.4 191.8,128.4 191.8,125.4 
					190.8,125.4 190.8,123.3 189.8,123.3 189.8,122.3 188.7,122.3 188.7,120.3 187.7,120.3 187.7,119.2 188.7,119.2 189.8,119.2 
					189.8,120.3 190.8,120.3 191.8,120.3 191.8,121.3 192.8,121.3 192.8,122.3 193.8,122.3 193.8,117.2 194.9,117.2 194.9,118.2 
					195.9,118.2 195.9,119.2 195.9,123.3 196.9,123.3 196.9,126.4 197.9,126.4 197.9,115.2 198.9,115.2 198.9,114.2 199.9,114.2 
					199.9,116.2 201,116.2 201,124.3 202,124.3 202,123.3 203,123.3 203,122.3 204,122.3 204,120.3 205,120.3 205,118.2 
					206.1,118.2 206.1,123.3 205,123.3 205,125.4 204,125.4 204,127.4 203,127.4 203,128.4 205,128.4 205,126.4 206.1,126.4 
					206.1,125.4 207.1,125.4 208.1,125.4 208.1,124.3 209.1,124.3 209.1,123.3 210.1,123.3 210.1,126.4 209.1,126.4 209.1,128.4 
					208.1,128.4 208.1,129.4 207.1,129.4 206.1,129.4 206.1,130.4 209.1,130.4 209.1,129.4 213.2,129.4 213.2,130.4 212.2,130.4 
					212.2,131.5 211.1,131.5 211.1,132.5 210.1,132.5 210.1,133.5 208.1,133.5 208.1,134.5 203,134.5 				"/>
				<rect x="213.2" y="128.4" class="st20" width="1" height="1"/>
				<rect x="210.1" y="122.3" class="st20" width="1" height="1"/>
			</g>
			<g>
				<rect x="203" y="114.2" class="st3" width="1" height="1"/>
				<polygon class="st3" points="202,115.2 203,115.2 203,116.2 203,117.2 202,117.2 202,116.2 				"/>
				<polygon class="st3" points="201,118.2 201,117.2 202,117.2 202,118.2 202,119.2 202,121.3 201,121.3 201,119.2 				"/>
				<polygon class="st3" points="199.9,123.3 199.9,121.3 201,121.3 201,123.3 201,125.4 201,127.4 199.9,127.4 199.9,125.4 				"/>
				<rect x="198.9" y="127.4" class="st3" width="1" height="1"/>
				<polygon class="st3" points="194.9,117.2 194.9,114.2 195.9,114.2 195.9,117.2 195.9,121.3 194.9,121.3 				"/>
				<polygon class="st3" points="195.9,123.3 195.9,121.3 196.9,121.3 196.9,123.3 196.9,126.4 195.9,126.4 				"/>
				<rect x="193.8" y="113.1" class="st3" width="1" height="1"/>
				<rect x="187.7" y="115.2" class="st3" width="1" height="1"/>
				<rect x="188.7" y="116.2" class="st3" width="1" height="1"/>
				<rect x="189.8" y="117.2" class="st3" width="1" height="1"/>
				<polygon class="st3" points="190.8,119.2 190.8,118.2 191.8,118.2 191.8,119.2 191.8,120.3 190.8,120.3 				"/>
				<rect x="191.8" y="120.3" class="st3" width="1" height="2"/>
				<polygon class="st3" points="192.8,124.3 192.8,122.3 193.8,122.3 193.8,124.3 193.8,126.4 192.8,126.4 				"/>
				<polygon class="st3" points="193.8,128.4 193.8,126.4 194.9,126.4 194.9,128.4 194.9,129.4 193.8,129.4 				"/>
				<polygon class="st3" points="195.9,131.5 196.9,131.5 196.9,130.4 196.9,128.4 196.9,126.4 197.9,126.4 197.9,128.4 
					198.9,128.4 198.9,130.4 198.9,131.5 199.9,131.5 199.9,130.4 201,130.4 201,131.5 202,131.5 203,131.5 204,131.5 205,131.5 
					205,132.5 204,132.5 203,132.5 202,132.5 201,132.5 199.9,132.5 198.9,132.5 197.9,132.5 196.9,132.5 195.9,132.5 				"/>
				<polygon class="st3" points="194.9,130.4 194.9,129.4 195.9,129.4 195.9,130.4 195.9,131.5 194.9,131.5 				"/>
				<rect x="210.1" y="118.2" class="st3" width="1" height="1"/>
				<rect x="209.1" y="119.2" class="st3" width="1" height="1"/>
				<rect x="208.1" y="120.3" class="st3" width="1" height="1"/>
				<rect x="207.1" y="121.3" class="st3" width="1" height="1"/>
				<rect x="206.1" y="122.3" class="st3" width="1" height="1"/>
				<rect x="205" y="123.3" class="st3" width="1" height="2"/>
				<rect x="204" y="125.4" class="st3" width="1" height="1"/>
				<rect x="203" y="126.4" class="st3" width="1" height="2"/>
				<rect x="202" y="128.4" class="st3" width="1" height="1"/>
				<rect x="201" y="129.4" class="st3" width="1" height="1"/>
				<rect x="213.2" y="125.4" class="st3" width="1" height="1"/>
				<rect x="211.1" y="126.4" class="st3" width="2" height="1"/>
				<rect x="209.1" y="127.4" class="st3" width="2" height="1"/>
				<rect x="208.1" y="128.4" class="st3" width="1" height="1"/>
				<rect x="207.1" y="129.4" class="st3" width="1" height="1"/>
				<rect x="205" y="130.4" class="st3" width="2" height="1"/>
			</g>
			<polygon class="st2" points="135.8,227.2 135.8,226.1 134.8,226.1 134.8,225.1 133.8,225.1 133.8,221.1 134.8,221.1 134.8,220 
				135.8,220 135.8,219 139.9,219 139.9,220 140.9,220 140.9,221.1 141.9,221.1 141.9,225.1 140.9,225.1 140.9,226.1 139.9,226.1 
				139.9,227.2 			"/>
			<polygon class="st7" points="136.8,228.2 135.8,228.2 135.8,225.1 136.8,225.1 137.8,225.1 137.8,224.1 138.9,224.1 138.9,225.1 
				139.9,225.1 139.9,226.1 140.9,226.1 140.9,225.1 141.9,225.1 141.9,224.1 143.9,224.1 143.9,223.1 146,223.1 147,223.1 
				147,224.1 146,224.1 145,224.1 145,225.1 143.9,225.1 143.9,226.1 143.9,227.2 139.9,227.2 139.9,228.2 140.9,228.2 140.9,229.2 
				139.9,229.2 138.9,229.2 136.8,229.2 			"/>
			<polygon class="st20" points="122.6,237.3 122.6,236.3 120.5,236.3 120.5,235.3 119.5,235.3 119.5,233.3 120.5,233.3 
				120.5,232.3 122.6,232.3 123.6,232.3 123.6,233.3 124.6,233.3 124.6,234.3 124.6,235.3 123.6,235.3 123.6,237.3 			"/>
			<g>
				<rect x="132.8" y="225.1" class="st2" width="2" height="1"/>
				<polygon class="st2" points="129.7,228.2 130.7,228.2 130.7,227.2 131.7,227.2 131.7,226.1 132.8,226.1 132.8,227.2 
					132.8,228.2 131.7,228.2 131.7,232.3 130.7,232.3 130.7,233.3 129.7,233.3 				"/>
			</g>
			<polygon class="st7" points="131.7,228.2 132.8,228.2 132.8,227.2 132.8,226.1 134.8,226.1 134.8,227.2 134.8,228.2 134.8,229.2 
				133.8,229.2 133.8,231.2 132.8,231.2 132.8,232.3 131.7,232.3 			"/>
			<polygon class="st2" points="142.9,241.4 141.9,241.4 141.9,238.4 140.9,238.4 140.9,236.3 139.9,236.3 139.9,234.3 138.9,234.3 
				138.9,233.3 138.9,232.3 138.9,230.2 137.8,230.2 137.8,231.2 136.8,231.2 136.8,232.3 135.8,232.3 135.8,234.3 134.8,234.3 
				134.8,235.3 133.8,235.3 131.7,235.3 130.7,235.3 129.7,235.3 129.7,236.3 127.7,236.3 127.7,237.3 126.6,237.3 126.6,238.4 
				126.6,239.4 125.6,239.4 125.6,240.4 124.6,240.4 124.6,239.4 124.6,238.4 125.6,238.4 125.6,236.3 125.6,235.3 127.7,235.3 
				127.7,234.3 130.7,234.3 130.7,233.3 133.8,233.3 133.8,232.3 134.8,232.3 134.8,230.2 135.8,230.2 135.8,229.2 135.8,228.2 
				136.8,228.2 136.8,229.2 137.8,229.2 138.9,229.2 139.9,229.2 139.9,231.2 140.9,231.2 140.9,233.3 141.9,233.3 141.9,234.3 
				142.9,234.3 142.9,237.3 143.9,237.3 143.9,243.5 142.9,243.5 			"/>
			<g>
				<polygon class="st21" points="134.8,230.2 134.8,232.3 133.8,232.3 133.8,233.3 132.8,233.3 130.7,233.3 130.7,232.3 
					132.8,232.3 132.8,231.2 133.8,231.2 133.8,229.2 134.8,229.2 134.8,226.1 135.8,226.1 135.8,230.2 				"/>
				<rect x="127.7" y="233.3" class="st21" width="3.1" height="1"/>
				<polygon class="st21" points="125.6,235.3 125.6,238.4 124.6,238.4 124.6,239.4 123.6,239.4 123.6,235.3 124.6,235.3 
					124.6,234.3 125.6,234.3 127.7,234.3 127.7,235.3 				"/>
				<polygon class="st21" points="143.9,242.4 143.9,241.4 143.9,237.3 142.9,237.3 142.9,234.3 141.9,234.3 141.9,233.3 
					140.9,233.3 140.9,231.2 139.9,231.2 139.9,229.2 140.9,229.2 140.9,228.2 139.9,228.2 139.9,227.2 141.9,227.2 141.9,228.2 
					141.9,231.2 141.9,232.3 142.9,232.3 142.9,233.3 143.9,233.3 143.9,236.3 145,236.3 145,239.4 146,239.4 146,241.4 146,242.4 
					145,242.4 145,243.5 143.9,243.5 				"/>
			</g>
			<polygon class="st7" points="137.8,241.4 138.9,241.4 138.9,240.4 137.8,240.4 137.8,239.4 138.9,239.4 138.9,238.4 141.9,238.4 
				141.9,239.4 141.9,240.4 141.9,241.4 142.9,241.4 142.9,242.4 137.8,242.4 			"/>
			<polygon class="st7" points="125.6,239.4 126.6,239.4 126.6,238.4 126.6,237.3 127.7,237.3 127.7,236.3 129.7,236.3 129.7,237.3 
				130.7,237.3 130.7,238.4 129.7,238.4 129.7,239.4 130.7,239.4 130.7,240.4 125.6,240.4 			"/>
			<g>
				<rect x="113.4" y="216" class="st3" width="1" height="1"/>
				<polygon class="st3" points="114.4,218 114.4,217 116.5,217 118.5,217 118.5,218 116.5,218 				"/>
				<polygon class="st3" points="118.5,219 118.5,218 120.5,218 123.6,218 123.6,219 120.5,219 				"/>
				<rect x="123.6" y="219" class="st3" width="2" height="1"/>
				<rect x="129.7" y="221.1" class="st3" width="4.1" height="1"/>
				<rect x="125.6" y="220" class="st3" width="4.1" height="1"/>
				<rect x="118.5" y="206.8" class="st3" width="2" height="1"/>
				<rect x="120.5" y="207.8" class="st3" width="1" height="1"/>
				<rect x="121.6" y="208.8" class="st3" width="1" height="1"/>
				<rect x="122.6" y="209.9" class="st3" width="1" height="1"/>
				<rect x="123.6" y="210.9" class="st3" width="1" height="2"/>
				<rect x="124.6" y="212.9" class="st3" width="1" height="1"/>
				<rect x="125.6" y="213.9" class="st3" width="2" height="1"/>
				<rect x="127.7" y="214.9" class="st3" width="1" height="1"/>
				<rect x="128.7" y="216" class="st3" width="1" height="1"/>
				<rect x="129.7" y="217" class="st3" width="1" height="1"/>
				<rect x="130.7" y="218" class="st3" width="1" height="1"/>
				<rect x="131.7" y="219" class="st3" width="2" height="1"/>
				<rect x="133.8" y="220" class="st3" width="1" height="1"/>
				<polygon class="st3" points="136.8,217 136.8,210.9 136.8,201.7 136.8,197.6 137.8,197.6 137.8,201.7 137.8,210.9 137.8,217 
					137.8,218 137.8,219 136.8,219 136.8,218 				"/>
				<rect x="126.6" y="200.7" class="st3" width="1" height="1"/>
				<rect x="134.8" y="218" class="st3" width="1" height="1"/>
				<polygon class="st3" points="133.8,216 133.8,214.9 134.8,214.9 134.8,216 134.8,218 133.8,218 				"/>
				<polygon class="st3" points="132.8,212.9 132.8,211.9 133.8,211.9 133.8,212.9 133.8,214.9 132.8,214.9 				"/>
				<rect x="131.7" y="208.8" class="st3" width="1" height="3.1"/>
				<rect x="127.7" y="201.7" class="st3" width="1" height="1"/>
				<rect x="128.7" y="202.7" class="st3" width="1" height="2"/>
				<rect x="129.7" y="204.8" class="st3" width="1" height="2"/>
				<rect x="130.7" y="206.8" class="st3" width="1" height="2"/>
				<rect x="146" y="201.7" class="st3" width="1" height="1"/>
				<polygon class="st3" points="145,202.7 146,202.7 146,204.8 146,206.8 145,206.8 145,204.8 				"/>
				<rect x="143.9" y="206.8" class="st3" width="1" height="3.1"/>
				<rect x="142.9" y="209.9" class="st3" width="1" height="2"/>
				<rect x="141.9" y="211.9" class="st3" width="1" height="2"/>
				<rect x="140.9" y="213.9" class="st3" width="1" height="2"/>
				<rect x="139.9" y="216" class="st3" width="1" height="2"/>
				<rect x="138.9" y="218" class="st3" width="1" height="1"/>
			</g>
		</g>
	</g>
	<g>
		<path class="st0" d="M244,64.2l-0.7-0.7l-0.7,0.7l-0.7-0.7l-2.1,2.1l-2.1-2.1l-0.7,0.7l-0.7-0.7l-0.7,0.7l-0.7-0.7l-0.7,0.7
			l0.7,0.7l-0.7,0.7l0.7,0.7l-0.7,0.7l2.1,2.1l-2.1,2.1l0.7,0.7l-0.7,0.7l0.7,0.7l-0.7,0.7l0.7,0.7l0.7-0.7l0.7,0.7l0.7-0.7l0.7,0.7
			l2.1-2.1l2.1,2.1l0.7-0.7l0.7,0.7l0.7-0.7l0.7,0.7l0.7-0.7l-0.7-0.7l0.7-0.7l-0.7-0.7l0.7-0.7l-2.1-2.1l2.1-2.1l-0.7-0.7l0.7-0.7
			l-0.7-0.7l0.7-0.7l-0.7-0.7L244,64.2z"/>
		<polygon class="st0" points="239.9,68.4 240.6,67.7 239.2,67.7 		"/>
		<polygon class="st0" points="239.2,69.1 238.5,68.4 238.5,69.8 		"/>
		<polygon class="st0" points="239.9,69.8 239.2,70.5 240.6,70.5 		"/>
		<polygon class="st0" points="240.6,69.1 241.3,69.8 241.3,68.4 		"/>
	</g>
	<rect x="239.4" y="67.6" transform="matrix(0.7071 -0.7071 0.7071 0.7071 21.415 189.838)" class="st1" width="1" height="3"/>
	<rect x="238.4" y="68.6" transform="matrix(0.7071 -0.7071 0.7071 0.7071 21.415 189.838)" class="st1" width="3" height="1"/>
	<path class="st4" d="M242,66.3l-0.7-0.7l-1.4,1.4l-1.4-1.4l-0.7,0.7l-1.4-1.4l-0.7,0.7l1.4,1.4l-0.7,0.7l1.4,1.4l-1.4,1.4l0.7,0.7
		l-1.4,1.4l0.7,0.7l1.4-1.4l0.7,0.7l1.4-1.4l1.4,1.4l0.7-0.7l1.4,1.4l0.7-0.7l-1.4-1.4l0.7-0.7l-1.4-1.4l1.4-1.4l-0.7-0.7l1.4-1.4
		l-0.7-0.7L242,66.3z M241.3,68.4l-0.7,0.7l0.7,0.7l-0.7,0.7l-0.7-0.7l-0.7,0.7l-0.7-0.7l0.7-0.7l-0.7-0.7l0.7-0.7l0.7,0.7l0.7-0.7
		L241.3,68.4z"/>
	<g>
		<path class="st0" d="M144.1,16.1l-0.7-0.7l-0.7,0.7l-0.7-0.7l-2.1,2.1l-2.1-2.1l-0.7,0.7l-0.7-0.7l-0.7,0.7l-0.7-0.7l-0.7,0.7
			l0.7,0.7l-0.7,0.7l0.7,0.7l-0.7,0.7l2.1,2.1l-2.1,2.1l0.7,0.7l-0.7,0.7l0.7,0.7l-0.7,0.7l0.7,0.7l0.7-0.7l0.7,0.7l0.7-0.7l0.7,0.7
			l2.1-2.1l2.1,2.1l0.7-0.7l0.7,0.7l0.7-0.7l0.7,0.7l0.7-0.7l-0.7-0.7l0.7-0.7l-0.7-0.7l0.7-0.7l-2.1-2.1l2.1-2.1l-0.7-0.7l0.7-0.7
			l-0.7-0.7l0.7-0.7l-0.7-0.7L144.1,16.1z"/>
		<polygon class="st0" points="140,20.3 140.7,19.6 139.3,19.6 		"/>
		<polygon class="st0" points="139.3,21 138.6,20.3 138.6,21.7 		"/>
		<polygon class="st0" points="140,21.7 139.3,22.4 140.7,22.4 		"/>
		<polygon class="st0" points="140.7,21 141.4,21.7 141.4,20.3 		"/>
	</g>
	<rect x="139.5" y="19.5" transform="matrix(0.7071 -0.7071 0.7071 0.7071 26.1406 105.1221)" class="st1" width="1" height="3"/>
	<rect x="138.5" y="20.5" transform="matrix(0.7071 -0.7071 0.7071 0.7071 26.1406 105.1221)" class="st1" width="3" height="1"/>
	<path class="st4" d="M142.1,18.2l-0.7-0.7l-1.4,1.4l-1.4-1.4l-0.7,0.7l-1.4-1.4l-0.7,0.7l1.4,1.4l-0.7,0.7l1.4,1.4l-1.4,1.4
		l0.7,0.7l-1.4,1.4l0.7,0.7l1.4-1.4l0.7,0.7l1.4-1.4l1.4,1.4l0.7-0.7l1.4,1.4l0.7-0.7l-1.4-1.4l0.7-0.7l-1.4-1.4l1.4-1.4l-0.7-0.7
		l1.4-1.4l-0.7-0.7L142.1,18.2z M141.4,20.3l-0.7,0.7l0.7,0.7l-0.7,0.7l-0.7-0.7l-0.7,0.7l-0.7-0.7l0.7-0.7l-0.7-0.7l0.7-0.7
		l0.7,0.7l0.7-0.7L141.4,20.3z"/>
	<g>
		<path class="st0" d="M22,69.5l-0.7-0.7l-0.7,0.7l-0.7-0.7l-2.1,2.1l-2.1-2.1L15,69.5l-0.7-0.7l-0.7,0.7L13,68.9l-0.7,0.7l0.7,0.7
			l-0.7,0.7l0.7,0.7l-0.7,0.7l2.1,2.1l-2.1,2.1l0.7,0.7l-0.7,0.7l0.7,0.7l-0.7,0.7L13,80l0.7-0.7l0.7,0.7l0.7-0.7l0.7,0.7l2.1-2.1
			l2.1,2.1l0.7-0.7l0.7,0.7l0.7-0.7l0.7,0.7l0.7-0.7l-0.7-0.7l0.7-0.7l-0.7-0.7l0.7-0.7l-2.1-2.1l2.1-2.1l-0.7-0.7l0.7-0.7l-0.7-0.7
			l0.7-0.7l-0.7-0.7L22,69.5z"/>
		<polygon class="st0" points="17.8,73.7 18.5,73 17.1,73 		"/>
		<polygon class="st0" points="17.1,74.4 16.4,73.7 16.4,75.1 		"/>
		<polygon class="st0" points="17.8,75.1 17.1,75.8 18.5,75.8 		"/>
		<polygon class="st0" points="18.5,74.4 19.2,75.1 19.2,73.7 		"/>
	</g>
	<rect x="17.3" y="72.9" transform="matrix(0.7071 -0.7071 0.7071 0.7071 -47.4053 34.4091)" class="st1" width="1" height="3"/>
	<rect x="16.4" y="73.9" transform="matrix(0.7071 -0.7071 0.7071 0.7071 -47.4053 34.4091)" class="st1" width="3" height="1"/>
	<path class="st4" d="M19.9,71.6l-0.7-0.7l-1.4,1.4l-1.4-1.4l-0.7,0.7l-1.4-1.4l-0.7,0.7l1.4,1.4L14.3,73l1.4,1.4l-1.4,1.4l0.7,0.7
		l-1.4,1.4l0.7,0.7l1.4-1.4l0.7,0.7l1.4-1.4l1.4,1.4l0.7-0.7l1.4,1.4l0.7-0.7l-1.4-1.4l0.7-0.7l-1.4-1.4l1.4-1.4l-0.7-0.7l1.4-1.4
		l-0.7-0.7L19.9,71.6z M19.2,73.7l-0.7,0.7l0.7,0.7l-0.7,0.7l-0.7-0.7l-0.7,0.7l-0.7-0.7l0.7-0.7l-0.7-0.7l0.7-0.7l0.7,0.7l0.7-0.7
		L19.2,73.7z"/>
	<g>
		<path class="st0" d="M100.6,114.1l-0.7-0.7l-0.7,0.7l-0.7-0.7l-2.1,2.1l-2.1-2.1l-0.7,0.7l-0.7-0.7l-0.7,0.7l-0.7-0.7l-0.7,0.7
			l0.7,0.7l-0.7,0.7l0.7,0.7l-0.7,0.7l2.1,2.1l-2.1,2.1l0.7,0.7l-0.7,0.7l0.7,0.7l-0.7,0.7l0.7,0.7l0.7-0.7l0.7,0.7l0.7-0.7l0.7,0.7
			l2.1-2.1l2.1,2.1l0.7-0.7l0.7,0.7l0.7-0.7l0.7,0.7l0.7-0.7l-0.7-0.7l0.7-0.7l-0.7-0.7l0.7-0.7l-2.1-2.1l2.1-2.1l-0.7-0.7l0.7-0.7
			l-0.7-0.7l0.7-0.7l-0.7-0.7L100.6,114.1z"/>
		<polygon class="st0" points="96.4,118.3 97.1,117.6 95.7,117.6 		"/>
		<polygon class="st0" points="95.7,119 95,118.3 95,119.7 		"/>
		<polygon class="st0" points="96.4,119.7 95.7,120.4 97.1,120.4 		"/>
		<polygon class="st0" points="97.1,119 97.8,119.7 97.8,118.3 		"/>
	</g>
	<rect x="95.9" y="117.5" transform="matrix(0.7071 -0.7071 0.7071 0.7071 -55.8972 102.991)" class="st1" width="1" height="3"/>
	<rect x="94.9" y="118.5" transform="matrix(0.7071 -0.7071 0.7071 0.7071 -55.8972 102.991)" class="st1" width="3" height="1"/>
	<path class="st4" d="M98.5,116.2l-0.7-0.7l-1.4,1.4l-1.4-1.4l-0.7,0.7l-1.4-1.4l-0.7,0.7l1.4,1.4l-0.7,0.7l1.4,1.4l-1.4,1.4
		l0.7,0.7l-1.4,1.4l0.7,0.7l1.4-1.4l0.7,0.7l1.4-1.4l1.4,1.4l0.7-0.7l1.4,1.4l0.7-0.7l-1.4-1.4l0.7-0.7l-1.4-1.4l1.4-1.4l-0.7-0.7
		l1.4-1.4l-0.7-0.7L98.5,116.2z M97.8,118.3l-0.7,0.7l0.7,0.7l-0.7,0.7l-0.7-0.7l-0.7,0.7l-0.7-0.7l0.7-0.7l-0.7-0.7l0.7-0.7
		l0.7,0.7l0.7-0.7L97.8,118.3z"/>
	<g>
		<defs>
			<rect id="SVGID_3_" x="104.3" y="78.6" width="67.8" height="71.4"/>
		</defs>
		<clipPath id="SVGID_4_">
			<use xlink:href="#SVGID_3_"  style="overflow:visible;"/>
		</clipPath>
		<g class="st22">
			<g>
				<polygon class="st19" points="118.2,141.6 118.2,139.6 119.2,139.6 119.2,137.6 120.3,137.6 120.3,134.5 121.3,134.5 
					121.3,132.5 122.3,132.5 122.3,131.4 124.3,131.4 124.3,130.4 125.4,130.4 125.4,129.4 127.4,129.4 127.4,128.4 128.4,128.4 
					128.4,127.4 129.4,127.4 129.4,126.4 131.5,126.4 132.5,126.4 133.5,126.4 133.5,125.3 137.6,125.3 137.6,124.3 139.6,124.3 
					141.6,124.3 141.6,123.3 143.7,123.3 143.7,122.3 143.7,120.2 144.7,120.2 144.7,118.2 144.7,116.2 143.7,116.2 143.7,114.1 
					140.6,114.1 140.6,115.2 139.6,115.2 139.6,116.2 134.5,116.2 134.5,117.2 130.4,117.2 130.4,118.2 125.4,118.2 125.4,117.2 
					127.4,117.2 127.4,116.2 130.4,116.2 130.4,115.2 133.5,115.2 133.5,114.1 134.5,114.1 134.5,113.1 143.7,113.1 144.7,113.1 
					145.7,113.1 145.7,112.1 146.7,112.1 146.7,111.1 147.7,111.1 147.7,109 153.9,109 154.9,109 154.9,118.2 154.9,119.2 
					154.9,120.2 154.9,122.3 153.9,122.3 153.9,123.3 152.8,123.3 152.8,124.3 151.8,124.3 151.8,125.3 150.8,125.3 150.8,126.4 
					149.8,126.4 149.8,127.4 148.8,127.4 148.8,128.4 146.7,128.4 146.7,129.4 144.7,129.4 144.7,130.4 142.7,130.4 142.7,131.4 
					140.6,131.4 140.6,132.5 139.6,132.5 139.6,133.5 138.6,133.5 138.6,134.5 136.5,134.5 136.5,135.5 135.5,135.5 135.5,136.5 
					134.5,136.5 133.5,136.5 133.5,137.6 132.5,137.6 132.5,138.6 131.5,138.6 131.5,147.7 133.5,147.7 133.5,148.7 134.5,148.7 
					136.5,148.7 136.5,149.8 139.6,149.8 139.6,150.8 142.7,150.8 142.7,151.8 145.7,151.8 145.7,152.8 148.8,152.8 148.8,153.8 
					150.8,153.8 150.8,154.9 151.8,154.9 153.9,154.9 153.9,155.9 156.9,155.9 156.9,156.9 157.9,156.9 157.9,157.9 158.9,157.9 
					158.9,159.9 160,159.9 160,162 161,162 161,163 162,163 162,164 163,164 163,167.1 164,167.1 164,169.1 165.1,169.1 
					165.1,172.2 164,172.2 164,174.2 163,174.2 163,177.3 162,177.3 162,179.3 161,179.3 161,180.3 160,180.3 160,181.3 
					173.2,181.3 173.2,182.3 181.3,182.3 184.4,182.3 189.5,182.3 189.5,181.3 190.5,181.3 191.5,181.3 191.5,180.3 192.5,180.3 
					192.5,179.3 193.6,179.3 193.6,178.3 195.6,178.3 195.6,177.3 196.6,177.3 196.6,176.2 197.6,176.2 197.6,175.2 199.7,175.2 
					199.7,174.2 200.7,174.2 200.7,173.2 201.7,173.2 201.7,172.2 202.7,172.2 202.7,171.1 204.8,171.1 204.8,170.1 205.8,170.1 
					205.8,169.1 207.8,169.1 207.8,168.1 208.8,168.1 211.9,168.1 227.2,168.1 227.2,172.2 227.2,173.2 212.9,173.2 212.9,174.2 
					207.8,174.2 207.8,175.2 206.8,175.2 206.8,176.2 204.8,176.2 204.8,178.3 203.7,178.3 203.7,179.3 201.7,179.3 201.7,180.3 
					200.7,180.3 200.7,181.3 199.7,181.3 199.7,182.3 197.6,182.3 197.6,183.4 196.6,183.4 196.6,185.4 195.6,185.4 195.6,186.4 
					193.6,186.4 193.6,187.4 192.5,187.4 192.5,188.5 191.5,188.5 191.5,189.5 190.5,189.5 190.5,190.5 189.5,190.5 184.4,190.5 
					184.4,191.5 182.4,191.5 182.4,192.5 173.2,192.5 172.2,192.5 172.2,193.5 168.1,193.5 168.1,194.6 157.9,194.6 157.9,193.5 
					155.9,193.5 155.9,192.5 154.9,192.5 153.9,192.5 153.9,191.5 151.8,191.5 151.8,190.5 148.8,190.5 148.8,189.5 147.7,189.5 
					147.7,188.5 146.7,188.5 145.7,188.5 145.7,185.4 146.7,185.4 146.7,180.3 147.7,180.3 147.7,174.2 148.8,174.2 148.8,169.1 
					149.8,169.1 149.8,167.1 147.7,167.1 147.7,166.1 143.7,166.1 143.7,165 140.6,165 140.6,164 138.6,164 138.6,163 135.5,163 
					135.5,162 133.5,162 133.5,161 131.5,161 131.5,159.9 129.4,159.9 127.4,159.9 127.4,158.9 125.4,158.9 125.4,157.9 
					122.3,157.9 122.3,156.9 121.3,156.9 120.3,156.9 120.3,152.8 119.2,152.8 119.2,150.8 118.2,150.8 118.2,147.7 117.2,147.7 
					117.2,141.6 				"/>
				<rect x="140.6" y="102.9" class="st19" width="1" height="1"/>
				<rect x="139.6" y="101.9" class="st19" width="1" height="1"/>
				<rect x="138.6" y="100.9" class="st19" width="1" height="1"/>
				<polygon class="st19" points="136.5,100.9 134.5,100.9 133.5,100.9 133.5,98.9 132.5,98.9 132.5,95.8 133.5,95.8 133.5,94.8 
					134.5,94.8 134.5,92.8 135.5,92.8 135.5,94.8 136.5,94.8 136.5,96.8 137.6,96.8 137.6,98.9 138.6,98.9 138.6,99.9 138.6,100.9 
					137.6,100.9 				"/>
			</g>
			<polygon class="st20" points="143.7,85.6 143.7,83.6 144.7,83.6 144.7,84.6 145.7,84.6 145.7,86.6 146.7,86.6 146.7,88.7 
				147.7,88.7 147.7,93.8 146.7,93.8 146.7,96.8 147.7,96.8 147.7,95.8 148.8,95.8 148.8,92.8 149.8,92.8 149.8,90.7 150.8,90.7 
				150.8,87.7 151.8,87.7 151.8,86.6 152.8,86.6 152.8,83.6 153.9,83.6 153.9,88.7 154.9,88.7 154.9,91.7 153.9,91.7 153.9,93.8 
				152.8,93.8 152.8,95.8 151.8,95.8 151.8,97.8 150.8,97.8 150.8,99.9 149.8,99.9 149.8,100.9 148.8,100.9 148.8,102.9 
				149.8,102.9 149.8,101.9 150.8,101.9 150.8,100.9 151.8,100.9 151.8,99.9 153.9,99.9 153.9,98.9 154.9,98.9 154.9,96.8 
				155.9,96.8 155.9,95.8 156.9,95.8 156.9,94.8 158.9,94.8 158.9,93.8 160,93.8 160,92.8 161,92.8 161,90.7 162,90.7 162,91.7 
				163,91.7 163,96.8 162,96.8 162,97.8 161,97.8 161,98.9 160,98.9 158.9,98.9 158.9,99.9 157.9,99.9 157.9,100.9 156.9,100.9 
				156.9,101.9 155.9,101.9 155.9,102.9 154.9,102.9 154.9,104 155.9,104 155.9,105 157.9,105 157.9,104 162,104 162,102.9 
				164,102.9 164,101.9 167.1,101.9 167.1,102.9 166.1,102.9 166.1,104 165.1,104 165.1,105 164,105 164,106 163,106 163,107 
				161,107 161,108 149.8,108 149.8,109 160,109 160,110.1 162,110.1 163,110.1 168.1,110.1 168.1,111.1 170.1,111.1 170.1,112.1 
				167.1,112.1 165.1,112.1 165.1,113.1 164,113.1 164,114.1 154.9,114.1 153.9,114.1 153.9,115.2 154.9,115.2 154.9,116.2 
				155.9,116.2 155.9,117.2 157.9,117.2 157.9,118.2 160,118.2 160,119.2 162,119.2 162,120.2 164,120.2 164,121.3 156.9,121.3 
				156.9,120.2 155.9,120.2 155.9,119.2 153.9,119.2 153.9,118.2 152.8,118.2 152.8,117.2 151.8,117.2 151.8,116.2 149.8,116.2 
				149.8,115.2 148.8,115.2 148.8,114.1 148.8,110.1 147.7,110.1 147.7,107 146.7,107 146.7,106 145.7,106 145.7,105 144.7,105 
				143.7,105 142.7,105 142.7,85.6 			"/>
			<polygon class="st2" points="226.1,168.1 227.2,168.1 227.2,167.1 228.2,167.1 228.2,166.1 232.3,166.1 232.3,167.1 233.3,167.1 
				233.3,168.1 234.3,168.1 234.3,173.2 233.3,173.2 233.3,174.2 232.3,174.2 232.3,175.2 228.2,175.2 228.2,174.2 227.2,174.2 
				227.2,173.2 226.1,173.2 			"/>
			<g>
				<rect x="247.5" y="157.9" class="st20" width="1" height="1"/>
				<rect x="249.6" y="164" class="st20" width="1" height="1"/>
				<rect x="250.6" y="163" class="st20" width="1" height="1"/>
				<polygon class="st20" points="233.3,174.2 233.3,173.2 234.3,173.2 234.3,172.2 234.3,171.1 234.3,170.1 234.3,169.1 
					234.3,168.1 234.3,167.1 234.3,166.1 235.3,166.1 235.3,165 236.3,165 237.3,165 237.3,164 238.4,164 238.4,163 241.4,163 
					241.4,162 243.4,162 243.4,161 244.5,161 244.5,159.9 246.5,159.9 246.5,158.9 247.5,158.9 247.5,159.9 247.5,161 246.5,161 
					246.5,162 246.5,163 245.5,163 245.5,164 244.5,164 244.5,165 249.6,165 249.6,166.1 248.5,166.1 248.5,167.1 247.5,167.1 
					243.4,167.1 243.4,168.1 240.4,168.1 240.4,169.1 251.6,169.1 251.6,170.1 252.6,170.1 252.6,171.1 250.6,171.1 250.6,172.2 
					242.4,172.2 242.4,173.2 243.4,173.2 243.4,174.2 244.5,174.2 244.5,175.2 246.5,175.2 246.5,176.2 248.5,176.2 248.5,177.3 
					243.4,177.3 243.4,176.2 241.4,176.2 241.4,175.2 239.4,175.2 239.4,174.2 238.4,174.2 238.4,176.2 240.4,176.2 240.4,177.3 
					241.4,177.3 241.4,178.3 241.4,179.3 242.4,179.3 242.4,180.3 243.4,180.3 243.4,181.3 240.4,181.3 240.4,180.3 238.4,180.3 
					238.4,179.3 237.3,179.3 237.3,178.3 237.3,177.3 236.3,177.3 236.3,180.3 237.3,180.3 237.3,184.4 236.3,184.4 236.3,183.4 
					235.3,183.4 235.3,182.3 234.3,182.3 234.3,181.3 233.3,181.3 233.3,179.3 232.3,179.3 232.3,174.2 				"/>
				<rect x="237.3" y="184.4" class="st20" width="1" height="1"/>
				<rect x="243.4" y="181.3" class="st20" width="1" height="1"/>
			</g>
			<g>
				<rect x="251.6" y="174.2" class="st3" width="1" height="1"/>
				<polygon class="st3" points="251.6,173.2 251.6,174.2 250.6,174.2 249.6,174.2 249.6,173.2 250.6,173.2 				"/>
				<polygon class="st3" points="248.5,172.2 249.6,172.2 249.6,173.2 248.5,173.2 247.5,173.2 245.5,173.2 245.5,172.2 
					247.5,172.2 				"/>
				<polygon class="st3" points="243.4,171.1 245.5,171.1 245.5,172.2 243.4,172.2 241.4,172.2 239.4,172.2 239.4,171.1 
					241.4,171.1 				"/>
				<rect x="238.4" y="170.1" class="st3" width="1" height="1"/>
				<polygon class="st3" points="249.6,166.1 252.6,166.1 252.6,167.1 249.6,167.1 245.5,167.1 245.5,166.1 				"/>
				<polygon class="st3" points="243.4,167.1 245.5,167.1 245.5,168.1 243.4,168.1 240.4,168.1 240.4,167.1 				"/>
				<rect x="252.6" y="165" class="st3" width="1" height="1"/>
				<rect x="250.6" y="158.9" class="st3" width="1" height="1"/>
				<rect x="249.6" y="159.9" class="st3" width="1" height="1"/>
				<rect x="248.5" y="161" class="st3" width="1" height="1"/>
				<polygon class="st3" points="247.5,162 248.5,162 248.5,163 247.5,163 246.5,163 246.5,162 				"/>
				<rect x="244.5" y="163" class="st3" width="2" height="1"/>
				<polygon class="st3" points="242.4,164 244.5,164 244.5,165 242.4,165 240.4,165 240.4,164 				"/>
				<polygon class="st3" points="238.4,165 240.4,165 240.4,166.1 238.4,166.1 237.3,166.1 237.3,165 				"/>
				<polygon class="st3" points="235.3,167.1 235.3,168.1 236.3,168.1 238.4,168.1 240.4,168.1 240.4,169.1 238.4,169.1 
					238.4,170.1 236.3,170.1 235.3,170.1 235.3,171.1 236.3,171.1 236.3,172.2 235.3,172.2 235.3,173.2 235.3,174.2 235.3,175.2 
					235.3,176.2 234.3,176.2 234.3,175.2 234.3,174.2 234.3,173.2 234.3,172.2 234.3,171.1 234.3,170.1 234.3,169.1 234.3,168.1 
					234.3,167.1 				"/>
				<polygon class="st3" points="236.3,166.1 237.3,166.1 237.3,167.1 236.3,167.1 235.3,167.1 235.3,166.1 				"/>
				<rect x="247.5" y="181.3" class="st3" width="1" height="1"/>
				<rect x="246.5" y="180.3" class="st3" width="1" height="1"/>
				<rect x="245.5" y="179.3" class="st3" width="1" height="1"/>
				<rect x="244.5" y="178.3" class="st3" width="1" height="1"/>
				<rect x="243.4" y="177.3" class="st3" width="1" height="1"/>
				<rect x="241.4" y="176.2" class="st3" width="2" height="1"/>
				<rect x="240.4" y="175.2" class="st3" width="1" height="1"/>
				<rect x="238.4" y="174.2" class="st3" width="2" height="1"/>
				<rect x="237.3" y="173.2" class="st3" width="1" height="1"/>
				<rect x="236.3" y="172.2" class="st3" width="1" height="1"/>
				<rect x="240.4" y="184.4" class="st3" width="1" height="1"/>
				<rect x="239.4" y="182.3" class="st3" width="1" height="2"/>
				<rect x="238.4" y="180.3" class="st3" width="1" height="2"/>
				<rect x="237.3" y="179.3" class="st3" width="1" height="1"/>
				<rect x="236.3" y="178.3" class="st3" width="1" height="1"/>
				<rect x="235.3" y="176.2" class="st3" width="1" height="2"/>
			</g>
			<polygon class="st2" points="139.6,107 140.6,107 140.6,106 141.6,106 141.6,105 145.7,105 145.7,106 146.7,106 146.7,107 
				147.7,107 147.7,111.1 146.7,111.1 146.7,112.1 145.7,112.1 145.7,113.1 141.6,113.1 141.6,112.1 140.6,112.1 140.6,111.1 
				139.6,111.1 			"/>
			<polygon class="st7" points="138.6,108 138.6,107 141.6,107 141.6,108 141.6,109 142.7,109 142.7,110.1 141.6,110.1 141.6,111.1 
				140.6,111.1 140.6,112.1 141.6,112.1 141.6,113.1 142.7,113.1 142.7,115.2 143.7,115.2 143.7,117.2 143.7,118.2 142.7,118.2 
				142.7,117.2 142.7,116.2 141.6,116.2 141.6,115.2 140.6,115.2 139.6,115.2 139.6,111.1 138.6,111.1 138.6,112.1 137.6,112.1 
				137.6,111.1 137.6,110.1 137.6,108 			"/>
			<polygon class="st20" points="129.4,93.8 130.4,93.8 130.4,91.7 131.5,91.7 131.5,90.7 133.5,90.7 133.5,91.7 134.5,91.7 
				134.5,93.8 134.5,94.8 133.5,94.8 133.5,95.8 132.5,95.8 131.5,95.8 131.5,94.8 129.4,94.8 			"/>
			<g>
				<rect x="140.6" y="104" class="st2" width="1" height="2"/>
				<polygon class="st2" points="138.6,100.9 138.6,101.9 139.6,101.9 139.6,102.9 140.6,102.9 140.6,104 139.6,104 138.6,104 
					138.6,102.9 134.5,102.9 134.5,101.9 133.5,101.9 133.5,100.9 				"/>
			</g>
			<polygon class="st7" points="138.6,102.9 138.6,104 139.6,104 140.6,104 140.6,106 139.6,106 138.6,106 137.6,106 137.6,105 
				135.5,105 135.5,104 134.5,104 134.5,102.9 			"/>
			<polygon class="st2" points="125.4,114.1 125.4,113.1 128.4,113.1 128.4,112.1 130.4,112.1 130.4,111.1 132.5,111.1 132.5,110.1 
				133.5,110.1 134.5,110.1 136.5,110.1 136.5,109 135.5,109 135.5,108 134.5,108 134.5,107 132.5,107 132.5,106 131.5,106 
				131.5,105 131.5,102.9 131.5,101.9 131.5,100.9 130.4,100.9 130.4,98.9 129.4,98.9 129.4,97.8 128.4,97.8 127.4,97.8 127.4,96.8 
				126.4,96.8 126.4,95.8 127.4,95.8 128.4,95.8 128.4,96.8 130.4,96.8 131.5,96.8 131.5,98.9 132.5,98.9 132.5,101.9 133.5,101.9 
				133.5,105 134.5,105 134.5,106 136.5,106 136.5,107 137.6,107 138.6,107 138.6,108 137.6,108 137.6,109 137.6,110.1 137.6,111.1 
				135.5,111.1 135.5,112.1 133.5,112.1 133.5,113.1 132.5,113.1 132.5,114.1 129.4,114.1 129.4,115.2 123.3,115.2 123.3,114.1 			
				"/>
			<g>
				<polygon class="st21" points="136.5,106 134.5,106 134.5,105 133.5,105 133.5,104 133.5,101.9 134.5,101.9 134.5,104 135.5,104 
					135.5,105 137.6,105 137.6,106 140.6,106 140.6,107 136.5,107 				"/>
				<rect x="132.5" y="98.9" class="st21" width="1" height="3.1"/>
				<polygon class="st21" points="131.5,96.8 128.4,96.8 128.4,95.8 127.4,95.8 127.4,94.8 131.5,94.8 131.5,95.8 132.5,95.8 
					132.5,96.8 132.5,98.9 131.5,98.9 				"/>
				<polygon class="st21" points="124.3,115.2 125.4,115.2 129.4,115.2 129.4,114.1 132.5,114.1 132.5,113.1 133.5,113.1 
					133.5,112.1 135.5,112.1 135.5,111.1 137.6,111.1 137.6,112.1 138.6,112.1 138.6,111.1 139.6,111.1 139.6,113.1 138.6,113.1 
					135.5,113.1 134.5,113.1 134.5,114.1 133.5,114.1 133.5,115.2 130.4,115.2 130.4,116.2 127.4,116.2 127.4,117.2 125.4,117.2 
					124.3,117.2 124.3,116.2 123.3,116.2 123.3,115.2 				"/>
			</g>
			<polygon class="st7" points="125.4,109 125.4,110.1 126.4,110.1 126.4,109 127.4,109 127.4,110.1 128.4,110.1 128.4,113.1 
				127.4,113.1 126.4,113.1 125.4,113.1 125.4,114.1 124.3,114.1 124.3,109 			"/>
			<polygon class="st7" points="127.4,96.8 127.4,97.8 128.4,97.8 129.4,97.8 129.4,98.9 130.4,98.9 130.4,100.9 129.4,100.9 
				129.4,101.9 128.4,101.9 128.4,100.9 127.4,100.9 127.4,101.9 126.4,101.9 126.4,96.8 			"/>
			<g>
				<rect x="149.8" y="84.6" class="st3" width="1" height="1"/>
				<polygon class="st3" points="148.8,85.6 149.8,85.6 149.8,87.7 149.8,89.7 148.8,89.7 148.8,87.7 				"/>
				<polygon class="st3" points="147.7,89.7 148.8,89.7 148.8,91.7 148.8,94.8 147.7,94.8 147.7,91.7 				"/>
				<rect x="146.7" y="94.8" class="st3" width="1" height="2"/>
				<rect x="144.7" y="100.9" class="st3" width="1" height="4.1"/>
				<rect x="145.7" y="96.8" class="st3" width="1" height="4.1"/>
				<rect x="158.9" y="89.7" class="st3" width="1" height="2"/>
				<rect x="157.9" y="91.7" class="st3" width="1" height="1"/>
				<rect x="156.9" y="92.8" class="st3" width="1" height="1"/>
				<rect x="155.9" y="93.8" class="st3" width="1" height="1"/>
				<rect x="153.9" y="94.8" class="st3" width="2" height="1"/>
				<rect x="152.8" y="95.8" class="st3" width="1" height="1"/>
				<rect x="151.8" y="96.8" class="st3" width="1" height="2"/>
				<rect x="150.8" y="98.9" class="st3" width="1" height="1"/>
				<rect x="149.8" y="99.9" class="st3" width="1" height="1"/>
				<rect x="148.8" y="100.9" class="st3" width="1" height="1"/>
				<rect x="147.7" y="101.9" class="st3" width="1" height="1"/>
				<rect x="146.7" y="102.9" class="st3" width="1" height="2"/>
				<rect x="145.7" y="105" class="st3" width="1" height="1"/>
				<polygon class="st3" points="149.8,108 155.9,108 165.1,108 169.1,108 169.1,109 165.1,109 155.9,109 149.8,109 148.8,109 
					147.7,109 147.7,108 148.8,108 				"/>
				<rect x="165.1" y="97.8" class="st3" width="1" height="1"/>
				<rect x="147.7" y="106" class="st3" width="1" height="1"/>
				<polygon class="st3" points="150.8,105 151.8,105 151.8,106 150.8,106 148.8,106 148.8,105 				"/>
				<polygon class="st3" points="153.9,104 154.9,104 154.9,105 153.9,105 151.8,105 151.8,104 				"/>
				<rect x="154.9" y="102.9" class="st3" width="3.1" height="1"/>
				<rect x="164" y="98.9" class="st3" width="1" height="1"/>
				<rect x="162" y="99.9" class="st3" width="2" height="1"/>
				<rect x="160" y="100.9" class="st3" width="2" height="1"/>
				<rect x="157.9" y="101.9" class="st3" width="2" height="1"/>
				<rect x="164" y="117.2" class="st3" width="1" height="1"/>
				<polygon class="st3" points="164,116.2 164,117.2 162,117.2 160,117.2 160,116.2 162,116.2 				"/>
				<rect x="156.9" y="115.2" class="st3" width="3.1" height="1"/>
				<rect x="154.9" y="114.1" class="st3" width="2" height="1"/>
				<rect x="152.8" y="113.1" class="st3" width="2" height="1"/>
				<rect x="150.8" y="112.1" class="st3" width="2" height="1"/>
				<rect x="148.8" y="111.1" class="st3" width="2" height="1"/>
				<rect x="147.7" y="110.1" class="st3" width="1" height="1"/>
			</g>
		</g>
	</g>
</g>
<g id="Layer_2" class="st23">
	<g class="st24">
		<rect class="st25" width="83.1" height="150"/>
		<rect x="83.4" class="st25" width="83.1" height="150"/>
		<rect x="166.9" class="st25" width="83.1" height="150"/>
	</g>
	
		<rect x="99.5" y="-101.1" transform="matrix(-1.836970e-16 1 -1 -1.836970e-16 148.9305 -100.1446)" class="st26" width="50.1" height="250.9"/>
	
		<rect x="99.5" y="-50.8" transform="matrix(-1.836970e-16 1 -1 -1.836970e-16 199.2119 -49.8632)" class="st26" width="50.1" height="250.9"/>
	
		<rect x="99.5" y="-0.5" transform="matrix(-1.836970e-16 1 -1 -1.836970e-16 249.4933 0.4182)" class="st26" width="50.1" height="250.9"/>
</g>
</svg>
