<?xml version="1.0" encoding="utf-8"?>
<!-- Generator: Adobe Illustrator 25.2.3, SVG Export Plug-In . SVG Version: 6.00 Build 0)  -->
<svg version="1.1" id="Layer_1" xmlns="http://www.w3.org/2000/svg" xmlns:xlink="http://www.w3.org/1999/xlink" x="0px" y="0px"
	 viewBox="0 0 250 250" style="enable-background:new 0 0 250 250;" xml:space="preserve">
<style type="text/css">
	.st0{fill:#41B5B1;}
	.st1{fill:#EFBD38;}
	.st2{fill:#E3963A;}
	.st3{fill:#DD5832;}
	.st4{fill:#1D5B76;}
	.st5{fill:#D2C6B1;}
	.st6{fill:#8C2429;}
	.st7{fill:#E3DBCE;}
	.st8{fill:#9CA051;}
	.st9{fill:#343533;}
	.st10{fill:#B16447;}
	.st11{fill:#613C34;}
	.st12{fill:#706353;}
	.st13{fill:#010101;}
	.st14{fill:#33A14D;}
	.st15{fill:#E4DED5;}
	.st16{fill:#C0B5AA;}
	.st17{fill:#296D3C;}
	.st18{fill:#38874B;}
	.st19{fill:#BE2830;}
	.st20{display:none;}
	.st21{display:inline;}
	.st22{fill:none;stroke:#E3963A;stroke-width:3;stroke-miterlimit:10;}
	.st23{display:inline;fill:none;stroke:#E3963A;stroke-width:3;stroke-miterlimit:10;}
	.st24{fill:#D08138;}
	.st25{fill:#DC5832;}
	.st26{fill:#EEBC38;}
</style>
<g>
	<path class="st0" d="M180,177.4l-0.7-0.7l-0.7,0.7l-0.7-0.7l-2.1,2.1l-2.1-2.1l-0.7,0.7l-0.7-0.7l-0.7,0.7l-0.7-0.7l-0.7,0.7
		l0.7,0.7l-0.7,0.7l0.7,0.7l-0.7,0.7l2.1,2.1l-2.1,2.1l0.7,0.7l-0.7,0.7l0.7,0.7l-0.7,0.7l0.7,0.7l0.7-0.7l0.7,0.7l0.7-0.7l0.7,0.7
		l2.1-2.1l2.1,2.1l0.7-0.7l0.7,0.7l0.7-0.7l0.7,0.7l0.7-0.7l-0.7-0.7l0.7-0.7l-0.7-0.7l0.7-0.7l-2.1-2.1l2.1-2.1l-0.7-0.7l0.7-0.7
		l-0.7-0.7l0.7-0.7l-0.7-0.7L180,177.4z"/>
	<polygon class="st0" points="175.9,181.6 176.6,180.9 175.2,180.9 	"/>
	<polygon class="st0" points="175.2,182.3 174.5,181.6 174.5,183 	"/>
	<polygon class="st0" points="175.9,183 175.2,183.7 176.6,183.7 	"/>
	<polygon class="st0" points="176.6,182.3 177.3,183 177.3,181.6 	"/>
</g>
<g>
	<polygon class="st1" points="221,52.2 221,47.3 223,47.3 223,46.3 226.9,46.3 226.9,44.3 227.9,44.3 227.9,43.3 231.8,43.3 
		231.8,44.3 232.8,44.3 232.8,46.3 236.8,46.3 236.8,47.3 238.7,47.3 238.7,52.2 237.7,52.2 237.7,53.2 238.7,53.2 238.7,57.1 
		237.7,57.1 237.7,58.1 236.8,58.1 236.8,59.1 232.8,59.1 232.8,61.1 231.8,61.1 231.8,62.1 227.9,62.1 227.9,61.1 226.9,61.1 
		226.9,59.1 223,59.1 223,58.1 222,58.1 222,57.1 221,57.1 221,53.2 222,53.2 222,52.2 	"/>
	<g>
		<rect x="233.8" y="48.3" class="st2" width="1" height="1"/>
		<rect x="232.8" y="49.3" class="st2" width="1" height="1"/>
		<polygon class="st2" points="232.8,49.3 231.8,49.3 231.8,48.3 231.8,46.3 232.8,46.3 232.8,48.3 		"/>
		<rect x="236.8" y="46.3" class="st2" width="1" height="1"/>
		<rect x="237.7" y="47.3" class="st2" width="1" height="1"/>
		<rect x="238.7" y="48.3" class="st2" width="1" height="3.9"/>
		<polygon class="st2" points="236.8,54.2 234.8,54.2 234.8,53.2 236.8,53.2 237.7,53.2 237.7,54.2 		"/>
		<polygon class="st2" points="233.8,52.2 233.8,51.2 234.8,51.2 234.8,52.2 234.8,53.2 233.8,53.2 		"/>
		<rect x="224.9" y="48.3" class="st2" width="1" height="1"/>
		<rect x="225.9" y="49.3" class="st2" width="1" height="1"/>
		<polygon class="st2" points="227.9,48.3 227.9,49.3 226.9,49.3 226.9,48.3 226.9,46.3 227.9,46.3 		"/>
		<polygon class="st2" points="226.9,46.3 225.9,46.3 223.9,46.3 223,46.3 223,45.3 223.9,45.3 225.9,45.3 225.9,44.3 226.9,44.3 
			226.9,45.3 		"/>
		<rect x="222" y="46.3" class="st2" width="1" height="1"/>
		<rect x="221" y="47.3" class="st2" width="1" height="1"/>
		<rect x="220" y="48.3" class="st2" width="1" height="3.9"/>
		<polygon class="st2" points="224.9,53.2 224.9,54.2 223,54.2 222,54.2 222,53.2 223,53.2 		"/>
		<polygon class="st2" points="224.9,51.2 225.9,51.2 225.9,52.2 225.9,53.2 224.9,53.2 224.9,52.2 		"/>
		<polygon class="st2" points="233.8,46.3 232.8,46.3 232.8,45.3 232.8,44.3 233.8,44.3 233.8,45.3 235.8,45.3 236.8,45.3 
			236.8,46.3 235.8,46.3 		"/>
		<rect x="231.8" y="43.3" class="st2" width="1" height="1"/>
		<rect x="226.9" y="43.3" class="st2" width="1" height="1"/>
		<rect x="227.9" y="42.4" class="st2" width="3.9" height="1"/>
		<rect x="233.8" y="56.2" class="st2" width="1" height="1"/>
		<rect x="232.8" y="55.2" class="st2" width="1" height="1"/>
		<polygon class="st2" points="231.8,57.1 231.8,56.2 232.8,56.2 232.8,57.1 232.8,59.1 231.8,59.1 		"/>
		<rect x="236.8" y="58.1" class="st2" width="1" height="1"/>
		<rect x="237.7" y="57.1" class="st2" width="1" height="1"/>
		<rect x="238.7" y="53.2" class="st2" width="1" height="3.9"/>
		<rect x="237.7" y="52.2" class="st2" width="1" height="1"/>
		<rect x="224.9" y="56.2" class="st2" width="1" height="1"/>
		<rect x="225.9" y="55.2" class="st2" width="1" height="1"/>
		<polygon class="st2" points="226.9,56.2 227.9,56.2 227.9,57.1 227.9,59.1 226.9,59.1 226.9,57.1 		"/>
		<polygon class="st2" points="225.9,59.1 226.9,59.1 226.9,60.1 226.9,61.1 225.9,61.1 225.9,60.1 223.9,60.1 223,60.1 223,59.1 
			223.9,59.1 		"/>
		<rect x="222" y="58.1" class="st2" width="1" height="1"/>
		<rect x="221" y="57.1" class="st2" width="1" height="1"/>
		<rect x="220" y="53.2" class="st2" width="1" height="3.9"/>
		<rect x="221" y="52.2" class="st2" width="1" height="1"/>
		<polygon class="st2" points="232.8,59.1 233.8,59.1 235.8,59.1 236.8,59.1 236.8,60.1 235.8,60.1 233.8,60.1 233.8,61.1 
			232.8,61.1 232.8,60.1 		"/>
		<rect x="231.8" y="61.1" class="st2" width="1" height="1"/>
		<rect x="226.9" y="61.1" class="st2" width="1" height="1"/>
		<rect x="227.9" y="62.1" class="st2" width="3.9" height="1"/>
	</g>
	<polygon class="st3" points="226.9,52.2 227.9,52.2 227.9,51.2 228.9,51.2 228.9,50.2 230.8,50.2 230.8,51.2 231.8,51.2 
		231.8,52.2 232.8,52.2 232.8,53.2 231.8,53.2 231.8,54.2 230.8,54.2 230.8,55.2 228.9,55.2 228.9,54.2 227.9,54.2 227.9,53.2 
		226.9,53.2 	"/>
</g>
<g>
	<polygon class="st1" points="105.8,106.9 105.8,102 107.8,102 107.8,101 111.7,101 111.7,99 112.7,99 112.7,98 116.7,98 116.7,99 
		117.7,99 117.7,101 121.6,101 121.6,102 123.6,102 123.6,106.9 122.6,106.9 122.6,107.9 123.6,107.9 123.6,111.8 122.6,111.8 
		122.6,112.8 121.6,112.8 121.6,113.8 117.7,113.8 117.7,115.8 116.7,115.8 116.7,116.8 112.7,116.8 112.7,115.8 111.7,115.8 
		111.7,113.8 107.8,113.8 107.8,112.8 106.8,112.8 106.8,111.8 105.8,111.8 105.8,107.9 106.8,107.9 106.8,106.9 	"/>
	<g>
		<rect x="118.6" y="103" class="st2" width="1" height="1"/>
		<rect x="117.7" y="103.9" class="st2" width="1" height="1"/>
		<polygon class="st2" points="117.7,103.9 116.7,103.9 116.7,103 116.7,101 117.7,101 117.7,103 		"/>
		<rect x="121.6" y="101" class="st2" width="1" height="1"/>
		<rect x="122.6" y="102" class="st2" width="1" height="1"/>
		<rect x="123.6" y="103" class="st2" width="1" height="3.9"/>
		<polygon class="st2" points="121.6,108.9 119.6,108.9 119.6,107.9 121.6,107.9 122.6,107.9 122.6,108.9 		"/>
		<polygon class="st2" points="118.6,106.9 118.6,105.9 119.6,105.9 119.6,106.9 119.6,107.9 118.6,107.9 		"/>
		<rect x="109.8" y="103" class="st2" width="1" height="1"/>
		<rect x="110.8" y="103.9" class="st2" width="1" height="1"/>
		<polygon class="st2" points="112.7,103 112.7,103.9 111.7,103.9 111.7,103 111.7,101 112.7,101 		"/>
		<polygon class="st2" points="111.7,101 110.8,101 108.8,101 107.8,101 107.8,100 108.8,100 110.8,100 110.8,99 111.7,99 
			111.7,100 		"/>
		<rect x="106.8" y="101" class="st2" width="1" height="1"/>
		<rect x="105.8" y="102" class="st2" width="1" height="1"/>
		<rect x="104.8" y="103" class="st2" width="1" height="3.9"/>
		<polygon class="st2" points="109.8,107.9 109.8,108.9 107.8,108.9 106.8,108.9 106.8,107.9 107.8,107.9 		"/>
		<polygon class="st2" points="109.8,105.9 110.8,105.9 110.8,106.9 110.8,107.9 109.8,107.9 109.8,106.9 		"/>
		<polygon class="st2" points="118.6,101 117.7,101 117.7,100 117.7,99 118.6,99 118.6,100 120.6,100 121.6,100 121.6,101 
			120.6,101 		"/>
		<rect x="116.7" y="98" class="st2" width="1" height="1"/>
		<rect x="111.7" y="98" class="st2" width="1" height="1"/>
		<rect x="112.7" y="97" class="st2" width="3.9" height="1"/>
		<rect x="118.6" y="110.8" class="st2" width="1" height="1"/>
		<rect x="117.7" y="109.9" class="st2" width="1" height="1"/>
		<polygon class="st2" points="116.7,111.8 116.7,110.8 117.7,110.8 117.7,111.8 117.7,113.8 116.7,113.8 		"/>
		<rect x="121.6" y="112.8" class="st2" width="1" height="1"/>
		<rect x="122.6" y="111.8" class="st2" width="1" height="1"/>
		<rect x="123.6" y="107.9" class="st2" width="1" height="3.9"/>
		<rect x="122.6" y="106.9" class="st2" width="1" height="1"/>
		<rect x="109.8" y="110.8" class="st2" width="1" height="1"/>
		<rect x="110.8" y="109.9" class="st2" width="1" height="1"/>
		<polygon class="st2" points="111.7,110.8 112.7,110.8 112.7,111.8 112.7,113.8 111.7,113.8 111.7,111.8 		"/>
		<polygon class="st2" points="110.8,113.8 111.7,113.8 111.7,114.8 111.7,115.8 110.8,115.8 110.8,114.8 108.8,114.8 107.8,114.8 
			107.8,113.8 108.8,113.8 		"/>
		<rect x="106.8" y="112.8" class="st2" width="1" height="1"/>
		<rect x="105.8" y="111.8" class="st2" width="1" height="1"/>
		<rect x="104.8" y="107.9" class="st2" width="1" height="3.9"/>
		<rect x="105.8" y="106.9" class="st2" width="1" height="1"/>
		<polygon class="st2" points="117.7,113.8 118.6,113.8 120.6,113.8 121.6,113.8 121.6,114.8 120.6,114.8 118.6,114.8 118.6,115.8 
			117.7,115.8 117.7,114.8 		"/>
		<rect x="116.7" y="115.8" class="st2" width="1" height="1"/>
		<rect x="111.7" y="115.8" class="st2" width="1" height="1"/>
		<rect x="112.7" y="116.8" class="st2" width="3.9" height="1"/>
	</g>
	<polygon class="st3" points="111.7,106.9 112.7,106.9 112.7,105.9 113.7,105.9 113.7,104.9 115.7,104.9 115.7,105.9 116.7,105.9 
		116.7,106.9 117.7,106.9 117.7,107.9 116.7,107.9 116.7,108.9 115.7,108.9 115.7,109.9 113.7,109.9 113.7,108.9 112.7,108.9 
		112.7,107.9 111.7,107.9 	"/>
</g>
<rect x="175.4" y="180.7" transform="matrix(0.7071 -0.7071 0.7071 0.7071 -77.3443 177.7435)" class="st1" width="1" height="3"/>
<rect x="174.4" y="181.7" transform="matrix(0.7071 -0.7071 0.7071 0.7071 -77.3443 177.7435)" class="st1" width="3" height="1"/>
<path class="st4" d="M178,179.5l-0.7-0.7l-1.4,1.4l-1.4-1.4l-0.7,0.7l-1.4-1.4l-0.7,0.7l1.4,1.4l-0.7,0.7l1.4,1.4l-1.4,1.4l0.7,0.7
	l-1.4,1.4l0.7,0.7l1.4-1.4l0.7,0.7l1.4-1.4l1.4,1.4l0.7-0.7l1.4,1.4l0.7-0.7l-1.4-1.4l0.7-0.7l-1.4-1.4l1.4-1.4l-0.7-0.7l1.4-1.4
	l-0.7-0.7L178,179.5z M177.3,181.6l-0.7,0.7l0.7,0.7l-0.7,0.7l-0.7-0.7l-0.7,0.7l-0.7-0.7l0.7-0.7l-0.7-0.7l0.7-0.7l0.7,0.7l0.7-0.7
	L177.3,181.6z"/>
<g>
	<polygon class="st5" points="185.2,122.2 190.2,122.2 190.2,120.2 204.9,120.2 204.9,119.2 210.9,119.2 210.9,118.2 210.9,117.3 
		211.8,117.3 211.8,118.2 212.8,118.2 212.8,120.2 212.8,121.2 213.8,121.2 213.8,123.2 213.8,124.1 214.8,124.1 214.8,125.1 
		215.8,125.1 215.8,127.1 216.8,127.1 216.8,129.1 217.8,129.1 217.8,131 218.7,131 218.7,133 217.8,133 217.8,134 196.1,134 
		196.1,136 193.1,136 193.1,137 192.1,137 192.1,136 191.1,136 191.1,133 190.2,133 190.2,131 188.2,131 188.2,130.1 185.2,130.1 	
		"/>
	<polygon class="st6" points="186.2,120.2 186.2,119.2 190.2,119.2 190.2,117.3 210.9,117.3 210.9,119.2 208.9,119.2 208.9,120.2 
		206.9,120.2 206.9,121.2 203,121.2 203,122.2 186.2,122.2 186.2,121.2 185.2,121.2 185.2,120.2 	"/>
	<polygon class="st0" points="196.1,82.8 196.1,83.7 197.1,83.7 200,83.7 200,84.7 203,84.7 203,85.7 204,85.7 205.9,85.7 
		205.9,86.7 207.9,86.7 207.9,87.7 208.9,87.7 208.9,88.7 210.9,88.7 210.9,89.7 211.8,89.7 212.8,89.7 212.8,90.6 211.8,90.6 
		211.8,94.6 195.1,94.6 195.1,89.7 195.1,88.7 194.1,88.7 194.1,85.7 193.1,85.7 193.1,84.7 193.1,83.7 193.1,82.8 	"/>
	<polygon class="st7" points="191.1,87.7 191.1,86.7 195.1,86.7 195.1,87.7 196.1,87.7 196.1,90.6 195.1,90.6 195.1,91.6 
		191.1,91.6 191.1,90.6 190.2,90.6 190.2,87.7 	"/>
	<polygon class="st7" points="211.8,94.6 211.8,92.6 212.8,92.6 214.8,92.6 214.8,106.4 212.8,106.4 212.8,105.4 211.8,105.4 
		211.8,103.5 212.8,103.5 212.8,94.6 	"/>
	<polygon class="st8" points="189.2,117.3 189.2,116.3 191.1,116.3 191.1,115.3 192.1,115.3 192.1,114.3 196.1,114.3 196.1,115.3 
		200,115.3 200,114.3 208.9,114.3 208.9,115.3 211.8,115.3 211.8,116.3 210.9,116.3 210.9,117.3 209.9,117.3 209.9,118.2 
		207.9,118.2 207.9,119.2 205.9,119.2 205.9,120.2 202,120.2 202,121.2 188.2,121.2 188.2,120.2 187.2,120.2 187.2,118.2 
		187.2,117.3 	"/>
	<polygon class="st9" points="208.9,100.5 208.9,103.5 209.9,103.5 209.9,107.4 210.9,107.4 210.9,108.4 210.9,109.4 211.8,109.4 
		211.8,110.4 212.8,110.4 212.8,111.3 213.8,111.3 213.8,112.3 213.8,113.3 214.8,113.3 214.8,114.3 215.8,114.3 215.8,115.3 
		216.8,115.3 216.8,116.3 217.8,116.3 217.8,117.3 218.7,117.3 218.7,118.2 212.8,118.2 212.8,117.3 208.9,117.3 208.9,116.3 
		206.9,116.3 206.9,115.3 204,115.3 204,114.3 203,114.3 201,114.3 201,105.4 201,102.5 201,100.5 	"/>
	<polygon class="st6" points="214.8,96.6 214.8,95.6 213.8,95.6 213.8,92.6 214.8,92.6 214.8,91.6 215.8,91.6 215.8,90.6 
		217.8,90.6 217.8,89.7 218.7,89.7 218.7,90.6 219.7,90.6 219.7,91.6 219.7,92.6 220.7,92.6 220.7,94.6 221.7,94.6 221.7,96.6 
		221.7,98.5 221.7,101.5 221.7,103.5 221.7,105.4 220.7,105.4 220.7,107.4 219.7,107.4 219.7,108.4 219.7,109.4 218.7,109.4 
		218.7,110.4 217.8,110.4 217.8,109.4 215.8,109.4 215.8,108.4 214.8,108.4 214.8,107.4 213.8,107.4 213.8,105.4 213.8,104.4 
		213.8,100.5 214.8,100.5 214.8,98.5 	"/>
	<polygon class="st10" points="188.2,105.4 188.2,104.4 189.2,104.4 189.2,102.5 190.2,102.5 190.2,101.5 190.2,100.5 190.2,100.5 
		190.2,99.5 190.2,99.5 190.2,98.5 191.1,98.5 198,98.5 199,98.5 200,98.5 200,103.5 200,104.4 200,106.4 199,106.4 199,108.4 
		199,111.3 199,112.3 201,112.3 201,113.3 201,114.3 202,114.3 202,115.3 201,115.3 201,116.3 196.1,116.3 196.1,115.3 193.1,115.3 
		193.1,114.3 193.1,113.3 193.1,112.3 190.2,112.3 190.2,111.3 189.2,111.3 189.2,109.4 189.2,109.4 189.2,107.4 189.2,107.4 
		189.2,105.4 	"/>
	<polygon class="st0" points="199,107.4 199,106.4 203,106.4 203,107.4 204,107.4 204,111.3 203,111.3 203,112.3 199,112.3 
		199,111.3 198,111.3 198,107.4 	"/>
	<polygon class="st7" points="220.7,94.6 220.7,92.6 219.7,92.6 219.7,90.6 218.7,90.6 218.7,88.7 219.7,88.7 219.7,87.7 
		220.7,87.7 220.7,86.7 221.7,86.7 221.7,85.7 222.7,85.7 222.7,87.7 223.7,87.7 223.7,89.7 224.7,89.7 224.7,91.6 225.6,91.6 
		225.6,94.6 226.6,94.6 226.6,105.4 225.6,105.4 225.6,108.4 224.7,108.4 224.7,110.4 223.7,110.4 223.7,112.3 222.7,112.3 
		222.7,114.3 221.7,114.3 221.7,113.3 220.7,113.3 220.7,112.3 219.7,112.3 219.7,111.3 218.7,111.3 218.7,109.4 219.7,109.4 
		219.7,107.4 220.7,107.4 220.7,105.4 221.7,105.4 221.7,94.6 	"/>
	<g>
		<rect x="188.2" y="93.6" class="st6" width="2" height="2"/>
		<polygon class="st6" points="200,95.6 200,96.6 204,96.6 204,97.5 205.9,97.5 206.9,97.5 206.9,98.5 207.9,98.5 207.9,99.5 
			207.9,100.5 206.9,100.5 205.9,100.5 205.9,99.5 201,99.5 201,98.5 200,98.5 200,97.5 192.1,97.5 192.1,98.5 188.2,98.5 
			188.2,97.5 189.2,97.5 189.2,96.6 190.2,96.6 190.2,95.6 		"/>
	</g>
	<polygon class="st6" points="211.8,92.6 211.8,94.6 212.8,94.6 212.8,103.5 211.8,103.5 211.8,104.4 210.9,104.4 210.9,92.6 	"/>
	<g>
		<polygon class="st7" points="200,98.5 201,98.5 201,99.5 205.9,99.5 205.9,100.5 201,100.5 201,106.4 200,106.4 200,100.5 
			200,99.5 192.1,99.5 192.1,97.5 200,97.5 		"/>
		<polygon class="st7" points="203,93.6 203,94.6 206.9,94.6 206.9,95.6 207.9,95.6 208.9,95.6 208.9,93.6 210.9,93.6 210.9,103.5 
			208.9,103.5 208.9,100.5 207.9,100.5 207.9,98.5 206.9,98.5 206.9,97.5 204,97.5 204,96.6 200,96.6 200,95.6 191.1,95.6 
			191.1,94.6 191.1,93.6 		"/>
	</g>
	<polygon class="st6" points="191.1,91.6 204,91.6 204,92.6 206.9,92.6 206.9,93.6 208.9,93.6 208.9,95.6 206.9,95.6 206.9,94.6 
		203,94.6 203,93.6 191.1,93.6 	"/>
	<g>
		<rect x="192.1" y="88.7" class="st6" width="2" height="2"/>
		<polygon class="st6" points="188.2,85.7 190.2,85.7 190.2,84.7 191.1,84.7 191.1,85.7 192.1,85.7 192.1,84.7 195.1,84.7 
			195.1,86.7 192.1,86.7 191.1,86.7 191.1,87.7 190.2,87.7 190.2,88.7 189.2,88.7 189.2,87.7 188.2,87.7 187.2,87.7 187.2,85.7 		
			"/>
	</g>
	<rect x="188.1" y="90.6" class="st7" width="2" height="2"/>
	<rect x="206.9" y="91.6" class="st7" width="2" height="2"/>
	<rect x="198" y="88.6" class="st7" width="2" height="2"/>
	<polygon class="st6" points="193.1,78.8 193.1,79.8 194.1,79.8 198,79.8 198,80.8 202,80.8 202,81.8 204.9,81.8 204.9,82.8 
		205.9,82.8 206.9,82.8 206.9,83.7 208.9,83.7 208.9,84.7 210.9,84.7 210.9,85.7 212.8,85.7 212.8,86.7 213.8,86.7 213.8,87.7 
		214.8,87.7 214.8,88.7 212.8,88.7 212.8,89.7 210.9,89.7 210.9,88.7 208.9,88.7 208.9,87.7 207.9,87.7 207.9,86.7 205.9,86.7 
		205.9,85.7 203,85.7 203,84.7 200,84.7 200,83.7 196.1,83.7 196.1,82.8 193.1,82.8 193.1,81.8 192.1,81.8 192.1,78.8 	"/>
	<rect x="194.1" y="71.9" class="st2" width="4.9" height="1"/>
	<polygon class="st2" points="194.1,73.9 194.1,71.9 195.1,71.9 195.1,72.9 203,72.9 203,73.9 206.9,73.9 206.9,74.9 209.9,74.9 
		209.9,75.9 210.9,75.9 210.9,76.8 212.8,76.8 212.8,77.8 214.8,77.8 214.8,78.8 215.8,78.8 215.8,79.8 216.8,79.8 216.8,80.8 
		217.8,80.8 217.8,81.8 218.7,81.8 218.7,82.8 219.7,82.8 219.7,83.7 218.7,83.7 218.7,84.7 217.8,84.7 217.8,85.7 216.8,85.7 
		216.8,86.7 215.8,86.7 215.8,87.7 214.8,87.7 213.8,87.7 213.8,86.7 212.8,86.7 212.8,85.7 210.9,85.7 210.9,84.7 208.9,84.7 
		208.9,83.7 206.9,83.7 206.9,82.8 204.9,82.8 204.9,81.8 202,81.8 202,80.8 198,80.8 198,79.8 195.1,79.8 193.1,79.8 193.1,78.8 
		193.1,77.8 193.1,73.9 	"/>
	<rect x="189.1" y="108.3" class="st11" width="3" height="1"/>
	<rect x="190.1" y="108.3" class="st11" width="1" height="1"/>
	<rect x="192.1" y="101.4" class="st9" width="1" height="1"/>
	<rect x="193.1" y="100.4" class="st9" width="1" height="1"/>
	<rect x="191.1" y="100.4" class="st9" width="1" height="1"/>
	<rect x="194.1" y="101.4" class="st9" width="1" height="1"/>
	<rect x="192.1" y="100.4" class="st9" width="1" height="1"/>
	<rect x="189.1" y="105.4" class="st11" width="1" height="1"/>
	<rect x="190.1" y="104.4" class="st0" width="2" height="2"/>
	<rect x="194.1" y="111.3" class="st11" width="1" height="1"/>
	<rect x="195" y="110.3" class="st11" width="1" height="1"/>
	<rect x="193.1" y="112.3" class="st11" width="1" height="1"/>
	<rect x="200.9" y="58.1" class="st8" width="2" height="1"/>
	<polygon class="st8" points="185.2,74.9 185.2,72.9 186.2,72.9 186.2,70.9 187.2,70.9 187.2,68 188.2,68 188.2,66 189.2,66 
		189.2,64 190.2,64 190.2,62.1 191.1,62.1 191.1,60.1 192.1,60.1 192.1,57.1 193.1,57.1 193.1,56.1 193.1,55.2 194.1,55.2 
		194.1,56.1 194.1,58.1 194.1,62.1 193.1,62.1 193.1,64 192.1,64 192.1,66 191.1,66 191.1,69 192.1,69 192.1,67 193.1,67 193.1,66 
		194.1,66 194.1,65 194.1,64 195.1,64 195.1,63 196.1,63 196.1,62.1 197.1,62.1 197.1,61.1 197.1,60.1 199,60.1 199,59.1 202,59.1 
		202,60.1 201,60.1 201,61.1 200,61.1 200,62.1 200,63 199,63 199,64 198,64 198,65 198,66 196.1,66 196.1,68 195.1,68 195.1,69.9 
		194.1,69.9 194.1,71.9 193.1,71.9 193.1,73.9 192.1,73.9 192.1,75.9 191.1,75.9 191.1,81.8 190.2,81.8 190.2,84.7 189.2,84.7 
		189.2,82.8 188.2,82.8 187.2,82.8 186.2,82.8 185.2,82.8 184.2,82.8 184.2,74.9 	"/>
	<rect x="190" y="81.7" class="st2" width="3" height="3"/>
	<rect x="191.1" y="75.7" class="st2" width="1" height="9.9"/>
	<rect x="187.1" y="84.7" class="st2" width="3" height="1"/>
	<rect x="185.3" y="83.7" class="st2" width="3.9" height="1"/>
	<rect x="182.2" y="82.7" class="st2" width="6.9" height="1"/>
	<rect x="181.3" y="81.7" class="st2" width="5.9" height="1"/>
	<rect x="180.3" y="80.7" class="st2" width="5.9" height="1"/>
	<polygon class="st10" points="168.5,116.3 168.5,117.3 170.4,117.3 170.4,118.2 172.4,118.2 174.4,118.2 174.4,119.2 174.4,121.2 
		185.2,121.2 185.2,126.1 171.4,126.1 169.5,126.1 169.5,125.1 167.5,125.1 167.5,124.1 167.5,119.2 167.5,118.2 167.5,117.3 
		167.5,116.3 	"/>
	<polygon class="st10" points="170.4,138.9 170.4,134 171.4,134 179.3,134 179.3,133 182.3,133 182.3,132 185.2,132 185.2,131 
		185.2,130.1 188.2,130.1 188.2,131 190.2,131 190.2,132 190.2,133 191.1,133 191.1,135 191.1,136 189.2,136 189.2,137 186.2,137 
		186.2,137.9 173.4,137.9 173.4,139.9 172.4,139.9 172.4,140.9 171.4,140.9 171.4,141.9 170.4,141.9 170.4,142.9 167.5,142.9 
		167.5,141.9 165.5,141.9 165.5,140.9 164.5,140.9 164.5,139.9 164.5,138.9 	"/>
	<polygon class="st10" points="209.9,156.7 209.9,155.7 210.9,155.7 211.8,155.7 211.8,156.7 212.8,156.7 212.8,157.7 213.8,157.7 
		213.8,156.7 212.8,156.7 212.8,153.7 210.9,153.7 210.9,152.7 210.9,151.7 209.9,151.7 209.9,150.8 209.9,149.8 210.9,149.8 
		210.9,147.8 215.8,147.8 215.8,148.8 216.8,148.8 216.8,149.8 216.8,150.8 215.8,150.8 215.8,151.7 215.8,152.7 216.8,152.7 
		216.8,153.7 218.7,153.7 218.7,158.6 218.7,159.6 217.8,159.6 217.8,160.6 216.8,160.6 216.8,159.6 214.8,159.6 214.8,158.6 
		213.8,158.6 213.8,161.6 213.8,162.6 213.8,163.6 214.8,163.6 214.8,164.6 215.8,164.6 215.8,166.5 214.8,166.5 214.8,167.5 
		213.8,167.5 213.8,169.5 212.8,169.5 212.8,170.5 211.8,170.5 211.8,166.5 211.8,164.6 210.9,164.6 210.9,163.6 209.9,163.6 
		209.9,161.6 206.9,161.6 206.9,160.6 206.9,157.7 206.9,156.7 	"/>
	<rect x="175.3" y="126.1" class="st6" width="2" height="1"/>
	<polygon class="st6" points="175.4,122.2 175.4,121.2 175.4,120.2 176.4,120.2 176.4,121.2 178.3,121.2 178.3,120.2 179.3,120.2 
		179.3,123.2 178.3,123.2 178.3,126.1 178.3,127.1 177.3,127.1 177.3,126.1 175.4,126.1 175.4,127.1 174.4,127.1 174.4,122.2 	"/>
	<polygon class="st0" points="176.4,122.2 176.4,120.2 178.3,120.2 178.3,122.2 177.3,122.2 177.3,125.1 177.3,126.1 177.3,127.1 
		175.4,127.1 175.4,126.1 175.4,125.1 175.4,122.2 	"/>
	<polygon class="st6" points="174.4,135 174.4,134 174.4,133 175.4,133 175.4,134 177.3,134 177.3,133 178.3,133 178.3,136 
		177.3,136 177.3,138.9 177.3,139.9 176.4,139.9 176.4,138.9 174.4,138.9 174.4,139.9 173.4,139.9 173.4,135 	"/>
	<polygon class="st0" points="175.4,135 175.4,133 177.3,133 177.3,135 176.4,135 176.4,137.9 176.4,138.9 176.4,139.9 174.4,139.9 
		174.4,138.9 174.4,137.9 174.4,135 	"/>
	<polygon class="st6" points="168.5,125.1 169.5,125.1 169.5,126.1 171.4,126.1 171.4,131 168.5,131 168.5,130.1 167.5,130.1 
		167.5,125.1 	"/>
	<polygon class="st6" points="174.4,106.4 174.4,107.4 174.4,108.4 173.4,108.4 173.4,111.3 172.4,111.3 172.4,118.2 170.4,118.2 
		170.4,117.3 168.5,117.3 168.5,116.3 167.5,116.3 167.5,111.3 167.5,110.4 167.5,109.4 166.5,109.4 166.5,108.4 166.5,107.4 
		166.5,106.4 	"/>
	<polygon class="st8" points="164.5,104.4 164.5,102.5 166.5,102.5 166.5,101.5 167.5,101.5 167.5,100.5 172.4,100.5 172.4,101.5 
		173.4,101.5 173.4,102.5 175.4,102.5 175.4,104.4 176.4,104.4 176.4,105.4 174.4,105.4 174.4,106.4 165.5,106.4 165.5,105.4 
		163.5,105.4 163.5,104.4 	"/>
	<polygon class="st2" points="160.6,101.5 160.6,100.5 163.5,100.5 163.5,98.5 164.5,98.5 164.5,97.5 167.5,97.5 167.5,96.6 
		168.5,96.6 168.5,95.6 171.4,95.6 171.4,96.6 172.4,96.6 172.4,97.5 175.4,97.5 175.4,98.5 176.4,98.5 176.4,100.5 179.3,100.5 
		179.3,101.5 180.3,101.5 180.3,105.4 176.4,105.4 176.4,104.4 175.4,104.4 175.4,102.5 173.4,102.5 173.4,101.5 172.4,101.5 
		172.4,100.5 171.4,100.5 168.5,100.5 167.5,100.5 167.5,101.5 166.5,101.5 166.5,102.5 164.5,102.5 164.5,104.4 163.5,104.4 
		163.5,105.4 159.6,105.4 159.6,101.5 	"/>
	<rect x="183.2" y="144.8" class="st6" width="1" height="9.9"/>
	<rect x="182.2" y="146.8" class="st6" width="1" height="6.9"/>
	<polygon class="st6" points="182.3,149.8 184.2,149.8 184.2,143.9 184.2,142.9 185.2,142.9 185.2,140.9 188.2,140.9 188.2,139.9 
		189.2,139.9 189.2,138.9 190.2,138.9 190.2,137.9 192.1,137.9 192.1,137 193.1,137 193.1,136 196.1,136 196.1,134 218.7,134 
		218.7,137.9 219.7,137.9 219.7,143.9 218.7,143.9 218.7,144.8 217.8,144.8 217.8,145.8 216.8,145.8 216.8,146.8 215.8,146.8 
		215.8,147.8 210.9,147.8 210.9,149.8 209.9,149.8 209.9,151.7 209.9,152.7 209.9,153.7 208.9,153.7 208.9,155.7 206.9,155.7 
		206.9,156.7 206.9,162.6 205.9,162.6 205.9,163.6 204.9,163.6 203,163.6 203,162.6 202,162.6 201,162.6 201,161.6 200,161.6 
		200,160.6 198,160.6 198,159.6 196.1,159.6 196.1,158.6 194.1,158.6 194.1,157.7 192.1,157.7 192.1,156.7 189.2,156.7 188.2,156.7 
		188.2,155.7 185.2,155.7 184.2,155.7 184.2,151.7 182.3,151.7 	"/>
	<polygon class="st7" points="207.9,120.2 208.9,120.2 208.9,119.2 212.8,119.2 212.8,120.2 213.8,120.2 213.8,123.2 212.8,123.2 
		212.8,124.1 208.9,124.1 208.9,123.2 207.9,123.2 	"/>
	<polygon class="st7" points="201,123.2 202,123.2 202,122.2 205.9,122.2 205.9,123.2 206.9,123.2 206.9,126.1 205.9,126.1 
		205.9,127.1 202,127.1 202,126.1 201,126.1 	"/>
	<polygon class="st7" points="192.1,123.2 193.1,123.2 193.1,122.2 197.1,122.2 197.1,123.2 198,123.2 198,126.1 197.1,126.1 
		197.1,127.1 193.1,127.1 193.1,126.1 192.1,126.1 	"/>
	<polygon class="st7" points="181.3,122.2 182.3,122.2 182.3,121.2 186.2,121.2 186.2,122.2 187.2,122.2 187.2,125.1 186.2,125.1 
		186.2,126.1 182.3,126.1 182.3,125.1 181.3,125.1 	"/>
	<polygon class="st8" points="165.5,137.9 165.5,137 168.5,137 168.5,135 169.5,135 169.5,134 170.4,134 170.4,135 171.4,135 
		171.4,137.9 170.4,137.9 170.4,138.9 169.5,138.9 169.5,139.9 166.5,139.9 166.5,138.9 164.5,138.9 164.5,137.9 	"/>
	<polygon class="st2" points="161.6,129.1 161.6,128.1 162.6,128.1 166.5,128.1 166.5,129.1 167.5,129.1 167.5,130.1 168.5,130.1 
		168.5,131 170.4,131 170.4,134 169.5,134 169.5,135 168.5,135 168.5,136 168.5,137 165.5,137 165.5,137.9 163.5,137.9 163.5,137 
		163.5,136 162.6,136 162.6,135 161.6,135 161.6,134 160.6,134 160.6,129.1 	"/>
</g>
<g>
	<polygon class="st1" points="218,191.5 218,186.5 220,186.5 220,185.5 223.9,185.5 223.9,183.6 224.9,183.6 224.9,182.6 
		228.9,182.6 228.9,183.6 229.8,183.6 229.8,185.5 233.8,185.5 233.8,186.5 235.8,186.5 235.8,191.5 234.8,191.5 234.8,192.4 
		235.8,192.4 235.8,196.4 234.8,196.4 234.8,197.4 233.8,197.4 233.8,198.4 229.8,198.4 229.8,200.3 228.9,200.3 228.9,201.3 
		224.9,201.3 224.9,200.3 223.9,200.3 223.9,198.4 220,198.4 220,197.4 219,197.4 219,196.4 218,196.4 218,192.4 219,192.4 
		219,191.5 	"/>
	<g>
		<rect x="230.8" y="187.5" class="st2" width="1" height="1"/>
		<rect x="229.8" y="188.5" class="st2" width="1" height="1"/>
		<polygon class="st2" points="229.8,188.5 228.9,188.5 228.9,187.5 228.9,185.5 229.8,185.5 229.8,187.5 		"/>
		<rect x="233.8" y="185.5" class="st2" width="1" height="1"/>
		<rect x="234.8" y="186.5" class="st2" width="1" height="1"/>
		<rect x="235.8" y="187.5" class="st2" width="1" height="3.9"/>
		<polygon class="st2" points="233.8,193.4 231.8,193.4 231.8,192.4 233.8,192.4 234.8,192.4 234.8,193.4 		"/>
		<polygon class="st2" points="230.8,191.5 230.8,190.5 231.8,190.5 231.8,191.5 231.8,192.4 230.8,192.4 		"/>
		<rect x="222" y="187.5" class="st2" width="1" height="1"/>
		<rect x="222.9" y="188.5" class="st2" width="1" height="1"/>
		<polygon class="st2" points="224.9,187.5 224.9,188.5 223.9,188.5 223.9,187.5 223.9,185.5 224.9,185.5 		"/>
		<polygon class="st2" points="223.9,185.5 222.9,185.5 221,185.5 220,185.5 220,184.6 221,184.6 222.9,184.6 222.9,183.6 
			223.9,183.6 223.9,184.6 		"/>
		<rect x="219" y="185.5" class="st2" width="1" height="1"/>
		<rect x="218" y="186.5" class="st2" width="1" height="1"/>
		<rect x="217" y="187.5" class="st2" width="1" height="3.9"/>
		<polygon class="st2" points="222,192.4 222,193.4 220,193.4 219,193.4 219,192.4 220,192.4 		"/>
		<polygon class="st2" points="222,190.5 222.9,190.5 222.9,191.5 222.9,192.4 222,192.4 222,191.5 		"/>
		<polygon class="st2" points="230.8,185.5 229.8,185.5 229.8,184.6 229.8,183.6 230.8,183.6 230.8,184.6 232.8,184.6 233.8,184.6 
			233.8,185.5 232.8,185.5 		"/>
		<rect x="228.9" y="182.6" class="st2" width="1" height="1"/>
		<rect x="223.9" y="182.6" class="st2" width="1" height="1"/>
		<rect x="224.9" y="181.6" class="st2" width="3.9" height="1"/>
		<rect x="230.8" y="195.4" class="st2" width="1" height="1"/>
		<rect x="229.8" y="194.4" class="st2" width="1" height="1"/>
		<polygon class="st2" points="228.9,196.4 228.9,195.4 229.8,195.4 229.8,196.4 229.8,198.4 228.9,198.4 		"/>
		<rect x="233.8" y="197.4" class="st2" width="1" height="1"/>
		<rect x="234.8" y="196.4" class="st2" width="1" height="1"/>
		<rect x="235.8" y="192.4" class="st2" width="1" height="3.9"/>
		<rect x="234.8" y="191.5" class="st2" width="1" height="1"/>
		<rect x="222" y="195.4" class="st2" width="1" height="1"/>
		<rect x="222.9" y="194.4" class="st2" width="1" height="1"/>
		<polygon class="st2" points="223.9,195.4 224.9,195.4 224.9,196.4 224.9,198.4 223.9,198.4 223.9,196.4 		"/>
		<polygon class="st2" points="222.9,198.4 223.9,198.4 223.9,199.3 223.9,200.3 222.9,200.3 222.9,199.3 221,199.3 220,199.3 
			220,198.4 221,198.4 		"/>
		<rect x="219" y="197.4" class="st2" width="1" height="1"/>
		<rect x="218" y="196.4" class="st2" width="1" height="1"/>
		<rect x="217" y="192.4" class="st2" width="1" height="3.9"/>
		<rect x="218" y="191.5" class="st2" width="1" height="1"/>
		<polygon class="st2" points="229.8,198.4 230.8,198.4 232.8,198.4 233.8,198.4 233.8,199.3 232.8,199.3 230.8,199.3 230.8,200.3 
			229.8,200.3 229.8,199.3 		"/>
		<rect x="228.9" y="200.3" class="st2" width="1" height="1"/>
		<rect x="223.9" y="200.3" class="st2" width="1" height="1"/>
		<rect x="224.9" y="201.3" class="st2" width="3.9" height="1"/>
	</g>
	<polygon class="st3" points="223.9,191.5 224.9,191.5 224.9,190.5 225.9,190.5 225.9,189.5 227.9,189.5 227.9,190.5 228.9,190.5 
		228.9,191.5 229.8,191.5 229.8,192.4 228.9,192.4 228.9,193.4 227.9,193.4 227.9,194.4 225.9,194.4 225.9,193.4 224.9,193.4 
		224.9,192.4 223.9,192.4 	"/>
</g>
<g>
	<polygon class="st12" points="64.1,150 63.5,150 63.5,149.3 62.9,149.3 62.9,148.7 52.8,148.7 52.8,149.3 52.2,149.3 52.2,150 
		51.5,150 51.5,153.1 52.2,153.1 52.2,153.7 52.8,153.7 52.8,154.4 62.9,154.4 62.9,153.7 63.5,153.7 63.5,153.1 64.1,153.1 	"/>
	<rect x="61" y="150" class="st13" width="0.6" height="1.3"/>
	<rect x="62.9" y="150" class="st13" width="0.6" height="1.3"/>
	<rect x="61.6" y="151.9" class="st13" width="1.3" height="0.6"/>
	<rect x="54.1" y="154.4" class="st13" width="0.6" height="2.5"/>
	<rect x="61" y="154.4" class="st13" width="0.6" height="2.5"/>
	<rect x="59.7" y="154.4" class="st13" width="0.6" height="2.5"/>
	<rect x="55.3" y="154.4" class="st13" width="0.6" height="2.5"/>
	<rect x="61" y="145.6" class="st13" width="0.6" height="3.2"/>
	<polygon class="st14" points="59.7,143.7 60.2,144.1 59.7,144.5 59.3,144.1 57.9,145.2 59.2,146.6 59.6,146.2 60,146.6 60.5,146.2 
		60.9,146.7 62.1,145.4 61.7,145 62.1,144.6 61.8,144.2 62.3,143.8 61,142.5 	"/>
</g>
<rect x="50.3" y="156.9" class="st15" width="17" height="93.1"/>
<rect x="50.3" y="168.2" class="st16" width="17" height="2.8"/>
<rect x="50.3" y="193.8" class="st16" width="17" height="2.8"/>
<rect x="61.6" y="179.6" class="st16" width="2.8" height="2.8"/>
<rect x="53.1" y="162.6" class="st16" width="2.8" height="2.8"/>
<rect x="53.1" y="179.6" class="st16" width="2.8" height="2.8"/>
<rect x="53.1" y="200" class="st16" width="2.8" height="2.8"/>
<g>
	<polygon class="st1" points="9.4,180.7 9.4,175.8 11.4,175.8 11.4,174.8 15.3,174.8 15.3,172.8 16.3,172.8 16.3,171.9 20.3,171.9 
		20.3,172.8 21.2,172.8 21.2,174.8 25.2,174.8 25.2,175.8 27.2,175.8 27.2,180.7 26.2,180.7 26.2,181.7 27.2,181.7 27.2,185.7 
		26.2,185.7 26.2,186.6 25.2,186.6 25.2,187.6 21.2,187.6 21.2,189.6 20.3,189.6 20.3,190.6 16.3,190.6 16.3,189.6 15.3,189.6 
		15.3,187.6 11.4,187.6 11.4,186.6 10.4,186.6 10.4,185.7 9.4,185.7 9.4,181.7 10.4,181.7 10.4,180.7 	"/>
	<g>
		<rect x="22.2" y="176.8" class="st2" width="1" height="1"/>
		<rect x="21.2" y="177.8" class="st2" width="1" height="1"/>
		<polygon class="st2" points="21.2,177.8 20.3,177.8 20.3,176.8 20.3,174.8 21.2,174.8 21.2,176.8 		"/>
		<rect x="25.2" y="174.8" class="st2" width="1" height="1"/>
		<rect x="26.2" y="175.8" class="st2" width="1" height="1"/>
		<rect x="27.2" y="176.8" class="st2" width="1" height="3.9"/>
		<polygon class="st2" points="25.2,182.7 23.2,182.7 23.2,181.7 25.2,181.7 26.2,181.7 26.2,182.7 		"/>
		<polygon class="st2" points="22.2,180.7 22.2,179.7 23.2,179.7 23.2,180.7 23.2,181.7 22.2,181.7 		"/>
		<rect x="13.4" y="176.8" class="st2" width="1" height="1"/>
		<rect x="14.3" y="177.8" class="st2" width="1" height="1"/>
		<polygon class="st2" points="16.3,176.8 16.3,177.8 15.3,177.8 15.3,176.8 15.3,174.8 16.3,174.8 		"/>
		<polygon class="st2" points="15.3,174.8 14.3,174.8 12.4,174.8 11.4,174.8 11.4,173.8 12.4,173.8 14.3,173.8 14.3,172.8 
			15.3,172.8 15.3,173.8 		"/>
		<rect x="10.4" y="174.8" class="st2" width="1" height="1"/>
		<rect x="9.4" y="175.8" class="st2" width="1" height="1"/>
		<rect x="8.4" y="176.8" class="st2" width="1" height="3.9"/>
		<polygon class="st2" points="13.4,181.7 13.4,182.7 11.4,182.7 10.4,182.7 10.4,181.7 11.4,181.7 		"/>
		<polygon class="st2" points="13.4,179.7 14.3,179.7 14.3,180.7 14.3,181.7 13.4,181.7 13.4,180.7 		"/>
		<polygon class="st2" points="22.2,174.8 21.2,174.8 21.2,173.8 21.2,172.8 22.2,172.8 22.2,173.8 24.2,173.8 25.2,173.8 
			25.2,174.8 24.2,174.8 		"/>
		<rect x="20.3" y="171.9" class="st2" width="1" height="1"/>
		<rect x="15.3" y="171.9" class="st2" width="1" height="1"/>
		<rect x="16.3" y="170.9" class="st2" width="3.9" height="1"/>
		<rect x="22.2" y="184.7" class="st2" width="1" height="1"/>
		<rect x="21.2" y="183.7" class="st2" width="1" height="1"/>
		<polygon class="st2" points="20.3,185.7 20.3,184.7 21.2,184.7 21.2,185.7 21.2,187.6 20.3,187.6 		"/>
		<rect x="25.2" y="186.6" class="st2" width="1" height="1"/>
		<rect x="26.2" y="185.7" class="st2" width="1" height="1"/>
		<rect x="27.2" y="181.7" class="st2" width="1" height="3.9"/>
		<rect x="26.2" y="180.7" class="st2" width="1" height="1"/>
		<rect x="13.4" y="184.7" class="st2" width="1" height="1"/>
		<rect x="14.3" y="183.7" class="st2" width="1" height="1"/>
		<polygon class="st2" points="15.3,184.7 16.3,184.7 16.3,185.7 16.3,187.6 15.3,187.6 15.3,185.7 		"/>
		<polygon class="st2" points="14.3,187.6 15.3,187.6 15.3,188.6 15.3,189.6 14.3,189.6 14.3,188.6 12.4,188.6 11.4,188.6 
			11.4,187.6 12.4,187.6 		"/>
		<rect x="10.4" y="186.6" class="st2" width="1" height="1"/>
		<rect x="9.4" y="185.7" class="st2" width="1" height="1"/>
		<rect x="8.4" y="181.7" class="st2" width="1" height="3.9"/>
		<rect x="9.4" y="180.7" class="st2" width="1" height="1"/>
		<polygon class="st2" points="21.2,187.6 22.2,187.6 24.2,187.6 25.2,187.6 25.2,188.6 24.2,188.6 22.2,188.6 22.2,189.6 
			21.2,189.6 21.2,188.6 		"/>
		<rect x="20.3" y="189.6" class="st2" width="1" height="1"/>
		<rect x="15.3" y="189.6" class="st2" width="1" height="1"/>
		<rect x="16.3" y="190.6" class="st2" width="3.9" height="1"/>
	</g>
	<polygon class="st3" points="15.3,180.7 16.3,180.7 16.3,179.7 17.3,179.7 17.3,178.8 19.3,178.8 19.3,179.7 20.3,179.7 
		20.3,180.7 21.2,180.7 21.2,181.7 20.3,181.7 20.3,182.7 19.3,182.7 19.3,183.7 17.3,183.7 17.3,182.7 16.3,182.7 16.3,181.7 
		15.3,181.7 	"/>
</g>
<g>
	<path class="st0" d="M241.5,116.1l-0.7-0.7l-0.7,0.7l-0.7-0.7l-2.1,2.1l-2.1-2.1l-0.7,0.7l-0.7-0.7l-0.7,0.7l-0.7-0.7l-0.7,0.7
		l0.7,0.7l-0.7,0.7l0.7,0.7l-0.7,0.7l2.1,2.1l-2.1,2.1l0.7,0.7l-0.7,0.7l0.7,0.7l-0.7,0.7l0.7,0.7l0.7-0.7l0.7,0.7l0.7-0.7l0.7,0.7
		l2.1-2.1l2.1,2.1l0.7-0.7l0.7,0.7l0.7-0.7l0.7,0.7l0.7-0.7l-0.7-0.7l0.7-0.7l-0.7-0.7l0.7-0.7l-2.1-2.1l2.1-2.1l-0.7-0.7l0.7-0.7
		l-0.7-0.7l0.7-0.7l-0.7-0.7L241.5,116.1z"/>
	<polygon class="st0" points="237.4,120.3 238.1,119.6 236.7,119.6 	"/>
	<polygon class="st0" points="236.7,121 236,120.3 236,121.7 	"/>
	<polygon class="st0" points="237.4,121.7 236.7,122.4 238.1,122.4 	"/>
	<polygon class="st0" points="238.1,121 238.8,121.7 238.8,120.3 	"/>
</g>
<rect x="236.9" y="119.4" transform="matrix(0.7071 -0.7071 0.7071 0.7071 -15.9832 203.2798)" class="st1" width="1" height="3"/>
<rect x="235.9" y="120.4" transform="matrix(0.7071 -0.7071 0.7071 0.7071 -15.9832 203.2798)" class="st1" width="3" height="1"/>
<path class="st4" d="M239.5,118.2l-0.7-0.7l-1.4,1.4l-1.4-1.4l-0.7,0.7l-1.4-1.4l-0.7,0.7l1.4,1.4l-0.7,0.7l1.4,1.4l-1.4,1.4
	l0.7,0.7l-1.4,1.4l0.7,0.7l1.4-1.4l0.7,0.7l1.4-1.4l1.4,1.4l0.7-0.7l1.4,1.4l0.7-0.7l-1.4-1.4l0.7-0.7l-1.4-1.4l1.4-1.4l-0.7-0.7
	l1.4-1.4l-0.7-0.7L239.5,118.2z M238.8,120.3l-0.7,0.7l0.7,0.7l-0.7,0.7l-0.7-0.7l-0.7,0.7l-0.7-0.7l0.7-0.7l-0.7-0.7l0.7-0.7
	l0.7,0.7l0.7-0.7L238.8,120.3z"/>
<g>
	<path class="st0" d="M156,65l-0.7-0.7l-0.7,0.7l-0.7-0.7l-2.1,2.1l-2.1-2.1L149,65l-0.7-0.7l-0.7,0.7l-0.7-0.7l-0.7,0.7l0.7,0.7
		l-0.7,0.7l0.7,0.7l-0.7,0.7l2.1,2.1l-2.1,2.1l0.7,0.7l-0.7,0.7l0.7,0.7l-0.7,0.7l0.7,0.7l0.7-0.7l0.7,0.7l0.7-0.7l0.7,0.7l2.1-2.1
		l2.1,2.1l0.7-0.7l0.7,0.7l0.7-0.7l0.7,0.7l0.7-0.7l-0.7-0.7l0.7-0.7l-0.7-0.7l0.7-0.7l-2.1-2.1l2.1-2.1l-0.7-0.7l0.7-0.7l-0.7-0.7
		l0.7-0.7l-0.7-0.7L156,65z"/>
	<polygon class="st0" points="151.9,69.2 152.6,68.5 151.2,68.5 	"/>
	<polygon class="st0" points="151.2,69.9 150.5,69.2 150.5,70.6 	"/>
	<polygon class="st0" points="151.9,70.6 151.2,71.3 152.6,71.3 	"/>
	<polygon class="st0" points="152.6,69.9 153.3,70.6 153.3,69.2 	"/>
</g>
<rect x="151.4" y="68.4" transform="matrix(0.7071 -0.7071 0.7071 0.7071 -4.926 127.8981)" class="st1" width="1" height="3"/>
<rect x="150.4" y="69.4" transform="matrix(0.7071 -0.7071 0.7071 0.7071 -4.926 127.8981)" class="st1" width="3" height="1"/>
<path class="st4" d="M154,67.1l-0.7-0.7l-1.4,1.4l-1.4-1.4l-0.7,0.7l-1.4-1.4l-0.7,0.7l1.4,1.4l-0.7,0.7l1.4,1.4l-1.4,1.4l0.7,0.7
	l-1.4,1.4l0.7,0.7l1.4-1.4l0.7,0.7l1.4-1.4l1.4,1.4l0.7-0.7l1.4,1.4l0.7-0.7l-1.4-1.4l0.7-0.7l-1.4-1.4l1.4-1.4l-0.7-0.7l1.4-1.4
	l-0.7-0.7L154,67.1z M153.3,69.2l-0.7,0.7l0.7,0.7l-0.7,0.7l-0.7-0.7l-0.7,0.7l-0.7-0.7l0.7-0.7l-0.7-0.7l0.7-0.7l0.7,0.7l0.7-0.7
	L153.3,69.2z"/>
<g>
	<path class="st0" d="M19.5,121.4l-0.7-0.7l-0.7,0.7l-0.7-0.7l-2.1,2.1l-2.1-2.1l-0.7,0.7l-0.7-0.7l-0.7,0.7l-0.6-0.6l-0.7,0.7
		l0.7,0.7l-0.7,0.7l0.7,0.7l-0.7,0.7l2.1,2.1l-2.1,2.1l0.7,0.7l-0.7,0.7l0.7,0.7l-0.7,0.7l0.7,0.6l0.7-0.7l0.7,0.7l0.7-0.7l0.7,0.7
		l2.1-2.1l2.1,2.1l0.7-0.7l0.7,0.7l0.7-0.7l0.7,0.7l0.7-0.7l-0.7-0.7l0.7-0.7l-0.7-0.7l0.7-0.7l-2.1-2.1l2.1-2.1l-0.7-0.7l0.7-0.7
		l-0.7-0.7l0.7-0.7l-0.7-0.7L19.5,121.4z"/>
	<polygon class="st0" points="15.3,125.6 16,124.9 14.6,124.9 	"/>
	<polygon class="st0" points="14.6,126.3 13.9,125.6 13.9,127 	"/>
	<polygon class="st0" points="15.3,127 14.6,127.7 16,127.7 	"/>
	<polygon class="st0" points="16,126.3 16.7,127 16.7,125.6 	"/>
</g>
<rect x="14.8" y="124.8" transform="matrix(0.7071 -0.7071 0.7071 0.7071 -84.8346 47.7891)" class="st1" width="1" height="3"/>
<rect x="13.8" y="125.7" transform="matrix(0.7071 -0.7071 0.7071 0.7071 -84.7639 47.8184)" class="st1" width="3" height="1"/>
<path class="st4" d="M17.4,123.5l-0.7-0.7l-1.4,1.4l-1.4-1.4l-0.7,0.7l-1.4-1.4l-0.7,0.7l1.4,1.4l-0.7,0.7l1.4,1.4l-1.4,1.4l0.7,0.7
	l-1.4,1.4l0.7,0.7l1.4-1.4l0.7,0.7l1.4-1.4l1.4,1.4l0.7-0.7l1.4,1.4l0.7-0.7l-1.4-1.4l0.7-0.7l-1.4-1.4l1.4-1.4l-0.7-0.7l1.4-1.4
	l-0.7-0.7L17.4,123.5z M16.7,125.6l-0.7,0.7l0.7,0.7l-0.7,0.7l-0.7-0.7l-0.7,0.7l-0.7-0.7l0.7-0.7l-0.7-0.7l0.7-0.7l0.7,0.7l0.7-0.7
	L16.7,125.6z"/>
<g>
	<path class="st0" d="M97.4,148.4l-0.7-0.7l-0.7,0.7l-0.7-0.7l-2.1,2.1l-2.1-2.1l-0.7,0.7l-0.7-0.7l-0.7,0.7l-0.7-0.7l-0.7,0.7
		l0.7,0.7l-0.7,0.7l0.7,0.7l-0.7,0.7l2.1,2.1l-2.1,2.1l0.7,0.7l-0.7,0.7l0.7,0.7l-0.7,0.7l0.7,0.7l0.7-0.7l0.7,0.7l0.7-0.7l0.7,0.7
		l2.1-2.1l2.1,2.1l0.7-0.7l0.7,0.7l0.7-0.7l0.7,0.7l0.7-0.7l-0.7-0.7l0.7-0.7l-0.7-0.7l0.7-0.7l-2.1-2.1l2.1-2.1l-0.7-0.7l0.7-0.7
		l-0.7-0.7l0.7-0.7l-0.7-0.7L97.4,148.4z"/>
	<polygon class="st0" points="93.2,152.6 93.9,151.9 92.5,151.9 	"/>
	<polygon class="st0" points="92.5,153.3 91.8,152.6 91.8,154 	"/>
	<polygon class="st0" points="93.2,154 92.5,154.7 93.9,154.7 	"/>
	<polygon class="st0" points="93.9,153.3 94.6,154 94.6,152.6 	"/>
</g>
<rect x="92.7" y="151.7" transform="matrix(0.7071 -0.7071 0.7071 0.7071 -81.0613 110.7796)" class="st1" width="1" height="3"/>
<rect x="91.7" y="152.7" transform="matrix(0.7071 -0.7071 0.7071 0.7071 -81.0613 110.7796)" class="st1" width="3" height="1"/>
<path class="st4" d="M95.3,150.5l-0.7-0.7l-1.4,1.4l-1.4-1.4l-0.7,0.7l-1.4-1.4l-0.7,0.7l1.4,1.4l-0.7,0.7l1.4,1.4l-1.4,1.4l0.7,0.7
	l-1.4,1.4l0.7,0.7l1.4-1.4l0.7,0.7l1.4-1.4l1.4,1.4l0.7-0.7l1.4,1.4l0.7-0.7l-1.4-1.4l0.7-0.7l-1.4-1.4l1.4-1.4l-0.7-0.7l1.4-1.4
	l-0.7-0.7L95.3,150.5z M94.6,152.6l-0.7,0.7l0.7,0.7l-0.7,0.7l-0.7-0.7l-0.7,0.7l-0.7-0.7l0.7-0.7l-0.7-0.7l0.7-0.7l0.7,0.7l0.7-0.7
	L94.6,152.6z"/>
<g>
	<g>
		<polygon class="st17" points="110.6,193.5 110.6,191.5 111.6,191.5 111.6,189.5 112.7,189.5 112.7,186.4 113.7,186.4 113.7,184.4 
			114.7,184.4 114.7,183.3 116.7,183.3 116.7,182.3 117.8,182.3 117.8,181.3 119.8,181.3 119.8,180.3 120.8,180.3 120.8,179.3 
			121.8,179.3 121.8,178.3 123.9,178.3 124.9,178.3 125.9,178.3 125.9,177.2 130,177.2 130,176.2 132,176.2 134,176.2 134,175.2 
			136.1,175.2 136.1,174.2 136.1,172.1 137.1,172.1 137.1,170.1 137.1,168.1 136.1,168.1 136.1,166 133,166 133,167.1 132,167.1 
			132,168.1 126.9,168.1 126.9,169.1 122.8,169.1 122.8,170.1 117.8,170.1 117.8,169.1 119.8,169.1 119.8,168.1 122.8,168.1 
			122.8,167.1 125.9,167.1 125.9,166 126.9,166 126.9,165 136.1,165 137.1,165 138.1,165 138.1,164 139.1,164 139.1,163 140.1,163 
			140.1,160.9 146.3,160.9 147.3,160.9 147.3,170.1 147.3,171.1 147.3,172.1 147.3,174.2 146.3,174.2 146.3,175.2 145.2,175.2 
			145.2,176.2 144.2,176.2 144.2,177.2 143.2,177.2 143.2,178.3 142.2,178.3 142.2,179.3 141.2,179.3 141.2,180.3 139.1,180.3 
			139.1,181.3 137.1,181.3 137.1,182.3 135.1,182.3 135.1,183.3 133,183.3 133,184.4 132,184.4 132,185.4 131,185.4 131,186.4 
			128.9,186.4 128.9,187.4 127.9,187.4 127.9,188.4 126.9,188.4 125.9,188.4 125.9,189.5 124.9,189.5 124.9,190.5 123.9,190.5 
			123.9,199.6 125.9,199.6 125.9,200.6 126.9,200.6 128.9,200.6 128.9,201.7 132,201.7 132,202.7 135.1,202.7 135.1,203.7 
			138.1,203.7 138.1,204.7 141.2,204.7 141.2,205.7 143.2,205.7 143.2,206.8 144.2,206.8 146.3,206.8 146.3,207.8 149.3,207.8 
			149.3,208.8 150.3,208.8 150.3,209.8 151.3,209.8 151.3,211.8 152.4,211.8 152.4,213.9 153.4,213.9 153.4,214.9 154.4,214.9 
			154.4,215.9 155.4,215.9 155.4,219 156.4,219 156.4,221 157.5,221 157.5,224.1 156.4,224.1 156.4,226.1 155.4,226.1 155.4,229.2 
			154.4,229.2 154.4,231.2 153.4,231.2 153.4,232.2 152.4,232.2 152.4,233.2 165.6,233.2 165.6,234.2 173.7,234.2 176.8,234.2 
			181.9,234.2 181.9,233.2 182.9,233.2 183.9,233.2 183.9,232.2 184.9,232.2 184.9,231.2 186,231.2 186,230.2 188,230.2 188,229.2 
			189,229.2 189,228.1 190,228.1 190,227.1 192.1,227.1 192.1,226.1 193.1,226.1 193.1,225.1 194.1,225.1 194.1,224.1 195.1,224.1 
			195.1,223 197.2,223 197.2,222 198.2,222 198.2,221 200.2,221 200.2,220 201.2,220 204.3,220 219.6,220 219.6,224.1 219.6,225.1 
			205.3,225.1 205.3,226.1 200.2,226.1 200.2,227.1 199.2,227.1 199.2,228.1 197.2,228.1 197.2,230.2 196.1,230.2 196.1,231.2 
			194.1,231.2 194.1,232.2 193.1,232.2 193.1,233.2 192.1,233.2 192.1,234.2 190,234.2 190,235.3 189,235.3 189,237.3 188,237.3 
			188,238.3 186,238.3 186,239.3 184.9,239.3 184.9,240.4 183.9,240.4 183.9,241.4 182.9,241.4 182.9,242.4 181.9,242.4 
			176.8,242.4 176.8,243.4 174.8,243.4 174.8,244.4 165.6,244.4 164.6,244.4 164.6,245.4 160.5,245.4 160.5,246.5 150.3,246.5 
			150.3,245.4 148.3,245.4 148.3,244.4 147.3,244.4 146.3,244.4 146.3,243.4 144.2,243.4 144.2,242.4 141.2,242.4 141.2,241.4 
			140.1,241.4 140.1,240.4 139.1,240.4 138.1,240.4 138.1,237.3 139.1,237.3 139.1,232.2 140.1,232.2 140.1,226.1 141.2,226.1 
			141.2,221 142.2,221 142.2,219 140.1,219 140.1,218 136.1,218 136.1,216.9 133,216.9 133,215.9 131,215.9 131,214.9 127.9,214.9 
			127.9,213.9 125.9,213.9 125.9,212.9 123.9,212.9 123.9,211.8 121.8,211.8 119.8,211.8 119.8,210.8 117.8,210.8 117.8,209.8 
			114.7,209.8 114.7,208.8 113.7,208.8 112.7,208.8 112.7,204.7 111.6,204.7 111.6,202.7 110.6,202.7 110.6,199.6 109.6,199.6 
			109.6,193.5 		"/>
		<rect x="133" y="154.8" class="st17" width="1" height="1"/>
		<rect x="132" y="153.8" class="st17" width="1" height="1"/>
		<rect x="131" y="152.8" class="st17" width="1" height="1"/>
		<polygon class="st17" points="128.9,152.8 126.9,152.8 125.9,152.8 125.9,150.8 124.9,150.8 124.9,147.7 125.9,147.7 125.9,146.7 
			126.9,146.7 126.9,144.7 127.9,144.7 127.9,146.7 128.9,146.7 128.9,148.7 130,148.7 130,150.8 131,150.8 131,151.8 131,152.8 
			130,152.8 		"/>
	</g>
	<polygon class="st18" points="136.1,137.5 136.1,135.5 137.1,135.5 137.1,136.5 138.1,136.5 138.1,138.5 139.1,138.5 139.1,140.6 
		140.1,140.6 140.1,145.7 139.1,145.7 139.1,148.7 140.1,148.7 140.1,147.7 141.2,147.7 141.2,144.7 142.2,144.7 142.2,142.6 
		143.2,142.6 143.2,139.6 144.2,139.6 144.2,138.5 145.2,138.5 145.2,135.5 146.3,135.5 146.3,140.6 147.3,140.6 147.3,143.6 
		146.3,143.6 146.3,145.7 145.2,145.7 145.2,147.7 144.2,147.7 144.2,149.7 143.2,149.7 143.2,151.8 142.2,151.8 142.2,152.8 
		141.2,152.8 141.2,154.8 142.2,154.8 142.2,153.8 143.2,153.8 143.2,152.8 144.2,152.8 144.2,151.8 146.3,151.8 146.3,150.8 
		147.3,150.8 147.3,148.7 148.3,148.7 148.3,147.7 149.3,147.7 149.3,146.7 151.3,146.7 151.3,145.7 152.4,145.7 152.4,144.7 
		153.4,144.7 153.4,142.6 154.4,142.6 154.4,143.6 155.4,143.6 155.4,148.7 154.4,148.7 154.4,149.7 153.4,149.7 153.4,150.8 
		152.4,150.8 151.3,150.8 151.3,151.8 150.3,151.8 150.3,152.8 149.3,152.8 149.3,153.8 148.3,153.8 148.3,154.8 147.3,154.8 
		147.3,155.9 148.3,155.9 148.3,156.9 150.3,156.9 150.3,155.9 154.4,155.9 154.4,154.8 156.4,154.8 156.4,153.8 159.5,153.8 
		159.5,154.8 158.5,154.8 158.5,155.9 157.5,155.9 157.5,156.9 156.4,156.9 156.4,157.9 155.4,157.9 155.4,158.9 153.4,158.9 
		153.4,159.9 142.2,159.9 142.2,160.9 152.4,160.9 152.4,162 154.4,162 155.4,162 160.5,162 160.5,163 162.5,163 162.5,164 
		159.5,164 157.5,164 157.5,165 156.4,165 156.4,166 147.3,166 146.3,166 146.3,167.1 147.3,167.1 147.3,168.1 148.3,168.1 
		148.3,169.1 150.3,169.1 150.3,170.1 152.4,170.1 152.4,171.1 154.4,171.1 154.4,172.1 156.4,172.1 156.4,173.2 149.3,173.2 
		149.3,172.1 148.3,172.1 148.3,171.1 146.3,171.1 146.3,170.1 145.2,170.1 145.2,169.1 144.2,169.1 144.2,168.1 142.2,168.1 
		142.2,167.1 141.2,167.1 141.2,166 141.2,162 140.1,162 140.1,158.9 139.1,158.9 139.1,157.9 138.1,157.9 138.1,156.9 137.1,156.9 
		136.1,156.9 135.1,156.9 135.1,137.5 	"/>
	<polygon class="st2" points="218.5,220 219.6,220 219.6,219 220.6,219 220.6,218 224.7,218 224.7,219 225.7,219 225.7,220 
		226.7,220 226.7,225.1 225.7,225.1 225.7,226.1 224.7,226.1 224.7,227.1 220.6,227.1 220.6,226.1 219.6,226.1 219.6,225.1 
		218.5,225.1 	"/>
	<g>
		<rect x="239.9" y="209.8" class="st18" width="1" height="1"/>
		<rect x="242" y="215.9" class="st18" width="1" height="1"/>
		<rect x="243" y="214.9" class="st18" width="1" height="1"/>
		<polygon class="st18" points="225.7,226.1 225.7,225.1 226.7,225.1 226.7,224.1 226.7,223 226.7,222 226.7,221 226.7,220 
			226.7,219 226.7,218 227.7,218 227.7,216.9 228.7,216.9 229.7,216.9 229.7,215.9 230.8,215.9 230.8,214.9 233.8,214.9 
			233.8,213.9 235.8,213.9 235.8,212.9 236.9,212.9 236.9,211.8 238.9,211.8 238.9,210.8 239.9,210.8 239.9,211.8 239.9,212.9 
			238.9,212.9 238.9,213.9 238.9,214.9 237.9,214.9 237.9,215.9 236.9,215.9 236.9,216.9 242,216.9 242,218 240.9,218 240.9,219 
			239.9,219 235.8,219 235.8,220 232.8,220 232.8,221 244,221 244,222 245,222 245,223 243,223 243,224.1 234.8,224.1 234.8,225.1 
			235.8,225.1 235.8,226.1 236.9,226.1 236.9,227.1 238.9,227.1 238.9,228.1 240.9,228.1 240.9,229.2 235.8,229.2 235.8,228.1 
			233.8,228.1 233.8,227.1 231.8,227.1 231.8,226.1 230.8,226.1 230.8,228.1 232.8,228.1 232.8,229.2 233.8,229.2 233.8,230.2 
			233.8,231.2 234.8,231.2 234.8,232.2 235.8,232.2 235.8,233.2 232.8,233.2 232.8,232.2 230.8,232.2 230.8,231.2 229.7,231.2 
			229.7,230.2 229.7,229.2 228.7,229.2 228.7,232.2 229.7,232.2 229.7,236.3 228.7,236.3 228.7,235.3 227.7,235.3 227.7,234.2 
			226.7,234.2 226.7,233.2 225.7,233.2 225.7,231.2 224.7,231.2 224.7,226.1 		"/>
		<rect x="229.7" y="236.3" class="st18" width="1" height="1"/>
		<rect x="235.8" y="233.2" class="st18" width="1" height="1"/>
	</g>
	<g>
		<rect x="244" y="226.1" class="st3" width="1" height="1"/>
		<polygon class="st3" points="244,225.1 244,226.1 243,226.1 242,226.1 242,225.1 243,225.1 		"/>
		<polygon class="st3" points="240.9,224.1 242,224.1 242,225.1 240.9,225.1 239.9,225.1 237.9,225.1 237.9,224.1 239.9,224.1 		"/>
		<polygon class="st3" points="235.8,223 237.9,223 237.9,224.1 235.8,224.1 233.8,224.1 231.8,224.1 231.8,223 233.8,223 		"/>
		<rect x="230.8" y="222" class="st3" width="1" height="1"/>
		<polygon class="st3" points="242,218 245,218 245,219 242,219 237.9,219 237.9,218 		"/>
		<polygon class="st3" points="235.8,219 237.9,219 237.9,220 235.8,220 232.8,220 232.8,219 		"/>
		<rect x="245" y="216.9" class="st3" width="1" height="1"/>
		<rect x="243" y="210.8" class="st3" width="1" height="1"/>
		<rect x="242" y="211.8" class="st3" width="1" height="1"/>
		<rect x="240.9" y="212.9" class="st3" width="1" height="1"/>
		<polygon class="st3" points="239.9,213.9 240.9,213.9 240.9,214.9 239.9,214.9 238.9,214.9 238.9,213.9 		"/>
		<rect x="236.9" y="214.9" class="st3" width="2" height="1"/>
		<polygon class="st3" points="234.8,215.9 236.9,215.9 236.9,216.9 234.8,216.9 232.8,216.9 232.8,215.9 		"/>
		<polygon class="st3" points="230.8,216.9 232.8,216.9 232.8,218 230.8,218 229.7,218 229.7,216.9 		"/>
		<polygon class="st3" points="227.7,219 227.7,220 228.7,220 230.8,220 232.8,220 232.8,221 230.8,221 230.8,222 228.7,222 
			227.7,222 227.7,223 228.7,223 228.7,224.1 227.7,224.1 227.7,225.1 227.7,226.1 227.7,227.1 227.7,228.1 226.7,228.1 
			226.7,227.1 226.7,226.1 226.7,225.1 226.7,224.1 226.7,223 226.7,222 226.7,221 226.7,220 226.7,219 		"/>
		<polygon class="st3" points="228.7,218 229.7,218 229.7,219 228.7,219 227.7,219 227.7,218 		"/>
		<rect x="239.9" y="233.2" class="st3" width="1" height="1"/>
		<rect x="238.9" y="232.2" class="st3" width="1" height="1"/>
		<rect x="237.9" y="231.2" class="st3" width="1" height="1"/>
		<rect x="236.9" y="230.2" class="st3" width="1" height="1"/>
		<rect x="235.8" y="229.2" class="st3" width="1" height="1"/>
		<rect x="233.8" y="228.1" class="st3" width="2" height="1"/>
		<rect x="232.8" y="227.1" class="st3" width="1" height="1"/>
		<rect x="230.8" y="226.1" class="st3" width="2" height="1"/>
		<rect x="229.7" y="225.1" class="st3" width="1" height="1"/>
		<rect x="228.7" y="224.1" class="st3" width="1" height="1"/>
		<rect x="232.8" y="236.3" class="st3" width="1" height="1"/>
		<rect x="231.8" y="234.2" class="st3" width="1" height="2"/>
		<rect x="230.8" y="232.2" class="st3" width="1" height="2"/>
		<rect x="229.7" y="231.2" class="st3" width="1" height="1"/>
		<rect x="228.7" y="230.2" class="st3" width="1" height="1"/>
		<rect x="227.7" y="228.1" class="st3" width="1" height="2"/>
	</g>
	<polygon class="st2" points="132,158.9 133,158.9 133,157.9 134,157.9 134,156.9 138.1,156.9 138.1,157.9 139.1,157.9 139.1,158.9 
		140.1,158.9 140.1,163 139.1,163 139.1,164 138.1,164 138.1,165 134,165 134,164 133,164 133,163 132,163 	"/>
	<polygon class="st7" points="131,159.9 131,158.9 134,158.9 134,159.9 134,160.9 135.1,160.9 135.1,162 134,162 134,163 133,163 
		133,164 134,164 134,165 135.1,165 135.1,167.1 136.1,167.1 136.1,169.1 136.1,170.1 135.1,170.1 135.1,169.1 135.1,168.1 
		134,168.1 134,167.1 133,167.1 132,167.1 132,163 131,163 131,164 130,164 130,163 130,162 130,159.9 	"/>
	<polygon class="st18" points="121.8,145.7 122.8,145.7 122.8,143.6 123.9,143.6 123.9,142.6 125.9,142.6 125.9,143.6 126.9,143.6 
		126.9,145.7 126.9,146.7 125.9,146.7 125.9,147.7 124.9,147.7 123.9,147.7 123.9,146.7 121.8,146.7 	"/>
	<g>
		<rect x="133" y="155.9" class="st2" width="1" height="2"/>
		<polygon class="st2" points="131,152.8 131,153.8 132,153.8 132,154.8 133,154.8 133,155.9 132,155.9 131,155.9 131,154.8 
			126.9,154.8 126.9,153.8 125.9,153.8 125.9,152.8 		"/>
	</g>
	<polygon class="st7" points="131,154.8 131,155.9 132,155.9 133,155.9 133,157.9 132,157.9 131,157.9 130,157.9 130,156.9 
		127.9,156.9 127.9,155.9 126.9,155.9 126.9,154.8 	"/>
	<polygon class="st2" points="117.8,166 117.8,165 120.8,165 120.8,164 122.8,164 122.8,163 124.9,163 124.9,162 125.9,162 
		126.9,162 128.9,162 128.9,160.9 127.9,160.9 127.9,159.9 126.9,159.9 126.9,158.9 124.9,158.9 124.9,157.9 123.9,157.9 
		123.9,156.9 123.9,154.8 123.9,153.8 123.9,152.8 122.8,152.8 122.8,150.8 121.8,150.8 121.8,149.7 120.8,149.7 119.8,149.7 
		119.8,148.7 118.8,148.7 118.8,147.7 119.8,147.7 120.8,147.7 120.8,148.7 122.8,148.7 123.9,148.7 123.9,150.8 124.9,150.8 
		124.9,153.8 125.9,153.8 125.9,156.9 126.9,156.9 126.9,157.9 128.9,157.9 128.9,158.9 130,158.9 131,158.9 131,159.9 130,159.9 
		130,160.9 130,162 130,163 127.9,163 127.9,164 125.9,164 125.9,165 124.9,165 124.9,166 121.8,166 121.8,167.1 115.7,167.1 
		115.7,166 	"/>
	<g>
		<polygon class="st19" points="128.9,157.9 126.9,157.9 126.9,156.9 125.9,156.9 125.9,155.9 125.9,153.8 126.9,153.8 126.9,155.9 
			127.9,155.9 127.9,156.9 130,156.9 130,157.9 133,157.9 133,158.9 128.9,158.9 		"/>
		<rect x="124.9" y="150.8" class="st19" width="1" height="3.1"/>
		<polygon class="st19" points="123.9,148.7 120.8,148.7 120.8,147.7 119.8,147.7 119.8,146.7 123.9,146.7 123.9,147.7 124.9,147.7 
			124.9,148.7 124.9,150.8 123.9,150.8 		"/>
		<polygon class="st19" points="116.7,167.1 117.8,167.1 121.8,167.1 121.8,166 124.9,166 124.9,165 125.9,165 125.9,164 127.9,164 
			127.9,163 130,163 130,164 131,164 131,163 132,163 132,165 131,165 127.9,165 126.9,165 126.9,166 125.9,166 125.9,167.1 
			122.8,167.1 122.8,168.1 119.8,168.1 119.8,169.1 117.8,169.1 116.7,169.1 116.7,168.1 115.7,168.1 115.7,167.1 		"/>
	</g>
	<polygon class="st7" points="117.8,160.9 117.8,162 118.8,162 118.8,160.9 119.8,160.9 119.8,162 120.8,162 120.8,165 119.8,165 
		118.8,165 117.8,165 117.8,166 116.7,166 116.7,160.9 	"/>
	<polygon class="st7" points="119.8,148.7 119.8,149.7 120.8,149.7 121.8,149.7 121.8,150.8 122.8,150.8 122.8,152.8 121.8,152.8 
		121.8,153.8 120.8,153.8 120.8,152.8 119.8,152.8 119.8,153.8 118.8,153.8 118.8,148.7 	"/>
	<g>
		<rect x="142.2" y="136.5" class="st3" width="1" height="1"/>
		<polygon class="st3" points="141.2,137.5 142.2,137.5 142.2,139.6 142.2,141.6 141.2,141.6 141.2,139.6 		"/>
		<polygon class="st3" points="140.1,141.6 141.2,141.6 141.2,143.6 141.2,146.7 140.1,146.7 140.1,143.6 		"/>
		<rect x="139.1" y="146.7" class="st3" width="1" height="2"/>
		<rect x="137.1" y="152.8" class="st3" width="1" height="4.1"/>
		<rect x="138.1" y="148.7" class="st3" width="1" height="4.1"/>
		<rect x="151.3" y="141.6" class="st3" width="1" height="2"/>
		<rect x="150.3" y="143.6" class="st3" width="1" height="1"/>
		<rect x="149.3" y="144.7" class="st3" width="1" height="1"/>
		<rect x="148.3" y="145.7" class="st3" width="1" height="1"/>
		<rect x="146.3" y="146.7" class="st3" width="2" height="1"/>
		<rect x="145.2" y="147.7" class="st3" width="1" height="1"/>
		<rect x="144.2" y="148.7" class="st3" width="1" height="2"/>
		<rect x="143.2" y="150.8" class="st3" width="1" height="1"/>
		<rect x="142.2" y="151.8" class="st3" width="1" height="1"/>
		<rect x="141.2" y="152.8" class="st3" width="1" height="1"/>
		<rect x="140.1" y="153.8" class="st3" width="1" height="1"/>
		<rect x="139.1" y="154.8" class="st3" width="1" height="2"/>
		<rect x="138.1" y="156.9" class="st3" width="1" height="1"/>
		<polygon class="st3" points="142.2,159.9 148.3,159.9 157.5,159.9 161.5,159.9 161.5,160.9 157.5,160.9 148.3,160.9 142.2,160.9 
			141.2,160.9 140.1,160.9 140.1,159.9 141.2,159.9 		"/>
		<rect x="157.5" y="149.7" class="st3" width="1" height="1"/>
		<rect x="140.1" y="157.9" class="st3" width="1" height="1"/>
		<polygon class="st3" points="143.2,156.9 144.2,156.9 144.2,157.9 143.2,157.9 141.2,157.9 141.2,156.9 		"/>
		<polygon class="st3" points="146.3,155.9 147.3,155.9 147.3,156.9 146.3,156.9 144.2,156.9 144.2,155.9 		"/>
		<rect x="147.3" y="154.8" class="st3" width="3.1" height="1"/>
		<rect x="156.4" y="150.8" class="st3" width="1" height="1"/>
		<rect x="154.4" y="151.8" class="st3" width="2" height="1"/>
		<rect x="152.4" y="152.8" class="st3" width="2" height="1"/>
		<rect x="150.3" y="153.8" class="st3" width="2" height="1"/>
		<rect x="156.4" y="169.1" class="st3" width="1" height="1"/>
		<polygon class="st3" points="156.4,168.1 156.4,169.1 154.4,169.1 152.4,169.1 152.4,168.1 154.4,168.1 		"/>
		<rect x="149.3" y="167.1" class="st3" width="3.1" height="1"/>
		<rect x="147.3" y="166" class="st3" width="2" height="1"/>
		<rect x="145.2" y="165" class="st3" width="2" height="1"/>
		<rect x="143.2" y="164" class="st3" width="2" height="1"/>
		<rect x="141.2" y="163" class="st3" width="2" height="1"/>
		<rect x="140.1" y="162" class="st3" width="1" height="1"/>
	</g>
</g>
<g id="Layer_2_1_" class="st20">
	<g class="st21">
		<rect y="100" class="st22" width="83.1" height="150"/>
		<rect x="83.4" y="100" class="st22" width="83.1" height="150"/>
		<rect x="166.9" y="100" class="st22" width="83.1" height="150"/>
	</g>
	<rect x="-0.9" y="99.4" class="st23" width="250.9" height="50.1"/>
	<rect x="-0.9" y="149.6" class="st23" width="250.9" height="50.1"/>
	<rect x="-0.9" y="199.9" class="st23" width="250.9" height="50.1"/>
</g>
<rect x="50.3" y="219.3" class="st16" width="17" height="2.8"/>
<rect x="61.6" y="205.1" class="st16" width="2.8" height="2.8"/>
<rect x="53.1" y="188.1" class="st16" width="2.8" height="2.8"/>
<rect x="61.6" y="213.6" class="st16" width="2.8" height="2.8"/>
<rect x="53.1" y="225.5" class="st16" width="2.8" height="2.8"/>
<rect x="50.3" y="244.7" class="st16" width="17" height="2.8"/>
<rect x="61.6" y="230.5" class="st16" width="2.8" height="2.8"/>
<rect x="53.1" y="213.5" class="st16" width="2.8" height="2.8"/>
<rect x="61.6" y="239" class="st16" width="2.8" height="2.8"/>
<g>
	<g>
		<rect x="93.8" y="40.2" class="st24" width="1" height="1"/>
		<polygon class="st24" points="90.9,45.1 90.9,44.2 91.8,44.2 91.8,43.2 92.8,43.2 92.8,42.2 93.8,42.2 93.8,41.2 92.8,41.2 
			91.8,41.2 91.8,42.2 88.9,42.2 88.9,43.2 87.9,43.2 87.9,44.2 86.9,44.2 86.9,45.1 		"/>
	</g>
	<g>
		<rect x="92.8" y="30.4" class="st25" width="1" height="1"/>
		<polygon class="st25" points="89.9,40.2 90.9,40.2 90.9,39.3 91.8,39.3 91.8,38.3 91.8,37.3 91.8,36.3 92.8,36.3 92.8,32.4 
			92.8,31.4 91.8,31.4 90.9,31.4 90.9,32.4 87.9,32.4 87.9,33.4 86.9,33.4 85,33.4 85,34.4 84,34.4 84,35.3 83,35.3 83,36.3 
			83,37.3 83,40.2 		"/>
	</g>
	<g>
		<rect x="87.9" y="26.5" class="st24" width="1" height="1"/>
		<polygon class="st24" points="85,31.4 85,30.4 86,30.4 86,29.5 86.9,29.5 86.9,28.5 87.9,28.5 87.9,27.5 86.9,27.5 86,27.5 
			86,28.5 83,28.5 83,29.5 82,29.5 82,30.4 81.1,30.4 81.1,31.4 		"/>
	</g>
	<polygon class="st24" points="69.3,24.6 70.3,24.6 71.3,24.6 71.3,23.6 71.3,22.6 71.3,17.7 70.3,17.7 70.3,19.7 69.3,19.7 
		69.3,21.6 68.3,21.6 68.3,22.6 68.3,23.6 68.3,24.6 	"/>
	<g>
		<rect x="83" y="18.7" class="st25" width="1" height="1"/>
		<polygon class="st25" points="80.1,28.5 81.1,28.5 81.1,27.5 82,27.5 82,26.5 82,25.5 82,24.6 83,24.6 83,20.6 83,19.7 82,19.7 
			81.1,19.7 81.1,20.6 78.1,20.6 78.1,21.6 77.2,21.6 75.2,21.6 75.2,22.6 74.2,22.6 74.2,23.6 73.2,23.6 73.2,24.6 73.2,25.5 
			73.2,28.5 		"/>
	</g>
	<g>
		<rect x="93.8" y="64.7" class="st24" width="1" height="1"/>
		<polygon class="st24" points="90.9,60.8 90.9,61.8 91.8,61.8 91.8,62.8 92.8,62.8 92.8,63.8 93.8,63.8 93.8,64.7 92.8,64.7 
			91.8,64.7 91.8,63.8 88.9,63.8 88.9,62.8 87.9,62.8 87.9,61.8 86.9,61.8 86.9,60.8 		"/>
	</g>
	<g>
		<rect x="92.8" y="74.5" class="st25" width="1" height="1"/>
		<polygon class="st25" points="89.9,65.7 90.9,65.7 90.9,66.7 91.8,66.7 91.8,67.7 91.8,68.7 91.8,69.6 92.8,69.6 92.8,73.6 
			92.8,74.5 91.8,74.5 90.9,74.5 90.9,73.6 87.9,73.6 87.9,72.6 86.9,72.6 85,72.6 85,71.6 84,71.6 84,70.6 83,70.6 83,69.6 
			83,68.7 83,65.7 		"/>
	</g>
	<g>
		<rect x="87.9" y="78.5" class="st24" width="1" height="1"/>
		<polygon class="st24" points="85,74.5 85,75.5 86,75.5 86,76.5 86.9,76.5 86.9,77.5 87.9,77.5 87.9,78.5 86.9,78.5 86,78.5 
			86,77.5 83,77.5 83,76.5 82,76.5 82,75.5 81.1,75.5 81.1,74.5 		"/>
	</g>
	<polygon class="st24" points="69.3,81.4 70.3,81.4 71.3,81.4 71.3,82.4 71.3,83.4 71.3,88.3 70.3,88.3 70.3,86.3 69.3,86.3 
		69.3,84.3 68.3,84.3 68.3,83.4 68.3,82.4 68.3,81.4 	"/>
	<g>
		<rect x="83" y="86.3" class="st25" width="1" height="1"/>
		<polygon class="st25" points="80.1,77.5 81.1,77.5 81.1,78.5 82,78.5 82,79.4 82,80.4 82,81.4 83,81.4 83,85.3 83,86.3 82,86.3 
			81.1,86.3 81.1,85.3 78.1,85.3 78.1,84.3 77.2,84.3 75.2,84.3 75.2,83.4 74.2,83.4 74.2,82.4 73.2,82.4 73.2,81.4 73.2,80.4 
			73.2,77.5 		"/>
	</g>
	<polygon class="st25" points="90.9,59.8 90.9,58.9 91.8,58.9 91.8,57.9 92.8,57.9 94.8,57.9 95.8,57.9 95.8,56.9 98.7,56.9 
		98.7,55.9 100.7,55.9 100.7,54.9 101.6,54.9 103.6,54.9 103.6,54 105.6,54 105.6,53 107.5,53 107.5,52 105.6,52 105.6,51 103.6,51 
		103.6,50 101.6,50 100.7,50 100.7,49.1 98.7,49.1 98.7,48.1 95.8,48.1 95.8,47.1 94.8,47.1 92.8,47.1 91.8,47.1 91.8,46.1 
		90.9,46.1 90.9,45.1 89.9,45.1 89.9,46.1 89.9,58.9 89.9,59.8 	"/>
	<g>
		<rect x="25.2" y="64.7" class="st24" width="1" height="1"/>
		<polygon class="st24" points="29.1,60.8 29.1,61.8 28.2,61.8 28.2,62.8 27.2,62.8 27.2,63.8 26.2,63.8 26.2,64.7 27.2,64.7 
			28.2,64.7 28.2,63.8 31.1,63.8 31.1,62.8 32.1,62.8 32.1,61.8 33.1,61.8 33.1,60.8 		"/>
	</g>
	<g>
		<rect x="26.2" y="74.5" class="st25" width="1" height="1"/>
		<polygon class="st25" points="30.1,65.7 29.1,65.7 29.1,66.7 28.2,66.7 28.2,67.7 28.2,68.7 28.2,69.6 27.2,69.6 27.2,73.6 
			27.2,74.5 28.2,74.5 29.1,74.5 29.1,73.6 32.1,73.6 32.1,72.6 33.1,72.6 35,72.6 35,71.6 36,71.6 36,70.6 37,70.6 37,69.6 
			37,68.7 37,65.7 		"/>
	</g>
	<g>
		<rect x="31.1" y="78.5" class="st24" width="1" height="1"/>
		<polygon class="st24" points="35,74.5 35,75.5 34,75.5 34,76.5 33.1,76.5 33.1,77.5 32.1,77.5 32.1,78.5 33.1,78.5 34,78.5 
			34,77.5 37,77.5 37,76.5 38,76.5 38,75.5 38.9,75.5 38.9,74.5 		"/>
	</g>
	<polygon class="st24" points="50.7,81.4 49.7,81.4 48.7,81.4 48.7,82.4 48.7,83.4 48.7,88.3 49.7,88.3 49.7,86.3 50.7,86.3 
		50.7,84.3 51.7,84.3 51.7,83.4 51.7,82.4 51.7,81.4 	"/>
	<g>
		<rect x="36" y="86.3" class="st25" width="1" height="1"/>
		<polygon class="st25" points="39.9,77.5 38.9,77.5 38.9,78.5 38,78.5 38,79.4 38,80.4 38,81.4 37,81.4 37,85.3 37,86.3 38,86.3 
			38.9,86.3 38.9,85.3 41.9,85.3 41.9,84.3 42.9,84.3 44.8,84.3 44.8,83.4 45.8,83.4 45.8,82.4 46.8,82.4 46.8,81.4 46.8,80.4 
			46.8,77.5 		"/>
	</g>
	<g>
		<rect x="25.2" y="40.2" class="st24" width="1" height="1"/>
		<polygon class="st24" points="29.1,45.1 29.1,44.2 28.2,44.2 28.2,43.2 27.2,43.2 27.2,42.2 26.2,42.2 26.2,41.2 27.2,41.2 
			28.2,41.2 28.2,42.2 31.1,42.2 31.1,43.2 32.1,43.2 32.1,44.2 33.1,44.2 33.1,45.1 		"/>
	</g>
	<g>
		<rect x="26.2" y="30.4" class="st25" width="1" height="1"/>
		<polygon class="st25" points="30.1,40.2 29.1,40.2 29.1,39.3 28.2,39.3 28.2,38.3 28.2,37.3 28.2,36.3 27.2,36.3 27.2,32.4 
			27.2,31.4 28.2,31.4 29.1,31.4 29.1,32.4 32.1,32.4 32.1,33.4 33.1,33.4 35,33.4 35,34.4 36,34.4 36,35.3 37,35.3 37,36.3 
			37,37.3 37,40.2 		"/>
	</g>
	<g>
		<rect x="31.1" y="26.5" class="st24" width="1" height="1"/>
		<polygon class="st24" points="35,31.4 35,30.4 34,30.4 34,29.5 33.1,29.5 33.1,28.5 32.1,28.5 32.1,27.5 33.1,27.5 34,27.5 
			34,28.5 37,28.5 37,29.5 38,29.5 38,30.4 38.9,30.4 38.9,31.4 		"/>
	</g>
	<polygon class="st24" points="50.7,24.6 49.7,24.6 48.7,24.6 48.7,23.6 48.7,22.6 48.7,17.7 49.7,17.7 49.7,19.7 50.7,19.7 
		50.7,21.6 51.7,21.6 51.7,22.6 51.7,23.6 51.7,24.6 	"/>
	<g>
		<rect x="36" y="18.7" class="st25" width="1" height="1"/>
		<polygon class="st25" points="39.9,28.5 38.9,28.5 38.9,27.5 38,27.5 38,26.5 38,25.5 38,24.6 37,24.6 37,20.6 37,19.7 38,19.7 
			38.9,19.7 38.9,20.6 41.9,20.6 41.9,21.6 42.9,21.6 44.8,21.6 44.8,22.6 45.8,22.6 45.8,23.6 46.8,23.6 46.8,24.6 46.8,25.5 
			46.8,28.5 		"/>
	</g>
	<polygon class="st25" points="29.1,46.1 29.1,47.1 28.2,47.1 28.2,48.1 27.2,48.1 25.2,48.1 24.2,48.1 24.2,49.1 21.3,49.1 
		21.3,50 19.3,50 19.3,51 18.4,51 16.4,51 16.4,52 14.4,52 14.4,53 12.5,53 12.5,54 14.4,54 14.4,54.9 16.4,54.9 16.4,55.9 
		18.4,55.9 19.3,55.9 19.3,56.9 21.3,56.9 21.3,57.9 24.2,57.9 24.2,58.9 25.2,58.9 27.2,58.9 28.2,58.9 28.2,59.8 29.1,59.8 
		29.1,60.8 30.1,60.8 30.1,59.8 30.1,47.1 30.1,46.1 	"/>
	<polygon class="st26" points="89.9,48.1 89.9,40.2 88.9,40.2 88.9,37.3 86.9,37.3 86.9,36.3 86.9,35.3 86.9,34.4 86,34.4 85,34.4 
		85,32.4 84,32.4 84,31.4 83,31.4 83,30.4 81.1,30.4 81.1,29.5 80.1,29.5 80.1,28.5 78.1,28.5 78.1,26.5 75.2,26.5 75.2,25.5 
		71.3,25.5 71.3,24.6 70.3,24.6 70.3,23.6 61.5,23.6 60.5,23.6 59.5,23.6 58.5,23.6 49.7,23.6 49.7,24.6 48.7,24.6 48.7,25.5 
		44.8,25.5 44.8,26.5 41.9,26.5 41.9,28.5 39.9,28.5 39.9,29.5 38.9,29.5 38.9,30.4 37,30.4 37,31.4 36,31.4 36,32.4 35,32.4 
		35,34.4 34,34.4 33.1,34.4 33.1,35.3 33.1,36.3 33.1,37.3 31.1,37.3 31.1,40.2 30.1,40.2 30.1,48.1 29.1,48.1 29.1,50 29.1,54.9 
		29.1,56.9 30.1,56.9 30.1,64.7 31.1,64.7 31.1,67.7 33.1,67.7 33.1,68.7 33.1,69.6 33.1,70.6 34,70.6 35,70.6 35,72.6 36,72.6 
		36,73.6 37,73.6 37,74.5 38.9,74.5 38.9,75.5 39.9,75.5 39.9,76.5 41.9,76.5 41.9,78.5 44.8,78.5 44.8,79.4 48.7,79.4 48.7,80.4 
		49.7,80.4 49.7,81.4 58.5,81.4 59.5,81.4 60.5,81.4 61.5,81.4 70.3,81.4 70.3,80.4 71.3,80.4 71.3,79.4 75.2,79.4 75.2,78.5 
		78.1,78.5 78.1,76.5 80.1,76.5 80.1,75.5 81.1,75.5 81.1,74.5 83,74.5 83,73.6 84,73.6 84,72.6 85,72.6 85,70.6 86,70.6 86.9,70.6 
		86.9,69.6 86.9,68.7 86.9,67.7 88.9,67.7 88.9,64.7 89.9,64.7 89.9,56.9 90.9,56.9 90.9,54.9 90.9,50 90.9,48.1 	"/>
	<polygon class="st25" points="52.2,82.4 53.1,82.4 53.1,83.4 54.1,83.4 54.1,84.3 54.1,86.3 54.1,87.3 55.1,87.3 55.1,90.2 
		56.1,90.2 56.1,92.2 57.1,92.2 57.1,93.2 57.1,95.1 58,95.1 58,97.1 59,97.1 59,99 60,99 60,97.1 61,97.1 61,95.1 62,95.1 62,93.2 
		62,92.2 62.9,92.2 62.9,90.2 63.9,90.2 63.9,87.3 64.9,87.3 64.9,86.3 64.9,84.3 64.9,83.4 65.9,83.4 65.9,82.4 66.9,82.4 
		66.9,81.4 65.9,81.4 53.1,81.4 52.2,81.4 	"/>
	<polygon class="st25" points="66.9,22.6 65.9,22.6 65.9,21.6 64.9,21.6 64.9,20.6 64.9,18.7 64.9,17.7 63.9,17.7 63.9,14.8 
		62.9,14.8 62.9,12.8 62,12.8 62,11.8 62,9.9 61,9.9 61,7.9 60,7.9 60,6 59,6 59,7.9 58,7.9 58,9.9 57.1,9.9 57.1,11.8 57.1,12.8 
		56.1,12.8 56.1,14.8 55.1,14.8 55.1,17.7 54.1,17.7 54.1,18.7 54.1,20.6 54.1,21.6 53.1,21.6 53.1,22.6 52.2,22.6 52.2,23.6 
		53.1,23.6 65.9,23.6 66.9,23.6 	"/>
</g>
<g>
	<path class="st0" d="M39.6,227.3l-0.7-0.7l-0.7,0.7l-0.7-0.7l-2.1,2.1l-2.1-2.1l-0.7,0.7l-0.7-0.7l-0.7,0.7l-0.7-0.7l-0.7,0.7
		l0.7,0.7l-0.7,0.7l0.7,0.7l-0.7,0.7l2.1,2.1l-2.1,2.1l0.7,0.7l-0.7,0.7l0.7,0.7l-0.7,0.7l0.7,0.7l0.7-0.7l0.7,0.7l0.7-0.7l0.7,0.7
		l2.1-2.1l2.1,2.1l0.7-0.7l0.7,0.7l0.7-0.7l0.7,0.7l0.7-0.7l-0.7-0.7l0.7-0.7l-0.7-0.7l0.7-0.7l-2.1-2.1l2.1-2.1l-0.7-0.7l0.7-0.7
		l-0.7-0.7l0.7-0.7l-0.7-0.7L39.6,227.3z"/>
	<polygon class="st0" points="35.4,231.5 36.1,230.8 34.7,230.8 	"/>
	<polygon class="st0" points="34.7,232.2 34,231.5 34,232.9 	"/>
	<polygon class="st0" points="35.4,232.9 34.7,233.6 36.1,233.6 	"/>
	<polygon class="st0" points="36.1,232.2 36.8,232.9 36.8,231.5 	"/>
</g>
<rect x="34.9" y="230.6" transform="matrix(0.7071 -0.7071 0.7071 0.7071 -153.7827 93.0147)" class="st1" width="1" height="3"/>
<rect x="33.9" y="231.6" transform="matrix(0.7071 -0.7071 0.7071 0.7071 -153.7827 93.0147)" class="st1" width="3" height="1"/>
<path class="st4" d="M37.5,229.4l-0.7-0.7l-1.4,1.4l-1.4-1.4l-0.7,0.7l-1.4-1.4l-0.7,0.7l1.4,1.4l-0.7,0.7l1.4,1.4l-1.4,1.4l0.7,0.7
	l-1.4,1.4l0.7,0.7l1.4-1.4l0.7,0.7l1.4-1.4l1.4,1.4l0.7-0.7l1.4,1.4l0.7-0.7l-1.4-1.4l0.7-0.7l-1.4-1.4l1.4-1.4l-0.7-0.7l1.4-1.4
	l-0.7-0.7L37.5,229.4z M36.8,231.5l-0.7,0.7l0.7,0.7l-0.7,0.7l-0.7-0.7l-0.7,0.7l-0.7-0.7l0.7-0.7l-0.7-0.7l0.7-0.7l0.7,0.7l0.7-0.7
	L36.8,231.5z"/>
<g>
	<polygon class="st1" points="85,228.1 85,223.2 87,223.2 87,222.2 90.9,222.2 90.9,220.2 91.9,220.2 91.9,219.2 95.9,219.2 
		95.9,220.2 96.9,220.2 96.9,222.2 100.8,222.2 100.8,223.2 102.8,223.2 102.8,228.1 101.8,228.1 101.8,229.1 102.8,229.1 
		102.8,233 101.8,233 101.8,234 100.8,234 100.8,235 96.9,235 96.9,237 95.9,237 95.9,238 91.9,238 91.9,237 90.9,237 90.9,235 
		87,235 87,234 86,234 86,233 85,233 85,229.1 86,229.1 86,228.1 	"/>
	<g>
		<rect x="97.8" y="224.2" class="st2" width="1" height="1"/>
		<rect x="96.9" y="225.1" class="st2" width="1" height="1"/>
		<polygon class="st2" points="96.9,225.1 95.9,225.1 95.9,224.2 95.9,222.2 96.9,222.2 96.9,224.2 		"/>
		<rect x="100.8" y="222.2" class="st2" width="1" height="1"/>
		<rect x="101.8" y="223.2" class="st2" width="1" height="1"/>
		<rect x="102.8" y="224.2" class="st2" width="1" height="3.9"/>
		<polygon class="st2" points="100.8,230.1 98.8,230.1 98.8,229.1 100.8,229.1 101.8,229.1 101.8,230.1 		"/>
		<polygon class="st2" points="97.8,228.1 97.8,227.1 98.8,227.1 98.8,228.1 98.8,229.1 97.8,229.1 		"/>
		<rect x="89" y="224.2" class="st2" width="1" height="1"/>
		<rect x="90" y="225.1" class="st2" width="1" height="1"/>
		<polygon class="st2" points="91.9,224.2 91.9,225.1 90.9,225.1 90.9,224.2 90.9,222.2 91.9,222.2 		"/>
		<polygon class="st2" points="90.9,222.2 90,222.2 88,222.2 87,222.2 87,221.2 88,221.2 90,221.2 90,220.2 90.9,220.2 90.9,221.2 
					"/>
		<rect x="86" y="222.2" class="st2" width="1" height="1"/>
		<rect x="85" y="223.2" class="st2" width="1" height="1"/>
		<rect x="84" y="224.2" class="st2" width="1" height="3.9"/>
		<polygon class="st2" points="89,229.1 89,230.1 87,230.1 86,230.1 86,229.1 87,229.1 		"/>
		<polygon class="st2" points="89,227.1 90,227.1 90,228.1 90,229.1 89,229.1 89,228.1 		"/>
		<polygon class="st2" points="97.8,222.2 96.9,222.2 96.9,221.2 96.9,220.2 97.8,220.2 97.8,221.2 99.8,221.2 100.8,221.2 
			100.8,222.2 99.8,222.2 		"/>
		<rect x="95.9" y="219.2" class="st2" width="1" height="1"/>
		<rect x="90.9" y="219.2" class="st2" width="1" height="1"/>
		<rect x="91.9" y="218.2" class="st2" width="3.9" height="1"/>
		<rect x="97.8" y="232" class="st2" width="1" height="1"/>
		<rect x="96.9" y="231.1" class="st2" width="1" height="1"/>
		<polygon class="st2" points="95.9,233 95.9,232 96.9,232 96.9,233 96.9,235 95.9,235 		"/>
		<rect x="100.8" y="234" class="st2" width="1" height="1"/>
		<rect x="101.8" y="233" class="st2" width="1" height="1"/>
		<rect x="102.8" y="229.1" class="st2" width="1" height="3.9"/>
		<rect x="101.8" y="228.1" class="st2" width="1" height="1"/>
		<rect x="89" y="232" class="st2" width="1" height="1"/>
		<rect x="90" y="231.1" class="st2" width="1" height="1"/>
		<polygon class="st2" points="90.9,232 91.9,232 91.9,233 91.9,235 90.9,235 90.9,233 		"/>
		<polygon class="st2" points="90,235 90.9,235 90.9,236 90.9,237 90,237 90,236 88,236 87,236 87,235 88,235 		"/>
		<rect x="86" y="234" class="st2" width="1" height="1"/>
		<rect x="85" y="233" class="st2" width="1" height="1"/>
		<rect x="84" y="229.1" class="st2" width="1" height="3.9"/>
		<rect x="85" y="228.1" class="st2" width="1" height="1"/>
		<polygon class="st2" points="96.9,235 97.8,235 99.8,235 100.8,235 100.8,236 99.8,236 97.8,236 97.8,237 96.9,237 96.9,236 		"/>
		<rect x="95.9" y="237" class="st2" width="1" height="1"/>
		<rect x="90.9" y="237" class="st2" width="1" height="1"/>
		<rect x="91.9" y="238" class="st2" width="3.9" height="1"/>
	</g>
	<polygon class="st3" points="90.9,228.1 91.9,228.1 91.9,227.1 92.9,227.1 92.9,226.1 94.9,226.1 94.9,227.1 95.9,227.1 
		95.9,228.1 96.9,228.1 96.9,229.1 95.9,229.1 95.9,230.1 94.9,230.1 94.9,231.1 92.9,231.1 92.9,230.1 91.9,230.1 91.9,229.1 
		90.9,229.1 	"/>
</g>
<g>
	<path class="st0" d="M210.1,10.6l-0.7-0.7l-0.7,0.7L208,9.9l-2.1,2.1l-2.1-2.1l-0.7,0.7l-0.7-0.7l-0.7,0.7L201,9.9l-0.7,0.7
		l0.7,0.7l-0.7,0.7l0.7,0.7l-0.7,0.7l2.1,2.1l-2.1,2.1l0.7,0.7l-0.7,0.7l0.7,0.7l-0.7,0.7l0.7,0.7l0.7-0.7l0.7,0.7l0.7-0.7l0.7,0.7
		l2.1-2.1l2.1,2.1l0.7-0.7l0.7,0.7l0.7-0.7l0.7,0.7l0.7-0.7l-0.7-0.7l0.7-0.7l-0.7-0.7l0.7-0.7l-2.1-2.1l2.1-2.1l-0.7-0.7l0.7-0.7
		l-0.7-0.7l0.7-0.7l-0.7-0.7L210.1,10.6z"/>
	<polygon class="st0" points="206,14.8 206.7,14.1 205.3,14.1 	"/>
	<polygon class="st0" points="205.3,15.5 204.6,14.8 204.6,16.2 	"/>
	<polygon class="st0" points="206,16.2 205.3,16.9 206.7,16.9 	"/>
	<polygon class="st0" points="206.7,15.5 207.4,16.2 207.4,14.8 	"/>
</g>
<rect x="205.5" y="13.9" transform="matrix(0.7071 -0.7071 0.7071 0.7071 49.4036 150.1623)" class="st1" width="1" height="3"/>
<rect x="204.5" y="14.9" transform="matrix(0.7071 -0.7071 0.7071 0.7071 49.4036 150.1623)" class="st1" width="3" height="1"/>
<path class="st4" d="M208.1,12.7l-0.7-0.7l-1.4,1.4l-1.4-1.4l-0.7,0.7l-1.4-1.4l-0.7,0.7l1.4,1.4l-0.7,0.7l1.4,1.4l-1.4,1.4l0.7,0.7
	l-1.4,1.4l0.7,0.7l1.4-1.4l0.7,0.7l1.4-1.4l1.4,1.4l0.7-0.7l1.4,1.4l0.7-0.7l-1.4-1.4l0.7-0.7l-1.4-1.4l1.4-1.4l-0.7-0.7l1.4-1.4
	l-0.7-0.7L208.1,12.7z M207.4,14.8l-0.7,0.7l0.7,0.7l-0.7,0.7l-0.7-0.7l-0.7,0.7l-0.7-0.7l0.7-0.7l-0.7-0.7l0.7-0.7l0.7,0.7l0.7-0.7
	L207.4,14.8z"/>
<g>
	<polygon class="st1" points="132.9,28.8 132.9,23.9 134.9,23.9 134.9,22.9 138.8,22.9 138.8,20.9 139.8,20.9 139.8,19.9 
		143.7,19.9 143.7,20.9 144.7,20.9 144.7,22.9 148.7,22.9 148.7,23.9 150.6,23.9 150.6,28.8 149.6,28.8 149.6,29.8 150.6,29.8 
		150.6,33.7 149.6,33.7 149.6,34.7 148.7,34.7 148.7,35.7 144.7,35.7 144.7,37.7 143.7,37.7 143.7,38.7 139.8,38.7 139.8,37.7 
		138.8,37.7 138.8,35.7 134.9,35.7 134.9,34.7 133.9,34.7 133.9,33.7 132.9,33.7 132.9,29.8 133.9,29.8 133.9,28.8 	"/>
	<g>
		<rect x="145.7" y="24.9" class="st2" width="1" height="1"/>
		<rect x="144.7" y="25.9" class="st2" width="1" height="1"/>
		<polygon class="st2" points="144.7,25.9 143.7,25.9 143.7,24.9 143.7,22.9 144.7,22.9 144.7,24.9 		"/>
		<rect x="148.7" y="22.9" class="st2" width="1" height="1"/>
		<rect x="149.6" y="23.9" class="st2" width="1" height="1"/>
		<rect x="150.6" y="24.9" class="st2" width="1" height="3.9"/>
		<polygon class="st2" points="148.7,30.8 146.7,30.8 146.7,29.8 148.7,29.8 149.6,29.8 149.6,30.8 		"/>
		<polygon class="st2" points="145.7,28.8 145.7,27.8 146.7,27.8 146.7,28.8 146.7,29.8 145.7,29.8 		"/>
		<rect x="136.8" y="24.9" class="st2" width="1" height="1"/>
		<rect x="137.8" y="25.9" class="st2" width="1" height="1"/>
		<polygon class="st2" points="139.8,24.9 139.8,25.9 138.8,25.9 138.8,24.9 138.8,22.9 139.8,22.9 		"/>
		<polygon class="st2" points="138.8,22.9 137.8,22.9 135.8,22.9 134.9,22.9 134.9,21.9 135.8,21.9 137.8,21.9 137.8,20.9 
			138.8,20.9 138.8,21.9 		"/>
		<rect x="133.9" y="22.9" class="st2" width="1" height="1"/>
		<rect x="132.9" y="23.9" class="st2" width="1" height="1"/>
		<rect x="131.9" y="24.9" class="st2" width="1" height="3.9"/>
		<polygon class="st2" points="136.8,29.8 136.8,30.8 134.9,30.8 133.9,30.8 133.9,29.8 134.9,29.8 		"/>
		<polygon class="st2" points="136.8,27.8 137.8,27.8 137.8,28.8 137.8,29.8 136.8,29.8 136.8,28.8 		"/>
		<polygon class="st2" points="145.7,22.9 144.7,22.9 144.7,21.9 144.7,20.9 145.7,20.9 145.7,21.9 147.7,21.9 148.7,21.9 
			148.7,22.9 147.7,22.9 		"/>
		<rect x="143.7" y="19.9" class="st2" width="1" height="1"/>
		<rect x="138.8" y="19.9" class="st2" width="1" height="1"/>
		<rect x="139.8" y="19" class="st2" width="3.9" height="1"/>
		<rect x="145.7" y="32.8" class="st2" width="1" height="1"/>
		<rect x="144.7" y="31.8" class="st2" width="1" height="1"/>
		<polygon class="st2" points="143.7,33.7 143.7,32.8 144.7,32.8 144.7,33.7 144.7,35.7 143.7,35.7 		"/>
		<rect x="148.7" y="34.7" class="st2" width="1" height="1"/>
		<rect x="149.6" y="33.7" class="st2" width="1" height="1"/>
		<rect x="150.6" y="29.8" class="st2" width="1" height="3.9"/>
		<rect x="149.6" y="28.8" class="st2" width="1" height="1"/>
		<rect x="136.8" y="32.8" class="st2" width="1" height="1"/>
		<rect x="137.8" y="31.8" class="st2" width="1" height="1"/>
		<polygon class="st2" points="138.8,32.8 139.8,32.8 139.8,33.7 139.8,35.7 138.8,35.7 138.8,33.7 		"/>
		<polygon class="st2" points="137.8,35.7 138.8,35.7 138.8,36.7 138.8,37.7 137.8,37.7 137.8,36.7 135.8,36.7 134.9,36.7 
			134.9,35.7 135.8,35.7 		"/>
		<rect x="133.9" y="34.7" class="st2" width="1" height="1"/>
		<rect x="132.9" y="33.7" class="st2" width="1" height="1"/>
		<rect x="131.9" y="29.8" class="st2" width="1" height="3.9"/>
		<rect x="132.9" y="28.8" class="st2" width="1" height="1"/>
		<polygon class="st2" points="144.7,35.7 145.7,35.7 147.7,35.7 148.7,35.7 148.7,36.7 147.7,36.7 145.7,36.7 145.7,37.7 
			144.7,37.7 144.7,36.7 		"/>
		<rect x="143.7" y="37.7" class="st2" width="1" height="1"/>
		<rect x="138.8" y="37.7" class="st2" width="1" height="1"/>
		<rect x="139.8" y="38.7" class="st2" width="3.9" height="1"/>
	</g>
	<polygon class="st3" points="138.8,28.8 139.8,28.8 139.8,27.8 140.8,27.8 140.8,26.8 142.7,26.8 142.7,27.8 143.7,27.8 
		143.7,28.8 144.7,28.8 144.7,29.8 143.7,29.8 143.7,30.8 142.7,30.8 142.7,31.8 140.8,31.8 140.8,30.8 139.8,30.8 139.8,29.8 
		138.8,29.8 	"/>
</g>
</svg>
