<?xml version="1.0" encoding="utf-8"?>
<!-- Generator: Adobe Illustrator 25.2.3, SVG Export Plug-In . SVG Version: 6.00 Build 0)  -->
<svg version="1.1" id="Layer_1" xmlns="http://www.w3.org/2000/svg" xmlns:xlink="http://www.w3.org/1999/xlink" x="0px" y="0px"
	 viewBox="0 0 250 150" style="enable-background:new 0 0 250 150;" xml:space="preserve">
<style type="text/css">
	.st0{fill:#668941;}
	.st1{fill:#94BB4F;}
	.st2{fill:#CADB71;}
	.st3{fill:#7279B6;}
	.st4{fill:#416A36;}
	.st5{fill:#E8EAF4;}
	.st6{fill:#96BC50;}
	.st7{fill:#668B40;}
	.st8{fill:#CBDC72;}
	.st9{fill:#426A36;}
	.st10{fill:#7379B7;}
	.st11{fill:#E9EBF5;}
	.st12{fill:#CBCA6D;}
	.st13{fill:#706353;}
	.st14{fill:#010101;}
	.st15{fill:#33A14D;}
	.st16{fill:#3FA0A7;}
	.st17{fill:#7DC0C9;}
</style>
<g>
	<g>
		<rect x="175.2" y="109.8" class="st0" width="2.3" height="2.3"/>
		<polygon class="st0" points="168.4,121.1 168.4,118.8 170.7,118.8 170.7,116.6 168.4,116.6 168.4,118.8 166.2,118.8 166.2,121.1 
			163.9,121.1 163.9,116.6 166.2,116.6 166.2,114.3 168.4,114.3 170.7,114.3 170.7,112.1 172.9,112.1 175.2,112.1 175.2,114.3 
			172.9,114.3 172.9,118.8 172.9,121.1 170.7,121.1 170.7,123.3 168.4,123.3 168.4,125.6 163.9,125.6 163.9,123.3 166.2,123.3 
			166.2,121.1 		"/>
	</g>
	<polygon class="st1" points="157.2,98.5 157.2,91.8 159.4,91.8 159.4,87.3 161.7,87.3 161.7,80.5 163.9,80.5 163.9,82.8 
		166.2,82.8 166.2,91.8 168.4,91.8 168.4,98.5 166.2,98.5 166.2,103.1 163.9,103.1 163.9,105.3 161.7,105.3 161.7,107.6 
		159.4,107.6 157.2,107.6 157.2,105.3 154.9,105.3 154.9,98.5 	"/>
	
		<rect x="161.7" y="89.7" transform="matrix(-1 -4.600643e-11 4.600643e-11 -1 325.6716 181.7223)" class="st0" width="2.3" height="2.3"/>
	<rect x="157.2" y="105.3" class="st1" width="2.3" height="24.8"/>
	<rect x="154.9" y="130.1" class="st1" width="2.3" height="11.3"/>
	<rect x="159.4" y="125.6" class="st1" width="2.3" height="2.3"/>
	<rect x="163.9" y="121.1" class="st1" width="2.3" height="2.3"/>
	<rect x="166.2" y="118.8" class="st1" width="2.3" height="2.3"/>
	<rect x="168.4" y="116.6" class="st1" width="2.3" height="2.3"/>
	<rect x="161.7" y="121.1" class="st1" width="2.3" height="4.5"/>
	<rect x="163.9" y="80.5" class="st2" width="2.3" height="2.3"/>
	<rect x="163.9" y="82.8" class="st3" width="2.3" height="2.3"/>
	<rect x="163.9" y="85" class="st2" width="2.3" height="2.3"/>
	<rect x="159.4" y="87.3" class="st2" width="2.3" height="2.3"/>
	<rect x="161.7" y="103.1" class="st4" width="2.3" height="2.3"/>
	<rect x="163.9" y="100.8" class="st4" width="2.3" height="2.3"/>
	<rect x="161.7" y="82.8" class="st0" width="2.3" height="2.3"/>
	<rect x="159.4" y="96.3" class="st0" width="2.3" height="6.8"/>
	<rect x="166.2" y="91.8" class="st3" width="2.3" height="2.3"/>
	<rect x="157.2" y="94" class="st3" width="2.3" height="2.3"/>
	<rect x="157.2" y="100.8" class="st3" width="2.3" height="2.3"/>
	<rect x="163.9" y="96.3" class="st3" width="2.3" height="2.3"/>
	<rect x="163.9" y="94" class="st5" width="2.3" height="2.3"/>
	<rect x="159.4" y="91.8" class="st5" width="2.3" height="2.3"/>
	<rect x="161.7" y="85" class="st5" width="2.3" height="2.3"/>
	<rect x="157.2" y="98.5" class="st5" width="2.3" height="2.3"/>
	<rect x="161.7" y="94" class="st2" width="2.3" height="2.3"/>
	<rect x="157.2" y="103.1" class="st2" width="2.3" height="2.3"/>
	<rect x="163.9" y="89.5" class="st2" width="2.3" height="2.3"/>
</g>
<g>
	<g>
		<rect x="77.1" y="108.7" class="st0" width="2.3" height="2.3"/>
		<polygon class="st0" points="86.1,120 86.1,117.7 83.8,117.7 83.8,115.5 86.1,115.5 86.1,117.7 88.3,117.7 88.3,120 90.6,120 
			90.6,115.5 88.3,115.5 88.3,113.2 86.1,113.2 83.8,113.2 83.8,110.9 81.6,110.9 79.3,110.9 79.3,113.2 81.6,113.2 81.6,117.7 
			81.6,120 83.8,120 83.8,122.2 86.1,122.2 86.1,124.5 90.6,124.5 90.6,122.2 88.3,122.2 88.3,120 		"/>
	</g>
	<polygon class="st1" points="97.3,97.4 97.3,90.7 95.1,90.7 95.1,86.2 92.8,86.2 92.8,79.4 90.6,79.4 90.6,81.6 88.3,81.6 
		88.3,90.7 86.1,90.7 86.1,97.4 88.3,97.4 88.3,101.9 90.6,101.9 90.6,104.2 92.8,104.2 92.8,106.4 95.1,106.4 97.3,106.4 
		97.3,104.2 99.6,104.2 99.6,97.4 	"/>
	<rect x="90.5" y="88.6" class="st0" width="2.3" height="2.3"/>
	
		<rect x="95.1" y="104.2" transform="matrix(-1 -4.519908e-11 4.519908e-11 -1 192.4361 233.158)" class="st1" width="2.3" height="24.8"/>
	
		<rect x="97.3" y="129" transform="matrix(-1 -4.519908e-11 4.519908e-11 -1 196.9435 269.2165)" class="st1" width="2.3" height="11.3"/>
	
		<rect x="92.8" y="124.5" transform="matrix(-1 -4.519908e-11 4.519908e-11 -1 187.9288 251.1873)" class="st1" width="2.3" height="2.3"/>
	
		<rect x="88.3" y="120" transform="matrix(-1 -4.519908e-11 4.519908e-11 -1 178.9142 242.1726)" class="st1" width="2.3" height="2.3"/>
	
		<rect x="86.1" y="117.7" transform="matrix(-1 -4.358481e-11 4.358481e-11 -1 174.4069 237.6653)" class="st1" width="2.3" height="2.3"/>
	
		<rect x="83.8" y="115.5" transform="matrix(-1 -4.519908e-11 4.519908e-11 -1 169.8996 233.158)" class="st1" width="2.3" height="2.3"/>
	
		<rect x="90.6" y="120" transform="matrix(-1 -4.519908e-11 4.519908e-11 -1 183.4215 244.4263)" class="st1" width="2.3" height="4.5"/>
	
		<rect x="88.3" y="79.4" transform="matrix(-1 -4.519908e-11 4.519908e-11 -1 178.9142 161.041)" class="st2" width="2.3" height="2.3"/>
	
		<rect x="88.3" y="81.6" transform="matrix(-1 -4.519908e-11 4.519908e-11 -1 178.9142 165.5483)" class="st3" width="2.3" height="2.3"/>
	
		<rect x="88.3" y="83.9" transform="matrix(-1 -4.519908e-11 4.519908e-11 -1 178.9142 170.0556)" class="st2" width="2.3" height="2.3"/>
	
		<rect x="92.8" y="86.2" transform="matrix(-1 -4.519908e-11 4.519908e-11 -1 187.9288 174.5629)" class="st2" width="2.3" height="2.3"/>
	
		<rect x="90.6" y="101.9" transform="matrix(-1 -4.358481e-11 4.358481e-11 -1 183.4215 206.1141)" class="st4" width="2.3" height="2.3"/>
	
		<rect x="88.3" y="99.7" transform="matrix(-1 -4.519908e-11 4.519908e-11 -1 178.9142 201.6068)" class="st4" width="2.3" height="2.3"/>
	
		<rect x="90.6" y="81.6" transform="matrix(-1 -4.358481e-11 4.358481e-11 -1 183.4215 165.5483)" class="st0" width="2.3" height="2.3"/>
	
		<rect x="92.8" y="95.2" transform="matrix(-1 -4.519908e-11 4.519908e-11 -1 187.9288 197.0995)" class="st0" width="2.3" height="6.8"/>
	
		<rect x="86.1" y="90.7" transform="matrix(-1 -4.519908e-11 4.519908e-11 -1 174.4069 183.5776)" class="st3" width="2.3" height="2.3"/>
	
		<rect x="95.1" y="92.9" transform="matrix(-1 -4.519908e-11 4.519908e-11 -1 192.4361 188.0849)" class="st3" width="2.3" height="2.3"/>
	
		<rect x="95.1" y="99.7" transform="matrix(-1 -4.519908e-11 4.519908e-11 -1 192.4361 201.6068)" class="st3" width="2.3" height="2.3"/>
	
		<rect x="88.3" y="95.2" transform="matrix(-1 -4.519908e-11 4.519908e-11 -1 178.9142 192.5922)" class="st3" width="2.3" height="2.3"/>
	
		<rect x="88.3" y="92.9" transform="matrix(-1 -4.519908e-11 4.519908e-11 -1 178.9142 188.0849)" class="st5" width="2.3" height="2.3"/>
	
		<rect x="92.8" y="90.7" transform="matrix(-1 -4.519908e-11 4.519908e-11 -1 187.9288 183.5776)" class="st5" width="2.3" height="2.3"/>
	
		<rect x="90.6" y="83.9" transform="matrix(-1 -4.519908e-11 4.519908e-11 -1 183.4215 170.0556)" class="st5" width="2.3" height="2.3"/>
	
		<rect x="95.1" y="97.4" transform="matrix(-1 -4.519908e-11 4.519908e-11 -1 192.4361 197.0995)" class="st5" width="2.3" height="2.3"/>
	
		<rect x="90.6" y="92.9" transform="matrix(-1 -4.519908e-11 4.519908e-11 -1 183.4215 188.0849)" class="st2" width="2.3" height="2.3"/>
	
		<rect x="95.1" y="101.9" transform="matrix(-1 -4.519908e-11 4.519908e-11 -1 192.4361 206.1141)" class="st2" width="2.3" height="2.3"/>
	
		<rect x="88.3" y="88.4" transform="matrix(-1 -4.519908e-11 4.519908e-11 -1 178.9142 179.0702)" class="st2" width="2.3" height="2.3"/>
</g>
<g>
	<g>
		<g>
			<polygon class="st6" points="192.7,83.4 192.7,71.7 190.4,71.7 190.4,69.5 192.7,69.5 192.7,67.1 192.7,64.8 192.7,53.2 
				195.1,53.2 195.1,64.8 195.1,67.1 197.3,67.1 197.3,69.5 195.1,69.5 195.1,83.4 195.1,85.7 195.1,102 197.3,102 197.3,104.3 
				195.1,104.3 195.1,109 192.7,109 192.7,99.6 190.4,99.6 190.4,97.4 192.7,97.4 192.7,85.7 			"/>
			<polygon class="st6" points="206.7,85.7 206.7,83.4 209,83.4 209,85.7 213.6,85.7 218.3,85.7 218.3,88 213.6,88 209,88 209,90.4 
				206.7,90.4 206.7,88 			"/>
			<polygon class="st6" points="209,78.7 211.3,78.7 211.3,81.1 211.3,83.4 209,83.4 209,81.1 			"/>
			<rect x="202.1" y="95" class="st6" width="2.4" height="2.4"/>
			<rect x="199.7" y="97.4" class="st6" width="2.4" height="2.4"/>
			<rect x="197.3" y="99.6" class="st6" width="2.4" height="2.4"/>
			<polygon class="st6" points="204.3,90.4 206.7,90.4 206.7,92.6 206.7,95 204.3,95 204.3,92.6 			"/>
			<rect x="197.3" y="64.8" class="st6" width="2.4" height="2.4"/>
			<rect x="199.7" y="62.5" class="st6" width="2.4" height="2.4"/>
			<rect x="188.1" y="67.1" class="st6" width="2.4" height="2.4"/>
			<polygon class="st6" points="181.1,67.1 181.1,64.8 185.8,64.8 188.1,64.8 188.1,67.1 185.8,67.1 			"/>
			<rect x="220.6" y="90.4" class="st6" width="2.4" height="2.4"/>
			<rect x="218.3" y="88" class="st6" width="2.4" height="2.4"/>
			<rect x="206.7" y="111.3" class="st6" width="2.4" height="4.6"/>
			<rect x="204.3" y="109" class="st6" width="2.4" height="2.4"/>
			<rect x="202.1" y="106.6" class="st6" width="2.4" height="2.4"/>
			<rect x="199.7" y="104.3" class="st6" width="2.4" height="2.4"/>
			<rect x="190.4" y="109" class="st6" width="2.4" height="7"/>
			<rect x="188.1" y="115.9" class="st6" width="2.4" height="2.4"/>
			<rect x="185.8" y="118.3" class="st6" width="2.4" height="2.4"/>
			<rect x="183.4" y="120.5" class="st6" width="2.4" height="4.6"/>
			<rect x="188.1" y="95" class="st6" width="2.4" height="2.4"/>
			<rect x="185.8" y="92.6" class="st6" width="2.4" height="2.4"/>
			<rect x="183.4" y="90.4" class="st6" width="2.4" height="2.4"/>
			<rect x="181.1" y="88" class="st6" width="2.4" height="2.4"/>
		</g>
		<g>
			<polygon class="st7" points="174.2,67.1 174.2,64.8 176.4,64.8 178.8,64.8 178.8,62.5 188.1,62.5 188.1,64.8 181.1,64.8 
				181.1,67.1 188.1,67.1 188.1,69.5 190.4,69.5 190.4,71.7 188.1,71.7 188.1,74.1 181.1,74.1 181.1,71.7 176.4,71.7 176.4,69.5 
				171.8,69.5 171.8,67.1 			"/>
			<rect x="188.1" y="64.8" class="st7" width="2.4" height="2.4"/>
			<rect x="169.4" y="69.5" class="st7" width="2.4" height="2.4"/>
		</g>
		<g>
			<rect x="206.7" y="55.5" class="st7" width="2.4" height="2.4"/>
			<polygon class="st7" points="199.7,67.1 199.7,64.8 202.1,64.8 202.1,62.5 199.7,62.5 199.7,64.8 197.3,64.8 197.3,67.1 
				195.1,67.1 195.1,62.5 197.3,62.5 197.3,60.1 199.7,60.1 202.1,60.1 202.1,57.8 204.3,57.8 206.7,57.8 206.7,60.1 204.3,60.1 
				204.3,64.8 204.3,67.1 202.1,67.1 202.1,69.5 199.7,69.5 199.7,71.7 195.1,71.7 195.1,69.5 197.3,69.5 197.3,67.1 			"/>
		</g>
		<g>
			<rect x="225.2" y="97.4" class="st7" width="2.4" height="2.4"/>
			<polygon class="st7" points="211.3,85.7 209,85.7 209,83.4 211.3,83.4 211.3,81.1 213.6,81.1 218.3,81.1 218.3,83.4 220.6,83.4 
				220.6,85.7 223,85.7 223,88 225.2,88 225.2,90.4 225.2,95 225.2,97.4 223,97.4 223,95 213.6,95 213.6,92.6 211.3,92.6 209,92.6 
				209,88 211.3,88 218.3,88 218.3,90.4 220.6,90.4 220.6,92.6 223,92.6 223,90.4 220.6,90.4 220.6,88 218.3,88 218.3,85.7 			"/>
		</g>
		<polygon class="st7" points="199.7,104.3 199.7,106.6 202.1,106.6 202.1,109 204.3,109 204.3,111.3 206.7,111.3 206.7,115.9 
			209,115.9 209,111.3 206.7,111.3 206.7,109 204.3,109 204.3,106.6 202.1,106.6 202.1,104.3 202.1,102 204.3,102 209,102 
			209,104.3 211.3,104.3 211.3,106.6 213.6,106.6 213.6,122.9 211.3,122.9 211.3,129.9 209,129.9 209,134.6 206.7,134.6 
			206.7,132.2 204.3,132.2 204.3,127.5 202.1,127.5 202.1,120.5 199.7,120.5 199.7,118.3 195.1,118.3 195.1,104.3 		"/>
		<g>
			<polygon class="st7" points="171.8,81.1 171.8,78.7 178.8,78.7 178.8,81.1 181.1,81.1 185.8,81.1 185.8,83.4 188.1,83.4 
				190.4,83.4 190.4,85.7 192.7,85.7 192.7,97.4 190.4,97.4 190.4,95 188.1,95 188.1,92.6 185.8,92.6 185.8,90.4 183.4,90.4 
				183.4,88 181.1,88 181.1,90.4 183.4,90.4 183.4,92.6 185.8,92.6 185.8,95 188.1,95 188.1,97.4 190.4,97.4 190.4,99.6 190.4,102 
				181.1,102 181.1,99.6 178.8,99.6 178.8,97.4 176.4,97.4 176.4,95 174.2,95 174.2,92.6 174.2,90.4 171.8,90.4 171.8,88 
				171.8,83.4 169.4,83.4 169.4,81.1 			"/>
			<rect x="167.1" y="83.4" class="st7" width="2.4" height="2.4"/>
		</g>
		<polygon class="st6" points="209,69.5 209,62.5 211.3,62.5 211.3,57.8 213.6,57.8 213.6,50.8 216,50.8 216,53.2 218.3,53.2 
			218.3,62.5 220.6,62.5 220.6,69.5 218.3,69.5 218.3,74.1 216,74.1 216,76.5 213.6,76.5 213.6,78.7 211.3,78.7 209,78.7 209,76.5 
			206.7,76.5 206.7,69.5 		"/>
		<polygon class="st6" points="185.8,34.5 188.1,34.5 188.1,25.3 190.4,25.3 190.4,11.3 192.7,11.3 192.7,6.6 195.1,6.6 195.1,11.3 
			197.3,11.3 197.3,20.5 199.7,20.5 199.7,27.5 197.3,27.5 197.3,36.9 199.7,36.9 199.7,48.6 197.3,48.6 197.3,50.8 195.1,50.8 
			195.1,53.2 192.7,53.2 192.7,50.8 190.4,50.8 188.1,50.8 188.1,41.6 185.8,41.6 		"/>
		<rect x="208.9" y="115.9" class="st8" width="2.4" height="2.4"/>
		<rect x="222.9" y="90.3" class="st8" width="2.4" height="2.4"/>
		<rect x="178.8" y="83.3" class="st8" width="4.6" height="2.4"/>
		<rect x="178.7" y="62.4" class="st8" width="2.4" height="2.4"/>
		<rect x="201.9" y="60.1" class="st8" width="2.4" height="2.4"/>
		<rect x="195" y="69.4" class="st9" width="2.4" height="2.4"/>
		<rect x="188" y="69.4" class="st9" width="2.4" height="2.4"/>
		<rect x="185.7" y="71.8" class="st9" width="2.4" height="2.4"/>
		<rect x="185.8" y="99.7" class="st9" width="4.6" height="2.4"/>
		<rect x="195" y="106.7" class="st9" width="2.4" height="9.3"/>
		<rect x="199.6" y="115.9" class="st9" width="2.4" height="2.4"/>
		<rect x="211.3" y="90.3" class="st9" width="2.4" height="2.4"/>
		<rect x="208.9" y="88" class="st7" width="2.4" height="2.4"/>
		<rect x="190.4" y="36.9" class="st7" width="2.4" height="2.4"/>
		<rect x="192.7" y="23" class="st7" width="2.4" height="4.6"/>
		<rect x="190.4" y="11.2" class="st7" width="2.4" height="2.4"/>
		<rect x="188" y="27.6" class="st8" width="2.4" height="2.4"/>
		<rect x="192.7" y="6.6" class="st8" width="2.4" height="2.4"/>
		<rect x="195" y="15.9" class="st8" width="2.4" height="2.4"/>
		<rect x="195" y="36.9" class="st8" width="2.4" height="2.4"/>
		<rect x="190.4" y="43.8" class="st8" width="2.4" height="2.4"/>
		<rect x="215.9" y="50.8" class="st8" width="2.4" height="2.4"/>
		<rect x="211.3" y="57.8" class="st8" width="2.4" height="2.4"/>
		<rect x="215.9" y="62.4" class="st8" width="2.4" height="2.4"/>
		<rect x="192.7" y="48.4" class="st9" width="2.4" height="2.4"/>
		<rect x="190.4" y="27.6" class="st9" width="2.4" height="2.4"/>
		<rect x="215.9" y="71.8" class="st9" width="2.4" height="2.4"/>
		<rect x="213.6" y="74" class="st9" width="2.4" height="2.4"/>
		<rect x="211.3" y="69.4" class="st9" width="2.4" height="2.4"/>
		<rect x="213.6" y="71.8" class="st7" width="2.4" height="2.4"/>
		<rect x="213.8" y="60" class="st7" width="2.4" height="2.4"/>
		<rect x="197.4" y="41.5" class="st10" width="2.4" height="4.6"/>
		<rect x="199.6" y="39.1" class="st10" width="2.4" height="2.4"/>
		<rect x="192.7" y="43.9" class="st10" width="2.4" height="4.6"/>
		<rect x="188" y="43.9" class="st10" width="2.4" height="4.6"/>
		<rect x="197.4" y="48.4" class="st10" width="2.4" height="2.4"/>
		<rect x="185.7" y="34.6" class="st10" width="2.4" height="2.4"/>
		<rect x="195" y="27.7" class="st10" width="2.4" height="4.6"/>
		<rect x="190.4" y="32.2" class="st10" width="2.4" height="2.4"/>
		<rect x="190.4" y="20.6" class="st10" width="2.4" height="2.4"/>
		<rect x="195" y="13.6" class="st10" width="2.4" height="2.4"/>
		<rect x="218.3" y="64.9" class="st10" width="2.4" height="4.6"/>
		<rect x="213.6" y="64.9" class="st10" width="2.4" height="4.6"/>
		<rect x="211.3" y="60.1" class="st10" width="2.4" height="4.6"/>
		<rect x="206.6" y="71.8" class="st10" width="2.4" height="4.6"/>
		<rect x="211.3" y="76.3" class="st10" width="2.4" height="2.4"/>
		<rect x="215.9" y="74" class="st10" width="2.4" height="2.4"/>
		<rect x="215.9" y="53.1" class="st10" width="2.4" height="2.4"/>
		<rect x="188" y="43.8" class="st11" width="2.4" height="2.4"/>
		<rect x="197.4" y="41.4" class="st11" width="2.4" height="2.4"/>
		<rect x="195" y="29.9" class="st11" width="2.4" height="2.4"/>
		<rect x="190.4" y="18.2" class="st11" width="2.4" height="2.4"/>
		<rect x="211.3" y="60.1" class="st11" width="2.4" height="2.4"/>
		<rect x="218.3" y="67.1" class="st11" width="2.4" height="2.4"/>
		<rect x="206.6" y="74" class="st11" width="2.4" height="2.4"/>
		<rect x="213.6" y="67.1" class="st11" width="2.4" height="2.4"/>
		<rect x="208.9" y="71.8" class="st7" width="2.4" height="4.6"/>
		<rect x="195" y="43.9" class="st7" width="2.4" height="4.6"/>
		<rect x="190.4" y="46.1" class="st7" width="2.4" height="2.4"/>
		<rect x="192.7" y="41.4" class="st7" width="2.4" height="2.4"/>
		<rect x="192.7" y="32.2" class="st7" width="2.4" height="2.4"/>
		<rect x="197.4" y="22.9" class="st7" width="2.4" height="2.4"/>
		<rect x="192.7" y="22.9" class="st8" width="2.4" height="2.4"/>
		<rect x="190.4" y="15.9" class="st8" width="2.4" height="2.4"/>
		<rect x="208.9" y="64.8" class="st8" width="2.4" height="2.4"/>
		<rect x="188" y="39.1" class="st8" width="2.4" height="2.4"/>
		<rect x="215.9" y="55.4" class="st8" width="2.4" height="2.4"/>
	</g>
	<rect x="181.1" y="125.3" class="st6" width="2.4" height="4.6"/>
	<rect x="178.8" y="129.9" class="st6" width="2.4" height="4.6"/>
</g>
<g>
	<g>
		<g>
			<polygon class="st6" points="59.8,85.7 59.8,97.4 62.2,97.4 62.2,99.6 59.8,99.6 59.8,109 57.4,109 57.4,104.3 55.2,104.3 
				55.2,102 57.4,102 57.4,85.7 57.4,83.4 57.4,69.5 55.2,69.5 55.2,67.1 57.4,67.1 57.4,64.8 57.4,53.2 59.8,53.2 59.8,64.8 
				59.8,67.1 59.8,69.5 62.2,69.5 62.2,71.7 59.8,71.7 59.8,83.4 			"/>
			<polygon class="st6" points="45.8,88 45.8,90.4 43.5,90.4 43.5,88 38.9,88 34.3,88 34.3,85.7 38.9,85.7 43.5,85.7 43.5,83.4 
				45.8,83.4 45.8,85.7 			"/>
			<polygon class="st6" points="43.5,81.1 43.5,83.4 41.2,83.4 41.2,81.1 41.2,78.7 43.5,78.7 			"/>
			<rect x="48.1" y="95" class="st6" width="2.4" height="2.4"/>
			<rect x="50.5" y="97.4" class="st6" width="2.4" height="2.4"/>
			<rect x="52.8" y="99.6" class="st6" width="2.4" height="2.4"/>
			<polygon class="st6" points="48.2,92.6 48.2,95 45.8,95 45.8,92.6 45.8,90.4 48.2,90.4 			"/>
			<rect x="52.8" y="64.8" class="st6" width="2.4" height="2.4"/>
			<rect x="50.5" y="62.5" class="st6" width="2.4" height="2.4"/>
			<rect x="62" y="67.1" class="st6" width="2.4" height="2.4"/>
			<polygon class="st6" points="66.8,67.1 64.4,67.1 64.4,64.8 66.8,64.8 71.4,64.8 71.4,67.1 			"/>
			<rect x="29.5" y="90.4" class="st6" width="2.4" height="2.4"/>
			<rect x="31.9" y="88" class="st6" width="2.4" height="2.4"/>
			<rect x="43.5" y="111.3" class="st6" width="2.4" height="4.6"/>
			<rect x="45.8" y="109" class="st6" width="2.4" height="2.4"/>
			<rect x="48.1" y="106.6" class="st6" width="2.4" height="2.4"/>
			<rect x="50.5" y="104.3" class="st6" width="2.4" height="2.4"/>
			<rect x="59.8" y="109" class="st6" width="2.4" height="7"/>
			<rect x="62" y="115.9" class="st6" width="2.4" height="2.4"/>
			<rect x="64.4" y="118.3" class="st6" width="2.4" height="2.4"/>
			<rect x="66.8" y="120.5" class="st6" width="2.4" height="4.6"/>
			<rect x="62" y="95" class="st6" width="2.4" height="2.4"/>
			<rect x="64.4" y="92.6" class="st6" width="2.4" height="2.4"/>
			<rect x="66.8" y="90.4" class="st6" width="2.4" height="2.4"/>
			<rect x="69" y="88" class="st6" width="2.4" height="2.4"/>
		</g>
		<g>
			<polygon class="st7" points="80.7,67.1 80.7,69.5 76.1,69.5 76.1,71.7 71.4,71.7 71.4,74.1 64.4,74.1 64.4,71.7 62.2,71.7 
				62.2,69.5 64.4,69.5 64.4,67.1 71.4,67.1 71.4,64.8 64.4,64.8 64.4,62.5 73.7,62.5 73.7,64.8 76.1,64.8 78.3,64.8 78.3,67.1 			
				"/>
			<rect x="62" y="64.8" class="st7" width="2.4" height="2.4"/>
			<rect x="80.7" y="69.5" class="st7" width="2.4" height="2.4"/>
		</g>
		<g>
			<rect x="43.5" y="55.5" class="st7" width="2.4" height="2.4"/>
			<polygon class="st7" points="55.2,67.1 55.2,69.5 57.4,69.5 57.4,71.7 52.8,71.7 52.8,69.5 50.5,69.5 50.5,67.1 48.2,67.1 
				48.2,64.8 48.2,60.1 45.8,60.1 45.8,57.8 48.2,57.8 50.5,57.8 50.5,60.1 52.8,60.1 55.2,60.1 55.2,62.5 57.4,62.5 57.4,67.1 
				55.2,67.1 55.2,64.8 52.8,64.8 52.8,62.5 50.5,62.5 50.5,64.8 52.8,64.8 52.8,67.1 			"/>
		</g>
		<g>
			<rect x="24.9" y="97.4" class="st7" width="2.4" height="2.4"/>
			<polygon class="st7" points="34.3,85.7 34.3,88 31.9,88 31.9,90.4 29.5,90.4 29.5,92.6 31.9,92.6 31.9,90.4 34.3,90.4 34.3,88 
				41.2,88 43.5,88 43.5,92.6 41.2,92.6 38.9,92.6 38.9,95 29.5,95 29.5,97.4 27.3,97.4 27.3,95 27.3,90.4 27.3,88 29.5,88 
				29.5,85.7 31.9,85.7 31.9,83.4 34.3,83.4 34.3,81.1 38.9,81.1 41.2,81.1 41.2,83.4 43.5,83.4 43.5,85.7 41.2,85.7 			"/>
		</g>
		<polygon class="st7" points="57.4,104.3 57.4,118.3 52.8,118.3 52.8,120.5 50.5,120.5 50.5,127.5 48.2,127.5 48.2,132.2 
			45.8,132.2 45.8,134.6 43.5,134.6 43.5,129.9 41.2,129.9 41.2,122.9 38.9,122.9 38.9,106.6 41.2,106.6 41.2,104.3 43.5,104.3 
			43.5,102 48.2,102 50.5,102 50.5,104.3 50.5,106.6 48.2,106.6 48.2,109 45.8,109 45.8,111.3 43.5,111.3 43.5,115.9 45.8,115.9 
			45.8,111.3 48.2,111.3 48.2,109 50.5,109 50.5,106.6 52.8,106.6 52.8,104.3 		"/>
		<g>
			<polygon class="st7" points="83.1,81.1 83.1,83.4 80.7,83.4 80.7,88 80.7,90.4 78.3,90.4 78.3,92.6 78.3,95 76.1,95 76.1,97.4 
				73.7,97.4 73.7,99.6 71.4,99.6 71.4,102 62.2,102 62.2,99.6 62.2,97.4 64.4,97.4 64.4,95 66.8,95 66.8,92.6 69.1,92.6 69.1,90.4 
				71.4,90.4 71.4,88 69.1,88 69.1,90.4 66.8,90.4 66.8,92.6 64.4,92.6 64.4,95 62.2,95 62.2,97.4 59.8,97.4 59.8,85.7 62.2,85.7 
				62.2,83.4 64.4,83.4 66.8,83.4 66.8,81.1 71.4,81.1 73.7,81.1 73.7,78.7 80.7,78.7 80.7,81.1 			"/>
			<rect x="83.1" y="83.4" class="st7" width="2.4" height="2.4"/>
		</g>
		<polygon class="st6" points="45.8,69.5 45.8,76.5 43.5,76.5 43.5,78.7 41.2,78.7 38.9,78.7 38.9,76.5 36.5,76.5 36.5,74.1 
			34.3,74.1 34.3,69.5 31.9,69.5 31.9,62.5 34.3,62.5 34.3,53.2 36.5,53.2 36.5,50.8 38.9,50.8 38.9,57.8 41.2,57.8 41.2,62.5 
			43.5,62.5 43.5,69.5 		"/>
		<polygon class="st6" points="66.8,41.6 64.4,41.6 64.4,50.8 62.2,50.8 59.8,50.8 59.8,53.2 57.4,53.2 57.4,50.8 55.2,50.8 
			55.2,48.6 52.8,48.6 52.8,36.9 55.2,36.9 55.2,27.5 52.8,27.5 52.8,20.5 55.2,20.5 55.2,11.3 57.4,11.3 57.4,6.6 59.8,6.6 
			59.8,11.3 62.2,11.3 62.2,25.3 64.4,25.3 64.4,34.5 66.8,34.5 		"/>
		<rect x="41.2" y="115.9" class="st8" width="2.4" height="2.4"/>
		<rect x="27.3" y="90.3" class="st8" width="2.4" height="2.4"/>
		<rect x="69.1" y="83.3" class="st8" width="4.6" height="2.4"/>
		<rect x="71.4" y="62.4" class="st8" width="2.4" height="2.4"/>
		<rect x="48.2" y="60.1" class="st8" width="2.4" height="2.4"/>
		<rect x="55.2" y="69.4" class="st9" width="2.4" height="2.4"/>
		<rect x="62.2" y="69.4" class="st9" width="2.4" height="2.4"/>
		<rect x="64.5" y="71.8" class="st9" width="2.4" height="2.4"/>
		<rect x="62.1" y="99.7" class="st9" width="4.6" height="2.4"/>
		<rect x="55.2" y="106.7" class="st9" width="2.4" height="9.3"/>
		<rect x="50.5" y="115.9" class="st9" width="2.4" height="2.4"/>
		<rect x="38.8" y="90.3" class="st9" width="2.4" height="2.4"/>
		<rect x="41.2" y="88" class="st7" width="2.4" height="2.4"/>
		<rect x="59.8" y="36.9" class="st7" width="2.4" height="2.4"/>
		<rect x="57.5" y="23" class="st7" width="2.4" height="4.6"/>
		<rect x="59.8" y="11.2" class="st7" width="2.4" height="2.4"/>
		<rect x="62.2" y="27.6" class="st8" width="2.4" height="2.4"/>
		<rect x="57.5" y="6.6" class="st8" width="2.4" height="2.4"/>
		<rect x="55.2" y="15.9" class="st8" width="2.4" height="2.4"/>
		<rect x="55.2" y="36.9" class="st8" width="2.4" height="2.4"/>
		<rect x="59.8" y="43.8" class="st8" width="2.4" height="2.4"/>
		<rect x="34.3" y="50.8" class="st8" width="2.4" height="2.4"/>
		<rect x="38.8" y="57.8" class="st8" width="2.4" height="2.4"/>
		<rect x="34.3" y="62.4" class="st8" width="2.4" height="2.4"/>
		<rect x="57.5" y="48.4" class="st9" width="2.4" height="2.4"/>
		<rect x="59.8" y="27.6" class="st9" width="2.4" height="2.4"/>
		<rect x="34.3" y="71.8" class="st9" width="2.4" height="2.4"/>
		<rect x="36.5" y="74" class="st9" width="2.4" height="2.4"/>
		<rect x="38.8" y="69.4" class="st9" width="2.4" height="2.4"/>
		<rect x="36.5" y="71.8" class="st7" width="2.4" height="2.4"/>
		<rect x="36.4" y="60" class="st7" width="2.4" height="2.4"/>
		<rect x="52.8" y="41.5" class="st10" width="2.4" height="4.6"/>
		<rect x="50.5" y="39.1" class="st10" width="2.4" height="2.4"/>
		<rect x="57.5" y="43.9" class="st10" width="2.4" height="4.6"/>
		<rect x="62.2" y="43.9" class="st10" width="2.4" height="4.6"/>
		<rect x="52.8" y="48.4" class="st10" width="2.4" height="2.4"/>
		<rect x="64.5" y="34.6" class="st10" width="2.4" height="2.4"/>
		<rect x="55.2" y="27.7" class="st10" width="2.4" height="4.6"/>
		<rect x="59.8" y="32.2" class="st10" width="2.4" height="2.4"/>
		<rect x="59.8" y="20.6" class="st10" width="2.4" height="2.4"/>
		<rect x="55.2" y="13.6" class="st10" width="2.4" height="2.4"/>
		<rect x="31.9" y="64.9" class="st10" width="2.4" height="4.6"/>
		<rect x="36.5" y="64.9" class="st10" width="2.4" height="4.6"/>
		<rect x="38.9" y="60.1" class="st10" width="2.4" height="4.6"/>
		<rect x="43.5" y="71.8" class="st10" width="2.4" height="4.6"/>
		<rect x="38.8" y="76.3" class="st10" width="2.4" height="2.4"/>
		<rect x="34.3" y="74" class="st10" width="2.4" height="2.4"/>
		<rect x="34.3" y="53.1" class="st10" width="2.4" height="2.4"/>
		<rect x="62.2" y="43.8" class="st11" width="2.4" height="2.4"/>
		<rect x="52.8" y="41.4" class="st11" width="2.4" height="2.4"/>
		<rect x="55.2" y="29.9" class="st11" width="2.4" height="2.4"/>
		<rect x="59.8" y="18.2" class="st11" width="2.4" height="2.4"/>
		<rect x="38.8" y="60.1" class="st11" width="2.4" height="2.4"/>
		<rect x="31.9" y="67.1" class="st11" width="2.4" height="2.4"/>
		<rect x="43.5" y="74" class="st11" width="2.4" height="2.4"/>
		<rect x="36.5" y="67.1" class="st11" width="2.4" height="2.4"/>
		<rect x="41.2" y="71.8" class="st7" width="2.4" height="4.6"/>
		<rect x="55.2" y="43.9" class="st7" width="2.4" height="4.6"/>
		<rect x="59.8" y="46.1" class="st7" width="2.4" height="2.4"/>
		<rect x="57.5" y="41.4" class="st7" width="2.4" height="2.4"/>
		<rect x="57.5" y="32.2" class="st7" width="2.4" height="2.4"/>
		<rect x="52.8" y="22.9" class="st7" width="2.4" height="2.4"/>
		<rect x="57.5" y="22.9" class="st8" width="2.4" height="2.4"/>
		<rect x="59.8" y="15.9" class="st8" width="2.4" height="2.4"/>
		<rect x="41.2" y="64.8" class="st8" width="2.4" height="2.4"/>
		<rect x="62.2" y="39.1" class="st8" width="2.4" height="2.4"/>
		<rect x="34.3" y="55.4" class="st8" width="2.4" height="2.4"/>
	</g>
	<rect x="69" y="125.3" class="st6" width="2.4" height="4.6"/>
	<rect x="71.4" y="129.9" class="st6" width="2.4" height="4.6"/>
</g>
<rect x="73.7" y="142.2" class="st6" width="105" height="2.3"/>
<path class="st12" d="M238.5,144.8v-3.2H237v1.6h-1.6v-4.7h-1.6v-4.7h-1.6v4.7h-1.6v-3.2h-1.6v-3.2h-1.6v3.2h-1.6v-3.2h-1.6V129
	h-1.6c0,2,0,7.4,0,9.5h-1.6v-1.6h-1.6v-1.6H218V129h-1.6v3.2h-1.6v4.7h-1.4c0-0.3,0-0.5,0-0.8h-0.2v-0.8h-1.4v-2.4h-1.6v0.8h-0.2
	v-1.6h-1.4v-2.4h-1.6v-4.7h-1.6v4.7H204v-3.2h-1.6v-3.2h-1.6v3.2h-1.6v-3.2h-1.6v-3.2h-1.6c0,1.1,0,3.3,0,5.4H196v4.1h-1.5l-0.1-1.6
	v-0.9h-1.1v0.9H193c0-0.5,0-1.1,0-1.6h-0.1h-1.5h-0.1v-6.3h-1.6v3.2h-1.6v4.7h-1.5v-1.6h-0.1h-1.4h-0.1v3.2h-1.6v-1.6h-1.6v-6.3
	h-1.6v12.6h-1.6v-4.7h-1.6v-3.2h-1.6v-1.6H174v-1.6h-1.6v4.7h-1.6v-3.2h-1.6v3.2h-1.6v-4.7h-1.6v1.6h-1.6v1.6H163v-6.3h-1.6v6.3
	h-1.6v-3.2h-1.6v6.3h-1.6v-6.3h-1.6v-3.2h-1.6v3.2h-1.6v1.6h-1.6v3.2h-1.6v3.2h-1.6c0-1,0-3.7,0-4.7h-1.6v1.6H144v3.2h-1.6v-4.7
	h-1.6v-3.2h-1.6v4.7h-1.6v-1.6h-1.6v3.2h-1.6v1.6H133v-9.5h-1.6v6.3h-1.6v-1.6h-1.6v1.6h-1.6v0.1h-1.5v4.6h-0.1v-1.6h-1.6v-1.6h-1.6
	v-3.2h-1.6v-1.6h-1.6c0,0.5,0,1.9,0,3.3h-1.5v3h-0.1v-6.3h-1.6v3.2H114v-4.7h-1.6v1.6h-1.6v-4.7h-1.6c0,2.4,0,7.1,0,9.5h-1.6v-4.7
	h-1.6v1.6h-1.6v1.6H103v-3.2h-1.6v-3.2h-1.6v6.3h-1.6v-1.6h-1.6v1.6h-1.6v1.6h-1.6v-4.7h-1.6v-3.2h-1.6v4.7h-1.6v1.6h-1.6v-3.2h-1.6
	v-3.2H84v1.6h-1.6v3.2h-1.6v1.6h-1.6v-3.2h-1.6v-1.6h-1.6v1.6h-1.6v1.6H73v1.6h-1.6v-4.7h-1.6v-3.2h-1.6v6.3h-1.6v1.6h-1.6v1.6h-1.6
	c0-2.1,0-7.4,0-9.5h-1.6v3.2h-1.6v3.2h-1.6v-3.2h-1.6v3.2h-1.6v3.2H54v-4.7h-1.6v4.7h-1.6v3.3h-1.5v-3.2h-1.6v1.6h-1.6v3.2h-1.6v1.6
	H43v-3.2h-1.6v-1.6h-1.6v1.6h-1.6v1.6h-1.6v1.6h-1.6v-4.7h-1.6v-3.2H32v6.3h-1.6v1.6h-1.6v1.6h-1.6c0-2.1,0-7.4,0-9.5h-1.6v3.2h-1.6
	v3.2h-1.6v-3.2h-1.6v3.2h-1.6v3.2h-1.6v-4.7h-1.6v4.7h-1.6v4.7H13V141h-1.6v3.2H9.9c0,2.1,0,0,0,2.2c45.3,0,214.9,0,230.2,0
	c0-2.2,0,0.6,0-1.5H238.5z"/>
<g>
	<polygon class="st13" points="147,125 144.8,125 144.8,127.2 142.6,127.2 142.6,129.3 107.4,129.3 107.4,127.2 105.2,127.2 
		105.2,125 103,125 103,114.2 105.2,114.2 105.2,112.1 107.4,112.1 107.4,109.9 142.6,109.9 142.6,112.1 144.8,112.1 144.8,114.2 
		147,114.2 	"/>
	<rect x="136" y="114.3" class="st14" width="2.2" height="4.3"/>
	<rect x="142.6" y="114.3" class="st14" width="2.2" height="4.3"/>
	<rect x="138.2" y="120.7" class="st14" width="4.4" height="2.2"/>
	<rect x="111.8" y="129.3" class="st14" width="2.2" height="8.6"/>
	<rect x="136" y="129.3" class="st14" width="2.2" height="8.6"/>
	<rect x="131.6" y="129.3" class="st14" width="2.2" height="8.6"/>
	<rect x="116.2" y="129.3" class="st14" width="2.2" height="8.6"/>
	<rect x="136" y="99.2" class="st14" width="2.2" height="10.8"/>
	<polygon class="st15" points="136.1,88.5 140.3,93 138.8,94.4 140.2,95.9 138.7,97.2 140,98.8 135.4,102.8 134.1,101.3 
		132.5,102.7 131.1,101.2 129.6,102.6 125.4,98.1 130,94 131.4,95.5 132.9,94.1 131.5,92.6 	"/>
</g>
<g>
	<polygon class="st16" points="84.9,40.3 84.9,37.9 83.7,37.9 83.7,35.5 82.5,35.5 82.5,33 81.3,33 81.3,35.5 80.1,35.5 80.1,37.9 
		78.9,37.9 78.9,40.3 77.6,40.3 77.6,46.4 78.9,46.4 78.9,47.6 84.9,47.6 84.9,46.4 86.1,46.4 86.1,40.3 	"/>
	<g>
		<rect x="78.9" y="42.8" class="st17" width="1.2" height="2.4"/>
		<rect x="80.1" y="45.2" class="st17" width="1.2" height="1.2"/>
	</g>
</g>
<g>
	<polygon class="st16" points="41.9,19.4 41.9,17 40.7,17 40.7,14.5 39.5,14.5 39.5,12.1 38.3,12.1 38.3,14.5 37.1,14.5 37.1,17 
		35.9,17 35.9,19.4 34.7,19.4 34.7,25.5 35.9,25.5 35.9,26.7 41.9,26.7 41.9,25.5 43.2,25.5 43.2,19.4 	"/>
	<g>
		<rect x="35.9" y="21.8" class="st17" width="1.2" height="2.4"/>
		<rect x="37.1" y="24.2" class="st17" width="1.2" height="1.2"/>
	</g>
</g>
<g>
	<polygon class="st16" points="23.7,117.1 23.7,114.7 22.5,114.7 22.5,112.3 21.3,112.3 21.3,109.8 20.1,109.8 20.1,112.3 
		18.9,112.3 18.9,114.7 17.6,114.7 17.6,117.1 16.4,117.1 16.4,123.2 17.6,123.2 17.6,124.4 23.7,124.4 23.7,123.2 24.9,123.2 
		24.9,117.1 	"/>
	<g>
		<rect x="17.6" y="119.5" class="st17" width="1.2" height="2.4"/>
		<rect x="18.9" y="122" class="st17" width="1.2" height="1.2"/>
	</g>
</g>
<g>
	<polygon class="st16" points="163.7,40.3 163.7,37.9 164.9,37.9 164.9,35.5 166.1,35.5 166.1,33 167.4,33 167.4,35.5 168.6,35.5 
		168.6,37.9 169.8,37.9 169.8,40.3 171,40.3 171,46.4 169.8,46.4 169.8,47.6 163.7,47.6 163.7,46.4 162.5,46.4 162.5,40.3 	"/>
	<g>
		<rect x="168.6" y="42.8" class="st17" width="1.2" height="2.4"/>
		<rect x="167.4" y="45.2" class="st17" width="1.2" height="1.2"/>
	</g>
</g>
<g>
	<polygon class="st16" points="206.7,19.4 206.7,17 207.9,17 207.9,14.5 209.1,14.5 209.1,12.1 210.3,12.1 210.3,14.5 211.6,14.5 
		211.6,17 212.8,17 212.8,19.4 214,19.4 214,25.5 212.8,25.5 212.8,26.7 206.7,26.7 206.7,25.5 205.5,25.5 205.5,19.4 	"/>
	<g>
		<rect x="211.6" y="21.8" class="st17" width="1.2" height="2.4"/>
		<rect x="210.3" y="24.2" class="st17" width="1.2" height="1.2"/>
	</g>
</g>
<g>
	<polygon class="st16" points="224.9,117.1 224.9,114.7 226.2,114.7 226.2,112.3 227.4,112.3 227.4,109.8 228.6,109.8 228.6,112.3 
		229.8,112.3 229.8,114.7 231,114.7 231,117.1 232.2,117.1 232.2,123.2 231,123.2 231,124.4 224.9,124.4 224.9,123.2 223.7,123.2 
		223.7,117.1 	"/>
	<g>
		<rect x="229.8" y="119.5" class="st17" width="1.2" height="2.4"/>
		<rect x="228.6" y="122" class="st17" width="1.2" height="1.2"/>
	</g>
</g>
</svg>
