<?xml version="1.0" encoding="utf-8"?>
<!-- Generator: Adobe Illustrator 25.2.3, SVG Export Plug-In . SVG Version: 6.00 Build 0)  -->
<svg version="1.1" id="Layer_1" xmlns="http://www.w3.org/2000/svg" xmlns:xlink="http://www.w3.org/1999/xlink" x="0px" y="0px"
	 viewBox="0 0 250 150" style="enable-background:new 0 0 250 150;" xml:space="preserve">
<style type="text/css">
	.st0{fill:#D2C6B1;}
	.st1{fill:#8C2429;}
	.st2{fill:#41B5B1;}
	.st3{fill:#E3DBCE;}
	.st4{fill:#9CA051;}
	.st5{fill:#343533;}
	.st6{fill:#B16447;}
	.st7{fill:#EFBD38;}
	.st8{fill:#1D5B76;}
	.st9{fill:#E3963A;}
	.st10{fill:#DD5832;}
	.st11{fill:#613C34;}
	.st12{fill:#706353;}
	.st13{fill:#010101;}
	.st14{fill:#33A14D;}
	.st15{fill:#E4DED5;}
	.st16{fill:#C0B5AA;}
	.st17{fill:#D18238;}
</style>
<polygon class="st0" points="154.3,85.6 160.3,85.6 160.3,83.2 178.6,83.2 178.6,82 185.9,82 185.9,80.8 185.9,79.5 187.1,79.5 
	187.1,80.8 188.3,80.8 188.3,83.2 188.3,84.4 189.5,84.4 189.5,86.8 189.5,88 190.7,88 190.7,89.3 191.9,89.3 191.9,91.7 
	193.1,91.7 193.1,94.1 194.4,94.1 194.4,96.6 195.6,96.6 195.6,99 194.4,99 194.4,100.2 167.6,100.2 167.6,102.6 164,102.6 
	164,103.8 162.8,103.8 162.8,102.6 161.6,102.6 161.6,99 160.3,99 160.3,96.6 157.9,96.6 157.9,95.3 154.3,95.3 "/>
<polygon class="st1" points="155.5,83.2 155.5,82 160.3,82 160.3,79.5 185.9,79.5 185.9,82 183.4,82 183.4,83.2 181,83.2 181,84.4 
	176.1,84.4 176.1,85.6 155.5,85.6 155.5,84.4 154.3,84.4 154.3,83.2 "/>
<polygon class="st2" points="167.6,37 167.6,38.2 168.8,38.2 172.5,38.2 172.5,39.4 176.1,39.4 176.1,40.7 177.3,40.7 179.8,40.7 
	179.8,41.9 182.2,41.9 182.2,43.1 183.4,43.1 183.4,44.3 185.9,44.3 185.9,45.5 187.1,45.5 188.3,45.5 188.3,46.7 187.1,46.7 
	187.1,51.6 166.4,51.6 166.4,45.5 166.4,44.3 165.2,44.3 165.2,40.7 164,40.7 164,39.4 164,38.2 164,37 "/>
<polygon class="st3" points="161.6,43.1 161.6,41.9 166.4,41.9 166.4,43.1 167.6,43.1 167.6,46.7 166.4,46.7 166.4,48 161.6,48 
	161.6,46.7 160.3,46.7 160.3,43.1 "/>
<polygon class="st3" points="187.1,51.6 187.1,49.2 188.3,49.2 190.7,49.2 190.7,66.2 188.3,66.2 188.3,65 187.1,65 187.1,62.5 
	188.3,62.5 188.3,51.6 "/>
<polygon class="st4" points="159.1,79.5 159.1,78.3 161.6,78.3 161.6,77.1 162.8,77.1 162.8,75.9 167.6,75.9 167.6,77.1 172.5,77.1 
	172.5,75.9 183.4,75.9 183.4,77.1 187.1,77.1 187.1,78.3 185.9,78.3 185.9,79.5 184.6,79.5 184.6,80.8 182.2,80.8 182.2,82 
	179.8,82 179.8,83.2 174.9,83.2 174.9,84.4 157.9,84.4 157.9,83.2 156.7,83.2 156.7,80.8 156.7,79.5 "/>
<polygon class="st5" points="183.4,58.9 183.4,62.5 184.6,62.5 184.6,67.4 185.9,67.4 185.9,68.6 185.9,69.8 187.1,69.8 187.1,71 
	188.3,71 188.3,72.3 189.5,72.3 189.5,73.5 189.5,74.7 190.7,74.7 190.7,75.9 191.9,75.9 191.9,77.1 193.1,77.1 193.1,78.3 
	194.4,78.3 194.4,79.5 195.6,79.5 195.6,80.8 188.3,80.8 188.3,79.5 183.4,79.5 183.4,78.3 181,78.3 181,77.1 177.3,77.1 
	177.3,75.9 176.1,75.9 173.7,75.9 173.7,65 173.7,61.3 173.7,58.9 "/>
<polygon class="st1" points="190.7,54 190.7,52.8 189.5,52.8 189.5,49.2 190.7,49.2 190.7,48 191.9,48 191.9,46.7 194.4,46.7 
	194.4,45.5 195.6,45.5 195.6,46.7 196.8,46.7 196.8,48 196.8,49.2 198,49.2 198,51.6 199.2,51.6 199.2,54 199.2,56.5 199.2,60.1 
	199.2,62.5 199.2,65 198,65 198,67.4 196.8,67.4 196.8,68.6 196.8,69.8 195.6,69.8 195.6,71 194.4,71 194.4,69.8 191.9,69.8 
	191.9,68.6 190.7,68.6 190.7,67.4 189.5,67.4 189.5,65 189.5,63.7 189.5,58.9 190.7,58.9 190.7,56.5 "/>
<polygon class="st6" points="157.9,65 157.9,63.7 159.1,63.7 159.1,61.3 160.3,61.3 160.3,60.1 160.3,58.9 160.3,58.9 160.3,57.7 
	160.3,57.7 160.3,56.5 161.6,56.5 170.1,56.5 171.3,56.5 172.5,56.5 172.5,62.5 172.5,63.7 172.5,66.2 171.3,66.2 171.3,68.6 
	171.3,72.3 171.3,73.5 173.7,73.5 173.7,74.7 173.7,75.9 174.9,75.9 174.9,77.1 173.7,77.1 173.7,78.3 167.6,78.3 167.6,77.1 
	164,77.1 164,75.9 164,74.7 164,73.5 160.3,73.5 160.3,72.3 159.1,72.3 159.1,69.8 159.1,69.8 159.1,67.4 159.1,67.4 159.1,65 "/>
<polygon class="st2" points="171.3,67.4 171.3,66.2 176.1,66.2 176.1,67.4 177.3,67.4 177.3,72.3 176.1,72.3 176.1,73.5 171.3,73.5 
	171.3,72.3 170.1,72.3 170.1,67.4 "/>
<polygon class="st3" points="198,51.6 198,49.2 196.8,49.2 196.8,46.7 195.6,46.7 195.6,44.3 196.8,44.3 196.8,43.1 198,43.1 
	198,41.9 199.2,41.9 199.2,40.7 200.4,40.7 200.4,43.1 201.6,43.1 201.6,45.5 202.9,45.5 202.9,48 204.1,48 204.1,51.6 205.3,51.6 
	205.3,65 204.1,65 204.1,68.6 202.9,68.6 202.9,71 201.6,71 201.6,73.5 200.4,73.5 200.4,75.9 199.2,75.9 199.2,74.7 198,74.7 
	198,73.5 196.8,73.5 196.8,72.3 195.6,72.3 195.6,69.8 196.8,69.8 196.8,67.4 198,67.4 198,65 199.2,65 199.2,51.6 "/>
<g>
	<rect x="157.9" y="50.4" class="st1" width="2.4" height="2.4"/>
	<polygon class="st1" points="172.5,52.8 172.5,54 177.3,54 177.3,55.2 179.8,55.2 181,55.2 181,56.5 182.2,56.5 182.2,57.7 
		182.2,58.9 181,58.9 179.8,58.9 179.8,57.7 173.7,57.7 173.7,56.5 172.5,56.5 172.5,55.2 162.8,55.2 162.8,56.5 157.9,56.5 
		157.9,55.2 159.1,55.2 159.1,54 160.3,54 160.3,52.8 	"/>
</g>
<polygon class="st1" points="187.1,49.2 187.1,51.6 188.3,51.6 188.3,62.5 187.1,62.5 187.1,63.7 185.9,63.7 185.9,49.2 "/>
<g>
	<polygon class="st3" points="172.5,56.5 173.7,56.5 173.7,57.7 179.8,57.7 179.8,58.9 173.7,58.9 173.7,66.2 172.5,66.2 
		172.5,58.9 172.5,57.7 162.8,57.7 162.8,55.2 172.5,55.2 	"/>
	<polygon class="st3" points="176.1,50.4 176.1,51.6 181,51.6 181,52.8 182.2,52.8 183.4,52.8 183.4,50.4 185.9,50.4 185.9,62.5 
		183.4,62.5 183.4,58.9 182.2,58.9 182.2,56.5 181,56.5 181,55.2 177.3,55.2 177.3,54 172.5,54 172.5,52.8 161.6,52.8 161.6,51.6 
		161.6,50.4 	"/>
</g>
<g>
	
		<rect x="125.2" y="130.8" transform="matrix(0.7071 -0.7071 0.7071 0.7071 -56.9451 127.8158)" class="st7" width="1.2" height="3.6"/>
	<rect x="124" y="132" transform="matrix(0.7071 -0.7071 0.7071 0.7071 -56.9451 127.8158)" class="st7" width="3.6" height="1.2"/>
	<path class="st8" d="M128.4,129.2l-0.9-0.9l-1.7,1.7l-1.7-1.7l-0.9,0.9l-1.7-1.7l-0.9,0.9l1.7,1.7l-0.9,0.9l1.7,1.7l-1.7,1.7
		l0.9,0.9l-1.7,1.7l0.9,0.9l1.7-1.7l0.9,0.9l1.7-1.7l1.7,1.7l0.9-0.9l1.7,1.7l0.9-0.9l-1.7-1.7l0.9-0.9l-1.7-1.7l1.7-1.7l-0.9-0.9
		l1.7-1.7l-0.9-0.9L128.4,129.2z M127.5,131.8l-0.9,0.9l0.9,0.9l-0.9,0.9l-0.9-0.9l-0.9,0.9l-0.9-0.9l0.9-0.9l-0.9-0.9l0.9-0.9
		l0.9,0.9l0.9-0.9L127.5,131.8z"/>
	<g>
		<path class="st2" d="M131,126.6l-0.9-0.9l-0.9,0.9l-0.9-0.9l-2.6,2.6l-2.6-2.6l-0.9,0.9l-0.9-0.9l-0.9,0.9l-0.9-0.9l-0.9,0.9
			l0.9,0.9l-0.9,0.9l0.9,0.9l-0.9,0.9l2.6,2.6l-2.6,2.6l0.9,0.9l-0.9,0.9l0.9,0.9l-0.9,0.9l0.9,0.9l0.9-0.9l0.9,0.9l0.9-0.9l0.9,0.9
			l2.6-2.6l2.6,2.6l0.9-0.9l0.9,0.9l0.9-0.9l0.9,0.9l0.9-0.9l-0.9-0.9l0.9-0.9l-0.9-0.9l0.9-0.9l-2.6-2.6l2.6-2.6l-0.9-0.9l0.9-0.9
			l-0.9-0.9l0.9-0.9l-0.9-0.9L131,126.6z M131,128.4l-1.7,1.7l0.9,0.9l-0.9,0.9l-0.9,0.9l0.9,0.9l0.9,0.9l-0.9,0.9l1.7,1.7l-0.9,0.9
			l-1.7-1.7l-0.9,0.9l-0.9-0.9l-0.9-0.9l-0.9,0.9l-0.9,0.9l-0.9-0.9l-1.7,1.7l-0.9-0.9l1.7-1.7l-0.9-0.9l0.9-0.9l0.9-0.9l-0.9-0.9
			l-0.9-0.9l0.9-0.9l-1.7-1.7l0.9-0.9l1.7,1.7l0.9-0.9l0.9,0.9l0.9,0.9l0.9-0.9l0.9-0.9l0.9,0.9l1.7-1.7L131,128.4z"/>
		
			<rect x="125.2" y="130.3" transform="matrix(0.7071 -0.7071 0.7071 0.7071 -55.7301 127.3126)" class="st2" width="1.2" height="1.2"/>
		
			<rect x="123.5" y="132" transform="matrix(0.7071 -0.7071 0.7071 0.7071 -57.4484 126.6008)" class="st2" width="1.2" height="1.2"/>
		
			<rect x="125.2" y="133.8" transform="matrix(0.7071 -0.7071 0.7071 0.7071 -58.1601 128.3191)" class="st2" width="1.2" height="1.2"/>
		
			<rect x="126.9" y="132" transform="matrix(0.7071 -0.7071 0.7071 0.7071 -56.4418 129.0308)" class="st2" width="1.2" height="1.2"/>
	</g>
</g>
<g>
	<polygon class="st7" points="123.9,20.6 123.9,14.5 126.3,14.5 126.3,13.3 131.2,13.3 131.2,10.9 132.4,10.9 132.4,9.7 137.3,9.7 
		137.3,10.9 138.5,10.9 138.5,13.3 143.3,13.3 143.3,14.5 145.8,14.5 145.8,20.6 144.5,20.6 144.5,21.8 145.8,21.8 145.8,26.7 
		144.5,26.7 144.5,27.9 143.3,27.9 143.3,29.1 138.5,29.1 138.5,31.6 137.3,31.6 137.3,32.8 132.4,32.8 132.4,31.6 131.2,31.6 
		131.2,29.1 126.3,29.1 126.3,27.9 125.1,27.9 125.1,26.7 123.9,26.7 123.9,21.8 125.1,21.8 125.1,20.6 	"/>
	<g>
		<rect x="139.7" y="15.8" class="st9" width="1.2" height="1.2"/>
		<rect x="138.5" y="17" class="st9" width="1.2" height="1.2"/>
		<polygon class="st9" points="138.5,17 137.3,17 137.3,15.8 137.3,13.3 138.5,13.3 138.5,15.8 		"/>
		<rect x="143.3" y="13.3" class="st9" width="1.2" height="1.2"/>
		<rect x="144.5" y="14.5" class="st9" width="1.2" height="1.2"/>
		<rect x="145.8" y="15.8" class="st9" width="1.2" height="4.9"/>
		<polygon class="st9" points="143.3,23 140.9,23 140.9,21.8 143.3,21.8 144.5,21.8 144.5,23 		"/>
		<polygon class="st9" points="139.7,20.6 139.7,19.4 140.9,19.4 140.9,20.6 140.9,21.8 139.7,21.8 		"/>
		<rect x="128.7" y="15.8" class="st9" width="1.2" height="1.2"/>
		<rect x="130" y="17" class="st9" width="1.2" height="1.2"/>
		<polygon class="st9" points="132.4,15.8 132.4,17 131.2,17 131.2,15.8 131.2,13.3 132.4,13.3 		"/>
		<polygon class="st9" points="131.2,13.3 130,13.3 127.5,13.3 126.3,13.3 126.3,12.1 127.5,12.1 130,12.1 130,10.9 131.2,10.9 
			131.2,12.1 		"/>
		<rect x="125.1" y="13.3" class="st9" width="1.2" height="1.2"/>
		<rect x="123.9" y="14.5" class="st9" width="1.2" height="1.2"/>
		<rect x="122.7" y="15.8" class="st9" width="1.2" height="4.9"/>
		<polygon class="st9" points="128.7,21.8 128.7,23 126.3,23 125.1,23 125.1,21.8 126.3,21.8 		"/>
		<polygon class="st9" points="128.7,19.4 130,19.4 130,20.6 130,21.8 128.7,21.8 128.7,20.6 		"/>
		<polygon class="st9" points="139.7,13.3 138.5,13.3 138.5,12.1 138.5,10.9 139.7,10.9 139.7,12.1 142.1,12.1 143.3,12.1 
			143.3,13.3 142.1,13.3 		"/>
		<rect x="137.3" y="9.7" class="st9" width="1.2" height="1.2"/>
		<rect x="131.2" y="9.7" class="st9" width="1.2" height="1.2"/>
		<rect x="132.4" y="8.5" class="st9" width="4.9" height="1.2"/>
		<rect x="139.7" y="25.5" class="st9" width="1.2" height="1.2"/>
		<rect x="138.5" y="24.3" class="st9" width="1.2" height="1.2"/>
		<polygon class="st9" points="137.3,26.7 137.3,25.5 138.5,25.5 138.5,26.7 138.5,29.1 137.3,29.1 		"/>
		<rect x="143.3" y="27.9" class="st9" width="1.2" height="1.2"/>
		<rect x="144.5" y="26.7" class="st9" width="1.2" height="1.2"/>
		<rect x="145.8" y="21.8" class="st9" width="1.2" height="4.9"/>
		<rect x="144.5" y="20.6" class="st9" width="1.2" height="1.2"/>
		<rect x="128.7" y="25.5" class="st9" width="1.2" height="1.2"/>
		<rect x="130" y="24.3" class="st9" width="1.2" height="1.2"/>
		<polygon class="st9" points="131.2,25.5 132.4,25.5 132.4,26.7 132.4,29.1 131.2,29.1 131.2,26.7 		"/>
		<polygon class="st9" points="130,29.1 131.2,29.1 131.2,30.3 131.2,31.6 130,31.6 130,30.3 127.5,30.3 126.3,30.3 126.3,29.1 
			127.5,29.1 		"/>
		<rect x="125.1" y="27.9" class="st9" width="1.2" height="1.2"/>
		<rect x="123.9" y="26.7" class="st9" width="1.2" height="1.2"/>
		<rect x="122.7" y="21.8" class="st9" width="1.2" height="4.9"/>
		<rect x="123.9" y="20.6" class="st9" width="1.2" height="1.2"/>
		<polygon class="st9" points="138.5,29.1 139.7,29.1 142.1,29.1 143.3,29.1 143.3,30.3 142.1,30.3 139.7,30.3 139.7,31.6 
			138.5,31.6 138.5,30.3 		"/>
		<rect x="137.3" y="31.6" class="st9" width="1.2" height="1.2"/>
		<rect x="131.2" y="31.6" class="st9" width="1.2" height="1.2"/>
		<rect x="132.4" y="32.8" class="st9" width="4.9" height="1.2"/>
	</g>
	<polygon class="st10" points="131.2,20.6 132.4,20.6 132.4,19.4 133.6,19.4 133.6,18.2 136,18.2 136,19.4 137.3,19.4 137.3,20.6 
		138.5,20.6 138.5,21.8 137.3,21.8 137.3,23 136,23 136,24.3 133.6,24.3 133.6,23 132.4,23 132.4,21.8 131.2,21.8 	"/>
</g>
<g>
	<rect x="225.3" y="18" transform="matrix(0.7071 -0.7071 0.7071 0.7071 52.165 165.5734)" class="st7" width="1.2" height="3.6"/>
	
		<rect x="224.1" y="19.2" transform="matrix(0.7071 -0.7071 0.7071 0.7071 52.165 165.5734)" class="st7" width="3.6" height="1.2"/>
	<path class="st8" d="M228.5,16.4l-0.9-0.9l-1.7,1.7l-1.7-1.7l-0.9,0.9l-1.7-1.7l-0.9,0.9l1.7,1.7l-0.9,0.9l1.7,1.7l-1.7,1.7
		l0.9,0.9l-1.7,1.7l0.9,0.9l1.7-1.7l0.9,0.9l1.7-1.7l1.7,1.7l0.9-0.9l1.7,1.7l0.9-0.9l-1.7-1.7l0.9-0.9l-1.7-1.7l1.7-1.7l-0.9-0.9
		l1.7-1.7l-0.9-0.9L228.5,16.4z M227.7,19l-0.9,0.9l0.9,0.9l-0.9,0.9l-0.9-0.9l-0.9,0.9l-0.9-0.9l0.9-0.9l-0.9-0.9l0.9-0.9l0.9,0.9
		l0.9-0.9L227.7,19z"/>
	<g>
		<path class="st2" d="M231.1,13.8l-0.9-0.9l-0.9,0.9l-0.9-0.9l-2.6,2.6l-2.6-2.6l-0.9,0.9l-0.9-0.9l-0.9,0.9l-0.9-0.9l-0.9,0.9
			l0.9,0.9l-0.9,0.9l0.9,0.9l-0.9,0.9l2.6,2.6l-2.6,2.6l0.9,0.9l-0.9,0.9l0.9,0.9l-0.9,0.9l0.9,0.9l0.9-0.9l0.9,0.9l0.9-0.9l0.9,0.9
			l2.6-2.6l2.6,2.6l0.9-0.9l0.9,0.9l0.9-0.9l0.9,0.9l0.9-0.9L232,25l0.9-0.9l-0.9-0.9l0.9-0.9l-2.6-2.6l2.6-2.6l-0.9-0.9l0.9-0.9
			l-0.9-0.9l0.9-0.9l-0.9-0.9L231.1,13.8z M231.1,15.5l-1.7,1.7l0.9,0.9l-0.9,0.9l-0.9,0.9l0.9,0.9l0.9,0.9l-0.9,0.9l1.7,1.7
			l-0.9,0.9l-1.7-1.7l-0.9,0.9l-0.9-0.9l-0.9-0.9l-0.9,0.9l-0.9,0.9l-0.9-0.9l-1.7,1.7l-0.9-0.9l1.7-1.7l-0.9-0.9l0.9-0.9l0.9-0.9
			l-0.9-0.9l-0.9-0.9l0.9-0.9l-1.7-1.7l0.9-0.9l1.7,1.7l0.9-0.9l0.9,0.9l0.9,0.9l0.9-0.9l0.9-0.9l0.9,0.9l1.7-1.7L231.1,15.5z"/>
		
			<rect x="225.3" y="17.5" transform="matrix(0.7071 -0.7071 0.7071 0.7071 53.38 165.0701)" class="st2" width="1.2" height="1.2"/>
		
			<rect x="223.6" y="19.2" transform="matrix(0.7071 -0.7071 0.7071 0.7071 51.6617 164.3584)" class="st2" width="1.2" height="1.2"/>
		
			<rect x="225.3" y="20.9" transform="matrix(0.7071 -0.7071 0.7071 0.7071 50.95 166.0766)" class="st2" width="1.2" height="1.2"/>
		
			<rect x="227.1" y="19.2" transform="matrix(0.7071 -0.7071 0.7071 0.7071 52.6683 166.7884)" class="st2" width="1.2" height="1.2"/>
	</g>
</g>
<g>
	<polygon class="st7" points="217.6,80.4 217.6,74.3 220,74.3 220,73.1 224.9,73.1 224.9,70.7 226.1,70.7 226.1,69.5 231,69.5 
		231,70.7 232.2,70.7 232.2,73.1 237,73.1 237,74.3 239.5,74.3 239.5,80.4 238.2,80.4 238.2,81.6 239.5,81.6 239.5,86.5 238.2,86.5 
		238.2,87.7 237,87.7 237,88.9 232.2,88.9 232.2,91.4 231,91.4 231,92.6 226.1,92.6 226.1,91.4 224.9,91.4 224.9,88.9 220,88.9 
		220,87.7 218.8,87.7 218.8,86.5 217.6,86.5 217.6,81.6 218.8,81.6 218.8,80.4 	"/>
	<g>
		<rect x="233.4" y="75.6" class="st9" width="1.2" height="1.2"/>
		<rect x="232.2" y="76.8" class="st9" width="1.2" height="1.2"/>
		<polygon class="st9" points="232.2,76.8 231,76.8 231,75.6 231,73.1 232.2,73.1 232.2,75.6 		"/>
		<rect x="237" y="73.1" class="st9" width="1.2" height="1.2"/>
		<rect x="238.2" y="74.3" class="st9" width="1.2" height="1.2"/>
		<rect x="239.5" y="75.6" class="st9" width="1.2" height="4.9"/>
		<polygon class="st9" points="237,82.9 234.6,82.9 234.6,81.6 237,81.6 238.2,81.6 238.2,82.9 		"/>
		<polygon class="st9" points="233.4,80.4 233.4,79.2 234.6,79.2 234.6,80.4 234.6,81.6 233.4,81.6 		"/>
		<rect x="222.4" y="75.6" class="st9" width="1.2" height="1.2"/>
		<rect x="223.7" y="76.8" class="st9" width="1.2" height="1.2"/>
		<polygon class="st9" points="226.1,75.6 226.1,76.8 224.9,76.8 224.9,75.6 224.9,73.1 226.1,73.1 		"/>
		<polygon class="st9" points="224.9,73.1 223.7,73.1 221.2,73.1 220,73.1 220,71.9 221.2,71.9 223.7,71.9 223.7,70.7 224.9,70.7 
			224.9,71.9 		"/>
		<rect x="218.8" y="73.1" class="st9" width="1.2" height="1.2"/>
		<rect x="217.6" y="74.3" class="st9" width="1.2" height="1.2"/>
		<rect x="216.4" y="75.6" class="st9" width="1.2" height="4.9"/>
		<polygon class="st9" points="222.4,81.6 222.4,82.9 220,82.9 218.8,82.9 218.8,81.6 220,81.6 		"/>
		<polygon class="st9" points="222.4,79.2 223.7,79.2 223.7,80.4 223.7,81.6 222.4,81.6 222.4,80.4 		"/>
		<polygon class="st9" points="233.4,73.1 232.2,73.1 232.2,71.9 232.2,70.7 233.4,70.7 233.4,71.9 235.8,71.9 237,71.9 237,73.1 
			235.8,73.1 		"/>
		<rect x="231" y="69.5" class="st9" width="1.2" height="1.2"/>
		<rect x="224.9" y="69.5" class="st9" width="1.2" height="1.2"/>
		<rect x="226.1" y="68.3" class="st9" width="4.9" height="1.2"/>
		<rect x="233.4" y="85.3" class="st9" width="1.2" height="1.2"/>
		<rect x="232.2" y="84.1" class="st9" width="1.2" height="1.2"/>
		<polygon class="st9" points="231,86.5 231,85.3 232.2,85.3 232.2,86.5 232.2,88.9 231,88.9 		"/>
		<rect x="237" y="87.7" class="st9" width="1.2" height="1.2"/>
		<rect x="238.2" y="86.5" class="st9" width="1.2" height="1.2"/>
		<rect x="239.5" y="81.6" class="st9" width="1.2" height="4.9"/>
		<rect x="238.2" y="80.4" class="st9" width="1.2" height="1.2"/>
		<rect x="222.4" y="85.3" class="st9" width="1.2" height="1.2"/>
		<rect x="223.7" y="84.1" class="st9" width="1.2" height="1.2"/>
		<polygon class="st9" points="224.9,85.3 226.1,85.3 226.1,86.5 226.1,88.9 224.9,88.9 224.9,86.5 		"/>
		<polygon class="st9" points="223.7,88.9 224.9,88.9 224.9,90.1 224.9,91.4 223.7,91.4 223.7,90.1 221.2,90.1 220,90.1 220,88.9 
			221.2,88.9 		"/>
		<rect x="218.8" y="87.7" class="st9" width="1.2" height="1.2"/>
		<rect x="217.6" y="86.5" class="st9" width="1.2" height="1.2"/>
		<rect x="216.4" y="81.6" class="st9" width="1.2" height="4.9"/>
		<rect x="217.6" y="80.4" class="st9" width="1.2" height="1.2"/>
		<polygon class="st9" points="232.2,88.9 233.4,88.9 235.8,88.9 237,88.9 237,90.1 235.8,90.1 233.4,90.1 233.4,91.4 232.2,91.4 
			232.2,90.1 		"/>
		<rect x="231" y="91.4" class="st9" width="1.2" height="1.2"/>
		<rect x="224.9" y="91.4" class="st9" width="1.2" height="1.2"/>
		<rect x="226.1" y="92.6" class="st9" width="4.9" height="1.2"/>
	</g>
	<polygon class="st10" points="224.9,80.4 226.1,80.4 226.1,79.2 227.3,79.2 227.3,78 229.7,78 229.7,79.2 231,79.2 231,80.4 
		232.2,80.4 232.2,81.6 231,81.6 231,82.9 229.7,82.9 229.7,84.1 227.3,84.1 227.3,82.9 226.1,82.9 226.1,81.6 224.9,81.6 	"/>
</g>
<g>
	
		<rect x="228.2" y="127.2" transform="matrix(0.7071 -0.7071 0.7071 0.7071 -24.249 199.5835)" class="st7" width="1.2" height="3.6"/>
	
		<rect x="227" y="128.5" transform="matrix(0.7071 -0.7071 0.7071 0.7071 -24.249 199.5835)" class="st7" width="3.6" height="1.2"/>
	<path class="st8" d="M231.4,125.6l-0.9-0.9l-1.7,1.7l-1.7-1.7l-0.9,0.9l-1.7-1.7l-0.9,0.9l1.7,1.7l-0.9,0.9l1.7,1.7l-1.7,1.7
		l0.9,0.9l-1.7,1.7l0.9,0.9l1.7-1.7l0.9,0.9l1.7-1.7l1.7,1.7l0.9-0.9l1.7,1.7l0.9-0.9l-1.7-1.7l0.9-0.9l-1.7-1.7l1.7-1.7l-0.9-0.9
		l1.7-1.7l-0.9-0.9L231.4,125.6z M230.5,128.2l-0.9,0.9l0.9,0.9l-0.9,0.9l-0.9-0.9l-0.9,0.9l-0.9-0.9l0.9-0.9l-0.9-0.9l0.9-0.9
		l0.9,0.9l0.9-0.9L230.5,128.2z"/>
	<g>
		<path class="st2" d="M233.9,123l-0.9-0.9l-0.9,0.9l-0.9-0.9l-2.6,2.6l-2.6-2.6l-0.9,0.9l-0.9-0.9l-0.9,0.9l-0.9-0.9l-0.9,0.9
			l0.9,0.9l-0.9,0.9l0.9,0.9l-0.9,0.9l2.6,2.6l-2.6,2.6l0.9,0.9l-0.9,0.9l0.9,0.9l-0.9,0.9l0.9,0.9l0.9-0.9l0.9,0.9l0.9-0.9l0.9,0.9
			l2.6-2.6l2.6,2.6l0.9-0.9l0.9,0.9l0.9-0.9l0.9,0.9l0.9-0.9l-0.9-0.9l0.9-0.9l-0.9-0.9l0.9-0.9l-2.6-2.6l2.6-2.6l-0.9-0.9l0.9-0.9
			l-0.9-0.9l0.9-0.9l-0.9-0.9L233.9,123z M233.9,124.8l-1.7,1.7l0.9,0.9l-0.9,0.9l-0.9,0.9l0.9,0.9l0.9,0.9l-0.9,0.9l1.7,1.7
			l-0.9,0.9l-1.7-1.7l-0.9,0.9l-0.9-0.9l-0.9-0.9l-0.9,0.9l-0.9,0.9l-0.9-0.9l-1.7,1.7l-0.9-0.9l1.7-1.7l-0.9-0.9l0.9-0.9l0.9-0.9
			l-0.9-0.9l-0.9-0.9l0.9-0.9l-1.7-1.7l0.9-0.9l1.7,1.7l0.9-0.9l0.9,0.9l0.9,0.9l0.9-0.9l0.9-0.9l0.9,0.9l1.7-1.7L233.9,124.8z"/>
		
			<rect x="228.2" y="126.7" transform="matrix(0.7071 -0.7071 0.7071 0.7071 -23.034 199.0803)" class="st2" width="1.2" height="1.2"/>
		
			<rect x="226.5" y="128.5" transform="matrix(0.7071 -0.7071 0.7071 0.7071 -24.7522 198.3685)" class="st2" width="1.2" height="1.2"/>
		
			<rect x="228.2" y="130.2" transform="matrix(0.7071 -0.7071 0.7071 0.7071 -25.4639 200.0868)" class="st2" width="1.2" height="1.2"/>
		
			<rect x="229.9" y="128.5" transform="matrix(0.7071 -0.7071 0.7071 0.7071 -23.7457 200.7985)" class="st2" width="1.2" height="1.2"/>
	</g>
</g>
<polygon class="st1" points="161.6,48 177.3,48 177.3,49.2 181,49.2 181,50.4 183.4,50.4 183.4,52.8 181,52.8 181,51.6 176.1,51.6 
	176.1,50.4 161.6,50.4 "/>
<g>
	<rect x="162.8" y="44.3" class="st1" width="2.4" height="2.4"/>
	<polygon class="st1" points="157.9,40.7 160.3,40.7 160.3,39.4 161.6,39.4 161.6,40.7 162.8,40.7 162.8,39.4 166.4,39.4 
		166.4,41.9 162.8,41.9 161.6,41.9 161.6,43.1 160.3,43.1 160.3,44.3 159.1,44.3 159.1,43.1 157.9,43.1 156.7,43.1 156.7,40.7 	"/>
</g>
<rect x="157.9" y="46.7" transform="matrix(-1 -4.491397e-11 4.491397e-11 -1 318.2456 95.9066)" class="st3" width="2.4" height="2.4"/>
<rect x="181" y="48" transform="matrix(-1 -4.491397e-11 4.491397e-11 -1 364.4152 98.3366)" class="st3" width="2.4" height="2.4"/>
<rect x="170.1" y="44.3" transform="matrix(-1 -4.491397e-11 4.491397e-11 -1 342.5454 91.0466)" class="st3" width="2.4" height="2.4"/>
<polygon class="st1" points="164,32.2 164,33.4 165.2,33.4 170.1,33.4 170.1,34.6 174.9,34.6 174.9,35.8 178.6,35.8 178.6,37 
	179.8,37 181,37 181,38.2 183.4,38.2 183.4,39.4 185.9,39.4 185.9,40.7 188.3,40.7 188.3,41.9 189.5,41.9 189.5,43.1 190.7,43.1 
	190.7,44.3 188.3,44.3 188.3,45.5 185.9,45.5 185.9,44.3 183.4,44.3 183.4,43.1 182.2,43.1 182.2,41.9 179.8,41.9 179.8,40.7 
	176.1,40.7 176.1,39.4 172.5,39.4 172.5,38.2 167.6,38.2 167.6,37 164,37 164,35.8 162.8,35.8 162.8,32.2 "/>
<rect x="165.2" y="23.7" transform="matrix(-1 -4.491397e-11 4.491397e-11 -1 336.4704 48.522)" class="st9" width="6.1" height="1.2"/>
<polygon class="st9" points="165.2,26.1 165.2,23.7 166.4,23.7 166.4,24.9 176.1,24.9 176.1,26.1 181,26.1 181,27.3 184.6,27.3 
	184.6,28.5 185.9,28.5 185.9,29.7 188.3,29.7 188.3,30.9 190.7,30.9 190.7,32.2 191.9,32.2 191.9,33.4 193.1,33.4 193.1,34.6 
	194.4,34.6 194.4,35.8 195.6,35.8 195.6,37 196.8,37 196.8,38.2 195.6,38.2 195.6,39.4 194.4,39.4 194.4,40.7 193.1,40.7 
	193.1,41.9 191.9,41.9 191.9,43.1 190.7,43.1 189.5,43.1 189.5,41.9 188.3,41.9 188.3,40.7 185.9,40.7 185.9,39.4 183.4,39.4 
	183.4,38.2 181,38.2 181,37 178.6,37 178.6,35.8 174.9,35.8 174.9,34.6 170.1,34.6 170.1,33.4 166.4,33.4 164,33.4 164,32.2 
	164,30.9 164,26.1 "/>
<rect x="159.1" y="68.6" transform="matrix(-1 -4.491397e-11 4.491397e-11 -1 321.8905 138.4313)" class="st11" width="3.6" height="1.2"/>
<rect x="160.3" y="68.6" transform="matrix(-1 -4.491397e-11 4.491397e-11 -1 321.8905 138.4313)" class="st11" width="1.2" height="1.2"/>
<rect x="162.8" y="60.1" transform="matrix(-1 -4.416524e-11 4.416524e-11 -1 326.7505 121.4214)" class="st5" width="1.2" height="1.2"/>
<rect x="164" y="58.9" transform="matrix(-1 -4.491397e-11 4.491397e-11 -1 329.1805 118.9914)" class="st5" width="1.2" height="1.2"/>
<rect x="161.6" y="58.9" transform="matrix(-1 -4.491397e-11 4.491397e-11 -1 324.3205 118.9914)" class="st5" width="1.2" height="1.2"/>
<rect x="165.2" y="60.1" transform="matrix(-1 -4.491397e-11 4.491397e-11 -1 331.6105 121.4214)" class="st5" width="1.2" height="1.2"/>
<rect x="162.8" y="58.9" transform="matrix(-1 -4.416524e-11 4.416524e-11 -1 326.7505 118.9914)" class="st5" width="1.2" height="1.2"/>
<rect x="159.1" y="65" transform="matrix(-1 -4.491397e-11 4.491397e-11 -1 319.4606 131.1413)" class="st11" width="1.2" height="1.2"/>
<rect x="160.3" y="63.7" transform="matrix(-1 -4.491397e-11 4.491397e-11 -1 323.1055 129.9263)" class="st2" width="2.4" height="2.4"/>
<rect x="165.2" y="72.3" transform="matrix(-1 -4.491397e-11 4.491397e-11 -1 331.6105 145.7212)" class="st11" width="1.2" height="1.2"/>
<rect x="166.4" y="71" transform="matrix(-1 -4.491397e-11 4.491397e-11 -1 334.0404 143.2912)" class="st11" width="1.2" height="1.2"/>
<rect x="164" y="73.5" transform="matrix(-1 -4.491397e-11 4.491397e-11 -1 329.1805 148.1512)" class="st11" width="1.2" height="1.2"/>
<rect x="173.7" y="6.6" transform="matrix(-1 -4.491397e-11 4.491397e-11 -1 349.8353 14.5023)" class="st4" width="2.4" height="1.2"/>
<polygon class="st4" points="154.3,27.3 154.3,24.9 155.5,24.9 155.5,22.4 156.7,22.4 156.7,18.8 157.9,18.8 157.9,16.4 159.1,16.4 
	159.1,13.9 160.3,13.9 160.3,11.5 161.6,11.5 161.6,9.1 162.8,9.1 162.8,5.4 164,5.4 164,4.2 164,3 165.2,3 165.2,4.2 165.2,6.6 
	165.2,11.5 164,11.5 164,13.9 162.8,13.9 162.8,16.4 161.6,16.4 161.6,20 162.8,20 162.8,17.6 164,17.6 164,16.4 165.2,16.4 
	165.2,15.1 165.2,13.9 166.4,13.9 166.4,12.7 167.6,12.7 167.6,11.5 168.8,11.5 168.8,10.3 168.8,9.1 171.3,9.1 171.3,7.9 
	174.9,7.9 174.9,9.1 173.7,9.1 173.7,10.3 172.5,10.3 172.5,11.5 172.5,12.7 171.3,12.7 171.3,13.9 170.1,13.9 170.1,15.1 
	170.1,16.4 167.6,16.4 167.6,18.8 166.4,18.8 166.4,21.2 165.2,21.2 165.2,23.7 164,23.7 164,26.1 162.8,26.1 162.8,28.5 
	161.6,28.5 161.6,35.8 160.3,35.8 160.3,39.4 159.1,39.4 159.1,37 157.9,37 156.7,37 155.5,37 154.3,37 153,37 153,27.3 "/>
<rect x="160.3" y="35.8" transform="matrix(-1 -4.466439e-11 4.466439e-11 -1 324.3205 75.2518)" class="st9" width="3.6" height="3.6"/>
<rect x="161.6" y="28.5" transform="matrix(-1 -4.491397e-11 4.491397e-11 -1 324.3205 69.1768)" class="st9" width="1.2" height="12.1"/>
<rect x="156.7" y="39.4" transform="matrix(-1 -4.491397e-11 4.491397e-11 -1 317.0306 80.1117)" class="st9" width="3.6" height="1.2"/>
<rect x="154.3" y="38.2" transform="matrix(-1 -4.491397e-11 4.491397e-11 -1 313.3856 77.6817)" class="st9" width="4.9" height="1.2"/>
<rect x="150.6" y="37" transform="matrix(-1 -4.491397e-11 4.491397e-11 -1 309.7406 75.2518)" class="st9" width="8.5" height="1.2"/>
<rect x="149.4" y="35.8" transform="matrix(-1 -4.491397e-11 4.491397e-11 -1 306.0957 72.8218)" class="st9" width="7.3" height="1.2"/>
<rect x="148.2" y="34.6" transform="matrix(-1 -4.491397e-11 4.491397e-11 -1 303.6657 70.3918)" class="st9" width="7.3" height="1.2"/>
<polygon class="st6" points="133.6,78.3 133.6,79.5 136,79.5 136,80.8 138.5,80.8 140.9,80.8 140.9,82 140.9,84.4 154.3,84.4 
	154.3,90.5 137.3,90.5 134.8,90.5 134.8,89.3 132.4,89.3 132.4,88 132.4,82 132.4,80.8 132.4,79.5 132.4,78.3 "/>
<polygon class="st6" points="136,106.3 136,100.2 137.3,100.2 147,100.2 147,99 150.6,99 150.6,97.8 154.3,97.8 154.3,96.6 
	154.3,95.3 157.9,95.3 157.9,96.6 160.3,96.6 160.3,97.8 160.3,99 161.6,99 161.6,101.4 161.6,102.6 159.1,102.6 159.1,103.8 
	155.5,103.8 155.5,105.1 139.7,105.1 139.7,107.5 138.5,107.5 138.5,108.7 137.3,108.7 137.3,109.9 136,109.9 136,111.1 
	132.4,111.1 132.4,109.9 130,109.9 130,108.7 128.7,108.7 128.7,107.5 128.7,106.3 "/>
<polygon class="st6" points="184.6,128.1 184.6,126.9 185.9,126.9 187.1,126.9 187.1,128.1 188.3,128.1 188.3,129.4 189.5,129.4 
	189.5,128.1 188.3,128.1 188.3,124.5 185.9,124.5 185.9,123.3 185.9,122.1 184.6,122.1 184.6,120.9 184.6,119.6 185.9,119.6 
	185.9,117.2 191.9,117.2 191.9,118.4 193.1,118.4 193.1,119.6 193.1,120.9 191.9,120.9 191.9,122.1 191.9,123.3 193.1,123.3 
	193.1,124.5 195.6,124.5 195.6,130.6 195.6,131.8 194.4,131.8 194.4,133 193.1,133 193.1,131.8 190.7,131.8 190.7,130.6 
	189.5,130.6 189.5,134.2 189.5,135.4 189.5,136.6 190.7,136.6 190.7,137.9 191.9,137.9 191.9,140.3 190.7,140.3 190.7,141.5 
	189.5,141.5 189.5,143.9 188.3,143.9 188.3,145.2 187.1,145.2 187.1,140.3 187.1,137.9 185.9,137.9 185.9,136.6 184.6,136.6 
	184.6,134.2 181,134.2 181,133 181,129.4 181,128.1 "/>
<rect x="142.1" y="90.5" transform="matrix(-1 -4.491397e-11 4.491397e-11 -1 286.6558 182.1709)" class="st1" width="2.4" height="1.2"/>
<polygon class="st1" points="142.1,85.6 142.1,84.4 142.1,83.2 143.3,83.2 143.3,84.4 145.8,84.4 145.8,83.2 147,83.2 147,86.8 
	145.8,86.8 145.8,90.5 145.8,91.7 144.5,91.7 144.5,90.5 142.1,90.5 142.1,91.7 140.9,91.7 140.9,85.6 "/>
<polygon class="st2" points="143.3,85.6 143.3,83.2 145.8,83.2 145.8,85.6 144.5,85.6 144.5,89.3 144.5,90.5 144.5,91.7 142.1,91.7 
	142.1,90.5 142.1,89.3 142.1,85.6 "/>
<polygon class="st1" points="140.9,101.4 140.9,100.2 140.9,99 142.1,99 142.1,100.2 144.5,100.2 144.5,99 145.8,99 145.8,102.6 
	144.5,102.6 144.5,106.3 144.5,107.5 143.3,107.5 143.3,106.3 140.9,106.3 140.9,107.5 139.7,107.5 139.7,101.4 "/>
<polygon class="st2" points="142.1,101.4 142.1,99 144.5,99 144.5,101.4 143.3,101.4 143.3,105.1 143.3,106.3 143.3,107.5 
	140.9,107.5 140.9,106.3 140.9,105.1 140.9,101.4 "/>
<polygon class="st1" points="133.6,89.3 134.8,89.3 134.8,90.5 137.3,90.5 137.3,96.6 133.6,96.6 133.6,95.3 132.4,95.3 132.4,89.3 
	"/>
<polygon class="st1" points="140.9,66.2 140.9,67.4 140.9,68.6 139.7,68.6 139.7,72.3 138.5,72.3 138.5,80.8 136,80.8 136,79.5 
	133.6,79.5 133.6,78.3 132.4,78.3 132.4,72.3 132.4,71 132.4,69.8 131.2,69.8 131.2,68.6 131.2,67.4 131.2,66.2 "/>
<polygon class="st4" points="128.7,63.7 128.7,61.3 131.2,61.3 131.2,60.1 132.4,60.1 132.4,58.9 138.5,58.9 138.5,60.1 139.7,60.1 
	139.7,61.3 142.1,61.3 142.1,63.7 143.3,63.7 143.3,65 140.9,65 140.9,66.2 130,66.2 130,65 127.5,65 127.5,63.7 "/>
<polygon class="st9" points="123.9,60.1 123.9,58.9 127.5,58.9 127.5,56.5 128.7,56.5 128.7,55.2 132.4,55.2 132.4,54 133.6,54 
	133.6,52.8 137.3,52.8 137.3,54 138.5,54 138.5,55.2 142.1,55.2 142.1,56.5 143.3,56.5 143.3,58.9 147,58.9 147,60.1 148.2,60.1 
	148.2,65 143.3,65 143.3,63.7 142.1,63.7 142.1,61.3 139.7,61.3 139.7,60.1 138.5,60.1 138.5,58.9 137.3,58.9 133.6,58.9 
	132.4,58.9 132.4,60.1 131.2,60.1 131.2,61.3 128.7,61.3 128.7,63.7 127.5,63.7 127.5,65 122.7,65 122.7,60.1 "/>
<rect x="151.8" y="113.6" transform="matrix(-1 -4.491397e-11 4.491397e-11 -1 304.8807 239.2754)" class="st1" width="1.2" height="12.1"/>
<rect x="150.6" y="116" transform="matrix(-1 -4.491397e-11 4.491397e-11 -1 302.4507 240.4904)" class="st1" width="1.2" height="8.5"/>
<polygon class="st1" points="150.6,119.6 153,119.6 153,112.3 153,111.1 154.3,111.1 154.3,108.7 157.9,108.7 157.9,107.5 
	159.1,107.5 159.1,106.3 160.3,106.3 160.3,105.1 162.8,105.1 162.8,103.8 164,103.8 164,102.6 167.6,102.6 167.6,100.2 
	195.6,100.2 195.6,105.1 196.8,105.1 196.8,112.3 195.6,112.3 195.6,113.6 194.4,113.6 194.4,114.8 193.1,114.8 193.1,116 
	191.9,116 191.9,117.2 185.9,117.2 185.9,119.6 184.6,119.6 184.6,122.1 184.6,123.3 184.6,124.5 183.4,124.5 183.4,126.9 
	181,126.9 181,128.1 181,135.4 179.8,135.4 179.8,136.6 178.6,136.6 176.1,136.6 176.1,135.4 174.9,135.4 173.7,135.4 173.7,134.2 
	172.5,134.2 172.5,133 170.1,133 170.1,131.8 167.6,131.8 167.6,130.6 165.2,130.6 165.2,129.4 162.8,129.4 162.8,128.1 
	159.1,128.1 157.9,128.1 157.9,126.9 154.3,126.9 153,126.9 153,122.1 150.6,122.1 "/>
<polygon class="st3" points="182.2,83.2 183.4,83.2 183.4,82 188.3,82 188.3,83.2 189.5,83.2 189.5,86.8 188.3,86.8 188.3,88 
	183.4,88 183.4,86.8 182.2,86.8 "/>
<polygon class="st3" points="173.7,86.8 174.9,86.8 174.9,85.6 179.8,85.6 179.8,86.8 181,86.8 181,90.5 179.8,90.5 179.8,91.7 
	174.9,91.7 174.9,90.5 173.7,90.5 "/>
<polygon class="st3" points="162.8,86.8 164,86.8 164,85.6 168.8,85.6 168.8,86.8 170.1,86.8 170.1,90.5 168.8,90.5 168.8,91.7 
	164,91.7 164,90.5 162.8,90.5 "/>
<polygon class="st3" points="149.4,85.6 150.6,85.6 150.6,84.4 155.5,84.4 155.5,85.6 156.7,85.6 156.7,89.3 155.5,89.3 155.5,90.5 
	150.6,90.5 150.6,89.3 149.4,89.3 "/>
<polygon class="st4" points="130,105.1 130,103.8 133.6,103.8 133.6,101.4 134.8,101.4 134.8,100.2 136,100.2 136,101.4 
	137.3,101.4 137.3,105.1 136,105.1 136,106.3 134.8,106.3 134.8,107.5 131.2,107.5 131.2,106.3 128.7,106.3 128.7,105.1 "/>
<polygon class="st9" points="125.1,94.1 125.1,92.9 126.3,92.9 131.2,92.9 131.2,94.1 132.4,94.1 132.4,95.3 133.6,95.3 133.6,96.6 
	136,96.6 136,100.2 134.8,100.2 134.8,101.4 133.6,101.4 133.6,102.6 133.6,103.8 130,103.8 130,105.1 127.5,105.1 127.5,103.8 
	127.5,102.6 126.3,102.6 126.3,101.4 125.1,101.4 125.1,100.2 123.9,100.2 123.9,94.1 "/>
<g>
	<polygon class="st7" points="13.4,119.9 13.4,113.8 15.8,113.8 15.8,112.6 20.7,112.6 20.7,110.1 21.9,110.1 21.9,108.9 
		26.7,108.9 26.7,110.1 28,110.1 28,112.6 32.8,112.6 32.8,113.8 35.2,113.8 35.2,119.9 34,119.9 34,121.1 35.2,121.1 35.2,125.9 
		34,125.9 34,127.2 32.8,127.2 32.8,128.4 28,128.4 28,130.8 26.7,130.8 26.7,132 21.9,132 21.9,130.8 20.7,130.8 20.7,128.4 
		15.8,128.4 15.8,127.2 14.6,127.2 14.6,125.9 13.4,125.9 13.4,121.1 14.6,121.1 14.6,119.9 	"/>
	<g>
		<rect x="29.2" y="115" class="st9" width="1.2" height="1.2"/>
		<rect x="28" y="116.2" class="st9" width="1.2" height="1.2"/>
		<polygon class="st9" points="28,116.2 26.7,116.2 26.7,115 26.7,112.6 28,112.6 28,115 		"/>
		<rect x="32.8" y="112.6" class="st9" width="1.2" height="1.2"/>
		<rect x="34" y="113.8" class="st9" width="1.2" height="1.2"/>
		<rect x="35.2" y="115" class="st9" width="1.2" height="4.9"/>
		<polygon class="st9" points="32.8,122.3 30.4,122.3 30.4,121.1 32.8,121.1 34,121.1 34,122.3 		"/>
		<polygon class="st9" points="29.2,119.9 29.2,118.6 30.4,118.6 30.4,119.9 30.4,121.1 29.2,121.1 		"/>
		<rect x="18.2" y="115" class="st9" width="1.2" height="1.2"/>
		<rect x="19.4" y="116.2" class="st9" width="1.2" height="1.2"/>
		<polygon class="st9" points="21.9,115 21.9,116.2 20.7,116.2 20.7,115 20.7,112.6 21.9,112.6 		"/>
		<polygon class="st9" points="20.7,112.6 19.4,112.6 17,112.6 15.8,112.6 15.8,111.4 17,111.4 19.4,111.4 19.4,110.1 20.7,110.1 
			20.7,111.4 		"/>
		<rect x="14.6" y="112.6" class="st9" width="1.2" height="1.2"/>
		<rect x="13.4" y="113.8" class="st9" width="1.2" height="1.2"/>
		<rect x="12.2" y="115" class="st9" width="1.2" height="4.9"/>
		<polygon class="st9" points="18.2,121.1 18.2,122.3 15.8,122.3 14.6,122.3 14.6,121.1 15.8,121.1 		"/>
		<polygon class="st9" points="18.2,118.6 19.4,118.6 19.4,119.9 19.4,121.1 18.2,121.1 18.2,119.9 		"/>
		<polygon class="st9" points="29.2,112.6 28,112.6 28,111.4 28,110.1 29.2,110.1 29.2,111.4 31.6,111.4 32.8,111.4 32.8,112.6 
			31.6,112.6 		"/>
		<rect x="26.7" y="108.9" class="st9" width="1.2" height="1.2"/>
		<rect x="20.7" y="108.9" class="st9" width="1.2" height="1.2"/>
		<rect x="21.9" y="107.7" class="st9" width="4.9" height="1.2"/>
		<rect x="29.2" y="124.7" class="st9" width="1.2" height="1.2"/>
		<rect x="28" y="123.5" class="st9" width="1.2" height="1.2"/>
		<polygon class="st9" points="26.7,125.9 26.7,124.7 28,124.7 28,125.9 28,128.4 26.7,128.4 		"/>
		<rect x="32.8" y="127.2" class="st9" width="1.2" height="1.2"/>
		<rect x="34" y="125.9" class="st9" width="1.2" height="1.2"/>
		<rect x="35.2" y="121.1" class="st9" width="1.2" height="4.9"/>
		<rect x="34" y="119.9" class="st9" width="1.2" height="1.2"/>
		<rect x="18.2" y="124.7" class="st9" width="1.2" height="1.2"/>
		<rect x="19.4" y="123.5" class="st9" width="1.2" height="1.2"/>
		<polygon class="st9" points="20.7,124.7 21.9,124.7 21.9,125.9 21.9,128.4 20.7,128.4 20.7,125.9 		"/>
		<polygon class="st9" points="19.4,128.4 20.7,128.4 20.7,129.6 20.7,130.8 19.4,130.8 19.4,129.6 17,129.6 15.8,129.6 15.8,128.4 
			17,128.4 		"/>
		<rect x="14.6" y="127.2" class="st9" width="1.2" height="1.2"/>
		<rect x="13.4" y="125.9" class="st9" width="1.2" height="1.2"/>
		<rect x="12.2" y="121.1" class="st9" width="1.2" height="4.9"/>
		<rect x="13.4" y="119.9" class="st9" width="1.2" height="1.2"/>
		<polygon class="st9" points="28,128.4 29.2,128.4 31.6,128.4 32.8,128.4 32.8,129.6 31.6,129.6 29.2,129.6 29.2,130.8 28,130.8 
			28,129.6 		"/>
		<rect x="26.7" y="130.8" class="st9" width="1.2" height="1.2"/>
		<rect x="20.7" y="130.8" class="st9" width="1.2" height="1.2"/>
		<rect x="21.9" y="132" class="st9" width="4.9" height="1.2"/>
	</g>
	<polygon class="st10" points="20.7,119.9 21.9,119.9 21.9,118.6 23.1,118.6 23.1,117.4 25.5,117.4 25.5,118.6 26.7,118.6 
		26.7,119.9 28,119.9 28,121.1 26.7,121.1 26.7,122.3 25.5,122.3 25.5,123.5 23.1,123.5 23.1,122.3 21.9,122.3 21.9,121.1 
		20.7,121.1 	"/>
</g>
<g>
	<rect x="18.8" y="51" transform="matrix(0.7071 -0.7071 0.7071 0.7071 -31.6493 29.2184)" class="st7" width="1.2" height="3.6"/>
	
		<rect x="17.6" y="52.2" transform="matrix(0.7071 -0.7071 0.7071 0.7071 -31.6493 29.2184)" class="st7" width="3.6" height="1.2"/>
	<path class="st8" d="M22,49.4l-0.9-0.9l-1.7,1.7l-1.7-1.7l-0.9,0.9l-1.7-1.7l-0.9,0.9l1.7,1.7l-0.9,0.9l1.7,1.7l-1.7,1.7l0.9,0.9
		l-1.7,1.7l0.9,0.9l1.7-1.7l0.9,0.9l1.7-1.7l1.7,1.7l0.9-0.9l1.7,1.7l0.9-0.9l-1.7-1.7l0.9-0.9L22,52.8l1.7-1.7l-0.9-0.9l1.7-1.7
		l-0.9-0.9L22,49.4z M21.2,52l-0.9,0.9l0.9,0.9l-0.9,0.9l-0.9-0.9l-0.9,0.9l-0.9-0.9l0.9-0.9L17.7,52l0.9-0.9l0.9,0.9l0.9-0.9
		L21.2,52z"/>
	<g>
		<path class="st2" d="M24.6,46.8l-0.9-0.9l-0.9,0.9L22,45.9l-2.6,2.6l-2.6-2.6L16,46.8l-0.9-0.9l-0.9,0.9l-0.9-0.9l-0.9,0.9
			l0.9,0.9l-0.9,0.9l0.9,0.9l-0.9,0.9l2.6,2.6l-2.6,2.6l0.9,0.9l-0.9,0.9l0.9,0.9l-0.9,0.9l0.9,0.9l0.9-0.9l0.9,0.9l0.9-0.9l0.9,0.9
			l2.6-2.6l2.6,2.6l0.9-0.9l0.9,0.9l0.9-0.9l0.9,0.9l0.9-0.9L25.5,58l0.9-0.9l-0.9-0.9l0.9-0.9l-2.6-2.6l2.6-2.6l-0.9-0.9l0.9-0.9
			l-0.9-0.9l0.9-0.9l-0.9-0.9L24.6,46.8z M24.6,48.5l-1.7,1.7l0.9,0.9L22.9,52L22,52.8l0.9,0.9l0.9,0.9l-0.9,0.9l1.7,1.7L23.7,58
			L22,56.2l-0.9,0.9l-0.9-0.9l-0.9-0.9l-0.9,0.9l-0.9,0.9l-0.9-0.9L15.1,58l-0.9-0.9l1.7-1.7l-0.9-0.9l0.9-0.9l0.9-0.9L16,52
			l-0.9-0.9l0.9-0.9l-1.7-1.7l0.9-0.9l1.7,1.7l0.9-0.9l0.9,0.9l0.9,0.9l0.9-0.9l0.9-0.9l0.9,0.9l1.7-1.7L24.6,48.5z"/>
		
			<rect x="18.8" y="50.5" transform="matrix(0.7071 -0.7071 0.7071 0.7071 -30.4343 28.7152)" class="st2" width="1.2" height="1.2"/>
		
			<rect x="17.1" y="52.2" transform="matrix(0.7071 -0.7071 0.7071 0.7071 -32.1525 28.0034)" class="st2" width="1.2" height="1.2"/>
		
			<rect x="18.8" y="53.9" transform="matrix(0.7071 -0.7071 0.7071 0.7071 -32.8643 29.7217)" class="st2" width="1.2" height="1.2"/>
		
			<rect x="20.6" y="52.2" transform="matrix(0.7071 -0.7071 0.7071 0.7071 -31.146 30.4334)" class="st2" width="1.2" height="1.2"/>
	</g>
</g>
<g>
	<polygon class="st12" points="76.3,79.6 75.6,79.6 75.6,78.8 74.8,78.8 74.8,78.1 63.1,78.1 63.1,78.8 62.3,78.8 62.3,79.6 
		61.6,79.6 61.6,83.2 62.3,83.2 62.3,84 63.1,84 63.1,84.7 74.8,84.7 74.8,84 75.6,84 75.6,83.2 76.3,83.2 	"/>
	<rect x="72.6" y="79.6" class="st13" width="0.7" height="1.5"/>
	<rect x="74.8" y="79.6" class="st13" width="0.7" height="1.5"/>
	<rect x="73.4" y="81.8" class="st13" width="1.5" height="0.7"/>
	<rect x="64.5" y="84.7" class="st13" width="0.7" height="2.9"/>
	<rect x="72.6" y="84.7" class="st13" width="0.7" height="2.9"/>
	<rect x="71.2" y="84.7" class="st13" width="0.7" height="2.9"/>
	<rect x="66" y="84.7" class="st13" width="0.7" height="2.9"/>
	<rect x="72.6" y="74.4" class="st13" width="0.7" height="3.7"/>
	<polygon class="st14" points="71.1,72.1 71.6,72.7 71.1,73.1 70.6,72.6 69.1,74 70.5,75.6 71,75.1 71.5,75.6 72,75.1 72.5,75.7 
		74,74.3 73.5,73.7 74,73.3 73.6,72.8 74.1,72.3 72.7,70.7 	"/>
</g>
<rect x="60.1" y="87.7" class="st15" width="20" height="62.3"/>
<rect x="60.1" y="101" class="st16" width="20" height="3.3"/>
<rect x="60.1" y="131" class="st16" width="20" height="3.3"/>
<rect x="73.4" y="114.3" class="st16" width="3.3" height="3.3"/>
<rect x="63.4" y="94.3" class="st16" width="3.3" height="3.3"/>
<rect x="63.4" y="114.3" class="st16" width="3.3" height="3.3"/>
<rect x="73.4" y="124.3" class="st16" width="3.3" height="3.3"/>
<rect x="63.4" y="140.1" class="st16" width="3.3" height="3.3"/>
<g>
	<rect x="101" y="10.5" class="st17" width="1.2" height="1.2"/>
	<polygon class="st17" points="97.5,5.8 97.5,6.9 98.6,6.9 98.6,8.1 99.8,8.1 99.8,9.3 101,9.3 101,10.5 99.8,10.5 98.6,10.5 
		98.6,9.3 95.1,9.3 95.1,8.1 94,8.1 94,6.9 92.8,6.9 92.8,5.8 	"/>
</g>
<polygon class="st17" points="78.7,14 79.9,14 81.1,14 81.1,15.1 81.1,16.3 81.1,22.2 79.9,22.2 79.9,19.8 78.7,19.8 78.7,17.5 
	77.6,17.5 77.6,16.3 77.6,15.1 77.6,14 "/>
<g>
	<rect x="95.1" y="19.8" class="st10" width="1.2" height="1.2"/>
	<polygon class="st10" points="91.6,9.3 92.8,9.3 92.8,10.5 94,10.5 94,11.6 94,12.8 94,14 95.1,14 95.1,18.7 95.1,19.8 94,19.8 
		92.8,19.8 92.8,18.7 89.3,18.7 89.3,17.5 88.1,17.5 85.8,17.5 85.8,16.3 84.6,16.3 84.6,15.1 83.4,15.1 83.4,14 83.4,12.8 
		83.4,9.3 	"/>
</g>
<polygon class="st10" points="99.8,-0.1 116.2,-0.1 116.2,1.1 112.7,1.1 112.7,2.3 106.8,2.3 106.8,3.4 102.2,3.4 102.2,4.6 
	97.5,4.6 97.5,3.4 97.5,2.3 97.5,1.1 97.5,-0.1 "/>
<g>
	<rect x="33" y="10.5" class="st17" width="1.2" height="1.2"/>
	<polygon class="st17" points="37.7,5.8 37.7,6.9 36.6,6.9 36.6,8.1 35.4,8.1 35.4,9.3 34.2,9.3 34.2,10.5 35.4,10.5 36.6,10.5 
		36.6,9.3 40.1,9.3 40.1,8.1 41.2,8.1 41.2,6.9 42.4,6.9 42.4,5.8 	"/>
</g>
<polygon class="st17" points="56.5,14 55.3,14 54.1,14 54.1,15.1 54.1,16.3 54.1,22.2 55.3,22.2 55.3,19.8 56.5,19.8 56.5,17.5 
	57.6,17.5 57.6,16.3 57.6,15.1 57.6,14 "/>
<polygon class="st10" points="68.2,15.1 67,15.1 61.2,15.1 61.2,16.3 62.3,16.3 62.3,19.8 63.5,19.8 63.5,22.2 64.7,22.2 64.7,23.3 
	64.7,25.7 65.8,25.7 65.8,28 67,28 67,30.4 68.2,30.4 68.2,28 69.4,28 69.4,25.7 70.5,25.7 70.5,23.3 70.5,22.2 71.7,22.2 
	71.7,19.8 72.9,19.8 72.9,16.3 74,16.3 74,15.1 "/>
<g>
	<rect x="38.9" y="19.8" class="st10" width="1.2" height="1.2"/>
	<polygon class="st10" points="43.6,9.3 42.4,9.3 42.4,10.5 41.2,10.5 41.2,11.6 41.2,12.8 41.2,14 40.1,14 40.1,18.7 40.1,19.8 
		41.2,19.8 42.4,19.8 42.4,18.7 45.9,18.7 45.9,17.5 47.1,17.5 49.4,17.5 49.4,16.3 50.6,16.3 50.6,15.1 51.8,15.1 51.8,14 
		51.8,12.8 51.8,9.3 	"/>
</g>
<polygon class="st10" points="35.4,-0.1 19,-0.1 19,1.1 22.5,1.1 22.5,2.3 28.3,2.3 28.3,3.4 33,3.4 33,4.6 37.7,4.6 37.7,3.4 
	37.7,2.3 37.7,1.1 37.7,-0.1 "/>
<polygon class="st7" points="98.6,-0.1 69.4,-0.1 68.2,-0.1 67,-0.1 65.8,-0.1 36.6,-0.1 35.4,-0.1 35.4,2.3 36.6,2.3 37.7,2.3 
	37.7,4.6 38.9,4.6 38.9,5.8 40.1,5.8 40.1,6.9 42.4,6.9 42.4,8.1 43.6,8.1 43.6,9.3 45.9,9.3 45.9,11.6 49.4,11.6 49.4,12.8 
	54.1,12.8 54.1,14 55.3,14 55.3,15.1 65.8,15.1 67,15.1 68.2,15.1 69.4,15.1 79.9,15.1 79.9,14 81.1,14 81.1,12.8 85.8,12.8 
	85.8,11.6 89.3,11.6 89.3,9.3 91.6,9.3 91.6,8.1 92.8,8.1 92.8,6.9 95.1,6.9 95.1,5.8 96.3,5.8 96.3,4.6 97.5,4.6 97.5,2.3 
	98.6,2.3 99.8,2.3 99.8,-0.1 "/>
<polygon class="st10" points="67,15.1 68.2,15.1 74,15.1 74,16.3 72.9,16.3 72.9,19.8 71.7,19.8 71.7,22.2 70.5,22.2 70.5,23.3 
	70.5,25.7 69.4,25.7 69.4,28 68.2,28 68.2,30.4 67,30.4 67,28 65.8,28 65.8,25.7 64.7,25.7 64.7,23.3 64.7,22.2 63.5,22.2 
	63.5,19.8 62.3,19.8 62.3,16.3 61.2,16.3 61.2,15.1 "/>
</svg>
