<?xml version="1.0" encoding="utf-8"?>
<!-- Generator: Adobe Illustrator 25.2.3, SVG Export Plug-In . SVG Version: 6.00 Build 0)  -->
<svg version="1.1" id="Layer_3" xmlns="http://www.w3.org/2000/svg" xmlns:xlink="http://www.w3.org/1999/xlink" x="0px" y="0px"
	 viewBox="0 0 1108 791" style="enable-background:new 0 0 1108 791;" xml:space="preserve">
<style type="text/css">
	.st0{stroke:#231F20;stroke-miterlimit:10;}
	.st1{fill:#DC0000;}
	.st2{fill:#AE0002;}
	.st3{fill:#FF7A69;}
	.st4{fill:#426024;}
	.st5{fill:#649238;}
	.st6{fill:#A7B941;}
	.st7{fill:#E0E48D;}
	.st8{fill:#8A370F;}
	.st9{fill:#DA895E;}
	.st10{fill:#63240B;}
	.st11{fill:#EBC892;}
	.st12{fill:#FFF2D3;}
	.st13{fill:#C5A576;}
	.st14{fill:#966A43;}
	.st15{fill:none;stroke:#231F20;stroke-miterlimit:10;}
	.st16{fill:#6C0F13;}
	.st17{fill:#163A20;}
	.st18{fill:#D27633;}
</style>
<g>
	<path class="st0" d="M59.5,37.7h1.2v2.4h-2.4V39h-1.2v-1.2h-4.9V39H51v9.8h1.2v1.2h4.9v-1.2h1.2v-3.7h-3.7v-2.4h6.1v7.3h-1.2v1.2
		h-1.2v1.2H51v-1.2h-1.2v-1.2h-1.2V37.7h1.2v-1.2H51v-1.2h7.3v1.2h1.2V37.7z"/>
	<path class="st0" d="M63.2,52.4V35.3h2.4v14.6h9.8v2.4H63.2z"/>
	<path class="st0" d="M80.3,36.5v-1.2h7.3v1.2h1.2v1.2H90v12.2h-1.2v1.2h-1.2v1.2h-7.3v-1.2H79v-1.2h-1.2V37.7H79v-1.2H80.3z
		 M86.4,37.7h-4.9V39h-1.2v9.8h1.2v1.2h4.9v-1.2h1.2V39h-1.2V37.7z"/>
	<path class="st0" d="M92.5,52.4V35.3h9.8v1.2h1.2v1.2h1.2v4.9h-1.2v2.4h1.2v4.9h-1.2v1.2h-1.2v1.2H92.5z M94.9,42.6h6.1v-1.2h1.2
		V39H101v-1.2h-6.1V42.6z M94.9,49.9h6.1v-1.2h1.2v-2.4H101v-1.2h-6.1V49.9z"/>
	<path class="st0" d="M109.6,52.4h-2.4V40.2h1.2V39h1.2v-1.2h1.2v-1.2h1.2v-1.2h2.4v1.2h1.2v1.2h1.2V39h1.2v1.2h1.2v12.2h-2.4v-4.9
		h-7.3V52.4z M109.6,45.1h7.3v-3.7h-1.2v-1.2h-1.2V39H112v1.2h-1.2v1.2h-1.2V45.1z"/>
	<path class="st0" d="M121.8,52.4V35.3h2.4v14.6h9.8v2.4H121.8z"/>
	<path class="st0" d="M153.5,52.4h-2.4V35.3h2.4v2.4h1.2V39h1.2v1.2h2.4V39h1.2v-1.2h1.2v-2.4h2.4v17.1h-2.4v-11h-1.2v1.2h-1.2v2.4
		h-2.4v-2.4h-1.2v-1.2h-1.2V52.4z"/>
	<path class="st0" d="M168.1,52.4h-2.4V40.2h1.2V39h1.2v-1.2h1.2v-1.2h1.2v-1.2h2.4v1.2h1.2v1.2h1.2V39h1.2v1.2h1.2v12.2h-2.4v-4.9
		h-7.3V52.4z M168.1,45.1h7.3v-3.7h-1.2v-1.2H173V39h-2.4v1.2h-1.2v1.2h-1.2V45.1z"/>
	<path class="st0" d="M184,45.1h-1.2v7.3h-2.4V35.3h9.8v1.2h1.2v1.2h1.2v4.9h-1.2v1.2h-1.2v1.2h-2.4v1.2h1.2v1.2h1.2v1.2h1.2v1.2
		h1.2v2.4h-2.4v-1.2h-1.2v-1.2h-1.2v-1.2h-1.2v-1.2h-1.2v-1.2H184V45.1z M182.8,37.7v4.9h6.1v-1.2h1.2V39h-1.2v-1.2H182.8z"/>
	<path class="st0" d="M197.4,45.1v7.3H195V35.3h2.4v7.3h1.2v-1.2h1.2v-1.2h1.2V39h1.2v-1.2h1.2v-1.2h1.2v-1.2h2.4v2.4H206V39h-1.2
		v1.2h-1.2v1.2h-1.2v1.2h-1.2v2.4h1.2v1.2h1.2v1.2h1.2v1.2h1.2v1.2h1.2v2.4h-2.4v-1.2h-1.2v-1.2h-1.2v-1.2h-1.2v-1.2h-1.2v-1.2h-1.2
		v-1.2H197.4z"/>
	<path class="st0" d="M221.9,35.3v2.4h-9.8v4.9h7.3v2.4h-7.3v4.9h9.8v2.4h-12.2V35.3H221.9z"/>
	<path class="st0" d="M229.2,37.7h-4.9v-2.4h12.2v2.4h-4.9v14.6h-2.4V37.7z"/>
	<path class="st0" d="M254.8,47.5h-1.2V35.3h2.4v11h1.2v1.2h1.2v1.2h2.4v-1.2h1.2v-1.2h1.2v-11h2.4v12.2h-1.2v1.2h-1.2v1.2h-1.2v1.2
		h-1.2v1.2h-2.4v-1.2h-1.2v-1.2H256v-1.2h-1.2V47.5z"/>
	<path class="st0" d="M270.7,52.4h-2.4V40.2h1.2V39h1.2v-1.2h1.2v-1.2h1.2v-1.2h2.4v1.2h1.2v1.2h1.2V39h1.2v1.2h1.2v12.2H278v-4.9
		h-7.3V52.4z M270.7,45.1h7.3v-3.7h-1.2v-1.2h-1.2V39h-2.4v1.2h-1.2v1.2h-1.2V45.1z"/>
	<path class="st0" d="M282.9,52.4V35.3h2.4v14.6h9.8v2.4H282.9z"/>
	<path class="st0" d="M298.8,49.9h-1.2V35.3h2.4v13.4h1.2v1.2h4.9v-1.2h1.2V35.3h2.4v14.6h-1.2v1.2h-1.2v1.2H300v-1.2h-1.2V49.9z"/>
	<path class="st0" d="M324.4,35.3v2.4h-9.8v4.9h7.3v2.4h-7.3v4.9h9.8v2.4h-12.2V35.3H324.4z"/>
	<path class="st0" d="M343.9,52.4v-2.4h2.4V37.7h-2.4v-2.4h7.3v2.4h-2.4v12.2h2.4v2.4H343.9z"/>
	<path class="st0" d="M358.6,42.6v9.8h-2.4V35.3h2.4V39h1.2v1.2h1.2v1.2h1.2v1.2h1.2v1.2h1.2v1.2h1.2v-9.8h2.4v17.1h-2.4v-3.7h-1.2
		v-1.2h-1.2v-1.2h-1.2v-1.2H361v-1.2h-1.2v-1.2H358.6z"/>
	<path class="st0" d="M386.7,49.9h-1.2V35.3h2.4v13.4h1.2v1.2h4.9v-1.2h1.2V35.3h2.4v14.6h-1.2v1.2h-1.2v1.2h-7.3v-1.2h-1.2V49.9z"
		/>
	<path class="st0" d="M411.1,37.7h1.2v2.4h-2.4V39h-1.2v-1.2h-4.9V39h-1.2v2.4h1.2v1.2h6.1v1.2h1.2v1.2h1.2v4.9h-1.2v1.2h-1.2v1.2
		h-7.3v-1.2h-1.2v-1.2h-1.2v-2.4h2.4v1.2h1.2v1.2h4.9v-1.2h1.2v-2.4h-1.2v-1.2h-6.1v-1.2h-1.2v-1.2h-1.2v-4.9h1.2v-1.2h1.2v-1.2h7.3
		v1.2h1.2V37.7z"/>
	<path class="st0" d="M414.7,52.4V35.3h9.8v1.2h1.2v1.2h1.2v12.2h-1.2v1.2h-1.2v1.2H414.7z M417.2,37.7v12.2h6.1v-1.2h1.2V39h-1.2
		v-1.2H417.2z"/>
</g>
<g>
	<polygon class="st1" points="393.1,685 393.1,671.2 386.3,671.2 386.3,664.4 379.4,664.4 379.4,657.5 372.5,657.5 372.5,650.6 
		351.9,650.6 303.7,650.6 303.7,657.5 296.8,657.5 296.8,664.4 290,664.4 290,671.2 283.1,671.2 283.1,685 276.2,685 276.2,719.4 
		283.1,719.4 283.1,726.3 290,726.3 290,733.2 296.8,733.2 296.8,740 303.7,740 303.7,746.9 372.5,746.9 372.5,740 379.4,740 
		379.4,733.2 386.3,733.2 386.3,726.3 393.1,726.3 393.1,719.4 400,719.4 400,685 	"/>
	<rect x="310.6" y="740.1" class="st2" width="20.6" height="6.9"/>
	<rect x="303.7" y="671.2" class="st3" width="6.9" height="6.9"/>
	<polygon class="st3" points="303.7,678.1 296.8,678.1 290,678.1 290,691.9 290,705.6 296.8,705.6 296.8,691.9 303.7,691.9 	"/>
	<g>
		<rect x="317.5" y="636.9" class="st4" width="6.9" height="6.9"/>
		<rect x="303.7" y="657.5" class="st4" width="6.9" height="6.9"/>
		<rect x="365.6" y="671.2" class="st4" width="6.9" height="6.9"/>
		<rect x="358.7" y="636.9" class="st4" width="6.9" height="6.9"/>
		<rect x="317.5" y="671.2" class="st4" width="6.9" height="6.9"/>
		<rect x="365.9" y="629.9" class="st4" width="6.9" height="6.9"/>
		<rect x="310.6" y="630" class="st4" width="6.9" height="6.9"/>
		<rect x="372.5" y="643.7" class="st4" width="6.9" height="6.9"/>
		<polygon class="st4" points="358.7,643.7 345,643.7 324.4,643.7 324.4,650.6 310.6,650.6 310.6,657.5 324.4,657.5 331.2,657.5 
			331.2,664.4 324.4,664.4 324.4,671.2 338.1,671.2 338.1,664.4 345,664.4 351.9,664.4 351.9,671.2 358.7,671.2 365.6,671.2 
			365.6,664.4 358.7,664.4 358.7,657.5 372.5,657.5 372.5,650.6 358.7,650.6 		"/>
	</g>
	<polygon class="st5" points="345,630 345,636.9 338.1,636.9 338.1,643.7 338.1,650.6 345,650.6 345,643.7 351.9,643.7 351.9,636.9 
		351.9,630 	"/>
	<rect x="331.2" y="650.6" class="st5" width="6.9" height="6.9"/>
	<polygon class="st2" points="399.8,712.5 399.8,705.4 392.9,705.4 392.9,712.5 386.3,712.5 386.3,719.4 379.4,719.4 379.4,733.2 
		372.5,733.2 372.5,726.3 365.6,726.3 365.6,733.2 358.7,733.2 358.7,740 345,740 345,746.9 358.7,746.9 365.6,746.9 372.5,746.9 
		372.5,740 379.4,740 379.4,733.7 386.5,733.7 386.5,726.3 393.1,726.3 393.1,719.4 400,719.4 400,712.5 	"/>
</g>
<g>
	<g>
		<polygon class="st6" points="660.1,666 660.1,657 660.1,648 651.1,648 651.1,630 642.1,630 642.1,603 633.1,603 633.1,594 
			624.1,594 624.1,585 588.1,585 588.1,594 579.1,594 579.1,603 570.1,603 570.1,630 561.1,630 561.1,648 552.1,648 552.1,657 
			552.1,666 543.1,666 543.1,720 552.1,720 552.1,729 561.1,729 561.1,738 570.1,738 570.1,747 597.1,747 615.1,747 642.1,747 
			642.1,738 651.1,738 651.1,729 660.1,729 660.1,720 669.1,720 669.1,666 		"/>
		<polygon class="st7" points="651.1,675 651.1,657 642.1,657 642.1,639 633.1,639 633.1,612 624.1,612 624.1,603 615.1,603 
			615.1,594 597.1,594 597.1,603 588.1,603 588.1,612 579.1,612 579.1,639 570.1,639 570.1,657 561.1,657 561.1,675 552.1,675 
			552.1,711 561.1,711 561.1,720 570.1,720 570.1,729 579.1,729 579.1,738 588.1,738 597.1,738 615.1,738 624.1,738 633.1,738 
			633.1,729 642.1,729 642.1,720 651.1,720 651.1,711 660.1,711 660.1,675 		"/>
		<polygon class="st8" points="633.1,684 624.1,684 624.1,675 615.1,675 615.1,666 597.1,666 597.1,675 588.1,675 588.1,684 
			579.1,684 579.1,702 588.1,702 588.1,711 597.1,711 597.1,720 615.1,720 615.1,711 624.1,711 624.1,702 633.1,702 		"/>
		<rect x="606.1" y="675" class="st9" width="9" height="9"/>
	</g>
	<rect x="588.1" y="693" class="st10" width="9" height="9"/>
	<rect x="597.1" y="702" class="st10" width="9" height="9"/>
</g>
<g>
	<polygon class="st11" points="928.3,661 919.3,661 919.3,652 910.3,652 910.3,643 856.3,643 856.3,652 847.3,652 847.3,661 
		838.3,661 838.3,706 847.3,706 847.3,715 856.3,715 856.3,724 910.3,724 910.3,715 919.3,715 919.3,706 928.3,706 	"/>
	<rect x="892.3" y="679" class="st12" width="18" height="9"/>
	<rect x="901.3" y="625" class="st12" width="18" height="9"/>
	<rect x="901.3" y="652" class="st12" width="18" height="9"/>
	<rect x="856.3" y="661" class="st13" width="18" height="9"/>
	<rect x="865.3" y="706" class="st13" width="18" height="9"/>
	<rect x="901.3" y="733" class="st12" width="18" height="9"/>
	<rect x="865.3" y="616" class="st13" width="18" height="9"/>
	<rect x="869.3" y="738" class="st13" width="9" height="9"/>
	<rect x="946.3" y="670" class="st12" width="9" height="9"/>
	<rect x="847.3" y="679" class="st14" width="18" height="9"/>
	<rect x="883.3" y="643" class="st14" width="18" height="9"/>
	<rect x="901.3" y="706" class="st14" width="9" height="9"/>
	<rect x="883.3" y="670" class="st14" width="9" height="9"/>
	<rect x="820.3" y="724" class="st14" width="18" height="9"/>
	<rect x="928.3" y="715" class="st14" width="9" height="9"/>
	<rect x="892.3" y="688" class="st13" width="9" height="9"/>
	<rect x="838.3" y="625" class="st13" width="9" height="9"/>
	<rect x="811.3" y="652" class="st12" width="18" height="9"/>
	<rect x="820.3" y="697" class="st12" width="9" height="9"/>
</g>
<polyline class="st15" points="1008.1,559.1 206.8,559.1 206.8,140.8 "/>
<rect x="305.4" y="167.5" class="st16" width="68" height="392"/>
<rect x="572.1" y="534.1" class="st17" width="68" height="25.3"/>
<rect x="846.8" y="408.8" class="st18" width="68" height="150.7"/>
<g>
	<path d="M124.2,146.8h9.8v2.4h-12.2v-7.3h1.2v-1.2h1.2v-1.2h6.1v-1.2h1.2v-2.4h-1.2v-1.2h-4.9v1.2h-1.2v1.2h-2.4v-2.4h1.2v-1.2h1.2
		v-1.2h7.3v1.2h1.2v1.2h1.2v4.9h-1.2v1.2h-1.2v1.2h-6.1v1.2h-1.2V146.8z"/>
	<path d="M138.8,133.4v-1.2h7.3v1.2h1.2v1.2h1.2v12.2h-1.2v1.2h-1.2v1.2h-7.3V148h-1.2v-1.2h-1.2v-12.2h1.2v-1.2H138.8z M140,141.9
		v-1.2h1.2v-1.2h1.2v-1.2h1.2v-1.2h2.4v-1.2h-1.2v-1.2H140v1.2h-1.2v6.1H140z M138.8,144.4v1.2h1.2v1.2h4.9v-1.2h1.2v-6.1h-1.2v1.2
		h-1.2v1.2h-1.2v1.2h-1.2v1.2H138.8z"/>
	<path d="M153.4,133.4v-1.2h7.3v1.2h1.2v1.2h1.2v12.2H162v1.2h-1.2v1.2h-7.3V148h-1.2v-1.2H151v-12.2h1.2v-1.2H153.4z M154.7,141.9
		v-1.2h1.2v-1.2h1.2v-1.2h1.2v-1.2h2.4v-1.2h-1.2v-1.2h-4.9v1.2h-1.2v6.1H154.7z M153.4,144.4v1.2h1.2v1.2h4.9v-1.2h1.2v-6.1h-1.2
		v1.2h-1.2v1.2h-1.2v1.2h-1.2v1.2H153.4z"/>
	<path d="M174.4,149.3v-17.1h9.8v1.2h1.2v1.2h1.2v4.9h-1.2v2.4h1.2v4.9h-1.2v1.2h-1.2v1.2H174.4z M176.9,139.5h6.1v-1.2h1.2v-2.4
		H183v-1.2h-6.1V139.5z M176.9,146.8h6.1v-1.2h1.2v-2.4H183v-1.2h-6.1V146.8z"/>
</g>
<line class="st15" x1="217.9" y1="141.3" x2="195.9" y2="141.3"/>
<g>
	<path d="M129,355.7h2.4v2.4h-7.3v-2.4h2.4v-9.8h-2.4v-2.4h1.2v-1.2h1.2V341h2.4V355.7z"/>
	<path d="M138.8,342.3V341h7.3v1.2h1.2v1.2h1.2v12.2h-1.2v1.2h-1.2v1.2h-7.3v-1.2h-1.2v-1.2h-1.2v-12.2h1.2v-1.2H138.8z M140,350.8
		v-1.2h1.2v-1.2h1.2v-1.2h1.2v-1.2h2.4v-1.2h-1.2v-1.2H140v1.2h-1.2v6.1H140z M138.8,353.2v1.2h1.2v1.2h4.9v-1.2h1.2v-6.1h-1.2v1.2
		h-1.2v1.2h-1.2v1.2h-1.2v1.2H138.8z"/>
	<path d="M153.4,342.3V341h7.3v1.2h1.2v1.2h1.2v12.2H162v1.2h-1.2v1.2h-7.3v-1.2h-1.2v-1.2H151v-12.2h1.2v-1.2H153.4z M154.7,350.8
		v-1.2h1.2v-1.2h1.2v-1.2h1.2v-1.2h2.4v-1.2h-1.2v-1.2h-4.9v1.2h-1.2v6.1H154.7z M153.4,353.2v1.2h1.2v1.2h4.9v-1.2h1.2v-6.1h-1.2
		v1.2h-1.2v1.2h-1.2v1.2h-1.2v1.2H153.4z"/>
	<path d="M174.4,358.1V341h9.8v1.2h1.2v1.2h1.2v4.9h-1.2v2.4h1.2v4.9h-1.2v1.2h-1.2v1.2H174.4z M176.9,348.4h6.1v-1.2h1.2v-2.4H183
		v-1.2h-6.1V348.4z M176.9,355.7h6.1v-1.2h1.2V352H183v-1.2h-6.1V355.7z"/>
</g>
<line class="st15" x1="217.9" y1="350.2" x2="195.9" y2="350.2"/>
<g>
	<path d="M136.4,445.5h12.2v2.4h-9.8v2.4h7.3v1.2h1.2v1.2h1.2v7.3h-1.2v1.2h-1.2v1.2h-7.3v-1.2h-1.2v-1.2h-1.2v-2.4h2.4v1.2h1.2v1.2
		h4.9v-1.2h1.2V454h-1.2v-1.2h-8.5V445.5z"/>
	<path d="M153.4,446.7v-1.2h7.3v1.2h1.2v1.2h1.2v12.2H162v1.2h-1.2v1.2h-7.3v-1.2h-1.2v-1.2H151v-12.2h1.2v-1.2H153.4z M154.7,455.2
		V454h1.2v-1.2h1.2v-1.2h1.2v-1.2h2.4v-1.2h-1.2v-1.2h-4.9v1.2h-1.2v6.1H154.7z M153.4,457.7v1.2h1.2v1.2h4.9v-1.2h1.2v-6.1h-1.2
		v1.2h-1.2v1.2h-1.2v1.2h-1.2v1.2H153.4z"/>
	<path d="M174.4,462.5v-17.1h9.8v1.2h1.2v1.2h1.2v4.9h-1.2v2.4h1.2v4.9h-1.2v1.2h-1.2v1.2H174.4z M176.9,452.8h6.1v-1.2h1.2v-2.4
		H183v-1.2h-6.1V452.8z M176.9,460.1h6.1v-1.2h1.2v-2.4H183v-1.2h-6.1V460.1z"/>
</g>
<line class="st15" x1="217.9" y1="454.6" x2="195.9" y2="454.6"/>
<g>
	<path d="M129,251.3h2.4v2.4h-7.3v-2.4h2.4v-9.8h-2.4V239h1.2v-1.2h1.2v-1.2h2.4V251.3z"/>
	<path d="M136.4,236.6h12.2v2.4h-9.8v2.4h7.3v1.2h1.2v1.2h1.2v7.3h-1.2v1.2h-1.2v1.2h-7.3v-1.2h-1.2v-1.2h-1.2v-2.4h2.4v1.2h1.2v1.2
		h4.9V250h1.2v-4.9h-1.2v-1.2h-8.5V236.6z"/>
	<path d="M153.4,237.8v-1.2h7.3v1.2h1.2v1.2h1.2v12.2H162v1.2h-1.2v1.2h-7.3v-1.2h-1.2v-1.2H151V239h1.2v-1.2H153.4z M154.7,246.4
		v-1.2h1.2v-1.2h1.2v-1.2h1.2v-1.2h2.4v-1.2h-1.2V239h-4.9v1.2h-1.2v6.1H154.7z M153.4,248.8v1.2h1.2v1.2h4.9V250h1.2v-6.1h-1.2v1.2
		h-1.2v1.2h-1.2v1.2h-1.2v1.2H153.4z"/>
	<path d="M174.4,253.7v-17.1h9.8v1.2h1.2v1.2h1.2v4.9h-1.2v2.4h1.2v4.9h-1.2v1.2h-1.2v1.2H174.4z M176.9,243.9h6.1v-1.2h1.2v-2.4
		H183V239h-6.1V243.9z M176.9,251.3h6.1V250h1.2v-2.4H183v-1.2h-6.1V251.3z"/>
</g>
<line class="st15" x1="217.7" y1="245.8" x2="195.7" y2="245.8"/>
</svg>
