<?xml version="1.0" encoding="utf-8"?>
<!-- Generator: Adobe Illustrator 25.2.3, SVG Export Plug-In . SVG Version: 6.00 Build 0)  -->
<svg version="1.1" id="Layer_1" xmlns="http://www.w3.org/2000/svg" xmlns:xlink="http://www.w3.org/1999/xlink" x="0px" y="0px"
	 viewBox="0 0 300 250" style="enable-background:new 0 0 300 250;" xml:space="preserve">
<style type="text/css">
	.st0{fill:#EBC892;}
	.st1{fill:#FFF2D3;}
	.st2{fill:#C5A576;}
	.st3{fill:#966A43;}
</style>
<g id="layout">
</g>
<g>
	<polygon class="st0" points="202,100.8 191.6,100.8 191.6,90.4 181.2,90.4 181.2,80 118.8,80 118.8,90.4 108.4,90.4 108.4,100.8 
		98,100.8 98,152.8 108.4,152.8 108.4,163.2 118.8,163.2 118.8,173.6 181.2,173.6 181.2,163.2 191.6,163.2 191.6,152.8 202,152.8 	
		"/>
	<rect x="160.4" y="121.6" class="st1" width="20.8" height="10.4"/>
	<rect x="170.8" y="59.2" class="st1" width="20.8" height="10.4"/>
	<rect x="170.8" y="90.4" class="st1" width="20.8" height="10.4"/>
	<rect x="118.8" y="100.8" class="st2" width="20.8" height="10.4"/>
	<rect x="129.2" y="152.8" class="st2" width="20.8" height="10.4"/>
	<rect x="170.8" y="184" class="st1" width="20.8" height="10.4"/>
	<rect x="129.2" y="48.9" class="st2" width="20.8" height="10.4"/>
	<rect x="133.8" y="189.7" class="st2" width="10.4" height="10.4"/>
	<rect x="222.8" y="111.2" class="st1" width="10.4" height="10.4"/>
	<rect x="108.4" y="121.6" class="st3" width="20.8" height="10.4"/>
	<rect x="150" y="80" class="st3" width="20.8" height="10.4"/>
	<rect x="170.8" y="152.8" class="st3" width="10.4" height="10.4"/>
	<rect x="150" y="111.2" class="st3" width="10.4" height="10.4"/>
	<rect x="77.2" y="173.6" class="st3" width="20.8" height="10.4"/>
	<rect x="202" y="163.2" class="st3" width="10.4" height="10.4"/>
	<rect x="160.4" y="132" class="st2" width="10.4" height="10.4"/>
	<rect x="98" y="59.2" class="st2" width="10.4" height="10.4"/>
	<rect x="66.8" y="90.4" class="st1" width="20.8" height="10.4"/>
	<rect x="77.2" y="142.4" class="st1" width="10.4" height="10.4"/>
</g>
</svg>
