<?xml version="1.0" encoding="utf-8"?>
<!-- Generator: Adobe Illustrator 25.2.3, SVG Export Plug-In . SVG Version: 6.00 Build 0)  -->
<svg version="1.1" xmlns="http://www.w3.org/2000/svg" xmlns:xlink="http://www.w3.org/1999/xlink" x="0px" y="0px"
	 viewBox="0 0 1108 791" style="enable-background:new 0 0 1108 791;" xml:space="preserve">
<style type="text/css">
	.st0{fill:#C9DA72;}
	.st1{fill:#668841;}
	.st2{fill:#645C5A;}
	.st3{fill:#7F6D57;}
	.st4{fill:#4B423B;}
	.st5{fill:#E9E1D4;}
	.st6{fill:#3FA0A7;}
	.st7{fill:#7DC0C9;}
	.st8{fill:none;}
	.st9{font-family:'VCROSDMono';}
	.st10{font-size:21px;}
	.st11{fill:none;stroke:#231F20;stroke-miterlimit:10;}
	.st12{stroke:#231F20;stroke-miterlimit:10;}
</style>
<g id="Layer_2">
	<g>
		<rect x="874.3" y="238.9" class="st0" width="29.8" height="327.7"/>
		<rect x="814.7" y="149.5" class="st1" width="29.8" height="29.8"/>
		<rect x="844.5" y="149.5" class="st1" width="29.8" height="59.6"/>
		<rect x="874.3" y="179.3" class="st1" width="29.8" height="59.6"/>
		<rect x="904.1" y="179.3" class="st1" width="29.8" height="29.8"/>
		<rect x="904.1" y="149.5" class="st1" width="29.8" height="29.8"/>
		<rect x="933.9" y="149.5" class="st1" width="29.8" height="29.8"/>
	</g>
	<polygon class="st2" points="238.2,430.4 226.3,430.4 226.3,418.5 214.3,418.5 214.3,406.5 142.7,406.5 142.7,418.5 130.8,418.5 
		130.8,430.4 118.9,430.4 118.9,490 130.8,490 130.8,502 142.7,502 142.7,513.9 214.3,513.9 214.3,502 226.3,502 226.3,490 
		238.2,490 	"/>
	<rect x="190.5" y="454.2" class="st3" width="23.9" height="11.9"/>
	<rect x="202.4" y="382.7" class="st3" width="23.9" height="11.9"/>
	<rect x="202.4" y="418.5" class="st3" width="23.9" height="11.9"/>
	<rect x="142.7" y="430.4" class="st4" width="23.9" height="11.9"/>
	<rect x="154.7" y="490" class="st4" width="23.9" height="11.9"/>
	<rect x="202.4" y="525.8" class="st3" width="23.9" height="11.9"/>
	<rect x="154.7" y="370.7" class="st4" width="23.9" height="11.9"/>
	<rect x="160" y="532.4" class="st4" width="11.9" height="11.9"/>
	<rect x="262" y="442.3" class="st3" width="11.9" height="11.9"/>
	<rect x="130.8" y="454.2" class="st5" width="23.9" height="11.9"/>
	<rect x="178.5" y="406.5" class="st5" width="23.9" height="11.9"/>
	<rect x="202.4" y="490" class="st5" width="11.9" height="11.9"/>
	<rect x="178.5" y="442.3" class="st5" width="11.9" height="11.9"/>
	<rect x="95" y="513.9" class="st5" width="23.9" height="11.9"/>
	<rect x="238.2" y="502" class="st5" width="11.9" height="11.9"/>
	<rect x="190.5" y="466.2" class="st4" width="11.9" height="11.9"/>
	<rect x="118.9" y="382.7" class="st4" width="11.9" height="11.9"/>
	<rect x="83.1" y="418.5" class="st3" width="23.9" height="11.9"/>
	<rect x="95" y="478.1" class="st3" width="11.9" height="11.9"/>
	<g>
		<rect x="501.5" y="473.9" class="st0" width="29.8" height="92.7"/>
		<rect x="501.5" y="414.3" class="st1" width="29.8" height="59.6"/>
		<rect x="531.3" y="414.3" class="st1" width="29.8" height="29.8"/>
		<rect x="531.3" y="384.5" class="st1" width="29.8" height="29.8"/>
	</g>
	<polygon class="st6" points="138.2,241.2 138.2,230.5 132.9,230.5 132.9,219.8 127.5,219.8 127.5,209.1 122.2,209.1 122.2,219.8 
		116.8,219.8 116.8,230.5 111.5,230.5 111.5,241.2 106.1,241.2 106.1,268 111.5,268 111.5,273.3 138.2,273.3 138.2,268 143.6,268 
		143.6,241.2 	"/>
	<g>
		<rect x="111.5" y="251.9" class="st7" width="5.4" height="10.7"/>
		<rect x="116.8" y="262.6" class="st7" width="5.4" height="5.4"/>
	</g>
	<polygon class="st6" points="251.6,312.8 251.6,302.1 246.2,302.1 246.2,291.4 240.9,291.4 240.9,280.6 235.5,280.6 235.5,291.4 
		230.1,291.4 230.1,302.1 224.8,302.1 224.8,312.8 219.4,312.8 219.4,339.5 224.8,339.5 224.8,344.9 251.6,344.9 251.6,339.5 
		256.9,339.5 256.9,312.8 	"/>
	<g>
		<rect x="224.8" y="323.5" class="st7" width="5.4" height="10.7"/>
		<rect x="230.1" y="334.2" class="st7" width="5.4" height="5.4"/>
	</g>
	<polygon class="st6" points="215.8,163 215.8,152.3 210.4,152.3 210.4,141.6 205.1,141.6 205.1,130.9 199.7,130.9 199.7,141.6 
		194.4,141.6 194.4,152.3 189,152.3 189,163 183.7,163 183.7,189.8 189,189.8 189,195.1 215.8,195.1 215.8,189.8 221.1,189.8 
		221.1,163 	"/>
	<g>
		<rect x="189" y="173.7" class="st7" width="5.4" height="10.7"/>
		<rect x="194.4" y="184.4" class="st7" width="5.4" height="5.4"/>
	</g>
	<rect x="1051.4" y="137.8" class="st8" width="140.4" height="24.2"/>
	<text transform="matrix(1 0 0 1 1051.415 157.5963)" class="st9 st10">7CM</text>
</g>
<g id="Layer_3">
	<line class="st11" x1="1030.2" y1="149.5" x2="1030.2" y2="566.6"/>
	<line class="st11" x1="1042.5" y1="149.9" x2="1018" y2="149.9"/>
	<polygon points="128.3,-182.9 47.1,-182.9 8.9,-182.9 8.9,-235.8 8.9,-362.5 47.1,-362.5 47.1,-235.8 128.3,-235.8 	"/>
	<g>
		<path class="st12" d="M74.4,641.3h1.8v3.5h-3.5v-1.8h-1.8v-1.8h-7v1.8h-1.8v3.5h1.8v1.8h8.8v1.8h1.8v1.8h1.8v7h-1.8v1.8h-1.8v1.8
			H62.1v-1.8h-1.8v-1.8h-1.8v-3.5h3.5v1.8h1.8v1.8h7v-1.8h1.8v-3.5h-1.8v-1.8h-8.8v-1.8h-1.8v-1.8h-1.8v-7h1.8v-1.8h1.8v-1.8h10.5
			v1.8h1.8V641.3z"/>
		<path class="st12" d="M83.2,639.6v-1.8h10.5v1.8h1.8v1.8h1.8v17.6h-1.8v1.8h-1.8v1.8H83.2v-1.8h-1.8v-1.8h-1.8v-17.6h1.8v-1.8
			H83.2z M92,641.3h-7v1.8h-1.8v14.1H85v1.8h7v-1.8h1.8v-14.1H92V641.3z"/>
		<path class="st12" d="M104.3,662.4h-3.5v-17.6h1.8v-1.8h1.8v-1.8h1.8v-1.8h1.8v-1.8h3.5v1.8h1.8v1.8h1.8v1.8h1.8v1.8h1.8v17.6
			h-3.5v-7h-10.5V662.4z M104.3,651.9h10.5v-5.3h-1.8v-1.8h-1.8v-1.8h-3.5v1.8h-1.8v1.8h-1.8V651.9z"/>
		<path class="st12" d="M125.4,651.9v10.5h-3.5v-24.6h3.5v10.5h1.8v-1.8h1.8v-1.8h1.8v-1.8h1.8v-1.8h1.8v-1.8h1.8v-1.8h3.5v3.5h-1.8
			v1.8h-1.8v1.8h-1.8v1.8h-1.8v1.8h-1.8v3.5h1.8v1.8h1.8v1.8h1.8v1.8h1.8v1.8h1.8v3.5h-3.5v-1.8h-1.8v-1.8h-1.8v-1.8h-1.8v-1.8h-1.8
			v-1.8h-1.8v-1.8H125.4z"/>
		<path class="st12" d="M179.9,641.3h1.8v3.5h-3.5v-1.8h-1.8v-1.8h-7v1.8h-1.8v3.5h1.8v1.8h8.8v1.8h1.8v1.8h1.8v7h-1.8v1.8h-1.8v1.8
			h-10.5v-1.8h-1.8v-1.8h-1.8v-3.5h3.5v1.8h1.8v1.8h7v-1.8h1.8v-3.5h-1.8v-1.8h-8.8v-1.8h-1.8v-1.8h-1.8v-7h1.8v-1.8h1.8v-1.8h10.5
			v1.8h1.8V641.3z"/>
		<path class="st12" d="M202.7,637.8v3.5h-14.1v7h10.5v3.5h-10.5v7h14.1v3.5h-17.6v-24.6H202.7z"/>
		<path class="st12" d="M223.8,637.8v3.5h-14.1v7h10.5v3.5h-10.5v7h14.1v3.5h-17.6v-24.6H223.8z"/>
		<path class="st12" d="M227.4,662.4v-24.6h14.1v1.8h1.8v1.8h1.8v17.6h-1.8v1.8h-1.8v1.8H227.4z M230.9,641.3v17.6h8.8v-1.8h1.8
			v-14.1h-1.8v-1.8H230.9z"/>
		<path class="st12" d="M264.3,641.3h1.8v3.5h-3.5v-1.8h-1.8v-1.8h-7v1.8H252v3.5h1.8v1.8h8.8v1.8h1.8v1.8h1.8v7h-1.8v1.8h-1.8v1.8
			H252v-1.8h-1.8v-1.8h-1.8v-3.5h3.5v1.8h1.8v1.8h7v-1.8h1.8v-3.5h-1.8v-1.8H252v-1.8h-1.8v-1.8h-1.8v-7h1.8v-1.8h1.8v-1.8h10.5v1.8
			h1.8V641.3z"/>
	</g>
	<g>
		<path class="st12" d="M485.6,641.3h1.8v3.5h-3.5v-1.8h-1.8v-1.8h-7v1.8h-1.8v3.5h1.8v1.8h8.8v1.8h1.8v1.8h1.8v7h-1.8v1.8h-1.8v1.8
			h-10.5v-1.8h-1.8v-1.8h-1.8v-3.5h3.5v1.8h1.8v1.8h7v-1.8h1.8v-3.5h-1.8v-1.8h-8.8v-1.8h-1.8v-1.8h-1.8v-7h1.8v-1.8h1.8v-1.8h10.5
			v1.8h1.8V641.3z"/>
		<path class="st12" d="M494.4,651.9v10.5h-3.5v-24.6H505v1.8h1.8v1.8h1.8v7h-1.8v1.8H505v1.8H494.4z M494.4,641.3v7h8.8v-1.8h1.8
			v-3.5h-1.8v-1.8H494.4z"/>
		<path class="st12" d="M517.3,651.9h-1.8v10.5H512v-24.6H526v1.8h1.8v1.8h1.8v7h-1.8v1.8H526v1.8h-3.5v1.8h1.8v1.8h1.8v1.8h1.8v1.8
			h1.8v3.5H526v-1.8h-1.8v-1.8h-1.8v-1.8h-1.8v-1.8H519v-1.8h-1.8V651.9z M515.5,641.3v7h8.8v-1.8h1.8v-3.5h-1.8v-1.8H515.5z"/>
		<path class="st12" d="M536.6,639.6v-1.8h10.5v1.8h1.8v1.8h1.8v17.6h-1.8v1.8h-1.8v1.8h-10.5v-1.8h-1.8v-1.8h-1.8v-17.6h1.8v-1.8
			H536.6z M545.4,641.3h-7v1.8h-1.8v14.1h1.8v1.8h7v-1.8h1.8v-14.1h-1.8V641.3z"/>
		<path class="st12" d="M555.9,658.9h-1.8v-21.1h3.5v19.3h1.8v1.8h7v-1.8h1.8v-19.3h3.5v21.1H570v1.8h-1.8v1.8h-10.5v-1.8h-1.8
			V658.9z"/>
		<path class="st12" d="M582.3,641.3h-7v-3.5h17.6v3.5h-7v21.1h-3.5V641.3z"/>
	</g>
	<g>
		<path class="st12" d="M800.1,662.4h-3.5v-24.6h3.5v3.5h1.8v1.8h1.8v1.8h3.5v-1.8h1.8v-1.8h1.8v-3.5h3.5v24.6h-3.5v-15.8h-1.8v1.8
			h-1.8v3.5h-3.5v-3.5h-1.8v-1.8h-1.8V662.4z"/>
		<path class="st12" d="M821.2,662.4v-3.5h3.5v-17.6h-3.5v-3.5h10.5v3.5h-3.5v17.6h3.5v3.5H821.2z"/>
		<path class="st12" d="M844.1,658.9h7v-1.8h1.8v-1.8h3.5v3.5h-1.8v1.8h-1.8v1.8h-10.5v-1.8h-1.8v-1.8h-1.8v-17.6h1.8v-1.8h1.8v-1.8
			h10.5v1.8h1.8v1.8h1.8v3.5h-3.5v-1.8h-1.8v-1.8h-7v1.8h-1.8v14.1h1.8V658.9z"/>
		<path class="st12" d="M865.2,651.9h-1.8v10.5h-3.5v-24.6H874v1.8h1.8v1.8h1.8v7h-1.8v1.8H874v1.8h-3.5v1.8h1.8v1.8h1.8v1.8h1.8
			v1.8h1.8v3.5H874v-1.8h-1.8v-1.8h-1.8v-1.8h-1.8v-1.8h-1.8v-1.8h-1.8V651.9z M863.4,641.3v7h8.8v-1.8h1.8v-3.5h-1.8v-1.8H863.4z"
			/>
		<path class="st12" d="M884.5,639.6v-1.8H895v1.8h1.8v1.8h1.8v17.6h-1.8v1.8H895v1.8h-10.5v-1.8h-1.8v-1.8H881v-17.6h1.8v-1.8
			H884.5z M893.3,641.3h-7v1.8h-1.8v14.1h1.8v1.8h7v-1.8h1.8v-14.1h-1.8V641.3z"/>
		<path class="st12" d="M917.9,641.3h1.8v3.5h-3.5v-1.8h-1.8v-1.8h-7v1.8h-1.8v14.1h1.8v1.8h7v-1.8h1.8v-5.3h-5.3v-3.5h8.8v10.5
			h-1.8v1.8h-1.8v1.8h-10.5v-1.8h-1.8v-1.8h-1.8v-17.6h1.8v-1.8h1.8v-1.8h10.5v1.8h1.8V641.3z"/>
		<path class="st12" d="M928.4,651.9h-1.8v10.5h-3.5v-24.6h14.1v1.8h1.8v1.8h1.8v7H939v1.8h-1.8v1.8h-3.5v1.8h1.8v1.8h1.8v1.8h1.8
			v1.8h1.8v3.5h-3.5v-1.8h-1.8v-1.8h-1.8v-1.8H932v-1.8h-1.8v-1.8h-1.8V651.9z M926.7,641.3v7h8.8v-1.8h1.8v-3.5h-1.8v-1.8H926.7z"
			/>
		<path class="st12" d="M961.8,637.8v3.5h-14.1v7h10.5v3.5h-10.5v7h14.1v3.5h-17.6v-24.6H961.8z"/>
		<path class="st12" d="M982.9,637.8v3.5h-14.1v7h10.5v3.5h-10.5v7h14.1v3.5h-17.6v-24.6H982.9z"/>
		<path class="st12" d="M990,648.4v14.1h-3.5v-24.6h3.5v5.3h1.8v1.8h1.8v1.8h1.8v1.8h1.8v1.8h1.8v1.8h1.8v-14.1h3.5v24.6h-3.5v-5.3
			h-1.8v-1.8H997v-1.8h-1.8v-1.8h-1.8v-1.8h-1.8v-1.8H990z"/>
	</g>
	<path d="M462.5,695.6v-1.5h2.9v11.7h2.9v2.9h-2.9v5.9h-2.9v-5.9h-8.8v-5.9h1.5v-1.5h1.5V700h1.5v-1.5h1.5v-1.5h1.5v-1.5H462.5z
		 M462.5,705.8V700H461v1.5h-1.5v1.5h-1.5v1.5h-1.5v1.5H462.5z"/>
	<path d="M494.5,702.9v2.9h-11.7v-2.9H494.5z"/>
	<path d="M518.1,697.1h-11.7v-2.9h14.6v7.3h-1.5v1.5h-1.5v1.5h-1.5v1.5h-1.5v8.8h-2.9v-10.3h1.5v-1.5h1.5v-1.5h1.5V700h1.5V697.1z"
		/>
	<path d="M541.6,714.6v-20.5h11.7v1.5h1.5v1.5h1.5v14.6h-1.5v1.5h-1.5v1.5H541.6z M544.5,697.1v14.6h7.3v-1.5h1.5v-11.7h-1.5v-1.5
		H544.5z"/>
	<path d="M562.1,714.6h-2.9V700h1.5v-1.5h1.5v-1.5h1.5v-1.5h1.5v-1.5h2.9v1.5h1.5v1.5h1.5v1.5h1.5v1.5h1.5v14.6h-2.9v-5.9h-8.8
		V714.6z M562.1,705.8h8.8v-4.4h-1.5V700h-1.5v-1.5H565v1.5h-1.5v1.5h-1.5V705.8z"/>
	<path d="M585.5,714.6h-2.9v-7.3h-1.5v-1.5h-1.5v-1.5h-1.5v-1.5h-1.5v-8.8h2.9v7.3h1.5v1.5h1.5v1.5h2.9v-1.5h1.5v-1.5h1.5v-7.3h2.9
		v8.8h-1.5v1.5h-1.5v1.5H587v1.5h-1.5V714.6z"/>
	<path d="M607.5,697.1h1.5v2.9H606v-1.5h-1.5v-1.5h-5.9v1.5h-1.5v2.9h1.5v1.5h7.3v1.5h1.5v1.5h1.5v5.9h-1.5v1.5H606v1.5h-8.8v-1.5
		h-1.5v-1.5h-1.5v-2.9h2.9v1.5h1.5v1.5h5.9v-1.5h1.5v-2.9h-1.5v-1.5h-7.3v-1.5h-1.5v-1.5h-1.5v-5.9h1.5v-1.5h1.5v-1.5h8.8v1.5h1.5
		V697.1z"/>
	<line class="st11" x1="1030.8" y1="566.6" x2="28.8" y2="566.6"/>
	<g>
		<path d="M849.1,711.7h2.9v2.9h-8.8v-2.9h2.9V700h-2.9v-2.9h1.5v-1.5h1.5v-1.5h2.9V711.7z"/>
		<path d="M866.6,695.6v-1.5h2.9v11.7h2.9v2.9h-2.9v5.9h-2.9v-5.9h-8.8v-5.9h1.5v-1.5h1.5V700h1.5v-1.5h1.5v-1.5h1.5v-1.5H866.6z
			 M866.6,705.8V700h-1.5v1.5h-1.5v1.5h-1.5v1.5h-1.5v1.5H866.6z"/>
		<path d="M893,714.6v-20.5h11.7v1.5h1.5v1.5h1.5v14.6h-1.5v1.5h-1.5v1.5H893z M895.9,697.1v14.6h7.3v-1.5h1.5v-11.7h-1.5v-1.5
			H895.9z"/>
		<path d="M913.5,714.6h-2.9V700h1.5v-1.5h1.5v-1.5h1.5v-1.5h1.5v-1.5h2.9v1.5h1.5v1.5h1.5v1.5h1.5v1.5h1.5v14.6h-2.9v-5.9h-8.8
			V714.6z M913.5,705.8h8.8v-4.4h-1.5V700h-1.5v-1.5h-2.9v1.5H915v1.5h-1.5V705.8z"/>
		<path d="M936.9,714.6H934v-7.3h-1.5v-1.5h-1.5v-1.5h-1.5v-1.5h-1.5v-8.8h2.9v7.3h1.5v1.5h1.5v1.5h2.9v-1.5h1.5v-1.5h1.5v-7.3h2.9
			v8.8h-1.5v1.5h-1.5v1.5h-1.5v1.5h-1.5V714.6z"/>
		<path d="M958.9,697.1h1.5v2.9h-2.9v-1.5H956v-1.5h-5.9v1.5h-1.5v2.9h1.5v1.5h7.3v1.5h1.5v1.5h1.5v5.9h-1.5v1.5h-1.5v1.5h-8.8v-1.5
			h-1.5v-1.5h-1.5v-2.9h2.9v1.5h1.5v1.5h5.9v-1.5h1.5v-2.9H956v-1.5h-7.3v-1.5h-1.5v-1.5h-1.5v-5.9h1.5v-1.5h1.5v-1.5h8.8v1.5h1.5
			V697.1z"/>
	</g>
	<g>
		<path d="M132.6,708.5h2.9v2.9h-8.8v-2.9h2.9v-11.7h-2.9v-2.9h1.5v-1.5h1.5V691h2.9V708.5z"/>
		<path d="M159,711.5V691h11.7v1.5h1.5v1.5h1.5v14.6h-1.5v1.5h-1.5v1.5H159z M161.9,693.9v14.6h7.3v-1.5h1.5v-11.7h-1.5v-1.5H161.9z
			"/>
		<path d="M179.5,711.5h-2.9v-14.6h1.5v-1.5h1.5v-1.5h1.5v-1.5h1.5V691h2.9v1.5h1.5v1.5h1.5v1.5h1.5v1.5h1.5v14.6h-2.9v-5.9h-8.8
			V711.5z M179.5,702.7h8.8v-4.4h-1.5v-1.5h-1.5v-1.5h-2.9v1.5H181v1.5h-1.5V702.7z"/>
		<path d="M202.9,711.5H200v-7.3h-1.5v-1.5h-1.5v-1.5h-1.5v-1.5h-1.5V691h2.9v7.3h1.5v1.5h1.5v1.5h2.9v-1.5h1.5v-1.5h1.5V691h2.9
			v8.8h-1.5v1.5h-1.5v1.5h-1.5v1.5h-1.5V711.5z"/>
	</g>
	<line class="st11" x1="348.1" y1="552.1" x2="348.1" y2="576.6"/>
	<line class="st11" x1="716.3" y1="552.1" x2="716.3" y2="576.6"/>
	<rect x="0" y="1260.2" class="st8" width="370" height="28.7"/>
	<text transform="matrix(1 0 0 1 79.5284 1286.5297)" class="st12 st9" style="font-size:36px;">SOAK SEEDS</text>
	<rect x="369" y="1260.2" class="st8" width="370" height="28.7"/>
	<text transform="matrix(1 0 0 1 490.7186 1286.5297)" class="st12 st9" style="font-size:36px;">SPROUT</text>
	<rect x="738" y="1260.2" class="st8" width="370" height="28.7"/>
	<text transform="matrix(1 0 0 1 817.5338 1286.5297)" class="st12 st9" style="font-size:36px;">MICROGREEN</text>
	<rect x="369" y="1316.5" class="st8" width="370" height="28.7"/>
	<text transform="matrix(1 0 0 1 474.8983 1338.4338)" class="st9" style="font-size:30px;">4 -7 DAYS</text>
	<rect x="738" y="1316.5" class="st8" width="370" height="28.7"/>
	<text transform="matrix(1 0 0 1 861.479 1338.4338)" class="st9" style="font-size:30px;">14 DAYS</text>
	<rect x="4" y="1313.3" class="st8" width="370" height="28.7"/>
	<text transform="matrix(1 0 0 1 145.0621 1335.2664)" class="st9" style="font-size:30px;">1 DAY</text>
</g>
</svg>
