<?xml version="1.0" encoding="utf-8"?>
<!-- Generator: Adobe Illustrator 25.2.3, SVG Export Plug-In . SVG Version: 6.00 Build 0)  -->
<svg version="1.1" id="Layer_1" xmlns="http://www.w3.org/2000/svg" xmlns:xlink="http://www.w3.org/1999/xlink" x="0px" y="0px"
	 viewBox="0 0 250 150" style="enable-background:new 0 0 250 150;" xml:space="preserve">
<style type="text/css">
	.st0{stroke:#000000;stroke-width:2;stroke-miterlimit:10;}
	.st1{fill:#96BC50;}
	.st2{fill:#668B40;}
	.st3{fill:#CBDC72;}
	.st4{fill:#426A36;}
	.st5{fill:#7379B7;}
	.st6{fill:#E9EBF5;}
	.st7{fill:none;stroke:#231F20;stroke-width:0.5;stroke-miterlimit:10;}
	.st8{stroke:#231F20;stroke-width:0.25;stroke-miterlimit:10;}
	.st9{fill:#CF232E;}
	.st10{fill:#645C5A;}
	.st11{fill:#7F6D57;}
	.st12{fill:#4B423B;}
	.st13{fill:#E9E1D4;}
	.st14{fill:#018F9F;}
	.st15{fill:#706353;}
	.st16{fill:#32A04D;}
</style>
<g>
	<path class="st0" d="M127.8,74.9v-2.8h2.8v-2.8h2.8v-5.6h-2.8V61h-11.2v2.8h-2.8v2.8H111V61h2.8v-2.8h2.8v-2.8h16.9v2.8h2.8V61h2.8
		v11.2h-2.8v2.8h-2.8v2.8h-2.8v2.8h-2.8v2.8h-5.6v-5.6h2.8V75C125.1,75,127.8,75,127.8,74.9z M127.8,89.1v5.6h-5.6v-5.6H127.8z"/>
</g>
<g>
	<g>
		<g>
			<polygon class="st1" points="27.8,72.8 27.8,62.9 25.8,62.9 25.8,61 27.8,61 27.8,59 27.8,57 27.8,47.2 29.8,47.2 29.8,57 
				29.8,59 31.7,59 31.7,61 29.8,61 29.8,72.8 29.8,74.7 29.8,88.5 31.7,88.5 31.7,90.5 29.8,90.5 29.8,94.4 27.8,94.4 27.8,86.5 
				25.8,86.5 25.8,84.6 27.8,84.6 27.8,74.7 			"/>
			<polygon class="st1" points="39.6,74.7 39.6,72.8 41.6,72.8 41.6,74.7 45.5,74.7 49.4,74.7 49.4,76.7 45.5,76.7 41.6,76.7 
				41.6,78.7 39.6,78.7 39.6,76.7 			"/>
			<polygon class="st1" points="41.6,68.8 43.5,68.8 43.5,70.8 43.5,72.8 41.6,72.8 41.6,70.8 			"/>
			<rect x="35.7" y="82.6" class="st1" width="2" height="2"/>
			<rect x="33.7" y="84.6" class="st1" width="2" height="2"/>
			<rect x="31.7" y="86.5" class="st1" width="2" height="2"/>
			<polygon class="st1" points="37.6,78.7 39.6,78.7 39.6,80.6 39.6,82.6 37.6,82.6 37.6,80.6 			"/>
			<rect x="31.7" y="57" class="st1" width="2" height="2"/>
			<rect x="33.7" y="55.1" class="st1" width="2" height="2"/>
			<rect x="23.9" y="59" class="st1" width="2" height="2"/>
			<polygon class="st1" points="18,59 18,57 21.9,57 23.9,57 23.9,59 21.9,59 			"/>
			<rect x="51.4" y="78.7" class="st1" width="2" height="2"/>
			<rect x="49.4" y="76.7" class="st1" width="2" height="2"/>
			<rect x="39.6" y="96.4" class="st1" width="2" height="3.9"/>
			<rect x="37.6" y="94.4" class="st1" width="2" height="2"/>
			<rect x="35.7" y="92.4" class="st1" width="2" height="2"/>
			<rect x="33.7" y="90.5" class="st1" width="2" height="2"/>
			<rect x="25.8" y="94.4" class="st1" width="2" height="5.9"/>
			<rect x="23.9" y="100.3" class="st1" width="2" height="2"/>
			<rect x="21.9" y="102.3" class="st1" width="2" height="2"/>
			<rect x="19.9" y="104.2" class="st1" width="2" height="3.9"/>
			<rect x="23.9" y="82.6" class="st1" width="2" height="2"/>
			<rect x="21.9" y="80.6" class="st1" width="2" height="2"/>
			<rect x="19.9" y="78.7" class="st1" width="2" height="2"/>
			<rect x="18" y="76.7" class="st1" width="2" height="2"/>
		</g>
		<g>
			<polygon class="st2" points="12.1,59 12.1,57 14,57 16,57 16,55.1 23.9,55.1 23.9,57 18,57 18,59 23.9,59 23.9,61 25.8,61 
				25.8,62.9 23.9,62.9 23.9,64.9 18,64.9 18,62.9 14,62.9 14,61 10.1,61 10.1,59 			"/>
			<rect x="23.9" y="57" class="st2" width="2" height="2"/>
			<rect x="8.1" y="61" class="st2" width="2" height="2"/>
		</g>
		<g>
			<rect x="39.6" y="49.2" class="st2" width="2" height="2"/>
			<polygon class="st2" points="33.7,59 33.7,57 35.7,57 35.7,55.1 33.7,55.1 33.7,57 31.7,57 31.7,59 29.8,59 29.8,55.1 31.7,55.1 
				31.7,53.1 33.7,53.1 35.7,53.1 35.7,51.1 37.6,51.1 39.6,51.1 39.6,53.1 37.6,53.1 37.6,57 37.6,59 35.7,59 35.7,61 33.7,61 
				33.7,62.9 29.8,62.9 29.8,61 31.7,61 31.7,59 			"/>
		</g>
		<g>
			<rect x="55.3" y="84.6" class="st2" width="2" height="2"/>
			<polygon class="st2" points="43.5,74.7 41.6,74.7 41.6,72.8 43.5,72.8 43.5,70.8 45.5,70.8 49.4,70.8 49.4,72.8 51.4,72.8 
				51.4,74.7 53.4,74.7 53.4,76.7 55.3,76.7 55.3,78.7 55.3,82.6 55.3,84.6 53.4,84.6 53.4,82.6 45.5,82.6 45.5,80.6 43.5,80.6 
				41.6,80.6 41.6,76.7 43.5,76.7 49.4,76.7 49.4,78.7 51.4,78.7 51.4,80.6 53.4,80.6 53.4,78.7 51.4,78.7 51.4,76.7 49.4,76.7 
				49.4,74.7 			"/>
		</g>
		<polygon class="st2" points="33.7,90.5 33.7,92.4 35.7,92.4 35.7,94.4 37.6,94.4 37.6,96.4 39.6,96.4 39.6,100.3 41.6,100.3 
			41.6,96.4 39.6,96.4 39.6,94.4 37.6,94.4 37.6,92.4 35.7,92.4 35.7,90.5 35.7,88.5 37.6,88.5 41.6,88.5 41.6,90.5 43.5,90.5 
			43.5,92.4 45.5,92.4 45.5,106.2 43.5,106.2 43.5,112.1 41.6,112.1 41.6,116.1 39.6,116.1 39.6,114.1 37.6,114.1 37.6,110.1 
			35.7,110.1 35.7,104.2 33.7,104.2 33.7,102.3 29.8,102.3 29.8,90.5 		"/>
		<g>
			<polygon class="st2" points="10.1,70.8 10.1,68.8 16,68.8 16,70.8 18,70.8 21.9,70.8 21.9,72.8 23.9,72.8 25.8,72.8 25.8,74.7 
				27.8,74.7 27.8,84.6 25.8,84.6 25.8,82.6 23.9,82.6 23.9,80.6 21.9,80.6 21.9,78.7 19.9,78.7 19.9,76.7 18,76.7 18,78.7 
				19.9,78.7 19.9,80.6 21.9,80.6 21.9,82.6 23.9,82.6 23.9,84.6 25.8,84.6 25.8,86.5 25.8,88.5 18,88.5 18,86.5 16,86.5 16,84.6 
				14,84.6 14,82.6 12.1,82.6 12.1,80.6 12.1,78.7 10.1,78.7 10.1,76.7 10.1,72.8 8.1,72.8 8.1,70.8 			"/>
			<rect x="6.1" y="72.8" class="st2" width="2" height="2"/>
		</g>
		<polygon class="st1" points="41.6,61 41.6,55.1 43.5,55.1 43.5,51.1 45.5,51.1 45.5,45.2 47.5,45.2 47.5,47.2 49.4,47.2 
			49.4,55.1 51.4,55.1 51.4,61 49.4,61 49.4,64.9 47.5,64.9 47.5,66.9 45.5,66.9 45.5,68.8 43.5,68.8 41.6,68.8 41.6,66.9 
			39.6,66.9 39.6,61 		"/>
		<polygon class="st1" points="21.9,31.4 23.9,31.4 23.9,23.6 25.8,23.6 25.8,11.8 27.8,11.8 27.8,7.8 29.8,7.8 29.8,11.8 
			31.7,11.8 31.7,19.6 33.7,19.6 33.7,25.5 31.7,25.5 31.7,33.4 33.7,33.4 33.7,43.3 31.7,43.3 31.7,45.2 29.8,45.2 29.8,47.2 
			27.8,47.2 27.8,45.2 25.8,45.2 23.9,45.2 23.9,37.4 21.9,37.4 		"/>
		<rect x="41.5" y="100.3" class="st3" width="2" height="2"/>
		<rect x="53.3" y="78.6" class="st3" width="2" height="2"/>
		<rect x="16" y="72.7" class="st3" width="3.9" height="2"/>
		<rect x="15.9" y="55" class="st3" width="2" height="2"/>
		<rect x="35.6" y="53.1" class="st3" width="2" height="2"/>
		<rect x="29.7" y="60.9" class="st4" width="2" height="2"/>
		<rect x="23.8" y="60.9" class="st4" width="2" height="2"/>
		<rect x="21.8" y="62.9" class="st4" width="2" height="2"/>
		<rect x="21.9" y="86.5" class="st4" width="3.9" height="2"/>
		<rect x="29.7" y="92.5" class="st4" width="2" height="7.9"/>
		<rect x="33.7" y="100.3" class="st4" width="2" height="2"/>
		<rect x="43.5" y="78.6" class="st4" width="2" height="2"/>
		<rect x="41.5" y="76.7" class="st2" width="2" height="2"/>
		<rect x="25.8" y="33.4" class="st2" width="2" height="2"/>
		<rect x="27.7" y="21.7" class="st2" width="2" height="3.9"/>
		<rect x="25.8" y="11.7" class="st2" width="2" height="2"/>
		<rect x="23.8" y="25.6" class="st3" width="2" height="2"/>
		<rect x="27.7" y="7.8" class="st3" width="2" height="2"/>
		<rect x="29.7" y="15.7" class="st3" width="2" height="2"/>
		<rect x="29.7" y="33.4" class="st3" width="2" height="2"/>
		<rect x="25.8" y="39.3" class="st3" width="2" height="2"/>
		<rect x="47.4" y="45.2" class="st3" width="2" height="2"/>
		<rect x="43.5" y="51.1" class="st3" width="2" height="2"/>
		<rect x="47.4" y="55" class="st3" width="2" height="2"/>
		<rect x="27.7" y="43.2" class="st4" width="2" height="2"/>
		<rect x="25.8" y="25.6" class="st4" width="2" height="2"/>
		<rect x="47.4" y="62.9" class="st4" width="2" height="2"/>
		<rect x="45.5" y="64.9" class="st4" width="2" height="2"/>
		<rect x="43.5" y="60.9" class="st4" width="2" height="2"/>
		<rect x="45.5" y="62.9" class="st2" width="2" height="2"/>
		<rect x="45.6" y="53" class="st2" width="2" height="2"/>
		<rect x="31.7" y="37.3" class="st5" width="2" height="3.9"/>
		<rect x="33.7" y="35.3" class="st5" width="2" height="2"/>
		<rect x="27.7" y="39.4" class="st5" width="2" height="3.9"/>
		<rect x="23.8" y="39.4" class="st5" width="2" height="3.9"/>
		<rect x="31.7" y="43.2" class="st5" width="2" height="2"/>
		<rect x="21.8" y="31.5" class="st5" width="2" height="2"/>
		<rect x="29.7" y="25.6" class="st5" width="2" height="3.9"/>
		<rect x="25.8" y="29.4" class="st5" width="2" height="2"/>
		<rect x="25.8" y="19.7" class="st5" width="2" height="2"/>
		<rect x="29.7" y="13.7" class="st5" width="2" height="2"/>
		<rect x="49.4" y="57.1" class="st5" width="2" height="3.9"/>
		<rect x="45.5" y="57.1" class="st5" width="2" height="3.9"/>
		<rect x="43.5" y="53.1" class="st5" width="2" height="3.9"/>
		<rect x="39.6" y="63" class="st5" width="2" height="3.9"/>
		<rect x="43.5" y="66.8" class="st5" width="2" height="2"/>
		<rect x="47.4" y="64.9" class="st5" width="2" height="2"/>
		<rect x="47.4" y="47.1" class="st5" width="2" height="2"/>
		<rect x="23.8" y="39.3" class="st6" width="2" height="2"/>
		<rect x="31.7" y="37.3" class="st6" width="2" height="2"/>
		<rect x="29.7" y="27.5" class="st6" width="2" height="2"/>
		<rect x="25.8" y="17.6" class="st6" width="2" height="2"/>
		<rect x="43.5" y="53.1" class="st6" width="2" height="2"/>
		<rect x="49.4" y="59" class="st6" width="2" height="2"/>
		<rect x="39.6" y="64.9" class="st6" width="2" height="2"/>
		<rect x="45.5" y="59" class="st6" width="2" height="2"/>
		<rect x="41.5" y="63" class="st2" width="2" height="3.9"/>
		<rect x="29.7" y="39.4" class="st2" width="2" height="3.9"/>
		<rect x="25.8" y="41.2" class="st2" width="2" height="2"/>
		<rect x="27.7" y="37.3" class="st2" width="2" height="2"/>
		<rect x="27.7" y="29.4" class="st2" width="2" height="2"/>
		<rect x="31.7" y="21.6" class="st2" width="2" height="2"/>
		<rect x="27.7" y="21.6" class="st3" width="2" height="2"/>
		<rect x="25.8" y="15.7" class="st3" width="2" height="2"/>
		<rect x="41.5" y="57" class="st3" width="2" height="2"/>
		<rect x="23.8" y="35.3" class="st3" width="2" height="2"/>
		<rect x="47.4" y="49.1" class="st3" width="2" height="2"/>
	</g>
	<rect x="18" y="108.2" class="st1" width="2" height="3.9"/>
	<rect x="16" y="112.1" class="st1" width="2" height="3.9"/>
</g>
<line class="st7" x1="102.7" y1="72.8" x2="67" y2="72.8"/>
<g>
	<path class="st8" d="M22,136.7h1v1h-2.9v-1h1v-3.9h-1v-1h0.5v-0.5h0.5v-0.5h1v5.9H22z"/>
	<path class="st8" d="M25,130.8h4.9v1H26v1h2.9v0.5h0.5v0.5h0.5v2.9h-0.5v0.5h-0.5v0.5H26v-0.5h-0.5v-0.5H25v-1h1v0.5h0.5v0.5h2
		v-0.5H29v-2h-0.5v-0.5H25V130.8z"/>
	<path class="st8" d="M30.8,130.8h4.9v1h-3.9v1h2.9v0.5h0.5v0.5h0.5v2.9h-0.5v0.5h-0.5v0.5h-2.9v-0.5h-0.5v-0.5h-0.5v-1h1v0.5h0.5
		v0.5h2v-0.5h0.5v-2h-0.5v-0.5h-3.4v-2.9H30.8z"/>
	<path class="st8" d="M37.7,131.3v-0.5h2.9v0.5h0.5v0.5h0.5v4.9h-0.5v0.5h-0.5v0.5h-2.9v-0.5h-0.5v-0.5h-0.5v-4.9h0.5v-0.5H37.7z
		 M38.2,134.7v-0.5h0.5v-0.5h0.5v-0.5h0.5v-0.5h1v-0.5h-0.5v-0.5h-2v0.5h-0.5v2.4h0.5V134.7z M37.7,135.7v0.5h0.5v0.5h2v-0.5h0.5
		v-2.4h-0.5v0.5h-0.5v0.5h-0.5v0.5h-0.5v0.5h-1V135.7z"/>
</g>
<path class="st9" d="M59.2,71.8v-6.1h-1.5v-3.1h-1.5v-3.1h-1.5V58h-1.5v-1.5h-1.5V55h-1.5v-1.5h-1.5V52h-1.6v-1.5h-1.5V49H41v-1.5
	h-4.4V46h-9.8v1.5H22V49h-4.6v1.5h-1.5V52h-1.6v1.5h-1.5V55h-1.5v1.5H9.8V58H8.3v1.5H6.8v3.1H5.3v3.1H3.8v6.1H2.3v6.6h1.5v6.1h1.5v3
	h1.5v3h1.5V92h1.5v1.5h1.5V95h1.5v1.5h1.5V98h1.4l0,0h0.1v1.5h1.5v1.5h4.6v1.5h4.6v1.3v0.2h9.7v-1.5h4.6V101h4.6v-1.5h1.5V98h1.5
	v-1.5h1.5V95h1.5v-1.5h1.5V92h1.5v-1.5h1.5v-3h1.5v-3h1.5v-6.1h1.5v-6.6H59.2z M57.1,77.9V84h-1.5v3h-1.5v3h-1.5v1.5h-1.5V93h-1.5
	v1.5h-1.5V96h-1.5v1.5h-1.5V99h-4.6v1.5h-4.6v1.5H27v-1.5h-4.6V99h-4.6v-1.5h-0.1V95h1.5v-1.5h1.5V92h1.5v-1.5h1.5v-3h1.5v-2.9h1.5
	v-1.5h1.5V80H30v-1.5h1.5V77H33v-1.5h1.5V74H36v-1.5h1.5v-3.1H39v-1.5h1.5v-3.1H42v-3.1h1.5v-1.5H45v-1.5h1.5v-1.5H48v-1.7h1V57h1.5
	v1.5H52V60h2v3.1h1.5v3.1H57v6.1h1.5v5.6L57.1,77.9z M4.2,72.3h1.5v-6.1h1.5v-3.1h1.5V60h1.5v-1.5h1.5V57h1.5v-1.5h1.5V54h1.5v-1.5
	h1.5V51h4.6v-1.5h4.6V48h8.5v1.5H40V51h4.6v1.5h1.5v1V54v2.6h-1.5v1.5h-1.5v1.5h-1.5v1.5h-1.5v3.2h-1.5v2.9h-1.5v1.5h-1.5v3.1h-1.5
	v1.5h-1.5v1.5H31v1.7h-1.5V78H28v1.5h-1.5v3.1H25v1.5h-1.5v3.1H22v3.1h-1.5v1.5H19v1.5h-1.5v1.5H16v1.5h-0.9v-1.5h-1.5v-1.5h-1.5
	v-1.5h-1.5v-1.5H9.1v-3H7.6v-3H6.1v-6.1H4.6v-5.9H4.2z"/>
<g>
	<path class="st8" d="M96.9,136.8h1v1H95v-1h1v-3.9h-1v-1h0.5v-0.5H96v-0.5h1L96.9,136.8L96.9,136.8z"/>
	<path class="st8" d="M99.8,130.9h4.9v1h-3.9v1h2.9v0.5h0.5v0.5h0.5v2.9h-0.5v0.5h-0.5v0.5h-2.9v-0.5h-0.5v-0.5h-0.5v-1h1v0.5h0.5
		v0.5h2v-0.5h0.5v-2h-0.5v-0.5h-3.4L99.8,130.9L99.8,130.9z"/>
	<path class="st8" d="M105.7,130.9h4.9v1h-3.9v1h2.9v0.5h0.5v0.5h0.5v2.9h-0.5v0.5h-0.5v0.5h-2.9v-0.5h-0.5v-0.5h-0.5v-1h1v0.5h0.5
		v0.5h2v-0.5h0.5v-2h-0.5v-0.5h-3.4L105.7,130.9L105.7,130.9z"/>
	<path class="st8" d="M112.5,131.4v-0.5h2.9v0.5h0.5v0.5h0.5v4.9h-0.5v0.5h-0.5v0.5h-2.9v-0.5H112v-0.5h-0.5v-4.9h0.5v-0.5H112.5z
		 M113,134.8v-0.5h0.5v-0.5h0.5v-0.5h0.5v-0.5h1v-0.5H115v-0.5h-2v0.5h-0.5v2.4h0.5V134.8z M112.5,135.8v0.5h0.5v0.5h2v-0.5h0.5
		v-2.4H115v0.5h-0.5v0.5H114v0.5h-0.5v0.5h-1V135.8z"/>
	<path class="st8" d="M127.7,133.9v1h-3.9v-1H127.7z"/>
	<path class="st8" d="M137.9,136.8h1v1H136v-1h1v-3.9h-1v-1h0.5v-0.5h0.5v-0.5h1v5.9H137.9z"/>
	<path class="st8" d="M141.3,136.8h-0.5v-1h1v0.5h0.5v0.5h2v-0.5h0.5v-1.5h-2.9v-0.5h-0.5v-0.5h-0.5v-2h0.5v-0.5h0.5v-0.5h2.9v0.5
		h0.5v0.5h0.5v4.9h-0.5v0.5h-0.5v0.5h-2.9v-0.5h-0.5v-0.4H141.3z M144.8,133.9v-1.5h-0.5v-0.5h-2v0.5h-0.5v1h0.5v0.5H144.8z"/>
	<path class="st8" d="M147.2,136.8h-0.5v-1h1v0.5h0.5v0.5h2v-0.5h0.5v-1h-0.5v-0.5h-1.5v-1h1.5v-0.5h0.5v-1h-0.5v-0.5h-2v0.5h-0.5
		v0.5h-1v-1h0.5v-0.5h0.5v-0.5h2.9v0.5h0.5v0.5h0.5v2h-0.5v1h0.5v2h-0.5v0.5h-0.5v0.5h-2.9v-0.5h-0.5V136.8z"/>
	<path class="st8" d="M153.5,136.8h3.9v1h-4.9v-2.9h0.5v-0.5h0.5v-0.5h2.4v-0.5h0.5v-1H156v-0.5h-2v0.5h-0.5v0.5h-1v-1h0.5v-0.5h0.5
		v-0.5h2.9v0.5h0.5v0.5h0.5v2H157v0.5h-0.5v0.5H154v0.5h-0.5V136.8z"/>
</g>
<line class="st7" x1="185.5" y1="72.8" x2="149.9" y2="72.8"/>
<g>
	<polygon class="st10" points="234.3,36.9 230.8,36.9 230.8,33.5 227.4,33.5 227.4,30.1 206.8,30.1 206.8,33.5 203.4,33.5 
		203.4,36.9 200,36.9 200,54 203.4,54 203.4,57.5 206.8,57.5 206.8,60.9 227.4,60.9 227.4,57.5 230.8,57.5 230.8,54 234.3,54 	"/>
	<rect x="220.6" y="43.8" class="st11" width="6.9" height="3.4"/>
	<rect x="224" y="23.2" class="st11" width="6.9" height="3.4"/>
	<rect x="224" y="33.5" class="st11" width="6.9" height="3.4"/>
	<rect x="206.8" y="36.9" class="st12" width="6.9" height="3.4"/>
	<rect x="210.3" y="54" class="st12" width="6.9" height="3.4"/>
	<rect x="224" y="64.3" class="st11" width="6.9" height="3.4"/>
	<rect x="210.3" y="19.8" class="st12" width="6.9" height="3.4"/>
	<rect x="211.8" y="66.2" class="st12" width="3.4" height="3.4"/>
	<rect x="241.1" y="40.3" class="st11" width="3.4" height="3.4"/>
	<rect x="203.4" y="43.8" class="st13" width="6.9" height="3.4"/>
	<rect x="217.1" y="30.1" class="st13" width="6.9" height="3.4"/>
	<rect x="224" y="54" class="st13" width="3.4" height="3.4"/>
	<rect x="217.1" y="40.3" class="st13" width="3.4" height="3.4"/>
	<rect x="193.1" y="60.9" class="st13" width="6.9" height="3.4"/>
	<rect x="234.3" y="57.5" class="st13" width="3.4" height="3.4"/>
	<rect x="220.6" y="47.2" class="st12" width="3.4" height="3.4"/>
	<rect x="200" y="23.2" class="st12" width="3.4" height="3.4"/>
	<rect x="189.7" y="33.5" class="st11" width="6.9" height="3.4"/>
	<rect x="193.1" y="50.6" class="st11" width="3.4" height="3.4"/>
</g>
<path class="st14" d="M199.9,60.5l-3.5,8.2l0.9,0.4l-1.2,2.7l0.9,0.4l-0.8,1.8l0.9,0.4l-0.4,0.9l0.9,0.4l-0.4,0.9l-0.4,0.9l0.9,0.4
	l-0.4,0.9l0.9,0.4l-0.8,1.8l0.9,0.4l-0.4,0.9l0.9,0.4l-0.4,0.9l0.9,0.4l-0.4,0.9l0.9,0.4l-0.4,0.9l1.8,0.8l-0.4,0.9l1.8,0.8
	l-0.4,0.9l0.9,0.4l-0.4,0.9l4.5,1.9l-0.4,0.9l7.3,3.1l0.4-0.9l2.7,1.2l0.4-0.9l0.9,0.4l0.9,0.4l0.4-0.9l1.8,0.8l0.4-0.9l1.8,0.8
	l0.4-0.9l0.9,0.4l0.9,0.4l-0.4,0.9l1.8,0.8l-0.4,0.9l0.9,0.4l-0.4,0.9l0.9,0.4l-0.4,0.9l1.8,0.8l-0.4,0.9l0.9,0.4l-0.4,0.9l0.9,0.4
	L231,106l0.9,0.4l-0.4,0.9l0.9,0.4l-0.4,0.9l0.9,0.4l-0.4,0.9l0.9,0.4l-0.4,0.9l1.8,0.8l-0.4,0.9l0.9,0.4l-0.4,0.9l4.5,1.9l0.4-0.9
	l0.9,0.4l1.9-4.5l-0.9-0.4l0.4-0.9l-0.9-0.4l0.4-0.9l-0.9-0.4l0.4-0.9l0.4-0.9l-1.8-0.8l0.4-0.9l-0.9-0.4l0.4-0.9l-0.9-0.4l0.4-0.9
	l-0.9-0.4l0.4-0.9l-0.9-0.4l0.4-0.9l-1.8-0.8l0.4-0.9l-0.9-0.4l0.4-0.9l-0.9-0.4l0.4-0.9l-0.9-0.4l0.4-0.9l-0.9-0.4l0.4-0.9
	l-0.9-0.4l0.4-0.9l0.4-0.9l0.9,0.4l0.4-0.9l0.9,0.4l0.4-0.9l0.4-0.9l0.4-0.9l0.9,0.4l3.9-9.1l-0.9-0.4l0.8-1.8l-0.9-0.4l1.6-3.6
	l-0.9-0.4l0.8-1.8l-0.9-0.4l0.4-0.9l-0.9-0.4l0.4-0.9l-0.9-0.4l0.4-0.9l-0.9-0.4l0.4-0.9l-0.9-0.4l0.4-0.9l-0.9-0.4l0.4-0.9
	l-0.9-0.4l0.4-0.9l-0.9-0.4l0.4-0.9l-0.9-0.4l-0.9-0.4l0.4-0.9l-1.8-0.8l0.4-0.9l-3.6-1.6l0.4-0.9l-8.2-3.5l-0.4,0.9l-3.6-1.6
	l-0.4,0.9l-1.8-0.8L218,51l-1.8-0.8l-0.4,0.9l-0.9-0.4l-0.4,0.9l-0.9-0.4l-0.4,0.9l-0.9-0.4l-0.4,0.9l-0.9-0.4l-0.4,0.9l-0.9-0.4
	l-0.4,0.9l-0.9-0.4l-0.8,1.8l-0.9-0.4l-0.4,0.9l-0.9-0.4l-0.8,1.8l-0.9-0.4l-0.8,1.8l-0.9-0.4l-1.2,2.7L199.9,60.5z M205.8,61.9
	l0.9,0.4l0.8-1.8l0.9,0.4l0.4-0.9l0.9,0.4l0.4-0.9l0.9,0.4l0.8-1.8l0.9,0.4l0.8-1.8l0.9,0.4l0.9,0.4l0.4-0.9l0.9,0.4l0.4-0.9
	l1.8,0.8l0.4-0.9l1.8,0.8l0.4-0.9l10.9,4.7l-0.4,0.9l1.8,0.8l-0.4,0.9l1.8,0.8l-0.4,0.9l0.9,0.4l-0.4,0.9l1.8,0.8l-0.8,1.8l0.9,0.4
	l-0.8,1.8l0.9,0.4l-0.4,0.9l0.9,0.4l-0.4,0.9l0.9,0.4l-0.8,1.8l0.9,0.4l-4.3,10l-0.9-0.4l-0.8,1.8l-0.9-0.4l-0.4,0.9l-0.9-0.4
	l-0.4,0.9L229,88l-0.8,1.8l-0.9-0.4l-0.8,1.8l-0.9-0.4l-0.9-0.4l-0.4,0.9l-0.9-0.4l-0.4,0.9l-1.8-0.8l-0.4,0.9l-1.8-0.8l-0.4,0.9
	l-10.9-4.7l0.4-0.9l-1.8-0.8l0.4-0.9l-1.8-0.8l0.4-0.9l-0.9-0.4l0.4-0.9l-1.8-0.8l0.8-1.8l-0.9-0.4l0.8-1.8l-0.9-0.4l0.4-0.9
	l-0.9-0.4l0.4-0.9l-0.9-0.4l0.8-1.8l-0.9-0.4L205.8,61.9z"/>
<g>
	<polygon class="st15" points="213.6,77 214.5,77 214.5,76.1 215.4,76.1 215.4,75.2 229.7,75.2 229.7,76.1 230.6,76.1 230.6,77 
		231.5,77 231.5,81.5 230.6,81.5 230.6,82.4 229.7,82.4 229.7,83.3 215.4,83.3 215.4,82.4 214.5,82.4 214.5,81.5 213.6,81.5 	"/>
	<rect x="217.2" y="77" transform="matrix(-1 -4.272328e-11 4.272328e-11 -1 435.3391 155.773)" width="0.9" height="1.8"/>
	<rect x="214.5" y="77" transform="matrix(-1 -4.475765e-11 4.475765e-11 -1 429.9745 155.773)" width="0.9" height="1.8"/>
	<rect x="215.4" y="79.7" transform="matrix(-1 -4.475765e-11 4.475765e-11 -1 432.6568 160.2435)" width="1.8" height="0.9"/>
	<rect x="227.1" y="83.3" transform="matrix(-1 -4.475765e-11 4.475765e-11 -1 455.0094 170.0787)" width="0.9" height="3.6"/>
	<rect x="217.2" y="83.3" transform="matrix(-1 -4.475765e-11 4.475765e-11 -1 435.3391 170.0787)" width="0.9" height="3.6"/>
	<rect x="219" y="83.3" transform="matrix(-1 -4.475765e-11 4.475765e-11 -1 438.9155 170.0787)" width="0.9" height="3.6"/>
	<rect x="225.3" y="83.3" transform="matrix(-1 -4.475765e-11 4.475765e-11 -1 451.433 170.0787)" width="0.9" height="3.6"/>
	<rect x="217.2" y="70.7" transform="matrix(-1 -4.475765e-11 4.475765e-11 -1 435.3391 145.9379)" width="0.9" height="4.5"/>
	<polygon class="st16" points="219.9,68 219.4,68.6 220,69.2 220.5,68.6 222.4,70.3 220.7,72.1 220.1,71.6 219.5,72.2 218.9,71.6 
		218.3,72.3 216.5,70.6 217,69.9 216.4,69.4 217,68.7 216.4,68.2 218.1,66.3 	"/>
</g>
<g>
	<path class="st8" d="M206.4,136.7h1v1h-2.9v-1h1v-3.9h-1v-1h0.5v-0.5h0.5v-0.5h1V136.7z"/>
	<path class="st8" d="M209.8,136.7h-0.5v-1h1v0.5h0.5v0.5h2v-0.5h0.5v-1.5h-2.9v-0.5h-0.5v-0.5h-0.5v-2h0.5v-0.5h0.5v-0.5h2.9v0.5
		h0.5v0.5h0.5v4.9h-0.5v0.5h-0.5v0.5h-2.9v-0.5h-0.5V136.7z M213.2,133.7v-1.5h-0.5v-0.5h-2v0.5h-0.5v1h0.5v0.5H213.2z"/>
	<path class="st8" d="M218.1,131.3v-0.5h1v3.9h1v1h-1v2h-1v-2h-2.9v-2h0.5v-0.5h0.5v-0.5h0.5v-0.5h0.5v-0.5h0.5v-0.5H218.1z
		 M218.1,134.7v-2h-0.5v0.5h-0.5v0.5h-0.5v0.5h-0.5v0.5H218.1z"/>
	<path class="st8" d="M222,131.3v-0.5h2.9v0.5h0.5v0.5h0.5v4.9h-0.5v0.5h-0.5v0.5H222v-0.5h-0.5v-0.5H221v-4.9h0.5v-0.5H222z
		 M222.5,134.7v-0.5h0.5v-0.5h0.5v-0.5h0.5v-0.5h1v-0.5h-0.5v-0.5h-2v0.5H222v2.4H222.5z M222,135.7v0.5h0.5v0.5h2v-0.5h0.5v-2.4
		h-0.5v0.5H224v0.5h-0.5v0.5H223v0.5H222z"/>
	<path class="st8" d="M227.4,136.7h-0.5v-1h1v0.5h0.5v0.5h2v-1h-1v-0.5h-1v-0.5h-1v-0.5h-0.5v-1h0.5v-0.5h0.5v-0.5h2.9v0.5h0.5v0.5
		h0.5v1h-1v-0.5h-0.5v-0.5h-2v1h1.5v0.5h1v0.5h0.5v0.5h0.5v1h-0.5v0.5h-0.5v0.5h-2.9v-0.5h-0.5V136.7z"/>
</g>
</svg>
