<?xml version="1.0" encoding="utf-8"?>
<!-- Generator: Adobe Illustrator 25.2.3, SVG Export Plug-In . SVG Version: 6.00 Build 0)  -->
<svg version="1.1" id="Layer_1" xmlns="http://www.w3.org/2000/svg" xmlns:xlink="http://www.w3.org/1999/xlink" x="0px" y="0px"
	 viewBox="0 0 250 150" style="enable-background:new 0 0 250 150;" xml:space="preserve">
<style type="text/css">
	.st0{stroke:#000000;stroke-width:2;stroke-miterlimit:10;}
	.st1{fill:#96BC50;}
	.st2{fill:#668B40;}
	.st3{fill:#CBDC72;}
	.st4{fill:#426A36;}
	.st5{fill:#7379B7;}
	.st6{fill:#E9EBF5;}
	.st7{fill:none;stroke:#231F20;stroke-width:0.5;stroke-miterlimit:10;}
	.st8{fill:#F9B932;}
	.st9{fill:#F7EB55;}
	.st10{fill:#FDDE2F;}
	.st11{fill:#706353;}
	.st12{fill:#010101;}
	.st13{fill:#33A14D;}
	.st14{stroke:#231F20;stroke-width:0.25;stroke-miterlimit:10;}
	.st15{fill:#CE242F;}
</style>
<g>
	<path class="st0" d="M127.8,69.6v-2.8h2.8V64h2.8v-5.6h-2.8v-2.8h-11.2v2.8h-2.8v2.8h-5.6v-5.6h2.8v-2.8h2.8V50h16.9v2.8h2.8v2.8
		h2.8v11.2h-2.8v2.8h-2.8v2.8h-2.8v2.8h-2.8v2.8h-5.6v-5.6h2.8v-2.8H127.8z M127.8,83.7v5.6h-5.6v-5.6H127.8z"/>
</g>
<g>
	<g>
		<g>
			<polygon class="st1" points="27.8,72.8 27.8,62.9 25.8,62.9 25.8,61 27.8,61 27.8,59 27.8,57 27.8,47.2 29.8,47.2 29.8,57 
				29.8,59 31.7,59 31.7,61 29.8,61 29.8,72.8 29.8,74.7 29.8,88.5 31.7,88.5 31.7,90.5 29.8,90.5 29.8,94.4 27.8,94.4 27.8,86.5 
				25.8,86.5 25.8,84.6 27.8,84.6 27.8,74.7 			"/>
			<polygon class="st1" points="39.6,74.7 39.6,72.8 41.6,72.8 41.6,74.7 45.5,74.7 49.4,74.7 49.4,76.7 45.5,76.7 41.6,76.7 
				41.6,78.7 39.6,78.7 39.6,76.7 			"/>
			<polygon class="st1" points="41.6,68.8 43.5,68.8 43.5,70.8 43.5,72.8 41.6,72.8 41.6,70.8 			"/>
			<rect x="35.7" y="82.6" class="st1" width="2" height="2"/>
			<rect x="33.7" y="84.6" class="st1" width="2" height="2"/>
			<rect x="31.7" y="86.5" class="st1" width="2" height="2"/>
			<polygon class="st1" points="37.6,78.7 39.6,78.7 39.6,80.6 39.6,82.6 37.6,82.6 37.6,80.6 			"/>
			<rect x="31.7" y="57" class="st1" width="2" height="2"/>
			<rect x="33.7" y="55.1" class="st1" width="2" height="2"/>
			<rect x="23.9" y="59" class="st1" width="2" height="2"/>
			<polygon class="st1" points="18,59 18,57 21.9,57 23.9,57 23.9,59 21.9,59 			"/>
			<rect x="51.4" y="78.7" class="st1" width="2" height="2"/>
			<rect x="49.4" y="76.7" class="st1" width="2" height="2"/>
			<rect x="39.6" y="96.4" class="st1" width="2" height="3.9"/>
			<rect x="37.6" y="94.4" class="st1" width="2" height="2"/>
			<rect x="35.7" y="92.4" class="st1" width="2" height="2"/>
			<rect x="33.7" y="90.5" class="st1" width="2" height="2"/>
			<rect x="25.8" y="94.4" class="st1" width="2" height="5.9"/>
			<rect x="23.9" y="100.3" class="st1" width="2" height="2"/>
			<rect x="21.9" y="102.3" class="st1" width="2" height="2"/>
			<rect x="19.9" y="104.2" class="st1" width="2" height="3.9"/>
			<rect x="23.9" y="82.6" class="st1" width="2" height="2"/>
			<rect x="21.9" y="80.6" class="st1" width="2" height="2"/>
			<rect x="19.9" y="78.7" class="st1" width="2" height="2"/>
			<rect x="18" y="76.7" class="st1" width="2" height="2"/>
		</g>
		<g>
			<polygon class="st2" points="12.1,59 12.1,57 14,57 16,57 16,55.1 23.9,55.1 23.9,57 18,57 18,59 23.9,59 23.9,61 25.8,61 
				25.8,62.9 23.9,62.9 23.9,64.9 18,64.9 18,62.9 14,62.9 14,61 10.1,61 10.1,59 			"/>
			<rect x="23.9" y="57" class="st2" width="2" height="2"/>
			<rect x="8.1" y="61" class="st2" width="2" height="2"/>
		</g>
		<g>
			<rect x="39.6" y="49.2" class="st2" width="2" height="2"/>
			<polygon class="st2" points="33.7,59 33.7,57 35.7,57 35.7,55.1 33.7,55.1 33.7,57 31.7,57 31.7,59 29.8,59 29.8,55.1 31.7,55.1 
				31.7,53.1 33.7,53.1 35.7,53.1 35.7,51.1 37.6,51.1 39.6,51.1 39.6,53.1 37.6,53.1 37.6,57 37.6,59 35.7,59 35.7,61 33.7,61 
				33.7,62.9 29.8,62.9 29.8,61 31.7,61 31.7,59 			"/>
		</g>
		<g>
			<rect x="55.3" y="84.6" class="st2" width="2" height="2"/>
			<polygon class="st2" points="43.5,74.7 41.6,74.7 41.6,72.8 43.5,72.8 43.5,70.8 45.5,70.8 49.4,70.8 49.4,72.8 51.4,72.8 
				51.4,74.7 53.4,74.7 53.4,76.7 55.3,76.7 55.3,78.7 55.3,82.6 55.3,84.6 53.4,84.6 53.4,82.6 45.5,82.6 45.5,80.6 43.5,80.6 
				41.6,80.6 41.6,76.7 43.5,76.7 49.4,76.7 49.4,78.7 51.4,78.7 51.4,80.6 53.4,80.6 53.4,78.7 51.4,78.7 51.4,76.7 49.4,76.7 
				49.4,74.7 			"/>
		</g>
		<polygon class="st2" points="33.7,90.5 33.7,92.4 35.7,92.4 35.7,94.4 37.6,94.4 37.6,96.4 39.6,96.4 39.6,100.3 41.6,100.3 
			41.6,96.4 39.6,96.4 39.6,94.4 37.6,94.4 37.6,92.4 35.7,92.4 35.7,90.5 35.7,88.5 37.6,88.5 41.6,88.5 41.6,90.5 43.5,90.5 
			43.5,92.4 45.5,92.4 45.5,106.2 43.5,106.2 43.5,112.1 41.6,112.1 41.6,116.1 39.6,116.1 39.6,114.1 37.6,114.1 37.6,110.1 
			35.7,110.1 35.7,104.2 33.7,104.2 33.7,102.3 29.8,102.3 29.8,90.5 		"/>
		<g>
			<polygon class="st2" points="10.1,70.8 10.1,68.8 16,68.8 16,70.8 18,70.8 21.9,70.8 21.9,72.8 23.9,72.8 25.8,72.8 25.8,74.7 
				27.8,74.7 27.8,84.6 25.8,84.6 25.8,82.6 23.9,82.6 23.9,80.6 21.9,80.6 21.9,78.7 19.9,78.7 19.9,76.7 18,76.7 18,78.7 
				19.9,78.7 19.9,80.6 21.9,80.6 21.9,82.6 23.9,82.6 23.9,84.6 25.8,84.6 25.8,86.5 25.8,88.5 18,88.5 18,86.5 16,86.5 16,84.6 
				14,84.6 14,82.6 12.1,82.6 12.1,80.6 12.1,78.7 10.1,78.7 10.1,76.7 10.1,72.8 8.1,72.8 8.1,70.8 			"/>
			<rect x="6.1" y="72.8" class="st2" width="2" height="2"/>
		</g>
		<polygon class="st1" points="41.6,61 41.6,55.1 43.5,55.1 43.5,51.1 45.5,51.1 45.5,45.2 47.5,45.2 47.5,47.2 49.4,47.2 
			49.4,55.1 51.4,55.1 51.4,61 49.4,61 49.4,64.9 47.5,64.9 47.5,66.9 45.5,66.9 45.5,68.8 43.5,68.8 41.6,68.8 41.6,66.9 
			39.6,66.9 39.6,61 		"/>
		<polygon class="st1" points="21.9,31.4 23.9,31.4 23.9,23.6 25.8,23.6 25.8,11.8 27.8,11.8 27.8,7.8 29.8,7.8 29.8,11.8 
			31.7,11.8 31.7,19.6 33.7,19.6 33.7,25.5 31.7,25.5 31.7,33.4 33.7,33.4 33.7,43.3 31.7,43.3 31.7,45.2 29.8,45.2 29.8,47.2 
			27.8,47.2 27.8,45.2 25.8,45.2 23.9,45.2 23.9,37.4 21.9,37.4 		"/>
		
			<rect x="41.6" y="100.3" transform="matrix(-1 -4.437618e-11 4.437618e-11 -1 85.0947 202.5921)" class="st3" width="2" height="2"/>
		
			<rect x="53.4" y="78.7" transform="matrix(-1 -4.437618e-11 4.437618e-11 -1 108.7051 159.3065)" class="st3" width="2" height="2"/>
		
			<rect x="16" y="72.8" transform="matrix(-1 -4.483848e-11 4.483848e-11 -1 35.9064 147.5013)" class="st3" width="3.9" height="2"/>
		<rect x="16" y="55.1" transform="matrix(-1 -4.483848e-11 4.483848e-11 -1 33.9389 112.0857)" class="st3" width="2" height="2"/>
		
			<rect x="35.7" y="53.1" transform="matrix(-1 -4.437618e-11 4.437618e-11 -1 73.2895 108.1507)" class="st3" width="2" height="2"/>
		<rect x="29.8" y="61" transform="matrix(-1 -4.483848e-11 4.483848e-11 -1 61.4843 123.8909)" class="st4" width="2" height="2"/>
		<rect x="23.9" y="61" transform="matrix(-1 -4.391388e-11 4.391388e-11 -1 49.6792 123.8909)" class="st4" width="2" height="2"/>
		
			<rect x="21.9" y="62.9" transform="matrix(-1 -4.576307e-11 4.576307e-11 -1 45.7441 127.826)" class="st4" width="2" height="2"/>
		
			<rect x="21.9" y="86.5" transform="matrix(-1 -4.483848e-11 4.483848e-11 -1 47.7116 175.0467)" class="st4" width="3.9" height="2"/>
		
			<rect x="29.8" y="92.4" transform="matrix(-1 -4.622537e-11 4.622537e-11 -1 61.4843 192.7545)" class="st4" width="2" height="7.9"/>
		
			<rect x="33.7" y="100.3" transform="matrix(-1 -4.622537e-11 4.622537e-11 -1 69.3545 202.5921)" class="st4" width="2" height="2"/>
		
			<rect x="43.5" y="78.7" transform="matrix(-1 -4.530077e-11 4.530077e-11 -1 89.0298 159.3065)" class="st4" width="2" height="2"/>
		
			<rect x="41.6" y="76.7" transform="matrix(-1 -4.530077e-11 4.530077e-11 -1 85.0947 155.3714)" class="st2" width="2" height="2"/>
		
			<rect x="25.8" y="33.4" transform="matrix(-1 -4.483848e-11 4.483848e-11 -1 53.6142 68.8001)" class="st2" width="2" height="2"/>
		
			<rect x="27.8" y="21.6" transform="matrix(-1 -4.483848e-11 4.483848e-11 -1 57.5493 47.1572)" class="st2" width="2" height="3.9"/>
		
			<rect x="25.8" y="11.8" transform="matrix(-1 -4.437618e-11 4.437618e-11 -1 53.6142 25.5144)" class="st2" width="2" height="2"/>
		
			<rect x="23.9" y="25.5" transform="matrix(-1 -4.483848e-11 4.483848e-11 -1 49.6792 53.0598)" class="st3" width="2" height="2"/>
		<rect x="27.8" y="7.8" transform="matrix(-1 -4.483848e-11 4.483848e-11 -1 57.5493 17.6443)" class="st3" width="2" height="2"/>
		
			<rect x="29.8" y="15.7" transform="matrix(-1 -4.437618e-11 4.437618e-11 -1 61.4843 33.3845)" class="st3" width="2" height="2"/>
		
			<rect x="29.8" y="33.4" transform="matrix(-1 -4.437618e-11 4.437618e-11 -1 61.4843 68.8001)" class="st3" width="2" height="2"/>
		
			<rect x="25.8" y="39.3" transform="matrix(-1 -4.483848e-11 4.483848e-11 -1 53.6142 80.6052)" class="st3" width="2" height="2"/>
		
			<rect x="47.5" y="45.2" transform="matrix(-1 -4.483848e-11 4.483848e-11 -1 96.8999 92.4104)" class="st3" width="2" height="2"/>
		
			<rect x="43.5" y="51.1" transform="matrix(-1 -4.437618e-11 4.437618e-11 -1 89.0298 104.2156)" class="st3" width="2" height="2"/>
		
			<rect x="47.5" y="55.1" transform="matrix(-1 -4.483848e-11 4.483848e-11 -1 96.8999 112.0857)" class="st3" width="2" height="2"/>
		
			<rect x="27.8" y="43.3" transform="matrix(-1 -4.437618e-11 4.437618e-11 -1 57.5493 88.4754)" class="st4" width="2" height="2"/>
		
			<rect x="25.8" y="25.5" transform="matrix(-1 -4.530077e-11 4.530077e-11 -1 53.6142 53.0598)" class="st4" width="2" height="2"/>
		
			<rect x="47.5" y="62.9" transform="matrix(-1 -4.576307e-11 4.576307e-11 -1 96.8999 127.826)" class="st4" width="2" height="2"/>
		
			<rect x="45.5" y="64.9" transform="matrix(-1 -4.483848e-11 4.483848e-11 -1 92.9648 131.761)" class="st4" width="2" height="2"/>
		<rect x="43.5" y="61" transform="matrix(-1 -4.483848e-11 4.483848e-11 -1 89.0298 123.8909)" class="st4" width="2" height="2"/>
		
			<rect x="45.5" y="62.9" transform="matrix(-1 -4.483848e-11 4.483848e-11 -1 92.9648 127.826)" class="st2" width="2" height="2"/>
		<rect x="45.6" y="53.1" transform="matrix(-1 -4.483848e-11 4.483848e-11 -1 93.22 108.113)" class="st2" width="2" height="2"/>
		
			<rect x="31.7" y="37.4" transform="matrix(-1 -4.483848e-11 4.483848e-11 -1 65.4194 78.6377)" class="st5" width="2" height="3.9"/>
		
			<rect x="33.7" y="35.4" transform="matrix(-1 -4.530077e-11 4.530077e-11 -1 69.3545 72.7351)" class="st5" width="2" height="2"/>
		
			<rect x="27.8" y="39.3" transform="matrix(-1 -4.483848e-11 4.483848e-11 -1 57.5493 82.5728)" class="st5" width="2" height="3.9"/>
		
			<rect x="23.9" y="39.3" transform="matrix(-1 -4.483848e-11 4.483848e-11 -1 49.6792 82.5728)" class="st5" width="2" height="3.9"/>
		
			<rect x="31.7" y="43.3" transform="matrix(-1 -4.530077e-11 4.530077e-11 -1 65.4194 88.4754)" class="st5" width="2" height="2"/>
		<rect x="21.9" y="31.4" transform="matrix(-1 -4.483848e-11 4.483848e-11 -1 45.7441 64.865)" class="st5" width="2" height="2"/>
		
			<rect x="29.8" y="25.5" transform="matrix(-1 -4.437618e-11 4.437618e-11 -1 61.4843 55.0274)" class="st5" width="2" height="3.9"/>
		
			<rect x="25.8" y="29.5" transform="matrix(-1 -4.483848e-11 4.483848e-11 -1 53.6142 60.9299)" class="st5" width="2" height="2"/>
		
			<rect x="25.8" y="19.6" transform="matrix(-1 -4.483848e-11 4.483848e-11 -1 53.6142 41.2546)" class="st5" width="2" height="2"/>
		
			<rect x="29.8" y="13.7" transform="matrix(-1 -4.483848e-11 4.483848e-11 -1 61.4843 29.4495)" class="st5" width="2" height="2"/>
		
			<rect x="49.4" y="57" transform="matrix(-1 -4.530077e-11 4.530077e-11 -1 100.8349 117.9883)" class="st5" width="2" height="3.9"/>
		
			<rect x="45.5" y="57" transform="matrix(-1 -4.483848e-11 4.483848e-11 -1 92.9648 117.9883)" class="st5" width="2" height="3.9"/>
		<rect x="43.5" y="53.1" class="st5" width="2" height="3.9"/>
		
			<rect x="39.6" y="62.9" transform="matrix(-1 -4.530077e-11 4.530077e-11 -1 81.1596 129.7935)" class="st5" width="2" height="3.9"/>
		
			<rect x="43.5" y="66.9" transform="matrix(-1 -4.391388e-11 4.391388e-11 -1 89.0298 135.6961)" class="st5" width="2" height="2"/>
		
			<rect x="47.5" y="64.9" transform="matrix(-1 -4.576307e-11 4.576307e-11 -1 96.8999 131.761)" class="st5" width="2" height="2"/>
		
			<rect x="47.5" y="47.2" transform="matrix(-1 -4.530077e-11 4.530077e-11 -1 96.8999 96.3455)" class="st5" width="2" height="2"/>
		
			<rect x="23.9" y="39.3" transform="matrix(-1 -4.483848e-11 4.483848e-11 -1 49.6792 80.6052)" class="st6" width="2" height="2"/>
		
			<rect x="31.7" y="37.4" transform="matrix(-1 -4.530077e-11 4.530077e-11 -1 65.4194 76.6702)" class="st6" width="2" height="2"/>
		
			<rect x="29.8" y="27.5" transform="matrix(-1 -4.437618e-11 4.437618e-11 -1 61.4843 56.9949)" class="st6" width="2" height="2"/>
		
			<rect x="25.8" y="17.7" transform="matrix(-1 -4.483848e-11 4.483848e-11 -1 53.6142 37.3196)" class="st6" width="2" height="2"/>
		
			<rect x="43.5" y="53.1" transform="matrix(-1 -4.437618e-11 4.437618e-11 -1 89.0298 108.1507)" class="st6" width="2" height="2"/>
		
			<rect x="49.4" y="59" transform="matrix(-1 -4.530077e-11 4.530077e-11 -1 100.8349 119.9558)" class="st6" width="2" height="2"/>
		
			<rect x="39.6" y="64.9" transform="matrix(-1 -4.530077e-11 4.530077e-11 -1 81.1596 131.761)" class="st6" width="2" height="2"/>
		<rect x="45.5" y="59" transform="matrix(-1 -4.483848e-11 4.483848e-11 -1 92.9648 119.9558)" class="st6" width="2" height="2"/>
		
			<rect x="41.6" y="62.9" transform="matrix(-1 -4.576307e-11 4.576307e-11 -1 85.0947 129.7935)" class="st2" width="2" height="3.9"/>
		
			<rect x="29.8" y="39.3" transform="matrix(-1 -4.437618e-11 4.437618e-11 -1 61.4843 82.5728)" class="st2" width="2" height="3.9"/>
		
			<rect x="25.8" y="41.3" transform="matrix(-1 -4.483848e-11 4.483848e-11 -1 53.6142 84.5403)" class="st2" width="2" height="2"/>
		
			<rect x="27.8" y="37.4" transform="matrix(-1 -4.483848e-11 4.483848e-11 -1 57.5493 76.6702)" class="st2" width="2" height="2"/>
		
			<rect x="27.8" y="29.5" transform="matrix(-1 -4.483848e-11 4.483848e-11 -1 57.5493 60.9299)" class="st2" width="2" height="2"/>
		
			<rect x="31.7" y="21.6" transform="matrix(-1 -4.530077e-11 4.530077e-11 -1 65.4194 45.1897)" class="st2" width="2" height="2"/>
		
			<rect x="27.8" y="21.6" transform="matrix(-1 -4.483848e-11 4.483848e-11 -1 57.5493 45.1897)" class="st3" width="2" height="2"/>
		
			<rect x="25.8" y="15.7" transform="matrix(-1 -4.576307e-11 4.576307e-11 -1 53.6142 33.3845)" class="st3" width="2" height="2"/>
		<rect x="41.6" y="57" transform="matrix(-1 -4.483848e-11 4.483848e-11 -1 85.0947 116.0208)" class="st3" width="2" height="2"/>
		
			<rect x="23.9" y="35.4" transform="matrix(-1 -4.530077e-11 4.530077e-11 -1 49.6792 72.7351)" class="st3" width="2" height="2"/>
		
			<rect x="47.5" y="49.2" transform="matrix(-1 -4.530077e-11 4.530077e-11 -1 96.8999 100.2805)" class="st3" width="2" height="2"/>
	</g>
	<rect x="18" y="108.2" class="st1" width="2" height="3.9"/>
	<rect x="16" y="112.1" class="st1" width="2" height="3.9"/>
</g>
<line class="st7" x1="102.7" y1="72.8" x2="67" y2="72.8"/>
<g>
	<g>
		<polygon class="st8" points="220.4,51.7 220.8,50.2 220,50 220.2,49.3 219.4,49.1 219.6,48.3 218.1,48 218.2,47.2 212.2,45.8 
			212,46.5 210.5,46.2 210.3,46.9 209.5,46.7 209.3,47.5 208.6,47.3 208.2,48.9 207.5,48.7 206,54.8 206.8,54.9 206.4,56.5 
			207.2,56.6 207,57.4 207.8,57.6 207.6,58.3 209.1,58.7 208.9,59.4 215,60.9 215.2,60.2 216.7,60.5 216.9,59.7 217.7,59.9 
			217.8,59.2 218.6,59.3 218.9,57.8 219.7,58 221.2,51.9 		"/>
		
			<rect x="204.8" y="51.6" transform="matrix(0.2299 -0.9732 0.9732 0.2299 109.503 242.3551)" class="st9" width="6.3" height="0.8"/>
		
			<rect x="208.8" y="47.9" transform="matrix(0.2299 -0.9732 0.9732 0.2299 114.3211 241.1453)" class="st9" width="1.6" height="0.8"/>
		
			<rect x="210.5" y="46.7" transform="matrix(0.2299 -0.9732 0.9732 0.2299 116.2277 241.8526)" class="st9" width="0.8" height="1.6"/>
		
			<rect x="212.6" y="46" transform="matrix(0.2299 -0.9732 0.9732 0.2299 118.1522 243.6461)" class="st9" width="0.8" height="2.3"/>
		
			<rect x="211.2" y="49.6" transform="matrix(0.2299 -0.9732 0.9732 0.2299 114.22 244.416)" class="st9" width="0.8" height="0.8"/>
		
			<rect x="212.1" y="49.1" transform="matrix(0.2299 -0.9732 0.9732 0.2299 115.513 244.8772)" class="st9" width="0.8" height="0.8"/>
	</g>
	<g>
		<polygon class="st8" points="211.3,40.1 210.9,38.3 210,38.5 209.8,37.6 208.9,37.8 208.7,37 206.9,37.4 206.7,36.5 199.7,38.2 
			199.9,39.1 198.1,39.5 198.4,40.4 197.5,40.6 197.7,41.5 196.8,41.7 197.2,43.5 196.4,43.7 198.1,50.7 199,50.5 199.4,52.2 
			200.3,52 200.5,52.9 201.3,52.7 201.6,53.6 203.3,53.1 203.5,54 210.6,52.3 210.4,51.4 212.1,51 211.9,50.1 212.8,49.9 212.5,49 
			213.4,48.8 213,47.1 213.9,46.9 212.2,39.8 		"/>
		<polygon class="st10" points="211.3,40.1 210.4,40.3 210,38.5 209.1,38.7 208.9,37.8 207.2,38.3 206.9,37.4 199.9,39.1 200.1,40 
			198.4,40.4 198.6,41.3 197.7,41.5 198.1,43.2 197.2,43.5 199,50.5 199.8,50.3 200.3,52 201.1,51.8 201.3,52.7 203.1,52.3 
			203.3,53.1 210.4,51.4 210.1,50.6 211.9,50.1 211.7,49.3 212.5,49 212.1,47.3 213,47.1 		"/>
		<g>
			
				<rect x="204.4" y="41.4" transform="matrix(0.9719 -0.2356 0.2356 0.9719 -4.0774 49.6432)" class="st8" width="2.7" height="0.9"/>
			
				<rect x="206.1" y="48.5" transform="matrix(0.9719 -0.2356 0.2356 0.9719 -5.6855 50.241)" class="st8" width="2.7" height="0.9"/>
			<polygon class="st8" points="202.9,44 203.2,44.8 202.3,45 202.5,45.9 203.4,45.7 203.6,46.6 202.7,46.8 202.9,47.7 203.8,47.5 
				204,48.3 204.9,48.1 204.7,47.2 207.3,46.6 207.1,45.7 204.5,46.4 204.3,45.5 206.9,44.8 206.7,44 204,44.6 203.8,43.7 			"/>
			
				<rect x="203.7" y="42.7" transform="matrix(0.9719 -0.2356 0.2356 0.9719 -4.4252 49.313)" class="st8" width="0.9" height="0.9"/>
			<rect x="205" y="48" transform="matrix(0.9719 -0.2356 0.2356 0.9719 -5.6301 49.7646)" class="st8" width="0.9" height="0.9"/>
		</g>
		
			<rect x="198.1" y="43.2" transform="matrix(0.9719 -0.2356 0.2356 0.9719 -5.4527 48.0925)" class="st9" width="0.9" height="7.2"/>
		
			<rect x="197.9" y="41.3" transform="matrix(0.9719 -0.2356 0.2356 0.9719 -4.3707 47.921)" class="st9" width="0.9" height="1.8"/>
		
			<rect x="198.4" y="40.2" transform="matrix(0.9719 -0.2356 0.2356 0.9719 -3.9611 48.1072)" class="st9" width="1.8" height="0.9"/>
		<rect x="200" y="38.8" transform="matrix(0.9719 -0.2356 0.2356 0.9719 -3.5722 48.5402)" class="st9" width="2.7" height="0.9"/>
		
			<rect x="200.9" y="42.5" transform="matrix(0.9719 -0.2356 0.2356 0.9719 -4.4494 48.6375)" class="st9" width="0.9" height="0.9"/>
		
			<rect x="201.5" y="41.4" transform="matrix(0.9719 -0.2356 0.2356 0.9719 -4.1771 48.7595)" class="st9" width="0.9" height="0.9"/>
	</g>
	<g>
		<g>
			<polygon class="st11" points="200.8,92.3 203,92.3 203,90.2 205.2,90.2 205.2,88 240.4,88 240.4,90.2 242.6,90.2 242.6,92.3 
				244.8,92.3 244.8,103.1 242.6,103.1 242.6,105.3 240.4,105.3 240.4,107.4 205.2,107.4 205.2,105.3 203,105.3 203,103.1 
				200.8,103.1 			"/>
			<rect x="209.6" y="92.4" class="st12" width="2.2" height="4.3"/>
			<rect x="203" y="92.4" class="st12" width="2.2" height="4.3"/>
			<rect x="205.2" y="98.8" class="st12" width="4.4" height="2.2"/>
			<rect x="233.8" y="107.4" class="st12" width="2.2" height="8.6"/>
			<rect x="209.6" y="107.4" class="st12" width="2.2" height="8.6"/>
			<rect x="214" y="107.4" class="st12" width="2.2" height="8.6"/>
			<rect x="229.4" y="107.4" class="st12" width="2.2" height="8.6"/>
			<rect x="209.6" y="77.3" class="st12" width="2.2" height="10.8"/>
			<polygon class="st13" points="216.3,70.7 214.9,72.2 216.4,73.6 217.8,72.1 222.4,76.2 218.2,80.7 216.7,79.3 215.3,80.8 
				213.7,79.4 212.4,80.9 207.8,76.9 209.1,75.3 207.6,74 209,72.5 207.5,71.1 211.7,66.6 			"/>
		</g>
		<rect x="208.2" y="91.5" class="st12" width="5.5" height="5.9"/>
		<rect x="200.5" y="91.5" class="st12" width="5.5" height="5.9"/>
		<rect x="204.6" y="94" class="st12" width="5.3" height="1.3"/>
	</g>
	<g>
		<polygon class="st8" points="232.2,29.7 232.8,28.3 232.1,28 232.4,27.3 231.7,26.9 232,26.2 230.6,25.6 230.9,24.9 225.1,22.4 
			224.8,23.1 223.4,22.5 223.1,23.3 222.3,22.9 222,23.7 221.3,23.3 220.7,24.8 220,24.5 217.5,30.2 218.2,30.5 217.6,32 
			218.3,32.3 218,33 218.7,33.3 218.4,34 219.9,34.6 219.6,35.4 225.3,37.8 225.6,37.1 227,37.7 227.3,37 228.1,37.3 228.4,36.6 
			229.1,36.9 229.7,35.5 230.4,35.8 232.9,30 		"/>
		
			<rect x="216.7" y="27.4" transform="matrix(0.3949 -0.9187 0.9187 0.3949 107.4482 218.7982)" class="st9" width="6.3" height="0.8"/>
		
			<rect x="221.3" y="24.1" transform="matrix(0.3949 -0.9187 0.9187 0.3949 111.8436 218.8792)" class="st9" width="1.6" height="0.8"/>
		
			<rect x="223.2" y="23.1" transform="matrix(0.3949 -0.9187 0.9187 0.3949 113.3374 219.903)" class="st9" width="0.8" height="1.6"/>
		
			<rect x="225.3" y="22.8" transform="matrix(0.3949 -0.9187 0.9187 0.3949 114.56 221.8894)" class="st9" width="0.8" height="2.3"/>
		
			<rect x="223.4" y="26.1" transform="matrix(0.3949 -0.9187 0.9187 0.3949 111.0418 221.6505)" class="st9" width="0.8" height="0.8"/>
		
			<rect x="224.4" y="25.7" transform="matrix(0.3949 -0.9187 0.9187 0.3949 112.0395 222.3436)" class="st9" width="0.8" height="0.8"/>
	</g>
	<g>
		<polygon class="st8" points="238,18 238.3,16.2 237.3,16.1 237.5,15.2 236.6,15.1 236.7,14.2 234.9,14 235,13.1 227.9,12.1 
			227.7,13 226,12.7 225.8,13.6 224.9,13.5 224.8,14.4 223.9,14.3 223.7,16.1 222.8,15.9 221.8,23.1 222.7,23.2 222.4,25 
			223.4,25.1 223.2,26 224.1,26.2 224,27 225.8,27.3 225.7,28.2 232.8,29.2 233,28.3 234.7,28.5 234.9,27.6 235.8,27.7 235.9,26.9 
			236.8,27 237,25.2 237.9,25.3 238.9,18.1 		"/>
		<polygon class="st10" points="238,18 237.1,17.9 237.3,16.1 236.5,16 236.6,15.1 234.8,14.8 234.9,14 227.7,13 227.6,13.9 
			225.8,13.6 225.7,14.5 224.8,14.4 224.6,16.2 223.7,16.1 222.7,23.2 223.6,23.4 223.4,25.1 224.2,25.3 224.1,26.2 225.9,26.4 
			225.8,27.3 233,28.3 233.1,27.4 234.9,27.6 235,26.7 235.9,26.9 236.1,25.1 237,25.2 		"/>
		<g>
			
				<rect x="231.7" y="16.3" transform="matrix(0.136 -0.9907 0.9907 0.136 183.0363 245.2336)" class="st8" width="0.9" height="2.7"/>
			
				<rect x="230.7" y="23.5" transform="matrix(0.136 -0.9907 0.9907 0.136 175.1098 250.4456)" class="st8" width="0.9" height="2.7"/>
			<polygon class="st8" points="228.8,18.6 228.7,19.5 227.8,19.3 227.7,20.3 228.6,20.4 228.4,21.3 227.5,21.2 227.4,22 
				228.3,22.2 228.2,23.1 229.1,23.2 229.2,22.3 231.9,22.7 232,21.8 229.3,21.4 229.4,20.5 232.1,20.9 232.3,20 229.6,19.6 
				229.7,18.7 			"/>
			
				<rect x="229.8" y="17.9" transform="matrix(0.136 -0.9907 0.9907 0.136 180.7678 243.9157)" class="st8" width="0.9" height="0.9"/>
			
				<rect x="229" y="23.2" transform="matrix(0.136 -0.9907 0.9907 0.136 174.7991 247.8059)" class="st8" width="0.9" height="0.9"/>
		</g>
		<rect x="220" y="19.3" transform="matrix(0.136 -0.9907 0.9907 0.136 173.6841 238.5793)" class="st9" width="7.2" height="0.9"/>
		
			<rect x="224.2" y="14.9" transform="matrix(0.136 -0.9907 0.9907 0.136 179.3365 236.3102)" class="st9" width="1.8" height="0.9"/>
		
			<rect x="226.2" y="13.3" transform="matrix(0.136 -0.9907 0.9907 0.136 181.8088 236.8344)" class="st9" width="0.9" height="1.8"/>
		
			<rect x="228.6" y="12.2" transform="matrix(0.136 -0.9907 0.9907 0.136 184.4257 238.6625)" class="st9" width="0.9" height="2.7"/>
		
			<rect x="227.2" y="16.6" transform="matrix(0.136 -0.9907 0.9907 0.136 179.7918 240.254)" class="st9" width="0.9" height="0.9"/>
		
			<rect x="228.2" y="15.8" transform="matrix(0.136 -0.9907 0.9907 0.136 181.4292 240.6105)" class="st9" width="0.9" height="0.9"/>
	</g>
	<g>
		<polygon class="st8" points="246.6,66.2 246.8,64.5 245.9,64.3 246,63.4 245.1,63.3 245.3,62.4 243.5,62.2 243.6,61.3 236.4,60.3 
			236.3,61.2 234.5,60.9 234.4,61.8 233.5,61.7 233.4,62.6 232.5,62.5 232.2,64.3 231.3,64.1 230.3,71.3 231.3,71.4 231,73.2 
			231.9,73.4 231.8,74.2 232.7,74.4 232.5,75.3 234.3,75.5 234.2,76.4 241.4,77.4 241.5,76.5 243.3,76.8 243.4,75.8 244.3,76 
			244.4,75.1 245.3,75.2 245.6,73.4 246.5,73.5 247.4,66.4 		"/>
		<polygon class="st10" points="246.6,66.2 245.7,66.1 245.9,64.3 245,64.2 245.1,63.3 243.3,63 243.5,62.2 236.3,61.2 236.2,62.1 
			234.4,61.8 234.3,62.7 233.4,62.6 233.1,64.4 232.2,64.3 231.3,71.4 232.1,71.6 231.9,73.4 232.8,73.5 232.7,74.4 234.4,74.6 
			234.3,75.5 241.5,76.5 241.6,75.6 243.4,75.8 243.5,74.9 244.4,75.1 244.7,73.3 245.6,73.4 		"/>
		<g>
			
				<rect x="240.2" y="64.5" transform="matrix(0.136 -0.9907 0.9907 0.136 142.6586 295.3589)" class="st8" width="0.9" height="2.7"/>
			
				<rect x="239.2" y="71.7" transform="matrix(0.136 -0.9907 0.9907 0.136 134.7321 300.571)" class="st8" width="0.9" height="2.7"/>
			<polygon class="st8" points="237.3,66.8 237.2,67.7 236.3,67.6 236.2,68.5 237.1,68.6 237,69.5 236.1,69.4 236,70.3 236.8,70.4 
				236.7,71.3 237.6,71.4 237.8,70.5 240.5,70.9 240.6,70 237.9,69.6 238,68.7 240.7,69.1 240.8,68.2 238.1,67.8 238.3,66.9 			"/>
			
				<rect x="238.3" y="66.1" transform="matrix(0.136 -0.9907 0.9907 0.136 140.3901 294.041)" class="st8" width="0.9" height="0.9"/>
			
				<rect x="237.6" y="71.4" transform="matrix(0.136 -0.9907 0.9907 0.136 134.4213 297.9312)" class="st8" width="0.9" height="0.9"/>
		</g>
		
			<rect x="228.6" y="67.5" transform="matrix(0.136 -0.9907 0.9907 0.136 133.3064 288.7046)" class="st9" width="7.2" height="0.9"/>
		
			<rect x="232.8" y="63.1" transform="matrix(0.136 -0.9907 0.9907 0.136 138.9588 286.4355)" class="st9" width="1.8" height="0.9"/>
		
			<rect x="234.8" y="61.5" transform="matrix(0.136 -0.9907 0.9907 0.136 141.4311 286.9597)" class="st9" width="0.9" height="1.8"/>
		
			<rect x="237.1" y="60.4" transform="matrix(0.136 -0.9907 0.9907 0.136 144.048 288.7878)" class="st9" width="0.9" height="2.7"/>
		
			<rect x="235.7" y="64.8" transform="matrix(0.136 -0.9907 0.9907 0.136 139.4141 290.3793)" class="st9" width="0.9" height="0.9"/>
		<rect x="236.8" y="64" transform="matrix(0.136 -0.9907 0.9907 0.136 141.0515 290.7358)" class="st9" width="0.9" height="0.9"/>
	</g>
</g>
<g>
	<path class="st14" d="M22,136.8h1v1h-2.9v-1h1v-3.9h-1v-1h0.5v-0.5h0.5v-0.5h1V136.8z"/>
	<path class="st14" d="M25,130.9h4.9v1H26v1h2.9v0.5h0.5v0.5h0.5v2.9h-0.5v0.5h-0.5v0.5H26v-0.5h-0.5v-0.5H25v-1h1v0.5h0.5v0.5h2
		v-0.5h0.5v-2h-0.5v-0.5H25V130.9z"/>
	<path class="st14" d="M30.8,130.9h4.9v1h-3.9v1h2.9v0.5h0.5v0.5h0.5v2.9h-0.5v0.5h-0.5v0.5h-2.9v-0.5h-0.5v-0.5h-0.5v-1h1v0.5h0.5
		v0.5h2v-0.5h0.5v-2h-0.5v-0.5h-3.4V130.9z"/>
	<path class="st14" d="M37.7,131.4v-0.5h2.9v0.5h0.5v0.5h0.5v4.9h-0.5v0.5h-0.5v0.5h-2.9v-0.5h-0.5v-0.5h-0.5v-4.9h0.5v-0.5H37.7z
		 M38.2,134.8v-0.5h0.5v-0.5h0.5v-0.5h0.5v-0.5h1v-0.5h-0.5v-0.5h-2v0.5h-0.5v2.4H38.2z M37.7,135.8v0.5h0.5v0.5h2v-0.5h0.5v-2.4
		h-0.5v0.5h-0.5v0.5h-0.5v0.5h-0.5v0.5H37.7z"/>
</g>
<path class="st15" d="M59.2,68.3v-6.1l-1.5,0v-3.1l-1.5,0v-3.1l-1.5,0v-1.5l-1.5,0V53l-1.5,0v-1.5l-1.5,0v-1.5h-1.5v-1.5l-1.6,0
	v-1.5h-1.5v-1.5h-4.6v-1.5h-4.4v-1.5h-9.8v1.5H22v1.5h-4.6v1.5h-1.5v1.5l-1.6,0v1.5l-1.5,0v1.5l-1.5,0V53l-1.5,0v1.5l-1.5,0v1.5
	l-1.5,0v3.1l-1.5,0v3.1l-1.5,0v6.1l-1.5,0v6.6l1.5,0V81l1.5,0v3l1.5,0v3l1.5,0v1.5l1.5,0v1.5l1.5,0v1.5l1.5,0v1.5l1.5,0v1.5l1.4,0v0
	h0.1v1.5h1.5v1.5h4.6v1.5h4.6v1.3l0,0.2h9.7v-1.5h4.6v-1.5h4.6v-1.5h1.5v-1.5l1.5,0v-1.5l1.5,0v-1.5l1.5,0v-1.5l1.5,0v-1.5l1.5,0
	v-1.5l1.5,0v-3l1.5,0v-3l1.5,0v-6.1l1.5,0v-6.6L59.2,68.3z M57.1,74.4v6.1l-1.5,0v3l-1.5,0v3l-1.5,0v1.5l-1.5,0v1.5l-1.5,0v1.5
	l-1.5,0v1.5l-1.5,0v1.5h-1.5v1.5h-4.6v1.5h-4.6v1.5H27v-1.5h-4.6v-1.5h-4.6v-1.5h-0.1v-2.5h1.5v-1.5h1.5v-1.5h1.5v-1.5h1.5V84h1.5
	v-2.9h1.5v-1.5h1.5v-3.1H30V75h1.5v-1.5h1.5v-1.5h1.5v-1.5h1.5v-1.5h1.5v-3.1h1.5v-1.5h1.5v-3.1h1.5v-3.1h1.5v-1.5h1.5v-1.5h1.5
	v-1.5h1.5V52l1,0v1.5h1.5V55h1.5v1.5H54v3.1h1.5v3.1h1.5v6.1h1.5v5.6L57.1,74.4z M4.2,68.8l1.5,0v-6.1l1.5,0v-3.1l1.5,0v-3.1l1.5,0
	V55l1.5,0v-1.5l1.5,0V52l1.5,0v-1.5l1.5,0v-1.5h1.5v-1.5h4.6v-1.5h4.6v-1.5h8.5v1.5h4.6v1.5h4.6v1.5h1.5V50v0.5v2.6h-1.5v1.5h-1.5
	v1.5h-1.5v1.5h-1.5v3.2h-1.5v2.9h-1.5v1.5h-1.5v3.1h-1.5v1.5h-1.5v1.5H31V73h-1.5v1.5H28V76h-1.5v3.1h-1.5v1.5h-1.5v3.1h-1.5v3.1
	h-1.5v1.5h-1.5v1.5h-1.5v1.5h-1.5v1.5h-0.9v-1.5l-1.5,0v-1.5l-1.5,0v-1.5l-1.5,0v-1.5l-1.5,0v-3l-1.5,0v-3l-1.5,0v-6.1l-1.5,0V68.8z
	"/>
<g>
	<path class="st14" d="M96.9,136.8h1v1h-2.9v-1h1v-3.9h-1v-1h0.5v-0.5h0.5v-0.5h1V136.8z"/>
	<path class="st14" d="M99.8,130.9h4.9v1h-3.9v1h2.9v0.5h0.5v0.5h0.5v2.9h-0.5v0.5h-0.5v0.5h-2.9v-0.5h-0.5v-0.5h-0.5v-1h1v0.5h0.5
		v0.5h2v-0.5h0.5v-2h-0.5v-0.5h-3.4V130.9z"/>
	<path class="st14" d="M105.7,130.9h4.9v1h-3.9v1h2.9v0.5h0.5v0.5h0.5v2.9h-0.5v0.5h-0.5v0.5h-2.9v-0.5h-0.5v-0.5h-0.5v-1h1v0.5h0.5
		v0.5h2v-0.5h0.5v-2h-0.5v-0.5h-3.4V130.9z"/>
	<path class="st14" d="M112.5,131.4v-0.5h2.9v0.5h0.5v0.5h0.5v4.9h-0.5v0.5h-0.5v0.5h-2.9v-0.5H112v-0.5h-0.5v-4.9h0.5v-0.5H112.5z
		 M113,134.8v-0.5h0.5v-0.5h0.5v-0.5h0.5v-0.5h1v-0.5H115v-0.5h-2v0.5h-0.5v2.4H113z M112.5,135.8v0.5h0.5v0.5h2v-0.5h0.5v-2.4H115
		v0.5h-0.5v0.5H114v0.5h-0.5v0.5H112.5z"/>
	<path class="st14" d="M127.7,133.9v1h-3.9v-1H127.7z"/>
	<path class="st14" d="M137.9,136.8h1v1H136v-1h1v-3.9h-1v-1h0.5v-0.5h0.5v-0.5h1V136.8z"/>
	<path class="st14" d="M141.3,136.8h-0.5v-1h1v0.5h0.5v0.5h2v-0.5h0.5v-1.5h-2.9v-0.5h-0.5v-0.5h-0.5v-2h0.5v-0.5h0.5v-0.5h2.9v0.5
		h0.5v0.5h0.5v4.9h-0.5v0.5h-0.5v0.5h-2.9v-0.5h-0.5V136.8z M144.8,133.9v-1.5h-0.5v-0.5h-2v0.5h-0.5v1h0.5v0.5H144.8z"/>
	<path class="st14" d="M147.2,136.8h-0.5v-1h1v0.5h0.5v0.5h2v-0.5h0.5v-1h-0.5v-0.5h-1.5v-1h1.5v-0.5h0.5v-1h-0.5v-0.5h-2v0.5h-0.5
		v0.5h-1v-1h0.5v-0.5h0.5v-0.5h2.9v0.5h0.5v0.5h0.5v2h-0.5v1h0.5v2h-0.5v0.5h-0.5v0.5h-2.9v-0.5h-0.5V136.8z"/>
	<path class="st14" d="M153.5,136.8h3.9v1h-4.9v-2.9h0.5v-0.5h0.5v-0.5h2.4v-0.5h0.5v-1H156v-0.5h-2v0.5h-0.5v0.5h-1v-1h0.5v-0.5
		h0.5v-0.5h2.9v0.5h0.5v0.5h0.5v2H157v0.5h-0.5v0.5H154v0.5h-0.5V136.8z"/>
</g>
<g>
	<path class="st14" d="M209.6,136.8h3.9v1h-4.9v-2.9h0.5v-0.5h0.5v-0.5h2.4v-0.5h0.5v-1h-0.5v-0.5h-2v0.5h-0.5v0.5h-1v-1h0.5v-0.5
		h0.5v-0.5h2.9v0.5h0.5v0.5h0.5v2H213v0.5h-0.5v0.5h-2.4v0.5h-0.5V136.8z"/>
	<path class="st14" d="M215.5,131.4v-0.5h2.9v0.5h0.5v0.5h0.5v4.9h-0.5v0.5h-0.5v0.5h-2.9v-0.5H215v-0.5h-0.5v-4.9h0.5v-0.5H215.5z
		 M216,134.8v-0.5h0.5v-0.5h0.5v-0.5h0.5v-0.5h1v-0.5h-0.5v-0.5h-2v0.5h-0.5v2.4H216z M215.5,135.8v0.5h0.5v0.5h2v-0.5h0.5v-2.4
		h-0.5v0.5h-0.5v0.5h-0.5v0.5h-0.5v0.5H215.5z"/>
	<path class="st14" d="M223.3,136.8h1v1h-2.9v-1h1v-3.9h-1v-1h0.5v-0.5h0.5v-0.5h1V136.8z"/>
	<path class="st14" d="M227.2,131.4v-0.5h2.9v0.5h0.5v0.5h0.5v4.9h-0.5v0.5h-0.5v0.5h-2.9v-0.5h-0.5v-0.5h-0.5v-4.9h0.5v-0.5H227.2z
		 M227.7,134.8v-0.5h0.5v-0.5h0.5v-0.5h0.5v-0.5h1v-0.5h-0.5v-0.5h-2v0.5h-0.5v2.4H227.7z M227.2,135.8v0.5h0.5v0.5h2v-0.5h0.5v-2.4
		h-0.5v0.5h-0.5v0.5h-0.5v0.5h-0.5v0.5H227.2z"/>
</g>
<line class="st7" x1="185.5" y1="72.8" x2="149.9" y2="72.8"/>
</svg>
