<?xml version="1.0" encoding="utf-8"?>
<!-- Generator: Adobe Illustrator 25.2.3, SVG Export Plug-In . SVG Version: 6.00 Build 0)  -->
<svg version="1.1" xmlns="http://www.w3.org/2000/svg" xmlns:xlink="http://www.w3.org/1999/xlink" x="0px" y="0px"
	 viewBox="0 0 1108 791" style="enable-background:new 0 0 1108 791;" xml:space="preserve">
<style type="text/css">
	.st0{opacity:0.48;}
	.st1{fill:#03464F;}
	.st2{fill:#026385;}
	.st3{fill:#35BCC0;}
	.st4{fill:#018F9F;}
	.st5{fill:#A53A1C;}
	.st6{fill:#DF5330;}
	.st7{fill:#FF8039;}
	.st8{fill:#EE5E2F;}
	.st9{fill:#A51959;}
	.st10{fill:#C12573;}
	.st11{fill:#FF4DA6;}
	.st12{fill:#D2276E;}
	.st13{fill:#7F7973;}
	.st14{fill:#C0B5AA;}
	.st15{fill:#E4DED5;}
	.st16{fill:#514A43;}
	.st17{fill:#606161;}
	.st18{fill:#BEBFB9;}
	.st19{fill:#3A3A3A;}
	.st20{fill:#302C28;}
	.st21{fill:#161616;}
	.st22{fill:#E1E1DF;}
	.st23{fill:#163A20;}
	.st24{fill:#1A5C31;}
	.st25{fill:#3E9B50;}
	.st26{fill:#23763E;}
	.st27{fill:#41296D;}
	.st28{fill:#513C82;}
	.st29{fill:#775ABF;}
	.st30{fill:#614293;}
	.st31{fill:#6C0F13;}
	.st32{fill:#9E1F25;}
	.st33{fill:#E8222E;}
	.st34{fill:#CF232E;}
	.st35{fill:#D27633;}
	.st36{fill:#DD8A34;}
	.st37{fill:#F5C032;}
	.st38{fill:#F3A634;}
	.st39{fill:#FFFFFF;}
</style>
<g id="layout">
</g>
<g id="GUIDES">
</g>
<g id="LOSE_WEIGHT">
	<g>
		<path class="st37" d="M829.2,323.7v-12h-12v-12h-12v-12h-12v-12h-12v-12h-12v-12h-12v-12h-12v-12h-12v-12h-23.9v35.9h-12v12h-12
			v12h-12v12h-12v12h-12v12h-12v12h-12v12h-12v12h-23.9h-71.8h-23.9v-12h-12v-12h-12v-12h-12v-12h-12v-12h-12v-12h-12v-12h-12v-12
			h-12V216h-23.9v12h-12v12h-12v12h-12v12h-12v12h-12v12h-12v12h-12v12h-12v12h-12v275.2v12v83.8v12v23.9h215.4h35.9h71.8h35.9
			h215.4v-23.9v-12v-83.8v-12V323.7H829.2z M482.2,503.2v143.6h-12v12h-12v12h-12v12h-12v12h-71.8v-12h-12v-12h-12v-12h-12v-12h-12
			v-35.9v-12V431.4h12v-12h12v-12h12v-12h12v-12h12h12h12h12h12h12v12h12v12h12v12h12v12h12V503.2z M793.3,598.9v12v35.9h-12v12h-12
			v12h-12v12h-12v12h-71.8v-12h-12v-12h-12v-12h-12v-12h-12V503.2v-71.8h12v-12h12v-12h12v-12h12v-12h12h12h12h12h12h12v12h12v12h12
			v12h12v12h12V598.9z"/>
		<rect x="542" y="371.6" class="st35" width="23.9" height="335.1"/>
		<path class="st21" d="M697.6,132.2v-12h-12v-12h-12v-12h-12v-12h-12v-12h-12v-12h-12v-12h-12v-12h-12h-12h-71.8h-12h-12v12h-12v12
			h-12v12h-12v12h-12v12h-12v12h-12v12h-12v12h-12v12v23.9v12V204v35.9v12h12v12h12v12h12v12h12v12h12v12h12v12h12v12h12v12h12h12
			h71.8h12h12v-12h12v-12h12v-12h12v-12h12v-12h12v-12h12v-12h12v-12h12v-12V216v-12v-23.9v-35.9v-12H697.6z M685.6,144.2v35.9
			h-35.9V204h35.9v12v23.9v12h-12v12h-12h-12h-12v12v12v12h-12v12h-12v12h-12v12h-12H566v-35.9H542v35.9h-23.9h-12v-12h-12v-12h-12
			v-12h-12v-12v-12v-12h-12h-12h-12v-12h-12v-12V204h35.9v-23.9h-35.9v-12v-23.9v-12h12v-12h12h12h12v-12v-12v-12h12v-12h12v-12h12
			v-12h12H542v35.9H566V48.5h23.9h12v12h12v12h12v12h12v12v23.9h12h12h12v12h12V144.2z"/>
		<g>
			<rect x="745.5" y="395.5" class="st35" width="12" height="12"/>
			<rect x="757.4" y="407.5" class="st35" width="12" height="12"/>
			<rect x="769.4" y="419.4" class="st35" width="12" height="12"/>
			<polygon class="st35" points="781.4,431.4 781.4,455.3 781.4,622.9 781.4,646.8 793.3,646.8 793.3,622.9 793.3,455.3 
				793.3,431.4 			"/>
			<rect x="745.5" y="670.7" class="st35" width="12" height="12"/>
			<rect x="757.4" y="658.8" class="st35" width="12" height="12"/>
			<rect x="769.4" y="646.8" class="st35" width="12" height="12"/>
			<rect x="661.7" y="670.7" class="st35" width="12" height="12"/>
			<polygon class="st35" points="685.6,682.7 673.7,682.7 673.7,694.7 685.6,694.7 733.5,694.7 745.5,694.7 745.5,682.7 
				733.5,682.7 			"/>
			<rect x="649.7" y="658.8" class="st35" width="12" height="12"/>
			<rect x="637.8" y="646.8" class="st35" width="12" height="12"/>
			<polygon class="st35" points="637.8,455.3 637.8,431.4 625.8,431.4 625.8,455.3 625.8,622.9 625.8,646.8 637.8,646.8 
				637.8,622.9 			"/>
			<polygon class="st35" points="733.5,395.5 745.5,395.5 745.5,383.5 733.5,383.5 685.6,383.5 673.7,383.5 673.7,395.5 
				685.6,395.5 			"/>
			<rect x="661.7" y="395.5" class="st35" width="12" height="12"/>
			<rect x="649.7" y="407.5" class="st35" width="12" height="12"/>
			<rect x="637.8" y="419.4" class="st35" width="12" height="12"/>
		</g>
		<g>
			<rect x="434.3" y="395.5" class="st35" width="12" height="12"/>
			<rect x="446.3" y="407.5" class="st35" width="12" height="12"/>
			<rect x="458.3" y="419.4" class="st35" width="12" height="12"/>
			<polygon class="st35" points="470.2,431.4 470.2,455.3 470.2,622.9 470.2,646.8 482.2,646.8 482.2,622.9 482.2,455.3 
				482.2,431.4 			"/>
			<rect x="434.3" y="670.7" class="st35" width="12" height="12"/>
			<rect x="446.3" y="658.8" class="st35" width="12" height="12"/>
			<rect x="458.3" y="646.8" class="st35" width="12" height="12"/>
			<rect x="350.6" y="670.7" class="st35" width="12" height="12"/>
			<polygon class="st35" points="374.5,682.7 362.5,682.7 362.5,694.7 374.5,694.7 422.4,694.7 434.3,694.7 434.3,682.7 
				422.4,682.7 			"/>
			<rect x="338.6" y="658.8" class="st35" width="12" height="12"/>
			<rect x="326.6" y="646.8" class="st35" width="12" height="12"/>
			<polygon class="st35" points="326.6,455.3 326.6,431.4 314.7,431.4 314.7,455.3 314.7,622.9 314.7,646.8 326.6,646.8 
				326.6,622.9 			"/>
			<polygon class="st35" points="422.4,395.5 434.3,395.5 434.3,383.5 422.4,383.5 374.5,383.5 362.5,383.5 362.5,395.5 
				374.5,395.5 			"/>
			<rect x="350.6" y="395.5" class="st35" width="12" height="12"/>
			<rect x="338.6" y="407.5" class="st35" width="12" height="12"/>
			<rect x="326.6" y="419.4" class="st35" width="12" height="12"/>
		</g>
		<polygon class="st38" points="458.3,431.4 458.3,419.4 446.3,419.4 446.3,407.5 434.3,407.5 434.3,395.5 362.5,395.5 362.5,407.5 
			350.6,407.5 350.6,419.4 338.6,419.4 338.6,431.4 326.6,431.4 326.6,646.8 338.6,646.8 338.6,658.8 350.6,658.8 350.6,670.7 
			362.5,670.7 362.5,682.7 434.3,682.7 434.3,670.7 446.3,670.7 446.3,658.8 458.3,658.8 458.3,646.8 470.2,646.8 470.2,431.4 		"/>
		<polygon class="st38" points="769.4,431.4 769.4,419.4 757.4,419.4 757.4,407.5 745.5,407.5 745.5,395.5 673.7,395.5 673.7,407.5 
			661.7,407.5 661.7,419.4 649.7,419.4 649.7,431.4 637.8,431.4 637.8,646.8 649.7,646.8 649.7,658.8 661.7,658.8 661.7,670.7 
			673.7,670.7 673.7,682.7 745.5,682.7 745.5,670.7 757.4,670.7 757.4,658.8 769.4,658.8 769.4,646.8 781.4,646.8 781.4,431.4 		"/>
		<polygon class="st35" points="853.2,311.7 853.2,299.8 841.2,299.8 841.2,287.8 829.2,287.8 829.2,275.8 817.3,275.8 817.3,263.9 
			805.3,263.9 805.3,251.9 793.3,251.9 793.3,239.9 781.4,239.9 781.4,228 769.4,228 769.4,216 757.4,216 757.4,204 745.5,204 
			733.5,204 733.5,192.1 721.5,192.1 721.5,180.1 697.6,180.1 697.6,204 709.6,204 709.6,216 721.5,216 733.5,216 733.5,228 
			745.5,228 745.5,239.9 757.4,239.9 757.4,251.9 769.4,251.9 769.4,263.9 781.4,263.9 781.4,275.8 793.3,275.8 793.3,287.8 
			805.3,287.8 805.3,299.8 817.3,299.8 817.3,311.7 829.2,311.7 829.2,323.7 841.2,323.7 841.2,443.4 841.2,467.3 841.2,730.6 
			625.8,730.6 554,730.6 422.4,730.6 266.8,730.6 266.8,467.3 266.8,443.4 266.8,323.7 278.8,323.7 278.8,311.7 290.7,311.7 
			290.7,299.8 302.7,299.8 302.7,287.8 314.7,287.8 314.7,275.8 326.6,275.8 326.6,263.9 338.6,263.9 338.6,251.9 350.6,251.9 
			350.6,239.9 362.5,239.9 362.5,228 374.5,228 374.5,216 386.5,216 398.4,216 398.4,204 410.4,204 410.4,180.1 398.4,180.1 
			386.5,180.1 386.5,192.1 374.5,192.1 374.5,204 362.5,204 350.6,204 350.6,216 338.6,216 338.6,228 326.6,228 326.6,239.9 
			314.7,239.9 314.7,251.9 302.7,251.9 302.7,263.9 290.7,263.9 290.7,275.8 278.8,275.8 278.8,287.8 266.8,287.8 266.8,299.8 
			254.8,299.8 254.8,311.7 242.9,311.7 242.9,323.7 242.9,443.4 242.9,467.3 242.9,730.6 242.9,742.5 254.8,742.5 254.8,754.5 
			266.8,754.5 422.4,754.5 554,754.5 625.8,754.5 841.2,754.5 853.2,754.5 853.2,742.5 865.1,742.5 865.1,730.6 865.1,467.3 
			865.1,443.4 865.1,323.7 865.1,311.7 		"/>
		<g>
			<rect x="494.2" y="132.2" class="st35" width="12" height="12"/>
			<rect x="506.1" y="144.2" class="st35" width="12" height="12"/>
			<polygon class="st35" points="577.9,168.1 566,168.1 542,168.1 542,156.2 530.1,156.2 518.1,156.2 518.1,168.1 518.1,180.1 
				530.1,180.1 530.1,216 530.1,228 577.9,228 577.9,216 589.9,216 589.9,180.1 589.9,168.1 			"/>
		</g>
	</g>
</g>
<g id="HEART_HEALTH">
</g>
<g id="TOILET">
</g>
</svg>
