<?xml version="1.0" encoding="utf-8"?>
<!-- Generator: Adobe Illustrator 25.2.3, SVG Export Plug-In . SVG Version: 6.00 Build 0)  -->
<svg version="1.1" xmlns="http://www.w3.org/2000/svg" xmlns:xlink="http://www.w3.org/1999/xlink" x="0px" y="0px"
	 viewBox="0 0 1108 791" style="enable-background:new 0 0 1108 791;" xml:space="preserve">
<style type="text/css">
	.st0{opacity:0.48;}
	.st1{fill:#03464F;}
	.st2{fill:#026385;}
	.st3{fill:#35BCC0;}
	.st4{fill:#018F9F;}
	.st5{fill:#A53A1C;}
	.st6{fill:#DF5330;}
	.st7{fill:#FF8039;}
	.st8{fill:#EE5E2F;}
	.st9{fill:#A51959;}
	.st10{fill:#C12573;}
	.st11{fill:#FF4DA6;}
	.st12{fill:#D2276E;}
	.st13{fill:#7F7973;}
	.st14{fill:#C0B5AA;}
	.st15{fill:#E4DED5;}
	.st16{fill:#514A43;}
	.st17{fill:#606161;}
	.st18{fill:#BEBFB9;}
	.st19{fill:#3A3A3A;}
	.st20{fill:#302C28;}
	.st21{fill:#161616;}
	.st22{fill:#E1E1DF;}
	.st23{fill:#163A20;}
	.st24{fill:#1A5C31;}
	.st25{fill:#3E9B50;}
	.st26{fill:#23763E;}
	.st27{fill:#41296D;}
	.st28{fill:#513C82;}
	.st29{fill:#775ABF;}
	.st30{fill:#614293;}
	.st31{fill:#6C0F13;}
	.st32{fill:#9E1F25;}
	.st33{fill:#E8222E;}
	.st34{fill:#CF232E;}
	.st35{fill:#D27633;}
	.st36{fill:#DD8A34;}
	.st37{fill:#F5C032;}
	.st38{fill:#F3A634;}
	.st39{fill:#FFFFFF;}
</style>
<g id="layout">
</g>
<g id="GUIDES">
</g>
<g id="LOSE_WEIGHT">
</g>
<g id="HEART_HEALTH">
	<g>
		<path class="st33" d="M846.7,224.2v-44.2h-11V158h-11v-11h-11v-11l-11,0v-11h-11v-11h-12.3h-9.8v-11h-22.1v-11h-23.2h-11h-33h-11
			h-11h-10.2v11H636h-10.2v11H614h-11v11h-11v22.1h-11v11h-11v11h-11v11h-11v0.2h-0.4v-11h-11v-11h-11v-11h-11V125h-11v-11h-11h-11
			v-11h-11h-11v-11h-11h-11h-11h-33h-11h-22v11h-22v11h-11h-11v11h-11v11h-11v11h-11v11h-11v22.1h-11v44.2h-11v99.4v11h11v11v11h11
			v11h11v11v11h11v22.1h11v11h11v11h11v11h11v11v11h11v11h11v11h11v11h11v11h11v11v11h11v11v11h11v11h0.4h11.5v11h10.1v11h11v11
			h10.4V622h11.6v11h11v11h11v11h11v11h11v11h11v11h11v11h33v-0.2h0.4v-10.8h10.6v-0.2h0.4v-10.8h10.6V677h0.4v-10.8h10.6V666h0.4
			v-10.8h10.6v-0.2h0.4v-10.8h10.6v-0.2h0.4v-10.8h10.6v-0.2h0.4V622h10.6v-0.2h1v-21.9h10.1v-0.2h0.4v-11h11v-11h10.1v-10.8h0.1
			h0.4v-0.2h10.9h0.4v-11h11v-11v-11h11v-11v-11h11v-11h11v-11h11v-11h11v-11h11v-11v-11h11v-11h11v-11h11v-11h11v-22.1h12.2v-11
			v-11h11v-11h11v-11v-11h11v-11l0.3-99.4H846.7z M558.6,235.3h0.4v0.2h-0.4V235.3z"/>
		<polygon class="st39" points="703.1,356.8 692.1,356.8 681,356.8 681,367.8 670,367.8 670,389.9 670,401 647.9,401 647.9,356.8 
			636.8,356.8 636.8,334.7 636.8,323.6 625.8,323.6 625.8,301.6 592.7,301.6 581.6,301.6 570.6,301.6 570.6,312.6 559.5,312.6 
			559.5,345.7 548.5,345.7 548.5,401 537.4,401 537.4,445.1 504.3,445.1 504.3,334.7 493.3,334.7 493.3,290.5 493.3,279.5 
			493.3,268.4 482.2,268.4 482.2,257.4 482.2,246.3 471.2,246.3 471.2,235.3 471.2,224.2 460.1,224.2 460.1,213.2 427,213.2 
			427,224.2 415.9,224.2 415.9,235.3 404.9,235.3 404.9,246.3 404.9,257.4 404.9,268.4 393.9,268.4 393.9,312.6 382.8,312.6 
			382.8,356.8 261.3,356.8 261.3,367.8 272.4,367.8 272.4,378.9 283.4,378.9 283.4,389.9 393.9,389.9 393.9,378.9 404.9,378.9 
			404.9,367.8 415.9,367.8 415.9,356.8 415.9,334.7 427,334.7 427,268.4 438,268.4 460.1,268.4 460.1,334.7 471.2,334.7 471.2,401 
			482.2,401 482.2,456.2 493.3,456.2 493.3,489.3 504.3,489.3 504.3,500.4 537.4,500.4 537.4,489.3 548.5,489.3 548.5,478.3 
			559.5,478.3 559.5,456.2 570.6,456.2 570.6,412 581.6,412 581.6,356.8 592.7,356.8 592.7,334.7 614.7,334.7 614.7,412 625.8,412 
			625.8,434.1 636.8,434.1 636.8,445.1 647.9,445.1 670,445.1 670,434.1 681,434.1 681,423 692.1,423 692.1,401 703.1,401 
			703.1,389.9 824.6,389.9 824.6,378.9 835.6,378.9 835.6,367.8 846.7,367.8 846.7,356.8 		"/>
	</g>
	<polygon class="st32" points="229.6,553.9 229.6,542.8 218.6,542.8 218.6,531.8 207.5,531.8 196.5,531.8 185.4,531.8 174.4,531.8 
		174.4,542.8 163.4,542.8 163.4,553.9 152.3,553.9 152.3,542.8 141.3,542.8 141.3,531.8 130.2,531.8 119.2,531.8 108.1,531.8 
		97.1,531.8 97.1,542.8 86,542.8 86,553.9 75,553.9 75,575.9 75,598 75,609.1 86,609.1 86,620.1 97.1,620.1 97.1,631.2 108.1,631.2 
		108.1,642.2 119.2,642.2 119.2,653.3 130.2,653.3 130.2,664.3 141.3,664.3 141.3,675.3 152.3,675.3 152.3,686.4 163.4,686.4 
		163.4,675.3 174.4,675.3 174.4,664.3 185.4,664.3 185.4,653.3 196.5,653.3 196.5,642.2 207.5,642.2 207.5,631.2 218.6,631.2 
		218.6,620.1 229.6,620.1 229.6,609.1 240.7,609.1 240.7,598 240.7,575.9 240.7,553.9 	"/>
	<polygon class="st32" points="1031,111.2 1031,100.1 1019.9,100.1 1019.9,89.1 1008.9,89.1 997.8,89.1 986.8,89.1 975.7,89.1 
		975.7,100.1 964.7,100.1 964.7,111.2 953.6,111.2 953.6,100.1 942.6,100.1 942.6,89.1 931.6,89.1 920.5,89.1 909.5,89.1 
		898.4,89.1 898.4,100.1 887.4,100.1 887.4,111.2 876.3,111.2 876.3,133.3 876.3,155.3 876.3,166.4 887.4,166.4 887.4,177.4 
		898.4,177.4 898.4,188.5 909.5,188.5 909.5,199.5 920.5,199.5 920.5,210.6 931.6,210.6 931.6,221.6 942.6,221.6 942.6,232.7 
		953.6,232.7 953.6,243.7 964.7,243.7 964.7,232.7 975.7,232.7 975.7,221.6 986.8,221.6 986.8,210.6 997.8,210.6 997.8,199.5 
		1008.9,199.5 1008.9,188.5 1019.9,188.5 1019.9,177.4 1031,177.4 1031,166.4 1042,166.4 1042,155.3 1042,133.3 1042,111.2 	"/>
	<g>
		<g>
			<path class="st39" d="M275.3,397.1c1.9,0,1.9-3,0-3C273.4,394.1,273.4,397.1,275.3,397.1L275.3,397.1z"/>
		</g>
	</g>
</g>
<g id="TOILET">
</g>
</svg>
