<?xml version="1.0" encoding="utf-8"?>
<!-- Generator: Adobe Illustrator 25.2.3, SVG Export Plug-In . SVG Version: 6.00 Build 0)  -->
<svg version="1.1" id="Layer_1" xmlns="http://www.w3.org/2000/svg" xmlns:xlink="http://www.w3.org/1999/xlink" x="0px" y="0px"
	 viewBox="0 0 1108 791" style="enable-background:new 0 0 1108 791;" xml:space="preserve">
<style type="text/css">
	.st0{fill:#B06447;}
	.st1{fill:#343533;}
	.st2{fill:#613C34;}
	.st3{fill:#1E512E;}
	.st4{fill:#9B9F51;}
</style>
<polygon class="st0" points="566,658.9 566,649.5 556.6,649.5 556.6,640.1 547.2,640.1 547.2,645.4 547.1,645.4 547.1,630.6 
	547.1,630.6 547.1,621.2 547.1,610.5 547.2,610.5 547.2,611.7 556.6,611.7 556.6,545.7 547.2,545.7 547.2,585.7 547.1,585.7 
	547.1,574 537.7,574 537.7,592.9 528.3,592.9 528.3,611.8 518.9,611.8 518.9,621.2 509.4,621.2 509.4,630.6 518.9,630.6 
	518.9,640.1 528.3,640.1 528.3,649.5 537.7,649.5 537.7,668.3 547.1,668.3 547.1,667.1 547.2,667.1 547.2,668.4 556.6,668.4 
	556.6,668.3 575.5,668.3 575.5,658.9 "/>
<g id="Layer_2_1_">
</g>
<polygon class="st0" points="622.6,121.2 613.2,121.2 613.2,130.6 603.8,130.6 603.8,140.1 594.3,140.1 594.3,149.5 584.9,149.5 
	584.9,130.6 575.5,130.6 575.5,149.5 575.5,158.9 575.5,168.4 566,168.4 566,177.8 566,196.7 584.9,196.7 594.3,196.7 594.3,187.2 
	603.8,187.2 613.2,187.2 613.2,177.8 622.6,177.8 622.6,158.9 632.1,158.9 632.1,130.6 632.1,121.2 "/>
<rect x="613.2" y="140.1" class="st1" width="9.4" height="9.4"/>
<rect x="556.6" y="121.2" class="st1" width="9.4" height="37.7"/>
<rect x="613.2" y="168.4" class="st2" width="9.4" height="9.4"/>
<rect x="434" y="300.4" class="st0" width="9.4" height="18.9"/>
<rect x="613.2" y="300.4" class="st0" width="9.4" height="18.9"/>
<rect x="330.2" y="574" class="st0" width="37.7" height="9.4"/>
<rect x="339.6" y="564.6" class="st0" width="47.2" height="9.4"/>
<rect x="320.8" y="564.6" class="st3" width="28.3" height="18.9"/>
<rect x="434" y="319.3" class="st3" width="9.4" height="28.3"/>
<path class="st3" d="M613.2,460.8v-9.4h-9.4v-18.9h-9.4v-9.4h-9.5v-28.3h-18.8v-9.5h-9.5v-9.4h0v-9.4h9.4v-18.9h18.9h0h18.9v-9.4
	h9.4v-75.5v-9.4V225h-9.5v-9.5h-9.4v-18.8H566v-18.9h-9.4v-9.4h-18.9h-18.8H500v9.4h-18.9v9.4h-18.8v9.5h-18.9v9.4h-18.9v9.4h-9.4
	v9.5h-9.4v37.7v37.7h9.4v37.8H434v-37.8h9.4V291h9.4v9.4h9.5v9.5h9.4v56.5h9.4v0.1h-37.7v28.3H434v18.8v9.5v9.4h-9.5v9.4h-9.4v37.7
	l-9.4,0.1v9.4h-9.5v9.4h-9.4v18.9h-9.4v9.4h-18.9v9.4l-9.4,0.1v9.4h-9.5v9.4h-9.4v28.3h264.2v-28.2v-0.1v-9.4v-9.4h9.4v-9.4h9.4
	v-28.4h18.9v-37.7H613.2z M490.5,366.5V357h0.1v9.5H490.5z"/>
<rect x="481.1" y="347.6" class="st4" width="75.5" height="9.4"/>
<rect x="434" y="300.4" class="st4" width="9.4" height="37.7"/>
<rect x="603.8" y="300.4" class="st4" width="18.9" height="18.9"/>
<rect x="320.8" y="574" class="st4" width="273.6" height="9.4"/>
<rect x="566" y="196.7" class="st4" width="28.3" height="9.4"/>
<rect x="556.6" y="177.8" class="st4" width="9.4" height="28.3"/>
<polygon class="st4" points="1028.3,592.9 1028.3,583.5 1018.9,583.5 981.1,583.5 981.1,574 981.1,555.1 981.1,545.7 981.1,536.3 
	981.1,526.8 981.1,517.4 981.1,508 981.1,498.5 971.7,498.5 971.7,508 962.3,508 962.3,517.4 952.8,517.4 952.8,526.8 943.4,526.8 
	943.4,536.3 934,536.3 934,545.7 924.5,545.7 924.5,555.1 915.1,555.1 915.1,564.6 905.7,564.6 905.7,574 896.2,574 896.2,583.5 
	896.2,592.9 886.8,592.9 886.8,602.3 896.2,602.3 896.2,611.8 905.7,611.8 943.4,611.8 943.4,621.2 943.4,640.1 943.4,649.5 
	943.4,658.9 943.4,668.4 943.4,677.8 943.4,687.2 943.4,696.7 952.8,696.7 952.8,687.2 962.3,687.2 962.3,677.8 971.7,677.8 
	971.7,668.4 981.1,668.4 981.1,658.9 990.6,658.9 990.6,649.5 1000,649.5 1000,640.1 1009.4,640.1 1009.4,630.6 1018.9,630.6 
	1018.9,611.8 1028.3,611.8 1028.3,602.3 1037.7,602.3 1037.7,592.9 "/>
<polygon class="st4" points="217,158.9 217,149.5 207.5,149.5 169.8,149.5 169.8,140.1 169.8,121.2 169.8,111.7 169.8,102.3 
	169.8,92.9 169.8,83.4 169.8,74 169.8,64.6 160.4,64.6 160.4,74 150.9,74 150.9,83.4 141.5,83.4 141.5,92.9 132.1,92.9 132.1,102.3 
	122.6,102.3 122.6,111.7 113.2,111.7 113.2,121.2 103.8,121.2 103.8,130.6 94.3,130.6 94.3,140.1 84.9,140.1 84.9,149.5 84.9,158.9 
	75.5,158.9 75.5,168.4 84.9,168.4 84.9,177.8 94.3,177.8 132.1,177.8 132.1,187.2 132.1,206.1 132.1,215.5 132.1,225 132.1,234.4 
	132.1,243.8 132.1,253.3 132.1,262.7 141.5,262.7 141.5,253.3 150.9,253.3 150.9,243.8 160.4,243.8 160.4,234.4 169.8,234.4 
	169.8,225 179.2,225 179.2,215.5 188.7,215.5 188.7,206.1 198.1,206.1 198.1,196.7 207.5,196.7 207.5,177.8 217,177.8 217,168.4 
	226.4,168.4 226.4,158.9 "/>
<path class="st1" d="M638.3,102.3h-6.2v-9.4h-9.5v-0.1v-4.7v-4.7h-28.3h0h-9.4V74h-9.4v9.4h-28.3h-9.4h-9.5h-9.4v9.4l-9.4,0.1h-0.1
	h-18.8v9.4h-0.1h-9.4v9.4h-9.4v9.5h-9.4h-0.1h-9.4v9.4h9.4l0.1,9.5h9.4v9.3h9.4V140h9.4l0.1-9.4h9.4v-9.4l9.4-0.1v0.1v9.4h9.4v-9.4
	h9.5v-9.5h9.4v-9.4h9.5v9.4v9.4v0.1v37.7h2.5h6.9v9.4h18.9v-9.4h-0.1v-28.3h9.5v18.8h9.4V140h9.4v-9.4h9.5v-9.4h18.9v9.4h9.4v-28.3
	H638.3z M547.2,92.8"/>
<rect x="537.8" y="83.3" class="st4" width="9.4" height="18.9"/>
<polygon class="st0" points="320.8,583.5 320.8,589.1 320.7,589.1 320.7,583.5 311.3,583.5 311.3,589.1 311.3,592.9 301.9,592.9 
	301.9,602.3 292.5,602.3 292.5,614.8 292.4,614.8 292.4,611.8 283,611.8 273.6,611.8 273.6,649.5 283,649.5 283,677.8 292.4,677.8 
	292.4,676 292.5,676 292.5,677.8 301.9,677.8 301.9,649.5 311.3,649.5 311.3,621.2 320.7,621.2 320.7,611.8 324.5,611.8 
	324.5,611.7 330.2,611.7 330.2,602.3 339.7,602.3 339.7,592.9 349.1,592.9 349.1,583.5 "/>
<polygon class="st0" points="462.3,328.7 462.3,331.5 462.2,331.5 462.2,319.3 452.8,319.3 452.8,300.4 443.4,300.4 443.4,357 
	452.8,357 452.8,366.5 462.2,366.5 462.2,364.3 462.3,364.3 462.3,366.4 471.7,366.4 471.7,328.7 "/>
<polygon class="st0" points="641.5,281.6 641.5,291 632.1,291 632.1,302.1 632,302.1 632,300.4 622.6,300.4 622.6,319.3 632,319.3 
	632,306.8 632.1,306.8 632.1,309.9 641.5,309.9 641.5,309.8 669.8,309.8 669.8,300.4 669.8,291 669.8,281.6 "/>
</svg>
