<?xml version="1.0" encoding="utf-8"?>
<!-- Generator: Adobe Illustrator 25.2.3, SVG Export Plug-In . SVG Version: 6.00 Build 0)  -->
<svg version="1.1" xmlns="http://www.w3.org/2000/svg" xmlns:xlink="http://www.w3.org/1999/xlink" x="0px" y="0px"
	 viewBox="0 0 1108 791" style="enable-background:new 0 0 1108 791;" xml:space="preserve">
<style type="text/css">
	.st0{fill:#B06447;}
	.st1{fill:#343533;}
	.st2{fill:#613C34;}
	.st3{fill:#1E512E;}
	.st4{fill:#9B9F51;}
</style>
<g id="Layer_2">
</g>
<g id="Layer_3">
	<polygon class="st0" points="622.6,121.2 613.2,121.2 613.2,130.6 603.8,130.6 603.8,140.1 594.3,140.1 594.3,149.5 584.9,149.5 
		584.9,130.6 575.5,130.6 575.5,149.5 575.5,158.9 575.5,168.4 566,168.4 566,177.8 566,196.7 584.9,196.7 594.3,196.7 594.3,187.2 
		603.8,187.2 613.2,187.2 613.2,177.8 622.6,177.8 622.6,158.9 632.1,158.9 632.1,130.6 632.1,121.2 	"/>
	<rect x="613.2" y="140.1" class="st1" width="9.4" height="9.4"/>
	<rect x="584.9" y="83.4" class="st1" width="9.4" height="66"/>
	<rect x="556.6" y="92.9" class="st1" width="66" height="9.4"/>
	<rect x="547.2" y="111.7" class="st1" width="84.9" height="9.4"/>
	<rect x="556.6" y="121.2" class="st1" width="9.4" height="37.7"/>
	<rect x="556.6" y="102.3" class="st1" width="75.5" height="9.4"/>
	<rect x="594.3" y="83.4" class="st1" width="28.3" height="9.4"/>
	<rect x="575.5" y="74" class="st1" width="9.4" height="18.9"/>
	<rect x="594.3" y="111.7" class="st1" width="9.4" height="28.3"/>
	<rect x="566" y="121.2" class="st1" width="47.2" height="9.4"/>
	<rect x="566" y="121.2" class="st1" width="9.4" height="37.7"/>
	<rect x="556.6" y="158.9" class="st1" width="18.9" height="9.4"/>
	<rect x="547.2" y="121.2" class="st1" width="9.4" height="37.7"/>
	<rect x="632.1" y="102.3" class="st1" width="9.4" height="28.3"/>
	<rect x="613.2" y="168.4" class="st2" width="9.4" height="9.4"/>
	<rect x="452.8" y="319.3" class="st0" width="9.4" height="47.2"/>
	<rect x="434" y="300.4" class="st0" width="9.4" height="18.9"/>
	<rect x="443.4" y="300.4" class="st0" width="9.4" height="56.6"/>
	<rect x="462.3" y="328.7" class="st0" width="9.4" height="37.7"/>
	<rect x="622.6" y="300.4" class="st0" width="9.4" height="18.9"/>
	<rect x="632.1" y="291" class="st0" width="9.4" height="18.9"/>
	<rect x="641.5" y="300.4" class="st0" width="28.3" height="9.4"/>
	<rect x="641.5" y="291" class="st0" width="28.3" height="9.4"/>
	<rect x="641.5" y="281.6" class="st0" width="28.3" height="9.4"/>
	<rect x="613.2" y="300.4" class="st0" width="9.4" height="18.9"/>
	<rect x="320.8" y="592.9" class="st0" width="18.9" height="9.4"/>
	<rect x="349.1" y="555.1" class="st0" width="56.6" height="9.4"/>
	<rect x="330.2" y="574" class="st0" width="37.7" height="9.4"/>
	<rect x="339.6" y="564.6" class="st0" width="47.2" height="9.4"/>
	<rect x="320.8" y="583.5" class="st0" width="28.3" height="9.4"/>
	<rect x="283" y="611.8" class="st0" width="9.4" height="66"/>
	<rect x="292.5" y="602.3" class="st0" width="9.4" height="75.5"/>
	<rect x="273.6" y="611.8" class="st0" width="9.4" height="37.7"/>
	<rect x="301.9" y="592.9" class="st0" width="9.4" height="56.6"/>
	<rect x="311.3" y="602.3" class="st0" width="18.9" height="9.4"/>
	<rect x="311.3" y="583.5" class="st0" width="9.4" height="18.9"/>
	<rect x="311.3" y="611.8" class="st0" width="9.4" height="9.4"/>
	<rect x="547.2" y="545.7" class="st0" width="9.4" height="66"/>
	<rect x="537.7" y="574" class="st0" width="9.4" height="47.2"/>
	<rect x="537.7" y="630.6" class="st0" width="9.4" height="37.7"/>
	<rect x="518.9" y="611.8" class="st0" width="9.4" height="28.3"/>
	<rect x="528.3" y="592.9" class="st0" width="9.4" height="56.6"/>
	<rect x="547.2" y="640.1" class="st0" width="9.4" height="28.3"/>
	<rect x="537.7" y="621.2" class="st0" width="9.4" height="9.4"/>
	<rect x="509.4" y="621.2" class="st0" width="18.9" height="9.4"/>
	<rect x="556.6" y="658.9" class="st0" width="18.9" height="9.4"/>
	<rect x="556.6" y="649.5" class="st0" width="9.4" height="9.4"/>
	<rect x="415.1" y="441.9" class="st3" width="18.9" height="37.7"/>
	<rect x="434" y="423.1" class="st3" width="18.9" height="47.2"/>
	<rect x="490.6" y="347.6" class="st3" width="9.4" height="75.5"/>
	<rect x="330.2" y="555.1" class="st3" width="264.2" height="28.3"/>
	<rect x="462.3" y="121.2" class="st1" width="9.4" height="18.9"/>
	<rect x="471.7" y="111.7" class="st1" width="9.4" height="37.7"/>
	<rect x="481.1" y="102.3" class="st1" width="9.4" height="37.7"/>
	<rect x="547.2" y="83.4" class="st1" width="28.3" height="9.4"/>
	<rect x="547.2" y="92.9" class="st1" width="9.4" height="9.4"/>
	<rect x="509.4" y="92.9" class="st1" width="18.9" height="28.3"/>
	<rect x="528.3" y="92.9" class="st1" width="28.3" height="9.4"/>
	<rect x="528.3" y="83.4" class="st1" width="18.9" height="9.4"/>
	<rect x="490.6" y="111.7" class="st1" width="18.9" height="9.4"/>
	<rect x="490.6" y="102.3" class="st1" width="28.3" height="9.4"/>
	<rect x="490.6" y="121.2" class="st1" width="9.4" height="9.4"/>
	<rect x="528.3" y="102.3" class="st1" width="9.4" height="9.4"/>
	<rect x="509.4" y="102.3" class="st1" width="9.4" height="28.3"/>
	<rect x="547.2" y="102.3" class="st1" width="9.4" height="9.4"/>
	<rect x="547.2" y="83.4" class="st4" width="9.4" height="18.9"/>
	<rect x="603.8" y="92.9" class="st1" width="28.3" height="9.4"/>
	<rect x="452.8" y="121.2" class="st1" width="9.4" height="9.4"/>
	<rect x="490.6" y="92.9" class="st1" width="18.9" height="9.4"/>
	<rect x="518.9" y="83.4" class="st1" width="18.9" height="9.4"/>
	<rect x="500" y="338.2" class="st3" width="28.3" height="160.4"/>
	<rect x="339.6" y="545.7" class="st3" width="254.7" height="9.4"/>
	<rect x="320.8" y="564.6" class="st3" width="28.3" height="18.9"/>
	<rect x="349.1" y="536.3" class="st3" width="245.3" height="9.4"/>
	<rect x="528.3" y="366.5" class="st3" width="28.3" height="179.2"/>
	<rect x="547.2" y="385.3" class="st3" width="18.9" height="160.4"/>
	<rect x="547.2" y="423.1" class="st3" width="47.2" height="132.1"/>
	<rect x="556.6" y="451.4" class="st3" width="56.6" height="75.5"/>
	<rect x="584.9" y="460.8" class="st3" width="47.2" height="37.7"/>
	<rect x="575.5" y="508" class="st3" width="28.3" height="28.3"/>
	<rect x="575.5" y="432.5" class="st3" width="28.3" height="37.7"/>
	<rect x="547.2" y="394.8" class="st3" width="37.7" height="47.2"/>
	<rect x="518.9" y="357" class="st3" width="18.9" height="28.3"/>
	<rect x="434" y="413.6" class="st3" width="84.9" height="28.3"/>
	<rect x="358.5" y="526.8" class="st3" width="179.2" height="9.4"/>
	<rect x="377.4" y="517.4" class="st3" width="132.1" height="18.9"/>
	<rect x="386.8" y="498.5" class="st3" width="179.2" height="37.7"/>
	<rect x="396.2" y="489.1" class="st3" width="150.9" height="37.7"/>
	<rect x="405.7" y="479.7" class="st3" width="132.1" height="28.3"/>
	<rect x="434" y="441.9" class="st3" width="94.3" height="66"/>
	<rect x="424.5" y="432.5" class="st3" width="47.2" height="28.3"/>
	<rect x="434" y="394.8" class="st3" width="94.3" height="37.7"/>
	<rect x="443.4" y="366.5" class="st3" width="75.5" height="47.2"/>
	<rect x="481.1" y="196.7" class="st3" width="9.4" height="179.2"/>
	<rect x="518.9" y="168.4" class="st3" width="37.7" height="207.5"/>
	<rect x="415.1" y="225" class="st3" width="198.1" height="37.7"/>
	<rect x="556.6" y="177.8" class="st3" width="9.4" height="66"/>
	<rect x="537.7" y="196.7" class="st3" width="56.6" height="47.2"/>
	<rect x="584.9" y="243.8" class="st3" width="18.9" height="103.8"/>
	<rect x="537.7" y="253.3" class="st3" width="28.3" height="113.2"/>
	<rect x="500" y="225" class="st3" width="28.3" height="122.6"/>
	<rect x="462.3" y="196.7" class="st3" width="84.9" height="113.2"/>
	<rect x="405.7" y="262.7" class="st3" width="37.7" height="37.7"/>
	<rect x="443.4" y="253.3" class="st3" width="9.4" height="37.7"/>
	<rect x="415.1" y="291" class="st3" width="18.9" height="47.2"/>
	<rect x="434" y="319.3" class="st3" width="9.4" height="28.3"/>
	<rect x="405.7" y="225" class="st3" width="9.4" height="37.7"/>
	<rect x="415.1" y="215.5" class="st3" width="75.5" height="18.9"/>
	<rect x="424.5" y="206.1" class="st3" width="75.5" height="18.9"/>
	<rect x="443.4" y="196.7" class="st3" width="56.6" height="18.9"/>
	<rect x="462.3" y="187.2" class="st3" width="75.5" height="18.9"/>
	<rect x="481.1" y="177.8" class="st3" width="56.6" height="9.4"/>
	<rect x="500" y="168.4" class="st3" width="37.7" height="9.4"/>
	<rect x="481.1" y="291" class="st3" width="18.9" height="66"/>
	<rect x="471.7" y="300.4" class="st3" width="9.4" height="66"/>
	<rect x="452.8" y="262.7" class="st3" width="18.9" height="37.7"/>
	<rect x="556.6" y="243.8" class="st3" width="28.3" height="103.8"/>
	<rect x="594.3" y="253.3" class="st3" width="18.9" height="84.9"/>
	<rect x="566" y="215.5" class="st3" width="37.7" height="37.7"/>
	<rect x="481.1" y="347.6" class="st4" width="75.5" height="9.4"/>
	<rect x="434" y="300.4" class="st4" width="9.4" height="37.7"/>
	<rect x="603.8" y="300.4" class="st4" width="18.9" height="18.9"/>
	<rect x="320.8" y="574" class="st4" width="273.6" height="9.4"/>
	<rect x="566" y="196.7" class="st4" width="28.3" height="9.4"/>
	<rect x="556.6" y="177.8" class="st4" width="9.4" height="28.3"/>
	<polygon class="st4" points="1028.3,592.9 1028.3,583.5 1018.9,583.5 981.1,583.5 981.1,574 981.1,555.1 981.1,545.7 981.1,536.3 
		981.1,526.8 981.1,517.4 981.1,508 981.1,498.5 971.7,498.5 971.7,508 962.3,508 962.3,517.4 952.8,517.4 952.8,526.8 943.4,526.8 
		943.4,536.3 934,536.3 934,545.7 924.5,545.7 924.5,555.1 915.1,555.1 915.1,564.6 905.7,564.6 905.7,574 896.2,574 896.2,583.5 
		896.2,592.9 886.8,592.9 886.8,602.3 896.2,602.3 896.2,611.8 905.7,611.8 943.4,611.8 943.4,621.2 943.4,640.1 943.4,649.5 
		943.4,658.9 943.4,668.4 943.4,677.8 943.4,687.2 943.4,696.7 952.8,696.7 952.8,687.2 962.3,687.2 962.3,677.8 971.7,677.8 
		971.7,668.4 981.1,668.4 981.1,658.9 990.6,658.9 990.6,649.5 1000,649.5 1000,640.1 1009.4,640.1 1009.4,630.6 1018.9,630.6 
		1018.9,611.8 1028.3,611.8 1028.3,602.3 1037.7,602.3 1037.7,592.9 	"/>
	<polygon class="st4" points="217,158.9 217,149.5 207.5,149.5 169.8,149.5 169.8,140.1 169.8,121.2 169.8,111.7 169.8,102.3 
		169.8,92.9 169.8,83.4 169.8,74 169.8,64.6 160.4,64.6 160.4,74 150.9,74 150.9,83.4 141.5,83.4 141.5,92.9 132.1,92.9 
		132.1,102.3 122.6,102.3 122.6,111.7 113.2,111.7 113.2,121.2 103.8,121.2 103.8,130.6 94.3,130.6 94.3,140.1 84.9,140.1 
		84.9,149.5 84.9,158.9 75.5,158.9 75.5,168.4 84.9,168.4 84.9,177.8 94.3,177.8 132.1,177.8 132.1,187.2 132.1,206.1 132.1,215.5 
		132.1,225 132.1,234.4 132.1,243.8 132.1,253.3 132.1,262.7 141.5,262.7 141.5,253.3 150.9,253.3 150.9,243.8 160.4,243.8 
		160.4,234.4 169.8,234.4 169.8,225 179.2,225 179.2,215.5 188.7,215.5 188.7,206.1 198.1,206.1 198.1,196.7 207.5,196.7 
		207.5,177.8 217,177.8 217,168.4 226.4,168.4 226.4,158.9 	"/>
</g>
</svg>
