<?xml version="1.0" encoding="utf-8"?>
<!-- Generator: Adobe Illustrator 25.2.3, SVG Export Plug-In . SVG Version: 6.00 Build 0)  -->
<svg version="1.1" xmlns="http://www.w3.org/2000/svg" xmlns:xlink="http://www.w3.org/1999/xlink" x="0px" y="0px"
	 viewBox="0 0 1108 791" style="enable-background:new 0 0 1108 791;" xml:space="preserve">
<style type="text/css">
	.st0{opacity:0.15;fill:#BEBFB9;}
	.st1{opacity:0.48;}
	.st2{fill:#03464F;}
	.st3{fill:#026385;}
	.st4{fill:#35BCC0;}
	.st5{fill:#018F9F;}
	.st6{fill:#A53A1C;}
	.st7{fill:#DF5330;}
	.st8{fill:#FF8039;}
	.st9{fill:#EE5E2F;}
	.st10{fill:#A51959;}
	.st11{fill:#C12573;}
	.st12{fill:#FF4DA6;}
	.st13{fill:#D2276E;}
	.st14{fill:#7F7973;}
	.st15{fill:#C0B5AA;}
	.st16{fill:#E4DED5;}
	.st17{fill:#514A43;}
	.st18{fill:#606161;}
	.st19{fill:#BEBFB9;}
	.st20{fill:#3A3A3A;}
	.st21{fill:#302C28;}
	.st22{fill:#161616;}
	.st23{fill:#E1E1DF;}
	.st24{fill:#163A20;}
	.st25{fill:#1A5C31;}
	.st26{fill:#3E9B50;}
	.st27{fill:#23763E;}
	.st28{fill:#41296D;}
	.st29{fill:#513C82;}
	.st30{fill:#775ABF;}
	.st31{fill:#614293;}
	.st32{fill:#6C0F13;}
	.st33{fill:#9E1F25;}
	.st34{fill:#E8222E;}
	.st35{fill:#CF232E;}
	.st36{fill:#D27633;}
	.st37{fill:#DD8A34;}
	.st38{fill:#F5C032;}
	.st39{fill:#F3A634;}
	.st40{fill:#FFFFFF;}
</style>
<g id="layout">
	<rect x="130.5" y="28.5" class="st0" width="847" height="734"/>
</g>
<g id="GUIDES">
</g>
<g id="LOSE_WEIGHT">
</g>
<g id="HEART_HEALTH">
</g>
<g id="TOILET">
	<g>
		<polygon class="st5" points="688.7,332.9 688.7,318.7 702.9,318.7 702.9,276.2 688.7,276.2 688.7,262 234.9,262 234.9,276.2 
			220.7,276.2 220.7,318.7 234.9,318.7 234.9,332.9 		"/>
		<polygon class="st2" points="603.6,375.5 589.5,375.5 447.6,375.5 249.1,375.5 249.1,389.6 249.1,403.8 249.1,418 263.3,418 
			263.3,446.4 277.5,446.4 277.5,474.7 291.6,474.7 291.6,503.1 305.8,503.1 305.8,531.5 320,531.5 320,545.6 348.4,545.6 
			348.4,559.8 362.6,559.8 362.6,574 405.1,574 405.1,588.2 561.1,588.2 561.1,574 589.5,574 589.5,687.5 390.9,687.5 390.9,701.6 
			376.7,701.6 376.7,715.8 390.9,715.8 390.9,730 717.1,730 717.1,701.6 717.1,687.5 717.1,375.5 632,375.5 		"/>
		<polygon class="st2" points="873.1,120.2 873.1,106 745.4,106 745.4,120.2 731.3,120.2 731.3,318.7 731.3,332.9 745.4,332.9 
			745.4,347.1 873.1,347.1 873.1,332.9 887.3,332.9 887.3,318.7 887.3,120.2 		"/>
		<g>
			<rect x="858.9" y="191.1" class="st4" width="14.2" height="14.2"/>
			<polygon class="st4" points="858.9,120.2 816.4,120.2 816.4,134.4 858.9,134.4 858.9,176.9 873.1,176.9 873.1,134.4 873.1,120.2 
							"/>
		</g>
	</g>
</g>
</svg>
