<?xml version="1.0" encoding="utf-8"?>
<!-- Generator: Adobe Illustrator 25.2.3, SVG Export Plug-In . SVG Version: 6.00 Build 0)  -->
<svg version="1.1" xmlns="http://www.w3.org/2000/svg" xmlns:xlink="http://www.w3.org/1999/xlink" x="0px" y="0px"
	 viewBox="0 0 910 910" style="enable-background:new 0 0 910 910;" xml:space="preserve">
<style type="text/css">
	.st0{opacity:0.15;}
	.st1{opacity:0.15;fill:#BEBFB9;}
	.st2{fill:none;stroke:#E1E1DF;stroke-miterlimit:10;}
	.st3{stroke:#000000;stroke-miterlimit:10;}
	.st4{stroke:#000000;stroke-width:0.5;stroke-miterlimit:10;}
	.st5{fill:#EE5E2F;}
	.st6{fill:#03464F;}
	.st7{fill:#03464F;stroke:#03464F;stroke-width:0.5;stroke-miterlimit:10;}
	.st8{fill:#EE5E2F;stroke:#EE5E2F;stroke-width:0.5;stroke-miterlimit:10;}
	.st9{fill:#F3A634;}
	.st10{fill:#026385;stroke:#026385;stroke-width:0.5;stroke-miterlimit:10;}
	.st11{fill:#036C84;stroke:#026385;stroke-width:0.5;stroke-miterlimit:10;}
	.st12{fill:#026385;}
	.st13{fill:#F3A634;stroke:#F3A634;stroke-width:0.5;stroke-miterlimit:10;}
	.st14{fill:#35BCC0;}
	.st15{fill:#018F9F;stroke:#018F9F;stroke-width:0.5;stroke-miterlimit:10;}
	.st16{fill:#018F9F;}
	.st17{fill:#35BCC0;stroke:#35BCC0;stroke-width:0.5;stroke-miterlimit:10;}
	.st18{fill:#3E9B50;}
	.st19{fill:#3E9B50;stroke:#3E9B50;stroke-width:0.5;stroke-miterlimit:10;}
	.st20{fill:none;stroke:#606161;stroke-miterlimit:10;}
	.st21{fill:#A53A1C;}
	.st22{fill:#DF5330;}
	.st23{fill:#FF8039;}
	.st24{fill:#A51959;}
	.st25{fill:#C12573;}
	.st26{fill:#FF4DA6;}
	.st27{fill:#D2276E;}
	.st28{fill:#163A20;}
	.st29{fill:#1A5C31;}
	.st30{fill:#23763E;}
	.st31{fill:#41296D;}
	.st32{fill:#513C82;}
	.st33{fill:#775ABF;}
	.st34{fill:#614293;}
	.st35{fill:#6C0F13;}
	.st36{fill:#9E1F25;}
	.st37{fill:#E8222E;}
	.st38{fill:#CF232E;}
	.st39{fill:#D27633;}
	.st40{fill:#DD8A34;}
	.st41{fill:#F5C032;}
	.st42{fill:none;stroke:#000000;stroke-width:0.5;stroke-miterlimit:10;}
	.st43{fill:none;}
	.st44{font-family:'VCROSDMono';}
	.st45{font-size:17px;}
	.st46{font-size:12px;}
</style>
<g id="layout">
</g>
<g id="GUIDES">
	<line class="st2" x1="316.8" y1="515.5" x2="316.8" y2="569"/>
	<line class="st2" x1="497.3" y1="515.5" x2="497.3" y2="569"/>
	<line class="st2" x1="677.3" y1="515.5" x2="677.3" y2="569"/>
	<line class="st2" x1="317" y1="128" x2="317" y2="200"/>
	<line class="st2" x1="497.5" y1="128" x2="497.5" y2="200"/>
	<line class="st2" x1="677.5" y1="128" x2="677.5" y2="200"/>
	<line class="st2" x1="317.1" y1="217.8" x2="317.1" y2="505.6"/>
	<line class="st2" x1="497" y1="218" x2="497" y2="505.8"/>
	<line class="st2" x1="496.6" y1="218.6" x2="496.6" y2="506.4"/>
	<line class="st2" x1="677.3" y1="218" x2="677.3" y2="505.8"/>
	<g>
		<path class="st3" d="M32,254.5v6.4h-2.1v-15h8.6v1.1h1.1v1.1h1.1v4.3h-1.1v1.1h-1.1v1.1H32z M32,248.1v4.3h5.4v-1.1h1.1v-2.1h-1.1
			v-1.1H32z"/>
		<path class="st3" d="M46,254.5h-1.1v6.4h-2.1v-15h8.6v1.1h1.1v1.1h1.1v4.3h-1.1v1.1h-1.1v1.1h-2.1v1.1h1.1v1.1h1.1v1.1h1.1v1.1
			h1.1v2.1h-2.1v-1.1h-1.1v-1.1h-1.1v-1.1h-1.1v-1.1H47v-1.1H46V254.5z M44.9,248.1v4.3h5.4v-1.1h1.1v-2.1h-1.1v-1.1H44.9z"/>
		<path class="st3" d="M57.8,247v-1.1h6.4v1.1h1.1v1.1h1.1v10.7h-1.1v1.1h-1.1v1.1h-6.4v-1.1h-1.1v-1.1h-1.1v-10.7h1.1V247H57.8z
			 M63.1,248.1h-4.3v1.1h-1.1v8.6h1.1v1.1h4.3v-1.1h1.1v-8.6h-1.1V248.1z"/>
		<path class="st3" d="M72.8,248.1h-4.3v-2.1h10.7v2.1H75V261h-2.1V248.1z"/>
		<path class="st3" d="M92.1,245.9v2.1h-8.6v4.3H90v2.1h-6.4v4.3h8.6v2.1H81.4v-15H92.1z"/>
		<path class="st3" d="M96.4,261v-2.1h2.1v-10.7h-2.1v-2.1h6.4v2.1h-2.1v10.7h2.1v2.1H96.4z"/>
		<path class="st3" d="M109.3,252.4v8.6h-2.1v-15h2.1v3.2h1.1v1.1h1.1v1.1h1.1v1.1h1.1v1.1h1.1v1.1h1.1v-8.6h2.1v15h-2.1v-3.2h-1.1
			v-1.1h-1.1v-1.1h-1.1v-1.1h-1.1v-1.1h-1.1v-1.1H109.3z"/>
	</g>
	<g>
		<path class="st3" d="M92.1,317.6v2.1h-8.6v4.3H90v2.1h-6.4v6.4h-2.1v-15H92.1z"/>
		<path class="st3" d="M96.4,332.6h-2.1v-10.7h1.1v-1.1h1.1v-1.1h1.1v-1.1h1.1v-1.1h2.1v1.1h1.1v1.1h1.1v1.1h1.1v1.1h1.1v10.7h-2.1
			v-4.3h-6.4V332.6z M96.4,326.2h6.4V323h-1.1v-1.1h-1.1v-1.1h-2.1v1.1h-1.1v1.1h-1.1V326.2z"/>
		<path class="st3" d="M111.5,319.7h-4.3v-2.1h10.7v2.1h-4.3v12.9h-2.1V319.7z"/>
	</g>
	<g>
		<path class="st3" d="M58.8,402.5h4.3v-1.1h1.1v-1.1h2.1v2.1h-1.1v1.1h-1.1v1.1h-6.4v-1.1h-1.1v-1.1h-1.1v-10.7h1.1v-1.1h1.1v-1.1
			h6.4v1.1h1.1v1.1h1.1v2.1h-2.1v-1.1h-1.1v-1.1h-4.3v1.1h-1.1v8.6h1.1V402.5z"/>
		<path class="st3" d="M70.7,404.6h-2.1v-10.7h1.1v-1.1h1.1v-1.1h1.1v-1.1h1.1v-1.1H75v1.1H76v1.1h1.1v1.1h1.1v1.1h1.1v10.7h-2.1
			v-4.3h-6.4V404.6z M70.7,398.2h6.4V395H76v-1.1H75v-1.1h-2.1v1.1h-1.1v1.1h-1.1V398.2z"/>
		<path class="st3" d="M84.6,398.2h-1.1v6.4h-2.1v-15H90v1.1h1.1v1.1h1.1v4.3h-1.1v1.1H90v1.1h-2.1v1.1h1.1v1.1H90v1.1h1.1v1.1h1.1
			v2.1H90v-1.1h-1.1v-1.1h-1.1v-1.1h-1.1v-1.1h-1.1v-1.1h-1.1V398.2z M83.6,391.7v4.3h5.4V395H90v-2.1h-1.1v-1.1H83.6z"/>
		<path class="st3" d="M94.3,404.6v-15h8.6v1.1h1.1v1.1h1.1v4.3H104v2.1h1.1v4.3H104v1.1h-1.1v1.1H94.3z M96.4,396h5.4V395h1.1v-2.1
			h-1.1v-1.1h-5.4V396z M96.4,402.5h5.4v-1.1h1.1v-2.1h-1.1v-1.1h-5.4V402.5z"/>
		<path class="st3" d="M116.9,391.7h1.1v2.1h-2.1v-1.1h-1.1v-1.1h-4.3v1.1h-1.1v2.1h1.1v1.1h5.4v1.1h1.1v1.1h1.1v4.3h-1.1v1.1h-1.1
			v1.1h-6.4v-1.1h-1.1v-1.1h-1.1v-2.1h2.1v1.1h1.1v1.1h4.3v-1.1h1.1v-2.1h-1.1v-1.1h-5.4v-1.1h-1.1V396h-1.1v-4.3h1.1v-1.1h1.1v-1.1
			h6.4v1.1h1.1V391.7z"/>
	</g>
	<g>
		<path class="st3" d="M65.9,461.6v2.1h-8.6v4.3h6.4v2.1h-6.4v6.4h-2.1v-15H65.9z"/>
		<path class="st3" d="M70.2,476.6v-2.1h2.1v-10.7h-2.1v-2.1h6.4v2.1h-2.1v10.7h2.1v2.1H70.2z"/>
		<path class="st3" d="M80.9,476.6v-15h8.6v1.1h1.1v1.1h1.1v4.3h-1.1v2.1h1.1v4.3h-1.1v1.1h-1.1v1.1H80.9z M83,468h5.4v-1.1h1.1
			v-2.1h-1.1v-1.1H83V468z M83,474.4h5.4v-1.1h1.1v-2.1h-1.1v-1.1H83V474.4z"/>
		<path class="st3" d="M104.5,461.6v2.1h-8.6v4.3h6.4v2.1h-6.4v4.3h8.6v2.1H93.8v-15H104.5z"/>
		<path class="st3" d="M109.9,470.1h-1.1v6.4h-2.1v-15h8.6v1.1h1.1v1.1h1.1v4.3h-1.1v1.1h-1.1v1.1h-2.1v1.1h1.1v1.1h1.1v1.1h1.1v1.1
			h1.1v2.1h-2.1v-1.1h-1.1v-1.1h-1.1v-1.1h-1.1v-1.1H111v-1.1h-1.1V470.1z M108.8,463.7v4.3h5.4v-1.1h1.1v-2.1h-1.1v-1.1H108.8z"/>
	</g>
	<g>
		<path class="st3" d="M64.8,535.9h1.1v2.1h-2.1V537h-1.1v-1.1h-4.3v1.1h-1.1v2.1h1.1v1.1h5.4v1.1h1.1v1.1h1.1v4.3h-1.1v1.1h-1.1
			v1.1h-6.4v-1.1h-1.1v-1.1h-1.1v-2.1h2.1v1.1h1.1v1.1h4.3v-1.1h1.1v-2.1h-1.1v-1.1h-5.4v-1.1h-1.1v-1.1h-1.1v-4.3h1.1v-1.1h1.1
			v-1.1h6.4v1.1h1.1V535.9z"/>
		<path class="st3" d="M69.1,546.6H68v-12.9h2.1v11.8h1.1v1.1h4.3v-1.1h1.1v-11.8h2.1v12.9h-1.1v1.1h-1.1v1.1h-6.4v-1.1h-1.1V546.6z
			"/>
		<path class="st3" d="M90.6,535.9h1.1v2.1h-2.1V537h-1.1v-1.1h-4.3v1.1H83v8.6h1.1v1.1h4.3v-1.1h1.1v-3.2h-3.2v-2.1h5.4v6.4h-1.1
			v1.1h-1.1v1.1H83v-1.1H82v-1.1h-1.1v-10.7H82v-1.1H83v-1.1h6.4v1.1h1.1V535.9z"/>
		<path class="st3" d="M95.9,548.8h-2.1V538h1.1V537h1.1v-1.1H97v-1.1h1.1v-1.1h2.1v1.1h1.1v1.1h1.1v1.1h1.1v1.1h1.1v10.7h-2.1v-4.3
			h-6.4V548.8z M95.9,542.3h6.4v-3.2h-1.1V538h-1.1V537h-2.1v1.1H97v1.1h-1.1V542.3z"/>
		<path class="st3" d="M109.9,542.3h-1.1v6.4h-2.1v-15h8.6v1.1h1.1v1.1h1.1v4.3h-1.1v1.1h-1.1v1.1h-2.1v1.1h1.1v1.1h1.1v1.1h1.1v1.1
			h1.1v2.1h-2.1v-1.1h-1.1v-1.1h-1.1v-1.1h-1.1v-1.1H111v-1.1h-1.1V542.3z M108.8,535.9v4.3h5.4v-1.1h1.1V537h-1.1v-1.1H108.8z"/>
	</g>
	<g>
		<path class="st3" d="M20.2,168.8h4.3v-1.1h1.1v-1.1h2.1v2.1h-1.1v1.1h-1.1v1.1h-6.4v-1.1H18v-1.1h-1.1v-10.7H18V157h1.1v-1.1h6.4
			v1.1h1.1v1.1h1.1v2.1h-2.1v-1.1h-1.1v-1.1h-4.3v1.1h-1.1v8.6h1.1V168.8z"/>
		<path class="st3" d="M32,171h-2.1v-10.7h1.1v-1.1H32v-1.1h1.1V157h1.1v-1.1h2.1v1.1h1.1v1.1h1.1v1.1h1.1v1.1h1.1V171h-2.1v-4.3H32
			V171z M32,164.5h6.4v-3.2h-1.1v-1.1h-1.1v-1.1h-2.1v1.1h-1.1v1.1H32V164.5z"/>
		<path class="st3" d="M42.7,171v-15h2.1v12.9h8.6v2.1H42.7z"/>
		<path class="st3" d="M57.8,157v-1.1h6.4v1.1h1.1v1.1h1.1v10.7h-1.1v1.1h-1.1v1.1h-6.4v-1.1h-1.1v-1.1h-1.1v-10.7h1.1V157H57.8z
			 M63.1,158.1h-4.3v1.1h-1.1v8.6h1.1v1.1h4.3v-1.1h1.1v-8.6h-1.1V158.1z"/>
		<path class="st3" d="M71.7,164.5h-1.1v6.4h-2.1v-15h8.6v1.1h1.1v1.1h1.1v4.3h-1.1v1.1h-1.1v1.1H75v1.1H76v1.1h1.1v1.1h1.1v1.1h1.1
			v2.1h-2.1v-1.1H76v-1.1H75v-1.1h-1.1v-1.1h-1.1v-1.1h-1.1V164.5z M70.7,158.1v4.3H76v-1.1h1.1v-2.1H76v-1.1H70.7z"/>
		<path class="st3" d="M83.6,171v-2.1h2.1v-10.7h-2.1v-2.1H90v2.1h-2.1v10.7H90v2.1H83.6z"/>
		<path class="st3" d="M105,155.9v2.1h-8.6v4.3h6.4v2.1h-6.4v4.3h8.6v2.1H94.3v-15H105z"/>
		<path class="st3" d="M116.9,158.1h1.1v2.1h-2.1v-1.1h-1.1v-1.1h-4.3v1.1h-1.1v2.1h1.1v1.1h5.4v1.1h1.1v1.1h1.1v4.3h-1.1v1.1h-1.1
			v1.1h-6.4v-1.1h-1.1v-1.1h-1.1v-2.1h2.1v1.1h1.1v1.1h4.3v-1.1h1.1v-2.1h-1.1v-1.1h-5.4v-1.1h-1.1v-1.1h-1.1v-4.3h1.1V157h1.1v-1.1
			h6.4v1.1h1.1V158.1z"/>
	</g>
	<g>
		<path class="st3" d="M527.9,610.5h4.9v-1.2h1.2V608h2.4v2.4h-1.2v1.2H534v1.2h-7.3v-1.2h-1.2v-1.2h-1.2v-12.2h1.2v-1.2h1.2v-1.2
			h7.3v1.2h1.2v1.2h1.2v2.4H534v-1.2h-1.2v-1.2h-4.9v1.2h-1.2v9.8h1.2V610.5z"/>
		<path class="st3" d="M541.4,612.9v-1.2h-1.2v-1.2h-1.2v-4.9h1.2v-1.2h1.2v-1.2h6.1v1.2h1.2v-2.4h-1.2v-1.2h-6.1v-2.4h7.3v1.2h1.2
			v1.2h1.2v12.2h-2.4v-1.2h-1.2v1.2H541.4z M542.6,610.5h4.9v-1.2h1.2v-2.4h-1.2v-1.2h-4.9v1.2h-1.2v2.4h1.2V610.5z"/>
	</g>
	<g>
		<path d="M519.1,625.2h2v-0.5h0.5v-0.5h1v1H522v0.5h-0.5v0.5h-2.9v-0.5h-0.5v-0.5h-0.5v-4.9h0.5v-0.5h0.5v-0.5h2.9v0.5h0.5v0.5h0.5
			v1h-1v-0.5h-0.5v-0.5h-2v0.5h-0.5v3.9h0.5V625.2z"/>
		<path d="M524.5,626.2v-0.5H524v-0.5h-0.5v-2h0.5v-0.5h0.5v-0.5h2.4v0.5h0.5v-1h-0.5v-0.5h-2.4v-1h2.9v0.5h0.5v0.5h0.5v4.9h-1v-0.5
			h-0.5v0.5H524.5z M525,625.2h2v-0.5h0.5v-1h-0.5v-0.5h-2v0.5h-0.5v1h0.5V625.2z"/>
		<path d="M532.3,619.3v6.8h-1v-6.8H532.3z"/>
		<path d="M539.1,624.7v-0.5h1v1h-0.5v0.5h-0.5v0.5h-2.9v-0.5h-0.5v-0.5h-0.5v-3.4h0.5v-0.5h0.5v-0.5h2.9v0.5h0.5v0.5h0.5v1h-1v-0.5
			h-0.5v-0.5h-2v0.5h-0.5v2.4h0.5v0.5h2v-0.5H539.1z"/>
		<path d="M544.5,625.2h0.5v1h-1v-0.5h-0.5v-0.5H543v-2.4h-1v-1h2v2.9h0.5V625.2z M544,619.8v1h-1v-1H544z"/>
		<path d="M546.9,620.8h1v3.9h0.5v0.5h2v-0.5h0.5v-3.9h1v4.4h-0.5v0.5h-0.5v0.5h-2.9v-0.5h-0.5v-0.5h-0.5V620.8z"/>
		<path d="M553.8,622.3v3.9h-1v-5.4h1v0.5h0.5v-0.5h2.4v0.5h0.5v0.5h0.5v4.4h-1v-3.9h-0.5v-0.5h-0.5v4.4h-1v-4.4h-0.5v0.5H553.8z"/>
	</g>
	<line class="st2" x1="568.8" y1="587.6" x2="568.8" y2="857"/>
	<line class="st2" x1="641.7" y1="587.2" x2="641.7" y2="858"/>
	<line class="st2" x1="784.6" y1="589" x2="784.6" y2="857"/>
	<line class="st2" x1="713.1" y1="589" x2="713.1" y2="857"/>
	<g>
		<path class="st3" d="M536.5,641.2v2.4h-9.8v4.9h7.3v2.4h-7.3v7.3h-2.4v-17.1H536.5z"/>
		<path class="st3" d="M551.2,654.6v1.2h-1.2v1.2h-1.2v1.2h-7.3v-1.2h-1.2v-1.2h-1.2v-8.5h1.2v-1.2h1.2v-1.2h7.3v1.2h1.2v1.2h1.2
			v3.7h-1.2v1.2h-8.5v2.4h1.2v1.2h4.9v-1.2H551.2z M541.4,648.5v1.2h7.3v-1.2h-1.2v-1.2h-4.9v1.2H541.4z"/>
	</g>
	<g>
		<path d="M527.4,671.5v-1h1v-4.9h-1v-1h2.9v1h-1v4.9h1v1H527.4z"/>
		<path d="M533.3,668.6v2.9h-1v-5.4h1v1h0.5v-0.5h0.5v-0.5h2v0.5h0.5v0.5h0.5v1h-1v-0.5h-0.5v-0.5h-1v0.5h-0.5v0.5h-0.5v0.5H533.3z"
			/>
		<path d="M539.2,671.5v-0.5h-0.5v-0.5h-0.5v-3.4h0.5v-0.5h0.5v-0.5h2.9v0.5h0.5v0.5h0.5v3.4h-0.5v0.5h-0.5v0.5H539.2z M539.6,670.6
			h2v-0.5h0.5v-2.4h-0.5v-0.5h-2v0.5h-0.5v2.4h0.5V670.6z"/>
		<path d="M545,667.6v3.9h-1v-5.4h1v0.5h0.5v-0.5h2.4v0.5h0.5v0.5h0.5v4.4h-1v-3.9h-0.5v-0.5h-2v0.5H545z"/>
	</g>
	<g>
		<path class="st3" d="M526.3,693.2v9.8h-2.4v-17.1h2.4v3.7h1.2v1.2h1.2v1.2h1.2v1.2h1.2v1.2h1.2v1.2h1.2v-9.8h2.4V703h-2.4v-3.7
			h-1.2v-1.2h-1.2v-1.2H530v-1.2h-1.2v-1.2h-1.2v-1.2H526.3z"/>
		<path class="st3" d="M541,703v-1.2h-1.2v-1.2h-1.2v-4.9h1.2v-1.2h1.2v-1.2h6.1v1.2h1.2V692h-1.2v-1.2H541v-2.4h7.3v1.2h1.2v1.2
			h1.2V703h-2.4v-1.2h-1.2v1.2H541z M542.2,700.6h4.9v-1.2h1.2v-2.4h-1.2v-1.2h-4.9v1.2H541v2.4h1.2V700.6z"/>
	</g>
	<g>
		<path d="M524.6,710.4h0.5v1h-1v-0.5h-0.5v-0.5h-2v0.5h-0.5v1h0.5v0.5h2.4v0.5h0.5v0.5h0.5v2h-0.5v0.5h-0.5v0.5h-2.9v-0.5h-0.5
			v-0.5h-0.5v-1h1v0.5h0.5v0.5h2v-0.5h0.5v-1h-0.5v-0.5h-2.4v-0.5h-0.5v-0.5h-0.5v-2h0.5v-0.5h0.5v-0.5h2.9v0.5h0.5V710.4z"/>
		<path d="M527,716.3v-0.5h-0.5v-0.5h-0.5v-3.4h0.5v-0.5h0.5v-0.5h2.9v0.5h0.5v0.5h0.5v3.4h-0.5v0.5H530v0.5H527z M527.5,715.3h2
			v-0.5h0.5v-2.4h-0.5v-0.5h-2v0.5H527v2.4h0.5V715.3z"/>
		<path d="M535.8,711.9v-2.4h1v6.8h-1v-1h-0.5v0.5h-0.5v0.5h-1.5v-0.5h-0.5v-0.5h-0.5v-0.5h-0.5v-2.4h0.5v-0.5h0.5v-0.5h0.5v-0.5
			h1.5v0.5h0.5v0.5H535.8z M533.4,714.8h0.5v0.5h0.5v-0.5h0.5v-0.5h0.5v-1.5h-0.5v-0.5h-0.5v-0.5h-0.5v0.5h-0.5v0.5h-0.5v1.5h0.5
			V714.8z"/>
		<path d="M541.2,715.3h0.5v1h-1v-0.5h-0.5v-0.5h-0.5v-2.4h-1v-1h2v2.9h0.5V715.3z M540.7,709.9v1h-1v-1H540.7z"/>
		<path d="M543.6,710.9h1v3.9h0.5v0.5h2v-0.5h0.5v-3.9h1v4.4H548v0.5h-0.5v0.5h-2.9v-0.5h-0.5v-0.5h-0.5V710.9z"/>
		<path d="M550.5,712.4v3.9h-1v-5.4h1v0.5h0.5v-0.5h2.4v0.5h0.5v0.5h0.5v4.4h-1v-3.9h-0.5v-0.5h-0.5v4.4h-1v-4.4H551v0.5H550.5z"/>
	</g>
	<g>
		<path class="st3" d="M526.4,748.2H524v-17.1h2.4v2.4h1.2v1.2h1.2v1.2h2.4v-1.2h1.2v-1.2h1.2v-2.4h2.4v17.1h-2.4v-11h-1.2v1.2h-1.2
			v2.4h-2.4v-2.4h-1.2v-1.2h-1.2V748.2z"/>
		<path class="st3" d="M541.1,747h-1.2v-2.4h2.4v1.2h4.9v-1.2h1.2v-3.7h-1.2v1.2h-6.1v-1.2h-1.2v-1.2h-1.2V736h1.2v-1.2h1.2v-1.2
			h7.3v1.2h1.2v1.2h1.2v9.8h-1.2v1.2h-1.2v1.2h-7.3V747z M548.4,738.5v-1.2h-1.2V736h-4.9v1.2h-1.2v1.2h1.2v1.2h4.9v-1.2H548.4z"/>
	</g>
	<g>
		<path d="M512.5,761.5h-1v-6.8h1v1h0.5v0.5h0.5v0.5h1v-0.5h0.5v-0.5h0.5v-1h1v6.8h-1v-4.4h-0.5v0.5h-0.5v1h-1v-1h-0.5v-0.5h-0.5
			V761.5z"/>
		<path d="M518.3,761.5V761h-0.5v-0.5h-0.5v-2h0.5v-0.5h0.5v-0.5h2.4v0.5h0.5v-1h-0.5v-0.5h-2.4v-1h2.9v0.5h0.5v0.5h0.5v4.9h-1V761
			h-0.5v0.5H518.3z M518.8,760.5h2V760h0.5v-1h-0.5v-0.5h-2v0.5h-0.5v1h0.5V760.5z"/>
		<path d="M524.2,761h-0.5v-1h1v0.5h2V760h0.5v-1.5h-0.5v0.5h-2.4v-0.5h-0.5v-0.5h-0.5v-1.5h0.5v-0.5h0.5v-0.5h2.9v0.5h0.5v0.5h0.5
			v3.9h-0.5v0.5h-0.5v0.5h-2.9V761z M527.1,757.6v-0.5h-0.5v-0.5h-2v0.5h-0.5v0.5h0.5v0.5h2v-0.5H527.1z"/>
		<path d="M530,757.6v3.9h-1v-5.4h1v0.5h0.5v-0.5h2.4v0.5h0.5v0.5h0.5v4.4h-1v-3.9h-0.5v-0.5h-2v0.5H530z"/>
		<path d="M539.8,760v0.5h-0.5v0.5h-0.5v0.5h-2.9V761h-0.5v-0.5h-0.5v-3.4h0.5v-0.5h0.5v-0.5h2.9v0.5h0.5v0.5h0.5v1.5h-0.5v0.5h-3.4
			v1h0.5v0.5h2V760H539.8z M535.9,757.6v0.5h2.9v-0.5h-0.5v-0.5h-2v0.5H535.9z"/>
		<path d="M541.3,760.5h-0.5v-1h1v0.5h0.5v0.5h2v-1h-1V759h-1v-0.5h-1v-0.5h-0.5v-1h0.5v-0.5h0.5v-0.5h2.9v0.5h0.5v0.5h0.5v1h-1
			v-0.5h-0.5v-0.5h-2v1h1.5v0.5h1v0.5h0.5v0.5h0.5v1h-0.5v0.5h-0.5v0.5h-2.9V761h-0.5V760.5z"/>
		<path d="M550.1,760.5h0.5v1h-1V761h-0.5v-0.5h-0.5v-2.4h-1v-1h2v2.9h0.5V760.5z M549.6,755.1v1h-1v-1H549.6z"/>
		<path d="M552.5,756.1h1v3.9h0.5v0.5h2V760h0.5v-3.9h1v4.4h-0.5v0.5h-0.5v0.5h-2.9V761H553v-0.5h-0.5V756.1z"/>
		<path d="M559.3,757.6v3.9h-1v-5.4h1v0.5h0.5v-0.5h2.4v0.5h0.5v0.5h0.5v4.4h-1v-3.9h-0.5v-0.5h-0.5v4.4h-1v-4.4h-0.5v0.5H559.3z"/>
	</g>
	<g>
		<path class="st3" d="M534,785.5v7.3h-2.4v-17.1h9.8v1.2h1.2v1.2h1.2v4.9h-1.2v1.2h-1.2v1.2H534z M534,778.2v4.9h6.1v-1.2h1.2v-2.4
			h-1.2v-1.2H534z"/>
	</g>
	<g>
		<path d="M509.8,803v2.9h-1v-6.8h3.9v0.5h0.5v0.5h0.5v2h-0.5v0.5h-0.5v0.5H509.8z M509.8,800.1v2h2.4v-0.5h0.5v-1h-0.5v-0.5H509.8z
			"/>
		<path d="M515.7,803v2.9h-1v-6.8h1v2.4h0.5v-0.5h0.5v-0.5h1.5v0.5h0.5v0.5h0.5v0.5h0.5v3.9h-1v-3.4h-0.5v-0.5h-0.5v-0.5h-0.5v0.5
			h-0.5v0.5h-0.5v0.5H515.7z"/>
		<path d="M521.5,806v-0.5h-0.5V805h-0.5v-3.4h0.5v-0.5h0.5v-0.5h2.9v0.5h0.5v0.5h0.5v3.4H525v0.5h-0.5v0.5H521.5z M522,805h2v-0.5
			h0.5v-2.4H524v-0.5h-2v0.5h-0.5v2.4h0.5V805z"/>
		<path d="M526.9,805h-0.5v-1h1v0.5h0.5v0.5h2v-1h-1v-0.5h-1V803h-1v-0.5h-0.5v-1h0.5v-0.5h0.5v-0.5h2.9v0.5h0.5v0.5h0.5v1h-1v-0.5
			h-0.5v-0.5h-2v1h1.5v0.5h1v0.5h0.5v0.5h0.5v1h-0.5v0.5h-0.5v0.5h-2.9v-0.5h-0.5V805z"/>
		<path d="M533.3,804v2h-1v-5.9h1v0.5h0.5v-0.5h2.4v0.5h0.5v0.5h0.5v2.4h-0.5v0.5h-0.5v0.5h-2.4V804H533.3z M536.2,801.6h-0.5v-0.5
			h-1.5v0.5h-0.5v1.5h0.5v0.5h1.5V803h0.5V801.6z"/>
		<path d="M539.1,803v2.9h-1v-6.8h1v2.4h0.5v-0.5h0.5v-0.5h1.5v0.5h0.5v0.5h0.5v0.5h0.5v3.9h-1v-3.4h-0.5v-0.5h-0.5v-0.5h-0.5v0.5
			h-0.5v0.5h-0.5v0.5H539.1z"/>
		<path d="M545,806v-0.5h-0.5V805H544v-3.4h0.5v-0.5h0.5v-0.5h2.9v0.5h0.5v0.5h0.5v3.4h-0.5v0.5h-0.5v0.5H545z M545.5,805h2v-0.5
			h0.5v-2.4h-0.5v-0.5h-2v0.5H545v2.4h0.5V805z"/>
		<path d="M550.8,803v2.9h-1v-5.4h1v1h0.5v-0.5h0.5v-0.5h2v0.5h0.5v0.5h0.5v1h-1v-0.5h-0.5v-0.5h-1v0.5h-0.5v0.5h-0.5v0.5H550.8z"/>
		<path d="M555.7,800.6h1v3.9h0.5v0.5h2v-0.5h0.5v-3.9h1v4.4h-0.5v0.5h-0.5v0.5h-2.9v-0.5h-0.5V805h-0.5V800.6z"/>
		<path d="M562.1,805h-0.5v-1h1v0.5h0.5v0.5h2v-1h-1v-0.5h-1V803h-1v-0.5h-0.5v-1h0.5v-0.5h0.5v-0.5h2.9v0.5h0.5v0.5h0.5v1h-1v-0.5
			H565v-0.5h-2v1h1.5v0.5h1v0.5h0.5v0.5h0.5v1H566v0.5h-0.5v0.5h-2.9v-0.5h-0.5V805z"/>
	</g>
	<g>
		<path class="st3" d="M534,825.2V824h-9.8v-2.4h12.2v4.9h-1.2v1.2H534v1.2h-1.2v1.2h-1.2v1.2h-1.2v1.2h-1.2v1.2h-1.2v1.2h-1.2v1.2
			h9.8v2.4h-12.2v-4.9h1.2v-1.2h1.2v-1.2h1.2v-1.2h1.2v-1.2h1.2v-1.2h1.2v-1.2h1.2v-1.2H534z"/>
		<path class="st3" d="M541.3,828.9v9.8h-2.4v-13.4h2.4v1.2h1.2v-1.2h6.1v1.2h1.2v1.2h1.2v11h-2.4v-9.8h-1.2v-1.2h-4.9v1.2H541.3z"
			/>
	</g>
	<g>
		<path d="M530.5,846.4v-0.5h-3.9v-1h4.9v2H531v0.5h-0.5v0.5H530v0.5h-0.5v0.5H529v0.5h-0.5v0.5H528v0.5h-0.5v0.5h3.9v1h-4.9v-2h0.5
			v-0.5h0.5v-0.5h0.5v-0.5h0.5v-0.5h0.5v-0.5h0.5v-0.5h0.5v-0.5H530.5z"/>
		<path d="M535.9,850.8h0.5v1h-1v-0.5h-0.5v-0.5h-0.5v-2.4h-1v-1h2v2.9h0.5V850.8z M535.4,845.5v1h-1v-1H535.4z"/>
		<path d="M539.3,847.9v3.9h-1v-5.4h1v0.5h0.5v-0.5h2.4v0.5h0.5v0.5h0.5v4.4h-1v-3.9h-0.5v-0.5h-2v0.5H539.3z"/>
		<path d="M548.1,850.3v-0.5h1v1h-0.5v0.5h-0.5v0.5h-2.9v-0.5h-0.5v-0.5h-0.5v-3.4h0.5v-0.5h0.5v-0.5h2.9v0.5h0.5v0.5h0.5v1h-1v-0.5
			h-0.5v-0.5h-2v0.5h-0.5v2.4h0.5v0.5h2v-0.5H548.1z"/>
	</g>
	<g>
		<path class="st3" d="M158.8,616.9v-17.1h9.8v1.2h1.2v1.2h1.2v4.9h-1.2v2.4h1.2v4.9h-1.2v1.2h-1.2v1.2H158.8z M161.2,607.2h6.1
			v-1.2h1.2v-2.4h-1.2v-1.2h-6.1V607.2z M161.2,614.5h6.1v-1.2h1.2v-2.4h-1.2v-1.2h-6.1V614.5z"/>
		<path class="st4" d="M177,616.1h1.4v1.4h-4.1v-1.4h1.4v-5.5h-1.4v-1.4h0.7v-0.7h0.7v-0.7h1.4V616.1z"/>
	</g>
	<line class="st2" x1="200.1" y1="587.5" x2="200.1" y2="857"/>
	<line class="st2" x1="271.9" y1="587" x2="271.9" y2="856.8"/>
	<line class="st2" x1="415.8" y1="586.8" x2="415.8" y2="858"/>
	<line class="st2" x1="344.4" y1="586.8" x2="344.4" y2="858"/>
	<g>
		<path class="st3" d="M158.2,707.5v-17.1h9.8v1.2h1.2v1.2h1.2v4.9h-1.2v2.4h1.2v4.9h-1.2v1.2H168v1.2H158.2z M160.6,697.7h6.1v-1.2
			h1.2V694h-1.2v-1.2h-6.1V697.7z M160.6,705h6.1v-1.2h1.2v-2.4h-1.2v-1.2h-6.1V705z"/>
		<path class="st4" d="M173,706.6h-0.7v-1.4h1.4v0.7h0.7v0.7h2.7V706h0.7v-1.4h-0.7v-0.7H175v-1.4h2.1v-0.7h0.7v-1.4h-0.7v-0.7h-2.7
			v0.7h-0.7v0.7h-1.4v-1.4h0.7v-0.7h0.7v-0.7h4.1v0.7h0.7v0.7h0.7v2.7h-0.7v1.4h0.7v2.7h-0.7v0.7h-0.7v0.7h-4.1v-0.7H173V706.6z"/>
	</g>
	<g>
		<path class="st3" d="M158.3,752.4v-17.1h9.8v1.2h1.2v1.2h1.2v4.9h-1.2v2.4h1.2v4.9h-1.2v1.2h-1.2v1.2H158.3z M160.8,742.7h6.1
			v-1.2h1.2V739h-1.2v-1.2h-6.1V742.7z M160.8,750h6.1v-1.2h1.2v-2.4h-1.2v-1.2h-6.1V750z"/>
		<path class="st4" d="M177.9,752.3v0.7h-4.1v-0.7h-0.7v-0.7h-0.7v-6.8h0.7v-0.7h0.7v-0.7h4.1v0.7h0.7v0.7h0.7v1.4h-1.4v-0.7h-0.7
			v-0.7h-2.7v0.7h-0.7v2.1h4.1v0.7h0.7v0.7h0.7v2.7h-0.7v0.7H177.9z M174.5,751.6h2.7v-0.7h0.7v-1.4h-0.7v-0.7h-3.4v2.1h0.7V751.6z"
			/>
	</g>
	<g>
		<path class="st3" d="M154,797.4v-17.1h9.8v1.2h1.2v1.2h1.2v4.9H165v2.4h1.2v4.9H165v1.2h-1.2v1.2H154z M156.5,787.7h6.1v-1.2h1.2
			V784h-1.2v-1.2h-6.1V787.7z M156.5,795h6.1v-1.2h1.2v-2.4h-1.2v-1.2h-6.1V795z"/>
		<path class="st4" d="M172.2,796.6h1.4v1.4h-4.1v-1.4h1.4v-5.5h-1.4v-1.4h0.7v-0.7h0.7v-0.7h1.4V796.6z"/>
		<path class="st4" d="M177.7,796.6h5.5v1.4h-6.8v-4.1h0.7v-0.7h0.7v-0.7h3.4v-0.7h0.7v-1.4h-0.7v-0.7h-2.7v0.7h-0.7v0.7h-1.4v-1.4
			h0.7v-0.7h0.7v-0.7h4.1v0.7h0.7v0.7h0.7v2.7h-0.7v0.7h-0.7v0.7h-3.4v0.7h-0.7V796.6z"/>
	</g>
	<g>
		<path class="st3" d="M174.6,825.6v2.4h-9.8v4.9h7.3v2.4h-7.3v4.9h9.8v2.4h-12.2v-17.1H174.6z"/>
	</g>
	<g>
		<path class="st3" d="M158.4,661.6v-17.1h9.8v1.2h1.2v1.2h1.2v4.9h-1.2v2.4h1.2v4.9h-1.2v1.2h-1.2v1.2H158.4z M160.8,651.8h6.1
			v-1.2h1.2v-2.4h-1.2v-1.2h-6.1V651.8z M160.8,659.1h6.1v-1.2h1.2v-2.4h-1.2v-1.2h-6.1V659.1z"/>
		<path class="st4" d="M173.9,660.7h5.5v1.4h-6.8V658h0.7v-0.7h0.7v-0.7h3.4V656h0.7v-1.4h-0.7v-0.7h-2.7v0.7h-0.7v0.7h-1.4v-1.4
			h0.7v-0.7h0.7v-0.7h4.1v0.7h0.7v0.7h0.7v2.7h-0.7v0.7H178v0.7h-3.4v0.7h-0.7V660.7z"/>
	</g>
	<g>
		<path class="st3" d="M94.7,853.7v1.1H84v-2.1h9.7v-1.1h1.1v-1.1h1.1v-2.1h-1.1v-1.1h-1.1v-1.1H84v-2.1h10.7v1.1h1.1v1.1h1.1v1.1
			h1.1v1.1H99v2.1h-1.1v1.1h-1.1v1.1h-1.1v1.1H94.7z"/>
		<path class="st3" d="M99,839h-2.1v-2.1H86.1v2.1H84v-6.4h2.1v2.1h10.7v-2.1H99V839z"/>
		<path class="st3" d="M86.1,823.2v4.3H84v-10.7h2.1v4.3H99v2.1H86.1z"/>
		<path class="st3" d="M99,811.7v2.1H88.3v-1.1h-1.1v-1.1h-1.1v-1.1h-1.1v-1.1H84v-2.1h1.1v-1.1h1.1v-1.1h1.1v-1.1h1.1v-1.1H99v2.1
			h-4.3v6.4H99z M92.6,811.7v-6.4h-3.2v1.1h-1.1v1.1h-1.1v2.1h1.1v1.1h1.1v1.1H92.6z"/>
		<path class="st3" d="M99,798v2.1H84V798h2.1V797h1.1v-1.1h1.1v-2.1h-1.1v-1.1h-1.1v-1.1H84v-2.1h15v2.1h-9.7v1.1h1.1v1.1h2.1v2.1
			h-2.1v1.1h-1.1v1.1H99z"/>
		<path class="st3" d="M99,784.4h-2.1v-2.1H86.1v2.1H84v-6.4h2.1v2.1h10.7v-2.1H99V784.4z"/>
		<path class="st3" d="M90.4,770.7H99v2.1H84v-2.1h3.2v-1.1h1.1v-1.1h1.1v-1.1h1.1v-1.1h1.1v-1.1h1.1v-1.1H84v-2.1h15v2.1h-3.2v1.1
			h-1.1v1.1h-1.1v1.1h-1.1v1.1h-1.1v1.1h-1.1V770.7z"/>
		<path class="st3" d="M86.1,749.5v-1.1h2.1v2.1h-1.1v1.1h-1.1v4.3h1.1v1.1h2.1V756h1.1v-5.4h1.1v-1.1h1.1v-1.1h4.3v1.1h1.1v1.1H99
			v6.4h-1.1v1.1h-1.1v1.1h-2.1V757h1.1V756h1.1v-4.3h-1.1v-1.1h-2.1v1.1h-1.1v5.4h-1.1v1.1h-1.1v1.1h-4.3v-1.1h-1.1V757H84v-6.4h1.1
			v-1.1H86.1z"/>
		<path class="st3" d="M92.6,725.4v-1.1h1.1v-1.1h-1.1v-2.1h2.1v1.1h2.1v-1.1H99v2.1h-1.1v1.1H99v5.4h-1.1v1.1h-1.1v1.1h-5.4v-1.1
			h-1.1v-1.1h-2.1v1.1H84v-1.1h-1.1v-1.1h-1.1v-3.2h1.1v-1.1H84v-1.1h4.3v1.1h2.1v1.1H92.6z M84,725.4v3.2h4.3v-1.1h1.1v-1.1h-1.1
			v-1.1H84z M94.7,725.4v1.1h-1.1v1.1h-1.1v2.1h3.2v-1.1h1.1v-3.2H94.7z"/>
		<path class="st3" d="M99,702.4v2.1H84v-2.1h2.1v-1.1h1.1v-1.1h1.1v-2.1h-1.1V697h-1.1V696H84v-2.1h15v2.1h-9.7v1.1h1.1v1.1h2.1
			v2.1h-2.1v1.1h-1.1v1.1H99z"/>
		<path class="st3" d="M99,688.7h-2.1v-2.1H86.1v2.1H84v-6.4h2.1v2.1h10.7v-2.1H99V688.7z"/>
		<path class="st3" d="M90.4,675.1H99v2.1H84v-2.1h3.2V674h1.1v-1.1h1.1v-1.1h1.1v-1.1h1.1v-1.1h1.1v-1.1H84v-2.1h15v2.1h-3.2v1.1
			h-1.1v1.1h-1.1v1.1h-1.1v1.1h-1.1v1.1h-1.1V675.1z"/>
		<path class="st3" d="M84,652.8h2.1v8.6h4.3V655h2.1v6.4h4.3v-8.6H99v10.7H84V652.8z"/>
		<path class="st3" d="M92.6,646.7v1.1H99v2.1H84v-8.6h1.1v-1.1h1.1v-1.1h4.3v1.1h1.1v1.1h1.1v2.1h1.1v-1.1h1.1v-1.1h1.1v-1.1h1.1
			v-1.1H99v2.1h-1.1v1.1h-1.1v1.1h-1.1v1.1h-1.1v1.1h-1.1v1.1H92.6z M86.1,647.8h4.3v-5.4h-1.1v-1.1h-2.1v1.1h-1.1V647.8z"/>
		<path class="st3" d="M99,634.1v2.1H88.3v-1.1h-1.1v-1.1h-1.1V633h-1.1V632H84v-2.1h1.1v-1.1h1.1v-1.1h1.1v-1.1h1.1v-1.1H99v2.1
			h-4.3v6.4H99z M92.6,634.1v-6.4h-3.2v1.1h-1.1v1.1h-1.1v2.1h1.1v1.1h1.1v1.1H92.6z"/>
		<path class="st3" d="M99,622.6H84v-2.1h12.9v-8.6H99V622.6z"/>
		<path class="st3" d="M86.1,599.3v-1.1h2.1v2.1h-1.1v1.1h-1.1v4.3h1.1v1.1h2.1v-1.1h1.1v-5.4h1.1v-1.1h1.1v-1.1h4.3v1.1h1.1v1.1H99
			v6.4h-1.1v1.1h-1.1v1.1h-2.1v-2.1h1.1v-1.1h1.1v-4.3h-1.1v-1.1h-2.1v1.1h-1.1v5.4h-1.1v1.1h-1.1v1.1h-4.3v-1.1h-1.1v-1.1H84v-6.4
			h1.1v-1.1H86.1z"/>
	</g>
</g>
<g id="PEANUTS">
</g>
<g id="SUNFLOWER_copy">
</g>
<g id="ALMONDS">
</g>
<g id="CHIA">
	<polygon class="st18" points="272,227 272,218 263,218 254,218 245,218 245,227 236,227 236,236 236,245 236,254 245,254 245,263 
		254,263 263,263 272,263 272,254 281,254 281,245 281,236 281,227 	"/>
	<g>
		<path class="st18" d="M180.9,177.8h24.6v6.2h-30.8v-18.5h3.1v-3.1h3.1v-3.1h15.4v-3.1h3.1v-6.2h-3.1v-3.1h-12.3v3.1h-3.1v3.1h-6.2
			v-6.2h3.1V144h3.1v-3.1h18.5v3.1h3.1v3.1h3.1v12.3h-3.1v3.1h-3.1v3.1h-15.4v3.1h-3.1V177.8z"/>
		<path class="st18" d="M230.1,144v-3.1h6.2v24.6h6.2v6.2h-6.2V184h-6.2v-12.3h-18.5v-12.3h3.1v-3.1h3.1v-3.1h3.1v-3.1h3.1v-3.1h3.1
			V144H230.1z M230.1,165.5v-12.3H227v3.1h-3.1v3.1h-3.1v3.1h-3.1v3.1H230.1z"/>
		<path class="st18" d="M251.6,177.8h-3.1v-6.2h6.2v3.1h3.1v3.1h12.3v-3.1h3.1v-6.2h-3.1v-3.1h-9.2v-6.2h9.2v-3.1h3.1v-6.2h-3.1
			v-3.1h-12.3v3.1h-3.1v3.1h-6.2v-6.2h3.1V144h3.1v-3.1h18.5v3.1h3.1v3.1h3.1v12.3h-3.1v6.2h3.1v12.3h-3.1v3.1h-3.1v3.1h-18.5v-3.1
			h-3.1V177.8z"/>
	</g>
	<g>
		<path class="st18" d="M214.3,527.6v-2.2h13.5v2.2h2.2v2.2h2.2v22.5h-2.2v2.2h-2.2v2.2h-13.5v-2.2h-2.2v-2.2h-2.2v-22.5h2.2v-2.2
			H214.3z M216.6,543.3v-2.2h2.2v-2.2h2.2v-2.2h2.2v-2.2h4.5v-2.2h-2.2v-2.2h-9v2.2h-2.2v11.2H216.6z M214.3,547.8v2.2h2.2v2.2h9
			V550h2.2v-11.2h-2.2v2.2h-2.2v2.2h-2.2v2.2h-2.2v2.2H214.3z"/>
		<path class="st18" d="M245.8,544.4h1.1v2.2h-2.2v-1.1h-1.1v-1.1h-4.5v1.1h-1.1v9h1.1v1.1h4.5v-1.1h1.1v-3.4h-3.4v-2.2h5.6v6.7
			h-1.1v1.1h-1.1v1.1h-6.7v-1.1h-1.1v-1.1h-1.1v-11.2h1.1v-1.1h1.1v-1.1h6.7v1.1h1.1V544.4z"/>
	</g>
	<polygon class="st18" points="281,299 281,290 272,290 263,290 254,290 254,299 245,299 245,308 245,317 245,326 254,326 254,335 
		263,335 272,335 281,335 281,326 290,326 290,317 290,308 290,299 	"/>
	<polygon class="st18" points="209,371 209,362 200,362 191,362 182,362 182,371 173,371 173,380 173,389 173,398 182,398 182,407 
		191,407 200,407 209,407 209,398 218,398 218,389 218,380 218,371 	"/>
	<polygon class="st18" points="587.1,442.3 587.1,433.3 578.1,433.3 569.1,433.3 560.1,433.3 560.1,442.3 551.1,442.3 551.1,451.3 
		551.1,460.3 551.1,469.3 560.1,469.3 560.1,478.3 569.1,478.3 578.1,478.3 587.1,478.3 587.1,469.3 596.1,469.3 596.1,460.3 
		596.1,451.3 596.1,442.3 	"/>
	<rect x="632" y="587" class="st18" width="18" height="18"/>
	<rect x="623" y="632" class="st18" width="18" height="18"/>
	<path class="st18" d="M560,677v18h18v-18H560z M573.5,690.5h-9v-9h9V690.5z"/>
	<rect x="677" y="722" class="st18" width="18" height="18"/>
	<rect x="731" y="767" class="st18" width="18" height="18"/>
	<rect x="623" y="812.6" class="st18" width="18" height="17.4"/>
	<rect x="272" y="677" class="st18" width="18" height="18"/>
	<rect x="272" y="587" class="st18" width="18" height="18"/>
	<rect x="218" y="632" class="st18" width="18" height="18"/>
	<rect x="200" y="812" class="st18" width="18" height="18"/>
	<path class="st18" d="M191,722v18h18v-18H191z M204.5,735.5h-9v-9h9V735.5z"/>
	<path class="st18" d="M191,767v18h18v-18H191z M204.5,780.5h-9v-9h9V780.5z"/>
	<g>
		<path class="st19" d="M209.1,43.5h3.5v-0.9h0.9v-0.9h1.8v1.8h-0.9v0.9h-0.9v0.9h-5.3v-0.9h-0.9v-0.9h-0.9v-8.8h0.9v-0.9h0.9v-0.9
			h5.3v0.9h0.9v0.9h0.9v1.8h-1.8v-0.9h-0.9v-0.9h-3.5v0.9h-0.9v7h0.9V43.5z"/>
		<path class="st19" d="M218.7,39.9v5.3H217V32.9h1.8v5.3h5.3v-5.3h1.8v12.3H224v-5.3H218.7z"/>
		<path class="st19" d="M229.3,45.2v-1.8h1.8v-8.8h-1.8v-1.8h5.3v1.8h-1.8v8.8h1.8v1.8H229.3z"/>
		<path class="st19" d="M239.8,45.2h-1.8v-8.8h0.9v-0.9h0.9v-0.9h0.9v-0.9h0.9v-0.9h1.8v0.9h0.9v0.9h0.9v0.9h0.9v0.9h0.9v8.8h-1.8
			v-3.5h-5.3V45.2z M239.8,39.9h5.3v-2.6h-0.9v-0.9h-0.9v-0.9h-1.8v0.9h-0.9v0.9h-0.9V39.9z"/>
	</g>
	<rect x="136" y="62" class="st18" width="183" height="18"/>
</g>
<g id="top_lines">
	<line class="st20" x1="136.6" y1="290.2" x2="856.6" y2="290.2"/>
	<line class="st20" x1="136.4" y1="361.1" x2="856.4" y2="361.1"/>
	<line class="st20" x1="136.4" y1="433.6" x2="856.4" y2="433.6"/>
	<path class="st20" d="M856.6,128H137c0,0,0,63.6,0,72h719.6V128z"/>
	<polygon class="st20" points="136.5,218.5 137.5,505.5 856.5,506.5 856.5,217.5 	"/>
	<polygon class="st20" points="856.6,515.2 137.5,515.5 137.5,569.5 856.7,569.4 	"/>
	<line class="st20" x1="506" y1="632.6" x2="856.8" y2="632.3"/>
	<line class="st20" x1="506.1" y1="676.8" x2="857" y2="676.5"/>
	<line class="st20" x1="506.3" y1="721.8" x2="857.2" y2="721.5"/>
	<line class="st20" x1="506.4" y1="767" x2="857.2" y2="766.7"/>
	<line class="st20" x1="506.4" y1="812.5" x2="857.2" y2="812.2"/>
	<rect x="505.5" y="587.5" class="st20" width="352" height="270"/>
	<line class="st20" x1="136.5" y1="632.5" x2="487.6" y2="632.3"/>
	<line class="st20" x1="136.7" y1="676.7" x2="487.7" y2="676.4"/>
	<line class="st20" x1="136.9" y1="721.7" x2="487.9" y2="721.4"/>
	<line class="st20" x1="136.9" y1="766.9" x2="488" y2="766.6"/>
	<line class="st20" x1="136.9" y1="812.4" x2="488" y2="812.2"/>
	<rect x="137.2" y="587.4" class="st20" width="350.3" height="270"/>
	<g>
		<path d="M133,108.6v-0.8h5v0.8h0.8v0.8h0.8v8.3h-0.8v0.8H138v0.8h-5v-0.8h-0.8v-0.8h-0.8v-8.3h0.8v-0.8H133z M133.8,114.4v-0.8
			h0.8v-0.8h0.8v-0.8h0.8v-0.8h1.7v-0.8h-0.8v-0.8h-3.3v0.8H133v4.2H133.8z M133,116.1v0.8h0.8v0.8h3.3v-0.8h0.8v-4.2h-0.8v0.8h-0.8
			v0.8h-0.8v0.8h-0.8v0.8H133z"/>
		<path d="M144,114.4h0.6v-0.6h0.6v-0.6h0.6v-1.8h1.2v2.3h-0.6v0.6h-0.6v0.6h-0.6v0.6h-0.6v0.6H144v0.6h-0.6v0.6h-0.6v0.6h-0.6v1.8
			h-1.2v-2.3h0.6v-0.6h0.6v-0.6h0.6v-0.6h0.6v-0.6h-1.8v-0.6h-0.6V112h0.6v-0.6h1.8v0.6h0.6V114.4z M142.2,113.8h0.6v-1.2h-0.6
			V113.8z M143.4,114.9h0.6v-0.6h-0.6V114.9z M146.3,119.1v0.6h-1.8v-0.6H144v-2.3h0.6v-0.6h1.8v0.6h0.6v2.3H146.3z M145.2,118.5
			h0.6v-1.2h-0.6V118.5z"/>
	</g>
	<rect x="272.2" y="100.6" class="st43" width="94" height="28"/>
	<text transform="matrix(1 0 0 1 305.6816 120.8428)"><tspan x="0" y="0" class="st44 st45">25</tspan><tspan x="19.9" y="0" class="st44 st46">%</tspan></text>
	<rect x="452.7" y="100.3" class="st43" width="94" height="28"/>
	<text transform="matrix(1 0 0 1 486.1562 120.5325)"><tspan x="0" y="0" class="st44 st45">50</tspan><tspan x="19.9" y="0" class="st44 st46">%</tspan></text>
	<rect x="632.8" y="100.9" class="st43" width="94" height="28"/>
	<text transform="matrix(1 0 0 1 666.292 121.1531)"><tspan x="0" y="0" class="st44 st45">75</tspan><tspan x="19.9" y="0" class="st44 st46">%</tspan></text>
	<rect x="811.7" y="99.6" class="st43" width="94" height="28"/>
	<text transform="matrix(1 0 0 1 840.2656 119.8428)"><tspan x="0" y="0" class="st44 st45">100</tspan><tspan x="29.9" y="0" class="st44 st46">%</tspan></text>
	<g>
		<path d="M198.7,872.2v-0.4h2.6v0.4h0.4v0.4h0.4v4.3h-0.4v0.4h-0.4v0.4h-2.6v-0.4h-0.4v-0.4h-0.4v-4.3h0.4v-0.4H198.7z
			 M199.1,875.1v-0.4h0.4v-0.4h0.4v-0.4h0.4v-0.4h0.9V873h-0.4v-0.4h-1.7v0.4h-0.4v2.1H199.1z M198.7,876v0.4h0.4v0.4h1.7v-0.4h0.4
			v-2.1h-0.4v0.4h-0.4v0.4H200v0.4h-0.4v0.4H198.7z"/>
		<path d="M204.3,875.2h0.3v-0.3h0.3v-0.3h0.3v-0.9h0.6v1.2h-0.3v0.3h-0.3v0.3h-0.3v0.3h-0.3v0.3h-0.3v0.3H204v0.3h-0.3v0.3h-0.3
			v0.9h-0.6v-1.2h0.3v-0.3h0.3v-0.3h0.3v-0.3h0.3v-0.3h-0.9v-0.3h-0.3v-1.2h0.3v-0.3h0.9v0.3h0.3V875.2z M203.4,874.9h0.3v-0.6h-0.3
			V874.9z M204,875.5h0.3v-0.3H204V875.5z M205.4,877.6v0.3h-0.9v-0.3h-0.3v-1.2h0.3v-0.3h0.9v0.3h0.3v1.2H205.4z M204.9,877.3h0.3
			v-0.6h-0.3V877.3z"/>
	</g>
	<line class="st42" x1="200" y1="867.5" x2="200" y2="857.3"/>
	<g>
		<path d="M267.8,877.1h3.4v0.9H267v-2.6h0.4V875h0.4v-0.4h2.1v-0.4h0.4v-0.9H270v-0.4h-1.7v0.4h-0.4v0.4H267v-0.9h0.4v-0.4h0.4V872
			h2.6v0.4h0.4v0.4h0.4v1.7h-0.4v0.4h-0.4v0.4h-2.1v0.4h-0.4V877.1z"/>
		<path d="M272.1,872h4.3v0.9H273v0.9h2.6v0.4h0.4v0.4h0.4v2.6H276v0.4h-0.4v0.4H273v-0.4h-0.4v-0.4h-0.4v-0.9h0.9v0.4h0.4v0.4h1.7
			v-0.4h0.4V875h-0.4v-0.4h-3V872z"/>
		<path d="M278.6,875.5h0.3v-0.3h0.3v-0.3h0.3V874h0.6v1.2h-0.3v0.3h-0.3v0.3h-0.3v0.3h-0.3v0.3h-0.3v0.3h-0.3v0.3H278v0.3h-0.3v0.9
			h-0.6v-1.2h0.3v-0.3h0.3v-0.3h0.3v-0.3h0.3v-0.3h-0.9v-0.3h-0.3v-1.2h0.3V874h0.9v0.3h0.3V875.5z M277.7,875.2h0.3v-0.6h-0.3
			V875.2z M278.3,875.8h0.3v-0.3h-0.3V875.8z M279.7,877.8v0.3h-0.9v-0.3h-0.3v-1.2h0.3v-0.3h0.9v0.3h0.3v1.2H279.7z M279.2,877.5
			h0.3v-0.6h-0.3V877.5z"/>
	</g>
	<line class="st42" x1="272" y1="867.7" x2="272" y2="857.6"/>
	<g>
		<path d="M338.8,871.9h4.3v0.9h-3.4v0.9h2.6v0.4h0.4v0.4h0.4v2.6h-0.4v0.4h-0.4v0.4h-2.6v-0.4h-0.4V877h-0.4v-0.9h0.9v0.4h0.4v0.4
			h1.7v-0.4h0.4v-1.7h-0.4v-0.4h-3V871.9z"/>
		<path d="M344.8,872.3v-0.4h2.6v0.4h0.4v0.4h0.4v4.3h-0.4v0.4h-0.4v0.4h-2.6v-0.4h-0.4V877H344v-4.3h0.4v-0.4H344.8z M345.3,875.3
			v-0.4h0.4v-0.4h0.4V874h0.4v-0.4h0.9v-0.4H347v-0.4h-1.7v0.4h-0.4v2.1H345.3z M344.8,876.1v0.4h0.4v0.4h1.7v-0.4h0.4v-2.1H347v0.4
			h-0.4v0.4h-0.4v0.4h-0.4v0.4H344.8z"/>
		<path d="M350.4,875.4h0.3v-0.3h0.3v-0.3h0.3v-0.9h0.6v1.2h-0.3v0.3h-0.3v0.3H351v0.3h-0.3v0.3h-0.3v0.3h-0.3v0.3h-0.3v0.3h-0.3
			v0.9H349v-1.2h0.3v-0.3h0.3v-0.3h0.3v-0.3h0.3v-0.3h-0.9v-0.3H349v-1.2h0.3v-0.3h0.9v0.3h0.3V875.4z M349.6,875.1h0.3v-0.6h-0.3
			V875.1z M350.1,875.6h0.3v-0.3h-0.3V875.6z M351.6,877.7v0.3h-0.9v-0.3h-0.3v-1.2h0.3v-0.3h0.9v0.3h0.3v1.2H351.6z M351,877.4h0.3
			v-0.6H351V877.4z"/>
	</g>
	<line class="st42" x1="344" y1="867.6" x2="344" y2="857.5"/>
	<g>
		<path d="M414,873h-3.4v-0.9h4.3v2.1h-0.4v0.4H414v0.4h-0.4v0.4h-0.4v2.6h-0.9v-3h0.4v-0.4h0.4v-0.4h0.4v-0.4h0.4V873z"/>
		<path d="M415.7,872.1h4.3v0.9h-3.4v0.9h2.6v0.4h0.4v0.4h0.4v2.6h-0.4v0.4h-0.4v0.4h-2.6v-0.4h-0.4v-0.4h-0.4v-0.9h0.9v0.4h0.4v0.4
			h1.7v-0.4h0.4v-1.7h-0.4v-0.4h-3V872.1z"/>
		<path d="M422.2,875.6h0.3v-0.3h0.3V875h0.3v-0.9h0.6v1.2h-0.3v0.3H423v0.3h-0.3v0.3h-0.3v0.3h-0.3v0.3h-0.3v0.3h-0.3v0.3h-0.3v0.9
			h-0.6v-1.2h0.3v-0.3h0.3v-0.3h0.3v-0.3h0.3v-0.3H421v-0.3h-0.3v-1.2h0.3v-0.3h0.9v0.3h0.3V875.6z M421.3,875.3h0.3v-0.6h-0.3
			V875.3z M421.9,875.9h0.3v-0.3h-0.3V875.9z M423.3,877.9v0.3h-0.9v-0.3h-0.3v-1.2h0.3v-0.3h0.9v0.3h0.3v1.2H423.3z M422.8,877.6
			h0.3v-0.6h-0.3V877.6z"/>
	</g>
	<line class="st42" x1="416" y1="867.8" x2="416" y2="857.7"/>
	<g>
		<path d="M481.8,876.7h0.9v0.9h-2.6v-0.9h0.9v-3.4h-0.9v-0.9h0.4V872h0.4v-0.4h0.9V876.7z"/>
		<path d="M485.3,872v-0.4h2.6v0.4h0.4v0.4h0.4v4.3h-0.4v0.4h-0.4v0.4h-2.6v-0.4h-0.4v-0.4h-0.4v-4.3h0.4V872H485.3z M485.7,875
			v-0.4h0.4v-0.4h0.4v-0.4h0.4v-0.4h0.9v-0.4h-0.4v-0.4h-1.7v0.4h-0.4v2.1H485.7z M485.3,875.9v0.4h0.4v0.4h1.7v-0.4h0.4v-2.1h-0.4
			v0.4H487v0.4h-0.4v0.4h-0.4v0.4H485.3z"/>
		<path d="M490.4,872v-0.4h2.6v0.4h0.4v0.4h0.4v4.3h-0.4v0.4H493v0.4h-2.6v-0.4H490v-0.4h-0.4v-4.3h0.4V872H490.4z M490.8,875v-0.4
			h0.4v-0.4h0.4v-0.4h0.4v-0.4h0.9v-0.4h-0.4v-0.4h-1.7v0.4h-0.4v2.1H490.8z M490.4,875.9v0.4h0.4v0.4h1.7v-0.4h0.4v-2.1h-0.4v0.4
			h-0.4v0.4h-0.4v0.4h-0.4v0.4H490.4z"/>
		<path d="M496,875.1h0.3v-0.3h0.3v-0.3h0.3v-0.9h0.6v1.2h-0.3v0.3h-0.3v0.3h-0.3v0.3h-0.3v0.3H496v0.3h-0.3v0.3h-0.3v0.3h-0.3v0.9
			h-0.6v-1.2h0.3v-0.3h0.3V876h0.3v-0.3h0.3v-0.3h-0.9v-0.3h-0.3v-1.2h0.3v-0.3h0.9v0.3h0.3V875.1z M495.1,874.8h0.3v-0.6h-0.3
			V874.8z M495.7,875.4h0.3v-0.3h-0.3V875.4z M497.2,877.4v0.3h-0.9v-0.3H496v-1.2h0.3V876h0.9v0.3h0.3v1.2H497.2z M496.6,877.1h0.3
			v-0.6h-0.3V877.1z"/>
	</g>
	<line class="st42" x1="487.5" y1="867.3" x2="487.5" y2="857.2"/>
	<g>
		<path d="M567.9,872.8v-0.4h2.6v0.4h0.4v0.4h0.4v4.3h-0.4v0.4h-0.4v0.4h-2.6v-0.4h-0.4v-0.4H567v-4.3h0.4v-0.4H567.9z M568.3,875.8
			v-0.4h0.4v-0.4h0.4v-0.4h0.4v-0.4h0.9v-0.4H570v-0.4h-1.7v0.4h-0.4v2.1H568.3z M567.9,876.7v0.4h0.4v0.4h1.7v-0.4h0.4v-2.1H570
			v0.4h-0.4v0.4h-0.4v0.4h-0.4v0.4H567.9z"/>
		<path d="M573.5,875.9h0.3v-0.3h0.3v-0.3h0.3v-0.9h0.6v1.2h-0.3v0.3h-0.3v0.3h-0.3v0.3h-0.3v0.3h-0.3v0.3h-0.3v0.3h-0.3v0.3h-0.3
			v0.9H572v-1.2h0.3V877h0.3v-0.3h0.3v-0.3h0.3v-0.3h-0.9v-0.3H572v-1.2h0.3v-0.3h0.9v0.3h0.3V875.9z M572.6,875.6h0.3V875h-0.3
			V875.6z M573.2,876.2h0.3v-0.3h-0.3V876.2z M574.7,878.2v0.3h-0.9v-0.3h-0.3V877h0.3v-0.3h0.9v0.3h0.3v1.2H574.7z M574.1,877.9
			h0.3v-0.6h-0.3V877.9z"/>
	</g>
	<line class="st42" x1="569.2" y1="868.1" x2="569.2" y2="858"/>
	<g>
		<path d="M638.1,877.8h3.4v0.9h-4.3v-2.6h0.4v-0.4h0.4v-0.4h2.1v-0.4h0.4v-0.9h-0.4v-0.4h-1.7v0.4h-0.4v0.4h-0.9v-0.9h0.4v-0.4h0.4
			v-0.4h2.6v0.4h0.4v0.4h0.4v1.7h-0.4v0.4h-0.4v0.4h-2.1v0.4h-0.4V877.8z"/>
		<path d="M642.3,872.6h4.3v0.9h-3.4v0.9h2.6v0.4h0.4v0.4h0.4v2.6h-0.4v0.4h-0.4v0.4h-2.6v-0.4h-0.4v-0.4h-0.4v-0.9h0.9v0.4h0.4v0.4
			h1.7v-0.4h0.4v-1.7h-0.4v-0.4h-3V872.6z"/>
		<path d="M648.8,876.1h0.3v-0.3h0.3v-0.3h0.3v-0.9h0.6v1.2H650v0.3h-0.3v0.3h-0.3v0.3h-0.3v0.3h-0.3v0.3h-0.3v0.3h-0.3v0.3h-0.3
			v0.9h-0.6v-1.2h0.3v-0.3h0.3V877h0.3v-0.3h0.3v-0.3h-0.9v-0.3h-0.3V875h0.3v-0.3h0.9v0.3h0.3V876.1z M647.9,875.8h0.3v-0.6h-0.3
			V875.8z M648.5,876.4h0.3v-0.3h-0.3V876.4z M650,878.5v0.3h-0.9v-0.3h-0.3v-1.2h0.3V877h0.9v0.3h0.3v1.2H650z M649.4,878.2h0.3
			v-0.6h-0.3V878.2z"/>
	</g>
	<line class="st42" x1="642.2" y1="868.4" x2="642.2" y2="858.2"/>
	<g>
		<path d="M708.1,872.5h4.3v0.9h-3.4v0.9h2.6v0.4h0.4v0.4h0.4v2.6h-0.4v0.4h-0.4v0.4h-2.6v-0.4h-0.4v-0.4h-0.4v-0.9h0.9v0.4h0.4v0.4
			h1.7v-0.4h0.4v-1.7h-0.4v-0.4h-3V872.5z"/>
		<path d="M714.1,872.9v-0.4h2.6v0.4h0.4v0.4h0.4v4.3h-0.4v0.4h-0.4v0.4h-2.6v-0.4h-0.4v-0.4h-0.4v-4.3h0.4v-0.4H714.1z
			 M714.5,875.9v-0.4h0.4v-0.4h0.4v-0.4h0.4v-0.4h0.9v-0.4h-0.4v-0.4h-1.7v0.4h-0.4v2.1H714.5z M714.1,876.8v0.4h0.4v0.4h1.7v-0.4
			h0.4v-2.1h-0.4v0.4h-0.4v0.4h-0.4v0.4h-0.4v0.4H714.1z"/>
		<path d="M719.7,876h0.3v-0.3h0.3v-0.3h0.3v-0.9h0.6v1.2h-0.3v0.3h-0.3v0.3h-0.3v0.3H720v0.3h-0.3v0.3h-0.3v0.3h-0.3v0.3h-0.3v0.9
			h-0.6v-1.2h0.3v-0.3h0.3v-0.3h0.3v-0.3h0.3v-0.3h-0.9V876h-0.3v-1.2h0.3v-0.3h0.9v0.3h0.3V876z M718.8,875.7h0.3v-0.6h-0.3V875.7z
			 M719.4,876.3h0.3V876h-0.3V876.3z M720.8,878.3v0.3H720v-0.3h-0.3v-1.2h0.3v-0.3h0.9v0.3h0.3v1.2H720.8z M720.2,878h0.3v-0.6
			h-0.3V878z"/>
	</g>
	<line class="st42" x1="713.3" y1="868.2" x2="713.3" y2="858.1"/>
	<g>
		<path d="M782.2,873.6h-3.4v-0.9h4.3v2.1h-0.4v0.4h-0.4v0.4h-0.4v0.4h-0.4v2.6h-0.9v-3h0.4v-0.4h0.4v-0.4h0.4v-0.4h0.4V873.6z"/>
		<path d="M783.9,872.8h4.3v0.9h-3.4v0.9h2.6v0.4h0.4v0.4h0.4v2.6h-0.4v0.4h-0.4v0.4h-2.6v-0.4h-0.4v-0.4h-0.4V877h0.9v0.4h0.4v0.4
			h1.7v-0.4h0.4v-1.7h-0.4v-0.4h-3V872.8z"/>
		<path d="M790.4,876.3h0.3V876h0.3v-0.3h0.3v-0.9h0.6v1.2h-0.3v0.3h-0.3v0.3H791v0.3h-0.3v0.3h-0.3v0.3h-0.3v0.3h-0.3v0.3h-0.3v0.9
			h-0.6v-1.2h0.3v-0.3h0.3v-0.3h0.3v-0.3h0.3v-0.3h-0.9v-0.3h-0.3v-1.2h0.3v-0.3h0.9v0.3h0.3V876.3z M789.5,876h0.3v-0.6h-0.3V876z
			 M790.1,876.5h0.3v-0.3h-0.3V876.5z M791.6,878.6v0.3h-0.9v-0.3h-0.3v-1.2h0.3v-0.3h0.9v0.3h0.3v1.2H791.6z M791,878.3h0.3v-0.6
			H791V878.3z"/>
	</g>
	<line class="st42" x1="784.2" y1="868.5" x2="784.2" y2="858.4"/>
	<g>
		<path d="M852.1,877.4h0.9v0.9h-2.6v-0.9h0.9v-3.4h-0.9v-0.9h0.4v-0.4h0.4v-0.4h0.9V877.4z"/>
		<path d="M855.5,872.7v-0.4h2.6v0.4h0.4v0.4h0.4v4.3h-0.4v0.4h-0.4v0.4h-2.6v-0.4h-0.4v-0.4h-0.4v-4.3h0.4v-0.4H855.5z
			 M855.9,875.7v-0.4h0.4v-0.4h0.4v-0.4h0.4v-0.4h0.9v-0.4h-0.4v-0.4h-1.7v0.4h-0.4v2.1H855.9z M855.5,876.5v0.4h0.4v0.4h1.7v-0.4
			h0.4v-2.1h-0.4v0.4h-0.4v0.4h-0.4v0.4h-0.4v0.4H855.5z"/>
		<path d="M860.6,872.7v-0.4h2.6v0.4h0.4v0.4h0.4v4.3h-0.4v0.4h-0.4v0.4h-2.6v-0.4h-0.4v-0.4h-0.4v-4.3h0.4v-0.4H860.6z M861,875.7
			v-0.4h0.4v-0.4h0.4v-0.4h0.4v-0.4h0.9v-0.4h-0.4v-0.4H861v0.4h-0.4v2.1H861z M860.6,876.5v0.4h0.4v0.4h1.7v-0.4h0.4v-2.1h-0.4v0.4
			h-0.4v0.4h-0.4v0.4h-0.4v0.4H860.6z"/>
		<path d="M866.2,875.7h0.3v-0.3h0.3v-0.3h0.3v-0.9h0.6v1.2h-0.3v0.3h-0.3v0.3h-0.3v0.3h-0.3v0.3h-0.3v0.3h-0.3v0.3h-0.3v0.3h-0.3
			v0.9h-0.6v-1.2h0.3v-0.3h0.3v-0.3h0.3v-0.3h0.3V876h-0.9v-0.3h-0.3v-1.2h0.3v-0.3h0.9v0.3h0.3V875.7z M865.3,875.4h0.3v-0.6h-0.3
			V875.4z M865.9,876h0.3v-0.3h-0.3V876z M867.4,878.1v0.3h-0.9v-0.3h-0.3v-1.2h0.3v-0.3h0.9v0.3h0.3v1.2H867.4z M866.8,877.8h0.3
			v-0.6h-0.3V877.8z"/>
	</g>
	<line class="st42" x1="857.7" y1="868" x2="857.7" y2="857.8"/>
</g>
</svg>
