<?xml version="1.0" encoding="utf-8"?>
<!-- Generator: Adobe Illustrator 25.2.3, SVG Export Plug-In . SVG Version: 6.00 Build 0)  -->
<svg version="1.1" id="Layer_2" xmlns="http://www.w3.org/2000/svg" xmlns:xlink="http://www.w3.org/1999/xlink" x="0px" y="0px"
	 viewBox="0 0 1108 791" style="enable-background:new 0 0 1108 791;" xml:space="preserve">
<style type="text/css">
	.st0{stroke:#231F20;stroke-width:0.5;stroke-miterlimit:10;}
	.st1{fill:#FDE22E;}
	.st2{fill:#00964C;}
	.st3{fill:#F69B31;}
	.st4{fill:#FCD630;}
	.st5{fill:#9E662E;}
	.st6{fill:#E3C395;}
	.st7{fill:#E3DDD4;}
	.st8{fill:#7F7973;}
	.st9{fill:#BFB4A9;}
	.st10{fill:#706353;}
	.st11{fill:#32A04D;}
	.st12{fill:#EAD0A3;}
	.st13{fill:none;stroke:#231F20;stroke-miterlimit:10;}
</style>
<g>
	<path class="st0" d="M49.7,45v7.3h-2.4V35.3H57v1.2h1.2v1.2h1.2v4.9h-1.2v1.2H57V45H49.7z M49.7,37.7v4.9h6.1v-1.2H57v-2.4h-1.2
		v-1.2H49.7z"/>
	<path class="st0" d="M64.4,52.4v-2.4h2.4V37.7h-2.4v-2.4h7.3v2.4h-2.4v12.2h2.4v2.4H64.4z"/>
	<path class="st0" d="M76.6,52.4V35.3H79v14.6h9.8v2.4H76.6z"/>
	<path class="st0" d="M91.2,52.4V35.3h2.4v14.6h9.8v2.4H91.2z"/>
	<path class="st0" d="M108.3,52.4h-2.4V40.2h1.2v-1.2h1.2v-1.2h1.2v-1.2h1.2v-1.2h2.4v1.2h1.2v1.2h1.2v1.2h1.2v1.2h1.2v12.2h-2.4
		v-4.9h-7.3V52.4z M108.3,45h7.3v-3.7h-1.2v-1.2h-1.2v-1.2h-2.4v1.2h-1.2v1.2h-1.2V45z"/>
	<path class="st0" d="M124.2,45H123v7.3h-2.4V35.3h9.8v1.2h1.2v1.2h1.2v4.9h-1.2v1.2h-1.2V45h-2.4v1.2h1.2v1.2h1.2v1.2h1.2v1.2h1.2
		v2.4h-2.4v-1.2h-1.2v-1.2h-1.2v-1.2h-1.2v-1.2h-1.2v-1.2h-1.2V45z M123,37.7v4.9h6.1v-1.2h1.2v-2.4h-1.2v-1.2H123z"/>
	<path class="st0" d="M146.1,37.7h1.2v2.4h-2.4v-1.2h-1.2v-1.2h-4.9v1.2h-1.2v2.4h1.2v1.2h6.1v1.2h1.2V45h1.2v4.9h-1.2v1.2h-1.2v1.2
		h-7.3v-1.2h-1.2v-1.2h-1.2v-2.4h2.4v1.2h1.2v1.2h4.9v-1.2h1.2v-2.4h-1.2V45h-6.1v-1.2h-1.2v-1.2h-1.2v-4.9h1.2v-1.2h1.2v-1.2h7.3
		v1.2h1.2V37.7z"/>
	<path class="st0" d="M166.9,36.5v-1.2h7.3v1.2h1.2v1.2h1.2v12.2h-1.2v1.2h-1.2v1.2h-7.3v-1.2h-1.2v-1.2h-1.2V37.7h1.2v-1.2H166.9z
		 M173,37.7h-4.9v1.2h-1.2v9.8h1.2v1.2h4.9v-1.2h1.2v-9.8H173V37.7z"/>
	<path class="st0" d="M191.3,35.3v2.4h-9.8v4.9h7.3V45h-7.3v7.3h-2.4V35.3H191.3z"/>
	<path class="st0" d="M210.8,52.4h-2.4V40.2h1.2v-1.2h1.2v-1.2h1.2v-1.2h1.2v-1.2h2.4v1.2h1.2v1.2h1.2v1.2h1.2v1.2h1.2v12.2h-2.4
		v-4.9h-7.3V52.4z M210.8,45h7.3v-3.7h-1.2v-1.2h-1.2v-1.2h-2.4v1.2h-1.2v1.2h-1.2V45z"/>
	<path class="st0" d="M232.8,38.9v-1.2h-9.8v-2.4h12.2v4.9H234v1.2h-1.2v1.2h-1.2v1.2h-1.2V45h-1.2v1.2h-1.2v1.2h-1.2v1.2h-1.2v1.2
		h9.8v2.4h-12.2v-4.9h1.2v-1.2h1.2V45h1.2v-1.2h1.2v-1.2h1.2v-1.2h1.2v-1.2h1.2v-1.2H232.8z"/>
	<path class="st0" d="M242.6,37.7h-4.9v-2.4h12.2v2.4H245v14.6h-2.4V37.7z"/>
	<path class="st0" d="M264.6,35.3v2.4h-9.8v4.9h7.3V45h-7.3v4.9h9.8v2.4h-12.2V35.3H264.6z"/>
	<path class="st0" d="M270.7,49.9h4.9v-1.2h1.2v-1.2h2.4v2.4H278v1.2h-1.2v1.2h-7.3v-1.2h-1.2v-1.2H267V37.7h1.2v-1.2h1.2v-1.2h7.3
		v1.2h1.2v1.2h1.2v2.4h-2.4v-1.2h-1.2v-1.2h-4.9v1.2h-1.2v9.8h1.2V49.9z"/>
	<path class="st0" d="M298.7,42.6v9.8h-2.4V35.3h2.4v3.7h1.2v1.2h1.2v1.2h1.2v1.2h1.2v1.2h1.2V45h1.2v-9.8h2.4v17.1h-2.4v-3.7h-1.2
		v-1.2h-1.2v-1.2h-1.2V45h-1.2v-1.2H300v-1.2H298.7z"/>
	<path class="st0" d="M312.2,49.9h-1.2V35.3h2.4v13.4h1.2v1.2h4.9v-1.2h1.2V35.3h2.4v14.6h-1.2v1.2h-1.2v1.2h-7.3v-1.2h-1.2V49.9z"
		/>
	<path class="st0" d="M330.5,37.7h-4.9v-2.4h12.2v2.4h-4.9v14.6h-2.4V37.7z"/>
	<path class="st0" d="M343.9,45h-1.2v7.3h-2.4V35.3h9.8v1.2h1.2v1.2h1.2v4.9h-1.2v1.2H350V45h-2.4v1.2h1.2v1.2h1.2v1.2h1.2v1.2h1.2
		v2.4H350v-1.2h-1.2v-1.2h-1.2v-1.2h-1.2v-1.2h-1.2v-1.2h-1.2V45z M342.7,37.7v4.9h6.1v-1.2h1.2v-2.4h-1.2v-1.2H342.7z"/>
	<path class="st0" d="M357.3,52.4v-2.4h2.4V37.7h-2.4v-2.4h7.3v2.4h-2.4v12.2h2.4v2.4H357.3z"/>
	<path class="st0" d="M374.4,37.7h-4.9v-2.4h12.2v2.4h-4.9v14.6h-2.4V37.7z"/>
	<path class="st0" d="M386.6,52.4v-2.4h2.4V37.7h-2.4v-2.4h7.3v2.4h-2.4v12.2h2.4v2.4H386.6z"/>
	<path class="st0" d="M401.3,36.5v-1.2h7.3v1.2h1.2v1.2h1.2v12.2h-1.2v1.2h-1.2v1.2h-7.3v-1.2h-1.2v-1.2h-1.2V37.7h1.2v-1.2H401.3z
		 M407.4,37.7h-4.9v1.2h-1.2v9.8h1.2v1.2h4.9v-1.2h1.2v-9.8h-1.2V37.7z"/>
	<path class="st0" d="M415.9,42.6v9.8h-2.4V35.3h2.4v3.7h1.2v1.2h1.2v1.2h1.2v1.2h1.2v1.2h1.2V45h1.2v-9.8h2.4v17.1h-2.4v-3.7H422
		v-1.2h-1.2v-1.2h-1.2V45h-1.2v-1.2h-1.2v-1.2H415.9z"/>
	<path class="st0" d="M57,81.1v1.2h-7.3v-1.2h-1.2v-1.2h-1.2V75h1.2v-2.4h-1.2v-4.9h1.2v-1.2h1.2v-1.2H57v1.2h1.2v1.2h1.2v4.9h-1.2
		V75h1.2v4.9h-1.2v1.2H57z M55.8,67.7h-4.9v1.2h-1.2v2.4h1.2v1.2h4.9v-1.2H57v-2.4h-1.2V67.7z M50.9,79.9h4.9v-1.2H57v-2.4h-1.2V75
		h-4.9v1.2h-1.2v2.4h1.2V79.9z"/>
	<path class="st0" d="M64.4,66.5v-1.2h7.3v1.2h1.2v1.2h1.2v12.2h-1.2v1.2h-1.2v1.2h-7.3v-1.2h-1.2v-1.2h-1.2V67.7h1.2v-1.2H64.4z
		 M65.6,75v-1.2h1.2v-1.2H68v-1.2h1.2v-1.2h2.4v-1.2h-1.2v-1.2h-4.9v1.2h-1.2V75H65.6z M64.4,77.5v1.2h1.2v1.2h4.9v-1.2h1.2v-6.1
		h-1.2v1.2h-1.2V75H68v1.2h-1.2v1.2H64.4z"/>
	<path class="st0" d="M79,66.5v-1.2h7.3v1.2h1.2v1.2h1.2v12.2h-1.2v1.2h-1.2v1.2H79v-1.2h-1.2v-1.2h-1.2V67.7h1.2v-1.2H79z M80.2,75
		v-1.2h1.2v-1.2h1.2v-1.2h1.2v-1.2h2.4v-1.2h-1.2v-1.2h-4.9v1.2H79V75H80.2z M79,77.5v1.2h1.2v1.2h4.9v-1.2h1.2v-6.1h-1.2v1.2h-1.2
		V75h-1.2v1.2h-1.2v1.2H79z"/>
	<path class="st0" d="M116.9,67.7h1.2v2.4h-2.4v-1.2h-1.2v-1.2h-4.9v1.2h-1.2v9.8h1.2v1.2h4.9v-1.2h1.2V75H112v-2.4h6.1v7.3h-1.2
		v1.2h-1.2v1.2h-7.3v-1.2h-1.2v-1.2h-1.2V67.7h1.2v-1.2h1.2v-1.2h7.3v1.2h1.2V67.7z"/>
	<path class="st0" d="M124.2,75H123v7.3h-2.4V65.3h9.8v1.2h1.2v1.2h1.2v4.9h-1.2v1.2h-1.2V75h-2.4v1.2h1.2v1.2h1.2v1.2h1.2v1.2h1.2
		v2.4h-2.4v-1.2h-1.2v-1.2h-1.2v-1.2h-1.2v-1.2h-1.2v-1.2h-1.2V75z M123,67.7v4.9h6.1v-1.2h1.2v-2.4h-1.2v-1.2H123z"/>
	<path class="st0" d="M137.6,82.4h-2.4V70.2h1.2v-1.2h1.2v-1.2h1.2v-1.2h1.2v-1.2h2.4v1.2h1.2v1.2h1.2v1.2h1.2v1.2h1.2v12.2h-2.4
		v-4.9h-7.3V82.4z M137.6,75h7.3v-3.7h-1.2v-1.2h-1.2v-1.2H140v1.2h-1.2v1.2h-1.2V75z"/>
	<path class="st0" d="M152.3,82.4h-2.4V65.3h2.4v2.4h1.2v1.2h1.2v1.2h2.4v-1.2h1.2v-1.2h1.2v-2.4h2.4v17.1h-2.4v-11h-1.2v1.2h-1.2
		V75h-2.4v-2.4h-1.2v-1.2h-1.2V82.4z"/>
	<path class="st0" d="M175.4,67.7h1.2v2.4h-2.4v-1.2H173v-1.2h-4.9v1.2h-1.2v2.4h1.2v1.2h6.1v1.2h1.2V75h1.2v4.9h-1.2v1.2h-1.2v1.2
		h-7.3v-1.2h-1.2v-1.2h-1.2v-2.4h2.4v1.2h1.2v1.2h4.9v-1.2h1.2v-2.4H173V75h-6.1v-1.2h-1.2v-1.2h-1.2v-4.9h1.2v-1.2h1.2v-1.2h7.3
		v1.2h1.2V67.7z"/>
	<path class="st0" d="M196.2,82.4h-2.4V70.2h1.2v-1.2h1.2v-1.2h1.2v-1.2h1.2v-1.2h2.4v1.2h1.2v1.2h1.2v1.2h1.2v1.2h1.2v12.2h-2.4
		v-4.9h-7.3V82.4z M196.2,75h7.3v-3.7h-1.2v-1.2h-1.2v-1.2h-2.4v1.2h-1.2v1.2h-1.2V75z"/>
	<path class="st0" d="M210.8,72.6v9.8h-2.4V65.3h2.4v3.7h1.2v1.2h1.2v1.2h1.2v1.2h1.2v1.2h1.2V75h1.2v-9.8h2.4v17.1h-2.4v-3.7h-1.2
		v-1.2h-1.2v-1.2h-1.2V75h-1.2v-1.2h-1.2v-1.2H210.8z"/>
	<path class="st0" d="M223.1,82.4V65.3h9.8v1.2h1.2v1.2h1.2v12.2H234v1.2h-1.2v1.2H223.1z M225.5,67.7v12.2h6.1v-1.2h1.2v-9.8h-1.2
		v-1.2H225.5z"/>
	<path class="st0" d="M254.8,82.4h-2.4V70.2h1.2v-1.2h1.2v-1.2h1.2v-1.2h1.2v-1.2h2.4v1.2h1.2v1.2h1.2v1.2h1.2v1.2h1.2v12.2h-2.4
		v-4.9h-7.3V82.4z M254.8,75h7.3v-3.7h-1.2v-1.2h-1.2v-1.2h-2.4v1.2H256v1.2h-1.2V75z"/>
	<path class="st0" d="M281.6,82.4V65.3h9.8v1.2h1.2v1.2h1.2v4.9h-1.2V75h1.2v4.9h-1.2v1.2h-1.2v1.2H281.6z M284.1,72.6h6.1v-1.2h1.2
		v-2.4h-1.2v-1.2h-6.1V72.6z M284.1,79.9h6.1v-1.2h1.2v-2.4h-1.2V75h-6.1V79.9z"/>
	<path class="st0" d="M298.7,82.4h-2.4V70.2h1.2v-1.2h1.2v-1.2h1.2v-1.2h1.2v-1.2h2.4v1.2h1.2v1.2h1.2v1.2h1.2v1.2h1.2v12.2h-2.4
		v-4.9h-7.3V82.4z M298.7,75h7.3v-3.7h-1.2v-1.2h-1.2v-1.2h-2.4v1.2H300v1.2h-1.2V75z"/>
	<path class="st0" d="M310.9,82.4V65.3h2.4v14.6h9.8v2.4H310.9z"/>
	<path class="st0" d="M328,82.4h-2.4V70.2h1.2v-1.2h1.2v-1.2h1.2v-1.2h1.2v-1.2h2.4v1.2h1.2v1.2h1.2v1.2h1.2v1.2h1.2v12.2h-2.4v-4.9
		H328V82.4z M328,75h7.3v-3.7h-1.2v-1.2h-1.2v-1.2h-2.4v1.2h-1.2v1.2H328V75z"/>
	<path class="st0" d="M342.7,72.6v9.8h-2.4V65.3h2.4v3.7h1.2v1.2h1.2v1.2h1.2v1.2h1.2v1.2h1.2V75h1.2v-9.8h2.4v17.1H350v-3.7h-1.2
		v-1.2h-1.2v-1.2h-1.2V75h-1.2v-1.2h-1.2v-1.2H342.7z"/>
	<path class="st0" d="M358.5,79.9h4.9v-1.2h1.2v-1.2h2.4v2.4h-1.2v1.2h-1.2v1.2h-7.3v-1.2h-1.2v-1.2h-1.2V67.7h1.2v-1.2h1.2v-1.2
		h7.3v1.2h1.2v1.2h1.2v2.4h-2.4v-1.2h-1.2v-1.2h-4.9v1.2h-1.2v9.8h1.2V79.9z"/>
	<path class="st0" d="M381.7,65.3v2.4H372v4.9h7.3V75H372v4.9h9.8v2.4h-12.2V65.3H381.7z"/>
	<path class="st0" d="M384.2,82.4V65.3h9.8v1.2h1.2v1.2h1.2v12.2h-1.2v1.2h-1.2v1.2H384.2z M386.6,67.7v12.2h6.1v-1.2h1.2v-9.8h-1.2
		v-1.2H386.6z"/>
	<path class="st0" d="M413.5,82.4V65.3h9.8v1.2h1.2v1.2h1.2v12.2h-1.2v1.2h-1.2v1.2H413.5z M415.9,67.7v12.2h6.1v-1.2h1.2v-9.8H422
		v-1.2H415.9z"/>
	<path class="st0" d="M430.6,82.4v-2.4h2.4V67.7h-2.4v-2.4h7.3v2.4h-2.4v12.2h2.4v2.4H430.6z"/>
	<path class="st0" d="M455,65.3v2.4h-9.8v4.9h7.3V75h-7.3v4.9h9.8v2.4h-12.2V65.3H455z"/>
	<path class="st0" d="M462.3,67.7h-4.9v-2.4h12.2v2.4h-4.9v14.6h-2.4V67.7z"/>
</g>
<g>
	<rect x="681.7" y="212.4" class="st1" width="51.4" height="7.3"/>
	<rect x="681.7" y="219.8" class="st2" width="51.4" height="7.3"/>
	<rect x="689.1" y="227.1" class="st2" width="36.7" height="7.3"/>
	<rect x="696.4" y="234.4" class="st2" width="22" height="22"/>
	<rect x="703.7" y="227.1" class="st2" width="7.3" height="36.7"/>
	<rect x="703.7" y="117" class="st1" width="7.3" height="124.7"/>
	<rect x="696.4" y="227.1" class="st1" width="22" height="7.3"/>
	<rect x="681.7" y="139.1" class="st1" width="51.4" height="73.4"/>
	<rect x="703.7" y="102.4" class="st1" width="7.3" height="14.7"/>
	<rect x="689.1" y="124.4" class="st1" width="36.7" height="22"/>
	<rect x="696.4" y="109.7" class="st1" width="22" height="22"/>
	<rect x="674.4" y="168.4" class="st2" width="7.3" height="51.4"/>
	<rect x="733.1" y="168.4" class="st2" width="7.3" height="51.4"/>
	<rect x="659.7" y="153.7" class="st2" width="7.3" height="7.3"/>
	<rect x="667.1" y="161.1" class="st2" width="7.3" height="7.3"/>
	<rect x="740.4" y="161.1" class="st2" width="7.3" height="7.3"/>
	<rect x="747.8" y="153.7" class="st2" width="7.3" height="7.3"/>
	<rect x="703.7" y="219.8" class="st3" width="7.3" height="7.3"/>
	<rect x="659.7" y="183.1" class="st2" width="7.3" height="7.3"/>
	<rect x="667.1" y="190.4" class="st2" width="7.3" height="7.3"/>
	<rect x="681.7" y="212.4" class="st2" width="7.3" height="7.3"/>
	<rect x="725.8" y="212.4" class="st2" width="7.3" height="7.3"/>
	<rect x="740.4" y="190.4" class="st2" width="7.3" height="7.3"/>
	<rect x="747.8" y="183.1" class="st2" width="7.3" height="7.3"/>
	<rect x="696.4" y="212.4" class="st4" width="7.3" height="7.3"/>
	<rect x="711.1" y="212.4" class="st4" width="7.3" height="7.3"/>
	<rect x="689.1" y="197.7" class="st4" width="7.3" height="7.3"/>
	<rect x="703.7" y="197.7" class="st4" width="7.3" height="7.3"/>
	<rect x="718.4" y="197.7" class="st4" width="7.3" height="7.3"/>
	<rect x="681.7" y="183.1" class="st4" width="7.3" height="7.3"/>
	<rect x="696.4" y="183.1" class="st4" width="7.3" height="7.3"/>
	<rect x="711.1" y="183.1" class="st4" width="7.3" height="7.3"/>
	<rect x="725.8" y="183.1" class="st4" width="7.3" height="7.3"/>
	<rect x="689.1" y="168.4" class="st4" width="7.3" height="7.3"/>
	<rect x="703.7" y="168.4" class="st4" width="7.3" height="7.3"/>
	<rect x="718.4" y="168.4" class="st4" width="7.3" height="7.3"/>
	<rect x="711.1" y="153.7" class="st4" width="7.3" height="7.3"/>
	<rect x="696.4" y="153.7" class="st4" width="7.3" height="7.3"/>
	<rect x="689.1" y="219.8" class="st1" width="36.7" height="7.3"/>
	<rect x="681.7" y="153.7" class="st4" width="7.3" height="7.3"/>
	<rect x="725.8" y="153.7" class="st4" width="7.3" height="7.3"/>
	<rect x="689.1" y="139.1" class="st4" width="7.3" height="7.3"/>
	<rect x="703.7" y="139.1" class="st4" width="7.3" height="7.3"/>
	<rect x="718.4" y="139.1" class="st4" width="7.3" height="7.3"/>
	<rect x="696.4" y="124.4" class="st4" width="7.3" height="7.3"/>
	<rect x="711.1" y="124.4" class="st4" width="7.3" height="7.3"/>
	<rect x="703.7" y="117" class="st4" width="7.3" height="7.3"/>
	<rect x="696.4" y="109.7" class="st4" width="7.3" height="7.3"/>
	<rect x="711.1" y="109.7" class="st4" width="7.3" height="7.3"/>
	<rect x="696.4" y="227.1" class="st4" width="7.3" height="7.3"/>
	<rect x="703.7" y="234.4" class="st4" width="7.3" height="7.3"/>
	<rect x="711.1" y="227.1" class="st4" width="7.3" height="7.3"/>
</g>
<g>
	<polygon class="st5" points="528.9,303.3 523.5,303.3 523.5,292.5 518.1,292.5 518.1,287.1 512.7,287.1 512.7,281.6 507.2,281.6 
		507.2,276.2 480.2,276.2 480.2,281.6 474.7,281.6 474.7,287.1 469.3,287.1 469.3,308.7 474.7,308.7 474.7,319.6 480.2,319.6 
		480.2,325 485.6,325 485.6,335.8 480.2,335.8 480.2,341.2 474.7,341.2 474.7,352.1 469.3,352.1 469.3,373.7 474.7,373.7 
		474.7,379.2 480.2,379.2 480.2,384.6 507.2,384.6 507.2,379.2 512.7,379.2 512.7,373.7 518.1,373.7 518.1,368.3 523.5,368.3 
		523.5,357.5 528.9,357.5 	"/>
	<rect x="485.6" y="319.6" class="st6" width="5.4" height="21.7"/>
	<rect x="491" y="325" class="st6" width="5.4" height="10.8"/>
</g>
<rect x="460.8" y="410.2" class="st7" width="76.7" height="255.8"/>
<rect x="460.8" y="410.3" class="st8" width="76.7" height="12.8"/>
<rect x="460.8" y="535.6" class="st8" width="76.7" height="12.8"/>
<rect x="512" y="512.5" class="st9" width="12.8" height="12.8"/>
<rect x="473.6" y="435.7" class="st9" width="12.8" height="12.8"/>
<rect x="473.6" y="512.5" class="st9" width="12.8" height="12.8"/>
<rect x="512" y="576.4" class="st9" width="12.8" height="12.8"/>
<rect x="473.6" y="640.4" class="st9" width="12.8" height="12.8"/>
<rect x="672.7" y="282.2" class="st7" width="76.7" height="383.7"/>
<rect x="723.9" y="384.6" class="st9" width="12.8" height="12.8"/>
<rect x="685.5" y="307.8" class="st9" width="12.8" height="12.8"/>
<rect x="685.5" y="384.6" class="st9" width="12.8" height="12.8"/>
<rect x="723.9" y="457" class="st9" width="12.8" height="12.8"/>
<rect x="685.5" y="512.5" class="st9" width="12.8" height="12.8"/>
<rect x="882" y="538.1" class="st7" width="76.7" height="127.9"/>
<rect x="249" y="410.2" class="st7" width="76.7" height="255.8"/>
<rect x="249" y="410.3" class="st8" width="76.7" height="12.8"/>
<rect x="249" y="535.6" class="st8" width="76.7" height="12.8"/>
<rect x="300.2" y="487" class="st9" width="12.8" height="12.8"/>
<rect x="261.8" y="435.7" class="st9" width="12.8" height="12.8"/>
<rect x="261.8" y="487" class="st9" width="12.8" height="12.8"/>
<rect x="266.1" y="580.6" class="st9" width="12.8" height="12.8"/>
<rect x="313" y="640.4" class="st9" width="12.8" height="12.8"/>
<g>
	<polygon class="st10" points="338.5,353.5 333.4,353.5 333.4,348.4 328.2,348.4 328.2,343.2 245.6,343.2 245.6,348.4 240.4,348.4 
		240.4,353.5 235.2,353.5 235.2,379.4 240.4,379.4 240.4,384.5 245.6,384.5 245.6,389.7 328.2,389.7 328.2,384.5 333.4,384.5 
		333.4,379.4 338.5,379.4 	"/>
	<rect x="312.7" y="353.5" width="5.2" height="10.3"/>
	<rect x="328.2" y="353.5" width="5.2" height="10.3"/>
	<rect x="317.9" y="369" width="10.3" height="5.2"/>
	<rect x="255.9" y="389.7" width="5.2" height="20.7"/>
	<rect x="312.7" y="389.7" width="5.2" height="20.7"/>
	<rect x="302.4" y="389.7" width="5.2" height="20.7"/>
	<rect x="266.2" y="389.7" width="5.2" height="20.7"/>
	<rect x="312.7" y="317.4" width="5.2" height="25.8"/>
	<polygon class="st11" points="302.3,301.6 305.6,305.2 302,308.5 298.7,304.9 287.9,314.7 297.7,325.5 301.3,322.2 304.5,325.8 
		308.2,322.6 311.4,326.2 322.2,316.4 319,312.8 322.6,309.5 319.3,305.9 322.9,302.6 313.1,291.8 	"/>
</g>
<rect x="894.8" y="602" class="st9" width="12.8" height="12.8"/>
<rect x="920.4" y="576.4" class="st9" width="12.8" height="12.8"/>
<rect x="882" y="538.1" class="st8" width="76.7" height="12.8"/>
<rect x="933.2" y="627.6" class="st9" width="12.8" height="12.8"/>
<polygon class="st12" points="945.8,487.5 941.1,487.5 941.1,482.8 936.3,482.8 936.3,478.1 903.2,478.1 903.2,482.8 898.5,482.8 
	898.5,487.5 893.8,487.5 893.8,515.9 898.5,515.9 898.5,520.6 903.2,520.6 903.2,525.4 936.3,525.4 936.3,520.6 941.1,520.6 
	941.1,515.9 945.8,515.9 "/>
<rect x="908" y="492.3" width="4.7" height="9.5"/>
<rect x="926.9" y="492.3" width="4.7" height="9.5"/>
<rect x="917.4" y="506.4" width="4.7" height="4.7"/>
<rect x="912.7" y="525.4" width="4.7" height="14.2"/>
<rect x="922.2" y="525.4" width="4.7" height="14.2"/>
<rect x="884.3" y="501.7" width="9.5" height="4.7"/>
<rect x="945.8" y="501.7" width="9.5" height="4.7"/>
<rect x="955.3" y="492.3" width="4.7" height="9.5"/>
<rect x="879.6" y="492.3" width="4.7" height="9.5"/>
<polygon class="st12" points="945.8,426 941.1,426 941.1,421.3 936.3,421.3 936.3,416.6 903.2,416.6 903.2,421.3 898.5,421.3 
	898.5,426 893.8,426 893.8,454.4 898.5,454.4 898.5,459.1 903.2,459.1 903.2,463.9 936.3,463.9 936.3,459.1 941.1,459.1 
	941.1,454.4 945.8,454.4 "/>
<rect x="908" y="430.8" width="4.7" height="9.5"/>
<rect x="926.9" y="430.8" width="4.7" height="9.5"/>
<rect x="917.4" y="445" width="4.7" height="4.7"/>
<rect x="912.7" y="463.9" width="4.7" height="14.2"/>
<rect x="922.2" y="463.9" width="4.7" height="14.2"/>
<rect x="884.3" y="440.2" width="9.5" height="4.7"/>
<rect x="945.8" y="440.2" width="9.5" height="4.7"/>
<rect x="955.3" y="430.8" width="4.7" height="9.5"/>
<rect x="879.6" y="430.8" width="4.7" height="9.5"/>
<rect x="672.5" y="410.3" class="st8" width="76.7" height="12.8"/>
<rect x="672.5" y="535.6" class="st8" width="76.7" height="12.8"/>
<rect x="672.7" y="279.4" class="st8" width="76.7" height="12.8"/>
<rect x="726.4" y="572.8" class="st9" width="12.8" height="12.8"/>
<rect x="688" y="628.3" class="st9" width="12.8" height="12.8"/>
<line class="st13" x1="175" y1="666" x2="175" y2="283.7"/>
<line class="st13" x1="186" y1="284.6" x2="164" y2="284.6"/>
<line class="st13" x1="186" y1="416.6" x2="164" y2="416.6"/>
<line class="st13" x1="186" y1="548.7" x2="164" y2="548.7"/>
<line class="st13" x1="1012.4" y1="666" x2="164" y2="666"/>
<g>
	<path d="M112.7,289.8h-1.2v-2.4h2.4v1.2h1.2v1.2h4.9v-1.2h1.2v-2.4h-1.2V285h-3.7v-2.4h3.7v-1.2h1.2v-2.4h-1.2v-1.2h-4.9v1.2h-1.2
		v1.2h-2.4v-2.4h1.2v-1.2h1.2v-1.2h7.3v1.2h1.2v1.2h1.2v4.9h-1.2v2.4h1.2v4.9h-1.2v1.2h-1.2v1.2h-7.3v-1.2h-1.2V289.8z"/>
	<path d="M128.6,276.4v-1.2h7.3v1.2h1.2v1.2h1.2v12.2h-1.2v1.2h-1.2v1.2h-7.3v-1.2h-1.2v-1.2h-1.2v-12.2h1.2v-1.2H128.6z M129.8,285
		v-1.2h1.2v-1.2h1.2v-1.2h1.2v-1.2h2.4v-1.2h-1.2v-1.2h-4.9v1.2h-1.2v6.1H129.8z M128.6,287.4v1.2h1.2v1.2h4.9v-1.2h1.2v-6.1h-1.2
		v1.2h-1.2v1.2h-1.2v1.2H131v1.2H128.6z"/>
	<path d="M143.2,276.4v-1.2h7.3v1.2h1.2v1.2h1.2v12.2h-1.2v1.2h-1.2v1.2h-7.3v-1.2H142v-1.2h-1.2v-12.2h1.2v-1.2H143.2z M144.5,285
		v-1.2h1.2v-1.2h1.2v-1.2h1.2v-1.2h2.4v-1.2h-1.2v-1.2h-4.9v1.2h-1.2v6.1H144.5z M143.2,287.4v1.2h1.2v1.2h4.9v-1.2h1.2v-6.1h-1.2
		v1.2h-1.2v1.2h-1.2v1.2h-1.2v1.2H143.2z"/>
</g>
<g>
	<path d="M113.9,415.7h9.8v2.4h-12.2v-7.3h1.2v-1.2h1.2v-1.2h6.1v-1.2h1.2v-2.4h-1.2v-1.2h-4.9v1.2h-1.2v1.2h-2.4v-2.4h1.2v-1.2h1.2
		V401h7.3v1.2h1.2v1.2h1.2v4.9h-1.2v1.2h-1.2v1.2h-6.1v1.2h-1.2V415.7z"/>
	<path d="M128.6,402.2V401h7.3v1.2h1.2v1.2h1.2v12.2h-1.2v1.2h-1.2v1.2h-7.3v-1.2h-1.2v-1.2h-1.2v-12.2h1.2v-1.2H128.6z
		 M129.8,410.8v-1.2h1.2v-1.2h1.2v-1.2h1.2v-1.2h2.4v-1.2h-1.2v-1.2h-4.9v1.2h-1.2v6.1H129.8z M128.6,413.2v1.2h1.2v1.2h4.9v-1.2
		h1.2v-6.1h-1.2v1.2h-1.2v1.2h-1.2v1.2H131v1.2H128.6z"/>
	<path d="M143.2,402.2V401h7.3v1.2h1.2v1.2h1.2v12.2h-1.2v1.2h-1.2v1.2h-7.3v-1.2H142v-1.2h-1.2v-12.2h1.2v-1.2H143.2z M144.5,410.8
		v-1.2h1.2v-1.2h1.2v-1.2h1.2v-1.2h2.4v-1.2h-1.2v-1.2h-4.9v1.2h-1.2v6.1H144.5z M143.2,413.2v1.2h1.2v1.2h4.9v-1.2h1.2v-6.1h-1.2
		v1.2h-1.2v1.2h-1.2v1.2h-1.2v1.2H143.2z"/>
</g>
<g>
	<path d="M118.8,553.9h2.4v2.4h-7.3v-2.4h2.4v-9.8h-2.4v-2.4h1.2v-1.2h1.2v-1.2h2.4V553.9z"/>
	<path d="M128.6,540.5v-1.2h7.3v1.2h1.2v1.2h1.2v12.2h-1.2v1.2h-1.2v1.2h-7.3v-1.2h-1.2v-1.2h-1.2v-12.2h1.2v-1.2H128.6z M129.8,549
		v-1.2h1.2v-1.2h1.2v-1.2h1.2v-1.2h2.4v-1.2h-1.2v-1.2h-4.9v1.2h-1.2v6.1H129.8z M128.6,551.5v1.2h1.2v1.2h4.9v-1.2h1.2v-6.1h-1.2
		v1.2h-1.2v1.2h-1.2v1.2H131v1.2H128.6z"/>
	<path d="M143.2,540.5v-1.2h7.3v1.2h1.2v1.2h1.2v12.2h-1.2v1.2h-1.2v1.2h-7.3v-1.2H142v-1.2h-1.2v-12.2h1.2v-1.2H143.2z M144.5,549
		v-1.2h1.2v-1.2h1.2v-1.2h1.2v-1.2h2.4v-1.2h-1.2v-1.2h-4.9v1.2h-1.2v6.1H144.5z M143.2,551.5v1.2h1.2v1.2h4.9v-1.2h1.2v-6.1h-1.2
		v1.2h-1.2v1.2h-1.2v1.2h-1.2v1.2H143.2z"/>
</g>
<g>
	<path d="M263,707.9h4.9v-1.2h1.2v-1.2h2.4v2.4h-1.2v1.2h-1.2v1.2h-7.3v-1.2h-1.2v-1.2h-1.2v-12.2h1.2v-1.2h1.2v-1.2h7.3v1.2h1.2
		v1.2h1.2v2.4h-2.4V697h-1.2v-1.2H263v1.2h-1.2v9.8h1.2V707.9z"/>
	<path d="M276.4,703.1v7.3H274v-17.1h2.4v7.3h7.3v-7.3h2.4v17.1h-2.4v-7.3H276.4z"/>
	<path d="M291,710.4v-2.4h2.4v-12.2H291v-2.4h7.3v2.4h-2.4v12.2h2.4v2.4H291z"/>
	<path d="M305.7,710.4h-2.4v-12.2h1.2V697h1.2v-1.2h1.2v-1.2h1.2v-1.2h2.4v1.2h1.2v1.2h1.2v1.2h1.2v1.2h1.2v12.2H313v-4.9h-7.3
		V710.4z M305.7,703.1h7.3v-3.7h-1.2v-1.2h-1.2V697h-2.4v1.2h-1.2v1.2h-1.2V703.1z"/>
</g>
<g>
	<path d="M463.8,710.4v-17.1h9.8v1.2h1.2v1.2h1.2v4.9h-1.2v2.4h1.2v4.9h-1.2v1.2h-1.2v1.2H463.8z M466.3,700.6h6.1v-1.2h1.2V697
		h-1.2v-1.2h-6.1V700.6z M466.3,707.9h6.1v-1.2h1.2v-2.4h-1.2v-1.2h-6.1V707.9z"/>
	<path d="M490.7,693.3v2.4h-9.8v4.9h7.3v2.4h-7.3v4.9h9.8v2.4h-12.2v-17.1H490.7z"/>
	<path d="M495.6,710.4h-2.4v-12.2h1.2V697h1.2v-1.2h1.2v-1.2h1.2v-1.2h2.4v1.2h1.2v1.2h1.2v1.2h1.2v1.2h1.2v12.2h-2.4v-4.9h-7.3
		V710.4z M495.6,703.1h7.3v-3.7h-1.2v-1.2h-1.2V697H498v1.2h-1.2v1.2h-1.2V703.1z"/>
	<path d="M510.2,700.6v9.8h-2.4v-17.1h2.4v3.7h1.2v1.2h1.2v1.2h1.2v1.2h1.2v1.2h1.2v1.2h1.2v-9.8h2.4v17.1h-2.4v-3.7h-1.2v-1.2h-1.2
		v-1.2h-1.2v-1.2h-1.2v-1.2h-1.2v-1.2H510.2z"/>
	<path d="M533.4,695.7h1.2v2.4h-2.4V697H531v-1.2h-4.9v1.2h-1.2v2.4h1.2v1.2h6.1v1.2h1.2v1.2h1.2v4.9h-1.2v1.2h-1.2v1.2h-7.3v-1.2
		h-1.2v-1.2h-1.2v-2.4h2.4v1.2h1.2v1.2h4.9v-1.2h1.2v-2.4H531v-1.2h-6.1v-1.2h-1.2v-1.2h-1.2v-4.9h1.2v-1.2h1.2v-1.2h7.3v1.2h1.2
		V695.7z"/>
</g>
<g>
	<path d="M686.6,707.9h4.9v-1.2h1.2v-1.2h2.4v2.4H694v1.2h-1.2v1.2h-7.3v-1.2h-1.2v-1.2H683v-12.2h1.2v-1.2h1.2v-1.2h7.3v1.2h1.2
		v1.2h1.2v2.4h-2.4V697h-1.2v-1.2h-4.9v1.2h-1.2v9.8h1.2V707.9z"/>
	<path d="M700.1,694.5v-1.2h7.3v1.2h1.2v1.2h1.2v12.2h-1.2v1.2h-1.2v1.2h-7.3v-1.2h-1.2v-1.2h-1.2v-12.2h1.2v-1.2H700.1z
		 M706.2,695.7h-4.9v1.2h-1.2v9.8h1.2v1.2h4.9v-1.2h1.2V697h-1.2V695.7z"/>
	<path d="M715.9,703.1h-1.2v7.3h-2.4v-17.1h9.8v1.2h1.2v1.2h1.2v4.9h-1.2v1.2H722v1.2h-2.4v1.2h1.2v1.2h1.2v1.2h1.2v1.2h1.2v2.4H722
		v-1.2h-1.2v-1.2h-1.2v-1.2h-1.2v-1.2h-1.2v-1.2h-1.2V703.1z M714.7,695.7v4.9h6.1v-1.2h1.2V697h-1.2v-1.2H714.7z"/>
	<path d="M729.4,700.6v9.8h-2.4v-17.1h2.4v3.7h1.2v1.2h1.2v1.2h1.2v1.2h1.2v1.2h1.2v1.2h1.2v-9.8h2.4v17.1h-2.4v-3.7h-1.2v-1.2h-1.2
		v-1.2H733v-1.2h-1.2v-1.2h-1.2v-1.2H729.4z"/>
</g>
<g>
	<path d="M862.4,710.4h-2.4v-12.2h1.2V697h1.2v-1.2h1.2v-1.2h1.2v-1.2h2.4v1.2h1.2v1.2h1.2v1.2h1.2v1.2h1.2v12.2h-2.4v-4.9h-7.3
		V710.4z M862.4,703.1h7.3v-3.7h-1.2v-1.2h-1.2V697h-2.4v1.2h-1.2v1.2h-1.2V703.1z"/>
	<path d="M877,710.4h-2.4v-17.1h2.4v2.4h1.2v1.2h1.2v1.2h2.4V697h1.2v-1.2h1.2v-2.4h2.4v17.1h-2.4v-11h-1.2v1.2h-1.2v2.4h-2.4v-2.4
		h-1.2v-1.2H877V710.4z"/>
	<path d="M891.7,710.4h-2.4v-12.2h1.2V697h1.2v-1.2h1.2v-1.2h1.2v-1.2h2.4v1.2h1.2v1.2h1.2v1.2h1.2v1.2h1.2v12.2H899v-4.9h-7.3
		V710.4z M891.7,703.1h7.3v-3.7h-1.2v-1.2h-1.2V697h-2.4v1.2h-1.2v1.2h-1.2V703.1z"/>
	<path d="M907.5,703.1h-1.2v7.3h-2.4v-17.1h9.8v1.2h1.2v1.2h1.2v4.9h-1.2v1.2h-1.2v1.2h-2.4v1.2h1.2v1.2h1.2v1.2h1.2v1.2h1.2v2.4
		h-2.4v-1.2h-1.2v-1.2h-1.2v-1.2H910v-1.2h-1.2v-1.2h-1.2V703.1z M906.3,695.7v4.9h6.1v-1.2h1.2V697h-1.2v-1.2H906.3z"/>
	<path d="M921,710.4h-2.4v-12.2h1.2V697h1.2v-1.2h1.2v-1.2h1.2v-1.2h2.4v1.2h1.2v1.2h1.2v1.2h1.2v1.2h1.2v12.2h-2.4v-4.9H921V710.4z
		 M921,703.1h7.3v-3.7h-1.2v-1.2h-1.2V697h-2.4v1.2h-1.2v1.2H921V703.1z"/>
	<path d="M935.6,700.6v9.8h-2.4v-17.1h2.4v3.7h1.2v1.2h1.2v1.2h1.2v1.2h1.2v1.2h1.2v1.2h1.2v-9.8h2.4v17.1h-2.4v-3.7h-1.2v-1.2h-1.2
		v-1.2h-1.2v-1.2H938v-1.2h-1.2v-1.2H935.6z"/>
	<path d="M952.7,695.7h-4.9v-2.4H960v2.4h-4.9v14.6h-2.4V695.7z"/>
	<path d="M964.9,703.1v7.3h-2.4v-17.1h2.4v7.3h7.3v-7.3h2.4v17.1h-2.4v-7.3H964.9z"/>
</g>
</svg>
