<?xml version="1.0" encoding="utf-8"?>
<!-- Generator: Adobe Illustrator 25.2.3, SVG Export Plug-In . SVG Version: 6.00 Build 0)  -->
<svg version="1.1" id="Layer_1" xmlns="http://www.w3.org/2000/svg" xmlns:xlink="http://www.w3.org/1999/xlink" x="0px" y="0px"
	 viewBox="0 0 300 280" style="enable-background:new 0 0 300 280;" xml:space="preserve">
<style type="text/css">
	.st0{fill:#FCB912;}
	.st1{fill:#FCF54D;}
	.st2{fill:#FFDE01;}
	.st3{fill:#6F6252;}
	.st4{fill:#32A00D;}
</style>
<g id="layout">
</g>
<g id="Layer_3">
</g>
<g>
	<polygon class="st0" points="202.1,110.5 203,106.8 201.1,106.3 201.6,104.5 199.7,104 200.1,102.2 196.5,101.3 196.9,99.5 
		182.1,96 181.7,97.8 178,97 177.6,98.8 175.8,98.4 175.3,100.2 173.5,99.8 172.6,103.4 170.8,103 167.3,117.8 169.2,118.2 
		168.2,121.9 170.1,122.4 169.7,124.2 171.5,124.6 171.1,126.5 174.8,127.3 174.3,129.2 189.1,132.7 189.5,130.8 193.2,131.7 
		193.6,129.8 195.5,130.3 195.9,128.5 197.7,128.9 198.6,125.2 200.4,125.6 204,110.9 	"/>
	
		<rect x="164.2" y="110.1" transform="matrix(0.2299 -0.9732 0.9732 0.2299 24.1908 252.7647)" class="st1" width="15.2" height="1.9"/>
	
		<rect x="173.9" y="101.3" transform="matrix(0.2299 -0.9732 0.9732 0.2299 35.8588 249.8348)" class="st1" width="3.8" height="1.9"/>
	
		<rect x="178.2" y="98.3" transform="matrix(0.2299 -0.9732 0.9732 0.2299 40.476 251.5478)" class="st1" width="1.9" height="3.8"/>
	
		<rect x="183.3" y="96.6" transform="matrix(0.2299 -0.9732 0.9732 0.2299 45.1366 255.8912)" class="st1" width="1.9" height="5.7"/>
	
		<rect x="179.7" y="105.4" transform="matrix(0.2299 -0.9732 0.9732 0.2299 35.614 257.7554)" class="st1" width="1.9" height="1.9"/>
	<rect x="182" y="104" transform="matrix(0.2299 -0.9732 0.9732 0.2299 38.7453 258.8726)" class="st1" width="1.9" height="1.9"/>
</g>
<g>
	<polygon class="st0" points="105.8,97.4 106.6,93.7 104.8,93.3 105.2,91.5 103.4,91 103.8,89.2 100.1,88.3 100.5,86.5 85.8,83 
		85.4,84.9 81.7,83.9 81.2,85.8 79.4,85.4 79,87.2 77.1,86.8 76.3,90.5 74.4,90 71,104.8 72.8,105.2 71.9,108.9 73.7,109.3 
		73.3,111.2 75.1,111.6 74.7,113.4 78.4,114.3 78,116.1 92.7,119.7 93.2,117.8 96.8,118.7 97.3,116.8 99.1,117.3 99.5,115.4 
		101.4,115.8 102.2,112.2 104.1,112.6 107.6,97.8 	"/>
	
		<rect x="67.9" y="97.1" transform="matrix(0.2299 -0.9732 0.9732 0.2299 -37.314 148.9504)" class="st1" width="15.2" height="1.9"/>
	
		<rect x="77.6" y="88.3" transform="matrix(0.2299 -0.9732 0.9732 0.2299 -25.646 146.0206)" class="st1" width="3.8" height="1.9"/>
	
		<rect x="81.9" y="85.3" transform="matrix(0.2299 -0.9732 0.9732 0.2299 -21.0288 147.7335)" class="st1" width="1.9" height="3.8"/>
	<rect x="87" y="83.5" transform="matrix(0.2299 -0.9732 0.9732 0.2299 -16.3682 152.0769)" class="st1" width="1.9" height="5.7"/>
	
		<rect x="83.4" y="92.4" transform="matrix(0.2299 -0.9732 0.9732 0.2299 -25.8908 153.9411)" class="st1" width="1.9" height="1.9"/>
	<rect x="85.6" y="91" transform="matrix(0.2299 -0.9732 0.9732 0.2299 -22.7595 155.0583)" class="st1" width="1.9" height="1.9"/>
</g>
<g>
	<polygon class="st0" points="93.2,64.9 92.2,60.6 90,61.1 89.5,59 87.4,59.5 86.9,57.3 82.6,58.4 82.1,56.3 65.1,60.4 65.6,62.5 
		61.3,63.6 61.9,65.7 59.8,66.2 60.3,68.3 58.1,68.8 59.1,73.1 57,73.6 61.2,90.7 63.3,90.1 64.3,94.4 66.4,93.9 66.9,96 69,95.5 
		69.6,97.6 73.9,96.6 74.4,98.7 91.4,94.6 90.9,92.4 95.1,91.5 94.6,89.3 96.8,88.8 96.2,86.6 98.3,86.1 97.3,81.9 99.5,81.4 
		95.3,64.3 	"/>
	<polygon class="st2" points="93.2,64.9 91.1,65.4 90,61.1 87.9,61.6 87.4,59.5 83.2,60.5 82.6,58.4 65.6,62.5 66.1,64.7 61.9,65.7 
		62.4,67.8 60.3,68.3 61.2,72.6 59.1,73.1 63.3,90.1 65.4,89.6 66.4,93.9 68.5,93.4 69,95.5 73.3,94.4 73.9,96.6 90.9,92.4 
		90.4,90.3 94.6,89.3 94.1,87.1 96.2,86.6 95.2,82.4 97.3,81.9 	"/>
	<g>
		
			<rect x="76.4" y="68.2" transform="matrix(0.9719 -0.2356 0.2356 0.9719 -14.0826 20.7158)" class="st0" width="6.6" height="2.2"/>
		
			<rect x="80.5" y="85.2" transform="matrix(0.9719 -0.2356 0.2356 0.9719 -17.977 22.1635)" class="st0" width="6.6" height="2.2"/>
		<polygon class="st0" points="72.9,74.3 73.4,76.4 71.3,76.9 71.9,79 74,78.6 74.5,80.7 72.4,81.2 72.9,83.3 75,82.8 75.5,84.9 
			77.6,84.4 77.1,82.2 83.5,80.7 83,78.6 76.6,80.1 76.1,78 82.5,76.4 81.9,74.3 75.6,75.9 75.1,73.7 		"/>
		
			<rect x="74.8" y="71.3" transform="matrix(0.9719 -0.2356 0.2356 0.9719 -14.9249 19.9163)" class="st0" width="2.2" height="2.2"/>
		
			<rect x="77.9" y="84.1" transform="matrix(0.9719 -0.2356 0.2356 0.9719 -17.8427 21.0099)" class="st0" width="2.2" height="2.2"/>
	</g>
	
		<rect x="61.2" y="72.6" transform="matrix(0.9719 -0.2356 0.2356 0.9719 -17.4132 16.9606)" class="st1" width="2.2" height="17.5"/>
	<rect x="60.7" y="68" transform="matrix(0.9719 -0.2356 0.2356 0.9719 -14.7929 16.5451)" class="st1" width="2.2" height="4.4"/>
	<rect x="62" y="65.2" transform="matrix(0.9719 -0.2356 0.2356 0.9719 -13.8009 16.9962)" class="st1" width="4.4" height="2.2"/>
	
		<rect x="65.8" y="61.7" transform="matrix(0.9719 -0.2356 0.2356 0.9719 -12.8592 18.0448)" class="st1" width="6.6" height="2.2"/>
	
		<rect x="67.9" y="70.7" transform="matrix(0.9719 -0.2356 0.2356 0.9719 -14.9834 18.2804)" class="st1" width="2.2" height="2.2"/>
	<rect x="69.5" y="68.1" transform="matrix(0.9719 -0.2356 0.2356 0.9719 -14.324 18.5759)" class="st1" width="2.2" height="2.2"/>
</g>
<g>
	<g>
		<polygon class="st3" points="96.7,135.4 102,135.4 102,130.2 107.4,130.2 107.4,125 192.6,125 192.6,130.2 197.9,130.2 
			197.9,135.4 203.3,135.4 203.3,161.5 197.9,161.5 197.9,166.8 192.6,166.8 192.6,171.9 107.4,171.9 107.4,166.8 102,166.8 
			102,161.5 96.7,161.5 		"/>
		<rect x="118" y="135.5" width="5.3" height="10.4"/>
		<rect x="102.1" y="135.5" width="5.3" height="10.4"/>
		<rect x="107.4" y="151" width="10.6" height="5.2"/>
		<rect x="176.7" y="172" width="5.3" height="20.8"/>
		<rect x="118" y="172" width="5.3" height="20.8"/>
		<rect x="128.7" y="172" width="5.3" height="20.8"/>
		<rect x="166" y="172" width="5.3" height="20.8"/>
		<rect x="118" y="98.9" width="5.3" height="26.1"/>
		<polygon class="st4" points="134.1,83 130.7,86.6 134.5,90 137.8,86.3 149,96.2 138.9,107.1 135.1,103.8 131.8,107.5 128,104.1 
			124.7,107.8 113.6,97.9 116.9,94.2 113.2,91 116.6,87.3 112.9,84 123,73.1 		"/>
	</g>
	<rect x="114.6" y="133.5" width="13.4" height="14.3"/>
	<rect x="96" y="133.5" width="13.4" height="14.3"/>
	<rect x="105.9" y="139.5" width="12.8" height="3.3"/>
</g>
<g>
	<polygon class="st0" points="231.1,191 231.7,186.7 229.5,186.3 229.9,184.2 227.7,183.9 227.9,181.7 223.6,181.1 223.9,179 
		206.5,176.5 206.2,178.7 201.9,178.2 201.6,180.3 199.4,180 199.2,182.2 197,181.9 196.4,186.3 194.3,185.9 191.9,203.3 194,203.6 
		193.4,208 195.6,208.2 195.3,210.4 197.5,210.7 197.2,212.8 201.5,213.5 201.2,215.6 218.6,218 218.9,215.8 223.2,216.5 
		223.5,214.3 225.7,214.5 226,212.4 228.2,212.7 228.7,208.4 230.9,208.7 233.3,191.3 	"/>
	<polygon class="st2" points="231.1,191 228.9,190.7 229.5,186.3 227.4,186 227.7,183.9 223.3,183.3 223.6,181.1 206.2,178.7 
		206,180.9 201.6,180.3 201.4,182.5 199.2,182.2 198.6,186.5 196.4,186.3 194,203.6 196.2,203.9 195.6,208.2 197.7,208.5 
		197.5,210.7 201.8,211.3 201.5,213.5 218.9,215.8 219.1,213.7 223.5,214.3 223.8,212.1 226,212.4 226.5,208 228.7,208.4 	"/>
	<g>
		
			<rect x="215.7" y="186.9" transform="matrix(0.136 -0.9907 0.9907 0.136 -1.0405 379.1136)" class="st0" width="2.2" height="6.6"/>
		
			<rect x="213.4" y="204.2" transform="matrix(0.136 -0.9907 0.9907 0.136 -20.2361 391.7357)" class="st0" width="2.2" height="6.6"/>
		<polygon class="st0" points="208.8,192.4 208.5,194.5 206.3,194.2 206,196.4 208.2,196.7 207.9,198.9 205.7,198.6 205.5,200.7 
			207.6,201 207.3,203.2 209.5,203.5 209.8,201.4 216.3,202.2 216.6,200.1 210.1,199.2 210.4,197 216.9,197.9 217.2,195.7 
			210.7,194.8 211,192.6 		"/>
		
			<rect x="211.2" y="190.6" transform="matrix(0.136 -0.9907 0.9907 0.136 -6.5342 375.922)" class="st0" width="2.2" height="2.2"/>
		
			<rect x="209.3" y="203.6" transform="matrix(0.136 -0.9907 0.9907 0.136 -20.9887 385.3429)" class="st0" width="2.2" height="2.2"/>
	</g>
	<rect x="187.5" y="194" transform="matrix(0.136 -0.9907 0.9907 0.136 -23.6888 362.999)" class="st1" width="17.5" height="2.2"/>
	
		<rect x="197.8" y="183.4" transform="matrix(0.136 -0.9907 0.9907 0.136 -10.0003 357.5038)" class="st1" width="4.4" height="2.2"/>
	
		<rect x="202.6" y="179.5" transform="matrix(0.136 -0.9907 0.9907 0.136 -4.0133 358.7733)" class="st1" width="2.2" height="4.4"/>
	<rect x="208.3" y="177" transform="matrix(0.136 -0.9907 0.9907 0.136 2.3241 363.2004)" class="st1" width="2.2" height="6.6"/>
	
		<rect x="204.9" y="187.5" transform="matrix(0.136 -0.9907 0.9907 0.136 -8.8977 367.0545)" class="st1" width="2.2" height="2.2"/>
	
		<rect x="207.4" y="185.7" transform="matrix(0.136 -0.9907 0.9907 0.136 -4.9324 367.9179)" class="st1" width="2.2" height="2.2"/>
</g>
<g>
	<polygon class="st0" points="93.4,190.6 94.9,187.2 93.1,186.4 93.9,184.7 92.1,183.9 92.9,182.2 89.4,180.7 90.1,179 76.2,173 
		75.4,174.7 72,173.2 71.2,175 69.5,174.2 68.8,176 67,175.2 65.5,178.7 63.7,177.9 57.8,191.9 59.5,192.6 58,196 59.8,196.8 
		59,198.6 60.7,199.3 60,201.1 63.5,202.6 62.7,204.3 76.6,210.3 77.4,208.5 80.9,210 81.6,208.3 83.4,209 84.1,207.3 85.8,208 
		87.3,204.5 89.1,205.3 95.1,191.4 	"/>
	
		<rect x="55.8" y="185.1" transform="matrix(0.3949 -0.9187 0.9187 0.3949 -132.5662 170.8184)" class="st1" width="15.2" height="1.9"/>
	
		<rect x="67" y="177.1" transform="matrix(0.3949 -0.9187 0.9187 0.3949 -121.9219 171.0144)" class="st1" width="3.8" height="1.9"/>
	
		<rect x="71.6" y="174.7" transform="matrix(0.3949 -0.9187 0.9187 0.3949 -118.3044 173.4938)" class="st1" width="1.9" height="3.8"/>
	
		<rect x="76.7" y="173.9" transform="matrix(0.3949 -0.9187 0.9187 0.3949 -115.3437 178.3044)" class="st1" width="1.9" height="5.7"/>
	
		<rect x="72" y="181.9" transform="matrix(0.3949 -0.9187 0.9187 0.3949 -123.8637 177.7257)" class="st1" width="1.9" height="1.9"/>
	
		<rect x="74.5" y="180.9" transform="matrix(0.3949 -0.9187 0.9187 0.3949 -121.4475 179.4042)" class="st1" width="1.9" height="1.9"/>
</g>
<g>
	<polygon class="st0" points="1059.6,-469.1 1059.6,-475.9 1056.2,-475.9 1056.2,-479.2 1052.8,-479.2 1052.8,-482.6 1046.1,-482.6 
		1046.1,-486 1019.1,-486 1019.1,-482.6 1012.3,-482.6 1012.3,-479.2 1009,-479.2 1009,-475.9 1005.6,-475.9 1005.6,-469.1 
		1002.2,-469.1 1002.2,-442.1 1005.6,-442.1 1005.6,-435.4 1009,-435.4 1009,-432 1012.3,-432 1012.3,-428.6 1019.1,-428.6 
		1019.1,-425.3 1046.1,-425.3 1046.1,-428.6 1052.8,-428.6 1052.8,-432 1056.2,-432 1056.2,-435.4 1059.6,-435.4 1059.6,-442.1 
		1062.9,-442.1 1062.9,-469.1 	"/>
	<polygon class="st0" points="1059.6,-469.1 1056.2,-469.1 1056.2,-475.9 1052.8,-475.9 1052.8,-479.2 1046.1,-479.2 1046.1,-482.6 
		1019.1,-482.6 1019.1,-479.2 1012.3,-479.2 1012.3,-475.9 1009,-475.9 1009,-469.1 1005.6,-469.1 1005.6,-442.1 1009,-442.1 
		1009,-435.4 1012.3,-435.4 1012.3,-432 1019.1,-432 1019.1,-428.6 1046.1,-428.6 1046.1,-432 1052.8,-432 1052.8,-435.4 
		1056.2,-435.4 1056.2,-442.1 1059.6,-442.1 	"/>
	<rect x="1005.6" y="-469.1" class="st1" width="3.4" height="27"/>
	<rect x="1009" y="-475.9" class="st1" width="3.4" height="6.7"/>
	<rect x="1012.3" y="-479.2" class="st1" width="6.7" height="3.4"/>
	<rect x="1019.1" y="-482.6" class="st1" width="10.1" height="3.4"/>
	<rect x="1019.1" y="-469.1" class="st1" width="3.4" height="3.4"/>
	<rect x="1022.5" y="-472.5" class="st1" width="3.4" height="3.4"/>
</g>
<g>
	<polygon class="st0" points="925.7,-469.8 925.7,-476.6 922.3,-476.6 922.3,-480 919,-480 919,-483.3 912.2,-483.3 912.2,-486.7 
		903.2,-486.7 903.2,-483.3 896.4,-483.3 896.4,-480 893,-480 893,-476.6 889.7,-476.6 889.7,-469.8 886.3,-469.8 886.3,-442.9 
		889.7,-442.9 889.7,-436.1 893,-436.1 893,-432.7 896.4,-432.7 896.4,-429.4 903.2,-429.4 903.2,-426 912.2,-426 912.2,-429.4 
		919,-429.4 919,-432.7 922.3,-432.7 922.3,-436.1 925.7,-436.1 925.7,-442.9 929.1,-442.9 929.1,-469.8 	"/>
	<polygon class="st0" points="925.7,-469.8 922.3,-469.8 922.3,-476.6 919,-476.6 919,-480 912.2,-480 912.2,-483.3 903.2,-483.3 
		903.2,-480 896.4,-480 896.4,-476.6 893,-476.6 893,-469.8 889.7,-469.8 889.7,-442.9 893,-442.9 893,-436.1 896.4,-436.1 
		896.4,-432.7 903.2,-432.7 903.2,-429.4 912.2,-429.4 912.2,-432.7 919,-432.7 919,-436.1 922.3,-436.1 922.3,-442.9 925.7,-442.9 
			"/>
	<rect x="893.3" y="-470.2" class="st1" width="3.4" height="12.5"/>
	<rect x="896.7" y="-476.9" class="st1" width="3.4" height="6.7"/>
</g>
<g>
	<polygon class="st0" points="310.2,-469.1 310.2,-475.9 306.8,-475.9 306.8,-479.2 303.5,-479.2 303.5,-482.6 296.7,-482.6 
		296.7,-486 269.7,-486 269.7,-482.6 263,-482.6 263,-479.2 259.6,-479.2 259.6,-475.9 256.2,-475.9 256.2,-469.1 252.9,-469.1 
		252.9,-442.1 256.2,-442.1 256.2,-435.4 259.6,-435.4 259.6,-432 263,-432 263,-428.6 269.7,-428.6 269.7,-425.3 296.7,-425.3 
		296.7,-428.6 303.5,-428.6 303.5,-432 306.8,-432 306.8,-435.4 310.2,-435.4 310.2,-442.1 313.6,-442.1 313.6,-469.1 	"/>
	<polygon class="st2" points="310.2,-469.1 306.8,-469.1 306.8,-475.9 303.5,-475.9 303.5,-479.2 296.7,-479.2 296.7,-482.6 
		269.7,-482.6 269.7,-479.2 263,-479.2 263,-475.9 259.6,-475.9 259.6,-469.1 256.2,-469.1 256.2,-442.1 259.6,-442.1 259.6,-435.4 
		263,-435.4 263,-432 269.7,-432 269.7,-428.6 296.7,-428.6 296.7,-432 303.5,-432 303.5,-435.4 306.8,-435.4 306.8,-442.1 
		310.2,-442.1 	"/>
	<g>
		<rect x="283.2" y="-469.1" class="st0" width="10.1" height="3.4"/>
		<rect x="283.2" y="-442.1" class="st0" width="10.1" height="3.4"/>
		<polygon class="st0" points="276.5,-462.4 276.5,-459 273.1,-459 273.1,-455.6 276.5,-455.6 276.5,-452.2 273.1,-452.2 
			273.1,-448.9 276.5,-448.9 276.5,-445.5 279.9,-445.5 279.9,-448.9 290,-448.9 290,-452.2 279.9,-452.2 279.9,-455.6 290,-455.6 
			290,-459 279.9,-459 279.9,-462.4 		"/>
		<rect x="279.9" y="-465.7" class="st0" width="3.4" height="3.4"/>
		<rect x="279.9" y="-445.5" class="st0" width="3.4" height="3.4"/>
	</g>
	<rect x="256.2" y="-469.1" class="st1" width="3.4" height="27"/>
	<rect x="259.6" y="-475.9" class="st1" width="3.4" height="6.7"/>
	<rect x="263" y="-479.2" class="st1" width="6.7" height="3.4"/>
	<rect x="269.7" y="-482.6" class="st1" width="10.1" height="3.4"/>
	<rect x="269.7" y="-469.1" class="st1" width="3.4" height="3.4"/>
	<rect x="273.1" y="-472.5" class="st1" width="3.4" height="3.4"/>
</g>
<rect x="35.5" y="-459.7" class="st0" width="3.4" height="3.4"/>
<g>
	<polygon class="st0" points="48.9,-475.7 46.4,-475.7 46.4,-480.8 43.8,-480.8 43.8,-485 41.5,-485 41.5,-488.3 32.8,-488.3 
		32.8,-485 30.5,-485 30.5,-480.8 27.9,-480.8 27.9,-475.7 25.3,-475.7 25.3,-440.3 27.9,-440.3 27.9,-435.1 30.5,-435.1 30.5,-431 
		32.8,-431 32.8,-427.6 41.5,-427.6 41.5,-431 43.8,-431 43.8,-435.1 46.4,-435.1 46.4,-440.3 48.9,-440.3 	"/>
	<polygon class="st2" points="45.7,-471.5 44.1,-471.5 44.1,-477.7 42.3,-477.7 42.3,-481.1 40.4,-481.1 40.4,-484.4 33.8,-484.4 
		33.8,-481.1 31.9,-481.1 31.9,-477.7 30.2,-477.7 30.2,-471.5 28.5,-471.5 28.5,-445.8 30.2,-445.8 30.2,-439.7 31.9,-439.7 
		31.9,-436.3 33.8,-436.3 33.8,-433 40.4,-433 40.4,-436.3 42.3,-436.3 42.3,-439.7 44.1,-439.7 44.1,-445.8 45.7,-445.8 	"/>
	<rect x="34.7" y="-465" class="st0" width="3.2" height="17.7"/>
	<rect x="37.9" y="-468.4" class="st0" width="3.4" height="3.4"/>
	<rect x="32.9" y="-461.2" class="st0" width="8.3" height="3.4"/>
	<rect x="32.9" y="-455.6" class="st0" width="8.3" height="3.4"/>
	<rect x="29.5" y="-471" class="st1" width="3.4" height="9.1"/>
	<rect x="32.9" y="-474.7" class="st1" width="3.4" height="3.4"/>
</g>
<g>
	<polygon class="st0" points="-85.3,-481.7 -87.1,-481.7 -87.1,-486 -95.8,-486 -95.8,-481.7 -97.6,-481.7 -97.6,-429.6 
		-95.8,-429.6 -95.8,-425.3 -87.1,-425.3 -87.1,-429.6 -85.3,-429.6 	"/>
	<rect x="-94.7" y="-479.9" class="st1" width="3.3" height="12.3"/>
</g>
<g>
	<polygon class="st0" points="176.4,-469.1 176.4,-475.9 173,-475.9 173,-479.2 169.6,-479.2 169.6,-482.6 162.9,-482.6 162.9,-486 
		153.8,-486 153.8,-482.6 147.1,-482.6 147.1,-479.2 143.7,-479.2 143.7,-475.9 140.3,-475.9 140.3,-469.1 137,-469.1 137,-442.1 
		140.3,-442.1 140.3,-435.4 143.7,-435.4 143.7,-432 147.1,-432 147.1,-428.6 153.8,-428.6 153.8,-425.3 162.9,-425.3 162.9,-428.6 
		169.6,-428.6 169.6,-432 173,-432 173,-435.4 176.4,-435.4 176.4,-442.1 179.7,-442.1 179.7,-469.1 	"/>
	<polygon class="st2" points="176.4,-469.1 173,-469.1 173,-475.9 169.6,-475.9 169.6,-479.2 162.9,-479.2 162.9,-482.6 
		153.8,-482.6 153.8,-479.2 147.1,-479.2 147.1,-475.9 143.7,-475.9 143.7,-469.1 140.3,-469.1 140.3,-442.1 143.7,-442.1 
		143.7,-435.4 147.1,-435.4 147.1,-432 153.8,-432 153.8,-428.6 162.9,-428.6 162.9,-432 169.6,-432 169.6,-435.4 173,-435.4 
		173,-442.1 176.4,-442.1 	"/>
	<rect x="144" y="-469.4" class="st1" width="3.4" height="12.5"/>
	<rect x="147.4" y="-476.2" class="st1" width="3.4" height="6.7"/>
	<g>
		<rect x="158.1" y="-470.3" class="st0" width="7" height="3.4"/>
		<rect x="158.1" y="-443.3" class="st0" width="7" height="3.4"/>
		<polygon class="st0" points="153.4,-463.5 153.4,-460.1 151,-460.1 151,-456.8 153.4,-456.8 153.4,-453.4 151,-453.4 151,-450 
			153.4,-450 153.4,-446.6 155.7,-446.6 155.7,-450 162.7,-450 162.7,-453.4 155.7,-453.4 155.7,-456.8 162.7,-456.8 162.7,-460.1 
			155.7,-460.1 155.7,-463.5 		"/>
		<rect x="155.7" y="-466.9" class="st0" width="2.3" height="3.4"/>
		<rect x="155.7" y="-446.6" class="st0" width="2.3" height="3.4"/>
	</g>
</g>
<g>
	<polygon class="st0" points="426.1,-469.1 426.1,-475.9 422.8,-475.9 422.8,-479.2 419.4,-479.2 419.4,-482.6 412.6,-482.6 
		412.6,-486 403.6,-486 403.6,-482.6 396.9,-482.6 396.9,-479.2 393.5,-479.2 393.5,-475.9 390.1,-475.9 390.1,-469.1 386.7,-469.1 
		386.7,-442.1 390.1,-442.1 390.1,-435.4 393.5,-435.4 393.5,-432 396.9,-432 396.9,-428.6 403.6,-428.6 403.6,-425.3 412.6,-425.3 
		412.6,-428.6 419.4,-428.6 419.4,-432 422.8,-432 422.8,-435.4 426.1,-435.4 426.1,-442.1 429.5,-442.1 429.5,-469.1 	"/>
	<polygon class="st2" points="426.1,-469.1 422.8,-469.1 422.8,-475.9 419.4,-475.9 419.4,-479.2 412.6,-479.2 412.6,-482.6 
		403.6,-482.6 403.6,-479.2 396.9,-479.2 396.9,-475.9 393.5,-475.9 393.5,-469.1 390.1,-469.1 390.1,-442.1 393.5,-442.1 
		393.5,-435.4 396.9,-435.4 396.9,-432 403.6,-432 403.6,-428.6 412.6,-428.6 412.6,-432 419.4,-432 419.4,-435.4 422.8,-435.4 
		422.8,-442.1 426.1,-442.1 	"/>
	<rect x="393.8" y="-469.4" class="st1" width="3.4" height="12.5"/>
	<rect x="397.1" y="-476.2" class="st1" width="3.4" height="6.7"/>
	<g>
		<rect x="407.8" y="-470.3" class="st0" width="7" height="3.4"/>
		<rect x="407.8" y="-443.3" class="st0" width="7" height="3.4"/>
		<polygon class="st0" points="403.2,-463.5 403.2,-460.1 400.8,-460.1 400.8,-456.8 403.2,-456.8 403.2,-453.4 400.8,-453.4 
			400.8,-450 403.2,-450 403.2,-446.6 405.5,-446.6 405.5,-450 412.5,-450 412.5,-453.4 405.5,-453.4 405.5,-456.8 412.5,-456.8 
			412.5,-460.1 405.5,-460.1 405.5,-463.5 		"/>
		<rect x="405.5" y="-466.9" class="st0" width="2.3" height="3.4"/>
		<rect x="405.5" y="-446.6" class="st0" width="2.3" height="3.4"/>
	</g>
</g>
<g>
	<polygon class="st0" points="544.8,-473.3 542.2,-473.3 542.2,-478.5 539.7,-478.5 539.7,-482.6 537.3,-482.6 537.3,-486 
		528.7,-486 528.7,-482.6 526.3,-482.6 526.3,-478.5 523.8,-478.5 523.8,-473.3 521.2,-473.3 521.2,-437.9 523.8,-437.9 
		523.8,-432.7 526.3,-432.7 526.3,-428.6 528.7,-428.6 528.7,-425.3 537.3,-425.3 537.3,-428.6 539.7,-428.6 539.7,-432.7 
		542.2,-432.7 542.2,-437.9 544.8,-437.9 	"/>
	<polygon class="st2" points="541.6,-469.2 539.9,-469.2 539.9,-475.4 538.2,-475.4 538.2,-478.8 536.3,-478.8 536.3,-482 
		529.7,-482 529.7,-478.8 527.7,-478.8 527.7,-475.4 526,-475.4 526,-469.2 524.4,-469.2 524.4,-443.4 526,-443.4 526,-437.3 
		527.7,-437.3 527.7,-433.9 529.7,-433.9 529.7,-430.7 536.3,-430.7 536.3,-433.9 538.2,-433.9 538.2,-437.3 539.9,-437.3 
		539.9,-443.4 541.6,-443.4 	"/>
	<rect x="530.6" y="-462.6" class="st0" width="3.2" height="17.7"/>
	<rect x="533.8" y="-466" class="st0" width="3.4" height="3.4"/>
	<rect x="533.8" y="-444.9" class="st0" width="3.4" height="3.4"/>
	<rect x="528.8" y="-458.9" class="st0" width="8.3" height="3.4"/>
	<rect x="528.8" y="-453.2" class="st0" width="8.3" height="3.4"/>
	<rect x="525.4" y="-468.7" class="st1" width="3.4" height="9.1"/>
	<rect x="528.8" y="-472.4" class="st1" width="3.4" height="3.4"/>
</g>
<g>
	<polygon class="st0" points="794.6,-473.3 792,-473.3 792,-478.5 789.5,-478.5 789.5,-482.6 787.1,-482.6 787.1,-486 778.5,-486 
		778.5,-482.6 776.1,-482.6 776.1,-478.5 773.6,-478.5 773.6,-473.3 771,-473.3 771,-437.9 773.6,-437.9 773.6,-432.7 776.1,-432.7 
		776.1,-428.6 778.5,-428.6 778.5,-425.3 787.1,-425.3 787.1,-428.6 789.5,-428.6 789.5,-432.7 792,-432.7 792,-437.9 794.6,-437.9 
			"/>
	<rect x="774.3" y="-469.1" class="st1" width="3.4" height="9.6"/>
	<rect x="777.8" y="-472.5" class="st1" width="3.4" height="3.4"/>
</g>
<g>
	<polygon class="st0" points="1175.5,-469.1 1175.5,-475.9 1172.1,-475.9 1172.1,-479.2 1168.7,-479.2 1168.7,-482.6 1162,-482.6 
		1162,-486 1152.9,-486 1152.9,-482.6 1146.2,-482.6 1146.2,-479.2 1142.8,-479.2 1142.8,-475.9 1139.5,-475.9 1139.5,-469.1 
		1136.1,-469.1 1136.1,-442.1 1139.5,-442.1 1139.5,-435.4 1142.8,-435.4 1142.8,-432 1146.2,-432 1146.2,-428.6 1152.9,-428.6 
		1152.9,-425.3 1162,-425.3 1162,-428.6 1168.7,-428.6 1168.7,-432 1172.1,-432 1172.1,-435.4 1175.5,-435.4 1175.5,-442.1 
		1178.9,-442.1 1178.9,-469.1 	"/>
	<polygon class="st0" points="1175.5,-469.1 1172.1,-469.1 1172.1,-475.9 1168.7,-475.9 1168.7,-479.2 1162,-479.2 1162,-482.6 
		1152.9,-482.6 1152.9,-479.2 1146.2,-479.2 1146.2,-475.9 1142.8,-475.9 1142.8,-469.1 1139.5,-469.1 1139.5,-442.1 1142.8,-442.1 
		1142.8,-435.4 1146.2,-435.4 1146.2,-432 1152.9,-432 1152.9,-428.6 1162,-428.6 1162,-432 1168.7,-432 1168.7,-435.4 
		1172.1,-435.4 1172.1,-442.1 1175.5,-442.1 	"/>
	<rect x="1143.1" y="-469.4" class="st1" width="3.4" height="12.5"/>
	<rect x="1146.5" y="-476.2" class="st1" width="3.4" height="6.7"/>
</g>
<g>
	<polygon class="st0" points="1294.2,-473.3 1291.6,-473.3 1291.6,-478.5 1289,-478.5 1289,-482.6 1286.7,-482.6 1286.7,-486 
		1278,-486 1278,-482.6 1275.7,-482.6 1275.7,-478.5 1273.1,-478.5 1273.1,-473.3 1270.6,-473.3 1270.6,-437.9 1273.1,-437.9 
		1273.1,-432.7 1275.7,-432.7 1275.7,-428.6 1278,-428.6 1278,-425.3 1286.7,-425.3 1286.7,-428.6 1289,-428.6 1289,-432.7 
		1291.6,-432.7 1291.6,-437.9 1294.2,-437.9 	"/>
	<rect x="1273.8" y="-469.1" class="st1" width="3.4" height="9.6"/>
	<rect x="1277.3" y="-472.5" class="st1" width="3.4" height="3.4"/>
</g>
<g>
	<polygon class="st0" points="664.1,-481.7 662.2,-481.7 662.2,-486 653.6,-486 653.6,-481.7 651.7,-481.7 651.7,-429.6 
		653.6,-429.6 653.6,-425.3 662.2,-425.3 662.2,-429.6 664.1,-429.6 	"/>
	<rect x="654.6" y="-479.9" class="st1" width="3.3" height="12.3"/>
</g>
</svg>
