<?xml version="1.0" encoding="utf-8"?>
<!-- Generator: Adobe Illustrator 25.2.3, SVG Export Plug-In . SVG Version: 6.00 Build 0)  -->
<svg version="1.1" id="Layer_1" xmlns="http://www.w3.org/2000/svg" xmlns:xlink="http://www.w3.org/1999/xlink" x="0px" y="0px"
	 viewBox="0 0 950 450" style="enable-background:new 0 0 950 450;" xml:space="preserve">
<style type="text/css">
	.st0{display:none;}
	.st1{display:inline;}
	.st2{fill:#3FA0A7;}
	.st3{fill:#7DC0C9;}
	.st4{fill:#FFFFFF;}
	.st5{fill:#EE5E2F;stroke:#EE5E2F;stroke-width:0.5;stroke-miterlimit:10;}
	.st6{display:inline;fill:#EE5E2F;}
	.st7{fill:#F3A634;stroke:#F3A634;stroke-width:0.5;stroke-miterlimit:10;}
	.st8{display:inline;fill:#F3A634;}
	.st9{fill:#35BCC0;stroke:#35BCC0;stroke-width:0.5;stroke-miterlimit:10;}
	.st10{display:inline;fill:#35BCC0;}
	.st11{fill:#3E9B50;stroke:#3E9B50;stroke-width:0.5;stroke-miterlimit:10;}
	.st12{display:inline;fill:#3E9B50;}
	.st13{display:inline;fill:none;stroke:#E1E1DF;stroke-miterlimit:10;}
	.st14{fill:none;stroke:#35BCC0;stroke-width:7;stroke-miterlimit:10;}
	.st15{fill:#03464F;}
	.st16{fill:#026385;}
	.st17{fill:#35BCC0;}
	.st18{fill:#018F9F;}
	.st19{fill:#A53A1C;}
	.st20{fill:#DF5330;}
	.st21{fill:#FF8039;}
	.st22{fill:#EE5E2F;}
	.st23{fill:#A51959;}
	.st24{fill:#C12573;}
	.st25{fill:#FF4DA6;}
	.st26{fill:#D2276E;}
	.st27{fill:#7F7973;}
	.st28{fill:#C0B5AA;}
	.st29{fill:#E4DED5;}
	.st30{fill:#514A43;}
	.st31{fill:#606161;}
	.st32{fill:#BEBFB9;}
	.st33{fill:#3A3A3A;}
	.st34{fill:#302C28;}
	.st35{fill:#161616;}
	.st36{fill:#E1E1DF;}
	.st37{fill:#163A20;}
	.st38{fill:#1A5C31;}
	.st39{fill:#3E9B50;}
	.st40{fill:#23763E;}
	.st41{fill:#41296D;}
	.st42{fill:#513C82;}
	.st43{fill:#775ABF;}
	.st44{fill:#614293;}
	.st45{fill:#6C0F13;}
	.st46{fill:#9E1F25;}
	.st47{fill:#E8222E;}
	.st48{fill:#CF232E;}
	.st49{fill:#D27633;}
	.st50{fill:#DD8A34;}
	.st51{fill:#F5C032;}
	.st52{fill:#F3A634;}
	.st53{fill:none;stroke:#35BCC0;stroke-width:7;stroke-miterlimit:10;stroke-dasharray:12.0049,12.0049;}
	.st54{fill:none;stroke:#FF8039;stroke-width:7;stroke-miterlimit:10;}
	.st55{fill:none;stroke:#000000;stroke-miterlimit:10;}
	.st56{stroke:#000000;stroke-width:0.25;stroke-miterlimit:10;}
</style>
<g id="Layer_1_1_" class="st0">
	<g class="st1">
		<g>
			<polygon class="st2" points="543.4,216.5 543.4,206.6 533.5,206.6 533.5,186.9 523.6,186.9 523.6,177 523.6,167.1 513.7,167.1 
				513.7,157.2 503.8,157.2 503.8,147.3 494,147.3 494,137.4 484.1,137.4 484.1,147.3 474.2,147.3 474.2,157.2 464.3,157.2 
				464.3,167.1 454.4,167.1 454.4,177 454.4,186.9 444.5,186.9 444.5,206.6 434.7,206.6 434.7,216.5 434.7,226.4 424.8,226.4 
				424.8,305.5 434.7,305.5 434.7,315.3 444.5,315.3 444.5,335.1 533.5,335.1 533.5,315.3 543.4,315.3 543.4,305.5 553.3,305.5 
				553.3,226.4 543.4,226.4 			"/>
		</g>
		<polygon class="st3" points="543.6,226.2 533.7,226.2 533.7,206.5 523.8,206.5 523.8,186.7 513.9,186.7 513.9,166.9 504,166.9 
			504,157 494.2,157 494.2,147.2 484.3,147.2 484.3,157 474.4,157 474.4,166.9 464.5,166.9 464.5,186.7 454.6,186.7 454.6,206.5 
			444.7,206.5 444.7,226.2 434.9,226.2 434.9,305.3 444.7,305.3 444.7,315.2 454.6,315.2 454.6,325.1 523.8,325.1 523.8,315.2 
			533.7,315.2 533.7,305.3 543.6,305.3 		"/>
		<polygon class="st4" points="513.7,186.7 513.7,167.1 503.8,167.1 503.8,157.2 494,157.2 494,147.3 484.1,147.3 484.1,157.2 
			474.2,157.2 474.2,167.1 464.3,167.1 464.3,186.7 		"/>
	</g>
	<g class="st1">
		<g>
			<polygon class="st2" points="870.9,216.5 870.9,206.6 861.1,206.6 861.1,186.9 851.2,186.9 851.2,177 851.2,167.1 841.3,167.1 
				841.3,157.2 831.4,157.2 831.4,147.3 821.5,147.3 821.5,137.4 811.6,137.4 811.6,147.3 801.8,147.3 801.8,157.2 791.9,157.2 
				791.9,167.1 782,167.1 782,177 782,186.9 772.1,186.9 772.1,206.6 762.2,206.6 762.2,216.5 762.2,226.4 752.3,226.4 752.3,305.5 
				762.2,305.5 762.2,315.3 772.1,315.3 772.1,335.1 861.1,335.1 861.1,315.3 870.9,315.3 870.9,305.5 880.8,305.5 880.8,226.4 
				870.9,226.4 			"/>
		</g>
		<polygon class="st3" points="871,226.5 861.1,226.5 861.1,206.7 851.2,206.7 851.2,187 841.3,187 841.3,167.2 831.4,167.2 
			831.4,157.3 821.6,157.3 821.6,147.4 811.7,147.4 811.7,157.3 801.8,157.3 801.8,167.2 791.9,167.2 791.9,187 782,187 782,206.7 
			772.1,206.7 772.1,226.5 762.3,226.5 762.3,305.6 772.1,305.6 772.1,315.4 782,315.4 782,325.3 851.2,325.3 851.2,315.4 
			861.1,315.4 861.1,305.6 871,305.6 		"/>
		<polygon class="st4" points="811.8,147.4 811.8,157 802,157 802,166.9 792.1,166.9 792.1,186.7 782.2,186.7 782.2,206.5 
			772.3,206.5 772.3,226.2 762.4,226.2 762.4,236.4 871.1,236.4 871.1,226.2 861.3,226.2 861.3,206.5 851.4,206.5 851.4,186.7 
			841.5,186.7 841.5,166.9 831.6,166.9 831.6,157 821.7,157 821.7,147.4 		"/>
		<polygon class="st4" points="861.1,206.7 851.2,206.7 851.2,187 841.3,187 841.3,167.2 831.4,167.2 831.4,157.3 821.6,157.3 
			821.6,147.4 811.7,147.4 811.7,157.3 801.8,157.3 801.8,167.2 791.9,167.2 791.9,187 782,187 782,206.7 772.1,206.7 772.1,226.5 
			762.3,226.5 762.3,285.8 871,285.8 871,226.5 861.1,226.5 		"/>
	</g>
	<g class="st1">
		<g>
			<polygon class="st2" points="378.4,216.5 378.4,206.6 368.5,206.6 368.5,186.9 358.6,186.9 358.6,177 358.6,167.1 348.7,167.1 
				348.7,157.2 338.9,157.2 338.9,147.3 329,147.3 329,137.4 319.1,137.4 319.1,147.3 309.2,147.3 309.2,157.2 299.3,157.2 
				299.3,167.1 289.4,167.1 289.4,177 289.4,186.9 279.6,186.9 279.6,206.6 269.7,206.6 269.7,216.5 269.7,226.4 259.8,226.4 
				259.8,305.5 269.7,305.5 269.7,315.3 279.6,315.3 279.6,335.1 368.5,335.1 368.5,315.3 378.4,315.3 378.4,305.5 388.3,305.5 
				388.3,226.4 378.4,226.4 			"/>
		</g>
		<polygon class="st3" points="378.4,226.5 368.5,226.5 368.5,206.7 358.7,206.7 358.7,187 348.8,187 348.8,167.2 338.9,167.2 
			338.9,157.3 329,157.3 329,147.4 319.1,147.4 319.1,157.3 309.2,157.3 309.2,167.2 299.4,167.2 299.4,187 289.5,187 289.5,206.7 
			279.6,206.7 279.6,226.5 269.7,226.5 269.7,305.6 279.6,305.6 279.6,315.4 289.5,315.4 289.5,325.3 358.7,325.3 358.7,315.4 
			368.5,315.4 368.5,305.6 378.4,305.6 		"/>
		<polygon class="st4" points="319.3,147.4 319.3,157 309.4,157 309.4,166.9 299.5,166.9 299.5,186.7 289.6,186.7 289.6,206.5 
			279.8,206.5 279.8,226.2 269.9,226.2 269.9,236.4 378.6,236.4 378.6,226.2 368.7,226.2 368.7,206.5 358.8,206.5 358.8,186.7 
			348.9,186.7 348.9,166.9 339.1,166.9 339.1,157 329.2,157 329.2,147.4 		"/>
		<polygon class="st4" points="368.5,206.7 358.7,206.7 358.7,187 348.8,187 348.8,167.2 338.9,167.2 338.9,157.3 329,157.3 
			329,147.4 319.1,147.4 319.1,157.3 309.2,157.3 309.2,167.2 299.4,167.2 299.4,187 289.5,187 289.5,206.7 279.6,206.7 
			279.6,226.5 269.7,226.5 269.7,285.8 378.4,285.8 378.4,226.5 368.5,226.5 		"/>
	</g>
	<g class="st1">
		<g>
			<polygon class="st2" points="707.2,216.5 707.2,206.6 697.3,206.6 697.3,186.9 687.4,186.9 687.4,177 687.4,167.1 677.5,167.1 
				677.5,157.2 667.6,157.2 667.6,147.3 657.7,147.3 657.7,137.4 647.9,137.4 647.9,147.3 638,147.3 638,157.2 628.1,157.2 
				628.1,167.1 618.2,167.1 618.2,177 618.2,186.9 608.3,186.9 608.3,206.6 598.4,206.6 598.4,216.5 598.4,226.4 588.6,226.4 
				588.6,305.5 598.4,305.5 598.4,315.3 608.3,315.3 608.3,335.1 697.3,335.1 697.3,315.3 707.2,315.3 707.2,305.5 717,305.5 
				717,226.4 707.2,226.4 			"/>
		</g>
		<polygon class="st3" points="707.2,226.5 697.3,226.5 697.3,206.7 687.4,206.7 687.4,187 677.5,187 677.5,167.2 667.7,167.2 
			667.7,157.3 657.8,157.3 657.8,147.4 647.9,147.4 647.9,157.3 638,157.3 638,167.2 628.1,167.2 628.1,187 618.2,187 618.2,206.7 
			608.4,206.7 608.4,226.5 598.5,226.5 598.5,305.6 608.4,305.6 608.4,315.4 618.2,315.4 618.2,325.3 687.4,325.3 687.4,315.4 
			697.3,315.4 697.3,305.6 707.2,305.6 		"/>
		<polygon class="st4" points="648.1,147.4 648.1,157 638.2,157 638.2,166.9 628.3,166.9 628.3,186.7 618.4,186.7 618.4,206.5 
			608.5,206.5 608.5,226.2 598.6,226.2 598.6,236.4 707.4,236.4 707.4,226.2 697.5,226.2 697.5,206.5 687.6,206.5 687.6,186.7 
			677.7,186.7 677.7,166.9 667.8,166.9 667.8,157 657.9,157 657.9,147.4 		"/>
		<polygon class="st4" points="697.3,206.7 687.4,206.7 687.4,187 677.5,187 677.5,167.2 667.7,167.2 667.7,157.3 657.8,157.3 
			657.8,147.4 647.9,147.4 647.9,157.3 638,157.3 638,167.2 628.1,167.2 628.1,187 618.2,187 618.2,206.7 608.4,206.7 608.4,226.5 
			598.5,226.5 598.5,285.8 707.2,285.8 707.2,226.5 697.3,226.5 		"/>
	</g>
	<g class="st1">
		<path class="st5" d="M785.7,59.7v4.9h-1.6V53.1h6.3v0.8h0.8v0.8h0.8V58h-0.8v0.8h-0.8v0.8h-4.7V59.7z M785.7,54.7V58h4v-0.8h0.8
			v-1.6h-0.8v-0.8h-4V54.7z"/>
		<path class="st5" d="M801.5,53.1v1.6h-6.3V58h4.7v1.6h-4.7V63h6.3v1.6h-7.9V53.1H801.5z"/>
		<path class="st5" d="M804.7,64.6h-1.6v-8.2h0.8v-0.8h0.8v-0.8h0.8V54h0.8v-0.8h1.6V54h0.8v0.8h0.8v0.8h0.8v0.8h0.8v8.2h-1.6v-3.3
			h-4.7L804.7,64.6L804.7,64.6z M804.7,59.7h4.7v-2.5h-0.8v-0.8h-0.8v-0.8h-1.6v0.8h-0.8v0.8h-0.8L804.7,59.7L804.7,59.7z"/>
		<path class="st5" d="M814.2,58v6.6h-1.6V53.1h1.6v2.5h0.8v0.8h0.8v0.8h0.8V58h0.8v0.8h0.8v0.8h0.8V53h1.6v11.5H819V62h-0.8v-0.8
			h-0.8v-0.8h-0.8v-0.8h-0.8v-0.8H815V58H814.2z"/>
		<path class="st5" d="M822.9,63h-0.8v-9.9h1.6v9.1h0.8V63h3.2v-0.8h0.8v-9.1h1.6V63h-0.8v0.8h-0.8v0.8h-4.7v-0.8H823L822.9,63
			L822.9,63z"/>
		<path class="st5" d="M834.8,54.7h-3.2v-1.6h7.9v1.6h-3.2v9.9h-1.6L834.8,54.7L834.8,54.7z"/>
		<path class="st5" d="M848.2,54.7h0.8v1.6h-1.6v-0.8h-0.8v-0.8h-3.2v0.8h-0.8v1.6h0.8V58h4v0.8h0.8v0.8h0.8V63h-0.8v0.8h-0.8v0.8
			h-4.7v-0.8h-0.8V63h-0.8v-1.6h1.6v0.8h0.8V63h3.2v-0.8h0.8v-1.6h-0.8v-0.8h-4V59h-0.8v-1h-0.8v-3.3h0.8v-0.8h0.8v-0.8h4.7v0.8h0.8
			V54.7z"/>
	</g>
	<rect x="734.2" y="80.3" class="st6" width="164.8" height="16.9"/>
	<g class="st1">
		<path class="st7" d="M589.5,54.7h0.8v1.6h-1.6v-0.8h-0.8v-0.8h-3.2v0.8H584v1.6h0.8V58h4v0.8h0.8v0.8h0.8V63h-0.8v0.8h-0.8v0.8
			H584v-0.8h-0.8V63h-0.8v-1.6h1.6v0.8h0.8V63h3.2v-0.8h0.8v-1.6H588v-0.8h-4V59h-0.8v-1h-0.8v-3.3h0.8v-0.8h0.8v-0.8h4.7v0.8h0.8
			V54.7z"/>
		<path class="st7" d="M592.7,63h-0.8v-9.9h1.6v9.1h0.8V63h3.2v-0.8h0.8v-9.1h1.6V63H599v0.8h-0.8v0.8h-4.7v-0.8h-0.8V63z"/>
		<path class="st7" d="M603,58v6.6h-1.6V53.1h1.6v2.5h0.8v0.8h0.8v0.8h0.8V58h0.8v0.8h0.8v0.8h0.8V53h1.6v11.5h-1.6V62H607v-0.8
			h-0.8v-0.8h-0.8v-0.8h-0.8v-0.8h-0.8V58H603z"/>
		<path class="st7" d="M618.8,53.1v1.6h-6.3V58h4.7v1.6h-4.7v4.9h-1.6V53.1H618.8z"/>
		<path class="st7" d="M620.4,64.6V53.1h1.6V63h6.3v1.6H620.4z"/>
		<path class="st7" d="M631.4,53.9v-0.8h4.7v0.8h0.8v0.8h0.8V63H637v0.8h-0.8v0.8h-4.7v-0.8h-0.8V63h-0.8v-8.2h0.8V54L631.4,53.9
			L631.4,53.9z M635.4,54.7h-3.2v0.8h-0.8v6.6h0.8V63h3.2v-0.8h0.8v-6.6h-0.8V54.7z"/>
		<path class="st7" d="M639.3,53.1h1.6v9.1h1.6V58h1.6v4.1h1.6V53h1.6v10h-0.8v0.8h-0.8v0.8h-1.6v-0.8h-1.6v0.8h-1.6v-0.8h-0.8V63
			h-0.8V53.1z"/>
		<path class="st7" d="M656.8,53.1v1.6h-6.3V58h4.7v1.6h-4.7V63h6.3v1.6h-7.9V53.1H656.8z"/>
		<path class="st7" d="M660.7,59.7h-0.8v4.9h-1.6V53.1h6.3v0.8h0.8v0.8h0.8V58h-0.8v0.8h-0.8v0.8H663v0.8h0.8v0.8h0.8V62h0.8v1h0.8
			v1.6h-1.6v-0.8h-0.8V63H663v-0.8h-0.8v-0.8h-0.8v-0.8h-0.8L660.7,59.7L660.7,59.7z M659.9,54.7V58h4v-0.8h0.8v-1.6h-0.8v-0.8h-4
			V54.7z"/>
		<path class="st7" d="M684.5,54.7h0.8v1.6h-1.6v-0.8h-0.8v-0.8h-3.2v0.8h-0.8v1.6h0.8V58h4v0.8h0.8v0.8h0.8V63h-0.8v0.8h-0.8v0.8
			H679v-0.8h-0.8V63h-0.8v-1.6h1.6v0.8h0.8V63h3.2v-0.8h0.8v-1.6H683v-0.8h-4V59h-0.8v-1h-0.8v-3.3h0.8v-0.8h0.8v-0.8h4.7v0.8h0.8
			V54.7z"/>
		<path class="st7" d="M694.7,53.1v1.6h-6.3V58h4.7v1.6h-4.7V63h6.3v1.6h-7.9V53.1H694.7z"/>
		<path class="st7" d="M704.2,53.1v1.6h-6.3V58h4.7v1.6h-4.7V63h6.3v1.6h-7.9V53.1H704.2z"/>
		<path class="st7" d="M705.8,64.6V53.1h6.3v0.8h0.8v0.8h0.8V63h-0.8v0.8h-0.8v0.8H705.8z M707.4,54.7V63h4v-0.8h0.8v-6.6h-0.8v-0.8
			h-4V54.7z"/>
		<path class="st7" d="M722.4,54.7h0.8v1.6h-1.6v-0.8h-0.8v-0.8h-3.2v0.8h-0.8v1.6h0.8V58h4v0.8h0.8v0.8h0.8V63h-0.8v0.8h-0.8v0.8
			h-4.7v-0.8h-0.8V63h-0.8v-1.6h1.6v0.8h0.8V63h3.2v-0.8h0.8v-1.6h-0.8v-0.8h-4V59h-0.8v-1h-0.8v-3.3h0.8v-0.8h0.8v-0.8h4.7v0.8h0.8
			V54.7z"/>
	</g>
	<rect x="570.4" y="80.3" class="st8" width="164.8" height="16.9"/>
	<g class="st1">
		<path class="st9" d="M458.2,64.6h-1.6v-8.2h0.8v-0.8h0.8v-0.8h0.8V54h0.8v-0.8h1.6V54h0.8v0.8h0.8v0.8h0.8v0.8h0.8v8.2H463v-3.3
			h-4.7L458.2,64.6L458.2,64.6z M458.2,59.7h4.7v-2.5h-0.8v-0.8h-0.8v-0.8h-1.6v0.8H459v0.8h-0.8V59.7z"/>
		<path class="st9" d="M466.1,64.6V53.1h1.6V63h6.3v1.6H466.1z"/>
		<path class="st9" d="M477.1,64.6h-1.6V53.1h1.6v1.6h0.8v0.8h0.8v0.8h1.6v-0.8h0.8v-0.8h0.8v-1.6h1.6v11.5h-1.6v-7.4h-0.8V58h-0.8
			v1.6h-1.6V58h-0.8v-0.8h-0.8V64.6z"/>
		<path class="st9" d="M486.6,53.9v-0.8h4.7v0.8h0.8v0.8h0.8V63h-0.8v0.8h-0.8v0.8h-4.7v-0.8h-0.8V63H485v-8.2h0.8V54L486.6,53.9
			L486.6,53.9z M490.6,54.7h-3.2v0.8h-0.8v6.6h0.8V63h3.2v-0.8h0.8v-6.6h-0.8V54.7z"/>
		<path class="st9" d="M496.1,58v6.6h-1.6V53.1h1.6v2.5h0.8v0.8h0.8v0.8h0.8V58h0.8v0.8h0.8v0.8h0.8V53h1.6v11.5h-1.6V62h-0.8v-0.8
			h-0.8v-0.8h-0.8v-0.8h-0.8v-0.8h-0.8V58H496.1z"/>
		<path class="st9" d="M504.1,64.6V53.1h6.3v0.8h0.8v0.8h0.8V63h-0.8v0.8h-0.8v0.8H504.1z M505.6,54.7V63h4v-0.8h0.8v-6.6h-0.8v-0.8
			h-4V54.7z"/>
		<path class="st9" d="M520.7,54.7h0.8v1.6h-1.6v-0.8h-0.8v-0.8h-3.2v0.8h-0.8v1.6h0.8V58h4v0.8h0.8v0.8h0.8V63h-0.8v0.8h-0.8v0.8
			h-4.7v-0.8h-0.8V63h-0.8v-1.6h1.6v0.8h0.8V63h3.2v-0.8h0.8v-1.6h-0.8v-0.8h-4V59h-0.8v-1h-0.8v-3.3h0.8v-0.8h0.8v-0.8h4.7v0.8h0.8
			V54.7z"/>
	</g>
	<rect x="406.6" y="80.3" class="st10" width="164.8" height="16.9"/>
	<g class="st1">
		<path class="st11" d="M308.2,63h3.2v-0.8h0.8v-0.8h1.6V63H313v0.8h-0.8v0.8h-4.7v-0.8h-0.8V63h-0.8v-8.2h0.8V54h0.8v-0.8h4.7V54
			h0.8v0.8h0.8v1.6h-1.6v-0.8h-0.8v-0.8h-3.2v0.8h-0.8v6.6h0.8L308.2,63L308.2,63z"/>
		<path class="st11" d="M316.9,59.7v4.9h-1.6V53.1h1.6V58h4.7v-4.9h1.6v11.5h-1.6v-4.9C321.6,59.7,316.9,59.7,316.9,59.7z"/>
		<path class="st11" d="M326.4,64.6V63h1.6v-8.2h-1.6v-1.6h4.7v1.6h-1.6V63h1.6v1.6H326.4z"/>
		<path class="st11" d="M335.9,64.6h-1.6v-8.2h0.8v-0.8h0.8v-0.8h0.8V54h0.8v-0.8h1.6V54h0.8v0.8h0.8v0.8h0.8v0.8h0.8v8.2h-1.6v-3.3
			H336L335.9,64.6L335.9,64.6z M335.9,59.7h4.7v-2.5h-0.8v-0.8H339v-0.8h-1.6v0.8h-0.8v0.8h-0.8L335.9,59.7L335.9,59.7z"/>
	</g>
	<rect x="241.7" y="80.3" class="st12" width="164.8" height="16.9"/>
	<rect x="241.7" y="137.4" class="st13" width="165" height="266.7"/>
	<rect x="406.7" y="137.4" class="st13" width="165" height="266.7"/>
	<rect x="571.7" y="137.4" class="st13" width="165" height="266.7"/>
	<rect x="736.8" y="137.4" class="st13" width="165" height="266.7"/>
</g>
<g id="Layer_3" class="st0">
	<g id="sL9s3t.tif" class="st1">
		
			<image style="overflow:visible;enable-background:new    ;" width="2814" height="1189" id="Layer_0" xlink:href="A3505427599CDCCD.png"  transform="matrix(0.3684 0 0 0.3684 -19.9588 17.4466)">
		</image>
	</g>
</g>
<path class="st14" d="M908.3,269.8c-6.7,7.6-175.1,28-181.8,31.1c-6.7,3.1-69.1,2.5-81,4.6s-45-11-58.4-18.1s-51.2-41.4-72-41.7
	c-25.3-0.4-72.9,52.2-88.9,59.8s-77.7,64.3-92.6,64.7c-15,0.4-27.4-10.2-43-3.7s-19.7,3.3-29.5,3.7c-9.9,0.4-22.9-8.8-49.6-10.2
	s-44.6,1.4-53.7,9.5c-9.1,8.1-107.7,0.7-107.7,0.7"/>
<rect x="-227.6" y="109.4" class="st15" width="46.4" height="46.4"/>
<rect x="-181.2" y="109.4" class="st16" width="46.4" height="46.4"/>
<rect x="-134.8" y="109.4" class="st17" width="46.4" height="46.4"/>
<rect x="-274" y="109.4" class="st18" width="46.4" height="46.4"/>
<rect x="-227.6" y="171.2" class="st19" width="46.4" height="46.4"/>
<rect x="-181.2" y="171.2" class="st20" width="46.4" height="46.4"/>
<rect x="-134.8" y="171.2" class="st21" width="46.4" height="46.4"/>
<rect x="-274" y="171.2" class="st22" width="46.4" height="46.4"/>
<rect x="-227.6" y="233.1" class="st23" width="46.4" height="46.4"/>
<rect x="-181.2" y="233.1" class="st24" width="46.4" height="46.4"/>
<rect x="-134.8" y="233.1" class="st25" width="46.4" height="46.4"/>
<rect x="-274" y="233.1" class="st26" width="46.4" height="46.4"/>
<rect x="-227.6" y="-107.1" class="st27" width="46.4" height="46.4"/>
<rect x="-181.2" y="-107.1" class="st28" width="46.4" height="46.4"/>
<rect x="-134.8" y="-107.1" class="st29" width="46.4" height="46.4"/>
<rect x="-274" y="-107.1" class="st30" width="46.4" height="46.4"/>
<rect x="-227.6" y="-45.2" class="st31" width="46.4" height="46.4"/>
<rect x="-181.2" y="-45.2" class="st32" width="46.4" height="46.4"/>
<rect x="-274" y="-45.2" class="st33" width="46.4" height="46.4"/>
<rect x="-320.4" y="-107.1" class="st34" width="46.4" height="46.4"/>
<rect x="-320.4" y="-45.2" class="st35" width="46.4" height="46.4"/>
<rect x="-134.8" y="-45.2" class="st36" width="46.4" height="46.4"/>
<rect x="-227.4" y="294.9" class="st37" width="46.4" height="46.4"/>
<rect x="-181" y="294.9" class="st38" width="46.4" height="46.4"/>
<rect x="-134.6" y="294.9" class="st39" width="46.4" height="46.4"/>
<rect x="-273.8" y="294.9" class="st40" width="46.4" height="46.4"/>
<rect x="-227.4" y="356.8" class="st41" width="46.4" height="46.4"/>
<rect x="-181" y="356.8" class="st42" width="46.4" height="46.4"/>
<rect x="-134.6" y="356.8" class="st43" width="46.4" height="46.4"/>
<rect x="-273.8" y="356.8" class="st44" width="46.4" height="46.4"/>
<rect x="-227.4" y="418.6" class="st45" width="46.4" height="46.4"/>
<rect x="-181" y="418.6" class="st46" width="46.4" height="46.4"/>
<rect x="-134.6" y="418.6" class="st47" width="46.4" height="46.4"/>
<rect x="-273.8" y="418.6" class="st48" width="46.4" height="46.4"/>
<rect x="-227.4" y="480.5" class="st49" width="46.4" height="46.4"/>
<rect x="-181" y="480.5" class="st50" width="46.4" height="46.4"/>
<rect x="-134.6" y="480.5" class="st51" width="46.4" height="46.4"/>
<rect x="-273.8" y="480.5" class="st52" width="46.4" height="46.4"/>
<g>
	<g>
		<path class="st14" d="M363.9,352c0,0,1.5-1.6,4.1-4.4"/>
		<path class="st53" d="M376.2,338.9c20.6-22,60.3-64.7,65.2-71.1c28-37.2,50.4-72.6,66-76.1c26.1-5.9,44.3,24.7,49.3,42.3
			c3.3,11.8,12.4,29.2,25,43.7c12.7,14.5,34.3,23.5,50.4,26.8"/>
		<path class="st14" d="M638.1,305.4c2.2,0.3,4.2,0.4,6,0.5"/>
	</g>
</g>
<path class="st54" d="M52.2,365.5c0,0,63-0.7,76.4-0.7s54.6-9.8,66.9-9.5c12.3,0.3,44.7,0,64.3,0s148.7-20.4,174.3-30.4
	c25.6-9.9,89.2-10.3,113.7-15.5s85-4.9,104.4-19.5s89.8-3.2,128.2-7.2c38.4-4.1,115.3-10.7,124.2-19.6"/>
<line class="st55" x1="46.5" y1="388.7" x2="908.6" y2="388.7"/>
<line class="st55" x1="827" y1="388.7" x2="827" y2="375.2"/>
<line class="st55" x1="908.6" y1="388.7" x2="908.6" y2="375.2"/>
<line class="st55" x1="670.5" y1="388.7" x2="670.5" y2="375.2"/>
<line class="st55" x1="749.5" y1="388.7" x2="749.5" y2="375.2"/>
<line class="st55" x1="591.3" y1="389" x2="591.3" y2="375.5"/>
<line class="st55" x1="437.2" y1="389" x2="437.2" y2="375.5"/>
<line class="st55" x1="516.3" y1="389" x2="516.3" y2="375.5"/>
<line class="st55" x1="357.1" y1="388.7" x2="357.1" y2="375.2"/>
<line class="st55" x1="277.9" y1="389.1" x2="277.9" y2="375.6"/>
<line class="st55" x1="123.9" y1="389.1" x2="123.9" y2="375.6"/>
<line class="st55" x1="202.9" y1="389.1" x2="202.9" y2="375.6"/>
<line class="st55" x1="46.5" y1="388.7" x2="46.5" y2="375.2"/>
<g>
	<path d="M31.1,406H37v1.5h-7.3v-4.4h0.7v-0.7h0.7v-0.7h3.7V401h0.7v-1.5h-0.7v-0.7h-2.9v0.7h-0.7v0.7h-1.5v-1.5h0.7V398h0.7v-0.7
		h4.4v0.7h0.7v0.7H37v2.9h-0.7v0.7h-0.7v0.7h-3.7v0.7h-0.7L31.1,406L31.1,406z"/>
	<path d="M39.9,398v-0.7h4.4v0.7H45v0.7h0.7v7.3H45v0.7h-0.7v0.7h-4.4v-0.7h-0.7V406h-0.7v-7.3h0.7V398H39.9z M40.7,403.1v-0.7h0.7
		v-0.7h0.7V401h0.7v-0.7h1.5v-0.7h-0.7v-0.7h-2.9v0.7H40v3.7h0.7V403.1z M39.9,404.6v0.7h0.7v0.7h2.9v-0.7h0.7v-3.7h-0.7v0.7h-0.7
		v0.7h-0.7v0.7h-0.7v0.7h-1.5V404.6z"/>
	<path d="M48.7,398v-0.7h4.4v0.7h0.7v0.7h0.7v7.3h-0.7v0.7h-0.7v0.7h-4.4v-0.7H48V406h-0.7v-7.3H48V398H48.7z M49.5,403.1v-0.7h0.7
		v-0.7h0.7V401h0.7v-0.7h1.5v-0.7h-0.7v-0.7h-2.9v0.7h-0.7v3.7h0.7V403.1z M48.7,404.6v0.7h0.7v0.7h2.9v-0.7H53v-3.7h-0.7v0.7h-0.7
		v0.7h-0.7v0.7h-0.7v0.7h-1.5V404.6z"/>
	<path d="M61.9,406.8v0.7h-4.4v-0.7h-0.7V406H56v-2.9h0.7v-1.5H56v-2.9h0.7V398h0.7v-0.7h4.4v0.7h0.7v0.7h0.7v2.9h-0.7v1.5h0.7v2.9
		h-0.7v0.7L61.9,406.8L61.9,406.8z M61.2,398.7h-2.9v0.7h-0.7v1.5h0.7v0.7h2.9v-0.7h0.7v-1.5h-0.7V398.7z M58.2,406h2.9v-0.7h0.7
		v-1.5h-0.7v-0.7h-2.9v0.7h-0.7v1.5h0.7V406z"/>
</g>
<g>
	<path d="M108.3,406h5.9v1.5h-7.3v-4.4h0.7v-0.7h0.7v-0.7h3.7V401h0.7v-1.5H112v-0.7h-3v0.7h-0.7v0.7h-1.5v-1.5h0.7V398h0.7v-0.7
		h4.4v0.7h0.7v0.7h0.7v2.9h-0.7v0.7h-0.7v0.7H109v0.7h-0.7V406z"/>
	<path d="M117,398v-0.7h4.4v0.7h0.7v0.7h0.7v7.3h-0.7v0.7h-0.7v0.7H117v-0.7h-0.7V406h-0.7v-7.3h0.7V398H117z M117.8,403.1v-0.7h0.7
		v-0.7h0.7V401h0.7v-0.7h1.5v-0.7h-0.7v-0.7h-2.9v0.7H117v3.7h0.8V403.1z M117,404.6v0.7h0.7v0.7h2.9v-0.7h0.7v-3.7h-0.7v0.7H120
		v0.7h-0.7v0.7h-0.7v0.7H117V404.6z"/>
	<path d="M125.8,398v-0.7h4.4v0.7h0.7v0.7h0.7v7.3H131v0.7h-0.7v0.7h-4.4v-0.7h-0.7V406h-0.7v-7.3h0.7V398H125.8z M126.6,403.1v-0.7
		h0.7v-0.7h0.7V401h0.7v-0.7h1.5v-0.7h-0.7v-0.7h-2.9v0.7h-0.7v3.7h0.7V403.1z M125.8,404.6v0.7h0.7v0.7h2.9v-0.7h0.7v-3.7h-0.7v0.7
		h-0.7v0.7H128v0.7h-0.7v0.7h-1.5V404.6z"/>
	<path d="M133.9,406h-0.7v-1.5h1.5v0.7h0.7v0.7h2.9v-0.7h0.7V403h-4.4v-0.7h-0.7v-0.7h-0.7v-2.9h0.7V398h0.7v-0.7h4.4v0.7h0.7v0.7
		h0.7v7.3h-0.7v0.7H139v0.7h-4.4v-0.7h-0.7L133.9,406L133.9,406z M139,401.6v-2.2h-0.7v-0.7h-2.9v0.7h-0.7v1.5h0.7v0.7H139z"/>
</g>
<g>
	<path d="M187.3,406h5.9v1.5h-7.3v-4.4h0.7v-0.7h0.7v-0.7h3.7V401h0.7v-1.5H191v-0.7h-2.9v0.7h-0.7v0.7h-1.5v-1.5h0.7V398h0.7v-0.7
		h4.4v0.7h0.7v0.7h0.7v2.9h-0.7v0.7h-0.7v0.7H188v0.7h-0.7V406z"/>
	<path d="M196.1,398v-0.7h4.4v0.7h0.7v0.7h0.7v7.3h-0.7v0.7h-0.7v0.7h-4.4v-0.7h-0.7V406h-0.7v-7.3h0.7V398H196.1z M196.9,403.1
		v-0.7h0.7v-0.7h0.7V401h0.7v-0.7h1.5v-0.7h-0.7v-0.7h-2.9v0.7h-0.7v3.7h0.7V403.1z M196.1,404.6v0.7h0.7v0.7h2.9v-0.7h0.7v-3.7
		h-0.7v0.7H199v0.7h-0.7v0.7h-0.7v0.7h-1.5V404.6z"/>
	<path d="M207.9,406h1.5v1.5H205V406h1.5v-5.9H205v-1.5h0.7V398h0.7v-0.7h1.5V406z"/>
	<path d="M213.7,398v-0.7h4.4v0.7h0.7v0.7h0.7v7.3h-0.7v0.7h-0.7v0.7h-4.4v-0.7H213V406h-0.7v-7.3h0.7V398H213.7z M214.4,403.1v-0.7
		h0.7v-0.7h0.7V401h0.7v-0.7h1.5v-0.7h-0.7v-0.7h-2.9v0.7h-0.7v3.7h0.7V403.1z M213.7,404.6v0.7h0.7v0.7h2.9v-0.7h0.7v-3.7h-0.7v0.7
		h-0.7v0.7h-0.7v0.7h-0.7v0.7h-1.5V404.6z"/>
</g>
<g>
	<path d="M264.5,406h5.9v1.5H263v-4.4h0.7v-0.7h0.7v-0.7h3.7V401h0.7v-1.5h-0.7v-0.7h-2.9v0.7h-0.7v0.7H263v-1.5h0.7V398h0.7v-0.7
		h4.4v0.7h0.7v0.7h0.7v2.9h-0.7v0.7h-0.7v0.7h-3.7v0.7h-0.7v2.3H264.5z"/>
	<path d="M273.2,398v-0.7h4.4v0.7h0.7v0.7h0.7v7.3h-0.7v0.7h-0.7v0.7h-4.4v-0.7h-0.7V406h-0.7v-7.3h0.7V398H273.2z M274,403.1v-0.7
		h0.7v-0.7h0.7V401h0.7v-0.7h1.5v-0.7h-0.7v-0.7H274v0.7h-0.7v3.7h0.7V403.1z M273.2,404.6v0.7h0.7v0.7h2.9v-0.7h0.7v-3.7h-0.7v0.7
		h-0.7v0.7h-0.7v0.7h-0.7v0.7h-1.5V404.6z"/>
	<path d="M285,406h1.5v1.5H282V406h1.5v-5.9H282v-1.5h0.7V398h0.7v-0.7h1.5L285,406L285,406z"/>
	<path d="M293.8,406h1.5v1.5h-4.4V406h1.5v-5.9h-1.5v-1.5h0.7V398h0.7v-0.7h1.5L293.8,406L293.8,406z"/>
</g>
<g>
	<path d="M342.1,406h5.9v1.5h-7.3v-4.4h0.7v-0.7h0.7v-0.7h3.7V401h0.7v-1.5h-0.7v-0.7h-2.9v0.7h-0.7v0.7h-1.5v-1.5h0.7V398h0.7v-0.7
		h4.4v0.7h0.7v0.7h0.7v2.9h-0.7v0.7h-0.7v0.7h-3.7v0.7h-0.7L342.1,406L342.1,406z"/>
	<path d="M350.9,398v-0.7h4.4v0.7h0.7v0.7h0.7v7.3H356v0.7h-0.7v0.7h-4.4v-0.7h-0.7V406h-0.7v-7.3h0.7V398H350.9z M351.6,403.1v-0.7
		h0.7v-0.7h0.7V401h0.7v-0.7h1.5v-0.7h-0.7v-0.7h-2.9v0.7h-0.7v3.7h0.7V403.1z M350.9,404.6v0.7h0.7v0.7h2.9v-0.7h0.7v-3.7h-0.7v0.7
		h-0.7v0.7h-0.7v0.7h-0.7v0.7h-1.5V404.6z"/>
	<path d="M362.6,406h1.5v1.5h-4.4V406h1.5v-5.9h-1.5v-1.5h0.7V398h0.7v-0.7h1.5L362.6,406L362.6,406z"/>
	<path d="M368.5,406h5.9v1.5H367v-4.4h0.7v-0.7h0.7v-0.7h3.7V401h0.7v-1.5h-0.7v-0.7h-2.9v0.7h-0.7v0.7H367v-1.5h0.7V398h0.7v-0.7
		h4.4v0.7h0.7v0.7h0.7v2.9h-0.7v0.7h-0.7v0.7h-3.7v0.7h-0.7v2.3H368.5z"/>
</g>
<g>
	<path d="M419.2,406h5.9v1.5h-7.3v-4.4h0.7v-0.7h0.7v-0.7h3.7V401h0.7v-1.5h-0.7v-0.7H420v0.7h-0.7v0.7h-1.5v-1.5h0.7V398h0.7v-0.7
		h4.4v0.7h0.7v0.7h0.7v2.9h-0.7v0.7h-0.7v0.7H420v0.7h-0.7L419.2,406L419.2,406z"/>
	<path d="M428,398v-0.7h4.4v0.7h0.7v0.7h0.7v7.3h-0.7v0.7h-0.7v0.7H428v-0.7h-0.7V406h-0.7v-7.3h0.7V398H428z M428.8,403.1v-0.7h0.7
		v-0.7h0.7V401h0.7v-0.7h1.5v-0.7h-0.7v-0.7h-2.9v0.7H428v3.7h0.8V403.1z M428,404.6v0.7h0.7v0.7h2.9v-0.7h0.7v-3.7h-0.7v0.7H431
		v0.7h-0.7v0.7h-0.7v0.7H428V404.6z"/>
	<path d="M439.7,406h1.5v1.5h-4.4V406h1.5v-5.9h-1.5v-1.5h0.7V398h0.7v-0.7h1.5L439.7,406L439.7,406z"/>
	<path d="M444.9,406h-0.7v-1.5h1.5v0.7h0.7v0.7h2.9v-0.7h0.7v-1.5h-0.7V403h-2.2v-1.5h2.2v-0.7h0.7v-1.5h-0.7v-0.7h-2.9v0.7h-0.7
		v0.7h-1.5v-1.5h0.7V398h0.7v-0.7h4.4v0.7h0.7v0.7h0.7v2.9h-0.7v1.5h0.7v2.9h-0.7v0.7H450v0.7h-4.4v-0.7h-0.7V406z"/>
</g>
<g>
	<path d="M499.4,406h5.9v1.5H498v-4.4h0.7v-0.7h0.7v-0.7h3.7V401h0.7v-1.5h-0.7v-0.7h-2.9v0.7h-0.7v0.7H498v-1.5h0.7V398h0.7v-0.7
		h4.4v0.7h0.7v0.7h0.7v2.9h-0.7v0.7h-0.7v0.7h-3.7v0.7h-0.7V406z"/>
	<path d="M508.2,398v-0.7h4.4v0.7h0.7v0.7h0.7v7.3h-0.7v0.7h-0.7v0.7h-4.4v-0.7h-0.7V406h-0.7v-7.3h0.7V398H508.2z M508.9,403.1
		v-0.7h0.7v-0.7h0.7V401h0.7v-0.7h1.5v-0.7h-0.7v-0.7h-2.9v0.7h-0.7v3.7h0.7V403.1z M508.2,404.6v0.7h0.7v0.7h2.9v-0.7h0.7v-3.7
		h-0.7v0.7h-0.7v0.7h-0.7v0.7h-0.7v0.7h-1.5V404.6z"/>
	<path d="M519.9,406h1.5v1.5H517V406h1.5v-5.9H517v-1.5h0.7V398h0.7v-0.7h1.5V406z"/>
	<path d="M528.7,398v-0.7h1.5v5.9h1.5v1.5h-1.5v2.9h-1.5v-2.9h-4.4v-2.9h0.7v-0.7h0.7v-0.7h0.7v-0.7h0.7V399h0.7v-1H528.7z
		 M528.7,403.1v-2.9H528v0.7h-0.7v0.7h-0.7v0.7h-0.7v0.7L528.7,403.1L528.7,403.1z"/>
</g>
<g>
	<path d="M576.5,406h5.9v1.5h-7.3v-4.4h0.7v-0.7h0.7v-0.7h3.7V401h0.7v-1.5h-0.7v-0.7h-2.9v0.7h-0.7v0.7h-1.5v-1.5h0.7V398h0.7v-0.7
		h4.4v0.7h0.7v0.7h0.7v2.9h-0.7v0.7h-0.7v0.7h-3.7v0.7h-0.7L576.5,406L576.5,406z"/>
	<path d="M585.3,398v-0.7h4.4v0.7h0.7v0.7h0.7v7.3h-0.7v0.7h-0.7v0.7h-4.4v-0.7h-0.7V406h-0.7v-7.3h0.7V398H585.3z M586.1,403.1
		v-0.7h0.7v-0.7h0.7V401h0.7v-0.7h1.5v-0.7H589v-0.7h-2.9v0.7h-0.7v3.7h0.7V403.1z M585.3,404.6v0.7h0.7v0.7h2.9v-0.7h0.7v-3.7H589
		v0.7h-0.7v0.7h-0.7v0.7h-0.7v0.7h-1.6V404.6z"/>
	<path d="M597,406h1.5v1.5h-4.4V406h1.5v-5.9h-1.5v-1.5h0.7V398h0.7v-0.7h1.5V406z"/>
	<path d="M601.4,397.2h7.3v1.5h-5.9v1.5h4.4v0.7h0.7v0.7h0.7v4.4H608v0.7h-0.7v0.7h-4.4v-0.7h-0.7V406h-0.7v-1.5h1.5v0.7h0.7v0.7
		h2.9v-0.7h0.7v-2.9h-0.7v-0.7h-5.1L601.4,397.2L601.4,397.2z"/>
</g>
<g>
	<path d="M655.7,406h5.9v1.5h-7.3v-4.4h0.7v-0.7h0.7v-0.7h3.7V401h0.7v-1.5h-0.7v-0.7h-2.9v0.7h-0.7v0.7h-1.5v-1.5h0.7V398h0.7v-0.7
		h4.4v0.7h0.7v0.7h0.7v2.9h-0.7v0.7h-0.7v0.7h-3.7v0.7h-0.7L655.7,406L655.7,406z"/>
	<path d="M664.5,398v-0.7h4.4v0.7h0.7v0.7h0.7v7.3h-0.7v0.7h-0.7v0.7h-4.4v-0.7h-0.7V406H663v-7.3h0.7V398H664.5z M665.2,403.1v-0.7
		h0.7v-0.7h0.7V401h0.7v-0.7h1.5v-0.7h-0.7v-0.7h-2.9v0.7h-0.7v3.7h0.7V403.1z M664.5,404.6v0.7h0.7v0.7h2.9v-0.7h0.7v-3.7h-0.7v0.7
		h-0.7v0.7h-0.7v0.7H666v0.7h-1.5V404.6z"/>
	<path d="M676.2,406h1.5v1.5h-4.4V406h1.5v-5.9h-1.5v-1.5h0.7V398h0.7v-0.7h1.5V406z"/>
	<path d="M686.5,406.8v0.7h-4.4v-0.7h-0.7V406h-0.7v-7.3h0.7V398h0.7v-0.7h4.4v0.7h0.7v0.7h0.7v1.5h-1.5v-0.7h-0.7v-0.7h-2.9v0.7
		h-0.7v2.2h4.4v0.7h0.7v0.7h0.7v2.9h-0.7v0.7L686.5,406.8L686.5,406.8z M682.8,406h2.9v-0.7h0.7v-1.5h-0.7v-0.7H682v2.2h0.7
		L682.8,406L682.8,406z"/>
</g>
<g>
	<path d="M732.8,406h5.9v1.5h-7.3v-4.4h0.7v-0.7h0.7v-0.7h3.7V401h0.7v-1.5h-0.7v-0.7h-2.9v0.7h-0.7v0.7h-1.5v-1.5h0.7V398h0.7v-0.7
		h4.4v0.7h0.7v0.7h0.7v2.9H738v0.7h-0.7v0.7h-3.7v0.7h-0.7L732.8,406L732.8,406z"/>
	<path d="M741.6,398v-0.7h4.4v0.7h0.7v0.7h0.7v7.3h-0.7v0.7H746v0.7h-4.4v-0.7h-0.7V406h-0.7v-7.3h0.7V398H741.6z M742.4,403.1v-0.7
		h0.7v-0.7h0.7V401h0.7v-0.7h1.5v-0.7h-0.7v-0.7h-2.9v0.7h-0.7v3.7h0.7V403.1z M741.6,404.6v0.7h0.7v0.7h2.9v-0.7h0.7v-3.7h-0.7v0.7
		h-0.7v0.7h-0.7v0.7h-0.7v0.7h-1.5V404.6z"/>
	<path d="M753.3,406h1.5v1.5h-4.4V406h1.5v-5.9h-1.5v-1.5h0.7V398h0.7v-0.7h1.5V406z"/>
	<path d="M763.6,398.7h-5.9v-1.5h7.3v3.7h-0.7v0.7h-0.7v0.7h-0.7v0.7h-0.7v4.4h-1.5v-5.1h0.7v-0.7h0.7v-0.7h0.7v-0.7h0.7v-1.5H763.6
		z"/>
</g>
<g>
	<path d="M810.7,406h5.9v1.5h-7.3v-4.4h0.7v-0.7h0.7v-0.7h3.7V401h0.7v-1.5h-0.7v-0.7h-2.9v0.7h-0.7v0.7h-1.5v-1.5h0.7V398h0.7v-0.7
		h4.4v0.7h0.7v0.7h0.7v2.9h-0.7v0.7h-0.7v0.7h-3.7v0.7h-0.7L810.7,406L810.7,406z"/>
	<path d="M819.5,398v-0.7h4.4v0.7h0.7v0.7h0.7v7.3h-0.7v0.7h-0.7v0.7h-4.4v-0.7h-0.7V406h-0.7v-7.3h0.7V398H819.5z M820.2,403.1
		v-0.7h0.7v-0.7h0.7V401h0.7v-0.7h1.5v-0.7h-0.7v-0.7h-2.9v0.7h-0.7v3.7h0.7V403.1z M819.5,404.6v0.7h0.7v0.7h2.9v-0.7h0.7v-3.7
		h-0.7v0.7h-0.7v0.7h-0.7v0.7H821v0.7h-1.5V404.6z"/>
	<path d="M831.2,406h1.5v1.5h-4.4V406h1.5v-5.9h-1.5v-1.5h0.7V398h0.7v-0.7h1.5V406z"/>
	<path d="M841.5,406.8v0.7h-4.4v-0.7h-0.7V406h-0.7v-2.9h0.7v-1.5h-0.7v-2.9h0.7V398h0.7v-0.7h4.4v0.7h0.7v0.7h0.7v2.9h-0.7v1.5h0.7
		v2.9h-0.7v0.7L841.5,406.8L841.5,406.8z M840.8,398.7h-2.9v0.7h-0.7v1.5h0.7v0.7h2.9v-0.7h0.7v-1.5h-0.7V398.7z M837.8,406h2.9
		v-0.7h0.7v-1.5h-0.7v-0.7h-2.9v0.7h-0.7v1.5h0.7V406z"/>
</g>
<g>
	<path d="M887.8,406h5.9v1.5h-7.3v-4.4h0.7v-0.7h0.7v-0.7h3.7V401h0.7v-1.5h-0.7v-0.7h-2.9v0.7h-0.7v0.7h-1.5v-1.5h0.7V398h0.7v-0.7
		h4.4v0.7h0.7v0.7h0.7v2.9H893v0.7h-0.7v0.7h-3.7v0.7h-0.7L887.8,406L887.8,406z"/>
	<path d="M896.6,398v-0.7h4.4v0.7h0.7v0.7h0.7v7.3h-0.7v0.7H901v0.7h-4.4v-0.7h-0.7V406h-0.7v-7.3h0.7V398H896.6z M897.4,403.1v-0.7
		h0.7v-0.7h0.7V401h0.7v-0.7h1.5v-0.7h-0.7v-0.7h-2.9v0.7h-0.7v3.7h0.7V403.1z M896.6,404.6v0.7h0.7v0.7h2.9v-0.7h0.7v-3.7h-0.7v0.7
		h-0.7v0.7h-0.7v0.7h-0.7v0.7h-1.5V404.6z"/>
	<path d="M908.3,406h1.5v1.5h-4.4V406h1.5v-5.9h-1.5v-1.5h0.7V398h0.7v-0.7h1.5V406z"/>
	<path d="M913.5,406h-0.7v-1.5h1.5v0.7h0.7v0.7h2.9v-0.7h0.7V403h-4.4v-0.7h-0.7v-0.7h-0.7v-2.9h0.7V398h0.7v-0.7h4.4v0.7h0.7v0.7
		h0.7v7.3h-0.7v0.7h-0.7v0.7h-4.4v-0.7h-0.7V406z M918.6,401.6v-2.2h-0.7v-0.7H915v0.7h-0.7v1.5h0.7v0.7H918.6z"/>
</g>
<rect x="20" y="30" class="st17" width="30" height="30"/>
<rect x="20" y="90" class="st21" width="30" height="30"/>
<g>
	<path class="st56" d="M70,45.4v5.3h-1.8V38.4h7v0.9h0.9v0.9H77v3.5h-0.9v0.9h-0.9v0.9H70V45.4z M70,40.2v3.5h4.4v-0.9h0.9V41h-0.9
		v-0.9H70V40.2z"/>
	<path class="st56" d="M81.5,45.4h-0.9v5.3h-1.8V38.4h7v0.9h0.9v0.9h0.9v3.5h-0.9v0.9h-0.9v0.9H84v0.9h1v0.9h0.9v0.9h0.9V49h0.9v1.8
		h-1.8v-0.9H85V49h-0.9v-0.9h-0.9v-0.9h-0.9v-0.9h-0.9v-0.9H81.5z M80.6,40.2v3.5H85v-0.9h0.9V41H85v-0.9h-4.4V40.2z"/>
	<path class="st56" d="M91.1,39.3v-0.9h5.3v0.9h0.9v0.9h0.9V49h-0.9v0.9h-0.9v0.9h-5.3v-0.9h-0.9V49h-0.9v-8.8h0.9v-0.9H91.1z
		 M95.5,40.2H92V41h-0.9v7H92v1h3.5v-0.9h0.9v-7h-0.9V40.2z"/>
	<path class="st56" d="M99.9,50.7V38.4h7v0.9h0.9v0.9h0.9V49h-0.9v0.9H107v0.9h-7.1V50.7z M101.7,40.2V49h4.4v-0.9h0.9v-7h-0.9v-0.9
		C106.1,40.2,101.7,40.2,101.7,40.2z"/>
	<path class="st56" d="M111.3,49h-0.9V38.4h1.8v9.7h0.9V49h3.5v-0.9h0.9v-9.7h1.8V49h-0.9v0.9h-0.9v0.9h-5.3v-0.9h-0.9V49z"/>
	<path class="st56" d="M123.6,49h3.5v-0.9h0.9v-0.9h1.8V49h-0.9v0.9H128v0.9h-5.3v-0.9h-0.9V49H121v-8.8h0.9v-0.9h0.9v-0.9h5.3v0.9
		h0.9v0.9h0.9V42H128v-1h-0.9v-0.9h-3.5V41h-0.9v7h0.9V49z"/>
	<path class="st56" d="M135.1,40.2h-3.5v-1.8h8.8v1.8h-3.5v10.5h-1.8V40.2z"/>
	<path class="st56" d="M143.9,50.7V49h1.8v-8.8h-1.8v-1.8h5.3v1.8h-1.8V49h1.8v1.8L143.9,50.7L143.9,50.7z"/>
	<path class="st56" d="M154.4,39.3v-0.9h5.3v0.9h0.9v0.9h0.9V49h-0.9v0.9h-0.9v0.9h-5.3v-0.9h-0.9V49h-0.9v-8.8h0.9v-0.9H154.4z
		 M158.8,40.2h-3.5V41h-0.9v7h0.9v1h3.5v-0.9h0.9v-7h-0.9V40.2z"/>
	<path class="st56" d="M165,43.7v7h-1.8V38.4h1.8V41h0.9v0.9h0.9v0.9h0.9v0.9h0.9v0.9h0.9v0.9h0.9v-7h1.8v12.3h-1.8v-2.6h-0.9v-0.9
		h-0.9v-0.9h-0.9v-0.9h-0.9v-0.9h-0.9v-0.9H165z"/>
	<path class="st56" d="M187.8,40.2h-3.5v-1.8h8.8v1.8h-3.5v10.5h-1.8V40.2z"/>
	<path class="st56" d="M197.5,45.4h-0.9v5.3h-1.8V38.4h7v0.9h0.9v0.9h0.9v3.5h-0.9v0.9h-0.9v0.9H200v0.9h0.9v0.9h0.9v0.9h0.9V49h0.9
		v1.8h-1.8v-0.9H201V49h-0.9v-0.9h-0.9v-0.9h-0.9v-0.9h-0.9L197.5,45.4L197.5,45.4z M196.6,40.2v3.5h4.4v-0.9h0.9V41H201v-0.9h-4.4
		V40.2z"/>
	<path class="st56" d="M214.2,38.4v1.8h-7v3.5h5.3v1.8h-5.3V49h7v1.8h-8.8V38.4H214.2z"/>
	<path class="st56" d="M217.7,43.7v7h-1.8V38.4h1.8V41h0.9v0.9h0.9v0.9h0.9v0.9h0.9v0.9h0.9v0.9h0.9v-7h1.8v12.3H223v-2.6h-0.9v-0.9
		h-0.9v-0.9h-0.9v-0.9h-0.9v-0.9h-0.9v-0.9H217.7z"/>
	<path class="st56" d="M226.5,50.7V38.4h7v0.9h0.9v0.9h0.9V49h-0.9v0.9h-0.9v0.9h-7V50.7z M228.2,40.2V49h4.4v-0.9h0.9v-7h-0.9v-0.9
		C232.6,40.2,228.2,40.2,228.2,40.2z"/>
	<path class="st56" d="M247.6,50.7V38.4h1.8V49h7v1.8L247.6,50.7L247.6,50.7z"/>
	<path class="st56" d="M259.9,50.7V49h1.8v-8.8h-1.8v-1.8h5.3v1.8h-1.8V49h1.8v1.8L259.9,50.7L259.9,50.7z"/>
	<path class="st56" d="M270.4,43.7v7h-1.8V38.4h1.8V41h0.9v0.9h0.9v0.9h0.9v0.9h0.9v0.9h0.9v0.9h0.9v-7h1.8v12.3h-1.8v-2.6h-0.9
		v-0.9H274v-0.9h-0.9v-0.9h-0.9v-0.9h-0.9v-0.9H270.4z"/>
	<path class="st56" d="M288,38.4v1.8h-7v3.5h5.3v1.8H281V49h7v1.8h-8.8V38.4H288z"/>
</g>
<g>
	<path class="st56" d="M68.3,110.7V98.4h7v0.9h0.9v0.9h0.9v8.8h-0.9v0.9h-0.9v0.9h-7V110.7z M70,100.2v8.8h4.4v-0.9h0.9v-7h-0.9
		v-0.9H70z"/>
	<path class="st56" d="M87.6,98.4v1.8h-7v3.5h5.3v1.8h-5.3v3.5h7v1.8h-8.8V98.4H87.6z"/>
	<path class="st56" d="M91.1,110.7h-1.8V98.4h1.8v1.8H92v0.9h0.9v0.9h1.8v-1h0.9v-0.9h0.9v-1.8h1.8v12.3h-1.8v-7.9h-0.9v0.9h-0.9
		v1.8h-1.8v-1.8H92v-0.9h-0.9V110.7z"/>
	<path class="st56" d="M101.7,110.7h-1.8v-8.8h0.9V101h0.9v-0.9h0.9v-0.9h0.9v-0.9h1.8v0.9h0.9v0.9h0.9v0.9h0.9v0.9h0.9v8.8H107
		v-3.5h-5.3V110.7z M101.7,105.4h5.3v-2.6h-0.9v-0.9h-0.9V101h-1.8v0.9h-0.9v0.9h-0.9v2.6H101.7z"/>
	<path class="st56" d="M112.2,103.7v7h-1.8V98.4h1.8v2.6h0.9v0.9h0.9v0.9h0.9v0.9h0.9v0.9h0.9v0.9h0.9v-7h1.8v12.3h-1.8v-2.6h-0.9
		v-0.9h-0.9v-0.9h-0.9v-0.9H114v-0.9h-0.9v-0.9C113.1,103.7,112.2,103.7,112.2,103.7z"/>
	<path class="st56" d="M121,110.7V98.4h7v0.9h0.9v0.9h0.9v8.8h-0.9v0.9H128v0.9h-7V110.7z M122.8,100.2v8.8h4.4v-0.9h0.9v-7h-0.9
		v-0.9H122.8z"/>
</g>
<g>
	<path d="M455.5,150.7V150h4.4v0.7h0.7v0.7h0.7v7.3h-0.7v0.7h-0.7v0.7h-4.4v-0.7h-0.7v-0.7H454v-7.3h0.7v-0.7H455.5z M459.1,151.5
		h-2.9v0.7h-0.7v5.9h0.7v0.7h2.9v-0.7h0.7v-5.9h-0.7V151.5z"/>
	<path d="M463.5,157.3h-0.7V150h1.5v6.6h0.7v0.7h0.7v0.7h1.5v-0.7h0.7v-0.7h0.7V150h1.5v7.3h-0.7v0.7h-0.7v0.7H468v0.7h-0.7v0.7
		h-1.5v-0.7H465v-0.7h-0.7V158h-0.7L463.5,157.3L463.5,157.3z"/>
	<path d="M478.9,150v1.5H473v2.9h4.4v1.5H473v2.9h5.9v1.5h-7.3V150H478.9z"/>
	<path d="M482.6,155.9h-0.7v4.4h-1.5V150h5.9v0.7h0.7v0.7h0.7v2.9H487v0.7h-0.7v0.7h-1.5v0.7h0.7v0.7h0.7v0.7h0.7v0.7h0.7v1.5h-1.5
		v-0.7h-0.7v-0.7h-0.7v-0.7H484v-0.7h-0.7v-0.7h-0.7L482.6,155.9L482.6,155.9z M481.8,151.5v2.9h3.7v-0.7h0.7v-1.5h-0.7v-0.7H481.8z
		"/>
	<path d="M490.6,155.9v4.4h-1.5V150h5.9v0.7h0.7v0.7h0.7v2.9h-0.7v0.7H495v0.7h-4.4V155.9z M490.6,151.5v2.9h3.7v-0.7h0.7v-1.5h-0.7
		v-0.7H490.6z"/>
	<path d="M500.2,155.9h-0.7v4.4H498V150h5.9v0.7h0.7v0.7h0.7v2.9h-0.7v0.7h-0.7v0.7h-1.5v0.7h0.7v0.7h0.7v0.7h0.7v0.7h0.7v1.5h-1.5
		v-0.7H503v-0.7h-0.7v-0.7h-0.7v-0.7h-0.7v-0.7h-0.7L500.2,155.9L500.2,155.9z M499.4,151.5v2.9h3.7v-0.7h0.7v-1.5h-0.7v-0.7H499.4z
		"/>
	<path d="M508.2,150.7V150h4.4v0.7h0.7v0.7h0.7v7.3h-0.7v0.7h-0.7v0.7h-4.4v-0.7h-0.7v-0.7h-0.7v-7.3h0.7v-0.7H508.2z M511.9,151.5
		H509v0.7h-0.7v5.9h0.7v0.7h2.9v-0.7h0.7v-5.9h-0.7L511.9,151.5L511.9,151.5z"/>
	<path d="M515.5,160.2V150h5.9v0.7h0.7v0.7h0.7v7.3h-0.7v0.7h-0.7v0.7h-5.9V160.2z M517,151.5v7.3h3.7v-0.7h0.7v-5.9h-0.7v-0.7
		L517,151.5L517,151.5z"/>
	<path d="M525.1,158.8h-0.7V150h1.5v8.1h0.7v0.7h2.9v-0.7h0.7V150h1.5v8.8H531v0.7h-0.7v0.7h-4.4v-0.7h-0.7L525.1,158.8L525.1,158.8
		z"/>
	<path d="M535.3,158.8h2.9v-0.7h0.7v-0.7h1.5v1.5h-0.7v0.7H539v0.7h-4.4v-0.7h-0.7v-0.7h-0.7v-7.3h0.7v-0.7h0.7V150h4.4v0.7h0.7v0.7
		h0.7v1.5H539v-0.7h-0.7v-0.7h-2.9v0.7h-0.7v5.9h0.7L535.3,158.8L535.3,158.8z"/>
	<path d="M544.8,151.5h-2.9V150h7.3v1.5h-2.9v8.8h-1.5L544.8,151.5L544.8,151.5z"/>
	<path d="M552.2,160.2v-1.5h1.5v-7.3h-1.5V150h4.4v1.5h-1.5v7.3h1.5v1.5h-4.4V160.2z"/>
	<path d="M560.9,150.7V150h4.4v0.7h0.7v0.7h0.7v7.3H566v0.7h-0.7v0.7h-4.4v-0.7h-0.7v-0.7h-0.7v-7.3h0.7v-0.7H560.9z M564.6,151.5
		h-2.9v0.7H561v5.9h0.7v0.7h2.9v-0.7h0.7v-5.9h-0.7V151.5z"/>
	<path d="M569.7,154.4v5.9h-1.5V150h1.5v2.2h0.7v0.7h0.7v0.7h0.7v0.7h0.7v0.7h0.7v0.7h0.7V150h1.5v10.3h-1.5v-2.2h-0.7v-0.7h-0.7
		v-0.7h-0.7V156h-0.7v-0.7h-0.7v-0.7h-0.7V154.4z"/>
</g>
<g>
	<path d="M80.7,335.2v-10.3h1.5v8.8H88v1.5H80.7z"/>
	<path d="M90.9,325.7V325h4.4v0.7H96v0.7h0.7v7.3H96v0.7h-0.7v0.7h-4.4v-0.7h-0.7v-0.7h-0.7v-7.3h0.7v-0.7H90.9z M94.6,326.4h-2.9
		v0.7H91v5.9h0.7v0.7h2.9V333h0.7v-5.9h-0.7V326.4z"/>
	<path d="M98.2,324.9h1.5v8.1h1.5v-3.7h1.5v3.7h1.5v-8.1h1.5v8.8H105v0.7h-0.7v0.7h-1.5v-0.7h-1.5v0.7h-1.5v-0.7H99v-0.7h-0.7v-8.8
		H98.2z"/>
	<path d="M116.6,332.3h-0.7V325h1.5v6.6h0.7v0.7h0.7v0.7h1.5v-0.7h0.7v-0.7h0.7V325h1.5v7.3h-0.7v0.7h-0.7v0.7h-0.7v0.7h-0.7v0.7
		h-1.5v-0.7H118v-0.7h-0.7V333h-0.7C116.6,333,116.6,332.3,116.6,332.3z"/>
	<path d="M126.1,325.7V325h4.4v0.7h0.7v0.7h0.7v7.3h-0.7v0.7h-0.7v0.7h-4.4v-0.7h-0.7v-0.7h-0.7v-7.3h0.7v-0.7H126.1z M129.7,326.4
		h-2.9v0.7h-0.7v5.9h0.7v0.7h2.9V333h0.7v-5.9h-0.7V326.4z"/>
	<path d="M133.4,335.2v-10.3h1.5v8.8h5.9v1.5H133.4z"/>
	<path d="M142.9,333.7h-0.7v-8.8h1.5v8.1h0.7v0.7h2.9V333h0.7v-8.1h1.5v8.8h-0.7v0.7H148v0.7h-4.4v-0.7h-0.7L142.9,333.7
		L142.9,333.7z"/>
	<path d="M152.4,335.2H151v-10.3h1.5v1.5h0.7v0.7h0.7v0.7h1.5v-0.7h0.7v-0.7h0.7v-1.5h1.5v10.3h-1.5v-6.6h-0.7v0.7h-0.7v1.5h-1.5
		v-1.5h-0.7v-0.7h-0.7v6.6H152.4z"/>
	<path d="M167.1,324.9v1.5h-5.9v2.9h4.4v1.5h-4.4v2.9h5.9v1.5h-7.3v-10.3H167.1z"/>
</g>
<g>
	<path d="M723.6,243.4h0.7v1.5h-1.5v-0.7h-0.7v-0.7h-2.9v0.7h-0.7v1.5h0.7v0.7h3.7v0.7h0.7v0.7h0.7v2.9h-0.7v0.7h-0.7v0.7h-4.4v-0.7
		h-0.7v-0.7h-0.7v-1.5h1.5v0.7h0.7v0.7h2.9V250h0.7v-1.5h-0.7v-0.7h-3.7V247h-0.7v-0.7h-0.7v-2.9h0.7v-0.7h0.7V242h4.4v0.7h0.7
		V243.4z"/>
	<path d="M728.8,243.4h-2.9v-1.5h7.3v1.5h-2.9v8.8h-1.5L728.8,243.4L728.8,243.4z"/>
	<path d="M736.1,252.2h-1.5v-7.3h0.7v-0.7h0.7v-0.7h0.7v-0.7h0.7v-0.7h1.5v0.7h0.7v0.7h0.7v0.7h0.7v0.7h0.7v7.3h-1.5v-2.9h-4.4v2.9
		H736.1z M736.1,247.8h4.4v-2.2h-0.7v-0.7H739v-0.7h-1.5v0.7h-0.7v0.7h-0.7V247.8z"/>
	<path d="M743.4,252.2v-10.3h5.9v0.7h0.7v0.7h0.7v2.9H750v1.5h0.7v2.9H750v0.7h-0.7v0.7h-5.9V252.2z M744.9,246.3h3.7v-0.7h0.7v-1.5
		h-0.7v-0.7h-3.7V246.3z M744.9,250.7h3.7V250h0.7v-1.5h-0.7v-0.7h-3.7V250.7z"/>
	<path d="M753.7,252.2v-1.5h1.5v-7.3h-1.5v-1.5h4.4v1.5h-1.5v7.3h1.5v1.5H753.7z"/>
	<path d="M761,252.2v-10.3h1.5v8.8h5.9v1.5H761z"/>
	<path d="M771.3,252.2v-1.5h1.5v-7.3h-1.5v-1.5h4.4v1.5h-1.5v7.3h1.5v1.5H771.3z"/>
	<path d="M784.4,244.1v-0.7h-5.9v-1.5h7.3v2.9h-0.7v0.7h-0.7v0.7h-0.7v0.7H783v0.7h-0.7v0.7h-0.7v0.7h-0.7v0.7H780v0.7h5.9v1.5h-7.3
		V249h0.7v-0.7h0.7v-0.7h0.7V247h0.7v-0.7h0.7v-0.7h0.7v-0.7h0.7v-0.7h0.9V244.1z"/>
	<path d="M788.8,252.2h-1.5v-7.3h0.7v-0.7h0.7v-0.7h0.7v-0.7h0.7v-0.7h1.5v0.7h0.7v0.7h0.7v0.7h0.7v0.7h0.7v7.3h-1.5v-2.9h-4.4v2.9
		H788.8z M788.8,247.8h4.4v-2.2h-0.7v-0.7h-0.7v-0.7h-1.5v0.7h-0.7v0.7h-0.7L788.8,247.8L788.8,247.8z"/>
	<path d="M799.1,243.4h-2.9v-1.5h7.3v1.5h-2.9v8.8h-1.5L799.1,243.4L799.1,243.4z"/>
	<path d="M806.4,252.2v-1.5h1.5v-7.3h-1.5v-1.5h4.4v1.5h-1.5v7.3h1.5v1.5H806.4z"/>
	<path d="M815.2,242.6v-0.7h4.4v0.7h0.7v0.7h0.7v7.3h-0.7v0.7h-0.7v0.7h-4.4v-0.7h-0.7v-0.7h-0.7v-7.3h0.7v-0.7H815.2z M818.9,243.4
		H816v0.7h-0.7v5.9h0.7v0.7h2.9V250h0.7v-5.9h-0.7V243.4z"/>
	<path d="M824,246.3v5.9h-1.5v-10.3h1.5v2.2h0.7v0.7h0.7v0.7h0.7v0.7h0.7v0.7h0.7v0.7h0.7v-5.9h1.5V252h-1.5v-2h-0.7v-0.7h-0.7v-0.7
		h-0.7v-0.7h-0.7V247h-0.7v-0.7H824z"/>
</g>
</svg>
