<?xml version="1.0" encoding="utf-8"?>
<!-- Generator: Adobe Illustrator 25.2.3, SVG Export Plug-In . SVG Version: 6.00 Build 0)  -->
<svg version="1.1" xmlns="http://www.w3.org/2000/svg" xmlns:xlink="http://www.w3.org/1999/xlink" x="0px" y="0px"
	 viewBox="0 0 950 450" style="enable-background:new 0 0 950 450;" xml:space="preserve">
<style type="text/css">
	.st0{stroke:#000000;stroke-width:0.5;stroke-miterlimit:10;}
	.st1{fill:none;stroke:#E1E1DF;stroke-miterlimit:10;}
	.st2{stroke:#000000;stroke-width:0.25;stroke-miterlimit:10;}
	.st3{fill:#3FA0A7;}
	.st4{fill:#7DC0C9;}
	.st5{fill:#FFFFFF;}
	.st6{fill:#EE5E2F;stroke:#EE5E2F;stroke-width:0.5;stroke-miterlimit:10;}
	.st7{fill:#EE5E2F;}
	.st8{fill:#F3A634;stroke:#F3A634;stroke-width:0.5;stroke-miterlimit:10;}
	.st9{fill:#F3A634;}
	.st10{fill:#35BCC0;stroke:#35BCC0;stroke-width:0.5;stroke-miterlimit:10;}
	.st11{fill:#35BCC0;}
	.st12{fill:#3E9B50;stroke:#3E9B50;stroke-width:0.5;stroke-miterlimit:10;}
	.st13{fill:#3E9B50;}
</style>
<g id="Layer_2">
	<g>
		<path class="st0" d="M109.4,164h-1v-9.7h1.9v8.7h1v1h1v1h1.9v-1h1v-1h1v-8.7h1.9v9.7h-1v1h-1v1h-1v1h-1v1h-1.9v-1h-1v-1h-1v-1h-1
			V164z"/>
		<path class="st0" d="M129.7,154.4v1.9H122v3.9h5.8v1.9H122v3.9h7.7v1.9H120v-13.5H129.7z"/>
		<path class="st0" d="M134.5,162.1h-1v5.8h-1.9v-13.5h7.7v1h1v1h1v3.9h-1v1h-1v1h-1.9v1h1v1h1v1h1v1h1v1.9h-1.9v-1h-1v-1h-1v-1h-1
			v-1h-1v-1h-1V162.1z M133.5,156.3v3.9h4.8v-1h1v-1.9h-1v-1H133.5z"/>
		<path class="st0" d="M149,167.9h-1.9v-4.8h-1v-1h-1v-1h-1v-1h-1v-5.8h1.9v4.8h1v1h1v1h1.9v-1h1v-1h1v-4.8h1.9v5.8h-1v1h-1v1h-1v1
			h-1V167.9z"/>
		<path class="st0" d="M168.3,162.1v5.8h-1.9v-13.5h1.9v5.8h5.8v-5.8h1.9v13.5h-1.9v-5.8H168.3z"/>
		<path class="st0" d="M179.9,167.9V166h1.9v-9.7h-1.9v-1.9h5.8v1.9h-1.9v9.7h1.9v1.9H179.9z"/>
		<path class="st0" d="M198.2,156.3h1v1.9h-1.9v-1h-1v-1h-3.9v1h-1v7.7h1v1h3.9v-1h1v-2.9h-2.9v-1.9h4.8v5.8h-1v1h-1v1h-5.8v-1h-1
			v-1h-1v-9.7h1v-1h1v-1h5.8v1h1V156.3z"/>
		<path class="st0" d="M203.1,162.1v5.8h-1.9v-13.5h1.9v5.8h5.8v-5.8h1.9v13.5h-1.9v-5.8H203.1z"/>
	</g>
	<g>
		<path class="st0" d="M168.3,211.6v5.8h-1.9v-13.5h1.9v5.8h5.8v-5.8h1.9v13.5h-1.9v-5.8H168.3z"/>
		<path class="st0" d="M179.9,217.4v-1.9h1.9v-9.7h-1.9v-1.9h5.8v1.9h-1.9v9.7h1.9v1.9H179.9z"/>
		<path class="st0" d="M198.2,205.8h1v1.9h-1.9v-1h-1v-1h-3.9v1h-1v7.7h1v1h3.9v-1h1v-2.9h-2.9v-1.9h4.8v5.8h-1v1h-1v1h-5.8v-1h-1
			v-1h-1v-9.7h1v-1h1v-1h5.8v1h1V205.8z"/>
		<path class="st0" d="M203.1,211.6v5.8h-1.9v-13.5h1.9v5.8h5.8v-5.8h1.9v13.5h-1.9v-5.8H203.1z"/>
	</g>
	<g>
		<path class="st0" d="M122,266.2H120v-13.5h1.9v1.9h1v1h1v1h1.9v-1h1v-1h1v-1.9h1.9v13.5h-1.9v-8.7h-1v1h-1v1.9h-1.9v-1.9h-1v-1h-1
			V266.2z"/>
		<path class="st0" d="M133.5,253.7v-1h5.8v1h1v1h1v9.7h-1v1h-1v1h-5.8v-1h-1v-1h-1v-9.7h1v-1H133.5z M138.4,254.7h-3.9v1h-1v7.7h1
			v1h3.9v-1h1v-7.7h-1V254.7z"/>
		<path class="st0" d="M143.2,266.2v-13.5h7.7v1h1v1h1v9.7h-1v1h-1v1H143.2z M145.1,254.7v9.7h4.8v-1h1v-7.7h-1v-1H145.1z"/>
		<path class="st0" d="M164.4,252.7v1.9h-7.7v3.9h5.8v1.9h-5.8v3.9h7.7v1.9h-9.7v-13.5H164.4z"/>
		<path class="st0" d="M169.3,260.4h-1v5.8h-1.9v-13.5h7.7v1h1v1h1v3.9h-1v1h-1v1h-1.9v1h1v1h1v1h1v1h1v1.9h-1.9v-1h-1v-1h-1v-1h-1
			v-1h-1v-1h-1V260.4z M168.3,254.7v3.9h4.8v-1h1v-1.9h-1v-1H168.3z"/>
		<path class="st0" d="M179.9,266.2H178v-9.7h1v-1h1v-1h1v-1h1v-1h1.9v1h1v1h1v1h1v1h1v9.7h-1.9v-3.9h-5.8V266.2z M179.9,260.4h5.8
			v-2.9h-1v-1h-1v-1h-1.9v1h-1v1h-1V260.4z"/>
		<path class="st0" d="M193.4,254.7h-3.9v-1.9h9.7v1.9h-3.9v11.6h-1.9V254.7z"/>
		<path class="st0" d="M210.8,252.7v1.9h-7.7v3.9h5.8v1.9h-5.8v3.9h7.7v1.9h-9.7v-13.5H210.8z"/>
	</g>
	<g>
		<path class="st0" d="M178,316.1v-13.5h1.9v11.6h7.7v1.9H178z"/>
		<path class="st0" d="M191.5,303.5v-1h5.8v1h1v1h1v9.7h-1v1h-1v1h-5.8v-1h-1v-1h-1v-9.7h1v-1H191.5z M196.3,304.5h-3.9v1h-1v7.7h1
			v1h3.9v-1h1v-7.7h-1V304.5z"/>
		<path class="st0" d="M201.1,302.6h1.9v10.6h1.9v-4.8h1.9v4.8h1.9v-10.6h1.9v11.6h-1v1h-1v1h-1.9v-1H205v1h-1.9v-1h-1v-1h-1V302.6z
			"/>
	</g>
	<line class="st1" x1="241.7" y1="137.5" x2="899.9" y2="137.2"/>
	<line class="st1" x1="241.9" y1="186" x2="900.2" y2="185.7"/>
	<line class="st1" x1="242.3" y1="235.4" x2="900.5" y2="235.1"/>
	<line class="st1" x1="242.4" y1="285.1" x2="900.6" y2="284.8"/>
	<line class="st1" x1="242.4" y1="335.1" x2="900.7" y2="334.8"/>
	<g>
		<path class="st2" d="M293.3,363.4v1h-1.9v-1.9h1v-1h1v-1h1v-1h1v-1h1v-1h1v-1h-1v-1h-1v-1h-1v-1h-1v-1h-1v-1h-1v-1.9h1.9v1h1v1h1
			v1h1v1h1v1h1v1h1v2.9h-1v1h-1v1h-1v1h-1v1h-1v1H293.3z"/>
		<path class="st2" d="M303,362.5h-1v-1.9h1.9v1h1v1h3.9v-1h1v-1.9h-1v-1h-2.9v-1.9h2.9v-1h1v-1.9h-1v-1h-3.9v1h-1v1H302v-1.9h1v-1
			h1v-1h5.8v1h1v1h1v3.9h-1v1.9h1v3.9h-1v1h-1v1h-5.8v-1h-1V362.5z"/>
		<path class="st2" d="M315.5,351.8v-1h5.8v1h1v1h1v9.7h-1v1h-1v1h-5.8v-1h-1v-1h-1v-9.7h1v-1H315.5z M316.5,358.6v-1h1v-1h1v-1h1
			v-1h1.9v-1h-1v-1h-3.9v1h-1v4.8H316.5z M315.5,360.5v1h1v1h3.9v-1h1v-4.8h-1v1h-1v1h-1v1h-1v1H315.5z"/>
		<path class="st2" d="M327.1,351.8v-1h5.8v1h1v1h1v9.7h-1v1h-1v1h-5.8v-1h-1v-1h-1v-9.7h1v-1H327.1z M328.1,358.6v-1h1v-1h1v-1h1
			v-1h1.9v-1h-1v-1h-3.9v1h-1v4.8H328.1z M327.1,360.5v1h1v1h3.9v-1h1v-4.8h-1v1h-1v1h-1v1h-1v1H327.1z"/>
		<path class="st2" d="M338.7,351.8v-1h5.8v1h1v1h1v9.7h-1v1h-1v1h-5.8v-1h-1v-1h-1v-9.7h1v-1H338.7z M339.6,358.6v-1h1v-1h1v-1h1
			v-1h1.9v-1h-1v-1h-3.9v1h-1v4.8H339.6z M338.7,360.5v1h1v1h3.9v-1h1v-4.8h-1v1h-1v1h-1v1h-1v1H338.7z"/>
		<path class="st2" d="M350.3,356.7v1h-1v-1.9h1v-1h1v-1h-1v-1h-1v-1.9h1v1h1v1h1v-2.9h1.9v2.9h1v-1h1v-1h1v1.9h-1v1h-1v1h1v1h1v1.9
			h-1v-1h-1v-1h-1v2.9h-1.9v-2.9h-1v1H350.3z"/>
		<path class="st2" d="M290.4,388.1v-13.5h1.9v11.6h7.7v1.9H290.4z"/>
		<path class="st2" d="M305.9,376.5H302v-1.9h9.7v1.9h-3.9v11.6h-1.9V376.5z"/>
		<path class="st2" d="M322.3,376.5h1v1.9h-1.9v-1h-1v-1h-3.9v1h-1v1.9h1v1h4.8v1h1v1h1v3.9h-1v1h-1v1h-5.8v-1h-1v-1h-1v-1.9h1.9v1
			h1v1h3.9v-1h1v-1.9h-1v-1h-4.8v-1h-1v-1h-1v-3.9h1v-1h1v-1h5.8v1h1V376.5z"/>
		<path class="st2" d="M332.9,374.6h1.9v3.9h-1v1h-1v1h-1v1h-1v1h-1v1h-1v1h-1v1h-1v2.9h-1.9v-3.9h1v-1h1v-1h1v-1h1v-1h1v-1h1v-1h1
			v-1h1V374.6z"/>
		<path class="st2" d="M338.7,382.3v5.8h-1.9v-13.5h1.9v5.8h1v-1h1v-1h1v-1h1v-1h1v-1h1v-1h1.9v1.9h-1v1h-1v1h-1v1h-1v1h-1v1.9h1v1
			h1v1h1v1h1v1h1v1.9h-1.9v-1h-1v-1h-1v-1h-1v-1h-1v-1h-1v-1H338.7z"/>
		<path class="st2" d="M357,376.5h1v1.9h-1.9v-1h-1v-1h-3.9v1h-1v7.7h1v1h3.9v-1h1v-2.9h-2.9v-1.9h4.8v5.8h-1v1h-1v1h-5.8v-1h-1v-1
			h-1v-9.7h1v-1h1v-1h5.8v1h1V376.5z"/>
	</g>
	<g>
		<path class="st2" d="M461.9,362.5h1.9v1.9h-5.8v-1.9h1.9v-7.7h-1.9v-1.9h1v-1h1v-1h1.9V362.5z"/>
		<path class="st2" d="M475.4,363.4v1h-5.8v-1h-1v-1h-1v-9.7h1v-1h1v-1h5.8v1h1v1h1v1.9h-1.9v-1h-1v-1h-3.9v1h-1v2.9h5.8v1h1v1h1
			v3.9h-1v1H475.4z M470.6,362.5h3.9v-1h1v-1.9h-1v-1h-4.8v2.9h1V362.5z"/>
		<path class="st2" d="M483.2,362.5v-1.9h1.9v1.9h-1v1h-1v1h-1.9v-1h1v-1H483.2z"/>
		<path class="st2" d="M492.8,351.8v-1h5.8v1h1v1h1v9.7h-1v1h-1v1h-5.8v-1h-1v-1h-1v-9.7h1v-1H492.8z M493.8,358.6v-1h1v-1h1v-1h1
			v-1h1.9v-1h-1v-1h-3.9v1h-1v4.8H493.8z M492.8,360.5v1h1v1h3.9v-1h1v-4.8h-1v1h-1v1h-1v1h-1v1H492.8z"/>
		<path class="st2" d="M503.4,362.5h-1v-1.9h1.9v1h1v1h3.9v-1h1v-2.9h-5.8v-1h-1v-1h-1v-3.9h1v-1h1v-1h5.8v1h1v1h1v9.7h-1v1h-1v1
			h-5.8v-1h-1V362.5z M510.2,356.7v-2.9h-1v-1h-3.9v1h-1v1.9h1v1H510.2z"/>
		<path class="st2" d="M514,350.9h9.7v1.9H516v1.9h5.8v1h1v1h1v5.8h-1v1h-1v1H516v-1h-1v-1h-1v-1.9h1.9v1h1v1h3.9v-1h1v-3.9h-1v-1
			H514V350.9z"/>
		<path class="st2" d="M456.1,388.1v-13.5h1.9v11.6h7.7v1.9H456.1z"/>
		<path class="st2" d="M471.6,376.5h-3.9v-1.9h9.7v1.9h-3.9v11.6h-1.9V376.5z"/>
		<path class="st2" d="M488,376.5h1v1.9H487v-1h-1v-1h-3.9v1h-1v1.9h1v1h4.8v1h1v1h1v3.9h-1v1h-1v1h-5.8v-1h-1v-1h-1v-1.9h1.9v1h1v1
			h3.9v-1h1v-1.9h-1v-1h-4.8v-1h-1v-1h-1v-3.9h1v-1h1v-1h5.8v1h1V376.5z"/>
		<path class="st2" d="M498.6,374.6h1.9v3.9h-1v1h-1v1h-1v1h-1v1h-1v1h-1v1h-1v1h-1v2.9h-1.9v-3.9h1v-1h1v-1h1v-1h1v-1h1v-1h1v-1h1
			v-1h1V374.6z"/>
		<path class="st2" d="M504.4,382.3v5.8h-1.9v-13.5h1.9v5.8h1v-1h1v-1h1v-1h1v-1h1v-1h1v-1h1.9v1.9h-1v1h-1v1h-1v1h-1v1h-1v1.9h1v1
			h1v1h1v1h1v1h1v1.9h-1.9v-1h-1v-1h-1v-1h-1v-1h-1v-1h-1v-1H504.4z"/>
		<path class="st2" d="M522.7,376.5h1v1.9h-1.9v-1h-1v-1h-3.9v1h-1v7.7h1v1h3.9v-1h1v-2.9h-2.9v-1.9h4.8v5.8h-1v1h-1v1H516v-1h-1v-1
			h-1v-9.7h1v-1h1v-1h5.8v1h1V376.5z"/>
	</g>
	<g>
		<path class="st2" d="M633.1,356.7v-1h2.9v1h1v1h1.9v-1h1v-1h1v1.9h-1v1h-1v1H636v-1h-1v-1h-1.9v1h-1v1h-1v-1.9h1v-1H633.1z"/>
		<path class="st2" d="M643.8,362.5h-1v-1.9h1.9v1h1v1h3.9v-1h1v-1.9h-1v-1h-2.9v-1.9h2.9v-1h1v-1.9h-1v-1h-3.9v1h-1v1h-1.9v-1.9h1
			v-1h1v-1h5.8v1h1v1h1v3.9h-1v1.9h1v3.9h-1v1h-1v1h-5.8v-1h-1V362.5z"/>
		<path class="st2" d="M662.1,363.4v1h-5.8v-1h-1v-1h-1v-9.7h1v-1h1v-1h5.8v1h1v1h1v1.9h-1.9v-1h-1v-1h-3.9v1h-1v2.9h5.8v1h1v1h1
			v3.9h-1v1H662.1z M657.3,362.5h3.9v-1h1v-1.9h-1v-1h-4.8v2.9h1V362.5z"/>
		<path class="st2" d="M673.7,363.4v1h-5.8v-1h-1v-1h-1v-3.9h1v-1.9h-1v-3.9h1v-1h1v-1h5.8v1h1v1h1v3.9h-1v1.9h1v3.9h-1v1H673.7z
			 M672.7,352.8h-3.9v1h-1v1.9h1v1h3.9v-1h1v-1.9h-1V352.8z M668.9,362.5h3.9v-1h1v-1.9h-1v-1h-3.9v1h-1v1.9h1V362.5z"/>
		<path class="st2" d="M619.6,388.1v-13.5h1.9v11.6h7.7v1.9H619.6z"/>
		<path class="st2" d="M635.1,376.5h-3.9v-1.9h9.7v1.9H637v11.6h-1.9V376.5z"/>
		<path class="st2" d="M651.5,376.5h1v1.9h-1.9v-1h-1v-1h-3.9v1h-1v1.9h1v1h4.8v1h1v1h1v3.9h-1v1h-1v1h-5.8v-1h-1v-1h-1v-1.9h1.9v1
			h1v1h3.9v-1h1v-1.9h-1v-1h-4.8v-1h-1v-1h-1v-3.9h1v-1h1v-1h5.8v1h1V376.5z"/>
		<path class="st2" d="M662.1,374.6h1.9v3.9h-1v1h-1v1h-1v1h-1v1h-1v1h-1v1h-1v1h-1v2.9h-1.9v-3.9h1v-1h1v-1h1v-1h1v-1h1v-1h1v-1h1
			v-1h1V374.6z"/>
		<path class="st2" d="M667.9,382.3v5.8H666v-13.5h1.9v5.8h1v-1h1v-1h1v-1h1v-1h1v-1h1v-1h1.9v1.9h-1v1h-1v1h-1v1h-1v1h-1v1.9h1v1h1
			v1h1v1h1v1h1v1.9h-1.9v-1h-1v-1h-1v-1h-1v-1h-1v-1h-1v-1H667.9z"/>
		<path class="st2" d="M686.2,376.5h1v1.9h-1.9v-1h-1v-1h-3.9v1h-1v7.7h1v1h3.9v-1h1v-2.9h-2.9v-1.9h4.8v5.8h-1v1h-1v1h-5.8v-1h-1
			v-1h-1v-9.7h1v-1h1v-1h5.8v1h1V376.5z"/>
	</g>
	<g>
		<path class="st2" d="M798.9,356.7v-1h2.9v1h1v1h1.9v-1h1v-1h1v1.9h-1v1h-1v1h-2.9v-1h-1v-1h-1.9v1h-1v1h-1v-1.9h1v-1H798.9z"/>
		<path class="st2" d="M814.3,351.8v-1h1.9v7.7h1.9v1.9h-1.9v3.9h-1.9v-3.9h-5.8v-3.9h1v-1h1v-1h1v-1h1v-1h1v-1H814.3z M814.3,358.6
			v-3.9h-1v1h-1v1h-1v1h-1v1H814.3z"/>
		<path class="st2" d="M827.8,352.8h-7.7v-1.9h9.7v4.8h-1v1h-1v1h-1v1h-1v5.8H824v-6.8h1v-1h1v-1h1v-1h1V352.8z"/>
		<path class="st2" d="M833.6,362.5h7.7v1.9h-9.7v-5.8h1v-1h1v-1h4.8v-1h1v-1.9h-1v-1h-3.9v1h-1v1h-1.9v-1.9h1v-1h1v-1h5.8v1h1v1h1
			v3.9h-1v1h-1v1h-4.8v1h-1V362.5z"/>
		<path class="st2" d="M785.3,388.1v-13.5h1.9v11.6h7.7v1.9H785.3z"/>
		<path class="st2" d="M800.8,376.5h-3.9v-1.9h9.7v1.9h-3.9v11.6h-1.9V376.5z"/>
		<path class="st2" d="M817.2,376.5h1v1.9h-1.9v-1h-1v-1h-3.9v1h-1v1.9h1v1h4.8v1h1v1h1v3.9h-1v1h-1v1h-5.8v-1h-1v-1h-1v-1.9h1.9v1
			h1v1h3.9v-1h1v-1.9h-1v-1h-4.8v-1h-1v-1h-1v-3.9h1v-1h1v-1h5.8v1h1V376.5z"/>
		<path class="st2" d="M827.8,374.6h1.9v3.9h-1v1h-1v1h-1v1h-1v1h-1v1h-1v1h-1v1h-1v2.9h-1.9v-3.9h1v-1h1v-1h1v-1h1v-1h1v-1h1v-1h1
			v-1h1V374.6z"/>
		<path class="st2" d="M833.6,382.3v5.8h-1.9v-13.5h1.9v5.8h1v-1h1v-1h1v-1h1v-1h1v-1h1v-1h1.9v1.9h-1v1h-1v1h-1v1h-1v1h-1v1.9h1v1
			h1v1h1v1h1v1h1v1.9h-1.9v-1h-1v-1h-1v-1h-1v-1h-1v-1h-1v-1H833.6z"/>
		<path class="st2" d="M851.9,376.5h1v1.9H851v-1h-1v-1h-3.9v1h-1v7.7h1v1h3.9v-1h1v-2.9h-2.9v-1.9h4.8v5.8h-1v1h-1v1h-5.8v-1h-1v-1
			h-1v-9.7h1v-1h1v-1h5.8v1h1V376.5z"/>
	</g>
	<g>
		<path class="st0" d="M58.7,361.2H61v12.9h2.3v-5.9h2.3v5.9H68v-12.9h2.3v14.1h-1.2v1.2H68v1.2h-2.3v-1.2h-2.3v1.2H61v-1.2h-1.2
			v-1.2h-1.2V361.2z"/>
		<path class="st0" d="M75.1,377.6h-2.3v-11.7h1.2v-1.2h1.2v-1.2h1.2v-1.2h1.2v-1.2h2.3v1.2h1.2v1.2h1.2v1.2h1.2v1.2h1.2v11.7h-2.3
			v-4.7h-7V377.6z M75.1,370.6h7v-3.5h-1.2v-1.2h-1.2v-1.2h-2.3v1.2h-1.2v1.2h-1.2V370.6z"/>
		<path class="st0" d="M91.5,363.5h-4.7v-2.3h11.7v2.3h-4.7v14.1h-2.3V363.5z"/>
		<path class="st0" d="M112.6,361.2v2.3h-9.4v4.7h7v2.3h-7v4.7h9.4v2.3h-11.7v-16.4H112.6z"/>
		<path class="st0" d="M118.4,370.6h-1.2v7h-2.3v-16.4h9.4v1.2h1.2v1.2h1.2v4.7h-1.2v1.2h-1.2v1.2h-2.3v1.2h1.2v1.2h1.2v1.2h1.2v1.2
			h1.2v2.3h-2.3v-1.2h-1.2v-1.2h-1.2v-1.2h-1.2v-1.2h-1.2v-1.2h-1.2V370.6z M117.3,363.5v4.7h5.9v-1.2h1.2v-2.3h-1.2v-1.2H117.3z"/>
		<path class="st0" d="M144.2,375.3H143v-14.1h2.3v12.9h1.2v1.2h4.7v-1.2h1.2v-12.9h2.3v14.1h-1.2v1.2h-1.2v1.2h-7v-1.2h-1.2V375.3z
			"/>
		<path class="st0" d="M167.6,363.5h1.2v2.3h-2.3v-1.2h-1.2v-1.2h-4.7v1.2h-1.2v2.3h1.2v1.2h5.9v1.2h1.2v1.2h1.2v4.7h-1.2v1.2h-1.2
			v1.2h-7v-1.2h-1.2v-1.2h-1.2v-2.3h2.3v1.2h1.2v1.2h4.7v-1.2h1.2v-2.3h-1.2v-1.2h-5.9v-1.2h-1.2v-1.2h-1.2v-4.7h1.2v-1.2h1.2v-1.2
			h7v1.2h1.2V363.5z"/>
		<path class="st0" d="M173.5,377.6h-2.3v-11.7h1.2v-1.2h1.2v-1.2h1.2v-1.2h1.2v-1.2h2.3v1.2h1.2v1.2h1.2v1.2h1.2v1.2h1.2v11.7h-2.3
			v-4.7h-7V377.6z M173.5,370.6h7v-3.5h-1.2v-1.2h-1.2v-1.2h-2.3v1.2h-1.2v1.2h-1.2V370.6z"/>
		<path class="st0" d="M195.8,363.5h1.2v2.3h-2.3v-1.2h-1.2v-1.2h-4.7v1.2h-1.2v9.4h1.2v1.2h4.7v-1.2h1.2v-3.5h-3.5v-2.3h5.9v7h-1.2
			v1.2h-1.2v1.2h-7v-1.2h-1.2v-1.2h-1.2v-11.7h1.2v-1.2h1.2v-1.2h7v1.2h1.2V363.5z"/>
		<path class="st0" d="M211,361.2v2.3h-9.4v4.7h7v2.3h-7v4.7h9.4v2.3h-11.7v-16.4H211z"/>
	</g>
</g>
<g id="Layer_1">
	<g>
		<g>
			<polygon class="st3" points="543.4,216.5 543.4,206.6 533.5,206.6 533.5,186.9 523.6,186.9 523.6,177 523.6,167.1 513.7,167.1 
				513.7,157.2 503.8,157.2 503.8,147.3 494,147.3 494,137.4 484.1,137.4 484.1,147.3 474.2,147.3 474.2,157.2 464.3,157.2 
				464.3,167.1 454.4,167.1 454.4,177 454.4,186.9 444.5,186.9 444.5,206.6 434.7,206.6 434.7,216.5 434.7,226.4 424.8,226.4 
				424.8,305.5 434.7,305.5 434.7,315.3 444.5,315.3 444.5,335.1 533.5,335.1 533.5,315.3 543.4,315.3 543.4,305.5 553.3,305.5 
				553.3,226.4 543.4,226.4 			"/>
		</g>
		<polygon class="st4" points="543.6,226.2 533.7,226.2 533.7,206.5 523.8,206.5 523.8,186.7 513.9,186.7 513.9,166.9 504,166.9 
			504,157 494.2,157 494.2,147.2 484.3,147.2 484.3,157 474.4,157 474.4,166.9 464.5,166.9 464.5,186.7 454.6,186.7 454.6,206.5 
			444.7,206.5 444.7,226.2 434.9,226.2 434.9,305.3 444.7,305.3 444.7,315.2 454.6,315.2 454.6,325.1 523.8,325.1 523.8,315.2 
			533.7,315.2 533.7,305.3 543.6,305.3 		"/>
		<polygon class="st5" points="513.7,186.7 513.7,167.1 503.8,167.1 503.8,157.2 494,157.2 494,147.3 484.1,147.3 484.1,157.2 
			474.2,157.2 474.2,167.1 464.3,167.1 464.3,186.7 		"/>
	</g>
	<g>
		<g>
			<polygon class="st3" points="870.9,216.5 870.9,206.6 861.1,206.6 861.1,186.9 851.2,186.9 851.2,177 851.2,167.1 841.3,167.1 
				841.3,157.2 831.4,157.2 831.4,147.3 821.5,147.3 821.5,137.4 811.6,137.4 811.6,147.3 801.8,147.3 801.8,157.2 791.9,157.2 
				791.9,167.1 782,167.1 782,177 782,186.9 772.1,186.9 772.1,206.6 762.2,206.6 762.2,216.5 762.2,226.4 752.3,226.4 752.3,305.5 
				762.2,305.5 762.2,315.3 772.1,315.3 772.1,335.1 861.1,335.1 861.1,315.3 870.9,315.3 870.9,305.5 880.8,305.5 880.8,226.4 
				870.9,226.4 			"/>
		</g>
		<polygon class="st4" points="871,226.5 861.1,226.5 861.1,206.7 851.2,206.7 851.2,187 841.3,187 841.3,167.2 831.4,167.2 
			831.4,157.3 821.6,157.3 821.6,147.4 811.7,147.4 811.7,157.3 801.8,157.3 801.8,167.2 791.9,167.2 791.9,187 782,187 782,206.7 
			772.1,206.7 772.1,226.5 762.3,226.5 762.3,305.6 772.1,305.6 772.1,315.4 782,315.4 782,325.3 851.2,325.3 851.2,315.4 
			861.1,315.4 861.1,305.6 871,305.6 		"/>
		<polygon class="st5" points="811.8,147.4 811.8,157 802,157 802,166.9 792.1,166.9 792.1,186.7 782.2,186.7 782.2,206.5 
			772.3,206.5 772.3,226.2 762.4,226.2 762.4,236.4 871.1,236.4 871.1,226.2 861.3,226.2 861.3,206.5 851.4,206.5 851.4,186.7 
			841.5,186.7 841.5,166.9 831.6,166.9 831.6,157 821.7,157 821.7,147.4 		"/>
		<polygon class="st5" points="861.1,206.7 851.2,206.7 851.2,187 841.3,187 841.3,167.2 831.4,167.2 831.4,157.3 821.6,157.3 
			821.6,147.4 811.7,147.4 811.7,157.3 801.8,157.3 801.8,167.2 791.9,167.2 791.9,187 782,187 782,206.7 772.1,206.7 772.1,226.5 
			762.3,226.5 762.3,285.8 871,285.8 871,226.5 861.1,226.5 		"/>
	</g>
	<g>
		<g>
			<polygon class="st3" points="378.4,216.5 378.4,206.6 368.5,206.6 368.5,186.9 358.6,186.9 358.6,177 358.6,167.1 348.7,167.1 
				348.7,157.2 338.9,157.2 338.9,147.3 329,147.3 329,137.4 319.1,137.4 319.1,147.3 309.2,147.3 309.2,157.2 299.3,157.2 
				299.3,167.1 289.4,167.1 289.4,177 289.4,186.9 279.6,186.9 279.6,206.6 269.7,206.6 269.7,216.5 269.7,226.4 259.8,226.4 
				259.8,305.5 269.7,305.5 269.7,315.3 279.6,315.3 279.6,335.1 368.5,335.1 368.5,315.3 378.4,315.3 378.4,305.5 388.3,305.5 
				388.3,226.4 378.4,226.4 			"/>
		</g>
		<polygon class="st4" points="378.4,226.5 368.5,226.5 368.5,206.7 358.7,206.7 358.7,187 348.8,187 348.8,167.2 338.9,167.2 
			338.9,157.3 329,157.3 329,147.4 319.1,147.4 319.1,157.3 309.2,157.3 309.2,167.2 299.4,167.2 299.4,187 289.5,187 289.5,206.7 
			279.6,206.7 279.6,226.5 269.7,226.5 269.7,305.6 279.6,305.6 279.6,315.4 289.5,315.4 289.5,325.3 358.7,325.3 358.7,315.4 
			368.5,315.4 368.5,305.6 378.4,305.6 		"/>
		<polygon class="st5" points="319.3,147.4 319.3,157 309.4,157 309.4,166.9 299.5,166.9 299.5,186.7 289.6,186.7 289.6,206.5 
			279.8,206.5 279.8,226.2 269.9,226.2 269.9,236.4 378.6,236.4 378.6,226.2 368.7,226.2 368.7,206.5 358.8,206.5 358.8,186.7 
			348.9,186.7 348.9,166.9 339.1,166.9 339.1,157 329.2,157 329.2,147.4 		"/>
		<polygon class="st5" points="368.5,206.7 358.7,206.7 358.7,187 348.8,187 348.8,167.2 338.9,167.2 338.9,157.3 329,157.3 
			329,147.4 319.1,147.4 319.1,157.3 309.2,157.3 309.2,167.2 299.4,167.2 299.4,187 289.5,187 289.5,206.7 279.6,206.7 
			279.6,226.5 269.7,226.5 269.7,285.8 378.4,285.8 378.4,226.5 368.5,226.5 		"/>
	</g>
	<g>
		<g>
			<polygon class="st3" points="707.2,216.5 707.2,206.6 697.3,206.6 697.3,186.9 687.4,186.9 687.4,177 687.4,167.1 677.5,167.1 
				677.5,157.2 667.6,157.2 667.6,147.3 657.7,147.3 657.7,137.4 647.9,137.4 647.9,147.3 638,147.3 638,157.2 628.1,157.2 
				628.1,167.1 618.2,167.1 618.2,177 618.2,186.9 608.3,186.9 608.3,206.6 598.4,206.6 598.4,216.5 598.4,226.4 588.6,226.4 
				588.6,305.5 598.4,305.5 598.4,315.3 608.3,315.3 608.3,335.1 697.3,335.1 697.3,315.3 707.2,315.3 707.2,305.5 717,305.5 
				717,226.4 707.2,226.4 			"/>
		</g>
		<polygon class="st4" points="707.2,226.5 697.3,226.5 697.3,206.7 687.4,206.7 687.4,187 677.5,187 677.5,167.2 667.7,167.2 
			667.7,157.3 657.8,157.3 657.8,147.4 647.9,147.4 647.9,157.3 638,157.3 638,167.2 628.1,167.2 628.1,187 618.2,187 618.2,206.7 
			608.4,206.7 608.4,226.5 598.5,226.5 598.5,305.6 608.4,305.6 608.4,315.4 618.2,315.4 618.2,325.3 687.4,325.3 687.4,315.4 
			697.3,315.4 697.3,305.6 707.2,305.6 		"/>
		<polygon class="st5" points="648.1,147.4 648.1,157 638.2,157 638.2,166.9 628.3,166.9 628.3,186.7 618.4,186.7 618.4,206.5 
			608.5,206.5 608.5,226.2 598.6,226.2 598.6,236.4 707.4,236.4 707.4,226.2 697.5,226.2 697.5,206.5 687.6,206.5 687.6,186.7 
			677.7,186.7 677.7,166.9 667.8,166.9 667.8,157 657.9,157 657.9,147.4 		"/>
		<polygon class="st5" points="697.3,206.7 687.4,206.7 687.4,187 677.5,187 677.5,167.2 667.7,167.2 667.7,157.3 657.8,157.3 
			657.8,147.4 647.9,147.4 647.9,157.3 638,157.3 638,167.2 628.1,167.2 628.1,187 618.2,187 618.2,206.7 608.4,206.7 608.4,226.5 
			598.5,226.5 598.5,285.8 707.2,285.8 707.2,226.5 697.3,226.5 		"/>
	</g>
	<g>
		<path class="st6" d="M785.7,59.7v4.9h-1.6V53.1h6.3v0.8h0.8v0.8h0.8V58h-0.8v0.8h-0.8v0.8H785.7z M785.7,54.7V58h4v-0.8h0.8v-1.6
			h-0.8v-0.8H785.7z"/>
		<path class="st6" d="M801.5,53.1v1.6h-6.3V58h4.7v1.6h-4.7V63h6.3v1.6h-7.9V53.1H801.5z"/>
		<path class="st6" d="M804.7,64.6h-1.6v-8.2h0.8v-0.8h0.8v-0.8h0.8v-0.8h0.8v-0.8h1.6v0.8h0.8v0.8h0.8v0.8h0.8v0.8h0.8v8.2h-1.6
			v-3.3h-4.7V64.6z M804.7,59.7h4.7v-2.5h-0.8v-0.8h-0.8v-0.8h-1.6v0.8h-0.8v0.8h-0.8V59.7z"/>
		<path class="st6" d="M814.2,58v6.6h-1.6V53.1h1.6v2.5h0.8v0.8h0.8v0.8h0.8V58h0.8v0.8h0.8v0.8h0.8v-6.6h1.6v11.5H819v-2.5h-0.8
			v-0.8h-0.8v-0.8h-0.8v-0.8h-0.8v-0.8H815V58H814.2z"/>
		<path class="st6" d="M822.9,63h-0.8v-9.9h1.6v9.1h0.8V63h3.2v-0.8h0.8v-9.1h1.6V63h-0.8v0.8h-0.8v0.8h-4.7v-0.8h-0.8V63z"/>
		<path class="st6" d="M834.8,54.7h-3.2v-1.6h7.9v1.6h-3.2v9.9h-1.6V54.7z"/>
		<path class="st6" d="M848.2,54.7h0.8v1.6h-1.6v-0.8h-0.8v-0.8h-3.2v0.8h-0.8v1.6h0.8V58h4v0.8h0.8v0.8h0.8V63h-0.8v0.8h-0.8v0.8
			h-4.7v-0.8h-0.8V63h-0.8v-1.6h1.6v0.8h0.8V63h3.2v-0.8h0.8v-1.6h-0.8v-0.8h-4v-0.8h-0.8V58h-0.8v-3.3h0.8v-0.8h0.8v-0.8h4.7v0.8
			h0.8V54.7z"/>
	</g>
	<rect x="734.2" y="80.3" class="st7" width="164.8" height="16.9"/>
	<g>
		<path class="st8" d="M589.5,54.7h0.8v1.6h-1.6v-0.8h-0.8v-0.8h-3.2v0.8H584v1.6h0.8V58h4v0.8h0.8v0.8h0.8V63h-0.8v0.8h-0.8v0.8
			H584v-0.8h-0.8V63h-0.8v-1.6h1.6v0.8h0.8V63h3.2v-0.8h0.8v-1.6h-0.8v-0.8h-4v-0.8h-0.8V58h-0.8v-3.3h0.8v-0.8h0.8v-0.8h4.7v0.8
			h0.8V54.7z"/>
		<path class="st8" d="M592.7,63h-0.8v-9.9h1.6v9.1h0.8V63h3.2v-0.8h0.8v-9.1h1.6V63H599v0.8h-0.8v0.8h-4.7v-0.8h-0.8V63z"/>
		<path class="st8" d="M603,58v6.6h-1.6V53.1h1.6v2.5h0.8v0.8h0.8v0.8h0.8V58h0.8v0.8h0.8v0.8h0.8v-6.6h1.6v11.5h-1.6v-2.5h-0.8
			v-0.8h-0.8v-0.8h-0.8v-0.8h-0.8v-0.8h-0.8V58H603z"/>
		<path class="st8" d="M618.8,53.1v1.6h-6.3V58h4.7v1.6h-4.7v4.9h-1.6V53.1H618.8z"/>
		<path class="st8" d="M620.4,64.6V53.1h1.6V63h6.3v1.6H620.4z"/>
		<path class="st8" d="M631.4,53.9v-0.8h4.7v0.8h0.8v0.8h0.8V63H637v0.8h-0.8v0.8h-4.7v-0.8h-0.8V63h-0.8v-8.2h0.8v-0.8H631.4z
			 M635.4,54.7h-3.2v0.8h-0.8v6.6h0.8V63h3.2v-0.8h0.8v-6.6h-0.8V54.7z"/>
		<path class="st8" d="M639.3,53.1h1.6v9.1h1.6V58h1.6v4.1h1.6v-9.1h1.6V63h-0.8v0.8h-0.8v0.8h-1.6v-0.8h-1.6v0.8h-1.6v-0.8h-0.8V63
			h-0.8V53.1z"/>
		<path class="st8" d="M656.8,53.1v1.6h-6.3V58h4.7v1.6h-4.7V63h6.3v1.6h-7.9V53.1H656.8z"/>
		<path class="st8" d="M660.7,59.7h-0.8v4.9h-1.6V53.1h6.3v0.8h0.8v0.8h0.8V58h-0.8v0.8h-0.8v0.8h-1.6v0.8h0.8v0.8h0.8v0.8h0.8V63
			h0.8v1.6h-1.6v-0.8h-0.8V63h-0.8v-0.8h-0.8v-0.8h-0.8v-0.8h-0.8V59.7z M659.9,54.7V58h4v-0.8h0.8v-1.6h-0.8v-0.8H659.9z"/>
		<path class="st8" d="M684.5,54.7h0.8v1.6h-1.6v-0.8h-0.8v-0.8h-3.2v0.8h-0.8v1.6h0.8V58h4v0.8h0.8v0.8h0.8V63h-0.8v0.8h-0.8v0.8
			h-4.7v-0.8h-0.8V63h-0.8v-1.6h1.6v0.8h0.8V63h3.2v-0.8h0.8v-1.6h-0.8v-0.8h-4v-0.8h-0.8V58h-0.8v-3.3h0.8v-0.8h0.8v-0.8h4.7v0.8
			h0.8V54.7z"/>
		<path class="st8" d="M694.7,53.1v1.6h-6.3V58h4.7v1.6h-4.7V63h6.3v1.6h-7.9V53.1H694.7z"/>
		<path class="st8" d="M704.2,53.1v1.6h-6.3V58h4.7v1.6h-4.7V63h6.3v1.6h-7.9V53.1H704.2z"/>
		<path class="st8" d="M705.8,64.6V53.1h6.3v0.8h0.8v0.8h0.8V63h-0.8v0.8h-0.8v0.8H705.8z M707.4,54.7V63h4v-0.8h0.8v-6.6h-0.8v-0.8
			H707.4z"/>
		<path class="st8" d="M722.4,54.7h0.8v1.6h-1.6v-0.8h-0.8v-0.8h-3.2v0.8h-0.8v1.6h0.8V58h4v0.8h0.8v0.8h0.8V63h-0.8v0.8h-0.8v0.8
			h-4.7v-0.8h-0.8V63h-0.8v-1.6h1.6v0.8h0.8V63h3.2v-0.8h0.8v-1.6h-0.8v-0.8h-4v-0.8h-0.8V58h-0.8v-3.3h0.8v-0.8h0.8v-0.8h4.7v0.8
			h0.8V54.7z"/>
	</g>
	<rect x="570.4" y="80.3" class="st9" width="164.8" height="16.9"/>
	<g>
		<path class="st10" d="M458.2,64.6h-1.6v-8.2h0.8v-0.8h0.8v-0.8h0.8v-0.8h0.8v-0.8h1.6v0.8h0.8v0.8h0.8v0.8h0.8v0.8h0.8v8.2h-1.6
			v-3.3h-4.7V64.6z M458.2,59.7h4.7v-2.5h-0.8v-0.8h-0.8v-0.8h-1.6v0.8H459v0.8h-0.8V59.7z"/>
		<path class="st10" d="M466.1,64.6V53.1h1.6V63h6.3v1.6H466.1z"/>
		<path class="st10" d="M477.1,64.6h-1.6V53.1h1.6v1.6h0.8v0.8h0.8v0.8h1.6v-0.8h0.8v-0.8h0.8v-1.6h1.6v11.5h-1.6v-7.4h-0.8V58h-0.8
			v1.6h-1.6V58h-0.8v-0.8h-0.8V64.6z"/>
		<path class="st10" d="M486.6,53.9v-0.8h4.7v0.8h0.8v0.8h0.8V63h-0.8v0.8h-0.8v0.8h-4.7v-0.8h-0.8V63h-0.8v-8.2h0.8v-0.8H486.6z
			 M490.6,54.7h-3.2v0.8h-0.8v6.6h0.8V63h3.2v-0.8h0.8v-6.6h-0.8V54.7z"/>
		<path class="st10" d="M496.1,58v6.6h-1.6V53.1h1.6v2.5h0.8v0.8h0.8v0.8h0.8V58h0.8v0.8h0.8v0.8h0.8v-6.6h1.6v11.5h-1.6v-2.5h-0.8
			v-0.8h-0.8v-0.8h-0.8v-0.8h-0.8v-0.8h-0.8V58H496.1z"/>
		<path class="st10" d="M504.1,64.6V53.1h6.3v0.8h0.8v0.8h0.8V63h-0.8v0.8h-0.8v0.8H504.1z M505.6,54.7V63h4v-0.8h0.8v-6.6h-0.8
			v-0.8H505.6z"/>
		<path class="st10" d="M520.7,54.7h0.8v1.6h-1.6v-0.8h-0.8v-0.8h-3.2v0.8h-0.8v1.6h0.8V58h4v0.8h0.8v0.8h0.8V63h-0.8v0.8h-0.8v0.8
			h-4.7v-0.8h-0.8V63h-0.8v-1.6h1.6v0.8h0.8V63h3.2v-0.8h0.8v-1.6h-0.8v-0.8h-4v-0.8h-0.8V58h-0.8v-3.3h0.8v-0.8h0.8v-0.8h4.7v0.8
			h0.8V54.7z"/>
	</g>
	<rect x="406.6" y="80.3" class="st11" width="164.8" height="16.9"/>
	<g>
		<path class="st12" d="M308.2,63h3.2v-0.8h0.8v-0.8h1.6V63H313v0.8h-0.8v0.8h-4.7v-0.8h-0.8V63h-0.8v-8.2h0.8v-0.8h0.8v-0.8h4.7
			v0.8h0.8v0.8h0.8v1.6h-1.6v-0.8h-0.8v-0.8h-3.2v0.8h-0.8v6.6h0.8V63z"/>
		<path class="st12" d="M316.9,59.7v4.9h-1.6V53.1h1.6V58h4.7v-4.9h1.6v11.5h-1.6v-4.9H316.9z"/>
		<path class="st12" d="M326.4,64.6V63h1.6v-8.2h-1.6v-1.6h4.7v1.6h-1.6V63h1.6v1.6H326.4z"/>
		<path class="st12" d="M335.9,64.6h-1.6v-8.2h0.8v-0.8h0.8v-0.8h0.8v-0.8h0.8v-0.8h1.6v0.8h0.8v0.8h0.8v0.8h0.8v0.8h0.8v8.2h-1.6
			v-3.3h-4.7V64.6z M335.9,59.7h4.7v-2.5h-0.8v-0.8h-0.8v-0.8h-1.6v0.8h-0.8v0.8h-0.8V59.7z"/>
	</g>
	<rect x="241.7" y="80.3" class="st13" width="164.8" height="16.9"/>
	<rect x="241.7" y="137.4" class="st1" width="165" height="266.7"/>
	<rect x="406.7" y="137.4" class="st1" width="165" height="266.7"/>
	<rect x="571.7" y="137.4" class="st1" width="165" height="266.7"/>
	<rect x="736.8" y="137.4" class="st1" width="165" height="266.7"/>
</g>
</svg>
