<?xml version="1.0" encoding="utf-8"?>
<!-- Generator: Adobe Illustrator 25.2.3, SVG Export Plug-In . SVG Version: 6.00 Build 0)  -->
<svg version="1.1" xmlns="http://www.w3.org/2000/svg" xmlns:xlink="http://www.w3.org/1999/xlink" x="0px" y="0px"
	 viewBox="0 0 1108 791" style="enable-background:new 0 0 1108 791;" xml:space="preserve">
<style type="text/css">
	.st0{fill:#EB1C24;}
	.st1{fill:#8A370F;}
	.st2{fill:#FFDE01;}
	.st3{fill:#FCB912;}
	.st4{fill:#FCF54D;}
	.st5{fill:#0F4B70;}
	.st6{fill:#0B5389;}
	.st7{fill:#0C3352;}
	.st8{fill:#3279A5;}
	.st9{fill:none;stroke:#000000;stroke-miterlimit:10;}
	.st10{fill:none;stroke:#E8222E;stroke-width:7;stroke-miterlimit:10;}
	.st11{stroke:#000000;stroke-width:0.5;stroke-miterlimit:10;}
</style>
<g id="Layer_1">
	<g>
		<g>
			<polygon class="st0" points="155.3,186.5 158.5,173.6 145.6,170.4 132.6,167.1 129.4,180.1 126.2,193 113.2,189.8 106.8,215.7 
				119.7,219 116.5,232 129.5,235.2 126.3,248.1 113.3,244.9 110.1,257.8 123.1,261.1 213.8,283.6 233.1,205.8 			"/>
			
				<rect x="121" y="152.3" transform="matrix(0.241 -0.9705 0.9705 0.241 -57.3738 244.5884)" class="st0" width="13.3" height="13.3"/>
		</g>
		<rect x="143.2" y="343.4" transform="matrix(0.241 -0.9705 0.9705 0.241 -205.6745 437.0455)" width="66.8" height="13.3"/>
		<rect x="169.1" y="349.8" transform="matrix(0.241 -0.9705 0.9705 0.241 -192.3057 467.081)" width="66.8" height="13.3"/>
		
			<rect x="286.3" y="152.1" transform="matrix(0.241 -0.9705 0.9705 0.241 68.2883 404.7429)" class="st1" width="13.3" height="13.3"/>
		<polygon class="st2" points="307.6,183 310.8,170.1 297.8,166.9 301.1,153.9 288.1,150.7 284.8,163.7 258.9,157.2 252.5,183.1 
			239.5,179.9 226.6,231.8 213.7,228.6 207.3,254.5 181.3,248.1 178.1,261 165.2,257.8 152.2,254.5 148.9,267.5 123.1,261.1 
			110.1,257.8 106.8,270.8 68,261.2 64.7,274.1 64.7,274.1 61.5,287.1 74.5,290.3 71.3,303.3 108.7,312.6 105.5,325.5 107,325.9 
			184.7,345.2 187.9,332.3 213.6,338.6 213.8,338.7 217,325.7 243,332.1 246.2,319.2 259.2,322.4 262.4,309.5 275.4,312.7 
			278.6,299.7 291.5,302.9 307.6,238.1 320.5,186.3 		"/>
		
			<rect x="92.1" y="269" transform="matrix(0.241 -0.9705 0.9705 0.241 -192.6419 305.0387)" class="st3" width="13.3" height="13.3"/>
		<polygon class="st3" points="181.4,303.1 178.2,316 165.2,312.8 162,325.8 187.9,332.3 191.2,319.3 204.1,322.5 207.3,309.5 		"/>
		<polygon class="st3" points="252.6,293.2 249.4,306.2 236.5,303 233.3,316 246.2,319.2 259.2,322.4 262.4,309.5 265.6,296.5 		"/>
		
			<rect x="261.9" y="278.5" transform="matrix(0.241 -0.9705 0.9705 0.241 -67.7777 483.5862)" class="st3" width="26.7" height="13.3"/>
		
			<rect x="269.3" y="223.3" transform="matrix(0.241 -0.9705 0.9705 0.241 6.5783 468.3032)" class="st3" width="66.8" height="13.3"/>
		<polygon class="st1" points="294.5,124.8 291.3,137.7 278.3,134.5 271.9,160.5 284.8,163.7 288.1,150.7 301.1,153.9 304.3,141 
			307.5,128 		"/>
		<polygon class="st4" points="255.7,170.2 252.5,183.1 249.2,196.1 262.2,199.3 265.5,186.3 268.7,173.4 		"/>
		<polygon class="st1" points="68,261.2 64.7,274.1 61.5,287.1 74.5,290.3 77.7,277.3 81,264.4 		"/>
		<g>
			<rect x="255.3" y="194.3" transform="matrix(0.241 -0.9705 0.9705 0.241 8.8594 413.2195)" width="26.7" height="13.3"/>
		</g>
		<g>
			<rect x="281.3" y="200.7" transform="matrix(0.241 -0.9705 0.9705 0.241 22.3908 443.3172)" width="26.7" height="13.3"/>
		</g>
		<rect x="266.9" y="229.9" transform="matrix(0.241 -0.9705 0.9705 0.241 -21.961 444.9931)" width="13.3" height="13.3"/>
		<rect x="307.2" y="262.2" transform="matrix(0.241 -0.9705 0.9705 0.241 -17.6112 515.2045)" width="26.7" height="13.3"/>
		<rect x="331.7" y="245.9" transform="matrix(0.241 -0.9705 0.9705 0.241 11.7015 520.0777)" width="13.3" height="13.3"/>
		<rect x="296.1" y="278.5" transform="matrix(0.241 -0.9705 0.9705 0.241 -46.9613 510.2304)" width="13.3" height="13.3"/>
		<rect x="216.5" y="239.7" transform="matrix(0.241 -0.9705 0.9705 0.241 -64.6425 410.0844)" width="26.7" height="13.3"/>
		<rect x="241" y="223.4" transform="matrix(0.241 -0.9705 0.9705 0.241 -35.3297 414.9576)" width="13.3" height="13.3"/>
		<rect x="205.4" y="256" transform="matrix(0.241 -0.9705 0.9705 0.241 -93.9235 405.142)" width="13.3" height="13.3"/>
	</g>
	<g>
		<polygon class="st3" points="509.8,157.9 507.1,147.1 501.8,148.5 500.5,143 495,144.4 493.7,138.9 482.9,141.6 481.5,136.3 
			438.4,147 439.7,152.3 428.9,155 430.3,160.3 424.8,161.7 426.2,167.1 420.7,168.5 423.4,179.3 418.1,180.6 428.8,223.8 
			434.1,222.4 436.8,233.2 442.2,231.9 443.5,237.3 448.9,236 450.3,241.4 461.1,238.7 462.4,244.1 505.6,233.4 504.2,228 
			515,225.3 513.7,220 519.1,218.6 517.8,213.2 523.2,211.8 520.5,201.1 525.9,199.7 515.2,156.5 		"/>
		<polygon class="st2" points="509.8,157.9 504.4,159.2 501.8,148.5 496.4,149.7 495,144.4 484.2,147.1 482.9,141.6 439.7,152.3 
			441.1,157.7 430.3,160.3 431.5,165.8 426.2,167.1 428.9,177.9 423.4,179.3 434.1,222.4 439.6,221.1 442.2,231.9 447.6,230.5 
			448.9,236 459.7,233.3 461.1,238.7 504.2,228 502.9,222.6 513.7,220 512.3,214.5 517.8,213.2 515.1,202.4 520.5,201.1 		"/>
		<g>
			
				<rect x="467" y="166.4" transform="matrix(0.9707 -0.2402 0.2402 0.9707 -26.7282 119.1321)" class="st3" width="16.7" height="5.6"/>
			
				<rect x="477.8" y="209.7" transform="matrix(0.9707 -0.2402 0.2402 0.9707 -36.8068 122.9963)" class="st3" width="16.7" height="5.6"/>
			<polygon class="st3" points="458.5,182.1 459.8,187.4 454.4,188.8 455.7,194.2 461.2,192.9 462.5,198.2 457.1,199.6 458.4,205 
				463.9,203.7 465.1,209 470.6,207.6 469.2,202.3 485.5,198.3 484.1,192.9 467.9,196.9 466.5,191.5 482.8,187.5 481.4,182.1 
				465.3,186.1 463.9,180.7 			"/>
			
				<rect x="463.1" y="174.6" transform="matrix(0.9707 -0.2402 0.2402 0.9707 -28.9704 117.1044)" class="st3" width="5.6" height="5.6"/>
			
				<rect x="471.1" y="206.9" transform="matrix(0.9707 -0.2402 0.2402 0.9707 -36.4955 119.9705)" class="st3" width="5.6" height="5.6"/>
		</g>
		
			<rect x="428.6" y="177.9" transform="matrix(0.9707 -0.2402 0.2402 0.9707 -35.447 109.481)" class="st4" width="5.6" height="44.5"/>
		
			<rect x="427.4" y="166.3" transform="matrix(0.9707 -0.2402 0.2402 0.9707 -28.6814 108.3609)" class="st4" width="5.6" height="11.1"/>
		
			<rect x="430.7" y="159" transform="matrix(0.9707 -0.2402 0.2402 0.9707 -26.0906 109.5271)" class="st4" width="11.1" height="5.6"/>
		
			<rect x="440.1" y="150.3" transform="matrix(0.9707 -0.2402 0.2402 0.9707 -23.6449 112.2019)" class="st4" width="16.7" height="5.6"/>
		
			<rect x="445.7" y="173.2" transform="matrix(0.9707 -0.2402 0.2402 0.9707 -29.1406 112.884)" class="st4" width="5.6" height="5.6"/>
		
			<rect x="449.6" y="166.5" transform="matrix(0.9707 -0.2402 0.2402 0.9707 -27.4203 113.6265)" class="st4" width="5.6" height="5.6"/>
	</g>
	<g>
		<polygon class="st3" points="797.2,165.1 799.7,154.3 794.3,153 795.6,147.6 790.1,146.3 791.4,140.9 780.6,138.4 781.9,132.9 
			738.5,122.8 737.3,128.1 726.4,125.5 725.2,131 719.8,129.7 718.5,135.2 713.1,133.9 710.5,144.7 705.1,143.4 694.9,186.7 
			700.3,187.9 697.8,198.7 703.1,200 701.8,205.5 707.3,206.8 706,212.2 716.8,214.7 715.5,220.2 758.9,230.4 760.2,225 771,227.5 
			772.3,222.1 777.7,223.4 778.9,218 784.3,219.3 786.9,208.5 792.4,209.7 802.5,166.4 		"/>
		<polygon class="st2" points="797.2,165.1 791.7,163.9 794.3,153 788.8,151.8 790.1,146.3 779.3,143.7 780.6,138.4 737.3,128.1 
			736,133.6 725.2,131 723.9,136.3 718.5,135.2 716,146 710.5,144.7 700.3,187.9 705.7,189.2 703.1,200 708.6,201.3 707.3,206.8 
			718.1,209.3 716.8,214.7 760.2,225 761.4,219.5 772.3,222.1 773.5,216.7 778.9,218 781.5,207.2 786.9,208.5 		"/>
		<g>
			
				<rect x="758.6" y="151.1" transform="matrix(0.2299 -0.9732 0.9732 0.2299 431.1444 863.812)" class="st3" width="5.6" height="16.7"/>
			
				<rect x="748.3" y="194.4" transform="matrix(0.2299 -0.9732 0.9732 0.2299 381.024 887.1111)" class="st3" width="5.6" height="16.7"/>
			<polygon class="st3" points="740.5,163.2 739.2,168.6 733.7,167.3 732.4,172.7 737.9,174 736.6,179.4 731.2,178.1 729.9,183.5 
				735.3,184.8 734,190.2 739.5,191.5 740.8,186.1 756.9,190 758.2,184.5 742.1,180.7 743.4,175.3 759.5,179.2 760.8,173.7 
				744.5,169.8 745.8,164.5 			"/>
			
				<rect x="746.4" y="159.5" transform="matrix(0.2299 -0.9732 0.9732 0.2299 418.9997 854.1807)" class="st3" width="5.6" height="5.6"/>
			
				<rect x="738.8" y="192" transform="matrix(0.2299 -0.9732 0.9732 0.2299 381.4893 871.7646)" class="st3" width="5.6" height="5.6"/>
		</g>
		
			<rect x="686" y="164.2" transform="matrix(0.2299 -0.9732 0.9732 0.2299 382.8978 817.8035)" class="st4" width="44.5" height="5.6"/>
		
			<rect x="714.4" y="138.3" transform="matrix(0.2299 -0.9732 0.9732 0.2299 417.1063 809.3832)" class="st4" width="11.1" height="5.6"/>
		
			<rect x="727.2" y="129.4" transform="matrix(0.2299 -0.9732 0.9732 0.2299 430.8531 814.3517)" class="st4" width="5.6" height="11.1"/>
		
			<rect x="741.9" y="124.3" transform="matrix(0.2299 -0.9732 0.9732 0.2299 444.4313 826.9368)" class="st4" width="5.6" height="16.7"/>
		
			<rect x="731.4" y="150.3" transform="matrix(0.2299 -0.9732 0.9732 0.2299 416.4446 832.4579)" class="st4" width="5.6" height="5.6"/>
		
			<rect x="738.2" y="146.2" transform="matrix(0.2299 -0.9732 0.9732 0.2299 425.6299 835.824)" class="st4" width="5.6" height="5.6"/>
	</g>
	<g>
		<polygon class="st3" points="504.1,367.5 506.7,356.7 501.4,355.4 502.6,349.9 497.2,348.8 498.5,343.3 487.7,340.7 488.9,335.3 
			445.6,325.1 444.3,330.5 433.5,328 432.2,333.3 426.8,332.1 425.6,337.5 420.1,336.2 417.6,347 412.1,345.8 401.9,389.1 
			407.3,390.4 404.8,401.2 410.2,402.5 408.9,407.8 414.3,409.1 413.1,414.6 423.9,417.2 422.6,422.5 465.9,432.8 467.2,427.3 
			478,429.9 479.3,424.5 484.7,425.8 485.9,420.4 491.4,421.7 494,410.8 499.3,412.1 509.6,368.8 		"/>
		
			<rect x="392.9" y="366.6" transform="matrix(0.2299 -0.9732 0.9732 0.2299 -39.7363 688.5079)" class="st4" width="44.5" height="5.6"/>
		
			<rect x="421.4" y="340.7" transform="matrix(0.2299 -0.9732 0.9732 0.2299 -5.5278 680.0876)" class="st4" width="11.1" height="5.6"/>
		
			<rect x="434.2" y="331.7" transform="matrix(0.2299 -0.9732 0.9732 0.2299 8.3315 685.0034)" class="st4" width="5.6" height="11.1"/>
		
			<rect x="449" y="326.8" transform="matrix(0.2299 -0.9732 0.9732 0.2299 21.7551 697.7921)" class="st4" width="5.6" height="16.7"/>
		
			<rect x="438.5" y="352.7" transform="matrix(0.2299 -0.9732 0.9732 0.2299 -6.1371 703.2747)" class="st4" width="5.6" height="5.6"/>
		
			<rect x="445.2" y="348.5" transform="matrix(0.2299 -0.9732 0.9732 0.2299 3.1084 706.4756)" class="st4" width="5.6" height="5.6"/>
	</g>
	<g>
		<polygon class="st3" points="658.8,117.1 661.4,106.3 655.9,105 657.2,99.5 651.9,98.3 653.2,92.9 642.2,90.3 643.5,84.9 
			600.3,74.7 599,80.1 588.2,77.5 586.9,83 581.4,81.7 580.2,87.1 574.8,85.8 572.2,96.7 566.8,95.4 556.5,138.7 562,139.9 
			559.4,150.8 564.9,152.1 563.6,157.4 568.9,158.7 567.6,164.2 578.6,166.8 577.3,172.1 620.5,182.4 621.8,176.9 632.6,179.5 
			633.9,174 639.4,175.3 640.6,170 646,171.3 648.6,160.4 654,161.7 664.2,118.4 		"/>
		
			<rect x="547.5" y="116.1" transform="matrix(0.2299 -0.9732 0.9732 0.2299 323.0395 646.1065)" class="st4" width="44.5" height="5.6"/>
		
			<rect x="576" y="90.3" transform="matrix(0.2299 -0.9732 0.9732 0.2299 357.2478 637.6863)" class="st4" width="11.1" height="5.6"/>
		
			<rect x="588.8" y="81.4" transform="matrix(0.2299 -0.9732 0.9732 0.2299 370.9945 642.6548)" class="st4" width="5.6" height="11.1"/>
		
			<rect x="603.7" y="76.4" transform="matrix(0.2299 -0.9732 0.9732 0.2299 384.5696 655.4857)" class="st4" width="5.6" height="16.7"/>
		
			<rect x="593.1" y="102.3" transform="matrix(0.2299 -0.9732 0.9732 0.2299 356.6388 660.8732)" class="st4" width="5.6" height="5.6"/>
		
			<rect x="599.8" y="98.1" transform="matrix(0.2299 -0.9732 0.9732 0.2299 365.9229 664.1692)" class="st4" width="5.6" height="5.6"/>
	</g>
	<g>
		<polygon class="st3" points="637.4,56.8 639.9,46 634.5,44.7 635.8,39.2 630.4,37.9 631.6,32.6 620.8,30 622.1,24.6 578.8,14.4 
			577.5,19.7 566.7,17.2 565.4,22.6 560,21.3 558.8,26.8 553.3,25.5 550.7,36.3 545.4,35 535.1,78.3 540.6,79.6 538,90.4 
			543.3,91.7 542.1,97.1 547.5,98.4 546.2,103.9 557,106.3 555.8,111.8 599.1,122.1 600.4,116.6 611.2,119.2 612.5,113.7 617.9,115 
			619.1,109.6 624.6,110.9 627.1,100.1 632.6,101.3 642.8,58.1 		"/>
		<polygon class="st2" points="637.4,56.8 632,55.5 634.5,44.7 629.1,43.4 630.4,37.9 619.5,35.4 620.8,30 577.5,19.7 576.2,25.2 
			565.4,22.6 564.1,28 558.8,26.8 556.2,37.6 550.7,36.3 540.6,79.6 545.9,80.9 543.3,91.7 548.8,92.9 547.5,98.4 558.3,101 
			557,106.3 600.4,116.6 601.7,111.1 612.5,113.7 613.8,108.4 619.1,109.6 621.7,98.8 627.1,100.1 		"/>
		<g>
			
				<rect x="598.8" y="42.8" transform="matrix(0.2299 -0.9732 0.9732 0.2299 413.512 624.8545)" class="st3" width="5.6" height="16.7"/>
			
				<rect x="588.4" y="86.1" transform="matrix(0.2299 -0.9732 0.9732 0.2299 363.3915 648.1536)" class="st3" width="5.6" height="16.7"/>
			<polygon class="st3" points="580.7,54.8 579.4,60.2 574,58.9 572.7,64.4 578.1,65.7 576.8,71 571.4,69.7 570.1,75.2 575.6,76.5 
				574.3,81.8 579.7,83.1 581,77.7 597.2,81.6 598.5,76.1 582.3,72.3 583.6,66.9 599.7,70.8 601,65.3 584.8,61.5 586,56.1 			"/>
			
				<rect x="586.6" y="51.2" transform="matrix(0.2299 -0.9732 0.9732 0.2299 401.3671 615.2228)" class="st3" width="5.6" height="5.6"/>
			
				<rect x="579" y="83.7" transform="matrix(0.2299 -0.9732 0.9732 0.2299 363.8568 632.807)" class="st3" width="5.6" height="5.6"/>
		</g>
		
			<rect x="526.1" y="55.8" transform="matrix(0.2299 -0.9732 0.9732 0.2299 365.2756 578.8286)" class="st4" width="44.5" height="5.6"/>
		
			<rect x="554.6" y="30" transform="matrix(0.2299 -0.9732 0.9732 0.2299 399.484 570.4082)" class="st4" width="11.1" height="5.6"/>
		
			<rect x="567.4" y="21" transform="matrix(0.2299 -0.9732 0.9732 0.2299 413.2312 575.3766)" class="st4" width="5.6" height="11.1"/>
		
			<rect x="582.2" y="16" transform="matrix(0.2299 -0.9732 0.9732 0.2299 426.8622 588.074)" class="st4" width="5.6" height="16.7"/>
		
			<rect x="571.7" y="42" transform="matrix(0.2299 -0.9732 0.9732 0.2299 398.8751 593.595)" class="st4" width="5.6" height="5.6"/>
		
			<rect x="578.3" y="37.8" transform="matrix(0.2299 -0.9732 0.9732 0.2299 408.0081 596.8488)" class="st4" width="5.6" height="5.6"/>
	</g>
	<g>
		<polygon class="st3" points="692,257.1 690.8,246 685.3,246.6 684.7,241.1 679.2,241.7 678.5,236.2 667.5,237.4 666.9,231.9 
			622.7,236.8 623.3,242.4 612.2,243.5 612.8,249.1 607.2,249.6 607.9,255.2 602.3,255.8 603.6,266.9 598,267.5 603,311.7 
			608.5,311.1 609.7,322.2 615.3,321.6 615.8,327 621.4,326.5 622,331.9 633,330.8 633.7,336.3 677.9,331.4 677.2,325.8 
			688.4,324.7 687.7,319.1 693.3,318.6 692.7,313 698.1,312.4 696.9,301.3 702.5,300.7 697.6,256.5 		"/>
		<polygon class="st2" points="692,257.1 686.6,257.7 685.3,246.6 679.8,247.3 679.2,241.7 668.1,243 667.5,237.4 623.3,242.4 
			623.8,247.8 612.8,249.1 613.5,254.6 607.9,255.2 609.2,266.2 603.6,266.9 608.5,311.1 614,310.5 615.3,321.6 620.7,320.9 
			621.4,326.5 632.4,325.2 633,330.8 677.2,325.8 676.7,320.4 687.7,319.1 687.1,313.6 692.7,313 691.4,302 696.9,301.3 		"/>
		<g>
			
				<rect x="648.1" y="261" transform="matrix(0.9939 -0.1099 0.1099 0.9939 -25.0155 73.7417)" class="st3" width="16.7" height="5.6"/>
			
				<rect x="652.9" y="305.2" transform="matrix(0.9939 -0.1099 0.1099 0.9939 -29.8442 74.5368)" class="st3" width="16.7" height="5.6"/>
			<polygon class="st3" points="638,274.3 638.6,279.8 633,280.4 633.7,285.9 639.2,285.3 639.8,290.8 634.3,291.5 634.9,296.9 
				640.4,296.4 641.1,301.9 646.5,301.3 646,295.8 662.6,294 661.9,288.4 645.3,290.2 644.7,284.7 661.3,282.9 660.8,277.4 
				644.2,279.2 643.5,273.6 			"/>
			
				<rect x="643.2" y="267.8" transform="matrix(0.9939 -0.1099 0.1099 0.9939 -25.8256 72.635)" class="st3" width="5.6" height="5.6"/>
			
				<rect x="646.8" y="301" transform="matrix(0.9939 -0.1099 0.1099 0.9939 -29.453 73.232)" class="st3" width="5.6" height="5.6"/>
		</g>
		
			<rect x="606" y="266.4" transform="matrix(0.9939 -0.1099 0.1099 0.9939 -28.0354 68.6557)" class="st4" width="5.6" height="44.5"/>
		
			<rect x="608.5" y="254.8" transform="matrix(0.9939 -0.1099 0.1099 0.9939 -24.9097 68.7584)" class="st4" width="5.6" height="11.1"/>
		
			<rect x="613.1" y="248.4" transform="matrix(0.9939 -0.1099 0.1099 0.9939 -23.8599 69.5115)" class="st4" width="11.1" height="5.6"/>
		
			<rect x="623.5" y="241.3" transform="matrix(0.9939 -0.1099 0.1099 0.9939 -22.9993 70.9186)" class="st4" width="16.7" height="5.6"/>
		
			<rect x="625.9" y="264" transform="matrix(0.9939 -0.1099 0.1099 0.9939 -25.5136 70.7101)" class="st4" width="5.6" height="5.6"/>
		
			<rect x="630.9" y="257.9" transform="matrix(0.9939 -0.1099 0.1099 0.9939 -24.8121 71.2225)" class="st4" width="5.6" height="5.6"/>
	</g>
	<g>
		<polygon class="st3" points="549.8,319.1 552.4,308.3 547.1,307 548.3,301.6 542.9,300.3 544.2,294.9 533.4,292.3 534.6,287 
			491.3,276.7 490,282.1 479.2,279.6 477.9,284.9 472.6,283.6 471.3,289.1 465.8,287.8 463.3,298.6 457.9,297.3 447.6,340.7 
			453.1,342 450.5,352.8 455.9,354.1 454.6,359.4 460,360.7 458.8,366.2 469.6,368.7 468.3,374.1 511.6,384.4 512.9,378.9 
			523.7,381.5 525,376.1 530.4,377.4 531.6,371.9 537.1,373.2 539.7,362.4 545,363.7 555.3,320.4 		"/>
		<polygon class="st2" points="549.8,319.1 544.5,317.8 547.1,307 541.6,305.7 542.9,300.3 532.1,297.8 533.4,292.3 490,282.1 
			488.7,287.5 477.9,284.9 476.6,290.4 471.3,289.1 468.7,299.9 463.3,298.6 453.1,342 458.4,343.3 455.9,354.1 461.3,355.3 
			460,360.7 470.9,363.3 469.6,368.7 512.9,378.9 514.2,373.5 525,376.1 526.3,370.7 531.6,371.9 534.2,361.1 539.7,362.4 		"/>
		<g>
			
				<rect x="511.3" y="305.1" transform="matrix(0.2299 -0.9732 0.9732 0.2299 90.8663 741.6616)" class="st3" width="5.6" height="16.7"/>
			
				<rect x="500.9" y="348.4" transform="matrix(0.2299 -0.9732 0.9732 0.2299 40.7457 764.9606)" class="st3" width="5.6" height="16.7"/>
			<polygon class="st3" points="493.2,317.1 491.9,322.5 486.5,321.3 485.2,326.7 490.7,327.9 489.4,333.4 483.9,332.1 482.6,337.5 
				488.1,338.8 486.8,344.2 492.3,345.5 493.4,340 509.7,343.9 511,338.4 494.7,334.7 496,329.2 512.3,333.1 513.6,327.6 
				497.3,323.8 498.6,318.4 			"/>
			
				<rect x="499.2" y="313.5" transform="matrix(0.2299 -0.9732 0.9732 0.2299 78.7601 732.1251)" class="st3" width="5.6" height="5.6"/>
			
				<rect x="491.5" y="346" transform="matrix(0.2299 -0.9732 0.9732 0.2299 41.211 749.6143)" class="st3" width="5.6" height="5.6"/>
		</g>
		
			<rect x="438.7" y="318.1" transform="matrix(0.2299 -0.9732 0.9732 0.2299 42.7138 695.6813)" class="st4" width="44.5" height="5.6"/>
		
			<rect x="467.2" y="292.3" transform="matrix(0.2299 -0.9732 0.9732 0.2299 76.8099 687.3134)" class="st4" width="11.1" height="5.6"/>
		
			<rect x="479.9" y="283.3" transform="matrix(0.2299 -0.9732 0.9732 0.2299 90.6692 692.2295)" class="st4" width="5.6" height="11.1"/>
		
			<rect x="494.7" y="278.4" transform="matrix(0.2299 -0.9732 0.9732 0.2299 104.0929 705.0181)" class="st4" width="5.6" height="16.7"/>
		
			<rect x="484.2" y="304.3" transform="matrix(0.2299 -0.9732 0.9732 0.2299 76.2009 710.5005)" class="st4" width="5.6" height="5.6"/>
		
			<rect x="490.9" y="300.1" transform="matrix(0.2299 -0.9732 0.9732 0.2299 85.4461 713.7017)" class="st4" width="5.6" height="5.6"/>
	</g>
	<g>
		
			<rect x="333.3" y="424.2" transform="matrix(5.905823e-02 -0.9983 0.9983 5.905823e-02 -110.0308 738.2642)" class="st5" width="6.6" height="6.6"/>
		<g>
			<polygon class="st6" points="355.5,385.8 348.9,385.4 349.3,378.8 342.7,378.5 343.2,371.9 297.2,369.2 296.8,375.8 290.3,375.3 
				289.8,381.9 283.3,381.5 281.4,414.3 287.9,414.7 287.5,421.3 294.1,421.6 293.7,428.2 339.6,431 340,424.4 346.6,424.8 
				347,418.2 353.5,418.6 			"/>
			
				<rect x="315.3" y="370.4" transform="matrix(5.905823e-02 -0.9983 0.9983 5.905823e-02 -86.4538 682.0182)" class="st7" width="6.6" height="32.9"/>
			
				<rect x="308.6" y="377.1" transform="matrix(5.905823e-02 -0.9983 0.9983 5.905823e-02 -86.5944 681.957)" class="st7" width="19.7" height="19.7"/>
			
				<rect x="285.4" y="398.5" transform="matrix(5.905823e-02 -0.9983 0.9983 5.905823e-02 -126.3605 669.5428)" class="st8" width="13.1" height="6.6"/>
			
				<rect x="294.6" y="408.7" transform="matrix(5.905823e-02 -0.9983 0.9983 5.905823e-02 -130.8953 685.0657)" class="st8" width="6.6" height="6.6"/>
			
				<rect x="340.3" y="417.9" transform="matrix(5.905823e-02 -0.9983 0.9983 5.905823e-02 -97.2296 739.3098)" class="st5" width="6.6" height="6.6"/>
			
				<rect x="347.2" y="411.8" transform="matrix(5.905823e-02 -0.9983 0.9983 5.905823e-02 -84.5821 740.5325)" class="st5" width="6.6" height="6.6"/>
			
				<rect x="335.2" y="391.4" transform="matrix(5.905823e-02 -0.9983 0.9983 5.905823e-02 -75.4952 709.2938)" class="st8" width="6.6" height="6.6"/>
		</g>
	</g>
	<g>
		<polygon class="st6" points="405,67.9 398.7,67.6 399,61.3 392.7,61 393,54.6 348.8,52.6 348.5,58.9 342.1,58.6 341.8,64.9 
			335.5,64.6 334.1,96.2 340.3,96.5 340.1,102.8 346.4,103.1 346.1,109.4 390.3,111.5 390.6,105.2 396.9,105.5 397.3,99.2 
			403.6,99.5 		"/>
		
			<rect x="366.2" y="53.5" transform="matrix(4.686855e-02 -0.9989 0.9989 4.686855e-02 282.812 435.0296)" class="st7" width="6.3" height="31.6"/>
		
			<rect x="360" y="59.9" transform="matrix(4.686855e-02 -0.9989 0.9989 4.686855e-02 282.8505 435.1791)" class="st7" width="19" height="19"/>
		
			<rect x="337.7" y="80.8" transform="matrix(4.686855e-02 -0.9989 0.9989 4.686855e-02 244.1039 423.7174)" class="st8" width="12.7" height="6.3"/>
		
			<rect x="346.8" y="90.6" transform="matrix(4.686855e-02 -0.9989 0.9989 4.686855e-02 239.8307 438.9466)" class="st8" width="6.3" height="6.3"/>
		
			<rect x="384.1" y="105.1" transform="matrix(4.686855e-02 -0.9989 0.9989 4.686855e-02 261.0122 489.9769)" class="st5" width="6.3" height="6.3"/>
		
			<rect x="390.8" y="99" transform="matrix(4.686855e-02 -0.9989 0.9989 4.686855e-02 273.4129 490.8402)" class="st5" width="6.3" height="6.3"/>
		
			<rect x="397.4" y="93" transform="matrix(4.686855e-02 -0.9989 0.9989 4.686855e-02 285.7088 491.7939)" class="st5" width="6.3" height="6.3"/>
		
			<rect x="392.3" y="67.5" transform="matrix(4.686855e-02 -0.9989 0.9989 4.686855e-02 306.4019 462.3199)" class="st8" width="6.3" height="6.3"/>
	</g>
	<g id="top_lines">
	</g>
	<g>
		<rect x="106.5" y="113.2" transform="matrix(0.9651 -0.2619 0.2619 0.9651 -26.6077 32.7342)" class="st5" width="6" height="6"/>
		<g>
			<polygon class="st6" points="113.7,74.9 107.9,76.5 106.3,70.7 100.6,72.3 99.1,66.5 58.8,77.4 60.3,83.2 54.6,84.7 56.1,90.5 
				50.3,92.1 58.2,120.8 63.9,119.2 65.5,125 71.2,123.4 72.8,129.2 113.1,118.3 111.5,112.6 117.3,111 115.7,105.2 121.4,103.6 			
				"/>
			
				<rect x="67.3" y="83.5" transform="matrix(0.9651 -0.2619 0.2619 0.9651 -19.7827 24.5465)" class="st7" width="29.8" height="6"/>
			
				<rect x="73.2" y="77.6" transform="matrix(0.9651 -0.2619 0.2619 0.9651 -19.8 24.5395)" class="st7" width="17.9" height="17.9"/>
			
				<rect x="60.7" y="101" transform="matrix(0.9651 -0.2619 0.2619 0.9651 -25.7852 20.4144)" class="st8" width="6" height="11.9"/>
			<rect x="68.8" y="111.1" transform="matrix(0.9651 -0.2619 0.2619 0.9651 -27.3735 22.7914)" class="st8" width="6" height="6"/>
			
				<rect x="110.7" y="105.9" transform="matrix(0.9651 -0.2619 0.2619 0.9651 -24.5467 33.5817)" class="st5" width="6" height="6"/>
			<rect x="114.9" y="98.6" transform="matrix(0.9651 -0.2619 0.2619 0.9651 -22.4881 34.4252)" class="st5" width="6" height="6"/>
			<rect x="98.7" y="84.5" transform="matrix(0.9651 -0.2619 0.2619 0.9651 -19.3601 29.6918)" class="st8" width="6" height="6"/>
		</g>
	</g>
	<line class="st9" x1="45" y1="638" x2="1061.3" y2="638"/>
	<line class="st9" x1="867.4" y1="638" x2="867.4" y2="624.5"/>
	<line class="st9" x1="964.1" y1="638" x2="964.1" y2="624.5"/>
	<line class="st9" x1="670.5" y1="638" x2="670.5" y2="624.5"/>
	<line class="st9" x1="767.2" y1="638" x2="767.2" y2="624.5"/>
	<line class="st9" x1="472.5" y1="638" x2="472.5" y2="624.5"/>
	<line class="st9" x1="569.2" y1="638" x2="569.2" y2="624.5"/>
	<line class="st9" x1="274.5" y1="638" x2="274.5" y2="624.5"/>
	<line class="st9" x1="371.2" y1="638" x2="371.2" y2="624.5"/>
	<line class="st9" x1="173.2" y1="638" x2="173.2" y2="624.5"/>
	<line class="st9" x1="74.2" y1="638" x2="74.2" y2="624.5"/>
	<path class="st10" d="M45,631h61.7c0,0,23.1-4.1,25.1-2.7c2,1.4,9.5,0.7,14.2,2.7s17-3,17-3s14.2,1.2,22.4,3.5
		c8.1,2.2,28.5-2.4,31.9-3.5s9.5,3.8,16.3,4.1s34.6,0,34.6,0s29.9-3,33.9-2.1c4.1,1,12.9-1.3,19-2.2s17.6,3.5,23.1,4.4
		c5.4,0.8,10.9-2.6,19-2.2c8.1,0.4,21.7-2.8,24.4-2.2c2.7,0.6,10.9,5.3,22.4,4.6s26.5,2.8,29.2,0.1s10.9-7.5,10.9-7.5
		s10.2,5.2,17,4.3s16.3,0.2,23.7,0c7.5-0.2,9.5-1.1,30.5,0s45.4,0.2,53.6,0c8.2-0.2,21.1,0.2,24.5,0s14.9,0,14.9,0s0.7-3.6,7.5-4.3
		s10.9,5.2,16.3,4.3s6.1-3,16.3-4.3s13.6,5.2,16.3,4.3s19-2,25.1-4.5s6.8,1.1,16.3,0s25.8-4.5,25.8-4.5s4.7,4.5,14.2,6.7
		s17,1.9,27.1,0c10.2-1.9,22.4,1.9,25.1,0c2.7-1.9,6.8-12.1,12.9-12.1s13.6-8.1,19-7.5c5.4,0.7,7.5,6.1,17,6.1c0,0,3.4-6.9,13.6-6.1
		s3.4,6.1,10.2,6.1s6.1-7.6,10.9-6.2c4.7,1.4,5.4,7.6,9.5,5.5c4.1-2,22.4-69.2,27.8-71.2c5.4-2,11.5,0.7,15.6,0
		s10.9-147.9,17.6-147.9c6.8,0,12.9,65.8,17,65.8S996.3,403,999,325s3.4-197,11.5-196.9s10.9,6.3,12.2,1.5
		c1.4-4.8,6.8-22.2,10.9-19.6s5.4,35.1,10.9,36.2s12.9-18.2,12.9-43.2"/>
	<g>
		<path class="st11" d="M47.6,720.8h-1.3V705H49v14.5h1.3v1.3h5.3v-1.3h1.3V705h2.6v15.8h-1.3v1.3h-1.3v1.3H49v-1.3h-1.3v-1.3H47.6z
			"/>
		<path class="st11" d="M74,707.6h1.3v2.6h-2.6v-1.3h-1.3v-1.3h-5.3v1.3h-1.3v2.6h1.3v1.3h6.6v1.3H74v1.3h1.3v5.3H74v1.3h-1.3v1.3
			h-7.9V722h-1.3v-1.3h-1.3v-2.6h2.6v1.3h1.3v1.3h5.3v-1.3h1.3v-2.6h-1.3v-1.3h-6.6v-1.3h-1.3v-1.3h-1.3v-5.3h1.3v-1.3h1.3V705h7.9
			v1.3H74V707.6z"/>
		<path class="st11" d="M91.1,705v2.6H80.6v5.3h7.9v2.6h-7.9v5.3h10.5v2.6H78V705H91.1z"/>
		<path class="st11" d="M112.2,706.3V705h7.9v1.3h1.3v1.3h1.3v13.2h-1.3v1.3h-1.3v1.3h-7.9v-1.3h-1.3v-1.3h-1.3v-13.2h1.3v-1.3
			H112.2z M118.8,707.6h-5.3v1.3h-1.3v10.5h1.3v1.3h5.3v-1.3h1.3v-10.5h-1.3V707.6z"/>
		<path class="st11" d="M138.6,705v2.6h-10.5v5.3h7.9v2.6h-7.9v7.9h-2.6V705H138.6z"/>
		<path class="st11" d="M166.3,708.9h1.3v4h-4v-5.3h1.3v-1.3h1.3L166.3,708.9L166.3,708.9z M167.6,705v1.3h-1.3V705H167.6z"/>
		<path class="st11" d="M184.7,707.6h1.3v2.6h-2.6v-1.3h-1.3v-1.3h-5.3v1.3h-1.3v2.6h1.3v1.3h6.6v1.3h1.3v1.3h1.3v5.3h-1.3v1.3h-1.3
			v1.3h-7.9V722h-1.3v-1.3h-1.3v-2.6h2.6v1.3h1.3v1.3h5.3v-1.3h1.3v-2.6h-1.3v-1.3h-6.6v-1.3h-1.3v-1.3h-1.3v-5.3h1.3v-1.3h1.3V705
			h7.9v1.3h1.3V707.6z"/>
		<path class="st11" d="M190,720.8h-1.3V705h2.6v14.5h1.3v1.3h5.3v-1.3h1.3V705h2.6v15.8h-1.3v1.3h-1.3v1.3h-7.9v-1.3H190V720.8z"/>
		<path class="st11" d="M207.2,715.5v7.9h-2.6V705h10.5v1.3h1.3v1.3h1.3v5.3h-1.3v1.3h-1.3v1.3L207.2,715.5L207.2,715.5z
			 M207.2,707.6v5.3h6.6v-1.3h1.3V709h-1.3v-1.3h-6.6V707.6z"/>
		<path class="st11" d="M233.5,705v2.6H223v5.3h7.9v2.6H223v5.3h10.5v2.6h-13.2V705H233.5z"/>
		<path class="st11" d="M240.1,715.5h-1.3v7.9h-2.6V705h10.5v1.3h1.3v1.3h1.3v5.3H248v1.3h-1.3v1.3h-2.6v1.3h1.3v1.3h1.3v1.3h1.3
			v1.3h1.3v2.6h-2.6V722h-1.3v-1.3h-1.3v-1.3h-1.3v-1.3h-1.3v-1.3h-1.3L240.1,715.5L240.1,715.5z M238.8,707.6v5.3h6.6v-1.3h1.3V709
			h-1.3v-1.3h-6.6V707.6z"/>
		<path class="st11" d="M265.2,705v2.6h-10.5v5.3h7.9v2.6h-7.9v7.9H252V705H265.2z"/>
		<path class="st11" d="M270.4,706.3V705h7.9v1.3h1.3v1.3h1.3v13.2h-1.3v1.3h-1.3v1.3h-7.9v-1.3h-1.3v-1.3h-1.3v-13.2h1.3v-1.3
			H270.4z M277,707.6h-5.3v1.3h-1.3v10.5h1.3v1.3h5.3v-1.3h1.3v-10.5H277V707.6z"/>
		<path class="st11" d="M286.3,706.3V705h7.9v1.3h1.3v1.3h1.3v13.2h-1.3v1.3h-1.3v1.3h-7.9v-1.3H285v-1.3h-1.3v-13.2h1.3v-1.3H286.3
			z M292.9,707.6h-5.3v1.3h-1.3v10.5h1.3v1.3h5.3v-1.3h1.3v-10.5h-1.3V707.6z"/>
		<path class="st11" d="M299.4,723.4V705H310v1.3h1.3v1.3h1.3v13.2h-1.3v1.3H310v1.3L299.4,723.4L299.4,723.4z M302.1,707.6v13.2
			h6.6v-1.3h1.3V709h-1.3v-1.3h-6.6V707.6z"/>
		<path class="st11" d="M319.2,708.9h-1.3v-4h4v5.3h-1.3v1.3h-1.3v-2.6H319.2z M317.9,712.9v-1.3h1.3v1.3H317.9z"/>
		<path class="st11" d="M54.2,754.5h1.3v1.3h-2.6v-1.3h-1.3v-1.3h-1.3v-1.3H49v-13.2h1.3v-1.3h1.3v-1.3h1.3v-1.3h2.6v1.3h-1.3v1.3
			h-1.3v1.3h-1.3v13.2h1.3v1.3h1.3C54.2,753.2,54.2,754.5,54.2,754.5z"/>
		<path class="st11" d="M70,753.2h2.6v2.6h-7.9v-2.6h2.6v-10.5h-2.6V740H66v-1.3h1.3v-1.3H70V753.2z"/>
		<path class="st11" d="M79.3,753.2H78v-2.6h2.6v1.3h1.3v1.3h5.3v-1.3h1.3v-4h-7.9v-1.3h-1.3v-1.3H78V740h1.3v-1.3h1.3v-1.3h7.9v1.3
			h1.3v1.3h1.3v13.2h-1.3v1.3h-1.3v1.3h-7.9v-1.3h-1.3V753.2z M88.5,745.3v-4h-1.3V740h-5.3v1.3h-1.3v2.7h1.3v1.3H88.5z"/>
		<path class="st11" d="M101.7,753.2h2.6v2.6h-7.9v-2.6H99v-10.5h-2.6V740h1.3v-1.3H99v-1.3h2.6L101.7,753.2L101.7,753.2z"/>
		<path class="st11" d="M120.1,740h-10.5v-2.6h13.2v6.6h-1.3v1.3h-1.3v1.3h-1.3v1.3h-1.3v7.9H115v-9.2h1.3v-1.3h1.3V744h1.3v-1.3
			h1.3L120.1,740L120.1,740z"/>
		<path class="st11" d="M153.1,745.3v2.6h-10.5v-2.6H153.1z"/>
		<path class="st11" d="M175.5,753.2H186v2.6h-13.2v-7.9h1.3v-1.3h1.3v-1.3h6.6V744h1.3v-2.6H182V740h-5.3v1.3h-1.3v1.3h-2.6V740
			h1.3v-1.3h1.3v-1.3h7.9v1.3h1.3v1.3h1.3v5.3h-1.3v1.3h-1.3v1.3h-6.6v1.3h-1.3v4H175.5z"/>
		<path class="st11" d="M191.3,738.7v-1.3h7.9v1.3h1.3v1.3h1.3v13.2h-1.3v1.3h-1.3v1.3h-7.9v-1.3H190v-1.3h-1.3V740h1.3v-1.3H191.3z
			 M192.7,747.9v-1.3h1.3v-1.3h1.3V744h1.3v-1.3h2.6v-1.3h-1.3V740h-5.3v1.3h-1.3v6.6L192.7,747.9L192.7,747.9z M191.3,750.6v1.3
			h1.3v1.3h5.3v-1.3h1.3v-6.6h-1.3v1.3h-1.3v1.3h-1.3v1.3H194v1.3h-2.7V750.6z"/>
		<path class="st11" d="M212.4,753.2h2.6v2.6h-7.9v-2.6h2.6v-10.5h-2.6V740h1.3v-1.3h1.3v-1.3h2.6L212.4,753.2L212.4,753.2z"/>
		<path class="st11" d="M221.7,753.2h-1.3v-2.6h2.6v1.3h1.3v1.3h5.3v-1.3h1.3v-4H223v-1.3h-1.3v-1.3h-1.3V740h1.3v-1.3h1.3v-1.3h7.9
			v1.3h1.3v1.3h1.3v13.2h-1.3v1.3h-1.3v1.3H223v-1.3h-1.3V753.2z M230.9,745.3v-4h-1.3V740h-5.3v1.3H223v2.7h1.3v1.3H230.9z"/>
		<path class="st11" d="M242.8,754.5v1.3h-2.6v-1.3h1.3v-1.3h1.3v-1.3h1.3v-13.2h-1.3v-1.3h-1.3v-1.3h-1.3v-1.3h2.6v1.3h1.3v1.3h1.3
			v1.3h1.3v13.2h-1.3v1.3h-1.3v1.3H242.8z"/>
		<path class="st11" d="M279.7,740h1.3v2.6h-2.6v-1.3H277V740h-5.3v1.3h-1.3v10.5h1.3v1.3h5.3v-1.3h1.3v-4h-4v-2.6h6.6v7.9h-1.3v1.3
			h-1.3v1.3h-7.9v-1.3h-1.3v-1.3h-1.3V740h1.3v-1.3h1.3v-1.3h7.9v1.3h1.3v1.3H279.7z"/>
		<path class="st11" d="M286.3,738.7v-1.3h7.9v1.3h1.3v1.3h1.3v13.2h-1.3v1.3h-1.3v1.3h-7.9v-1.3H285v-1.3h-1.3V740h1.3v-1.3H286.3z
			 M292.9,740h-5.3v1.3h-1.3v10.5h1.3v1.3h5.3v-1.3h1.3v-10.5h-1.3V740z"/>
		<path class="st11" d="M302.1,738.7v-1.3h7.9v1.3h1.3v1.3h1.3v13.2h-1.3v1.3H310v1.3h-7.9v-1.3h-1.3v-1.3h-1.3V740h1.3v-1.3H302.1z
			 M308.7,740h-5.3v1.3h-1.3v10.5h1.3v1.3h5.3v-1.3h1.3v-10.5h-1.3V740z"/>
		<path class="st11" d="M327.1,740h1.3v2.6h-2.6v-1.3h-1.3V740h-5.3v1.3h-1.3v10.5h1.3v1.3h5.3v-1.3h1.3v-4h-4v-2.6h6.6v7.9h-1.3
			v1.3h-1.3v1.3h-7.9v-1.3h-1.3v-1.3h-1.3V740h1.3v-1.3h1.3v-1.3h7.9v1.3h1.3V740z"/>
		<path class="st11" d="M331.1,755.8v-18.5h2.6v15.8h10.5v2.6h-13.1V755.8z"/>
		<path class="st11" d="M360.1,737.4v2.6h-10.5v5.3h7.9v2.6h-7.9v5.3h10.5v2.6h-13.2v-18.5h13.2V737.4z"/>
		<path class="st11" d="M381.2,745.3v10.5h-2.6v-18.5h2.6v4h1.3v1.3h1.3v1.3h1.3v1.3h1.3v1.3h1.3v1.3h1.3v-10.5h2.6v18.5H389v-4
			h-1.3v-1.3h-1.3v-1.3h-1.3v-1.3h-1.3v-1.3h-1.3v-1.3H381.2z"/>
		<path class="st11" d="M406.2,740h1.3v2.6h-2.6v-1.3h-1.3V740h-5.3v1.3H397v10.5h1.3v1.3h5.3v-1.3h1.3v-4h-4v-2.6h6.6v7.9h-1.3v1.3
			h-1.3v1.3H397v-1.3h-1.3v-1.3h-1.3V740h1.3v-1.3h1.3v-1.3h7.9v1.3h1.3L406.2,740L406.2,740z"/>
		<path class="st11" d="M414.1,747.9h-1.3v7.9h-2.6v-18.5h10.5v1.3h1.3v1.3h1.3v5.3H422v1.3h-1.3v1.3h-2.6v1.3h1.3v1.3h1.3v1.3h1.3
			v1.3h1.3v2.6h-2.6v-1.3h-1.3V753h-1.3v-1.3h-1.3v-1.3h-1.3v-1.3h-1.3v-1.2H414.1z M412.8,740v5.3h6.6V744h1.3v-2.6h-1.3V740H412.8
			z"/>
		<path class="st11" d="M428.6,755.8H426v-13.2h1.3v-1.3h1.3V740h1.3v-1.3h1.3v-1.3h2.6v1.3h1.3v1.3h1.3v1.3h1.3v1.3h1.3v13.2h-2.6
			v-5.3h-7.9v5.3H428.6z M428.6,747.9h7.9v-4h-1.3v-1.3h-1.3v-1.3h-2.6v1.3H430v1.3h-1.3v4H428.6z"/>
		<path class="st11" d="M444.5,755.8h-2.6v-18.5h2.6v2.6h1.3v1.3h1.3v1.3h2.6v-1.3h1.3V740h1.3v-2.6h2.6v18.5h-2.6V744H451v1.3h-1.3
			v2.6h-2.6v-2.6h-1.3V744h-1.3V755.8z"/>
	</g>
	<line class="st9" x1="1060.7" y1="637.8" x2="1060.7" y2="624.3"/>
</g>
<g id="Layer_2">
	<g>
		<path d="M60.2,652h1.5v1.5h-4.4V652h1.5v-5.9h-1.5v-1.5H58V644h0.7v-0.7h1.5V652z"/>
		<path d="M65.3,652h-0.7v-1.5h1.5v0.7h0.7v0.7h2.9v-0.7h0.7v-2.2h-4.4v-0.7h-0.7v-0.7h-0.7v-2.9h0.7V644h0.7v-0.7h4.4v0.7h0.7v0.7
			h0.7v7.3h-0.7v0.7h-0.7v0.7h-4.4v-0.7h-0.7V652z M70.5,647.6v-2.2h-0.7v-0.7h-2.9v0.7h-0.7v1.5h0.7v0.7H70.5z"/>
		<path d="M74.9,652h5.9v1.5h-7.3v-4.4h0.7v-0.7h0.7v-0.7h3.7v-0.7h0.7v-1.5h-0.7v-0.7h-2.9v0.7h-0.7v0.7h-1.5v-1.5h0.7V644h0.7
			v-0.7h4.4v0.7H80v0.7h0.7v2.9H80v0.7h-0.7v0.7h-3.7v0.7h-0.7V652z"/>
		<path d="M83.7,644v-0.7H88v0.7h0.7v0.7h0.7v7.3h-0.7v0.7H88v0.7h-4.4v-0.7h-0.7V652h-0.7v-7.3h0.7V644H83.7z M84.4,649.1v-0.7h0.7
			v-0.7h0.7v-0.7h0.7v-0.7H88v-0.7h-0.7v-0.7h-2.9v0.7h-0.7v3.7H84.4z M83.7,650.6v0.7h0.7v0.7h2.9v-0.7H88v-3.7h-0.7v0.7h-0.7v0.7
			h-0.7v0.7h-0.7v0.7H83.7z"/>
	</g>
	<g>
		<path d="M160.2,651.8h1.5v1.5h-4.4v-1.5h1.5v-5.9h-1.5v-1.5h0.7v-0.7h0.7V643h1.5V651.8z"/>
		<path d="M165.3,651.8h-0.7v-1.5h1.5v0.7h0.7v0.7h2.9V651h0.7v-2.2h-4.4v-0.7h-0.7v-0.7h-0.7v-2.9h0.7v-0.7h0.7V643h4.4v0.7h0.7
			v0.7h0.7v7.3h-0.7v0.7h-0.7v0.7h-4.4v-0.7h-0.7V651.8z M170.5,647.4v-2.2h-0.7v-0.7h-2.9v0.7h-0.7v1.5h0.7v0.7H170.5z"/>
		<path d="M174.1,651.8h-0.7v-1.5h1.5v0.7h0.7v0.7h2.9V651h0.7v-1.5h-0.7v-0.7h-2.2v-1.5h2.2v-0.7h0.7v-1.5h-0.7v-0.7h-2.9v0.7h-0.7
			v0.7h-1.5v-1.5h0.7v-0.7h0.7V643h4.4v0.7h0.7v0.7h0.7v2.9H180v1.5h0.7v2.9H180v0.7h-0.7v0.7h-4.4v-0.7h-0.7V651.8z"/>
		<path d="M183.7,643.7V643h4.4v0.7h0.7v0.7h0.7v7.3h-0.7v0.7H188v0.7h-4.4v-0.7h-0.7v-0.7h-0.7v-7.3h0.7v-0.7H183.7z M184.4,648.9
			v-0.7h0.7v-0.7h0.7v-0.7h0.7v-0.7h1.5v-0.7h-0.7v-0.7h-2.9v0.7h-0.7v3.7H184.4z M183.7,650.3v0.7h0.7v0.7h2.9V651h0.7v-3.7h-0.7
			v0.7h-0.7v0.7h-0.7v0.7h-0.7v0.7H183.7z"/>
	</g>
	<g>
		<path d="M260.2,651.8h1.5v1.5h-4.4v-1.5h1.5v-5.9h-1.5v-1.5h0.7v-0.7h0.7V643h1.5V651.8z"/>
		<path d="M265.3,651.8h-0.7v-1.5h1.5v0.7h0.7v0.7h2.9V651h0.7v-2.2h-4.4v-0.7h-0.7v-0.7h-0.7v-2.9h0.7v-0.7h0.7V643h4.4v0.7h0.7
			v0.7h0.7v7.3h-0.7v0.7h-0.7v0.7h-4.4v-0.7h-0.7V651.8z M270.5,647.4v-2.2h-0.7v-0.7h-2.9v0.7h-0.7v1.5h0.7v0.7H270.5z"/>
		<path d="M277.8,643.7V643h1.5v5.9h1.5v1.5h-1.5v2.9h-1.5v-2.9h-4.4v-2.9h0.7v-0.7h0.7v-0.7h0.7v-0.7h0.7v-0.7h0.7v-0.7H277.8z
			 M277.8,648.9v-2.9h-0.7v0.7h-0.7v0.7h-0.7v0.7h-0.7v0.7H277.8z"/>
		<path d="M283.7,643.7V643h4.4v0.7h0.7v0.7h0.7v7.3h-0.7v0.7H288v0.7h-4.4v-0.7h-0.7v-0.7h-0.7v-7.3h0.7v-0.7H283.7z M284.4,648.9
			v-0.7h0.7v-0.7h0.7v-0.7h0.7v-0.7h1.5v-0.7h-0.7v-0.7h-2.9v0.7h-0.7v3.7H284.4z M283.7,650.3v0.7h0.7v0.7h2.9V651h0.7v-3.7h-0.7
			v0.7h-0.7v0.7h-0.7v0.7h-0.7v0.7H283.7z"/>
	</g>
	<g>
		<path d="M360.2,651.8h1.5v1.5h-4.4v-1.5h1.5v-5.9h-1.5v-1.5h0.7v-0.7h0.7V643h1.5V651.8z"/>
		<path d="M365.3,651.8h-0.7v-1.5h1.5v0.7h0.7v0.7h2.9V651h0.7v-2.2h-4.4v-0.7h-0.7v-0.7h-0.7v-2.9h0.7v-0.7h0.7V643h4.4v0.7h0.7
			v0.7h0.7v7.3h-0.7v0.7h-0.7v0.7h-4.4v-0.7h-0.7V651.8z M370.5,647.4v-2.2h-0.7v-0.7h-2.9v0.7h-0.7v1.5h0.7v0.7H370.5z"/>
		<path d="M373.4,643h7.3v1.5h-5.9v1.5h4.4v0.7h0.7v0.7h0.7v4.4H380v0.7h-0.7v0.7h-4.4v-0.7h-0.7v-0.7h-0.7v-1.5h1.5v0.7h0.7v0.7
			h2.9V651h0.7v-2.9h-0.7v-0.7h-5.1V643z"/>
		<path d="M383.7,643.7V643h4.4v0.7h0.7v0.7h0.7v7.3h-0.7v0.7H388v0.7h-4.4v-0.7h-0.7v-0.7h-0.7v-7.3h0.7v-0.7H383.7z M384.4,648.9
			v-0.7h0.7v-0.7h0.7v-0.7h0.7v-0.7h1.5v-0.7h-0.7v-0.7h-2.9v0.7h-0.7v3.7H384.4z M383.7,650.3v0.7h0.7v0.7h2.9V651h0.7v-3.7h-0.7
			v0.7h-0.7v0.7h-0.7v0.7h-0.7v0.7H383.7z"/>
	</g>
	<g>
		<path d="M460.2,651.8h1.5v1.5h-4.4v-1.5h1.5v-5.9h-1.5v-1.5h0.7v-0.7h0.7V643h1.5V651.8z"/>
		<path d="M465.3,651.8h-0.7v-1.5h1.5v0.7h0.7v0.7h2.9V651h0.7v-2.2h-4.4v-0.7h-0.7v-0.7h-0.7v-2.9h0.7v-0.7h0.7V643h4.4v0.7h0.7
			v0.7h0.7v7.3h-0.7v0.7h-0.7v0.7h-4.4v-0.7h-0.7V651.8z M470.5,647.4v-2.2h-0.7v-0.7h-2.9v0.7h-0.7v1.5h0.7v0.7H470.5z"/>
		<path d="M479.3,652.5v0.7h-4.4v-0.7h-0.7v-0.7h-0.7v-7.3h0.7v-0.7h0.7V643h4.4v0.7h0.7v0.7h0.7v1.5h-1.5v-0.7h-0.7v-0.7h-2.9v0.7
			h-0.7v2.2h4.4v0.7h0.7v0.7h0.7v2.9H480v0.7H479.3z M475.6,651.8h2.9V651h0.7v-1.5h-0.7v-0.7h-3.7v2.2h0.7V651.8z"/>
		<path d="M483.7,643.7V643h4.4v0.7h0.7v0.7h0.7v7.3h-0.7v0.7H488v0.7h-4.4v-0.7h-0.7v-0.7h-0.7v-7.3h0.7v-0.7H483.7z M484.4,648.9
			v-0.7h0.7v-0.7h0.7v-0.7h0.7v-0.7h1.5v-0.7h-0.7v-0.7h-2.9v0.7h-0.7v3.7H484.4z M483.7,650.3v0.7h0.7v0.7h2.9V651h0.7v-3.7h-0.7
			v0.7h-0.7v0.7h-0.7v0.7h-0.7v0.7H483.7z"/>
	</g>
	<g>
		<path d="M560.2,651.8h1.5v1.5h-4.4v-1.5h1.5v-5.9h-1.5v-1.5h0.7v-0.7h0.7V643h1.5V651.8z"/>
		<path d="M565.3,651.8h-0.7v-1.5h1.5v0.7h0.7v0.7h2.9V651h0.7v-2.2h-4.4v-0.7h-0.7v-0.7h-0.7v-2.9h0.7v-0.7h0.7V643h4.4v0.7h0.7
			v0.7h0.7v7.3h-0.7v0.7h-0.7v0.7h-4.4v-0.7h-0.7V651.8z M570.5,647.4v-2.2h-0.7v-0.7h-2.9v0.7h-0.7v1.5h0.7v0.7H570.5z"/>
		<path d="M579.3,644.5h-5.9V643h7.3v3.7H580v0.7h-0.7v0.7h-0.7v0.7h-0.7v4.4h-1.5v-5.1h0.7v-0.7h0.7v-0.7h0.7v-0.7h0.7V644.5z"/>
		<path d="M583.7,643.7V643h4.4v0.7h0.7v0.7h0.7v7.3h-0.7v0.7H588v0.7h-4.4v-0.7h-0.7v-0.7h-0.7v-7.3h0.7v-0.7H583.7z M584.4,648.9
			v-0.7h0.7v-0.7h0.7v-0.7h0.7v-0.7h1.5v-0.7h-0.7v-0.7h-2.9v0.7h-0.7v3.7H584.4z M583.7,650.3v0.7h0.7v0.7h2.9V651h0.7v-3.7h-0.7
			v0.7h-0.7v0.7h-0.7v0.7h-0.7v0.7H583.7z"/>
	</g>
	<g>
		<path d="M660.2,651.8h1.5v1.5h-4.4v-1.5h1.5v-5.9h-1.5v-1.5h0.7v-0.7h0.7V643h1.5V651.8z"/>
		<path d="M665.3,651.8h-0.7v-1.5h1.5v0.7h0.7v0.7h2.9V651h0.7v-2.2h-4.4v-0.7h-0.7v-0.7h-0.7v-2.9h0.7v-0.7h0.7V643h4.4v0.7h0.7
			v0.7h0.7v7.3h-0.7v0.7h-0.7v0.7h-4.4v-0.7h-0.7V651.8z M670.5,647.4v-2.2h-0.7v-0.7h-2.9v0.7h-0.7v1.5h0.7v0.7H670.5z"/>
		<path d="M679.3,652.5v0.7h-4.4v-0.7h-0.7v-0.7h-0.7v-2.9h0.7v-1.5h-0.7v-2.9h0.7v-0.7h0.7V643h4.4v0.7h0.7v0.7h0.7v2.9H680v1.5
			h0.7v2.9H680v0.7H679.3z M678.5,644.5h-2.9v0.7h-0.7v1.5h0.7v0.7h2.9v-0.7h0.7v-1.5h-0.7V644.5z M675.6,651.8h2.9V651h0.7v-1.5
			h-0.7v-0.7h-2.9v0.7h-0.7v1.5h0.7V651.8z"/>
		<path d="M683.7,643.7V643h4.4v0.7h0.7v0.7h0.7v7.3h-0.7v0.7H688v0.7h-4.4v-0.7h-0.7v-0.7h-0.7v-7.3h0.7v-0.7H683.7z M684.4,648.9
			v-0.7h0.7v-0.7h0.7v-0.7h0.7v-0.7h1.5v-0.7h-0.7v-0.7h-2.9v0.7h-0.7v3.7H684.4z M683.7,650.3v0.7h0.7v0.7h2.9V651h0.7v-3.7h-0.7
			v0.7h-0.7v0.7h-0.7v0.7h-0.7v0.7H683.7z"/>
	</g>
	<g>
		<path d="M760.2,651.8h1.5v1.5h-4.4v-1.5h1.5v-5.9h-1.5v-1.5h0.7v-0.7h0.7V643h1.5V651.8z"/>
		<path d="M765.3,651.8h-0.7v-1.5h1.5v0.7h0.7v0.7h2.9V651h0.7v-2.2h-4.4v-0.7h-0.7v-0.7h-0.7v-2.9h0.7v-0.7h0.7V643h4.4v0.7h0.7
			v0.7h0.7v7.3h-0.7v0.7h-0.7v0.7h-4.4v-0.7h-0.7V651.8z M770.5,647.4v-2.2h-0.7v-0.7h-2.9v0.7h-0.7v1.5h0.7v0.7H770.5z"/>
		<path d="M774.1,651.8h-0.7v-1.5h1.5v0.7h0.7v0.7h2.9V651h0.7v-2.2h-4.4v-0.7h-0.7v-0.7h-0.7v-2.9h0.7v-0.7h0.7V643h4.4v0.7h0.7
			v0.7h0.7v7.3H780v0.7h-0.7v0.7h-4.4v-0.7h-0.7V651.8z M779.3,647.4v-2.2h-0.7v-0.7h-2.9v0.7h-0.7v1.5h0.7v0.7H779.3z"/>
		<path d="M783.7,643.7V643h4.4v0.7h0.7v0.7h0.7v7.3h-0.7v0.7H788v0.7h-4.4v-0.7h-0.7v-0.7h-0.7v-7.3h0.7v-0.7H783.7z M784.4,648.9
			v-0.7h0.7v-0.7h0.7v-0.7h0.7v-0.7h1.5v-0.7h-0.7v-0.7h-2.9v0.7h-0.7v3.7H784.4z M783.7,650.3v0.7h0.7v0.7h2.9V651h0.7v-3.7h-0.7
			v0.7h-0.7v0.7h-0.7v0.7h-0.7v0.7H783.7z"/>
	</g>
	<g>
		<path d="M857.3,651.8h5.9v1.5h-7.3v-4.4h0.7v-0.7h0.7v-0.7h3.7v-0.7h0.7v-1.5h-0.7v-0.7H858v0.7h-0.7v0.7h-1.5v-1.5h0.7v-0.7h0.7
			V643h4.4v0.7h0.7v0.7h0.7v2.9h-0.7v0.7h-0.7v0.7H858v0.7h-0.7V651.8z"/>
		<path d="M866.1,643.7V643h4.4v0.7h0.7v0.7h0.7v7.3h-0.7v0.7h-0.7v0.7h-4.4v-0.7h-0.7v-0.7h-0.7v-7.3h0.7v-0.7H866.1z M866.8,648.9
			v-0.7h0.7v-0.7h0.7v-0.7h0.7v-0.7h1.5v-0.7h-0.7v-0.7h-2.9v0.7h-0.7v3.7H866.8z M866.1,650.3v0.7h0.7v0.7h2.9V651h0.7v-3.7h-0.7
			v0.7H869v0.7h-0.7v0.7h-0.7v0.7H866.1z"/>
		<path d="M874.9,643.7V643h4.4v0.7h0.7v0.7h0.7v7.3H880v0.7h-0.7v0.7h-4.4v-0.7h-0.7v-0.7h-0.7v-7.3h0.7v-0.7H874.9z M875.6,648.9
			v-0.7h0.7v-0.7h0.7v-0.7h0.7v-0.7h1.5v-0.7h-0.7v-0.7h-2.9v0.7h-0.7v3.7H875.6z M874.9,650.3v0.7h0.7v0.7h2.9V651h0.7v-3.7h-0.7
			v0.7h-0.7v0.7h-0.7v0.7h-0.7v0.7H874.9z"/>
		<path d="M883.7,643.7V643h4.4v0.7h0.7v0.7h0.7v7.3h-0.7v0.7H888v0.7h-4.4v-0.7h-0.7v-0.7h-0.7v-7.3h0.7v-0.7H883.7z M884.4,648.9
			v-0.7h0.7v-0.7h0.7v-0.7h0.7v-0.7h1.5v-0.7h-0.7v-0.7h-2.9v0.7h-0.7v3.7H884.4z M883.7,650.3v0.7h0.7v0.7h2.9V651h0.7v-3.7h-0.7
			v0.7h-0.7v0.7h-0.7v0.7h-0.7v0.7H883.7z"/>
	</g>
	<g>
		<path d="M957.3,651.8h5.9v1.5h-7.3v-4.4h0.7v-0.7h0.7v-0.7h3.7v-0.7h0.7v-1.5h-0.7v-0.7H958v0.7h-0.7v0.7h-1.5v-1.5h0.7v-0.7h0.7
			V643h4.4v0.7h0.7v0.7h0.7v2.9h-0.7v0.7h-0.7v0.7H958v0.7h-0.7V651.8z"/>
		<path d="M966.1,643.7V643h4.4v0.7h0.7v0.7h0.7v7.3h-0.7v0.7h-0.7v0.7h-4.4v-0.7h-0.7v-0.7h-0.7v-7.3h0.7v-0.7H966.1z M966.8,648.9
			v-0.7h0.7v-0.7h0.7v-0.7h0.7v-0.7h1.5v-0.7h-0.7v-0.7h-2.9v0.7h-0.7v3.7H966.8z M966.1,650.3v0.7h0.7v0.7h2.9V651h0.7v-3.7h-0.7
			v0.7H969v0.7h-0.7v0.7h-0.7v0.7H966.1z"/>
		<path d="M977.8,651.8h1.5v1.5h-4.4v-1.5h1.5v-5.9h-1.5v-1.5h0.7v-0.7h0.7V643h1.5V651.8z"/>
		<path d="M983.7,643.7V643h4.4v0.7h0.7v0.7h0.7v7.3h-0.7v0.7H988v0.7h-4.4v-0.7h-0.7v-0.7h-0.7v-7.3h0.7v-0.7H983.7z M984.4,648.9
			v-0.7h0.7v-0.7h0.7v-0.7h0.7v-0.7h1.5v-0.7h-0.7v-0.7h-2.9v0.7h-0.7v3.7H984.4z M983.7,650.3v0.7h0.7v0.7h2.9V651h0.7v-3.7h-0.7
			v0.7h-0.7v0.7h-0.7v0.7h-0.7v0.7H983.7z"/>
	</g>
</g>
</svg>
