<?xml version="1.0" encoding="utf-8"?>
<!-- Generator: Adobe Illustrator 25.2.3, SVG Export Plug-In . SVG Version: 6.00 Build 0)  -->
<svg version="1.1" xmlns="http://www.w3.org/2000/svg" xmlns:xlink="http://www.w3.org/1999/xlink" x="0px" y="0px"
	 viewBox="0 0 700 450" style="enable-background:new 0 0 700 450;" xml:space="preserve">
<style type="text/css">
	.st0{fill:#C0B5AA;}
	.st1{fill:#35BCC0;}
	.st2{fill:#07464F;}
	.st3{fill:#0A8F9F;}
	.st4{fill:#010101;stroke:#010101;stroke-width:0.25;stroke-miterlimit:10;}
	.st5{fill:#F4C034;}
	.st6{fill:#3E9B4F;}
	.st7{fill:#E72730;}
</style>
<g id="Layer_1">
</g>
<g id="Layer_2">
	<g>
		<rect x="619" y="329.5" class="st0" width="11" height="11"/>
		<rect x="651.9" y="340.5" class="st0" width="11" height="11"/>
		<rect x="662.9" y="329.5" class="st0" width="11" height="11"/>
		<rect x="673.9" y="307.5" class="st0" width="11" height="22"/>
		<polygon class="st0" points="651.9,296.6 651.9,285.6 651.9,263.6 640.9,263.6 640.9,252.6 640.9,241.7 619,241.7 619,252.6 
			608,252.6 608,241.7 597,241.7 597,252.6 586,252.6 586,263.6 575.1,263.6 575.1,274.6 564.1,274.6 564.1,296.6 575.1,296.6 
			575.1,307.5 586,307.5 597,307.5 597,296.6 608,296.6 608,307.5 619,307.5 630,307.5 630,318.5 640.9,318.5 640.9,307.5 
			640.9,296.6 		"/>
		<rect x="608" y="219.7" class="st0" width="22" height="11"/>
		<rect x="597" y="197.7" class="st0" width="11" height="11"/>
		<rect x="575.1" y="186.8" class="st0" width="11" height="11"/>
		<rect x="520.2" y="197.7" class="st0" width="11" height="11"/>
		<rect x="542.1" y="219.7" class="st0" width="22" height="11"/>
		<rect x="564.1" y="230.7" class="st0" width="11" height="11"/>
		<rect x="575.1" y="208.7" class="st0" width="11" height="22"/>
		<rect x="531.2" y="208.7" class="st0" width="11" height="11"/>
		<path class="st0" d="M553.1,186.8v-11h11v-11h11v-22h-11v-11h-11v-11h22v-11h22v-11h-11V88h11V77h11v22h11V66h11V55h-11V44h-11
			h-11v-11h-43.9v11h-11v-11h-22v22h-43.9V44h-22v-11h-22v11h-11v11h-11v11h-32.9V55h-22v11h-11v11h-22v11h-11v11h22V88h11v11h-11
			v11h-11h-11v11h-11v11h-22v22h22v-11h22v11h11v-11h11v11h11v22h11v11h11v11h11v-11h22v-11h-22v-11h-11v-11h11h11v-22h11v22v22h11
			v11h11v22h22v11h11v-22v-11h11v-11h22v11h22h11v11h22V186.8z M377.4,142.9h-22v-11h22V142.9z"/>
		<polygon class="st0" points="146.9,230.7 146.9,263.6 157.9,263.6 157.9,274.6 168.8,274.6 168.8,296.6 179.8,296.6 179.8,351.5 
			190.8,351.5 190.8,362.4 201.8,362.4 212.8,362.4 212.8,351.5 201.8,351.5 201.8,329.5 212.8,329.5 212.8,307.5 223.7,307.5 
			223.7,296.6 223.7,285.6 234.7,285.6 234.7,274.6 245.7,274.6 245.7,252.6 223.7,252.6 223.7,241.7 212.8,241.7 201.8,241.7 
			201.8,230.7 179.8,230.7 179.8,219.7 157.9,219.7 157.9,230.7 		"/>
		<rect x="212.8" y="362.4" class="st0" width="11" height="11"/>
		<rect x="146.9" y="208.7" class="st0" width="11" height="11"/>
		<rect x="146.9" y="186.8" class="st0" width="11" height="11"/>
		<rect x="168.8" y="186.8" class="st0" width="22" height="11"/>
		<rect x="190.8" y="197.7" class="st0" width="11" height="11"/>
		<rect x="92" y="44" class="st0" width="22" height="11"/>
		<rect x="168.8" y="44" class="st0" width="11" height="11"/>
		<polygon class="st0" points="168.8,66 168.8,55 157.9,55 157.9,66 146.9,66 146.9,55 146.9,44 124.9,44 124.9,55 135.9,55 
			135.9,66 124.9,66 124.9,55 114,55 114,66 92,66 92,77 81,77 81,66 48.1,66 48.1,77 26.1,77 26.1,88 26.1,98.9 15.1,98.9 
			15.1,109.9 37.1,109.9 37.1,98.9 48.1,98.9 48.1,88 59.1,88 59.1,98.9 59.1,120.9 70,120.9 70,131.9 70,164.8 70,186.8 81,186.8 
			81,164.8 92,164.8 92,186.8 103,186.8 103,197.7 124.9,197.7 124.9,208.7 146.9,208.7 146.9,197.7 135.9,197.7 135.9,186.8 
			124.9,186.8 124.9,175.8 146.9,175.8 146.9,164.8 168.8,164.8 168.8,175.8 179.8,175.8 179.8,164.8 179.8,142.9 190.8,142.9 
			190.8,131.9 201.8,131.9 201.8,120.9 212.8,120.9 212.8,109.9 223.7,109.9 223.7,98.9 212.8,98.9 212.8,88 190.8,88 190.8,109.9 
			179.8,109.9 179.8,98.9 168.8,98.9 157.9,98.9 157.9,88 168.8,88 179.8,88 179.8,77 190.8,77 201.8,77 201.8,66 190.8,66 
			190.8,55 179.8,55 179.8,66 		"/>
		<polygon class="st0" points="212.8,33.1 212.8,22.1 190.8,22.1 190.8,33.1 179.8,33.1 179.8,44 201.8,44 201.8,33.1 		"/>
		<polygon class="st0" points="223.7,88 234.7,88 234.7,77 245.7,77 245.7,66 256.7,66 256.7,55 256.7,44 267.7,44 267.7,33.1 
			256.7,33.1 256.7,22.1 234.7,22.1 234.7,33.1 212.8,33.1 212.8,44 201.8,44 201.8,55 212.8,55 212.8,66 223.7,66 223.7,77 		"/>
		<rect x="256.7" y="77" class="st0" width="22" height="11"/>
		<polygon class="st0" points="377.4,197.7 366.5,197.7 366.5,186.8 355.5,186.8 355.5,175.8 322.6,175.8 322.6,164.8 300.6,164.8 
			289.6,164.8 278.6,164.8 278.6,175.8 267.7,175.8 267.7,186.8 256.7,186.8 256.7,219.7 267.7,219.7 267.7,230.7 278.6,230.7 
			289.6,230.7 300.6,230.7 300.6,241.7 311.6,241.7 311.6,296.6 322.6,296.6 322.6,318.5 344.5,318.5 344.5,307.5 355.5,307.5 
			355.5,296.6 355.5,285.6 366.5,285.6 366.5,252.6 377.4,252.6 377.4,230.7 388.4,230.7 388.4,208.7 377.4,208.7 		"/>
		<rect x="377.4" y="274.6" class="st0" width="11" height="22"/>
		<polygon class="st0" points="300.6,98.9 289.6,98.9 289.6,109.9 278.6,109.9 278.6,120.9 289.6,120.9 300.6,120.9 300.6,109.9 		
			"/>
		<rect x="333.5" y="153.8" class="st0" width="11" height="11"/>
		<rect x="388.4" y="197.7" class="st0" width="11" height="11"/>
		<rect x="465.3" y="219.7" class="st0" width="11" height="11"/>
		<rect x="575.1" y="164.8" class="st0" width="11" height="11"/>
		<rect x="586" y="131.9" class="st0" width="11" height="11"/>
		<rect x="597" y="109.9" class="st0" width="11" height="22"/>
		<rect x="575.1" y="120.9" class="st0" width="11" height="11"/>
	</g>
	<g>
		<rect x="146.9" y="186.8" class="st5" width="11" height="11"/>
		<polygon class="st5" points="135.9,186.8 124.9,186.8 124.9,175.8 124.9,175.8 124.9,175.8 124.9,164.8 124.9,164.8 114,164.8 
			81,164.8 70,164.8 70,186.8 81,186.8 81,164.8 92,164.8 92,175.8 92,186.8 103,186.8 103,197.7 114,197.7 114,208.7 124.9,208.7 
			135.9,208.7 146.9,208.7 146.9,197.7 135.9,197.7 		"/>
	</g>
	<g>
		<rect x="201.8" y="351.5" class="st6" width="11" height="11"/>
		<polygon class="st6" points="212.8,329.5 212.8,307.5 201.8,307.5 201.8,296.6 201.8,285.6 190.8,285.6 190.8,274.6 179.8,274.6 
			179.8,285.6 179.8,296.6 190.8,296.6 190.8,318.5 190.8,351.5 201.8,351.5 201.8,329.5 		"/>
	</g>
	<g>
		<polygon class="st7" points="168.8,120.9 168.8,109.9 70,109.9 59.1,109.9 59.1,142.9 70,142.9 70,153.8 70,164.8 103,164.8 
			114,164.8 124.9,164.8 124.9,175.8 135.9,175.8 146.9,175.8 146.9,164.8 168.8,164.8 168.8,175.8 179.8,175.8 179.8,164.8 
			179.8,142.9 190.8,142.9 190.8,131.9 168.8,131.9 		"/>
		<rect x="190.8" y="120.9" class="st7" width="11" height="11"/>
	</g>
	<polygon class="st7" points="300.6,131.9 289.6,131.9 289.6,153.8 300.6,153.8 300.6,142.9 311.6,142.9 311.6,131.9 	"/>
	<polygon class="st7" points="333.5,109.9 322.6,109.9 322.6,120.9 322.6,131.9 322.6,142.9 333.5,142.9 333.5,131.9 344.5,131.9 
		344.5,120.9 344.5,109.9 	"/>
	<rect x="22.1" y="400.4" class="st7" width="27" height="27"/>
	<rect x="22.1" y="355.4" class="st6" width="27" height="27"/>
	<rect x="22.1" y="310.4" class="st5" width="27" height="27"/>
	<g>
		<path class="st4" d="M60.3,319.1v-0.7h4.4v0.7h0.7v0.7h0.7v7.3h-0.7v0.7h-0.7v0.7h-4.4v-0.7h-0.7v-0.7h-0.7v-7.3h0.7v-0.7H60.3z
			 M64,319.9h-2.9v0.7h-0.7v5.9h0.7v0.7H64v-0.7h0.7v-5.9H64V319.9z"/>
		<path class="st4" d="M69.9,324.3h-0.7v4.4h-1.5v-10.3h5.9v0.7h0.7v0.7H75v2.9h-0.7v0.7h-0.7v0.7h-1.5v0.7h0.7v0.7h0.7v0.7h0.7v0.7
			H75v1.5h-1.5v-0.7h-0.7v-0.7h-0.7v-0.7h-0.7v-0.7h-0.7V325h-0.7V324.3z M69.1,319.9v2.9h3.7v-0.7h0.7v-1.5h-0.7v-0.7H69.1z"/>
		<path class="st4" d="M77.9,328.7v-1.5h1.5v-7.3h-1.5v-1.5h4.4v1.5h-1.5v7.3h1.5v1.5H77.9z"/>
		<path class="st4" d="M91.8,319.9h0.7v1.5h-1.5v-0.7h-0.7v-0.7h-2.9v0.7h-0.7v5.9h0.7v0.7h2.9v-0.7h0.7v-2.2h-2.2v-1.5h3.7v4.4
			h-0.7v0.7h-0.7v0.7h-4.4v-0.7H86v-0.7h-0.7v-7.3H86v-0.7h0.7v-0.7h4.4v0.7h0.7V319.9z"/>
		<path class="st4" d="M95.5,328.7v-1.5H97v-7.3h-1.5v-1.5h4.4v1.5h-1.5v7.3h1.5v1.5H95.5z"/>
		<path class="st4" d="M104.3,322.8v5.9h-1.5v-10.3h1.5v2.2h0.7v0.7h0.7v0.7h0.7v0.7h0.7v0.7h0.7v0.7h0.7v-5.9h1.5v10.3h-1.5v-2.2
			h-0.7v-0.7h-0.7V325h-0.7v-0.7h-0.7v-0.7H105v-0.7H104.3z"/>
	</g>
	<g>
		<path class="st4" d="M59.4,369.1v4.4H58v-10.3h5.9v0.7h0.7v0.7h0.7v2.9h-0.7v0.7h-0.7v0.7H59.4z M59.4,364.7v2.9h3.7v-0.7h0.7
			v-1.5h-0.7v-0.7H59.4z"/>
		<path class="st4" d="M69,369.1h-0.7v4.4h-1.5v-10.3h5.9v0.7h0.7v0.7h0.7v2.9h-0.7v0.7h-0.7v0.7h-1.5v0.7h0.7v0.7h0.7v0.7h0.7v0.7
			h0.7v1.5h-1.5v-0.7h-0.7V372h-0.7v-0.7h-0.7v-0.7h-0.7v-0.7H69V369.1z M68.2,364.7v2.9h3.7v-0.7h0.7v-1.5h-0.7v-0.7H68.2z"/>
		<path class="st4" d="M77,364v-0.7h4.4v0.7h0.7v0.7h0.7v7.3h-0.7v0.7h-0.7v0.7H77v-0.7h-0.7V372h-0.7v-7.3h0.7V364H77z M80.7,364.7
			h-2.9v0.7H77v5.9h0.7v0.7h2.9v-0.7h0.7v-5.9h-0.7V364.7z"/>
		<path class="st4" d="M84.3,373.5v-10.3h5.9v0.7h0.7v0.7h0.7v7.3h-0.7v0.7h-0.7v0.7H84.3z M85.8,364.7v7.3h3.7v-0.7h0.7v-5.9h-0.7
			v-0.7H85.8z"/>
		<path class="st4" d="M93.9,372h-0.7v-8.8h1.5v8.1h0.7v0.7h2.9v-0.7H99v-8.1h1.5v8.8h-0.7v0.7H99v0.7h-4.4v-0.7h-0.7V372z"/>
		<path class="st4" d="M104.1,372h2.9v-0.7h0.7v-0.7h1.5v1.5h-0.7v0.7h-0.7v0.7h-4.4v-0.7h-0.7V372h-0.7v-7.3h0.7V364h0.7v-0.7h4.4
			v0.7h0.7v0.7h0.7v1.5h-1.5v-0.7H107v-0.7h-2.9v0.7h-0.7v5.9h0.7V372z"/>
		<path class="st4" d="M118,363.2v1.5h-5.9v2.9h4.4v1.5h-4.4v2.9h5.9v1.5h-7.3v-10.3H118z"/>
		<path class="st4" d="M121.7,369.1H121v4.4h-1.5v-10.3h5.9v0.7h0.7v0.7h0.7v2.9h-0.7v0.7h-0.7v0.7h-1.5v0.7h0.7v0.7h0.7v0.7h0.7
			v0.7h0.7v1.5h-1.5v-0.7h-0.7V372h-0.7v-0.7h-0.7v-0.7h-0.7v-0.7h-0.7V369.1z M121,364.7v2.9h3.7v-0.7h0.7v-1.5h-0.7v-0.7H121z"/>
	</g>
	<g>
		<path class="st4" d="M60.2,417.3h2.9v-0.7h0.7v-0.7h1.5v1.5h-0.7v0.7h-0.7v0.7h-4.4V418h-0.7v-0.7H58V410h0.7v-0.7h0.7v-0.7h4.4
			v0.7h0.7v0.7h0.7v1.5h-1.5v-0.7h-0.7V410h-2.9v0.7h-0.7v5.9h0.7V417.3z"/>
		<path class="st4" d="M68.3,409.3v-0.7h4.4v0.7h0.7v0.7h0.7v7.3h-0.7v0.7h-0.7v0.7h-4.4V418h-0.7v-0.7h-0.7V410h0.7v-0.7H68.3z
			 M71.9,410H69v0.7h-0.7v5.9H69v0.7h2.9v-0.7h0.7v-5.9h-0.7V410z"/>
		<path class="st4" d="M77.1,412.9v5.9h-1.5v-10.3h1.5v2.2h0.7v0.7h0.7v0.7h0.7v0.7H80v0.7h0.7v0.7h0.7v-5.9h1.5v10.3h-1.5v-2.2
			h-0.7v-0.7H80v-0.7h-0.7v-0.7h-0.7v-0.7h-0.7v-0.7H77.1z"/>
		<path class="st4" d="M91,410h0.7v1.5h-1.5v-0.7h-0.7V410h-2.9v0.7h-0.7v1.5h0.7v0.7h3.7v0.7H91v0.7h0.7v2.9H91v0.7h-0.7v0.7h-4.4
			V418h-0.7v-0.7h-0.7v-1.5h1.5v0.7h0.7v0.7h2.9v-0.7h0.7v-1.5h-0.7v-0.7h-3.7v-0.7h-0.7v-0.7h-0.7V410h0.7v-0.7h0.7v-0.7h4.4v0.7
			H91V410z"/>
		<path class="st4" d="M93.9,417.3h-0.7v-8.8h1.5v8.1h0.7v0.7h2.9v-0.7H99v-8.1h1.5v8.8h-0.7v0.7H99v0.7h-4.4V418h-0.7V417.3z"/>
		<path class="st4" d="M103.4,418.8H102v-10.3h1.5v1.5h0.7v0.7h0.7v0.7h1.5v-0.7h0.7V410h0.7v-1.5h1.5v10.3h-1.5v-6.6h-0.7v0.7h-0.7
			v1.5h-1.5v-1.5h-0.7v-0.7h-0.7V418.8z"/>
		<path class="st4" d="M118.1,408.5v1.5h-5.9v2.9h4.4v1.5h-4.4v2.9h5.9v1.5h-7.3v-10.3H118.1z"/>
		<path class="st4" d="M121.7,414.4H121v4.4h-1.5v-10.3h5.9v0.7h0.7v0.7h0.7v2.9h-0.7v0.7h-0.7v0.7h-1.5v0.7h0.7v0.7h0.7v0.7h0.7
			v0.7h0.7v1.5h-1.5V418h-0.7v-0.7h-0.7v-0.7h-0.7v-0.7h-0.7v-0.7h-0.7V414.4z M121,410v2.9h3.7v-0.7h0.7v-1.5h-0.7V410H121z"/>
	</g>
</g>
</svg>
