<?xml version="1.0" encoding="utf-8"?>
<!-- Generator: Adobe Illustrator 25.2.3, SVG Export Plug-In . SVG Version: 6.00 Build 0)  -->
<svg version="1.1" xmlns="http://www.w3.org/2000/svg" xmlns:xlink="http://www.w3.org/1999/xlink" x="0px" y="0px"
	 viewBox="0 0 2000 400" style="enable-background:new 0 0 2000 400;" xml:space="preserve">
<style type="text/css">
	.st0{fill:#88A8C1;}
	.st1{fill:#6387B7;}
	.st2{fill:#3B5890;}
	.st3{fill:#2C3173;}
	.st4{fill:#252969;}
	.st5{fill:#BED6D8;}
	.st6{fill:#96C0D0;}
	.st7{fill:#82B0C7;}
	.st8{fill:#1D2359;}
	.st9{fill:#FEFCFD;}
	.st10{fill:#C1C7D5;}
	.st11{clip-path:url(#SVGID_2_);}
	.st12{fill:#FEFEBE;}
	.st13{fill:#FFEABA;}
	.st14{fill:#E2D7FF;}
	.st15{fill:#BED5FF;}
	.st16{fill:#94ADFF;}
	.st17{fill:#96C2C5;}
	.st18{fill:#4B677F;}
	.st19{fill:#70B1B5;}
	.st20{fill:#1B1C5C;}
	.st21{fill:#2A2D68;}
	.st22{fill:#FFF6D1;}
	.st23{opacity:0.49;}
	.st24{fill:#FF7D01;}
	.st25{fill:#E36407;}
	.st26{fill:#231100;}
	.st27{fill:#3C260F;}
	.st28{fill:#9E1F25;}
	.st29{fill:#CF232E;}
	.st30{fill:#F7A33B;}
	.st31{fill:#F5C032;}
	.st32{fill:#F7A72A;}
	.st33{fill:#EA700D;}
	.st34{fill:#A43200;}
	.st35{fill:#FFC114;}
	.st36{fill:#363147;}
	.st37{fill:#4E7795;}
	.st38{fill:#B77366;}
	.st39{fill:#668941;}
	.st40{fill:#15120F;}
	.st41{fill:#94BB4F;}
	.st42{fill:#839472;}
	.st43{fill:#EDECDA;}
	.st44{fill:#9C9561;}
	.st45{fill:#40362A;}
	.st46{fill:#6D653E;}
	.st47{fill:#E3D3B2;}
	.st48{fill:#D8A741;}
	.st49{fill:#F0F0D8;}
	.st50{fill:#231F20;}
	.st51{fill:#D07633;}
	.st52{fill:#6C1114;}
	.st53{fill:#F8B832;}
	.st54{fill:none;stroke:#F0F0D8;stroke-width:7;stroke-miterlimit:10;}
	.st55{fill:#FCB912;}
	.st56{fill:#FFDE01;}
	.st57{fill:#FCF54D;}
	.st58{fill:none;stroke:#FCFFFF;stroke-miterlimit:10;}
	.st59{fill:#35BCC0;}
	.st60{fill:#A53A1C;}
	.st61{fill:#66890B;}
	.st62{fill:#95BC51;}
	.st63{fill:#3F6905;}
	.st64{fill:#CBE46E;}
	.st65{fill:#757DE0;}
	.st66{fill:#CAC5FF;}
	.st67{fill:#E9ECFD;}
	.st68{display:none;}
	.st69{display:inline;fill:#2EFF55;}
	.st70{display:inline;fill:none;stroke:#FF29D8;stroke-width:5;stroke-miterlimit:10;}
	.st71{display:inline;fill:none;stroke:#C7FF2C;stroke-width:5;stroke-miterlimit:10;}
	.st72{display:inline;fill:#213967;}
	.st73{display:inline;fill:#232959;}
	.st74{display:inline;fill:#39579F;}
	.st75{display:inline;fill:#8695C0;}
	.st76{display:inline;}
	.st77{display:inline;fill:#A9B1C4;}
	.st78{display:inline;fill:#FF812C;}
	.st79{display:inline;fill:#2EFFFF;}
	.st80{display:inline;opacity:0.4;}
</style>
<g id="background">
</g>
<g id="background_copy">
	<polygon class="st16" points="405.5,0 750.4,0 800.1,0 800.1,56 750.4,56 750.4,400 0,400 0,0 	"/>
	<polygon class="st15" points="414.7,160 414.7,45.3 692,45.3 692,0 1108.1,0 1108.1,97.3 1020,97.3 1020,241.3 780,241.3 780,400 
		0,400 0,291.3 0,218.7 0,160 	"/>
	<polygon class="st14" points="189.3,246.7 414.7,246.7 414.7,177.3 546.7,177.3 546.7,156 869.3,156 869.3,129.3 900,129.3 
		900,86.7 981.3,86.7 981.3,41.3 1054.7,41.3 1054.7,0 2000,0 2000,122.7 1601.3,122.7 1601.3,197.3 1022.7,197.3 1022.7,216 
		869.3,216 869.3,200 730.7,200 730.7,234.7 685.3,234.7 685.3,328 414.7,328 414.7,326.7 189.3,326.7 	"/>
	<polygon class="st13" points="1398.7,92.4 1398.7,145.3 908,145.3 908,180 665.3,180 665.3,224.2 624.7,224.2 624.7,257.3 
		521.3,257.3 521.3,328 624.7,328 624.7,337.3 2000,337.3 2000,233.7 2000,224.2 2000,92.4 	"/>
	<polygon class="st12" points="1147.3,218.7 1147.3,285.3 694,285.3 694,400 1147.3,400 2000,400 2000,285.3 2000,218.7 	"/>
</g>
<g id="Layer_5">
</g>
<g id="montanias">
	<g>
		<polygon class="st38" points="311.5,271.7 311.5,276.6 306.5,276.6 306.5,271.7 286.6,271.7 286.6,274.1 259.4,274.1 259.4,269.2 
			239.5,269.2 239.5,284.1 239.5,286.5 239.5,294 242,294 242,301.4 244.5,301.4 244.5,308.9 247,308.9 247,313.8 249.4,313.8 
			249.4,316.3 251.9,316.3 254.4,316.3 256.9,316.3 256.9,313.8 259.4,313.8 259.4,308.9 261.8,308.9 261.8,301.4 264.3,301.4 
			264.3,294 286.6,294 286.6,296.5 289.1,296.5 289.1,303.9 291.6,303.9 291.6,311.4 294.1,311.4 294.1,316.3 296.6,316.3 
			296.6,318.8 299.1,318.8 301.5,318.8 304,318.8 304,316.3 306.5,316.3 306.5,296.5 311.5,296.5 313.9,296.5 313.9,303.9 
			316.4,303.9 316.4,311.4 318.9,311.4 318.9,316.3 321.4,316.3 321.4,318.8 323.9,318.8 326.3,318.8 328.8,318.8 328.8,316.3 
			331.3,316.3 331.3,289 331.3,284.1 331.3,271.7 		"/>
		<polygon class="st39" points="376,244.4 373.5,244.4 373.5,241.9 371,241.9 371,219.6 338.7,219.6 316.4,219.6 316.4,197.2 
			313.9,197.2 313.9,194.8 311.5,194.8 311.5,197.2 309,197.2 309,199.7 306.5,199.7 306.5,197.2 304,197.2 301.5,197.2 
			301.5,194.8 299.1,194.8 296.6,194.8 296.6,192.3 294.1,192.3 294.1,194.8 291.6,194.8 291.6,192.3 289.1,192.3 286.6,192.3 
			284.2,192.3 284.2,189.8 281.7,189.8 279.2,189.8 276.7,189.8 276.7,192.3 274.2,192.3 271.8,192.3 271.8,194.8 269.3,194.8 
			266.8,194.8 266.8,192.3 264.3,192.3 264.3,194.8 261.8,194.8 259.4,194.8 256.9,194.8 254.4,194.8 254.4,197.2 251.9,197.2 
			251.9,199.7 249.4,199.7 247,199.7 247,202.2 244.5,202.2 244.5,204.7 242,204.7 242,207.2 239.5,207.2 239.5,209.6 234.6,209.6 
			234.6,212.1 232.1,212.1 232.1,214.6 229.6,214.6 229.6,217.1 227.1,217.1 227.1,219.6 224.6,219.6 224.6,222 224.6,224.5 
			219.7,224.5 219.7,227 224.6,227 224.6,229.5 222.2,229.5 222.2,232 219.7,232 219.7,234.4 219.7,236.9 217.2,236.9 217.2,239.4 
			217.2,241.9 214.7,241.9 214.7,249.3 214.7,251.8 214.7,256.8 214.7,259.3 212.2,259.3 212.2,261.7 214.7,261.7 214.7,264.2 
			214.7,266.7 217.2,266.7 217.2,269.2 217.2,271.7 222.2,271.7 222.2,274.1 227.1,274.1 227.1,276.6 229.6,276.6 229.6,279.1 
			232.1,279.1 232.1,281.6 237,281.6 237,284.1 286.6,284.1 286.6,281.6 289.1,281.6 289.1,279.1 291.6,279.1 299.1,279.1 
			299.1,276.6 301.5,276.6 301.5,279.1 313.9,279.1 313.9,281.6 316.4,281.6 316.4,286.5 318.9,286.5 318.9,289 321.4,289 
			321.4,291.5 323.9,291.5 323.9,294 326.3,294 326.3,296.5 346.2,296.5 348.7,296.5 348.7,294 351.1,294 351.1,291.5 353.6,291.5 
			353.6,289 356.1,289 356.1,286.5 358.6,286.5 358.6,284.1 361.1,284.1 361.1,281.6 363.6,281.6 363.6,279.1 366,279.1 366,281.6 
			368.5,281.6 368.5,279.1 371,279.1 373.5,279.1 373.5,276.6 371,276.6 371,274.1 373.5,274.1 373.5,271.7 371,271.7 371,269.2 
			373.5,269.2 373.5,266.7 373.5,261.7 373.5,259.3 371,259.3 371,256.8 373.5,256.8 373.5,254.3 373.5,251.8 376,251.8 376,246.9 
			378.4,246.9 378.4,244.4 		"/>
		<polygon class="st40" points="385.9,214.6 383.4,214.6 383.4,212.1 380.9,212.1 380.9,209.6 366,209.6 366,207.2 363.6,207.2 
			363.6,204.7 361.1,204.7 361.1,197.2 358.6,197.2 356.1,197.2 356.1,194.8 353.6,194.8 351.1,194.8 351.1,197.2 348.7,197.2 
			348.7,202.2 331.3,202.2 331.3,197.2 328.8,197.2 328.8,194.8 326.3,194.8 323.9,194.8 321.4,194.8 318.9,194.8 318.9,197.2 
			316.4,197.2 316.4,219.6 318.9,219.6 318.9,222 321.4,222 323.9,222 323.9,224.5 326.3,224.5 326.3,232 333.8,232 333.8,236.9 
			353.6,236.9 353.6,239.4 356.1,239.4 356.1,241.9 363.6,241.9 371,241.9 373.5,241.9 373.5,239.4 373.5,234.4 376,234.4 376,232 
			378.4,232 378.4,229.5 380.9,229.5 380.9,227 383.4,227 383.4,224.5 385.9,224.5 		"/>
		<rect x="306.5" y="209.6" class="st41" width="2.5" height="2.5"/>
		<rect x="316.4" y="224.5" class="st41" width="2.5" height="2.5"/>
		<rect x="279.2" y="214.6" class="st41" width="2.5" height="2.5"/>
		<rect x="348.7" y="244.4" class="st41" width="2.5" height="2.5"/>
		<rect x="328.8" y="239.4" class="st41" width="2.5" height="2.5"/>
		<rect x="363.6" y="249.3" class="st41" width="2.5" height="2.5"/>
		<rect x="373.5" y="241.9" class="st41" width="2.5" height="2.5"/>
		<rect x="353.6" y="236.9" class="st41" width="2.5" height="2.5"/>
		<rect x="299.1" y="224.5" class="st41" width="2.5" height="2.5"/>
		<rect x="256.9" y="219.6" class="st41" width="2.5" height="2.5"/>
		<rect x="244.5" y="209.6" class="st41" width="2.5" height="2.5"/>
		<rect x="299.1" y="246.9" class="st41" width="2.5" height="2.5"/>
		<rect x="274.2" y="232" class="st41" width="2.5" height="2.5"/>
		<rect x="242" y="246.9" class="st41" width="2.5" height="2.5"/>
		<rect x="244.5" y="229.5" class="st41" width="2.5" height="2.5"/>
		<rect x="219.7" y="236.9" class="st41" width="2.5" height="2.5"/>
		<rect x="222.2" y="224.5" class="st41" width="2.5" height="2.5"/>
		<rect x="234.6" y="219.6" class="st41" width="2.5" height="2.5"/>
		<rect x="338.7" y="269.2" class="st41" width="2.5" height="2.5"/>
		<rect x="326.3" y="256.8" class="st41" width="2.5" height="2.5"/>
		<rect x="274.2" y="259.3" class="st41" width="2.5" height="2.5"/>
		<rect x="264.3" y="246.9" class="st41" width="2.5" height="2.5"/>
		<rect x="348.7" y="284.1" class="st41" width="2.5" height="2.5"/>
		<rect x="373.5" y="266.7" class="st41" width="2.5" height="2.5"/>
		<rect x="358.6" y="264.2" class="st41" width="2.5" height="2.5"/>
		<rect x="366" y="279.1" class="st41" width="2.5" height="2.5"/>
		<rect x="304" y="269.2" class="st41" width="2.5" height="2.5"/>
		<rect x="256.9" y="264.2" class="st41" width="2.5" height="2.5"/>
		<rect x="224.6" y="256.8" class="st41" width="2.5" height="2.5"/>
		<rect x="242" y="271.7" class="st41" width="2.5" height="2.5"/>
		<rect x="269.3" y="276.6" class="st41" width="2.5" height="2.5"/>
		<rect x="284.2" y="204.7" class="st41" width="2.5" height="2.5"/>
		<rect x="328.8" y="284.1" class="st41" width="2.5" height="2.5"/>
		<rect x="323.9" y="271.7" class="st41" width="2.5" height="2.5"/>
	</g>
</g>
<g id="Layer_8">
	<rect x="1614" y="162.7" class="st42" width="84" height="164"/>
	<rect x="1783.3" y="164" class="st42" width="84" height="164"/>
</g>
<g id="floor">
	<rect y="326.7" class="st48" width="2000" height="27.3"/>
</g>
<g id="info">
	<rect y="353.3" class="st50" width="2000" height="46.7"/>
	<path class="st51" d="M1019.9,243.9v-11.6h-3.9v-7.7h-3.9v-7.7h-3.9v-3.9h-3.9v-7.7h-3.9v-3.9h-3.9v-3.9h-3.9v-3.9h-3.9V190h-3.9
		v-3.9h-3.9v-3.9h-7.7v-3.9H966v-3.9h-15.4v-3.9h-34.7v3.9h-15.4v3.9h-7.7v3.9H889h-3.9v3.9h-3.9v3.9h-3.9v3.9h-3.9v3.9h-3.9v3.9
		h-3.9v3.9H862v3.9h-3.9v3.9h-3.9v7.7h-3.9v15.4h-3.9v7.7h-3.9v38.5h3.9v3.9v3.9v3.9h3.9v3.9h3.9v3.9v3.9h-3.9v3.9h-3.9v3.9h-3.9
		v3.9h-3.9v3.9H835v3.9h-7.7v3.9h-3.9v3.9h-3.9v3.9h-3.9v3.9h-3.9v3.9h-7.7v3.9v3.9h-3.9v3.9h-3.9v3.9h-3.9v19.3h3.9v3.9h19.3v-3.9
		h3.9v-3.9h7.7V371h3.9v-3.9h3.9v-3.9h3.9v-3.9h3.9v-3.9h3.9v-3.9h3.9v-3.9h7.7V344h3.9v-3.9h3.9v-3.9h7.7v-3.9h3.9h3.9v3.9h7.7v3.9
		h7.7v3.9h3.9h3.9v3.9h11.6v3.9h30.8v-3.9H966V344h3.9v-3.9h7.7v-3.9h7.7v-3.9h3.9v-3.9h3.9v-3.9h3.9v-3.9h3.9v-7.7h3.9v-3.9h3.9
		v-3.9v-3.9h3.9v-3.9h3.9v-7.7h3.9v-11.6h3.9v-34.7H1019.9z M1000.6,282.4h-3.9v7.7h-3.9v3.9h-3.9v3.9h-3.9v7.7h-3.9v7.7h-7.7v3.9
		h-3.9v3.9h-7.7v3.9h-7.7v3.9h-46.2v-3.9h-7.7v-3.9h-7.7v-3.9H889v-3.9h-3.9h-3.9v-7.7h-3.9v-7.7h-3.9V294h-3.9v-3.9h-3.9v-7.7H862
		V240h3.9v-7.7h3.9v-3.9h3.9v-3.9h3.9v-7.7h3.9v-7.7h7.7v-3.9h3.9v-3.9h7.7v-3.9h7.7v-3.9h46.2v3.9h7.7v3.9h7.7v3.9h3.9v3.9h3.9h3.9
		v7.7h3.9v7.7h3.9v3.9h3.9v3.9h3.9v7.7h3.9V282.4z"/>
	<g>
		<path d="M933.7,132.7h-8.4v-42h8.4V132.7z M933.7,141.1v8.4h-8.4v-8.4H933.7z"/>
	</g>
	<polygon class="st52" points="1597,250.9 1597,253.2 1597,255.5 1594.7,255.5 1594.7,260.2 1592.4,260.2 1592.4,264.8 
		1590.1,264.8 1590.1,269.5 1585.4,269.5 1585.4,271.8 1580.7,271.8 1580.7,274.1 1578.4,274.1 1569.1,274.1 1566.8,274.1 
		1566.8,271.8 1562.1,271.8 1562.1,269.5 1557.5,269.5 1557.5,264.8 1555.1,264.8 1555.1,260.2 1552.8,260.2 1552.8,255.5 
		1550.5,255.5 1550.5,253.2 1550.5,250.9 1508.6,250.9 1508.6,253.2 1508.6,255.5 1508.6,283.5 1510.9,283.5 1510.9,285.8 
		1541.2,285.8 1550.5,285.8 1552.8,285.8 1555.1,285.8 1557.5,285.8 1566.8,285.8 1569.1,285.8 1578.4,285.8 1580.7,285.8 
		1590.1,285.8 1592.4,285.8 1594.7,285.8 1597,285.8 1606.3,285.8 1606.3,283.5 1608.7,283.5 1608.7,255.5 1608.7,253.2 
		1608.7,250.9 	"/>
	<polygon class="st52" points="1606.3,218.3 1606.3,216 1597,216 1594.7,216 1592.4,216 1590.1,216 1580.7,216 1578.4,216 
		1576.1,216 1576.1,211.3 1573.8,211.3 1573.8,206.7 1543.5,206.7 1543.5,211.3 1541.2,211.3 1541.2,216 1510.9,216 1510.9,218.3 
		1508.6,218.3 1508.6,241.6 1538.9,241.6 1550.5,241.6 1552.8,241.6 1555.1,241.6 1555.1,236.9 1557.5,236.9 1557.5,232.3 
		1562.1,232.3 1562.1,229.9 1566.8,229.9 1566.8,227.6 1569.1,227.6 1578.4,227.6 1580.7,227.6 1580.7,229.9 1585.4,229.9 
		1585.4,232.3 1590.1,232.3 1590.1,236.9 1592.4,236.9 1592.4,241.6 1594.7,241.6 1608.7,241.6 1608.7,218.3 	"/>
	<polygon points="1592.4,246.2 1590.1,246.2 1590.1,241.6 1587.7,241.6 1587.7,239.2 1585.4,239.2 1585.4,236.9 1583.1,236.9 
		1583.1,234.6 1566.8,234.6 1566.8,236.9 1564.5,236.9 1564.5,239.2 1562.1,239.2 1562.1,241.6 1559.8,241.6 1559.8,246.2 
		1557.5,246.2 1557.5,255.5 1559.8,255.5 1559.8,260.2 1562.1,260.2 1562.1,262.5 1564.5,262.5 1564.5,264.8 1566.8,264.8 
		1566.8,267.2 1583.1,267.2 1583.1,264.8 1585.4,264.8 1585.4,262.5 1587.7,262.5 1587.7,260.2 1590.1,260.2 1590.1,255.5 
		1592.4,255.5 	"/>
	<polygon class="st53" points="1592.4,243.9 1592.4,241.6 1590.1,241.6 1587.7,241.6 1587.7,239.2 1587.7,236.9 1585.4,236.9 
		1585.4,234.6 1583.1,234.6 1583.1,236.9 1580.7,236.9 1580.7,239.2 1580.7,241.6 1578.4,241.6 1576.1,241.6 1576.1,243.9 
		1573.8,243.9 1573.8,246.2 1576.1,246.2 1576.1,248.6 1578.4,248.6 1580.7,248.6 1580.7,250.9 1580.7,253.2 1583.1,253.2 
		1583.1,255.5 1585.4,255.5 1585.4,253.2 1587.7,253.2 1587.7,250.9 1587.7,248.6 1590.1,248.6 1592.4,248.6 1592.4,246.2 
		1594.7,246.2 1594.7,243.9 	"/>
	<polygon class="st52" points="1863,196.2 1863,198.5 1863,200.9 1865.3,200.9 1865.3,205.5 1867.6,205.5 1867.6,210.2 
		1869.9,210.2 1869.9,214.8 1874.6,214.8 1874.6,217.2 1879.3,217.2 1879.3,219.5 1881.6,219.5 1890.9,219.5 1893.2,219.5 
		1893.2,217.2 1897.9,217.2 1897.9,214.8 1902.5,214.8 1902.5,210.2 1904.9,210.2 1904.9,205.5 1907.2,205.5 1907.2,200.9 
		1909.5,200.9 1909.5,198.5 1909.5,196.2 1951.4,196.2 1951.4,198.5 1951.4,200.9 1951.4,228.8 1949.1,228.8 1949.1,231.1 
		1918.8,231.1 1909.5,231.1 1907.2,231.1 1904.9,231.1 1902.5,231.1 1893.2,231.1 1890.9,231.1 1881.6,231.1 1879.3,231.1 
		1869.9,231.1 1867.6,231.1 1865.3,231.1 1863,231.1 1853.7,231.1 1853.7,228.8 1851.3,228.8 1851.3,200.9 1851.3,198.5 
		1851.3,196.2 	"/>
	<polygon class="st52" points="1853.7,163.6 1853.7,161.3 1863,161.3 1865.3,161.3 1867.6,161.3 1869.9,161.3 1879.3,161.3 
		1881.6,161.3 1883.9,161.3 1883.9,156.7 1886.2,156.7 1886.2,152 1916.5,152 1916.5,156.7 1918.8,156.7 1918.8,161.3 1949.1,161.3 
		1949.1,163.6 1951.4,163.6 1951.4,186.9 1921.1,186.9 1909.5,186.9 1907.2,186.9 1904.9,186.9 1904.9,182.2 1902.5,182.2 
		1902.5,177.6 1897.9,177.6 1897.9,175.3 1893.2,175.3 1893.2,172.9 1890.9,172.9 1881.6,172.9 1879.3,172.9 1879.3,175.3 
		1874.6,175.3 1874.6,177.6 1869.9,177.6 1869.9,182.2 1867.6,182.2 1867.6,186.9 1865.3,186.9 1851.3,186.9 1851.3,163.6 	"/>
	<polygon points="1867.6,191.6 1869.9,191.6 1869.9,186.9 1872.3,186.9 1872.3,184.6 1874.6,184.6 1874.6,182.2 1876.9,182.2 
		1876.9,179.9 1893.2,179.9 1893.2,182.2 1895.5,182.2 1895.5,184.6 1897.9,184.6 1897.9,186.9 1900.2,186.9 1900.2,191.6 
		1902.5,191.6 1902.5,200.9 1900.2,200.9 1900.2,205.5 1897.9,205.5 1897.9,207.8 1895.5,207.8 1895.5,210.2 1893.2,210.2 
		1893.2,212.5 1876.9,212.5 1876.9,210.2 1874.6,210.2 1874.6,207.8 1872.3,207.8 1872.3,205.5 1869.9,205.5 1869.9,200.9 
		1867.6,200.9 	"/>
	<polygon class="st53" points="1867.6,189.2 1867.6,186.9 1869.9,186.9 1872.3,186.9 1872.3,184.6 1872.3,182.2 1874.6,182.2 
		1874.6,179.9 1876.9,179.9 1876.9,182.2 1879.3,182.2 1879.3,184.6 1879.3,186.9 1881.6,186.9 1883.9,186.9 1883.9,189.2 
		1886.2,189.2 1886.2,191.6 1883.9,191.6 1883.9,193.9 1881.6,193.9 1879.3,193.9 1879.3,196.2 1879.3,198.5 1876.9,198.5 
		1876.9,200.9 1874.6,200.9 1874.6,198.5 1872.3,198.5 1872.3,196.2 1872.3,193.9 1869.9,193.9 1867.6,193.9 1867.6,191.6 
		1865.3,191.6 1865.3,189.2 	"/>
</g>
<g id="reference" class="st68">
</g>
</svg>
