<?xml version="1.0" encoding="utf-8"?>
<!-- Generator: Adobe Illustrator 25.2.3, SVG Export Plug-In . SVG Version: 6.00 Build 0)  -->
<svg version="1.1" id="Layer_1" xmlns="http://www.w3.org/2000/svg" xmlns:xlink="http://www.w3.org/1999/xlink" x="0px" y="0px"
	 viewBox="0 0 225 90" style="enable-background:new 0 0 225 90;" xml:space="preserve">
<style type="text/css">
	.st0{fill:#03464F;}
	.st1{fill:#018F9F;}
</style>
<polygon class="st0" points="216,18 216,9 207,9 207,0 18,0 18,9 9,9 9,18 0,18 0,72 9,72 9,81 18,81 18,90 207,90 207,81 216,81 
	216,72 225,72 225,18 "/>
<polygon class="st1" points="216,18 207,18 207,9 18,9 18,18 9,18 9,72 18,72 18,81 207,81 207,72 216,72 "/>
</svg>
