<?xml version="1.0" encoding="utf-8"?>
<!-- Generator: Adobe Illustrator 25.2.3, SVG Export Plug-In . SVG Version: 6.00 Build 0)  -->
<svg version="1.1" xmlns="http://www.w3.org/2000/svg" xmlns:xlink="http://www.w3.org/1999/xlink" x="0px" y="0px"
	 viewBox="0 0 1108 791" style="enable-background:new 0 0 1108 791;" xml:space="preserve">
<style type="text/css">
	.st0{fill:#A7B941;}
	.st1{fill:#E0E48D;}
	.st2{fill:#8A370F;}
	.st3{fill:#DA895E;}
	.st4{fill:#63240B;}
	.st5{opacity:0.51;fill:#606060;}
	.st6{fill:none;stroke:#EB1C24;stroke-width:10;stroke-miterlimit:10;}
	.st7{opacity:0.51;fill:#D8D8D8;}
	.st8{opacity:0.53;fill:#3E9B50;}
	.st9{opacity:0.53;fill:#F5C032;}
	.st10{opacity:0.53;fill:#E8222E;}
	.st11{opacity:0.53;fill:#FF8039;}
	.st12{fill:#35BCC0;}
	.st13{fill:#FF4DA6;}
	.st14{fill:#3E9B50;}
	.st15{fill:#FF8039;}
	.st16{fill:#E8222E;}
	.st17{fill:#F5C032;}
	.st18{fill:#305937;}
	.st19{fill:#133415;}
	.st20{fill:#608D62;}
	.st21{fill:#6F6252;}
	.st22{fill:#32A00D;}
	.st23{fill:#DC0000;}
	.st24{fill:#AE0002;}
	.st25{fill:#FF7A69;}
	.st26{fill:#426024;}
	.st27{fill:#649238;}
	.st28{fill:#D08333;}
	.st29{fill:#EAD1A4;}
	.st30{fill:#FFDE01;}
	.st31{stroke:#000000;stroke-width:2;stroke-miterlimit:10;}
	.st32{fill:none;stroke:#000000;stroke-miterlimit:10;}
</style>
<g id="layout">
</g>
<g id="FOOD">
	<rect x="616" y="316" class="st14" width="180" height="54"/>
	<rect x="616" y="172" class="st12" width="225" height="54"/>
	<rect x="616" y="460" class="st13" width="181" height="54"/>
	<g>
		<path d="M644.8,617.8v3.5h-14.1v7h10.5v3.5h-10.5v7h14.1v3.5h-17.6v-24.6H644.8z"/>
		<path d="M653.6,631.9h-1.8v10.5h-3.5v-24.6h14.1v1.8h1.8v1.8h1.8v7h-1.8v1.8h-1.8v1.8h-3.5v1.8h1.8v1.8h1.8v1.8h1.8v1.8h1.8v3.5
			h-3.5v-1.8h-1.8v-1.8h-1.8v-1.8h-1.8v-1.8h-1.8v-1.8h-1.8V631.9z M651.9,621.3v7h8.8v-1.8h1.8v-3.5h-1.8v-1.8H651.9z"/>
		<path d="M673,642.4h-3.5v-17.6h1.8v-1.8h1.8v-1.8h1.8v-1.8h1.8v-1.8h3.5v1.8h1.8v1.8h1.8v1.8h1.8v1.8h1.8v17.6h-3.5v-7H673V642.4z
			 M673,631.9h10.5v-5.3h-1.8v-1.8H680v-1.8h-3.5v1.8h-1.8v1.8H673V631.9z"/>
		<path d="M690.5,642.4v-24.6h14.1v1.8h1.8v1.8h1.8v17.6h-1.8v1.8h-1.8v1.8H690.5z M694.1,621.3v17.6h8.8v-1.8h1.8v-14.1h-1.8v-1.8
			H694.1z"/>
		<path d="M715.1,642.4v-3.5h3.5v-17.6h-3.5v-3.5h10.5v3.5h-3.5v17.6h3.5v3.5H715.1z"/>
		<path d="M738,638.9h7v-1.8h1.8v-1.8h3.5v3.5h-1.8v1.8h-1.8v1.8h-10.5v-1.8h-1.8v-1.8h-1.8v-17.6h1.8v-1.8h1.8v-1.8h10.5v1.8h1.8
			v1.8h1.8v3.5h-3.5v-1.8H745v-1.8h-7v1.8h-1.8v14.1h1.8V638.9z"/>
		<path d="M757.3,642.4h-3.5v-17.6h1.8v-1.8h1.8v-1.8h1.8v-1.8h1.8v-1.8h3.5v1.8h1.8v1.8h1.8v1.8h1.8v1.8h1.8v17.6h-3.5v-7h-10.5
			V642.4z M757.3,631.9h10.5v-5.3h-1.8v-1.8h-1.8v-1.8h-3.5v1.8h-1.8v1.8h-1.8V631.9z"/>
		<path d="M781.9,621.3h-7v-3.5h17.6v3.5h-7v21.1h-3.5V621.3z"/>
		<path d="M799.5,642.4v-3.5h3.5v-17.6h-3.5v-3.5h10.5v3.5h-3.5v17.6h3.5v3.5H799.5z"/>
		<path d="M820.6,619.6v-1.8h10.5v1.8h1.8v1.8h1.8v17.6h-1.8v1.8h-1.8v1.8h-10.5v-1.8h-1.8v-1.8h-1.8v-17.6h1.8v-1.8H820.6z
			 M829.4,621.3h-7v1.8h-1.8v14.1h1.8v1.8h7v-1.8h1.8v-14.1h-1.8V621.3z"/>
		<path d="M841.7,628.4v14.1h-3.5v-24.6h3.5v5.3h1.8v1.8h1.8v1.8h1.8v1.8h1.8v1.8h1.8v1.8h1.8v-14.1h3.5v24.6h-3.5v-5.3h-1.8v-1.8
			h-1.8v-1.8H847v-1.8h-1.8v-1.8h-1.8v-1.8H841.7z"/>
	</g>
	<g>
		<polygon class="st28" points="433.8,362.1 414.1,362.1 414.1,342.5 394.4,342.5 394.4,322.8 256.6,322.8 256.6,342.5 236.9,342.5 
			236.9,362.1 217.2,362.1 217.2,480.3 236.9,480.3 236.9,500 256.6,500 256.6,519.7 394.4,519.7 394.4,500 414.1,500 414.1,480.3 
			433.8,480.3 		"/>
		<rect x="296" y="519.7" width="19.7" height="137.8"/>
		<rect x="335.3" y="519.7" width="19.7" height="137.8"/>
		<rect x="276.3" y="379.7" width="19.7" height="39.4"/>
		<rect x="355" y="379.7" width="19.7" height="39.4"/>
		<rect x="296" y="440.9" width="59.1" height="19.7"/>
		<rect x="433.8" y="421.2" width="19.7" height="19.7"/>
		<rect x="453.5" y="322.8" width="19.7" height="98.5"/>
		<rect x="197.5" y="421.2" width="19.7" height="19.7"/>
		<rect x="177.8" y="322.8" width="19.7" height="98.5"/>
		<g>
			<rect x="217.2" y="362.1" class="st23" width="19.7" height="177.2"/>
			<rect x="414.1" y="362.1" class="st23" width="19.7" height="177.2"/>
			<polygon class="st23" points="374.7,322.8 374.7,303.1 355,303.1 355,283.4 335.3,283.4 335.3,244 315.7,244 315.7,283.4 
				296,283.4 296,303.1 276.3,303.1 276.3,322.8 256.6,322.8 256.6,342.5 394.4,342.5 394.4,322.8 			"/>
			<rect x="236.9" y="342.5" class="st23" width="19.7" height="19.7"/>
			<rect x="394.4" y="342.5" class="st23" width="19.7" height="19.7"/>
		</g>
		<rect x="276.3" y="303.1" class="st30" width="19.7" height="19.7"/>
		<rect x="315.7" y="303.1" class="st30" width="19.7" height="19.7"/>
		<rect x="315.7" y="244" class="st30" width="19.7" height="19.7"/>
		<rect x="355" y="303.1" class="st30" width="19.7" height="19.7"/>
		<rect x="217.2" y="519.7" class="st30" width="19.7" height="19.7"/>
		<rect x="414.1" y="519.7" class="st30" width="19.7" height="19.7"/>
	</g>
</g>
<g id="top_lines">
	<g>
		<path class="st31" d="M218.9,145.8h-3.1v-30.8h3.1V112h3.1v-3.1h18.5v3.1h3.1v3.1h3.1v27.7h-3.1v3.1h3.1v6.2h-6.2v-3.1h-6.2v3.1
			H222v-3.1h-3.1V145.8z M222,118.1v24.6h3.1v3.1h9.2v-3.1h-3.1v-3.1h-3.1v-6.2h6.2v3.1h3.1v3.1h3.1v-21.5h-3.1v-3.1h-12.3v3.1H222z
			"/>
		<path class="st31" d="M255.8,145.8h-3.1v-36.9h6.2v33.8h3.1v3.1h12.3v-3.1h3.1v-33.8h6.2v36.9h-3.1v3.1h-3.1v3.1h-18.5v-3.1h-3.1
			V145.8z"/>
		<path class="st31" d="M295.8,152v-6.2h6.2v-30.8h-6.2v-6.2h18.5v6.2h-6.2v30.8h6.2v6.2H295.8z"/>
		<path class="st31" d="M332.7,127.4V152h-6.2v-43.1h6.2v9.2h3.1v3.1h3.1v3.1h3.1v3.1h3.1v3.1h3.1v3.1h3.1v-24.6h6.2V152h-6.2v-9.2
			h-3.1v-3.1H345v-3.1H342v-3.1h-3.1v-3.1h-3.1v-3.1H332.7z"/>
		<path class="st31" d="M369.6,112v-3.1h18.5v3.1h3.1v3.1h3.1v30.8h-3.1v3.1h-3.1v3.1h-18.5v-3.1h-3.1v-3.1h-3.1v-30.8h3.1V112
			H369.6z M385,115.1h-12.3v3.1h-3.1v24.6h3.1v3.1H385v-3.1h3.1v-24.6H385V115.1z"/>
		<path class="st31" d="M406.6,152h-6.2v-30.8h3.1v-3.1h3.1v-3.1h3.1V112h3.1v-3.1h6.2v3.1h3.1v3.1h3.1v3.1h3.1v3.1h3.1V152H425
			v-12.3h-18.5V152z M406.6,133.5H425v-9.2h-3.1v-3.1h-3.1v-3.1h-6.2v3.1h-3.1v3.1h-3.1V133.5z"/>
	</g>
	<g>
		<path d="M617.4,589.5v-24.6h14.1v1.8h1.8v1.8h1.8v7h-1.8v3.5h1.8v7h-1.8v1.8h-1.8v1.8H617.4z M620.9,575.5h8.8v-1.8h1.8v-3.5h-1.8
			v-1.8h-8.8V575.5z M620.9,586h8.8v-1.8h1.8v-3.5h-1.8V579h-8.8V586z"/>
		<path d="M642,589.5h-3.5v-17.6h1.8v-1.8h1.8v-1.8h1.8v-1.8h1.8v-1.8h3.5v1.8h1.8v1.8h1.8v1.8h1.8v1.8h1.8v17.6h-3.5v-7H642V589.5z
			 M642,579h10.5v-5.3h-1.8v-1.8h-1.8v-1.8h-3.5v1.8h-1.8v1.8H642V579z"/>
		<path d="M664.9,586h7v-1.8h1.8v-1.8h3.5v3.5h-1.8v1.8h-1.8v1.8h-10.5v-1.8h-1.8V586h-1.8v-17.6h1.8v-1.8h1.8v-1.8h10.5v1.8h1.8
			v1.8h1.8v3.5h-3.5v-1.8h-1.8v-1.8h-7v1.8h-1.8v14.1h1.8V586z"/>
		<path d="M684.2,579v10.5h-3.5v-24.6h3.5v10.5h1.8v-1.8h1.8v-1.8h1.8v-1.8h1.8v-1.8h1.8v-1.8h1.8v-1.8h3.5v3.5h-1.8v1.8h-1.8v1.8
			H693v1.8h-1.8v1.8h-1.8v3.5h1.8v1.8h1.8v1.8h1.8v1.8h1.8v1.8h1.8v3.5h-3.5v-1.8H693V586h-1.8v-1.8h-1.8v-1.8h-1.8v-1.8H686V579
			H684.2z"/>
		<path d="M717.6,568.4h1.8v3.5h-3.5v-1.8h-1.8v-1.8h-7v1.8h-1.8v3.5h1.8v1.8h8.8v1.8h1.8v1.8h1.8v7h-1.8v1.8h-1.8v1.8h-10.5v-1.8
			h-1.8V586h-1.8v-3.5h3.5v1.8h1.8v1.8h7v-1.8h1.8v-3.5h-1.8V579h-8.8v-1.8h-1.8v-1.8h-1.8v-7h1.8v-1.8h1.8v-1.8h10.5v1.8h1.8V568.4
			z"/>
		<path d="M729.9,568.4h-7v-3.5h17.6v3.5h-7v21.1h-3.5V568.4z"/>
		<path d="M747.5,566.7v-1.8h10.5v1.8h1.8v1.8h1.8V586h-1.8v1.8h-1.8v1.8h-10.5v-1.8h-1.8V586H744v-17.6h1.8v-1.8H747.5z
			 M756.3,568.4h-7v1.8h-1.8v14.1h1.8v1.8h7v-1.8h1.8v-14.1h-1.8V568.4z"/>
		<path d="M770.4,579h-1.8v10.5h-3.5v-24.6h14.1v1.8h1.8v1.8h1.8v7h-1.8v1.8h-1.8v1.8h-3.5v1.8h1.8v1.8h1.8v1.8h1.8v1.8h1.8v3.5
			h-3.5v-1.8h-1.8V586h-1.8v-1.8h-1.8v-1.8h-1.8v-1.8h-1.8V579z M768.6,568.4v7h8.8v-1.8h1.8v-3.5h-1.8v-1.8H768.6z"/>
		<path d="M796.7,589.5h-3.5v-8.8h-1.8V579h-1.8v-1.8h-1.8v-1.8h-1.8v-10.5h3.5v8.8h1.8v1.8h1.8v1.8h3.5v-1.8h1.8v-1.8h1.8v-8.8h3.5
			v10.5H802v1.8h-1.8v1.8h-1.8v1.8h-1.8V589.5z"/>
	</g>
	<g>
		<path d="M633.2,280h1.8v3.5h-3.5v-1.8h-1.8V280h-7v1.8h-1.8v3.5h1.8v1.8h8.8v1.8h1.8v1.8h1.8v7h-1.8v1.8h-1.8v1.8h-10.5v-1.8h-1.8
			v-1.8h-1.8V294h3.5v1.8h1.8v1.8h7v-1.8h1.8v-3.5h-1.8v-1.8h-8.8v-1.8h-1.8V287h-1.8v-7h1.8v-1.8h1.8v-1.8h10.5v1.8h1.8V280z"/>
		<path d="M640.3,297.5h-1.8v-21.1h3.5v19.3h1.8v1.8h7v-1.8h1.8v-19.3h3.5v21.1h-1.8v1.8h-1.8v1.8H642v-1.8h-1.8V297.5z"/>
		<path d="M675.4,280h1.8v3.5h-3.5v-1.8h-1.8V280h-7v1.8h-1.8v3.5h1.8v1.8h8.8v1.8h1.8v1.8h1.8v7h-1.8v1.8h-1.8v1.8h-10.5v-1.8h-1.8
			v-1.8h-1.8V294h3.5v1.8h1.8v1.8h7v-1.8h1.8v-3.5h-1.8v-1.8h-8.8v-1.8h-1.8V287h-1.8v-7h1.8v-1.8h1.8v-1.8h10.5v1.8h1.8V280z"/>
		<path d="M687.7,280h-7v-3.5h17.6v3.5h-7V301h-3.5V280z"/>
		<path d="M705.3,301h-3.5v-17.6h1.8v-1.8h1.8V280h1.8v-1.8h1.8v-1.8h3.5v1.8h1.8v1.8h1.8v1.8h1.8v1.8h1.8V301h-3.5v-7h-10.5V301z
			 M705.3,290.5h10.5v-5.3h-1.8v-1.8h-1.8v-1.8h-3.5v1.8h-1.8v1.8h-1.8V290.5z"/>
		<path d="M726.4,301v-3.5h3.5V280h-3.5v-3.5H737v3.5h-3.5v17.6h3.5v3.5H726.4z"/>
		<path d="M747.5,287V301H744v-24.6h3.5v5.3h1.8v1.8h1.8v1.8h1.8v1.8h1.8v1.8h1.8v1.8h1.8v-14.1h3.5V301h-3.5v-5.3h-1.8V294h-1.8
			v-1.8h-1.8v-1.8H751v-1.8h-1.8V287H747.5z"/>
		<path d="M768.6,301h-3.5v-17.6h1.8v-1.8h1.8V280h1.8v-1.8h1.8v-1.8h3.5v1.8h1.8v1.8h1.8v1.8h1.8v1.8h1.8V301h-3.5v-7h-10.5V301z
			 M768.6,290.5h10.5v-5.3h-1.8v-1.8h-1.8v-1.8h-3.5v1.8h-1.8v1.8h-1.8V290.5z"/>
		<path d="M786.2,301v-24.6h14.1v1.8h1.8v1.8h1.8v7H802v3.5h1.8v7H802v1.8h-1.8v1.8H786.2z M789.7,287h8.8v-1.8h1.8v-3.5h-1.8V280
			h-8.8V287z M789.7,297.5h8.8v-1.8h1.8v-3.5h-1.8v-1.8h-8.8V297.5z"/>
		<path d="M810.8,301v-3.5h3.5V280h-3.5v-3.5h10.5v3.5h-3.5v17.6h3.5v3.5H810.8z"/>
		<path d="M828.4,301v-24.6h3.5v21.1h14.1v3.5H828.4z"/>
		<path d="M853,301v-3.5h3.5V280H853v-3.5h10.5v3.5H860v17.6h3.5v3.5H853z"/>
		<path d="M877.6,280h-7v-3.5h17.6v3.5h-7V301h-3.5V280z"/>
		<path d="M902.2,301h-3.5v-8.8h-1.8v-1.8h-1.8v-1.8h-1.8V287h-1.8v-10.5h3.5v8.8h1.8v1.8h1.8v1.8h3.5V287h1.8v-1.8h1.8v-8.8h3.5
			V287h-1.8v1.8h-1.8v1.8h-1.8v1.8h-1.8V301z"/>
	</g>
	<g>
		<path d="M620.9,146.5V157h-3.5v-24.6h3.5V143h10.5v-10.5h3.5V157h-3.5v-10.5H620.9z"/>
		<path d="M656.1,132.4v3.5H642v7h10.5v3.5H642v7h14.1v3.5h-17.6v-24.6H656.1z"/>
		<path d="M663.1,157h-3.5v-17.6h1.8v-1.8h1.8V136h1.8v-1.8h1.8v-1.8h3.5v1.8h1.8v1.8h1.8v1.8h1.8v1.8h1.8V157h-3.5v-7h-10.5V157z
			 M663.1,146.5h10.5v-5.3h-1.8v-1.8h-1.8v-1.8h-3.5v1.8h-1.8v1.8h-1.8V146.5z"/>
		<path d="M680.7,157v-24.6h3.5v21.1h14.1v3.5H680.7z"/>
		<path d="M708.8,136h-7v-3.5h17.6v3.5h-7V157h-3.5V136z"/>
		<path d="M726.4,146.5V157h-3.5v-24.6h3.5V143H737v-10.5h3.5V157H737v-10.5H726.4z"/>
		<path d="M754.5,157H751v-8.8h-1.8v-1.8h-1.8v-1.8h-1.8V143H744v-10.5h3.5v8.8h1.8v1.8h1.8v1.8h3.5V143h1.8v-1.8h1.8v-8.8h3.5V143
			h-1.8v1.8h-1.8v1.8h-1.8v1.8h-1.8V157z"/>
	</g>
	<g>
		<path d="M617.4,445v-24.6h3.5v21.1H635v3.5H617.4z"/>
		<path d="M642,445h-3.5v-17.6h1.8v-1.8h1.8V424h1.8v-1.8h1.8v-1.8h3.5v1.8h1.8v1.8h1.8v1.8h1.8v1.8h1.8V445h-3.5v-7H642V445z
			 M642,434.5h10.5v-5.3h-1.8v-1.8h-1.8v-1.8h-3.5v1.8h-1.8v1.8H642V434.5z"/>
		<path d="M659.6,445v-24.6h14.1v1.8h1.8v1.8h1.8v7h-1.8v3.5h1.8v7h-1.8v1.8h-1.8v1.8H659.6z M663.1,431h8.8v-1.8h1.8v-3.5h-1.8V424
			h-8.8V431z M663.1,441.5h8.8v-1.8h1.8v-3.5h-1.8v-1.8h-8.8V441.5z"/>
		<path d="M684.2,422.2v-1.8h10.5v1.8h1.8v1.8h1.8v17.6h-1.8v1.8h-1.8v1.8h-10.5v-1.8h-1.8v-1.8h-1.8V424h1.8v-1.8H684.2z M693,424
			h-7v1.8h-1.8v14.1h1.8v1.8h7v-1.8h1.8v-14.1H693V424z"/>
		<path d="M707.1,434.5h-1.8V445h-3.5v-24.6h14.1v1.8h1.8v1.8h1.8v7h-1.8v1.8h-1.8v1.8h-3.5v1.8h1.8v1.8h1.8v1.8h1.8v1.8h1.8v3.5
			h-3.5v-1.8h-1.8v-1.8h-1.8v-1.8h-1.8V438h-1.8v-1.8h-1.8V434.5z M705.3,424v7h8.8v-1.8h1.8v-3.5h-1.8V424H705.3z"/>
		<path d="M740.5,420.4v3.5h-14.1v7H737v3.5h-10.5v7h14.1v3.5h-17.6v-24.6H740.5z"/>
		<path d="M749.3,434.5h-1.8V445H744v-24.6h14.1v1.8h1.8v1.8h1.8v7h-1.8v1.8h-1.8v1.8h-3.5v1.8h1.8v1.8h1.8v1.8h1.8v1.8h1.8v3.5
			h-3.5v-1.8h-1.8v-1.8h-1.8v-1.8h-1.8V438H751v-1.8h-1.8V434.5z M747.5,424v7h8.8v-1.8h1.8v-3.5h-1.8V424H747.5z"/>
		<path d="M780.9,424h1.8v3.5h-3.5v-1.8h-1.8V424h-7v1.8h-1.8v3.5h1.8v1.8h8.8v1.8h1.8v1.8h1.8v7h-1.8v1.8h-1.8v1.8h-10.5v-1.8h-1.8
			v-1.8h-1.8V438h3.5v1.8h1.8v1.8h7v-1.8h1.8v-3.5h-1.8v-1.8h-8.8v-1.8h-1.8V431h-1.8v-7h1.8v-1.8h1.8v-1.8h10.5v1.8h1.8V424z"/>
	</g>
	<rect x="616.5" y="172.5" class="st32" width="360" height="54"/>
	<rect x="616.5" y="315.5" class="st32" width="360" height="54"/>
	<rect x="616.5" y="460.5" class="st32" width="360" height="54"/>
	<rect x="615.5" y="604.5" class="st32" width="360" height="54"/>
</g>
</svg>
