<?xml version="1.0" encoding="utf-8"?>
<!-- Generator: Adobe Illustrator 25.2.3, SVG Export Plug-In . SVG Version: 6.00 Build 0)  -->
<svg version="1.1" xmlns="http://www.w3.org/2000/svg" xmlns:xlink="http://www.w3.org/1999/xlink" x="0px" y="0px"
	 viewBox="0 0 1108 791" style="enable-background:new 0 0 1108 791;" xml:space="preserve">
<style type="text/css">
	.st0{fill:#A7B941;}
	.st1{fill:#E0E48D;}
	.st2{fill:#8A370F;}
	.st3{fill:#DA895E;}
	.st4{fill:#63240B;}
	.st5{opacity:0.51;fill:#606060;}
	.st6{fill:none;stroke:#EB1C24;stroke-width:10;stroke-miterlimit:10;}
	.st7{opacity:0.51;fill:#D8D8D8;}
	.st8{opacity:0.53;fill:#3E9B50;}
	.st9{opacity:0.53;fill:#F5C032;}
	.st10{opacity:0.53;fill:#E8222E;}
	.st11{opacity:0.53;fill:#FF8039;}
	.st12{fill:#35BCC0;}
	.st13{fill:#FF4DA6;}
	.st14{fill:#3E9B50;}
	.st15{fill:#FF8039;}
	.st16{fill:#E8222E;}
	.st17{fill:#F5C032;}
	.st18{fill:#305937;}
	.st19{fill:#133415;}
	.st20{fill:#608D62;}
	.st21{fill:#6F6252;}
	.st22{fill:#32A00D;}
	.st23{fill:#DC0000;}
	.st24{fill:#AE0002;}
	.st25{fill:#FF7A69;}
	.st26{fill:#426024;}
	.st27{fill:#649238;}
	.st28{fill:#D08333;}
	.st29{fill:#EAD1A4;}
	.st30{fill:#FFDE01;}
	.st31{stroke:#000000;stroke-width:2;stroke-miterlimit:10;}
	.st32{fill:none;stroke:#000000;stroke-miterlimit:10;}
</style>
<g id="layout">
</g>
<g id="FOOD">
	<rect x="616" y="316" class="st14" width="180" height="54"/>
	<rect x="616" y="172" class="st12" width="307" height="54"/>
	<rect x="616" y="460" class="st13" width="48" height="54"/>
	<g>
		<path d="M644.8,617.8v3.5h-14.1v7h10.5v3.5h-10.5v7h14.1v3.5h-17.6v-24.6H644.8z"/>
		<path d="M651.9,637.1v5.3h-3.5v-7h1.8v-1.8h1.8v-1.8h1.8v-3.5h-1.8v-1.8h-1.8v-1.8h-1.8v-7h3.5v5.3h1.8v1.8h1.8v1.8h3.5v-1.8h1.8
			v-1.8h1.8v-5.3h3.5v7h-1.8v1.8h-1.8v1.8h-1.8v3.5h1.8v1.8h1.8v1.8h1.8v7h-3.5v-5.3h-1.8v-1.8h-1.8v-1.8h-3.5v1.8h-1.8v1.8H651.9z"
			/>
		<path d="M673,631.9v10.5h-3.5v-24.6h14.1v1.8h1.8v1.8h1.8v7h-1.8v1.8h-1.8v1.8H673z M673,621.3v7h8.8v-1.8h1.8v-3.5h-1.8v-1.8H673
			z"/>
		<path d="M690.5,642.4v-24.6h3.5v21.1h14.1v3.5H690.5z"/>
		<path d="M715.1,619.6v-1.8h10.5v1.8h1.8v1.8h1.8v17.6h-1.8v1.8h-1.8v1.8h-10.5v-1.8h-1.8v-1.8h-1.8v-17.6h1.8v-1.8H715.1z
			 M723.9,621.3h-7v1.8h-1.8v14.1h1.8v1.8h7v-1.8h1.8v-14.1h-1.8V621.3z"/>
		<path d="M736.2,642.4v-3.5h3.5v-17.6h-3.5v-3.5h10.5v3.5h-3.5v17.6h3.5v3.5H736.2z"/>
		<path d="M760.8,621.3h-7v-3.5h17.6v3.5h-7v21.1h-3.5V621.3z"/>
		<path d="M778.4,642.4h-3.5v-17.6h1.8v-1.8h1.8v-1.8h1.8v-1.8h1.8v-1.8h3.5v1.8h1.8v1.8h1.8v1.8h1.8v1.8h1.8v17.6H789v-7h-10.5
			V642.4z M778.4,631.9H789v-5.3h-1.8v-1.8h-1.8v-1.8h-3.5v1.8h-1.8v1.8h-1.8V631.9z"/>
		<path d="M803,621.3h-7v-3.5h17.6v3.5h-7v21.1H803V621.3z"/>
		<path d="M820.6,642.4v-3.5h3.5v-17.6h-3.5v-3.5h10.5v3.5h-3.5v17.6h3.5v3.5H820.6z"/>
		<path d="M841.7,619.6v-1.8h10.5v1.8h1.8v1.8h1.8v17.6H854v1.8h-1.8v1.8h-10.5v-1.8H840v-1.8h-1.8v-17.6h1.8v-1.8H841.7z
			 M850.5,621.3h-7v1.8h-1.8v14.1h1.8v1.8h7v-1.8h1.8v-14.1h-1.8V621.3z"/>
		<path d="M862.8,628.4v14.1h-3.5v-24.6h3.5v5.3h1.8v1.8h1.8v1.8h1.8v1.8h1.8v1.8h1.8v1.8h1.8v-14.1h3.5v24.6h-3.5v-5.3h-1.8v-1.8
			h-1.8v-1.8h-1.8v-1.8h-1.8v-1.8h-1.8v-1.8H862.8z"/>
	</g>
	<g>
		<rect x="286.6" y="591.9" width="16.4" height="65.4"/>
		<rect x="352" y="591.9" width="16.4" height="65.4"/>
		<polygon class="st23" points="466.7,460.3 466.7,427.6 450.3,427.6 450.3,411.2 434,411.2 434,394.8 417.6,394.8 417.6,378.5 
			350.3,378.5 235.8,378.5 235.8,394.8 219.5,394.8 219.5,411.2 203.1,411.2 203.1,427.6 186.7,427.6 186.7,460.3 170.4,460.3 
			170.4,542.1 186.7,542.1 186.7,558.4 203.1,558.4 203.1,574.8 219.5,574.8 219.5,591.2 235.8,591.2 235.8,607.5 417.6,607.5 
			417.6,591.2 434,591.2 434,574.8 450.3,574.8 450.3,558.4 466.7,558.4 466.7,542.1 483,542.1 483,460.3 		"/>
		<rect x="252.2" y="591.4" class="st24" width="49.1" height="16.4"/>
		<rect x="235.8" y="427.6" class="st25" width="16.4" height="16.4"/>
		<polygon class="st25" points="235.8,443.9 219.5,443.9 203.1,443.9 203.1,476.6 203.1,509.4 219.5,509.4 219.5,476.6 235.8,476.6 
					"/>
		<g>
			<rect x="268.5" y="345.8" class="st26" width="16.4" height="16.4"/>
			<rect x="235.8" y="394.8" class="st26" width="16.4" height="16.4"/>
			<rect x="383.1" y="427.6" class="st26" width="16.4" height="16.4"/>
			<rect x="366.7" y="345.8" class="st26" width="16.4" height="16.4"/>
			<rect x="268.5" y="427.6" class="st26" width="16.4" height="16.4"/>
			<rect x="383.8" y="329.2" class="st26" width="16.4" height="16.4"/>
			<rect x="252.2" y="329.4" class="st26" width="16.4" height="16.4"/>
			<rect x="399.4" y="362.1" class="st26" width="16.4" height="16.4"/>
			<polygon class="st26" points="366.7,362.1 334,362.1 284.9,362.1 284.9,378.5 252.2,378.5 252.2,394.8 284.9,394.8 301.3,394.8 
				301.3,411.2 284.9,411.2 284.9,427.6 317.6,427.6 317.6,411.2 334,411.2 350.3,411.2 350.3,427.6 366.7,427.6 383.1,427.6 
				383.1,411.2 366.7,411.2 366.7,394.8 399.4,394.8 399.4,378.5 366.7,378.5 			"/>
		</g>
		<polygon class="st27" points="334,329.4 334,345.8 317.6,345.8 317.6,362.1 317.6,378.5 334,378.5 334,362.1 350.3,362.1 
			350.3,345.8 350.3,329.4 		"/>
		<rect x="301.3" y="378.5" class="st27" width="16.4" height="16.4"/>
		<polygon class="st24" points="482.6,525.7 482.6,508.8 466.2,508.8 466.2,525.7 450.3,525.7 450.3,542.1 434,542.1 434,574.8 
			417.6,574.8 417.6,558.4 401.2,558.4 401.2,574.8 384.9,574.8 384.9,591.2 352.2,591.2 352.2,607.5 384.9,607.5 401.2,607.5 
			417.6,607.5 417.6,591.2 434,591.2 434,576 450.8,576 450.8,558.4 466.7,558.4 466.7,542.1 483,542.1 483,525.7 		"/>
		<g>
			<rect x="253.9" y="493.8" width="49.1" height="16.4"/>
		</g>
		<rect x="319.3" y="542.8" width="16.4" height="16.4"/>
		<rect x="352" y="493.8" width="49.1" height="16.4"/>
		<rect x="482.9" y="493.8" width="16.4" height="16.4"/>
		<rect x="499.3" y="510.1" width="16.4" height="16.4"/>
		<rect x="515.6" y="526.5" width="16.4" height="16.4"/>
		<rect x="155.7" y="493.8" transform="matrix(-1 -4.491886e-11 4.491886e-11 -1 327.8 1003.8994)" width="16.4" height="16.4"/>
		<rect x="139.4" y="510.1" transform="matrix(-1 -4.480783e-11 4.480783e-11 -1 295.08 1036.6194)" width="16.4" height="16.4"/>
		<rect x="123" y="526.5" transform="matrix(-1 -4.491886e-11 4.491886e-11 -1 262.36 1069.3395)" width="16.4" height="16.4"/>
	</g>
</g>
<g id="top_lines">
	<g>
		<path class="st31" d="M191.2,115.1h-12.3v-6.2h30.8v6.2h-12.3V152h-6.2V115.1z"/>
		<path class="st31" d="M222,112v-3.1h18.5v3.1h3.1v3.1h3.1v30.8h-3.1v3.1h-3.1v3.1H222v-3.1h-3.1v-3.1h-3.1v-30.8h3.1V112H222z
			 M237.4,115.1h-12.3v3.1H222v24.6h3.1v3.1h12.3v-3.1h3.1v-24.6h-3.1V115.1z"/>
		<path class="st31" d="M258.9,152h-6.2v-43.1h6.2v6.2h3.1v3.1h3.1v3.1h6.2v-3.1h3.1v-3.1h3.1v-6.2h6.2V152h-6.2v-27.7h-3.1v3.1
			h-3.1v6.2h-6.2v-6.2H262v-3.1h-3.1V152z"/>
		<path class="st31" d="M295.8,152h-6.2v-30.8h3.1v-3.1h3.1v-3.1h3.1V112h3.1v-3.1h6.2v3.1h3.1v3.1h3.1v3.1h3.1v3.1h3.1V152h-6.2
			v-12.3h-18.5V152z M295.8,133.5h18.5v-9.2h-3.1v-3.1h-3.1v-3.1H302v3.1h-3.1v3.1h-3.1V133.5z"/>
		<path class="st31" d="M338.9,115.1h-12.3v-6.2h30.8v6.2H345V152h-6.2V115.1z"/>
		<path class="st31" d="M369.6,112v-3.1h18.5v3.1h3.1v3.1h3.1v30.8h-3.1v3.1h-3.1v3.1h-18.5v-3.1h-3.1v-3.1h-3.1v-30.8h3.1V112
			H369.6z M385,115.1h-12.3v3.1h-3.1v24.6h3.1v3.1H385v-3.1h3.1v-24.6H385V115.1z"/>
		<path class="st31" d="M431.2,108.9v6.2h-24.6v12.3H425v6.2h-18.5v12.3h24.6v6.2h-30.8v-43.1H431.2z"/>
		<path class="st31" d="M465,115.1h3.1v6.2h-6.2v-3.1h-3.1v-3.1h-12.3v3.1h-3.1v6.2h3.1v3.1h15.4v3.1h3.1v3.1h3.1v12.3H465v3.1h-3.1
			v3.1h-18.5v-3.1h-3.1v-3.1h-3.1v-6.2h6.2v3.1h3.1v3.1h12.3v-3.1h3.1v-6.2h-3.1v-3.1h-15.4v-3.1h-3.1v-3.1h-3.1v-12.3h3.1V112h3.1
			v-3.1h18.5v3.1h3.1V115.1z"/>
	</g>
	<g>
		<path d="M617.4,589.5v-24.6h14.1v1.8h1.8v1.8h1.8v7h-1.8v3.5h1.8v7h-1.8v1.8h-1.8v1.8H617.4z M620.9,575.5h8.8v-1.8h1.8v-3.5h-1.8
			v-1.8h-8.8V575.5z M620.9,586h8.8v-1.8h1.8v-3.5h-1.8V579h-8.8V586z"/>
		<path d="M642,589.5h-3.5v-17.6h1.8v-1.8h1.8v-1.8h1.8v-1.8h1.8v-1.8h3.5v1.8h1.8v1.8h1.8v1.8h1.8v1.8h1.8v17.6h-3.5v-7H642V589.5z
			 M642,579h10.5v-5.3h-1.8v-1.8h-1.8v-1.8h-3.5v1.8h-1.8v1.8H642V579z"/>
		<path d="M664.9,586h7v-1.8h1.8v-1.8h3.5v3.5h-1.8v1.8h-1.8v1.8h-10.5v-1.8h-1.8V586h-1.8v-17.6h1.8v-1.8h1.8v-1.8h10.5v1.8h1.8
			v1.8h1.8v3.5h-3.5v-1.8h-1.8v-1.8h-7v1.8h-1.8v14.1h1.8V586z"/>
		<path d="M684.2,579v10.5h-3.5v-24.6h3.5v10.5h1.8v-1.8h1.8v-1.8h1.8v-1.8h1.8v-1.8h1.8v-1.8h1.8v-1.8h3.5v3.5h-1.8v1.8h-1.8v1.8
			H693v1.8h-1.8v1.8h-1.8v3.5h1.8v1.8h1.8v1.8h1.8v1.8h1.8v1.8h1.8v3.5h-3.5v-1.8H693V586h-1.8v-1.8h-1.8v-1.8h-1.8v-1.8H686V579
			H684.2z"/>
		<path d="M717.6,568.4h1.8v3.5h-3.5v-1.8h-1.8v-1.8h-7v1.8h-1.8v3.5h1.8v1.8h8.8v1.8h1.8v1.8h1.8v7h-1.8v1.8h-1.8v1.8h-10.5v-1.8
			h-1.8V586h-1.8v-3.5h3.5v1.8h1.8v1.8h7v-1.8h1.8v-3.5h-1.8V579h-8.8v-1.8h-1.8v-1.8h-1.8v-7h1.8v-1.8h1.8v-1.8h10.5v1.8h1.8V568.4
			z"/>
		<path d="M729.9,568.4h-7v-3.5h17.6v3.5h-7v21.1h-3.5V568.4z"/>
		<path d="M747.5,566.7v-1.8h10.5v1.8h1.8v1.8h1.8V586h-1.8v1.8h-1.8v1.8h-10.5v-1.8h-1.8V586H744v-17.6h1.8v-1.8H747.5z
			 M756.3,568.4h-7v1.8h-1.8v14.1h1.8v1.8h7v-1.8h1.8v-14.1h-1.8V568.4z"/>
		<path d="M770.4,579h-1.8v10.5h-3.5v-24.6h14.1v1.8h1.8v1.8h1.8v7h-1.8v1.8h-1.8v1.8h-3.5v1.8h1.8v1.8h1.8v1.8h1.8v1.8h1.8v3.5
			h-3.5v-1.8h-1.8V586h-1.8v-1.8h-1.8v-1.8h-1.8v-1.8h-1.8V579z M768.6,568.4v7h8.8v-1.8h1.8v-3.5h-1.8v-1.8H768.6z"/>
		<path d="M796.7,589.5h-3.5v-8.8h-1.8V579h-1.8v-1.8h-1.8v-1.8h-1.8v-10.5h3.5v8.8h1.8v1.8h1.8v1.8h3.5v-1.8h1.8v-1.8h1.8v-8.8h3.5
			v10.5H802v1.8h-1.8v1.8h-1.8v1.8h-1.8V589.5z"/>
	</g>
	<g>
		<path d="M633.2,280h1.8v3.5h-3.5v-1.8h-1.8V280h-7v1.8h-1.8v3.5h1.8v1.8h8.8v1.8h1.8v1.8h1.8v7h-1.8v1.8h-1.8v1.8h-10.5v-1.8h-1.8
			v-1.8h-1.8V294h3.5v1.8h1.8v1.8h7v-1.8h1.8v-3.5h-1.8v-1.8h-8.8v-1.8h-1.8V287h-1.8v-7h1.8v-1.8h1.8v-1.8h10.5v1.8h1.8V280z"/>
		<path d="M640.3,297.5h-1.8v-21.1h3.5v19.3h1.8v1.8h7v-1.8h1.8v-19.3h3.5v21.1h-1.8v1.8h-1.8v1.8H642v-1.8h-1.8V297.5z"/>
		<path d="M675.4,280h1.8v3.5h-3.5v-1.8h-1.8V280h-7v1.8h-1.8v3.5h1.8v1.8h8.8v1.8h1.8v1.8h1.8v7h-1.8v1.8h-1.8v1.8h-10.5v-1.8h-1.8
			v-1.8h-1.8V294h3.5v1.8h1.8v1.8h7v-1.8h1.8v-3.5h-1.8v-1.8h-8.8v-1.8h-1.8V287h-1.8v-7h1.8v-1.8h1.8v-1.8h10.5v1.8h1.8V280z"/>
		<path d="M687.7,280h-7v-3.5h17.6v3.5h-7V301h-3.5V280z"/>
		<path d="M705.3,301h-3.5v-17.6h1.8v-1.8h1.8V280h1.8v-1.8h1.8v-1.8h3.5v1.8h1.8v1.8h1.8v1.8h1.8v1.8h1.8V301h-3.5v-7h-10.5V301z
			 M705.3,290.5h10.5v-5.3h-1.8v-1.8h-1.8v-1.8h-3.5v1.8h-1.8v1.8h-1.8V290.5z"/>
		<path d="M726.4,301v-3.5h3.5V280h-3.5v-3.5H737v3.5h-3.5v17.6h3.5v3.5H726.4z"/>
		<path d="M747.5,287V301H744v-24.6h3.5v5.3h1.8v1.8h1.8v1.8h1.8v1.8h1.8v1.8h1.8v1.8h1.8v-14.1h3.5V301h-3.5v-5.3h-1.8V294h-1.8
			v-1.8h-1.8v-1.8H751v-1.8h-1.8V287H747.5z"/>
		<path d="M768.6,301h-3.5v-17.6h1.8v-1.8h1.8V280h1.8v-1.8h1.8v-1.8h3.5v1.8h1.8v1.8h1.8v1.8h1.8v1.8h1.8V301h-3.5v-7h-10.5V301z
			 M768.6,290.5h10.5v-5.3h-1.8v-1.8h-1.8v-1.8h-3.5v1.8h-1.8v1.8h-1.8V290.5z"/>
		<path d="M786.2,301v-24.6h14.1v1.8h1.8v1.8h1.8v7H802v3.5h1.8v7H802v1.8h-1.8v1.8H786.2z M789.7,287h8.8v-1.8h1.8v-3.5h-1.8V280
			h-8.8V287z M789.7,297.5h8.8v-1.8h1.8v-3.5h-1.8v-1.8h-8.8V297.5z"/>
		<path d="M810.8,301v-3.5h3.5V280h-3.5v-3.5h10.5v3.5h-3.5v17.6h3.5v3.5H810.8z"/>
		<path d="M828.4,301v-24.6h3.5v21.1h14.1v3.5H828.4z"/>
		<path d="M853,301v-3.5h3.5V280H853v-3.5h10.5v3.5H860v17.6h3.5v3.5H853z"/>
		<path d="M877.6,280h-7v-3.5h17.6v3.5h-7V301h-3.5V280z"/>
		<path d="M902.2,301h-3.5v-8.8h-1.8v-1.8h-1.8v-1.8h-1.8V287h-1.8v-10.5h3.5v8.8h1.8v1.8h1.8v1.8h3.5V287h1.8v-1.8h1.8v-8.8h3.5
			V287h-1.8v1.8h-1.8v1.8h-1.8v1.8h-1.8V301z"/>
	</g>
	<g>
		<path d="M620.9,146.5V157h-3.5v-24.6h3.5V143h10.5v-10.5h3.5V157h-3.5v-10.5H620.9z"/>
		<path d="M656.1,132.4v3.5H642v7h10.5v3.5H642v7h14.1v3.5h-17.6v-24.6H656.1z"/>
		<path d="M663.1,157h-3.5v-17.6h1.8v-1.8h1.8V136h1.8v-1.8h1.8v-1.8h3.5v1.8h1.8v1.8h1.8v1.8h1.8v1.8h1.8V157h-3.5v-7h-10.5V157z
			 M663.1,146.5h10.5v-5.3h-1.8v-1.8h-1.8v-1.8h-3.5v1.8h-1.8v1.8h-1.8V146.5z"/>
		<path d="M680.7,157v-24.6h3.5v21.1h14.1v3.5H680.7z"/>
		<path d="M708.8,136h-7v-3.5h17.6v3.5h-7V157h-3.5V136z"/>
		<path d="M726.4,146.5V157h-3.5v-24.6h3.5V143H737v-10.5h3.5V157H737v-10.5H726.4z"/>
		<path d="M754.5,157H751v-8.8h-1.8v-1.8h-1.8v-1.8h-1.8V143H744v-10.5h3.5v8.8h1.8v1.8h1.8v1.8h3.5V143h1.8v-1.8h1.8v-8.8h3.5V143
			h-1.8v1.8h-1.8v1.8h-1.8v1.8h-1.8V157z"/>
	</g>
	<g>
		<path d="M617.4,445v-24.6h3.5v21.1H635v3.5H617.4z"/>
		<path d="M642,445h-3.5v-17.6h1.8v-1.8h1.8V424h1.8v-1.8h1.8v-1.8h3.5v1.8h1.8v1.8h1.8v1.8h1.8v1.8h1.8V445h-3.5v-7H642V445z
			 M642,434.5h10.5v-5.3h-1.8v-1.8h-1.8v-1.8h-3.5v1.8h-1.8v1.8H642V434.5z"/>
		<path d="M659.6,445v-24.6h14.1v1.8h1.8v1.8h1.8v7h-1.8v3.5h1.8v7h-1.8v1.8h-1.8v1.8H659.6z M663.1,431h8.8v-1.8h1.8v-3.5h-1.8V424
			h-8.8V431z M663.1,441.5h8.8v-1.8h1.8v-3.5h-1.8v-1.8h-8.8V441.5z"/>
		<path d="M684.2,422.2v-1.8h10.5v1.8h1.8v1.8h1.8v17.6h-1.8v1.8h-1.8v1.8h-10.5v-1.8h-1.8v-1.8h-1.8V424h1.8v-1.8H684.2z M693,424
			h-7v1.8h-1.8v14.1h1.8v1.8h7v-1.8h1.8v-14.1H693V424z"/>
		<path d="M707.1,434.5h-1.8V445h-3.5v-24.6h14.1v1.8h1.8v1.8h1.8v7h-1.8v1.8h-1.8v1.8h-3.5v1.8h1.8v1.8h1.8v1.8h1.8v1.8h1.8v3.5
			h-3.5v-1.8h-1.8v-1.8h-1.8v-1.8h-1.8V438h-1.8v-1.8h-1.8V434.5z M705.3,424v7h8.8v-1.8h1.8v-3.5h-1.8V424H705.3z"/>
		<path d="M740.5,420.4v3.5h-14.1v7H737v3.5h-10.5v7h14.1v3.5h-17.6v-24.6H740.5z"/>
		<path d="M749.3,434.5h-1.8V445H744v-24.6h14.1v1.8h1.8v1.8h1.8v7h-1.8v1.8h-1.8v1.8h-3.5v1.8h1.8v1.8h1.8v1.8h1.8v1.8h1.8v3.5
			h-3.5v-1.8h-1.8v-1.8h-1.8v-1.8h-1.8V438H751v-1.8h-1.8V434.5z M747.5,424v7h8.8v-1.8h1.8v-3.5h-1.8V424H747.5z"/>
		<path d="M780.9,424h1.8v3.5h-3.5v-1.8h-1.8V424h-7v1.8h-1.8v3.5h1.8v1.8h8.8v1.8h1.8v1.8h1.8v7h-1.8v1.8h-1.8v1.8h-10.5v-1.8h-1.8
			v-1.8h-1.8V438h3.5v1.8h1.8v1.8h7v-1.8h1.8v-3.5h-1.8v-1.8h-8.8v-1.8h-1.8V431h-1.8v-7h1.8v-1.8h1.8v-1.8h10.5v1.8h1.8V424z"/>
	</g>
	<rect x="616.5" y="172.5" class="st32" width="360" height="54"/>
	<rect x="616.5" y="315.5" class="st32" width="360" height="54"/>
	<rect x="616.5" y="460.5" class="st32" width="360" height="54"/>
	<rect x="615.5" y="604.5" class="st32" width="360" height="54"/>
</g>
</svg>
