<?xml version="1.0" encoding="utf-8"?>
<!-- Generator: Adobe Illustrator 25.2.3, SVG Export Plug-In . SVG Version: 6.00 Build 0)  -->
<svg version="1.1" xmlns="http://www.w3.org/2000/svg" xmlns:xlink="http://www.w3.org/1999/xlink" x="0px" y="0px"
	 viewBox="0 0 1108 791" style="enable-background:new 0 0 1108 791;" xml:space="preserve">
<style type="text/css">
	.st0{fill:#A7B941;}
	.st1{fill:#E0E48D;}
	.st2{fill:#8A370F;}
	.st3{fill:#DA895E;}
	.st4{fill:#63240B;}
	.st5{opacity:0.51;fill:#606060;}
	.st6{fill:none;stroke:#EB1C24;stroke-width:10;stroke-miterlimit:10;}
	.st7{opacity:0.51;fill:#D8D8D8;}
	.st8{opacity:0.53;fill:#3E9B50;}
	.st9{opacity:0.53;fill:#F5C032;}
	.st10{opacity:0.53;fill:#E8222E;}
	.st11{opacity:0.53;fill:#FF8039;}
	.st12{fill:#35BCC0;}
	.st13{fill:#FF4DA6;}
	.st14{fill:#3E9B50;}
	.st15{fill:#FF8039;}
	.st16{fill:#E8222E;}
	.st17{fill:#F5C032;}
	.st18{fill:none;}
	.st19{font-family:'VCROSDMono';}
	.st20{font-size:36px;}
	.st21{fill:#305937;}
	.st22{fill:#133415;}
	.st23{fill:#608D62;}
	.st24{fill:#6F6252;}
	.st25{fill:#32A00D;}
	.st26{fill:#DC0000;}
	.st27{fill:#AE0002;}
	.st28{fill:#FF7A69;}
	.st29{fill:#426024;}
	.st30{fill:#649238;}
	.st31{fill:#D08333;}
	.st32{fill:#EAD1A4;}
	.st33{fill:#FFDE01;}
	.st34{fill:none;stroke:#000000;stroke-miterlimit:10;}
	.st35{stroke:#000000;stroke-width:2;stroke-miterlimit:10;}
	.st36{font-size:63px;}
</style>
<g id="layout">
</g>
<g id="FOOD">
	<rect x="616" y="316" class="st14" width="315" height="54"/>
	<rect x="616" y="172" class="st12" width="270" height="54"/>
	<rect x="616" y="460" class="st13" width="225" height="54"/>
	<rect x="625.5" y="604" class="st18" width="350.5" height="54"/>
	<text transform="matrix(1 0 0 1 625.498 644.176)" class="st19 st20">ERADICATION</text>
	<g>
		<polygon class="st24" points="476.7,483 460.6,483 460.6,467.2 444.4,467.2 444.4,451.4 186.4,451.4 186.4,467.2 170.2,467.2 
			170.2,483 154.1,483 154.1,561.9 170.2,561.9 170.2,577.7 186.4,577.7 186.4,593.5 444.4,593.5 444.4,577.7 460.6,577.7 
			460.6,561.9 476.7,561.9 		"/>
		<rect x="396" y="483" width="16.1" height="31.6"/>
		<rect x="444.4" y="483" width="16.1" height="31.6"/>
		<rect x="412.2" y="530.4" width="32.3" height="15.8"/>
		<rect x="218.6" y="593.5" width="16.1" height="63.2"/>
		<rect x="396" y="593.5" width="16.1" height="63.2"/>
		<rect x="363.8" y="593.5" width="16.1" height="63.2"/>
		<rect x="250.9" y="593.5" width="16.1" height="63.2"/>
		<rect x="396" y="372.4" width="16.1" height="79"/>
		<polygon class="st25" points="363.5,324.2 373.7,335.2 362.4,345.2 352.2,334.2 318.5,364.2 349.1,397.2 360.3,387.3 370.5,398.3 
			381.8,388.3 392,399.3 425.7,369.3 415.5,358.3 426.8,348.3 416.6,337.3 427.8,327.3 397.2,294.2 		"/>
	</g>
</g>
<g id="top_lines">
	<rect x="94" y="64" class="st18" width="459" height="136"/>
	<text transform="matrix(1 0 0 1 249.6719 155.0576)" class="st35 st19 st36">CHIA</text>
	<rect x="615.7" y="542" class="st18" width="369.3" height="72.2"/>
	<text transform="matrix(1 0 0 1 615.668 591.2823)" class="st19 st20">BACKSTORY</text>
	<rect x="615.7" y="253.5" class="st18" width="360.3" height="72.2"/>
	<text transform="matrix(1 0 0 1 615.668 302.8017)" class="st19 st20">SUSTAINABILITY</text>
	<rect x="615.7" y="109.5" class="st18" width="360.3" height="72.2"/>
	<text transform="matrix(1 0 0 1 615.668 158.8017)" class="st19 st20">HEALTHY</text>
	<rect x="615.7" y="397.5" class="st18" width="360.3" height="72.2"/>
	<text transform="matrix(1 0 0 1 615.668 446.8017)" class="st19 st20">LABORERS</text>
	<rect x="94.5" y="64.5" class="st34" width="917" height="675"/>
	<rect x="616.5" y="172.5" class="st34" width="360" height="54"/>
	<rect x="616.5" y="315.5" class="st34" width="360" height="54"/>
	<rect x="616.5" y="460.5" class="st34" width="360" height="54"/>
	<rect x="615.5" y="604.5" class="st34" width="360" height="54"/>
</g>
</svg>
