<?xml version="1.0" encoding="utf-8"?>
<!-- Generator: Adobe Illustrator 25.2.3, SVG Export Plug-In . SVG Version: 6.00 Build 0)  -->
<svg version="1.1" xmlns="http://www.w3.org/2000/svg" xmlns:xlink="http://www.w3.org/1999/xlink" x="0px" y="0px"
	 viewBox="0 0 1108 791" style="enable-background:new 0 0 1108 791;" xml:space="preserve">
<style type="text/css">
	.st0{fill:#A7B941;}
	.st1{fill:#E0E48D;}
	.st2{fill:#8A370F;}
	.st3{fill:#DA895E;}
	.st4{fill:#63240B;}
	.st5{opacity:0.51;fill:#606060;}
	.st6{fill:none;stroke:#EB1C24;stroke-width:10;stroke-miterlimit:10;}
	.st7{opacity:0.51;fill:#D8D8D8;}
	.st8{opacity:0.53;fill:#3E9B50;}
	.st9{opacity:0.53;fill:#F5C032;}
	.st10{opacity:0.53;fill:#E8222E;}
	.st11{opacity:0.53;fill:#FF8039;}
	.st12{fill:#35BCC0;}
	.st13{fill:#FF4DA6;}
	.st14{fill:#3E9B50;}
	.st15{fill:#FF8039;}
	.st16{fill:#E8222E;}
	.st17{fill:#F5C032;}
	.st18{fill:none;}
	.st19{font-family:'VCROSDMono';}
	.st20{font-size:36px;}
	.st21{fill:#305937;}
	.st22{fill:#133415;}
	.st23{fill:#608D62;}
	.st24{fill:#6F6252;}
	.st25{fill:#32A00D;}
	.st26{fill:#DC0000;}
	.st27{fill:#AE0002;}
	.st28{fill:#FF7A69;}
	.st29{fill:#426024;}
	.st30{fill:#649238;}
	.st31{fill:#D08333;}
	.st32{fill:#EAD1A4;}
	.st33{fill:#FFDE01;}
	.st34{fill:none;stroke:#000000;stroke-miterlimit:10;}
	.st35{stroke:#000000;stroke-width:2;stroke-miterlimit:10;}
	.st36{font-size:63px;}
</style>
<g id="layout">
</g>
<g id="FOOD">
	<rect x="616" y="316" class="st14" width="315" height="54"/>
	<rect x="616" y="172" class="st12" width="315" height="54"/>
	<rect x="616" y="460" class="st13" width="270" height="54"/>
	<rect x="625.5" y="604" class="st18" width="350.5" height="54"/>
	<text transform="matrix(1 0 0 1 625.498 644.176)" class="st19 st20">ERADICATION</text>
	<g>
		<g>
			<rect x="145.9" y="462.3" class="st21" width="106.8" height="17.8"/>
			<rect x="252.7" y="480.1" class="st21" width="17.8" height="17.8"/>
			<rect x="270.5" y="497.9" class="st21" width="17.8" height="17.8"/>
			<polygon class="st21" points="306.1,533.5 306.1,515.7 288.3,515.7 288.3,533.5 288.3,622.5 306.1,622.5 			"/>
			<rect x="270.5" y="622.5" class="st21" width="17.8" height="17.8"/>
			<polygon class="st21" points="270.5,640.3 252.7,640.3 199.3,640.3 181.5,640.3 181.5,658.1 199.3,658.1 252.7,658.1 
				270.5,658.1 			"/>
			<rect x="217.1" y="586.9" class="st21" width="17.8" height="17.8"/>
			<polygon class="st21" points="234.9,586.9 252.7,586.9 252.7,569.1 252.7,533.5 234.9,533.5 234.9,569.1 			"/>
			<rect x="181.5" y="515.7" class="st21" width="53.4" height="17.8"/>
			<rect x="163.7" y="533.5" class="st21" width="17.8" height="17.8"/>
			<rect x="145.9" y="551.3" class="st21" width="17.8" height="71.2"/>
			<rect x="163.7" y="622.5" class="st21" width="17.8" height="17.8"/>
			<rect x="128.1" y="480.1" class="st21" width="17.8" height="17.8"/>
			<rect x="110.3" y="497.9" class="st21" width="17.8" height="17.8"/>
		</g>
		<g>
			<rect x="395.1" y="426.7" class="st21" width="106.8" height="17.8"/>
			<rect x="377.3" y="408.9" class="st21" width="17.8" height="17.8"/>
			<rect x="359.5" y="391.1" class="st21" width="17.8" height="17.8"/>
			<polygon class="st21" points="341.7,373.3 341.7,391.1 359.5,391.1 359.5,373.3 359.5,284.3 341.7,284.3 			"/>
			<rect x="359.5" y="266.5" class="st21" width="17.8" height="17.8"/>
			<polygon class="st21" points="377.3,266.5 395.1,266.5 448.5,266.5 466.3,266.5 466.3,248.7 448.5,248.7 395.1,248.7 
				377.3,248.7 			"/>
			<rect x="412.9" y="302.1" class="st21" width="17.8" height="17.8"/>
			<polygon class="st21" points="412.9,319.9 395.1,319.9 395.1,337.7 395.1,373.3 412.9,373.3 412.9,337.7 			"/>
			<rect x="412.9" y="373.3" class="st21" width="53.4" height="17.8"/>
			<rect x="466.3" y="355.5" class="st21" width="17.8" height="17.8"/>
			<rect x="484.1" y="284.3" class="st21" width="17.8" height="71.2"/>
			<rect x="466.3" y="266.5" class="st21" width="17.8" height="17.8"/>
			<rect x="501.9" y="408.9" class="st21" width="17.8" height="17.8"/>
			<rect x="519.7" y="391.1" class="st21" width="17.8" height="17.8"/>
		</g>
		<polygon class="st22" points="430.7,408.9 412.9,408.9 412.9,391.1 395.1,391.1 395.1,373.3 270.5,373.3 270.5,391.1 252.7,391.1 
			252.7,408.9 234.9,408.9 234.9,515.7 252.7,515.7 252.7,533.5 270.5,533.5 270.5,551.3 395.1,551.3 395.1,533.5 412.9,533.5 
			412.9,515.7 430.7,515.7 		"/>
		<rect x="288.3" y="426.7" class="st23" width="17.8" height="35.6"/>
		<rect x="361.5" y="426.7" class="st23" width="17.8" height="35.6"/>
		<rect x="308.1" y="480.1" class="st23" width="17.8" height="17.8"/>
		<rect x="343.7" y="480.1" class="st23" width="17.8" height="17.8"/>
		<rect x="325.9" y="497.9" class="st23" width="17.8" height="17.8"/>
	</g>
</g>
<g id="top_lines">
	<rect x="94" y="64" class="st18" width="459" height="136"/>
	<text transform="matrix(1 0 0 1 157.3867 155.0576)" class="st35 st19 st36">SPIRULINA</text>
	<rect x="615.7" y="542" class="st18" width="369.3" height="72.2"/>
	<text transform="matrix(1 0 0 1 615.668 591.2823)" class="st19 st20">BACKSTORY</text>
	<rect x="615.7" y="253.5" class="st18" width="360.3" height="72.2"/>
	<text transform="matrix(1 0 0 1 615.668 302.8017)" class="st19 st20">SUSTAINABILITY</text>
	<rect x="615.7" y="109.5" class="st18" width="360.3" height="72.2"/>
	<text transform="matrix(1 0 0 1 615.668 158.8017)" class="st19 st20">HEALTHY</text>
	<rect x="615.7" y="397.5" class="st18" width="360.3" height="72.2"/>
	<text transform="matrix(1 0 0 1 615.668 446.8017)" class="st19 st20">LABORERS</text>
	<rect x="94.5" y="64.5" class="st34" width="917" height="675"/>
	<rect x="616.5" y="172.5" class="st34" width="360" height="54"/>
	<rect x="616.5" y="315.5" class="st34" width="360" height="54"/>
	<rect x="616.5" y="460.5" class="st34" width="360" height="54"/>
	<rect x="615.5" y="604.5" class="st34" width="360" height="54"/>
</g>
</svg>
