<?xml version="1.0" encoding="utf-8"?>
<!-- Generator: Adobe Illustrator 25.2.3, SVG Export Plug-In . SVG Version: 6.00 Build 0)  -->
<svg version="1.1" xmlns="http://www.w3.org/2000/svg" xmlns:xlink="http://www.w3.org/1999/xlink" x="0px" y="0px"
	 viewBox="0 0 1108 791" style="enable-background:new 0 0 1108 791;" xml:space="preserve">
<style type="text/css">
	.st0{fill:#A7B941;}
	.st1{fill:#E0E48D;}
	.st2{fill:#8A370F;}
	.st3{fill:#DA895E;}
	.st4{fill:#63240B;}
	.st5{opacity:0.51;fill:#606060;}
	.st6{fill:none;stroke:#EB1C24;stroke-width:10;stroke-miterlimit:10;}
	.st7{opacity:0.51;fill:#D8D8D8;}
	.st8{opacity:0.53;fill:#3E9B50;}
	.st9{opacity:0.53;fill:#F5C032;}
	.st10{opacity:0.53;fill:#E8222E;}
	.st11{opacity:0.53;fill:#FF8039;}
	.st12{fill:#35BCC0;}
	.st13{fill:#FF4DA6;}
	.st14{fill:#3E9B50;}
	.st15{fill:#FF8039;}
	.st16{fill:#E8222E;}
	.st17{fill:#F5C032;}
	.st18{fill:none;}
	.st19{font-family:'VCROSDMono';}
	.st20{font-size:36px;}
	.st21{fill:#305937;}
	.st22{fill:#133415;}
	.st23{fill:#608D62;}
	.st24{fill:#6F6252;}
	.st25{fill:#32A00D;}
	.st26{fill:#DC0000;}
	.st27{fill:#AE0002;}
	.st28{fill:#FF7A69;}
	.st29{fill:#426024;}
	.st30{fill:#649238;}
	.st31{fill:#D08333;}
	.st32{fill:#EAD1A4;}
	.st33{fill:#FFDE01;}
	.st34{fill:none;stroke:#000000;stroke-miterlimit:10;}
	.st35{stroke:#000000;stroke-width:2;stroke-miterlimit:10;}
	.st36{font-size:63px;}
</style>
<g id="layout">
</g>
<g id="FOOD">
	<rect x="616" y="316" class="st14" width="180" height="54"/>
	<rect x="616" y="172" class="st12" width="225" height="54"/>
	<rect x="616" y="460" class="st13" width="181" height="54"/>
	<rect x="625.5" y="604" class="st18" width="350.5" height="54"/>
	<text transform="matrix(1 0 0 1 625.4978 644.176)" class="st19 st20">ERADICATION</text>
	<g>
		<polygon class="st31" points="433.8,362.1 414.1,362.1 414.1,342.5 394.4,342.5 394.4,322.8 256.6,322.8 256.6,342.5 236.9,342.5 
			236.9,362.1 217.2,362.1 217.2,480.3 236.9,480.3 236.9,500 256.6,500 256.6,519.7 394.4,519.7 394.4,500 414.1,500 414.1,480.3 
			433.8,480.3 		"/>
		<rect x="296" y="519.7" width="19.7" height="137.8"/>
		<rect x="335.3" y="519.7" width="19.7" height="137.8"/>
		<rect x="276.3" y="379.7" width="19.7" height="39.4"/>
		<rect x="355" y="379.7" width="19.7" height="39.4"/>
		<rect x="296" y="440.9" width="59.1" height="19.7"/>
		<rect x="433.8" y="421.2" width="19.7" height="19.7"/>
		<rect x="453.5" y="322.8" width="19.7" height="98.5"/>
		<rect x="197.5" y="421.2" width="19.7" height="19.7"/>
		<rect x="177.8" y="322.8" width="19.7" height="98.5"/>
		<g>
			<rect x="217.2" y="362.1" class="st26" width="19.7" height="177.2"/>
			<rect x="414.1" y="362.1" class="st26" width="19.7" height="177.2"/>
			<polygon class="st26" points="374.7,322.8 374.7,303.1 355,303.1 355,283.4 335.3,283.4 335.3,244 315.7,244 315.7,283.4 
				296,283.4 296,303.1 276.3,303.1 276.3,322.8 256.6,322.8 256.6,342.5 394.4,342.5 394.4,322.8 			"/>
			<rect x="236.9" y="342.5" class="st26" width="19.7" height="19.7"/>
			<rect x="394.4" y="342.5" class="st26" width="19.7" height="19.7"/>
		</g>
		<rect x="276.3" y="303.1" class="st33" width="19.7" height="19.7"/>
		<rect x="315.7" y="303.1" class="st33" width="19.7" height="19.7"/>
		<rect x="315.7" y="244" class="st33" width="19.7" height="19.7"/>
		<rect x="355" y="303.1" class="st33" width="19.7" height="19.7"/>
		<rect x="217.2" y="519.7" class="st33" width="19.7" height="19.7"/>
		<rect x="414.1" y="519.7" class="st33" width="19.7" height="19.7"/>
	</g>
</g>
<g id="top_lines">
	<rect x="94" y="64" class="st18" width="459" height="136"/>
	<text transform="matrix(1 0 0 1 212.7576 155.0576)" class="st35 st19 st36">QUINOA</text>
	<rect x="615.7" y="542" class="st18" width="369.3" height="72.2"/>
	<text transform="matrix(1 0 0 1 615.6677 591.2823)" class="st19 st20">BACKSTORY</text>
	<rect x="615.7" y="253.5" class="st18" width="360.3" height="72.2"/>
	<text transform="matrix(1 0 0 1 615.6677 302.8017)" class="st19 st20">SUSTAINABILITY</text>
	<rect x="615.7" y="109.5" class="st18" width="360.3" height="72.2"/>
	<text transform="matrix(1 0 0 1 615.6677 158.8017)" class="st19 st20">HEALTHY</text>
	<rect x="615.7" y="397.5" class="st18" width="360.3" height="72.2"/>
	<text transform="matrix(1 0 0 1 615.6677 446.8017)" class="st19 st20">LABORERS</text>
	<rect x="94.5" y="64.5" class="st34" width="917" height="675"/>
	<rect x="616.5" y="172.5" class="st34" width="360" height="54"/>
	<rect x="616.5" y="315.5" class="st34" width="360" height="54"/>
	<rect x="616.5" y="460.5" class="st34" width="360" height="54"/>
	<rect x="615.5" y="604.5" class="st34" width="360" height="54"/>
</g>
</svg>
