<?xml version="1.0" encoding="utf-8"?>
<!-- Generator: Adobe Illustrator 25.2.3, SVG Export Plug-In . SVG Version: 6.00 Build 0)  -->
<svg version="1.1" xmlns="http://www.w3.org/2000/svg" xmlns:xlink="http://www.w3.org/1999/xlink" x="0px" y="0px"
	 viewBox="0 0 1108 791" style="enable-background:new 0 0 1108 791;" xml:space="preserve">
<style type="text/css">
	.st0{fill:#A7B941;}
	.st1{fill:#E0E48D;}
	.st2{fill:#8A370F;}
	.st3{fill:#DA895E;}
	.st4{fill:#63240B;}
	.st5{opacity:0.51;fill:#606060;}
	.st6{fill:none;stroke:#EB1C24;stroke-width:10;stroke-miterlimit:10;}
	.st7{opacity:0.51;fill:#D8D8D8;}
	.st8{opacity:0.53;fill:#3E9B50;}
	.st9{opacity:0.53;fill:#F5C032;}
	.st10{opacity:0.53;fill:#E8222E;}
	.st11{opacity:0.53;fill:#FF8039;}
	.st12{fill:#35BCC0;}
	.st13{fill:#FF4DA6;}
	.st14{fill:#3E9B50;}
	.st15{fill:#FF8039;}
	.st16{fill:#E8222E;}
	.st17{fill:#F5C032;}
	.st18{fill:none;}
	.st19{font-family:'VCROSDMono';}
	.st20{font-size:36px;}
	.st21{fill:#305937;}
	.st22{fill:#133415;}
	.st23{fill:#608D62;}
	.st24{fill:#6F6252;}
	.st25{fill:#32A00D;}
	.st26{fill:#DC0000;}
	.st27{fill:#AE0002;}
	.st28{fill:#FF7A69;}
	.st29{fill:#426024;}
	.st30{fill:#649238;}
	.st31{fill:#D08333;}
	.st32{fill:#EAD1A4;}
	.st33{fill:#FFDE01;}
	.st34{fill:none;stroke:#000000;stroke-miterlimit:10;}
	.st35{stroke:#000000;stroke-width:2;stroke-miterlimit:10;}
	.st36{font-size:63px;}
</style>
<g id="layout">
</g>
<g id="FOOD">
	<rect x="616" y="316" class="st14" width="270" height="54"/>
	<rect x="616" y="172" class="st12" width="270" height="54"/>
	<rect x="616" y="460" class="st13" width="180" height="54"/>
	<rect x="625.5" y="604" class="st18" width="350.5" height="54"/>
	<text transform="matrix(1 0 0 1 625.4978 644.176)" class="st19 st20">ERADICATION</text>
	<polygon class="st32" points="397.5,492.9 382.7,492.9 382.7,478.1 367.8,478.1 367.8,463.2 264,463.2 264,478.1 249.2,478.1 
		249.2,492.9 234.4,492.9 234.4,581.9 249.2,581.9 249.2,596.7 264,596.7 264,611.5 367.8,611.5 367.8,596.7 382.7,596.7 
		382.7,581.9 397.5,581.9 	"/>
	<rect x="278.9" y="507.7" width="14.8" height="29.7"/>
	<rect x="338.2" y="507.7" width="14.8" height="29.7"/>
	<rect x="308.5" y="552.2" width="14.8" height="14.8"/>
	<rect x="293.7" y="611.5" width="14.8" height="44.5"/>
	<rect x="323.4" y="611.5" width="14.8" height="44.5"/>
	<rect x="204.7" y="537.4" width="29.7" height="14.8"/>
	<rect x="397.5" y="537.4" width="29.7" height="14.8"/>
	<rect x="427.2" y="507.7" width="14.8" height="29.7"/>
	<rect x="189.9" y="507.7" width="14.8" height="29.7"/>
	<polygon class="st32" points="397.5,300.1 382.7,300.1 382.7,285.3 367.8,285.3 367.8,270.4 264,270.4 264,285.3 249.2,285.3 
		249.2,300.1 234.4,300.1 234.4,389.1 249.2,389.1 249.2,403.9 264,403.9 264,418.7 367.8,418.7 367.8,403.9 382.7,403.9 
		382.7,389.1 397.5,389.1 	"/>
	<rect x="278.9" y="314.9" width="14.8" height="29.7"/>
	<rect x="338.2" y="314.9" width="14.8" height="29.7"/>
	<rect x="308.5" y="359.4" width="14.8" height="14.8"/>
	<rect x="293.7" y="418.7" width="14.8" height="44.5"/>
	<rect x="323.4" y="418.7" width="14.8" height="44.5"/>
	<rect x="204.7" y="344.6" width="29.7" height="14.8"/>
	<rect x="397.5" y="344.6" width="29.7" height="14.8"/>
	<rect x="427.2" y="314.9" width="14.8" height="29.7"/>
	<rect x="189.9" y="314.9" width="14.8" height="29.7"/>
</g>
<g id="top_lines">
	<rect x="94" y="64" class="st18" width="459" height="136"/>
	<text transform="matrix(1 0 0 1 175.8435 155.0576)" class="st35 st19 st36">AMARANTH</text>
	<rect x="615.7" y="542" class="st18" width="369.3" height="72.2"/>
	<text transform="matrix(1 0 0 1 615.6677 591.2823)" class="st19 st20">BACKSTORY</text>
	<rect x="615.7" y="253.5" class="st18" width="360.3" height="72.2"/>
	<text transform="matrix(1 0 0 1 615.6677 302.8017)" class="st19 st20">SUSTAINABILITY</text>
	<rect x="615.7" y="109.5" class="st18" width="360.3" height="72.2"/>
	<text transform="matrix(1 0 0 1 615.6677 158.8017)" class="st19 st20">HEALTHY</text>
	<rect x="615.7" y="397.5" class="st18" width="360.3" height="72.2"/>
	<text transform="matrix(1 0 0 1 615.6677 446.8017)" class="st19 st20">LABORERS</text>
	<rect x="94.5" y="64.5" class="st34" width="917" height="675"/>
	<rect x="616.5" y="172.5" class="st34" width="360" height="54"/>
	<rect x="616.5" y="315.5" class="st34" width="360" height="54"/>
	<rect x="616.5" y="460.5" class="st34" width="360" height="54"/>
	<rect x="615.5" y="604.5" class="st34" width="360" height="54"/>
</g>
</svg>
