<?xml version="1.0" encoding="utf-8"?>
<!-- Generator: Adobe Illustrator 25.2.3, SVG Export Plug-In . SVG Version: 6.00 Build 0)  -->
<svg version="1.1" xmlns="http://www.w3.org/2000/svg" xmlns:xlink="http://www.w3.org/1999/xlink" x="0px" y="0px"
	 viewBox="0 0 1108 791" style="enable-background:new 0 0 1108 791;" xml:space="preserve">
<style type="text/css">
	.st0{fill:#A7B941;}
	.st1{fill:#E0E48D;}
	.st2{fill:#8A370F;}
	.st3{fill:#DA895E;}
	.st4{fill:#63240B;}
	.st5{opacity:0.51;fill:#606060;}
	.st6{fill:none;stroke:#EB1C24;stroke-width:10;stroke-miterlimit:10;}
	.st7{opacity:0.51;fill:#D8D8D8;}
	.st8{opacity:0.53;fill:#3E9B50;}
	.st9{opacity:0.53;fill:#F5C032;}
	.st10{opacity:0.53;fill:#E8222E;}
	.st11{opacity:0.53;fill:#FF8039;}
	.st12{fill:#35BCC0;}
	.st13{fill:#FF4DA6;}
	.st14{fill:#3E9B50;}
	.st15{fill:#FF8039;}
	.st16{fill:#E8222E;}
	.st17{fill:#F5C032;}
	.st18{fill:none;}
	.st19{font-family:'VCROSDMono';}
	.st20{font-size:36px;}
	.st21{fill:#305937;}
	.st22{fill:#133415;}
	.st23{fill:#608D62;}
	.st24{fill:#6F6252;}
	.st25{fill:#32A00D;}
	.st26{fill:#DC0000;}
	.st27{fill:#AE0002;}
	.st28{fill:#FF7A69;}
	.st29{fill:#426024;}
	.st30{fill:#649238;}
	.st31{fill:#D08333;}
	.st32{fill:#EAD1A4;}
	.st33{fill:#FFDE01;}
	.st34{fill:none;stroke:#000000;stroke-miterlimit:10;}
	.st35{stroke:#000000;stroke-width:2;stroke-miterlimit:10;}
	.st36{font-size:63px;}
</style>
<g id="layout">
</g>
<g id="FOOD">
	<rect x="616" y="316" class="st14" width="180" height="54"/>
	<rect x="616" y="172" class="st12" width="307" height="54"/>
	<rect x="616" y="460" class="st13" width="48" height="54"/>
	<rect x="625.5" y="604" class="st18" width="350.5" height="54"/>
	<text transform="matrix(1 0 0 1 625.4978 644.176)" class="st19 st20">EXPLOITATION</text>
	<g>
		<rect x="286.6" y="591.9" width="16.4" height="65.4"/>
		<rect x="352" y="591.9" width="16.4" height="65.4"/>
		<polygon class="st26" points="466.7,460.3 466.7,427.6 450.3,427.6 450.3,411.2 434,411.2 434,394.8 417.6,394.8 417.6,378.5 
			350.3,378.5 235.8,378.5 235.8,394.8 219.5,394.8 219.5,411.2 203.1,411.2 203.1,427.6 186.7,427.6 186.7,460.3 170.4,460.3 
			170.4,542.1 186.7,542.1 186.7,558.4 203.1,558.4 203.1,574.8 219.5,574.8 219.5,591.2 235.8,591.2 235.8,607.5 417.6,607.5 
			417.6,591.2 434,591.2 434,574.8 450.3,574.8 450.3,558.4 466.7,558.4 466.7,542.1 483,542.1 483,460.3 		"/>
		<rect x="252.2" y="591.4" class="st27" width="49.1" height="16.4"/>
		<rect x="235.8" y="427.6" class="st28" width="16.4" height="16.4"/>
		<polygon class="st28" points="235.8,443.9 219.5,443.9 203.1,443.9 203.1,476.6 203.1,509.4 219.5,509.4 219.5,476.6 235.8,476.6 
					"/>
		<g>
			<rect x="268.5" y="345.8" class="st29" width="16.4" height="16.4"/>
			<rect x="235.8" y="394.8" class="st29" width="16.4" height="16.4"/>
			<rect x="383.1" y="427.6" class="st29" width="16.4" height="16.4"/>
			<rect x="366.7" y="345.8" class="st29" width="16.4" height="16.4"/>
			<rect x="268.5" y="427.6" class="st29" width="16.4" height="16.4"/>
			<rect x="383.8" y="329.2" class="st29" width="16.4" height="16.4"/>
			<rect x="252.2" y="329.4" class="st29" width="16.4" height="16.4"/>
			<rect x="399.4" y="362.1" class="st29" width="16.4" height="16.4"/>
			<polygon class="st29" points="366.7,362.1 334,362.1 284.9,362.1 284.9,378.5 252.2,378.5 252.2,394.8 284.9,394.8 301.3,394.8 
				301.3,411.2 284.9,411.2 284.9,427.6 317.6,427.6 317.6,411.2 334,411.2 350.3,411.2 350.3,427.6 366.7,427.6 383.1,427.6 
				383.1,411.2 366.7,411.2 366.7,394.8 399.4,394.8 399.4,378.5 366.7,378.5 			"/>
		</g>
		<polygon class="st30" points="334,329.4 334,345.8 317.6,345.8 317.6,362.1 317.6,378.5 334,378.5 334,362.1 350.3,362.1 
			350.3,345.8 350.3,329.4 		"/>
		<rect x="301.3" y="378.5" class="st30" width="16.4" height="16.4"/>
		<polygon class="st27" points="482.6,525.7 482.6,508.8 466.2,508.8 466.2,525.7 450.3,525.7 450.3,542.1 434,542.1 434,574.8 
			417.6,574.8 417.6,558.4 401.2,558.4 401.2,574.8 384.9,574.8 384.9,591.2 352.2,591.2 352.2,607.5 384.9,607.5 401.2,607.5 
			417.6,607.5 417.6,591.2 434,591.2 434,576 450.8,576 450.8,558.4 466.7,558.4 466.7,542.1 483,542.1 483,525.7 		"/>
		<g>
			<rect x="253.9" y="493.8" width="49.1" height="16.4"/>
		</g>
		<rect x="319.3" y="542.8" width="16.4" height="16.4"/>
		<rect x="352" y="493.8" width="49.1" height="16.4"/>
		<rect x="482.9" y="493.8" width="16.4" height="16.4"/>
		<rect x="499.3" y="510.1" width="16.4" height="16.4"/>
		<rect x="515.6" y="526.5" width="16.4" height="16.4"/>
		<rect x="155.7" y="493.8" transform="matrix(-1 -4.491886e-11 4.491886e-11 -1 327.8 1003.8994)" width="16.4" height="16.4"/>
		<rect x="139.4" y="510.1" transform="matrix(-1 -4.480783e-11 4.480783e-11 -1 295.08 1036.6194)" width="16.4" height="16.4"/>
		<rect x="123" y="526.5" transform="matrix(-1 -4.491886e-11 4.491886e-11 -1 262.36 1069.3395)" width="16.4" height="16.4"/>
	</g>
</g>
<g id="top_lines">
	<rect x="94" y="64" class="st18" width="459" height="136"/>
	<text transform="matrix(1 0 0 1 175.8435 155.0576)" class="st35 st19 st36">TOMATOES</text>
	<rect x="615.7" y="542" class="st18" width="369.3" height="72.2"/>
	<text transform="matrix(1 0 0 1 615.6677 591.2823)" class="st19 st20">BACKSTORY</text>
	<rect x="615.7" y="253.5" class="st18" width="360.3" height="72.2"/>
	<text transform="matrix(1 0 0 1 615.6677 302.8017)" class="st19 st20">SUSTAINABILITY</text>
	<rect x="615.7" y="109.5" class="st18" width="360.3" height="72.2"/>
	<text transform="matrix(1 0 0 1 615.6677 158.8017)" class="st19 st20">HEALTHY</text>
	<rect x="615.7" y="397.5" class="st18" width="360.3" height="72.2"/>
	<text transform="matrix(1 0 0 1 615.6677 446.8017)" class="st19 st20">LABORERS</text>
	<rect x="94.5" y="64.5" class="st34" width="917" height="675"/>
	<rect x="616.5" y="172.5" class="st34" width="360" height="54"/>
	<rect x="616.5" y="315.5" class="st34" width="360" height="54"/>
	<rect x="616.5" y="460.5" class="st34" width="360" height="54"/>
	<rect x="615.5" y="604.5" class="st34" width="360" height="54"/>
</g>
</svg>
