<?xml version="1.0" encoding="utf-8"?>
<!-- Generator: Adobe Illustrator 25.2.3, SVG Export Plug-In . SVG Version: 6.00 Build 0)  -->
<svg version="1.1" xmlns="http://www.w3.org/2000/svg" xmlns:xlink="http://www.w3.org/1999/xlink" x="0px" y="0px"
	 viewBox="0 0 1108 791" style="enable-background:new 0 0 1108 791;" xml:space="preserve">
<style type="text/css">
	.st0{fill:#A7B941;}
	.st1{fill:#E0E48D;}
	.st2{fill:#8A370F;}
	.st3{fill:#DA895E;}
	.st4{fill:#63240B;}
	.st5{opacity:0.51;fill:#606060;}
	.st6{fill:none;stroke:#EB1C24;stroke-width:10;stroke-miterlimit:10;}
	.st7{opacity:0.51;fill:#D8D8D8;}
	.st8{opacity:0.53;fill:#3E9B50;}
	.st9{opacity:0.53;fill:#F5C032;}
	.st10{opacity:0.53;fill:#E8222E;}
	.st11{opacity:0.53;fill:#FF8039;}
	.st12{fill:#35BCC0;}
	.st13{fill:#FF4DA6;}
	.st14{fill:#3E9B50;}
	.st15{fill:#FF8039;}
	.st16{fill:#E8222E;}
	.st17{fill:#F5C032;}
	.st18{fill:none;}
	.st19{font-family:'VCROSDMono';}
	.st20{font-size:36px;}
	.st21{fill:#305937;}
	.st22{fill:#133415;}
	.st23{fill:#608D62;}
	.st24{fill:#6F6252;}
	.st25{fill:#32A00D;}
	.st26{fill:#DC0000;}
	.st27{fill:#AE0002;}
	.st28{fill:#FF7A69;}
	.st29{fill:#426024;}
	.st30{fill:#649238;}
	.st31{fill:#D08333;}
	.st32{fill:#EAD1A4;}
	.st33{fill:#FFDE01;}
	.st34{stroke:#000000;stroke-width:2;stroke-miterlimit:10;}
	.st35{font-size:63px;}
	.st36{fill:none;stroke:#000000;stroke-miterlimit:10;}
</style>
<g id="layout">
</g>
<g id="FOOD">
	<g>
		<g>
			<polygon class="st0" points="433.6,397 433.6,378.4 433.6,359.8 415,359.8 415,322.7 396.4,322.7 396.4,266.9 377.9,266.9 
				377.9,248.3 359.3,248.3 359.3,229.7 284.9,229.7 284.9,248.3 266.4,248.3 266.4,266.9 247.8,266.9 247.8,322.7 229.2,322.7 
				229.2,359.8 210.6,359.8 210.6,378.4 210.6,397 192,397 192,508.5 210.6,508.5 210.6,527 229.2,527 229.2,545.6 247.8,545.6 
				247.8,564.2 303.5,564.2 340.7,564.2 396.4,564.2 396.4,545.6 415,545.6 415,527 433.6,527 433.6,508.5 452.2,508.5 452.2,397 
							"/>
			<polygon class="st1" points="415,415.6 415,378.4 396.4,378.4 396.4,341.2 377.9,341.2 377.9,285.5 359.3,285.5 359.3,266.9 
				340.7,266.9 340.7,248.3 303.5,248.3 303.5,266.9 284.9,266.9 284.9,285.5 266.4,285.5 266.4,341.2 247.8,341.2 247.8,378.4 
				229.2,378.4 229.2,415.6 210.6,415.6 210.6,489.9 229.2,489.9 229.2,508.5 247.8,508.5 247.8,527 266.4,527 266.4,545.6 
				284.9,545.6 303.5,545.6 340.7,545.6 359.3,545.6 377.9,545.6 377.9,527 396.4,527 396.4,508.5 415,508.5 415,489.9 433.6,489.9 
				433.6,415.6 			"/>
			<polygon class="st2" points="377.9,434.1 359.3,434.1 359.3,415.6 340.7,415.6 340.7,397 303.5,397 303.5,415.6 284.9,415.6 
				284.9,434.1 266.4,434.1 266.4,471.3 284.9,471.3 284.9,489.9 303.5,489.9 303.5,508.5 340.7,508.5 340.7,489.9 359.3,489.9 
				359.3,471.3 377.9,471.3 			"/>
			<rect x="322.1" y="415.6" class="st3" width="18.6" height="18.6"/>
		</g>
		<rect x="284.9" y="452.7" class="st4" width="18.6" height="18.6"/>
		<rect x="303.5" y="471.3" class="st4" width="18.6" height="18.6"/>
		<g>
			<rect x="284.9" y="341.2" width="18.6" height="37.2"/>
		</g>
		<g>
			<rect x="340.7" y="341.2" width="18.6" height="37.2"/>
		</g>
		<rect x="284.9" y="564.2" width="18.6" height="92.9"/>
		<rect x="340.7" y="564.2" width="18.6" height="92.9"/>
		<rect x="452.2" y="415.6" width="18.6" height="18.6"/>
		<rect x="470.8" y="434.1" width="18.6" height="74.3"/>
		<rect x="173.5" y="415.6" transform="matrix(-1 -4.483448e-11 4.483448e-11 -1 365.5007 849.6993)" width="18.6" height="18.6"/>
		<rect x="154.9" y="434.1" transform="matrix(-1 -4.493262e-11 4.493262e-11 -1 328.3375 942.6074)" width="18.6" height="74.3"/>
	</g>
	<rect x="616" y="316" class="st14" width="180" height="54"/>
	<rect x="616" y="172" class="st12" width="270" height="54"/>
	<rect x="616" y="460" class="st13" width="90" height="54"/>
	<rect x="625.5" y="604" class="st18" width="350.5" height="54"/>
	<text transform="matrix(1 0 0 1 625.4979 644.176)" class="st19 st20">NEGLECT</text>
</g>
<g id="top_lines">
	<rect x="94" y="64" class="st18" width="459" height="136"/>
	<text transform="matrix(1 0 0 1 194.301 155.0576)" class="st34 st19 st35">AVOCADO</text>
	<rect x="615.7" y="542" class="st18" width="369.3" height="72.2"/>
	<text transform="matrix(1 0 0 1 615.6678 591.2823)" class="st19 st20">BACKSTORY</text>
	<rect x="615.7" y="253.5" class="st18" width="360.3" height="72.2"/>
	<text transform="matrix(1 0 0 1 615.6678 302.8017)" class="st19 st20">SUSTAINABILITY</text>
	<rect x="615.7" y="109.5" class="st18" width="360.3" height="72.2"/>
	<text transform="matrix(1 0 0 1 615.6678 158.8017)" class="st19 st20">HEALTHY</text>
	<rect x="615.7" y="397.5" class="st18" width="360.3" height="72.2"/>
	<text transform="matrix(1 0 0 1 615.6678 446.8017)" class="st19 st20">LABORERS</text>
	<rect x="94.5" y="64.5" class="st36" width="917" height="675"/>
	<rect x="616.5" y="172.5" class="st36" width="360" height="54"/>
	<rect x="616.5" y="315.5" class="st36" width="360" height="54"/>
	<rect x="616.5" y="460.5" class="st36" width="360" height="54"/>
	<rect x="615.5" y="604.5" class="st36" width="360" height="54"/>
</g>
</svg>
