<?xml version="1.0" encoding="utf-8"?>
<!-- Generator: Adobe Illustrator 25.2.3, SVG Export Plug-In . SVG Version: 6.00 Build 0)  -->
<svg version="1.1" xmlns="http://www.w3.org/2000/svg" xmlns:xlink="http://www.w3.org/1999/xlink" x="0px" y="0px"
	 viewBox="0 0 600 425" style="enable-background:new 0 0 600 425;" xml:space="preserve">
<style type="text/css">
	.st0{display:none;}
	.st1{fill:#07464F;}
	.st2{fill:#066486;}
	.st3{fill:#35BCC0;}
	.st4{fill:#0A8F9F;}
	.st5{fill:#A53D29;}
	.st6{fill:#DF5530;}
	.st7{fill:#F37F3C;}
	.st8{fill:#EF5F31;}
	.st9{fill:#A5225B;}
	.st10{fill:#C12774;}
	.st11{fill:#EC549C;}
	.st12{fill:#D3286F;}
	.st13{fill:#7F7A74;}
	.st14{fill:#C0B5AA;}
	.st15{fill:#E4DED5;}
	.st16{fill:#524B44;}
	.st17{fill:#616262;}
	.st18{fill:#BFBFB9;}
	.st19{fill:#3A3B3A;}
	.st20{fill:#312C29;}
	.st21{fill:#171717;}
	.st22{fill:#E1E1DF;}
	.st23{fill:#1A3A22;}
	.st24{fill:#1C5D32;}
	.st25{fill:#3E9B4F;}
	.st26{fill:#27773E;}
	.st27{fill:#422C6E;}
	.st28{fill:#523D82;}
	.st29{fill:#735EA5;}
	.st30{fill:#624393;}
	.st31{fill:#6C1215;}
	.st32{fill:#9F2026;}
	.st33{fill:#E72730;}
	.st34{fill:#CF242F;}
	.st35{fill:#D27633;}
	.st36{fill:#DD8A35;}
	.st37{fill:#F4C034;}
	.st38{fill:#F3A734;}
	.st39{fill:#706353;}
	.st40{fill:#010101;}
	.st41{fill:#33A14D;}
	.st42{stroke:#000000;stroke-width:2;stroke-miterlimit:10;}
</style>
<g id="Layer_2" class="st0">
	
		<image style="display:inline;overflow:visible;opacity:0.55;" width="760" height="742" xlink:href="../../../../../Screen Shot 2021-05-31 at 11.50.37 AM.png"  transform="matrix(0.8942 0 0 0.8942 -115.5 -196.5)">
	</image>
</g>
<g id="Layer_1">
</g>
<g id="Layer_3">
	<g>
		<g>
			<polygon class="st39" points="183.5,201 178.8,201 178.8,196.5 174.2,196.5 174.2,191.9 99.6,191.9 99.6,196.5 95,196.5 95,201 
				90.3,201 90.3,223.8 95,223.8 95,228.4 99.6,228.4 99.6,233 174.2,233 174.2,228.4 178.8,228.4 178.8,223.8 183.5,223.8 			"/>
			<rect x="160.2" y="201" class="st40" width="4.7" height="9.1"/>
			<rect x="174.2" y="201" class="st40" width="4.7" height="9.1"/>
			<rect x="164.8" y="214.7" class="st40" width="9.3" height="4.6"/>
			<rect x="108.9" y="233" class="st40" width="4.7" height="18.2"/>
			<rect x="160.2" y="233" class="st40" width="4.7" height="18.2"/>
			<rect x="150.9" y="233" class="st40" width="4.7" height="18.2"/>
			<rect x="118.3" y="233" class="st40" width="4.7" height="18.2"/>
			<rect x="160.2" y="169.1" class="st40" width="4.7" height="22.8"/>
			<polygon class="st41" points="150.8,155.2 153.7,158.4 150.5,161.2 147.5,158.1 137.8,166.7 146.6,176.3 149.9,173.4 
				152.8,176.6 156.1,173.7 159,176.9 168.8,168.2 165.8,165 169.1,162.1 166.1,158.9 169.4,156.1 160.5,146.5 			"/>
		</g>
		<g>
			<path class="st42" d="M468.2,201v-4.8h4.8v-4.8h4.8v-9.6H473v-4.8h-19.1v4.8h-4.8v4.8h-9.6v-9.6h4.8v-4.8h4.8v-4.8h28.7v4.8h4.8
				v4.8h4.8v19.1h-4.8v4.8h-4.8v4.8H473v4.8h-4.8v4.8h-9.6v-9.6h4.8V201H468.2z M468.2,224.9v9.6h-9.6v-9.6H468.2z"/>
		</g>
		<polygon class="st21" points="363,370 363,365.5 349.5,365.5 349.5,361 309,361 309,23.5 318,23.5 318,19 313.5,19 313.5,14.5 
			309,14.5 309,10 291,10 291,14.5 286.5,14.5 286.5,19 282,19 282,23.5 291,23.5 291,361 255,361 255,365.5 241.5,365.5 241.5,370 
			237,370 237,374.5 232.5,374.5 232.5,401.5 232.5,406 232.5,410.5 237,410.5 237,415 363,415 363,410.5 367.5,410.5 367.5,406 
			367.5,401.5 367.5,374.5 367.5,370 		"/>
		<path class="st21" d="M201,253v-4.5h-18H93H75v4.5h-4.5v4.5v18H75V289h4.5v4.5H84v4.5v4.5h4.5v4.5h18v4.5h4.5v4.5h18h18h18v-4.5
			h4.5V307h18v-4.5h4.5V298v-4.5h4.5V289h4.5v-13.5h4.5v-18V253H201z M192,275.5v4.5h-4.5v4.5H183v4.5h-4.5v4.5v4.5h-9v4.5h-63V298
			h-9v-4.5V289H93v-4.5h-4.5V280H84v-4.5v-18h4.5h99h4.5V275.5z"/>
		<polygon class="st21" points="142.5,77.5 133.5,77.5 133.5,82 129,82 129,86.5 133.5,86.5 133.5,91 142.5,91 142.5,86.5 147,86.5 
			322.5,86.5 327,86.5 327,77.5 		"/>
		<path class="st21" d="M394.5,253v4.5v18h4.5V289h4.5v4.5h4.5v4.5v4.5h4.5v4.5h18v4.5h4.5v4.5h18h18h18v-4.5h4.5V307h18v-4.5h4.5
			V298v-4.5h4.5V289h4.5v-13.5h4.5v-18V253H525v-4.5h-18h-90h-18v4.5H394.5z M408,257.5h4.5h99h4.5v18v4.5h-4.5v4.5H507v4.5h-4.5
			v4.5v4.5h-9v4.5h-63V298h-9v-4.5V289H417v-4.5h-4.5V280H408v-4.5V257.5z"/>
		<polygon class="st21" points="466.5,82 466.5,77.5 457.5,77.5 273,77.5 273,86.5 277.5,86.5 453,86.5 457.5,86.5 457.5,91 
			466.5,91 466.5,86.5 471,86.5 471,82 		"/>
		<path class="st21" d="M345,73v-4.5h-4.5V64H336v-4.5h-4.5V55H327v-4.5h-4.5V46H318v-4.5h-4.5h-27H282V46h-4.5v4.5H273V55h-4.5v4.5
			H264V64h-4.5v4.5H255V73h-4.5v4.5h99V73H345z"/>
		<g>
			<rect x="79.5" y="217" class="st18" width="4.5" height="9"/>
			<rect x="88.5" y="185.5" class="st18" width="4.5" height="18"/>
			<rect x="93" y="167.5" class="st18" width="4.5" height="18"/>
			<rect x="102" y="140.5" class="st18" width="4.5" height="18"/>
			<rect x="97.5" y="158.5" class="st18" width="4.5" height="9"/>
			<rect x="106.5" y="122.5" class="st18" width="4.5" height="18"/>
			<rect x="111" y="113.5" class="st18" width="4.5" height="9"/>
			<rect x="124.5" y="91" class="st18" width="4.5" height="4.5"/>
			<rect x="115.5" y="104.5" class="st18" width="4.5" height="9"/>
			<rect x="120" y="95.5" class="st18" width="4.5" height="9"/>
			<rect x="129" y="86.5" class="st18" width="4.5" height="4.5"/>
			<rect x="84" y="203.5" class="st18" width="4.5" height="13.5"/>
			<rect x="192" y="217" class="st18" width="4.5" height="9"/>
			<rect x="183" y="185.5" class="st18" width="4.5" height="18"/>
			<rect x="178.5" y="167.5" class="st18" width="4.5" height="18"/>
			<rect x="169.5" y="140.5" class="st18" width="4.5" height="18"/>
			<rect x="174" y="158.5" class="st18" width="4.5" height="9"/>
			<rect x="165" y="122.5" class="st18" width="4.5" height="18"/>
			<rect x="160.5" y="113.5" class="st18" width="4.5" height="9"/>
			<rect x="147" y="91" class="st18" width="4.5" height="4.5"/>
			<rect x="156" y="104.5" class="st18" width="4.5" height="9"/>
			<rect x="151.5" y="95.5" class="st18" width="4.5" height="9"/>
			<rect x="142.5" y="86.5" class="st18" width="4.5" height="4.5"/>
			<rect x="133.5" y="82" class="st18" width="9" height="4.5"/>
			<rect x="187.5" y="203.5" class="st18" width="4.5" height="13.5"/>
			<rect x="75" y="226" class="st18" width="4.5" height="13.5"/>
			<rect x="70.5" y="239.5" class="st18" width="4.5" height="13.5"/>
			<rect x="201" y="239.5" class="st18" width="4.5" height="13.5"/>
			<rect x="196.5" y="226" class="st18" width="4.5" height="13.5"/>
		</g>
		<g>
			<rect x="403.5" y="217" class="st18" width="4.5" height="9"/>
			<rect x="412.5" y="185.5" class="st18" width="4.5" height="18"/>
			<rect x="417" y="167.5" class="st18" width="4.5" height="18"/>
			<rect x="426" y="140.5" class="st18" width="4.5" height="18"/>
			<rect x="421.5" y="158.5" class="st18" width="4.5" height="9"/>
			<rect x="430.5" y="122.5" class="st18" width="4.5" height="18"/>
			<rect x="435" y="113.5" class="st18" width="4.5" height="9"/>
			<rect x="448.5" y="91" class="st18" width="4.5" height="4.5"/>
			<rect x="439.5" y="104.5" class="st18" width="4.5" height="9"/>
			<rect x="444" y="95.5" class="st18" width="4.5" height="9"/>
			<rect x="453" y="86.5" class="st18" width="4.5" height="4.5"/>
			<rect x="408" y="203.5" class="st18" width="4.5" height="13.5"/>
			<rect x="516" y="217" class="st18" width="4.5" height="9"/>
			<rect x="507" y="185.5" class="st18" width="4.5" height="18"/>
			<rect x="502.5" y="167.5" class="st18" width="4.5" height="18"/>
			<rect x="493.5" y="140.5" class="st18" width="4.5" height="18"/>
			<rect x="498" y="158.5" class="st18" width="4.5" height="9"/>
			<rect x="489" y="122.5" class="st18" width="4.5" height="18"/>
			<rect x="484.5" y="113.5" class="st18" width="4.5" height="9"/>
			<rect x="471" y="91" class="st18" width="4.5" height="4.5"/>
			<rect x="480" y="104.5" class="st18" width="4.5" height="9"/>
			<rect x="475.5" y="95.5" class="st18" width="4.5" height="9"/>
			<rect x="466.5" y="86.5" class="st18" width="4.5" height="4.5"/>
			<rect x="457.5" y="82" class="st18" width="9" height="4.5"/>
			<rect x="511.5" y="203.5" class="st18" width="4.5" height="13.5"/>
			<rect x="399" y="226" class="st18" width="4.5" height="13.5"/>
			<rect x="394.5" y="239.5" class="st18" width="4.5" height="13.5"/>
			<rect x="525" y="239.5" class="st18" width="4.5" height="13.5"/>
			<rect x="520.5" y="226" class="st18" width="4.5" height="13.5"/>
		</g>
	</g>
</g>
</svg>
