<?xml version="1.0" encoding="utf-8"?>
<!-- Generator: Adobe Illustrator 25.2.3, SVG Export Plug-In . SVG Version: 6.00 Build 0)  -->
<svg version="1.1" xmlns="http://www.w3.org/2000/svg" xmlns:xlink="http://www.w3.org/1999/xlink" x="0px" y="0px"
	 viewBox="0 0 1200 500" style="enable-background:new 0 0 1200 500;" xml:space="preserve">
<style type="text/css">
	.st0{display:none;}
	.st1{fill:#706353;}
	.st2{fill:#010101;}
	.st3{fill:#33A14D;}
	.st4{fill:#35BCC0;}
	.st5{fill:#EC549C;}
	.st6{fill:#3E9B4F;}
	.st7{fill:#171717;}
	.st8{fill:#07464F;}
	.st9{fill:#066486;}
	.st10{fill:#0A8F9F;}
	.st11{fill:#A53D29;}
	.st12{fill:#DF5530;}
	.st13{fill:#F37F3C;}
	.st14{fill:#EF5F31;}
	.st15{fill:#A5225B;}
	.st16{fill:#C12774;}
	.st17{fill:#D3286F;}
	.st18{fill:#7F7A74;}
	.st19{fill:#C0B5AA;}
	.st20{fill:#E4DED5;}
	.st21{fill:#524B44;}
	.st22{fill:#616262;}
	.st23{fill:#BFBFB9;}
	.st24{fill:#3A3B3A;}
	.st25{fill:#312C29;}
	.st26{fill:#E1E1DF;}
	.st27{fill:#1A3A22;}
	.st28{fill:#1C5D32;}
	.st29{fill:#27773E;}
	.st30{fill:#422C6E;}
	.st31{fill:#523D82;}
	.st32{fill:#735EA5;}
	.st33{fill:#624393;}
	.st34{fill:#6C1215;}
	.st35{fill:#9F2026;}
	.st36{fill:#E72730;}
	.st37{fill:#CF242F;}
	.st38{fill:#D27633;}
	.st39{fill:#DD8A35;}
	.st40{fill:#F4C034;}
	.st41{fill:#F3A734;}
</style>
<g id="Layer_2" class="st0">
	
		<image style="display:inline;overflow:visible;opacity:0.55;" width="760" height="742" xlink:href="../../../../../Screen Shot 2021-05-31 at 11.50.37 AM.png"  transform="matrix(0.8942 0 0 0.8942 184.5 -121.5)">
	</image>
</g>
<g id="Layer_1">
	<g>
		<polygon class="st1" points="428,249.5 423.3,249.5 423.3,245 418.7,245 418.7,240.4 344.1,240.4 344.1,245 339.5,245 
			339.5,249.5 334.8,249.5 334.8,272.3 339.5,272.3 339.5,276.9 344.1,276.9 344.1,281.5 418.7,281.5 418.7,276.9 423.3,276.9 
			423.3,272.3 428,272.3 		"/>
		<rect x="404.7" y="249.5" class="st2" width="4.7" height="9.1"/>
		<rect x="418.7" y="249.5" class="st2" width="4.7" height="9.1"/>
		<rect x="409.3" y="263.2" class="st2" width="9.3" height="4.6"/>
		<rect x="353.4" y="281.5" class="st2" width="4.7" height="18.2"/>
		<rect x="404.7" y="281.5" class="st2" width="4.7" height="18.2"/>
		<rect x="395.4" y="281.5" class="st2" width="4.7" height="18.2"/>
		<rect x="362.8" y="281.5" class="st2" width="4.7" height="18.2"/>
		<rect x="404.7" y="217.6" class="st2" width="4.7" height="22.8"/>
		<polygon class="st3" points="395.3,203.7 398.2,206.9 395,209.7 392,206.6 382.3,215.2 391.1,224.8 394.4,221.9 397.3,225.1 
			400.6,222.2 403.5,225.4 413.3,216.7 410.3,213.5 413.6,210.6 410.6,207.4 413.9,204.6 405,195 		"/>
	</g>
	<rect x="661.5" y="265.5" class="st4" width="94.5" height="31.5"/>
	<rect x="661.5" y="234" class="st5" width="94.5" height="31.5"/>
	<rect x="661.5" y="202.5" class="st6" width="94.5" height="31.5"/>
</g>
<g id="Layer_3">
	<polygon class="st7" points="607.5,418.5 607.5,414 594,414 594,409.5 553.5,409.5 553.5,72 562.5,72 562.5,67.5 558,67.5 558,63 
		553.5,63 553.5,58.5 535.5,58.5 535.5,63 531,63 531,67.5 526.5,67.5 526.5,72 535.5,72 535.5,409.5 499.5,409.5 499.5,414 
		486,414 486,418.5 481.5,418.5 481.5,423 477,423 477,450 477,454.5 477,459 481.5,459 481.5,463.5 607.5,463.5 607.5,459 612,459 
		612,454.5 612,450 612,423 612,418.5 	"/>
	<rect x="-299.4" y="185.1" class="st8" width="64" height="64"/>
	<rect x="-235.3" y="185.1" class="st9" width="64" height="64"/>
	<rect x="-171.3" y="185.1" class="st4" width="64" height="64"/>
	<rect x="-363.4" y="185.1" class="st10" width="64" height="64"/>
	<rect x="-299.4" y="270.4" class="st11" width="64" height="64"/>
	<rect x="-235.3" y="270.4" class="st12" width="64" height="64"/>
	<rect x="-171.3" y="270.4" class="st13" width="64" height="64"/>
	<rect x="-363.4" y="270.4" class="st14" width="64" height="64"/>
	<rect x="-299.4" y="355.8" class="st15" width="64" height="64"/>
	<rect x="-235.3" y="355.8" class="st16" width="64" height="64"/>
	<rect x="-171.3" y="355.8" class="st5" width="64" height="64"/>
	<rect x="-363.4" y="355.8" class="st17" width="64" height="64"/>
	<rect x="-299.4" y="-113.8" class="st18" width="64" height="64"/>
	<rect x="-235.3" y="-113.8" class="st19" width="64" height="64"/>
	<rect x="-171.3" y="-113.8" class="st20" width="64" height="64"/>
	<rect x="-363.4" y="-113.8" class="st21" width="64" height="64"/>
	<rect x="-299.4" y="-28.4" class="st22" width="64" height="64"/>
	<rect x="-235.3" y="-28.4" class="st23" width="64" height="64"/>
	<rect x="-363.4" y="-28.4" class="st24" width="64" height="64"/>
	<rect x="-427.5" y="-113.8" class="st25" width="64" height="64"/>
	<rect x="-427.5" y="-28.4" class="st7" width="64" height="64"/>
	<rect x="-171.3" y="-28.4" class="st26" width="64" height="64"/>
	<rect x="-299.1" y="441.2" class="st27" width="64" height="64"/>
	<rect x="-235" y="441.2" class="st28" width="64" height="64"/>
	<rect x="-171" y="441.2" class="st6" width="64" height="64"/>
	<rect x="-363.1" y="441.2" class="st29" width="64" height="64"/>
	<rect x="-299.1" y="526.6" class="st30" width="64" height="64"/>
	<rect x="-235" y="526.6" class="st31" width="64" height="64"/>
	<rect x="-171" y="526.6" class="st32" width="64" height="64"/>
	<rect x="-363.1" y="526.6" class="st33" width="64" height="64"/>
	<rect x="-299.1" y="612" class="st34" width="64" height="64"/>
	<rect x="-235" y="612" class="st35" width="64" height="64"/>
	<rect x="-171" y="612" class="st36" width="64" height="64"/>
	<rect x="-363.1" y="612" class="st37" width="64" height="64"/>
	<rect x="-299.1" y="697.4" class="st38" width="64" height="64"/>
	<rect x="-235" y="697.4" class="st39" width="64" height="64"/>
	<rect x="-171" y="697.4" class="st40" width="64" height="64"/>
	<rect x="-363.1" y="697.4" class="st41" width="64" height="64"/>
	<path class="st7" d="M445.5,301.5V297h-18h-90h-18v4.5H315v4.5v18h4.5v13.5h4.5v4.5h4.5v4.5v4.5h4.5v4.5h18v4.5h4.5v4.5h18h18h18
		V360h4.5v-4.5h18V351h4.5v-4.5V342h4.5v-4.5h4.5V324h4.5v-18v-4.5H445.5z M436.5,324v4.5H432v4.5h-4.5v4.5H423v4.5v4.5h-9v4.5h-63
		v-4.5h-9V342v-4.5h-4.5V333H333v-4.5h-4.5V324v-18h4.5h99h4.5V324z"/>
	<polygon class="st7" points="387,126 378,126 378,130.5 373.5,130.5 373.5,135 378,135 378,139.5 387,139.5 387,135 391.5,135 
		567,135 571.5,135 571.5,126 	"/>
	<path class="st7" d="M639,301.5v4.5v18h4.5v13.5h4.5v4.5h4.5v4.5v4.5h4.5v4.5h18v4.5h4.5v4.5h18h18h18V360h4.5v-4.5h18V351h4.5
		v-4.5V342h4.5v-4.5h4.5V324h4.5v-18v-4.5h-4.5V297h-18h-90h-18v4.5H639z M652.5,306h4.5h99h4.5v18v4.5H756v4.5h-4.5v4.5H747v4.5
		v4.5h-9v4.5h-63v-4.5h-9V342v-4.5h-4.5V333H657v-4.5h-4.5V324V306z"/>
	<polygon class="st7" points="711,130.5 711,126 702,126 517.5,126 517.5,135 522,135 697.5,135 702,135 702,139.5 711,139.5 
		711,135 715.5,135 715.5,130.5 	"/>
	<path class="st7" d="M589.5,121.5V117H585v-4.5h-4.5V108H576v-4.5h-4.5V99H567v-4.5h-4.5V90H558h-27h-4.5v4.5H522V99h-4.5v4.5H513
		v4.5h-4.5v4.5H504v4.5h-4.5v4.5H495v4.5h99v-4.5H589.5z"/>
	<g>
		<rect x="324" y="265.5" class="st23" width="4.5" height="9"/>
		<rect x="333" y="234" class="st23" width="4.5" height="18"/>
		<rect x="337.5" y="216" class="st23" width="4.5" height="18"/>
		<rect x="346.5" y="189" class="st23" width="4.5" height="18"/>
		<rect x="342" y="207" class="st23" width="4.5" height="9"/>
		<rect x="351" y="171" class="st23" width="4.5" height="18"/>
		<rect x="355.5" y="162" class="st23" width="4.5" height="9"/>
		<rect x="369" y="139.5" class="st23" width="4.5" height="4.5"/>
		<rect x="360" y="153" class="st23" width="4.5" height="9"/>
		<rect x="364.5" y="144" class="st23" width="4.5" height="9"/>
		<rect x="373.5" y="135" class="st23" width="4.5" height="4.5"/>
		<rect x="328.5" y="252" class="st23" width="4.5" height="13.5"/>
		<rect x="436.5" y="265.5" class="st23" width="4.5" height="9"/>
		<rect x="427.5" y="234" class="st23" width="4.5" height="18"/>
		<rect x="423" y="216" class="st23" width="4.5" height="18"/>
		<rect x="414" y="189" class="st23" width="4.5" height="18"/>
		<rect x="418.5" y="207" class="st23" width="4.5" height="9"/>
		<rect x="409.5" y="171" class="st23" width="4.5" height="18"/>
		<rect x="405" y="162" class="st23" width="4.5" height="9"/>
		<rect x="391.5" y="139.5" class="st23" width="4.5" height="4.5"/>
		<rect x="400.5" y="153" class="st23" width="4.5" height="9"/>
		<rect x="396" y="144" class="st23" width="4.5" height="9"/>
		<rect x="387" y="135" class="st23" width="4.5" height="4.5"/>
		<rect x="378" y="130.5" class="st23" width="9" height="4.5"/>
		<rect x="432" y="252" class="st23" width="4.5" height="13.5"/>
		<rect x="319.5" y="274.5" class="st23" width="4.5" height="13.5"/>
		<rect x="315" y="288" class="st23" width="4.5" height="13.5"/>
		<rect x="445.5" y="288" class="st23" width="4.5" height="13.5"/>
		<rect x="441" y="274.5" class="st23" width="4.5" height="13.5"/>
	</g>
	<g>
		<rect x="648" y="265.5" class="st23" width="4.5" height="9"/>
		<rect x="657" y="234" class="st23" width="4.5" height="18"/>
		<rect x="661.5" y="216" class="st23" width="4.5" height="18"/>
		<rect x="670.5" y="189" class="st23" width="4.5" height="18"/>
		<rect x="666" y="207" class="st23" width="4.5" height="9"/>
		<rect x="675" y="171" class="st23" width="4.5" height="18"/>
		<rect x="679.5" y="162" class="st23" width="4.5" height="9"/>
		<rect x="693" y="139.5" class="st23" width="4.5" height="4.5"/>
		<rect x="684" y="153" class="st23" width="4.5" height="9"/>
		<rect x="688.5" y="144" class="st23" width="4.5" height="9"/>
		<rect x="697.5" y="135" class="st23" width="4.5" height="4.5"/>
		<rect x="652.5" y="252" class="st23" width="4.5" height="13.5"/>
		<rect x="760.5" y="265.5" class="st23" width="4.5" height="9"/>
		<rect x="751.5" y="234" class="st23" width="4.5" height="18"/>
		<rect x="747" y="216" class="st23" width="4.5" height="18"/>
		<rect x="738" y="189" class="st23" width="4.5" height="18"/>
		<rect x="742.5" y="207" class="st23" width="4.5" height="9"/>
		<rect x="733.5" y="171" class="st23" width="4.5" height="18"/>
		<rect x="729" y="162" class="st23" width="4.5" height="9"/>
		<rect x="715.5" y="139.5" class="st23" width="4.5" height="4.5"/>
		<rect x="724.5" y="153" class="st23" width="4.5" height="9"/>
		<rect x="720" y="144" class="st23" width="4.5" height="9"/>
		<rect x="711" y="135" class="st23" width="4.5" height="4.5"/>
		<rect x="702" y="130.5" class="st23" width="9" height="4.5"/>
		<rect x="756" y="252" class="st23" width="4.5" height="13.5"/>
		<rect x="643.5" y="274.5" class="st23" width="4.5" height="13.5"/>
		<rect x="639" y="288" class="st23" width="4.5" height="13.5"/>
		<rect x="769.5" y="288" class="st23" width="4.5" height="13.5"/>
		<rect x="765" y="274.5" class="st23" width="4.5" height="13.5"/>
	</g>
</g>
</svg>
