<?xml version="1.0" encoding="utf-8"?>
<!-- Generator: Adobe Illustrator 25.2.3, SVG Export Plug-In . SVG Version: 6.00 Build 0)  -->
<svg version="1.1" xmlns="http://www.w3.org/2000/svg" xmlns:xlink="http://www.w3.org/1999/xlink" x="0px" y="0px"
	 viewBox="0 0 1200 500" style="enable-background:new 0 0 1200 500;" xml:space="preserve">
<style type="text/css">
	.st0{display:none;}
	.st1{fill:#07464F;}
	.st2{fill:#066486;}
	.st3{fill:#35BCC0;}
	.st4{fill:#0A8F9F;}
	.st5{fill:#A53D29;}
	.st6{fill:#DF5530;}
	.st7{fill:#F37F3C;}
	.st8{fill:#EF5F31;}
	.st9{fill:#A5225B;}
	.st10{fill:#C12774;}
	.st11{fill:#EC549C;}
	.st12{fill:#D3286F;}
	.st13{fill:#7F7A74;}
	.st14{fill:#C0B5AA;}
	.st15{fill:#E4DED5;}
	.st16{fill:#524B44;}
	.st17{fill:#616262;}
	.st18{fill:#BFBFB9;}
	.st19{fill:#3A3B3A;}
	.st20{fill:#312C29;}
	.st21{fill:#171717;}
	.st22{fill:#E1E1DF;}
	.st23{fill:#1A3A22;}
	.st24{fill:#1C5D32;}
	.st25{fill:#3E9B4F;}
	.st26{fill:#27773E;}
	.st27{fill:#422C6E;}
	.st28{fill:#523D82;}
	.st29{fill:#735EA5;}
	.st30{fill:#624393;}
	.st31{fill:#6C1215;}
	.st32{fill:#9F2026;}
	.st33{fill:#E72730;}
	.st34{fill:#CF242F;}
	.st35{fill:#D27633;}
	.st36{fill:#DD8A35;}
	.st37{fill:#F4C034;}
	.st38{fill:#F3A734;}
	.st39{fill:#706353;}
	.st40{fill:#010101;}
	.st41{fill:#33A14D;}
	.st42{stroke:#000000;stroke-width:2;stroke-miterlimit:10;}
</style>
<g id="Layer_2" class="st0">
	
		<image style="display:inline;overflow:visible;opacity:0.55;" width="760" height="742" xlink:href="../../../../../Screen Shot 2021-05-31 at 11.50.37 AM.png"  transform="matrix(0.8942 0 0 0.8942 184.5 -121.5)">
	</image>
</g>
<g id="Layer_1">
</g>
<g id="Layer_3">
	<rect x="-299.4" y="185.1" class="st1" width="64" height="64"/>
	<rect x="-235.3" y="185.1" class="st2" width="64" height="64"/>
	<rect x="-171.3" y="185.1" class="st3" width="64" height="64"/>
	<rect x="-363.4" y="185.1" class="st4" width="64" height="64"/>
	<rect x="-299.4" y="270.4" class="st5" width="64" height="64"/>
	<rect x="-235.3" y="270.4" class="st6" width="64" height="64"/>
	<rect x="-171.3" y="270.4" class="st7" width="64" height="64"/>
	<rect x="-363.4" y="270.4" class="st8" width="64" height="64"/>
	<rect x="-299.4" y="355.8" class="st9" width="64" height="64"/>
	<rect x="-235.3" y="355.8" class="st10" width="64" height="64"/>
	<rect x="-171.3" y="355.8" class="st11" width="64" height="64"/>
	<rect x="-363.4" y="355.8" class="st12" width="64" height="64"/>
	<rect x="-299.4" y="-113.8" class="st13" width="64" height="64"/>
	<rect x="-235.3" y="-113.8" class="st14" width="64" height="64"/>
	<rect x="-171.3" y="-113.8" class="st15" width="64" height="64"/>
	<rect x="-363.4" y="-113.8" class="st16" width="64" height="64"/>
	<rect x="-299.4" y="-28.4" class="st17" width="64" height="64"/>
	<rect x="-235.3" y="-28.4" class="st18" width="64" height="64"/>
	<rect x="-363.4" y="-28.4" class="st19" width="64" height="64"/>
	<rect x="-427.5" y="-113.8" class="st20" width="64" height="64"/>
	<rect x="-427.5" y="-28.4" class="st21" width="64" height="64"/>
	<rect x="-171.3" y="-28.4" class="st22" width="64" height="64"/>
	<rect x="-299.1" y="441.2" class="st23" width="64" height="64"/>
	<rect x="-235" y="441.2" class="st24" width="64" height="64"/>
	<rect x="-171" y="441.2" class="st25" width="64" height="64"/>
	<rect x="-363.1" y="441.2" class="st26" width="64" height="64"/>
	<rect x="-299.1" y="526.6" class="st27" width="64" height="64"/>
	<rect x="-235" y="526.6" class="st28" width="64" height="64"/>
	<rect x="-171" y="526.6" class="st29" width="64" height="64"/>
	<rect x="-363.1" y="526.6" class="st30" width="64" height="64"/>
	<rect x="-299.1" y="612" class="st31" width="64" height="64"/>
	<rect x="-235" y="612" class="st32" width="64" height="64"/>
	<rect x="-171" y="612" class="st33" width="64" height="64"/>
	<rect x="-363.1" y="612" class="st34" width="64" height="64"/>
	<rect x="-299.1" y="697.4" class="st35" width="64" height="64"/>
	<rect x="-235" y="697.4" class="st36" width="64" height="64"/>
	<rect x="-171" y="697.4" class="st37" width="64" height="64"/>
	<rect x="-363.1" y="697.4" class="st38" width="64" height="64"/>
	<g>
		<g>
			<polygon class="st39" points="483.5,249.5 478.8,249.5 478.8,245 474.2,245 474.2,240.4 399.6,240.4 399.6,245 395,245 
				395,249.5 390.3,249.5 390.3,272.3 395,272.3 395,276.9 399.6,276.9 399.6,281.5 474.2,281.5 474.2,276.9 478.8,276.9 
				478.8,272.3 483.5,272.3 			"/>
			<rect x="460.2" y="249.5" class="st40" width="4.7" height="9.1"/>
			<rect x="474.2" y="249.5" class="st40" width="4.7" height="9.1"/>
			<rect x="464.8" y="263.2" class="st40" width="9.3" height="4.6"/>
			<rect x="408.9" y="281.5" class="st40" width="4.7" height="18.2"/>
			<rect x="460.2" y="281.5" class="st40" width="4.7" height="18.2"/>
			<rect x="450.9" y="281.5" class="st40" width="4.7" height="18.2"/>
			<rect x="418.3" y="281.5" class="st40" width="4.7" height="18.2"/>
			<rect x="460.2" y="217.6" class="st40" width="4.7" height="22.8"/>
			<polygon class="st41" points="450.8,203.7 453.7,206.9 450.5,209.7 447.5,206.6 437.8,215.2 446.6,224.8 449.9,221.9 
				452.8,225.1 456.1,222.2 459,225.4 468.8,216.7 465.8,213.5 469.1,210.6 466.1,207.4 469.4,204.6 460.5,195 			"/>
		</g>
		<g>
			<path class="st42" d="M768.2,249.5v-4.8h4.8v-4.8h4.8v-9.6H773v-4.8h-19.1v4.8h-4.8v4.8h-9.6v-9.6h4.8v-4.8h4.8V216h28.7v4.8h4.8
				v4.8h4.8v19.1h-4.8v4.8h-4.8v4.8H773v4.8h-4.8v4.8h-9.6v-9.6h4.8v-4.8H768.2z M768.2,273.4v9.6h-9.6v-9.6H768.2z"/>
		</g>
		<polygon class="st21" points="663,418.5 663,414 649.5,414 649.5,409.5 609,409.5 609,72 618,72 618,67.5 613.5,67.5 613.5,63 
			609,63 609,58.5 591,58.5 591,63 586.5,63 586.5,67.5 582,67.5 582,72 591,72 591,409.5 555,409.5 555,414 541.5,414 541.5,418.5 
			537,418.5 537,423 532.5,423 532.5,450 532.5,454.5 532.5,459 537,459 537,463.5 663,463.5 663,459 667.5,459 667.5,454.5 
			667.5,450 667.5,423 667.5,418.5 		"/>
		<path class="st21" d="M501,301.5V297h-18h-90h-18v4.5h-4.5v4.5v18h4.5v13.5h4.5v4.5h4.5v4.5v4.5h4.5v4.5h18v4.5h4.5v4.5h18h18h18
			V360h4.5v-4.5h18V351h4.5v-4.5V342h4.5v-4.5h4.5V324h4.5v-18v-4.5H501z M492,324v4.5h-4.5v4.5H483v4.5h-4.5v4.5v4.5h-9v4.5h-63
			v-4.5h-9V342v-4.5H393V333h-4.5v-4.5H384V324v-18h4.5h99h4.5V324z"/>
		<polygon class="st21" points="442.5,126 433.5,126 433.5,130.5 429,130.5 429,135 433.5,135 433.5,139.5 442.5,139.5 442.5,135 
			447,135 622.5,135 627,135 627,126 		"/>
		<path class="st21" d="M694.5,301.5v4.5v18h4.5v13.5h4.5v4.5h4.5v4.5v4.5h4.5v4.5h18v4.5h4.5v4.5h18h18h18V360h4.5v-4.5h18V351h4.5
			v-4.5V342h4.5v-4.5h4.5V324h4.5v-18v-4.5H825V297h-18h-90h-18v4.5H694.5z M708,306h4.5h99h4.5v18v4.5h-4.5v4.5H807v4.5h-4.5v4.5
			v4.5h-9v4.5h-63v-4.5h-9V342v-4.5H717V333h-4.5v-4.5H708V324V306z"/>
		<polygon class="st21" points="766.5,130.5 766.5,126 757.5,126 573,126 573,135 577.5,135 753,135 757.5,135 757.5,139.5 
			766.5,139.5 766.5,135 771,135 771,130.5 		"/>
		<path class="st21" d="M645,121.5V117h-4.5v-4.5H636V108h-4.5v-4.5H627V99h-4.5v-4.5H618V90h-4.5h-27H582v4.5h-4.5V99H573v4.5h-4.5
			v4.5H564v4.5h-4.5v4.5H555v4.5h-4.5v4.5h99v-4.5H645z"/>
		<g>
			<rect x="379.5" y="265.5" class="st18" width="4.5" height="9"/>
			<rect x="388.5" y="234" class="st18" width="4.5" height="18"/>
			<rect x="393" y="216" class="st18" width="4.5" height="18"/>
			<rect x="402" y="189" class="st18" width="4.5" height="18"/>
			<rect x="397.5" y="207" class="st18" width="4.5" height="9"/>
			<rect x="406.5" y="171" class="st18" width="4.5" height="18"/>
			<rect x="411" y="162" class="st18" width="4.5" height="9"/>
			<rect x="424.5" y="139.5" class="st18" width="4.5" height="4.5"/>
			<rect x="415.5" y="153" class="st18" width="4.5" height="9"/>
			<rect x="420" y="144" class="st18" width="4.5" height="9"/>
			<rect x="429" y="135" class="st18" width="4.5" height="4.5"/>
			<rect x="384" y="252" class="st18" width="4.5" height="13.5"/>
			<rect x="492" y="265.5" class="st18" width="4.5" height="9"/>
			<rect x="483" y="234" class="st18" width="4.5" height="18"/>
			<rect x="478.5" y="216" class="st18" width="4.5" height="18"/>
			<rect x="469.5" y="189" class="st18" width="4.5" height="18"/>
			<rect x="474" y="207" class="st18" width="4.5" height="9"/>
			<rect x="465" y="171" class="st18" width="4.5" height="18"/>
			<rect x="460.5" y="162" class="st18" width="4.5" height="9"/>
			<rect x="447" y="139.5" class="st18" width="4.5" height="4.5"/>
			<rect x="456" y="153" class="st18" width="4.5" height="9"/>
			<rect x="451.5" y="144" class="st18" width="4.5" height="9"/>
			<rect x="442.5" y="135" class="st18" width="4.5" height="4.5"/>
			<rect x="433.5" y="130.5" class="st18" width="9" height="4.5"/>
			<rect x="487.5" y="252" class="st18" width="4.5" height="13.5"/>
			<rect x="375" y="274.5" class="st18" width="4.5" height="13.5"/>
			<rect x="370.5" y="288" class="st18" width="4.5" height="13.5"/>
			<rect x="501" y="288" class="st18" width="4.5" height="13.5"/>
			<rect x="496.5" y="274.5" class="st18" width="4.5" height="13.5"/>
		</g>
		<g>
			<rect x="703.5" y="265.5" class="st18" width="4.5" height="9"/>
			<rect x="712.5" y="234" class="st18" width="4.5" height="18"/>
			<rect x="717" y="216" class="st18" width="4.5" height="18"/>
			<rect x="726" y="189" class="st18" width="4.5" height="18"/>
			<rect x="721.5" y="207" class="st18" width="4.5" height="9"/>
			<rect x="730.5" y="171" class="st18" width="4.5" height="18"/>
			<rect x="735" y="162" class="st18" width="4.5" height="9"/>
			<rect x="748.5" y="139.5" class="st18" width="4.5" height="4.5"/>
			<rect x="739.5" y="153" class="st18" width="4.5" height="9"/>
			<rect x="744" y="144" class="st18" width="4.5" height="9"/>
			<rect x="753" y="135" class="st18" width="4.5" height="4.5"/>
			<rect x="708" y="252" class="st18" width="4.5" height="13.5"/>
			<rect x="816" y="265.5" class="st18" width="4.5" height="9"/>
			<rect x="807" y="234" class="st18" width="4.5" height="18"/>
			<rect x="802.5" y="216" class="st18" width="4.5" height="18"/>
			<rect x="793.5" y="189" class="st18" width="4.5" height="18"/>
			<rect x="798" y="207" class="st18" width="4.5" height="9"/>
			<rect x="789" y="171" class="st18" width="4.5" height="18"/>
			<rect x="784.5" y="162" class="st18" width="4.5" height="9"/>
			<rect x="771" y="139.5" class="st18" width="4.5" height="4.5"/>
			<rect x="780" y="153" class="st18" width="4.5" height="9"/>
			<rect x="775.5" y="144" class="st18" width="4.5" height="9"/>
			<rect x="766.5" y="135" class="st18" width="4.5" height="4.5"/>
			<rect x="757.5" y="130.5" class="st18" width="9" height="4.5"/>
			<rect x="811.5" y="252" class="st18" width="4.5" height="13.5"/>
			<rect x="699" y="274.5" class="st18" width="4.5" height="13.5"/>
			<rect x="694.5" y="288" class="st18" width="4.5" height="13.5"/>
			<rect x="825" y="288" class="st18" width="4.5" height="13.5"/>
			<rect x="820.5" y="274.5" class="st18" width="4.5" height="13.5"/>
		</g>
	</g>
</g>
</svg>
