<?xml version="1.0" encoding="utf-8"?>
<!-- Generator: Adobe Illustrator 25.2.3, SVG Export Plug-In . SVG Version: 6.00 Build 0)  -->
<svg version="1.1" id="Layer_1" xmlns="http://www.w3.org/2000/svg" xmlns:xlink="http://www.w3.org/1999/xlink" x="0px" y="0px"
	 viewBox="0 0 910 625" style="enable-background:new 0 0 910 625;" xml:space="preserve">
<style type="text/css">
	.st0{fill:#3E9B4F;}
	.st1{fill:#1C5D32;}
	.st2{fill:#010101;}
	.st3{fill:#A5225B;}
	.st4{fill:#EC549C;}
	.st5{fill:#D27633;}
	.st6{fill:#F4C034;}
	.st7{fill:#E4DED5;}
	.st8{fill:none;}
	.st9{font-family:'VCROSDMono';}
	.st10{font-size:12.6268px;}
	.st11{fill:#A53D29;}
	.st12{fill:#EF5F31;}
	.st13{fill:#F37F3C;}
	.st14{fill:#6C1215;}
	.st15{fill:#E72730;}
	.st16{fill:#0A8F9F;}
	.st17{fill:#35BCC0;}
	.st18{fill:#07464F;}
</style>
<g>
	<rect x="41.1" y="109" class="st0" width="137.3" height="4.7"/>
	<rect x="45.9" y="104.2" class="st0" width="127.8" height="4.7"/>
	<polygon class="st1" points="69.5,56.9 69.5,61.6 64.8,61.6 64.8,66.4 60.1,66.4 60.1,71.1 55.3,71.1 55.3,66.4 50.6,66.4 
		50.6,61.6 45.9,61.6 45.9,56.9 41.1,56.9 41.1,61.6 41.1,66.4 41.1,71.1 41.1,75.8 45.9,75.8 45.9,80.6 50.6,80.6 50.6,85.3 
		55.3,85.3 55.3,104.2 60.1,104.2 60.1,85.3 64.8,85.3 64.8,80.6 69.5,80.6 69.5,75.8 74.3,75.8 74.3,71.1 74.3,66.4 74.3,61.6 
		74.3,56.9 	"/>
	<polygon class="st1" points="121.6,56.9 121.6,61.6 116.9,61.6 116.9,66.4 112.2,66.4 112.2,71.1 107.4,71.1 107.4,66.4 
		102.7,66.4 102.7,61.6 97.9,61.6 97.9,56.9 93.2,56.9 93.2,61.6 93.2,66.4 93.2,71.1 93.2,75.8 97.9,75.8 97.9,80.6 102.7,80.6 
		102.7,85.3 107.4,85.3 107.4,104.2 112.2,104.2 112.2,85.3 116.9,85.3 116.9,80.6 121.6,80.6 121.6,75.8 126.4,75.8 126.4,71.1 
		126.4,66.4 126.4,61.6 126.4,56.9 	"/>
	<polygon class="st1" points="173.7,56.9 173.7,61.6 169,61.6 169,66.4 164.2,66.4 164.2,71.1 159.5,71.1 159.5,66.4 154.8,66.4 
		154.8,61.6 150,61.6 150,56.9 145.3,56.9 145.3,61.6 145.3,66.4 145.3,71.1 145.3,75.8 150,75.8 150,80.6 154.8,80.6 154.8,85.3 
		159.5,85.3 159.5,104.2 164.2,104.2 164.2,85.3 169,85.3 169,80.6 173.7,80.6 173.7,75.8 178.4,75.8 178.4,71.1 178.4,66.4 
		178.4,61.6 178.4,56.9 	"/>
	<g>
		<path class="st2" d="M70.9,129.5h-1.2v-6.2h0.6v-0.6h0.6v-0.6h0.6v-0.6h0.6v-0.6h1.2v0.6H74v0.6h0.6v0.6h0.6v0.6h0.6v6.2h-1.2
			v-2.5h-3.7V129.5z M70.9,125.8h3.7V124H74v-0.6h-0.6v-0.6h-1.2v0.6h-0.6v0.6h-0.6V125.8z"/>
		<path class="st2" d="M82.7,122.1h0.6v1.2H82v-0.6h-0.6v-0.6H79v0.6h-0.6v4.9H79v0.6h2.5v-0.6H82v-1.8h-1.8v-1.2h3.1v3.7h-0.6v0.6
			H82v0.6h-3.7v-0.6h-0.6v-0.6h-0.6v-6.2h0.6v-0.6h0.6v-0.6H82v0.6h0.6V122.1z"/>
		<path class="st2" d="M86.4,125.8h-0.6v3.7h-1.2v-8.6h4.9v0.6h0.6v0.6h0.6v2.5h-0.6v0.6h-0.6v0.6h-1.2v0.6h0.6v0.6h0.6v0.6h0.6v0.6
			h0.6v1.2h-1.2v-0.6h-0.6v-0.6h-0.6v-0.6h-0.6v-0.6H87v-0.6h-0.6V125.8z M85.7,122.1v2.5h3.1V124h0.6v-1.2h-0.6v-0.6H85.7z"/>
		<path class="st2" d="M93.1,129.5v-1.2h1.2v-6.2h-1.2v-1.2h3.7v1.2h-1.2v6.2h1.2v1.2H93.1z"/>
		<path class="st2" d="M101.2,128.3h2.5v-0.6h0.6v-0.6h1.2v1.2h-0.6v0.6h-0.6v0.6h-3.7v-0.6h-0.6v-0.6h-0.6v-6.2h0.6v-0.6h0.6v-0.6
			h3.7v0.6h0.6v0.6h0.6v1.2h-1.2v-0.6h-0.6v-0.6h-2.5v0.6h-0.6v4.9h0.6V128.3z"/>
		<path class="st2" d="M107.3,128.3h-0.6v-7.4h1.2v6.8h0.6v0.6h2.5v-0.6h0.6v-6.8h1.2v7.4h-0.6v0.6h-0.6v0.6h-3.7v-0.6h-0.6V128.3z"
			/>
		<path class="st2" d="M114.1,129.5v-8.6h1.2v7.4h4.9v1.2H114.1z"/>
		<path class="st2" d="M124,122.1h-2.5v-1.2h6.2v1.2h-2.5v7.4H124V122.1z"/>
		<path class="st2" d="M129.5,128.3h-0.6v-7.4h1.2v6.8h0.6v0.6h2.5v-0.6h0.6v-6.8h1.2v7.4h-0.6v0.6h-0.6v0.6h-3.7v-0.6h-0.6V128.3z"
			/>
		<path class="st2" d="M138.1,125.8h-0.6v3.7h-1.2v-8.6h4.9v0.6h0.6v0.6h0.6v2.5h-0.6v0.6h-0.6v0.6H140v0.6h0.6v0.6h0.6v0.6h0.6v0.6
			h0.6v1.2h-1.2v-0.6h-0.6v-0.6H140v-0.6h-0.6v-0.6h-0.6v-0.6h-0.6V125.8z M137.5,122.1v2.5h3.1V124h0.6v-1.2h-0.6v-0.6H137.5z"/>
		<path class="st2" d="M149.9,120.9v1.2h-4.9v2.5h3.7v1.2h-3.7v2.5h4.9v1.2h-6.2v-8.6H149.9z"/>
	</g>
	<g>
		<polygon class="st3" points="107.4,525.7 159.5,525.7 159.5,539.9 159.5,544.6 164.2,544.6 164.2,539.9 164.2,525.7 164.2,520.9 
			107.4,520.9 107.4,431 102.7,431 102.7,520.9 83.7,520.9 83.7,525.7 102.7,525.7 		"/>
		<polygon class="st3" points="83.7,525.7 79,525.7 79,539.9 79,544.6 83.7,544.6 83.7,539.9 		"/>
		<rect x="107.4" y="426.2" class="st3" width="4.7" height="4.7"/>
		<polygon class="st3" points="211.6,426.2 211.6,421.5 192.6,421.5 187.9,421.5 112.2,421.5 112.2,426.2 187.9,426.2 187.9,544.6 
			192.6,544.6 192.6,449.9 211.6,449.9 216.3,449.9 216.3,426.2 		"/>
		<rect x="83.7" y="544.6" class="st3" width="4.7" height="4.7"/>
		<polygon class="st3" points="169,544.6 164.2,544.6 164.2,549.3 88.5,549.3 88.5,554.1 169,554.1 183.2,554.1 183.2,549.3 
			169,549.3 		"/>
		<rect x="183.2" y="544.6" class="st3" width="4.7" height="4.7"/>
	</g>
	<rect x="140.6" y="449.9" class="st4" width="4.7" height="4.7"/>
	<rect x="145.3" y="454.6" class="st4" width="4.7" height="4.7"/>
	<rect x="150" y="449.9" class="st4" width="4.7" height="4.7"/>
	<rect x="154.8" y="445.2" class="st4" width="4.7" height="4.7"/>
	<rect x="121.6" y="478.3" class="st4" width="52.1" height="4.7"/>
	<rect x="121.6" y="487.8" class="st4" width="52.1" height="4.7"/>
	<rect x="121.6" y="497.2" class="st4" width="52.1" height="4.7"/>
	<g>
		<path class="st2" d="M102.7,574.7v-8.6h1.2v7.4h4.9v1.2H102.7z"/>
		<path class="st2" d="M116.3,566.1v1.2h-4.9v2.5h3.7v1.2h-3.7v2.5h4.9v1.2h-6.2v-8.6H116.3z"/>
		<path class="st2" d="M123.1,567.3h0.6v1.2h-1.2v-0.6h-0.6v-0.6h-2.5v0.6h-0.6v4.9h0.6v0.6h2.5v-0.6h0.6V571h-1.8v-1.2h3.1v3.7
			h-0.6v0.6h-0.6v0.6h-3.7v-0.6h-0.6v-0.6h-0.6v-6.2h0.6v-0.6h0.6v-0.6h3.7v0.6h0.6V567.3z"/>
		<path class="st2" d="M126.2,574.7v-1.2h1.2v-6.2h-1.2v-1.2h3.7v1.2h-1.2v6.2h1.2v1.2H126.2z"/>
		<path class="st2" d="M137.9,567.3h0.6v1.2h-1.2v-0.6h-0.6v-0.6h-2.5v0.6h-0.6v1.2h0.6v0.6h3.1v0.6h0.6v0.6h0.6v2.5h-0.6v0.6h-0.6
			v0.6h-3.7v-0.6h-0.6v-0.6h-0.6v-1.2h1.2v0.6h0.6v0.6h2.5v-0.6h0.6v-1.2h-0.6V571h-3.1v-0.6h-0.6v-0.6h-0.6v-2.5h0.6v-0.6h0.6v-0.6
			h3.7v0.6h0.6V567.3z"/>
		<path class="st2" d="M139.7,574.7v-8.6h1.2v7.4h4.9v1.2H139.7z"/>
		<path class="st2" d="M148.4,574.7h-1.2v-6.2h0.6v-0.6h0.6v-0.6h0.6v-0.6h0.6v-0.6h1.2v0.6h0.6v0.6h0.6v0.6h0.6v0.6h0.6v6.2h-1.2
			v-2.5h-3.7V574.7z M148.4,571h3.7v-1.8h-0.6v-0.6h-0.6v-0.6h-1.2v0.6H149v0.6h-0.6V571z"/>
		<path class="st2" d="M157,567.3h-2.5v-1.2h6.2v1.2h-2.5v7.4H157V567.3z"/>
		<path class="st2" d="M163.2,574.7v-1.2h1.2v-6.2h-1.2v-1.2h3.7v1.2h-1.2v6.2h1.2v1.2H163.2z"/>
		<path class="st2" d="M170.6,566.7v-0.6h3.7v0.6h0.6v0.6h0.6v6.2h-0.6v0.6h-0.6v0.6h-3.7v-0.6h-0.6v-0.6h-0.6v-6.2h0.6v-0.6H170.6z
			 M173.6,567.3h-2.5v0.6h-0.6v4.9h0.6v0.6h2.5v-0.6h0.6v-4.9h-0.6V567.3z"/>
		<path class="st2" d="M178,569.8v4.9h-1.2v-8.6h1.2v1.8h0.6v0.6h0.6v0.6h0.6v0.6h0.6v0.6h0.6v0.6h0.6v-4.9h1.2v8.6h-1.2v-1.8H181
			v-0.6h-0.6v-0.6h-0.6V571h-0.6v-0.6h-0.6v-0.6H178z"/>
	</g>
	<rect x="159.5" y="440.4" class="st4" width="4.7" height="4.7"/>
	<path class="st5" d="M410.5,511.5v-4.7h-4.7V502H401v-4.7h-4.7v-4.7h-4.7v-4.7V483h4.7v-28.4h-4.7v-4.7h-4.7v-4.7v-4.7H382v-4.7
		h-9.5h-4.7V431h-4.7h-4.7h-4.7h-4.7v4.7h-4.7h-9.5v4.7H330v4.7v4.7h-4.7v4.7h-4.7V483h4.7v4.7h4.7v4.7v4.7h4.7v4.7h9.5h4.7v4.7h4.7
		h4.7h4.7h4.7V502h4.7h9.5v4.7h4.7h4.7v4.7h4.7v4.7h4.7v4.7h4.7v4.7h4.7h4.7v-4.7v-4.7v-4.7H410.5z M377.3,487.8v4.7h-4.7v4.7h-9.5
		h-4.7h-4.7h-9.5v-4.7h-4.7v-4.7h-4.7V483H330v-28.4h4.7v-4.7h4.7v-4.7h4.7v-4.7h9.5h4.7h4.7h9.5v4.7h4.7v4.7h4.7v4.7h4.7V483H382
		v4.7H377.3z"/>
	<rect x="339.4" y="464.1" class="st6" width="37.9" height="4.7"/>
	<rect x="348.9" y="449.9" class="st6" width="18.9" height="4.7"/>
	<rect x="348.9" y="478.3" class="st6" width="18.9" height="4.7"/>
	<g>
		<path class="st2" d="M338.5,537.7h-0.6v3.7h-1.2v-8.6h4.9v0.6h0.6v0.6h0.6v2.5h-0.6v0.6h-0.6v0.6h-1.2v0.6h0.6v0.6h0.6v0.6h0.6
			v0.6h0.6v1.2h-1.2v-0.6h-0.6v-0.6h-0.6v-0.6h-0.6V539h-0.6v-0.6h-0.6V537.7z M337.9,534v2.5h3.1v-0.6h0.6v-1.2h-0.6V534H337.9z"/>
		<path class="st2" d="M350.2,532.8v1.2h-4.9v2.5h3.7v1.2h-3.7v2.5h4.9v1.2H344v-8.6H350.2z"/>
		<path class="st2" d="M357,534h0.6v1.2h-1.2v-0.6h-0.6V534h-2.5v0.6h-0.6v1.2h0.6v0.6h3.1v0.6h0.6v0.6h0.6v2.5H357v0.6h-0.6v0.6
			h-3.7v-0.6H352v-0.6h-0.6V539h1.2v0.6h0.6v0.6h2.5v-0.6h0.6v-1.2h-0.6v-0.6h-3.1v-0.6H352v-0.6h-0.6V534h0.6v-0.6h0.6v-0.6h3.7
			v0.6h0.6V534z"/>
		<path class="st2" d="M365,532.8v1.2H360v2.5h3.7v1.2H360v2.5h4.9v1.2h-6.2v-8.6H365z"/>
		<path class="st2" d="M367.4,541.4h-1.2v-6.2h0.6v-0.6h0.6V534h0.6v-0.6h0.6v-0.6h1.2v0.6h0.6v0.6h0.6v0.6h0.6v0.6h0.6v6.2h-1.2
			V539h-3.7V541.4z M367.4,537.7h3.7v-1.8h-0.6v-0.6h-0.6v-0.6h-1.2v0.6h-0.6v0.6h-0.6V537.7z"/>
		<path class="st2" d="M375.5,537.7h-0.6v3.7h-1.2v-8.6h4.9v0.6h0.6v0.6h0.6v2.5h-0.6v0.6h-0.6v0.6h-1.2v0.6h0.6v0.6h0.6v0.6h0.6
			v0.6h0.6v1.2h-1.2v-0.6h-0.6v-0.6h-0.6v-0.6h-0.6V539h-0.6v-0.6h-0.6V537.7z M374.8,534v2.5h3.1v-0.6h0.6v-1.2h-0.6V534H374.8z"/>
		<path class="st2" d="M382.9,540.2h2.5v-0.6h0.6V539h1.2v1.2h-0.6v0.6h-0.6v0.6h-3.7v-0.6h-0.6v-0.6H381V534h0.6v-0.6h0.6v-0.6h3.7
			v0.6h0.6v0.6h0.6v1.2h-1.2v-0.6h-0.6V534h-2.5v0.6h-0.6v4.9h0.6V540.2z"/>
		<path class="st2" d="M389.6,537.7v3.7h-1.2v-8.6h1.2v3.7h3.7v-3.7h1.2v8.6h-1.2v-3.7H389.6z"/>
	</g>
	<rect x="41.1" y="156.3" class="st7" width="4.7" height="445.1"/>
	<rect x="41.1" y="601.4" class="st7" width="203.6" height="4.7"/>
	<rect x="244.7" y="388.3" class="st7" width="4.7" height="217.8"/>
	<rect x="83.7" y="388.3" class="st7" width="165.7" height="4.7"/>
	<rect x="83.7" y="345.7" class="st7" width="322" height="4.7"/>
	<rect x="438.9" y="345.7" class="st7" width="4.7" height="217.8"/>
	<rect x="386.8" y="345.7" class="st7" width="56.8" height="4.7"/>
	<rect x="287.3" y="388.3" class="st7" width="4.7" height="169.9"/>
	<rect x="287.3" y="558.8" class="st7" width="151.5" height="4.7"/>
	<rect x="249.5" y="601.4" class="st7" width="236.8" height="4.7"/>
	<rect x="481.9" y="302.9" class="st7" width="4.7" height="298.3"/>
	<rect x="126.4" y="303.1" class="st7" width="402.5" height="4.7"/>
	<rect x="126.4" y="198.9" class="st7" width="4.7" height="108.9"/>
	<rect x="83.7" y="156.3" class="st7" width="142.1" height="4.7"/>
	<rect x="169" y="156.3" class="st7" width="151.5" height="4.7"/>
	<rect x="287.3" y="388.3" class="st7" width="108.9" height="4.7"/>
	<rect x="136" y="281.5" class="st8" width="388.1" height="14.2"/>
	<text transform="matrix(1 0 0 1 300.4468 293.2217)" class="st2 st9 st10">COMMERCE</text>
	<rect x="169" y="198.9" class="st7" width="359.9" height="4.7"/>
	<rect x="211.6" y="156.3" class="st7" width="397.7" height="4.7"/>
	<rect x="524.3" y="198.9" class="st7" width="4.5" height="364.7"/>
	<rect x="486.2" y="601.4" class="st7" width="127.8" height="4.7"/>
	<rect x="566.8" y="198.9" class="st7" width="4.7" height="403"/>
	<rect x="173.3" y="156.1" class="st7" width="359.9" height="4.7"/>
	<rect x="216" y="113.5" class="st7" width="440.4" height="4.7"/>
	<rect x="206.9" y="70.6" class="st7" width="137.5" height="4.7"/>
	<rect x="206.9" y="113.2" class="st7" width="326.6" height="4.7"/>
	<rect x="206.9" y="28" class="st7" width="137.5" height="4.7"/>
	<rect x="216.2" y="28.5" class="st7" width="487.8" height="4.2"/>
	<rect x="207.4" y="113.7" class="st7" width="4.7" height="42.6"/>
	<rect x="207.4" y="33.2" class="st7" width="4.7" height="42.6"/>
	<rect x="742.3" y="246.3" class="st7" width="4.4" height="359.6"/>
	<g>
		<path class="st2" d="M637.7,586.4h-1.2v-8.6h1.2v1.2h0.6v0.6h0.6v0.6h1.2v-0.6h0.6V579h0.6v-1.2h1.2v8.6h-1.2v-5.5h-0.6v0.6h-0.6
			v1.2h-1.2v-1.2h-0.6v-0.6h-0.6V586.4z"/>
		<path class="st2" d="M650,577.8v1.2h-4.9v2.5h3.7v1.2h-3.7v2.5h4.9v1.2h-6.2v-8.6H650z"/>
		<path class="st2" d="M651.2,586.4v-8.6h4.9v0.6h0.6v0.6h0.6v6.2h-0.6v0.6h-0.6v0.6H651.2z M652.5,579v6.2h3.1v-0.6h0.6v-4.9h-0.6
			V579H652.5z"/>
		<path class="st2" d="M659.9,586.4v-1.2h1.2V579h-1.2v-1.2h3.7v1.2h-1.2v6.2h1.2v1.2H659.9z"/>
		<path class="st2" d="M667.3,586.4H666v-6.2h0.6v-0.6h0.6V579h0.6v-0.6h0.6v-0.6h1.2v0.6h0.6v0.6h0.6v0.6h0.6v0.6h0.6v6.2H671v-2.5
			h-3.7V586.4z M667.3,582.7h3.7v-1.8h-0.6v-0.6h-0.6v-0.6h-1.2v0.6h-0.6v0.6h-0.6V582.7z"/>
	</g>
	<rect x="528.8" y="601.4" class="st7" width="340.9" height="4.7"/>
	<rect x="202.1" y="232.1" class="st11" width="4.7" height="14.2"/>
	<polygon class="st11" points="202.1,232.1 202.1,213.1 197.4,213.1 197.4,217.9 192.6,217.9 192.6,222.6 187.9,222.6 187.9,227.3 
		183.2,227.3 183.2,232.1 178.4,232.1 178.4,236.8 173.7,236.8 173.7,241.6 178.4,241.6 178.4,246.3 183.2,246.3 183.2,251 
		187.9,251 187.9,255.8 192.6,255.8 192.6,260.5 197.4,260.5 197.4,265.2 202.1,265.2 202.1,246.3 230.5,246.3 230.5,241.6 
		230.5,236.8 230.5,232.1 	"/>
	<polygon class="st12" points="244.7,279.4 244.7,298.4 249.5,298.4 249.5,293.6 254.2,293.6 254.2,288.9 258.9,288.9 258.9,284.2 
		263.7,284.2 263.7,279.4 268.4,279.4 268.4,274.7 273.1,274.7 273.1,270 268.4,270 268.4,265.2 263.7,265.2 263.7,260.5 
		258.9,260.5 258.9,255.8 254.2,255.8 254.2,251 249.5,251 249.5,246.3 244.7,246.3 244.7,265.2 216.3,265.2 216.3,270 216.3,274.7 
		216.3,279.4 	"/>
	<polygon class="st12" points="424.7,265.2 424.7,246.3 419.9,246.3 419.9,251 415.2,251 415.2,255.8 410.5,255.8 410.5,260.5 
		405.7,260.5 405.7,265.2 401,265.2 401,270 396.3,270 396.3,274.7 401,274.7 401,279.4 405.7,279.4 405.7,284.2 410.5,284.2 
		410.5,288.9 415.2,288.9 415.2,293.6 419.9,293.6 419.9,298.4 424.7,298.4 424.7,279.4 453.1,279.4 453.1,274.7 453.1,270 
		453.1,265.2 	"/>
	<polygon class="st11" points="467.3,246.3 467.3,265.2 472,265.2 472,260.5 476.7,260.5 476.7,255.8 481.5,255.8 481.5,251 
		486.2,251 486.2,246.3 491,246.3 491,241.6 495.7,241.6 495.7,236.8 491,236.8 491,232.1 486.2,232.1 486.2,227.3 481.5,227.3 
		481.5,222.6 476.7,222.6 476.7,217.9 472,217.9 472,213.1 467.3,213.1 467.3,232.1 438.9,232.1 438.9,236.8 438.9,241.6 
		438.9,246.3 	"/>
	<g>
		<rect x="325.2" y="222.6" class="st13" width="14.2" height="4.7"/>
		<rect x="325.2" y="260.5" class="st13" width="14.2" height="4.7"/>
		<polygon class="st13" points="315.8,232.1 315.8,236.8 311,236.8 311,241.6 315.8,241.6 315.8,246.3 311,246.3 311,251 315.8,251 
			315.8,255.8 320.5,255.8 320.5,251 334.7,251 334.7,246.3 320.5,246.3 320.5,241.6 334.7,241.6 334.7,236.8 320.5,236.8 
			320.5,232.1 		"/>
		<rect x="320.5" y="227.3" class="st13" width="4.7" height="4.7"/>
		<rect x="320.5" y="255.8" class="st13" width="4.7" height="4.7"/>
	</g>
	<rect x="784.5" y="350.5" class="st7" width="4.7" height="213.1"/>
	<rect x="567.5" y="203.4" class="st7" width="4.5" height="336.3"/>
	<rect x="609.6" y="156" class="st7" width="4.5" height="232.1"/>
	<rect x="609.3" y="383.6" class="st7" width="90" height="4.7"/>
	<line class="st7" x1="694.6" y1="387.7" x2="699.3" y2="387.7"/>
	<g>
		<rect x="633" y="539.9" class="st14" width="4.7" height="4.7"/>
		<rect x="637.7" y="535.1" class="st14" width="4.7" height="4.7"/>
		<rect x="642.5" y="530.4" class="st14" width="4.7" height="4.7"/>
		<rect x="647.2" y="525.7" class="st14" width="4.7" height="4.7"/>
		<polygon class="st14" points="599.9,440.4 599.9,445.2 599.9,525.7 604.6,525.7 623.5,525.7 623.5,549.3 623.5,554.1 628.3,554.1 
			628.3,549.3 633,549.3 633,544.6 628.3,544.6 628.3,525.7 628.3,520.9 604.6,520.9 604.6,445.2 713.5,445.2 713.5,520.9 
			651.9,520.9 651.9,525.7 713.5,525.7 718.2,525.7 718.2,445.2 718.2,440.4 		"/>
	</g>
	<polygon class="st15" points="670.9,483 670.9,478.3 666.2,478.3 666.2,473.6 661.4,473.6 661.4,468.8 656.7,468.8 656.7,464.1 
		651.9,464.1 651.9,459.4 647.2,459.4 647.2,464.1 647.2,506.7 647.2,511.5 651.9,511.5 651.9,506.7 656.7,506.7 656.7,502 
		661.4,502 661.4,497.2 666.2,497.2 666.2,492.5 670.9,492.5 670.9,487.8 675.6,487.8 675.6,483 	"/>
	<rect x="609.3" y="383.6" class="st7" width="90" height="4.7"/>
	<rect x="651.9" y="341" class="st7" width="47.4" height="4.7"/>
	<rect x="651.7" y="156.3" class="st7" width="5" height="189.5"/>
	<rect x="476.7" y="71.1" class="st7" width="4.7" height="42.6"/>
	<rect x="827.1" y="198.9" class="st7" width="4.7" height="364.6"/>
	<rect x="870" y="156.2" class="st7" width="4.7" height="450.4"/>
	<g>
		<path class="st2" d="M779.2,128.3h2.5v-0.6h0.6v-0.6h1.2v1.2h-0.6v0.6h-0.6v0.6h-3.7v-0.6H778v-0.6h-0.6v-6.2h0.6v-0.6h0.6v-0.6
			h3.7v0.6h0.6v0.6h0.6v1.2h-1.2v-0.6h-0.6v-0.6h-2.5v0.6h-0.6v4.9h0.6V128.3z"/>
		<path class="st2" d="M786,121.5v-0.6h3.7v0.6h0.6v0.6h0.6v6.2h-0.6v0.6h-0.6v0.6H786v-0.6h-0.6v-0.6h-0.6v-6.2h0.6v-0.6H786z
			 M789.1,122.1h-2.5v0.6H786v4.9h0.6v0.6h2.5v-0.6h0.6v-4.9h-0.6V122.1z"/>
		<path class="st2" d="M793.4,124.6v4.9h-1.2v-8.6h1.2v1.8h0.6v0.6h0.6v0.6h0.6v0.6h0.6v0.6h0.6v0.6h0.6v-4.9h1.2v8.6h-1.2v-1.8
			h-0.6v-0.6h-0.6v-0.6h-0.6v-0.6h-0.6v-0.6H794v-0.6H793.4z"/>
		<path class="st2" d="M805.1,122.1h0.6v1.2h-1.2v-0.6h-0.6v-0.6h-2.5v0.6h-0.6v1.2h0.6v0.6h3.1v0.6h0.6v0.6h0.6v2.5h-0.6v0.6h-0.6
			v0.6h-3.7v-0.6h-0.6v-0.6h-0.6v-1.2h1.2v0.6h0.6v0.6h2.5v-0.6h0.6v-1.2h-0.6v-0.6h-3.1v-0.6h-0.6v-0.6h-0.6v-2.5h0.6v-0.6h0.6
			v-0.6h3.7v0.6h0.6V122.1z"/>
		<path class="st2" d="M807.6,128.3H807v-7.4h1.2v6.8h0.6v0.6h2.5v-0.6h0.6v-6.8h1.2v7.4h-0.6v0.6h-0.6v0.6h-3.7v-0.6h-0.6V128.3z"
			/>
		<path class="st2" d="M815.6,129.5h-1.2v-8.6h1.2v1.2h0.6v0.6h0.6v0.6h1.2v-0.6h0.6v-0.6h0.6v-1.2h1.2v8.6h-1.2V124h-0.6v0.6h-0.6
			v1.2h-1.2v-1.2h-0.6V124h-0.6V129.5z"/>
		<path class="st2" d="M827.9,120.9v1.2H823v2.5h3.7v1.2H823v2.5h4.9v1.2h-6.2v-8.6H827.9z"/>
		<path class="st2" d="M831,125.8h-0.6v3.7h-1.2v-8.6h4.9v0.6h0.6v0.6h0.6v2.5h-0.6v0.6h-0.6v0.6h-1.2v0.6h0.6v0.6h0.6v0.6h0.6v0.6
			h0.6v1.2h-1.2v-0.6h-0.6v-0.6h-0.6v-0.6h-0.6v-0.6h-0.6v-0.6H831V125.8z M830.4,122.1v2.5h3.1V124h0.6v-1.2h-0.6v-0.6H830.4z"/>
	</g>
	<rect x="694.6" y="156.3" class="st7" width="137.3" height="4.7"/>
	<rect x="651.9" y="113.7" class="st7" width="4.7" height="56.8"/>
	<polygon class="st16" points="770.8,47.4 770.8,42.7 770.8,33.2 770.8,14.3 766.1,14.3 766.1,33.2 761.4,33.2 761.4,14.3 
		756.6,14.3 756.6,33.2 751.9,33.2 751.9,14.3 747.2,14.3 747.2,33.2 747.2,47.4 751.9,47.4 751.9,52.1 756.6,52.1 756.6,113.7 
		761.4,113.7 761.4,52.1 766.1,52.1 766.1,47.4 	"/>
	<polygon class="st17" points="780.3,80.6 785.1,80.6 785.1,85.3 789.8,85.3 789.8,90 813.5,90 813.5,85.3 818.2,85.3 818.2,80.6 
		822.9,80.6 822.9,75.8 827.7,75.8 827.7,52.1 822.9,52.1 822.9,47.4 818.2,47.4 818.2,42.7 813.5,42.7 813.5,37.9 789.8,37.9 
		789.8,42.7 785.1,42.7 785.1,47.4 780.3,47.4 780.3,52.1 775.6,52.1 775.6,75.8 780.3,75.8 	"/>
	<polygon class="st16" points="846.6,14.3 841.9,14.3 841.9,28.5 837.1,28.5 837.1,61.6 841.9,61.6 841.9,113.7 846.6,113.7 
		851.3,113.7 851.3,14.3 	"/>
	<polygon class="st18" points="832.4,80.6 827.7,80.6 827.7,85.3 822.9,85.3 822.9,90 818.2,90 818.2,94.8 813.5,94.8 789.8,94.8 
		785.1,94.8 785.1,90 780.3,90 780.3,85.3 775.6,85.3 775.6,80.6 770.8,80.6 770.8,52.1 766.1,52.1 766.1,90 770.8,90 770.8,94.8 
		775.6,94.8 775.6,99.5 785.1,99.5 785.1,104.2 789.8,104.2 813.5,104.2 818.2,104.2 818.2,99.5 827.7,99.5 827.7,94.8 832.4,94.8 
		832.4,90 837.1,90 837.1,85.3 837.1,66.4 832.4,66.4 	"/>
	<polygon class="st18" points="780.3,37.9 785.1,37.9 785.1,33.2 818.2,33.2 818.2,37.9 822.9,37.9 822.9,42.7 827.7,42.7 
		827.7,47.4 832.4,47.4 832.4,28.5 827.7,28.5 822.9,28.5 822.9,23.7 813.5,23.7 813.5,19 789.8,19 789.8,23.7 780.3,23.7 
		780.3,28.5 775.6,28.5 775.6,33.2 775.6,42.7 780.3,42.7 	"/>
	<rect x="699.3" y="113.7" class="st7" width="4.7" height="42.6"/>
	<rect x="699.3" y="33.2" class="st7" width="4.7" height="42.6"/>
	<rect x="325.2" y="71.1" class="st7" width="113.6" height="4.7"/>
	<rect x="476.7" y="71.1" class="st7" width="222" height="4.7"/>
	<rect x="656.7" y="156.3" class="st7" width="37.9" height="4.7"/>
	<rect x="699.3" y="198.9" class="st7" width="4.7" height="146.8"/>
	<rect x="704" y="198.9" class="st7" width="123.1" height="4.7"/>
	<rect x="741.9" y="246.3" class="st7" width="47.4" height="4.7"/>
	<rect x="784.5" y="246.3" class="st7" width="4.7" height="108.9"/>
</g>
</svg>
