<?xml version="1.0" encoding="utf-8"?>
<!-- Generator: Adobe Illustrator 25.2.3, SVG Export Plug-In . SVG Version: 6.00 Build 0)  -->
<svg version="1.1" xmlns="http://www.w3.org/2000/svg" xmlns:xlink="http://www.w3.org/1999/xlink" x="0px" y="0px"
	 viewBox="0 0 300 300" style="enable-background:new 0 0 300 300;" xml:space="preserve">
<style type="text/css">
	.st0{opacity:0.46;}
	.st1{fill:#66890B;}
	.st2{fill:#95BC51;}
	.st3{fill:#3F6905;}
	.st4{fill:#CBE46E;}
	.st5{fill:#757DE0;}
	.st6{fill:#CAC5FF;}
	.st7{fill:#E9ECFD;}
	.st8{opacity:0.41;}
	.st9{opacity:0.69;}
	.st10{opacity:0.27;fill:none;stroke:#57ADA0;stroke-miterlimit:10;}
	.st11{opacity:0.65;}
	.st12{opacity:0.54;}
	.st13{opacity:0.51;}
	.st14{fill:#3FA0A7;}
	.st15{fill:#AB7946;}
	.st16{fill:#03464F;}
	.st17{fill:#026385;}
	.st18{fill:#35BCC0;}
	.st19{fill:#018F9F;}
	.st20{fill:#A53A1C;}
	.st21{fill:#DF5330;}
	.st22{fill:#FF8039;}
	.st23{fill:#EE5E2F;}
	.st24{fill:#A51959;}
	.st25{fill:#C12573;}
	.st26{fill:#FF4DA6;}
	.st27{fill:#D2276E;}
	.st28{fill:#7F7973;}
	.st29{fill:#C0B5AA;}
	.st30{fill:#E4DED5;}
	.st31{fill:#514A43;}
	.st32{fill:#606161;}
	.st33{fill:#BEBFB9;}
	.st34{fill:#3A3A3A;}
	.st35{fill:#302C28;}
	.st36{fill:#161616;}
	.st37{fill:#E1E1DF;}
	.st38{fill:#163A20;}
	.st39{fill:#1A5C31;}
	.st40{fill:#3E9B50;}
	.st41{fill:#23763E;}
	.st42{fill:#41296D;}
	.st43{fill:#513C82;}
	.st44{fill:#775ABF;}
	.st45{fill:#614293;}
	.st46{fill:#6C0F13;}
	.st47{fill:#9E1F25;}
	.st48{fill:#E8222E;}
	.st49{fill:#CF232E;}
	.st50{fill:#D27633;}
	.st51{fill:#DD8A34;}
	.st52{fill:#F5C032;}
	.st53{fill:#F3A634;}
	.st54{fill:#D4EAFF;}
	.st55{fill:#EFFAFC;}
	.st56{fill:#171C05;}
	.st57{fill:#688F50;}
	.st58{fill:#92BA73;}
	.st59{fill:#9FC780;}
	.st60{fill:#A7CB8D;}
	.st61{fill:#9CC17B;}
	.st62{fill:#91B166;}
	.st63{fill:#88988D;}
	.st64{fill:#829788;}
	.st65{fill:#5B7A36;}
	.st66{fill:#2C4704;}
	.st67{fill:#415705;}
	.st68{fill:#7D9732;}
	.st69{fill:#778B34;}
	.st70{fill:#879935;}
	.st71{fill:#A3BA62;}
	.st72{fill:#BFDA95;}
	.st73{fill:#B7D690;}
	.st74{fill:#B8D88C;}
	.st75{fill:#B7D78B;}
	.st76{fill:#B8D68C;}
	.st77{fill:#B2D185;}
	.st78{fill:#AECE85;}
	.st79{fill:#ACC87E;}
	.st80{fill:#A3B078;}
	.st81{fill:#758D8F;}
	.st82{fill:#8B9DF1;}
	.st83{fill:#A3B7F2;}
	.st84{fill:#7FA35B;}
	.st85{fill:#6A9047;}
	.st86{fill:#3D6823;}
	.st87{fill:#325F1C;}
	.st88{fill:#33621E;}
	.st89{fill:#214E0B;}
	.st90{fill:#306811;}
	.st91{fill:#689339;}
	.st92{fill:#95BB6E;}
	.st93{fill:#9BC57D;}
	.st94{fill:#A2C781;}
	.st95{fill:#9AB67C;}
	.st96{fill:#B4C8A5;}
	.st97{fill:#97ACBD;}
	.st98{fill:#7F9C88;}
	.st99{fill:#617830;}
	.st100{fill:#56750D;}
	.st101{fill:#789529;}
	.st102{fill:#91A335;}
	.st103{fill:#A5B650;}
	.st104{fill:#A7BD5B;}
	.st105{fill:#C1D894;}
	.st106{fill:#BCDA9A;}
	.st107{fill:#BEDB98;}
	.st108{fill:#BDDC98;}
	.st109{fill:#B9DA95;}
	.st110{fill:#B0D087;}
	.st111{fill:#9EC477;}
	.st112{fill:#98B86D;}
	.st113{fill:#8D9750;}
	.st114{fill:#798749;}
	.st115{fill:#82964F;}
	.st116{fill:#7F9B6B;}
	.st117{fill:#819D77;}
	.st118{fill:#88A855;}
	.st119{fill:#789C52;}
	.st120{fill:#46732E;}
	.st121{fill:#295613;}
	.st122{fill:#1F490A;}
	.st123{fill:#20490D;}
	.st124{fill:#33680C;}
	.st125{fill:#40700D;}
	.st126{fill:#95B864;}
	.st127{fill:#9DC77F;}
	.st128{fill:#9FC37B;}
	.st129{fill:#B4D191;}
	.st130{fill:#BED9A2;}
	.st131{fill:#A2BD94;}
	.st132{fill:#728D40;}
	.st133{fill:#546E17;}
	.st134{fill:#7A932B;}
	.st135{fill:#B5AD64;}
	.st136{fill:#C2C86E;}
	.st137{fill:#B6BC5A;}
	.st138{fill:#AFB56D;}
	.st139{fill:#AEC87F;}
	.st140{fill:#BFDF96;}
	.st141{fill:#C3DD9C;}
	.st142{fill:#BCD997;}
	.st143{fill:#B3D48D;}
	.st144{fill:#83AD63;}
	.st145{fill:#68893A;}
	.st146{fill:#948C44;}
	.st147{fill:#898836;}
	.st148{fill:#68852B;}
	.st149{fill:#90AC57;}
	.st150{fill:#84A54E;}
	.st151{fill:#7E9C42;}
	.st152{fill:#7D9C56;}
	.st153{fill:#5E8640;}
	.st154{fill:#2D5B13;}
	.st155{fill:#1F4D0C;}
	.st156{fill:#1F4708;}
	.st157{fill:#2A5F07;}
	.st158{fill:#4F7B08;}
	.st159{fill:#80A814;}
	.st160{fill:#90BC5A;}
	.st161{fill:#92BC6A;}
	.st162{fill:#9AC478;}
	.st163{fill:#90B766;}
	.st164{fill:#95B957;}
	.st165{fill:#B0CD70;}
	.st166{fill:#7C9E4A;}
	.st167{fill:#6B861D;}
	.st168{fill:#849A35;}
	.st169{fill:#C5B077;}
	.st170{fill:#B8B872;}
	.st171{fill:#AEB855;}
	.st172{fill:#A9B263;}
	.st173{fill:#95AA65;}
	.st174{fill:#B4D68A;}
	.st175{fill:#BBD895;}
	.st176{fill:#A8CB87;}
	.st177{fill:#81AD62;}
	.st178{fill:#6D8C3E;}
	.st179{fill:#9C9046;}
	.st180{fill:#8F8E3E;}
	.st181{fill:#6E901F;}
	.st182{fill:#90AC45;}
	.st183{fill:#8BAD59;}
	.st184{fill:#729723;}
	.st185{fill:#749B1E;}
	.st186{fill:#547C19;}
	.st187{fill:#204903;}
	.st188{fill:#1F4804;}
	.st189{fill:#35570D;}
	.st190{fill:#2C600E;}
	.st191{fill:#376B07;}
	.st192{fill:#588300;}
	.st193{fill:#779E1D;}
	.st194{fill:#93B55E;}
	.st195{fill:#95BF75;}
	.st196{fill:#729D4B;}
	.st197{fill:#779D30;}
	.st198{fill:#8EB248;}
	.st199{fill:#A5CB80;}
	.st200{fill:#8EB363;}
	.st201{fill:#97B04A;}
	.st202{fill:#AAB674;}
	.st203{fill:#798E33;}
	.st204{fill:#889E32;}
	.st205{fill:#99A962;}
	.st206{fill:#899759;}
	.st207{fill:#99AC6A;}
	.st208{fill:#A5BF76;}
	.st209{fill:#A4C87E;}
	.st210{fill:#ABCA86;}
	.st211{fill:#A7C97F;}
	.st212{fill:#9DB36A;}
	.st213{fill:#939F53;}
	.st214{fill:#86922C;}
	.st215{fill:#749029;}
	.st216{fill:#94B250;}
	.st217{fill:#94B157;}
	.st218{fill:#91B03B;}
	.st219{fill:#7B9F01;}
	.st220{fill:#708B18;}
	.st221{fill:#596920;}
	.st222{fill:#485C15;}
	.st223{fill:#707F2A;}
	.st224{fill:#265F12;}
	.st225{fill:#3F6E08;}
	.st226{fill:#7C9F45;}
	.st227{fill:#82A74A;}
	.st228{fill:#94BA67;}
	.st229{fill:#9AC374;}
	.st230{fill:#83B05D;}
	.st231{fill:#629023;}
	.st232{fill:#88AE3F;}
	.st233{fill:#AFD389;}
	.st234{fill:#99C273;}
	.st235{fill:#A6C568;}
	.st236{fill:#B6CB86;}
	.st237{fill:#77933F;}
	.st238{fill:#6E8B2F;}
	.st239{fill:#718E34;}
	.st240{fill:#819148;}
	.st241{fill:#90A05F;}
	.st242{fill:#9CB271;}
	.st243{fill:#96B268;}
	.st244{fill:#95B569;}
	.st245{fill:#A8C37E;}
	.st246{fill:#A5BE7A;}
	.st247{fill:#8CA257;}
	.st248{fill:#7C9341;}
	.st249{fill:#849D49;}
	.st250{fill:#98B561;}
	.st251{fill:#A8C072;}
	.st252{fill:#A1BD4C;}
	.st253{fill:#7FA206;}
	.st254{fill:#9A9C49;}
	.st255{fill:#9E8B53;}
	.st256{fill:#90804D;}
	.st257{fill:#A19A4C;}
	.st258{fill:#2C5F10;}
	.st259{fill:#688D2E;}
	.st260{fill:#8CB25F;}
	.st261{fill:#9BC273;}
	.st262{fill:#9AC26C;}
	.st263{fill:#9CBE67;}
	.st264{fill:#94BC64;}
	.st265{fill:#98BC64;}
	.st266{fill:#A6C965;}
	.st267{fill:#B3D78F;}
	.st268{fill:#96C36E;}
	.st269{fill:#81AA42;}
	.st270{fill:#83A050;}
	.st271{fill:#819F45;}
	.st272{fill:#83A551;}
	.st273{fill:#799C40;}
	.st274{fill:#8FAE5E;}
	.st275{fill:#93AF65;}
	.st276{fill:#9CB86E;}
	.st277{fill:#98B66C;}
	.st278{fill:#85A854;}
	.st279{fill:#90AB5E;}
	.st280{fill:#9AB66C;}
	.st281{fill:#9EB668;}
	.st282{fill:#94B059;}
	.st283{fill:#7B983E;}
	.st284{fill:#80A345;}
	.st285{fill:#8EB052;}
	.st286{fill:#8AA941;}
	.st287{fill:#83A713;}
	.st288{fill:#8DA52B;}
	.st289{fill:#B2B371;}
	.st290{fill:#C0C084;}
	.st291{fill:#B4AF6B;}
	.st292{clip-path:url(#SVGID_2_);}
	.st293{clip-path:url(#SVGID_4_);}
	.st294{clip-path:url(#SVGID_6_);}
	.st295{fill:#7DC0C9;}
	.st296{fill:#16635B;}
	.st297{fill:#A1D7DB;}
	.st298{fill:#CDC982;}
	.st299{fill:#3C5B3B;}
	.st300{fill:#6B8C5F;}
	.st301{fill:#90AA7D;}
	.st302{fill:#A2B271;}
	.st303{fill:#69463A;}
	.st304{fill:#D6B36F;}
	.st305{fill:#9BB655;}
	.st306{fill:#618F46;}
	.st307{fill:#2B5A38;}
	.st308{fill:#7C672E;}
	.st309{fill:#ABA92E;}
	.st310{fill:#E2E57E;}
	.st311{fill:#CBCA6D;}
</style>
<g id="layout">
</g>
<g id="GUIDES">
	<g>
		<g>
			<polygon class="st2" points="156.3,187.9 156.3,186.3 154.7,186.3 154.7,181.6 153.1,181.6 153.1,180 151.6,180 151.6,181.6 
				150,181.6 150,186.3 150,186.3 150,195.8 150,195.8 150,197.4 150,198.9 151.6,198.9 153.1,198.9 153.1,236.8 154.7,236.8 
				154.7,200.5 156.3,200.5 156.3,198.9 157.9,198.9 157.9,187.9 			"/>
			<polygon class="st1" points="172.1,225.8 172.1,224.2 170.5,224.2 170.5,222.6 168.9,222.6 168.9,221 167.3,221 167.3,219.5 
				162.6,219.5 159.5,219.5 159.5,221 157.9,221 157.9,222.6 156.3,222.6 156.3,224.2 154.7,224.2 154.7,225.8 156.3,225.8 
				157.9,225.8 157.9,227.4 161,227.4 161,228.9 167.3,228.9 168.9,228.9 172.1,228.9 172.1,227.4 173.7,227.4 173.7,225.8 			"/>
			<polygon class="st1" points="159.5,213.1 157.9,213.1 157.9,211.6 154.7,211.6 154.7,214.7 156.3,214.7 157.9,214.7 159.5,214.7 
				159.5,216.3 161,216.3 161,214.7 161,213.1 			"/>
			<g>
				<rect x="150" y="211.6" class="st1" width="3.2" height="1.6"/>
				<rect x="148.4" y="213.1" class="st1" width="1.6" height="1.6"/>
			</g>
			<g>
				<polygon class="st1" points="151.6,224.2 151.6,221 150,221 150,219.5 148.4,219.5 146.8,219.5 145.2,219.5 143.7,219.5 
					142.1,219.5 140.5,219.5 138.9,219.5 138.9,221 140.5,221 140.5,224.2 142.1,224.2 142.1,225.8 143.7,225.8 143.7,227.4 
					145.2,227.4 145.2,228.9 146.8,228.9 148.4,228.9 150,228.9 150,227.4 151.6,227.4 151.6,225.8 153.1,225.8 153.1,224.2 				"/>
				<rect x="137.3" y="217.9" class="st1" width="1.6" height="1.6"/>
			</g>
			<rect x="156.3" y="197.4" class="st5" width="1.6" height="1.6"/>
			<rect x="156.3" y="197.4" class="st5" width="1.6" height="3.2"/>
			<rect x="157.9" y="197.4" class="st5" width="1.6" height="1.6"/>
			<rect x="151.6" y="197.4" class="st5" width="1.6" height="3.2"/>
			<rect x="154.7" y="194.2" class="st5" width="1.6" height="1.6"/>
			<rect x="150" y="191" class="st5" width="3.2" height="1.6"/>
			<rect x="150" y="181.6" class="st5" width="3.2" height="1.6"/>
			<rect x="153.1" y="183.1" class="st6" width="1.6" height="1.6"/>
			<rect x="156.3" y="197.4" class="st6" width="1.6" height="1.6"/>
			<rect x="153.1" y="192.6" class="st6" width="1.6" height="1.6"/>
			<rect x="153.1" y="191" class="st1" width="1.6" height="1.6"/>
			<rect x="151.6" y="183.1" class="st1" width="1.6" height="1.6"/>
			<rect x="151.6" y="186.3" class="st1" width="1.6" height="1.6"/>
			<rect x="153.1" y="197.4" class="st1" width="1.6" height="1.6"/>
			<rect x="150" y="195.8" class="st1" width="1.6" height="1.6"/>
			<rect x="154.7" y="189.5" class="st1" width="1.6" height="1.6"/>
			<rect x="154.7" y="198.9" class="st1" width="1.6" height="1.6"/>
			<rect x="151.6" y="192.6" class="st1" width="1.6" height="1.6"/>
		</g>
		<g>
			<polygon class="st2" points="187.9,178.4 187.9,176.8 186.3,176.8 186.3,172.1 184.7,172.1 184.7,170.5 183.1,170.5 183.1,172.1 
				181.6,172.1 181.6,176.8 181.6,176.8 181.6,186.3 181.6,186.3 181.6,187.9 181.6,189.5 183.1,189.5 184.7,189.5 184.7,227.4 
				186.3,227.4 186.3,191 187.9,191 187.9,189.5 189.5,189.5 189.5,178.4 			"/>
			<polygon class="st1" points="203.7,216.3 203.7,214.7 202.1,214.7 202.1,213.1 200.5,213.1 200.5,211.6 198.9,211.6 198.9,210 
				194.2,210 191,210 191,211.6 189.5,211.6 189.5,213.1 187.9,213.1 187.9,214.7 186.3,214.7 186.3,216.3 187.9,216.3 189.5,216.3 
				189.5,217.9 192.6,217.9 192.6,219.5 198.9,219.5 200.5,219.5 203.7,219.5 203.7,217.9 205.2,217.9 205.2,216.3 			"/>
			<polygon class="st1" points="191,203.7 189.5,203.7 189.5,202.1 186.3,202.1 186.3,205.2 187.9,205.2 189.5,205.2 191,205.2 
				191,206.8 192.6,206.8 192.6,205.2 192.6,203.7 			"/>
			<g>
				<rect x="181.6" y="202.1" class="st1" width="3.2" height="1.6"/>
				<rect x="180" y="203.7" class="st1" width="1.6" height="1.6"/>
			</g>
			<g>
				<polygon class="st1" points="183.1,214.7 183.1,211.6 181.6,211.6 181.6,210 180,210 178.4,210 176.8,210 175.2,210 173.7,210 
					172.1,210 170.5,210 170.5,211.6 172.1,211.6 172.1,214.7 173.7,214.7 173.7,216.3 175.2,216.3 175.2,217.9 176.8,217.9 
					176.8,219.5 178.4,219.5 180,219.5 181.6,219.5 181.6,217.9 183.1,217.9 183.1,216.3 184.7,216.3 184.7,214.7 				"/>
				<rect x="168.9" y="208.4" class="st1" width="1.6" height="1.6"/>
			</g>
			<rect x="187.9" y="187.9" class="st5" width="1.6" height="1.6"/>
			<rect x="187.9" y="187.9" class="st5" width="1.6" height="3.2"/>
			<rect x="189.5" y="187.9" class="st5" width="1.6" height="1.6"/>
			<rect x="183.1" y="187.9" class="st5" width="1.6" height="3.2"/>
			<rect x="186.3" y="184.7" class="st5" width="1.6" height="1.6"/>
			<rect x="181.6" y="181.6" class="st5" width="3.2" height="1.6"/>
			<rect x="181.6" y="172.1" class="st5" width="3.2" height="1.6"/>
			<rect x="184.7" y="173.7" class="st6" width="1.6" height="1.6"/>
			<rect x="187.9" y="187.9" class="st6" width="1.6" height="1.6"/>
			<rect x="184.7" y="183.1" class="st6" width="1.6" height="1.6"/>
			<rect x="184.7" y="181.6" class="st1" width="1.6" height="1.6"/>
			<rect x="183.1" y="173.7" class="st1" width="1.6" height="1.6"/>
			<rect x="183.1" y="176.8" class="st1" width="1.6" height="1.6"/>
			<rect x="184.7" y="187.9" class="st1" width="1.6" height="1.6"/>
			<rect x="181.6" y="186.3" class="st1" width="1.6" height="1.6"/>
			<rect x="186.3" y="180" class="st1" width="1.6" height="1.6"/>
			<rect x="186.3" y="189.5" class="st1" width="1.6" height="1.6"/>
			<rect x="183.1" y="183.1" class="st1" width="1.6" height="1.6"/>
		</g>
		<g>
			<polygon class="st2" points="126.3,178.4 126.3,176.8 124.7,176.8 124.7,172.1 123.1,172.1 123.1,170.5 121.6,170.5 121.6,172.1 
				120,172.1 120,176.8 120,176.8 120,186.3 120,186.3 120,187.9 120,189.5 121.6,189.5 123.1,189.5 123.1,227.4 124.7,227.4 
				124.7,191 126.3,191 126.3,189.5 127.9,189.5 127.9,178.4 			"/>
			<polygon class="st1" points="142.1,216.3 142.1,214.7 140.5,214.7 140.5,213.1 138.9,213.1 138.9,211.6 137.3,211.6 137.3,210 
				132.6,210 129.4,210 129.4,211.6 127.9,211.6 127.9,213.1 126.3,213.1 126.3,214.7 124.7,214.7 124.7,216.3 126.3,216.3 
				127.9,216.3 127.9,217.9 131,217.9 131,219.5 137.3,219.5 138.9,219.5 142.1,219.5 142.1,217.9 143.7,217.9 143.7,216.3 			"/>
			<polygon class="st1" points="129.4,203.7 127.9,203.7 127.9,202.1 124.7,202.1 124.7,205.2 126.3,205.2 127.9,205.2 129.4,205.2 
				129.4,206.8 131,206.8 131,205.2 131,203.7 			"/>
			<g>
				<rect x="120" y="202.1" class="st1" width="3.2" height="1.6"/>
				<rect x="118.4" y="203.7" class="st1" width="1.6" height="1.6"/>
			</g>
			<g>
				<polygon class="st1" points="121.6,214.7 121.6,211.6 120,211.6 120,210 118.4,210 116.8,210 115.2,210 113.7,210 112.1,210 
					110.5,210 108.9,210 108.9,211.6 110.5,211.6 110.5,214.7 112.1,214.7 112.1,216.3 113.7,216.3 113.7,217.9 115.2,217.9 
					115.2,219.5 116.8,219.5 118.4,219.5 120,219.5 120,217.9 121.6,217.9 121.6,216.3 123.1,216.3 123.1,214.7 				"/>
				<rect x="107.3" y="208.4" class="st1" width="1.6" height="1.6"/>
			</g>
			<rect x="126.3" y="187.9" class="st5" width="1.6" height="1.6"/>
			<rect x="126.3" y="187.9" class="st5" width="1.6" height="3.2"/>
			<rect x="127.9" y="187.9" class="st5" width="1.6" height="1.6"/>
			<rect x="121.6" y="187.9" class="st5" width="1.6" height="3.2"/>
			<rect x="124.7" y="184.7" class="st5" width="1.6" height="1.6"/>
			<rect x="120" y="181.6" class="st5" width="3.2" height="1.6"/>
			<rect x="120" y="172.1" class="st5" width="3.2" height="1.6"/>
			<rect x="123.1" y="173.7" class="st6" width="1.6" height="1.6"/>
			<rect x="126.3" y="187.9" class="st6" width="1.6" height="1.6"/>
			<rect x="123.1" y="183.1" class="st6" width="1.6" height="1.6"/>
			<rect x="123.1" y="181.6" class="st1" width="1.6" height="1.6"/>
			<rect x="121.6" y="173.7" class="st1" width="1.6" height="1.6"/>
			<rect x="121.6" y="176.8" class="st1" width="1.6" height="1.6"/>
			<rect x="123.1" y="187.9" class="st1" width="1.6" height="1.6"/>
			<rect x="120" y="186.3" class="st1" width="1.6" height="1.6"/>
			<rect x="124.7" y="180" class="st1" width="1.6" height="1.6"/>
			<rect x="124.7" y="189.5" class="st1" width="1.6" height="1.6"/>
			<rect x="121.6" y="183.1" class="st1" width="1.6" height="1.6"/>
		</g>
		<rect x="0" y="240" class="st14" width="300" height="60"/>
		<rect x="71" y="240" class="st15" width="162.7" height="60"/>
		<polygon class="st309" points="222.6,219.5 222.6,222.6 221,222.6 221,227.4 219.5,227.4 219.5,222.6 217.9,222.6 217.9,219.5 
			216.3,219.5 216.3,222.6 214.7,222.6 214.7,221 213.1,221 213.1,214.7 211.6,214.7 211.6,227.4 210,227.4 210,222.6 208.4,222.6 
			208.4,219.5 206.8,219.5 206.8,217.9 205.2,217.9 205.2,216.3 203.7,216.3 203.7,221 202.1,221 202.1,217.9 200.5,217.9 
			200.5,221 198.9,221 198.9,216.3 197.4,216.3 197.4,217.9 195.8,217.9 195.8,219.5 194.2,219.5 194.2,213.1 192.6,213.1 
			192.6,219.5 191,219.5 191,216.3 189.5,216.3 189.5,222.6 187.9,222.6 187.9,216.3 186.3,216.3 186.3,213.1 184.7,213.1 
			184.7,216.3 183.1,216.3 183.1,217.9 181.6,217.9 181.6,221 180,221 180,224.2 178.4,224.2 178.4,221 178.4,219.5 176.8,219.5 
			176.8,221 175.2,221 175.2,224.2 173.7,224.2 173.7,219.5 172.1,219.5 172.1,216.3 170.5,216.3 170.5,221 168.9,221 168.9,219.5 
			167.3,219.5 167.3,222.6 165.8,222.6 165.8,224.2 164.2,224.2 164.2,214.7 162.6,214.7 162.6,221 161,221 161,219.5 159.5,219.5 
			159.5,221 157.9,221 157.9,225.8 156.3,225.8 156.3,224.2 154.7,224.2 154.7,222.6 153.1,222.6 153.1,219.5 151.6,219.5 
			151.6,217.9 150,217.9 150,219.5 150,224.2 148.4,224.2 148.4,217.9 146.8,217.9 146.8,221 145.2,221 145.2,216.3 143.7,216.3 
			143.7,217.9 142.1,217.9 142.1,213.1 140.5,213.1 140.5,217.9 140.5,222.6 138.9,222.6 138.9,217.9 137.3,217.9 137.3,219.5 
			135.8,219.5 135.8,221 134.2,221 134.2,217.9 132.6,217.9 132.6,214.7 131,214.7 131,221 129.4,221 129.4,219.5 127.9,219.5 
			127.9,221 126.3,221 126.3,222.6 124.7,222.6 124.7,217.9 123.1,217.9 123.1,214.7 121.6,214.7 121.6,219.5 120,219.5 120,221 
			118.4,221 118.4,217.9 116.8,217.9 116.8,214.7 115.2,214.7 115.2,216.3 113.7,216.3 113.7,219.5 112.1,219.5 112.1,221 
			110.5,221 110.5,217.9 108.9,217.9 108.9,216.3 107.3,216.3 107.3,217.9 105.8,217.9 105.8,219.5 104.2,219.5 104.2,221 
			102.6,221 102.6,216.3 101,216.3 101,213.1 99.4,213.1 99.4,219.5 97.9,219.5 97.9,221 96.3,221 96.3,222.6 94.7,222.6 
			94.7,216.3 94.7,213.1 93.1,213.1 93.1,216.3 91.5,216.3 91.5,219.5 90,219.5 90,216.3 88.4,216.3 88.4,219.5 86.8,219.5 
			86.8,222.6 85.2,222.6 85.2,217.9 83.7,217.9 83.7,222.6 82.1,222.6 82.1,227.4 80.5,227.4 80.5,225.8 78.9,225.8 78.9,228.9 
			77.3,228.9 77.3,230.5 77.3,232.1 77.3,240 93.1,240 94.7,240 102.6,240 104.2,240 131,240 132.6,240 134.2,240 167.3,240 
			184.7,240 187.9,240 189.5,240 192.6,240 194.2,240 211.6,240 213.1,240 214.7,240 217.9,240 219.5,240 224.2,240 224.2,238.4 
			224.2,236.8 224.2,235.3 224.2,222.6 224.2,219.5 		"/>
		<path class="st311" d="M78.9,224.2v3.2h1.6v4.7h1.6v-4.7h1.6v-3.2h1.6v3.2h1.6v-1.6h1.6v-6.3H90v12.6h1.6v-4.7h1.6v-3.2h1.6v-1.6
			h1.6V221h1.6v4.7h1.6v-3.2h1.6v3.2h1.6V221h1.6v1.6h1.6v1.6h1.6v-6.3h1.6v6.3h1.6V221h1.6v6.3h1.6V221h1.6v-3.2h1.6v3.2h1.6v1.6
			h1.6v3.2h1.6v3.2h1.6c0-1,0-3.7,0-4.7h1.6v1.6h1.6v3.2h1.6v-4.7h1.6V221h1.6v4.7h1.6v-1.6h1.6v3.2h1.6v1.6h1.6v-9.5h1.6v6.3h1.6
			v-1.6h1.6v1.6h1.6v4.7h1.6v-1.6h1.6v-1.6h1.6v-3.2h1.6v-1.6h1.6c0,1.1,0,5.2,0,6.3h1.6v-6.3h1.6v3.2h1.6V221h1.6v1.6h1.6v-4.7h1.6
			c0,2.4,0,7.1,0,9.5h1.6v-4.7h1.6v1.6h1.6v1.6h1.6v-3.2h1.6v-3.2h1.6v6.3h1.6v-1.6h1.6v1.6h1.6v1.6h1.6v-4.7h1.6v-3.2h1.6v4.7h1.6
			v1.6h1.6v-3.2h1.6v-3.2h1.6v1.6h1.6v3.2h1.6v1.6h1.6v-3.2h1.6V221h1.6v1.6h1.6v1.6h1.6v1.6h1.6V221h1.6v-3.2h1.6v6.3h1.6v1.6h1.6
			v1.6h1.6c0-2.1,0-7.4,0-9.5h1.6v3.2h1.6v3.2h1.6V221h1.6v3.2h1.6v3.2h1.6v-4.7h1.6v4.7h1.6v4.7h1.6v-1.6h1.6v3.2h1.6
			c0,2.1,0,4.1,0,6.3c-47.9,0-99,0-146.9,0c0-5.1,0-10.7,0-15.8H78.9z"/>
		<g>
			<polygon class="st306" points="137.3,82.1 137.3,78.9 137.3,72.6 135.8,72.6 135.8,69.4 134.2,69.4 134.2,52.1 131,52.1 
				131,48.9 129.4,48.9 129.4,47.3 127.9,47.3 127.9,39.4 127.9,36.3 126.3,36.3 126.3,30 123.1,30 123.1,26.8 120,26.8 120,23.6 
				116.8,23.6 116.8,22.1 113.7,22.1 113.7,20.5 110.5,20.5 110.5,22.1 108.9,22.1 108.9,23.6 105.8,23.6 105.8,25.2 104.2,25.2 
				104.2,26.8 101,26.8 101,30 99.4,30 99.4,36.3 96.3,36.3 96.3,39.4 94.7,39.4 94.7,44.2 93.1,44.2 93.1,45.8 90,45.8 90,48.9 
				88.4,48.9 88.4,56.8 86.8,56.8 86.8,64.7 85.2,64.7 85.2,67.9 83.7,67.9 83.7,74.2 80.5,74.2 80.5,80.5 78.9,80.5 78.9,83.7 
				77.3,83.7 77.3,90 78.9,90 78.9,91.5 80.5,91.5 80.5,96.3 83.7,96.3 83.7,97.9 80.5,97.9 80.5,99.4 78.9,99.4 78.9,124.7 
				80.5,124.7 80.5,126.3 82.1,126.3 82.1,127.9 85.2,127.9 85.2,129.4 86.8,129.4 86.8,132.6 88.4,132.6 88.4,134.2 90,134.2 
				90,137.3 91.5,137.3 91.5,138.9 93.1,138.9 93.1,140.5 94.7,140.5 94.7,142.1 96.3,142.1 96.3,143.7 97.9,143.7 97.9,145.2 
				99.4,145.2 99.4,146.8 112.1,146.8 112.1,145.2 113.7,145.2 113.7,143.7 115.2,143.7 115.2,142.1 116.8,142.1 116.8,140.5 
				118.4,140.5 118.4,138.9 120,138.9 120,137.3 121.6,137.3 121.6,134.2 123.1,134.2 123.1,132.6 124.7,132.6 124.7,131 131,131 
				131,129.4 132.6,129.4 132.6,126.3 134.2,126.3 134.2,124.7 135.8,124.7 135.8,99.4 134.2,99.4 134.2,97.9 135.8,97.9 
				135.8,96.3 137.3,96.3 137.3,93.1 138.9,93.1 138.9,88.4 138.9,85.2 138.9,82.1 			"/>
			<rect x="105.8" y="86.8" class="st303" width="1.6" height="26.8"/>
			<rect x="118.4" y="28.4" class="st305" width="1.6" height="1.6"/>
			<rect x="107.3" y="26.8" class="st305" width="1.6" height="1.6"/>
			<rect x="102.6" y="33.1" class="st305" width="1.6" height="1.6"/>
			
				<rect x="113.7" y="25.2" transform="matrix(-1 -1.224647e-16 1.224647e-16 -1 228.892 52.0226)" class="st305" width="1.6" height="1.6"/>
			<rect x="118.4" y="39.4" class="st305" width="1.6" height="1.6"/>
			<rect x="124.7" y="47.3" class="st305" width="1.6" height="1.6"/>
			<rect x="121.6" y="34.7" class="st305" width="1.6" height="1.6"/>
			<rect x="116.8" y="45.8" class="st305" width="1.6" height="1.6"/>
			<rect x="102.6" y="45.8" class="st305" width="1.6" height="1.6"/>
			<rect x="96.3" y="53.6" class="st305" width="1.6" height="1.6"/>
			<rect x="91.5" y="48.9" class="st305" width="1.6" height="1.6"/>
			<rect x="99.4" y="39.4" class="st305" width="1.6" height="1.6"/>
			<rect x="93.1" y="60" class="st305" width="1.6" height="1.6"/>
			<rect x="86.8" y="67.9" class="st305" width="1.6" height="1.6"/>
			<rect x="99.4" y="77.3" class="st305" width="1.6" height="1.6"/>
			<rect x="96.3" y="64.7" class="st305" width="1.6" height="1.6"/>
			<rect x="107.3" y="66.3" class="st305" width="1.6" height="1.6"/>
			<rect x="107.3" y="55.2" class="st305" width="1.6" height="1.6"/>
			<rect x="113.7" y="56.8" class="st305" width="1.6" height="1.6"/>
			<rect x="121.6" y="63.1" class="st305" width="1.6" height="1.6"/>
			<rect x="120" y="53.6" class="st305" width="1.6" height="1.6"/>
			<rect x="131" y="71" class="st305" width="1.6" height="1.6"/>
			
				<rect x="131" y="56.8" transform="matrix(-1 -1.224647e-16 1.224647e-16 -1 263.634 115.1899)" class="st305" width="1.6" height="1.6"/>
			<rect x="126.3" y="53.6" class="st305" width="1.6" height="1.6"/>
			<rect x="129.4" y="80.5" class="st305" width="1.6" height="1.6"/>
			<rect x="134.2" y="90" class="st305" width="1.6" height="1.6"/>
			<rect x="124.7" y="96.3" class="st305" width="1.6" height="1.6"/>
			<rect x="113.7" y="91.5" class="st305" width="1.6" height="1.6"/>
			<rect x="118.4" y="71" class="st305" width="1.6" height="1.6"/>
			<rect x="118.4" y="108.9" class="st305" width="1.6" height="1.6"/>
			<rect x="132.6" y="105.8" class="st305" width="1.6" height="1.6"/>
			<rect x="127.9" y="124.7" class="st305" width="1.6" height="1.6"/>
			<rect x="115.2" y="120" class="st305" width="1.6" height="1.6"/>
			<rect x="115.2" y="132.6" class="st305" width="1.6" height="1.6"/>
			<rect x="94.7" y="132.6" class="st305" width="1.6" height="1.6"/>
			<rect x="97.9" y="137.3" class="st305" width="1.6" height="1.6"/>
			<rect x="85.2" y="124.7" class="st305" width="1.6" height="1.6"/>
			<rect x="82.1" y="115.2" class="st305" width="1.6" height="1.6"/>
			<rect x="85.2" y="107.3" class="st305" width="1.6" height="1.6"/>
			<rect x="99.4" y="105.8" class="st305" width="1.6" height="1.6"/>
			<rect x="97.9" y="113.7" class="st305" width="1.6" height="1.6"/>
			<rect x="85.2" y="93.1" class="st305" width="1.6" height="1.6"/>
			<rect x="93.1" y="99.4" class="st305" width="1.6" height="1.6"/>
			<rect x="80.5" y="101" class="st305" width="1.6" height="1.6"/>
			<rect x="80.5" y="86.8" class="st305" width="1.6" height="1.6"/>
			<rect x="83.7" y="80.5" class="st305" width="1.6" height="1.6"/>
			<rect x="96.3" y="85.2" class="st305" width="1.6" height="1.6"/>
			<rect x="90" y="78.9" class="st305" width="1.6" height="1.6"/>
			<g>
				<polygon class="st303" points="112.1,66.3 112.1,64.7 112.1,30 110.5,30 110.5,39.4 108.9,39.4 108.9,36.3 107.3,36.3 107.3,41 
					108.9,41 108.9,45.8 110.5,45.8 110.5,64.7 110.5,66.3 110.5,75.8 112.1,75.8 				"/>
				<rect x="115.2" y="50.5" class="st303" width="1.6" height="30"/>
				<rect x="113.7" y="80.5" class="st303" width="1.6" height="1.6"/>
				<rect x="86.8" y="85.2" class="st303" width="1.6" height="1.6"/>
				<rect x="88.4" y="86.8" class="st303" width="1.6" height="3.2"/>
				<rect x="90" y="90" class="st303" width="1.6" height="1.6"/>
				<rect x="91.5" y="91.5" class="st303" width="1.6" height="1.6"/>
				<polygon class="st303" points="94.7,93.1 93.1,93.1 93.1,94.7 94.7,94.7 94.7,96.3 96.3,96.3 96.3,93.1 				"/>
				<rect x="96.3" y="96.3" class="st303" width="1.6" height="1.6"/>
				<rect x="97.9" y="97.9" class="st303" width="1.6" height="3.2"/>
				<rect x="99.4" y="101" class="st303" width="1.6" height="1.6"/>
				<polygon class="st303" points="101,83.7 99.4,83.7 99.4,88.4 99.4,90 101,90 101,88.4 				"/>
				<rect x="93.1" y="64.7" class="st303" width="1.6" height="6.3"/>
				<polygon class="st303" points="94.7,71 94.7,77.3 93.1,77.3 93.1,78.9 94.7,78.9 94.7,80.5 96.3,80.5 96.3,71 				"/>
				<rect x="96.3" y="80.5" class="st303" width="1.6" height="1.6"/>
				<rect x="97.9" y="82.1" class="st303" width="1.6" height="1.6"/>
				<rect x="88.4" y="74.2" class="st303" width="1.6" height="1.6"/>
				<polygon class="st303" points="91.5,75.8 90,75.8 90,77.3 91.5,77.3 93.1,77.3 93.1,75.8 				"/>
				<rect x="86.8" y="72.6" class="st303" width="1.6" height="1.6"/>
				<rect x="126.3" y="60" class="st303" width="1.6" height="3.2"/>
				<rect x="124.7" y="63.1" class="st303" width="1.6" height="6.3"/>
				<rect x="123.1" y="69.4" class="st303" width="1.6" height="6.3"/>
				<polygon class="st303" points="123.1,80.5 124.7,80.5 124.7,78.9 123.1,78.9 123.1,75.8 121.6,75.8 121.6,82.1 123.1,82.1 				
					"/>
				<rect x="124.7" y="77.3" class="st303" width="1.6" height="1.6"/>
				<rect x="126.3" y="75.8" class="st303" width="1.6" height="1.6"/>
				<rect x="127.9" y="74.2" class="st303" width="1.6" height="1.6"/>
				<polygon class="st303" points="118.4,91.5 120,91.5 120,85.2 121.6,85.2 121.6,82.1 120,82.1 120,83.7 118.4,83.7 118.4,90 
					116.8,90 116.8,96.3 118.4,96.3 				"/>
				<rect x="118.4" y="99.4" class="st303" width="1.6" height="1.6"/>
				<polygon class="st303" points="121.6,97.9 121.6,94.7 120,94.7 120,97.9 120,99.4 121.6,99.4 				"/>
				<rect x="121.6" y="93.1" class="st303" width="1.6" height="1.6"/>
				<rect x="123.1" y="91.5" class="st303" width="1.6" height="1.6"/>
				<rect x="124.7" y="90" class="st303" width="1.6" height="1.6"/>
				<rect x="126.3" y="88.4" class="st303" width="1.6" height="1.6"/>
				<rect x="124.7" y="104.2" class="st303" width="1.6" height="9.5"/>
				<rect x="126.3" y="99.4" class="st303" width="1.6" height="4.7"/>
				<polygon class="st303" points="124.7,113.7 123.1,113.7 123.1,120 124.7,120 124.7,118.4 126.3,118.4 126.3,116.8 124.7,116.8 
									"/>
				<polygon class="st303" points="129.4,112.1 129.4,113.7 127.9,113.7 127.9,115.2 126.3,115.2 126.3,116.8 129.4,116.8 
					129.4,115.2 131,115.2 131,113.7 132.6,113.7 132.6,112.1 				"/>
				<rect x="115.2" y="126.3" class="st303" width="1.6" height="1.6"/>
				<rect x="116.8" y="124.7" class="st303" width="1.6" height="1.6"/>
				<rect x="118.4" y="123.1" class="st303" width="1.6" height="1.6"/>
				<rect x="120" y="121.6" class="st303" width="1.6" height="1.6"/>
				<rect x="121.6" y="120" class="st303" width="1.6" height="1.6"/>
				<polygon class="st303" points="112.1,126.3 112.1,124.7 112.1,115.2 113.7,115.2 113.7,108.9 115.2,108.9 115.2,107.3 
					115.2,105.8 116.8,105.8 116.8,102.6 118.4,102.6 118.4,101 116.8,101 116.8,96.3 115.2,96.3 115.2,104.2 113.7,104.2 
					113.7,105.8 112.1,105.8 112.1,107.3 110.5,107.3 110.5,93.1 110.5,88.4 112.1,88.4 112.1,86.8 113.7,86.8 113.7,85.2 
					113.7,82.1 112.1,82.1 112.1,85.2 110.5,85.2 110.5,75.8 108.9,75.8 108.9,82.1 107.3,82.1 107.3,85.2 105.8,85.2 105.8,80.5 
					104.2,80.5 104.2,72.6 104.2,50.5 102.6,50.5 102.6,48.9 101,48.9 101,52.1 102.6,52.1 102.6,69.4 101,69.4 101,60 99.4,60 
					99.4,69.4 99.4,71 101,71 101,74.2 102.6,74.2 102.6,82.1 104.2,82.1 104.2,86.8 105.8,86.8 105.8,88.4 107.3,88.4 107.3,90 
					107.3,105.8 105.8,105.8 104.2,105.8 104.2,97.9 102.6,97.9 102.6,90 101,90 101,99.4 102.6,99.4 102.6,102.6 101,102.6 
					101,104.2 102.6,104.2 102.6,107.3 104.2,107.3 104.2,110.5 104.2,112.1 104.2,126.3 102.6,126.3 102.6,124.7 101,124.7 
					101,123.1 99.4,123.1 97.9,123.1 97.9,121.6 96.3,121.6 94.7,121.6 94.7,115.2 93.1,115.2 93.1,120 91.5,120 91.5,118.4 
					90,118.4 90,121.6 91.5,121.6 93.1,121.6 93.1,123.1 94.7,123.1 94.7,124.7 96.3,124.7 96.3,126.3 97.9,126.3 99.4,126.3 
					99.4,129.4 101,129.4 101,132.6 102.6,132.6 102.6,140.5 102.6,191 101,191 101,222.6 101,227.4 101,238.4 99.4,238.4 
					99.4,241.6 97.9,241.6 97.9,244.7 96.3,244.7 96.3,247.9 94.7,247.9 94.7,249.5 93.1,249.5 93.1,251 88.4,251 88.4,252.6 
					86.8,252.6 85.2,252.6 82.1,252.6 80.5,252.6 80.5,254.2 80.5,257.4 82.1,257.4 82.1,254.2 85.2,254.2 85.2,257.4 83.7,257.4 
					83.7,258.9 86.8,258.9 86.8,257.4 86.8,254.2 91.5,254.2 91.5,252.6 93.1,252.6 94.7,252.6 96.3,252.6 96.3,251 97.9,251 
					97.9,249.5 99.4,249.5 99.4,254.2 101,254.2 101,255.8 99.4,255.8 99.4,262.1 96.3,262.1 96.3,263.7 94.7,263.7 85.2,263.7 
					82.1,263.7 82.1,265.3 85.2,265.3 90,265.3 90,266.8 91.5,266.8 91.5,265.3 94.7,265.3 94.7,270 96.3,270 96.3,265.3 
					99.4,265.3 99.4,263.7 101,263.7 101,262.1 101,260.5 102.6,260.5 102.6,258.9 104.2,258.9 104.2,257.4 104.2,254.2 
					105.8,254.2 105.8,249.5 107.3,249.5 107.3,252.6 108.9,252.6 108.9,258.9 108.9,266.8 107.3,266.8 107.3,274.7 105.8,274.7 
					104.2,274.7 104.2,281 105.8,281 105.8,276.3 107.3,276.3 108.9,276.3 108.9,281 110.5,281 110.5,274.7 108.9,274.7 
					108.9,268.4 110.5,268.4 110.5,260.5 112.1,260.5 112.1,254.2 115.2,254.2 115.2,257.4 116.8,257.4 116.8,254.2 118.4,254.2 
					118.4,252.6 118.4,251 121.6,251 121.6,249.5 118.4,249.5 115.2,249.5 115.2,247.9 113.7,247.9 113.7,244.7 112.1,244.7 
					112.1,227.4 112.1,222.6 112.1,138.9 112.1,131 113.7,131 113.7,129.4 115.2,129.4 115.2,127.9 112.1,127.9 				"/>
				<rect x="91.5" y="108.9" class="st303" width="1.6" height="6.3"/>
				<rect x="88.4" y="97.9" class="st303" width="1.6" height="9.5"/>
				<rect x="90" y="107.3" class="st303" width="1.6" height="1.6"/>
				<rect x="88.4" y="116.8" class="st303" width="1.6" height="1.6"/>
				<rect x="86.8" y="115.2" class="st303" width="1.6" height="1.6"/>
				<rect x="85.2" y="113.7" class="st303" width="1.6" height="1.6"/>
				<rect x="83.7" y="112.1" class="st303" width="1.6" height="1.6"/>
				<rect x="82.1" y="110.5" class="st303" width="1.6" height="1.6"/>
				<rect x="93.1" y="270" class="st303" width="1.6" height="1.6"/>
				<rect x="82.1" y="268.4" class="st303" width="3.2" height="1.6"/>
				<polygon class="st303" points="85.2,266.8 85.2,268.4 86.8,268.4 90,268.4 90,266.8 86.8,266.8 				"/>
				<rect x="110.5" y="281" class="st303" width="1.6" height="1.6"/>
				<rect x="102.6" y="281" class="st303" width="1.6" height="3.2"/>
				<rect x="101" y="284.2" class="st303" width="1.6" height="1.6"/>
				<rect x="118.4" y="254.2" class="st303" width="1.6" height="1.6"/>
				<rect x="120" y="255.8" class="st303" width="1.6" height="1.6"/>
				<rect x="121.6" y="257.4" class="st303" width="1.6" height="1.6"/>
				<rect x="123.1" y="258.9" class="st303" width="1.6" height="1.6"/>
				<rect x="124.7" y="260.5" class="st303" width="1.6" height="1.6"/>
				<rect x="126.3" y="262.1" class="st303" width="1.6" height="3.2"/>
				<polygon class="st303" points="124.7,252.6 126.3,252.6 129.4,252.6 129.4,251 126.3,251 124.7,251 121.6,251 121.6,252.6 				
					"/>
				<polygon class="st303" points="116.8,260.5 118.4,260.5 118.4,263.7 120,263.7 120,260.5 120,258.9 118.4,258.9 118.4,257.4 
					116.8,257.4 116.8,258.9 				"/>
				<rect x="120" y="263.7" class="st303" width="1.6" height="3.2"/>
				<rect x="121.6" y="266.8" class="st303" width="3.2" height="1.6"/>
				<rect x="124.7" y="268.4" class="st303" width="1.6" height="1.6"/>
				<rect x="78.9" y="257.4" class="st303" width="1.6" height="1.6"/>
				<rect x="77.3" y="258.9" class="st303" width="1.6" height="1.6"/>
				<rect x="82.1" y="258.9" class="st303" width="1.6" height="1.6"/>
			</g>
		</g>
		<g>
			<polygon class="st306" points="173.7,82.1 173.7,78.9 173.7,72.6 175.2,72.6 175.2,69.4 176.8,69.4 176.8,52.1 180,52.1 
				180,48.9 181.6,48.9 181.6,47.3 183.1,47.3 183.1,39.4 183.1,36.3 184.7,36.3 184.7,30 187.9,30 187.9,26.8 191,26.8 191,23.6 
				194.2,23.6 194.2,22.1 197.4,22.1 197.4,20.5 200.5,20.5 200.5,22.1 202.1,22.1 202.1,23.6 205.2,23.6 205.2,25.2 206.8,25.2 
				206.8,26.8 210,26.8 210,30 211.6,30 211.6,36.3 214.7,36.3 214.7,39.4 216.3,39.4 216.3,44.2 217.9,44.2 217.9,45.8 221,45.8 
				221,48.9 222.6,48.9 222.6,56.8 224.2,56.8 224.2,64.7 225.8,64.7 225.8,67.9 227.4,67.9 227.4,74.2 230.5,74.2 230.5,80.5 
				232.1,80.5 232.1,83.7 233.7,83.7 233.7,90 232.1,90 232.1,91.5 230.5,91.5 230.5,96.3 227.4,96.3 227.4,97.9 230.5,97.9 
				230.5,99.4 232.1,99.4 232.1,124.7 230.5,124.7 230.5,126.3 228.9,126.3 228.9,127.9 225.8,127.9 225.8,129.4 224.2,129.4 
				224.2,132.6 222.6,132.6 222.6,134.2 221,134.2 221,137.3 219.5,137.3 219.5,138.9 217.9,138.9 217.9,140.5 216.3,140.5 
				216.3,142.1 214.7,142.1 214.7,143.7 213.1,143.7 213.1,145.2 211.6,145.2 211.6,146.8 198.9,146.8 198.9,145.2 197.4,145.2 
				197.4,143.7 195.8,143.7 195.8,142.1 194.2,142.1 194.2,140.5 192.6,140.5 192.6,138.9 191,138.9 191,137.3 189.5,137.3 
				189.5,134.2 187.9,134.2 187.9,132.6 186.3,132.6 186.3,131 180,131 180,129.4 178.4,129.4 178.4,126.3 176.8,126.3 176.8,124.7 
				175.2,124.7 175.2,99.4 176.8,99.4 176.8,97.9 175.2,97.9 175.2,96.3 173.7,96.3 173.7,93.1 172.1,93.1 172.1,88.4 172.1,85.2 
				172.1,82.1 			"/>
			
				<rect x="203.7" y="86.8" transform="matrix(-1 -4.377044e-11 4.377044e-11 -1 408.9189 200.4658)" class="st303" width="1.6" height="26.8"/>
			
				<rect x="191" y="28.4" transform="matrix(-1 -4.492241e-11 4.492241e-11 -1 383.6519 58.3393)" class="st305" width="1.6" height="1.6"/>
			
				<rect x="202.1" y="26.8" transform="matrix(-1 -4.492241e-11 4.492241e-11 -1 405.7605 55.181)" class="st305" width="1.6" height="1.6"/>
			
				<rect x="206.8" y="33.1" transform="matrix(-1 -4.607438e-11 4.607438e-11 -1 415.2356 67.8144)" class="st305" width="1.6" height="1.6"/>
			<rect x="195.8" y="25.2" class="st305" width="1.6" height="1.6"/>
			
				<rect x="191" y="39.4" transform="matrix(-1 -4.492241e-11 4.492241e-11 -1 383.6519 80.4479)" class="st305" width="1.6" height="1.6"/>
			
				<rect x="184.7" y="47.3" transform="matrix(-1 -4.607438e-11 4.607438e-11 -1 371.0184 96.2397)" class="st305" width="1.6" height="1.6"/>
			
				<rect x="187.9" y="34.7" transform="matrix(-1 -4.722634e-11 4.722634e-11 -1 377.3352 70.9728)" class="st305" width="1.6" height="1.6"/>
			
				<rect x="192.6" y="45.8" transform="matrix(-1 -4.377044e-11 4.377044e-11 -1 386.8103 93.0814)" class="st305" width="1.6" height="1.6"/>
			
				<rect x="206.8" y="45.8" transform="matrix(-1 -4.492241e-11 4.492241e-11 -1 415.2356 93.0814)" class="st305" width="1.6" height="1.6"/>
			
				<rect x="213.1" y="53.6" transform="matrix(-1 -4.377044e-11 4.377044e-11 -1 427.869 108.8732)" class="st305" width="1.6" height="1.6"/>
			
				<rect x="217.9" y="48.9" transform="matrix(-1 -4.377044e-11 4.377044e-11 -1 437.3441 99.3981)" class="st305" width="1.6" height="1.6"/>
			
				<rect x="210" y="39.4" transform="matrix(-1 -4.492241e-11 4.492241e-11 -1 421.5523 80.4479)" class="st305" width="1.6" height="1.6"/>
			
				<rect x="216.3" y="60" transform="matrix(-1 -4.492241e-11 4.492241e-11 -1 434.1858 121.5067)" class="st305" width="1.6" height="1.6"/>
			
				<rect x="222.6" y="67.9" transform="matrix(-1 -4.607438e-11 4.607438e-11 -1 446.8192 137.2985)" class="st305" width="1.6" height="1.6"/>
			
				<rect x="210" y="77.3" transform="matrix(-1 -4.492241e-11 4.492241e-11 -1 421.5523 156.2487)" class="st305" width="1.6" height="1.6"/>
			
				<rect x="213.1" y="64.7" transform="matrix(-1 -4.607438e-11 4.607438e-11 -1 427.869 130.9818)" class="st305" width="1.6" height="1.6"/>
			
				<rect x="202.1" y="66.3" transform="matrix(-1 -4.492241e-11 4.492241e-11 -1 405.7605 134.1401)" class="st305" width="1.6" height="1.6"/>
			
				<rect x="202.1" y="55.2" transform="matrix(-1 -4.607438e-11 4.607438e-11 -1 405.7605 112.0316)" class="st305" width="1.6" height="1.6"/>
			
				<rect x="195.8" y="56.8" transform="matrix(-1 -4.492241e-11 4.492241e-11 -1 393.127 115.1899)" class="st305" width="1.6" height="1.6"/>
			
				<rect x="187.9" y="63.1" transform="matrix(-1 -4.607438e-11 4.607438e-11 -1 377.3352 127.8234)" class="st305" width="1.6" height="1.6"/>
			
				<rect x="189.5" y="53.6" transform="matrix(-1 -4.377044e-11 4.377044e-11 -1 380.4935 108.8732)" class="st305" width="1.6" height="1.6"/>
			
				<rect x="178.4" y="71" transform="matrix(-1 -4.492241e-11 4.492241e-11 -1 358.385 143.6152)" class="st305" width="1.6" height="1.6"/>
			<rect x="178.4" y="56.8" class="st305" width="1.6" height="1.6"/>
			
				<rect x="183.1" y="53.6" transform="matrix(-1 -4.492241e-11 4.492241e-11 -1 367.8601 108.8732)" class="st305" width="1.6" height="1.6"/>
			
				<rect x="180" y="80.5" transform="matrix(-1 -4.377044e-11 4.377044e-11 -1 361.5433 162.5654)" class="st305" width="1.6" height="1.6"/>
			
				<rect x="175.2" y="90" transform="matrix(-1 -4.607438e-11 4.607438e-11 -1 352.0682 181.5156)" class="st305" width="1.6" height="1.6"/>
			
				<rect x="184.7" y="96.3" transform="matrix(-1 -4.377044e-11 4.377044e-11 -1 371.0184 194.1491)" class="st305" width="1.6" height="1.6"/>
			
				<rect x="195.8" y="91.5" transform="matrix(-1 -4.492241e-11 4.492241e-11 -1 393.127 184.674)" class="st305" width="1.6" height="1.6"/>
			
				<rect x="191" y="71" transform="matrix(-1 -4.377044e-11 4.377044e-11 -1 383.6519 143.6152)" class="st305" width="1.6" height="1.6"/>
			
				<rect x="191" y="108.9" transform="matrix(-1 -4.377044e-11 4.377044e-11 -1 383.6519 219.416)" class="st305" width="1.6" height="1.6"/>
			
				<rect x="176.8" y="105.8" transform="matrix(-1 -4.377044e-11 4.377044e-11 -1 355.2266 213.0993)" class="st305" width="1.6" height="1.6"/>
			
				<rect x="181.6" y="124.7" transform="matrix(-1 -4.492241e-11 4.492241e-11 -1 364.7017 250.9997)" class="st305" width="1.6" height="1.6"/>
			
				<rect x="194.2" y="120" transform="matrix(-1 -4.492241e-11 4.492241e-11 -1 389.9687 241.5246)" class="st305" width="1.6" height="1.6"/>
			
				<rect x="194.2" y="132.6" transform="matrix(-1 -4.492241e-11 4.492241e-11 -1 389.9687 266.7915)" class="st305" width="1.6" height="1.6"/>
			
				<rect x="214.7" y="132.6" transform="matrix(-1 -4.492241e-11 4.492241e-11 -1 431.0274 266.7915)" class="st305" width="1.6" height="1.6"/>
			
				<rect x="211.6" y="137.3" transform="matrix(-1 -4.377044e-11 4.377044e-11 -1 424.7107 276.2666)" class="st305" width="1.6" height="1.6"/>
			
				<rect x="224.2" y="124.7" transform="matrix(-1 -4.377044e-11 4.377044e-11 -1 449.9776 250.9997)" class="st305" width="1.6" height="1.6"/>
			
				<rect x="227.4" y="115.2" transform="matrix(-1 -4.607438e-11 4.607438e-11 -1 456.2943 232.0495)" class="st305" width="1.6" height="1.6"/>
			
				<rect x="224.2" y="107.3" transform="matrix(-1 -4.377044e-11 4.377044e-11 -1 449.9776 216.2576)" class="st305" width="1.6" height="1.6"/>
			
				<rect x="210" y="105.8" transform="matrix(-1 -4.377044e-11 4.377044e-11 -1 421.5523 213.0993)" class="st305" width="1.6" height="1.6"/>
			
				<rect x="211.6" y="113.7" transform="matrix(-1 -4.492241e-11 4.492241e-11 -1 424.7107 228.8911)" class="st305" width="1.6" height="1.6"/>
			
				<rect x="224.2" y="93.1" transform="matrix(-1 -4.607438e-11 4.607438e-11 -1 449.9776 187.8324)" class="st305" width="1.6" height="1.6"/>
			
				<rect x="216.3" y="99.4" transform="matrix(-1 -4.377044e-11 4.377044e-11 -1 434.1858 200.4658)" class="st305" width="1.6" height="1.6"/>
			
				<rect x="225.8" y="80.5" transform="matrix(-1 -4.607438e-11 4.607438e-11 -1 453.136 162.5654)" class="st305" width="1.6" height="1.6"/>
			
				<rect x="213.1" y="85.2" transform="matrix(-1 -4.607438e-11 4.607438e-11 -1 427.869 172.0405)" class="st305" width="1.6" height="1.6"/>
			
				<rect x="219.5" y="78.9" transform="matrix(-1 -4.492241e-11 4.492241e-11 -1 440.5025 159.4071)" class="st305" width="1.6" height="1.6"/>
			<g>
				<polygon class="st303" points="200.5,64.7 200.5,45.8 202.1,45.8 202.1,41 203.7,41 203.7,36.3 202.1,36.3 202.1,39.4 
					200.5,39.4 200.5,30 198.9,30 198.9,64.7 198.9,66.3 198.9,75.8 200.5,75.8 200.5,66.3 				"/>
				<rect x="194.2" y="50.5" class="st303" width="1.6" height="30"/>
				<rect x="195.8" y="80.5" class="st303" width="1.6" height="1.6"/>
				<rect x="222.6" y="85.2" class="st303" width="1.6" height="1.6"/>
				<rect x="221" y="86.8" class="st303" width="1.6" height="3.2"/>
				<rect x="219.5" y="90" class="st303" width="1.6" height="1.6"/>
				<rect x="217.9" y="91.5" class="st303" width="1.6" height="1.6"/>
				<polygon class="st303" points="216.3,94.7 217.9,94.7 217.9,93.1 216.3,93.1 214.7,93.1 214.7,96.3 216.3,96.3 				"/>
				<rect x="213.1" y="96.3" class="st303" width="1.6" height="1.6"/>
				<rect x="211.6" y="97.9" class="st303" width="1.6" height="3.2"/>
				<rect x="210" y="101" class="st303" width="1.6" height="1.6"/>
				<polygon class="st303" points="211.6,88.4 211.6,83.7 210,83.7 210,88.4 210,90 211.6,90 				"/>
				<rect x="216.3" y="64.7" class="st303" width="1.6" height="6.3"/>
				<polygon class="st303" points="216.3,78.9 217.9,78.9 217.9,77.3 216.3,77.3 216.3,71 214.7,71 214.7,80.5 216.3,80.5 				"/>
				<rect x="213.1" y="80.5" class="st303" width="1.6" height="1.6"/>
				<rect x="211.6" y="82.1" class="st303" width="1.6" height="1.6"/>
				<rect x="221" y="74.2" class="st303" width="1.6" height="1.6"/>
				<polygon class="st303" points="221,77.3 221,75.8 219.5,75.8 217.9,75.8 217.9,77.3 219.5,77.3 				"/>
				<rect x="222.6" y="72.6" class="st303" width="1.6" height="1.6"/>
				<rect x="183.1" y="60" class="st303" width="1.6" height="3.2"/>
				<rect x="184.7" y="63.1" class="st303" width="1.6" height="6.3"/>
				<rect x="186.3" y="69.4" class="st303" width="1.6" height="6.3"/>
				<polygon class="st303" points="187.9,75.8 187.9,78.9 186.3,78.9 186.3,80.5 187.9,80.5 187.9,82.1 189.5,82.1 189.5,75.8 				
					"/>
				<rect x="184.7" y="77.3" class="st303" width="1.6" height="1.6"/>
				<rect x="183.1" y="75.8" class="st303" width="1.6" height="1.6"/>
				<rect x="181.6" y="74.2" class="st303" width="1.6" height="1.6"/>
				<polygon class="st303" points="192.6,90 192.6,83.7 191,83.7 191,82.1 189.5,82.1 189.5,85.2 191,85.2 191,91.5 192.6,91.5 
					192.6,96.3 194.2,96.3 194.2,90 				"/>
				<rect x="191" y="99.4" class="st303" width="1.6" height="1.6"/>
				<polygon class="st303" points="191,94.7 189.5,94.7 189.5,97.9 189.5,99.4 191,99.4 191,97.9 				"/>
				<rect x="187.9" y="93.1" class="st303" width="1.6" height="1.6"/>
				<rect x="186.3" y="91.5" class="st303" width="1.6" height="1.6"/>
				<rect x="184.7" y="90" class="st303" width="1.6" height="1.6"/>
				<rect x="183.1" y="88.4" class="st303" width="1.6" height="1.6"/>
				<rect x="184.7" y="104.2" class="st303" width="1.6" height="9.5"/>
				<rect x="183.1" y="99.4" class="st303" width="1.6" height="4.7"/>
				<polygon class="st303" points="186.3,113.7 186.3,116.8 184.7,116.8 184.7,118.4 186.3,118.4 186.3,120 187.9,120 187.9,113.7 
									"/>
				<polygon class="st303" points="183.1,115.2 183.1,113.7 181.6,113.7 181.6,112.1 178.4,112.1 178.4,113.7 180,113.7 180,115.2 
					181.6,115.2 181.6,116.8 184.7,116.8 184.7,115.2 				"/>
				<rect x="194.2" y="126.3" class="st303" width="1.6" height="1.6"/>
				<rect x="192.6" y="124.7" class="st303" width="1.6" height="1.6"/>
				<rect x="191" y="123.1" class="st303" width="1.6" height="1.6"/>
				<rect x="189.5" y="121.6" class="st303" width="1.6" height="1.6"/>
				<rect x="187.9" y="120" class="st303" width="1.6" height="1.6"/>
				<polygon class="st303" points="230.5,252.6 228.9,252.6 225.8,252.6 224.2,252.6 222.6,252.6 222.6,251 217.9,251 217.9,249.5 
					216.3,249.5 216.3,247.9 214.7,247.9 214.7,244.7 213.1,244.7 213.1,241.6 211.6,241.6 211.6,238.4 210,238.4 210,225.8 
					210,222.6 210,172.1 208.4,172.1 208.4,140.5 208.4,132.6 210,132.6 210,129.4 211.6,129.4 211.6,126.3 213.1,126.3 
					214.7,126.3 214.7,124.7 216.3,124.7 216.3,123.1 217.9,123.1 217.9,121.6 219.5,121.6 221,121.6 221,118.4 219.5,118.4 
					219.5,120 217.9,120 217.9,115.2 216.3,115.2 216.3,121.6 214.7,121.6 213.1,121.6 213.1,123.1 211.6,123.1 210,123.1 
					210,124.7 208.4,124.7 208.4,126.3 206.8,126.3 206.8,112.1 206.8,110.5 206.8,107.3 208.4,107.3 208.4,104.2 210,104.2 
					210,102.6 208.4,102.6 208.4,99.4 210,99.4 210,90 208.4,90 208.4,97.9 206.8,97.9 206.8,105.8 205.2,105.8 203.7,105.8 
					203.7,90 203.7,88.4 205.2,88.4 205.2,86.8 206.8,86.8 206.8,82.1 208.4,82.1 208.4,74.2 210,74.2 210,71 211.6,71 211.6,69.4 
					211.6,60 210,60 210,69.4 208.4,69.4 208.4,52.1 210,52.1 210,48.9 208.4,48.9 208.4,50.5 206.8,50.5 206.8,72.6 206.8,80.5 
					205.2,80.5 205.2,85.2 203.7,85.2 203.7,82.1 202.1,82.1 202.1,75.8 200.5,75.8 200.5,85.2 198.9,85.2 198.9,82.1 197.4,82.1 
					197.4,85.2 197.4,86.8 198.9,86.8 198.9,88.4 200.5,88.4 200.5,93.1 200.5,107.3 198.9,107.3 198.9,105.8 197.4,105.8 
					197.4,104.2 195.8,104.2 195.8,96.3 194.2,96.3 194.2,101 192.6,101 192.6,102.6 194.2,102.6 194.2,105.8 195.8,105.8 
					195.8,107.3 195.8,108.9 197.4,108.9 197.4,115.2 198.9,115.2 198.9,124.7 198.9,126.3 198.9,127.9 195.8,127.9 195.8,129.4 
					197.4,129.4 197.4,131 198.9,131 198.9,138.9 198.9,222.6 198.9,227.4 198.9,244.7 197.4,244.7 197.4,247.9 195.8,247.9 
					195.8,249.5 192.6,249.5 189.5,249.5 189.5,251 192.6,251 192.6,252.6 192.6,254.2 194.2,254.2 194.2,257.4 195.8,257.4 
					195.8,254.2 198.9,254.2 198.9,260.5 200.5,260.5 200.5,268.4 202.1,268.4 202.1,274.7 200.5,274.7 200.5,281 202.1,281 
					202.1,276.3 203.7,276.3 205.2,276.3 205.2,281 206.8,281 206.8,274.7 205.2,274.7 203.7,274.7 203.7,266.8 202.1,266.8 
					202.1,258.9 202.1,252.6 203.7,252.6 203.7,249.5 205.2,249.5 205.2,254.2 206.8,254.2 206.8,257.4 206.8,258.9 208.4,258.9 
					208.4,260.5 210,260.5 210,262.1 210,263.7 211.6,263.7 211.6,265.3 214.7,265.3 214.7,270 216.3,270 216.3,265.3 219.5,265.3 
					219.5,266.8 221,266.8 221,265.3 225.8,265.3 228.9,265.3 228.9,263.7 225.8,263.7 216.3,263.7 214.7,263.7 214.7,262.1 
					211.6,262.1 211.6,255.8 210,255.8 210,254.2 211.6,254.2 211.6,249.5 213.1,249.5 213.1,251 214.7,251 214.7,252.6 
					216.3,252.6 217.9,252.6 219.5,252.6 219.5,254.2 224.2,254.2 224.2,257.4 224.2,258.9 227.4,258.9 227.4,257.4 225.8,257.4 
					225.8,254.2 228.9,254.2 228.9,257.4 230.5,257.4 230.5,254.2 				"/>
				<rect x="217.9" y="108.9" class="st303" width="1.6" height="6.3"/>
				<rect x="221" y="97.9" class="st303" width="1.6" height="9.5"/>
				<rect x="219.5" y="107.3" class="st303" width="1.6" height="1.6"/>
				<rect x="221" y="116.8" class="st303" width="1.6" height="1.6"/>
				<rect x="222.6" y="115.2" class="st303" width="1.6" height="1.6"/>
				<rect x="224.2" y="113.7" class="st303" width="1.6" height="1.6"/>
				<rect x="225.8" y="112.1" class="st303" width="1.6" height="1.6"/>
				<rect x="227.4" y="110.5" class="st303" width="1.6" height="1.6"/>
				<rect x="216.3" y="270" class="st303" width="1.6" height="1.6"/>
				<rect x="225.8" y="268.4" class="st303" width="3.2" height="1.6"/>
				<polygon class="st303" points="224.2,268.4 225.8,268.4 225.8,266.8 224.2,266.8 221,266.8 221,268.4 				"/>
				<rect x="198.9" y="281" class="st303" width="1.6" height="1.6"/>
				<rect x="206.8" y="281" class="st303" width="1.6" height="3.2"/>
				<rect x="208.4" y="284.2" class="st303" width="1.6" height="1.6"/>
				<rect x="191" y="254.2" class="st303" width="1.6" height="1.6"/>
				<rect x="189.5" y="255.8" class="st303" width="1.6" height="1.6"/>
				<rect x="187.9" y="257.4" class="st303" width="1.6" height="1.6"/>
				<rect x="186.3" y="258.9" class="st303" width="1.6" height="1.6"/>
				<rect x="184.7" y="260.5" class="st303" width="1.6" height="1.6"/>
				<rect x="183.1" y="262.1" class="st303" width="1.6" height="3.2"/>
				<polygon class="st303" points="184.7,251 181.6,251 181.6,252.6 184.7,252.6 186.3,252.6 189.5,252.6 189.5,251 186.3,251 				
					"/>
				<polygon class="st303" points="192.6,258.9 191,258.9 191,260.5 191,263.7 192.6,263.7 192.6,260.5 194.2,260.5 194.2,258.9 
					194.2,257.4 192.6,257.4 				"/>
				<rect x="189.5" y="263.7" class="st303" width="1.6" height="3.2"/>
				<rect x="186.3" y="266.8" class="st303" width="3.2" height="1.6"/>
				<rect x="184.7" y="268.4" class="st303" width="1.6" height="1.6"/>
				<rect x="230.5" y="257.4" class="st303" width="1.6" height="1.6"/>
				<rect x="232.1" y="258.9" class="st303" width="1.6" height="1.6"/>
				<rect x="227.4" y="258.9" class="st303" width="1.6" height="1.6"/>
			</g>
		</g>
		<rect x="150" y="257.4" class="st303" width="1.6" height="1.6"/>
		<rect x="161" y="274.7" class="st303" width="1.6" height="1.6"/>
		<rect x="129.4" y="287.4" class="st303" width="1.6" height="1.6"/>
		<rect x="134.2" y="255.8" class="st303" width="1.6" height="1.6"/>
		<rect x="132.6" y="244.7" class="st303" width="1.6" height="1.6"/>
		<rect x="83.7" y="247.9" class="st303" width="1.6" height="1.6"/>
		<rect x="86.8" y="287.4" class="st303" width="1.6" height="1.6"/>
		<rect x="80.5" y="276.3" class="st303" width="1.6" height="1.6"/>
		<rect x="180" y="281" class="st303" width="1.6" height="1.6"/>
		<rect x="172.1" y="244.7" class="st303" width="1.6" height="1.6"/>
		<rect x="216.3" y="279.5" class="st303" width="1.6" height="1.6"/>
		<rect x="200.5" y="296.8" class="st303" width="1.6" height="1.6"/>
		<rect x="189.5" y="288.9" class="st303" width="1.6" height="1.6"/>
		<rect x="162.6" y="290.5" class="st303" width="1.6" height="1.6"/>
		<rect x="142.1" y="273.2" class="st303" width="1.6" height="1.6"/>
		<rect x="143.7" y="295.3" class="st303" width="1.6" height="1.6"/>
		<rect x="164.2" y="257.4" class="st303" width="1.6" height="1.6"/>
		<rect x="102.6" y="293.7" class="st303" width="1.6" height="1.6"/>
		<rect x="97.9" y="276.3" class="st303" width="1.6" height="1.6"/>
		<g>
			<rect x="224.2" y="214.7" class="st304" width="9.5" height="77.4"/>
			<rect x="224.2" y="214.7" class="st308" width="9.5" height="1.6"/>
			<rect x="224.2" y="233.7" class="st308" width="9.5" height="1.6"/>
			<rect x="230.5" y="224.2" class="st308" width="1.6" height="1.6"/>
			<rect x="225.8" y="230.5" class="st308" width="1.6" height="1.6"/>
			<rect x="224.2" y="252.6" class="st308" width="9.5" height="1.6"/>
			<rect x="224.2" y="271.6" class="st308" width="9.5" height="1.6"/>
			<rect x="224.2" y="290.5" class="st308" width="9.5" height="1.6"/>
			<rect x="225.8" y="217.9" class="st308" width="1.6" height="1.6"/>
			<rect x="230.5" y="240" class="st308" width="1.6" height="1.6"/>
			<rect x="227.4" y="247.9" class="st308" width="1.6" height="1.6"/>
			<rect x="227.4" y="257.4" class="st308" width="1.6" height="1.6"/>
			<rect x="225.8" y="255.8" class="st308" width="1.6" height="1.6"/>
			<rect x="230.5" y="266.8" class="st308" width="1.6" height="1.6"/>
			<rect x="227.4" y="268.4" class="st308" width="1.6" height="1.6"/>
			<rect x="230.5" y="260.5" class="st308" width="1.6" height="1.6"/>
			<rect x="227.4" y="282.6" class="st308" width="1.6" height="1.6"/>
			<rect x="228.9" y="285.8" class="st308" width="1.6" height="1.6"/>
			<rect x="230.5" y="276.3" class="st308" width="1.6" height="1.6"/>
			<rect x="224.2" y="274.7" class="st308" width="1.6" height="1.6"/>
			<rect x="225.8" y="288.9" class="st308" width="1.6" height="1.6"/>
			<rect x="232.1" y="251" class="st308" width="1.6" height="1.6"/>
			<rect x="230.5" y="230.5" class="st308" width="1.6" height="1.6"/>
		</g>
		<g>
			
				<rect x="71" y="214.7" transform="matrix(-1 -1.224647e-16 1.224647e-16 -1 151.427 506.8273)" class="st304" width="9.5" height="77.4"/>
			
				<rect x="71" y="290.5" transform="matrix(-1 -1.224647e-16 1.224647e-16 -1 151.427 582.6281)" class="st308" width="9.5" height="1.6"/>
			
				<rect x="71" y="271.6" transform="matrix(-1 -1.224647e-16 1.224647e-16 -1 151.427 544.7277)" class="st308" width="9.5" height="1.6"/>
			
				<rect x="72.6" y="281" transform="matrix(-1 -1.224647e-16 1.224647e-16 -1 146.6894 563.6779)" class="st308" width="1.6" height="1.6"/>
			
				<rect x="77.3" y="274.7" transform="matrix(-1 -1.224647e-16 1.224647e-16 -1 156.1645 551.0445)" class="st308" width="1.6" height="1.6"/>
			
				<rect x="71" y="252.6" transform="matrix(-1 -1.224647e-16 1.224647e-16 -1 151.427 506.8273)" class="st308" width="9.5" height="1.6"/>
			
				<rect x="71" y="233.7" transform="matrix(-1 -1.224647e-16 1.224647e-16 -1 151.427 468.9269)" class="st308" width="9.5" height="1.6"/>
			
				<rect x="71" y="214.7" transform="matrix(-1 -1.224647e-16 1.224647e-16 -1 151.427 431.0266)" class="st308" width="9.5" height="1.6"/>
			
				<rect x="77.3" y="287.4" transform="matrix(-1 -1.224647e-16 1.224647e-16 -1 156.1645 576.3114)" class="st308" width="1.6" height="1.6"/>
			
				<rect x="72.6" y="265.3" transform="matrix(-1 -1.224647e-16 1.224647e-16 -1 146.6894 532.0943)" class="st308" width="1.6" height="1.6"/>
			
				<rect x="75.7" y="257.4" transform="matrix(-1 -1.224647e-16 1.224647e-16 -1 153.0061 516.3024)" class="st308" width="1.6" height="1.6"/>
			
				<rect x="75.7" y="247.9" transform="matrix(-1 -1.224647e-16 1.224647e-16 -1 153.0061 497.3522)" class="st308" width="1.6" height="1.6"/>
			
				<rect x="77.3" y="249.5" transform="matrix(-1 -1.224647e-16 1.224647e-16 -1 156.1645 500.5106)" class="st308" width="1.6" height="1.6"/>
			
				<rect x="72.6" y="238.4" transform="matrix(-1 -1.224647e-16 1.224647e-16 -1 146.6894 478.402)" class="st308" width="1.6" height="1.6"/>
			
				<rect x="75.7" y="236.8" transform="matrix(-1 -1.224647e-16 1.224647e-16 -1 153.0061 475.2437)" class="st308" width="1.6" height="1.6"/>
			
				<rect x="72.6" y="244.7" transform="matrix(-1 -1.224647e-16 1.224647e-16 -1 146.6894 491.0355)" class="st308" width="1.6" height="1.6"/>
			
				<rect x="75.7" y="222.6" transform="matrix(-1 -1.224647e-16 1.224647e-16 -1 153.0061 446.8184)" class="st308" width="1.6" height="1.6"/>
			
				<rect x="74.1" y="219.5" transform="matrix(-1 -1.224647e-16 1.224647e-16 -1 149.8478 440.5016)" class="st308" width="1.6" height="1.6"/>
			
				<rect x="72.6" y="228.9" transform="matrix(-1 -1.224647e-16 1.224647e-16 -1 146.6894 459.4518)" class="st308" width="1.6" height="1.6"/>
			
				<rect x="78.9" y="230.5" transform="matrix(-1 -1.224647e-16 1.224647e-16 -1 159.3229 462.6102)" class="st308" width="1.6" height="1.6"/>
			
				<rect x="77.3" y="216.3" transform="matrix(-1 -1.224647e-16 1.224647e-16 -1 156.1645 434.1849)" class="st308" width="1.6" height="1.6"/>
			
				<rect x="71" y="254.2" transform="matrix(-1 -1.224647e-16 1.224647e-16 -1 143.5311 509.9857)" class="st308" width="1.6" height="1.6"/>
			
				<rect x="72.6" y="274.7" transform="matrix(-1 -1.224647e-16 1.224647e-16 -1 146.6894 551.0445)" class="st308" width="1.6" height="1.6"/>
		</g>
		<rect x="246.3" y="247.9" class="st295" width="14.2" height="1.6"/>
		<rect x="271.6" y="243.1" class="st295" width="11.1" height="1.6"/>
		<rect x="266.8" y="273.2" class="st295" width="9.5" height="1.6"/>
		<rect x="246.3" y="265.3" class="st295" width="7.9" height="1.6"/>
		<rect x="282.6" y="290.5" class="st295" width="9.5" height="1.6"/>
		<rect x="277.9" y="258.9" class="st295" width="14.2" height="1.6"/>
		<rect x="295.3" y="279.5" class="st295" width="4.7" height="1.6"/>
		<rect x="236.8" y="284.2" class="st295" width="11.1" height="1.6"/>
		<rect x="254.2" y="293.7" class="st295" width="9.5" height="1.6"/>
		<rect x="12.6" y="288.9" class="st295" width="14.2" height="1.6"/>
		<rect x="37.9" y="293.7" class="st295" width="11.1" height="1.6"/>
		<rect x="33.1" y="263.7" class="st295" width="9.5" height="1.6"/>
		<rect x="12.6" y="271.6" class="st295" width="7.9" height="1.6"/>
		<rect x="48.9" y="246.3" class="st295" width="9.5" height="1.6"/>
		<rect x="44.2" y="277.9" class="st295" width="14.2" height="1.6"/>
		<rect x="61.5" y="257.4" class="st295" width="4.7" height="1.6"/>
		<rect x="3.1" y="252.6" class="st295" width="11.1" height="1.6"/>
		<rect x="20.5" y="243.1" class="st295" width="9.5" height="1.6"/>
	</g>
</g>
</svg>
