<?xml version="1.0" encoding="utf-8"?>
<!-- Generator: Adobe Illustrator 25.2.3, SVG Export Plug-In . SVG Version: 6.00 Build 0)  -->
<svg version="1.1" xmlns="http://www.w3.org/2000/svg" xmlns:xlink="http://www.w3.org/1999/xlink" x="0px" y="0px"
	 viewBox="0 0 300 350" style="enable-background:new 0 0 300 350;" xml:space="preserve">
<style type="text/css">
	.st0{opacity:0.46;}
	.st1{fill:#66890B;}
	.st2{fill:#95BC51;}
	.st3{fill:#3F6905;}
	.st4{fill:#CBE46E;}
	.st5{fill:#757DE0;}
	.st6{fill:#CAC5FF;}
	.st7{fill:#E9ECFD;}
	.st8{opacity:0.41;}
	.st9{opacity:0.69;}
	.st10{opacity:0.27;fill:none;stroke:#57ADA0;stroke-miterlimit:10;}
	.st11{opacity:0.65;}
	.st12{opacity:0.54;}
	.st13{opacity:0.51;}
	.st14{fill:#3FA0A7;}
	.st15{fill:#AB7946;}
	.st16{fill:#03464F;}
	.st17{fill:#026385;}
	.st18{fill:#35BCC0;}
	.st19{fill:#018F9F;}
	.st20{fill:#A53A1C;}
	.st21{fill:#DF5330;}
	.st22{fill:#FF8039;}
	.st23{fill:#EE5E2F;}
	.st24{fill:#A51959;}
	.st25{fill:#C12573;}
	.st26{fill:#FF4DA6;}
	.st27{fill:#D2276E;}
	.st28{fill:#7F7973;}
	.st29{fill:#C0B5AA;}
	.st30{fill:#E4DED5;}
	.st31{fill:#514A43;}
	.st32{fill:#606161;}
	.st33{fill:#BEBFB9;}
	.st34{fill:#3A3A3A;}
	.st35{fill:#302C28;}
	.st36{fill:#161616;}
	.st37{fill:#E1E1DF;}
	.st38{fill:#163A20;}
	.st39{fill:#1A5C31;}
	.st40{fill:#3E9B50;}
	.st41{fill:#23763E;}
	.st42{fill:#41296D;}
	.st43{fill:#513C82;}
	.st44{fill:#775ABF;}
	.st45{fill:#614293;}
	.st46{fill:#6C0F13;}
	.st47{fill:#9E1F25;}
	.st48{fill:#E8222E;}
	.st49{fill:#CF232E;}
	.st50{fill:#D27633;}
	.st51{fill:#DD8A34;}
	.st52{fill:#F5C032;}
	.st53{fill:#F3A634;}
	.st54{fill:#D4EAFF;}
	.st55{fill:#EFFAFC;}
	.st56{fill:#171C05;}
	.st57{fill:#688F50;}
	.st58{fill:#92BA73;}
	.st59{fill:#9FC780;}
	.st60{fill:#A7CB8D;}
	.st61{fill:#9CC17B;}
	.st62{fill:#91B166;}
	.st63{fill:#88988D;}
	.st64{fill:#829788;}
	.st65{fill:#5B7A36;}
	.st66{fill:#2C4704;}
	.st67{fill:#415705;}
	.st68{fill:#7D9732;}
	.st69{fill:#778B34;}
	.st70{fill:#879935;}
	.st71{fill:#A3BA62;}
	.st72{fill:#BFDA95;}
	.st73{fill:#B7D690;}
	.st74{fill:#B8D88C;}
	.st75{fill:#B7D78B;}
	.st76{fill:#B8D68C;}
	.st77{fill:#B2D185;}
	.st78{fill:#AECE85;}
	.st79{fill:#ACC87E;}
	.st80{fill:#A3B078;}
	.st81{fill:#758D8F;}
	.st82{fill:#8B9DF1;}
	.st83{fill:#A3B7F2;}
	.st84{fill:#7FA35B;}
	.st85{fill:#6A9047;}
	.st86{fill:#3D6823;}
	.st87{fill:#325F1C;}
	.st88{fill:#33621E;}
	.st89{fill:#214E0B;}
	.st90{fill:#306811;}
	.st91{fill:#689339;}
	.st92{fill:#95BB6E;}
	.st93{fill:#9BC57D;}
	.st94{fill:#A2C781;}
	.st95{fill:#9AB67C;}
	.st96{fill:#B4C8A5;}
	.st97{fill:#97ACBD;}
	.st98{fill:#7F9C88;}
	.st99{fill:#617830;}
	.st100{fill:#56750D;}
	.st101{fill:#789529;}
	.st102{fill:#91A335;}
	.st103{fill:#A5B650;}
	.st104{fill:#A7BD5B;}
	.st105{fill:#C1D894;}
	.st106{fill:#BCDA9A;}
	.st107{fill:#BEDB98;}
	.st108{fill:#BDDC98;}
	.st109{fill:#B9DA95;}
	.st110{fill:#B0D087;}
	.st111{fill:#9EC477;}
	.st112{fill:#98B86D;}
	.st113{fill:#8D9750;}
	.st114{fill:#798749;}
	.st115{fill:#82964F;}
	.st116{fill:#7F9B6B;}
	.st117{fill:#819D77;}
	.st118{fill:#88A855;}
	.st119{fill:#789C52;}
	.st120{fill:#46732E;}
	.st121{fill:#295613;}
	.st122{fill:#1F490A;}
	.st123{fill:#20490D;}
	.st124{fill:#33680C;}
	.st125{fill:#40700D;}
	.st126{fill:#95B864;}
	.st127{fill:#9DC77F;}
	.st128{fill:#9FC37B;}
	.st129{fill:#B4D191;}
	.st130{fill:#BED9A2;}
	.st131{fill:#A2BD94;}
	.st132{fill:#728D40;}
	.st133{fill:#546E17;}
	.st134{fill:#7A932B;}
	.st135{fill:#B5AD64;}
	.st136{fill:#C2C86E;}
	.st137{fill:#B6BC5A;}
	.st138{fill:#AFB56D;}
	.st139{fill:#AEC87F;}
	.st140{fill:#BFDF96;}
	.st141{fill:#C3DD9C;}
	.st142{fill:#BCD997;}
	.st143{fill:#B3D48D;}
	.st144{fill:#83AD63;}
	.st145{fill:#68893A;}
	.st146{fill:#948C44;}
	.st147{fill:#898836;}
	.st148{fill:#68852B;}
	.st149{fill:#90AC57;}
	.st150{fill:#84A54E;}
	.st151{fill:#7E9C42;}
	.st152{fill:#7D9C56;}
	.st153{fill:#5E8640;}
	.st154{fill:#2D5B13;}
	.st155{fill:#1F4D0C;}
	.st156{fill:#1F4708;}
	.st157{fill:#2A5F07;}
	.st158{fill:#4F7B08;}
	.st159{fill:#80A814;}
	.st160{fill:#90BC5A;}
	.st161{fill:#92BC6A;}
	.st162{fill:#9AC478;}
	.st163{fill:#90B766;}
	.st164{fill:#95B957;}
	.st165{fill:#B0CD70;}
	.st166{fill:#7C9E4A;}
	.st167{fill:#6B861D;}
	.st168{fill:#849A35;}
	.st169{fill:#C5B077;}
	.st170{fill:#B8B872;}
	.st171{fill:#AEB855;}
	.st172{fill:#A9B263;}
	.st173{fill:#95AA65;}
	.st174{fill:#B4D68A;}
	.st175{fill:#BBD895;}
	.st176{fill:#A8CB87;}
	.st177{fill:#81AD62;}
	.st178{fill:#6D8C3E;}
	.st179{fill:#9C9046;}
	.st180{fill:#8F8E3E;}
	.st181{fill:#6E901F;}
	.st182{fill:#90AC45;}
	.st183{fill:#8BAD59;}
	.st184{fill:#729723;}
	.st185{fill:#749B1E;}
	.st186{fill:#547C19;}
	.st187{fill:#204903;}
	.st188{fill:#1F4804;}
	.st189{fill:#35570D;}
	.st190{fill:#2C600E;}
	.st191{fill:#376B07;}
	.st192{fill:#588300;}
	.st193{fill:#779E1D;}
	.st194{fill:#93B55E;}
	.st195{fill:#95BF75;}
	.st196{fill:#729D4B;}
	.st197{fill:#779D30;}
	.st198{fill:#8EB248;}
	.st199{fill:#A5CB80;}
	.st200{fill:#8EB363;}
	.st201{fill:#97B04A;}
	.st202{fill:#AAB674;}
	.st203{fill:#798E33;}
	.st204{fill:#889E32;}
	.st205{fill:#99A962;}
	.st206{fill:#899759;}
	.st207{fill:#99AC6A;}
	.st208{fill:#A5BF76;}
	.st209{fill:#A4C87E;}
	.st210{fill:#ABCA86;}
	.st211{fill:#A7C97F;}
	.st212{fill:#9DB36A;}
	.st213{fill:#939F53;}
	.st214{fill:#86922C;}
	.st215{fill:#749029;}
	.st216{fill:#94B250;}
	.st217{fill:#94B157;}
	.st218{fill:#91B03B;}
	.st219{fill:#7B9F01;}
	.st220{fill:#708B18;}
	.st221{fill:#596920;}
	.st222{fill:#485C15;}
	.st223{fill:#707F2A;}
	.st224{fill:#265F12;}
	.st225{fill:#3F6E08;}
	.st226{fill:#7C9F45;}
	.st227{fill:#82A74A;}
	.st228{fill:#94BA67;}
	.st229{fill:#9AC374;}
	.st230{fill:#83B05D;}
	.st231{fill:#629023;}
	.st232{fill:#88AE3F;}
	.st233{fill:#AFD389;}
	.st234{fill:#99C273;}
	.st235{fill:#A6C568;}
	.st236{fill:#B6CB86;}
	.st237{fill:#77933F;}
	.st238{fill:#6E8B2F;}
	.st239{fill:#718E34;}
	.st240{fill:#819148;}
	.st241{fill:#90A05F;}
	.st242{fill:#9CB271;}
	.st243{fill:#96B268;}
	.st244{fill:#95B569;}
	.st245{fill:#A8C37E;}
	.st246{fill:#A5BE7A;}
	.st247{fill:#8CA257;}
	.st248{fill:#7C9341;}
	.st249{fill:#849D49;}
	.st250{fill:#98B561;}
	.st251{fill:#A8C072;}
	.st252{fill:#A1BD4C;}
	.st253{fill:#7FA206;}
	.st254{fill:#9A9C49;}
	.st255{fill:#9E8B53;}
	.st256{fill:#90804D;}
	.st257{fill:#A19A4C;}
	.st258{fill:#2C5F10;}
	.st259{fill:#688D2E;}
	.st260{fill:#8CB25F;}
	.st261{fill:#9BC273;}
	.st262{fill:#9AC26C;}
	.st263{fill:#9CBE67;}
	.st264{fill:#94BC64;}
	.st265{fill:#98BC64;}
	.st266{fill:#A6C965;}
	.st267{fill:#B3D78F;}
	.st268{fill:#96C36E;}
	.st269{fill:#81AA42;}
	.st270{fill:#83A050;}
	.st271{fill:#819F45;}
	.st272{fill:#83A551;}
	.st273{fill:#799C40;}
	.st274{fill:#8FAE5E;}
	.st275{fill:#93AF65;}
	.st276{fill:#9CB86E;}
	.st277{fill:#98B66C;}
	.st278{fill:#85A854;}
	.st279{fill:#90AB5E;}
	.st280{fill:#9AB66C;}
	.st281{fill:#9EB668;}
	.st282{fill:#94B059;}
	.st283{fill:#7B983E;}
	.st284{fill:#80A345;}
	.st285{fill:#8EB052;}
	.st286{fill:#8AA941;}
	.st287{fill:#83A713;}
	.st288{fill:#8DA52B;}
	.st289{fill:#B2B371;}
	.st290{fill:#C0C084;}
	.st291{fill:#B4AF6B;}
	.st292{clip-path:url(#SVGID_2_);}
	.st293{clip-path:url(#SVGID_4_);}
	.st294{clip-path:url(#SVGID_6_);}
	.st295{fill:#7DC0C9;}
	.st296{fill:#16635B;}
	.st297{fill:#A1D7DB;}
	.st298{fill:#CDC982;}
	.st299{fill:#3C5B3B;}
	.st300{fill:#6B8C5F;}
	.st301{fill:#90AA7D;}
	.st302{fill:#A2B271;}
	.st303{fill:#69463A;}
	.st304{fill:#D6B36F;}
	.st305{fill:#9BB655;}
	.st306{fill:#618F46;}
	.st307{fill:#2B5A38;}
	.st308{fill:#7C672E;}
	.st309{fill:#ABA92E;}
	.st310{fill:#E2E57E;}
	.st311{fill:#CBCA6D;}
	.st312{stroke:#000000;stroke-width:0.5;stroke-miterlimit:10;}
</style>
<g id="layout">
</g>
<g id="GUIDES">
	<g>
		<g>
			<polygon class="st2" points="156.3,237.9 156.3,236.3 154.7,236.3 154.7,231.6 153.1,231.6 153.1,230 151.6,230 151.6,231.6 
				150,231.6 150,236.3 150,236.3 150,245.8 150,245.8 150,247.4 150,248.9 151.6,248.9 153.1,248.9 153.1,286.8 154.7,286.8 
				154.7,250.5 156.3,250.5 156.3,248.9 157.9,248.9 157.9,237.9 			"/>
			<polygon class="st1" points="172.1,275.8 172.1,274.2 170.5,274.2 170.5,272.6 168.9,272.6 168.9,271 167.3,271 167.3,269.5 
				162.6,269.5 159.5,269.5 159.5,271 157.9,271 157.9,272.6 156.3,272.6 156.3,274.2 154.7,274.2 154.7,275.8 156.3,275.8 
				157.9,275.8 157.9,277.4 161,277.4 161,278.9 167.3,278.9 168.9,278.9 172.1,278.9 172.1,277.4 173.7,277.4 173.7,275.8 			"/>
			<polygon class="st1" points="159.5,263.1 157.9,263.1 157.9,261.6 154.7,261.6 154.7,264.7 156.3,264.7 157.9,264.7 159.5,264.7 
				159.5,266.3 161,266.3 161,264.7 161,263.1 			"/>
			<g>
				<rect x="150" y="261.6" class="st1" width="3.2" height="1.6"/>
				<rect x="148.4" y="263.1" class="st1" width="1.6" height="1.6"/>
			</g>
			<g>
				<polygon class="st1" points="151.6,274.2 151.6,271 150,271 150,269.5 148.4,269.5 146.8,269.5 145.2,269.5 143.7,269.5 
					142.1,269.5 140.5,269.5 138.9,269.5 138.9,271 140.5,271 140.5,274.2 142.1,274.2 142.1,275.8 143.7,275.8 143.7,277.4 
					145.2,277.4 145.2,278.9 146.8,278.9 148.4,278.9 150,278.9 150,277.4 151.6,277.4 151.6,275.8 153.1,275.8 153.1,274.2 				"/>
				<rect x="137.3" y="267.9" class="st1" width="1.6" height="1.6"/>
			</g>
			<rect x="156.3" y="247.4" class="st5" width="1.6" height="1.6"/>
			<rect x="156.3" y="247.4" class="st5" width="1.6" height="3.2"/>
			<rect x="157.9" y="247.4" class="st5" width="1.6" height="1.6"/>
			<rect x="151.6" y="247.4" class="st5" width="1.6" height="3.2"/>
			<rect x="154.7" y="244.2" class="st5" width="1.6" height="1.6"/>
			<rect x="150" y="241" class="st5" width="3.2" height="1.6"/>
			<rect x="150" y="231.6" class="st5" width="3.2" height="1.6"/>
			<rect x="153.1" y="233.1" class="st6" width="1.6" height="1.6"/>
			<rect x="156.3" y="247.4" class="st6" width="1.6" height="1.6"/>
			<rect x="153.1" y="242.6" class="st6" width="1.6" height="1.6"/>
			<rect x="153.1" y="241" class="st1" width="1.6" height="1.6"/>
			<rect x="151.6" y="233.1" class="st1" width="1.6" height="1.6"/>
			<rect x="151.6" y="236.3" class="st1" width="1.6" height="1.6"/>
			<rect x="153.1" y="247.4" class="st1" width="1.6" height="1.6"/>
			<rect x="150" y="245.8" class="st1" width="1.6" height="1.6"/>
			<rect x="154.7" y="239.5" class="st1" width="1.6" height="1.6"/>
			<rect x="154.7" y="248.9" class="st1" width="1.6" height="1.6"/>
			<rect x="151.6" y="242.6" class="st1" width="1.6" height="1.6"/>
		</g>
		<g>
			<polygon class="st2" points="187.9,228.4 187.9,226.8 186.3,226.8 186.3,222.1 184.7,222.1 184.7,220.5 183.1,220.5 183.1,222.1 
				181.6,222.1 181.6,226.8 181.6,226.8 181.6,236.3 181.6,236.3 181.6,237.9 181.6,239.5 183.1,239.5 184.7,239.5 184.7,277.4 
				186.3,277.4 186.3,241 187.9,241 187.9,239.5 189.5,239.5 189.5,228.4 			"/>
			<polygon class="st1" points="203.7,266.3 203.7,264.7 202.1,264.7 202.1,263.1 200.5,263.1 200.5,261.6 198.9,261.6 198.9,260 
				194.2,260 191,260 191,261.6 189.5,261.6 189.5,263.1 187.9,263.1 187.9,264.7 186.3,264.7 186.3,266.3 187.9,266.3 189.5,266.3 
				189.5,267.9 192.6,267.9 192.6,269.5 198.9,269.5 200.5,269.5 203.7,269.5 203.7,267.9 205.2,267.9 205.2,266.3 			"/>
			<polygon class="st1" points="191,253.7 189.5,253.7 189.5,252.1 186.3,252.1 186.3,255.2 187.9,255.2 189.5,255.2 191,255.2 
				191,256.8 192.6,256.8 192.6,255.2 192.6,253.7 			"/>
			<g>
				<rect x="181.6" y="252.1" class="st1" width="3.2" height="1.6"/>
				<rect x="180" y="253.7" class="st1" width="1.6" height="1.6"/>
			</g>
			<g>
				<polygon class="st1" points="183.1,264.7 183.1,261.6 181.6,261.6 181.6,260 180,260 178.4,260 176.8,260 175.2,260 173.7,260 
					172.1,260 170.5,260 170.5,261.6 172.1,261.6 172.1,264.7 173.7,264.7 173.7,266.3 175.2,266.3 175.2,267.9 176.8,267.9 
					176.8,269.5 178.4,269.5 180,269.5 181.6,269.5 181.6,267.9 183.1,267.9 183.1,266.3 184.7,266.3 184.7,264.7 				"/>
				<rect x="168.9" y="258.4" class="st1" width="1.6" height="1.6"/>
			</g>
			<rect x="187.9" y="237.9" class="st5" width="1.6" height="1.6"/>
			<rect x="187.9" y="237.9" class="st5" width="1.6" height="3.2"/>
			<rect x="189.5" y="237.9" class="st5" width="1.6" height="1.6"/>
			<rect x="183.1" y="237.9" class="st5" width="1.6" height="3.2"/>
			<rect x="186.3" y="234.7" class="st5" width="1.6" height="1.6"/>
			<rect x="181.6" y="231.6" class="st5" width="3.2" height="1.6"/>
			<rect x="181.6" y="222.1" class="st5" width="3.2" height="1.6"/>
			<rect x="184.7" y="223.7" class="st6" width="1.6" height="1.6"/>
			<rect x="187.9" y="237.9" class="st6" width="1.6" height="1.6"/>
			<rect x="184.7" y="233.1" class="st6" width="1.6" height="1.6"/>
			<rect x="184.7" y="231.6" class="st1" width="1.6" height="1.6"/>
			<rect x="183.1" y="223.7" class="st1" width="1.6" height="1.6"/>
			<rect x="183.1" y="226.8" class="st1" width="1.6" height="1.6"/>
			<rect x="184.7" y="237.9" class="st1" width="1.6" height="1.6"/>
			<rect x="181.6" y="236.3" class="st1" width="1.6" height="1.6"/>
			<rect x="186.3" y="230" class="st1" width="1.6" height="1.6"/>
			<rect x="186.3" y="239.5" class="st1" width="1.6" height="1.6"/>
			<rect x="183.1" y="233.1" class="st1" width="1.6" height="1.6"/>
		</g>
		<g>
			<polygon class="st2" points="126.3,228.4 126.3,226.8 124.7,226.8 124.7,222.1 123.1,222.1 123.1,220.5 121.6,220.5 121.6,222.1 
				120,222.1 120,226.8 120,226.8 120,236.3 120,236.3 120,237.9 120,239.5 121.6,239.5 123.1,239.5 123.1,277.4 124.7,277.4 
				124.7,241 126.3,241 126.3,239.5 127.9,239.5 127.9,228.4 			"/>
			<polygon class="st1" points="142.1,266.3 142.1,264.7 140.5,264.7 140.5,263.1 138.9,263.1 138.9,261.6 137.3,261.6 137.3,260 
				132.6,260 129.4,260 129.4,261.6 127.9,261.6 127.9,263.1 126.3,263.1 126.3,264.7 124.7,264.7 124.7,266.3 126.3,266.3 
				127.9,266.3 127.9,267.9 131,267.9 131,269.5 137.3,269.5 138.9,269.5 142.1,269.5 142.1,267.9 143.7,267.9 143.7,266.3 			"/>
			<polygon class="st1" points="129.4,253.7 127.9,253.7 127.9,252.1 124.7,252.1 124.7,255.2 126.3,255.2 127.9,255.2 129.4,255.2 
				129.4,256.8 131,256.8 131,255.2 131,253.7 			"/>
			<g>
				<rect x="120" y="252.1" class="st1" width="3.2" height="1.6"/>
				<rect x="118.4" y="253.7" class="st1" width="1.6" height="1.6"/>
			</g>
			<g>
				<polygon class="st1" points="121.6,264.7 121.6,261.6 120,261.6 120,260 118.4,260 116.8,260 115.2,260 113.7,260 112.1,260 
					110.5,260 108.9,260 108.9,261.6 110.5,261.6 110.5,264.7 112.1,264.7 112.1,266.3 113.7,266.3 113.7,267.9 115.2,267.9 
					115.2,269.5 116.8,269.5 118.4,269.5 120,269.5 120,267.9 121.6,267.9 121.6,266.3 123.1,266.3 123.1,264.7 				"/>
				<rect x="107.3" y="258.4" class="st1" width="1.6" height="1.6"/>
			</g>
			<rect x="126.3" y="237.9" class="st5" width="1.6" height="1.6"/>
			<rect x="126.3" y="237.9" class="st5" width="1.6" height="3.2"/>
			<rect x="127.9" y="237.9" class="st5" width="1.6" height="1.6"/>
			<rect x="121.6" y="237.9" class="st5" width="1.6" height="3.2"/>
			<rect x="124.7" y="234.7" class="st5" width="1.6" height="1.6"/>
			<rect x="120" y="231.6" class="st5" width="3.2" height="1.6"/>
			<rect x="120" y="222.1" class="st5" width="3.2" height="1.6"/>
			<rect x="123.1" y="223.7" class="st6" width="1.6" height="1.6"/>
			<rect x="126.3" y="237.9" class="st6" width="1.6" height="1.6"/>
			<rect x="123.1" y="233.1" class="st6" width="1.6" height="1.6"/>
			<rect x="123.1" y="231.6" class="st1" width="1.6" height="1.6"/>
			<rect x="121.6" y="223.7" class="st1" width="1.6" height="1.6"/>
			<rect x="121.6" y="226.8" class="st1" width="1.6" height="1.6"/>
			<rect x="123.1" y="237.9" class="st1" width="1.6" height="1.6"/>
			<rect x="120" y="236.3" class="st1" width="1.6" height="1.6"/>
			<rect x="124.7" y="230" class="st1" width="1.6" height="1.6"/>
			<rect x="124.7" y="239.5" class="st1" width="1.6" height="1.6"/>
			<rect x="121.6" y="233.1" class="st1" width="1.6" height="1.6"/>
		</g>
		<rect x="0" y="290" class="st14" width="300" height="60"/>
		<rect x="71" y="290" class="st15" width="162.7" height="60"/>
		<polygon class="st309" points="222.6,269.5 222.6,272.6 221,272.6 221,277.4 219.5,277.4 219.5,272.6 217.9,272.6 217.9,269.5 
			216.3,269.5 216.3,272.6 214.7,272.6 214.7,271 213.1,271 213.1,264.7 211.6,264.7 211.6,277.4 210,277.4 210,272.6 208.4,272.6 
			208.4,269.5 206.8,269.5 206.8,267.9 205.2,267.9 205.2,266.3 203.7,266.3 203.7,271 202.1,271 202.1,267.9 200.5,267.9 
			200.5,271 198.9,271 198.9,266.3 197.4,266.3 197.4,267.9 195.8,267.9 195.8,269.5 194.2,269.5 194.2,263.1 192.6,263.1 
			192.6,269.5 191,269.5 191,266.3 189.5,266.3 189.5,272.6 187.9,272.6 187.9,266.3 186.3,266.3 186.3,263.1 184.7,263.1 
			184.7,266.3 183.1,266.3 183.1,267.9 181.6,267.9 181.6,271 180,271 180,274.2 178.4,274.2 178.4,271 178.4,269.5 176.8,269.5 
			176.8,271 175.2,271 175.2,274.2 173.7,274.2 173.7,269.5 172.1,269.5 172.1,266.3 170.5,266.3 170.5,271 168.9,271 168.9,269.5 
			167.3,269.5 167.3,272.6 165.8,272.6 165.8,274.2 164.2,274.2 164.2,264.7 162.6,264.7 162.6,271 161,271 161,269.5 159.5,269.5 
			159.5,271 157.9,271 157.9,275.8 156.3,275.8 156.3,274.2 154.7,274.2 154.7,272.6 153.1,272.6 153.1,269.5 151.6,269.5 
			151.6,267.9 150,267.9 150,269.5 150,274.2 148.4,274.2 148.4,267.9 146.8,267.9 146.8,271 145.2,271 145.2,266.3 143.7,266.3 
			143.7,267.9 142.1,267.9 142.1,263.1 140.5,263.1 140.5,267.9 140.5,272.6 138.9,272.6 138.9,267.9 137.3,267.9 137.3,269.5 
			135.8,269.5 135.8,271 134.2,271 134.2,267.9 132.6,267.9 132.6,264.7 131,264.7 131,271 129.4,271 129.4,269.5 127.9,269.5 
			127.9,271 126.3,271 126.3,272.6 124.7,272.6 124.7,267.9 123.1,267.9 123.1,264.7 121.6,264.7 121.6,269.5 120,269.5 120,271 
			118.4,271 118.4,267.9 116.8,267.9 116.8,264.7 115.2,264.7 115.2,266.3 113.7,266.3 113.7,269.5 112.1,269.5 112.1,271 
			110.5,271 110.5,267.9 108.9,267.9 108.9,266.3 107.3,266.3 107.3,267.9 105.8,267.9 105.8,269.5 104.2,269.5 104.2,271 
			102.6,271 102.6,266.3 101,266.3 101,263.1 99.4,263.1 99.4,269.5 97.9,269.5 97.9,271 96.3,271 96.3,272.6 94.7,272.6 
			94.7,266.3 94.7,263.1 93.1,263.1 93.1,266.3 91.5,266.3 91.5,269.5 90,269.5 90,266.3 88.4,266.3 88.4,269.5 86.8,269.5 
			86.8,272.6 85.2,272.6 85.2,267.9 83.7,267.9 83.7,272.6 82.1,272.6 82.1,277.4 80.5,277.4 80.5,275.8 78.9,275.8 78.9,278.9 
			77.3,278.9 77.3,280.5 77.3,282.1 77.3,290 93.1,290 94.7,290 102.6,290 104.2,290 131,290 132.6,290 134.2,290 167.3,290 
			184.7,290 187.9,290 189.5,290 192.6,290 194.2,290 211.6,290 213.1,290 214.7,290 217.9,290 219.5,290 224.2,290 224.2,288.4 
			224.2,286.8 224.2,285.3 224.2,272.6 224.2,269.5 		"/>
		<path class="st311" d="M78.9,274.2v3.2h1.6v4.7h1.6v-4.7h1.6v-3.2h1.6v3.2h1.6v-1.6h1.6v-6.3H90v12.6h1.6v-4.7h1.6v-3.2h1.6v-1.6
			h1.6V271h1.6v4.7h1.6v-3.2h1.6v3.2h1.6V271h1.6v1.6h1.6v1.6h1.6v-6.3h1.6v6.3h1.6V271h1.6v6.3h1.6V271h1.6v-3.2h1.6v3.2h1.6v1.6
			h1.6v3.2h1.6v3.2h1.6c0-1,0-3.7,0-4.7h1.6v1.6h1.6v3.2h1.6v-4.7h1.6V271h1.6v4.7h1.6v-1.6h1.6v3.2h1.6v1.6h1.6v-9.5h1.6v6.3h1.6
			v-1.6h1.6v1.6h1.6v4.7h1.6v-1.6h1.6v-1.6h1.6v-3.2h1.6v-1.6h1.6c0,1.1,0,5.2,0,6.3h1.6v-6.3h1.6v3.2h1.6V271h1.6v1.6h1.6v-4.7h1.6
			c0,2.4,0,7.1,0,9.5h1.6v-4.7h1.6v1.6h1.6v1.6h1.6v-3.2h1.6v-3.2h1.6v6.3h1.6v-1.6h1.6v1.6h1.6v1.6h1.6v-4.7h1.6v-3.2h1.6v4.7h1.6
			v1.6h1.6v-3.2h1.6v-3.2h1.6v1.6h1.6v3.2h1.6v1.6h1.6v-3.2h1.6V271h1.6v1.6h1.6v1.6h1.6v1.6h1.6V271h1.6v-3.2h1.6v6.3h1.6v1.6h1.6
			v1.6h1.6c0-2.1,0-7.4,0-9.5h1.6v3.2h1.6v3.2h1.6V271h1.6v3.2h1.6v3.2h1.6v-4.7h1.6v4.7h1.6v4.7h1.6v-1.6h1.6v3.2h1.6
			c0,2.1,0,4.1,0,6.3c-47.9,0-99,0-146.9,0c0-5.1,0-10.7,0-15.8H78.9z"/>
		<g>
			<polygon class="st306" points="137.3,132.1 137.3,128.9 137.3,122.6 135.8,122.6 135.8,119.4 134.2,119.4 134.2,102.1 131,102.1 
				131,98.9 129.4,98.9 129.4,97.3 127.9,97.3 127.9,89.4 127.9,86.3 126.3,86.3 126.3,80 123.1,80 123.1,76.8 120,76.8 120,73.6 
				116.8,73.6 116.8,72.1 113.7,72.1 113.7,70.5 110.5,70.5 110.5,72.1 108.9,72.1 108.9,73.6 105.8,73.6 105.8,75.2 104.2,75.2 
				104.2,76.8 101,76.8 101,80 99.4,80 99.4,86.3 96.3,86.3 96.3,89.4 94.7,89.4 94.7,94.2 93.1,94.2 93.1,95.8 90,95.8 90,98.9 
				88.4,98.9 88.4,106.8 86.8,106.8 86.8,114.7 85.2,114.7 85.2,117.9 83.7,117.9 83.7,124.2 80.5,124.2 80.5,130.5 78.9,130.5 
				78.9,133.7 77.3,133.7 77.3,140 78.9,140 78.9,141.5 80.5,141.5 80.5,146.3 83.7,146.3 83.7,147.9 80.5,147.9 80.5,149.4 
				78.9,149.4 78.9,174.7 80.5,174.7 80.5,176.3 82.1,176.3 82.1,177.9 85.2,177.9 85.2,179.4 86.8,179.4 86.8,182.6 88.4,182.6 
				88.4,184.2 90,184.2 90,187.3 91.5,187.3 91.5,188.9 93.1,188.9 93.1,190.5 94.7,190.5 94.7,192.1 96.3,192.1 96.3,193.7 
				97.9,193.7 97.9,195.2 99.4,195.2 99.4,196.8 112.1,196.8 112.1,195.2 113.7,195.2 113.7,193.7 115.2,193.7 115.2,192.1 
				116.8,192.1 116.8,190.5 118.4,190.5 118.4,188.9 120,188.9 120,187.3 121.6,187.3 121.6,184.2 123.1,184.2 123.1,182.6 
				124.7,182.6 124.7,181 131,181 131,179.4 132.6,179.4 132.6,176.3 134.2,176.3 134.2,174.7 135.8,174.7 135.8,149.4 134.2,149.4 
				134.2,147.9 135.8,147.9 135.8,146.3 137.3,146.3 137.3,143.1 138.9,143.1 138.9,138.4 138.9,135.2 138.9,132.1 			"/>
			<rect x="105.8" y="136.8" class="st303" width="1.6" height="26.8"/>
			<rect x="118.4" y="78.4" class="st305" width="1.6" height="1.6"/>
			<rect x="107.3" y="76.8" class="st305" width="1.6" height="1.6"/>
			<rect x="102.6" y="83.1" class="st305" width="1.6" height="1.6"/>
			
				<rect x="113.7" y="75.2" transform="matrix(-1 -1.224647e-16 1.224647e-16 -1 228.892 152.0226)" class="st305" width="1.6" height="1.6"/>
			<rect x="118.4" y="89.4" class="st305" width="1.6" height="1.6"/>
			<rect x="124.7" y="97.3" class="st305" width="1.6" height="1.6"/>
			<rect x="121.6" y="84.7" class="st305" width="1.6" height="1.6"/>
			<rect x="116.8" y="95.8" class="st305" width="1.6" height="1.6"/>
			<rect x="102.6" y="95.8" class="st305" width="1.6" height="1.6"/>
			<rect x="96.3" y="103.6" class="st305" width="1.6" height="1.6"/>
			<rect x="91.5" y="98.9" class="st305" width="1.6" height="1.6"/>
			<rect x="99.4" y="89.4" class="st305" width="1.6" height="1.6"/>
			<rect x="93.1" y="110" class="st305" width="1.6" height="1.6"/>
			<rect x="86.8" y="117.9" class="st305" width="1.6" height="1.6"/>
			<rect x="99.4" y="127.3" class="st305" width="1.6" height="1.6"/>
			<rect x="96.3" y="114.7" class="st305" width="1.6" height="1.6"/>
			<rect x="107.3" y="116.3" class="st305" width="1.6" height="1.6"/>
			<rect x="107.3" y="105.2" class="st305" width="1.6" height="1.6"/>
			<rect x="113.7" y="106.8" class="st305" width="1.6" height="1.6"/>
			<rect x="121.6" y="113.1" class="st305" width="1.6" height="1.6"/>
			<rect x="120" y="103.6" class="st305" width="1.6" height="1.6"/>
			<rect x="131" y="121" class="st305" width="1.6" height="1.6"/>
			
				<rect x="131" y="106.8" transform="matrix(-1 -1.224647e-16 1.224647e-16 -1 263.634 215.1899)" class="st305" width="1.6" height="1.6"/>
			<rect x="126.3" y="103.6" class="st305" width="1.6" height="1.6"/>
			<rect x="129.4" y="130.5" class="st305" width="1.6" height="1.6"/>
			<rect x="134.2" y="140" class="st305" width="1.6" height="1.6"/>
			<rect x="124.7" y="146.3" class="st305" width="1.6" height="1.6"/>
			<rect x="113.7" y="141.5" class="st305" width="1.6" height="1.6"/>
			<rect x="118.4" y="121" class="st305" width="1.6" height="1.6"/>
			<rect x="118.4" y="158.9" class="st305" width="1.6" height="1.6"/>
			<rect x="132.6" y="155.8" class="st305" width="1.6" height="1.6"/>
			<rect x="127.9" y="174.7" class="st305" width="1.6" height="1.6"/>
			<rect x="115.2" y="170" class="st305" width="1.6" height="1.6"/>
			<rect x="115.2" y="182.6" class="st305" width="1.6" height="1.6"/>
			<rect x="94.7" y="182.6" class="st305" width="1.6" height="1.6"/>
			<rect x="97.9" y="187.3" class="st305" width="1.6" height="1.6"/>
			<rect x="85.2" y="174.7" class="st305" width="1.6" height="1.6"/>
			<rect x="82.1" y="165.2" class="st305" width="1.6" height="1.6"/>
			<rect x="85.2" y="157.3" class="st305" width="1.6" height="1.6"/>
			<rect x="99.4" y="155.8" class="st305" width="1.6" height="1.6"/>
			<rect x="97.9" y="163.7" class="st305" width="1.6" height="1.6"/>
			<rect x="85.2" y="143.1" class="st305" width="1.6" height="1.6"/>
			<rect x="93.1" y="149.4" class="st305" width="1.6" height="1.6"/>
			<rect x="80.5" y="151" class="st305" width="1.6" height="1.6"/>
			<rect x="80.5" y="136.8" class="st305" width="1.6" height="1.6"/>
			<rect x="83.7" y="130.5" class="st305" width="1.6" height="1.6"/>
			<rect x="96.3" y="135.2" class="st305" width="1.6" height="1.6"/>
			<rect x="90" y="128.9" class="st305" width="1.6" height="1.6"/>
			<g>
				<polygon class="st303" points="112.1,116.3 112.1,114.7 112.1,80 110.5,80 110.5,89.4 108.9,89.4 108.9,86.3 107.3,86.3 
					107.3,91 108.9,91 108.9,95.8 110.5,95.8 110.5,114.7 110.5,116.3 110.5,125.8 112.1,125.8 				"/>
				<rect x="115.2" y="100.5" class="st303" width="1.6" height="30"/>
				<rect x="113.7" y="130.5" class="st303" width="1.6" height="1.6"/>
				<rect x="86.8" y="135.2" class="st303" width="1.6" height="1.6"/>
				<rect x="88.4" y="136.8" class="st303" width="1.6" height="3.2"/>
				<rect x="90" y="140" class="st303" width="1.6" height="1.6"/>
				<rect x="91.5" y="141.5" class="st303" width="1.6" height="1.6"/>
				<polygon class="st303" points="94.7,143.1 93.1,143.1 93.1,144.7 94.7,144.7 94.7,146.3 96.3,146.3 96.3,143.1 				"/>
				<rect x="96.3" y="146.3" class="st303" width="1.6" height="1.6"/>
				<rect x="97.9" y="147.9" class="st303" width="1.6" height="3.2"/>
				<rect x="99.4" y="151" class="st303" width="1.6" height="1.6"/>
				<polygon class="st303" points="101,133.7 99.4,133.7 99.4,138.4 99.4,140 101,140 101,138.4 				"/>
				<rect x="93.1" y="114.7" class="st303" width="1.6" height="6.3"/>
				<polygon class="st303" points="94.7,121 94.7,127.3 93.1,127.3 93.1,128.9 94.7,128.9 94.7,130.5 96.3,130.5 96.3,121 				"/>
				<rect x="96.3" y="130.5" class="st303" width="1.6" height="1.6"/>
				<rect x="97.9" y="132.1" class="st303" width="1.6" height="1.6"/>
				<rect x="88.4" y="124.2" class="st303" width="1.6" height="1.6"/>
				<polygon class="st303" points="91.5,125.8 90,125.8 90,127.3 91.5,127.3 93.1,127.3 93.1,125.8 				"/>
				<rect x="86.8" y="122.6" class="st303" width="1.6" height="1.6"/>
				<rect x="126.3" y="110" class="st303" width="1.6" height="3.2"/>
				<rect x="124.7" y="113.1" class="st303" width="1.6" height="6.3"/>
				<rect x="123.1" y="119.4" class="st303" width="1.6" height="6.3"/>
				<polygon class="st303" points="123.1,130.5 124.7,130.5 124.7,128.9 123.1,128.9 123.1,125.8 121.6,125.8 121.6,132.1 
					123.1,132.1 				"/>
				<rect x="124.7" y="127.3" class="st303" width="1.6" height="1.6"/>
				<rect x="126.3" y="125.8" class="st303" width="1.6" height="1.6"/>
				<rect x="127.9" y="124.2" class="st303" width="1.6" height="1.6"/>
				<polygon class="st303" points="118.4,141.5 120,141.5 120,135.2 121.6,135.2 121.6,132.1 120,132.1 120,133.7 118.4,133.7 
					118.4,140 116.8,140 116.8,146.3 118.4,146.3 				"/>
				<rect x="118.4" y="149.4" class="st303" width="1.6" height="1.6"/>
				<polygon class="st303" points="121.6,147.9 121.6,144.7 120,144.7 120,147.9 120,149.4 121.6,149.4 				"/>
				<rect x="121.6" y="143.1" class="st303" width="1.6" height="1.6"/>
				<rect x="123.1" y="141.5" class="st303" width="1.6" height="1.6"/>
				<rect x="124.7" y="140" class="st303" width="1.6" height="1.6"/>
				<rect x="126.3" y="138.4" class="st303" width="1.6" height="1.6"/>
				<rect x="124.7" y="154.2" class="st303" width="1.6" height="9.5"/>
				<rect x="126.3" y="149.4" class="st303" width="1.6" height="4.7"/>
				<polygon class="st303" points="124.7,163.7 123.1,163.7 123.1,170 124.7,170 124.7,168.4 126.3,168.4 126.3,166.8 124.7,166.8 
									"/>
				<polygon class="st303" points="129.4,162.1 129.4,163.7 127.9,163.7 127.9,165.2 126.3,165.2 126.3,166.8 129.4,166.8 
					129.4,165.2 131,165.2 131,163.7 132.6,163.7 132.6,162.1 				"/>
				<rect x="115.2" y="176.3" class="st303" width="1.6" height="1.6"/>
				<rect x="116.8" y="174.7" class="st303" width="1.6" height="1.6"/>
				<rect x="118.4" y="173.1" class="st303" width="1.6" height="1.6"/>
				<rect x="120" y="171.6" class="st303" width="1.6" height="1.6"/>
				<rect x="121.6" y="170" class="st303" width="1.6" height="1.6"/>
				<polygon class="st303" points="112.1,176.3 112.1,174.7 112.1,165.2 113.7,165.2 113.7,158.9 115.2,158.9 115.2,157.3 
					115.2,155.8 116.8,155.8 116.8,152.6 118.4,152.6 118.4,151 116.8,151 116.8,146.3 115.2,146.3 115.2,154.2 113.7,154.2 
					113.7,155.8 112.1,155.8 112.1,157.3 110.5,157.3 110.5,143.1 110.5,138.4 112.1,138.4 112.1,136.8 113.7,136.8 113.7,135.2 
					113.7,132.1 112.1,132.1 112.1,135.2 110.5,135.2 110.5,125.8 108.9,125.8 108.9,132.1 107.3,132.1 107.3,135.2 105.8,135.2 
					105.8,130.5 104.2,130.5 104.2,122.6 104.2,100.5 102.6,100.5 102.6,98.9 101,98.9 101,102.1 102.6,102.1 102.6,119.4 
					101,119.4 101,110 99.4,110 99.4,119.4 99.4,121 101,121 101,124.2 102.6,124.2 102.6,132.1 104.2,132.1 104.2,136.8 
					105.8,136.8 105.8,138.4 107.3,138.4 107.3,140 107.3,155.8 105.8,155.8 104.2,155.8 104.2,147.9 102.6,147.9 102.6,140 
					101,140 101,149.4 102.6,149.4 102.6,152.6 101,152.6 101,154.2 102.6,154.2 102.6,157.3 104.2,157.3 104.2,160.5 104.2,162.1 
					104.2,176.3 102.6,176.3 102.6,174.7 101,174.7 101,173.1 99.4,173.1 97.9,173.1 97.9,171.6 96.3,171.6 94.7,171.6 94.7,165.2 
					93.1,165.2 93.1,170 91.5,170 91.5,168.4 90,168.4 90,171.6 91.5,171.6 93.1,171.6 93.1,173.1 94.7,173.1 94.7,174.7 
					96.3,174.7 96.3,176.3 97.9,176.3 99.4,176.3 99.4,179.4 101,179.4 101,182.6 102.6,182.6 102.6,190.5 102.6,241 101,241 
					101,272.6 101,277.4 101,288.4 99.4,288.4 99.4,291.6 97.9,291.6 97.9,294.7 96.3,294.7 96.3,297.9 94.7,297.9 94.7,299.5 
					93.1,299.5 93.1,301 88.4,301 88.4,302.6 86.8,302.6 85.2,302.6 82.1,302.6 80.5,302.6 80.5,304.2 80.5,307.4 82.1,307.4 
					82.1,304.2 85.2,304.2 85.2,307.4 83.7,307.4 83.7,308.9 86.8,308.9 86.8,307.4 86.8,304.2 91.5,304.2 91.5,302.6 93.1,302.6 
					94.7,302.6 96.3,302.6 96.3,301 97.9,301 97.9,299.5 99.4,299.5 99.4,304.2 101,304.2 101,305.8 99.4,305.8 99.4,312.1 
					96.3,312.1 96.3,313.7 94.7,313.7 85.2,313.7 82.1,313.7 82.1,315.3 85.2,315.3 90,315.3 90,316.8 91.5,316.8 91.5,315.3 
					94.7,315.3 94.7,320 96.3,320 96.3,315.3 99.4,315.3 99.4,313.7 101,313.7 101,312.1 101,310.5 102.6,310.5 102.6,308.9 
					104.2,308.9 104.2,307.4 104.2,304.2 105.8,304.2 105.8,299.5 107.3,299.5 107.3,302.6 108.9,302.6 108.9,308.9 108.9,316.8 
					107.3,316.8 107.3,324.7 105.8,324.7 104.2,324.7 104.2,331 105.8,331 105.8,326.3 107.3,326.3 108.9,326.3 108.9,331 
					110.5,331 110.5,324.7 108.9,324.7 108.9,318.4 110.5,318.4 110.5,310.5 112.1,310.5 112.1,304.2 115.2,304.2 115.2,307.4 
					116.8,307.4 116.8,304.2 118.4,304.2 118.4,302.6 118.4,301 121.6,301 121.6,299.5 118.4,299.5 115.2,299.5 115.2,297.9 
					113.7,297.9 113.7,294.7 112.1,294.7 112.1,277.4 112.1,272.6 112.1,188.9 112.1,181 113.7,181 113.7,179.4 115.2,179.4 
					115.2,177.9 112.1,177.9 				"/>
				<rect x="91.5" y="158.9" class="st303" width="1.6" height="6.3"/>
				<rect x="88.4" y="147.9" class="st303" width="1.6" height="9.5"/>
				<rect x="90" y="157.3" class="st303" width="1.6" height="1.6"/>
				<rect x="88.4" y="166.8" class="st303" width="1.6" height="1.6"/>
				<rect x="86.8" y="165.2" class="st303" width="1.6" height="1.6"/>
				<rect x="85.2" y="163.7" class="st303" width="1.6" height="1.6"/>
				<rect x="83.7" y="162.1" class="st303" width="1.6" height="1.6"/>
				<rect x="82.1" y="160.5" class="st303" width="1.6" height="1.6"/>
				<rect x="93.1" y="320" class="st303" width="1.6" height="1.6"/>
				<rect x="82.1" y="318.4" class="st303" width="3.2" height="1.6"/>
				<polygon class="st303" points="85.2,316.8 85.2,318.4 86.8,318.4 90,318.4 90,316.8 86.8,316.8 				"/>
				<rect x="110.5" y="331" class="st303" width="1.6" height="1.6"/>
				<rect x="102.6" y="331" class="st303" width="1.6" height="3.2"/>
				<rect x="101" y="334.2" class="st303" width="1.6" height="1.6"/>
				<rect x="118.4" y="304.2" class="st303" width="1.6" height="1.6"/>
				<rect x="120" y="305.8" class="st303" width="1.6" height="1.6"/>
				<rect x="121.6" y="307.4" class="st303" width="1.6" height="1.6"/>
				<rect x="123.1" y="308.9" class="st303" width="1.6" height="1.6"/>
				<rect x="124.7" y="310.5" class="st303" width="1.6" height="1.6"/>
				<rect x="126.3" y="312.1" class="st303" width="1.6" height="3.2"/>
				<polygon class="st303" points="124.7,302.6 126.3,302.6 129.4,302.6 129.4,301 126.3,301 124.7,301 121.6,301 121.6,302.6 				
					"/>
				<polygon class="st303" points="116.8,310.5 118.4,310.5 118.4,313.7 120,313.7 120,310.5 120,308.9 118.4,308.9 118.4,307.4 
					116.8,307.4 116.8,308.9 				"/>
				<rect x="120" y="313.7" class="st303" width="1.6" height="3.2"/>
				<rect x="121.6" y="316.8" class="st303" width="3.2" height="1.6"/>
				<rect x="124.7" y="318.4" class="st303" width="1.6" height="1.6"/>
				<rect x="78.9" y="307.4" class="st303" width="1.6" height="1.6"/>
				<rect x="77.3" y="308.9" class="st303" width="1.6" height="1.6"/>
				<rect x="82.1" y="308.9" class="st303" width="1.6" height="1.6"/>
			</g>
		</g>
		<g>
			<polygon class="st306" points="173.7,132.1 173.7,128.9 173.7,122.6 175.2,122.6 175.2,119.4 176.8,119.4 176.8,102.1 180,102.1 
				180,98.9 181.6,98.9 181.6,97.3 183.1,97.3 183.1,89.4 183.1,86.3 184.7,86.3 184.7,80 187.9,80 187.9,76.8 191,76.8 191,73.6 
				194.2,73.6 194.2,72.1 197.4,72.1 197.4,70.5 200.5,70.5 200.5,72.1 202.1,72.1 202.1,73.6 205.2,73.6 205.2,75.2 206.8,75.2 
				206.8,76.8 210,76.8 210,80 211.6,80 211.6,86.3 214.7,86.3 214.7,89.4 216.3,89.4 216.3,94.2 217.9,94.2 217.9,95.8 221,95.8 
				221,98.9 222.6,98.9 222.6,106.8 224.2,106.8 224.2,114.7 225.8,114.7 225.8,117.9 227.4,117.9 227.4,124.2 230.5,124.2 
				230.5,130.5 232.1,130.5 232.1,133.7 233.7,133.7 233.7,140 232.1,140 232.1,141.5 230.5,141.5 230.5,146.3 227.4,146.3 
				227.4,147.9 230.5,147.9 230.5,149.4 232.1,149.4 232.1,174.7 230.5,174.7 230.5,176.3 228.9,176.3 228.9,177.9 225.8,177.9 
				225.8,179.4 224.2,179.4 224.2,182.6 222.6,182.6 222.6,184.2 221,184.2 221,187.3 219.5,187.3 219.5,188.9 217.9,188.9 
				217.9,190.5 216.3,190.5 216.3,192.1 214.7,192.1 214.7,193.7 213.1,193.7 213.1,195.2 211.6,195.2 211.6,196.8 198.9,196.8 
				198.9,195.2 197.4,195.2 197.4,193.7 195.8,193.7 195.8,192.1 194.2,192.1 194.2,190.5 192.6,190.5 192.6,188.9 191,188.9 
				191,187.3 189.5,187.3 189.5,184.2 187.9,184.2 187.9,182.6 186.3,182.6 186.3,181 180,181 180,179.4 178.4,179.4 178.4,176.3 
				176.8,176.3 176.8,174.7 175.2,174.7 175.2,149.4 176.8,149.4 176.8,147.9 175.2,147.9 175.2,146.3 173.7,146.3 173.7,143.1 
				172.1,143.1 172.1,138.4 172.1,135.2 172.1,132.1 			"/>
			
				<rect x="203.7" y="136.8" transform="matrix(-1 -4.377044e-11 4.377044e-11 -1 408.9189 300.4658)" class="st303" width="1.6" height="26.8"/>
			
				<rect x="191" y="78.4" transform="matrix(-1 -4.492241e-11 4.492241e-11 -1 383.6519 158.3393)" class="st305" width="1.6" height="1.6"/>
			
				<rect x="202.1" y="76.8" transform="matrix(-1 -4.492241e-11 4.492241e-11 -1 405.7605 155.181)" class="st305" width="1.6" height="1.6"/>
			
				<rect x="206.8" y="83.1" transform="matrix(-1 -4.607438e-11 4.607438e-11 -1 415.2356 167.8144)" class="st305" width="1.6" height="1.6"/>
			<rect x="195.8" y="75.2" class="st305" width="1.6" height="1.6"/>
			
				<rect x="191" y="89.4" transform="matrix(-1 -4.492241e-11 4.492241e-11 -1 383.6519 180.4479)" class="st305" width="1.6" height="1.6"/>
			
				<rect x="184.7" y="97.3" transform="matrix(-1 -4.607438e-11 4.607438e-11 -1 371.0184 196.2397)" class="st305" width="1.6" height="1.6"/>
			
				<rect x="187.9" y="84.7" transform="matrix(-1 -4.722634e-11 4.722634e-11 -1 377.3352 170.9728)" class="st305" width="1.6" height="1.6"/>
			
				<rect x="192.6" y="95.8" transform="matrix(-1 -4.377044e-11 4.377044e-11 -1 386.8103 193.0814)" class="st305" width="1.6" height="1.6"/>
			
				<rect x="206.8" y="95.8" transform="matrix(-1 -4.492241e-11 4.492241e-11 -1 415.2356 193.0814)" class="st305" width="1.6" height="1.6"/>
			
				<rect x="213.1" y="103.6" transform="matrix(-1 -4.377044e-11 4.377044e-11 -1 427.869 208.8732)" class="st305" width="1.6" height="1.6"/>
			
				<rect x="217.9" y="98.9" transform="matrix(-1 -4.377044e-11 4.377044e-11 -1 437.3441 199.3981)" class="st305" width="1.6" height="1.6"/>
			
				<rect x="210" y="89.4" transform="matrix(-1 -4.492241e-11 4.492241e-11 -1 421.5523 180.4479)" class="st305" width="1.6" height="1.6"/>
			
				<rect x="216.3" y="110" transform="matrix(-1 -4.492241e-11 4.492241e-11 -1 434.1858 221.5067)" class="st305" width="1.6" height="1.6"/>
			
				<rect x="222.6" y="117.9" transform="matrix(-1 -4.607438e-11 4.607438e-11 -1 446.8192 237.2985)" class="st305" width="1.6" height="1.6"/>
			
				<rect x="210" y="127.3" transform="matrix(-1 -4.492241e-11 4.492241e-11 -1 421.5523 256.2487)" class="st305" width="1.6" height="1.6"/>
			
				<rect x="213.1" y="114.7" transform="matrix(-1 -4.607438e-11 4.607438e-11 -1 427.869 230.9818)" class="st305" width="1.6" height="1.6"/>
			
				<rect x="202.1" y="116.3" transform="matrix(-1 -4.492241e-11 4.492241e-11 -1 405.7605 234.1401)" class="st305" width="1.6" height="1.6"/>
			
				<rect x="202.1" y="105.2" transform="matrix(-1 -4.607438e-11 4.607438e-11 -1 405.7605 212.0316)" class="st305" width="1.6" height="1.6"/>
			
				<rect x="195.8" y="106.8" transform="matrix(-1 -4.492241e-11 4.492241e-11 -1 393.127 215.1899)" class="st305" width="1.6" height="1.6"/>
			
				<rect x="187.9" y="113.1" transform="matrix(-1 -4.607438e-11 4.607438e-11 -1 377.3352 227.8234)" class="st305" width="1.6" height="1.6"/>
			
				<rect x="189.5" y="103.6" transform="matrix(-1 -4.377044e-11 4.377044e-11 -1 380.4935 208.8732)" class="st305" width="1.6" height="1.6"/>
			
				<rect x="178.4" y="121" transform="matrix(-1 -4.492241e-11 4.492241e-11 -1 358.385 243.6152)" class="st305" width="1.6" height="1.6"/>
			<rect x="178.4" y="106.8" class="st305" width="1.6" height="1.6"/>
			
				<rect x="183.1" y="103.6" transform="matrix(-1 -4.492241e-11 4.492241e-11 -1 367.8601 208.8732)" class="st305" width="1.6" height="1.6"/>
			
				<rect x="180" y="130.5" transform="matrix(-1 -4.377044e-11 4.377044e-11 -1 361.5433 262.5654)" class="st305" width="1.6" height="1.6"/>
			
				<rect x="175.2" y="140" transform="matrix(-1 -4.607438e-11 4.607438e-11 -1 352.0682 281.5156)" class="st305" width="1.6" height="1.6"/>
			
				<rect x="184.7" y="146.3" transform="matrix(-1 -4.377044e-11 4.377044e-11 -1 371.0184 294.1491)" class="st305" width="1.6" height="1.6"/>
			
				<rect x="195.8" y="141.5" transform="matrix(-1 -4.492241e-11 4.492241e-11 -1 393.127 284.674)" class="st305" width="1.6" height="1.6"/>
			
				<rect x="191" y="121" transform="matrix(-1 -4.377044e-11 4.377044e-11 -1 383.6519 243.6152)" class="st305" width="1.6" height="1.6"/>
			
				<rect x="191" y="158.9" transform="matrix(-1 -4.377044e-11 4.377044e-11 -1 383.6519 319.416)" class="st305" width="1.6" height="1.6"/>
			
				<rect x="176.8" y="155.8" transform="matrix(-1 -4.377044e-11 4.377044e-11 -1 355.2266 313.0993)" class="st305" width="1.6" height="1.6"/>
			
				<rect x="181.6" y="174.7" transform="matrix(-1 -4.492241e-11 4.492241e-11 -1 364.7017 350.9997)" class="st305" width="1.6" height="1.6"/>
			
				<rect x="194.2" y="170" transform="matrix(-1 -4.492241e-11 4.492241e-11 -1 389.9687 341.5246)" class="st305" width="1.6" height="1.6"/>
			
				<rect x="194.2" y="182.6" transform="matrix(-1 -4.492241e-11 4.492241e-11 -1 389.9687 366.7915)" class="st305" width="1.6" height="1.6"/>
			
				<rect x="214.7" y="182.6" transform="matrix(-1 -4.492241e-11 4.492241e-11 -1 431.0274 366.7915)" class="st305" width="1.6" height="1.6"/>
			
				<rect x="211.6" y="187.3" transform="matrix(-1 -4.377044e-11 4.377044e-11 -1 424.7107 376.2666)" class="st305" width="1.6" height="1.6"/>
			
				<rect x="224.2" y="174.7" transform="matrix(-1 -4.377044e-11 4.377044e-11 -1 449.9776 350.9997)" class="st305" width="1.6" height="1.6"/>
			
				<rect x="227.4" y="165.2" transform="matrix(-1 -4.607438e-11 4.607438e-11 -1 456.2943 332.0495)" class="st305" width="1.6" height="1.6"/>
			
				<rect x="224.2" y="157.3" transform="matrix(-1 -4.377044e-11 4.377044e-11 -1 449.9776 316.2577)" class="st305" width="1.6" height="1.6"/>
			
				<rect x="210" y="155.8" transform="matrix(-1 -4.377044e-11 4.377044e-11 -1 421.5523 313.0993)" class="st305" width="1.6" height="1.6"/>
			
				<rect x="211.6" y="163.7" transform="matrix(-1 -4.492241e-11 4.492241e-11 -1 424.7107 328.8911)" class="st305" width="1.6" height="1.6"/>
			
				<rect x="224.2" y="143.1" transform="matrix(-1 -4.607438e-11 4.607438e-11 -1 449.9776 287.8323)" class="st305" width="1.6" height="1.6"/>
			
				<rect x="216.3" y="149.4" transform="matrix(-1 -4.377044e-11 4.377044e-11 -1 434.1858 300.4658)" class="st305" width="1.6" height="1.6"/>
			
				<rect x="225.8" y="130.5" transform="matrix(-1 -4.607438e-11 4.607438e-11 -1 453.136 262.5654)" class="st305" width="1.6" height="1.6"/>
			
				<rect x="213.1" y="135.2" transform="matrix(-1 -4.607438e-11 4.607438e-11 -1 427.869 272.0405)" class="st305" width="1.6" height="1.6"/>
			
				<rect x="219.5" y="128.9" transform="matrix(-1 -4.492241e-11 4.492241e-11 -1 440.5025 259.407)" class="st305" width="1.6" height="1.6"/>
			<g>
				<polygon class="st303" points="200.5,114.7 200.5,95.8 202.1,95.8 202.1,91 203.7,91 203.7,86.3 202.1,86.3 202.1,89.4 
					200.5,89.4 200.5,80 198.9,80 198.9,114.7 198.9,116.3 198.9,125.8 200.5,125.8 200.5,116.3 				"/>
				<rect x="194.2" y="100.5" class="st303" width="1.6" height="30"/>
				<rect x="195.8" y="130.5" class="st303" width="1.6" height="1.6"/>
				<rect x="222.6" y="135.2" class="st303" width="1.6" height="1.6"/>
				<rect x="221" y="136.8" class="st303" width="1.6" height="3.2"/>
				<rect x="219.5" y="140" class="st303" width="1.6" height="1.6"/>
				<rect x="217.9" y="141.5" class="st303" width="1.6" height="1.6"/>
				<polygon class="st303" points="216.3,144.7 217.9,144.7 217.9,143.1 216.3,143.1 214.7,143.1 214.7,146.3 216.3,146.3 				"/>
				<rect x="213.1" y="146.3" class="st303" width="1.6" height="1.6"/>
				<rect x="211.6" y="147.9" class="st303" width="1.6" height="3.2"/>
				<rect x="210" y="151" class="st303" width="1.6" height="1.6"/>
				<polygon class="st303" points="211.6,138.4 211.6,133.7 210,133.7 210,138.4 210,140 211.6,140 				"/>
				<rect x="216.3" y="114.7" class="st303" width="1.6" height="6.3"/>
				<polygon class="st303" points="216.3,128.9 217.9,128.9 217.9,127.3 216.3,127.3 216.3,121 214.7,121 214.7,130.5 216.3,130.5 
									"/>
				<rect x="213.1" y="130.5" class="st303" width="1.6" height="1.6"/>
				<rect x="211.6" y="132.1" class="st303" width="1.6" height="1.6"/>
				<rect x="221" y="124.2" class="st303" width="1.6" height="1.6"/>
				<polygon class="st303" points="221,127.3 221,125.8 219.5,125.8 217.9,125.8 217.9,127.3 219.5,127.3 				"/>
				<rect x="222.6" y="122.6" class="st303" width="1.6" height="1.6"/>
				<rect x="183.1" y="110" class="st303" width="1.6" height="3.2"/>
				<rect x="184.7" y="113.1" class="st303" width="1.6" height="6.3"/>
				<rect x="186.3" y="119.4" class="st303" width="1.6" height="6.3"/>
				<polygon class="st303" points="187.9,125.8 187.9,128.9 186.3,128.9 186.3,130.5 187.9,130.5 187.9,132.1 189.5,132.1 
					189.5,125.8 				"/>
				<rect x="184.7" y="127.3" class="st303" width="1.6" height="1.6"/>
				<rect x="183.1" y="125.8" class="st303" width="1.6" height="1.6"/>
				<rect x="181.6" y="124.2" class="st303" width="1.6" height="1.6"/>
				<polygon class="st303" points="192.6,140 192.6,133.7 191,133.7 191,132.1 189.5,132.1 189.5,135.2 191,135.2 191,141.5 
					192.6,141.5 192.6,146.3 194.2,146.3 194.2,140 				"/>
				<rect x="191" y="149.4" class="st303" width="1.6" height="1.6"/>
				<polygon class="st303" points="191,144.7 189.5,144.7 189.5,147.9 189.5,149.4 191,149.4 191,147.9 				"/>
				<rect x="187.9" y="143.1" class="st303" width="1.6" height="1.6"/>
				<rect x="186.3" y="141.5" class="st303" width="1.6" height="1.6"/>
				<rect x="184.7" y="140" class="st303" width="1.6" height="1.6"/>
				<rect x="183.1" y="138.4" class="st303" width="1.6" height="1.6"/>
				<rect x="184.7" y="154.2" class="st303" width="1.6" height="9.5"/>
				<rect x="183.1" y="149.4" class="st303" width="1.6" height="4.7"/>
				<polygon class="st303" points="186.3,163.7 186.3,166.8 184.7,166.8 184.7,168.4 186.3,168.4 186.3,170 187.9,170 187.9,163.7 
									"/>
				<polygon class="st303" points="183.1,165.2 183.1,163.7 181.6,163.7 181.6,162.1 178.4,162.1 178.4,163.7 180,163.7 180,165.2 
					181.6,165.2 181.6,166.8 184.7,166.8 184.7,165.2 				"/>
				<rect x="194.2" y="176.3" class="st303" width="1.6" height="1.6"/>
				<rect x="192.6" y="174.7" class="st303" width="1.6" height="1.6"/>
				<rect x="191" y="173.1" class="st303" width="1.6" height="1.6"/>
				<rect x="189.5" y="171.6" class="st303" width="1.6" height="1.6"/>
				<rect x="187.9" y="170" class="st303" width="1.6" height="1.6"/>
				<polygon class="st303" points="230.5,302.6 228.9,302.6 225.8,302.6 224.2,302.6 222.6,302.6 222.6,301 217.9,301 217.9,299.5 
					216.3,299.5 216.3,297.9 214.7,297.9 214.7,294.7 213.1,294.7 213.1,291.6 211.6,291.6 211.6,288.4 210,288.4 210,275.8 
					210,272.6 210,222.1 208.4,222.1 208.4,190.5 208.4,182.6 210,182.6 210,179.4 211.6,179.4 211.6,176.3 213.1,176.3 
					214.7,176.3 214.7,174.7 216.3,174.7 216.3,173.1 217.9,173.1 217.9,171.6 219.5,171.6 221,171.6 221,168.4 219.5,168.4 
					219.5,170 217.9,170 217.9,165.2 216.3,165.2 216.3,171.6 214.7,171.6 213.1,171.6 213.1,173.1 211.6,173.1 210,173.1 
					210,174.7 208.4,174.7 208.4,176.3 206.8,176.3 206.8,162.1 206.8,160.5 206.8,157.3 208.4,157.3 208.4,154.2 210,154.2 
					210,152.6 208.4,152.6 208.4,149.4 210,149.4 210,140 208.4,140 208.4,147.9 206.8,147.9 206.8,155.8 205.2,155.8 203.7,155.8 
					203.7,140 203.7,138.4 205.2,138.4 205.2,136.8 206.8,136.8 206.8,132.1 208.4,132.1 208.4,124.2 210,124.2 210,121 211.6,121 
					211.6,119.4 211.6,110 210,110 210,119.4 208.4,119.4 208.4,102.1 210,102.1 210,98.9 208.4,98.9 208.4,100.5 206.8,100.5 
					206.8,122.6 206.8,130.5 205.2,130.5 205.2,135.2 203.7,135.2 203.7,132.1 202.1,132.1 202.1,125.8 200.5,125.8 200.5,135.2 
					198.9,135.2 198.9,132.1 197.4,132.1 197.4,135.2 197.4,136.8 198.9,136.8 198.9,138.4 200.5,138.4 200.5,143.1 200.5,157.3 
					198.9,157.3 198.9,155.8 197.4,155.8 197.4,154.2 195.8,154.2 195.8,146.3 194.2,146.3 194.2,151 192.6,151 192.6,152.6 
					194.2,152.6 194.2,155.8 195.8,155.8 195.8,157.3 195.8,158.9 197.4,158.9 197.4,165.2 198.9,165.2 198.9,174.7 198.9,176.3 
					198.9,177.9 195.8,177.9 195.8,179.4 197.4,179.4 197.4,181 198.9,181 198.9,188.9 198.9,272.6 198.9,277.4 198.9,294.7 
					197.4,294.7 197.4,297.9 195.8,297.9 195.8,299.5 192.6,299.5 189.5,299.5 189.5,301 192.6,301 192.6,302.6 192.6,304.2 
					194.2,304.2 194.2,307.4 195.8,307.4 195.8,304.2 198.9,304.2 198.9,310.5 200.5,310.5 200.5,318.4 202.1,318.4 202.1,324.7 
					200.5,324.7 200.5,331 202.1,331 202.1,326.3 203.7,326.3 205.2,326.3 205.2,331 206.8,331 206.8,324.7 205.2,324.7 
					203.7,324.7 203.7,316.8 202.1,316.8 202.1,308.9 202.1,302.6 203.7,302.6 203.7,299.5 205.2,299.5 205.2,304.2 206.8,304.2 
					206.8,307.4 206.8,308.9 208.4,308.9 208.4,310.5 210,310.5 210,312.1 210,313.7 211.6,313.7 211.6,315.3 214.7,315.3 
					214.7,320 216.3,320 216.3,315.3 219.5,315.3 219.5,316.8 221,316.8 221,315.3 225.8,315.3 228.9,315.3 228.9,313.7 
					225.8,313.7 216.3,313.7 214.7,313.7 214.7,312.1 211.6,312.1 211.6,305.8 210,305.8 210,304.2 211.6,304.2 211.6,299.5 
					213.1,299.5 213.1,301 214.7,301 214.7,302.6 216.3,302.6 217.9,302.6 219.5,302.6 219.5,304.2 224.2,304.2 224.2,307.4 
					224.2,308.9 227.4,308.9 227.4,307.4 225.8,307.4 225.8,304.2 228.9,304.2 228.9,307.4 230.5,307.4 230.5,304.2 				"/>
				<rect x="217.9" y="158.9" class="st303" width="1.6" height="6.3"/>
				<rect x="221" y="147.9" class="st303" width="1.6" height="9.5"/>
				<rect x="219.5" y="157.3" class="st303" width="1.6" height="1.6"/>
				<rect x="221" y="166.8" class="st303" width="1.6" height="1.6"/>
				<rect x="222.6" y="165.2" class="st303" width="1.6" height="1.6"/>
				<rect x="224.2" y="163.7" class="st303" width="1.6" height="1.6"/>
				<rect x="225.8" y="162.1" class="st303" width="1.6" height="1.6"/>
				<rect x="227.4" y="160.5" class="st303" width="1.6" height="1.6"/>
				<rect x="216.3" y="320" class="st303" width="1.6" height="1.6"/>
				<rect x="225.8" y="318.4" class="st303" width="3.2" height="1.6"/>
				<polygon class="st303" points="224.2,318.4 225.8,318.4 225.8,316.8 224.2,316.8 221,316.8 221,318.4 				"/>
				<rect x="198.9" y="331" class="st303" width="1.6" height="1.6"/>
				<rect x="206.8" y="331" class="st303" width="1.6" height="3.2"/>
				<rect x="208.4" y="334.2" class="st303" width="1.6" height="1.6"/>
				<rect x="191" y="304.2" class="st303" width="1.6" height="1.6"/>
				<rect x="189.5" y="305.8" class="st303" width="1.6" height="1.6"/>
				<rect x="187.9" y="307.4" class="st303" width="1.6" height="1.6"/>
				<rect x="186.3" y="308.9" class="st303" width="1.6" height="1.6"/>
				<rect x="184.7" y="310.5" class="st303" width="1.6" height="1.6"/>
				<rect x="183.1" y="312.1" class="st303" width="1.6" height="3.2"/>
				<polygon class="st303" points="184.7,301 181.6,301 181.6,302.6 184.7,302.6 186.3,302.6 189.5,302.6 189.5,301 186.3,301 				
					"/>
				<polygon class="st303" points="192.6,308.9 191,308.9 191,310.5 191,313.7 192.6,313.7 192.6,310.5 194.2,310.5 194.2,308.9 
					194.2,307.4 192.6,307.4 				"/>
				<rect x="189.5" y="313.7" class="st303" width="1.6" height="3.2"/>
				<rect x="186.3" y="316.8" class="st303" width="3.2" height="1.6"/>
				<rect x="184.7" y="318.4" class="st303" width="1.6" height="1.6"/>
				<rect x="230.5" y="307.4" class="st303" width="1.6" height="1.6"/>
				<rect x="232.1" y="308.9" class="st303" width="1.6" height="1.6"/>
				<rect x="227.4" y="308.9" class="st303" width="1.6" height="1.6"/>
			</g>
		</g>
		<rect x="150" y="307.4" class="st303" width="1.6" height="1.6"/>
		<rect x="161" y="324.7" class="st303" width="1.6" height="1.6"/>
		<rect x="129.4" y="337.4" class="st303" width="1.6" height="1.6"/>
		<rect x="134.2" y="305.8" class="st303" width="1.6" height="1.6"/>
		<rect x="132.6" y="294.7" class="st303" width="1.6" height="1.6"/>
		<rect x="83.7" y="297.9" class="st303" width="1.6" height="1.6"/>
		<rect x="86.8" y="337.4" class="st303" width="1.6" height="1.6"/>
		<rect x="80.5" y="326.3" class="st303" width="1.6" height="1.6"/>
		<rect x="180" y="331" class="st303" width="1.6" height="1.6"/>
		<rect x="172.1" y="294.7" class="st303" width="1.6" height="1.6"/>
		<rect x="216.3" y="329.5" class="st303" width="1.6" height="1.6"/>
		<rect x="200.5" y="346.8" class="st303" width="1.6" height="1.6"/>
		<rect x="189.5" y="338.9" class="st303" width="1.6" height="1.6"/>
		<rect x="162.6" y="340.5" class="st303" width="1.6" height="1.6"/>
		<rect x="142.1" y="323.2" class="st303" width="1.6" height="1.6"/>
		<rect x="143.7" y="345.3" class="st303" width="1.6" height="1.6"/>
		<rect x="164.2" y="307.4" class="st303" width="1.6" height="1.6"/>
		<rect x="102.6" y="343.7" class="st303" width="1.6" height="1.6"/>
		<rect x="97.9" y="326.3" class="st303" width="1.6" height="1.6"/>
		<g>
			<rect x="224.2" y="264.7" class="st304" width="9.5" height="77.4"/>
			<rect x="224.2" y="264.7" class="st308" width="9.5" height="1.6"/>
			<rect x="224.2" y="283.7" class="st308" width="9.5" height="1.6"/>
			<rect x="230.5" y="274.2" class="st308" width="1.6" height="1.6"/>
			<rect x="225.8" y="280.5" class="st308" width="1.6" height="1.6"/>
			<rect x="224.2" y="302.6" class="st308" width="9.5" height="1.6"/>
			<rect x="224.2" y="321.6" class="st308" width="9.5" height="1.6"/>
			<rect x="224.2" y="340.5" class="st308" width="9.5" height="1.6"/>
			<rect x="225.8" y="267.9" class="st308" width="1.6" height="1.6"/>
			<rect x="230.5" y="290" class="st308" width="1.6" height="1.6"/>
			<rect x="227.4" y="297.9" class="st308" width="1.6" height="1.6"/>
			<rect x="227.4" y="307.4" class="st308" width="1.6" height="1.6"/>
			<rect x="225.8" y="305.8" class="st308" width="1.6" height="1.6"/>
			<rect x="230.5" y="316.8" class="st308" width="1.6" height="1.6"/>
			<rect x="227.4" y="318.4" class="st308" width="1.6" height="1.6"/>
			<rect x="230.5" y="310.5" class="st308" width="1.6" height="1.6"/>
			<rect x="227.4" y="332.6" class="st308" width="1.6" height="1.6"/>
			<rect x="228.9" y="335.8" class="st308" width="1.6" height="1.6"/>
			<rect x="230.5" y="326.3" class="st308" width="1.6" height="1.6"/>
			<rect x="224.2" y="324.7" class="st308" width="1.6" height="1.6"/>
			<rect x="225.8" y="338.9" class="st308" width="1.6" height="1.6"/>
			<rect x="232.1" y="301" class="st308" width="1.6" height="1.6"/>
			<rect x="230.5" y="280.5" class="st308" width="1.6" height="1.6"/>
		</g>
		<g>
			
				<rect x="71" y="264.7" transform="matrix(-1 -1.224647e-16 1.224647e-16 -1 151.427 606.8273)" class="st304" width="9.5" height="77.4"/>
			
				<rect x="71" y="340.5" transform="matrix(-1 -1.224647e-16 1.224647e-16 -1 151.427 682.6281)" class="st308" width="9.5" height="1.6"/>
			
				<rect x="71" y="321.6" transform="matrix(-1 -1.224647e-16 1.224647e-16 -1 151.427 644.7277)" class="st308" width="9.5" height="1.6"/>
			
				<rect x="72.6" y="331" transform="matrix(-1 -1.224647e-16 1.224647e-16 -1 146.6894 663.6779)" class="st308" width="1.6" height="1.6"/>
			
				<rect x="77.3" y="324.7" transform="matrix(-1 -1.224647e-16 1.224647e-16 -1 156.1645 651.0445)" class="st308" width="1.6" height="1.6"/>
			
				<rect x="71" y="302.6" transform="matrix(-1 -1.224647e-16 1.224647e-16 -1 151.427 606.8273)" class="st308" width="9.5" height="1.6"/>
			
				<rect x="71" y="283.7" transform="matrix(-1 -1.224647e-16 1.224647e-16 -1 151.427 568.9269)" class="st308" width="9.5" height="1.6"/>
			
				<rect x="71" y="264.7" transform="matrix(-1 -1.224647e-16 1.224647e-16 -1 151.427 531.0266)" class="st308" width="9.5" height="1.6"/>
			
				<rect x="77.3" y="337.4" transform="matrix(-1 -1.224647e-16 1.224647e-16 -1 156.1645 676.3114)" class="st308" width="1.6" height="1.6"/>
			
				<rect x="72.6" y="315.3" transform="matrix(-1 -1.224647e-16 1.224647e-16 -1 146.6894 632.0943)" class="st308" width="1.6" height="1.6"/>
			
				<rect x="75.7" y="307.4" transform="matrix(-1 -1.224647e-16 1.224647e-16 -1 153.0061 616.3024)" class="st308" width="1.6" height="1.6"/>
			
				<rect x="75.7" y="297.9" transform="matrix(-1 -1.224647e-16 1.224647e-16 -1 153.0061 597.3522)" class="st308" width="1.6" height="1.6"/>
			
				<rect x="77.3" y="299.5" transform="matrix(-1 -1.224647e-16 1.224647e-16 -1 156.1645 600.5106)" class="st308" width="1.6" height="1.6"/>
			
				<rect x="72.6" y="288.4" transform="matrix(-1 -1.224647e-16 1.224647e-16 -1 146.6894 578.402)" class="st308" width="1.6" height="1.6"/>
			
				<rect x="75.7" y="286.8" transform="matrix(-1 -1.224647e-16 1.224647e-16 -1 153.0061 575.2437)" class="st308" width="1.6" height="1.6"/>
			
				<rect x="72.6" y="294.7" transform="matrix(-1 -1.224647e-16 1.224647e-16 -1 146.6894 591.0355)" class="st308" width="1.6" height="1.6"/>
			
				<rect x="75.7" y="272.6" transform="matrix(-1 -1.224647e-16 1.224647e-16 -1 153.0061 546.8184)" class="st308" width="1.6" height="1.6"/>
			
				<rect x="74.1" y="269.5" transform="matrix(-1 -1.224647e-16 1.224647e-16 -1 149.8478 540.5016)" class="st308" width="1.6" height="1.6"/>
			
				<rect x="72.6" y="278.9" transform="matrix(-1 -1.224647e-16 1.224647e-16 -1 146.6894 559.4518)" class="st308" width="1.6" height="1.6"/>
			
				<rect x="78.9" y="280.5" transform="matrix(-1 -1.224647e-16 1.224647e-16 -1 159.3229 562.6102)" class="st308" width="1.6" height="1.6"/>
			
				<rect x="77.3" y="266.3" transform="matrix(-1 -1.224647e-16 1.224647e-16 -1 156.1645 534.1849)" class="st308" width="1.6" height="1.6"/>
			
				<rect x="71" y="304.2" transform="matrix(-1 -1.224647e-16 1.224647e-16 -1 143.5311 609.9857)" class="st308" width="1.6" height="1.6"/>
			
				<rect x="72.6" y="324.7" transform="matrix(-1 -1.224647e-16 1.224647e-16 -1 146.6894 651.0445)" class="st308" width="1.6" height="1.6"/>
		</g>
		<rect x="246.3" y="297.9" class="st295" width="14.2" height="1.6"/>
		<rect x="271.6" y="293.1" class="st295" width="11.1" height="1.6"/>
		<rect x="266.8" y="323.2" class="st295" width="9.5" height="1.6"/>
		<rect x="246.3" y="315.3" class="st295" width="7.9" height="1.6"/>
		<rect x="282.6" y="340.5" class="st295" width="9.5" height="1.6"/>
		<rect x="277.9" y="308.9" class="st295" width="14.2" height="1.6"/>
		<rect x="295.3" y="329.5" class="st295" width="4.7" height="1.6"/>
		<rect x="236.8" y="334.2" class="st295" width="11.1" height="1.6"/>
		<rect x="254.2" y="343.7" class="st295" width="9.5" height="1.6"/>
		<rect x="12.6" y="338.9" class="st295" width="14.2" height="1.6"/>
		<rect x="37.9" y="343.7" class="st295" width="11.1" height="1.6"/>
		<rect x="33.1" y="313.7" class="st295" width="9.5" height="1.6"/>
		<rect x="12.6" y="321.6" class="st295" width="7.9" height="1.6"/>
		<rect x="48.9" y="296.3" class="st295" width="9.5" height="1.6"/>
		<rect x="44.2" y="327.9" class="st295" width="14.2" height="1.6"/>
		<rect x="61.5" y="307.4" class="st295" width="4.7" height="1.6"/>
		<rect x="3.1" y="302.6" class="st295" width="11.1" height="1.6"/>
		<rect x="20.5" y="293.1" class="st295" width="9.5" height="1.6"/>
	</g>
	<g>
		<path class="st312" d="M86.5,37.7h5.1v-1.3h1.3v-1.3h2.5v2.5h-1.3V39h-1.3v1.3h-7.6V39H84v-1.3h-1.3V25H84v-1.3h1.3v-1.3h7.6v1.3
			h1.3V25h1.3v2.5h-2.5v-1.3h-1.3V25h-5.1v1.3h-1.3v10.2h1.3V37.7z"/>
		<path class="st312" d="M100.5,32.6v7.6h-2.5V22.5h2.5v7.6h7.6v-7.6h2.5v17.8h-2.5v-7.6H100.5z"/>
		<path class="st312" d="M115.7,40.2v-2.5h2.5V25h-2.5v-2.5h7.6V25h-2.5v12.7h2.5v2.5H115.7z"/>
		<path class="st312" d="M131,30.1v10.2h-2.5V22.5h2.5v3.8h1.3v1.3h1.3v1.3h1.3v1.3h1.3v1.3h1.3v1.3h1.3V22.5h2.5v17.8h-2.5v-3.8
			h-1.3v-1.3H136v-1.3h-1.3v-1.3h-1.3v-1.3h-1.3v-1.3H131z"/>
		<path class="st312" d="M146.2,40.2h-2.5V27.6h1.3v-1.3h1.3V25h1.3v-1.3h1.3v-1.3h2.5v1.3h1.3V25h1.3v1.3h1.3v1.3h1.3v12.7h-2.5
			v-5.1h-7.6V40.2z M146.2,32.6h7.6v-3.8h-1.3v-1.3h-1.3v-1.3h-2.5v1.3h-1.3v1.3h-1.3V32.6z"/>
		<path class="st312" d="M161.4,40.2h-2.5V22.5h2.5V25h1.3v1.3h1.3v1.3h2.5v-1.3h1.3V25h1.3v-2.5h2.5v17.8H169V28.8h-1.3v1.3h-1.3
			v2.5H164v-2.5h-1.3v-1.3h-1.3V40.2z"/>
		<path class="st312" d="M176.7,32.6v7.6h-2.5V22.5h10.2v1.3h1.3V25h1.3v5.1h-1.3v1.3h-1.3v1.3H176.7z M176.7,25v5.1h6.3v-1.3h1.3
			v-2.5H183V25H176.7z"/>
		<path class="st312" d="M191.9,40.2h-2.5V27.6h1.3v-1.3h1.3V25h1.3v-1.3h1.3v-1.3h2.5v1.3h1.3V25h1.3v1.3h1.3v1.3h1.3v12.7h-2.5
			v-5.1h-7.6V40.2z M191.9,32.6h7.6v-3.8h-1.3v-1.3H197v-1.3h-2.5v1.3h-1.3v1.3h-1.3V32.6z"/>
		<path class="st312" d="M216,25h1.3v2.5h-2.5v-1.3h-1.3V25h-5.1v1.3h-1.3v2.5h1.3v1.3h6.3v1.3h1.3v1.3h1.3v5.1H216V39h-1.3v1.3
			h-7.6V39h-1.3v-1.3h-1.3v-2.5h2.5v1.3h1.3v1.3h5.1v-1.3h1.3v-2.5h-1.3v-1.3h-6.3v-1.3h-1.3v-1.3h-1.3V25h1.3v-1.3h1.3v-1.3h7.6
			v1.3h1.3V25z"/>
	</g>
</g>
</svg>
