<?xml version="1.0" encoding="utf-8"?>
<!-- Generator: Adobe Illustrator 25.2.3, SVG Export Plug-In . SVG Version: 6.00 Build 0)  -->
<svg version="1.1" xmlns="http://www.w3.org/2000/svg" xmlns:xlink="http://www.w3.org/1999/xlink" x="0px" y="0px"
	 viewBox="0 0 300 300" style="enable-background:new 0 0 300 300;" xml:space="preserve">
<style type="text/css">
	.st0{opacity:0.46;}
	.st1{fill:#66890B;}
	.st2{fill:#95BC51;}
	.st3{fill:#3F6905;}
	.st4{fill:#CBE46E;}
	.st5{fill:#757DE0;}
	.st6{fill:#CAC5FF;}
	.st7{fill:#E9ECFD;}
	.st8{opacity:0.41;}
	.st9{opacity:0.69;}
	.st10{opacity:0.27;fill:none;stroke:#57ADA0;stroke-miterlimit:10;}
	.st11{opacity:0.65;}
	.st12{opacity:0.54;}
	.st13{opacity:0.51;}
	.st14{fill:#3FA0A7;}
	.st15{fill:#AB7946;}
	.st16{fill:#03464F;}
	.st17{fill:#026385;}
	.st18{fill:#35BCC0;}
	.st19{fill:#018F9F;}
	.st20{fill:#A53A1C;}
	.st21{fill:#DF5330;}
	.st22{fill:#FF8039;}
	.st23{fill:#EE5E2F;}
	.st24{fill:#A51959;}
	.st25{fill:#C12573;}
	.st26{fill:#FF4DA6;}
	.st27{fill:#D2276E;}
	.st28{fill:#7F7973;}
	.st29{fill:#C0B5AA;}
	.st30{fill:#E4DED5;}
	.st31{fill:#514A43;}
	.st32{fill:#606161;}
	.st33{fill:#BEBFB9;}
	.st34{fill:#3A3A3A;}
	.st35{fill:#302C28;}
	.st36{fill:#161616;}
	.st37{fill:#E1E1DF;}
	.st38{fill:#163A20;}
	.st39{fill:#1A5C31;}
	.st40{fill:#3E9B50;}
	.st41{fill:#23763E;}
	.st42{fill:#41296D;}
	.st43{fill:#513C82;}
	.st44{fill:#775ABF;}
	.st45{fill:#614293;}
	.st46{fill:#6C0F13;}
	.st47{fill:#9E1F25;}
	.st48{fill:#E8222E;}
	.st49{fill:#CF232E;}
	.st50{fill:#D27633;}
	.st51{fill:#DD8A34;}
	.st52{fill:#F5C032;}
	.st53{fill:#F3A634;}
	.st54{fill:#D4EAFF;}
	.st55{fill:#EFFAFC;}
	.st56{fill:#171C05;}
	.st57{fill:#688F50;}
	.st58{fill:#92BA73;}
	.st59{fill:#9FC780;}
	.st60{fill:#A7CB8D;}
	.st61{fill:#9CC17B;}
	.st62{fill:#91B166;}
	.st63{fill:#88988D;}
	.st64{fill:#829788;}
	.st65{fill:#5B7A36;}
	.st66{fill:#2C4704;}
	.st67{fill:#415705;}
	.st68{fill:#7D9732;}
	.st69{fill:#778B34;}
	.st70{fill:#879935;}
	.st71{fill:#A3BA62;}
	.st72{fill:#BFDA95;}
	.st73{fill:#B7D690;}
	.st74{fill:#B8D88C;}
	.st75{fill:#B7D78B;}
	.st76{fill:#B8D68C;}
	.st77{fill:#B2D185;}
	.st78{fill:#AECE85;}
	.st79{fill:#ACC87E;}
	.st80{fill:#A3B078;}
	.st81{fill:#758D8F;}
	.st82{fill:#8B9DF1;}
	.st83{fill:#A3B7F2;}
	.st84{fill:#7FA35B;}
	.st85{fill:#6A9047;}
	.st86{fill:#3D6823;}
	.st87{fill:#325F1C;}
	.st88{fill:#33621E;}
	.st89{fill:#214E0B;}
	.st90{fill:#306811;}
	.st91{fill:#689339;}
	.st92{fill:#95BB6E;}
	.st93{fill:#9BC57D;}
	.st94{fill:#A2C781;}
	.st95{fill:#9AB67C;}
	.st96{fill:#B4C8A5;}
	.st97{fill:#97ACBD;}
	.st98{fill:#7F9C88;}
	.st99{fill:#617830;}
	.st100{fill:#56750D;}
	.st101{fill:#789529;}
	.st102{fill:#91A335;}
	.st103{fill:#A5B650;}
	.st104{fill:#A7BD5B;}
	.st105{fill:#C1D894;}
	.st106{fill:#BCDA9A;}
	.st107{fill:#BEDB98;}
	.st108{fill:#BDDC98;}
	.st109{fill:#B9DA95;}
	.st110{fill:#B0D087;}
	.st111{fill:#9EC477;}
	.st112{fill:#98B86D;}
	.st113{fill:#8D9750;}
	.st114{fill:#798749;}
	.st115{fill:#82964F;}
	.st116{fill:#7F9B6B;}
	.st117{fill:#819D77;}
	.st118{fill:#88A855;}
	.st119{fill:#789C52;}
	.st120{fill:#46732E;}
	.st121{fill:#295613;}
	.st122{fill:#1F490A;}
	.st123{fill:#20490D;}
	.st124{fill:#33680C;}
	.st125{fill:#40700D;}
	.st126{fill:#95B864;}
	.st127{fill:#9DC77F;}
	.st128{fill:#9FC37B;}
	.st129{fill:#B4D191;}
	.st130{fill:#BED9A2;}
	.st131{fill:#A2BD94;}
	.st132{fill:#728D40;}
	.st133{fill:#546E17;}
	.st134{fill:#7A932B;}
	.st135{fill:#B5AD64;}
	.st136{fill:#C2C86E;}
	.st137{fill:#B6BC5A;}
	.st138{fill:#AFB56D;}
	.st139{fill:#AEC87F;}
	.st140{fill:#BFDF96;}
	.st141{fill:#C3DD9C;}
	.st142{fill:#BCD997;}
	.st143{fill:#B3D48D;}
	.st144{fill:#83AD63;}
	.st145{fill:#68893A;}
	.st146{fill:#948C44;}
	.st147{fill:#898836;}
	.st148{fill:#68852B;}
	.st149{fill:#90AC57;}
	.st150{fill:#84A54E;}
	.st151{fill:#7E9C42;}
	.st152{fill:#7D9C56;}
	.st153{fill:#5E8640;}
	.st154{fill:#2D5B13;}
	.st155{fill:#1F4D0C;}
	.st156{fill:#1F4708;}
	.st157{fill:#2A5F07;}
	.st158{fill:#4F7B08;}
	.st159{fill:#80A814;}
	.st160{fill:#90BC5A;}
	.st161{fill:#92BC6A;}
	.st162{fill:#9AC478;}
	.st163{fill:#90B766;}
	.st164{fill:#95B957;}
	.st165{fill:#B0CD70;}
	.st166{fill:#7C9E4A;}
	.st167{fill:#6B861D;}
	.st168{fill:#849A35;}
	.st169{fill:#C5B077;}
	.st170{fill:#B8B872;}
	.st171{fill:#AEB855;}
	.st172{fill:#A9B263;}
	.st173{fill:#95AA65;}
	.st174{fill:#B4D68A;}
	.st175{fill:#BBD895;}
	.st176{fill:#A8CB87;}
	.st177{fill:#81AD62;}
	.st178{fill:#6D8C3E;}
	.st179{fill:#9C9046;}
	.st180{fill:#8F8E3E;}
	.st181{fill:#6E901F;}
	.st182{fill:#90AC45;}
	.st183{fill:#8BAD59;}
	.st184{fill:#729723;}
	.st185{fill:#749B1E;}
	.st186{fill:#547C19;}
	.st187{fill:#204903;}
	.st188{fill:#1F4804;}
	.st189{fill:#35570D;}
	.st190{fill:#2C600E;}
	.st191{fill:#376B07;}
	.st192{fill:#588300;}
	.st193{fill:#779E1D;}
	.st194{fill:#93B55E;}
	.st195{fill:#95BF75;}
	.st196{fill:#729D4B;}
	.st197{fill:#779D30;}
	.st198{fill:#8EB248;}
	.st199{fill:#A5CB80;}
	.st200{fill:#8EB363;}
	.st201{fill:#97B04A;}
	.st202{fill:#AAB674;}
	.st203{fill:#798E33;}
	.st204{fill:#889E32;}
	.st205{fill:#99A962;}
	.st206{fill:#899759;}
	.st207{fill:#99AC6A;}
	.st208{fill:#A5BF76;}
	.st209{fill:#A4C87E;}
	.st210{fill:#ABCA86;}
	.st211{fill:#A7C97F;}
	.st212{fill:#9DB36A;}
	.st213{fill:#939F53;}
	.st214{fill:#86922C;}
	.st215{fill:#749029;}
	.st216{fill:#94B250;}
	.st217{fill:#94B157;}
	.st218{fill:#91B03B;}
	.st219{fill:#7B9F01;}
	.st220{fill:#708B18;}
	.st221{fill:#596920;}
	.st222{fill:#485C15;}
	.st223{fill:#707F2A;}
	.st224{fill:#265F12;}
	.st225{fill:#3F6E08;}
	.st226{fill:#7C9F45;}
	.st227{fill:#82A74A;}
	.st228{fill:#94BA67;}
	.st229{fill:#9AC374;}
	.st230{fill:#83B05D;}
	.st231{fill:#629023;}
	.st232{fill:#88AE3F;}
	.st233{fill:#AFD389;}
	.st234{fill:#99C273;}
	.st235{fill:#A6C568;}
	.st236{fill:#B6CB86;}
	.st237{fill:#77933F;}
	.st238{fill:#6E8B2F;}
	.st239{fill:#718E34;}
	.st240{fill:#819148;}
	.st241{fill:#90A05F;}
	.st242{fill:#9CB271;}
	.st243{fill:#96B268;}
	.st244{fill:#95B569;}
	.st245{fill:#A8C37E;}
	.st246{fill:#A5BE7A;}
	.st247{fill:#8CA257;}
	.st248{fill:#7C9341;}
	.st249{fill:#849D49;}
	.st250{fill:#98B561;}
	.st251{fill:#A8C072;}
	.st252{fill:#A1BD4C;}
	.st253{fill:#7FA206;}
	.st254{fill:#9A9C49;}
	.st255{fill:#9E8B53;}
	.st256{fill:#90804D;}
	.st257{fill:#A19A4C;}
	.st258{fill:#2C5F10;}
	.st259{fill:#688D2E;}
	.st260{fill:#8CB25F;}
	.st261{fill:#9BC273;}
	.st262{fill:#9AC26C;}
	.st263{fill:#9CBE67;}
	.st264{fill:#94BC64;}
	.st265{fill:#98BC64;}
	.st266{fill:#A6C965;}
	.st267{fill:#B3D78F;}
	.st268{fill:#96C36E;}
	.st269{fill:#81AA42;}
	.st270{fill:#83A050;}
	.st271{fill:#819F45;}
	.st272{fill:#83A551;}
	.st273{fill:#799C40;}
	.st274{fill:#8FAE5E;}
	.st275{fill:#93AF65;}
	.st276{fill:#9CB86E;}
	.st277{fill:#98B66C;}
	.st278{fill:#85A854;}
	.st279{fill:#90AB5E;}
	.st280{fill:#9AB66C;}
	.st281{fill:#9EB668;}
	.st282{fill:#94B059;}
	.st283{fill:#7B983E;}
	.st284{fill:#80A345;}
	.st285{fill:#8EB052;}
	.st286{fill:#8AA941;}
	.st287{fill:#83A713;}
	.st288{fill:#8DA52B;}
	.st289{fill:#B2B371;}
	.st290{fill:#C0C084;}
	.st291{fill:#B4AF6B;}
	.st292{clip-path:url(#SVGID_2_);}
	.st293{clip-path:url(#SVGID_4_);}
	.st294{clip-path:url(#SVGID_6_);}
	.st295{fill:#7DC0C9;}
	.st296{fill:#16635B;}
	.st297{fill:#A1D7DB;}
	.st298{fill:#CDC982;}
	.st299{fill:#3C5B3B;}
	.st300{fill:#6B8C5F;}
	.st301{fill:#90AA7D;}
	.st302{fill:#A2B271;}
	.st303{fill:#69463A;}
	.st304{fill:#D6B36F;}
	.st305{fill:#9BB655;}
	.st306{fill:#618F46;}
	.st307{fill:#2B5A38;}
	.st308{fill:#7C672E;}
	.st309{fill:#ABA92E;}
	.st310{fill:#E2E57E;}
	.st311{fill:#CBCA6D;}
	.st312{stroke:#000000;stroke-width:0.5;stroke-miterlimit:10;}
</style>
<g id="layout">
</g>
<g id="GUIDES">
	<g>
		<polygon class="st2" points="156.3,217.9 156.3,216.3 154.7,216.3 154.7,211.6 153.1,211.6 153.1,210 151.6,210 151.6,211.6 
			150,211.6 150,216.3 150,216.3 150,225.8 150,225.8 150,227.4 150,228.9 151.6,228.9 153.1,228.9 153.1,266.8 154.7,266.8 
			154.7,230.5 156.3,230.5 156.3,228.9 157.9,228.9 157.9,217.9 		"/>
		<polygon class="st1" points="172.1,255.8 172.1,254.2 170.5,254.2 170.5,252.6 168.9,252.6 168.9,251 167.3,251 167.3,249.5 
			162.6,249.5 159.5,249.5 159.5,251 157.9,251 157.9,252.6 156.3,252.6 156.3,254.2 154.7,254.2 154.7,255.8 156.3,255.8 
			157.9,255.8 157.9,257.4 161,257.4 161,258.9 167.3,258.9 168.9,258.9 172.1,258.9 172.1,257.4 173.7,257.4 173.7,255.8 		"/>
		<polygon class="st1" points="159.5,243.1 157.9,243.1 157.9,241.6 154.7,241.6 154.7,244.7 156.3,244.7 157.9,244.7 159.5,244.7 
			159.5,246.3 161,246.3 161,244.7 161,243.1 		"/>
		<g>
			<rect x="150" y="241.6" class="st1" width="3.2" height="1.6"/>
			<rect x="148.4" y="243.1" class="st1" width="1.6" height="1.6"/>
		</g>
		<g>
			<polygon class="st1" points="151.6,254.2 151.6,251 150,251 150,249.5 148.4,249.5 146.8,249.5 145.2,249.5 143.7,249.5 
				142.1,249.5 140.5,249.5 138.9,249.5 138.9,251 140.5,251 140.5,254.2 142.1,254.2 142.1,255.8 143.7,255.8 143.7,257.4 
				145.2,257.4 145.2,258.9 146.8,258.9 148.4,258.9 150,258.9 150,257.4 151.6,257.4 151.6,255.8 153.1,255.8 153.1,254.2 			"/>
			<rect x="137.3" y="247.9" class="st1" width="1.6" height="1.6"/>
		</g>
		<rect x="156.3" y="227.4" class="st5" width="1.6" height="1.6"/>
		<rect x="156.3" y="227.4" class="st5" width="1.6" height="3.2"/>
		<rect x="157.9" y="227.4" class="st5" width="1.6" height="1.6"/>
		<rect x="151.6" y="227.4" class="st5" width="1.6" height="3.2"/>
		<rect x="154.7" y="224.2" class="st5" width="1.6" height="1.6"/>
		<rect x="150" y="221" class="st5" width="3.2" height="1.6"/>
		<rect x="150" y="211.6" class="st5" width="3.2" height="1.6"/>
		<rect x="153.1" y="213.1" class="st6" width="1.6" height="1.6"/>
		<rect x="156.3" y="227.4" class="st6" width="1.6" height="1.6"/>
		<rect x="153.1" y="222.6" class="st6" width="1.6" height="1.6"/>
		<rect x="153.1" y="221" class="st1" width="1.6" height="1.6"/>
		<rect x="151.6" y="213.1" class="st1" width="1.6" height="1.6"/>
		<rect x="151.6" y="216.3" class="st1" width="1.6" height="1.6"/>
		<rect x="153.1" y="227.4" class="st1" width="1.6" height="1.6"/>
		<rect x="150" y="225.8" class="st1" width="1.6" height="1.6"/>
		<rect x="154.7" y="219.5" class="st1" width="1.6" height="1.6"/>
		<rect x="154.7" y="228.9" class="st1" width="1.6" height="1.6"/>
		<rect x="151.6" y="222.6" class="st1" width="1.6" height="1.6"/>
	</g>
	<g>
		<polygon class="st2" points="187.9,208.4 187.9,206.8 186.3,206.8 186.3,202.1 184.7,202.1 184.7,200.5 183.1,200.5 183.1,202.1 
			181.6,202.1 181.6,206.8 181.6,206.8 181.6,216.3 181.6,216.3 181.6,217.9 181.6,219.5 183.1,219.5 184.7,219.5 184.7,257.4 
			186.3,257.4 186.3,221 187.9,221 187.9,219.5 189.5,219.5 189.5,208.4 		"/>
		<polygon class="st1" points="203.7,246.3 203.7,244.7 202.1,244.7 202.1,243.1 200.5,243.1 200.5,241.6 198.9,241.6 198.9,240 
			194.2,240 191,240 191,241.6 189.5,241.6 189.5,243.1 187.9,243.1 187.9,244.7 186.3,244.7 186.3,246.3 187.9,246.3 189.5,246.3 
			189.5,247.9 192.6,247.9 192.6,249.5 198.9,249.5 200.5,249.5 203.7,249.5 203.7,247.9 205.2,247.9 205.2,246.3 		"/>
		<polygon class="st1" points="191,233.7 189.5,233.7 189.5,232.1 186.3,232.1 186.3,235.2 187.9,235.2 189.5,235.2 191,235.2 
			191,236.8 192.6,236.8 192.6,235.2 192.6,233.7 		"/>
		<g>
			<rect x="181.6" y="232.1" class="st1" width="3.2" height="1.6"/>
			<rect x="180" y="233.7" class="st1" width="1.6" height="1.6"/>
		</g>
		<g>
			<polygon class="st1" points="183.1,244.7 183.1,241.6 181.6,241.6 181.6,240 180,240 178.4,240 176.8,240 175.2,240 173.7,240 
				172.1,240 170.5,240 170.5,241.6 172.1,241.6 172.1,244.7 173.7,244.7 173.7,246.3 175.2,246.3 175.2,247.9 176.8,247.9 
				176.8,249.5 178.4,249.5 180,249.5 181.6,249.5 181.6,247.9 183.1,247.9 183.1,246.3 184.7,246.3 184.7,244.7 			"/>
			<rect x="168.9" y="238.4" class="st1" width="1.6" height="1.6"/>
		</g>
		<rect x="187.9" y="217.9" class="st5" width="1.6" height="1.6"/>
		<rect x="187.9" y="217.9" class="st5" width="1.6" height="3.2"/>
		<rect x="189.5" y="217.9" class="st5" width="1.6" height="1.6"/>
		<rect x="183.1" y="217.9" class="st5" width="1.6" height="3.2"/>
		<rect x="186.3" y="214.7" class="st5" width="1.6" height="1.6"/>
		<rect x="181.6" y="211.6" class="st5" width="3.2" height="1.6"/>
		<rect x="181.6" y="202.1" class="st5" width="3.2" height="1.6"/>
		<rect x="184.7" y="203.7" class="st6" width="1.6" height="1.6"/>
		<rect x="187.9" y="217.9" class="st6" width="1.6" height="1.6"/>
		<rect x="184.7" y="213.1" class="st6" width="1.6" height="1.6"/>
		<rect x="184.7" y="211.6" class="st1" width="1.6" height="1.6"/>
		<rect x="183.1" y="203.7" class="st1" width="1.6" height="1.6"/>
		<rect x="183.1" y="206.8" class="st1" width="1.6" height="1.6"/>
		<rect x="184.7" y="217.9" class="st1" width="1.6" height="1.6"/>
		<rect x="181.6" y="216.3" class="st1" width="1.6" height="1.6"/>
		<rect x="186.3" y="210" class="st1" width="1.6" height="1.6"/>
		<rect x="186.3" y="219.5" class="st1" width="1.6" height="1.6"/>
		<rect x="183.1" y="213.1" class="st1" width="1.6" height="1.6"/>
	</g>
	<g>
		<polygon class="st2" points="126.3,208.4 126.3,206.8 124.7,206.8 124.7,202.1 123.1,202.1 123.1,200.5 121.6,200.5 121.6,202.1 
			120,202.1 120,206.8 120,206.8 120,216.3 120,216.3 120,217.9 120,219.5 121.6,219.5 123.1,219.5 123.1,257.4 124.7,257.4 
			124.7,221 126.3,221 126.3,219.5 127.9,219.5 127.9,208.4 		"/>
		<polygon class="st1" points="142.1,246.3 142.1,244.7 140.5,244.7 140.5,243.1 138.9,243.1 138.9,241.6 137.3,241.6 137.3,240 
			132.6,240 129.4,240 129.4,241.6 127.9,241.6 127.9,243.1 126.3,243.1 126.3,244.7 124.7,244.7 124.7,246.3 126.3,246.3 
			127.9,246.3 127.9,247.9 131,247.9 131,249.5 137.3,249.5 138.9,249.5 142.1,249.5 142.1,247.9 143.7,247.9 143.7,246.3 		"/>
		<polygon class="st1" points="129.4,233.7 127.9,233.7 127.9,232.1 124.7,232.1 124.7,235.2 126.3,235.2 127.9,235.2 129.4,235.2 
			129.4,236.8 131,236.8 131,235.2 131,233.7 		"/>
		<g>
			<rect x="120" y="232.1" class="st1" width="3.2" height="1.6"/>
			<rect x="118.4" y="233.7" class="st1" width="1.6" height="1.6"/>
		</g>
		<g>
			<polygon class="st1" points="121.6,244.7 121.6,241.6 120,241.6 120,240 118.4,240 116.8,240 115.2,240 113.7,240 112.1,240 
				110.5,240 108.9,240 108.9,241.6 110.5,241.6 110.5,244.7 112.1,244.7 112.1,246.3 113.7,246.3 113.7,247.9 115.2,247.9 
				115.2,249.5 116.8,249.5 118.4,249.5 120,249.5 120,247.9 121.6,247.9 121.6,246.3 123.1,246.3 123.1,244.7 			"/>
			<rect x="107.3" y="238.4" class="st1" width="1.6" height="1.6"/>
		</g>
		<rect x="126.3" y="217.9" class="st5" width="1.6" height="1.6"/>
		<rect x="126.3" y="217.9" class="st5" width="1.6" height="3.2"/>
		<rect x="127.9" y="217.9" class="st5" width="1.6" height="1.6"/>
		<rect x="121.6" y="217.9" class="st5" width="1.6" height="3.2"/>
		<rect x="124.7" y="214.7" class="st5" width="1.6" height="1.6"/>
		<rect x="120" y="211.6" class="st5" width="3.2" height="1.6"/>
		<rect x="120" y="202.1" class="st5" width="3.2" height="1.6"/>
		<rect x="123.1" y="203.7" class="st6" width="1.6" height="1.6"/>
		<rect x="126.3" y="217.9" class="st6" width="1.6" height="1.6"/>
		<rect x="123.1" y="213.1" class="st6" width="1.6" height="1.6"/>
		<rect x="123.1" y="211.6" class="st1" width="1.6" height="1.6"/>
		<rect x="121.6" y="203.7" class="st1" width="1.6" height="1.6"/>
		<rect x="121.6" y="206.8" class="st1" width="1.6" height="1.6"/>
		<rect x="123.1" y="217.9" class="st1" width="1.6" height="1.6"/>
		<rect x="120" y="216.3" class="st1" width="1.6" height="1.6"/>
		<rect x="124.7" y="210" class="st1" width="1.6" height="1.6"/>
		<rect x="124.7" y="219.5" class="st1" width="1.6" height="1.6"/>
		<rect x="121.6" y="213.1" class="st1" width="1.6" height="1.6"/>
	</g>
	<rect x="0" y="251" class="st14" width="300" height="60"/>
	<rect x="71" y="270" class="st15" width="162.7" height="60"/>
	<polygon class="st309" points="222.6,249.5 222.6,252.6 221,252.6 221,257.4 219.5,257.4 219.5,252.6 217.9,252.6 217.9,249.5 
		216.3,249.5 216.3,252.6 214.7,252.6 214.7,251 213.1,251 213.1,244.7 211.6,244.7 211.6,257.4 210,257.4 210,252.6 208.4,252.6 
		208.4,249.5 206.8,249.5 206.8,247.9 205.2,247.9 205.2,246.3 203.7,246.3 203.7,251 202.1,251 202.1,247.9 200.5,247.9 200.5,251 
		198.9,251 198.9,246.3 197.4,246.3 197.4,247.9 195.8,247.9 195.8,249.5 194.2,249.5 194.2,243.1 192.6,243.1 192.6,249.5 
		191,249.5 191,246.3 189.5,246.3 189.5,252.6 187.9,252.6 187.9,246.3 186.3,246.3 186.3,243.1 184.7,243.1 184.7,246.3 
		183.1,246.3 183.1,247.9 181.6,247.9 181.6,251 180,251 180,254.2 178.4,254.2 178.4,251 178.4,249.5 176.8,249.5 176.8,251 
		175.2,251 175.2,254.2 173.7,254.2 173.7,249.5 172.1,249.5 172.1,246.3 170.5,246.3 170.5,251 168.9,251 168.9,249.5 167.3,249.5 
		167.3,252.6 165.8,252.6 165.8,254.2 164.2,254.2 164.2,244.7 162.6,244.7 162.6,251 161,251 161,249.5 159.5,249.5 159.5,251 
		157.9,251 157.9,255.8 156.3,255.8 156.3,254.2 154.7,254.2 154.7,252.6 153.1,252.6 153.1,249.5 151.6,249.5 151.6,247.9 
		150,247.9 150,249.5 150,254.2 148.4,254.2 148.4,247.9 146.8,247.9 146.8,251 145.2,251 145.2,246.3 143.7,246.3 143.7,247.9 
		142.1,247.9 142.1,243.1 140.5,243.1 140.5,247.9 140.5,252.6 138.9,252.6 138.9,247.9 137.3,247.9 137.3,249.5 135.8,249.5 
		135.8,251 134.2,251 134.2,247.9 132.6,247.9 132.6,244.7 131,244.7 131,251 129.4,251 129.4,249.5 127.9,249.5 127.9,251 
		126.3,251 126.3,252.6 124.7,252.6 124.7,247.9 123.1,247.9 123.1,244.7 121.6,244.7 121.6,249.5 120,249.5 120,251 118.4,251 
		118.4,247.9 116.8,247.9 116.8,244.7 115.2,244.7 115.2,246.3 113.7,246.3 113.7,249.5 112.1,249.5 112.1,251 110.5,251 
		110.5,247.9 108.9,247.9 108.9,246.3 107.3,246.3 107.3,247.9 105.8,247.9 105.8,249.5 104.2,249.5 104.2,251 102.6,251 
		102.6,246.3 101,246.3 101,243.1 99.4,243.1 99.4,249.5 97.9,249.5 97.9,251 96.3,251 96.3,252.6 94.7,252.6 94.7,246.3 
		94.7,243.1 93.1,243.1 93.1,246.3 91.5,246.3 91.5,249.5 90,249.5 90,246.3 88.4,246.3 88.4,249.5 86.8,249.5 86.8,252.6 
		85.2,252.6 85.2,247.9 83.7,247.9 83.7,252.6 82.1,252.6 82.1,257.4 80.5,257.4 80.5,255.8 78.9,255.8 78.9,258.9 77.3,258.9 
		77.3,260.5 77.3,262.1 77.3,270 93.1,270 94.7,270 102.6,270 104.2,270 131,270 132.6,270 134.2,270 167.3,270 184.7,270 
		187.9,270 189.5,270 192.6,270 194.2,270 211.6,270 213.1,270 214.7,270 217.9,270 219.5,270 224.2,270 224.2,268.4 224.2,266.8 
		224.2,265.3 224.2,252.6 224.2,249.5 	"/>
	<path class="st311" d="M78.9,254.2v3.2h1.6v4.7h1.6v-4.7h1.6v-3.2h1.6v3.2h1.6v-1.6h1.6v-6.3H90v12.6h1.6v-4.7h1.6v-3.2h1.6v-1.6
		h1.6V251h1.6v4.7h1.6v-3.2h1.6v3.2h1.6V251h1.6v1.6h1.6v1.6h1.6v-6.3h1.6v6.3h1.6V251h1.6v6.3h1.6V251h1.6v-3.2h1.6v3.2h1.6v1.6
		h1.6v3.2h1.6v3.2h1.6c0-1,0-3.7,0-4.7h1.6v1.6h1.6v3.2h1.6v-4.7h1.6V251h1.6v4.7h1.6v-1.6h1.6v3.2h1.6v1.6h1.6v-9.5h1.6v6.3h1.6
		v-1.6h1.6v1.6h1.6v4.7h1.6v-1.6h1.6v-1.6h1.6v-3.2h1.6v-1.6h1.6c0,1.1,0,5.2,0,6.3h1.6v-6.3h1.6v3.2h1.6V251h1.6v1.6h1.6v-4.7h1.6
		c0,2.4,0,7.1,0,9.5h1.6v-4.7h1.6v1.6h1.6v1.6h1.6v-3.2h1.6v-3.2h1.6v6.3h1.6v-1.6h1.6v1.6h1.6v1.6h1.6v-4.7h1.6v-3.2h1.6v4.7h1.6
		v1.6h1.6v-3.2h1.6v-3.2h1.6v1.6h1.6v3.2h1.6v1.6h1.6v-3.2h1.6V251h1.6v1.6h1.6v1.6h1.6v1.6h1.6V251h1.6v-3.2h1.6v6.3h1.6v1.6h1.6
		v1.6h1.6c0-2.1,0-7.4,0-9.5h1.6v3.2h1.6v3.2h1.6V251h1.6v3.2h1.6v3.2h1.6v-4.7h1.6v4.7h1.6v4.7h1.6v-1.6h1.6v3.2h1.6
		c0,2.1,0,4.1,0,6.3c-47.9,0-99,0-146.9,0c0-5.1,0-10.7,0-15.8H78.9z"/>
	<g>
		<polygon class="st306" points="137.3,112.1 137.3,108.9 137.3,102.6 135.8,102.6 135.8,99.4 134.2,99.4 134.2,82.1 131,82.1 
			131,78.9 129.4,78.9 129.4,77.3 127.9,77.3 127.9,69.4 127.9,66.3 126.3,66.3 126.3,60 123.1,60 123.1,56.8 120,56.8 120,53.6 
			116.8,53.6 116.8,52.1 113.7,52.1 113.7,50.5 110.5,50.5 110.5,52.1 108.9,52.1 108.9,53.6 105.8,53.6 105.8,55.2 104.2,55.2 
			104.2,56.8 101,56.8 101,60 99.4,60 99.4,66.3 96.3,66.3 96.3,69.4 94.7,69.4 94.7,74.2 93.1,74.2 93.1,75.8 90,75.8 90,78.9 
			88.4,78.9 88.4,86.8 86.8,86.8 86.8,94.7 85.2,94.7 85.2,97.9 83.7,97.9 83.7,104.2 80.5,104.2 80.5,110.5 78.9,110.5 78.9,113.7 
			77.3,113.7 77.3,120 78.9,120 78.9,121.5 80.5,121.5 80.5,126.3 83.7,126.3 83.7,127.9 80.5,127.9 80.5,129.4 78.9,129.4 
			78.9,154.7 80.5,154.7 80.5,156.3 82.1,156.3 82.1,157.9 85.2,157.9 85.2,159.4 86.8,159.4 86.8,162.6 88.4,162.6 88.4,164.2 
			90,164.2 90,167.3 91.5,167.3 91.5,168.9 93.1,168.9 93.1,170.5 94.7,170.5 94.7,172.1 96.3,172.1 96.3,173.7 97.9,173.7 
			97.9,175.2 99.4,175.2 99.4,176.8 112.1,176.8 112.1,175.2 113.7,175.2 113.7,173.7 115.2,173.7 115.2,172.1 116.8,172.1 
			116.8,170.5 118.4,170.5 118.4,168.9 120,168.9 120,167.3 121.6,167.3 121.6,164.2 123.1,164.2 123.1,162.6 124.7,162.6 
			124.7,161 131,161 131,159.4 132.6,159.4 132.6,156.3 134.2,156.3 134.2,154.7 135.8,154.7 135.8,129.4 134.2,129.4 134.2,127.9 
			135.8,127.9 135.8,126.3 137.3,126.3 137.3,123.1 138.9,123.1 138.9,118.4 138.9,115.2 138.9,112.1 		"/>
		<rect x="105.8" y="116.8" class="st303" width="1.6" height="26.8"/>
		<rect x="118.4" y="58.4" class="st305" width="1.6" height="1.6"/>
		<rect x="107.3" y="56.8" class="st305" width="1.6" height="1.6"/>
		<rect x="102.6" y="63.1" class="st305" width="1.6" height="1.6"/>
		
			<rect x="113.7" y="55.2" transform="matrix(-1 -1.224647e-16 1.224647e-16 -1 228.892 112.0226)" class="st305" width="1.6" height="1.6"/>
		<rect x="118.4" y="69.4" class="st305" width="1.6" height="1.6"/>
		<rect x="124.7" y="77.3" class="st305" width="1.6" height="1.6"/>
		<rect x="121.6" y="64.7" class="st305" width="1.6" height="1.6"/>
		<rect x="116.8" y="75.8" class="st305" width="1.6" height="1.6"/>
		<rect x="102.6" y="75.8" class="st305" width="1.6" height="1.6"/>
		<rect x="96.3" y="83.6" class="st305" width="1.6" height="1.6"/>
		<rect x="91.5" y="78.9" class="st305" width="1.6" height="1.6"/>
		<rect x="99.4" y="69.4" class="st305" width="1.6" height="1.6"/>
		<rect x="93.1" y="90" class="st305" width="1.6" height="1.6"/>
		<rect x="86.8" y="97.9" class="st305" width="1.6" height="1.6"/>
		<rect x="99.4" y="107.3" class="st305" width="1.6" height="1.6"/>
		<rect x="96.3" y="94.7" class="st305" width="1.6" height="1.6"/>
		<rect x="107.3" y="96.3" class="st305" width="1.6" height="1.6"/>
		<rect x="107.3" y="85.2" class="st305" width="1.6" height="1.6"/>
		<rect x="113.7" y="86.8" class="st305" width="1.6" height="1.6"/>
		<rect x="121.6" y="93.1" class="st305" width="1.6" height="1.6"/>
		<rect x="120" y="83.6" class="st305" width="1.6" height="1.6"/>
		<rect x="131" y="101" class="st305" width="1.6" height="1.6"/>
		
			<rect x="131" y="86.8" transform="matrix(-1 -1.224647e-16 1.224647e-16 -1 263.634 175.1899)" class="st305" width="1.6" height="1.6"/>
		<rect x="126.3" y="83.6" class="st305" width="1.6" height="1.6"/>
		<rect x="129.4" y="110.5" class="st305" width="1.6" height="1.6"/>
		<rect x="134.2" y="120" class="st305" width="1.6" height="1.6"/>
		<rect x="124.7" y="126.3" class="st305" width="1.6" height="1.6"/>
		<rect x="113.7" y="121.5" class="st305" width="1.6" height="1.6"/>
		<rect x="118.4" y="101" class="st305" width="1.6" height="1.6"/>
		<rect x="118.4" y="138.9" class="st305" width="1.6" height="1.6"/>
		<rect x="132.6" y="135.8" class="st305" width="1.6" height="1.6"/>
		<rect x="127.9" y="154.7" class="st305" width="1.6" height="1.6"/>
		<rect x="115.2" y="150" class="st305" width="1.6" height="1.6"/>
		<rect x="115.2" y="162.6" class="st305" width="1.6" height="1.6"/>
		<rect x="94.7" y="162.6" class="st305" width="1.6" height="1.6"/>
		<rect x="97.9" y="167.3" class="st305" width="1.6" height="1.6"/>
		<rect x="85.2" y="154.7" class="st305" width="1.6" height="1.6"/>
		<rect x="82.1" y="145.2" class="st305" width="1.6" height="1.6"/>
		<rect x="85.2" y="137.3" class="st305" width="1.6" height="1.6"/>
		<rect x="99.4" y="135.8" class="st305" width="1.6" height="1.6"/>
		<rect x="97.9" y="143.7" class="st305" width="1.6" height="1.6"/>
		<rect x="85.2" y="123.1" class="st305" width="1.6" height="1.6"/>
		<rect x="93.1" y="129.4" class="st305" width="1.6" height="1.6"/>
		<rect x="80.5" y="131" class="st305" width="1.6" height="1.6"/>
		<rect x="80.5" y="116.8" class="st305" width="1.6" height="1.6"/>
		<rect x="83.7" y="110.5" class="st305" width="1.6" height="1.6"/>
		<rect x="96.3" y="115.2" class="st305" width="1.6" height="1.6"/>
		<rect x="90" y="108.9" class="st305" width="1.6" height="1.6"/>
		<g>
			<polygon class="st303" points="112.1,96.3 112.1,94.7 112.1,60 110.5,60 110.5,69.4 108.9,69.4 108.9,66.3 107.3,66.3 107.3,71 
				108.9,71 108.9,75.8 110.5,75.8 110.5,94.7 110.5,96.3 110.5,105.8 112.1,105.8 			"/>
			<rect x="115.2" y="80.5" class="st303" width="1.6" height="30"/>
			<rect x="113.7" y="110.5" class="st303" width="1.6" height="1.6"/>
			<rect x="86.8" y="115.2" class="st303" width="1.6" height="1.6"/>
			<rect x="88.4" y="116.8" class="st303" width="1.6" height="3.2"/>
			<rect x="90" y="120" class="st303" width="1.6" height="1.6"/>
			<rect x="91.5" y="121.5" class="st303" width="1.6" height="1.6"/>
			<polygon class="st303" points="94.7,123.1 93.1,123.1 93.1,124.7 94.7,124.7 94.7,126.3 96.3,126.3 96.3,123.1 			"/>
			<rect x="96.3" y="126.3" class="st303" width="1.6" height="1.6"/>
			<rect x="97.9" y="127.9" class="st303" width="1.6" height="3.2"/>
			<rect x="99.4" y="131" class="st303" width="1.6" height="1.6"/>
			<polygon class="st303" points="101,113.7 99.4,113.7 99.4,118.4 99.4,120 101,120 101,118.4 			"/>
			<rect x="93.1" y="94.7" class="st303" width="1.6" height="6.3"/>
			<polygon class="st303" points="94.7,101 94.7,107.3 93.1,107.3 93.1,108.9 94.7,108.9 94.7,110.5 96.3,110.5 96.3,101 			"/>
			<rect x="96.3" y="110.5" class="st303" width="1.6" height="1.6"/>
			<rect x="97.9" y="112.1" class="st303" width="1.6" height="1.6"/>
			<rect x="88.4" y="104.2" class="st303" width="1.6" height="1.6"/>
			<polygon class="st303" points="91.5,105.8 90,105.8 90,107.3 91.5,107.3 93.1,107.3 93.1,105.8 			"/>
			<rect x="86.8" y="102.6" class="st303" width="1.6" height="1.6"/>
			<rect x="126.3" y="90" class="st303" width="1.6" height="3.2"/>
			<rect x="124.7" y="93.1" class="st303" width="1.6" height="6.3"/>
			<rect x="123.1" y="99.4" class="st303" width="1.6" height="6.3"/>
			<polygon class="st303" points="123.1,110.5 124.7,110.5 124.7,108.9 123.1,108.9 123.1,105.8 121.6,105.8 121.6,112.1 
				123.1,112.1 			"/>
			<rect x="124.7" y="107.3" class="st303" width="1.6" height="1.6"/>
			<rect x="126.3" y="105.8" class="st303" width="1.6" height="1.6"/>
			<rect x="127.9" y="104.2" class="st303" width="1.6" height="1.6"/>
			<polygon class="st303" points="118.4,121.5 120,121.5 120,115.2 121.6,115.2 121.6,112.1 120,112.1 120,113.7 118.4,113.7 
				118.4,120 116.8,120 116.8,126.3 118.4,126.3 			"/>
			<rect x="118.4" y="129.4" class="st303" width="1.6" height="1.6"/>
			<polygon class="st303" points="121.6,127.9 121.6,124.7 120,124.7 120,127.9 120,129.4 121.6,129.4 			"/>
			<rect x="121.6" y="123.1" class="st303" width="1.6" height="1.6"/>
			<rect x="123.1" y="121.5" class="st303" width="1.6" height="1.6"/>
			<rect x="124.7" y="120" class="st303" width="1.6" height="1.6"/>
			<rect x="126.3" y="118.4" class="st303" width="1.6" height="1.6"/>
			<rect x="124.7" y="134.2" class="st303" width="1.6" height="9.5"/>
			<rect x="126.3" y="129.4" class="st303" width="1.6" height="4.7"/>
			<polygon class="st303" points="124.7,143.7 123.1,143.7 123.1,150 124.7,150 124.7,148.4 126.3,148.4 126.3,146.8 124.7,146.8 
							"/>
			<polygon class="st303" points="129.4,142.1 129.4,143.7 127.9,143.7 127.9,145.2 126.3,145.2 126.3,146.8 129.4,146.8 
				129.4,145.2 131,145.2 131,143.7 132.6,143.7 132.6,142.1 			"/>
			<rect x="115.2" y="156.3" class="st303" width="1.6" height="1.6"/>
			<rect x="116.8" y="154.7" class="st303" width="1.6" height="1.6"/>
			<rect x="118.4" y="153.1" class="st303" width="1.6" height="1.6"/>
			<rect x="120" y="151.6" class="st303" width="1.6" height="1.6"/>
			<rect x="121.6" y="150" class="st303" width="1.6" height="1.6"/>
			<polygon class="st303" points="112.1,156.3 112.1,154.7 112.1,145.2 113.7,145.2 113.7,138.9 115.2,138.9 115.2,137.3 
				115.2,135.8 116.8,135.8 116.8,132.6 118.4,132.6 118.4,131 116.8,131 116.8,126.3 115.2,126.3 115.2,134.2 113.7,134.2 
				113.7,135.8 112.1,135.8 112.1,137.3 110.5,137.3 110.5,123.1 110.5,118.4 112.1,118.4 112.1,116.8 113.7,116.8 113.7,115.2 
				113.7,112.1 112.1,112.1 112.1,115.2 110.5,115.2 110.5,105.8 108.9,105.8 108.9,112.1 107.3,112.1 107.3,115.2 105.8,115.2 
				105.8,110.5 104.2,110.5 104.2,102.6 104.2,80.5 102.6,80.5 102.6,78.9 101,78.9 101,82.1 102.6,82.1 102.6,99.4 101,99.4 
				101,90 99.4,90 99.4,99.4 99.4,101 101,101 101,104.2 102.6,104.2 102.6,112.1 104.2,112.1 104.2,116.8 105.8,116.8 105.8,118.4 
				107.3,118.4 107.3,120 107.3,135.8 105.8,135.8 104.2,135.8 104.2,127.9 102.6,127.9 102.6,120 101,120 101,129.4 102.6,129.4 
				102.6,132.6 101,132.6 101,134.2 102.6,134.2 102.6,137.3 104.2,137.3 104.2,140.5 104.2,142.1 104.2,156.3 102.6,156.3 
				102.6,154.7 101,154.7 101,153.1 99.4,153.1 97.9,153.1 97.9,151.6 96.3,151.6 94.7,151.6 94.7,145.2 93.1,145.2 93.1,150 
				91.5,150 91.5,148.4 90,148.4 90,151.6 91.5,151.6 93.1,151.6 93.1,153.1 94.7,153.1 94.7,154.7 96.3,154.7 96.3,156.3 
				97.9,156.3 99.4,156.3 99.4,159.4 101,159.4 101,162.6 102.6,162.6 102.6,170.5 102.6,221 101,221 101,252.6 101,257.4 
				101,268.4 99.4,268.4 99.4,271.6 97.9,271.6 97.9,274.7 96.3,274.7 96.3,277.9 94.7,277.9 94.7,279.5 93.1,279.5 93.1,281 
				88.4,281 88.4,282.6 86.8,282.6 85.2,282.6 82.1,282.6 80.5,282.6 80.5,284.2 80.5,287.4 82.1,287.4 82.1,284.2 85.2,284.2 
				85.2,287.4 83.7,287.4 83.7,288.9 86.8,288.9 86.8,287.4 86.8,284.2 91.5,284.2 91.5,282.6 93.1,282.6 94.7,282.6 96.3,282.6 
				96.3,281 97.9,281 97.9,279.5 99.4,279.5 99.4,284.2 101,284.2 101,285.8 99.4,285.8 99.4,292.1 96.3,292.1 96.3,293.7 
				94.7,293.7 85.2,293.7 82.1,293.7 82.1,295.3 85.2,295.3 90,295.3 90,296.8 91.5,296.8 91.5,295.3 94.7,295.3 94.7,300 96.3,300 
				96.3,295.3 99.4,295.3 99.4,293.7 101,293.7 101,292.1 101,290.5 102.6,290.5 102.6,288.9 104.2,288.9 104.2,287.4 104.2,284.2 
				105.8,284.2 105.8,279.5 107.3,279.5 107.3,282.6 108.9,282.6 108.9,288.9 108.9,296.8 107.3,296.8 107.3,304.7 105.8,304.7 
				104.2,304.7 104.2,311 105.8,311 105.8,306.3 107.3,306.3 108.9,306.3 108.9,311 110.5,311 110.5,304.7 108.9,304.7 108.9,298.4 
				110.5,298.4 110.5,290.5 112.1,290.5 112.1,284.2 115.2,284.2 115.2,287.4 116.8,287.4 116.8,284.2 118.4,284.2 118.4,282.6 
				118.4,281 121.6,281 121.6,279.5 118.4,279.5 115.2,279.5 115.2,277.9 113.7,277.9 113.7,274.7 112.1,274.7 112.1,257.4 
				112.1,252.6 112.1,168.9 112.1,161 113.7,161 113.7,159.4 115.2,159.4 115.2,157.9 112.1,157.9 			"/>
			<rect x="91.5" y="138.9" class="st303" width="1.6" height="6.3"/>
			<rect x="88.4" y="127.9" class="st303" width="1.6" height="9.5"/>
			<rect x="90" y="137.3" class="st303" width="1.6" height="1.6"/>
			<rect x="88.4" y="146.8" class="st303" width="1.6" height="1.6"/>
			<rect x="86.8" y="145.2" class="st303" width="1.6" height="1.6"/>
			<rect x="85.2" y="143.7" class="st303" width="1.6" height="1.6"/>
			<rect x="83.7" y="142.1" class="st303" width="1.6" height="1.6"/>
			<rect x="82.1" y="140.5" class="st303" width="1.6" height="1.6"/>
			<rect x="93.1" y="300" class="st303" width="1.6" height="1.6"/>
			<rect x="82.1" y="298.4" class="st303" width="3.2" height="1.6"/>
			<polygon class="st303" points="85.2,296.8 85.2,298.4 86.8,298.4 90,298.4 90,296.8 86.8,296.8 			"/>
			<rect x="118.4" y="284.2" class="st303" width="1.6" height="1.6"/>
			<rect x="120" y="285.8" class="st303" width="1.6" height="1.6"/>
			<rect x="121.6" y="287.4" class="st303" width="1.6" height="1.6"/>
			<rect x="123.1" y="288.9" class="st303" width="1.6" height="1.6"/>
			<rect x="124.7" y="290.5" class="st303" width="1.6" height="1.6"/>
			<rect x="126.3" y="292.1" class="st303" width="1.6" height="3.2"/>
			<polygon class="st303" points="124.7,282.6 126.3,282.6 129.4,282.6 129.4,281 126.3,281 124.7,281 121.6,281 121.6,282.6 			"/>
			<polygon class="st303" points="116.8,290.5 118.4,290.5 118.4,293.7 120,293.7 120,290.5 120,288.9 118.4,288.9 118.4,287.4 
				116.8,287.4 116.8,288.9 			"/>
			<rect x="120" y="293.7" class="st303" width="1.6" height="3.2"/>
			<rect x="121.6" y="296.8" class="st303" width="3.2" height="1.6"/>
			<rect x="124.7" y="298.4" class="st303" width="1.6" height="1.6"/>
			<rect x="78.9" y="287.4" class="st303" width="1.6" height="1.6"/>
			<rect x="77.3" y="288.9" class="st303" width="1.6" height="1.6"/>
			<rect x="82.1" y="288.9" class="st303" width="1.6" height="1.6"/>
		</g>
	</g>
	<g>
		<polygon class="st306" points="173.7,112.1 173.7,108.9 173.7,102.6 175.2,102.6 175.2,99.4 176.8,99.4 176.8,82.1 180,82.1 
			180,78.9 181.6,78.9 181.6,77.3 183.1,77.3 183.1,69.4 183.1,66.3 184.7,66.3 184.7,60 187.9,60 187.9,56.8 191,56.8 191,53.6 
			194.2,53.6 194.2,52.1 197.4,52.1 197.4,50.5 200.5,50.5 200.5,52.1 202.1,52.1 202.1,53.6 205.2,53.6 205.2,55.2 206.8,55.2 
			206.8,56.8 210,56.8 210,60 211.6,60 211.6,66.3 214.7,66.3 214.7,69.4 216.3,69.4 216.3,74.2 217.9,74.2 217.9,75.8 221,75.8 
			221,78.9 222.6,78.9 222.6,86.8 224.2,86.8 224.2,94.7 225.8,94.7 225.8,97.9 227.4,97.9 227.4,104.2 230.5,104.2 230.5,110.5 
			232.1,110.5 232.1,113.7 233.7,113.7 233.7,120 232.1,120 232.1,121.5 230.5,121.5 230.5,126.3 227.4,126.3 227.4,127.9 
			230.5,127.9 230.5,129.4 232.1,129.4 232.1,154.7 230.5,154.7 230.5,156.3 228.9,156.3 228.9,157.9 225.8,157.9 225.8,159.4 
			224.2,159.4 224.2,162.6 222.6,162.6 222.6,164.2 221,164.2 221,167.3 219.5,167.3 219.5,168.9 217.9,168.9 217.9,170.5 
			216.3,170.5 216.3,172.1 214.7,172.1 214.7,173.7 213.1,173.7 213.1,175.2 211.6,175.2 211.6,176.8 198.9,176.8 198.9,175.2 
			197.4,175.2 197.4,173.7 195.8,173.7 195.8,172.1 194.2,172.1 194.2,170.5 192.6,170.5 192.6,168.9 191,168.9 191,167.3 
			189.5,167.3 189.5,164.2 187.9,164.2 187.9,162.6 186.3,162.6 186.3,161 180,161 180,159.4 178.4,159.4 178.4,156.3 176.8,156.3 
			176.8,154.7 175.2,154.7 175.2,129.4 176.8,129.4 176.8,127.9 175.2,127.9 175.2,126.3 173.7,126.3 173.7,123.1 172.1,123.1 
			172.1,118.4 172.1,115.2 172.1,112.1 		"/>
		
			<rect x="203.7" y="116.8" transform="matrix(-1 -4.377044e-11 4.377044e-11 -1 408.9189 260.4658)" class="st303" width="1.6" height="26.8"/>
		
			<rect x="191" y="58.4" transform="matrix(-1 -4.492241e-11 4.492241e-11 -1 383.6519 118.3393)" class="st305" width="1.6" height="1.6"/>
		
			<rect x="202.1" y="56.8" transform="matrix(-1 -4.492241e-11 4.492241e-11 -1 405.7605 115.181)" class="st305" width="1.6" height="1.6"/>
		
			<rect x="206.8" y="63.1" transform="matrix(-1 -4.607438e-11 4.607438e-11 -1 415.2356 127.8144)" class="st305" width="1.6" height="1.6"/>
		<rect x="195.8" y="55.2" class="st305" width="1.6" height="1.6"/>
		
			<rect x="191" y="69.4" transform="matrix(-1 -4.492241e-11 4.492241e-11 -1 383.6519 140.4479)" class="st305" width="1.6" height="1.6"/>
		
			<rect x="184.7" y="77.3" transform="matrix(-1 -4.607438e-11 4.607438e-11 -1 371.0184 156.2397)" class="st305" width="1.6" height="1.6"/>
		
			<rect x="187.9" y="64.7" transform="matrix(-1 -4.722634e-11 4.722634e-11 -1 377.3352 130.9728)" class="st305" width="1.6" height="1.6"/>
		
			<rect x="192.6" y="75.8" transform="matrix(-1 -4.377044e-11 4.377044e-11 -1 386.8103 153.0814)" class="st305" width="1.6" height="1.6"/>
		
			<rect x="206.8" y="75.8" transform="matrix(-1 -4.492241e-11 4.492241e-11 -1 415.2356 153.0814)" class="st305" width="1.6" height="1.6"/>
		
			<rect x="213.1" y="83.6" transform="matrix(-1 -4.377044e-11 4.377044e-11 -1 427.869 168.8732)" class="st305" width="1.6" height="1.6"/>
		
			<rect x="217.9" y="78.9" transform="matrix(-1 -4.377044e-11 4.377044e-11 -1 437.3441 159.3981)" class="st305" width="1.6" height="1.6"/>
		
			<rect x="210" y="69.4" transform="matrix(-1 -4.492241e-11 4.492241e-11 -1 421.5523 140.4479)" class="st305" width="1.6" height="1.6"/>
		
			<rect x="216.3" y="90" transform="matrix(-1 -4.492241e-11 4.492241e-11 -1 434.1858 181.5067)" class="st305" width="1.6" height="1.6"/>
		
			<rect x="222.6" y="97.9" transform="matrix(-1 -4.607438e-11 4.607438e-11 -1 446.8192 197.2985)" class="st305" width="1.6" height="1.6"/>
		
			<rect x="210" y="107.3" transform="matrix(-1 -4.492241e-11 4.492241e-11 -1 421.5523 216.2487)" class="st305" width="1.6" height="1.6"/>
		
			<rect x="213.1" y="94.7" transform="matrix(-1 -4.607438e-11 4.607438e-11 -1 427.869 190.9818)" class="st305" width="1.6" height="1.6"/>
		
			<rect x="202.1" y="96.3" transform="matrix(-1 -4.492241e-11 4.492241e-11 -1 405.7605 194.1401)" class="st305" width="1.6" height="1.6"/>
		
			<rect x="202.1" y="85.2" transform="matrix(-1 -4.607438e-11 4.607438e-11 -1 405.7605 172.0316)" class="st305" width="1.6" height="1.6"/>
		
			<rect x="195.8" y="86.8" transform="matrix(-1 -4.492241e-11 4.492241e-11 -1 393.127 175.1899)" class="st305" width="1.6" height="1.6"/>
		
			<rect x="187.9" y="93.1" transform="matrix(-1 -4.607438e-11 4.607438e-11 -1 377.3352 187.8234)" class="st305" width="1.6" height="1.6"/>
		
			<rect x="189.5" y="83.6" transform="matrix(-1 -4.377044e-11 4.377044e-11 -1 380.4935 168.8732)" class="st305" width="1.6" height="1.6"/>
		
			<rect x="178.4" y="101" transform="matrix(-1 -4.492241e-11 4.492241e-11 -1 358.385 203.6152)" class="st305" width="1.6" height="1.6"/>
		<rect x="178.4" y="86.8" class="st305" width="1.6" height="1.6"/>
		
			<rect x="183.1" y="83.6" transform="matrix(-1 -4.492241e-11 4.492241e-11 -1 367.8601 168.8732)" class="st305" width="1.6" height="1.6"/>
		
			<rect x="180" y="110.5" transform="matrix(-1 -4.377044e-11 4.377044e-11 -1 361.5433 222.5654)" class="st305" width="1.6" height="1.6"/>
		
			<rect x="175.2" y="120" transform="matrix(-1 -4.607438e-11 4.607438e-11 -1 352.0682 241.5156)" class="st305" width="1.6" height="1.6"/>
		
			<rect x="184.7" y="126.3" transform="matrix(-1 -4.377044e-11 4.377044e-11 -1 371.0184 254.1491)" class="st305" width="1.6" height="1.6"/>
		
			<rect x="195.8" y="121.5" transform="matrix(-1 -4.492241e-11 4.492241e-11 -1 393.127 244.674)" class="st305" width="1.6" height="1.6"/>
		
			<rect x="191" y="101" transform="matrix(-1 -4.377044e-11 4.377044e-11 -1 383.6519 203.6152)" class="st305" width="1.6" height="1.6"/>
		
			<rect x="191" y="138.9" transform="matrix(-1 -4.377044e-11 4.377044e-11 -1 383.6519 279.416)" class="st305" width="1.6" height="1.6"/>
		
			<rect x="176.8" y="135.8" transform="matrix(-1 -4.377044e-11 4.377044e-11 -1 355.2266 273.0993)" class="st305" width="1.6" height="1.6"/>
		
			<rect x="181.6" y="154.7" transform="matrix(-1 -4.492241e-11 4.492241e-11 -1 364.7017 310.9997)" class="st305" width="1.6" height="1.6"/>
		
			<rect x="194.2" y="150" transform="matrix(-1 -4.492241e-11 4.492241e-11 -1 389.9687 301.5246)" class="st305" width="1.6" height="1.6"/>
		
			<rect x="194.2" y="162.6" transform="matrix(-1 -4.492241e-11 4.492241e-11 -1 389.9687 326.7915)" class="st305" width="1.6" height="1.6"/>
		
			<rect x="214.7" y="162.6" transform="matrix(-1 -4.492241e-11 4.492241e-11 -1 431.0274 326.7915)" class="st305" width="1.6" height="1.6"/>
		
			<rect x="211.6" y="167.3" transform="matrix(-1 -4.377044e-11 4.377044e-11 -1 424.7107 336.2666)" class="st305" width="1.6" height="1.6"/>
		
			<rect x="224.2" y="154.7" transform="matrix(-1 -4.377044e-11 4.377044e-11 -1 449.9776 310.9997)" class="st305" width="1.6" height="1.6"/>
		
			<rect x="227.4" y="145.2" transform="matrix(-1 -4.607438e-11 4.607438e-11 -1 456.2943 292.0495)" class="st305" width="1.6" height="1.6"/>
		
			<rect x="224.2" y="137.3" transform="matrix(-1 -4.377044e-11 4.377044e-11 -1 449.9776 276.2577)" class="st305" width="1.6" height="1.6"/>
		
			<rect x="210" y="135.8" transform="matrix(-1 -4.377044e-11 4.377044e-11 -1 421.5523 273.0993)" class="st305" width="1.6" height="1.6"/>
		
			<rect x="211.6" y="143.7" transform="matrix(-1 -4.492241e-11 4.492241e-11 -1 424.7107 288.8911)" class="st305" width="1.6" height="1.6"/>
		
			<rect x="224.2" y="123.1" transform="matrix(-1 -4.607438e-11 4.607438e-11 -1 449.9776 247.8324)" class="st305" width="1.6" height="1.6"/>
		
			<rect x="216.3" y="129.4" transform="matrix(-1 -4.377044e-11 4.377044e-11 -1 434.1858 260.4658)" class="st305" width="1.6" height="1.6"/>
		
			<rect x="225.8" y="110.5" transform="matrix(-1 -4.607438e-11 4.607438e-11 -1 453.136 222.5654)" class="st305" width="1.6" height="1.6"/>
		
			<rect x="213.1" y="115.2" transform="matrix(-1 -4.607438e-11 4.607438e-11 -1 427.869 232.0405)" class="st305" width="1.6" height="1.6"/>
		
			<rect x="219.5" y="108.9" transform="matrix(-1 -4.492241e-11 4.492241e-11 -1 440.5025 219.4071)" class="st305" width="1.6" height="1.6"/>
		<g>
			<polygon class="st303" points="200.5,94.7 200.5,75.8 202.1,75.8 202.1,71 203.7,71 203.7,66.3 202.1,66.3 202.1,69.4 
				200.5,69.4 200.5,60 198.9,60 198.9,94.7 198.9,96.3 198.9,105.8 200.5,105.8 200.5,96.3 			"/>
			<rect x="194.2" y="80.5" class="st303" width="1.6" height="30"/>
			<rect x="195.8" y="110.5" class="st303" width="1.6" height="1.6"/>
			<rect x="222.6" y="115.2" class="st303" width="1.6" height="1.6"/>
			<rect x="221" y="116.8" class="st303" width="1.6" height="3.2"/>
			<rect x="219.5" y="120" class="st303" width="1.6" height="1.6"/>
			<rect x="217.9" y="121.5" class="st303" width="1.6" height="1.6"/>
			<polygon class="st303" points="216.3,124.7 217.9,124.7 217.9,123.1 216.3,123.1 214.7,123.1 214.7,126.3 216.3,126.3 			"/>
			<rect x="213.1" y="126.3" class="st303" width="1.6" height="1.6"/>
			<rect x="211.6" y="127.9" class="st303" width="1.6" height="3.2"/>
			<rect x="210" y="131" class="st303" width="1.6" height="1.6"/>
			<polygon class="st303" points="211.6,118.4 211.6,113.7 210,113.7 210,118.4 210,120 211.6,120 			"/>
			<rect x="216.3" y="94.7" class="st303" width="1.6" height="6.3"/>
			<polygon class="st303" points="216.3,108.9 217.9,108.9 217.9,107.3 216.3,107.3 216.3,101 214.7,101 214.7,110.5 216.3,110.5 
							"/>
			<rect x="213.1" y="110.5" class="st303" width="1.6" height="1.6"/>
			<rect x="211.6" y="112.1" class="st303" width="1.6" height="1.6"/>
			<rect x="221" y="104.2" class="st303" width="1.6" height="1.6"/>
			<polygon class="st303" points="221,107.3 221,105.8 219.5,105.8 217.9,105.8 217.9,107.3 219.5,107.3 			"/>
			<rect x="222.6" y="102.6" class="st303" width="1.6" height="1.6"/>
			<rect x="183.1" y="90" class="st303" width="1.6" height="3.2"/>
			<rect x="184.7" y="93.1" class="st303" width="1.6" height="6.3"/>
			<rect x="186.3" y="99.4" class="st303" width="1.6" height="6.3"/>
			<polygon class="st303" points="187.9,105.8 187.9,108.9 186.3,108.9 186.3,110.5 187.9,110.5 187.9,112.1 189.5,112.1 
				189.5,105.8 			"/>
			<rect x="184.7" y="107.3" class="st303" width="1.6" height="1.6"/>
			<rect x="183.1" y="105.8" class="st303" width="1.6" height="1.6"/>
			<rect x="181.6" y="104.2" class="st303" width="1.6" height="1.6"/>
			<polygon class="st303" points="192.6,120 192.6,113.7 191,113.7 191,112.1 189.5,112.1 189.5,115.2 191,115.2 191,121.5 
				192.6,121.5 192.6,126.3 194.2,126.3 194.2,120 			"/>
			<rect x="191" y="129.4" class="st303" width="1.6" height="1.6"/>
			<polygon class="st303" points="191,124.7 189.5,124.7 189.5,127.9 189.5,129.4 191,129.4 191,127.9 			"/>
			<rect x="187.9" y="123.1" class="st303" width="1.6" height="1.6"/>
			<rect x="186.3" y="121.5" class="st303" width="1.6" height="1.6"/>
			<rect x="184.7" y="120" class="st303" width="1.6" height="1.6"/>
			<rect x="183.1" y="118.4" class="st303" width="1.6" height="1.6"/>
			<rect x="184.7" y="134.2" class="st303" width="1.6" height="9.5"/>
			<rect x="183.1" y="129.4" class="st303" width="1.6" height="4.7"/>
			<polygon class="st303" points="186.3,143.7 186.3,146.8 184.7,146.8 184.7,148.4 186.3,148.4 186.3,150 187.9,150 187.9,143.7 
							"/>
			<polygon class="st303" points="183.1,145.2 183.1,143.7 181.6,143.7 181.6,142.1 178.4,142.1 178.4,143.7 180,143.7 180,145.2 
				181.6,145.2 181.6,146.8 184.7,146.8 184.7,145.2 			"/>
			<rect x="194.2" y="156.3" class="st303" width="1.6" height="1.6"/>
			<rect x="192.6" y="154.7" class="st303" width="1.6" height="1.6"/>
			<rect x="191" y="153.1" class="st303" width="1.6" height="1.6"/>
			<rect x="189.5" y="151.6" class="st303" width="1.6" height="1.6"/>
			<rect x="187.9" y="150" class="st303" width="1.6" height="1.6"/>
			<polygon class="st303" points="230.5,282.6 228.9,282.6 225.8,282.6 224.2,282.6 222.6,282.6 222.6,281 217.9,281 217.9,279.5 
				216.3,279.5 216.3,277.9 214.7,277.9 214.7,274.7 213.1,274.7 213.1,271.6 211.6,271.6 211.6,268.4 210,268.4 210,255.8 
				210,252.6 210,202.1 208.4,202.1 208.4,170.5 208.4,162.6 210,162.6 210,159.4 211.6,159.4 211.6,156.3 213.1,156.3 214.7,156.3 
				214.7,154.7 216.3,154.7 216.3,153.1 217.9,153.1 217.9,151.6 219.5,151.6 221,151.6 221,148.4 219.5,148.4 219.5,150 217.9,150 
				217.9,145.2 216.3,145.2 216.3,151.6 214.7,151.6 213.1,151.6 213.1,153.1 211.6,153.1 210,153.1 210,154.7 208.4,154.7 
				208.4,156.3 206.8,156.3 206.8,142.1 206.8,140.5 206.8,137.3 208.4,137.3 208.4,134.2 210,134.2 210,132.6 208.4,132.6 
				208.4,129.4 210,129.4 210,120 208.4,120 208.4,127.9 206.8,127.9 206.8,135.8 205.2,135.8 203.7,135.8 203.7,120 203.7,118.4 
				205.2,118.4 205.2,116.8 206.8,116.8 206.8,112.1 208.4,112.1 208.4,104.2 210,104.2 210,101 211.6,101 211.6,99.4 211.6,90 
				210,90 210,99.4 208.4,99.4 208.4,82.1 210,82.1 210,78.9 208.4,78.9 208.4,80.5 206.8,80.5 206.8,102.6 206.8,110.5 
				205.2,110.5 205.2,115.2 203.7,115.2 203.7,112.1 202.1,112.1 202.1,105.8 200.5,105.8 200.5,115.2 198.9,115.2 198.9,112.1 
				197.4,112.1 197.4,115.2 197.4,116.8 198.9,116.8 198.9,118.4 200.5,118.4 200.5,123.1 200.5,137.3 198.9,137.3 198.9,135.8 
				197.4,135.8 197.4,134.2 195.8,134.2 195.8,126.3 194.2,126.3 194.2,131 192.6,131 192.6,132.6 194.2,132.6 194.2,135.8 
				195.8,135.8 195.8,137.3 195.8,138.9 197.4,138.9 197.4,145.2 198.9,145.2 198.9,154.7 198.9,156.3 198.9,157.9 195.8,157.9 
				195.8,159.4 197.4,159.4 197.4,161 198.9,161 198.9,168.9 198.9,252.6 198.9,257.4 198.9,274.7 197.4,274.7 197.4,277.9 
				195.8,277.9 195.8,279.5 192.6,279.5 189.5,279.5 189.5,281 192.6,281 192.6,282.6 192.6,284.2 194.2,284.2 194.2,287.4 
				195.8,287.4 195.8,284.2 198.9,284.2 198.9,290.5 200.5,290.5 200.5,298.4 202.1,298.4 202.1,304.7 200.5,304.7 200.5,311 
				202.1,311 202.1,306.3 203.7,306.3 205.2,306.3 205.2,311 206.8,311 206.8,304.7 205.2,304.7 203.7,304.7 203.7,296.8 
				202.1,296.8 202.1,288.9 202.1,282.6 203.7,282.6 203.7,279.5 205.2,279.5 205.2,284.2 206.8,284.2 206.8,287.4 206.8,288.9 
				208.4,288.9 208.4,290.5 210,290.5 210,292.1 210,293.7 211.6,293.7 211.6,295.3 214.7,295.3 214.7,300 216.3,300 216.3,295.3 
				219.5,295.3 219.5,296.8 221,296.8 221,295.3 225.8,295.3 228.9,295.3 228.9,293.7 225.8,293.7 216.3,293.7 214.7,293.7 
				214.7,292.1 211.6,292.1 211.6,285.8 210,285.8 210,284.2 211.6,284.2 211.6,279.5 213.1,279.5 213.1,281 214.7,281 214.7,282.6 
				216.3,282.6 217.9,282.6 219.5,282.6 219.5,284.2 224.2,284.2 224.2,287.4 224.2,288.9 227.4,288.9 227.4,287.4 225.8,287.4 
				225.8,284.2 228.9,284.2 228.9,287.4 230.5,287.4 230.5,284.2 			"/>
			<rect x="217.9" y="138.9" class="st303" width="1.6" height="6.3"/>
			<rect x="221" y="127.9" class="st303" width="1.6" height="9.5"/>
			<rect x="219.5" y="137.3" class="st303" width="1.6" height="1.6"/>
			<rect x="221" y="146.8" class="st303" width="1.6" height="1.6"/>
			<rect x="222.6" y="145.2" class="st303" width="1.6" height="1.6"/>
			<rect x="224.2" y="143.7" class="st303" width="1.6" height="1.6"/>
			<rect x="225.8" y="142.1" class="st303" width="1.6" height="1.6"/>
			<rect x="227.4" y="140.5" class="st303" width="1.6" height="1.6"/>
			<rect x="216.3" y="300" class="st303" width="1.6" height="1.6"/>
			<rect x="225.8" y="298.4" class="st303" width="3.2" height="1.6"/>
			<polygon class="st303" points="224.2,298.4 225.8,298.4 225.8,296.8 224.2,296.8 221,296.8 221,298.4 			"/>
			<rect x="191" y="284.2" class="st303" width="1.6" height="1.6"/>
			<rect x="189.5" y="285.8" class="st303" width="1.6" height="1.6"/>
			<rect x="187.9" y="287.4" class="st303" width="1.6" height="1.6"/>
			<rect x="186.3" y="288.9" class="st303" width="1.6" height="1.6"/>
			<rect x="184.7" y="290.5" class="st303" width="1.6" height="1.6"/>
			<rect x="183.1" y="292.1" class="st303" width="1.6" height="3.2"/>
			<polygon class="st303" points="184.7,281 181.6,281 181.6,282.6 184.7,282.6 186.3,282.6 189.5,282.6 189.5,281 186.3,281 			"/>
			<polygon class="st303" points="192.6,288.9 191,288.9 191,290.5 191,293.7 192.6,293.7 192.6,290.5 194.2,290.5 194.2,288.9 
				194.2,287.4 192.6,287.4 			"/>
			<rect x="189.5" y="293.7" class="st303" width="1.6" height="3.2"/>
			<rect x="186.3" y="296.8" class="st303" width="3.2" height="1.6"/>
			<rect x="184.7" y="298.4" class="st303" width="1.6" height="1.6"/>
			<rect x="230.5" y="287.4" class="st303" width="1.6" height="1.6"/>
			<rect x="232.1" y="288.9" class="st303" width="1.6" height="1.6"/>
			<rect x="227.4" y="288.9" class="st303" width="1.6" height="1.6"/>
		</g>
	</g>
	<rect x="150" y="287.4" class="st303" width="1.6" height="1.6"/>
	<rect x="134.2" y="285.8" class="st303" width="1.6" height="1.6"/>
	<rect x="132.6" y="274.7" class="st303" width="1.6" height="1.6"/>
	<rect x="83.7" y="277.9" class="st303" width="1.6" height="1.6"/>
	<rect x="172.1" y="274.7" class="st303" width="1.6" height="1.6"/>
	<rect x="164.2" y="287.4" class="st303" width="1.6" height="1.6"/>
	<g>
		<rect x="224.2" y="244.7" class="st304" width="9.5" height="77.4"/>
		<rect x="224.2" y="244.7" class="st308" width="9.5" height="1.6"/>
		<rect x="224.2" y="263.7" class="st308" width="9.5" height="1.6"/>
		<rect x="230.5" y="254.2" class="st308" width="1.6" height="1.6"/>
		<rect x="225.8" y="260.5" class="st308" width="1.6" height="1.6"/>
		<rect x="224.2" y="282.6" class="st308" width="9.5" height="1.6"/>
		<rect x="225.8" y="247.9" class="st308" width="1.6" height="1.6"/>
		<rect x="230.5" y="270" class="st308" width="1.6" height="1.6"/>
		<rect x="227.4" y="277.9" class="st308" width="1.6" height="1.6"/>
		<rect x="227.4" y="287.4" class="st308" width="1.6" height="1.6"/>
		<rect x="225.8" y="285.8" class="st308" width="1.6" height="1.6"/>
		<rect x="230.5" y="296.8" class="st308" width="1.6" height="1.6"/>
		<rect x="227.4" y="298.4" class="st308" width="1.6" height="1.6"/>
		<rect x="230.5" y="290.5" class="st308" width="1.6" height="1.6"/>
		<rect x="232.1" y="281" class="st308" width="1.6" height="1.6"/>
		<rect x="230.5" y="260.5" class="st308" width="1.6" height="1.6"/>
	</g>
	<g>
		
			<rect x="71" y="244.7" transform="matrix(-1 -1.224647e-16 1.224647e-16 -1 151.427 566.8273)" class="st304" width="9.5" height="77.4"/>
		
			<rect x="71" y="282.6" transform="matrix(-1 -1.224647e-16 1.224647e-16 -1 151.427 566.8273)" class="st308" width="9.5" height="1.6"/>
		
			<rect x="71" y="263.7" transform="matrix(-1 -1.224647e-16 1.224647e-16 -1 151.427 528.9269)" class="st308" width="9.5" height="1.6"/>
		
			<rect x="71" y="244.7" transform="matrix(-1 -1.224647e-16 1.224647e-16 -1 151.427 491.0266)" class="st308" width="9.5" height="1.6"/>
		
			<rect x="72.6" y="295.3" transform="matrix(-1 -1.224647e-16 1.224647e-16 -1 146.6894 592.0943)" class="st308" width="1.6" height="1.6"/>
		
			<rect x="75.7" y="287.4" transform="matrix(-1 -1.224647e-16 1.224647e-16 -1 153.0061 576.3024)" class="st308" width="1.6" height="1.6"/>
		
			<rect x="75.7" y="277.9" transform="matrix(-1 -1.224647e-16 1.224647e-16 -1 153.0061 557.3522)" class="st308" width="1.6" height="1.6"/>
		
			<rect x="77.3" y="279.5" transform="matrix(-1 -1.224647e-16 1.224647e-16 -1 156.1645 560.5106)" class="st308" width="1.6" height="1.6"/>
		
			<rect x="72.6" y="268.4" transform="matrix(-1 -1.224647e-16 1.224647e-16 -1 146.6894 538.402)" class="st308" width="1.6" height="1.6"/>
		
			<rect x="75.7" y="266.8" transform="matrix(-1 -1.224647e-16 1.224647e-16 -1 153.0061 535.2437)" class="st308" width="1.6" height="1.6"/>
		
			<rect x="72.6" y="274.7" transform="matrix(-1 -1.224647e-16 1.224647e-16 -1 146.6894 551.0355)" class="st308" width="1.6" height="1.6"/>
		
			<rect x="75.7" y="252.6" transform="matrix(-1 -1.224647e-16 1.224647e-16 -1 153.0061 506.8184)" class="st308" width="1.6" height="1.6"/>
		
			<rect x="74.1" y="249.5" transform="matrix(-1 -1.224647e-16 1.224647e-16 -1 149.8478 500.5016)" class="st308" width="1.6" height="1.6"/>
		
			<rect x="72.6" y="258.9" transform="matrix(-1 -1.224647e-16 1.224647e-16 -1 146.6894 519.4518)" class="st308" width="1.6" height="1.6"/>
		
			<rect x="78.9" y="260.5" transform="matrix(-1 -1.224647e-16 1.224647e-16 -1 159.3229 522.6102)" class="st308" width="1.6" height="1.6"/>
		
			<rect x="77.3" y="246.3" transform="matrix(-1 -1.224647e-16 1.224647e-16 -1 156.1645 494.1849)" class="st308" width="1.6" height="1.6"/>
		
			<rect x="71" y="284.2" transform="matrix(-1 -1.224647e-16 1.224647e-16 -1 143.5311 569.9857)" class="st308" width="1.6" height="1.6"/>
	</g>
	<rect x="246.3" y="261.9" class="st295" width="14.2" height="1.6"/>
	<rect x="271.6" y="257.1" class="st295" width="11.1" height="1.6"/>
	<rect x="266.8" y="287.2" class="st295" width="9.5" height="1.6"/>
	<rect x="246.3" y="279.3" class="st295" width="7.9" height="1.6"/>
	<rect x="277.9" y="272.9" class="st295" width="14.2" height="1.6"/>
	<rect x="295.3" y="293.5" class="st295" width="4.7" height="1.6"/>
	<rect x="236.8" y="299.2" class="st295" width="11.1" height="1.6"/>
	<rect x="33.1" y="278.7" class="st295" width="9.5" height="1.6"/>
	<rect x="12.6" y="286.6" class="st295" width="7.9" height="1.6"/>
	<rect x="48.9" y="261.3" class="st295" width="9.5" height="1.6"/>
	<rect x="44.2" y="292.9" class="st295" width="14.2" height="1.6"/>
	<rect x="61.5" y="272.4" class="st295" width="4.7" height="1.6"/>
	<rect x="3.1" y="267.6" class="st295" width="11.1" height="1.6"/>
	<rect x="20.5" y="258.1" class="st295" width="9.5" height="1.6"/>
	<g>
		<path class="st312" d="M86.5,29.7h5.1v-1.3h1.3v-1.3h2.5v2.5h-1.3V31h-1.3v1.3h-7.6V31H84v-1.3h-1.3V17H84v-1.3h1.3v-1.3h7.6v1.3
			h1.3V17h1.3v2.5h-2.5v-1.3h-1.3V17h-5.1v1.3h-1.3v10.2h1.3V29.7z"/>
		<path class="st312" d="M100.5,24.6v7.6h-2.5V14.5h2.5v7.6h7.6v-7.6h2.5v17.8h-2.5v-7.6H100.5z"/>
		<path class="st312" d="M115.7,32.2v-2.5h2.5V17h-2.5v-2.5h7.6V17h-2.5v12.7h2.5v2.5H115.7z"/>
		<path class="st312" d="M131,22.1v10.2h-2.5V14.5h2.5v3.8h1.3v1.3h1.3v1.3h1.3v1.3h1.3v1.3h1.3v1.3h1.3V14.5h2.5v17.8h-2.5v-3.8
			h-1.3v-1.3H136v-1.3h-1.3v-1.3h-1.3v-1.3h-1.3v-1.3H131z"/>
		<path class="st312" d="M146.2,32.2h-2.5V19.6h1.3v-1.3h1.3V17h1.3v-1.3h1.3v-1.3h2.5v1.3h1.3V17h1.3v1.3h1.3v1.3h1.3v12.7h-2.5
			v-5.1h-7.6V32.2z M146.2,24.6h7.6v-3.8h-1.3v-1.3h-1.3v-1.3h-2.5v1.3h-1.3v1.3h-1.3V24.6z"/>
		<path class="st312" d="M161.4,32.2h-2.5V14.5h2.5V17h1.3v1.3h1.3v1.3h2.5v-1.3h1.3V17h1.3v-2.5h2.5v17.8H169V20.8h-1.3v1.3h-1.3
			v2.5H164v-2.5h-1.3v-1.3h-1.3V32.2z"/>
		<path class="st312" d="M176.7,24.6v7.6h-2.5V14.5h10.2v1.3h1.3V17h1.3v5.1h-1.3v1.3h-1.3v1.3H176.7z M176.7,17v5.1h6.3v-1.3h1.3
			v-2.5H183V17H176.7z"/>
		<path class="st312" d="M191.9,32.2h-2.5V19.6h1.3v-1.3h1.3V17h1.3v-1.3h1.3v-1.3h2.5v1.3h1.3V17h1.3v1.3h1.3v1.3h1.3v12.7h-2.5
			v-5.1h-7.6V32.2z M191.9,24.6h7.6v-3.8h-1.3v-1.3H197v-1.3h-2.5v1.3h-1.3v1.3h-1.3V24.6z"/>
		<path class="st312" d="M216,17h1.3v2.5h-2.5v-1.3h-1.3V17h-5.1v1.3h-1.3v2.5h1.3v1.3h6.3v1.3h1.3v1.3h1.3v5.1H216V31h-1.3v1.3
			h-7.6V31h-1.3v-1.3h-1.3v-2.5h2.5v1.3h1.3v1.3h5.1v-1.3h1.3v-2.5h-1.3v-1.3h-6.3v-1.3h-1.3v-1.3h-1.3V17h1.3v-1.3h1.3v-1.3h7.6
			v1.3h1.3V17z"/>
	</g>
</g>
</svg>
