<?xml version="1.0" encoding="utf-8"?>
<!-- Generator: Adobe Illustrator 25.2.3, SVG Export Plug-In . SVG Version: 6.00 Build 0)  -->
<svg version="1.1" xmlns="http://www.w3.org/2000/svg" xmlns:xlink="http://www.w3.org/1999/xlink" x="0px" y="0px"
	 viewBox="0 0 300 280" style="enable-background:new 0 0 300 280;" xml:space="preserve">
<style type="text/css">
	.st0{opacity:0.46;}
	.st1{fill:#66890B;}
	.st2{fill:#95BC51;}
	.st3{fill:#3F6905;}
	.st4{fill:#CBE46E;}
	.st5{fill:#757DE0;}
	.st6{fill:#CAC5FF;}
	.st7{fill:#E9ECFD;}
	.st8{opacity:0.41;}
	.st9{opacity:0.69;}
	.st10{opacity:0.27;fill:none;stroke:#57ADA0;stroke-miterlimit:10;}
	.st11{opacity:0.65;}
	.st12{opacity:0.54;}
	.st13{opacity:0.51;}
	.st14{fill:#3FA0A7;}
	.st15{fill:#AB7946;}
	.st16{fill:#03464F;}
	.st17{fill:#026385;}
	.st18{fill:#35BCC0;}
	.st19{fill:#018F9F;}
	.st20{fill:#A53A1C;}
	.st21{fill:#DF5330;}
	.st22{fill:#FF8039;}
	.st23{fill:#EE5E2F;}
	.st24{fill:#A51959;}
	.st25{fill:#C12573;}
	.st26{fill:#FF4DA6;}
	.st27{fill:#D2276E;}
	.st28{fill:#7F7973;}
	.st29{fill:#C0B5AA;}
	.st30{fill:#E4DED5;}
	.st31{fill:#514A43;}
	.st32{fill:#606161;}
	.st33{fill:#BEBFB9;}
	.st34{fill:#3A3A3A;}
	.st35{fill:#302C28;}
	.st36{fill:#161616;}
	.st37{fill:#E1E1DF;}
	.st38{fill:#163A20;}
	.st39{fill:#1A5C31;}
	.st40{fill:#3E9B50;}
	.st41{fill:#23763E;}
	.st42{fill:#41296D;}
	.st43{fill:#513C82;}
	.st44{fill:#775ABF;}
	.st45{fill:#614293;}
	.st46{fill:#6C0F13;}
	.st47{fill:#9E1F25;}
	.st48{fill:#E8222E;}
	.st49{fill:#CF232E;}
	.st50{fill:#D27633;}
	.st51{fill:#DD8A34;}
	.st52{fill:#F5C032;}
	.st53{fill:#F3A634;}
	.st54{fill:#D4EAFF;}
	.st55{fill:#EFFAFC;}
	.st56{fill:#171C05;}
	.st57{fill:#688F50;}
	.st58{fill:#92BA73;}
	.st59{fill:#9FC780;}
	.st60{fill:#A7CB8D;}
	.st61{fill:#9CC17B;}
	.st62{fill:#91B166;}
	.st63{fill:#88988D;}
	.st64{fill:#829788;}
	.st65{fill:#5B7A36;}
	.st66{fill:#2C4704;}
	.st67{fill:#415705;}
	.st68{fill:#7D9732;}
	.st69{fill:#778B34;}
	.st70{fill:#879935;}
	.st71{fill:#A3BA62;}
	.st72{fill:#BFDA95;}
	.st73{fill:#B7D690;}
	.st74{fill:#B8D88C;}
	.st75{fill:#B7D78B;}
	.st76{fill:#B8D68C;}
	.st77{fill:#B2D185;}
	.st78{fill:#AECE85;}
	.st79{fill:#ACC87E;}
	.st80{fill:#A3B078;}
	.st81{fill:#758D8F;}
	.st82{fill:#8B9DF1;}
	.st83{fill:#A3B7F2;}
	.st84{fill:#7FA35B;}
	.st85{fill:#6A9047;}
	.st86{fill:#3D6823;}
	.st87{fill:#325F1C;}
	.st88{fill:#33621E;}
	.st89{fill:#214E0B;}
	.st90{fill:#306811;}
	.st91{fill:#689339;}
	.st92{fill:#95BB6E;}
	.st93{fill:#9BC57D;}
	.st94{fill:#A2C781;}
	.st95{fill:#9AB67C;}
	.st96{fill:#B4C8A5;}
	.st97{fill:#97ACBD;}
	.st98{fill:#7F9C88;}
	.st99{fill:#617830;}
	.st100{fill:#56750D;}
	.st101{fill:#789529;}
	.st102{fill:#91A335;}
	.st103{fill:#A5B650;}
	.st104{fill:#A7BD5B;}
	.st105{fill:#C1D894;}
	.st106{fill:#BCDA9A;}
	.st107{fill:#BEDB98;}
	.st108{fill:#BDDC98;}
	.st109{fill:#B9DA95;}
	.st110{fill:#B0D087;}
	.st111{fill:#9EC477;}
	.st112{fill:#98B86D;}
	.st113{fill:#8D9750;}
	.st114{fill:#798749;}
	.st115{fill:#82964F;}
	.st116{fill:#7F9B6B;}
	.st117{fill:#819D77;}
	.st118{fill:#88A855;}
	.st119{fill:#789C52;}
	.st120{fill:#46732E;}
	.st121{fill:#295613;}
	.st122{fill:#1F490A;}
	.st123{fill:#20490D;}
	.st124{fill:#33680C;}
	.st125{fill:#40700D;}
	.st126{fill:#95B864;}
	.st127{fill:#9DC77F;}
	.st128{fill:#9FC37B;}
	.st129{fill:#B4D191;}
	.st130{fill:#BED9A2;}
	.st131{fill:#A2BD94;}
	.st132{fill:#728D40;}
	.st133{fill:#546E17;}
	.st134{fill:#7A932B;}
	.st135{fill:#B5AD64;}
	.st136{fill:#C2C86E;}
	.st137{fill:#B6BC5A;}
	.st138{fill:#AFB56D;}
	.st139{fill:#AEC87F;}
	.st140{fill:#BFDF96;}
	.st141{fill:#C3DD9C;}
	.st142{fill:#BCD997;}
	.st143{fill:#B3D48D;}
	.st144{fill:#83AD63;}
	.st145{fill:#68893A;}
	.st146{fill:#948C44;}
	.st147{fill:#898836;}
	.st148{fill:#68852B;}
	.st149{fill:#90AC57;}
	.st150{fill:#84A54E;}
	.st151{fill:#7E9C42;}
	.st152{fill:#7D9C56;}
	.st153{fill:#5E8640;}
	.st154{fill:#2D5B13;}
	.st155{fill:#1F4D0C;}
	.st156{fill:#1F4708;}
	.st157{fill:#2A5F07;}
	.st158{fill:#4F7B08;}
	.st159{fill:#80A814;}
	.st160{fill:#90BC5A;}
	.st161{fill:#92BC6A;}
	.st162{fill:#9AC478;}
	.st163{fill:#90B766;}
	.st164{fill:#95B957;}
	.st165{fill:#B0CD70;}
	.st166{fill:#7C9E4A;}
	.st167{fill:#6B861D;}
	.st168{fill:#849A35;}
	.st169{fill:#C5B077;}
	.st170{fill:#B8B872;}
	.st171{fill:#AEB855;}
	.st172{fill:#A9B263;}
	.st173{fill:#95AA65;}
	.st174{fill:#B4D68A;}
	.st175{fill:#BBD895;}
	.st176{fill:#A8CB87;}
	.st177{fill:#81AD62;}
	.st178{fill:#6D8C3E;}
	.st179{fill:#9C9046;}
	.st180{fill:#8F8E3E;}
	.st181{fill:#6E901F;}
	.st182{fill:#90AC45;}
	.st183{fill:#8BAD59;}
	.st184{fill:#729723;}
	.st185{fill:#749B1E;}
	.st186{fill:#547C19;}
	.st187{fill:#204903;}
	.st188{fill:#1F4804;}
	.st189{fill:#35570D;}
	.st190{fill:#2C600E;}
	.st191{fill:#376B07;}
	.st192{fill:#588300;}
	.st193{fill:#779E1D;}
	.st194{fill:#93B55E;}
	.st195{fill:#95BF75;}
	.st196{fill:#729D4B;}
	.st197{fill:#779D30;}
	.st198{fill:#8EB248;}
	.st199{fill:#A5CB80;}
	.st200{fill:#8EB363;}
	.st201{fill:#97B04A;}
	.st202{fill:#AAB674;}
	.st203{fill:#798E33;}
	.st204{fill:#889E32;}
	.st205{fill:#99A962;}
	.st206{fill:#899759;}
	.st207{fill:#99AC6A;}
	.st208{fill:#A5BF76;}
	.st209{fill:#A4C87E;}
	.st210{fill:#ABCA86;}
	.st211{fill:#A7C97F;}
	.st212{fill:#9DB36A;}
	.st213{fill:#939F53;}
	.st214{fill:#86922C;}
	.st215{fill:#749029;}
	.st216{fill:#94B250;}
	.st217{fill:#94B157;}
	.st218{fill:#91B03B;}
	.st219{fill:#7B9F01;}
	.st220{fill:#708B18;}
	.st221{fill:#596920;}
	.st222{fill:#485C15;}
	.st223{fill:#707F2A;}
	.st224{fill:#265F12;}
	.st225{fill:#3F6E08;}
	.st226{fill:#7C9F45;}
	.st227{fill:#82A74A;}
	.st228{fill:#94BA67;}
	.st229{fill:#9AC374;}
	.st230{fill:#83B05D;}
	.st231{fill:#629023;}
	.st232{fill:#88AE3F;}
	.st233{fill:#AFD389;}
	.st234{fill:#99C273;}
	.st235{fill:#A6C568;}
	.st236{fill:#B6CB86;}
	.st237{fill:#77933F;}
	.st238{fill:#6E8B2F;}
	.st239{fill:#718E34;}
	.st240{fill:#819148;}
	.st241{fill:#90A05F;}
	.st242{fill:#9CB271;}
	.st243{fill:#96B268;}
	.st244{fill:#95B569;}
	.st245{fill:#A8C37E;}
	.st246{fill:#A5BE7A;}
	.st247{fill:#8CA257;}
	.st248{fill:#7C9341;}
	.st249{fill:#849D49;}
	.st250{fill:#98B561;}
	.st251{fill:#A8C072;}
	.st252{fill:#A1BD4C;}
	.st253{fill:#7FA206;}
	.st254{fill:#9A9C49;}
	.st255{fill:#9E8B53;}
	.st256{fill:#90804D;}
	.st257{fill:#A19A4C;}
	.st258{fill:#2C5F10;}
	.st259{fill:#688D2E;}
	.st260{fill:#8CB25F;}
	.st261{fill:#9BC273;}
	.st262{fill:#9AC26C;}
	.st263{fill:#9CBE67;}
	.st264{fill:#94BC64;}
	.st265{fill:#98BC64;}
	.st266{fill:#A6C965;}
	.st267{fill:#B3D78F;}
	.st268{fill:#96C36E;}
	.st269{fill:#81AA42;}
	.st270{fill:#83A050;}
	.st271{fill:#819F45;}
	.st272{fill:#83A551;}
	.st273{fill:#799C40;}
	.st274{fill:#8FAE5E;}
	.st275{fill:#93AF65;}
	.st276{fill:#9CB86E;}
	.st277{fill:#98B66C;}
	.st278{fill:#85A854;}
	.st279{fill:#90AB5E;}
	.st280{fill:#9AB66C;}
	.st281{fill:#9EB668;}
	.st282{fill:#94B059;}
	.st283{fill:#7B983E;}
	.st284{fill:#80A345;}
	.st285{fill:#8EB052;}
	.st286{fill:#8AA941;}
	.st287{fill:#83A713;}
	.st288{fill:#8DA52B;}
	.st289{fill:#B2B371;}
	.st290{fill:#C0C084;}
	.st291{fill:#B4AF6B;}
	.st292{clip-path:url(#SVGID_2_);}
	.st293{clip-path:url(#SVGID_4_);}
	.st294{clip-path:url(#SVGID_6_);}
	.st295{fill:#7DC0C9;}
	.st296{fill:#16635B;}
	.st297{fill:#A1D7DB;}
	.st298{fill:#CDC982;}
	.st299{fill:#3C5B3B;}
	.st300{fill:#6B8C5F;}
	.st301{fill:#90AA7D;}
	.st302{fill:#A2B271;}
	.st303{fill:#69463A;}
	.st304{fill:#D6B36F;}
	.st305{fill:#9BB655;}
	.st306{fill:#618F46;}
	.st307{fill:#2B5A38;}
	.st308{fill:#7C672E;}
	.st309{fill:#ABA92E;}
	.st310{fill:#E2E57E;}
	.st311{fill:#CBCA6D;}
	.st312{stroke:#000000;stroke-width:0.25;stroke-miterlimit:10;}
</style>
<g id="layout">
</g>
<g id="GUIDES">
	<g>
		<polygon class="st2" points="156.3,167.9 156.3,166.3 154.7,166.3 154.7,161.6 153.1,161.6 153.1,160 151.6,160 151.6,161.6 
			150,161.6 150,166.3 150,166.3 150,175.8 150,175.8 150,177.4 150,178.9 151.6,178.9 153.1,178.9 153.1,216.8 154.7,216.8 
			154.7,180.5 156.3,180.5 156.3,178.9 157.9,178.9 157.9,167.9 		"/>
		<polygon class="st1" points="172.1,205.8 172.1,204.2 170.5,204.2 170.5,202.6 168.9,202.6 168.9,201 167.3,201 167.3,199.5 
			162.6,199.5 159.5,199.5 159.5,201 157.9,201 157.9,202.6 156.3,202.6 156.3,204.2 154.7,204.2 154.7,205.8 156.3,205.8 
			157.9,205.8 157.9,207.4 161,207.4 161,208.9 167.3,208.9 168.9,208.9 172.1,208.9 172.1,207.4 173.7,207.4 173.7,205.8 		"/>
		<polygon class="st1" points="159.5,193.1 157.9,193.1 157.9,191.6 154.7,191.6 154.7,194.7 156.3,194.7 157.9,194.7 159.5,194.7 
			159.5,196.3 161,196.3 161,194.7 161,193.1 		"/>
		<g>
			<rect x="150" y="191.6" class="st1" width="3.2" height="1.6"/>
			<rect x="148.4" y="193.1" class="st1" width="1.6" height="1.6"/>
		</g>
		<g>
			<polygon class="st1" points="151.6,204.2 151.6,201 150,201 150,199.5 148.4,199.5 146.8,199.5 145.2,199.5 143.7,199.5 
				142.1,199.5 140.5,199.5 138.9,199.5 138.9,201 140.5,201 140.5,204.2 142.1,204.2 142.1,205.8 143.7,205.8 143.7,207.4 
				145.2,207.4 145.2,208.9 146.8,208.9 148.4,208.9 150,208.9 150,207.4 151.6,207.4 151.6,205.8 153.1,205.8 153.1,204.2 			"/>
			<rect x="137.3" y="197.9" class="st1" width="1.6" height="1.6"/>
		</g>
		<rect x="156.3" y="177.4" class="st5" width="1.6" height="1.6"/>
		<rect x="156.3" y="177.4" class="st5" width="1.6" height="3.2"/>
		<rect x="157.9" y="177.4" class="st5" width="1.6" height="1.6"/>
		<rect x="151.6" y="177.4" class="st5" width="1.6" height="3.2"/>
		<rect x="154.7" y="174.2" class="st5" width="1.6" height="1.6"/>
		<rect x="150" y="171" class="st5" width="3.2" height="1.6"/>
		<rect x="150" y="161.6" class="st5" width="3.2" height="1.6"/>
		<rect x="153.1" y="163.1" class="st6" width="1.6" height="1.6"/>
		<rect x="156.3" y="177.4" class="st6" width="1.6" height="1.6"/>
		<rect x="153.1" y="172.6" class="st6" width="1.6" height="1.6"/>
		<rect x="153.1" y="171" class="st1" width="1.6" height="1.6"/>
		<rect x="151.6" y="163.1" class="st1" width="1.6" height="1.6"/>
		<rect x="151.6" y="166.3" class="st1" width="1.6" height="1.6"/>
		<rect x="153.1" y="177.4" class="st1" width="1.6" height="1.6"/>
		<rect x="150" y="175.8" class="st1" width="1.6" height="1.6"/>
		<rect x="154.7" y="169.5" class="st1" width="1.6" height="1.6"/>
		<rect x="154.7" y="178.9" class="st1" width="1.6" height="1.6"/>
		<rect x="151.6" y="172.6" class="st1" width="1.6" height="1.6"/>
	</g>
	<g>
		<polygon class="st2" points="187.9,158.4 187.9,156.8 186.3,156.8 186.3,152.1 184.7,152.1 184.7,150.5 183.1,150.5 183.1,152.1 
			181.6,152.1 181.6,156.8 181.6,156.8 181.6,166.3 181.6,166.3 181.6,167.9 181.6,169.5 183.1,169.5 184.7,169.5 184.7,207.4 
			186.3,207.4 186.3,171 187.9,171 187.9,169.5 189.5,169.5 189.5,158.4 		"/>
		<polygon class="st1" points="203.7,196.3 203.7,194.7 202.1,194.7 202.1,193.1 200.5,193.1 200.5,191.6 198.9,191.6 198.9,190 
			194.2,190 191,190 191,191.6 189.5,191.6 189.5,193.1 187.9,193.1 187.9,194.7 186.3,194.7 186.3,196.3 187.9,196.3 189.5,196.3 
			189.5,197.9 192.6,197.9 192.6,199.5 198.9,199.5 200.5,199.5 203.7,199.5 203.7,197.9 205.2,197.9 205.2,196.3 		"/>
		<polygon class="st1" points="191,183.7 189.5,183.7 189.5,182.1 186.3,182.1 186.3,185.2 187.9,185.2 189.5,185.2 191,185.2 
			191,186.8 192.6,186.8 192.6,185.2 192.6,183.7 		"/>
		<g>
			<rect x="181.6" y="182.1" class="st1" width="3.2" height="1.6"/>
			<rect x="180" y="183.7" class="st1" width="1.6" height="1.6"/>
		</g>
		<g>
			<polygon class="st1" points="183.1,194.7 183.1,191.6 181.6,191.6 181.6,190 180,190 178.4,190 176.8,190 175.2,190 173.7,190 
				172.1,190 170.5,190 170.5,191.6 172.1,191.6 172.1,194.7 173.7,194.7 173.7,196.3 175.2,196.3 175.2,197.9 176.8,197.9 
				176.8,199.5 178.4,199.5 180,199.5 181.6,199.5 181.6,197.9 183.1,197.9 183.1,196.3 184.7,196.3 184.7,194.7 			"/>
			<rect x="168.9" y="188.4" class="st1" width="1.6" height="1.6"/>
		</g>
		<rect x="187.9" y="167.9" class="st5" width="1.6" height="1.6"/>
		<rect x="187.9" y="167.9" class="st5" width="1.6" height="3.2"/>
		<rect x="189.5" y="167.9" class="st5" width="1.6" height="1.6"/>
		<rect x="183.1" y="167.9" class="st5" width="1.6" height="3.2"/>
		<rect x="186.3" y="164.7" class="st5" width="1.6" height="1.6"/>
		<rect x="181.6" y="161.6" class="st5" width="3.2" height="1.6"/>
		<rect x="181.6" y="152.1" class="st5" width="3.2" height="1.6"/>
		<rect x="184.7" y="153.7" class="st6" width="1.6" height="1.6"/>
		<rect x="187.9" y="167.9" class="st6" width="1.6" height="1.6"/>
		<rect x="184.7" y="163.1" class="st6" width="1.6" height="1.6"/>
		<rect x="184.7" y="161.6" class="st1" width="1.6" height="1.6"/>
		<rect x="183.1" y="153.7" class="st1" width="1.6" height="1.6"/>
		<rect x="183.1" y="156.8" class="st1" width="1.6" height="1.6"/>
		<rect x="184.7" y="167.9" class="st1" width="1.6" height="1.6"/>
		<rect x="181.6" y="166.3" class="st1" width="1.6" height="1.6"/>
		<rect x="186.3" y="160" class="st1" width="1.6" height="1.6"/>
		<rect x="186.3" y="169.5" class="st1" width="1.6" height="1.6"/>
		<rect x="183.1" y="163.1" class="st1" width="1.6" height="1.6"/>
	</g>
	<g>
		<polygon class="st2" points="126.3,158.4 126.3,156.8 124.7,156.8 124.7,152.1 123.1,152.1 123.1,150.5 121.6,150.5 121.6,152.1 
			120,152.1 120,156.8 120,156.8 120,166.3 120,166.3 120,167.9 120,169.5 121.6,169.5 123.1,169.5 123.1,207.4 124.7,207.4 
			124.7,171 126.3,171 126.3,169.5 127.9,169.5 127.9,158.4 		"/>
		<polygon class="st1" points="142.1,196.3 142.1,194.7 140.5,194.7 140.5,193.1 138.9,193.1 138.9,191.6 137.3,191.6 137.3,190 
			132.6,190 129.4,190 129.4,191.6 127.9,191.6 127.9,193.1 126.3,193.1 126.3,194.7 124.7,194.7 124.7,196.3 126.3,196.3 
			127.9,196.3 127.9,197.9 131,197.9 131,199.5 137.3,199.5 138.9,199.5 142.1,199.5 142.1,197.9 143.7,197.9 143.7,196.3 		"/>
		<polygon class="st1" points="129.4,183.7 127.9,183.7 127.9,182.1 124.7,182.1 124.7,185.2 126.3,185.2 127.9,185.2 129.4,185.2 
			129.4,186.8 131,186.8 131,185.2 131,183.7 		"/>
		<g>
			<rect x="120" y="182.1" class="st1" width="3.2" height="1.6"/>
			<rect x="118.4" y="183.7" class="st1" width="1.6" height="1.6"/>
		</g>
		<g>
			<polygon class="st1" points="121.6,194.7 121.6,191.6 120,191.6 120,190 118.4,190 116.8,190 115.2,190 113.7,190 112.1,190 
				110.5,190 108.9,190 108.9,191.6 110.5,191.6 110.5,194.7 112.1,194.7 112.1,196.3 113.7,196.3 113.7,197.9 115.2,197.9 
				115.2,199.5 116.8,199.5 118.4,199.5 120,199.5 120,197.9 121.6,197.9 121.6,196.3 123.1,196.3 123.1,194.7 			"/>
			<rect x="107.3" y="188.4" class="st1" width="1.6" height="1.6"/>
		</g>
		<rect x="126.3" y="167.9" class="st5" width="1.6" height="1.6"/>
		<rect x="126.3" y="167.9" class="st5" width="1.6" height="3.2"/>
		<rect x="127.9" y="167.9" class="st5" width="1.6" height="1.6"/>
		<rect x="121.6" y="167.9" class="st5" width="1.6" height="3.2"/>
		<rect x="124.7" y="164.7" class="st5" width="1.6" height="1.6"/>
		<rect x="120" y="161.6" class="st5" width="3.2" height="1.6"/>
		<rect x="120" y="152.1" class="st5" width="3.2" height="1.6"/>
		<rect x="123.1" y="153.7" class="st6" width="1.6" height="1.6"/>
		<rect x="126.3" y="167.9" class="st6" width="1.6" height="1.6"/>
		<rect x="123.1" y="163.1" class="st6" width="1.6" height="1.6"/>
		<rect x="123.1" y="161.6" class="st1" width="1.6" height="1.6"/>
		<rect x="121.6" y="153.7" class="st1" width="1.6" height="1.6"/>
		<rect x="121.6" y="156.8" class="st1" width="1.6" height="1.6"/>
		<rect x="123.1" y="167.9" class="st1" width="1.6" height="1.6"/>
		<rect x="120" y="166.3" class="st1" width="1.6" height="1.6"/>
		<rect x="124.7" y="160" class="st1" width="1.6" height="1.6"/>
		<rect x="124.7" y="169.5" class="st1" width="1.6" height="1.6"/>
		<rect x="121.6" y="163.1" class="st1" width="1.6" height="1.6"/>
	</g>
	<rect x="0" y="220" class="st14" width="300" height="60"/>
	<rect x="71" y="220" class="st15" width="162.7" height="60"/>
	<polygon class="st309" points="222.6,199.5 222.6,202.6 221,202.6 221,207.4 219.5,207.4 219.5,202.6 217.9,202.6 217.9,199.5 
		216.3,199.5 216.3,202.6 214.7,202.6 214.7,201 213.1,201 213.1,194.7 211.6,194.7 211.6,207.4 210,207.4 210,202.6 208.4,202.6 
		208.4,199.5 206.8,199.5 206.8,197.9 205.2,197.9 205.2,196.3 203.7,196.3 203.7,201 202.1,201 202.1,197.9 200.5,197.9 200.5,201 
		198.9,201 198.9,196.3 197.4,196.3 197.4,197.9 195.8,197.9 195.8,199.5 194.2,199.5 194.2,193.1 192.6,193.1 192.6,199.5 
		191,199.5 191,196.3 189.5,196.3 189.5,202.6 187.9,202.6 187.9,196.3 186.3,196.3 186.3,193.1 184.7,193.1 184.7,196.3 
		183.1,196.3 183.1,197.9 181.6,197.9 181.6,201 180,201 180,204.2 178.4,204.2 178.4,201 178.4,199.5 176.8,199.5 176.8,201 
		175.2,201 175.2,204.2 173.7,204.2 173.7,199.5 172.1,199.5 172.1,196.3 170.5,196.3 170.5,201 168.9,201 168.9,199.5 167.3,199.5 
		167.3,202.6 165.8,202.6 165.8,204.2 164.2,204.2 164.2,194.7 162.6,194.7 162.6,201 161,201 161,199.5 159.5,199.5 159.5,201 
		157.9,201 157.9,205.8 156.3,205.8 156.3,204.2 154.7,204.2 154.7,202.6 153.1,202.6 153.1,199.5 151.6,199.5 151.6,197.9 
		150,197.9 150,199.5 150,204.2 148.4,204.2 148.4,197.9 146.8,197.9 146.8,201 145.2,201 145.2,196.3 143.7,196.3 143.7,197.9 
		142.1,197.9 142.1,193.1 140.5,193.1 140.5,197.9 140.5,202.6 138.9,202.6 138.9,197.9 137.3,197.9 137.3,199.5 135.8,199.5 
		135.8,201 134.2,201 134.2,197.9 132.6,197.9 132.6,194.7 131,194.7 131,201 129.4,201 129.4,199.5 127.9,199.5 127.9,201 
		126.3,201 126.3,202.6 124.7,202.6 124.7,197.9 123.1,197.9 123.1,194.7 121.6,194.7 121.6,199.5 120,199.5 120,201 118.4,201 
		118.4,197.9 116.8,197.9 116.8,194.7 115.2,194.7 115.2,196.3 113.7,196.3 113.7,199.5 112.1,199.5 112.1,201 110.5,201 
		110.5,197.9 108.9,197.9 108.9,196.3 107.3,196.3 107.3,197.9 105.8,197.9 105.8,199.5 104.2,199.5 104.2,201 102.6,201 
		102.6,196.3 101,196.3 101,193.1 99.4,193.1 99.4,199.5 97.9,199.5 97.9,201 96.3,201 96.3,202.6 94.7,202.6 94.7,196.3 
		94.7,193.1 93.1,193.1 93.1,196.3 91.5,196.3 91.5,199.5 90,199.5 90,196.3 88.4,196.3 88.4,199.5 86.8,199.5 86.8,202.6 
		85.2,202.6 85.2,197.9 83.7,197.9 83.7,202.6 82.1,202.6 82.1,207.4 80.5,207.4 80.5,205.8 78.9,205.8 78.9,208.9 77.3,208.9 
		77.3,210.5 77.3,212.1 77.3,220 93.1,220 94.7,220 102.6,220 104.2,220 131,220 132.6,220 134.2,220 167.3,220 184.7,220 
		187.9,220 189.5,220 192.6,220 194.2,220 211.6,220 213.1,220 214.7,220 217.9,220 219.5,220 224.2,220 224.2,218.4 224.2,216.8 
		224.2,215.3 224.2,202.6 224.2,199.5 	"/>
	<path class="st311" d="M78.9,204.2v3.2h1.6v4.7h1.6v-4.7h1.6v-3.2h1.6v3.2h1.6v-1.6h1.6v-6.3H90v12.6h1.6v-4.7h1.6v-3.2h1.6v-1.6
		h1.6V201h1.6v4.7h1.6v-3.2h1.6v3.2h1.6V201h1.6v1.6h1.6v1.6h1.6v-6.3h1.6v6.3h1.6V201h1.6v6.3h1.6V201h1.6v-3.2h1.6v3.2h1.6v1.6
		h1.6v3.2h1.6v3.2h1.6c0-1,0-3.7,0-4.7h1.6v1.6h1.6v3.2h1.6v-4.7h1.6V201h1.6v4.7h1.6v-1.6h1.6v3.2h1.6v1.6h1.6v-9.5h1.6v6.3h1.6
		v-1.6h1.6v1.6h1.6v4.7h1.6v-1.6h1.6v-1.6h1.6v-3.2h1.6v-1.6h1.6c0,1.1,0,5.2,0,6.3h1.6v-6.3h1.6v3.2h1.6V201h1.6v1.6h1.6v-4.7h1.6
		c0,2.4,0,7.1,0,9.5h1.6v-4.7h1.6v1.6h1.6v1.6h1.6v-3.2h1.6v-3.2h1.6v6.3h1.6v-1.6h1.6v1.6h1.6v1.6h1.6v-4.7h1.6v-3.2h1.6v4.7h1.6
		v1.6h1.6v-3.2h1.6v-3.2h1.6v1.6h1.6v3.2h1.6v1.6h1.6v-3.2h1.6V201h1.6v1.6h1.6v1.6h1.6v1.6h1.6V201h1.6v-3.2h1.6v6.3h1.6v1.6h1.6
		v1.6h1.6c0-2.1,0-7.4,0-9.5h1.6v3.2h1.6v3.2h1.6V201h1.6v3.2h1.6v3.2h1.6v-4.7h1.6v4.7h1.6v4.7h1.6v-1.6h1.6v3.2h1.6
		c0,2.1,0,4.1,0,6.3c-47.9,0-99,0-146.9,0c0-5.1,0-10.7,0-15.8H78.9z"/>
	<g>
		<polygon class="st306" points="137.3,94.1 137.3,90.9 137.3,84.6 135.8,84.6 135.8,81.4 134.2,81.4 134.2,64.1 131,64.1 131,60.9 
			129.4,60.9 129.4,59.3 127.9,59.3 127.9,51.4 127.9,48.3 126.3,48.3 126.3,42 123.1,42 123.1,38.8 120,38.8 120,35.6 116.8,35.6 
			116.8,34.1 113.7,34.1 113.7,32.5 110.5,32.5 110.5,34.1 108.9,34.1 108.9,35.6 105.8,35.6 105.8,37.2 104.2,37.2 104.2,38.8 
			101,38.8 101,42 99.4,42 99.4,48.3 96.3,48.3 96.3,51.4 94.7,51.4 94.7,56.2 93.1,56.2 93.1,57.8 90,57.8 90,60.9 88.4,60.9 
			88.4,68.8 86.8,68.8 86.8,76.7 85.2,76.7 85.2,79.9 83.7,79.9 83.7,86.2 80.5,86.2 80.5,92.5 78.9,92.5 78.9,95.7 77.3,95.7 
			77.3,102 78.9,102 78.9,103.5 80.5,103.5 80.5,108.3 83.7,108.3 83.7,109.9 80.5,109.9 80.5,111.4 78.9,111.4 78.9,136.7 
			80.5,136.7 80.5,138.3 82.1,138.3 82.1,139.9 85.2,139.9 85.2,141.4 86.8,141.4 86.8,144.6 88.4,144.6 88.4,146.2 90,146.2 
			90,149.3 91.5,149.3 91.5,150.9 93.1,150.9 93.1,152.5 94.7,152.5 94.7,154.1 96.3,154.1 96.3,155.7 97.9,155.7 97.9,157.2 
			99.4,157.2 99.4,158.8 112.1,158.8 112.1,157.2 113.7,157.2 113.7,155.7 115.2,155.7 115.2,154.1 116.8,154.1 116.8,152.5 
			118.4,152.5 118.4,150.9 120,150.9 120,149.3 121.6,149.3 121.6,146.2 123.1,146.2 123.1,144.6 124.7,144.6 124.7,143 131,143 
			131,141.4 132.6,141.4 132.6,138.3 134.2,138.3 134.2,136.7 135.8,136.7 135.8,111.4 134.2,111.4 134.2,109.9 135.8,109.9 
			135.8,108.3 137.3,108.3 137.3,105.1 138.9,105.1 138.9,100.4 138.9,97.2 138.9,94.1 		"/>
		<rect x="105.8" y="98.8" class="st303" width="1.6" height="26.8"/>
		<rect x="118.4" y="40.4" class="st305" width="1.6" height="1.6"/>
		<rect x="107.3" y="38.8" class="st305" width="1.6" height="1.6"/>
		<rect x="102.6" y="45.1" class="st305" width="1.6" height="1.6"/>
		
			<rect x="113.7" y="37.2" transform="matrix(-1 -1.224647e-16 1.224647e-16 -1 228.892 76.0226)" class="st305" width="1.6" height="1.6"/>
		<rect x="118.4" y="51.4" class="st305" width="1.6" height="1.6"/>
		<rect x="124.7" y="59.3" class="st305" width="1.6" height="1.6"/>
		<rect x="121.6" y="46.7" class="st305" width="1.6" height="1.6"/>
		<rect x="116.8" y="57.8" class="st305" width="1.6" height="1.6"/>
		<rect x="102.6" y="57.8" class="st305" width="1.6" height="1.6"/>
		<rect x="96.3" y="65.6" class="st305" width="1.6" height="1.6"/>
		<rect x="91.5" y="60.9" class="st305" width="1.6" height="1.6"/>
		<rect x="99.4" y="51.4" class="st305" width="1.6" height="1.6"/>
		<rect x="93.1" y="72" class="st305" width="1.6" height="1.6"/>
		<rect x="86.8" y="79.9" class="st305" width="1.6" height="1.6"/>
		<rect x="99.4" y="89.3" class="st305" width="1.6" height="1.6"/>
		<rect x="96.3" y="76.7" class="st305" width="1.6" height="1.6"/>
		<rect x="107.3" y="78.3" class="st305" width="1.6" height="1.6"/>
		<rect x="107.3" y="67.2" class="st305" width="1.6" height="1.6"/>
		<rect x="113.7" y="68.8" class="st305" width="1.6" height="1.6"/>
		<rect x="121.6" y="75.1" class="st305" width="1.6" height="1.6"/>
		<rect x="120" y="65.6" class="st305" width="1.6" height="1.6"/>
		<rect x="131" y="83" class="st305" width="1.6" height="1.6"/>
		
			<rect x="131" y="68.8" transform="matrix(-1 -1.224647e-16 1.224647e-16 -1 263.634 139.1899)" class="st305" width="1.6" height="1.6"/>
		<rect x="126.3" y="65.6" class="st305" width="1.6" height="1.6"/>
		<rect x="129.4" y="92.5" class="st305" width="1.6" height="1.6"/>
		<rect x="134.2" y="102" class="st305" width="1.6" height="1.6"/>
		<rect x="124.7" y="108.3" class="st305" width="1.6" height="1.6"/>
		<rect x="113.7" y="103.5" class="st305" width="1.6" height="1.6"/>
		<rect x="118.4" y="83" class="st305" width="1.6" height="1.6"/>
		<rect x="118.4" y="120.9" class="st305" width="1.6" height="1.6"/>
		<rect x="132.6" y="117.8" class="st305" width="1.6" height="1.6"/>
		<rect x="127.9" y="136.7" class="st305" width="1.6" height="1.6"/>
		<rect x="115.2" y="132" class="st305" width="1.6" height="1.6"/>
		<rect x="115.2" y="144.6" class="st305" width="1.6" height="1.6"/>
		<rect x="94.7" y="144.6" class="st305" width="1.6" height="1.6"/>
		<rect x="97.9" y="149.3" class="st305" width="1.6" height="1.6"/>
		<rect x="85.2" y="136.7" class="st305" width="1.6" height="1.6"/>
		<rect x="82.1" y="127.2" class="st305" width="1.6" height="1.6"/>
		<rect x="85.2" y="119.3" class="st305" width="1.6" height="1.6"/>
		<rect x="99.4" y="117.8" class="st305" width="1.6" height="1.6"/>
		<rect x="97.9" y="125.7" class="st305" width="1.6" height="1.6"/>
		<rect x="85.2" y="105.1" class="st305" width="1.6" height="1.6"/>
		<rect x="93.1" y="111.4" class="st305" width="1.6" height="1.6"/>
		<rect x="80.5" y="113" class="st305" width="1.6" height="1.6"/>
		<rect x="80.5" y="98.8" class="st305" width="1.6" height="1.6"/>
		<rect x="83.7" y="92.5" class="st305" width="1.6" height="1.6"/>
		<rect x="96.3" y="97.2" class="st305" width="1.6" height="1.6"/>
		<rect x="90" y="90.9" class="st305" width="1.6" height="1.6"/>
		<g>
			<polygon class="st303" points="112.1,78.3 112.1,76.7 112.1,42 110.5,42 110.5,51.4 108.9,51.4 108.9,48.3 107.3,48.3 107.3,53 
				108.9,53 108.9,57.8 110.5,57.8 110.5,76.7 110.5,78.3 110.5,87.8 112.1,87.8 			"/>
			<rect x="115.2" y="62.5" class="st303" width="1.6" height="30"/>
			<rect x="113.7" y="92.5" class="st303" width="1.6" height="1.6"/>
			<rect x="86.8" y="97.2" class="st303" width="1.6" height="1.6"/>
			<rect x="88.4" y="98.8" class="st303" width="1.6" height="3.2"/>
			<rect x="90" y="102" class="st303" width="1.6" height="1.6"/>
			<rect x="91.5" y="103.5" class="st303" width="1.6" height="1.6"/>
			<polygon class="st303" points="94.7,105.1 93.1,105.1 93.1,106.7 94.7,106.7 94.7,108.3 96.3,108.3 96.3,105.1 			"/>
			<rect x="96.3" y="108.3" class="st303" width="1.6" height="1.6"/>
			<rect x="97.9" y="109.9" class="st303" width="1.6" height="3.2"/>
			<rect x="99.4" y="113" class="st303" width="1.6" height="1.6"/>
			<polygon class="st303" points="101,95.7 99.4,95.7 99.4,100.4 99.4,102 101,102 101,100.4 			"/>
			<rect x="93.1" y="76.7" class="st303" width="1.6" height="6.3"/>
			<polygon class="st303" points="94.7,83 94.7,89.3 93.1,89.3 93.1,90.9 94.7,90.9 94.7,92.5 96.3,92.5 96.3,83 			"/>
			<rect x="96.3" y="92.5" class="st303" width="1.6" height="1.6"/>
			<rect x="97.9" y="94.1" class="st303" width="1.6" height="1.6"/>
			<rect x="88.4" y="86.2" class="st303" width="1.6" height="1.6"/>
			<polygon class="st303" points="91.5,87.8 90,87.8 90,89.3 91.5,89.3 93.1,89.3 93.1,87.8 			"/>
			<rect x="86.8" y="84.6" class="st303" width="1.6" height="1.6"/>
			<rect x="126.3" y="72" class="st303" width="1.6" height="3.2"/>
			<rect x="124.7" y="75.1" class="st303" width="1.6" height="6.3"/>
			<rect x="123.1" y="81.4" class="st303" width="1.6" height="6.3"/>
			<polygon class="st303" points="123.1,92.5 124.7,92.5 124.7,90.9 123.1,90.9 123.1,87.8 121.6,87.8 121.6,94.1 123.1,94.1 			"/>
			<rect x="124.7" y="89.3" class="st303" width="1.6" height="1.6"/>
			<rect x="126.3" y="87.8" class="st303" width="1.6" height="1.6"/>
			<rect x="127.9" y="86.2" class="st303" width="1.6" height="1.6"/>
			<polygon class="st303" points="118.4,103.5 120,103.5 120,97.2 121.6,97.2 121.6,94.1 120,94.1 120,95.7 118.4,95.7 118.4,102 
				116.8,102 116.8,108.3 118.4,108.3 			"/>
			<rect x="118.4" y="111.4" class="st303" width="1.6" height="1.6"/>
			<polygon class="st303" points="121.6,109.9 121.6,106.7 120,106.7 120,109.9 120,111.4 121.6,111.4 			"/>
			<rect x="121.6" y="105.1" class="st303" width="1.6" height="1.6"/>
			<rect x="123.1" y="103.5" class="st303" width="1.6" height="1.6"/>
			<rect x="124.7" y="102" class="st303" width="1.6" height="1.6"/>
			<rect x="126.3" y="100.4" class="st303" width="1.6" height="1.6"/>
			<rect x="124.7" y="116.2" class="st303" width="1.6" height="9.5"/>
			<rect x="126.3" y="111.4" class="st303" width="1.6" height="4.7"/>
			<polygon class="st303" points="124.7,125.7 123.1,125.7 123.1,132 124.7,132 124.7,130.4 126.3,130.4 126.3,128.8 124.7,128.8 
							"/>
			<polygon class="st303" points="129.4,124.1 129.4,125.7 127.9,125.7 127.9,127.2 126.3,127.2 126.3,128.8 129.4,128.8 
				129.4,127.2 131,127.2 131,125.7 132.6,125.7 132.6,124.1 			"/>
			<rect x="115.2" y="138.3" class="st303" width="1.6" height="1.6"/>
			<rect x="116.8" y="136.7" class="st303" width="1.6" height="1.6"/>
			<rect x="118.4" y="135.1" class="st303" width="1.6" height="1.6"/>
			<rect x="120" y="133.6" class="st303" width="1.6" height="1.6"/>
			<rect x="121.6" y="132" class="st303" width="1.6" height="1.6"/>
			<polygon class="st303" points="112.1,138.3 112.1,136.7 112.1,127.2 113.7,127.2 113.7,120.9 115.2,120.9 115.2,119.3 
				115.2,117.8 116.8,117.8 116.8,114.6 118.4,114.6 118.4,113 116.8,113 116.8,108.3 115.2,108.3 115.2,116.2 113.7,116.2 
				113.7,117.8 112.1,117.8 112.1,119.3 110.5,119.3 110.5,105.1 110.5,100.4 112.1,100.4 112.1,98.8 113.7,98.8 113.7,97.2 
				113.7,94.1 112.1,94.1 112.1,97.2 110.5,97.2 110.5,87.8 108.9,87.8 108.9,94.1 107.3,94.1 107.3,97.2 105.8,97.2 105.8,92.5 
				104.2,92.5 104.2,84.6 104.2,62.5 102.6,62.5 102.6,60.9 101,60.9 101,64.1 102.6,64.1 102.6,81.4 101,81.4 101,72 99.4,72 
				99.4,81.4 99.4,83 101,83 101,86.2 102.6,86.2 102.6,94.1 104.2,94.1 104.2,98.8 105.8,98.8 105.8,100.4 107.3,100.4 107.3,102 
				107.3,117.8 105.8,117.8 104.2,117.8 104.2,109.9 102.6,109.9 102.6,102 101,102 101,111.4 102.6,111.4 102.6,114.6 101,114.6 
				101,116.2 102.6,116.2 102.6,119.3 104.2,119.3 104.2,122.5 104.2,124.1 104.2,138.3 102.6,138.3 102.6,136.7 101,136.7 
				101,135.1 99.4,135.1 97.9,135.1 97.9,133.6 96.3,133.6 94.7,133.6 94.7,127.2 93.1,127.2 93.1,132 91.5,132 91.5,130.4 
				90,130.4 90,133.6 91.5,133.6 93.1,133.6 93.1,135.1 94.7,135.1 94.7,136.7 96.3,136.7 96.3,138.3 97.9,138.3 99.4,138.3 
				99.4,141.4 101,141.4 101,144.6 102.6,144.6 102.6,152.5 102.6,171 101,171 101,202.6 101,207.4 101,218.4 99.4,218.4 
				99.4,221.6 97.9,221.6 97.9,224.7 96.3,224.7 96.3,227.9 94.7,227.9 94.7,229.5 93.1,229.5 93.1,231 88.4,231 88.4,232.6 
				86.8,232.6 85.2,232.6 82.1,232.6 80.5,232.6 80.5,234.2 80.5,237.4 82.1,237.4 82.1,234.2 85.2,234.2 85.2,237.4 83.7,237.4 
				83.7,238.9 86.8,238.9 86.8,237.4 86.8,234.2 91.5,234.2 91.5,232.6 93.1,232.6 94.7,232.6 96.3,232.6 96.3,231 97.9,231 
				97.9,229.5 99.4,229.5 99.4,234.2 101,234.2 101,235.8 99.4,235.8 99.4,242.1 96.3,242.1 96.3,243.7 94.7,243.7 85.2,243.7 
				82.1,243.7 82.1,245.3 85.2,245.3 90,245.3 90,246.8 91.5,246.8 91.5,245.3 94.7,245.3 94.7,250 96.3,250 96.3,245.3 99.4,245.3 
				99.4,243.7 101,243.7 101,242.1 101,240.5 102.6,240.5 102.6,238.9 104.2,238.9 104.2,237.4 104.2,234.2 105.8,234.2 
				105.8,229.5 107.3,229.5 107.3,232.6 108.9,232.6 108.9,238.9 108.9,246.8 107.3,246.8 107.3,254.7 105.8,254.7 104.2,254.7 
				104.2,261 105.8,261 105.8,256.3 107.3,256.3 108.9,256.3 108.9,261 110.5,261 110.5,254.7 108.9,254.7 108.9,248.4 110.5,248.4 
				110.5,240.5 112.1,240.5 112.1,234.2 115.2,234.2 115.2,237.4 116.8,237.4 116.8,234.2 118.4,234.2 118.4,232.6 118.4,231 
				121.6,231 121.6,229.5 118.4,229.5 115.2,229.5 115.2,227.9 113.7,227.9 113.7,224.7 112.1,224.7 112.1,207.4 112.1,202.6 
				112.1,150.9 112.1,143 113.7,143 113.7,141.4 115.2,141.4 115.2,139.9 112.1,139.9 			"/>
			<rect x="91.5" y="120.9" class="st303" width="1.6" height="6.3"/>
			<rect x="88.4" y="109.9" class="st303" width="1.6" height="9.5"/>
			<rect x="90" y="119.3" class="st303" width="1.6" height="1.6"/>
			<rect x="88.4" y="128.8" class="st303" width="1.6" height="1.6"/>
			<rect x="86.8" y="127.2" class="st303" width="1.6" height="1.6"/>
			<rect x="85.2" y="125.7" class="st303" width="1.6" height="1.6"/>
			<rect x="83.7" y="124.1" class="st303" width="1.6" height="1.6"/>
			<rect x="82.1" y="122.5" class="st303" width="1.6" height="1.6"/>
			<rect x="93.1" y="250" class="st303" width="1.6" height="1.6"/>
			<rect x="82.1" y="248.4" class="st303" width="3.2" height="1.6"/>
			<polygon class="st303" points="85.2,246.8 85.2,248.4 86.8,248.4 90,248.4 90,246.8 86.8,246.8 			"/>
			<rect x="110.5" y="261" class="st303" width="1.6" height="1.6"/>
			<rect x="102.6" y="261" class="st303" width="1.6" height="3.2"/>
			<rect x="101" y="264.2" class="st303" width="1.6" height="1.6"/>
			<rect x="118.4" y="234.2" class="st303" width="1.6" height="1.6"/>
			<rect x="120" y="235.8" class="st303" width="1.6" height="1.6"/>
			<rect x="121.6" y="237.4" class="st303" width="1.6" height="1.6"/>
			<rect x="123.1" y="238.9" class="st303" width="1.6" height="1.6"/>
			<rect x="124.7" y="240.5" class="st303" width="1.6" height="1.6"/>
			<rect x="126.3" y="242.1" class="st303" width="1.6" height="3.2"/>
			<polygon class="st303" points="124.7,232.6 126.3,232.6 129.4,232.6 129.4,231 126.3,231 124.7,231 121.6,231 121.6,232.6 			"/>
			<polygon class="st303" points="116.8,240.5 118.4,240.5 118.4,243.7 120,243.7 120,240.5 120,238.9 118.4,238.9 118.4,237.4 
				116.8,237.4 116.8,238.9 			"/>
			<rect x="120" y="243.7" class="st303" width="1.6" height="3.2"/>
			<rect x="121.6" y="246.8" class="st303" width="3.2" height="1.6"/>
			<rect x="124.7" y="248.4" class="st303" width="1.6" height="1.6"/>
			<rect x="78.9" y="237.4" class="st303" width="1.6" height="1.6"/>
			<rect x="77.3" y="238.9" class="st303" width="1.6" height="1.6"/>
			<rect x="82.1" y="238.9" class="st303" width="1.6" height="1.6"/>
		</g>
	</g>
	<g>
		<polygon class="st306" points="173.7,95.1 173.7,91.9 173.7,85.6 175.2,85.6 175.2,82.4 176.8,82.4 176.8,65.1 180,65.1 180,61.9 
			181.6,61.9 181.6,60.3 183.1,60.3 183.1,52.4 183.1,49.3 184.7,49.3 184.7,43 187.9,43 187.9,39.8 191,39.8 191,36.6 194.2,36.6 
			194.2,35.1 197.4,35.1 197.4,33.5 200.5,33.5 200.5,35.1 202.1,35.1 202.1,36.6 205.2,36.6 205.2,38.2 206.8,38.2 206.8,39.8 
			210,39.8 210,43 211.6,43 211.6,49.3 214.7,49.3 214.7,52.4 216.3,52.4 216.3,57.2 217.9,57.2 217.9,58.8 221,58.8 221,61.9 
			222.6,61.9 222.6,69.8 224.2,69.8 224.2,77.7 225.8,77.7 225.8,80.9 227.4,80.9 227.4,87.2 230.5,87.2 230.5,93.5 232.1,93.5 
			232.1,96.7 233.7,96.7 233.7,103 232.1,103 232.1,104.5 230.5,104.5 230.5,109.3 227.4,109.3 227.4,110.9 230.5,110.9 
			230.5,112.4 232.1,112.4 232.1,137.7 230.5,137.7 230.5,139.3 228.9,139.3 228.9,140.9 225.8,140.9 225.8,142.4 224.2,142.4 
			224.2,145.6 222.6,145.6 222.6,147.2 221,147.2 221,150.3 219.5,150.3 219.5,151.9 217.9,151.9 217.9,153.5 216.3,153.5 
			216.3,155.1 214.7,155.1 214.7,156.7 213.1,156.7 213.1,158.2 211.6,158.2 211.6,159.8 198.9,159.8 198.9,158.2 197.4,158.2 
			197.4,156.7 195.8,156.7 195.8,155.1 194.2,155.1 194.2,153.5 192.6,153.5 192.6,151.9 191,151.9 191,150.3 189.5,150.3 
			189.5,147.2 187.9,147.2 187.9,145.6 186.3,145.6 186.3,144 180,144 180,142.4 178.4,142.4 178.4,139.3 176.8,139.3 176.8,137.7 
			175.2,137.7 175.2,112.4 176.8,112.4 176.8,110.9 175.2,110.9 175.2,109.3 173.7,109.3 173.7,106.1 172.1,106.1 172.1,101.4 
			172.1,98.2 172.1,95.1 		"/>
		
			<rect x="203.7" y="99.8" transform="matrix(-1 -4.377044e-11 4.377044e-11 -1 408.9189 226.4658)" class="st303" width="1.6" height="26.8"/>
		
			<rect x="191" y="41.4" transform="matrix(-1 -4.492241e-11 4.492241e-11 -1 383.6519 84.3393)" class="st305" width="1.6" height="1.6"/>
		
			<rect x="202.1" y="39.8" transform="matrix(-1 -4.492241e-11 4.492241e-11 -1 405.7605 81.181)" class="st305" width="1.6" height="1.6"/>
		
			<rect x="206.8" y="46.1" transform="matrix(-1 -4.607438e-11 4.607438e-11 -1 415.2356 93.8144)" class="st305" width="1.6" height="1.6"/>
		<rect x="195.8" y="38.2" class="st305" width="1.6" height="1.6"/>
		
			<rect x="191" y="52.4" transform="matrix(-1 -4.492241e-11 4.492241e-11 -1 383.6519 106.4479)" class="st305" width="1.6" height="1.6"/>
		
			<rect x="184.7" y="60.3" transform="matrix(-1 -4.607438e-11 4.607438e-11 -1 371.0184 122.2397)" class="st305" width="1.6" height="1.6"/>
		
			<rect x="187.9" y="47.7" transform="matrix(-1 -4.722634e-11 4.722634e-11 -1 377.3352 96.9728)" class="st305" width="1.6" height="1.6"/>
		
			<rect x="192.6" y="58.8" transform="matrix(-1 -4.377044e-11 4.377044e-11 -1 386.8103 119.0814)" class="st305" width="1.6" height="1.6"/>
		
			<rect x="206.8" y="58.8" transform="matrix(-1 -4.492241e-11 4.492241e-11 -1 415.2356 119.0814)" class="st305" width="1.6" height="1.6"/>
		
			<rect x="213.1" y="66.6" transform="matrix(-1 -4.377044e-11 4.377044e-11 -1 427.869 134.8732)" class="st305" width="1.6" height="1.6"/>
		
			<rect x="217.9" y="61.9" transform="matrix(-1 -4.377044e-11 4.377044e-11 -1 437.3441 125.3981)" class="st305" width="1.6" height="1.6"/>
		
			<rect x="210" y="52.4" transform="matrix(-1 -4.492241e-11 4.492241e-11 -1 421.5523 106.4479)" class="st305" width="1.6" height="1.6"/>
		
			<rect x="216.3" y="73" transform="matrix(-1 -4.492241e-11 4.492241e-11 -1 434.1858 147.5067)" class="st305" width="1.6" height="1.6"/>
		
			<rect x="222.6" y="80.9" transform="matrix(-1 -4.607438e-11 4.607438e-11 -1 446.8192 163.2985)" class="st305" width="1.6" height="1.6"/>
		
			<rect x="210" y="90.3" transform="matrix(-1 -4.492241e-11 4.492241e-11 -1 421.5523 182.2487)" class="st305" width="1.6" height="1.6"/>
		
			<rect x="213.1" y="77.7" transform="matrix(-1 -4.607438e-11 4.607438e-11 -1 427.869 156.9818)" class="st305" width="1.6" height="1.6"/>
		
			<rect x="202.1" y="79.3" transform="matrix(-1 -4.492241e-11 4.492241e-11 -1 405.7605 160.1401)" class="st305" width="1.6" height="1.6"/>
		
			<rect x="202.1" y="68.2" transform="matrix(-1 -4.607438e-11 4.607438e-11 -1 405.7605 138.0316)" class="st305" width="1.6" height="1.6"/>
		
			<rect x="195.8" y="69.8" transform="matrix(-1 -4.492241e-11 4.492241e-11 -1 393.127 141.1899)" class="st305" width="1.6" height="1.6"/>
		
			<rect x="187.9" y="76.1" transform="matrix(-1 -4.607438e-11 4.607438e-11 -1 377.3352 153.8234)" class="st305" width="1.6" height="1.6"/>
		
			<rect x="189.5" y="66.6" transform="matrix(-1 -4.377044e-11 4.377044e-11 -1 380.4935 134.8732)" class="st305" width="1.6" height="1.6"/>
		
			<rect x="178.4" y="84" transform="matrix(-1 -4.492241e-11 4.492241e-11 -1 358.385 169.6152)" class="st305" width="1.6" height="1.6"/>
		<rect x="178.4" y="69.8" class="st305" width="1.6" height="1.6"/>
		
			<rect x="183.1" y="66.6" transform="matrix(-1 -4.492241e-11 4.492241e-11 -1 367.8601 134.8732)" class="st305" width="1.6" height="1.6"/>
		
			<rect x="180" y="93.5" transform="matrix(-1 -4.377044e-11 4.377044e-11 -1 361.5433 188.5654)" class="st305" width="1.6" height="1.6"/>
		
			<rect x="175.2" y="103" transform="matrix(-1 -4.607438e-11 4.607438e-11 -1 352.0682 207.5156)" class="st305" width="1.6" height="1.6"/>
		
			<rect x="184.7" y="109.3" transform="matrix(-1 -4.377044e-11 4.377044e-11 -1 371.0184 220.1491)" class="st305" width="1.6" height="1.6"/>
		
			<rect x="195.8" y="104.5" transform="matrix(-1 -4.492241e-11 4.492241e-11 -1 393.127 210.674)" class="st305" width="1.6" height="1.6"/>
		
			<rect x="191" y="84" transform="matrix(-1 -4.377044e-11 4.377044e-11 -1 383.6519 169.6152)" class="st305" width="1.6" height="1.6"/>
		
			<rect x="191" y="121.9" transform="matrix(-1 -4.377044e-11 4.377044e-11 -1 383.6519 245.416)" class="st305" width="1.6" height="1.6"/>
		
			<rect x="176.8" y="118.8" transform="matrix(-1 -4.377044e-11 4.377044e-11 -1 355.2266 239.0993)" class="st305" width="1.6" height="1.6"/>
		
			<rect x="181.6" y="137.7" transform="matrix(-1 -4.492241e-11 4.492241e-11 -1 364.7017 276.9997)" class="st305" width="1.6" height="1.6"/>
		
			<rect x="194.2" y="133" transform="matrix(-1 -4.492241e-11 4.492241e-11 -1 389.9687 267.5246)" class="st305" width="1.6" height="1.6"/>
		
			<rect x="194.2" y="145.6" transform="matrix(-1 -4.492241e-11 4.492241e-11 -1 389.9687 292.7915)" class="st305" width="1.6" height="1.6"/>
		
			<rect x="214.7" y="145.6" transform="matrix(-1 -4.492241e-11 4.492241e-11 -1 431.0274 292.7915)" class="st305" width="1.6" height="1.6"/>
		
			<rect x="211.6" y="150.3" transform="matrix(-1 -4.377044e-11 4.377044e-11 -1 424.7107 302.2666)" class="st305" width="1.6" height="1.6"/>
		
			<rect x="224.2" y="137.7" transform="matrix(-1 -4.377044e-11 4.377044e-11 -1 449.9776 276.9997)" class="st305" width="1.6" height="1.6"/>
		
			<rect x="227.4" y="128.2" transform="matrix(-1 -4.607438e-11 4.607438e-11 -1 456.2943 258.0495)" class="st305" width="1.6" height="1.6"/>
		
			<rect x="224.2" y="120.3" transform="matrix(-1 -4.377044e-11 4.377044e-11 -1 449.9776 242.2576)" class="st305" width="1.6" height="1.6"/>
		
			<rect x="210" y="118.8" transform="matrix(-1 -4.377044e-11 4.377044e-11 -1 421.5523 239.0993)" class="st305" width="1.6" height="1.6"/>
		
			<rect x="211.6" y="126.7" transform="matrix(-1 -4.492241e-11 4.492241e-11 -1 424.7107 254.8911)" class="st305" width="1.6" height="1.6"/>
		
			<rect x="224.2" y="106.1" transform="matrix(-1 -4.607438e-11 4.607438e-11 -1 449.9776 213.8324)" class="st305" width="1.6" height="1.6"/>
		
			<rect x="216.3" y="112.4" transform="matrix(-1 -4.377044e-11 4.377044e-11 -1 434.1858 226.4658)" class="st305" width="1.6" height="1.6"/>
		
			<rect x="225.8" y="93.5" transform="matrix(-1 -4.607438e-11 4.607438e-11 -1 453.136 188.5654)" class="st305" width="1.6" height="1.6"/>
		
			<rect x="213.1" y="98.2" transform="matrix(-1 -4.607438e-11 4.607438e-11 -1 427.869 198.0405)" class="st305" width="1.6" height="1.6"/>
		
			<rect x="219.5" y="91.9" transform="matrix(-1 -4.492241e-11 4.492241e-11 -1 440.5025 185.4071)" class="st305" width="1.6" height="1.6"/>
		<g>
			<polygon class="st303" points="200.5,77.7 200.5,58.8 202.1,58.8 202.1,54 203.7,54 203.7,49.3 202.1,49.3 202.1,52.4 
				200.5,52.4 200.5,43 198.9,43 198.9,77.7 198.9,79.3 198.9,88.8 200.5,88.8 200.5,79.3 			"/>
			<rect x="194.2" y="63.5" class="st303" width="1.6" height="30"/>
			<rect x="195.8" y="93.5" class="st303" width="1.6" height="1.6"/>
			<rect x="222.6" y="98.2" class="st303" width="1.6" height="1.6"/>
			<rect x="221" y="99.8" class="st303" width="1.6" height="3.2"/>
			<rect x="219.5" y="103" class="st303" width="1.6" height="1.6"/>
			<rect x="217.9" y="104.5" class="st303" width="1.6" height="1.6"/>
			<polygon class="st303" points="216.3,107.7 217.9,107.7 217.9,106.1 216.3,106.1 214.7,106.1 214.7,109.3 216.3,109.3 			"/>
			<rect x="213.1" y="109.3" class="st303" width="1.6" height="1.6"/>
			<rect x="211.6" y="110.9" class="st303" width="1.6" height="3.2"/>
			<rect x="210" y="114" class="st303" width="1.6" height="1.6"/>
			<polygon class="st303" points="211.6,101.4 211.6,96.7 210,96.7 210,101.4 210,103 211.6,103 			"/>
			<rect x="216.3" y="77.7" class="st303" width="1.6" height="6.3"/>
			<polygon class="st303" points="216.3,91.9 217.9,91.9 217.9,90.3 216.3,90.3 216.3,84 214.7,84 214.7,93.5 216.3,93.5 			"/>
			<rect x="213.1" y="93.5" class="st303" width="1.6" height="1.6"/>
			<rect x="211.6" y="95.1" class="st303" width="1.6" height="1.6"/>
			<rect x="221" y="87.2" class="st303" width="1.6" height="1.6"/>
			<polygon class="st303" points="221,90.3 221,88.8 219.5,88.8 217.9,88.8 217.9,90.3 219.5,90.3 			"/>
			<rect x="222.6" y="85.6" class="st303" width="1.6" height="1.6"/>
			<rect x="183.1" y="73" class="st303" width="1.6" height="3.2"/>
			<rect x="184.7" y="76.1" class="st303" width="1.6" height="6.3"/>
			<rect x="186.3" y="82.4" class="st303" width="1.6" height="6.3"/>
			<polygon class="st303" points="187.9,88.8 187.9,91.9 186.3,91.9 186.3,93.5 187.9,93.5 187.9,95.1 189.5,95.1 189.5,88.8 			"/>
			<rect x="184.7" y="90.3" class="st303" width="1.6" height="1.6"/>
			<rect x="183.1" y="88.8" class="st303" width="1.6" height="1.6"/>
			<rect x="181.6" y="87.2" class="st303" width="1.6" height="1.6"/>
			<polygon class="st303" points="192.6,103 192.6,96.7 191,96.7 191,95.1 189.5,95.1 189.5,98.2 191,98.2 191,104.5 192.6,104.5 
				192.6,109.3 194.2,109.3 194.2,103 			"/>
			<rect x="191" y="112.4" class="st303" width="1.6" height="1.6"/>
			<polygon class="st303" points="191,107.7 189.5,107.7 189.5,110.9 189.5,112.4 191,112.4 191,110.9 			"/>
			<rect x="187.9" y="106.1" class="st303" width="1.6" height="1.6"/>
			<rect x="186.3" y="104.5" class="st303" width="1.6" height="1.6"/>
			<rect x="184.7" y="103" class="st303" width="1.6" height="1.6"/>
			<rect x="183.1" y="101.4" class="st303" width="1.6" height="1.6"/>
			<rect x="184.7" y="117.2" class="st303" width="1.6" height="9.5"/>
			<rect x="183.1" y="112.4" class="st303" width="1.6" height="4.7"/>
			<polygon class="st303" points="186.3,126.7 186.3,129.8 184.7,129.8 184.7,131.4 186.3,131.4 186.3,133 187.9,133 187.9,126.7 
							"/>
			<polygon class="st303" points="183.1,128.2 183.1,126.7 181.6,126.7 181.6,125.1 178.4,125.1 178.4,126.7 180,126.7 180,128.2 
				181.6,128.2 181.6,129.8 184.7,129.8 184.7,128.2 			"/>
			<rect x="194.2" y="139.3" class="st303" width="1.6" height="1.6"/>
			<rect x="192.6" y="137.7" class="st303" width="1.6" height="1.6"/>
			<rect x="191" y="136.1" class="st303" width="1.6" height="1.6"/>
			<rect x="189.5" y="134.6" class="st303" width="1.6" height="1.6"/>
			<rect x="187.9" y="133" class="st303" width="1.6" height="1.6"/>
			<polygon class="st303" points="230.5,232.6 228.9,232.6 225.8,232.6 224.2,232.6 222.6,232.6 222.6,231 217.9,231 217.9,229.5 
				216.3,229.5 216.3,227.9 214.7,227.9 214.7,224.7 213.1,224.7 213.1,221.6 211.6,221.6 211.6,218.4 210,218.4 210,205.8 
				210,202.6 210,164.1 208.4,164.1 208.4,153.5 208.4,145.6 210,145.6 210,142.4 211.6,142.4 211.6,139.3 213.1,139.3 214.7,139.3 
				214.7,137.7 216.3,137.7 216.3,136.1 217.9,136.1 217.9,134.6 219.5,134.6 221,134.6 221,131.4 219.5,131.4 219.5,133 217.9,133 
				217.9,128.2 216.3,128.2 216.3,134.6 214.7,134.6 213.1,134.6 213.1,136.1 211.6,136.1 210,136.1 210,137.7 208.4,137.7 
				208.4,139.3 206.8,139.3 206.8,125.1 206.8,123.5 206.8,120.3 208.4,120.3 208.4,117.2 210,117.2 210,115.6 208.4,115.6 
				208.4,112.4 210,112.4 210,103 208.4,103 208.4,110.9 206.8,110.9 206.8,118.8 205.2,118.8 203.7,118.8 203.7,103 203.7,101.4 
				205.2,101.4 205.2,99.8 206.8,99.8 206.8,95.1 208.4,95.1 208.4,87.2 210,87.2 210,84 211.6,84 211.6,82.4 211.6,73 210,73 
				210,82.4 208.4,82.4 208.4,65.1 210,65.1 210,61.9 208.4,61.9 208.4,63.5 206.8,63.5 206.8,85.6 206.8,93.5 205.2,93.5 
				205.2,98.2 203.7,98.2 203.7,95.1 202.1,95.1 202.1,88.8 200.5,88.8 200.5,98.2 198.9,98.2 198.9,95.1 197.4,95.1 197.4,98.2 
				197.4,99.8 198.9,99.8 198.9,101.4 200.5,101.4 200.5,106.1 200.5,120.3 198.9,120.3 198.9,118.8 197.4,118.8 197.4,117.2 
				195.8,117.2 195.8,109.3 194.2,109.3 194.2,114 192.6,114 192.6,115.6 194.2,115.6 194.2,118.8 195.8,118.8 195.8,120.3 
				195.8,121.9 197.4,121.9 197.4,128.2 198.9,128.2 198.9,137.7 198.9,139.3 198.9,140.9 195.8,140.9 195.8,142.4 197.4,142.4 
				197.4,144 198.9,144 198.9,151.9 198.9,202.6 198.9,207.4 198.9,224.7 197.4,224.7 197.4,227.9 195.8,227.9 195.8,229.5 
				192.6,229.5 189.5,229.5 189.5,231 192.6,231 192.6,232.6 192.6,234.2 194.2,234.2 194.2,237.4 195.8,237.4 195.8,234.2 
				198.9,234.2 198.9,240.5 200.5,240.5 200.5,248.4 202.1,248.4 202.1,254.7 200.5,254.7 200.5,261 202.1,261 202.1,256.3 
				203.7,256.3 205.2,256.3 205.2,261 206.8,261 206.8,254.7 205.2,254.7 203.7,254.7 203.7,246.8 202.1,246.8 202.1,238.9 
				202.1,232.6 203.7,232.6 203.7,229.5 205.2,229.5 205.2,234.2 206.8,234.2 206.8,237.4 206.8,238.9 208.4,238.9 208.4,240.5 
				210,240.5 210,242.1 210,243.7 211.6,243.7 211.6,245.3 214.7,245.3 214.7,250 216.3,250 216.3,245.3 219.5,245.3 219.5,246.8 
				221,246.8 221,245.3 225.8,245.3 228.9,245.3 228.9,243.7 225.8,243.7 216.3,243.7 214.7,243.7 214.7,242.1 211.6,242.1 
				211.6,235.8 210,235.8 210,234.2 211.6,234.2 211.6,229.5 213.1,229.5 213.1,231 214.7,231 214.7,232.6 216.3,232.6 217.9,232.6 
				219.5,232.6 219.5,234.2 224.2,234.2 224.2,237.4 224.2,238.9 227.4,238.9 227.4,237.4 225.8,237.4 225.8,234.2 228.9,234.2 
				228.9,237.4 230.5,237.4 230.5,234.2 			"/>
			<rect x="217.9" y="121.9" class="st303" width="1.6" height="6.3"/>
			<rect x="221" y="110.9" class="st303" width="1.6" height="9.5"/>
			<rect x="219.5" y="120.3" class="st303" width="1.6" height="1.6"/>
			<rect x="221" y="129.8" class="st303" width="1.6" height="1.6"/>
			<rect x="222.6" y="128.2" class="st303" width="1.6" height="1.6"/>
			<rect x="224.2" y="126.7" class="st303" width="1.6" height="1.6"/>
			<rect x="225.8" y="125.1" class="st303" width="1.6" height="1.6"/>
			<rect x="227.4" y="123.5" class="st303" width="1.6" height="1.6"/>
			<rect x="216.3" y="250" class="st303" width="1.6" height="1.6"/>
			<rect x="225.8" y="248.4" class="st303" width="3.2" height="1.6"/>
			<polygon class="st303" points="224.2,248.4 225.8,248.4 225.8,246.8 224.2,246.8 221,246.8 221,248.4 			"/>
			<rect x="198.9" y="261" class="st303" width="1.6" height="1.6"/>
			<rect x="206.8" y="261" class="st303" width="1.6" height="3.2"/>
			<rect x="208.4" y="264.2" class="st303" width="1.6" height="1.6"/>
			<rect x="191" y="234.2" class="st303" width="1.6" height="1.6"/>
			<rect x="189.5" y="235.8" class="st303" width="1.6" height="1.6"/>
			<rect x="187.9" y="237.4" class="st303" width="1.6" height="1.6"/>
			<rect x="186.3" y="238.9" class="st303" width="1.6" height="1.6"/>
			<rect x="184.7" y="240.5" class="st303" width="1.6" height="1.6"/>
			<rect x="183.1" y="242.1" class="st303" width="1.6" height="3.2"/>
			<polygon class="st303" points="184.7,231 181.6,231 181.6,232.6 184.7,232.6 186.3,232.6 189.5,232.6 189.5,231 186.3,231 			"/>
			<polygon class="st303" points="192.6,238.9 191,238.9 191,240.5 191,243.7 192.6,243.7 192.6,240.5 194.2,240.5 194.2,238.9 
				194.2,237.4 192.6,237.4 			"/>
			<rect x="189.5" y="243.7" class="st303" width="1.6" height="3.2"/>
			<rect x="186.3" y="246.8" class="st303" width="3.2" height="1.6"/>
			<rect x="184.7" y="248.4" class="st303" width="1.6" height="1.6"/>
			<rect x="230.5" y="237.4" class="st303" width="1.6" height="1.6"/>
			<rect x="232.1" y="238.9" class="st303" width="1.6" height="1.6"/>
			<rect x="227.4" y="238.9" class="st303" width="1.6" height="1.6"/>
		</g>
	</g>
	<rect x="150" y="237.4" class="st303" width="1.6" height="1.6"/>
	<rect x="161" y="254.7" class="st303" width="1.6" height="1.6"/>
	<rect x="129.4" y="267.4" class="st303" width="1.6" height="1.6"/>
	<rect x="134.2" y="235.8" class="st303" width="1.6" height="1.6"/>
	<rect x="132.6" y="224.7" class="st303" width="1.6" height="1.6"/>
	<rect x="83.7" y="227.9" class="st303" width="1.6" height="1.6"/>
	<rect x="86.8" y="267.4" class="st303" width="1.6" height="1.6"/>
	<rect x="80.5" y="256.3" class="st303" width="1.6" height="1.6"/>
	<rect x="180" y="261" class="st303" width="1.6" height="1.6"/>
	<rect x="172.1" y="224.7" class="st303" width="1.6" height="1.6"/>
	<rect x="216.3" y="259.5" class="st303" width="1.6" height="1.6"/>
	<rect x="200.5" y="276.8" class="st303" width="1.6" height="1.6"/>
	<rect x="189.5" y="268.9" class="st303" width="1.6" height="1.6"/>
	<rect x="162.6" y="270.5" class="st303" width="1.6" height="1.6"/>
	<rect x="142.1" y="253.2" class="st303" width="1.6" height="1.6"/>
	<rect x="143.7" y="275.3" class="st303" width="1.6" height="1.6"/>
	<rect x="164.2" y="237.4" class="st303" width="1.6" height="1.6"/>
	<rect x="102.6" y="273.7" class="st303" width="1.6" height="1.6"/>
	<rect x="97.9" y="256.3" class="st303" width="1.6" height="1.6"/>
	<g>
		<rect x="224.2" y="194.7" class="st304" width="9.5" height="77.4"/>
		<rect x="224.2" y="194.7" class="st308" width="9.5" height="1.6"/>
		<rect x="224.2" y="213.7" class="st308" width="9.5" height="1.6"/>
		<rect x="230.5" y="204.2" class="st308" width="1.6" height="1.6"/>
		<rect x="225.8" y="210.5" class="st308" width="1.6" height="1.6"/>
		<rect x="224.2" y="232.6" class="st308" width="9.5" height="1.6"/>
		<rect x="224.2" y="251.6" class="st308" width="9.5" height="1.6"/>
		<rect x="224.2" y="270.5" class="st308" width="9.5" height="1.6"/>
		<rect x="225.8" y="197.9" class="st308" width="1.6" height="1.6"/>
		<rect x="230.5" y="220" class="st308" width="1.6" height="1.6"/>
		<rect x="227.4" y="227.9" class="st308" width="1.6" height="1.6"/>
		<rect x="227.4" y="237.4" class="st308" width="1.6" height="1.6"/>
		<rect x="225.8" y="235.8" class="st308" width="1.6" height="1.6"/>
		<rect x="230.5" y="246.8" class="st308" width="1.6" height="1.6"/>
		<rect x="227.4" y="248.4" class="st308" width="1.6" height="1.6"/>
		<rect x="230.5" y="240.5" class="st308" width="1.6" height="1.6"/>
		<rect x="227.4" y="262.6" class="st308" width="1.6" height="1.6"/>
		<rect x="228.9" y="265.8" class="st308" width="1.6" height="1.6"/>
		<rect x="230.5" y="256.3" class="st308" width="1.6" height="1.6"/>
		<rect x="224.2" y="254.7" class="st308" width="1.6" height="1.6"/>
		<rect x="225.8" y="268.9" class="st308" width="1.6" height="1.6"/>
		<rect x="232.1" y="231" class="st308" width="1.6" height="1.6"/>
		<rect x="230.5" y="210.5" class="st308" width="1.6" height="1.6"/>
	</g>
	<g>
		
			<rect x="71" y="194.7" transform="matrix(-1 -1.224647e-16 1.224647e-16 -1 151.427 466.8273)" class="st304" width="9.5" height="77.4"/>
		
			<rect x="71" y="270.5" transform="matrix(-1 -1.224647e-16 1.224647e-16 -1 151.427 542.6281)" class="st308" width="9.5" height="1.6"/>
		
			<rect x="71" y="251.6" transform="matrix(-1 -1.224647e-16 1.224647e-16 -1 151.427 504.7277)" class="st308" width="9.5" height="1.6"/>
		
			<rect x="72.6" y="261" transform="matrix(-1 -1.224647e-16 1.224647e-16 -1 146.6894 523.6779)" class="st308" width="1.6" height="1.6"/>
		
			<rect x="77.3" y="254.7" transform="matrix(-1 -1.224647e-16 1.224647e-16 -1 156.1645 511.0445)" class="st308" width="1.6" height="1.6"/>
		
			<rect x="71" y="232.6" transform="matrix(-1 -1.224647e-16 1.224647e-16 -1 151.427 466.8273)" class="st308" width="9.5" height="1.6"/>
		
			<rect x="71" y="213.7" transform="matrix(-1 -1.224647e-16 1.224647e-16 -1 151.427 428.9269)" class="st308" width="9.5" height="1.6"/>
		
			<rect x="71" y="194.7" transform="matrix(-1 -1.224647e-16 1.224647e-16 -1 151.427 391.0266)" class="st308" width="9.5" height="1.6"/>
		
			<rect x="77.3" y="267.4" transform="matrix(-1 -1.224647e-16 1.224647e-16 -1 156.1645 536.3114)" class="st308" width="1.6" height="1.6"/>
		
			<rect x="72.6" y="245.3" transform="matrix(-1 -1.224647e-16 1.224647e-16 -1 146.6894 492.0943)" class="st308" width="1.6" height="1.6"/>
		
			<rect x="75.7" y="237.4" transform="matrix(-1 -1.224647e-16 1.224647e-16 -1 153.0061 476.3024)" class="st308" width="1.6" height="1.6"/>
		
			<rect x="75.7" y="227.9" transform="matrix(-1 -1.224647e-16 1.224647e-16 -1 153.0061 457.3522)" class="st308" width="1.6" height="1.6"/>
		
			<rect x="77.3" y="229.5" transform="matrix(-1 -1.224647e-16 1.224647e-16 -1 156.1645 460.5106)" class="st308" width="1.6" height="1.6"/>
		
			<rect x="72.6" y="218.4" transform="matrix(-1 -1.224647e-16 1.224647e-16 -1 146.6894 438.402)" class="st308" width="1.6" height="1.6"/>
		
			<rect x="75.7" y="216.8" transform="matrix(-1 -1.224647e-16 1.224647e-16 -1 153.0061 435.2437)" class="st308" width="1.6" height="1.6"/>
		
			<rect x="72.6" y="224.7" transform="matrix(-1 -1.224647e-16 1.224647e-16 -1 146.6894 451.0355)" class="st308" width="1.6" height="1.6"/>
		
			<rect x="75.7" y="202.6" transform="matrix(-1 -1.224647e-16 1.224647e-16 -1 153.0061 406.8184)" class="st308" width="1.6" height="1.6"/>
		
			<rect x="74.1" y="199.5" transform="matrix(-1 -1.224647e-16 1.224647e-16 -1 149.8478 400.5016)" class="st308" width="1.6" height="1.6"/>
		
			<rect x="72.6" y="208.9" transform="matrix(-1 -1.224647e-16 1.224647e-16 -1 146.6894 419.4518)" class="st308" width="1.6" height="1.6"/>
		
			<rect x="78.9" y="210.5" transform="matrix(-1 -1.224647e-16 1.224647e-16 -1 159.3229 422.6102)" class="st308" width="1.6" height="1.6"/>
		
			<rect x="77.3" y="196.3" transform="matrix(-1 -1.224647e-16 1.224647e-16 -1 156.1645 394.1849)" class="st308" width="1.6" height="1.6"/>
		
			<rect x="71" y="234.2" transform="matrix(-1 -1.224647e-16 1.224647e-16 -1 143.5311 469.9857)" class="st308" width="1.6" height="1.6"/>
		
			<rect x="72.6" y="254.7" transform="matrix(-1 -1.224647e-16 1.224647e-16 -1 146.6894 511.0445)" class="st308" width="1.6" height="1.6"/>
	</g>
	<rect x="246.3" y="230.9" class="st295" width="14.2" height="1.6"/>
	<rect x="271.6" y="226.1" class="st295" width="11.1" height="1.6"/>
	<rect x="266.8" y="256.2" class="st295" width="9.5" height="1.6"/>
	<rect x="246.3" y="248.3" class="st295" width="7.9" height="1.6"/>
	<rect x="282.6" y="273.5" class="st295" width="9.5" height="1.6"/>
	<rect x="277.9" y="241.9" class="st295" width="14.2" height="1.6"/>
	<rect x="295.3" y="262.5" class="st295" width="4.7" height="1.6"/>
	<rect x="236.8" y="268.2" class="st295" width="11.1" height="1.6"/>
	<rect x="254.2" y="276.7" class="st295" width="9.5" height="1.6"/>
	<rect x="12.6" y="272.9" class="st295" width="14.2" height="1.6"/>
	<rect x="37.9" y="277.7" class="st295" width="11.1" height="1.6"/>
	<rect x="33.1" y="247.7" class="st295" width="9.5" height="1.6"/>
	<rect x="12.6" y="255.6" class="st295" width="7.9" height="1.6"/>
	<rect x="48.9" y="230.3" class="st295" width="9.5" height="1.6"/>
	<rect x="44.2" y="261.9" class="st295" width="14.2" height="1.6"/>
	<rect x="61.5" y="241.4" class="st295" width="4.7" height="1.6"/>
	<rect x="3.1" y="236.6" class="st295" width="11.1" height="1.6"/>
	<rect x="20.5" y="227.1" class="st295" width="9.5" height="1.6"/>
	<g>
		<path class="st312" d="M107.1,15.5h3.4v-0.9h0.9v-0.9h1.7v1.7h-0.9v0.9h-0.9v0.9h-5.1v-0.9h-0.9v-0.9h-0.9V6.9h0.9V6h0.9V5.2h5.1
			V6h0.9v0.9h0.9v1.7h-1.7V7.7h-0.9V6.9h-3.4v0.9h-0.9v6.9h0.9V15.5z"/>
		<path class="st312" d="M116.6,12v5.1h-1.7v-12h1.7v5.1h5.1V5.2h1.7v12h-1.7V12H116.6z"/>
		<path class="st312" d="M126.9,17.2v-1.7h1.7V6.9h-1.7V5.2h5.1v1.7h-1.7v8.6h1.7v1.7H126.9z"/>
		<path class="st312" d="M137.1,10.3v6.9h-1.7v-12h1.7v2.6h0.9v0.9h0.9v0.9h0.9v0.9h0.9v0.9h0.9V12h0.9V5.2h1.7v12h-1.7v-2.6h-0.9
			v-0.9h-0.9v-0.9h-0.9V12h-0.9v-0.9H138v-0.9H137.1z"/>
		<path class="st312" d="M147.4,17.2h-1.7V8.6h0.9V7.7h0.9V6.9h0.9V6h0.9V5.2h1.7V6h0.9v0.9h0.9v0.9h0.9v0.9h0.9v8.6h-1.7v-3.4h-5.1
			V17.2z M147.4,12h5.1V9.5h-0.9V8.6h-0.9V7.7h-1.7v0.9h-0.9v0.9h-0.9V12z"/>
		<path class="st312" d="M157.7,17.2H156v-12h1.7v1.7h0.9v0.9h0.9v0.9h1.7V7.7h0.9V6.9h0.9V5.2h1.7v12h-1.7V9.5H162v0.9h-0.9V12
			h-1.7v-1.7h-0.9V9.5h-0.9V17.2z"/>
		<path class="st312" d="M168,12v5.1h-1.7v-12h6.9V6h0.9v0.9h0.9v3.4H174v0.9h-0.9V12H168z M168,6.9v3.4h4.3V9.5h0.9V7.7h-0.9V6.9
			H168z"/>
		<path class="st312" d="M178.3,17.2h-1.7V8.6h0.9V7.7h0.9V6.9h0.9V6h0.9V5.2h1.7V6h0.9v0.9h0.9v0.9h0.9v0.9h0.9v8.6h-1.7v-3.4h-5.1
			V17.2z M178.3,12h5.1V9.5h-0.9V8.6h-0.9V7.7H180v0.9h-0.9v0.9h-0.9V12z"/>
		<path class="st312" d="M194.6,6.9h0.9v1.7h-1.7V7.7h-0.9V6.9h-3.4v0.9h-0.9v1.7h0.9v0.9h4.3v0.9h0.9V12h0.9v3.4h-0.9v0.9h-0.9v0.9
			h-5.1v-0.9h-0.9v-0.9h-0.9v-1.7h1.7v0.9h0.9v0.9h3.4v-0.9h0.9v-1.7h-0.9V12h-4.3v-0.9h-0.9v-0.9h-0.9V6.9h0.9V6h0.9V5.2h5.1V6h0.9
			V6.9z"/>
	</g>
</g>
</svg>
