<?xml version="1.0" encoding="utf-8"?>
<!-- Generator: Adobe Illustrator 25.2.3, SVG Export Plug-In . SVG Version: 6.00 Build 0)  -->
<svg version="1.1" xmlns="http://www.w3.org/2000/svg" xmlns:xlink="http://www.w3.org/1999/xlink" x="0px" y="0px"
	 viewBox="0 0 300 300" style="enable-background:new 0 0 300 300;" xml:space="preserve">
<style type="text/css">
	.st0{opacity:0.46;}
	.st1{fill:#66890B;}
	.st2{fill:#95BC51;}
	.st3{fill:#3F6905;}
	.st4{fill:#CBE46E;}
	.st5{fill:#757DE0;}
	.st6{fill:#CAC5FF;}
	.st7{fill:#E9ECFD;}
	.st8{opacity:0.41;}
	.st9{opacity:0.69;}
	.st10{opacity:0.27;fill:none;stroke:#57ADA0;stroke-miterlimit:10;}
	.st11{opacity:0.65;}
	.st12{opacity:0.54;}
	.st13{opacity:0.51;}
	.st14{fill:#3FA0A7;}
	.st15{fill:#AB7946;}
	.st16{fill:#03464F;}
	.st17{fill:#026385;}
	.st18{fill:#35BCC0;}
	.st19{fill:#018F9F;}
	.st20{fill:#A53A1C;}
	.st21{fill:#DF5330;}
	.st22{fill:#FF8039;}
	.st23{fill:#EE5E2F;}
	.st24{fill:#A51959;}
	.st25{fill:#C12573;}
	.st26{fill:#FF4DA6;}
	.st27{fill:#D2276E;}
	.st28{fill:#7F7973;}
	.st29{fill:#C0B5AA;}
	.st30{fill:#E4DED5;}
	.st31{fill:#514A43;}
	.st32{fill:#606161;}
	.st33{fill:#BEBFB9;}
	.st34{fill:#3A3A3A;}
	.st35{fill:#302C28;}
	.st36{fill:#161616;}
	.st37{fill:#E1E1DF;}
	.st38{fill:#163A20;}
	.st39{fill:#1A5C31;}
	.st40{fill:#3E9B50;}
	.st41{fill:#23763E;}
	.st42{fill:#41296D;}
	.st43{fill:#513C82;}
	.st44{fill:#775ABF;}
	.st45{fill:#614293;}
	.st46{fill:#6C0F13;}
	.st47{fill:#9E1F25;}
	.st48{fill:#E8222E;}
	.st49{fill:#CF232E;}
	.st50{fill:#D27633;}
	.st51{fill:#DD8A34;}
	.st52{fill:#F5C032;}
	.st53{fill:#F3A634;}
	.st54{fill:#D4EAFF;}
	.st55{fill:#EFFAFC;}
	.st56{fill:#171C05;}
	.st57{fill:#688F50;}
	.st58{fill:#92BA73;}
	.st59{fill:#9FC780;}
	.st60{fill:#A7CB8D;}
	.st61{fill:#9CC17B;}
	.st62{fill:#91B166;}
	.st63{fill:#88988D;}
	.st64{fill:#829788;}
	.st65{fill:#5B7A36;}
	.st66{fill:#2C4704;}
	.st67{fill:#415705;}
	.st68{fill:#7D9732;}
	.st69{fill:#778B34;}
	.st70{fill:#879935;}
	.st71{fill:#A3BA62;}
	.st72{fill:#BFDA95;}
	.st73{fill:#B7D690;}
	.st74{fill:#B8D88C;}
	.st75{fill:#B7D78B;}
	.st76{fill:#B8D68C;}
	.st77{fill:#B2D185;}
	.st78{fill:#AECE85;}
	.st79{fill:#ACC87E;}
	.st80{fill:#A3B078;}
	.st81{fill:#758D8F;}
	.st82{fill:#8B9DF1;}
	.st83{fill:#A3B7F2;}
	.st84{fill:#7FA35B;}
	.st85{fill:#6A9047;}
	.st86{fill:#3D6823;}
	.st87{fill:#325F1C;}
	.st88{fill:#33621E;}
	.st89{fill:#214E0B;}
	.st90{fill:#306811;}
	.st91{fill:#689339;}
	.st92{fill:#95BB6E;}
	.st93{fill:#9BC57D;}
	.st94{fill:#A2C781;}
	.st95{fill:#9AB67C;}
	.st96{fill:#B4C8A5;}
	.st97{fill:#97ACBD;}
	.st98{fill:#7F9C88;}
	.st99{fill:#617830;}
	.st100{fill:#56750D;}
	.st101{fill:#789529;}
	.st102{fill:#91A335;}
	.st103{fill:#A5B650;}
	.st104{fill:#A7BD5B;}
	.st105{fill:#C1D894;}
	.st106{fill:#BCDA9A;}
	.st107{fill:#BEDB98;}
	.st108{fill:#BDDC98;}
	.st109{fill:#B9DA95;}
	.st110{fill:#B0D087;}
	.st111{fill:#9EC477;}
	.st112{fill:#98B86D;}
	.st113{fill:#8D9750;}
	.st114{fill:#798749;}
	.st115{fill:#82964F;}
	.st116{fill:#7F9B6B;}
	.st117{fill:#819D77;}
	.st118{fill:#88A855;}
	.st119{fill:#789C52;}
	.st120{fill:#46732E;}
	.st121{fill:#295613;}
	.st122{fill:#1F490A;}
	.st123{fill:#20490D;}
	.st124{fill:#33680C;}
	.st125{fill:#40700D;}
	.st126{fill:#95B864;}
	.st127{fill:#9DC77F;}
	.st128{fill:#9FC37B;}
	.st129{fill:#B4D191;}
	.st130{fill:#BED9A2;}
	.st131{fill:#A2BD94;}
	.st132{fill:#728D40;}
	.st133{fill:#546E17;}
	.st134{fill:#7A932B;}
	.st135{fill:#B5AD64;}
	.st136{fill:#C2C86E;}
	.st137{fill:#B6BC5A;}
	.st138{fill:#AFB56D;}
	.st139{fill:#AEC87F;}
	.st140{fill:#BFDF96;}
	.st141{fill:#C3DD9C;}
	.st142{fill:#BCD997;}
	.st143{fill:#B3D48D;}
	.st144{fill:#83AD63;}
	.st145{fill:#68893A;}
	.st146{fill:#948C44;}
	.st147{fill:#898836;}
	.st148{fill:#68852B;}
	.st149{fill:#90AC57;}
	.st150{fill:#84A54E;}
	.st151{fill:#7E9C42;}
	.st152{fill:#7D9C56;}
	.st153{fill:#5E8640;}
	.st154{fill:#2D5B13;}
	.st155{fill:#1F4D0C;}
	.st156{fill:#1F4708;}
	.st157{fill:#2A5F07;}
	.st158{fill:#4F7B08;}
	.st159{fill:#80A814;}
	.st160{fill:#90BC5A;}
	.st161{fill:#92BC6A;}
	.st162{fill:#9AC478;}
	.st163{fill:#90B766;}
	.st164{fill:#95B957;}
	.st165{fill:#B0CD70;}
	.st166{fill:#7C9E4A;}
	.st167{fill:#6B861D;}
	.st168{fill:#849A35;}
	.st169{fill:#C5B077;}
	.st170{fill:#B8B872;}
	.st171{fill:#AEB855;}
	.st172{fill:#A9B263;}
	.st173{fill:#95AA65;}
	.st174{fill:#B4D68A;}
	.st175{fill:#BBD895;}
	.st176{fill:#A8CB87;}
	.st177{fill:#81AD62;}
	.st178{fill:#6D8C3E;}
	.st179{fill:#9C9046;}
	.st180{fill:#8F8E3E;}
	.st181{fill:#6E901F;}
	.st182{fill:#90AC45;}
	.st183{fill:#8BAD59;}
	.st184{fill:#729723;}
	.st185{fill:#749B1E;}
	.st186{fill:#547C19;}
	.st187{fill:#204903;}
	.st188{fill:#1F4804;}
	.st189{fill:#35570D;}
	.st190{fill:#2C600E;}
	.st191{fill:#376B07;}
	.st192{fill:#588300;}
	.st193{fill:#779E1D;}
	.st194{fill:#93B55E;}
	.st195{fill:#95BF75;}
	.st196{fill:#729D4B;}
	.st197{fill:#779D30;}
	.st198{fill:#8EB248;}
	.st199{fill:#A5CB80;}
	.st200{fill:#8EB363;}
	.st201{fill:#97B04A;}
	.st202{fill:#AAB674;}
	.st203{fill:#798E33;}
	.st204{fill:#889E32;}
	.st205{fill:#99A962;}
	.st206{fill:#899759;}
	.st207{fill:#99AC6A;}
	.st208{fill:#A5BF76;}
	.st209{fill:#A4C87E;}
	.st210{fill:#ABCA86;}
	.st211{fill:#A7C97F;}
	.st212{fill:#9DB36A;}
	.st213{fill:#939F53;}
	.st214{fill:#86922C;}
	.st215{fill:#749029;}
	.st216{fill:#94B250;}
	.st217{fill:#94B157;}
	.st218{fill:#91B03B;}
	.st219{fill:#7B9F01;}
	.st220{fill:#708B18;}
	.st221{fill:#596920;}
	.st222{fill:#485C15;}
	.st223{fill:#707F2A;}
	.st224{fill:#265F12;}
	.st225{fill:#3F6E08;}
	.st226{fill:#7C9F45;}
	.st227{fill:#82A74A;}
	.st228{fill:#94BA67;}
	.st229{fill:#9AC374;}
	.st230{fill:#83B05D;}
	.st231{fill:#629023;}
	.st232{fill:#88AE3F;}
	.st233{fill:#AFD389;}
	.st234{fill:#99C273;}
	.st235{fill:#A6C568;}
	.st236{fill:#B6CB86;}
	.st237{fill:#77933F;}
	.st238{fill:#6E8B2F;}
	.st239{fill:#718E34;}
	.st240{fill:#819148;}
	.st241{fill:#90A05F;}
	.st242{fill:#9CB271;}
	.st243{fill:#96B268;}
	.st244{fill:#95B569;}
	.st245{fill:#A8C37E;}
	.st246{fill:#A5BE7A;}
	.st247{fill:#8CA257;}
	.st248{fill:#7C9341;}
	.st249{fill:#849D49;}
	.st250{fill:#98B561;}
	.st251{fill:#A8C072;}
	.st252{fill:#A1BD4C;}
	.st253{fill:#7FA206;}
	.st254{fill:#9A9C49;}
	.st255{fill:#9E8B53;}
	.st256{fill:#90804D;}
	.st257{fill:#A19A4C;}
	.st258{fill:#2C5F10;}
	.st259{fill:#688D2E;}
	.st260{fill:#8CB25F;}
	.st261{fill:#9BC273;}
	.st262{fill:#9AC26C;}
	.st263{fill:#9CBE67;}
	.st264{fill:#94BC64;}
	.st265{fill:#98BC64;}
	.st266{fill:#A6C965;}
	.st267{fill:#B3D78F;}
	.st268{fill:#96C36E;}
	.st269{fill:#81AA42;}
	.st270{fill:#83A050;}
	.st271{fill:#819F45;}
	.st272{fill:#83A551;}
	.st273{fill:#799C40;}
	.st274{fill:#8FAE5E;}
	.st275{fill:#93AF65;}
	.st276{fill:#9CB86E;}
	.st277{fill:#98B66C;}
	.st278{fill:#85A854;}
	.st279{fill:#90AB5E;}
	.st280{fill:#9AB66C;}
	.st281{fill:#9EB668;}
	.st282{fill:#94B059;}
	.st283{fill:#7B983E;}
	.st284{fill:#80A345;}
	.st285{fill:#8EB052;}
	.st286{fill:#8AA941;}
	.st287{fill:#83A713;}
	.st288{fill:#8DA52B;}
	.st289{fill:#B2B371;}
	.st290{fill:#C0C084;}
	.st291{fill:#B4AF6B;}
	.st292{clip-path:url(#SVGID_2_);}
	.st293{clip-path:url(#SVGID_4_);}
	.st294{clip-path:url(#SVGID_6_);}
	.st295{fill:#7DC0C9;}
	.st296{fill:#16635B;}
	.st297{fill:#A1D7DB;}
	.st298{fill:#CDC982;}
	.st299{fill:#3C5B3B;}
	.st300{fill:#6B8C5F;}
	.st301{fill:#90AA7D;}
	.st302{fill:#A2B271;}
	.st303{fill:#69463A;}
	.st304{fill:#D6B36F;}
	.st305{fill:#9BB655;}
	.st306{fill:#618F46;}
	.st307{fill:#2B5A38;}
	.st308{fill:#7C672E;}
	.st309{fill:#ABA92E;}
	.st310{fill:#E2E57E;}
	.st311{fill:#CBCA6D;}
	.st312{stroke:#000000;stroke-width:0.5;stroke-miterlimit:10;}
</style>
<g id="layout">
	<g>
		<polygon class="st1" points="148.1,241.2 143.5,241.2 143.5,239.7 135.9,239.7 132.8,239.7 131.3,239.7 131.3,238.2 119.1,238.2 
			119.1,239.7 117.6,239.7 117.6,241.2 116.1,241.2 114.5,241.2 114.5,244.3 113,244.3 113,245.8 111.5,245.8 111.5,247.3 
			110,247.3 110,253.4 108.4,253.4 108.4,270.2 110,270.2 110,273.3 111.5,273.3 111.5,277.9 113,277.9 113,282.4 114.5,282.4 
			114.5,287 116.1,287 116.1,290.1 117.6,290.1 117.6,293.1 119.1,293.1 119.1,296.2 120.6,296.2 120.6,299.2 122.2,299.2 
			122.2,296.2 123.7,296.2 123.7,293.1 125.2,293.1 125.2,288.5 126.7,288.5 126.7,287 128.3,287 128.3,282.4 129.8,282.4 
			129.8,280.9 129.8,279.4 129.8,277.9 131.3,277.9 131.3,276.3 132.8,276.3 132.8,273.3 134.4,273.3 135.9,273.3 135.9,271.7 
			137.4,271.7 137.4,268.7 139,268.7 139,267.2 140.5,267.2 142,267.2 142,265.6 143.5,265.6 143.5,264.1 145.1,264.1 145.1,262.6 
			145.1,261.1 146.6,261.1 146.6,259.5 146.6,247.3 148.1,247.3 		"/>
		<polygon class="st1" points="116.1,204.6 116.1,203.1 114.5,203.1 114.5,201.5 113,201.5 113,200 111.5,200 111.5,198.5 
			110,198.5 108.4,198.5 106.9,198.5 105.4,198.5 103.8,198.5 102.3,198.5 100.8,198.5 100.8,200 99.3,200 97.7,200 96.2,200 
			96.2,201.5 94.7,201.5 94.7,203.1 93.2,203.1 93.2,204.6 91.6,204.6 91.6,206.1 90.1,206.1 90.1,207.6 88.6,207.6 88.6,209.2 
			87.1,209.2 87.1,212.2 85.5,212.2 85.5,215.3 84,215.3 84,219.9 82.5,219.9 82.5,221.4 82.5,224.4 82.5,227.5 82.5,229 84,229 
			84,227.5 84,226 85.5,226 85.5,224.4 87.1,224.4 88.6,224.4 90.1,224.4 90.1,222.9 91.6,222.9 91.6,224.4 93.2,224.4 93.2,222.9 
			94.7,222.9 96.2,222.9 97.7,222.9 99.3,222.9 100.8,222.9 102.3,222.9 102.3,221.4 103.8,221.4 105.4,221.4 106.9,221.4 
			108.4,221.4 108.4,219.9 110,219.9 111.5,219.9 111.5,218.3 113,218.3 114.5,218.3 114.5,216.8 116.1,216.8 116.1,212.2 
			117.6,212.2 117.6,204.6 		"/>
		<g>
			<rect x="198.5" y="201.5" class="st1" width="1.5" height="1.5"/>
			<polygon class="st1" points="196.9,200 195.4,200 193.9,200 193.9,198.5 192.4,198.5 190.8,198.5 189.3,198.5 187.8,198.5 
				186.3,198.5 184.7,198.5 184.7,197 183.2,197 181.7,197 181.7,198.5 180.2,198.5 178.6,198.5 177.1,198.5 175.6,198.5 
				174.1,198.5 172.5,198.5 171,198.5 169.5,198.5 167.9,198.5 166.4,198.5 166.4,200 164.9,200 163.4,200 161.8,200 161.8,201.5 
				160.3,201.5 158.8,201.5 158.8,203.1 157.3,203.1 155.7,203.1 155.7,204.6 154.2,204.6 152.7,204.6 152.7,206.1 151.2,206.1 
				151.2,207.6 148.1,207.6 148.1,209.2 146.6,209.2 146.6,212.2 145.1,212.2 145.1,219.9 143.5,219.9 143.5,226 145.1,226 
				145.1,229 146.6,229 146.6,230.5 148.1,230.5 148.1,233.6 151.2,233.6 151.2,235.1 152.7,235.1 152.7,233.6 154.2,233.6 
				155.7,233.6 157.3,233.6 158.8,233.6 160.3,233.6 161.8,233.6 161.8,235.1 163.4,235.1 164.9,235.1 166.4,235.1 167.9,235.1 
				169.5,235.1 171,235.1 171,233.6 172.5,233.6 174.1,233.6 175.6,233.6 175.6,230.5 177.1,230.5 177.1,229 178.6,229 178.6,227.5 
				180.2,227.5 180.2,224.4 181.7,224.4 181.7,222.9 183.2,222.9 183.2,219.9 184.7,219.9 184.7,215.3 186.3,215.3 186.3,212.2 
				187.8,212.2 187.8,210.7 187.8,209.2 187.8,207.6 189.3,207.6 189.3,204.6 190.8,204.6 190.8,203.1 190.8,201.5 192.4,201.5 
				193.9,201.5 195.4,201.5 196.9,201.5 198.5,201.5 198.5,200 			"/>
		</g>
		<g>
			<rect x="120.6" y="148.1" class="st1" width="1.5" height="1.5"/>
			<polygon class="st1" points="145.1,163.4 145.1,161.9 143.5,161.9 143.5,160.3 142,160.3 140.5,160.3 140.5,158.8 139,158.8 
				139,157.3 137.4,157.3 137.4,155.8 135.9,155.8 134.4,155.8 132.8,155.8 132.8,154.2 131.3,154.2 129.8,154.2 129.8,152.7 
				128.3,152.7 126.7,152.7 126.7,151.2 125.2,151.2 125.2,149.7 122.2,149.7 122.2,151.2 123.7,151.2 123.7,152.7 125.2,152.7 
				125.2,154.2 126.7,154.2 126.7,164.9 128.3,164.9 128.3,168 129.8,168 129.8,171 131.3,171 131.3,174.1 132.8,174.1 132.8,175.6 
				134.4,175.6 134.4,177.1 135.9,177.1 135.9,178.6 137.4,178.6 139,178.6 140.5,178.6 142,178.6 143.5,178.6 145.1,178.6 
				145.1,177.1 146.6,177.1 146.6,163.4 			"/>
		</g>
		<g>
			<rect x="187.8" y="174.1" class="st1" width="1.5" height="1.5"/>
			<polygon class="st1" points="186.3,172.5 186.3,171 184.7,171 184.7,169.5 183.2,169.5 183.2,168 181.7,168 180.2,168 
				180.2,166.4 178.6,166.4 178.6,164.9 177.1,164.9 177.1,163.4 175.6,163.4 175.6,161.9 174.1,161.9 172.5,161.9 172.5,160.3 
				171,160.3 163.4,160.3 163.4,161.9 161.8,161.9 160.3,161.9 158.8,161.9 158.8,163.4 157.3,163.4 157.3,164.9 155.7,164.9 
				155.7,168 154.2,168 154.2,171 152.7,171 152.7,178.6 154.2,178.6 155.7,178.6 155.7,180.2 157.3,180.2 158.8,180.2 158.8,181.7 
				160.3,181.7 161.8,181.7 171,181.7 171,180.2 172.5,180.2 174.1,180.2 174.1,178.6 175.6,178.6 177.1,178.6 177.1,177.1 
				178.6,177.1 180.2,177.1 180.2,175.6 181.7,175.6 183.2,175.6 183.2,174.1 184.7,174.1 186.3,174.1 187.8,174.1 187.8,172.5 			
				"/>
		</g>
		<g>
			<polygon class="st2" points="151.2,230.5 151.2,232.1 152.7,232.1 152.7,230.5 152.7,229 151.2,229 			"/>
			<rect x="152.7" y="227.5" class="st2" width="1.5" height="1.5"/>
			<polygon class="st2" points="154.2,226 154.2,227.5 155.7,227.5 155.7,226 155.7,224.4 154.2,224.4 			"/>
			<rect x="155.7" y="222.9" class="st2" width="1.5" height="1.5"/>
			<rect x="157.3" y="221.4" class="st2" width="1.5" height="1.5"/>
			<rect x="158.8" y="219.9" class="st2" width="1.5" height="1.5"/>
			<rect x="160.3" y="218.3" class="st2" width="1.5" height="1.5"/>
			<rect x="161.8" y="216.8" class="st2" width="1.5" height="1.5"/>
			<rect x="163.4" y="215.3" class="st2" width="1.5" height="1.5"/>
			<rect x="164.9" y="213.8" class="st2" width="1.5" height="1.5"/>
			<rect x="166.4" y="212.2" class="st2" width="1.5" height="1.5"/>
			<rect x="167.9" y="210.7" class="st2" width="1.5" height="1.5"/>
			<rect x="128.3" y="245.8" class="st2" width="1.5" height="1.5"/>
			<rect x="129.8" y="244.3" class="st2" width="1.5" height="1.5"/>
			<rect x="131.3" y="242.8" class="st2" width="1.5" height="1.5"/>
			<polygon class="st2" points="132.8,241.2 132.8,242.8 134.4,242.8 135.9,242.8 135.9,241.2 134.4,241.2 			"/>
			<rect x="154.2" y="174.1" class="st2" width="1.5" height="1.5"/>
			<rect x="155.7" y="172.5" class="st2" width="1.5" height="1.5"/>
			<rect x="157.3" y="171" class="st2" width="1.5" height="1.5"/>
			<rect x="137.4" y="74.9" class="st2" width="1.5" height="1.5"/>
			<polygon class="st2" points="160.3,271.7 158.8,271.7 158.8,268.7 157.3,268.7 157.3,265.6 155.7,265.6 155.7,264.1 154.2,264.1 
				154.2,259.5 152.7,259.5 152.7,258 151.2,258 151.2,251.9 149.6,251.9 149.6,250.4 149.6,236.6 151.2,236.6 151.2,233.6 
				149.6,233.6 149.6,198.5 149.6,193.9 149.6,181.7 149.6,180.2 151.2,180.2 151.2,178.6 152.7,178.6 152.7,177.1 154.2,177.1 
				154.2,175.6 152.7,175.6 151.2,175.6 151.2,177.1 149.6,177.1 148.1,177.1 148.1,171 148.1,148.1 148.1,146.6 149.6,146.6 
				149.6,143.5 151.2,143.5 151.2,142 152.7,142 155.7,142 155.7,140.5 157.3,140.5 157.3,139 158.8,139 158.8,137.4 158.8,135.9 
				158.8,134.4 158.8,129.8 158.8,128.3 160.3,128.3 160.3,123.7 158.8,123.7 158.8,125.2 157.3,125.2 157.3,123.7 157.3,120.7 
				158.8,120.7 158.8,119.1 158.8,117.6 157.3,117.6 157.3,119.1 155.7,119.1 155.7,116.1 157.3,116.1 157.3,111.5 155.7,111.5 
				155.7,110 154.2,110 154.2,108.4 155.7,108.4 155.7,106.9 157.3,106.9 157.3,105.4 157.3,103.9 157.3,100.8 155.7,100.8 
				155.7,102.3 154.2,102.3 154.2,99.3 155.7,99.3 155.7,97.8 157.3,97.8 157.3,93.2 155.7,93.2 155.7,90.1 154.2,90.1 154.2,91.7 
				152.7,91.7 152.7,90.1 152.7,88.6 154.2,88.6 154.2,87.1 155.7,87.1 155.7,81 154.2,81 154.2,82.5 152.7,82.5 152.7,79.4 
				151.2,79.4 151.2,77.9 152.7,77.9 152.7,76.4 154.2,76.4 154.2,74.9 154.2,70.3 152.7,70.3 152.7,65.7 151.2,65.7 151.2,62.7 
				149.6,62.7 149.6,58.1 148.1,58.1 148.1,56.6 146.6,56.6 146.6,58.1 145.1,58.1 145.1,61.1 143.5,61.1 143.5,65.7 142,65.7 
				142,70.3 140.5,70.3 140.5,68.8 139,68.8 139,73.3 140.5,73.3 140.5,76.4 139,76.4 139,79.4 139,81 140.5,81 140.5,82.5 
				139,82.5 137.4,82.5 137.4,85.6 139,85.6 139,87.1 137.4,87.1 137.4,88.6 139,88.6 139,91.7 137.4,91.7 137.4,93.2 137.4,94.7 
				139,94.7 139,97.8 140.5,97.8 140.5,99.3 140.5,100.8 139,100.8 139,102.3 139,103.9 140.5,103.9 140.5,105.4 139,105.4 
				139,106.9 139,108.4 140.5,108.4 140.5,111.5 139,111.5 137.4,111.5 135.9,111.5 135.9,116.1 137.4,116.1 137.4,117.6 139,117.6 
				139,119.1 137.4,119.1 135.9,119.1 135.9,122.2 135.9,123.7 137.4,123.7 137.4,125.2 135.9,125.2 135.9,129.8 135.9,132.9 
				137.4,132.9 137.4,137.4 139,137.4 139,139 139,140.5 140.5,140.5 140.5,142 145.1,142 145.1,143.5 146.6,143.5 146.6,146.6 
				146.6,148.1 146.6,171 146.6,175.6 145.1,175.6 145.1,177.1 145.1,180.2 145.1,181.7 146.6,181.7 146.6,183.2 146.6,193.9 
				146.6,198.5 146.6,238.2 145.1,238.2 143.5,238.2 143.5,236.6 140.5,236.6 140.5,235.1 139,235.1 139,233.6 137.4,233.6 
				137.4,232.1 135.9,232.1 135.9,230.5 134.4,230.5 134.4,229 132.8,229 132.8,226 131.3,226 131.3,224.4 129.8,224.4 129.8,222.9 
				128.3,222.9 128.3,221.4 126.7,221.4 126.7,224.4 128.3,224.4 128.3,226 129.8,226 129.8,227.5 129.8,229 131.3,229 131.3,230.5 
				132.8,230.5 132.8,232.1 134.4,232.1 134.4,233.6 135.9,233.6 135.9,235.1 137.4,235.1 137.4,236.6 139,236.6 139,238.2 
				140.5,238.2 140.5,239.7 135.9,239.7 135.9,241.2 140.5,241.2 142,241.2 145.1,241.2 145.1,242.8 146.6,242.8 146.6,250.4 
				146.6,256.5 148.1,256.5 148.1,261.1 149.6,261.1 149.6,264.1 151.2,264.1 151.2,267.2 152.7,267.2 152.7,270.2 154.2,270.2 
				154.2,273.3 155.7,273.3 155.7,274.8 157.3,274.8 157.3,276.3 158.8,276.3 160.3,276.3 161.8,276.3 161.8,274.8 161.8,273.3 
				160.3,273.3 			"/>
			<rect x="96.2" y="175.6" class="st2" width="1.5" height="1.5"/>
			<polygon class="st2" points="111.5,184.8 113,184.8 113,183.2 116.1,183.2 116.1,172.5 116.1,169.5 116.1,163.4 116.1,160.3 
				114.5,160.3 113,160.3 113,157.3 114.5,157.3 114.5,154.2 113,154.2 113,155.8 111.5,155.8 111.5,149.7 110,149.7 110,145.1 
				108.4,145.1 108.4,142 108.4,140.5 106.9,140.5 106.9,142 105.4,142 105.4,139 103.8,139 103.8,140.5 102.3,140.5 102.3,142 
				102.3,143.5 100.8,143.5 100.8,146.6 99.3,146.6 99.3,151.2 100.8,151.2 100.8,152.7 99.3,152.7 99.3,157.3 99.3,158.8 
				97.7,158.8 97.7,163.4 96.2,163.4 96.2,164.9 97.7,164.9 97.7,166.4 97.7,169.5 97.7,172.5 99.3,172.5 100.8,172.5 100.8,174.1 
				99.3,174.1 99.3,177.1 97.7,177.1 97.7,178.6 99.3,178.6 99.3,180.2 97.7,180.2 97.7,181.7 99.3,181.7 99.3,181.7 103.8,181.7 
				103.8,183.2 105.4,183.2 105.4,184.8 108.4,184.8 108.4,186.3 110,186.3 110,187.8 111.5,187.8 111.5,186.3 			"/>
			<rect x="125.2" y="218.3" class="st2" width="1.5" height="3.1"/>
			<polygon class="st2" points="122.2,209.2 120.6,209.2 120.6,206.1 119.1,206.1 119.1,203.1 117.6,203.1 117.6,198.5 116.1,198.5 
				116.1,195.4 114.5,195.4 114.5,192.4 114.5,190.9 113,190.9 113,187.8 111.5,187.8 111.5,190.9 111.5,192.4 113,192.4 113,197 
				114.5,197 114.5,201.5 116.1,201.5 116.1,203.1 116.1,204.6 117.6,204.6 117.6,206.1 117.6,207.6 116.1,207.6 116.1,209.2 
				117.6,209.2 119.1,209.2 119.1,210.7 120.6,210.7 120.6,212.2 120.6,213.8 122.2,213.8 122.2,212.2 			"/>
			<polygon class="st2" points="123.7,215.3 123.7,213.8 122.2,213.8 122.2,216.8 123.7,216.8 123.7,218.3 125.2,218.3 125.2,215.3 
							"/>
			<polygon class="st2" points="114.5,206.1 113,206.1 106.9,206.1 105.4,206.1 103.8,206.1 102.3,206.1 100.8,206.1 100.8,207.6 
				102.3,207.6 103.8,207.6 105.4,207.6 106.9,207.6 113,207.6 114.5,207.6 116.1,207.6 116.1,206.1 			"/>
			<rect x="97.7" y="209.2" class="st2" width="1.5" height="1.5"/>
			<rect x="96.2" y="210.7" class="st2" width="1.5" height="1.5"/>
			<rect x="94.7" y="212.2" class="st2" width="1.5" height="1.5"/>
			<rect x="93.2" y="213.8" class="st2" width="1.5" height="1.5"/>
			<rect x="91.6" y="215.3" class="st2" width="1.5" height="1.5"/>
			<rect x="99.3" y="207.6" class="st2" width="1.5" height="1.5"/>
		</g>
		<polygon class="st2" points="145.1,168 145.1,166.4 143.5,166.4 142,166.4 140.5,166.4 140.5,164.9 139,164.9 137.4,164.9 
			137.4,166.4 139,166.4 139,168 140.5,168 140.5,169.5 142,169.5 142,171 143.5,171 145.1,171 145.1,172.5 146.6,172.5 146.6,171 
			146.6,169.5 146.6,168 		"/>
		<g>
			<rect x="158.8" y="160.3" class="st2" width="1.5" height="1.5"/>
			<rect x="157.3" y="161.9" class="st2" width="1.5" height="1.5"/>
			<polygon class="st2" points="154.2,163.4 154.2,164.9 152.7,164.9 151.2,164.9 151.2,166.4 149.6,166.4 149.6,168 148.1,168 
				148.1,174.1 149.6,174.1 149.6,172.5 151.2,172.5 151.2,171 152.7,171 152.7,169.5 154.2,169.5 154.2,168 155.7,168 155.7,164.9 
				157.3,164.9 157.3,163.4 155.7,163.4 			"/>
		</g>
		<rect x="148.1" y="85.6" class="st1" width="1.5" height="3.1"/>
		<rect x="148.1" y="76.4" class="st1" width="1.5" height="6.1"/>
		<rect x="149.6" y="68.8" class="st1" width="1.5" height="3.1"/>
		<rect x="146.6" y="67.2" class="st1" width="1.5" height="1.5"/>
		<rect x="149.6" y="90.1" class="st1" width="3.1" height="7.6"/>
		<rect x="149.6" y="85.6" class="st1" width="1.5" height="1.5"/>
		<rect x="151.2" y="110" class="st1" width="3.1" height="7.6"/>
		<rect x="149.6" y="111.5" class="st1" width="3.1" height="3.1"/>
		<rect x="146.6" y="126.8" class="st1" width="1.5" height="4.6"/>
		<rect x="142" y="117.6" class="st1" width="1.5" height="3.1"/>
		<rect x="143.5" y="110" class="st1" width="1.5" height="3.1"/>
		<rect x="155.7" y="125.2" class="st1" width="3.1" height="4.6"/>
		<rect x="151.2" y="123.7" class="st1" width="3.1" height="6.1"/>
		<rect x="145.1" y="96.2" class="st3" width="1.5" height="10.7"/>
		<rect x="149.6" y="100.8" class="st1" width="4.6" height="9.2"/>
		<rect x="148.1" y="82.5" class="st1" width="1.5" height="4.6"/>
		<rect x="148.1" y="71.8" class="st1" width="1.5" height="6.1"/>
		<rect x="146.6" y="58.1" class="st4" width="1.5" height="3.1"/>
		<rect x="140.5" y="76.4" class="st4" width="1.5" height="3.1"/>
		<rect x="139" y="70.3" class="st4" width="1.5" height="1.5"/>
		<rect x="142" y="65.7" class="st4" width="1.5" height="3.1"/>
		<rect x="145.1" y="64.2" class="st4" width="1.5" height="1.5"/>
		<rect x="148.1" y="62.7" class="st4" width="1.5" height="3.1"/>
		<rect x="139" y="87.1" class="st4" width="1.5" height="3.1"/>
		<rect x="139" y="84" class="st4" width="1.5" height="1.5"/>
		<rect x="142" y="81" class="st4" width="1.5" height="3.1"/>
		<rect x="143.5" y="114.5" class="st4" width="1.5" height="3.1"/>
		<rect x="139" y="105.4" class="st4" width="1.5" height="1.5"/>
		<rect x="140.5" y="106.9" class="st4" width="1.5" height="1.5"/>
		<rect x="139" y="93.2" class="st4" width="1.5" height="3.1"/>
		<rect x="152.7" y="91.7" class="st4" width="1.5" height="1.5"/>
		<rect x="151.2" y="79.4" class="st4" width="1.5" height="3.1"/>
		<rect x="152.7" y="70.3" class="st4" width="1.5" height="3.1"/>
		<rect x="145.1" y="119.1" class="st4" width="1.5" height="4.6"/>
		<rect x="149.6" y="131.3" class="st4" width="1.5" height="3.1"/>
		<rect x="146.6" y="94.7" class="st1" width="1.5" height="12.2"/>
		<g>
			<polygon class="st5" points="152.7,106.9 151.2,106.9 151.2,105.4 152.7,105.4 152.7,103.9 152.7,102.3 151.2,102.3 151.2,100.8 
				149.6,100.8 149.6,102.3 148.1,102.3 148.1,103.9 148.1,105.4 149.6,105.4 149.6,106.9 148.1,106.9 146.6,106.9 146.6,108.4 
				148.1,108.4 148.1,111.5 149.6,111.5 149.6,113 151.2,113 151.2,111.5 152.7,111.5 152.7,108.4 154.2,108.4 154.2,106.9 			"/>
			<polygon class="st5" points="146.6,100.8 146.6,99.3 145.1,99.3 145.1,97.8 146.6,97.8 146.6,96.2 146.6,93.2 145.1,93.2 
				145.1,91.7 143.5,91.7 143.5,93.2 142,93.2 142,94.7 142,97.8 143.5,97.8 143.5,99.3 140.5,99.3 140.5,100.8 139,100.8 
				139,102.3 140.5,102.3 140.5,103.9 142,103.9 142,105.4 145.1,105.4 145.1,103.9 146.6,103.9 146.6,102.3 148.1,102.3 
				148.1,100.8 			"/>
			<polygon class="st6" points="143.5,96.2 143.5,99.3 142,99.3 142,100.8 143.5,100.8 143.5,102.3 145.1,102.3 145.1,100.8 
				145.1,99.3 145.1,96.2 			"/>
			<rect x="143.5" y="97.8" class="st7" width="1.5" height="1.5"/>
			<polygon class="st6" points="151.2,105.4 151.2,103.9 149.6,103.9 149.6,105.4 149.6,105.4 149.6,106.9 149.6,106.9 149.6,110 
				151.2,110 151.2,106.9 151.2,106.9 151.2,105.4 			"/>
			<rect x="149.6" y="105.4" class="st7" width="1.5" height="1.5"/>
			<rect x="158.8" y="105.4" class="st5" width="1.5" height="6.1"/>
			<rect x="157.3" y="108.4" class="st5" width="1.5" height="3.1"/>
			<rect x="155.7" y="110" class="st5" width="1.5" height="3.1"/>
			<rect x="157.3" y="113" class="st5" width="1.5" height="4.6"/>
			<rect x="157.3" y="111.5" class="st5" width="1.5" height="1.5"/>
			<rect x="158.8" y="111.5" class="st5" width="1.5" height="6.1"/>
			<rect x="160.3" y="113" class="st5" width="1.5" height="4.6"/>
			<rect x="160.3" y="105.4" class="st5" width="1.5" height="4.6"/>
			<rect x="158.8" y="110" class="st6" width="1.5" height="3.1"/>
			<rect x="157.3" y="111.5" class="st6" width="1.5" height="1.5"/>
			<polygon class="st5" points="157.3,131.3 157.3,129.8 157.3,126.8 155.7,126.8 155.7,125.2 154.2,125.2 154.2,126.8 152.7,126.8 
				152.7,129.8 154.2,129.8 154.2,131.3 152.7,131.3 152.7,134.4 154.2,134.4 154.2,135.9 155.7,135.9 155.7,137.4 157.3,137.4 
				157.3,135.9 158.8,135.9 158.8,131.3 			"/>
			<polygon class="st5" points="146.6,131.3 146.6,129.8 146.6,126.8 146.6,125.2 145.1,125.2 143.5,125.2 143.5,126.8 142,126.8 
				142,129.8 143.5,129.8 143.5,131.3 140.5,131.3 140.5,134.4 142,134.4 142,135.9 143.5,135.9 143.5,137.4 145.1,137.4 
				145.1,135.9 146.6,135.9 146.6,134.4 148.1,134.4 148.1,131.3 			"/>
			<polygon class="st6" points="154.2,128.3 154.2,131.3 155.7,131.3 155.7,132.9 157.3,132.9 157.3,128.3 			"/>
			<rect x="155.7" y="129.8" class="st7" width="1.5" height="1.5"/>
			<polygon class="st6" points="146.6,129.8 145.1,129.8 145.1,128.3 143.5,128.3 143.5,129.8 143.5,131.3 143.5,132.9 145.1,132.9 
				145.1,131.3 146.6,131.3 			"/>
			<rect x="143.5" y="129.8" class="st7" width="1.5" height="1.5"/>
			<polygon class="st5" points="139,122.2 139,120.7 137.4,120.7 137.4,119.1 135.9,119.1 135.9,120.7 134.4,120.7 134.4,123.7 
				135.9,123.7 135.9,125.2 137.4,125.2 137.4,126.8 135.9,126.8 135.9,128.3 134.4,128.3 134.4,129.8 135.9,129.8 135.9,131.3 
				137.4,131.3 139,131.3 140.5,131.3 140.5,129.8 140.5,128.3 140.5,126.8 140.5,123.7 140.5,122.2 			"/>
			<polygon class="st5" points="142,137.4 142,135.9 140.5,135.9 140.5,135.9 140.5,134.4 139,134.4 139,132.9 137.4,132.9 
				135.9,132.9 135.9,134.4 135.9,135.9 137.4,135.9 139,135.9 139,135.9 137.4,135.9 137.4,139 139,139 139,140.5 140.5,140.5 
				142,140.5 143.5,140.5 143.5,137.4 			"/>
			<rect x="139" y="135.9" class="st6" width="1.5" height="3.1"/>
			<rect x="139" y="135.9" class="st7" width="1.5" height="1.5"/>
			<rect x="137.4" y="135.9" class="st6" width="1.5" height="1.5"/>
			<polygon class="st6" points="140.5,125.2 139,125.2 139,123.7 137.4,123.7 137.4,125.2 137.4,126.8 137.4,128.3 139,128.3 
				139,126.8 140.5,126.8 			"/>
			<rect x="137.4" y="125.2" class="st7" width="1.5" height="1.5"/>
		</g>
		<rect x="148.1" y="105.4" class="st3" width="1.5" height="1.5"/>
		<rect x="149.6" y="97.8" class="st3" width="1.5" height="3.1"/>
		<rect x="148.1" y="88.6" class="st4" width="1.5" height="4.6"/>
		<rect x="148.1" y="76.4" class="st3" width="1.5" height="4.6"/>
		<rect x="149.6" y="67.2" class="st3" width="1.5" height="4.6"/>
		<rect x="151.2" y="65.7" class="st1" width="1.5" height="4.2"/>
		<rect x="145.1" y="76.4" class="st4" width="1.5" height="3.1"/>
		<rect x="143.5" y="71.8" class="st4" width="1.5" height="1.5"/>
		<rect x="135.9" y="111.5" class="st4" width="1.5" height="1.5"/>
		<rect x="137.4" y="113" class="st4" width="1.5" height="1.5"/>
		<rect x="135.9" y="131.3" class="st3" width="4.6" height="1.5"/>
		<rect x="151.2" y="134.4" class="st3" width="3.1" height="3.1"/>
		<rect x="157.3" y="126.8" class="st3" width="1.5" height="4.6"/>
		<rect x="149.6" y="129.8" class="st3" width="4.6" height="1.5"/>
		<rect x="151.2" y="126.8" class="st3" width="1.5" height="3.1"/>
		<rect x="151.2" y="131.3" class="st3" width="1.5" height="1.5"/>
		<rect x="146.6" y="129.8" class="st3" width="1.5" height="1.5"/>
		<rect x="140.5" y="126.8" class="st3" width="1.5" height="4.6"/>
		<rect x="154.2" y="135.9" class="st3" width="1.5" height="3.1"/>
		<rect x="157.3" y="135.9" class="st4" width="1.5" height="1.5"/>
		<rect x="148.1" y="129.8" class="st1" width="1.5" height="9.2"/>
		<rect x="139" y="132.9" class="st1" width="1.5" height="1.5"/>
		<rect x="140.5" y="134.4" class="st1" width="1.5" height="1.5"/>
		<rect x="142" y="135.9" class="st1" width="1.5" height="1.5"/>
		<rect x="142" y="129.8" class="st1" width="1.5" height="1.5"/>
		<rect x="143.5" y="137.4" class="st1" width="1.5" height="3.1"/>
		<rect x="146.6" y="134.4" class="st1" width="1.5" height="3.1"/>
		<rect x="145.1" y="135.9" class="st1" width="3.1" height="6.1"/>
		<rect x="148.1" y="139" class="st1" width="1.5" height="4.6"/>
		<rect x="140.5" y="134.4" class="st3" width="1.5" height="1.5"/>
		<rect x="145.1" y="135.9" class="st3" width="1.5" height="3.1"/>
		<rect x="143.5" y="137.4" class="st3" width="3.1" height="1.5"/>
		<rect x="145.1" y="139" class="st3" width="1.5" height="3.1"/>
		<rect x="155.7" y="100.8" class="st4" width="1.5" height="3.1"/>
		<rect x="154.2" y="90.1" class="st4" width="1.5" height="1.5"/>
		<rect x="143.5" y="87.1" class="st4" width="1.5" height="3.1"/>
		<rect x="154.2" y="81" class="st4" width="1.5" height="1.5"/>
		<rect x="157.3" y="117.6" class="st4" width="1.5" height="1.5"/>
		<rect x="154.2" y="110" class="st4" width="1.5" height="1.5"/>
		<rect x="158.8" y="123.7" class="st4" width="1.5" height="3.1"/>
		<rect x="140.5" y="120.7" class="st4" width="1.5" height="1.5"/>
		<rect x="151.2" y="116.1" class="st3" width="1.5" height="4.6"/>
		<rect x="148.1" y="113" class="st3" width="1.5" height="3.1"/>
		<rect x="149.6" y="123.7" class="st3" width="1.5" height="1.5"/>
		<rect x="146.6" y="120.7" class="st1" width="1.5" height="4.6"/>
		<rect x="139" y="116.1" class="st1" width="1.5" height="1.5"/>
		<rect x="142" y="108.4" class="st1" width="1.5" height="1.5"/>
		<rect x="140.5" y="90.1" class="st1" width="1.5" height="1.5"/>
		<rect x="142" y="91.7" class="st1" width="1.5" height="1.5"/>
		<rect x="140.5" y="85.6" class="st1" width="1.5" height="1.5"/>
		<rect x="145.1" y="79.4" class="st1" width="1.5" height="1.5"/>
		<rect x="146.6" y="81" class="st1" width="1.5" height="1.5"/>
		<rect x="145.1" y="73.3" class="st1" width="1.5" height="1.5"/>
		<rect x="146.6" y="74.9" class="st1" width="1.5" height="1.5"/>
		<rect x="140.5" y="71.8" class="st1" width="1.5" height="1.5"/>
		<rect x="142" y="79.4" class="st1" width="1.5" height="1.5"/>
		<rect x="143.5" y="84" class="st1" width="1.5" height="1.5"/>
		<rect x="146.6" y="61.1" class="st1" width="1.5" height="1.5"/>
		<rect x="146.6" y="65.7" class="st1" width="1.5" height="1.5"/>
		<rect x="151.2" y="73.3" class="st1" width="1.5" height="1.5"/>
		<rect x="152.7" y="84" class="st1" width="1.5" height="3.1"/>
		<rect x="151.2" y="87.1" class="st3" width="3.1" height="1.5"/>
		<rect x="152.7" y="97.8" class="st3" width="3.1" height="1.5"/>
		<rect x="154.2" y="106.9" class="st3" width="1.5" height="1.5"/>
		<rect x="152.7" y="111.5" class="st3" width="1.5" height="1.5"/>
		<rect x="152.7" y="103.9" class="st3" width="1.5" height="3.1"/>
		<rect x="154.2" y="119.1" class="st4" width="1.5" height="3.1"/>
		<rect x="148.1" y="117.6" class="st4" width="1.5" height="1.5"/>
		<rect x="145.1" y="106.9" class="st4" width="1.5" height="1.5"/>
		<rect x="146.6" y="85.6" class="st4" width="1.5" height="1.5"/>
		<rect x="145.1" y="58.1" class="st4" width="1.5" height="1.5"/>
		<rect x="148.1" y="56.6" class="st4" width="1.5" height="1.5"/>
		<rect x="140.5" y="111.5" class="st4" width="1.5" height="1.5"/>
		<rect x="149.6" y="135.9" class="st4" width="1.5" height="1.5"/>
		<rect x="148.1" y="139" class="st4" width="3.1" height="1.5"/>
		<rect x="148.1" y="140.5" class="st3" width="1.5" height="4.6"/>
		<rect x="146.6" y="134.4" class="st3" width="1.5" height="3.1"/>
		<rect x="145.1" y="88.6" class="st1" width="1.5" height="4.6"/>
		<rect x="139" y="74.9" class="st4" width="1.5" height="1.5"/>
		<rect x="151.2" y="94.7" class="st2" width="3.1" height="1.5"/>
		<rect x="154.2" y="96.2" class="st1" width="1.5" height="1.5"/>
		<rect x="149.6" y="91.7" class="st3" width="1.5" height="1.5"/>
		<g>
			<rect x="158.8" y="160.3" class="st4" width="1.5" height="1.5"/>
			<rect x="157.3" y="161.9" class="st4" width="1.5" height="1.5"/>
			<rect x="155.7" y="163.4" class="st4" width="1.5" height="1.5"/>
		</g>
		<polygon class="st4" points="140.5,166.4 140.5,164.9 139,164.9 137.4,164.9 137.4,166.4 139,166.4 139,168 140.5,168 142,168 
			142,166.4 		"/>
		<rect x="137.4" y="177.1" class="st3" width="7.6" height="1.5"/>
		<rect x="142" y="174.1" class="st3" width="3.1" height="3.1"/>
		<rect x="137.4" y="172.5" class="st3" width="1.5" height="1.5"/>
		<rect x="143.5" y="172.5" class="st3" width="1.5" height="1.5"/>
		<rect x="132.8" y="171" class="st3" width="1.5" height="1.5"/>
		<rect x="134.4" y="168" class="st3" width="1.5" height="1.5"/>
		<rect x="140.5" y="172.5" class="st3" width="1.5" height="1.5"/>
		<rect x="139" y="171" class="st3" width="1.5" height="1.5"/>
		<rect x="135.9" y="175.6" class="st3" width="1.5" height="1.5"/>
		<rect x="142" y="163.4" class="st3" width="1.5" height="1.5"/>
		<rect x="152.7" y="177.1" class="st3" width="3.1" height="1.5"/>
		<rect x="155.7" y="175.6" class="st3" width="1.5" height="1.5"/>
		<rect x="154.2" y="172.5" class="st3" width="1.5" height="1.5"/>
		<rect x="166.4" y="171" class="st3" width="1.5" height="1.5"/>
		<rect x="172.5" y="172.5" class="st3" width="1.5" height="1.5"/>
		<rect x="158.8" y="169.5" class="st2" width="1.5" height="1.5"/>
		<rect x="160.3" y="168" class="st2" width="1.5" height="1.5"/>
		<rect x="160.3" y="168" class="st2" width="4.6" height="1.5"/>
		<rect x="166.4" y="180.2" class="st3" width="1.5" height="1.5"/>
		<rect x="155.7" y="177.1" class="st3" width="1.5" height="3.1"/>
		<rect x="154.2" y="175.6" class="st3" width="4.6" height="1.5"/>
		<rect x="152.7" y="172.5" class="st3" width="1.5" height="3.1"/>
		<rect x="157.3" y="178.6" class="st3" width="3.1" height="1.5"/>
		<rect x="158.8" y="178.6" class="st3" width="1.5" height="3.1"/>
		<rect x="163.4" y="178.6" class="st3" width="1.5" height="1.5"/>
		<rect x="160.3" y="180.2" class="st3" width="3.1" height="1.5"/>
		<rect x="169.5" y="163.4" class="st3" width="1.5" height="1.5"/>
		<rect x="129.6" y="157.3" class="st4" width="1.5" height="1.5"/>
		<rect x="163.4" y="166.4" class="st4" width="6.1" height="1.5"/>
		<rect x="132.8" y="160.3" class="st4" width="1.5" height="1.5"/>
		<rect x="149.6" y="227.5" class="st3" width="1.5" height="6.1"/>
		<rect x="151.2" y="232.1" class="st3" width="1.5" height="3.1"/>
		<rect x="152.7" y="232.1" class="st3" width="9.2" height="1.5"/>
		<rect x="152.7" y="233.6" class="st3" width="15.3" height="1.5"/>
		<rect x="154.2" y="235.1" class="st3" width="10.7" height="1.5"/>
		<rect x="169.5" y="222.9" class="st3" width="1.5" height="1.5"/>
		<rect x="154.2" y="212.2" class="st3" width="1.5" height="1.5"/>
		<rect x="164.9" y="226" class="st3" width="1.5" height="3.1"/>
		<rect x="167.9" y="230.5" class="st3" width="1.5" height="3.1"/>
		<rect x="171" y="232.1" class="st3" width="3.1" height="1.5"/>
		<rect x="172.5" y="227.5" class="st3" width="1.5" height="1.5"/>
		<rect x="180.2" y="206.1" class="st3" width="1.5" height="1.5"/>
		<rect x="178.6" y="213.8" class="st3" width="1.5" height="1.5"/>
		<rect x="176.3" y="222.2" class="st3" width="1.5" height="1.5"/>
		<rect x="155.7" y="229" class="st3" width="4.6" height="1.5"/>
		<rect x="164.9" y="204.6" class="st4" width="3.1" height="1.5"/>
		<rect x="169.5" y="201.5" class="st4" width="4.6" height="1.5"/>
		<rect x="178.6" y="201.5" class="st4" width="1.5" height="1.5"/>
		<rect x="158.8" y="212.2" class="st4" width="1.5" height="1.5"/>
		<rect x="142" y="241.2" class="st3" width="3.1" height="1.5"/>
		<rect x="145.1" y="242.8" class="st3" width="1.5" height="18.3"/>
		<rect x="143.5" y="262.6" class="st3" width="1.5" height="1.5"/>
		<rect x="142" y="264.1" class="st3" width="1.5" height="1.5"/>
		<rect x="140.5" y="265.6" class="st3" width="1.5" height="1.5"/>
		<rect x="137.4" y="265.6" class="st3" width="1.5" height="3.1"/>
		<rect x="139" y="259.5" class="st3" width="1.5" height="1.5"/>
		<rect x="142" y="259.5" class="st3" width="1.5" height="1.5"/>
		<rect x="140.5" y="262.6" class="st3" width="1.5" height="1.5"/>
		<rect x="142" y="248.9" class="st3" width="1.5" height="1.5"/>
		<rect x="140.5" y="253.4" class="st3" width="1.5" height="1.5"/>
		<rect x="139" y="244.3" class="st3" width="1.5" height="1.5"/>
		<rect x="143.5" y="242.8" class="st3" width="1.5" height="3.1"/>
		<rect x="143.5" y="258" class="st3" width="1.5" height="4.6"/>
		<rect x="139" y="265.6" class="st3" width="1.5" height="1.5"/>
		<rect x="135.9" y="268.7" class="st3" width="1.5" height="3.1"/>
		<rect x="134.4" y="264.1" class="st3" width="1.5" height="1.5"/>
		<rect x="134.4" y="255" class="st3" width="1.5" height="1.5"/>
		<rect x="129.8" y="270.2" class="st3" width="1.5" height="1.5"/>
		<rect x="126.7" y="277.9" class="st3" width="1.5" height="1.5"/>
		<rect x="126.7" y="284" class="st3" width="1.5" height="3.1"/>
		<rect x="123.7" y="291.6" class="st3" width="1.5" height="1.5"/>
		<rect x="131.3" y="274.8" class="st3" width="1.5" height="1.5"/>
		<rect x="122.2" y="285.5" class="st3" width="1.5" height="1.5"/>
		<rect x="111.5" y="262.6" class="st4" width="1.5" height="3.1"/>
		<rect x="113" y="259.5" class="st4" width="1.5" height="3.1"/>
		<rect x="113" y="267.2" class="st4" width="1.5" height="1.5"/>
		<rect x="126.7" y="247.3" class="st2" width="1.5" height="1.5"/>
		<rect x="125.2" y="248.9" class="st2" width="1.5" height="1.5"/>
		<rect x="123.7" y="250.4" class="st2" width="1.5" height="3.1"/>
		<rect x="122.2" y="253.4" class="st2" width="1.5" height="1.5"/>
		<rect x="120.6" y="255" class="st2" width="1.5" height="4.6"/>
		<rect x="116.1" y="209.2" class="st3" width="1.5" height="3.1"/>
		<rect x="114.5" y="212.2" class="st3" width="1.5" height="4.6"/>
		<rect x="111.5" y="216.8" class="st3" width="3.1" height="1.5"/>
		<rect x="105.4" y="213.8" class="st3" width="1.5" height="1.5"/>
		<rect x="99.3" y="218.3" class="st3" width="1.5" height="1.5"/>
		<rect x="105.4" y="219.9" class="st3" width="3.1" height="1.5"/>
		<rect x="110" y="218.3" class="st3" width="1.5" height="1.5"/>
		<rect x="110" y="209.2" class="st3" width="1.5" height="1.5"/>
		<rect x="88.6" y="210.7" class="st4" width="1.5" height="1.5"/>
		<rect x="87.1" y="215.3" class="st4" width="1.5" height="1.5"/>
		<rect x="113" y="215.3" class="st3" width="1.5" height="3.1"/>
		<rect x="106.9" y="218.3" class="st3" width="3.1" height="1.5"/>
		<rect x="110" y="215.3" class="st3" width="1.5" height="1.5"/>
		<rect x="100.8" y="212.2" class="st3" width="1.5" height="1.5"/>
		<rect x="85.5" y="216.8" class="st4" width="1.5" height="3.1"/>
		<rect x="140.5" y="113" class="st1" width="1.5" height="3.1"/>
		<rect x="140.5" y="108.4" class="st1" width="1.5" height="1.5"/>
		<rect x="140.5" y="96.2" class="st1" width="1.5" height="3.1"/>
		<rect x="142" y="73.3" class="st1" width="1.5" height="3.1"/>
		<rect x="140.5" y="79.4" class="st1" width="3.1" height="1.5"/>
		<rect x="148.1" y="84" class="st3" width="1.5" height="3.1"/>
		<rect x="146.6" y="73.3" class="st3" width="1.5" height="1.5"/>
		<rect x="146.6" y="111.5" class="st3" width="1.5" height="1.5"/>
		<rect x="146.6" y="110" class="st1" width="1.5" height="1.5"/>
		<rect x="148.1" y="111.5" class="st1" width="1.5" height="1.5"/>
		<rect x="154.2" y="105.4" class="st1" width="1.5" height="1.5"/>
		<rect x="155.7" y="93.2" class="st4" width="1.5" height="1.5"/>
		<rect x="142" y="122.2" class="st4" width="1.5" height="1.5"/>
		<rect x="103.8" y="139" class="st4" width="1.5" height="1.5"/>
		<rect x="102.3" y="155.8" class="st4" width="1.5" height="3.1"/>
		<rect x="102.3" y="149.7" class="st4" width="1.5" height="3.1"/>
		<rect x="99.3" y="148.1" class="st4" width="1.5" height="1.5"/>
		<rect x="100.8" y="143.5" class="st4" width="1.5" height="1.5"/>
		<rect x="97.7" y="160.3" class="st4" width="1.5" height="3.1"/>
		<rect x="102.3" y="161.9" class="st4" width="1.5" height="1.5"/>
		<rect x="114.5" y="171" class="st4" width="1.5" height="1.5"/>
		<rect x="97.7" y="169.5" class="st4" width="1.5" height="1.5"/>
		<rect x="105.4" y="152.7" class="st4" width="1.5" height="1.5"/>
		<rect x="105.4" y="146.6" class="st4" width="1.5" height="1.5"/>
		<rect x="103.8" y="140.5" class="st4" width="1.5" height="1.5"/>
		<rect x="108.4" y="161.9" class="st3" width="1.5" height="7.6"/>
		<rect x="110" y="160.3" class="st3" width="1.5" height="12.2"/>
		<rect x="111.5" y="164.9" class="st3" width="1.5" height="6.1"/>
		<rect x="113" y="169.5" class="st3" width="1.5" height="1.5"/>
		<rect x="108.4" y="174.1" class="st3" width="1.5" height="3.1"/>
		<rect x="110" y="174.1" class="st3" width="1.5" height="4.6"/>
		<rect x="116.1" y="175.6" class="st3" width="1.5" height="4.6"/>
		<rect x="102.3" y="174.1" class="st3" width="3.1" height="1.5"/>
		<rect x="102.3" y="175.6" class="st3" width="3.1" height="1.5"/>
		<rect x="100.8" y="169.5" class="st3" width="1.5" height="4.6"/>
		<rect x="102.3" y="164.9" class="st3" width="1.5" height="6.1"/>
		<rect x="97.7" y="166.4" class="st3" width="4.6" height="1.5"/>
		<rect x="106.9" y="157.3" class="st3" width="1.5" height="1.5"/>
		<rect x="108.4" y="155.8" class="st3" width="1.5" height="1.5"/>
		<rect x="105.4" y="149.7" class="st3" width="1.5" height="1.5"/>
		<rect x="106.9" y="151.2" class="st3" width="1.5" height="1.5"/>
		<rect x="108.4" y="148.1" class="st3" width="1.5" height="3.1"/>
		<rect x="103.8" y="146.6" class="st3" width="1.5" height="3.1"/>
		<rect x="105.4" y="145.1" class="st3" width="1.5" height="1.5"/>
		<rect x="103.8" y="163.4" class="st3" width="1.5" height="1.5"/>
		<rect x="105.4" y="161.9" class="st3" width="1.5" height="1.5"/>
		<rect x="108.4" y="178.6" class="st3" width="1.5" height="3.1"/>
		<rect x="111.5" y="181.7" class="st3" width="1.5" height="1.5"/>
		<rect x="110" y="180.2" class="st3" width="1.5" height="1.5"/>
		<rect x="114.5" y="175.6" class="st3" width="1.5" height="1.5"/>
		<rect x="113" y="164.9" class="st1" width="1.5" height="4.6"/>
		<rect x="110" y="161.9" class="st1" width="1.5" height="4.6"/>
		<rect x="102.3" y="163.4" class="st1" width="1.5" height="1.5"/>
		<rect x="103.8" y="161.9" class="st1" width="1.5" height="1.5"/>
		<rect x="99.3" y="161.9" class="st1" width="1.5" height="3.1"/>
		<rect x="102.3" y="158.8" class="st1" width="3.1" height="1.5"/>
		<rect x="103.8" y="157.3" class="st1" width="1.5" height="1.5"/>
		<rect x="103.8" y="152.7" class="st1" width="1.5" height="3.1"/>
		<rect x="106.9" y="154.2" class="st1" width="1.5" height="3.1"/>
		<rect x="105.4" y="148.1" class="st1" width="1.5" height="1.5"/>
		<rect x="103.8" y="142" class="st1" width="1.5" height="3.1"/>
		<rect x="106.9" y="146.6" class="st1" width="1.5" height="3.1"/>
		<rect x="100.8" y="149.7" class="st1" width="1.5" height="1.5"/>
		<rect x="100.8" y="145.1" class="st1" width="1.5" height="3.1"/>
		<rect x="110" y="174.1" class="st1" width="1.5" height="1.5"/>
		<rect x="110" y="168" class="st1" width="1.5" height="1.5"/>
		<rect x="102.3" y="168" class="st1" width="1.5" height="1.5"/>
		<rect x="99.3" y="169.5" class="st1" width="1.5" height="1.5"/>
		<rect x="100.8" y="172.5" class="st1" width="1.5" height="1.5"/>
		<rect x="102.3" y="174.1" class="st1" width="1.5" height="1.5"/>
		<rect x="111.5" y="177.1" class="st1" width="1.5" height="3.1"/>
		<rect x="113" y="175.6" class="st1" width="1.5" height="1.5"/>
		<rect x="114.5" y="172.5" class="st1" width="1.5" height="1.5"/>
		<g>
			<polygon class="st5" points="113,187.8 113,186.3 111.5,186.3 111.5,184.8 111.5,183.2 110,183.2 108.4,183.2 108.4,186.3 
				110,186.3 110,187.8 108.4,187.8 108.4,190.9 110,190.9 111.5,190.9 111.5,192.4 113,192.4 114.5,192.4 114.5,189.3 114.5,187.8 
							"/>
			<polygon class="st6" points="111.5,186.3 111.5,184.8 110,184.8 110,186.3 110,187.8 110,189.3 111.5,189.3 111.5,187.8 
				113,187.8 113,186.3 			"/>
			<polygon class="st5" points="108.4,169.5 108.4,166.4 106.9,166.4 106.9,164.9 105.4,164.9 105.4,166.4 103.8,166.4 103.8,169.5 
				103.8,171 102.3,171 102.3,172.5 102.3,174.1 105.4,174.1 105.4,175.6 106.9,175.6 108.4,175.6 108.4,174.1 110,174.1 110,172.5 
				110,171 110,169.5 			"/>
			<polygon class="st5" points="114.5,161.9 113,161.9 113,160.3 114.5,160.3 114.5,155.8 113,155.8 111.5,155.8 111.5,158.8 
				110,158.8 110,161.9 111.5,161.9 111.5,164.9 113,164.9 113,166.4 114.5,166.4 114.5,164.9 116.1,164.9 116.1,161.9 			"/>
			<rect x="111.5" y="158.8" class="st6" width="1.5" height="4.6"/>
			<rect x="111.5" y="160.3" class="st7" width="1.5" height="1.5"/>
			<polygon class="st6" points="108.4,169.5 106.9,169.5 106.9,168 105.4,168 105.4,169.5 105.4,171 105.4,172.5 106.9,172.5 
				106.9,171 108.4,171 			"/>
			<rect x="105.4" y="169.5" class="st7" width="1.5" height="1.5"/>
			<polygon class="st5" points="97.7,168 97.7,166.4 99.3,166.4 99.3,163.4 96.2,163.4 96.2,164.9 94.7,164.9 94.7,169.5 
				96.2,169.5 96.2,171 94.7,171 94.7,174.1 96.2,174.1 96.2,175.6 97.7,175.6 97.7,174.1 99.3,174.1 99.3,171 100.8,171 
				100.8,169.5 100.8,168 			"/>
			<polygon class="st6" points="94.7,168 94.7,169.5 96.2,169.5 96.2,171 97.7,171 97.7,169.5 97.7,168 			"/>
			<rect x="94.7" y="169.5" class="st7" width="1.5" height="1.5"/>
			<polygon class="st5" points="120.6,178.6 120.6,175.6 119.1,175.6 119.1,174.1 117.6,174.1 117.6,175.6 116.1,175.6 116.1,178.6 
				114.5,178.6 114.5,180.2 114.5,183.2 113,183.2 113,186.3 114.5,186.3 116.1,186.3 116.1,187.8 117.6,187.8 119.1,187.8 
				119.1,183.2 120.6,183.2 120.6,181.7 120.6,180.2 119.1,180.2 119.1,178.6 			"/>
			<rect x="116.1" y="178.6" class="st6" width="1.5" height="4.6"/>
			<rect x="116.1" y="180.2" class="st6" width="3.1" height="1.5"/>
			<rect x="116.1" y="180.2" class="st7" width="1.5" height="1.5"/>
			<polygon class="st5" points="108.4,177.1 106.9,177.1 105.4,177.1 103.8,177.1 103.8,178.6 103.8,180.2 105.4,180.2 105.4,181.7 
				106.9,181.7 106.9,183.2 108.4,183.2 108.4,180.2 110,180.2 110,178.6 110,177.1 			"/>
			<polygon class="st5" points="105.4,186.3 105.4,183.2 103.8,183.2 103.8,181.7 102.3,181.7 102.3,184.8 102.3,186.3 100.8,186.3 
				100.8,187.8 102.3,187.8 102.3,189.3 103.8,189.3 103.8,190.9 105.4,190.9 106.9,190.9 106.9,186.3 			"/>
			<rect x="110" y="186.3" class="st7" width="1.5" height="1.5"/>
			<polygon class="st6" points="106.9,177.1 105.4,177.1 105.4,178.6 106.9,178.6 106.9,180.2 108.4,180.2 108.4,178.6 108.4,177.1 
							"/>
			<rect x="106.9" y="177.1" class="st7" width="1.5" height="1.5"/>
			<polygon class="st6" points="103.8,184.8 103.8,186.3 102.3,186.3 102.3,187.8 103.8,187.8 105.4,187.8 105.4,186.3 105.4,184.8 
							"/>
			<rect x="103.8" y="186.3" class="st7" width="1.5" height="1.5"/>
		</g>
		<rect x="100.8" y="164.9" class="st1" width="1.5" height="4.6"/>
		<rect x="108.4" y="164.9" class="st1" width="1.5" height="1.5"/>
		<rect x="111.5" y="168" class="st1" width="1.5" height="4.6"/>
		<rect x="100.8" y="178.6" class="st1" width="3.1" height="3.1"/>
		<rect x="103.8" y="180.2" class="st1" width="1.5" height="3.1"/>
		<rect x="105.4" y="181.7" class="st1" width="1.5" height="3.1"/>
		<rect x="106.9" y="183.2" class="st1" width="1.5" height="1.5"/>
		<rect x="99.3" y="175.6" class="st1" width="1.5" height="1.5"/>
		<rect x="99.3" y="152.7" class="st4" width="1.5" height="3.1"/>
		<rect x="100.8" y="155.8" class="st1" width="1.5" height="1.5"/>
		<rect x="110" y="152.7" class="st1" width="1.5" height="4.6"/>
		<rect x="113" y="154.2" class="st4" width="1.5" height="1.5"/>
		<rect x="110" y="149.7" class="st4" width="1.5" height="1.5"/>
		<rect x="106.9" y="140.5" class="st4" width="1.5" height="1.5"/>
		<rect x="108.4" y="145.1" class="st4" width="1.5" height="1.5"/>
		<rect x="105.4" y="142" class="st4" width="1.5" height="1.5"/>
		<rect x="106.9" y="160.3" class="st4" width="1.5" height="1.5"/>
		<rect x="96.2" y="175.6" class="st4" width="1.5" height="1.5"/>
		<rect x="97.7" y="180.2" class="st4" width="1.5" height="1.5"/>
		<rect x="111.5" y="175.6" class="st4" width="1.5" height="1.5"/>
		<rect x="116.1" y="174.1" class="st4" width="1.5" height="1.5"/>
		<rect x="114.5" y="158.8" class="st4" width="1.5" height="1.5"/>
		<rect x="114.5" y="164.9" class="st4" width="1.5" height="1.5"/>
		<rect x="111.5" y="168" class="st2" width="1.5" height="3.1"/>
		<rect x="110" y="166.4" class="st2" width="1.5" height="1.5"/>
		<rect x="108.4" y="163.4" class="st2" width="3.1" height="1.5"/>
		<rect x="99.3" y="166.4" class="st2" width="3.1" height="1.5"/>
		<rect x="103.8" y="158.8" class="st2" width="1.5" height="1.5"/>
		<rect x="106.9" y="148.1" class="st2" width="3.1" height="1.5"/>
		<rect x="106.9" y="183.2" class="st3" width="1.5" height="4.6"/>
		<rect x="111.5" y="183.2" class="st3" width="1.5" height="3.1"/>
		<rect x="103.8" y="180.2" class="st3" width="1.5" height="3.1"/>
		<rect x="100.8" y="178.6" class="st3" width="1.5" height="1.5"/>
		<rect x="108.4" y="181.7" class="st1" width="3.1" height="1.5"/>
		<rect x="110" y="178.6" class="st1" width="1.5" height="1.5"/>
		<rect x="105.4" y="184.8" class="st1" width="1.5" height="1.5"/>
		<rect x="108.4" y="186.3" class="st1" width="1.5" height="1.5"/>
		<rect x="100.8" y="181.7" class="st1" width="1.5" height="3.1"/>
	</g>
</g>
<g id="GUIDES">
	<g>
		<path class="st312" d="M47.2,32.2h-2.5V14.5h2.5V17h1.3v1.3h1.3v1.3h2.5v-1.3h1.3V17h1.3v-2.5h2.5v17.8h-2.5V20.8h-1.3v1.3h-1.3
			v2.5h-2.5v-2.5h-1.3v-1.3h-1.3V32.2z"/>
		<path class="st312" d="M62.4,15.7v-1.3H70v1.3h1.3V17h1.3v12.7h-1.3V31H70v1.3h-7.6V31h-1.3v-1.3h-1.3V17h1.3v-1.3H62.4z M68.8,17
			h-5.1v1.3h-1.3v10.2h1.3v1.3h5.1v-1.3H70V18.3h-1.3V17z"/>
		<path class="st312" d="M75.1,32.2V14.5h10.2v1.3h1.3V17h1.3v12.7h-1.3V31h-1.3v1.3H75.1z M77.6,17v12.7H84v-1.3h1.3V18.3H84V17
			H77.6z"/>
		<path class="st312" d="M103,14.5V17H92.9v5.1h7.6v2.5h-7.6v5.1H103v2.5H90.3V14.5H103z"/>
		<path class="st312" d="M109.4,24.6h-1.3v7.6h-2.5V14.5h10.2v1.3h1.3V17h1.3v5.1H117v1.3h-1.3v1.3h-2.5v1.3h1.3v1.3h1.3v1.3h1.3
			v1.3h1.3v2.5h-2.5V31h-1.3v-1.3h-1.3v-1.3h-1.3v-1.3h-1.3v-1.3h-1.3V24.6z M108.1,17v5.1h6.3v-1.3h1.3v-2.5h-1.3V17H108.1z"/>
		<path class="st312" d="M123.3,22.1v10.2h-2.5V14.5h2.5v3.8h1.3v1.3h1.3v1.3h1.3v1.3h1.3v1.3h1.3v1.3h1.3V14.5h2.5v17.8H131v-3.8
			h-1.3v-1.3h-1.3v-1.3h-1.3v-1.3h-1.3v-1.3h-1.3v-1.3H123.3z"/>
		<path class="st312" d="M164,14.5V17h-10.2v5.1h7.6v2.5h-7.6v7.6h-2.5V14.5H164z"/>
		<path class="st312" d="M169,32.2h-2.5V19.6h1.3v-1.3h1.3V17h1.3v-1.3h1.3v-1.3h2.5v1.3h1.3V17h1.3v1.3h1.3v1.3h1.3v12.7h-2.5v-5.1
			H169V32.2z M169,24.6h7.6v-3.8h-1.3v-1.3h-1.3v-1.3h-2.5v1.3h-1.3v1.3H169V24.6z"/>
		<path class="st312" d="M185.5,24.6h-1.3v7.6h-2.5V14.5h10.2v1.3h1.3V17h1.3v5.1h-1.3v1.3h-1.3v1.3h-2.5v1.3h1.3v1.3h1.3v1.3h1.3
			v1.3h1.3v2.5h-2.5V31h-1.3v-1.3h-1.3v-1.3h-1.3v-1.3h-1.3v-1.3h-1.3V24.6z M184.3,17v5.1h6.3v-1.3h1.3v-2.5h-1.3V17H184.3z"/>
		<path class="st312" d="M199.5,32.2H197V14.5h2.5V17h1.3v1.3h1.3v1.3h2.5v-1.3h1.3V17h1.3v-2.5h2.5v17.8h-2.5V20.8h-1.3v1.3h-1.3
			v2.5h-2.5v-2.5h-1.3v-1.3h-1.3V32.2z"/>
		<path class="st312" d="M214.7,32.2v-2.5h2.5V17h-2.5v-2.5h7.6V17h-2.5v12.7h2.5v2.5H214.7z"/>
		<path class="st312" d="M230,22.1v10.2h-2.5V14.5h2.5v3.8h1.3v1.3h1.3v1.3h1.3v1.3h1.3v1.3h1.3v1.3h1.3V14.5h2.5v17.8h-2.5v-3.8
			h-1.3v-1.3h-1.3v-1.3h-1.3v-1.3h-1.3v-1.3h-1.3v-1.3H230z"/>
		<path class="st312" d="M254.1,17h1.3v2.5h-2.5v-1.3h-1.3V17h-5.1v1.3h-1.3v10.2h1.3v1.3h5.1v-1.3h1.3v-3.8H249v-2.5h6.3v7.6h-1.3
			V31h-1.3v1.3h-7.6V31h-1.3v-1.3h-1.3V17h1.3v-1.3h1.3v-1.3h7.6v1.3h1.3V17z"/>
	</g>
</g>
</svg>
