<?xml version="1.0" encoding="utf-8"?>
<!-- Generator: Adobe Illustrator 25.2.3, SVG Export Plug-In . SVG Version: 6.00 Build 0)  -->
<svg version="1.1" xmlns="http://www.w3.org/2000/svg" xmlns:xlink="http://www.w3.org/1999/xlink" x="0px" y="0px"
	 viewBox="0 0 300 350" style="enable-background:new 0 0 300 350;" xml:space="preserve">
<style type="text/css">
	.st0{opacity:0.46;}
	.st1{fill:#66890B;}
	.st2{fill:#95BC51;}
	.st3{fill:#3F6905;}
	.st4{fill:#CBE46E;}
	.st5{fill:#757DE0;}
	.st6{fill:#CAC5FF;}
	.st7{fill:#E9ECFD;}
	.st8{opacity:0.41;}
	.st9{opacity:0.69;}
	.st10{opacity:0.27;fill:none;stroke:#57ADA0;stroke-miterlimit:10;}
	.st11{opacity:0.65;}
	.st12{opacity:0.54;}
	.st13{opacity:0.51;}
	.st14{fill:#3FA0A7;}
	.st15{fill:#AB7946;}
	.st16{fill:#03464F;}
	.st17{fill:#026385;}
	.st18{fill:#35BCC0;}
	.st19{fill:#018F9F;}
	.st20{fill:#A53A1C;}
	.st21{fill:#DF5330;}
	.st22{fill:#FF8039;}
	.st23{fill:#EE5E2F;}
	.st24{fill:#A51959;}
	.st25{fill:#C12573;}
	.st26{fill:#FF4DA6;}
	.st27{fill:#D2276E;}
	.st28{fill:#7F7973;}
	.st29{fill:#C0B5AA;}
	.st30{fill:#E4DED5;}
	.st31{fill:#514A43;}
	.st32{fill:#606161;}
	.st33{fill:#BEBFB9;}
	.st34{fill:#3A3A3A;}
	.st35{fill:#302C28;}
	.st36{fill:#161616;}
	.st37{fill:#E1E1DF;}
	.st38{fill:#163A20;}
	.st39{fill:#1A5C31;}
	.st40{fill:#3E9B50;}
	.st41{fill:#23763E;}
	.st42{fill:#41296D;}
	.st43{fill:#513C82;}
	.st44{fill:#775ABF;}
	.st45{fill:#614293;}
	.st46{fill:#6C0F13;}
	.st47{fill:#9E1F25;}
	.st48{fill:#E8222E;}
	.st49{fill:#CF232E;}
	.st50{fill:#D27633;}
	.st51{fill:#DD8A34;}
	.st52{fill:#F5C032;}
	.st53{fill:#F3A634;}
	.st54{fill:#D4EAFF;}
	.st55{fill:#EFFAFC;}
	.st56{fill:#171C05;}
	.st57{fill:#688F50;}
	.st58{fill:#92BA73;}
	.st59{fill:#9FC780;}
	.st60{fill:#A7CB8D;}
	.st61{fill:#9CC17B;}
	.st62{fill:#91B166;}
	.st63{fill:#88988D;}
	.st64{fill:#829788;}
	.st65{fill:#5B7A36;}
	.st66{fill:#2C4704;}
	.st67{fill:#415705;}
	.st68{fill:#7D9732;}
	.st69{fill:#778B34;}
	.st70{fill:#879935;}
	.st71{fill:#A3BA62;}
	.st72{fill:#BFDA95;}
	.st73{fill:#B7D690;}
	.st74{fill:#B8D88C;}
	.st75{fill:#B7D78B;}
	.st76{fill:#B8D68C;}
	.st77{fill:#B2D185;}
	.st78{fill:#AECE85;}
	.st79{fill:#ACC87E;}
	.st80{fill:#A3B078;}
	.st81{fill:#758D8F;}
	.st82{fill:#8B9DF1;}
	.st83{fill:#A3B7F2;}
	.st84{fill:#7FA35B;}
	.st85{fill:#6A9047;}
	.st86{fill:#3D6823;}
	.st87{fill:#325F1C;}
	.st88{fill:#33621E;}
	.st89{fill:#214E0B;}
	.st90{fill:#306811;}
	.st91{fill:#689339;}
	.st92{fill:#95BB6E;}
	.st93{fill:#9BC57D;}
	.st94{fill:#A2C781;}
	.st95{fill:#9AB67C;}
	.st96{fill:#B4C8A5;}
	.st97{fill:#97ACBD;}
	.st98{fill:#7F9C88;}
	.st99{fill:#617830;}
	.st100{fill:#56750D;}
	.st101{fill:#789529;}
	.st102{fill:#91A335;}
	.st103{fill:#A5B650;}
	.st104{fill:#A7BD5B;}
	.st105{fill:#C1D894;}
	.st106{fill:#BCDA9A;}
	.st107{fill:#BEDB98;}
	.st108{fill:#BDDC98;}
	.st109{fill:#B9DA95;}
	.st110{fill:#B0D087;}
	.st111{fill:#9EC477;}
	.st112{fill:#98B86D;}
	.st113{fill:#8D9750;}
	.st114{fill:#798749;}
	.st115{fill:#82964F;}
	.st116{fill:#7F9B6B;}
	.st117{fill:#819D77;}
	.st118{fill:#88A855;}
	.st119{fill:#789C52;}
	.st120{fill:#46732E;}
	.st121{fill:#295613;}
	.st122{fill:#1F490A;}
	.st123{fill:#20490D;}
	.st124{fill:#33680C;}
	.st125{fill:#40700D;}
	.st126{fill:#95B864;}
	.st127{fill:#9DC77F;}
	.st128{fill:#9FC37B;}
	.st129{fill:#B4D191;}
	.st130{fill:#BED9A2;}
	.st131{fill:#A2BD94;}
	.st132{fill:#728D40;}
	.st133{fill:#546E17;}
	.st134{fill:#7A932B;}
	.st135{fill:#B5AD64;}
	.st136{fill:#C2C86E;}
	.st137{fill:#B6BC5A;}
	.st138{fill:#AFB56D;}
	.st139{fill:#AEC87F;}
	.st140{fill:#BFDF96;}
	.st141{fill:#C3DD9C;}
	.st142{fill:#BCD997;}
	.st143{fill:#B3D48D;}
	.st144{fill:#83AD63;}
	.st145{fill:#68893A;}
	.st146{fill:#948C44;}
	.st147{fill:#898836;}
	.st148{fill:#68852B;}
	.st149{fill:#90AC57;}
	.st150{fill:#84A54E;}
	.st151{fill:#7E9C42;}
	.st152{fill:#7D9C56;}
	.st153{fill:#5E8640;}
	.st154{fill:#2D5B13;}
	.st155{fill:#1F4D0C;}
	.st156{fill:#1F4708;}
	.st157{fill:#2A5F07;}
	.st158{fill:#4F7B08;}
	.st159{fill:#80A814;}
	.st160{fill:#90BC5A;}
	.st161{fill:#92BC6A;}
	.st162{fill:#9AC478;}
	.st163{fill:#90B766;}
	.st164{fill:#95B957;}
	.st165{fill:#B0CD70;}
	.st166{fill:#7C9E4A;}
	.st167{fill:#6B861D;}
	.st168{fill:#849A35;}
	.st169{fill:#C5B077;}
	.st170{fill:#B8B872;}
	.st171{fill:#AEB855;}
	.st172{fill:#A9B263;}
	.st173{fill:#95AA65;}
	.st174{fill:#B4D68A;}
	.st175{fill:#BBD895;}
	.st176{fill:#A8CB87;}
	.st177{fill:#81AD62;}
	.st178{fill:#6D8C3E;}
	.st179{fill:#9C9046;}
	.st180{fill:#8F8E3E;}
	.st181{fill:#6E901F;}
	.st182{fill:#90AC45;}
	.st183{fill:#8BAD59;}
	.st184{fill:#729723;}
	.st185{fill:#749B1E;}
	.st186{fill:#547C19;}
	.st187{fill:#204903;}
	.st188{fill:#1F4804;}
	.st189{fill:#35570D;}
	.st190{fill:#2C600E;}
	.st191{fill:#376B07;}
	.st192{fill:#588300;}
	.st193{fill:#779E1D;}
	.st194{fill:#93B55E;}
	.st195{fill:#95BF75;}
	.st196{fill:#729D4B;}
	.st197{fill:#779D30;}
	.st198{fill:#8EB248;}
	.st199{fill:#A5CB80;}
	.st200{fill:#8EB363;}
	.st201{fill:#97B04A;}
	.st202{fill:#AAB674;}
	.st203{fill:#798E33;}
	.st204{fill:#889E32;}
	.st205{fill:#99A962;}
	.st206{fill:#899759;}
	.st207{fill:#99AC6A;}
	.st208{fill:#A5BF76;}
	.st209{fill:#A4C87E;}
	.st210{fill:#ABCA86;}
	.st211{fill:#A7C97F;}
	.st212{fill:#9DB36A;}
	.st213{fill:#939F53;}
	.st214{fill:#86922C;}
	.st215{fill:#749029;}
	.st216{fill:#94B250;}
	.st217{fill:#94B157;}
	.st218{fill:#91B03B;}
	.st219{fill:#7B9F01;}
	.st220{fill:#708B18;}
	.st221{fill:#596920;}
	.st222{fill:#485C15;}
	.st223{fill:#707F2A;}
	.st224{fill:#265F12;}
	.st225{fill:#3F6E08;}
	.st226{fill:#7C9F45;}
	.st227{fill:#82A74A;}
	.st228{fill:#94BA67;}
	.st229{fill:#9AC374;}
	.st230{fill:#83B05D;}
	.st231{fill:#629023;}
	.st232{fill:#88AE3F;}
	.st233{fill:#AFD389;}
	.st234{fill:#99C273;}
	.st235{fill:#A6C568;}
	.st236{fill:#B6CB86;}
	.st237{fill:#77933F;}
	.st238{fill:#6E8B2F;}
	.st239{fill:#718E34;}
	.st240{fill:#819148;}
	.st241{fill:#90A05F;}
	.st242{fill:#9CB271;}
	.st243{fill:#96B268;}
	.st244{fill:#95B569;}
	.st245{fill:#A8C37E;}
	.st246{fill:#A5BE7A;}
	.st247{fill:#8CA257;}
	.st248{fill:#7C9341;}
	.st249{fill:#849D49;}
	.st250{fill:#98B561;}
	.st251{fill:#A8C072;}
	.st252{fill:#A1BD4C;}
	.st253{fill:#7FA206;}
	.st254{fill:#9A9C49;}
	.st255{fill:#9E8B53;}
	.st256{fill:#90804D;}
	.st257{fill:#A19A4C;}
	.st258{fill:#2C5F10;}
	.st259{fill:#688D2E;}
	.st260{fill:#8CB25F;}
	.st261{fill:#9BC273;}
	.st262{fill:#9AC26C;}
	.st263{fill:#9CBE67;}
	.st264{fill:#94BC64;}
	.st265{fill:#98BC64;}
	.st266{fill:#A6C965;}
	.st267{fill:#B3D78F;}
	.st268{fill:#96C36E;}
	.st269{fill:#81AA42;}
	.st270{fill:#83A050;}
	.st271{fill:#819F45;}
	.st272{fill:#83A551;}
	.st273{fill:#799C40;}
	.st274{fill:#8FAE5E;}
	.st275{fill:#93AF65;}
	.st276{fill:#9CB86E;}
	.st277{fill:#98B66C;}
	.st278{fill:#85A854;}
	.st279{fill:#90AB5E;}
	.st280{fill:#9AB66C;}
	.st281{fill:#9EB668;}
	.st282{fill:#94B059;}
	.st283{fill:#7B983E;}
	.st284{fill:#80A345;}
	.st285{fill:#8EB052;}
	.st286{fill:#8AA941;}
	.st287{fill:#83A713;}
	.st288{fill:#8DA52B;}
	.st289{fill:#B2B371;}
	.st290{fill:#C0C084;}
	.st291{fill:#B4AF6B;}
	.st292{clip-path:url(#SVGID_2_);}
	.st293{clip-path:url(#SVGID_4_);}
	.st294{clip-path:url(#SVGID_6_);}
	.st295{fill:#7DC0C9;}
	.st296{fill:#16635B;}
	.st297{fill:#A1D7DB;}
	.st298{fill:#CDC982;}
	.st299{fill:#3C5B3B;}
	.st300{fill:#6B8C5F;}
	.st301{fill:#90AA7D;}
	.st302{fill:#A2B271;}
	.st303{fill:#69463A;}
	.st304{fill:#D6B36F;}
	.st305{fill:#9BB655;}
	.st306{fill:#618F46;}
	.st307{fill:#2B5A38;}
	.st308{fill:#7C672E;}
	.st309{fill:#ABA92E;}
	.st310{fill:#E2E57E;}
	.st311{fill:#CBCA6D;}
	.st312{stroke:#000000;stroke-width:0.5;stroke-miterlimit:10;}
</style>
<g id="layout">
	<g>
		<polygon class="st1" points="158.1,282.4 152.8,282.4 152.8,280.7 144,280.7 140.5,280.7 138.7,280.7 138.7,278.9 124.7,278.9 
			124.7,280.7 122.9,280.7 122.9,282.4 121.2,282.4 119.4,282.4 119.4,285.9 117.6,285.9 117.6,287.7 115.9,287.7 115.9,289.5 
			114.1,289.5 114.1,296.5 112.4,296.5 112.4,315.8 114.1,315.8 114.1,319.3 115.9,319.3 115.9,324.6 117.6,324.6 117.6,329.9 
			119.4,329.9 119.4,335.2 121.2,335.2 121.2,338.7 122.9,338.7 122.9,342.2 124.7,342.2 124.7,345.7 126.4,345.7 126.4,349.2 
			128.2,349.2 128.2,345.7 129.9,345.7 129.9,342.2 131.7,342.2 131.7,336.9 133.5,336.9 133.5,335.2 135.2,335.2 135.2,329.9 
			137,329.9 137,328.1 137,326.4 137,324.6 138.7,324.6 138.7,322.9 140.5,322.9 140.5,319.3 142.2,319.3 144,319.3 144,317.6 
			145.8,317.6 145.8,314.1 147.5,314.1 147.5,312.3 149.3,312.3 151,312.3 151,310.5 152.8,310.5 152.8,308.8 154.5,308.8 
			154.5,307 154.5,305.3 156.3,305.3 156.3,303.5 156.3,289.5 158.1,289.5 		"/>
		<polygon class="st1" points="121.2,240.2 121.2,238.5 119.4,238.5 119.4,236.7 117.6,236.7 117.6,235 115.9,235 115.9,233.2 
			114.1,233.2 112.4,233.2 110.6,233.2 108.8,233.2 107.1,233.2 105.3,233.2 103.6,233.2 103.6,235 101.8,235 100.1,235 98.3,235 
			98.3,236.7 96.5,236.7 96.5,238.5 94.8,238.5 94.8,240.2 93,240.2 93,242 91.3,242 91.3,243.8 89.5,243.8 89.5,245.5 87.8,245.5 
			87.8,249 86,249 86,252.5 84.2,252.5 84.2,257.8 82.5,257.8 82.5,259.6 82.5,263.1 82.5,266.6 82.5,268.4 84.2,268.4 84.2,266.6 
			84.2,264.8 86,264.8 86,263.1 87.8,263.1 89.5,263.1 91.3,263.1 91.3,261.3 93,261.3 93,263.1 94.8,263.1 94.8,261.3 96.5,261.3 
			98.3,261.3 100.1,261.3 101.8,261.3 103.6,261.3 105.3,261.3 105.3,259.6 107.1,259.6 108.8,259.6 110.6,259.6 112.4,259.6 
			112.4,257.8 114.1,257.8 115.9,257.8 115.9,256.1 117.6,256.1 119.4,256.1 119.4,254.3 121.2,254.3 121.2,249 122.9,249 
			122.9,240.2 		"/>
		<g>
			<rect x="216.1" y="236.7" class="st1" width="1.8" height="1.8"/>
			<polygon class="st1" points="214.3,235 212.6,235 210.8,235 210.8,233.2 209,233.2 207.3,233.2 205.5,233.2 203.8,233.2 
				202,233.2 200.3,233.2 200.3,231.5 198.5,231.5 196.7,231.5 196.7,233.2 195,233.2 193.2,233.2 191.5,233.2 189.7,233.2 
				187.9,233.2 186.2,233.2 184.4,233.2 182.7,233.2 180.9,233.2 179.2,233.2 179.2,235 177.4,235 175.6,235 173.9,235 173.9,236.7 
				172.1,236.7 170.4,236.7 170.4,238.5 168.6,238.5 166.9,238.5 166.9,240.2 165.1,240.2 163.3,240.2 163.3,242 161.6,242 
				161.6,243.8 158.1,243.8 158.1,245.5 156.3,245.5 156.3,249 154.5,249 154.5,257.8 152.8,257.8 152.8,264.8 154.5,264.8 
				154.5,268.4 156.3,268.4 156.3,270.1 158.1,270.1 158.1,273.6 161.6,273.6 161.6,275.4 163.3,275.4 163.3,273.6 165.1,273.6 
				166.9,273.6 168.6,273.6 170.4,273.6 172.1,273.6 173.9,273.6 173.9,275.4 175.6,275.4 177.4,275.4 179.2,275.4 180.9,275.4 
				182.7,275.4 184.4,275.4 184.4,273.6 186.2,273.6 187.9,273.6 189.7,273.6 189.7,270.1 191.5,270.1 191.5,268.4 193.2,268.4 
				193.2,266.6 195,266.6 195,263.1 196.7,263.1 196.7,261.3 198.5,261.3 198.5,257.8 200.3,257.8 200.3,252.5 202,252.5 202,249 
				203.8,249 203.8,247.3 203.8,245.5 203.8,243.8 205.5,243.8 205.5,240.2 207.3,240.2 207.3,238.5 207.3,236.7 209,236.7 
				210.8,236.7 212.6,236.7 214.3,236.7 216.1,236.7 216.1,235 			"/>
		</g>
		<g>
			<rect x="126.4" y="175.2" class="st1" width="1.8" height="1.8"/>
			<polygon class="st1" points="154.5,192.8 154.5,191 152.8,191 152.8,189.3 151,189.3 149.3,189.3 149.3,187.5 147.5,187.5 
				147.5,185.7 145.8,185.7 145.8,184 144,184 142.2,184 140.5,184 140.5,182.2 138.7,182.2 137,182.2 137,180.5 135.2,180.5 
				133.5,180.5 133.5,178.7 131.7,178.7 131.7,177 128.2,177 128.2,178.7 129.9,178.7 129.9,180.5 131.7,180.5 131.7,182.2 
				133.5,182.2 133.5,194.5 135.2,194.5 135.2,198.1 137,198.1 137,201.6 138.7,201.6 138.7,205.1 140.5,205.1 140.5,206.8 
				142.2,206.8 142.2,208.6 144,208.6 144,210.4 145.8,210.4 147.5,210.4 149.3,210.4 151,210.4 152.8,210.4 154.5,210.4 
				154.5,208.6 156.3,208.6 156.3,192.8 			"/>
		</g>
		<g>
			<rect x="203.8" y="205.1" class="st1" width="1.8" height="1.8"/>
			<polygon class="st1" points="202,203.3 202,201.6 200.3,201.6 200.3,199.8 198.5,199.8 198.5,198.1 196.7,198.1 195,198.1 
				195,196.3 193.2,196.3 193.2,194.5 191.5,194.5 191.5,192.8 189.7,192.8 189.7,191 187.9,191 186.2,191 186.2,189.3 184.4,189.3 
				175.6,189.3 175.6,191 173.9,191 172.1,191 170.4,191 170.4,192.8 168.6,192.8 168.6,194.5 166.9,194.5 166.9,198.1 165.1,198.1 
				165.1,201.6 163.3,201.6 163.3,210.4 165.1,210.4 166.9,210.4 166.9,212.1 168.6,212.1 170.4,212.1 170.4,213.9 172.1,213.9 
				173.9,213.9 184.4,213.9 184.4,212.1 186.2,212.1 187.9,212.1 187.9,210.4 189.7,210.4 191.5,210.4 191.5,208.6 193.2,208.6 
				195,208.6 195,206.8 196.7,206.8 198.5,206.8 198.5,205.1 200.3,205.1 202,205.1 203.8,205.1 203.8,203.3 			"/>
		</g>
		<g>
			<polygon class="st2" points="161.6,270.1 161.6,271.9 163.3,271.9 163.3,270.1 163.3,268.4 161.6,268.4 			"/>
			<rect x="163.3" y="266.6" class="st2" width="1.8" height="1.8"/>
			<polygon class="st2" points="165.1,264.8 165.1,266.6 166.9,266.6 166.9,264.8 166.9,263.1 165.1,263.1 			"/>
			<rect x="166.9" y="261.3" class="st2" width="1.8" height="1.8"/>
			<rect x="168.6" y="259.6" class="st2" width="1.8" height="1.8"/>
			<rect x="170.4" y="257.8" class="st2" width="1.8" height="1.8"/>
			<rect x="172.1" y="256.1" class="st2" width="1.8" height="1.8"/>
			<rect x="173.9" y="254.3" class="st2" width="1.8" height="1.8"/>
			<rect x="175.6" y="252.5" class="st2" width="1.8" height="1.8"/>
			<rect x="177.4" y="250.8" class="st2" width="1.8" height="1.8"/>
			<rect x="179.2" y="249" class="st2" width="1.8" height="1.8"/>
			<rect x="180.9" y="247.3" class="st2" width="1.8" height="1.8"/>
			<rect x="135.2" y="287.7" class="st2" width="1.8" height="1.8"/>
			<rect x="137" y="285.9" class="st2" width="1.8" height="1.8"/>
			<rect x="138.7" y="284.2" class="st2" width="1.8" height="1.8"/>
			<polygon class="st2" points="140.5,282.4 140.5,284.2 142.2,284.2 144,284.2 144,282.4 142.2,282.4 			"/>
			<rect x="165.1" y="205.1" class="st2" width="1.8" height="1.8"/>
			<rect x="166.9" y="203.3" class="st2" width="1.8" height="1.8"/>
			<rect x="168.6" y="201.6" class="st2" width="1.8" height="1.8"/>
			<rect x="145.8" y="90.8" class="st2" width="1.8" height="1.8"/>
			<polygon class="st2" points="172.1,317.6 170.4,317.6 170.4,314.1 168.6,314.1 168.6,310.5 166.9,310.5 166.9,308.8 165.1,308.8 
				165.1,303.5 163.3,303.5 163.3,301.8 161.6,301.8 161.6,294.7 159.8,294.7 159.8,293 159.8,277.2 161.6,277.2 161.6,273.6 
				159.8,273.6 159.8,233.2 159.8,227.9 159.8,213.9 159.8,212.1 161.6,212.1 161.6,210.4 163.3,210.4 163.3,208.6 165.1,208.6 
				165.1,206.8 163.3,206.8 161.6,206.8 161.6,208.6 159.8,208.6 158.1,208.6 158.1,201.6 158.1,175.2 158.1,173.4 159.8,173.4 
				159.8,169.9 161.6,169.9 161.6,168.2 163.3,168.2 166.9,168.2 166.9,166.4 168.6,166.4 168.6,164.7 170.4,164.7 170.4,162.9 
				170.4,161.1 170.4,159.4 170.4,154.1 170.4,152.4 172.1,152.4 172.1,147.1 170.4,147.1 170.4,148.8 168.6,148.8 168.6,147.1 
				168.6,143.6 170.4,143.6 170.4,141.8 170.4,140 168.6,140 168.6,141.8 166.9,141.8 166.9,138.3 168.6,138.3 168.6,133 166.9,133 
				166.9,131.3 165.1,131.3 165.1,129.5 166.9,129.5 166.9,127.7 168.6,127.7 168.6,126 168.6,124.2 168.6,120.7 166.9,120.7 
				166.9,122.5 165.1,122.5 165.1,119 166.9,119 166.9,117.2 168.6,117.2 168.6,111.9 166.9,111.9 166.9,108.4 165.1,108.4 
				165.1,110.2 163.3,110.2 163.3,108.4 163.3,106.6 165.1,106.6 165.1,104.9 166.9,104.9 166.9,97.9 165.1,97.9 165.1,99.6 
				163.3,99.6 163.3,96.1 161.6,96.1 161.6,94.3 163.3,94.3 163.3,92.6 165.1,92.6 165.1,90.8 165.1,85.6 163.3,85.6 163.3,80.3 
				161.6,80.3 161.6,76.8 159.8,76.8 159.8,71.5 158.1,71.5 158.1,69.7 156.3,69.7 156.3,71.5 154.5,71.5 154.5,75 152.8,75 
				152.8,80.3 151,80.3 151,85.6 149.3,85.6 149.3,83.8 147.5,83.8 147.5,89.1 149.3,89.1 149.3,92.6 147.5,92.6 147.5,96.1 
				147.5,97.9 149.3,97.9 149.3,99.6 147.5,99.6 145.8,99.6 145.8,103.1 147.5,103.1 147.5,104.9 145.8,104.9 145.8,106.6 
				147.5,106.6 147.5,110.2 145.8,110.2 145.8,111.9 145.8,113.7 147.5,113.7 147.5,117.2 149.3,117.2 149.3,119 149.3,120.7 
				147.5,120.7 147.5,122.5 147.5,124.2 149.3,124.2 149.3,126 147.5,126 147.5,127.7 147.5,129.5 149.3,129.5 149.3,133 147.5,133 
				145.8,133 144,133 144,138.3 145.8,138.3 145.8,140 147.5,140 147.5,141.8 145.8,141.8 144,141.8 144,145.3 144,147.1 
				145.8,147.1 145.8,148.8 144,148.8 144,154.1 144,157.6 145.8,157.6 145.8,162.9 147.5,162.9 147.5,164.7 147.5,166.4 
				149.3,166.4 149.3,168.2 154.5,168.2 154.5,169.9 156.3,169.9 156.3,173.4 156.3,175.2 156.3,201.6 156.3,206.8 154.5,206.8 
				154.5,208.6 154.5,212.1 154.5,213.9 156.3,213.9 156.3,215.6 156.3,227.9 156.3,233.2 156.3,278.9 154.5,278.9 152.8,278.9 
				152.8,277.2 149.3,277.2 149.3,275.4 147.5,275.4 147.5,273.6 145.8,273.6 145.8,271.9 144,271.9 144,270.1 142.2,270.1 
				142.2,268.4 140.5,268.4 140.5,264.8 138.7,264.8 138.7,263.1 137,263.1 137,261.3 135.2,261.3 135.2,259.6 133.5,259.6 
				133.5,263.1 135.2,263.1 135.2,264.8 137,264.8 137,266.6 137,268.4 138.7,268.4 138.7,270.1 140.5,270.1 140.5,271.9 
				142.2,271.9 142.2,273.6 144,273.6 144,275.4 145.8,275.4 145.8,277.2 147.5,277.2 147.5,278.9 149.3,278.9 149.3,280.7 
				144,280.7 144,282.4 149.3,282.4 151,282.4 154.5,282.4 154.5,284.2 156.3,284.2 156.3,293 156.3,300 158.1,300 158.1,305.3 
				159.8,305.3 159.8,308.8 161.6,308.8 161.6,312.3 163.3,312.3 163.3,315.8 165.1,315.8 165.1,319.3 166.9,319.3 166.9,321.1 
				168.6,321.1 168.6,322.9 170.4,322.9 172.1,322.9 173.9,322.9 173.9,321.1 173.9,319.3 172.1,319.3 			"/>
			<rect x="98.3" y="206.8" class="st2" width="1.8" height="1.8"/>
			<polygon class="st2" points="115.9,217.4 117.6,217.4 117.6,215.6 121.2,215.6 121.2,203.3 121.2,199.8 121.2,192.8 121.2,189.3 
				119.4,189.3 117.6,189.3 117.6,185.7 119.4,185.7 119.4,182.2 117.6,182.2 117.6,184 115.9,184 115.9,177 114.1,177 114.1,171.7 
				112.4,171.7 112.4,168.2 112.4,166.4 110.6,166.4 110.6,168.2 108.8,168.2 108.8,164.7 107.1,164.7 107.1,166.4 105.3,166.4 
				105.3,168.2 105.3,169.9 103.6,169.9 103.6,173.4 101.8,173.4 101.8,178.7 103.6,178.7 103.6,180.5 101.8,180.5 101.8,185.7 
				101.8,187.5 100.1,187.5 100.1,192.8 98.3,192.8 98.3,194.5 100.1,194.5 100.1,196.3 100.1,199.8 100.1,203.3 101.8,203.3 
				103.6,203.3 103.6,205.1 101.8,205.1 101.8,208.6 100.1,208.6 100.1,210.4 101.8,210.4 101.8,212.1 100.1,212.1 100.1,213.9 
				101.8,213.9 101.8,213.9 107.1,213.9 107.1,215.6 108.8,215.6 108.8,217.4 112.4,217.4 112.4,219.1 114.1,219.1 114.1,220.9 
				115.9,220.9 115.9,219.1 			"/>
			<rect x="131.7" y="256.1" class="st2" width="1.8" height="3.5"/>
			<polygon class="st2" points="128.2,245.5 126.4,245.5 126.4,242 124.7,242 124.7,238.5 122.9,238.5 122.9,233.2 121.2,233.2 
				121.2,229.7 119.4,229.7 119.4,226.2 119.4,224.4 117.6,224.4 117.6,220.9 115.9,220.9 115.9,224.4 115.9,226.2 117.6,226.2 
				117.6,231.5 119.4,231.5 119.4,236.7 121.2,236.7 121.2,238.5 121.2,240.2 122.9,240.2 122.9,242 122.9,243.8 121.2,243.8 
				121.2,245.5 122.9,245.5 124.7,245.5 124.7,247.3 126.4,247.3 126.4,249 126.4,250.8 128.2,250.8 128.2,249 			"/>
			<polygon class="st2" points="129.9,252.5 129.9,250.8 128.2,250.8 128.2,254.3 129.9,254.3 129.9,256.1 131.7,256.1 131.7,252.5 
							"/>
			<polygon class="st2" points="119.4,242 117.6,242 110.6,242 108.8,242 107.1,242 105.3,242 103.6,242 103.6,243.8 105.3,243.8 
				107.1,243.8 108.8,243.8 110.6,243.8 117.6,243.8 119.4,243.8 121.2,243.8 121.2,242 			"/>
			<rect x="100.1" y="245.5" class="st2" width="1.8" height="1.8"/>
			<rect x="98.3" y="247.3" class="st2" width="1.8" height="1.8"/>
			<rect x="96.5" y="249" class="st2" width="1.8" height="1.8"/>
			<rect x="94.8" y="250.8" class="st2" width="1.8" height="1.8"/>
			<rect x="93" y="252.5" class="st2" width="1.8" height="1.8"/>
			<rect x="101.8" y="243.8" class="st2" width="1.8" height="1.8"/>
		</g>
		<polygon class="st2" points="154.5,198.1 154.5,196.3 152.8,196.3 151,196.3 149.3,196.3 149.3,194.5 147.5,194.5 145.8,194.5 
			145.8,196.3 147.5,196.3 147.5,198.1 149.3,198.1 149.3,199.8 151,199.8 151,201.6 152.8,201.6 154.5,201.6 154.5,203.3 
			156.3,203.3 156.3,201.6 156.3,199.8 156.3,198.1 		"/>
		<g>
			<rect x="170.4" y="189.3" class="st2" width="1.8" height="1.8"/>
			<rect x="168.6" y="191" class="st2" width="1.8" height="1.8"/>
			<polygon class="st2" points="165.1,192.8 165.1,194.5 163.3,194.5 161.6,194.5 161.6,196.3 159.8,196.3 159.8,198.1 158.1,198.1 
				158.1,205.1 159.8,205.1 159.8,203.3 161.6,203.3 161.6,201.6 163.3,201.6 163.3,199.8 165.1,199.8 165.1,198.1 166.9,198.1 
				166.9,194.5 168.6,194.5 168.6,192.8 166.9,192.8 			"/>
		</g>
		<rect x="158.1" y="103.1" class="st1" width="1.8" height="3.5"/>
		<rect x="158.1" y="92.6" class="st1" width="1.8" height="7"/>
		<rect x="159.8" y="83.8" class="st1" width="1.8" height="3.5"/>
		<rect x="156.3" y="82" class="st1" width="1.8" height="1.8"/>
		<rect x="159.8" y="108.4" class="st1" width="3.5" height="8.8"/>
		<rect x="159.8" y="103.1" class="st1" width="1.8" height="1.8"/>
		<rect x="161.6" y="131.3" class="st1" width="3.5" height="8.8"/>
		<rect x="159.8" y="133" class="st1" width="3.5" height="3.5"/>
		<rect x="156.3" y="150.6" class="st1" width="1.8" height="5.3"/>
		<rect x="151" y="140" class="st1" width="1.8" height="3.5"/>
		<rect x="152.8" y="131.3" class="st1" width="1.8" height="3.5"/>
		<rect x="166.9" y="148.8" class="st1" width="3.5" height="5.3"/>
		<rect x="161.6" y="147.1" class="st1" width="3.5" height="7"/>
		<rect x="154.5" y="115.4" class="st3" width="1.8" height="12.3"/>
		<rect x="159.8" y="120.7" class="st1" width="5.3" height="10.5"/>
		<rect x="158.1" y="99.6" class="st1" width="1.8" height="5.3"/>
		<rect x="158.1" y="87.3" class="st1" width="1.8" height="7"/>
		<rect x="156.3" y="71.5" class="st4" width="1.8" height="3.5"/>
		<rect x="149.3" y="92.6" class="st4" width="1.8" height="3.5"/>
		<rect x="147.5" y="85.6" class="st4" width="1.8" height="1.8"/>
		<rect x="151" y="80.3" class="st4" width="1.8" height="3.5"/>
		<rect x="154.5" y="78.5" class="st4" width="1.8" height="1.8"/>
		<rect x="158.1" y="76.8" class="st4" width="1.8" height="3.5"/>
		<rect x="147.5" y="104.9" class="st4" width="1.8" height="3.5"/>
		<rect x="147.5" y="101.4" class="st4" width="1.8" height="1.8"/>
		<rect x="151" y="97.9" class="st4" width="1.8" height="3.5"/>
		<rect x="152.8" y="136.5" class="st4" width="1.8" height="3.5"/>
		<rect x="147.5" y="126" class="st4" width="1.8" height="1.8"/>
		<rect x="149.3" y="127.7" class="st4" width="1.8" height="1.8"/>
		<rect x="147.5" y="111.9" class="st4" width="1.8" height="3.5"/>
		<rect x="163.3" y="110.2" class="st4" width="1.8" height="1.8"/>
		<rect x="161.6" y="96.1" class="st4" width="1.8" height="3.5"/>
		<rect x="163.3" y="85.6" class="st4" width="1.8" height="3.5"/>
		<rect x="154.5" y="141.8" class="st4" width="1.8" height="5.3"/>
		<rect x="159.8" y="155.9" class="st4" width="1.8" height="3.5"/>
		<rect x="156.3" y="113.7" class="st1" width="1.8" height="14.1"/>
		<g>
			<polygon class="st5" points="163.3,127.7 161.6,127.7 161.6,126 163.3,126 163.3,124.2 163.3,122.5 161.6,122.5 161.6,120.7 
				159.8,120.7 159.8,122.5 158.1,122.5 158.1,124.2 158.1,126 159.8,126 159.8,127.7 158.1,127.7 156.3,127.7 156.3,129.5 
				158.1,129.5 158.1,133 159.8,133 159.8,134.8 161.6,134.8 161.6,133 163.3,133 163.3,129.5 165.1,129.5 165.1,127.7 			"/>
			<polygon class="st5" points="156.3,120.7 156.3,119 154.5,119 154.5,117.2 156.3,117.2 156.3,115.4 156.3,111.9 154.5,111.9 
				154.5,110.2 152.8,110.2 152.8,111.9 151,111.9 151,113.7 151,117.2 152.8,117.2 152.8,119 149.3,119 149.3,120.7 147.5,120.7 
				147.5,122.5 149.3,122.5 149.3,124.2 151,124.2 151,126 154.5,126 154.5,124.2 156.3,124.2 156.3,122.5 158.1,122.5 158.1,120.7 
							"/>
			<polygon class="st6" points="152.8,115.4 152.8,119 151,119 151,120.7 152.8,120.7 152.8,122.5 154.5,122.5 154.5,120.7 
				154.5,119 154.5,115.4 			"/>
			<rect x="152.8" y="117.2" class="st7" width="1.8" height="1.8"/>
			<polygon class="st6" points="161.6,126 161.6,124.2 159.8,124.2 159.8,126 159.8,126 159.8,127.7 159.8,127.7 159.8,131.3 
				161.6,131.3 161.6,127.7 161.6,127.7 161.6,126 			"/>
			<rect x="159.8" y="126" class="st7" width="1.8" height="1.8"/>
			<rect x="170.4" y="126" class="st5" width="1.8" height="7"/>
			<rect x="168.6" y="129.5" class="st5" width="1.8" height="3.5"/>
			<rect x="166.9" y="131.3" class="st5" width="1.8" height="3.5"/>
			<rect x="168.6" y="134.8" class="st5" width="1.8" height="5.3"/>
			<rect x="168.6" y="133" class="st5" width="1.8" height="1.8"/>
			<rect x="170.4" y="133" class="st5" width="1.8" height="7"/>
			<rect x="172.1" y="134.8" class="st5" width="1.8" height="5.3"/>
			<rect x="172.1" y="126" class="st5" width="1.8" height="5.3"/>
			<rect x="170.4" y="131.3" class="st6" width="1.8" height="3.5"/>
			<rect x="168.6" y="133" class="st6" width="1.8" height="1.8"/>
			<polygon class="st5" points="168.6,155.9 168.6,154.1 168.6,150.6 166.9,150.6 166.9,148.8 165.1,148.8 165.1,150.6 163.3,150.6 
				163.3,154.1 165.1,154.1 165.1,155.9 163.3,155.9 163.3,159.4 165.1,159.4 165.1,161.1 166.9,161.1 166.9,162.9 168.6,162.9 
				168.6,161.1 170.4,161.1 170.4,155.9 			"/>
			<polygon class="st5" points="156.3,155.9 156.3,154.1 156.3,150.6 156.3,148.8 154.5,148.8 152.8,148.8 152.8,150.6 151,150.6 
				151,154.1 152.8,154.1 152.8,155.9 149.3,155.9 149.3,159.4 151,159.4 151,161.1 152.8,161.1 152.8,162.9 154.5,162.9 
				154.5,161.1 156.3,161.1 156.3,159.4 158.1,159.4 158.1,155.9 			"/>
			<polygon class="st6" points="165.1,152.4 165.1,155.9 166.9,155.9 166.9,157.6 168.6,157.6 168.6,152.4 			"/>
			<rect x="166.9" y="154.1" class="st7" width="1.8" height="1.8"/>
			<polygon class="st6" points="156.3,154.1 154.5,154.1 154.5,152.4 152.8,152.4 152.8,154.1 152.8,155.9 152.8,157.6 154.5,157.6 
				154.5,155.9 156.3,155.9 			"/>
			<rect x="152.8" y="154.1" class="st7" width="1.8" height="1.8"/>
			<polygon class="st5" points="147.5,145.3 147.5,143.6 145.8,143.6 145.8,141.8 144,141.8 144,143.6 142.2,143.6 142.2,147.1 
				144,147.1 144,148.8 145.8,148.8 145.8,150.6 144,150.6 144,152.4 142.2,152.4 142.2,154.1 144,154.1 144,155.9 145.8,155.9 
				147.5,155.9 149.3,155.9 149.3,154.1 149.3,152.4 149.3,150.6 149.3,147.1 149.3,145.3 			"/>
			<polygon class="st5" points="151,162.9 151,161.1 149.3,161.1 149.3,161.1 149.3,159.4 147.5,159.4 147.5,157.6 145.8,157.6 
				144,157.6 144,159.4 144,161.1 145.8,161.1 147.5,161.1 147.5,161.1 145.8,161.1 145.8,164.7 147.5,164.7 147.5,166.4 
				149.3,166.4 151,166.4 152.8,166.4 152.8,162.9 			"/>
			<rect x="147.5" y="161.1" class="st6" width="1.8" height="3.5"/>
			<rect x="147.5" y="161.1" class="st7" width="1.8" height="1.8"/>
			<rect x="145.8" y="161.1" class="st6" width="1.8" height="1.8"/>
			<polygon class="st6" points="149.3,148.8 147.5,148.8 147.5,147.1 145.8,147.1 145.8,148.8 145.8,150.6 145.8,152.4 147.5,152.4 
				147.5,150.6 149.3,150.6 			"/>
			<rect x="145.8" y="148.8" class="st7" width="1.8" height="1.8"/>
		</g>
		<rect x="158.1" y="126" class="st3" width="1.8" height="1.8"/>
		<rect x="159.8" y="117.2" class="st3" width="1.8" height="3.5"/>
		<rect x="158.1" y="106.6" class="st4" width="1.8" height="5.3"/>
		<rect x="158.1" y="92.6" class="st3" width="1.8" height="5.3"/>
		<rect x="159.8" y="82" class="st3" width="1.8" height="5.3"/>
		<rect x="161.6" y="80.3" class="st1" width="1.8" height="4.9"/>
		<rect x="154.5" y="92.6" class="st4" width="1.8" height="3.5"/>
		<rect x="152.8" y="87.3" class="st4" width="1.8" height="1.8"/>
		<rect x="144" y="133" class="st4" width="1.8" height="1.8"/>
		<rect x="145.8" y="134.8" class="st4" width="1.8" height="1.8"/>
		<rect x="144" y="155.9" class="st3" width="5.3" height="1.8"/>
		<rect x="161.6" y="159.4" class="st3" width="3.5" height="3.5"/>
		<rect x="168.6" y="150.6" class="st3" width="1.8" height="5.3"/>
		<rect x="159.8" y="154.1" class="st3" width="5.3" height="1.8"/>
		<rect x="161.6" y="150.6" class="st3" width="1.8" height="3.5"/>
		<rect x="161.6" y="155.9" class="st3" width="1.8" height="1.8"/>
		<rect x="156.3" y="154.1" class="st3" width="1.8" height="1.8"/>
		<rect x="149.3" y="150.6" class="st3" width="1.8" height="5.3"/>
		<rect x="165.1" y="161.1" class="st3" width="1.8" height="3.5"/>
		<rect x="168.6" y="161.1" class="st4" width="1.8" height="1.8"/>
		<rect x="158.1" y="154.1" class="st1" width="1.8" height="10.5"/>
		<rect x="147.5" y="157.6" class="st1" width="1.8" height="1.8"/>
		<rect x="149.3" y="159.4" class="st1" width="1.8" height="1.8"/>
		<rect x="151" y="161.1" class="st1" width="1.8" height="1.8"/>
		<rect x="151" y="154.1" class="st1" width="1.8" height="1.8"/>
		<rect x="152.8" y="162.9" class="st1" width="1.8" height="3.5"/>
		<rect x="156.3" y="159.4" class="st1" width="1.8" height="3.5"/>
		<rect x="154.5" y="161.1" class="st1" width="3.5" height="7"/>
		<rect x="158.1" y="164.7" class="st1" width="1.8" height="5.3"/>
		<rect x="149.3" y="159.4" class="st3" width="1.8" height="1.8"/>
		<rect x="154.5" y="161.1" class="st3" width="1.8" height="3.5"/>
		<rect x="152.8" y="162.9" class="st3" width="3.5" height="1.8"/>
		<rect x="154.5" y="164.7" class="st3" width="1.8" height="3.5"/>
		<rect x="166.9" y="120.7" class="st4" width="1.8" height="3.5"/>
		<rect x="165.1" y="108.4" class="st4" width="1.8" height="1.8"/>
		<rect x="152.8" y="104.9" class="st4" width="1.8" height="3.5"/>
		<rect x="165.1" y="97.9" class="st4" width="1.8" height="1.8"/>
		<rect x="168.6" y="140" class="st4" width="1.8" height="1.8"/>
		<rect x="165.1" y="131.3" class="st4" width="1.8" height="1.8"/>
		<rect x="170.4" y="147.1" class="st4" width="1.8" height="3.5"/>
		<rect x="149.3" y="143.6" class="st4" width="1.8" height="1.8"/>
		<rect x="161.6" y="138.3" class="st3" width="1.8" height="5.3"/>
		<rect x="158.1" y="134.8" class="st3" width="1.8" height="3.5"/>
		<rect x="159.8" y="147.1" class="st3" width="1.8" height="1.8"/>
		<rect x="156.3" y="143.6" class="st1" width="1.8" height="5.3"/>
		<rect x="147.5" y="138.3" class="st1" width="1.8" height="1.8"/>
		<rect x="151" y="129.5" class="st1" width="1.8" height="1.8"/>
		<rect x="149.3" y="108.4" class="st1" width="1.8" height="1.8"/>
		<rect x="151" y="110.2" class="st1" width="1.8" height="1.8"/>
		<rect x="149.3" y="103.1" class="st1" width="1.8" height="1.8"/>
		<rect x="154.5" y="96.1" class="st1" width="1.8" height="1.8"/>
		<rect x="156.3" y="97.9" class="st1" width="1.8" height="1.8"/>
		<rect x="154.5" y="89.1" class="st1" width="1.8" height="1.8"/>
		<rect x="156.3" y="90.8" class="st1" width="1.8" height="1.8"/>
		<rect x="149.3" y="87.3" class="st1" width="1.8" height="1.8"/>
		<rect x="151" y="96.1" class="st1" width="1.8" height="1.8"/>
		<rect x="152.8" y="101.4" class="st1" width="1.8" height="1.8"/>
		<rect x="156.3" y="75" class="st1" width="1.8" height="1.8"/>
		<rect x="156.3" y="80.3" class="st1" width="1.8" height="1.8"/>
		<rect x="161.6" y="89.1" class="st1" width="1.8" height="1.8"/>
		<rect x="163.3" y="101.4" class="st1" width="1.8" height="3.5"/>
		<rect x="161.6" y="104.9" class="st3" width="3.5" height="1.8"/>
		<rect x="163.3" y="117.2" class="st3" width="3.5" height="1.8"/>
		<rect x="165.1" y="127.7" class="st3" width="1.8" height="1.8"/>
		<rect x="163.3" y="133" class="st3" width="1.8" height="1.8"/>
		<rect x="163.3" y="124.2" class="st3" width="1.8" height="3.5"/>
		<rect x="165.1" y="141.8" class="st4" width="1.8" height="3.5"/>
		<rect x="158.1" y="140" class="st4" width="1.8" height="1.8"/>
		<rect x="154.5" y="127.7" class="st4" width="1.8" height="1.8"/>
		<rect x="156.3" y="103.1" class="st4" width="1.8" height="1.8"/>
		<rect x="154.5" y="71.5" class="st4" width="1.8" height="1.8"/>
		<rect x="158.1" y="69.7" class="st4" width="1.8" height="1.8"/>
		<rect x="149.3" y="133" class="st4" width="1.8" height="1.8"/>
		<rect x="159.8" y="161.1" class="st4" width="1.8" height="1.8"/>
		<rect x="158.1" y="164.7" class="st4" width="3.5" height="1.8"/>
		<rect x="158.1" y="166.4" class="st3" width="1.8" height="5.3"/>
		<rect x="156.3" y="159.4" class="st3" width="1.8" height="3.5"/>
		<rect x="154.5" y="106.6" class="st1" width="1.8" height="5.3"/>
		<rect x="147.5" y="90.8" class="st4" width="1.8" height="1.8"/>
		<rect x="161.6" y="113.7" class="st2" width="3.5" height="1.8"/>
		<rect x="165.1" y="115.4" class="st1" width="1.8" height="1.8"/>
		<rect x="159.8" y="110.2" class="st3" width="1.8" height="1.8"/>
		<g>
			<rect x="170.4" y="189.3" class="st4" width="1.8" height="1.8"/>
			<rect x="168.6" y="191" class="st4" width="1.8" height="1.8"/>
			<rect x="166.9" y="192.8" class="st4" width="1.8" height="1.8"/>
		</g>
		<polygon class="st4" points="149.3,196.3 149.3,194.5 147.5,194.5 145.8,194.5 145.8,196.3 147.5,196.3 147.5,198.1 149.3,198.1 
			151,198.1 151,196.3 		"/>
		<rect x="145.8" y="208.6" class="st3" width="8.8" height="1.8"/>
		<rect x="151" y="205.1" class="st3" width="3.5" height="3.5"/>
		<rect x="145.8" y="203.3" class="st3" width="1.8" height="1.8"/>
		<rect x="152.8" y="203.3" class="st3" width="1.8" height="1.8"/>
		<rect x="140.5" y="201.6" class="st3" width="1.8" height="1.8"/>
		<rect x="142.2" y="198.1" class="st3" width="1.8" height="1.8"/>
		<rect x="149.3" y="203.3" class="st3" width="1.8" height="1.8"/>
		<rect x="147.5" y="201.6" class="st3" width="1.8" height="1.8"/>
		<rect x="144" y="206.8" class="st3" width="1.8" height="1.8"/>
		<rect x="151" y="192.8" class="st3" width="1.8" height="1.8"/>
		<rect x="163.3" y="208.6" class="st3" width="3.5" height="1.8"/>
		<rect x="166.9" y="206.8" class="st3" width="1.8" height="1.8"/>
		<rect x="165.1" y="203.3" class="st3" width="1.8" height="1.8"/>
		<rect x="179.2" y="201.6" class="st3" width="1.8" height="1.8"/>
		<rect x="186.2" y="203.3" class="st3" width="1.8" height="1.8"/>
		<rect x="170.4" y="199.8" class="st2" width="1.8" height="1.8"/>
		<rect x="172.1" y="198.1" class="st2" width="1.8" height="1.8"/>
		<rect x="172.1" y="198.1" class="st2" width="5.3" height="1.8"/>
		<rect x="179.2" y="212.1" class="st3" width="1.8" height="1.8"/>
		<rect x="166.9" y="208.6" class="st3" width="1.8" height="3.5"/>
		<rect x="165.1" y="206.8" class="st3" width="5.3" height="1.8"/>
		<rect x="163.3" y="203.3" class="st3" width="1.8" height="3.5"/>
		<rect x="168.6" y="210.4" class="st3" width="3.5" height="1.8"/>
		<rect x="170.4" y="210.4" class="st3" width="1.8" height="3.5"/>
		<rect x="175.6" y="210.4" class="st3" width="1.8" height="1.8"/>
		<rect x="172.1" y="212.1" class="st3" width="3.5" height="1.8"/>
		<rect x="182.7" y="192.8" class="st3" width="1.8" height="1.8"/>
		<rect x="136.8" y="185.7" class="st4" width="1.8" height="1.8"/>
		<rect x="175.6" y="196.3" class="st4" width="7" height="1.8"/>
		<rect x="140.5" y="189.3" class="st4" width="1.8" height="1.8"/>
		<rect x="159.8" y="266.6" class="st3" width="1.8" height="7"/>
		<rect x="161.6" y="271.9" class="st3" width="1.8" height="3.5"/>
		<rect x="163.3" y="271.9" class="st3" width="10.5" height="1.8"/>
		<rect x="163.3" y="273.6" class="st3" width="17.6" height="1.8"/>
		<rect x="165.1" y="275.4" class="st3" width="12.3" height="1.8"/>
		<rect x="182.7" y="261.3" class="st3" width="1.8" height="1.8"/>
		<rect x="165.1" y="249" class="st3" width="1.8" height="1.8"/>
		<rect x="177.4" y="264.8" class="st3" width="1.8" height="3.5"/>
		<rect x="180.9" y="270.1" class="st3" width="1.8" height="3.5"/>
		<rect x="184.4" y="271.9" class="st3" width="3.5" height="1.8"/>
		<rect x="186.2" y="266.6" class="st3" width="1.8" height="1.8"/>
		<rect x="195" y="242" class="st3" width="1.8" height="1.8"/>
		<rect x="193.2" y="250.8" class="st3" width="1.8" height="1.8"/>
		<rect x="190.5" y="260.6" class="st3" width="1.8" height="1.8"/>
		<rect x="166.9" y="268.4" class="st3" width="5.3" height="1.8"/>
		<rect x="177.4" y="240.2" class="st4" width="3.5" height="1.8"/>
		<rect x="182.7" y="236.7" class="st4" width="5.3" height="1.8"/>
		<rect x="193.2" y="236.7" class="st4" width="1.8" height="1.8"/>
		<rect x="170.4" y="249" class="st4" width="1.8" height="1.8"/>
		<rect x="151" y="282.4" class="st3" width="3.5" height="1.8"/>
		<rect x="154.5" y="284.2" class="st3" width="1.8" height="21.1"/>
		<rect x="152.8" y="307" class="st3" width="1.8" height="1.8"/>
		<rect x="151" y="308.8" class="st3" width="1.8" height="1.8"/>
		<rect x="149.3" y="310.5" class="st3" width="1.8" height="1.8"/>
		<rect x="145.8" y="310.5" class="st3" width="1.8" height="3.5"/>
		<rect x="147.5" y="303.5" class="st3" width="1.8" height="1.8"/>
		<rect x="151" y="303.5" class="st3" width="1.8" height="1.8"/>
		<rect x="149.3" y="307" class="st3" width="1.8" height="1.8"/>
		<rect x="151" y="291.2" class="st3" width="1.8" height="1.8"/>
		<rect x="149.3" y="296.5" class="st3" width="1.8" height="1.8"/>
		<rect x="147.5" y="285.9" class="st3" width="1.8" height="1.8"/>
		<rect x="152.8" y="284.2" class="st3" width="1.8" height="3.5"/>
		<rect x="152.8" y="301.8" class="st3" width="1.8" height="5.3"/>
		<rect x="147.5" y="310.5" class="st3" width="1.8" height="1.8"/>
		<rect x="144" y="314.1" class="st3" width="1.8" height="3.5"/>
		<rect x="142.2" y="308.8" class="st3" width="1.8" height="1.8"/>
		<rect x="142.2" y="298.2" class="st3" width="1.8" height="1.8"/>
		<rect x="137" y="315.8" class="st3" width="1.8" height="1.8"/>
		<rect x="133.5" y="324.6" class="st3" width="1.8" height="1.8"/>
		<rect x="133.5" y="331.6" class="st3" width="1.8" height="3.5"/>
		<rect x="129.9" y="340.4" class="st3" width="1.8" height="1.8"/>
		<rect x="138.7" y="321.1" class="st3" width="1.8" height="1.8"/>
		<rect x="128.2" y="333.4" class="st3" width="1.8" height="1.8"/>
		<rect x="115.9" y="307" class="st4" width="1.8" height="3.5"/>
		<rect x="117.6" y="303.5" class="st4" width="1.8" height="3.5"/>
		<rect x="117.6" y="312.3" class="st4" width="1.8" height="1.8"/>
		<rect x="133.5" y="289.5" class="st2" width="1.8" height="1.8"/>
		<rect x="131.7" y="291.2" class="st2" width="1.8" height="1.8"/>
		<rect x="129.9" y="293" class="st2" width="1.8" height="3.5"/>
		<rect x="128.2" y="296.5" class="st2" width="1.8" height="1.8"/>
		<rect x="126.4" y="298.2" class="st2" width="1.8" height="5.3"/>
		<rect x="121.2" y="245.5" class="st3" width="1.8" height="3.5"/>
		<rect x="119.4" y="249" class="st3" width="1.8" height="5.3"/>
		<rect x="115.9" y="254.3" class="st3" width="3.5" height="1.8"/>
		<rect x="108.8" y="250.8" class="st3" width="1.8" height="1.8"/>
		<rect x="101.8" y="256.1" class="st3" width="1.8" height="1.8"/>
		<rect x="108.8" y="257.8" class="st3" width="3.5" height="1.8"/>
		<rect x="114.1" y="256.1" class="st3" width="1.8" height="1.8"/>
		<rect x="114.1" y="245.5" class="st3" width="1.8" height="1.8"/>
		<rect x="89.5" y="247.3" class="st4" width="1.8" height="1.8"/>
		<rect x="87.8" y="252.5" class="st4" width="1.8" height="1.8"/>
		<rect x="117.6" y="252.5" class="st3" width="1.8" height="3.5"/>
		<rect x="110.6" y="256.1" class="st3" width="3.5" height="1.8"/>
		<rect x="114.1" y="252.5" class="st3" width="1.8" height="1.8"/>
		<rect x="103.6" y="249" class="st3" width="1.8" height="1.8"/>
		<rect x="86" y="254.3" class="st4" width="1.8" height="3.5"/>
		<rect x="149.3" y="134.8" class="st1" width="1.8" height="3.5"/>
		<rect x="149.3" y="129.5" class="st1" width="1.8" height="1.8"/>
		<rect x="149.3" y="115.4" class="st1" width="1.8" height="3.5"/>
		<rect x="151" y="89.1" class="st1" width="1.8" height="3.5"/>
		<rect x="149.3" y="96.1" class="st1" width="3.5" height="1.8"/>
		<rect x="158.1" y="101.4" class="st3" width="1.8" height="3.5"/>
		<rect x="156.3" y="89.1" class="st3" width="1.8" height="1.8"/>
		<rect x="156.3" y="133" class="st3" width="1.8" height="1.8"/>
		<rect x="156.3" y="131.3" class="st1" width="1.8" height="1.8"/>
		<rect x="158.1" y="133" class="st1" width="1.8" height="1.8"/>
		<rect x="165.1" y="126" class="st1" width="1.8" height="1.8"/>
		<rect x="166.9" y="111.9" class="st4" width="1.8" height="1.8"/>
		<rect x="151" y="145.3" class="st4" width="1.8" height="1.8"/>
		<rect x="107.1" y="164.7" class="st4" width="1.8" height="1.8"/>
		<rect x="105.3" y="184" class="st4" width="1.8" height="3.5"/>
		<rect x="105.3" y="177" class="st4" width="1.8" height="3.5"/>
		<rect x="101.8" y="175.2" class="st4" width="1.8" height="1.8"/>
		<rect x="103.6" y="169.9" class="st4" width="1.8" height="1.8"/>
		<rect x="100.1" y="189.3" class="st4" width="1.8" height="3.5"/>
		<rect x="105.3" y="191" class="st4" width="1.8" height="1.8"/>
		<rect x="119.4" y="201.6" class="st4" width="1.8" height="1.8"/>
		<rect x="100.1" y="199.8" class="st4" width="1.8" height="1.8"/>
		<rect x="108.8" y="180.5" class="st4" width="1.8" height="1.8"/>
		<rect x="108.8" y="173.4" class="st4" width="1.8" height="1.8"/>
		<rect x="107.1" y="166.4" class="st4" width="1.8" height="1.8"/>
		<rect x="112.4" y="191" class="st3" width="1.8" height="8.8"/>
		<rect x="114.1" y="189.3" class="st3" width="1.8" height="14.1"/>
		<rect x="115.9" y="194.5" class="st3" width="1.8" height="7"/>
		<rect x="117.6" y="199.8" class="st3" width="1.8" height="1.8"/>
		<rect x="112.4" y="205.1" class="st3" width="1.8" height="3.5"/>
		<rect x="114.1" y="205.1" class="st3" width="1.8" height="5.3"/>
		<rect x="121.2" y="206.8" class="st3" width="1.8" height="5.3"/>
		<rect x="105.3" y="205.1" class="st3" width="3.5" height="1.8"/>
		<rect x="105.3" y="206.8" class="st3" width="3.5" height="1.8"/>
		<rect x="103.6" y="199.8" class="st3" width="1.8" height="5.3"/>
		<rect x="105.3" y="194.5" class="st3" width="1.8" height="7"/>
		<rect x="100.1" y="196.3" class="st3" width="5.3" height="1.8"/>
		<rect x="110.6" y="185.7" class="st3" width="1.8" height="1.8"/>
		<rect x="112.4" y="184" class="st3" width="1.8" height="1.8"/>
		<rect x="108.8" y="177" class="st3" width="1.8" height="1.8"/>
		<rect x="110.6" y="178.7" class="st3" width="1.8" height="1.8"/>
		<rect x="112.4" y="175.2" class="st3" width="1.8" height="3.5"/>
		<rect x="107.1" y="173.4" class="st3" width="1.8" height="3.5"/>
		<rect x="108.8" y="171.7" class="st3" width="1.8" height="1.8"/>
		<rect x="107.1" y="192.8" class="st3" width="1.8" height="1.8"/>
		<rect x="108.8" y="191" class="st3" width="1.8" height="1.8"/>
		<rect x="112.4" y="210.4" class="st3" width="1.8" height="3.5"/>
		<rect x="115.9" y="213.9" class="st3" width="1.8" height="1.8"/>
		<rect x="114.1" y="212.1" class="st3" width="1.8" height="1.8"/>
		<rect x="119.4" y="206.8" class="st3" width="1.8" height="1.8"/>
		<rect x="117.6" y="194.5" class="st1" width="1.8" height="5.3"/>
		<rect x="114.1" y="191" class="st1" width="1.8" height="5.3"/>
		<rect x="105.3" y="192.8" class="st1" width="1.8" height="1.8"/>
		<rect x="107.1" y="191" class="st1" width="1.8" height="1.8"/>
		<rect x="101.8" y="191" class="st1" width="1.8" height="3.5"/>
		<rect x="105.3" y="187.5" class="st1" width="3.5" height="1.8"/>
		<rect x="107.1" y="185.7" class="st1" width="1.8" height="1.8"/>
		<rect x="107.1" y="180.5" class="st1" width="1.8" height="3.5"/>
		<rect x="110.6" y="182.2" class="st1" width="1.8" height="3.5"/>
		<rect x="108.8" y="175.2" class="st1" width="1.8" height="1.8"/>
		<rect x="107.1" y="168.2" class="st1" width="1.8" height="3.5"/>
		<rect x="110.6" y="173.4" class="st1" width="1.8" height="3.5"/>
		<rect x="103.6" y="177" class="st1" width="1.8" height="1.8"/>
		<rect x="103.6" y="171.7" class="st1" width="1.8" height="3.5"/>
		<rect x="114.1" y="205.1" class="st1" width="1.8" height="1.8"/>
		<rect x="114.1" y="198.1" class="st1" width="1.8" height="1.8"/>
		<rect x="105.3" y="198.1" class="st1" width="1.8" height="1.8"/>
		<rect x="101.8" y="199.8" class="st1" width="1.8" height="1.8"/>
		<rect x="103.6" y="203.3" class="st1" width="1.8" height="1.8"/>
		<rect x="105.3" y="205.1" class="st1" width="1.8" height="1.8"/>
		<rect x="115.9" y="208.6" class="st1" width="1.8" height="3.5"/>
		<rect x="117.6" y="206.8" class="st1" width="1.8" height="1.8"/>
		<rect x="119.4" y="203.3" class="st1" width="1.8" height="1.8"/>
		<g>
			<polygon class="st5" points="117.6,220.9 117.6,219.1 115.9,219.1 115.9,217.4 115.9,215.6 114.1,215.6 112.4,215.6 112.4,219.1 
				114.1,219.1 114.1,220.9 112.4,220.9 112.4,224.4 114.1,224.4 115.9,224.4 115.9,226.2 117.6,226.2 119.4,226.2 119.4,222.7 
				119.4,220.9 			"/>
			<polygon class="st6" points="115.9,219.1 115.9,217.4 114.1,217.4 114.1,219.1 114.1,220.9 114.1,222.7 115.9,222.7 115.9,220.9 
				117.6,220.9 117.6,219.1 			"/>
			<polygon class="st5" points="112.4,199.8 112.4,196.3 110.6,196.3 110.6,194.5 108.8,194.5 108.8,196.3 107.1,196.3 107.1,199.8 
				107.1,201.6 105.3,201.6 105.3,203.3 105.3,205.1 108.8,205.1 108.8,206.8 110.6,206.8 112.4,206.8 112.4,205.1 114.1,205.1 
				114.1,203.3 114.1,201.6 114.1,199.8 			"/>
			<polygon class="st5" points="119.4,191 117.6,191 117.6,189.3 119.4,189.3 119.4,184 117.6,184 115.9,184 115.9,187.5 
				114.1,187.5 114.1,191 115.9,191 115.9,194.5 117.6,194.5 117.6,196.3 119.4,196.3 119.4,194.5 121.2,194.5 121.2,191 			"/>
			<rect x="115.9" y="187.5" class="st6" width="1.8" height="5.3"/>
			<rect x="115.9" y="189.3" class="st7" width="1.8" height="1.8"/>
			<polygon class="st6" points="112.4,199.8 110.6,199.8 110.6,198.1 108.8,198.1 108.8,199.8 108.8,201.6 108.8,203.3 110.6,203.3 
				110.6,201.6 112.4,201.6 			"/>
			<rect x="108.8" y="199.8" class="st7" width="1.8" height="1.8"/>
			<polygon class="st5" points="100.1,198.1 100.1,196.3 101.8,196.3 101.8,192.8 98.3,192.8 98.3,194.5 96.5,194.5 96.5,199.8 
				98.3,199.8 98.3,201.6 96.5,201.6 96.5,205.1 98.3,205.1 98.3,206.8 100.1,206.8 100.1,205.1 101.8,205.1 101.8,201.6 
				103.6,201.6 103.6,199.8 103.6,198.1 			"/>
			<polygon class="st6" points="96.5,198.1 96.5,199.8 98.3,199.8 98.3,201.6 100.1,201.6 100.1,199.8 100.1,198.1 			"/>
			<rect x="96.5" y="199.8" class="st7" width="1.8" height="1.8"/>
			<polygon class="st5" points="126.4,210.4 126.4,206.8 124.7,206.8 124.7,205.1 122.9,205.1 122.9,206.8 121.2,206.8 121.2,210.4 
				119.4,210.4 119.4,212.1 119.4,215.6 117.6,215.6 117.6,219.1 119.4,219.1 121.2,219.1 121.2,220.9 122.9,220.9 124.7,220.9 
				124.7,215.6 126.4,215.6 126.4,213.9 126.4,212.1 124.7,212.1 124.7,210.4 			"/>
			<rect x="121.2" y="210.4" class="st6" width="1.8" height="5.3"/>
			<rect x="121.2" y="212.1" class="st6" width="3.5" height="1.8"/>
			<rect x="121.2" y="212.1" class="st7" width="1.8" height="1.8"/>
			<polygon class="st5" points="112.4,208.6 110.6,208.6 108.8,208.6 107.1,208.6 107.1,210.4 107.1,212.1 108.8,212.1 108.8,213.9 
				110.6,213.9 110.6,215.6 112.4,215.6 112.4,212.1 114.1,212.1 114.1,210.4 114.1,208.6 			"/>
			<polygon class="st5" points="108.8,219.1 108.8,215.6 107.1,215.6 107.1,213.9 105.3,213.9 105.3,217.4 105.3,219.1 103.6,219.1 
				103.6,220.9 105.3,220.9 105.3,222.7 107.1,222.7 107.1,224.4 108.8,224.4 110.6,224.4 110.6,219.1 			"/>
			<rect x="114.1" y="219.1" class="st7" width="1.8" height="1.8"/>
			<polygon class="st6" points="110.6,208.6 108.8,208.6 108.8,210.4 110.6,210.4 110.6,212.1 112.4,212.1 112.4,210.4 112.4,208.6 
							"/>
			<rect x="110.6" y="208.6" class="st7" width="1.8" height="1.8"/>
			<polygon class="st6" points="107.1,217.4 107.1,219.1 105.3,219.1 105.3,220.9 107.1,220.9 108.8,220.9 108.8,219.1 108.8,217.4 
							"/>
			<rect x="107.1" y="219.1" class="st7" width="1.8" height="1.8"/>
		</g>
		<rect x="103.6" y="194.5" class="st1" width="1.8" height="5.3"/>
		<rect x="112.4" y="194.5" class="st1" width="1.8" height="1.8"/>
		<rect x="115.9" y="198.1" class="st1" width="1.8" height="5.3"/>
		<rect x="103.6" y="210.4" class="st1" width="3.5" height="3.5"/>
		<rect x="107.1" y="212.1" class="st1" width="1.8" height="3.5"/>
		<rect x="108.8" y="213.9" class="st1" width="1.8" height="3.5"/>
		<rect x="110.6" y="215.6" class="st1" width="1.8" height="1.8"/>
		<rect x="101.8" y="206.8" class="st1" width="1.8" height="1.8"/>
		<rect x="101.8" y="180.5" class="st4" width="1.8" height="3.5"/>
		<rect x="103.6" y="184" class="st1" width="1.8" height="1.8"/>
		<rect x="114.1" y="180.5" class="st1" width="1.8" height="5.3"/>
		<rect x="117.6" y="182.2" class="st4" width="1.8" height="1.8"/>
		<rect x="114.1" y="177" class="st4" width="1.8" height="1.8"/>
		<rect x="110.6" y="166.4" class="st4" width="1.8" height="1.8"/>
		<rect x="112.4" y="171.7" class="st4" width="1.8" height="1.8"/>
		<rect x="108.8" y="168.2" class="st4" width="1.8" height="1.8"/>
		<rect x="110.6" y="189.3" class="st4" width="1.8" height="1.8"/>
		<rect x="98.3" y="206.8" class="st4" width="1.8" height="1.8"/>
		<rect x="100.1" y="212.1" class="st4" width="1.8" height="1.8"/>
		<rect x="115.9" y="206.8" class="st4" width="1.8" height="1.8"/>
		<rect x="121.2" y="205.1" class="st4" width="1.8" height="1.8"/>
		<rect x="119.4" y="187.5" class="st4" width="1.8" height="1.8"/>
		<rect x="119.4" y="194.5" class="st4" width="1.8" height="1.8"/>
		<rect x="115.9" y="198.1" class="st2" width="1.8" height="3.5"/>
		<rect x="114.1" y="196.3" class="st2" width="1.8" height="1.8"/>
		<rect x="112.4" y="192.8" class="st2" width="3.5" height="1.8"/>
		<rect x="101.8" y="196.3" class="st2" width="3.5" height="1.8"/>
		<rect x="107.1" y="187.5" class="st2" width="1.8" height="1.8"/>
		<rect x="110.6" y="175.2" class="st2" width="3.5" height="1.8"/>
		<rect x="110.6" y="215.6" class="st3" width="1.8" height="5.3"/>
		<rect x="115.9" y="215.6" class="st3" width="1.8" height="3.5"/>
		<rect x="107.1" y="212.1" class="st3" width="1.8" height="3.5"/>
		<rect x="103.6" y="210.4" class="st3" width="1.8" height="1.8"/>
		<rect x="112.4" y="213.9" class="st1" width="3.5" height="1.8"/>
		<rect x="114.1" y="210.4" class="st1" width="1.8" height="1.8"/>
		<rect x="108.8" y="217.4" class="st1" width="1.8" height="1.8"/>
		<rect x="112.4" y="219.1" class="st1" width="1.8" height="1.8"/>
		<rect x="103.6" y="213.9" class="st1" width="1.8" height="3.5"/>
	</g>
</g>
<g id="GUIDES">
	<g>
		<path class="st312" d="M47.2,40.2h-2.5V22.5h2.5V25h1.3v1.3h1.3v1.3h2.5v-1.3h1.3V25h1.3v-2.5h2.5v17.8h-2.5V28.8h-1.3v1.3h-1.3
			v2.5h-2.5v-2.5h-1.3v-1.3h-1.3V40.2z"/>
		<path class="st312" d="M62.4,23.7v-1.3H70v1.3h1.3V25h1.3v12.7h-1.3V39H70v1.3h-7.6V39h-1.3v-1.3h-1.3V25h1.3v-1.3H62.4z M68.8,25
			h-5.1v1.3h-1.3v10.2h1.3v1.3h5.1v-1.3H70V26.3h-1.3V25z"/>
		<path class="st312" d="M75.1,40.2V22.5h10.2v1.3h1.3V25h1.3v12.7h-1.3V39h-1.3v1.3H75.1z M77.6,25v12.7H84v-1.3h1.3V26.3H84V25
			H77.6z"/>
		<path class="st312" d="M103,22.5V25H92.9v5.1h7.6v2.5h-7.6v5.1H103v2.5H90.3V22.5H103z"/>
		<path class="st312" d="M109.4,32.6h-1.3v7.6h-2.5V22.5h10.2v1.3h1.3V25h1.3v5.1H117v1.3h-1.3v1.3h-2.5v1.3h1.3v1.3h1.3v1.3h1.3
			v1.3h1.3v2.5h-2.5V39h-1.3v-1.3h-1.3v-1.3h-1.3v-1.3h-1.3v-1.3h-1.3V32.6z M108.1,25v5.1h6.3v-1.3h1.3v-2.5h-1.3V25H108.1z"/>
		<path class="st312" d="M123.3,30.1v10.2h-2.5V22.5h2.5v3.8h1.3v1.3h1.3v1.3h1.3v1.3h1.3v1.3h1.3v1.3h1.3V22.5h2.5v17.8H131v-3.8
			h-1.3v-1.3h-1.3v-1.3h-1.3v-1.3h-1.3v-1.3h-1.3v-1.3H123.3z"/>
		<path class="st312" d="M164,22.5V25h-10.2v5.1h7.6v2.5h-7.6v7.6h-2.5V22.5H164z"/>
		<path class="st312" d="M169,40.2h-2.5V27.6h1.3v-1.3h1.3V25h1.3v-1.3h1.3v-1.3h2.5v1.3h1.3V25h1.3v1.3h1.3v1.3h1.3v12.7h-2.5v-5.1
			H169V40.2z M169,32.6h7.6v-3.8h-1.3v-1.3h-1.3v-1.3h-2.5v1.3h-1.3v1.3H169V32.6z"/>
		<path class="st312" d="M185.5,32.6h-1.3v7.6h-2.5V22.5h10.2v1.3h1.3V25h1.3v5.1h-1.3v1.3h-1.3v1.3h-2.5v1.3h1.3v1.3h1.3v1.3h1.3
			v1.3h1.3v2.5h-2.5V39h-1.3v-1.3h-1.3v-1.3h-1.3v-1.3h-1.3v-1.3h-1.3V32.6z M184.3,25v5.1h6.3v-1.3h1.3v-2.5h-1.3V25H184.3z"/>
		<path class="st312" d="M199.5,40.2H197V22.5h2.5V25h1.3v1.3h1.3v1.3h2.5v-1.3h1.3V25h1.3v-2.5h2.5v17.8h-2.5V28.8h-1.3v1.3h-1.3
			v2.5h-2.5v-2.5h-1.3v-1.3h-1.3V40.2z"/>
		<path class="st312" d="M214.7,40.2v-2.5h2.5V25h-2.5v-2.5h7.6V25h-2.5v12.7h2.5v2.5H214.7z"/>
		<path class="st312" d="M230,30.1v10.2h-2.5V22.5h2.5v3.8h1.3v1.3h1.3v1.3h1.3v1.3h1.3v1.3h1.3v1.3h1.3V22.5h2.5v17.8h-2.5v-3.8
			h-1.3v-1.3h-1.3v-1.3h-1.3v-1.3h-1.3v-1.3h-1.3v-1.3H230z"/>
		<path class="st312" d="M254.1,25h1.3v2.5h-2.5v-1.3h-1.3V25h-5.1v1.3h-1.3v10.2h1.3v1.3h5.1v-1.3h1.3v-3.8H249v-2.5h6.3v7.6h-1.3
			V39h-1.3v1.3h-7.6V39h-1.3v-1.3h-1.3V25h1.3v-1.3h1.3v-1.3h7.6v1.3h1.3V25z"/>
	</g>
</g>
</svg>
