<?xml version="1.0" encoding="utf-8"?>
<!-- Generator: Adobe Illustrator 25.2.3, SVG Export Plug-In . SVG Version: 6.00 Build 0)  -->
<svg version="1.1" xmlns="http://www.w3.org/2000/svg" xmlns:xlink="http://www.w3.org/1999/xlink" x="0px" y="0px"
	 viewBox="0 0 300 300" style="enable-background:new 0 0 300 300;" xml:space="preserve">
<style type="text/css">
	.st0{opacity:0.46;}
	.st1{fill:#66890B;}
	.st2{fill:#95BC51;}
	.st3{fill:#3F6905;}
	.st4{fill:#CBE46E;}
	.st5{fill:#757DE0;}
	.st6{fill:#CAC5FF;}
	.st7{fill:#E9ECFD;}
	.st8{opacity:0.41;}
	.st9{opacity:0.69;}
	.st10{opacity:0.27;fill:none;stroke:#57ADA0;stroke-miterlimit:10;}
	.st11{opacity:0.65;}
	.st12{opacity:0.54;}
	.st13{opacity:0.51;}
	.st14{fill:#3FA0A7;}
	.st15{fill:#AB7946;}
	.st16{fill:#03464F;}
	.st17{fill:#026385;}
	.st18{fill:#35BCC0;}
	.st19{fill:#018F9F;}
	.st20{fill:#A53A1C;}
	.st21{fill:#DF5330;}
	.st22{fill:#FF8039;}
	.st23{fill:#EE5E2F;}
	.st24{fill:#A51959;}
	.st25{fill:#C12573;}
	.st26{fill:#FF4DA6;}
	.st27{fill:#D2276E;}
	.st28{fill:#7F7973;}
	.st29{fill:#C0B5AA;}
	.st30{fill:#E4DED5;}
	.st31{fill:#514A43;}
	.st32{fill:#606161;}
	.st33{fill:#BEBFB9;}
	.st34{fill:#3A3A3A;}
	.st35{fill:#302C28;}
	.st36{fill:#161616;}
	.st37{fill:#E1E1DF;}
	.st38{fill:#163A20;}
	.st39{fill:#1A5C31;}
	.st40{fill:#3E9B50;}
	.st41{fill:#23763E;}
	.st42{fill:#41296D;}
	.st43{fill:#513C82;}
	.st44{fill:#775ABF;}
	.st45{fill:#614293;}
	.st46{fill:#6C0F13;}
	.st47{fill:#9E1F25;}
	.st48{fill:#E8222E;}
	.st49{fill:#CF232E;}
	.st50{fill:#D27633;}
	.st51{fill:#DD8A34;}
	.st52{fill:#F5C032;}
	.st53{fill:#F3A634;}
	.st54{fill:#D4EAFF;}
	.st55{fill:#EFFAFC;}
	.st56{fill:#171C05;}
	.st57{fill:#688F50;}
	.st58{fill:#92BA73;}
	.st59{fill:#9FC780;}
	.st60{fill:#A7CB8D;}
	.st61{fill:#9CC17B;}
	.st62{fill:#91B166;}
	.st63{fill:#88988D;}
	.st64{fill:#829788;}
	.st65{fill:#5B7A36;}
	.st66{fill:#2C4704;}
	.st67{fill:#415705;}
	.st68{fill:#7D9732;}
	.st69{fill:#778B34;}
	.st70{fill:#879935;}
	.st71{fill:#A3BA62;}
	.st72{fill:#BFDA95;}
	.st73{fill:#B7D690;}
	.st74{fill:#B8D88C;}
	.st75{fill:#B7D78B;}
	.st76{fill:#B8D68C;}
	.st77{fill:#B2D185;}
	.st78{fill:#AECE85;}
	.st79{fill:#ACC87E;}
	.st80{fill:#A3B078;}
	.st81{fill:#758D8F;}
	.st82{fill:#8B9DF1;}
	.st83{fill:#A3B7F2;}
	.st84{fill:#7FA35B;}
	.st85{fill:#6A9047;}
	.st86{fill:#3D6823;}
	.st87{fill:#325F1C;}
	.st88{fill:#33621E;}
	.st89{fill:#214E0B;}
	.st90{fill:#306811;}
	.st91{fill:#689339;}
	.st92{fill:#95BB6E;}
	.st93{fill:#9BC57D;}
	.st94{fill:#A2C781;}
	.st95{fill:#9AB67C;}
	.st96{fill:#B4C8A5;}
	.st97{fill:#97ACBD;}
	.st98{fill:#7F9C88;}
	.st99{fill:#617830;}
	.st100{fill:#56750D;}
	.st101{fill:#789529;}
	.st102{fill:#91A335;}
	.st103{fill:#A5B650;}
	.st104{fill:#A7BD5B;}
	.st105{fill:#C1D894;}
	.st106{fill:#BCDA9A;}
	.st107{fill:#BEDB98;}
	.st108{fill:#BDDC98;}
	.st109{fill:#B9DA95;}
	.st110{fill:#B0D087;}
	.st111{fill:#9EC477;}
	.st112{fill:#98B86D;}
	.st113{fill:#8D9750;}
	.st114{fill:#798749;}
	.st115{fill:#82964F;}
	.st116{fill:#7F9B6B;}
	.st117{fill:#819D77;}
	.st118{fill:#88A855;}
	.st119{fill:#789C52;}
	.st120{fill:#46732E;}
	.st121{fill:#295613;}
	.st122{fill:#1F490A;}
	.st123{fill:#20490D;}
	.st124{fill:#33680C;}
	.st125{fill:#40700D;}
	.st126{fill:#95B864;}
	.st127{fill:#9DC77F;}
	.st128{fill:#9FC37B;}
	.st129{fill:#B4D191;}
	.st130{fill:#BED9A2;}
	.st131{fill:#A2BD94;}
	.st132{fill:#728D40;}
	.st133{fill:#546E17;}
	.st134{fill:#7A932B;}
	.st135{fill:#B5AD64;}
	.st136{fill:#C2C86E;}
	.st137{fill:#B6BC5A;}
	.st138{fill:#AFB56D;}
	.st139{fill:#AEC87F;}
	.st140{fill:#BFDF96;}
	.st141{fill:#C3DD9C;}
	.st142{fill:#BCD997;}
	.st143{fill:#B3D48D;}
	.st144{fill:#83AD63;}
	.st145{fill:#68893A;}
	.st146{fill:#948C44;}
	.st147{fill:#898836;}
	.st148{fill:#68852B;}
	.st149{fill:#90AC57;}
	.st150{fill:#84A54E;}
	.st151{fill:#7E9C42;}
	.st152{fill:#7D9C56;}
	.st153{fill:#5E8640;}
	.st154{fill:#2D5B13;}
	.st155{fill:#1F4D0C;}
	.st156{fill:#1F4708;}
	.st157{fill:#2A5F07;}
	.st158{fill:#4F7B08;}
	.st159{fill:#80A814;}
	.st160{fill:#90BC5A;}
	.st161{fill:#92BC6A;}
	.st162{fill:#9AC478;}
	.st163{fill:#90B766;}
	.st164{fill:#95B957;}
	.st165{fill:#B0CD70;}
	.st166{fill:#7C9E4A;}
	.st167{fill:#6B861D;}
	.st168{fill:#849A35;}
	.st169{fill:#C5B077;}
	.st170{fill:#B8B872;}
	.st171{fill:#AEB855;}
	.st172{fill:#A9B263;}
	.st173{fill:#95AA65;}
	.st174{fill:#B4D68A;}
	.st175{fill:#BBD895;}
	.st176{fill:#A8CB87;}
	.st177{fill:#81AD62;}
	.st178{fill:#6D8C3E;}
	.st179{fill:#9C9046;}
	.st180{fill:#8F8E3E;}
	.st181{fill:#6E901F;}
	.st182{fill:#90AC45;}
	.st183{fill:#8BAD59;}
	.st184{fill:#729723;}
	.st185{fill:#749B1E;}
	.st186{fill:#547C19;}
	.st187{fill:#204903;}
	.st188{fill:#1F4804;}
	.st189{fill:#35570D;}
	.st190{fill:#2C600E;}
	.st191{fill:#376B07;}
	.st192{fill:#588300;}
	.st193{fill:#779E1D;}
	.st194{fill:#93B55E;}
	.st195{fill:#95BF75;}
	.st196{fill:#729D4B;}
	.st197{fill:#779D30;}
	.st198{fill:#8EB248;}
	.st199{fill:#A5CB80;}
	.st200{fill:#8EB363;}
	.st201{fill:#97B04A;}
	.st202{fill:#AAB674;}
	.st203{fill:#798E33;}
	.st204{fill:#889E32;}
	.st205{fill:#99A962;}
	.st206{fill:#899759;}
	.st207{fill:#99AC6A;}
	.st208{fill:#A5BF76;}
	.st209{fill:#A4C87E;}
	.st210{fill:#ABCA86;}
	.st211{fill:#A7C97F;}
	.st212{fill:#9DB36A;}
	.st213{fill:#939F53;}
	.st214{fill:#86922C;}
	.st215{fill:#749029;}
	.st216{fill:#94B250;}
	.st217{fill:#94B157;}
	.st218{fill:#91B03B;}
	.st219{fill:#7B9F01;}
	.st220{fill:#708B18;}
	.st221{fill:#596920;}
	.st222{fill:#485C15;}
	.st223{fill:#707F2A;}
	.st224{fill:#265F12;}
	.st225{fill:#3F6E08;}
	.st226{fill:#7C9F45;}
	.st227{fill:#82A74A;}
	.st228{fill:#94BA67;}
	.st229{fill:#9AC374;}
	.st230{fill:#83B05D;}
	.st231{fill:#629023;}
	.st232{fill:#88AE3F;}
	.st233{fill:#AFD389;}
	.st234{fill:#99C273;}
	.st235{fill:#A6C568;}
	.st236{fill:#B6CB86;}
	.st237{fill:#77933F;}
	.st238{fill:#6E8B2F;}
	.st239{fill:#718E34;}
	.st240{fill:#819148;}
	.st241{fill:#90A05F;}
	.st242{fill:#9CB271;}
	.st243{fill:#96B268;}
	.st244{fill:#95B569;}
	.st245{fill:#A8C37E;}
	.st246{fill:#A5BE7A;}
	.st247{fill:#8CA257;}
	.st248{fill:#7C9341;}
	.st249{fill:#849D49;}
	.st250{fill:#98B561;}
	.st251{fill:#A8C072;}
	.st252{fill:#A1BD4C;}
	.st253{fill:#7FA206;}
	.st254{fill:#9A9C49;}
	.st255{fill:#9E8B53;}
	.st256{fill:#90804D;}
	.st257{fill:#A19A4C;}
	.st258{fill:#2C5F10;}
	.st259{fill:#688D2E;}
	.st260{fill:#8CB25F;}
	.st261{fill:#9BC273;}
	.st262{fill:#9AC26C;}
	.st263{fill:#9CBE67;}
	.st264{fill:#94BC64;}
	.st265{fill:#98BC64;}
	.st266{fill:#A6C965;}
	.st267{fill:#B3D78F;}
	.st268{fill:#96C36E;}
	.st269{fill:#81AA42;}
	.st270{fill:#83A050;}
	.st271{fill:#819F45;}
	.st272{fill:#83A551;}
	.st273{fill:#799C40;}
	.st274{fill:#8FAE5E;}
	.st275{fill:#93AF65;}
	.st276{fill:#9CB86E;}
	.st277{fill:#98B66C;}
	.st278{fill:#85A854;}
	.st279{fill:#90AB5E;}
	.st280{fill:#9AB66C;}
	.st281{fill:#9EB668;}
	.st282{fill:#94B059;}
	.st283{fill:#7B983E;}
	.st284{fill:#80A345;}
	.st285{fill:#8EB052;}
	.st286{fill:#8AA941;}
	.st287{fill:#83A713;}
	.st288{fill:#8DA52B;}
	.st289{fill:#B2B371;}
	.st290{fill:#C0C084;}
	.st291{fill:#B4AF6B;}
	.st292{clip-path:url(#SVGID_2_);}
	.st293{clip-path:url(#SVGID_4_);}
	.st294{clip-path:url(#SVGID_6_);}
	.st295{fill:#7DC0C9;}
	.st296{fill:#16635B;}
	.st297{fill:#A1D7DB;}
	.st298{fill:#CDC982;}
	.st299{fill:#3C5B3B;}
	.st300{fill:#6B8C5F;}
	.st301{fill:#90AA7D;}
	.st302{fill:#A2B271;}
	.st303{fill:#69463A;}
	.st304{fill:#D6B36F;}
	.st305{fill:#9BB655;}
	.st306{fill:#618F46;}
	.st307{fill:#2B5A38;}
	.st308{fill:#7C672E;}
	.st309{fill:#ABA92E;}
	.st310{fill:#E2E57E;}
	.st311{fill:#CBCA6D;}
	.st312{stroke:#000000;stroke-width:0.5;stroke-miterlimit:10;}
</style>
<g id="layout">
</g>
<g id="GUIDES">
	<g>
		<rect x="55.9" y="145" class="st4" width="8.9" height="156.2"/>
		<polygon class="st3" points="104.9,122.7 104.9,113.8 100.4,113.8 100.4,109.4 96,109.4 96,104.9 91.5,104.9 91.5,100.5 
			87.1,100.5 87.1,96 82.6,96 78.2,96 64.8,96 64.8,100.5 55.9,100.5 55.9,104.9 47,104.9 47,109.4 38.1,109.4 38.1,113.8 
			38.1,118.3 33.6,118.3 33.6,127.2 38.1,127.2 38.1,131.6 42.5,131.6 42.5,136.1 51.4,136.1 51.4,140.5 60.4,140.5 60.4,145 
			64.8,145 64.8,149.5 69.3,149.5 69.3,153.9 73.7,153.9 73.7,162.8 78.2,162.8 78.2,167.3 82.6,167.3 87.1,167.3 91.5,167.3 
			91.5,162.8 96,162.8 96,158.4 100.4,158.4 100.4,149.5 104.9,149.5 104.9,140.5 109.3,140.5 109.3,122.7 		"/>
		<g>
			<rect x="82.6" y="158.4" class="st1" width="4.5" height="4.5"/>
			<polygon class="st1" points="78.2,149.5 78.2,140.5 82.6,140.5 82.6,136.1 78.2,136.1 78.2,122.7 73.7,122.7 73.7,127.2 
				60.4,127.2 55.9,127.2 51.4,127.2 51.4,122.7 47,122.7 47,127.2 47,136.1 51.4,136.1 51.4,140.5 55.9,140.5 55.9,145 60.4,145 
				64.8,145 64.8,153.9 73.7,153.9 73.7,158.4 78.2,158.4 82.6,158.4 82.6,149.5 			"/>
		</g>
		<polygon class="st3" points="78.2,162.8 78.2,158.4 73.7,158.4 69.3,158.4 69.3,153.9 51.4,153.9 51.4,149.5 47,149.5 47,145 
			42.5,145 42.5,131.6 38.1,131.6 38.1,127.2 33.6,127.2 33.6,131.6 29.2,131.6 24.7,131.6 24.7,136.1 20.3,136.1 20.3,145 
			15.8,145 15.8,167.3 20.3,167.3 20.3,176.2 24.7,176.2 24.7,180.6 29.2,180.6 33.6,180.6 33.6,185.1 38.1,185.1 38.1,189.5 
			64.8,189.5 64.8,185.1 69.3,185.1 73.7,185.1 73.7,180.6 82.6,180.6 82.6,176.2 87.1,176.2 87.1,171.7 87.1,167.3 87.1,162.8 		
			"/>
		<rect x="55.9" y="140.5" class="st4" width="4.5" height="8.9"/>
		<rect x="51.4" y="131.6" class="st4" width="4.5" height="4.5"/>
		<rect x="55.9" y="136.1" class="st4" width="4.5" height="4.5"/>
		<rect x="64.8" y="136.1" class="st4" width="4.5" height="4.5"/>
		<rect x="60.4" y="145" class="st4" width="8.9" height="4.5"/>
		<rect x="69.3" y="149.5" class="st4" width="4.5" height="4.5"/>
		<rect x="69.3" y="131.6" class="st4" width="4.5" height="4.5"/>
		<rect x="60.4" y="171.7" class="st1" width="4.5" height="4.5"/>
		<rect x="64.8" y="176.2" class="st1" width="4.5" height="4.5"/>
		<rect x="42.5" y="153.9" class="st1" width="26.7" height="4.5"/>
		<rect x="29.2" y="140.5" class="st3" width="8.9" height="8.9"/>
		<rect x="42.5" y="140.5" class="st3" width="13.4" height="4.5"/>
		<rect x="42.5" y="136.1" class="st3" width="4.5" height="4.5"/>
		<rect x="42.5" y="136.1" class="st3" width="8.9" height="8.9"/>
		<rect x="69.3" y="153.9" class="st1" width="4.5" height="8.9"/>
		<rect x="29.2" y="145" class="st3" width="8.9" height="22.3"/>
		<rect x="38.1" y="140.5" class="st3" width="4.5" height="26.7"/>
		<rect x="64.8" y="100.5" class="st1" width="4.5" height="4.5"/>
		<rect x="69.3" y="96" class="st1" width="4.5" height="4.5"/>
		<rect x="47" y="145" class="st3" width="4.5" height="4.5"/>
		<rect x="47" y="145" class="st1" width="4.5" height="13.4"/>
	</g>
	<g>
		<rect x="159.3" y="190.3" class="st4" width="8.9" height="111.2"/>
		<polygon class="st3" points="212.8,178.8 212.8,169.9 208.3,169.9 208.3,147.6 203.9,147.6 203.9,143.2 199.4,143.2 199.4,138.7 
			190.5,138.7 186,138.7 186,134.3 181.6,134.3 181.6,129.8 159.3,129.8 159.3,134.3 150.4,134.3 150.4,138.7 146,138.7 146,143.2 
			141.5,143.2 141.5,147.6 137.1,147.6 132.6,147.6 132.6,152.1 128.1,152.1 128.1,156.5 123.7,156.5 123.7,165.4 119.2,165.4 
			119.2,178.8 123.7,178.8 123.7,183.3 128.1,183.3 132.6,183.3 137.1,183.3 137.1,187.7 141.5,187.7 146,187.7 146,192.2 
			159.3,192.2 159.3,196.6 163.8,196.6 163.8,201.1 172.7,201.1 172.7,205.5 190.5,205.5 190.5,210 195,210 199.4,210 199.4,214.4 
			203.9,214.4 208.3,214.4 208.3,210 212.8,210 217.2,210 217.2,178.8 		"/>
		<g>
			<rect x="168.2" y="183.3" class="st1" width="4.5" height="4.5"/>
			<rect x="172.7" y="178.8" class="st1" width="4.5" height="4.5"/>
			<polygon class="st1" points="212.8,192.2 212.8,187.7 208.3,187.7 208.3,205.5 199.4,205.5 199.4,201.1 195,201.1 195,196.6 
				190.5,196.6 190.5,201.1 181.6,201.1 181.6,196.6 177.1,196.6 177.1,192.2 168.2,192.2 168.2,187.7 159.3,187.7 159.3,183.3 
				146,183.3 141.5,183.3 141.5,174.3 132.6,174.3 132.6,169.9 132.6,165.4 128.1,165.4 128.1,169.9 123.7,169.9 119.2,169.9 
				119.2,178.8 123.7,178.8 128.1,178.8 128.1,183.3 132.6,183.3 132.6,187.7 141.5,187.7 141.5,192.2 146,192.2 150.4,192.2 
				159.3,192.2 159.3,196.6 163.8,196.6 163.8,201.1 172.7,201.1 172.7,205.5 181.6,205.5 190.5,205.5 190.5,210 195,210 195,214.4 
				199.4,214.4 212.8,214.4 212.8,210 217.2,210 217.2,192.2 			"/>
		</g>
		<polygon class="st3" points="203.9,218.9 199.4,218.9 199.4,214.4 195,214.4 195,210 190.5,210 190.5,205.5 186,205.5 
			168.2,205.5 163.8,205.5 159.3,205.5 159.3,201.1 154.9,201.1 154.9,196.6 150.4,196.6 150.4,192.2 146,192.2 146,187.7 
			141.5,187.7 137.1,187.7 137.1,183.3 132.6,183.3 119.2,183.3 114.8,183.3 114.8,187.7 110.3,187.7 110.3,205.5 114.8,205.5 
			114.8,210 119.2,210 123.7,210 123.7,218.9 128.1,218.9 128.1,223.3 128.1,227.8 132.6,227.8 132.6,232.3 137.1,232.3 
			141.5,232.3 141.5,236.7 146,236.7 150.4,236.7 150.4,241.2 154.9,241.2 159.3,241.2 172.7,241.2 172.7,236.7 177.1,236.7 
			181.6,236.7 181.6,232.3 186,232.3 190.5,232.3 190.5,227.8 195,227.8 199.4,227.8 199.4,223.3 203.9,223.3 		"/>
		<g>
			<rect x="128.1" y="227.8" class="st1" width="4.5" height="4.5"/>
			<rect x="132.6" y="232.3" class="st1" width="8.9" height="4.5"/>
			<rect x="123.7" y="218.9" class="st1" width="4.5" height="8.9"/>
			<rect x="119.2" y="210" class="st1" width="4.5" height="8.9"/>
			<polygon class="st1" points="150.4,241.2 150.4,236.7 141.5,236.7 141.5,241.2 146,241.2 146,245.6 168.2,245.6 172.7,245.6 
				172.7,241.2 168.2,241.2 			"/>
			<rect x="172.7" y="236.7" class="st1" width="4.5" height="4.5"/>
			<rect x="114.8" y="205.5" class="st1" width="4.5" height="4.5"/>
		</g>
		<rect x="159.3" y="187.7" class="st4" width="4.5" height="13.4"/>
		<rect x="154.9" y="183.3" class="st4" width="4.5" height="4.5"/>
		<rect x="163.8" y="183.3" class="st4" width="4.5" height="4.5"/>
		<rect x="172.7" y="178.8" class="st4" width="4.5" height="4.5"/>
		<rect x="163.8" y="183.3" class="st4" width="4.5" height="22.3"/>
		<rect x="150.4" y="192.2" class="st1" width="8.9" height="4.5"/>
		<rect x="154.9" y="187.7" class="st1" width="4.5" height="13.4"/>
		<rect x="168.2" y="196.6" class="st1" width="4.5" height="8.9"/>
		<rect x="159.3" y="178.8" class="st1" width="4.5" height="8.9"/>
		<rect x="150.4" y="178.8" class="st1" width="22.3" height="4.5"/>
		<rect x="168.2" y="187.7" class="st1" width="4.5" height="4.5"/>
		<rect x="154.9" y="201.1" class="st1" width="4.5" height="8.9"/>
		<rect x="154.9" y="201.1" class="st1" width="22.3" height="8.9"/>
	</g>
	<g>
		
			<rect x="242.6" y="99.9" transform="matrix(-1 -4.492108e-11 4.492108e-11 -1 494.0694 401.0633)" class="st4" width="8.9" height="201.2"/>
		<polygon class="st3" points="202.5,77.7 202.5,68.8 206.9,68.8 206.9,64.3 211.4,64.3 211.4,59.9 215.9,59.9 215.9,55.4 
			220.3,55.4 220.3,50.9 224.8,50.9 229.2,50.9 242.6,50.9 242.6,55.4 251.5,55.4 251.5,59.9 260.4,59.9 260.4,64.3 269.3,64.3 
			269.3,68.8 269.3,73.2 273.8,73.2 273.8,82.1 269.3,82.1 269.3,86.6 264.9,86.6 264.9,91 255.9,91 255.9,95.5 247,95.5 247,99.9 
			242.6,99.9 242.6,104.4 238.1,104.4 238.1,108.9 233.7,108.9 233.7,117.8 229.2,117.8 229.2,122.2 224.8,122.2 220.3,122.2 
			215.9,122.2 215.9,117.8 211.4,117.8 211.4,113.3 206.9,113.3 206.9,104.4 202.5,104.4 202.5,95.5 198,95.5 198,77.7 		"/>
		<g>
			<rect x="220.3" y="113.3" class="st1" width="4.5" height="4.5"/>
			<polygon class="st1" points="229.2,104.4 229.2,95.5 224.8,95.5 224.8,91 229.2,91 229.2,77.7 233.7,77.7 233.7,82.1 247,82.1 
				251.5,82.1 255.9,82.1 255.9,77.7 260.4,77.7 260.4,82.1 260.4,91 255.9,91 255.9,95.5 251.5,95.5 251.5,99.9 247,99.9 
				242.6,99.9 242.6,108.9 233.7,108.9 233.7,113.3 229.2,113.3 224.8,113.3 224.8,104.4 			"/>
		</g>
		<polygon class="st3" points="229.2,117.8 229.2,113.3 233.7,113.3 238.1,113.3 238.1,108.9 255.9,108.9 255.9,104.4 260.4,104.4 
			260.4,99.9 264.9,99.9 264.9,86.6 269.3,86.6 269.3,82.1 273.8,82.1 273.8,86.6 278.2,86.6 282.7,86.6 282.7,91 287.1,91 
			287.1,99.9 291.6,99.9 291.6,122.2 287.1,122.2 287.1,131.1 282.7,131.1 282.7,135.6 278.2,135.6 273.8,135.6 273.8,140 
			269.3,140 269.3,144.5 242.6,144.5 242.6,140 238.1,140 233.7,140 233.7,135.6 224.8,135.6 224.8,131.1 220.3,131.1 220.3,126.7 
			220.3,122.2 220.3,117.8 		"/>
		
			<rect x="247" y="95.5" transform="matrix(-1 -4.492108e-11 4.492108e-11 -1 498.5237 199.8908)" class="st4" width="4.5" height="8.9"/>
		
			<rect x="251.5" y="86.6" transform="matrix(-1 -4.451296e-11 4.451296e-11 -1 507.4321 177.6197)" class="st4" width="4.5" height="4.5"/>
		
			<rect x="247" y="91" transform="matrix(-1 -4.492108e-11 4.492108e-11 -1 498.5237 186.5281)" class="st4" width="4.5" height="4.5"/>
		
			<rect x="238.1" y="91" transform="matrix(-1 -4.492108e-11 4.492108e-11 -1 480.7068 186.5281)" class="st4" width="4.5" height="4.5"/>
		
			<rect x="238.1" y="99.9" transform="matrix(-1 -4.471724e-11 4.471724e-11 -1 485.161 204.345)" class="st4" width="8.9" height="4.5"/>
		
			<rect x="233.7" y="104.4" transform="matrix(-1 -4.492108e-11 4.492108e-11 -1 471.7983 213.2535)" class="st4" width="4.5" height="4.5"/>
		
			<rect x="233.7" y="86.6" transform="matrix(-1 -4.492108e-11 4.492108e-11 -1 471.7983 177.6197)" class="st4" width="4.5" height="4.5"/>
		
			<rect x="242.6" y="126.7" transform="matrix(-1 -4.492108e-11 4.492108e-11 -1 489.6152 257.7957)" class="st1" width="4.5" height="4.5"/>
		
			<rect x="238.1" y="131.1" transform="matrix(-1 -4.492108e-11 4.492108e-11 -1 480.7068 266.7042)" class="st1" width="4.5" height="4.5"/>
		
			<rect x="238.1" y="108.9" transform="matrix(-1 -4.485313e-11 4.485313e-11 -1 502.9779 222.1619)" class="st1" width="26.7" height="4.5"/>
		
			<rect x="269.3" y="95.5" transform="matrix(-1 -4.512536e-11 4.512536e-11 -1 547.5201 199.8908)" class="st3" width="8.9" height="8.9"/>
		
			<rect x="251.5" y="95.5" transform="matrix(-1 -4.492108e-11 4.492108e-11 -1 516.3406 195.4366)" class="st3" width="13.4" height="4.5"/>
		
			<rect x="260.4" y="91" transform="matrix(-1 -4.492108e-11 4.492108e-11 -1 525.249 186.5281)" class="st3" width="4.5" height="4.5"/>
		
			<rect x="255.9" y="91" transform="matrix(-1 -4.492108e-11 4.492108e-11 -1 520.7948 190.9824)" class="st3" width="8.9" height="8.9"/>
		
			<rect x="233.7" y="108.9" transform="matrix(-1 -4.492108e-11 4.492108e-11 -1 471.7983 226.6162)" class="st1" width="4.5" height="8.9"/>
		
			<rect x="269.3" y="99.9" transform="matrix(-1 -4.471724e-11 4.471724e-11 -1 547.5201 222.1619)" class="st3" width="8.9" height="22.3"/>
		
			<rect x="264.9" y="95.5" transform="matrix(-1 -4.532964e-11 4.532964e-11 -1 534.1575 217.7077)" class="st3" width="4.5" height="26.7"/>
		
			<rect x="238.1" y="55.4" transform="matrix(-1 -4.492108e-11 4.492108e-11 -1 480.7068 115.2605)" class="st1" width="4.5" height="4.5"/>
		
			<rect x="233.7" y="50.9" transform="matrix(-1 -4.492108e-11 4.492108e-11 -1 471.7983 106.3521)" class="st1" width="4.5" height="4.5"/>
		
			<rect x="255.9" y="99.9" transform="matrix(-1 -4.532964e-11 4.532964e-11 -1 516.3406 204.345)" class="st3" width="4.5" height="4.5"/>
		
			<rect x="255.9" y="99.9" transform="matrix(-1 -4.492108e-11 4.492108e-11 -1 516.3406 213.2535)" class="st1" width="4.5" height="13.4"/>
	</g>
	<g>
		<path class="st312" d="M70,32.2h-2.5V14.5H70V17h1.3v1.3h1.3v1.3h2.5v-1.3h1.3V17h1.3v-2.5h2.5v17.8h-2.5V20.8h-1.3v1.3h-1.3v2.5
			h-2.5v-2.5h-1.3v-1.3H70V32.2z"/>
		<path class="st312" d="M85.3,32.2v-2.5h2.5V17h-2.5v-2.5h7.6V17h-2.5v12.7h2.5v2.5H85.3z"/>
		<path class="st312" d="M101.8,29.7h5.1v-1.3h1.3v-1.3h2.5v2.5h-1.3V31h-1.3v1.3h-7.6V31h-1.3v-1.3h-1.3V17h1.3v-1.3h1.3v-1.3h7.6
			v1.3h1.3V17h1.3v2.5h-2.5v-1.3h-1.3V17h-5.1v1.3h-1.3v10.2h1.3V29.7z"/>
		<path class="st312" d="M117,24.6h-1.3v7.6h-2.5V14.5h10.2v1.3h1.3V17h1.3v5.1h-1.3v1.3h-1.3v1.3h-2.5v1.3h1.3v1.3h1.3v1.3h1.3v1.3
			h1.3v2.5h-2.5V31h-1.3v-1.3h-1.3v-1.3h-1.3v-1.3h-1.3v-1.3H117V24.6z M115.7,17v5.1h6.3v-1.3h1.3v-2.5h-1.3V17H115.7z"/>
		<path class="st312" d="M131,15.7v-1.3h7.6v1.3h1.3V17h1.3v12.7h-1.3V31h-1.3v1.3H131V31h-1.3v-1.3h-1.3V17h1.3v-1.3H131z
			 M137.3,17h-5.1v1.3H131v10.2h1.3v1.3h5.1v-1.3h1.3V18.3h-1.3V17z"/>
		<path class="st312" d="M155.1,17h1.3v2.5h-2.5v-1.3h-1.3V17h-5.1v1.3h-1.3v10.2h1.3v1.3h5.1v-1.3h1.3v-3.8H150v-2.5h6.3v7.6h-1.3
			V31h-1.3v1.3h-7.6V31h-1.3v-1.3h-1.3V17h1.3v-1.3h1.3v-1.3h7.6v1.3h1.3V17z"/>
		<path class="st312" d="M162.7,24.6h-1.3v7.6h-2.5V14.5H169v1.3h1.3V17h1.3v5.1h-1.3v1.3H169v1.3h-2.5v1.3h1.3v1.3h1.3v1.3h1.3v1.3
			h1.3v2.5H169V31h-1.3v-1.3h-1.3v-1.3h-1.3v-1.3H164v-1.3h-1.3V24.6z M161.4,17v5.1h6.3v-1.3h1.3v-2.5h-1.3V17H161.4z"/>
		<path class="st312" d="M186.8,14.5V17h-10.2v5.1h7.6v2.5h-7.6v5.1h10.2v2.5h-12.7V14.5H186.8z"/>
		<path class="st312" d="M202.1,14.5V17h-10.2v5.1h7.6v2.5h-7.6v5.1h10.2v2.5h-12.7V14.5H202.1z"/>
		<path class="st312" d="M207.1,22.1v10.2h-2.5V14.5h2.5v3.8h1.3v1.3h1.3v1.3h1.3v1.3h1.3v1.3h1.3v1.3h1.3V14.5h2.5v17.8h-2.5v-3.8
			h-1.3v-1.3h-1.3v-1.3h-1.3v-1.3h-1.3v-1.3h-1.3v-1.3H207.1z"/>
		<path class="st312" d="M231.2,17h1.3v2.5H230v-1.3h-1.3V17h-5.1v1.3h-1.3v2.5h1.3v1.3h6.3v1.3h1.3v1.3h1.3v5.1h-1.3V31H230v1.3
			h-7.6V31h-1.3v-1.3h-1.3v-2.5h2.5v1.3h1.3v1.3h5.1v-1.3h1.3v-2.5h-1.3v-1.3h-6.3v-1.3h-1.3v-1.3h-1.3V17h1.3v-1.3h1.3v-1.3h7.6
			v1.3h1.3V17z"/>
	</g>
</g>
</svg>
