<?xml version="1.0" encoding="utf-8"?>
<!-- Generator: Adobe Illustrator 25.2.3, SVG Export Plug-In . SVG Version: 6.00 Build 0)  -->
<svg version="1.1" xmlns="http://www.w3.org/2000/svg" xmlns:xlink="http://www.w3.org/1999/xlink" x="0px" y="0px"
	 viewBox="0 0 300 280" style="enable-background:new 0 0 300 280;" xml:space="preserve">
<style type="text/css">
	.st0{opacity:0.46;}
	.st1{fill:#66890B;}
	.st2{fill:#95BC51;}
	.st3{fill:#3F6905;}
	.st4{fill:#CBE46E;}
	.st5{fill:#757DE0;}
	.st6{fill:#CAC5FF;}
	.st7{fill:#E9ECFD;}
	.st8{opacity:0.41;}
	.st9{opacity:0.69;}
	.st10{opacity:0.27;fill:none;stroke:#57ADA0;stroke-miterlimit:10;}
	.st11{opacity:0.65;}
	.st12{opacity:0.54;}
	.st13{opacity:0.51;}
	.st14{fill:#3FA0A7;}
	.st15{fill:#AB7946;}
	.st16{fill:#03464F;}
	.st17{fill:#026385;}
	.st18{fill:#35BCC0;}
	.st19{fill:#018F9F;}
	.st20{fill:#A53A1C;}
	.st21{fill:#DF5330;}
	.st22{fill:#FF8039;}
	.st23{fill:#EE5E2F;}
	.st24{fill:#A51959;}
	.st25{fill:#C12573;}
	.st26{fill:#FF4DA6;}
	.st27{fill:#D2276E;}
	.st28{fill:#7F7973;}
	.st29{fill:#C0B5AA;}
	.st30{fill:#E4DED5;}
	.st31{fill:#514A43;}
	.st32{fill:#606161;}
	.st33{fill:#BEBFB9;}
	.st34{fill:#3A3A3A;}
	.st35{fill:#302C28;}
	.st36{fill:#161616;}
	.st37{fill:#E1E1DF;}
	.st38{fill:#163A20;}
	.st39{fill:#1A5C31;}
	.st40{fill:#3E9B50;}
	.st41{fill:#23763E;}
	.st42{fill:#41296D;}
	.st43{fill:#513C82;}
	.st44{fill:#775ABF;}
	.st45{fill:#614293;}
	.st46{fill:#6C0F13;}
	.st47{fill:#9E1F25;}
	.st48{fill:#E8222E;}
	.st49{fill:#CF232E;}
	.st50{fill:#D27633;}
	.st51{fill:#DD8A34;}
	.st52{fill:#F5C032;}
	.st53{fill:#F3A634;}
	.st54{fill:#D4EAFF;}
	.st55{fill:#EFFAFC;}
	.st56{fill:#171C05;}
	.st57{fill:#688F50;}
	.st58{fill:#92BA73;}
	.st59{fill:#9FC780;}
	.st60{fill:#A7CB8D;}
	.st61{fill:#9CC17B;}
	.st62{fill:#91B166;}
	.st63{fill:#88988D;}
	.st64{fill:#829788;}
	.st65{fill:#5B7A36;}
	.st66{fill:#2C4704;}
	.st67{fill:#415705;}
	.st68{fill:#7D9732;}
	.st69{fill:#778B34;}
	.st70{fill:#879935;}
	.st71{fill:#A3BA62;}
	.st72{fill:#BFDA95;}
	.st73{fill:#B7D690;}
	.st74{fill:#B8D88C;}
	.st75{fill:#B7D78B;}
	.st76{fill:#B8D68C;}
	.st77{fill:#B2D185;}
	.st78{fill:#AECE85;}
	.st79{fill:#ACC87E;}
	.st80{fill:#A3B078;}
	.st81{fill:#758D8F;}
	.st82{fill:#8B9DF1;}
	.st83{fill:#A3B7F2;}
	.st84{fill:#7FA35B;}
	.st85{fill:#6A9047;}
	.st86{fill:#3D6823;}
	.st87{fill:#325F1C;}
	.st88{fill:#33621E;}
	.st89{fill:#214E0B;}
	.st90{fill:#306811;}
	.st91{fill:#689339;}
	.st92{fill:#95BB6E;}
	.st93{fill:#9BC57D;}
	.st94{fill:#A2C781;}
	.st95{fill:#9AB67C;}
	.st96{fill:#B4C8A5;}
	.st97{fill:#97ACBD;}
	.st98{fill:#7F9C88;}
	.st99{fill:#617830;}
	.st100{fill:#56750D;}
	.st101{fill:#789529;}
	.st102{fill:#91A335;}
	.st103{fill:#A5B650;}
	.st104{fill:#A7BD5B;}
	.st105{fill:#C1D894;}
	.st106{fill:#BCDA9A;}
	.st107{fill:#BEDB98;}
	.st108{fill:#BDDC98;}
	.st109{fill:#B9DA95;}
	.st110{fill:#B0D087;}
	.st111{fill:#9EC477;}
	.st112{fill:#98B86D;}
	.st113{fill:#8D9750;}
	.st114{fill:#798749;}
	.st115{fill:#82964F;}
	.st116{fill:#7F9B6B;}
	.st117{fill:#819D77;}
	.st118{fill:#88A855;}
	.st119{fill:#789C52;}
	.st120{fill:#46732E;}
	.st121{fill:#295613;}
	.st122{fill:#1F490A;}
	.st123{fill:#20490D;}
	.st124{fill:#33680C;}
	.st125{fill:#40700D;}
	.st126{fill:#95B864;}
	.st127{fill:#9DC77F;}
	.st128{fill:#9FC37B;}
	.st129{fill:#B4D191;}
	.st130{fill:#BED9A2;}
	.st131{fill:#A2BD94;}
	.st132{fill:#728D40;}
	.st133{fill:#546E17;}
	.st134{fill:#7A932B;}
	.st135{fill:#B5AD64;}
	.st136{fill:#C2C86E;}
	.st137{fill:#B6BC5A;}
	.st138{fill:#AFB56D;}
	.st139{fill:#AEC87F;}
	.st140{fill:#BFDF96;}
	.st141{fill:#C3DD9C;}
	.st142{fill:#BCD997;}
	.st143{fill:#B3D48D;}
	.st144{fill:#83AD63;}
	.st145{fill:#68893A;}
	.st146{fill:#948C44;}
	.st147{fill:#898836;}
	.st148{fill:#68852B;}
	.st149{fill:#90AC57;}
	.st150{fill:#84A54E;}
	.st151{fill:#7E9C42;}
	.st152{fill:#7D9C56;}
	.st153{fill:#5E8640;}
	.st154{fill:#2D5B13;}
	.st155{fill:#1F4D0C;}
	.st156{fill:#1F4708;}
	.st157{fill:#2A5F07;}
	.st158{fill:#4F7B08;}
	.st159{fill:#80A814;}
	.st160{fill:#90BC5A;}
	.st161{fill:#92BC6A;}
	.st162{fill:#9AC478;}
	.st163{fill:#90B766;}
	.st164{fill:#95B957;}
	.st165{fill:#B0CD70;}
	.st166{fill:#7C9E4A;}
	.st167{fill:#6B861D;}
	.st168{fill:#849A35;}
	.st169{fill:#C5B077;}
	.st170{fill:#B8B872;}
	.st171{fill:#AEB855;}
	.st172{fill:#A9B263;}
	.st173{fill:#95AA65;}
	.st174{fill:#B4D68A;}
	.st175{fill:#BBD895;}
	.st176{fill:#A8CB87;}
	.st177{fill:#81AD62;}
	.st178{fill:#6D8C3E;}
	.st179{fill:#9C9046;}
	.st180{fill:#8F8E3E;}
	.st181{fill:#6E901F;}
	.st182{fill:#90AC45;}
	.st183{fill:#8BAD59;}
	.st184{fill:#729723;}
	.st185{fill:#749B1E;}
	.st186{fill:#547C19;}
	.st187{fill:#204903;}
	.st188{fill:#1F4804;}
	.st189{fill:#35570D;}
	.st190{fill:#2C600E;}
	.st191{fill:#376B07;}
	.st192{fill:#588300;}
	.st193{fill:#779E1D;}
	.st194{fill:#93B55E;}
	.st195{fill:#95BF75;}
	.st196{fill:#729D4B;}
	.st197{fill:#779D30;}
	.st198{fill:#8EB248;}
	.st199{fill:#A5CB80;}
	.st200{fill:#8EB363;}
	.st201{fill:#97B04A;}
	.st202{fill:#AAB674;}
	.st203{fill:#798E33;}
	.st204{fill:#889E32;}
	.st205{fill:#99A962;}
	.st206{fill:#899759;}
	.st207{fill:#99AC6A;}
	.st208{fill:#A5BF76;}
	.st209{fill:#A4C87E;}
	.st210{fill:#ABCA86;}
	.st211{fill:#A7C97F;}
	.st212{fill:#9DB36A;}
	.st213{fill:#939F53;}
	.st214{fill:#86922C;}
	.st215{fill:#749029;}
	.st216{fill:#94B250;}
	.st217{fill:#94B157;}
	.st218{fill:#91B03B;}
	.st219{fill:#7B9F01;}
	.st220{fill:#708B18;}
	.st221{fill:#596920;}
	.st222{fill:#485C15;}
	.st223{fill:#707F2A;}
	.st224{fill:#265F12;}
	.st225{fill:#3F6E08;}
	.st226{fill:#7C9F45;}
	.st227{fill:#82A74A;}
	.st228{fill:#94BA67;}
	.st229{fill:#9AC374;}
	.st230{fill:#83B05D;}
	.st231{fill:#629023;}
	.st232{fill:#88AE3F;}
	.st233{fill:#AFD389;}
	.st234{fill:#99C273;}
	.st235{fill:#A6C568;}
	.st236{fill:#B6CB86;}
	.st237{fill:#77933F;}
	.st238{fill:#6E8B2F;}
	.st239{fill:#718E34;}
	.st240{fill:#819148;}
	.st241{fill:#90A05F;}
	.st242{fill:#9CB271;}
	.st243{fill:#96B268;}
	.st244{fill:#95B569;}
	.st245{fill:#A8C37E;}
	.st246{fill:#A5BE7A;}
	.st247{fill:#8CA257;}
	.st248{fill:#7C9341;}
	.st249{fill:#849D49;}
	.st250{fill:#98B561;}
	.st251{fill:#A8C072;}
	.st252{fill:#A1BD4C;}
	.st253{fill:#7FA206;}
	.st254{fill:#9A9C49;}
	.st255{fill:#9E8B53;}
	.st256{fill:#90804D;}
	.st257{fill:#A19A4C;}
	.st258{fill:#2C5F10;}
	.st259{fill:#688D2E;}
	.st260{fill:#8CB25F;}
	.st261{fill:#9BC273;}
	.st262{fill:#9AC26C;}
	.st263{fill:#9CBE67;}
	.st264{fill:#94BC64;}
	.st265{fill:#98BC64;}
	.st266{fill:#A6C965;}
	.st267{fill:#B3D78F;}
	.st268{fill:#96C36E;}
	.st269{fill:#81AA42;}
	.st270{fill:#83A050;}
	.st271{fill:#819F45;}
	.st272{fill:#83A551;}
	.st273{fill:#799C40;}
	.st274{fill:#8FAE5E;}
	.st275{fill:#93AF65;}
	.st276{fill:#9CB86E;}
	.st277{fill:#98B66C;}
	.st278{fill:#85A854;}
	.st279{fill:#90AB5E;}
	.st280{fill:#9AB66C;}
	.st281{fill:#9EB668;}
	.st282{fill:#94B059;}
	.st283{fill:#7B983E;}
	.st284{fill:#80A345;}
	.st285{fill:#8EB052;}
	.st286{fill:#8AA941;}
	.st287{fill:#83A713;}
	.st288{fill:#8DA52B;}
	.st289{fill:#B2B371;}
	.st290{fill:#C0C084;}
	.st291{fill:#B4AF6B;}
	.st292{clip-path:url(#SVGID_2_);}
	.st293{clip-path:url(#SVGID_4_);}
	.st294{clip-path:url(#SVGID_6_);}
	.st295{fill:#7DC0C9;}
	.st296{fill:#16635B;}
	.st297{fill:#A1D7DB;}
	.st298{fill:#CDC982;}
	.st299{fill:#3C5B3B;}
	.st300{fill:#6B8C5F;}
	.st301{fill:#90AA7D;}
	.st302{fill:#A2B271;}
	.st303{fill:#69463A;}
	.st304{fill:#D6B36F;}
	.st305{fill:#9BB655;}
	.st306{fill:#618F46;}
	.st307{fill:#2B5A38;}
	.st308{fill:#7C672E;}
	.st309{fill:#ABA92E;}
	.st310{fill:#E2E57E;}
	.st311{fill:#CBCA6D;}
	.st312{stroke:#000000;stroke-width:0.25;stroke-miterlimit:10;}
</style>
<g id="layout">
	<g>
		<polygon class="st1" points="148.1,221.2 143.5,221.2 143.5,219.7 135.9,219.7 132.8,219.7 131.3,219.7 131.3,218.2 119.1,218.2 
			119.1,219.7 117.6,219.7 117.6,221.2 116.1,221.2 114.5,221.2 114.5,224.3 113,224.3 113,225.8 111.5,225.8 111.5,227.3 
			110,227.3 110,233.4 108.4,233.4 108.4,250.2 110,250.2 110,253.3 111.5,253.3 111.5,257.9 113,257.9 113,262.4 114.5,262.4 
			114.5,267 116.1,267 116.1,270.1 117.6,270.1 117.6,273.1 119.1,273.1 119.1,276.2 120.6,276.2 120.6,279.2 122.2,279.2 
			122.2,276.2 123.7,276.2 123.7,273.1 125.2,273.1 125.2,268.5 126.7,268.5 126.7,267 128.3,267 128.3,262.4 129.8,262.4 
			129.8,260.9 129.8,259.4 129.8,257.9 131.3,257.9 131.3,256.3 132.8,256.3 132.8,253.3 134.4,253.3 135.9,253.3 135.9,251.7 
			137.4,251.7 137.4,248.7 139,248.7 139,247.2 140.5,247.2 142,247.2 142,245.6 143.5,245.6 143.5,244.1 145.1,244.1 145.1,242.6 
			145.1,241.1 146.6,241.1 146.6,239.5 146.6,227.3 148.1,227.3 		"/>
		<polygon class="st1" points="116.1,184.6 116.1,183.1 114.5,183.1 114.5,181.5 113,181.5 113,180 111.5,180 111.5,178.5 
			110,178.5 108.4,178.5 106.9,178.5 105.4,178.5 103.8,178.5 102.3,178.5 100.8,178.5 100.8,180 99.3,180 97.7,180 96.2,180 
			96.2,181.5 94.7,181.5 94.7,183.1 93.2,183.1 93.2,184.6 91.6,184.6 91.6,186.1 90.1,186.1 90.1,187.6 88.6,187.6 88.6,189.2 
			87.1,189.2 87.1,192.2 85.5,192.2 85.5,195.3 84,195.3 84,199.9 82.5,199.9 82.5,201.4 82.5,204.4 82.5,207.5 82.5,209 84,209 
			84,207.5 84,206 85.5,206 85.5,204.4 87.1,204.4 88.6,204.4 90.1,204.4 90.1,202.9 91.6,202.9 91.6,204.4 93.2,204.4 93.2,202.9 
			94.7,202.9 96.2,202.9 97.7,202.9 99.3,202.9 100.8,202.9 102.3,202.9 102.3,201.4 103.8,201.4 105.4,201.4 106.9,201.4 
			108.4,201.4 108.4,199.9 110,199.9 111.5,199.9 111.5,198.3 113,198.3 114.5,198.3 114.5,196.8 116.1,196.8 116.1,192.2 
			117.6,192.2 117.6,184.6 		"/>
		<g>
			<rect x="198.5" y="181.5" class="st1" width="1.5" height="1.5"/>
			<polygon class="st1" points="196.9,180 195.4,180 193.9,180 193.9,178.5 192.4,178.5 190.8,178.5 189.3,178.5 187.8,178.5 
				186.3,178.5 184.7,178.5 184.7,177 183.2,177 181.7,177 181.7,178.5 180.2,178.5 178.6,178.5 177.1,178.5 175.6,178.5 
				174.1,178.5 172.5,178.5 171,178.5 169.5,178.5 167.9,178.5 166.4,178.5 166.4,180 164.9,180 163.4,180 161.8,180 161.8,181.5 
				160.3,181.5 158.8,181.5 158.8,183.1 157.3,183.1 155.7,183.1 155.7,184.6 154.2,184.6 152.7,184.6 152.7,186.1 151.2,186.1 
				151.2,187.6 148.1,187.6 148.1,189.2 146.6,189.2 146.6,192.2 145.1,192.2 145.1,199.9 143.5,199.9 143.5,206 145.1,206 
				145.1,209 146.6,209 146.6,210.5 148.1,210.5 148.1,213.6 151.2,213.6 151.2,215.1 152.7,215.1 152.7,213.6 154.2,213.6 
				155.7,213.6 157.3,213.6 158.8,213.6 160.3,213.6 161.8,213.6 161.8,215.1 163.4,215.1 164.9,215.1 166.4,215.1 167.9,215.1 
				169.5,215.1 171,215.1 171,213.6 172.5,213.6 174.1,213.6 175.6,213.6 175.6,210.5 177.1,210.5 177.1,209 178.6,209 178.6,207.5 
				180.2,207.5 180.2,204.4 181.7,204.4 181.7,202.9 183.2,202.9 183.2,199.9 184.7,199.9 184.7,195.3 186.3,195.3 186.3,192.2 
				187.8,192.2 187.8,190.7 187.8,189.2 187.8,187.6 189.3,187.6 189.3,184.6 190.8,184.6 190.8,183.1 190.8,181.5 192.4,181.5 
				193.9,181.5 195.4,181.5 196.9,181.5 198.5,181.5 198.5,180 			"/>
		</g>
		<g>
			<rect x="120.6" y="128.1" class="st1" width="1.5" height="1.5"/>
			<polygon class="st1" points="145.1,143.4 145.1,141.9 143.5,141.9 143.5,140.3 142,140.3 140.5,140.3 140.5,138.8 139,138.8 
				139,137.3 137.4,137.3 137.4,135.8 135.9,135.8 134.4,135.8 132.8,135.8 132.8,134.2 131.3,134.2 129.8,134.2 129.8,132.7 
				128.3,132.7 126.7,132.7 126.7,131.2 125.2,131.2 125.2,129.7 122.2,129.7 122.2,131.2 123.7,131.2 123.7,132.7 125.2,132.7 
				125.2,134.2 126.7,134.2 126.7,144.9 128.3,144.9 128.3,148 129.8,148 129.8,151 131.3,151 131.3,154.1 132.8,154.1 132.8,155.6 
				134.4,155.6 134.4,157.1 135.9,157.1 135.9,158.6 137.4,158.6 139,158.6 140.5,158.6 142,158.6 143.5,158.6 145.1,158.6 
				145.1,157.1 146.6,157.1 146.6,143.4 			"/>
		</g>
		<g>
			<rect x="187.8" y="154.1" class="st1" width="1.5" height="1.5"/>
			<polygon class="st1" points="186.3,152.5 186.3,151 184.7,151 184.7,149.5 183.2,149.5 183.2,148 181.7,148 180.2,148 
				180.2,146.4 178.6,146.4 178.6,144.9 177.1,144.9 177.1,143.4 175.6,143.4 175.6,141.9 174.1,141.9 172.5,141.9 172.5,140.3 
				171,140.3 163.4,140.3 163.4,141.9 161.8,141.9 160.3,141.9 158.8,141.9 158.8,143.4 157.3,143.4 157.3,144.9 155.7,144.9 
				155.7,148 154.2,148 154.2,151 152.7,151 152.7,158.6 154.2,158.6 155.7,158.6 155.7,160.2 157.3,160.2 158.8,160.2 158.8,161.7 
				160.3,161.7 161.8,161.7 171,161.7 171,160.2 172.5,160.2 174.1,160.2 174.1,158.6 175.6,158.6 177.1,158.6 177.1,157.1 
				178.6,157.1 180.2,157.1 180.2,155.6 181.7,155.6 183.2,155.6 183.2,154.1 184.7,154.1 186.3,154.1 187.8,154.1 187.8,152.5 			
				"/>
		</g>
		<g>
			<polygon class="st2" points="151.2,210.5 151.2,212.1 152.7,212.1 152.7,210.5 152.7,209 151.2,209 			"/>
			<rect x="152.7" y="207.5" class="st2" width="1.5" height="1.5"/>
			<polygon class="st2" points="154.2,206 154.2,207.5 155.7,207.5 155.7,206 155.7,204.4 154.2,204.4 			"/>
			<rect x="155.7" y="202.9" class="st2" width="1.5" height="1.5"/>
			<rect x="157.3" y="201.4" class="st2" width="1.5" height="1.5"/>
			<rect x="158.8" y="199.9" class="st2" width="1.5" height="1.5"/>
			<rect x="160.3" y="198.3" class="st2" width="1.5" height="1.5"/>
			<rect x="161.8" y="196.8" class="st2" width="1.5" height="1.5"/>
			<rect x="163.4" y="195.3" class="st2" width="1.5" height="1.5"/>
			<rect x="164.9" y="193.8" class="st2" width="1.5" height="1.5"/>
			<rect x="166.4" y="192.2" class="st2" width="1.5" height="1.5"/>
			<rect x="167.9" y="190.7" class="st2" width="1.5" height="1.5"/>
			<rect x="128.3" y="225.8" class="st2" width="1.5" height="1.5"/>
			<rect x="129.8" y="224.3" class="st2" width="1.5" height="1.5"/>
			<rect x="131.3" y="222.8" class="st2" width="1.5" height="1.5"/>
			<polygon class="st2" points="132.8,221.2 132.8,222.8 134.4,222.8 135.9,222.8 135.9,221.2 134.4,221.2 			"/>
			<rect x="154.2" y="154.1" class="st2" width="1.5" height="1.5"/>
			<rect x="155.7" y="152.5" class="st2" width="1.5" height="1.5"/>
			<rect x="157.3" y="151" class="st2" width="1.5" height="1.5"/>
			<rect x="137.4" y="54.9" class="st2" width="1.5" height="1.5"/>
			<polygon class="st2" points="160.3,251.7 158.8,251.7 158.8,248.7 157.3,248.7 157.3,245.6 155.7,245.6 155.7,244.1 154.2,244.1 
				154.2,239.5 152.7,239.5 152.7,238 151.2,238 151.2,231.9 149.6,231.9 149.6,230.4 149.6,216.6 151.2,216.6 151.2,213.6 
				149.6,213.6 149.6,178.5 149.6,173.9 149.6,161.7 149.6,160.2 151.2,160.2 151.2,158.6 152.7,158.6 152.7,157.1 154.2,157.1 
				154.2,155.6 152.7,155.6 151.2,155.6 151.2,157.1 149.6,157.1 148.1,157.1 148.1,151 148.1,128.1 148.1,126.6 149.6,126.6 
				149.6,123.5 151.2,123.5 151.2,122 152.7,122 155.7,122 155.7,120.5 157.3,120.5 157.3,119 158.8,119 158.8,117.4 158.8,115.9 
				158.8,114.4 158.8,109.8 158.8,108.3 160.3,108.3 160.3,103.7 158.8,103.7 158.8,105.2 157.3,105.2 157.3,103.7 157.3,100.7 
				158.8,100.7 158.8,99.1 158.8,97.6 157.3,97.6 157.3,99.1 155.7,99.1 155.7,96.1 157.3,96.1 157.3,91.5 155.7,91.5 155.7,90 
				154.2,90 154.2,88.4 155.7,88.4 155.7,86.9 157.3,86.9 157.3,85.4 157.3,83.9 157.3,80.8 155.7,80.8 155.7,82.3 154.2,82.3 
				154.2,79.3 155.7,79.3 155.7,77.8 157.3,77.8 157.3,73.2 155.7,73.2 155.7,70.1 154.2,70.1 154.2,71.7 152.7,71.7 152.7,70.1 
				152.7,68.6 154.2,68.6 154.2,67.1 155.7,67.1 155.7,61 154.2,61 154.2,62.5 152.7,62.5 152.7,59.4 151.2,59.4 151.2,57.9 
				152.7,57.9 152.7,56.4 154.2,56.4 154.2,54.9 154.2,50.3 152.7,50.3 152.7,45.7 151.2,45.7 151.2,42.7 149.6,42.7 149.6,38.1 
				148.1,38.1 148.1,36.6 146.6,36.6 146.6,38.1 145.1,38.1 145.1,41.1 143.5,41.1 143.5,45.7 142,45.7 142,50.3 140.5,50.3 
				140.5,48.8 139,48.8 139,53.3 140.5,53.3 140.5,56.4 139,56.4 139,59.4 139,61 140.5,61 140.5,62.5 139,62.5 137.4,62.5 
				137.4,65.6 139,65.6 139,67.1 137.4,67.1 137.4,68.6 139,68.6 139,71.7 137.4,71.7 137.4,73.2 137.4,74.7 139,74.7 139,77.8 
				140.5,77.8 140.5,79.3 140.5,80.8 139,80.8 139,82.3 139,83.9 140.5,83.9 140.5,85.4 139,85.4 139,86.9 139,88.4 140.5,88.4 
				140.5,91.5 139,91.5 137.4,91.5 135.9,91.5 135.9,96.1 137.4,96.1 137.4,97.6 139,97.6 139,99.1 137.4,99.1 135.9,99.1 
				135.9,102.2 135.9,103.7 137.4,103.7 137.4,105.2 135.9,105.2 135.9,109.8 135.9,112.9 137.4,112.9 137.4,117.4 139,117.4 
				139,119 139,120.5 140.5,120.5 140.5,122 145.1,122 145.1,123.5 146.6,123.5 146.6,126.6 146.6,128.1 146.6,151 146.6,155.6 
				145.1,155.6 145.1,157.1 145.1,160.2 145.1,161.7 146.6,161.7 146.6,163.2 146.6,173.9 146.6,178.5 146.6,218.2 145.1,218.2 
				143.5,218.2 143.5,216.6 140.5,216.6 140.5,215.1 139,215.1 139,213.6 137.4,213.6 137.4,212.1 135.9,212.1 135.9,210.5 
				134.4,210.5 134.4,209 132.8,209 132.8,206 131.3,206 131.3,204.4 129.8,204.4 129.8,202.9 128.3,202.9 128.3,201.4 126.7,201.4 
				126.7,204.4 128.3,204.4 128.3,206 129.8,206 129.8,207.5 129.8,209 131.3,209 131.3,210.5 132.8,210.5 132.8,212.1 134.4,212.1 
				134.4,213.6 135.9,213.6 135.9,215.1 137.4,215.1 137.4,216.6 139,216.6 139,218.2 140.5,218.2 140.5,219.7 135.9,219.7 
				135.9,221.2 140.5,221.2 142,221.2 145.1,221.2 145.1,222.8 146.6,222.8 146.6,230.4 146.6,236.5 148.1,236.5 148.1,241.1 
				149.6,241.1 149.6,244.1 151.2,244.1 151.2,247.2 152.7,247.2 152.7,250.2 154.2,250.2 154.2,253.3 155.7,253.3 155.7,254.8 
				157.3,254.8 157.3,256.3 158.8,256.3 160.3,256.3 161.8,256.3 161.8,254.8 161.8,253.3 160.3,253.3 			"/>
			<rect x="96.2" y="155.6" class="st2" width="1.5" height="1.5"/>
			<polygon class="st2" points="111.5,164.8 113,164.8 113,163.2 116.1,163.2 116.1,152.5 116.1,149.5 116.1,143.4 116.1,140.3 
				114.5,140.3 113,140.3 113,137.3 114.5,137.3 114.5,134.2 113,134.2 113,135.8 111.5,135.8 111.5,129.7 110,129.7 110,125.1 
				108.4,125.1 108.4,122 108.4,120.5 106.9,120.5 106.9,122 105.4,122 105.4,119 103.8,119 103.8,120.5 102.3,120.5 102.3,122 
				102.3,123.5 100.8,123.5 100.8,126.6 99.3,126.6 99.3,131.2 100.8,131.2 100.8,132.7 99.3,132.7 99.3,137.3 99.3,138.8 
				97.7,138.8 97.7,143.4 96.2,143.4 96.2,144.9 97.7,144.9 97.7,146.4 97.7,149.5 97.7,152.5 99.3,152.5 100.8,152.5 100.8,154.1 
				99.3,154.1 99.3,157.1 97.7,157.1 97.7,158.6 99.3,158.6 99.3,160.2 97.7,160.2 97.7,161.7 99.3,161.7 99.3,161.7 103.8,161.7 
				103.8,163.2 105.4,163.2 105.4,164.8 108.4,164.8 108.4,166.3 110,166.3 110,167.8 111.5,167.8 111.5,166.3 			"/>
			<rect x="125.2" y="198.3" class="st2" width="1.5" height="3.1"/>
			<polygon class="st2" points="122.2,189.2 120.6,189.2 120.6,186.1 119.1,186.1 119.1,183.1 117.6,183.1 117.6,178.5 116.1,178.5 
				116.1,175.4 114.5,175.4 114.5,172.4 114.5,170.9 113,170.9 113,167.8 111.5,167.8 111.5,170.9 111.5,172.4 113,172.4 113,177 
				114.5,177 114.5,181.5 116.1,181.5 116.1,183.1 116.1,184.6 117.6,184.6 117.6,186.1 117.6,187.6 116.1,187.6 116.1,189.2 
				117.6,189.2 119.1,189.2 119.1,190.7 120.6,190.7 120.6,192.2 120.6,193.8 122.2,193.8 122.2,192.2 			"/>
			<polygon class="st2" points="123.7,195.3 123.7,193.8 122.2,193.8 122.2,196.8 123.7,196.8 123.7,198.3 125.2,198.3 125.2,195.3 
							"/>
			<polygon class="st2" points="114.5,186.1 113,186.1 106.9,186.1 105.4,186.1 103.8,186.1 102.3,186.1 100.8,186.1 100.8,187.6 
				102.3,187.6 103.8,187.6 105.4,187.6 106.9,187.6 113,187.6 114.5,187.6 116.1,187.6 116.1,186.1 			"/>
			<rect x="97.7" y="189.2" class="st2" width="1.5" height="1.5"/>
			<rect x="96.2" y="190.7" class="st2" width="1.5" height="1.5"/>
			<rect x="94.7" y="192.2" class="st2" width="1.5" height="1.5"/>
			<rect x="93.2" y="193.8" class="st2" width="1.5" height="1.5"/>
			<rect x="91.6" y="195.3" class="st2" width="1.5" height="1.5"/>
			<rect x="99.3" y="187.6" class="st2" width="1.5" height="1.5"/>
		</g>
		<polygon class="st2" points="145.1,148 145.1,146.4 143.5,146.4 142,146.4 140.5,146.4 140.5,144.9 139,144.9 137.4,144.9 
			137.4,146.4 139,146.4 139,148 140.5,148 140.5,149.5 142,149.5 142,151 143.5,151 145.1,151 145.1,152.5 146.6,152.5 146.6,151 
			146.6,149.5 146.6,148 		"/>
		<g>
			<rect x="158.8" y="140.3" class="st2" width="1.5" height="1.5"/>
			<rect x="157.3" y="141.9" class="st2" width="1.5" height="1.5"/>
			<polygon class="st2" points="154.2,143.4 154.2,144.9 152.7,144.9 151.2,144.9 151.2,146.4 149.6,146.4 149.6,148 148.1,148 
				148.1,154.1 149.6,154.1 149.6,152.5 151.2,152.5 151.2,151 152.7,151 152.7,149.5 154.2,149.5 154.2,148 155.7,148 155.7,144.9 
				157.3,144.9 157.3,143.4 155.7,143.4 			"/>
		</g>
		<rect x="148.1" y="65.6" class="st1" width="1.5" height="3.1"/>
		<rect x="148.1" y="56.4" class="st1" width="1.5" height="6.1"/>
		<rect x="149.6" y="48.8" class="st1" width="1.5" height="3.1"/>
		<rect x="146.6" y="47.2" class="st1" width="1.5" height="1.5"/>
		<rect x="149.6" y="70.1" class="st1" width="3.1" height="7.6"/>
		<rect x="149.6" y="65.6" class="st1" width="1.5" height="1.5"/>
		<rect x="151.2" y="90" class="st1" width="3.1" height="7.6"/>
		<rect x="149.6" y="91.5" class="st1" width="3.1" height="3.1"/>
		<rect x="146.6" y="106.8" class="st1" width="1.5" height="4.6"/>
		<rect x="142" y="97.6" class="st1" width="1.5" height="3.1"/>
		<rect x="143.5" y="90" class="st1" width="1.5" height="3.1"/>
		<rect x="155.7" y="105.2" class="st1" width="3.1" height="4.6"/>
		<rect x="151.2" y="103.7" class="st1" width="3.1" height="6.1"/>
		<rect x="145.1" y="76.2" class="st3" width="1.5" height="10.7"/>
		<rect x="149.6" y="80.8" class="st1" width="4.6" height="9.2"/>
		<rect x="148.1" y="62.5" class="st1" width="1.5" height="4.6"/>
		<rect x="148.1" y="51.8" class="st1" width="1.5" height="6.1"/>
		<rect x="146.6" y="38.1" class="st4" width="1.5" height="3.1"/>
		<rect x="140.5" y="56.4" class="st4" width="1.5" height="3.1"/>
		<rect x="139" y="50.3" class="st4" width="1.5" height="1.5"/>
		<rect x="142" y="45.7" class="st4" width="1.5" height="3.1"/>
		<rect x="145.1" y="44.2" class="st4" width="1.5" height="1.5"/>
		<rect x="148.1" y="42.7" class="st4" width="1.5" height="3.1"/>
		<rect x="139" y="67.1" class="st4" width="1.5" height="3.1"/>
		<rect x="139" y="64" class="st4" width="1.5" height="1.5"/>
		<rect x="142" y="61" class="st4" width="1.5" height="3.1"/>
		<rect x="143.5" y="94.5" class="st4" width="1.5" height="3.1"/>
		<rect x="139" y="85.4" class="st4" width="1.5" height="1.5"/>
		<rect x="140.5" y="86.9" class="st4" width="1.5" height="1.5"/>
		<rect x="139" y="73.2" class="st4" width="1.5" height="3.1"/>
		<rect x="152.7" y="71.7" class="st4" width="1.5" height="1.5"/>
		<rect x="151.2" y="59.4" class="st4" width="1.5" height="3.1"/>
		<rect x="152.7" y="50.3" class="st4" width="1.5" height="3.1"/>
		<rect x="145.1" y="99.1" class="st4" width="1.5" height="4.6"/>
		<rect x="149.6" y="111.3" class="st4" width="1.5" height="3.1"/>
		<rect x="146.6" y="74.7" class="st1" width="1.5" height="12.2"/>
		<g>
			<polygon class="st5" points="152.7,86.9 151.2,86.9 151.2,85.4 152.7,85.4 152.7,83.9 152.7,82.3 151.2,82.3 151.2,80.8 
				149.6,80.8 149.6,82.3 148.1,82.3 148.1,83.9 148.1,85.4 149.6,85.4 149.6,86.9 148.1,86.9 146.6,86.9 146.6,88.4 148.1,88.4 
				148.1,91.5 149.6,91.5 149.6,93 151.2,93 151.2,91.5 152.7,91.5 152.7,88.4 154.2,88.4 154.2,86.9 			"/>
			<polygon class="st5" points="146.6,80.8 146.6,79.3 145.1,79.3 145.1,77.8 146.6,77.8 146.6,76.2 146.6,73.2 145.1,73.2 
				145.1,71.7 143.5,71.7 143.5,73.2 142,73.2 142,74.7 142,77.8 143.5,77.8 143.5,79.3 140.5,79.3 140.5,80.8 139,80.8 139,82.3 
				140.5,82.3 140.5,83.9 142,83.9 142,85.4 145.1,85.4 145.1,83.9 146.6,83.9 146.6,82.3 148.1,82.3 148.1,80.8 			"/>
			<polygon class="st6" points="143.5,76.2 143.5,79.3 142,79.3 142,80.8 143.5,80.8 143.5,82.3 145.1,82.3 145.1,80.8 145.1,79.3 
				145.1,76.2 			"/>
			<rect x="143.5" y="77.8" class="st7" width="1.5" height="1.5"/>
			<polygon class="st6" points="151.2,85.4 151.2,83.9 149.6,83.9 149.6,85.4 149.6,85.4 149.6,86.9 149.6,86.9 149.6,90 151.2,90 
				151.2,86.9 151.2,86.9 151.2,85.4 			"/>
			<rect x="149.6" y="85.4" class="st7" width="1.5" height="1.5"/>
			<rect x="158.8" y="85.4" class="st5" width="1.5" height="6.1"/>
			<rect x="157.3" y="88.4" class="st5" width="1.5" height="3.1"/>
			<rect x="155.7" y="90" class="st5" width="1.5" height="3.1"/>
			<rect x="157.3" y="93" class="st5" width="1.5" height="4.6"/>
			<rect x="157.3" y="91.5" class="st5" width="1.5" height="1.5"/>
			<rect x="158.8" y="91.5" class="st5" width="1.5" height="6.1"/>
			<rect x="160.3" y="93" class="st5" width="1.5" height="4.6"/>
			<rect x="160.3" y="85.4" class="st5" width="1.5" height="4.6"/>
			<rect x="158.8" y="90" class="st6" width="1.5" height="3.1"/>
			<rect x="157.3" y="91.5" class="st6" width="1.5" height="1.5"/>
			<polygon class="st5" points="157.3,111.3 157.3,109.8 157.3,106.8 155.7,106.8 155.7,105.2 154.2,105.2 154.2,106.8 152.7,106.8 
				152.7,109.8 154.2,109.8 154.2,111.3 152.7,111.3 152.7,114.4 154.2,114.4 154.2,115.9 155.7,115.9 155.7,117.4 157.3,117.4 
				157.3,115.9 158.8,115.9 158.8,111.3 			"/>
			<polygon class="st5" points="146.6,111.3 146.6,109.8 146.6,106.8 146.6,105.2 145.1,105.2 143.5,105.2 143.5,106.8 142,106.8 
				142,109.8 143.5,109.8 143.5,111.3 140.5,111.3 140.5,114.4 142,114.4 142,115.9 143.5,115.9 143.5,117.4 145.1,117.4 
				145.1,115.9 146.6,115.9 146.6,114.4 148.1,114.4 148.1,111.3 			"/>
			<polygon class="st6" points="154.2,108.3 154.2,111.3 155.7,111.3 155.7,112.9 157.3,112.9 157.3,108.3 			"/>
			<rect x="155.7" y="109.8" class="st7" width="1.5" height="1.5"/>
			<polygon class="st6" points="146.6,109.8 145.1,109.8 145.1,108.3 143.5,108.3 143.5,109.8 143.5,111.3 143.5,112.9 145.1,112.9 
				145.1,111.3 146.6,111.3 			"/>
			<rect x="143.5" y="109.8" class="st7" width="1.5" height="1.5"/>
			<polygon class="st5" points="139,102.2 139,100.7 137.4,100.7 137.4,99.1 135.9,99.1 135.9,100.7 134.4,100.7 134.4,103.7 
				135.9,103.7 135.9,105.2 137.4,105.2 137.4,106.8 135.9,106.8 135.9,108.3 134.4,108.3 134.4,109.8 135.9,109.8 135.9,111.3 
				137.4,111.3 139,111.3 140.5,111.3 140.5,109.8 140.5,108.3 140.5,106.8 140.5,103.7 140.5,102.2 			"/>
			<polygon class="st5" points="142,117.4 142,115.9 140.5,115.9 140.5,115.9 140.5,114.4 139,114.4 139,112.9 137.4,112.9 
				135.9,112.9 135.9,114.4 135.9,115.9 137.4,115.9 139,115.9 139,115.9 137.4,115.9 137.4,119 139,119 139,120.5 140.5,120.5 
				142,120.5 143.5,120.5 143.5,117.4 			"/>
			<rect x="139" y="115.9" class="st6" width="1.5" height="3.1"/>
			<rect x="139" y="115.9" class="st7" width="1.5" height="1.5"/>
			<rect x="137.4" y="115.9" class="st6" width="1.5" height="1.5"/>
			<polygon class="st6" points="140.5,105.2 139,105.2 139,103.7 137.4,103.7 137.4,105.2 137.4,106.8 137.4,108.3 139,108.3 
				139,106.8 140.5,106.8 			"/>
			<rect x="137.4" y="105.2" class="st7" width="1.5" height="1.5"/>
		</g>
		<rect x="148.1" y="85.4" class="st3" width="1.5" height="1.5"/>
		<rect x="149.6" y="77.8" class="st3" width="1.5" height="3.1"/>
		<rect x="148.1" y="68.6" class="st4" width="1.5" height="4.6"/>
		<rect x="148.1" y="56.4" class="st3" width="1.5" height="4.6"/>
		<rect x="149.6" y="47.2" class="st3" width="1.5" height="4.6"/>
		<rect x="151.2" y="45.7" class="st1" width="1.5" height="4.2"/>
		<rect x="145.1" y="56.4" class="st4" width="1.5" height="3.1"/>
		<rect x="143.5" y="51.8" class="st4" width="1.5" height="1.5"/>
		<rect x="135.9" y="91.5" class="st4" width="1.5" height="1.5"/>
		<rect x="137.4" y="93" class="st4" width="1.5" height="1.5"/>
		<rect x="135.9" y="111.3" class="st3" width="4.6" height="1.5"/>
		<rect x="151.2" y="114.4" class="st3" width="3.1" height="3.1"/>
		<rect x="157.3" y="106.8" class="st3" width="1.5" height="4.6"/>
		<rect x="149.6" y="109.8" class="st3" width="4.6" height="1.5"/>
		<rect x="151.2" y="106.8" class="st3" width="1.5" height="3.1"/>
		<rect x="151.2" y="111.3" class="st3" width="1.5" height="1.5"/>
		<rect x="146.6" y="109.8" class="st3" width="1.5" height="1.5"/>
		<rect x="140.5" y="106.8" class="st3" width="1.5" height="4.6"/>
		<rect x="154.2" y="115.9" class="st3" width="1.5" height="3.1"/>
		<rect x="157.3" y="115.9" class="st4" width="1.5" height="1.5"/>
		<rect x="148.1" y="109.8" class="st1" width="1.5" height="9.2"/>
		<rect x="139" y="112.9" class="st1" width="1.5" height="1.5"/>
		<rect x="140.5" y="114.4" class="st1" width="1.5" height="1.5"/>
		<rect x="142" y="115.9" class="st1" width="1.5" height="1.5"/>
		<rect x="142" y="109.8" class="st1" width="1.5" height="1.5"/>
		<rect x="143.5" y="117.4" class="st1" width="1.5" height="3.1"/>
		<rect x="146.6" y="114.4" class="st1" width="1.5" height="3.1"/>
		<rect x="145.1" y="115.9" class="st1" width="3.1" height="6.1"/>
		<rect x="148.1" y="119" class="st1" width="1.5" height="4.6"/>
		<rect x="140.5" y="114.4" class="st3" width="1.5" height="1.5"/>
		<rect x="145.1" y="115.9" class="st3" width="1.5" height="3.1"/>
		<rect x="143.5" y="117.4" class="st3" width="3.1" height="1.5"/>
		<rect x="145.1" y="119" class="st3" width="1.5" height="3.1"/>
		<rect x="155.7" y="80.8" class="st4" width="1.5" height="3.1"/>
		<rect x="154.2" y="70.1" class="st4" width="1.5" height="1.5"/>
		<rect x="143.5" y="67.1" class="st4" width="1.5" height="3.1"/>
		<rect x="154.2" y="61" class="st4" width="1.5" height="1.5"/>
		<rect x="157.3" y="97.6" class="st4" width="1.5" height="1.5"/>
		<rect x="154.2" y="90" class="st4" width="1.5" height="1.5"/>
		<rect x="158.8" y="103.7" class="st4" width="1.5" height="3.1"/>
		<rect x="140.5" y="100.7" class="st4" width="1.5" height="1.5"/>
		<rect x="151.2" y="96.1" class="st3" width="1.5" height="4.6"/>
		<rect x="148.1" y="93" class="st3" width="1.5" height="3.1"/>
		<rect x="149.6" y="103.7" class="st3" width="1.5" height="1.5"/>
		<rect x="146.6" y="100.7" class="st1" width="1.5" height="4.6"/>
		<rect x="139" y="96.1" class="st1" width="1.5" height="1.5"/>
		<rect x="142" y="88.4" class="st1" width="1.5" height="1.5"/>
		<rect x="140.5" y="70.1" class="st1" width="1.5" height="1.5"/>
		<rect x="142" y="71.7" class="st1" width="1.5" height="1.5"/>
		<rect x="140.5" y="65.6" class="st1" width="1.5" height="1.5"/>
		<rect x="145.1" y="59.4" class="st1" width="1.5" height="1.5"/>
		<rect x="146.6" y="61" class="st1" width="1.5" height="1.5"/>
		<rect x="145.1" y="53.3" class="st1" width="1.5" height="1.5"/>
		<rect x="146.6" y="54.9" class="st1" width="1.5" height="1.5"/>
		<rect x="140.5" y="51.8" class="st1" width="1.5" height="1.5"/>
		<rect x="142" y="59.4" class="st1" width="1.5" height="1.5"/>
		<rect x="143.5" y="64" class="st1" width="1.5" height="1.5"/>
		<rect x="146.6" y="41.1" class="st1" width="1.5" height="1.5"/>
		<rect x="146.6" y="45.7" class="st1" width="1.5" height="1.5"/>
		<rect x="151.2" y="53.3" class="st1" width="1.5" height="1.5"/>
		<rect x="152.7" y="64" class="st1" width="1.5" height="3.1"/>
		<rect x="151.2" y="67.1" class="st3" width="3.1" height="1.5"/>
		<rect x="152.7" y="77.8" class="st3" width="3.1" height="1.5"/>
		<rect x="154.2" y="86.9" class="st3" width="1.5" height="1.5"/>
		<rect x="152.7" y="91.5" class="st3" width="1.5" height="1.5"/>
		<rect x="152.7" y="83.9" class="st3" width="1.5" height="3.1"/>
		<rect x="154.2" y="99.1" class="st4" width="1.5" height="3.1"/>
		<rect x="148.1" y="97.6" class="st4" width="1.5" height="1.5"/>
		<rect x="145.1" y="86.9" class="st4" width="1.5" height="1.5"/>
		<rect x="146.6" y="65.6" class="st4" width="1.5" height="1.5"/>
		<rect x="145.1" y="38.1" class="st4" width="1.5" height="1.5"/>
		<rect x="148.1" y="36.6" class="st4" width="1.5" height="1.5"/>
		<rect x="140.5" y="91.5" class="st4" width="1.5" height="1.5"/>
		<rect x="149.6" y="115.9" class="st4" width="1.5" height="1.5"/>
		<rect x="148.1" y="119" class="st4" width="3.1" height="1.5"/>
		<rect x="148.1" y="120.5" class="st3" width="1.5" height="4.6"/>
		<rect x="146.6" y="114.4" class="st3" width="1.5" height="3.1"/>
		<rect x="145.1" y="68.6" class="st1" width="1.5" height="4.6"/>
		<rect x="139" y="54.9" class="st4" width="1.5" height="1.5"/>
		<rect x="151.2" y="74.7" class="st2" width="3.1" height="1.5"/>
		<rect x="154.2" y="76.2" class="st1" width="1.5" height="1.5"/>
		<rect x="149.6" y="71.7" class="st3" width="1.5" height="1.5"/>
		<g>
			<rect x="158.8" y="140.3" class="st4" width="1.5" height="1.5"/>
			<rect x="157.3" y="141.9" class="st4" width="1.5" height="1.5"/>
			<rect x="155.7" y="143.4" class="st4" width="1.5" height="1.5"/>
		</g>
		<polygon class="st4" points="140.5,146.4 140.5,144.9 139,144.9 137.4,144.9 137.4,146.4 139,146.4 139,148 140.5,148 142,148 
			142,146.4 		"/>
		<rect x="137.4" y="157.1" class="st3" width="7.6" height="1.5"/>
		<rect x="142" y="154.1" class="st3" width="3.1" height="3.1"/>
		<rect x="137.4" y="152.5" class="st3" width="1.5" height="1.5"/>
		<rect x="143.5" y="152.5" class="st3" width="1.5" height="1.5"/>
		<rect x="132.8" y="151" class="st3" width="1.5" height="1.5"/>
		<rect x="134.4" y="148" class="st3" width="1.5" height="1.5"/>
		<rect x="140.5" y="152.5" class="st3" width="1.5" height="1.5"/>
		<rect x="139" y="151" class="st3" width="1.5" height="1.5"/>
		<rect x="135.9" y="155.6" class="st3" width="1.5" height="1.5"/>
		<rect x="142" y="143.4" class="st3" width="1.5" height="1.5"/>
		<rect x="152.7" y="157.1" class="st3" width="3.1" height="1.5"/>
		<rect x="155.7" y="155.6" class="st3" width="1.5" height="1.5"/>
		<rect x="154.2" y="152.5" class="st3" width="1.5" height="1.5"/>
		<rect x="166.4" y="151" class="st3" width="1.5" height="1.5"/>
		<rect x="172.5" y="152.5" class="st3" width="1.5" height="1.5"/>
		<rect x="158.8" y="149.5" class="st2" width="1.5" height="1.5"/>
		<rect x="160.3" y="148" class="st2" width="1.5" height="1.5"/>
		<rect x="160.3" y="148" class="st2" width="4.6" height="1.5"/>
		<rect x="166.4" y="160.2" class="st3" width="1.5" height="1.5"/>
		<rect x="155.7" y="157.1" class="st3" width="1.5" height="3.1"/>
		<rect x="154.2" y="155.6" class="st3" width="4.6" height="1.5"/>
		<rect x="152.7" y="152.5" class="st3" width="1.5" height="3.1"/>
		<rect x="157.3" y="158.6" class="st3" width="3.1" height="1.5"/>
		<rect x="158.8" y="158.6" class="st3" width="1.5" height="3.1"/>
		<rect x="163.4" y="158.6" class="st3" width="1.5" height="1.5"/>
		<rect x="160.3" y="160.2" class="st3" width="3.1" height="1.5"/>
		<rect x="169.5" y="143.4" class="st3" width="1.5" height="1.5"/>
		<rect x="129.6" y="137.3" class="st4" width="1.5" height="1.5"/>
		<rect x="163.4" y="146.4" class="st4" width="6.1" height="1.5"/>
		<rect x="132.8" y="140.3" class="st4" width="1.5" height="1.5"/>
		<rect x="149.6" y="207.5" class="st3" width="1.5" height="6.1"/>
		<rect x="151.2" y="212.1" class="st3" width="1.5" height="3.1"/>
		<rect x="152.7" y="212.1" class="st3" width="9.2" height="1.5"/>
		<rect x="152.7" y="213.6" class="st3" width="15.3" height="1.5"/>
		<rect x="154.2" y="215.1" class="st3" width="10.7" height="1.5"/>
		<rect x="169.5" y="202.9" class="st3" width="1.5" height="1.5"/>
		<rect x="154.2" y="192.2" class="st3" width="1.5" height="1.5"/>
		<rect x="164.9" y="206" class="st3" width="1.5" height="3.1"/>
		<rect x="167.9" y="210.5" class="st3" width="1.5" height="3.1"/>
		<rect x="171" y="212.1" class="st3" width="3.1" height="1.5"/>
		<rect x="172.5" y="207.5" class="st3" width="1.5" height="1.5"/>
		<rect x="180.2" y="186.1" class="st3" width="1.5" height="1.5"/>
		<rect x="178.6" y="193.8" class="st3" width="1.5" height="1.5"/>
		<rect x="176.3" y="202.2" class="st3" width="1.5" height="1.5"/>
		<rect x="155.7" y="209" class="st3" width="4.6" height="1.5"/>
		<rect x="164.9" y="184.6" class="st4" width="3.1" height="1.5"/>
		<rect x="169.5" y="181.5" class="st4" width="4.6" height="1.5"/>
		<rect x="178.6" y="181.5" class="st4" width="1.5" height="1.5"/>
		<rect x="158.8" y="192.2" class="st4" width="1.5" height="1.5"/>
		<rect x="142" y="221.2" class="st3" width="3.1" height="1.5"/>
		<rect x="145.1" y="222.8" class="st3" width="1.5" height="18.3"/>
		<rect x="143.5" y="242.6" class="st3" width="1.5" height="1.5"/>
		<rect x="142" y="244.1" class="st3" width="1.5" height="1.5"/>
		<rect x="140.5" y="245.6" class="st3" width="1.5" height="1.5"/>
		<rect x="137.4" y="245.6" class="st3" width="1.5" height="3.1"/>
		<rect x="139" y="239.5" class="st3" width="1.5" height="1.5"/>
		<rect x="142" y="239.5" class="st3" width="1.5" height="1.5"/>
		<rect x="140.5" y="242.6" class="st3" width="1.5" height="1.5"/>
		<rect x="142" y="228.9" class="st3" width="1.5" height="1.5"/>
		<rect x="140.5" y="233.4" class="st3" width="1.5" height="1.5"/>
		<rect x="139" y="224.3" class="st3" width="1.5" height="1.5"/>
		<rect x="143.5" y="222.8" class="st3" width="1.5" height="3.1"/>
		<rect x="143.5" y="238" class="st3" width="1.5" height="4.6"/>
		<rect x="139" y="245.6" class="st3" width="1.5" height="1.5"/>
		<rect x="135.9" y="248.7" class="st3" width="1.5" height="3.1"/>
		<rect x="134.4" y="244.1" class="st3" width="1.5" height="1.5"/>
		<rect x="134.4" y="235" class="st3" width="1.5" height="1.5"/>
		<rect x="129.8" y="250.2" class="st3" width="1.5" height="1.5"/>
		<rect x="126.7" y="257.9" class="st3" width="1.5" height="1.5"/>
		<rect x="126.7" y="264" class="st3" width="1.5" height="3.1"/>
		<rect x="123.7" y="271.6" class="st3" width="1.5" height="1.5"/>
		<rect x="131.3" y="254.8" class="st3" width="1.5" height="1.5"/>
		<rect x="122.2" y="265.5" class="st3" width="1.5" height="1.5"/>
		<rect x="111.5" y="242.6" class="st4" width="1.5" height="3.1"/>
		<rect x="113" y="239.5" class="st4" width="1.5" height="3.1"/>
		<rect x="113" y="247.2" class="st4" width="1.5" height="1.5"/>
		<rect x="126.7" y="227.3" class="st2" width="1.5" height="1.5"/>
		<rect x="125.2" y="228.9" class="st2" width="1.5" height="1.5"/>
		<rect x="123.7" y="230.4" class="st2" width="1.5" height="3.1"/>
		<rect x="122.2" y="233.4" class="st2" width="1.5" height="1.5"/>
		<rect x="120.6" y="235" class="st2" width="1.5" height="4.6"/>
		<rect x="116.1" y="189.2" class="st3" width="1.5" height="3.1"/>
		<rect x="114.5" y="192.2" class="st3" width="1.5" height="4.6"/>
		<rect x="111.5" y="196.8" class="st3" width="3.1" height="1.5"/>
		<rect x="105.4" y="193.8" class="st3" width="1.5" height="1.5"/>
		<rect x="99.3" y="198.3" class="st3" width="1.5" height="1.5"/>
		<rect x="105.4" y="199.9" class="st3" width="3.1" height="1.5"/>
		<rect x="110" y="198.3" class="st3" width="1.5" height="1.5"/>
		<rect x="110" y="189.2" class="st3" width="1.5" height="1.5"/>
		<rect x="88.6" y="190.7" class="st4" width="1.5" height="1.5"/>
		<rect x="87.1" y="195.3" class="st4" width="1.5" height="1.5"/>
		<rect x="113" y="195.3" class="st3" width="1.5" height="3.1"/>
		<rect x="106.9" y="198.3" class="st3" width="3.1" height="1.5"/>
		<rect x="110" y="195.3" class="st3" width="1.5" height="1.5"/>
		<rect x="100.8" y="192.2" class="st3" width="1.5" height="1.5"/>
		<rect x="85.5" y="196.8" class="st4" width="1.5" height="3.1"/>
		<rect x="140.5" y="93" class="st1" width="1.5" height="3.1"/>
		<rect x="140.5" y="88.4" class="st1" width="1.5" height="1.5"/>
		<rect x="140.5" y="76.2" class="st1" width="1.5" height="3.1"/>
		<rect x="142" y="53.3" class="st1" width="1.5" height="3.1"/>
		<rect x="140.5" y="59.4" class="st1" width="3.1" height="1.5"/>
		<rect x="148.1" y="64" class="st3" width="1.5" height="3.1"/>
		<rect x="146.6" y="53.3" class="st3" width="1.5" height="1.5"/>
		<rect x="146.6" y="91.5" class="st3" width="1.5" height="1.5"/>
		<rect x="146.6" y="90" class="st1" width="1.5" height="1.5"/>
		<rect x="148.1" y="91.5" class="st1" width="1.5" height="1.5"/>
		<rect x="154.2" y="85.4" class="st1" width="1.5" height="1.5"/>
		<rect x="155.7" y="73.2" class="st4" width="1.5" height="1.5"/>
		<rect x="142" y="102.2" class="st4" width="1.5" height="1.5"/>
		<rect x="103.8" y="119" class="st4" width="1.5" height="1.5"/>
		<rect x="102.3" y="135.8" class="st4" width="1.5" height="3.1"/>
		<rect x="102.3" y="129.7" class="st4" width="1.5" height="3.1"/>
		<rect x="99.3" y="128.1" class="st4" width="1.5" height="1.5"/>
		<rect x="100.8" y="123.5" class="st4" width="1.5" height="1.5"/>
		<rect x="97.7" y="140.3" class="st4" width="1.5" height="3.1"/>
		<rect x="102.3" y="141.9" class="st4" width="1.5" height="1.5"/>
		<rect x="114.5" y="151" class="st4" width="1.5" height="1.5"/>
		<rect x="97.7" y="149.5" class="st4" width="1.5" height="1.5"/>
		<rect x="105.4" y="132.7" class="st4" width="1.5" height="1.5"/>
		<rect x="105.4" y="126.6" class="st4" width="1.5" height="1.5"/>
		<rect x="103.8" y="120.5" class="st4" width="1.5" height="1.5"/>
		<rect x="108.4" y="141.9" class="st3" width="1.5" height="7.6"/>
		<rect x="110" y="140.3" class="st3" width="1.5" height="12.2"/>
		<rect x="111.5" y="144.9" class="st3" width="1.5" height="6.1"/>
		<rect x="113" y="149.5" class="st3" width="1.5" height="1.5"/>
		<rect x="108.4" y="154.1" class="st3" width="1.5" height="3.1"/>
		<rect x="110" y="154.1" class="st3" width="1.5" height="4.6"/>
		<rect x="116.1" y="155.6" class="st3" width="1.5" height="4.6"/>
		<rect x="102.3" y="154.1" class="st3" width="3.1" height="1.5"/>
		<rect x="102.3" y="155.6" class="st3" width="3.1" height="1.5"/>
		<rect x="100.8" y="149.5" class="st3" width="1.5" height="4.6"/>
		<rect x="102.3" y="144.9" class="st3" width="1.5" height="6.1"/>
		<rect x="97.7" y="146.4" class="st3" width="4.6" height="1.5"/>
		<rect x="106.9" y="137.3" class="st3" width="1.5" height="1.5"/>
		<rect x="108.4" y="135.8" class="st3" width="1.5" height="1.5"/>
		<rect x="105.4" y="129.7" class="st3" width="1.5" height="1.5"/>
		<rect x="106.9" y="131.2" class="st3" width="1.5" height="1.5"/>
		<rect x="108.4" y="128.1" class="st3" width="1.5" height="3.1"/>
		<rect x="103.8" y="126.6" class="st3" width="1.5" height="3.1"/>
		<rect x="105.4" y="125.1" class="st3" width="1.5" height="1.5"/>
		<rect x="103.8" y="143.4" class="st3" width="1.5" height="1.5"/>
		<rect x="105.4" y="141.9" class="st3" width="1.5" height="1.5"/>
		<rect x="108.4" y="158.6" class="st3" width="1.5" height="3.1"/>
		<rect x="111.5" y="161.7" class="st3" width="1.5" height="1.5"/>
		<rect x="110" y="160.2" class="st3" width="1.5" height="1.5"/>
		<rect x="114.5" y="155.6" class="st3" width="1.5" height="1.5"/>
		<rect x="113" y="144.9" class="st1" width="1.5" height="4.6"/>
		<rect x="110" y="141.9" class="st1" width="1.5" height="4.6"/>
		<rect x="102.3" y="143.4" class="st1" width="1.5" height="1.5"/>
		<rect x="103.8" y="141.9" class="st1" width="1.5" height="1.5"/>
		<rect x="99.3" y="141.9" class="st1" width="1.5" height="3.1"/>
		<rect x="102.3" y="138.8" class="st1" width="3.1" height="1.5"/>
		<rect x="103.8" y="137.3" class="st1" width="1.5" height="1.5"/>
		<rect x="103.8" y="132.7" class="st1" width="1.5" height="3.1"/>
		<rect x="106.9" y="134.2" class="st1" width="1.5" height="3.1"/>
		<rect x="105.4" y="128.1" class="st1" width="1.5" height="1.5"/>
		<rect x="103.8" y="122" class="st1" width="1.5" height="3.1"/>
		<rect x="106.9" y="126.6" class="st1" width="1.5" height="3.1"/>
		<rect x="100.8" y="129.7" class="st1" width="1.5" height="1.5"/>
		<rect x="100.8" y="125.1" class="st1" width="1.5" height="3.1"/>
		<rect x="110" y="154.1" class="st1" width="1.5" height="1.5"/>
		<rect x="110" y="148" class="st1" width="1.5" height="1.5"/>
		<rect x="102.3" y="148" class="st1" width="1.5" height="1.5"/>
		<rect x="99.3" y="149.5" class="st1" width="1.5" height="1.5"/>
		<rect x="100.8" y="152.5" class="st1" width="1.5" height="1.5"/>
		<rect x="102.3" y="154.1" class="st1" width="1.5" height="1.5"/>
		<rect x="111.5" y="157.1" class="st1" width="1.5" height="3.1"/>
		<rect x="113" y="155.6" class="st1" width="1.5" height="1.5"/>
		<rect x="114.5" y="152.5" class="st1" width="1.5" height="1.5"/>
		<g>
			<polygon class="st5" points="113,167.8 113,166.3 111.5,166.3 111.5,164.8 111.5,163.2 110,163.2 108.4,163.2 108.4,166.3 
				110,166.3 110,167.8 108.4,167.8 108.4,170.9 110,170.9 111.5,170.9 111.5,172.4 113,172.4 114.5,172.4 114.5,169.3 114.5,167.8 
							"/>
			<polygon class="st6" points="111.5,166.3 111.5,164.8 110,164.8 110,166.3 110,167.8 110,169.3 111.5,169.3 111.5,167.8 
				113,167.8 113,166.3 			"/>
			<polygon class="st5" points="108.4,149.5 108.4,146.4 106.9,146.4 106.9,144.9 105.4,144.9 105.4,146.4 103.8,146.4 103.8,149.5 
				103.8,151 102.3,151 102.3,152.5 102.3,154.1 105.4,154.1 105.4,155.6 106.9,155.6 108.4,155.6 108.4,154.1 110,154.1 110,152.5 
				110,151 110,149.5 			"/>
			<polygon class="st5" points="114.5,141.9 113,141.9 113,140.3 114.5,140.3 114.5,135.8 113,135.8 111.5,135.8 111.5,138.8 
				110,138.8 110,141.9 111.5,141.9 111.5,144.9 113,144.9 113,146.4 114.5,146.4 114.5,144.9 116.1,144.9 116.1,141.9 			"/>
			<rect x="111.5" y="138.8" class="st6" width="1.5" height="4.6"/>
			<rect x="111.5" y="140.3" class="st7" width="1.5" height="1.5"/>
			<polygon class="st6" points="108.4,149.5 106.9,149.5 106.9,148 105.4,148 105.4,149.5 105.4,151 105.4,152.5 106.9,152.5 
				106.9,151 108.4,151 			"/>
			<rect x="105.4" y="149.5" class="st7" width="1.5" height="1.5"/>
			<polygon class="st5" points="97.7,148 97.7,146.4 99.3,146.4 99.3,143.4 96.2,143.4 96.2,144.9 94.7,144.9 94.7,149.5 
				96.2,149.5 96.2,151 94.7,151 94.7,154.1 96.2,154.1 96.2,155.6 97.7,155.6 97.7,154.1 99.3,154.1 99.3,151 100.8,151 
				100.8,149.5 100.8,148 			"/>
			<polygon class="st6" points="94.7,148 94.7,149.5 96.2,149.5 96.2,151 97.7,151 97.7,149.5 97.7,148 			"/>
			<rect x="94.7" y="149.5" class="st7" width="1.5" height="1.5"/>
			<polygon class="st5" points="120.6,158.6 120.6,155.6 119.1,155.6 119.1,154.1 117.6,154.1 117.6,155.6 116.1,155.6 116.1,158.6 
				114.5,158.6 114.5,160.2 114.5,163.2 113,163.2 113,166.3 114.5,166.3 116.1,166.3 116.1,167.8 117.6,167.8 119.1,167.8 
				119.1,163.2 120.6,163.2 120.6,161.7 120.6,160.2 119.1,160.2 119.1,158.6 			"/>
			<rect x="116.1" y="158.6" class="st6" width="1.5" height="4.6"/>
			<rect x="116.1" y="160.2" class="st6" width="3.1" height="1.5"/>
			<rect x="116.1" y="160.2" class="st7" width="1.5" height="1.5"/>
			<polygon class="st5" points="108.4,157.1 106.9,157.1 105.4,157.1 103.8,157.1 103.8,158.6 103.8,160.2 105.4,160.2 105.4,161.7 
				106.9,161.7 106.9,163.2 108.4,163.2 108.4,160.2 110,160.2 110,158.6 110,157.1 			"/>
			<polygon class="st5" points="105.4,166.3 105.4,163.2 103.8,163.2 103.8,161.7 102.3,161.7 102.3,164.8 102.3,166.3 100.8,166.3 
				100.8,167.8 102.3,167.8 102.3,169.3 103.8,169.3 103.8,170.9 105.4,170.9 106.9,170.9 106.9,166.3 			"/>
			<rect x="110" y="166.3" class="st7" width="1.5" height="1.5"/>
			<polygon class="st6" points="106.9,157.1 105.4,157.1 105.4,158.6 106.9,158.6 106.9,160.2 108.4,160.2 108.4,158.6 108.4,157.1 
							"/>
			<rect x="106.9" y="157.1" class="st7" width="1.5" height="1.5"/>
			<polygon class="st6" points="103.8,164.8 103.8,166.3 102.3,166.3 102.3,167.8 103.8,167.8 105.4,167.8 105.4,166.3 105.4,164.8 
							"/>
			<rect x="103.8" y="166.3" class="st7" width="1.5" height="1.5"/>
		</g>
		<rect x="100.8" y="144.9" class="st1" width="1.5" height="4.6"/>
		<rect x="108.4" y="144.9" class="st1" width="1.5" height="1.5"/>
		<rect x="111.5" y="148" class="st1" width="1.5" height="4.6"/>
		<rect x="100.8" y="158.6" class="st1" width="3.1" height="3.1"/>
		<rect x="103.8" y="160.2" class="st1" width="1.5" height="3.1"/>
		<rect x="105.4" y="161.7" class="st1" width="1.5" height="3.1"/>
		<rect x="106.9" y="163.2" class="st1" width="1.5" height="1.5"/>
		<rect x="99.3" y="155.6" class="st1" width="1.5" height="1.5"/>
		<rect x="99.3" y="132.7" class="st4" width="1.5" height="3.1"/>
		<rect x="100.8" y="135.8" class="st1" width="1.5" height="1.5"/>
		<rect x="110" y="132.7" class="st1" width="1.5" height="4.6"/>
		<rect x="113" y="134.2" class="st4" width="1.5" height="1.5"/>
		<rect x="110" y="129.7" class="st4" width="1.5" height="1.5"/>
		<rect x="106.9" y="120.5" class="st4" width="1.5" height="1.5"/>
		<rect x="108.4" y="125.1" class="st4" width="1.5" height="1.5"/>
		<rect x="105.4" y="122" class="st4" width="1.5" height="1.5"/>
		<rect x="106.9" y="140.3" class="st4" width="1.5" height="1.5"/>
		<rect x="96.2" y="155.6" class="st4" width="1.5" height="1.5"/>
		<rect x="97.7" y="160.2" class="st4" width="1.5" height="1.5"/>
		<rect x="111.5" y="155.6" class="st4" width="1.5" height="1.5"/>
		<rect x="116.1" y="154.1" class="st4" width="1.5" height="1.5"/>
		<rect x="114.5" y="138.8" class="st4" width="1.5" height="1.5"/>
		<rect x="114.5" y="144.9" class="st4" width="1.5" height="1.5"/>
		<rect x="111.5" y="148" class="st2" width="1.5" height="3.1"/>
		<rect x="110" y="146.4" class="st2" width="1.5" height="1.5"/>
		<rect x="108.4" y="143.4" class="st2" width="3.1" height="1.5"/>
		<rect x="99.3" y="146.4" class="st2" width="3.1" height="1.5"/>
		<rect x="103.8" y="138.8" class="st2" width="1.5" height="1.5"/>
		<rect x="106.9" y="128.1" class="st2" width="3.1" height="1.5"/>
		<rect x="106.9" y="163.2" class="st3" width="1.5" height="4.6"/>
		<rect x="111.5" y="163.2" class="st3" width="1.5" height="3.1"/>
		<rect x="103.8" y="160.2" class="st3" width="1.5" height="3.1"/>
		<rect x="100.8" y="158.6" class="st3" width="1.5" height="1.5"/>
		<rect x="108.4" y="161.7" class="st1" width="3.1" height="1.5"/>
		<rect x="110" y="158.6" class="st1" width="1.5" height="1.5"/>
		<rect x="105.4" y="164.8" class="st1" width="1.5" height="1.5"/>
		<rect x="108.4" y="166.3" class="st1" width="1.5" height="1.5"/>
		<rect x="100.8" y="161.7" class="st1" width="1.5" height="3.1"/>
	</g>
</g>
<g id="GUIDES">
	<g>
		<path class="st312" d="M80.6,17.2h-1.7v-12h1.7v1.7h0.9v0.9h0.9v0.9H84V7.7h0.9V6.9h0.9V5.2h1.7v12h-1.7V9.5h-0.9v0.9H84V12h-1.7
			v-1.7h-0.9V9.5h-0.9V17.2z"/>
		<path class="st312" d="M90.9,6V5.2H96V6h0.9v0.9h0.9v8.6h-0.9v0.9H96v0.9h-5.1v-0.9H90v-0.9h-0.9V6.9H90V6H90.9z M95.1,6.9h-3.4
			v0.9h-0.9v6.9h0.9v0.9h3.4v-0.9H96V7.7h-0.9V6.9z"/>
		<path class="st312" d="M99.4,17.2v-12h6.9V6h0.9v0.9h0.9v8.6h-0.9v0.9h-0.9v0.9H99.4z M101.1,6.9v8.6h4.3v-0.9h0.9V7.7h-0.9V6.9
			H101.1z"/>
		<path class="st312" d="M118.3,5.2v1.7h-6.9v3.4h5.1V12h-5.1v3.4h6.9v1.7h-8.6v-12H118.3z"/>
		<path class="st312" d="M122.6,12h-0.9v5.1H120v-12h6.9V6h0.9v0.9h0.9v3.4h-0.9v0.9h-0.9V12h-1.7v0.9h0.9v0.9h0.9v0.9h0.9v0.9h0.9
			v1.7h-1.7v-0.9H126v-0.9h-0.9v-0.9h-0.9v-0.9h-0.9v-0.9h-0.9V12z M121.7,6.9v3.4h4.3V9.5h0.9V7.7H126V6.9H121.7z"/>
		<path class="st312" d="M132,10.3v6.9h-1.7v-12h1.7v2.6h0.9v0.9h0.9v0.9h0.9v0.9h0.9v0.9h0.9V12h0.9V5.2h1.7v12h-1.7v-2.6h-0.9
			v-0.9h-0.9v-0.9h-0.9V12h-0.9v-0.9h-0.9v-0.9H132z"/>
		<path class="st312" d="M159.4,5.2v1.7h-6.9v3.4h5.1V12h-5.1v5.1h-1.7v-12H159.4z"/>
		<path class="st312" d="M162.9,17.2h-1.7V8.6h0.9V7.7h0.9V6.9h0.9V6h0.9V5.2h1.7V6h0.9v0.9h0.9v0.9h0.9v0.9h0.9v8.6H168v-3.4h-5.1
			V17.2z M162.9,12h5.1V9.5h-0.9V8.6h-0.9V7.7h-1.7v0.9h-0.9v0.9h-0.9V12z"/>
		<path class="st312" d="M174,12h-0.9v5.1h-1.7v-12h6.9V6h0.9v0.9h0.9v3.4h-0.9v0.9h-0.9V12h-1.7v0.9h0.9v0.9h0.9v0.9h0.9v0.9h0.9
			v1.7h-1.7v-0.9h-0.9v-0.9h-0.9v-0.9h-0.9v-0.9h-0.9v-0.9H174V12z M173.1,6.9v3.4h4.3V9.5h0.9V7.7h-0.9V6.9H173.1z"/>
		<path class="st312" d="M183.4,17.2h-1.7v-12h1.7v1.7h0.9v0.9h0.9v0.9h1.7V7.7h0.9V6.9h0.9V5.2h1.7v12h-1.7V9.5h-0.9v0.9h-0.9V12
			h-1.7v-1.7h-0.9V9.5h-0.9V17.2z"/>
		<path class="st312" d="M193.7,17.2v-1.7h1.7V6.9h-1.7V5.2h5.1v1.7h-1.7v8.6h1.7v1.7H193.7z"/>
		<path class="st312" d="M204,10.3v6.9h-1.7v-12h1.7v2.6h0.9v0.9h0.9v0.9h0.9v0.9h0.9v0.9h0.9V12h0.9V5.2h1.7v12h-1.7v-2.6h-0.9
			v-0.9h-0.9v-0.9h-0.9V12h-0.9v-0.9h-0.9v-0.9H204z"/>
		<path class="st312" d="M220.3,6.9h0.9v1.7h-1.7V7.7h-0.9V6.9h-3.4v0.9h-0.9v6.9h0.9v0.9h3.4v-0.9h0.9V12h-2.6v-1.7h4.3v5.1h-0.9
			v0.9h-0.9v0.9h-5.1v-0.9h-0.9v-0.9h-0.9V6.9h0.9V6h0.9V5.2h5.1V6h0.9V6.9z"/>
	</g>
</g>
</svg>
