<?xml version="1.0" encoding="utf-8"?>
<!-- Generator: Adobe Illustrator 25.2.3, SVG Export Plug-In . SVG Version: 6.00 Build 0)  -->
<svg version="1.1" xmlns="http://www.w3.org/2000/svg" xmlns:xlink="http://www.w3.org/1999/xlink" x="0px" y="0px"
	 viewBox="0 0 300 350" style="enable-background:new 0 0 300 350;" xml:space="preserve">
<style type="text/css">
	.st0{opacity:0.46;}
	.st1{fill:#66890B;}
	.st2{fill:#95BC51;}
	.st3{fill:#3F6905;}
	.st4{fill:#CBE46E;}
	.st5{fill:#757DE0;}
	.st6{fill:#CAC5FF;}
	.st7{fill:#E9ECFD;}
	.st8{opacity:0.41;}
	.st9{opacity:0.69;}
	.st10{opacity:0.27;fill:none;stroke:#57ADA0;stroke-miterlimit:10;}
	.st11{opacity:0.65;}
	.st12{opacity:0.54;}
	.st13{opacity:0.51;}
	.st14{fill:#3FA0A7;}
	.st15{fill:#AB7946;}
	.st16{fill:#03464F;}
	.st17{fill:#026385;}
	.st18{fill:#35BCC0;}
	.st19{fill:#018F9F;}
	.st20{fill:#A53A1C;}
	.st21{fill:#DF5330;}
	.st22{fill:#FF8039;}
	.st23{fill:#EE5E2F;}
	.st24{fill:#A51959;}
	.st25{fill:#C12573;}
	.st26{fill:#FF4DA6;}
	.st27{fill:#D2276E;}
	.st28{fill:#7F7973;}
	.st29{fill:#C0B5AA;}
	.st30{fill:#E4DED5;}
	.st31{fill:#514A43;}
	.st32{fill:#606161;}
	.st33{fill:#BEBFB9;}
	.st34{fill:#3A3A3A;}
	.st35{fill:#302C28;}
	.st36{fill:#161616;}
	.st37{fill:#E1E1DF;}
	.st38{fill:#163A20;}
	.st39{fill:#1A5C31;}
	.st40{fill:#3E9B50;}
	.st41{fill:#23763E;}
	.st42{fill:#41296D;}
	.st43{fill:#513C82;}
	.st44{fill:#775ABF;}
	.st45{fill:#614293;}
	.st46{fill:#6C0F13;}
	.st47{fill:#9E1F25;}
	.st48{fill:#E8222E;}
	.st49{fill:#CF232E;}
	.st50{fill:#D27633;}
	.st51{fill:#DD8A34;}
	.st52{fill:#F5C032;}
	.st53{fill:#F3A634;}
	.st54{fill:#D4EAFF;}
	.st55{fill:#EFFAFC;}
	.st56{fill:#171C05;}
	.st57{fill:#688F50;}
	.st58{fill:#92BA73;}
	.st59{fill:#9FC780;}
	.st60{fill:#A7CB8D;}
	.st61{fill:#9CC17B;}
	.st62{fill:#91B166;}
	.st63{fill:#88988D;}
	.st64{fill:#829788;}
	.st65{fill:#5B7A36;}
	.st66{fill:#2C4704;}
	.st67{fill:#415705;}
	.st68{fill:#7D9732;}
	.st69{fill:#778B34;}
	.st70{fill:#879935;}
	.st71{fill:#A3BA62;}
	.st72{fill:#BFDA95;}
	.st73{fill:#B7D690;}
	.st74{fill:#B8D88C;}
	.st75{fill:#B7D78B;}
	.st76{fill:#B8D68C;}
	.st77{fill:#B2D185;}
	.st78{fill:#AECE85;}
	.st79{fill:#ACC87E;}
	.st80{fill:#A3B078;}
	.st81{fill:#758D8F;}
	.st82{fill:#8B9DF1;}
	.st83{fill:#A3B7F2;}
	.st84{fill:#7FA35B;}
	.st85{fill:#6A9047;}
	.st86{fill:#3D6823;}
	.st87{fill:#325F1C;}
	.st88{fill:#33621E;}
	.st89{fill:#214E0B;}
	.st90{fill:#306811;}
	.st91{fill:#689339;}
	.st92{fill:#95BB6E;}
	.st93{fill:#9BC57D;}
	.st94{fill:#A2C781;}
	.st95{fill:#9AB67C;}
	.st96{fill:#B4C8A5;}
	.st97{fill:#97ACBD;}
	.st98{fill:#7F9C88;}
	.st99{fill:#617830;}
	.st100{fill:#56750D;}
	.st101{fill:#789529;}
	.st102{fill:#91A335;}
	.st103{fill:#A5B650;}
	.st104{fill:#A7BD5B;}
	.st105{fill:#C1D894;}
	.st106{fill:#BCDA9A;}
	.st107{fill:#BEDB98;}
	.st108{fill:#BDDC98;}
	.st109{fill:#B9DA95;}
	.st110{fill:#B0D087;}
	.st111{fill:#9EC477;}
	.st112{fill:#98B86D;}
	.st113{fill:#8D9750;}
	.st114{fill:#798749;}
	.st115{fill:#82964F;}
	.st116{fill:#7F9B6B;}
	.st117{fill:#819D77;}
	.st118{fill:#88A855;}
	.st119{fill:#789C52;}
	.st120{fill:#46732E;}
	.st121{fill:#295613;}
	.st122{fill:#1F490A;}
	.st123{fill:#20490D;}
	.st124{fill:#33680C;}
	.st125{fill:#40700D;}
	.st126{fill:#95B864;}
	.st127{fill:#9DC77F;}
	.st128{fill:#9FC37B;}
	.st129{fill:#B4D191;}
	.st130{fill:#BED9A2;}
	.st131{fill:#A2BD94;}
	.st132{fill:#728D40;}
	.st133{fill:#546E17;}
	.st134{fill:#7A932B;}
	.st135{fill:#B5AD64;}
	.st136{fill:#C2C86E;}
	.st137{fill:#B6BC5A;}
	.st138{fill:#AFB56D;}
	.st139{fill:#AEC87F;}
	.st140{fill:#BFDF96;}
	.st141{fill:#C3DD9C;}
	.st142{fill:#BCD997;}
	.st143{fill:#B3D48D;}
	.st144{fill:#83AD63;}
	.st145{fill:#68893A;}
	.st146{fill:#948C44;}
	.st147{fill:#898836;}
	.st148{fill:#68852B;}
	.st149{fill:#90AC57;}
	.st150{fill:#84A54E;}
	.st151{fill:#7E9C42;}
	.st152{fill:#7D9C56;}
	.st153{fill:#5E8640;}
	.st154{fill:#2D5B13;}
	.st155{fill:#1F4D0C;}
	.st156{fill:#1F4708;}
	.st157{fill:#2A5F07;}
	.st158{fill:#4F7B08;}
	.st159{fill:#80A814;}
	.st160{fill:#90BC5A;}
	.st161{fill:#92BC6A;}
	.st162{fill:#9AC478;}
	.st163{fill:#90B766;}
	.st164{fill:#95B957;}
	.st165{fill:#B0CD70;}
	.st166{fill:#7C9E4A;}
	.st167{fill:#6B861D;}
	.st168{fill:#849A35;}
	.st169{fill:#C5B077;}
	.st170{fill:#B8B872;}
	.st171{fill:#AEB855;}
	.st172{fill:#A9B263;}
	.st173{fill:#95AA65;}
	.st174{fill:#B4D68A;}
	.st175{fill:#BBD895;}
	.st176{fill:#A8CB87;}
	.st177{fill:#81AD62;}
	.st178{fill:#6D8C3E;}
	.st179{fill:#9C9046;}
	.st180{fill:#8F8E3E;}
	.st181{fill:#6E901F;}
	.st182{fill:#90AC45;}
	.st183{fill:#8BAD59;}
	.st184{fill:#729723;}
	.st185{fill:#749B1E;}
	.st186{fill:#547C19;}
	.st187{fill:#204903;}
	.st188{fill:#1F4804;}
	.st189{fill:#35570D;}
	.st190{fill:#2C600E;}
	.st191{fill:#376B07;}
	.st192{fill:#588300;}
	.st193{fill:#779E1D;}
	.st194{fill:#93B55E;}
	.st195{fill:#95BF75;}
	.st196{fill:#729D4B;}
	.st197{fill:#779D30;}
	.st198{fill:#8EB248;}
	.st199{fill:#A5CB80;}
	.st200{fill:#8EB363;}
	.st201{fill:#97B04A;}
	.st202{fill:#AAB674;}
	.st203{fill:#798E33;}
	.st204{fill:#889E32;}
	.st205{fill:#99A962;}
	.st206{fill:#899759;}
	.st207{fill:#99AC6A;}
	.st208{fill:#A5BF76;}
	.st209{fill:#A4C87E;}
	.st210{fill:#ABCA86;}
	.st211{fill:#A7C97F;}
	.st212{fill:#9DB36A;}
	.st213{fill:#939F53;}
	.st214{fill:#86922C;}
	.st215{fill:#749029;}
	.st216{fill:#94B250;}
	.st217{fill:#94B157;}
	.st218{fill:#91B03B;}
	.st219{fill:#7B9F01;}
	.st220{fill:#708B18;}
	.st221{fill:#596920;}
	.st222{fill:#485C15;}
	.st223{fill:#707F2A;}
	.st224{fill:#265F12;}
	.st225{fill:#3F6E08;}
	.st226{fill:#7C9F45;}
	.st227{fill:#82A74A;}
	.st228{fill:#94BA67;}
	.st229{fill:#9AC374;}
	.st230{fill:#83B05D;}
	.st231{fill:#629023;}
	.st232{fill:#88AE3F;}
	.st233{fill:#AFD389;}
	.st234{fill:#99C273;}
	.st235{fill:#A6C568;}
	.st236{fill:#B6CB86;}
	.st237{fill:#77933F;}
	.st238{fill:#6E8B2F;}
	.st239{fill:#718E34;}
	.st240{fill:#819148;}
	.st241{fill:#90A05F;}
	.st242{fill:#9CB271;}
	.st243{fill:#96B268;}
	.st244{fill:#95B569;}
	.st245{fill:#A8C37E;}
	.st246{fill:#A5BE7A;}
	.st247{fill:#8CA257;}
	.st248{fill:#7C9341;}
	.st249{fill:#849D49;}
	.st250{fill:#98B561;}
	.st251{fill:#A8C072;}
	.st252{fill:#A1BD4C;}
	.st253{fill:#7FA206;}
	.st254{fill:#9A9C49;}
	.st255{fill:#9E8B53;}
	.st256{fill:#90804D;}
	.st257{fill:#A19A4C;}
	.st258{fill:#2C5F10;}
	.st259{fill:#688D2E;}
	.st260{fill:#8CB25F;}
	.st261{fill:#9BC273;}
	.st262{fill:#9AC26C;}
	.st263{fill:#9CBE67;}
	.st264{fill:#94BC64;}
	.st265{fill:#98BC64;}
	.st266{fill:#A6C965;}
	.st267{fill:#B3D78F;}
	.st268{fill:#96C36E;}
	.st269{fill:#81AA42;}
	.st270{fill:#83A050;}
	.st271{fill:#819F45;}
	.st272{fill:#83A551;}
	.st273{fill:#799C40;}
	.st274{fill:#8FAE5E;}
	.st275{fill:#93AF65;}
	.st276{fill:#9CB86E;}
	.st277{fill:#98B66C;}
	.st278{fill:#85A854;}
	.st279{fill:#90AB5E;}
	.st280{fill:#9AB66C;}
	.st281{fill:#9EB668;}
	.st282{fill:#94B059;}
	.st283{fill:#7B983E;}
	.st284{fill:#80A345;}
	.st285{fill:#8EB052;}
	.st286{fill:#8AA941;}
	.st287{fill:#83A713;}
	.st288{fill:#8DA52B;}
	.st289{fill:#B2B371;}
	.st290{fill:#C0C084;}
	.st291{fill:#B4AF6B;}
	.st292{clip-path:url(#SVGID_2_);}
	.st293{clip-path:url(#SVGID_4_);}
	.st294{clip-path:url(#SVGID_6_);}
	.st295{fill:#7DC0C9;}
	.st296{fill:#16635B;}
	.st297{fill:#A1D7DB;}
	.st298{fill:#CDC982;}
	.st299{fill:#3C5B3B;}
	.st300{fill:#6B8C5F;}
	.st301{fill:#90AA7D;}
	.st302{fill:#A2B271;}
	.st303{fill:#69463A;}
	.st304{fill:#D6B36F;}
	.st305{fill:#9BB655;}
	.st306{fill:#618F46;}
	.st307{fill:#2B5A38;}
	.st308{fill:#7C672E;}
	.st309{fill:#ABA92E;}
	.st310{fill:#E2E57E;}
	.st311{fill:#CBCA6D;}
	.st312{stroke:#000000;stroke-width:0.5;stroke-miterlimit:10;}
</style>
<g id="layout">
</g>
<g id="GUIDES">
	<g>
		<rect x="55.9" y="176" class="st4" width="8.9" height="174.2"/>
		<polygon class="st3" points="104.9,153.7 104.9,144.8 100.4,144.8 100.4,140.4 96,140.4 96,135.9 91.5,135.9 91.5,131.5 
			87.1,131.5 87.1,127 82.6,127 78.2,127 64.8,127 64.8,131.5 55.9,131.5 55.9,135.9 47,135.9 47,140.4 38.1,140.4 38.1,144.8 
			38.1,149.3 33.6,149.3 33.6,158.2 38.1,158.2 38.1,162.6 42.5,162.6 42.5,167.1 51.4,167.1 51.4,171.5 60.4,171.5 60.4,176 
			64.8,176 64.8,180.5 69.3,180.5 69.3,184.9 73.7,184.9 73.7,193.8 78.2,193.8 78.2,198.3 82.6,198.3 87.1,198.3 91.5,198.3 
			91.5,193.8 96,193.8 96,189.4 100.4,189.4 100.4,180.5 104.9,180.5 104.9,171.5 109.3,171.5 109.3,153.7 		"/>
		<g>
			<rect x="82.6" y="189.4" class="st1" width="4.5" height="4.5"/>
			<polygon class="st1" points="78.2,180.5 78.2,171.5 82.6,171.5 82.6,167.1 78.2,167.1 78.2,153.7 73.7,153.7 73.7,158.2 
				60.4,158.2 55.9,158.2 51.4,158.2 51.4,153.7 47,153.7 47,158.2 47,167.1 51.4,167.1 51.4,171.5 55.9,171.5 55.9,176 60.4,176 
				64.8,176 64.8,184.9 73.7,184.9 73.7,189.4 78.2,189.4 82.6,189.4 82.6,180.5 			"/>
		</g>
		<polygon class="st3" points="78.2,193.8 78.2,189.4 73.7,189.4 69.3,189.4 69.3,184.9 51.4,184.9 51.4,180.5 47,180.5 47,176 
			42.5,176 42.5,162.6 38.1,162.6 38.1,158.2 33.6,158.2 33.6,162.6 29.2,162.6 24.7,162.6 24.7,167.1 20.3,167.1 20.3,176 
			15.8,176 15.8,198.3 20.3,198.3 20.3,207.2 24.7,207.2 24.7,211.6 29.2,211.6 33.6,211.6 33.6,216.1 38.1,216.1 38.1,220.5 
			64.8,220.5 64.8,216.1 69.3,216.1 73.7,216.1 73.7,211.6 82.6,211.6 82.6,207.2 87.1,207.2 87.1,202.7 87.1,198.3 87.1,193.8 		
			"/>
		<rect x="55.9" y="171.5" class="st4" width="4.5" height="8.9"/>
		<rect x="51.4" y="162.6" class="st4" width="4.5" height="4.5"/>
		<rect x="55.9" y="167.1" class="st4" width="4.5" height="4.5"/>
		<rect x="64.8" y="167.1" class="st4" width="4.5" height="4.5"/>
		<rect x="60.4" y="176" class="st4" width="8.9" height="4.5"/>
		<rect x="69.3" y="180.5" class="st4" width="4.5" height="4.5"/>
		<rect x="69.3" y="162.6" class="st4" width="4.5" height="4.5"/>
		<rect x="60.4" y="202.7" class="st1" width="4.5" height="4.5"/>
		<rect x="64.8" y="207.2" class="st1" width="4.5" height="4.5"/>
		<rect x="42.5" y="184.9" class="st1" width="26.7" height="4.5"/>
		<rect x="29.2" y="171.5" class="st3" width="8.9" height="8.9"/>
		<rect x="42.5" y="171.5" class="st3" width="13.4" height="4.5"/>
		<rect x="42.5" y="167.1" class="st3" width="4.5" height="4.5"/>
		<rect x="42.5" y="167.1" class="st3" width="8.9" height="8.9"/>
		<rect x="69.3" y="184.9" class="st1" width="4.5" height="8.9"/>
		<rect x="29.2" y="176" class="st3" width="8.9" height="22.3"/>
		<rect x="38.1" y="171.5" class="st3" width="4.5" height="26.7"/>
		<rect x="64.8" y="131.5" class="st1" width="4.5" height="4.5"/>
		<rect x="69.3" y="127" class="st1" width="4.5" height="4.5"/>
		<rect x="47" y="176" class="st3" width="4.5" height="4.5"/>
		<rect x="47" y="176" class="st1" width="4.5" height="13.4"/>
	</g>
	<g>
		<rect x="159.3" y="221.3" class="st4" width="8.9" height="129.2"/>
		<polygon class="st3" points="212.8,209.8 212.8,200.9 208.3,200.9 208.3,178.6 203.9,178.6 203.9,174.2 199.4,174.2 199.4,169.7 
			190.5,169.7 186,169.7 186,165.3 181.6,165.3 181.6,160.8 159.3,160.8 159.3,165.3 150.4,165.3 150.4,169.7 146,169.7 146,174.2 
			141.5,174.2 141.5,178.6 137.1,178.6 132.6,178.6 132.6,183.1 128.1,183.1 128.1,187.5 123.7,187.5 123.7,196.4 119.2,196.4 
			119.2,209.8 123.7,209.8 123.7,214.3 128.1,214.3 132.6,214.3 137.1,214.3 137.1,218.7 141.5,218.7 146,218.7 146,223.2 
			159.3,223.2 159.3,227.6 163.8,227.6 163.8,232.1 172.7,232.1 172.7,236.5 190.5,236.5 190.5,241 195,241 199.4,241 199.4,245.4 
			203.9,245.4 208.3,245.4 208.3,241 212.8,241 217.2,241 217.2,209.8 		"/>
		<g>
			<rect x="168.2" y="214.3" class="st1" width="4.5" height="4.5"/>
			<rect x="172.7" y="209.8" class="st1" width="4.5" height="4.5"/>
			<polygon class="st1" points="212.8,223.2 212.8,218.7 208.3,218.7 208.3,236.5 199.4,236.5 199.4,232.1 195,232.1 195,227.6 
				190.5,227.6 190.5,232.1 181.6,232.1 181.6,227.6 177.1,227.6 177.1,223.2 168.2,223.2 168.2,218.7 159.3,218.7 159.3,214.3 
				146,214.3 141.5,214.3 141.5,205.3 132.6,205.3 132.6,200.9 132.6,196.4 128.1,196.4 128.1,200.9 123.7,200.9 119.2,200.9 
				119.2,209.8 123.7,209.8 128.1,209.8 128.1,214.3 132.6,214.3 132.6,218.7 141.5,218.7 141.5,223.2 146,223.2 150.4,223.2 
				159.3,223.2 159.3,227.6 163.8,227.6 163.8,232.1 172.7,232.1 172.7,236.5 181.6,236.5 190.5,236.5 190.5,241 195,241 195,245.4 
				199.4,245.4 212.8,245.4 212.8,241 217.2,241 217.2,223.2 			"/>
		</g>
		<polygon class="st3" points="203.9,249.9 199.4,249.9 199.4,245.4 195,245.4 195,241 190.5,241 190.5,236.5 186,236.5 
			168.2,236.5 163.8,236.5 159.3,236.5 159.3,232.1 154.9,232.1 154.9,227.6 150.4,227.6 150.4,223.2 146,223.2 146,218.7 
			141.5,218.7 137.1,218.7 137.1,214.3 132.6,214.3 119.2,214.3 114.8,214.3 114.8,218.7 110.3,218.7 110.3,236.5 114.8,236.5 
			114.8,241 119.2,241 123.7,241 123.7,249.9 128.1,249.9 128.1,254.3 128.1,258.8 132.6,258.8 132.6,263.3 137.1,263.3 
			141.5,263.3 141.5,267.7 146,267.7 150.4,267.7 150.4,272.2 154.9,272.2 159.3,272.2 172.7,272.2 172.7,267.7 177.1,267.7 
			181.6,267.7 181.6,263.3 186,263.3 190.5,263.3 190.5,258.8 195,258.8 199.4,258.8 199.4,254.3 203.9,254.3 		"/>
		<g>
			<rect x="128.1" y="258.8" class="st1" width="4.5" height="4.5"/>
			<rect x="132.6" y="263.3" class="st1" width="8.9" height="4.5"/>
			<rect x="123.7" y="249.9" class="st1" width="4.5" height="8.9"/>
			<rect x="119.2" y="241" class="st1" width="4.5" height="8.9"/>
			<polygon class="st1" points="150.4,272.2 150.4,267.7 141.5,267.7 141.5,272.2 146,272.2 146,276.6 168.2,276.6 172.7,276.6 
				172.7,272.2 168.2,272.2 			"/>
			<rect x="172.7" y="267.7" class="st1" width="4.5" height="4.5"/>
			<rect x="114.8" y="236.5" class="st1" width="4.5" height="4.5"/>
		</g>
		<rect x="159.3" y="218.7" class="st4" width="4.5" height="13.4"/>
		<rect x="154.9" y="214.3" class="st4" width="4.5" height="4.5"/>
		<rect x="163.8" y="214.3" class="st4" width="4.5" height="4.5"/>
		<rect x="172.7" y="209.8" class="st4" width="4.5" height="4.5"/>
		<rect x="163.8" y="214.3" class="st4" width="4.5" height="22.3"/>
		<rect x="150.4" y="223.2" class="st1" width="8.9" height="4.5"/>
		<rect x="154.9" y="218.7" class="st1" width="4.5" height="13.4"/>
		<rect x="168.2" y="227.6" class="st1" width="4.5" height="8.9"/>
		<rect x="159.3" y="209.8" class="st1" width="4.5" height="8.9"/>
		<rect x="150.4" y="209.8" class="st1" width="22.3" height="4.5"/>
		<rect x="168.2" y="218.7" class="st1" width="4.5" height="4.5"/>
		<rect x="154.9" y="232.1" class="st1" width="4.5" height="8.9"/>
		<rect x="154.9" y="232.1" class="st1" width="22.3" height="8.9"/>
	</g>
	<g>
		
			<rect x="242.6" y="130.9" transform="matrix(-1 -4.492108e-11 4.492108e-11 -1 494.0694 481.0633)" class="st4" width="8.9" height="219.2"/>
		<polygon class="st3" points="202.5,108.7 202.5,99.8 206.9,99.8 206.9,95.3 211.4,95.3 211.4,90.9 215.9,90.9 215.9,86.4 
			220.3,86.4 220.3,81.9 224.8,81.9 229.2,81.9 242.6,81.9 242.6,86.4 251.5,86.4 251.5,90.9 260.4,90.9 260.4,95.3 269.3,95.3 
			269.3,99.8 269.3,104.2 273.8,104.2 273.8,113.1 269.3,113.1 269.3,117.6 264.9,117.6 264.9,122 255.9,122 255.9,126.5 247,126.5 
			247,130.9 242.6,130.9 242.6,135.4 238.1,135.4 238.1,139.9 233.7,139.9 233.7,148.8 229.2,148.8 229.2,153.2 224.8,153.2 
			220.3,153.2 215.9,153.2 215.9,148.8 211.4,148.8 211.4,144.3 206.9,144.3 206.9,135.4 202.5,135.4 202.5,126.5 198,126.5 
			198,108.7 		"/>
		<g>
			<rect x="220.3" y="144.3" class="st1" width="4.5" height="4.5"/>
			<polygon class="st1" points="229.2,135.4 229.2,126.5 224.8,126.5 224.8,122 229.2,122 229.2,108.7 233.7,108.7 233.7,113.1 
				247,113.1 251.5,113.1 255.9,113.1 255.9,108.7 260.4,108.7 260.4,113.1 260.4,122 255.9,122 255.9,126.5 251.5,126.5 
				251.5,130.9 247,130.9 242.6,130.9 242.6,139.9 233.7,139.9 233.7,144.3 229.2,144.3 224.8,144.3 224.8,135.4 			"/>
		</g>
		<polygon class="st3" points="229.2,148.8 229.2,144.3 233.7,144.3 238.1,144.3 238.1,139.9 255.9,139.9 255.9,135.4 260.4,135.4 
			260.4,130.9 264.9,130.9 264.9,117.6 269.3,117.6 269.3,113.1 273.8,113.1 273.8,117.6 278.2,117.6 282.7,117.6 282.7,122 
			287.1,122 287.1,130.9 291.6,130.9 291.6,153.2 287.1,153.2 287.1,162.1 282.7,162.1 282.7,166.6 278.2,166.6 273.8,166.6 
			273.8,171 269.3,171 269.3,175.5 242.6,175.5 242.6,171 238.1,171 233.7,171 233.7,166.6 224.8,166.6 224.8,162.1 220.3,162.1 
			220.3,157.7 220.3,153.2 220.3,148.8 		"/>
		
			<rect x="247" y="126.5" transform="matrix(-1 -4.492108e-11 4.492108e-11 -1 498.5237 261.8908)" class="st4" width="4.5" height="8.9"/>
		
			<rect x="251.5" y="117.6" transform="matrix(-1 -4.451296e-11 4.451296e-11 -1 507.4321 239.6197)" class="st4" width="4.5" height="4.5"/>
		
			<rect x="247" y="122" transform="matrix(-1 -4.492108e-11 4.492108e-11 -1 498.5237 248.5281)" class="st4" width="4.5" height="4.5"/>
		
			<rect x="238.1" y="122" transform="matrix(-1 -4.492108e-11 4.492108e-11 -1 480.7068 248.5281)" class="st4" width="4.5" height="4.5"/>
		
			<rect x="238.1" y="130.9" transform="matrix(-1 -4.471724e-11 4.471724e-11 -1 485.161 266.345)" class="st4" width="8.9" height="4.5"/>
		
			<rect x="233.7" y="135.4" transform="matrix(-1 -4.492108e-11 4.492108e-11 -1 471.7983 275.2535)" class="st4" width="4.5" height="4.5"/>
		
			<rect x="233.7" y="117.6" transform="matrix(-1 -4.492108e-11 4.492108e-11 -1 471.7983 239.6197)" class="st4" width="4.5" height="4.5"/>
		
			<rect x="242.6" y="157.7" transform="matrix(-1 -4.492108e-11 4.492108e-11 -1 489.6152 319.7957)" class="st1" width="4.5" height="4.5"/>
		
			<rect x="238.1" y="162.1" transform="matrix(-1 -4.492108e-11 4.492108e-11 -1 480.7068 328.7042)" class="st1" width="4.5" height="4.5"/>
		
			<rect x="238.1" y="139.9" transform="matrix(-1 -4.485313e-11 4.485313e-11 -1 502.9779 284.1619)" class="st1" width="26.7" height="4.5"/>
		
			<rect x="269.3" y="126.5" transform="matrix(-1 -4.512536e-11 4.512536e-11 -1 547.5201 261.8908)" class="st3" width="8.9" height="8.9"/>
		
			<rect x="251.5" y="126.5" transform="matrix(-1 -4.492108e-11 4.492108e-11 -1 516.3406 257.4366)" class="st3" width="13.4" height="4.5"/>
		
			<rect x="260.4" y="122" transform="matrix(-1 -4.492108e-11 4.492108e-11 -1 525.249 248.5281)" class="st3" width="4.5" height="4.5"/>
		
			<rect x="255.9" y="122" transform="matrix(-1 -4.492108e-11 4.492108e-11 -1 520.7948 252.9824)" class="st3" width="8.9" height="8.9"/>
		
			<rect x="233.7" y="139.9" transform="matrix(-1 -4.492108e-11 4.492108e-11 -1 471.7983 288.6161)" class="st1" width="4.5" height="8.9"/>
		
			<rect x="269.3" y="130.9" transform="matrix(-1 -4.471724e-11 4.471724e-11 -1 547.5201 284.1619)" class="st3" width="8.9" height="22.3"/>
		
			<rect x="264.9" y="126.5" transform="matrix(-1 -4.532964e-11 4.532964e-11 -1 534.1575 279.7077)" class="st3" width="4.5" height="26.7"/>
		
			<rect x="238.1" y="86.4" transform="matrix(-1 -4.492108e-11 4.492108e-11 -1 480.7068 177.2605)" class="st1" width="4.5" height="4.5"/>
		
			<rect x="233.7" y="81.9" transform="matrix(-1 -4.492108e-11 4.492108e-11 -1 471.7983 168.3521)" class="st1" width="4.5" height="4.5"/>
		
			<rect x="255.9" y="130.9" transform="matrix(-1 -4.532964e-11 4.532964e-11 -1 516.3406 266.345)" class="st3" width="4.5" height="4.5"/>
		
			<rect x="255.9" y="130.9" transform="matrix(-1 -4.492108e-11 4.492108e-11 -1 516.3406 275.2535)" class="st1" width="4.5" height="13.4"/>
	</g>
	<g>
		<path class="st312" d="M70,40.2h-2.5V22.5H70V25h1.3v1.3h1.3v1.3h2.5v-1.3h1.3V25h1.3v-2.5h2.5v17.8h-2.5V28.8h-1.3v1.3h-1.3v2.5
			h-2.5v-2.5h-1.3v-1.3H70V40.2z"/>
		<path class="st312" d="M85.3,40.2v-2.5h2.5V25h-2.5v-2.5h7.6V25h-2.5v12.7h2.5v2.5H85.3z"/>
		<path class="st312" d="M101.8,37.7h5.1v-1.3h1.3v-1.3h2.5v2.5h-1.3V39h-1.3v1.3h-7.6V39h-1.3v-1.3h-1.3V25h1.3v-1.3h1.3v-1.3h7.6
			v1.3h1.3V25h1.3v2.5h-2.5v-1.3h-1.3V25h-5.1v1.3h-1.3v10.2h1.3V37.7z"/>
		<path class="st312" d="M117,32.6h-1.3v7.6h-2.5V22.5h10.2v1.3h1.3V25h1.3v5.1h-1.3v1.3h-1.3v1.3h-2.5v1.3h1.3v1.3h1.3v1.3h1.3v1.3
			h1.3v2.5h-2.5V39h-1.3v-1.3h-1.3v-1.3h-1.3v-1.3h-1.3v-1.3H117V32.6z M115.7,25v5.1h6.3v-1.3h1.3v-2.5h-1.3V25H115.7z"/>
		<path class="st312" d="M131,23.7v-1.3h7.6v1.3h1.3V25h1.3v12.7h-1.3V39h-1.3v1.3H131V39h-1.3v-1.3h-1.3V25h1.3v-1.3H131z
			 M137.3,25h-5.1v1.3H131v10.2h1.3v1.3h5.1v-1.3h1.3V26.3h-1.3V25z"/>
		<path class="st312" d="M155.1,25h1.3v2.5h-2.5v-1.3h-1.3V25h-5.1v1.3h-1.3v10.2h1.3v1.3h5.1v-1.3h1.3v-3.8H150v-2.5h6.3v7.6h-1.3
			V39h-1.3v1.3h-7.6V39h-1.3v-1.3h-1.3V25h1.3v-1.3h1.3v-1.3h7.6v1.3h1.3V25z"/>
		<path class="st312" d="M162.7,32.6h-1.3v7.6h-2.5V22.5H169v1.3h1.3V25h1.3v5.1h-1.3v1.3H169v1.3h-2.5v1.3h1.3v1.3h1.3v1.3h1.3v1.3
			h1.3v2.5H169V39h-1.3v-1.3h-1.3v-1.3h-1.3v-1.3H164v-1.3h-1.3V32.6z M161.4,25v5.1h6.3v-1.3h1.3v-2.5h-1.3V25H161.4z"/>
		<path class="st312" d="M186.8,22.5V25h-10.2v5.1h7.6v2.5h-7.6v5.1h10.2v2.5h-12.7V22.5H186.8z"/>
		<path class="st312" d="M202.1,22.5V25h-10.2v5.1h7.6v2.5h-7.6v5.1h10.2v2.5h-12.7V22.5H202.1z"/>
		<path class="st312" d="M207.1,30.1v10.2h-2.5V22.5h2.5v3.8h1.3v1.3h1.3v1.3h1.3v1.3h1.3v1.3h1.3v1.3h1.3V22.5h2.5v17.8h-2.5v-3.8
			h-1.3v-1.3h-1.3v-1.3h-1.3v-1.3h-1.3v-1.3h-1.3v-1.3H207.1z"/>
		<path class="st312" d="M231.2,25h1.3v2.5H230v-1.3h-1.3V25h-5.1v1.3h-1.3v2.5h1.3v1.3h6.3v1.3h1.3v1.3h1.3v5.1h-1.3V39H230v1.3
			h-7.6V39h-1.3v-1.3h-1.3v-2.5h2.5v1.3h1.3v1.3h5.1v-1.3h1.3v-2.5h-1.3v-1.3h-6.3v-1.3h-1.3v-1.3h-1.3V25h1.3v-1.3h1.3v-1.3h7.6
			v1.3h1.3V25z"/>
	</g>
</g>
</svg>
