<?xml version="1.0" encoding="utf-8"?>
<!-- Generator: Adobe Illustrator 25.2.3, SVG Export Plug-In . SVG Version: 6.00 Build 0)  -->
<svg version="1.1" xmlns="http://www.w3.org/2000/svg" xmlns:xlink="http://www.w3.org/1999/xlink" x="0px" y="0px"
	 viewBox="0 0 300 300" style="enable-background:new 0 0 300 300;" xml:space="preserve">
<style type="text/css">
	.st0{opacity:0.46;}
	.st1{fill:#66890B;}
	.st2{fill:#95BC51;}
	.st3{fill:#3F6905;}
	.st4{fill:#CBE46E;}
	.st5{fill:#757DE0;}
	.st6{fill:#CAC5FF;}
	.st7{fill:#E9ECFD;}
	.st8{opacity:0.41;}
	.st9{opacity:0.69;}
	.st10{opacity:0.27;fill:none;stroke:#57ADA0;stroke-miterlimit:10;}
	.st11{opacity:0.65;}
	.st12{opacity:0.54;}
	.st13{opacity:0.51;}
	.st14{fill:#3FA0A7;}
	.st15{fill:#AB7946;}
	.st16{fill:#03464F;}
	.st17{fill:#026385;}
	.st18{fill:#35BCC0;}
	.st19{fill:#018F9F;}
	.st20{fill:#A53A1C;}
	.st21{fill:#DF5330;}
	.st22{fill:#FF8039;}
	.st23{fill:#EE5E2F;}
	.st24{fill:#A51959;}
	.st25{fill:#C12573;}
	.st26{fill:#FF4DA6;}
	.st27{fill:#D2276E;}
	.st28{fill:#7F7973;}
	.st29{fill:#C0B5AA;}
	.st30{fill:#E4DED5;}
	.st31{fill:#514A43;}
	.st32{fill:#606161;}
	.st33{fill:#BEBFB9;}
	.st34{fill:#3A3A3A;}
	.st35{fill:#302C28;}
	.st36{fill:#161616;}
	.st37{fill:#E1E1DF;}
	.st38{fill:#163A20;}
	.st39{fill:#1A5C31;}
	.st40{fill:#3E9B50;}
	.st41{fill:#23763E;}
	.st42{fill:#41296D;}
	.st43{fill:#513C82;}
	.st44{fill:#775ABF;}
	.st45{fill:#614293;}
	.st46{fill:#6C0F13;}
	.st47{fill:#9E1F25;}
	.st48{fill:#E8222E;}
	.st49{fill:#CF232E;}
	.st50{fill:#D27633;}
	.st51{fill:#DD8A34;}
	.st52{fill:#F5C032;}
	.st53{fill:#F3A634;}
	.st54{fill:#D4EAFF;}
	.st55{fill:#EFFAFC;}
	.st56{fill:#171C05;}
	.st57{fill:#688F50;}
	.st58{fill:#92BA73;}
	.st59{fill:#9FC780;}
	.st60{fill:#A7CB8D;}
	.st61{fill:#9CC17B;}
	.st62{fill:#91B166;}
	.st63{fill:#88988D;}
	.st64{fill:#829788;}
	.st65{fill:#5B7A36;}
	.st66{fill:#2C4704;}
	.st67{fill:#415705;}
	.st68{fill:#7D9732;}
	.st69{fill:#778B34;}
	.st70{fill:#879935;}
	.st71{fill:#A3BA62;}
	.st72{fill:#BFDA95;}
	.st73{fill:#B7D690;}
	.st74{fill:#B8D88C;}
	.st75{fill:#B7D78B;}
	.st76{fill:#B8D68C;}
	.st77{fill:#B2D185;}
	.st78{fill:#AECE85;}
	.st79{fill:#ACC87E;}
	.st80{fill:#A3B078;}
	.st81{fill:#758D8F;}
	.st82{fill:#8B9DF1;}
	.st83{fill:#A3B7F2;}
	.st84{fill:#7FA35B;}
	.st85{fill:#6A9047;}
	.st86{fill:#3D6823;}
	.st87{fill:#325F1C;}
	.st88{fill:#33621E;}
	.st89{fill:#214E0B;}
	.st90{fill:#306811;}
	.st91{fill:#689339;}
	.st92{fill:#95BB6E;}
	.st93{fill:#9BC57D;}
	.st94{fill:#A2C781;}
	.st95{fill:#9AB67C;}
	.st96{fill:#B4C8A5;}
	.st97{fill:#97ACBD;}
	.st98{fill:#7F9C88;}
	.st99{fill:#617830;}
	.st100{fill:#56750D;}
	.st101{fill:#789529;}
	.st102{fill:#91A335;}
	.st103{fill:#A5B650;}
	.st104{fill:#A7BD5B;}
	.st105{fill:#C1D894;}
	.st106{fill:#BCDA9A;}
	.st107{fill:#BEDB98;}
	.st108{fill:#BDDC98;}
	.st109{fill:#B9DA95;}
	.st110{fill:#B0D087;}
	.st111{fill:#9EC477;}
	.st112{fill:#98B86D;}
	.st113{fill:#8D9750;}
	.st114{fill:#798749;}
	.st115{fill:#82964F;}
	.st116{fill:#7F9B6B;}
	.st117{fill:#819D77;}
	.st118{fill:#88A855;}
	.st119{fill:#789C52;}
	.st120{fill:#46732E;}
	.st121{fill:#295613;}
	.st122{fill:#1F490A;}
	.st123{fill:#20490D;}
	.st124{fill:#33680C;}
	.st125{fill:#40700D;}
	.st126{fill:#95B864;}
	.st127{fill:#9DC77F;}
	.st128{fill:#9FC37B;}
	.st129{fill:#B4D191;}
	.st130{fill:#BED9A2;}
	.st131{fill:#A2BD94;}
	.st132{fill:#728D40;}
	.st133{fill:#546E17;}
	.st134{fill:#7A932B;}
	.st135{fill:#B5AD64;}
	.st136{fill:#C2C86E;}
	.st137{fill:#B6BC5A;}
	.st138{fill:#AFB56D;}
	.st139{fill:#AEC87F;}
	.st140{fill:#BFDF96;}
	.st141{fill:#C3DD9C;}
	.st142{fill:#BCD997;}
	.st143{fill:#B3D48D;}
	.st144{fill:#83AD63;}
	.st145{fill:#68893A;}
	.st146{fill:#948C44;}
	.st147{fill:#898836;}
	.st148{fill:#68852B;}
	.st149{fill:#90AC57;}
	.st150{fill:#84A54E;}
	.st151{fill:#7E9C42;}
	.st152{fill:#7D9C56;}
	.st153{fill:#5E8640;}
	.st154{fill:#2D5B13;}
	.st155{fill:#1F4D0C;}
	.st156{fill:#1F4708;}
	.st157{fill:#2A5F07;}
	.st158{fill:#4F7B08;}
	.st159{fill:#80A814;}
	.st160{fill:#90BC5A;}
	.st161{fill:#92BC6A;}
	.st162{fill:#9AC478;}
	.st163{fill:#90B766;}
	.st164{fill:#95B957;}
	.st165{fill:#B0CD70;}
	.st166{fill:#7C9E4A;}
	.st167{fill:#6B861D;}
	.st168{fill:#849A35;}
	.st169{fill:#C5B077;}
	.st170{fill:#B8B872;}
	.st171{fill:#AEB855;}
	.st172{fill:#A9B263;}
	.st173{fill:#95AA65;}
	.st174{fill:#B4D68A;}
	.st175{fill:#BBD895;}
	.st176{fill:#A8CB87;}
	.st177{fill:#81AD62;}
	.st178{fill:#6D8C3E;}
	.st179{fill:#9C9046;}
	.st180{fill:#8F8E3E;}
	.st181{fill:#6E901F;}
	.st182{fill:#90AC45;}
	.st183{fill:#8BAD59;}
	.st184{fill:#729723;}
	.st185{fill:#749B1E;}
	.st186{fill:#547C19;}
	.st187{fill:#204903;}
	.st188{fill:#1F4804;}
	.st189{fill:#35570D;}
	.st190{fill:#2C600E;}
	.st191{fill:#376B07;}
	.st192{fill:#588300;}
	.st193{fill:#779E1D;}
	.st194{fill:#93B55E;}
	.st195{fill:#95BF75;}
	.st196{fill:#729D4B;}
	.st197{fill:#779D30;}
	.st198{fill:#8EB248;}
	.st199{fill:#A5CB80;}
	.st200{fill:#8EB363;}
	.st201{fill:#97B04A;}
	.st202{fill:#AAB674;}
	.st203{fill:#798E33;}
	.st204{fill:#889E32;}
	.st205{fill:#99A962;}
	.st206{fill:#899759;}
	.st207{fill:#99AC6A;}
	.st208{fill:#A5BF76;}
	.st209{fill:#A4C87E;}
	.st210{fill:#ABCA86;}
	.st211{fill:#A7C97F;}
	.st212{fill:#9DB36A;}
	.st213{fill:#939F53;}
	.st214{fill:#86922C;}
	.st215{fill:#749029;}
	.st216{fill:#94B250;}
	.st217{fill:#94B157;}
	.st218{fill:#91B03B;}
	.st219{fill:#7B9F01;}
	.st220{fill:#708B18;}
	.st221{fill:#596920;}
	.st222{fill:#485C15;}
	.st223{fill:#707F2A;}
	.st224{fill:#265F12;}
	.st225{fill:#3F6E08;}
	.st226{fill:#7C9F45;}
	.st227{fill:#82A74A;}
	.st228{fill:#94BA67;}
	.st229{fill:#9AC374;}
	.st230{fill:#83B05D;}
	.st231{fill:#629023;}
	.st232{fill:#88AE3F;}
	.st233{fill:#AFD389;}
	.st234{fill:#99C273;}
	.st235{fill:#A6C568;}
	.st236{fill:#B6CB86;}
	.st237{fill:#77933F;}
	.st238{fill:#6E8B2F;}
	.st239{fill:#718E34;}
	.st240{fill:#819148;}
	.st241{fill:#90A05F;}
	.st242{fill:#9CB271;}
	.st243{fill:#96B268;}
	.st244{fill:#95B569;}
	.st245{fill:#A8C37E;}
	.st246{fill:#A5BE7A;}
	.st247{fill:#8CA257;}
	.st248{fill:#7C9341;}
	.st249{fill:#849D49;}
	.st250{fill:#98B561;}
	.st251{fill:#A8C072;}
	.st252{fill:#A1BD4C;}
	.st253{fill:#7FA206;}
	.st254{fill:#9A9C49;}
	.st255{fill:#9E8B53;}
	.st256{fill:#90804D;}
	.st257{fill:#A19A4C;}
	.st258{fill:#2C5F10;}
	.st259{fill:#688D2E;}
	.st260{fill:#8CB25F;}
	.st261{fill:#9BC273;}
	.st262{fill:#9AC26C;}
	.st263{fill:#9CBE67;}
	.st264{fill:#94BC64;}
	.st265{fill:#98BC64;}
	.st266{fill:#A6C965;}
	.st267{fill:#B3D78F;}
	.st268{fill:#96C36E;}
	.st269{fill:#81AA42;}
	.st270{fill:#83A050;}
	.st271{fill:#819F45;}
	.st272{fill:#83A551;}
	.st273{fill:#799C40;}
	.st274{fill:#8FAE5E;}
	.st275{fill:#93AF65;}
	.st276{fill:#9CB86E;}
	.st277{fill:#98B66C;}
	.st278{fill:#85A854;}
	.st279{fill:#90AB5E;}
	.st280{fill:#9AB66C;}
	.st281{fill:#9EB668;}
	.st282{fill:#94B059;}
	.st283{fill:#7B983E;}
	.st284{fill:#80A345;}
	.st285{fill:#8EB052;}
	.st286{fill:#8AA941;}
	.st287{fill:#83A713;}
	.st288{fill:#8DA52B;}
	.st289{fill:#B2B371;}
	.st290{fill:#C0C084;}
	.st291{fill:#B4AF6B;}
	.st292{clip-path:url(#SVGID_2_);}
	.st293{clip-path:url(#SVGID_4_);}
	.st294{clip-path:url(#SVGID_6_);}
	.st295{fill:#7DC0C9;}
	.st296{fill:#16635B;}
	.st297{fill:#A1D7DB;}
	.st298{fill:#CDC982;}
	.st299{fill:#3C5B3B;}
	.st300{fill:#6B8C5F;}
	.st301{fill:#90AA7D;}
	.st302{fill:#A2B271;}
	.st303{fill:#69463A;}
	.st304{fill:#D6B36F;}
	.st305{fill:#9BB655;}
	.st306{fill:#618F46;}
	.st307{fill:#2B5A38;}
	.st308{fill:#7C672E;}
	.st309{fill:#ABA92E;}
	.st310{fill:#E2E57E;}
	.st311{fill:#CBCA6D;}
</style>
<g id="layout">
	<g>
		<polygon class="st1" points="158.1,226.4 152.8,226.4 152.8,224.7 144,224.7 140.5,224.7 138.7,224.7 138.7,222.9 124.7,222.9 
			124.7,224.7 122.9,224.7 122.9,226.4 121.2,226.4 119.4,226.4 119.4,229.9 117.6,229.9 117.6,231.7 115.9,231.7 115.9,233.5 
			114.1,233.5 114.1,240.5 112.4,240.5 112.4,259.8 114.1,259.8 114.1,263.3 115.9,263.3 115.9,268.6 117.6,268.6 117.6,273.9 
			119.4,273.9 119.4,279.2 121.2,279.2 121.2,282.7 122.9,282.7 122.9,286.2 124.7,286.2 124.7,289.7 126.4,289.7 126.4,293.2 
			128.2,293.2 128.2,289.7 129.9,289.7 129.9,286.2 131.7,286.2 131.7,280.9 133.5,280.9 133.5,279.2 135.2,279.2 135.2,273.9 
			137,273.9 137,272.1 137,270.4 137,268.6 138.7,268.6 138.7,266.9 140.5,266.9 140.5,263.3 142.2,263.3 144,263.3 144,261.6 
			145.8,261.6 145.8,258.1 147.5,258.1 147.5,256.3 149.3,256.3 151,256.3 151,254.5 152.8,254.5 152.8,252.8 154.5,252.8 
			154.5,251 154.5,249.3 156.3,249.3 156.3,247.5 156.3,233.5 158.1,233.5 		"/>
		<polygon class="st1" points="121.2,184.2 121.2,182.5 119.4,182.5 119.4,180.7 117.6,180.7 117.6,179 115.9,179 115.9,177.2 
			114.1,177.2 112.4,177.2 110.6,177.2 108.8,177.2 107.1,177.2 105.3,177.2 103.6,177.2 103.6,179 101.8,179 100.1,179 98.3,179 
			98.3,180.7 96.5,180.7 96.5,182.5 94.8,182.5 94.8,184.2 93,184.2 93,186 91.3,186 91.3,187.8 89.5,187.8 89.5,189.5 87.8,189.5 
			87.8,193 86,193 86,196.5 84.2,196.5 84.2,201.8 82.5,201.8 82.5,203.6 82.5,207.1 82.5,210.6 82.5,212.4 84.2,212.4 84.2,210.6 
			84.2,208.8 86,208.8 86,207.1 87.8,207.1 89.5,207.1 91.3,207.1 91.3,205.3 93,205.3 93,207.1 94.8,207.1 94.8,205.3 96.5,205.3 
			98.3,205.3 100.1,205.3 101.8,205.3 103.6,205.3 105.3,205.3 105.3,203.6 107.1,203.6 108.8,203.6 110.6,203.6 112.4,203.6 
			112.4,201.8 114.1,201.8 115.9,201.8 115.9,200.1 117.6,200.1 119.4,200.1 119.4,198.3 121.2,198.3 121.2,193 122.9,193 
			122.9,184.2 		"/>
		<g>
			<rect x="216.1" y="180.7" class="st1" width="1.8" height="1.8"/>
			<polygon class="st1" points="214.3,179 212.6,179 210.8,179 210.8,177.2 209,177.2 207.3,177.2 205.5,177.2 203.8,177.2 
				202,177.2 200.3,177.2 200.3,175.5 198.5,175.5 196.7,175.5 196.7,177.2 195,177.2 193.2,177.2 191.5,177.2 189.7,177.2 
				187.9,177.2 186.2,177.2 184.4,177.2 182.7,177.2 180.9,177.2 179.2,177.2 179.2,179 177.4,179 175.6,179 173.9,179 173.9,180.7 
				172.1,180.7 170.4,180.7 170.4,182.5 168.6,182.5 166.9,182.5 166.9,184.2 165.1,184.2 163.3,184.2 163.3,186 161.6,186 
				161.6,187.8 158.1,187.8 158.1,189.5 156.3,189.5 156.3,193 154.5,193 154.5,201.8 152.8,201.8 152.8,208.8 154.5,208.8 
				154.5,212.4 156.3,212.4 156.3,214.1 158.1,214.1 158.1,217.6 161.6,217.6 161.6,219.4 163.3,219.4 163.3,217.6 165.1,217.6 
				166.9,217.6 168.6,217.6 170.4,217.6 172.1,217.6 173.9,217.6 173.9,219.4 175.6,219.4 177.4,219.4 179.2,219.4 180.9,219.4 
				182.7,219.4 184.4,219.4 184.4,217.6 186.2,217.6 187.9,217.6 189.7,217.6 189.7,214.1 191.5,214.1 191.5,212.4 193.2,212.4 
				193.2,210.6 195,210.6 195,207.1 196.7,207.1 196.7,205.3 198.5,205.3 198.5,201.8 200.3,201.8 200.3,196.5 202,196.5 202,193 
				203.8,193 203.8,191.3 203.8,189.5 203.8,187.8 205.5,187.8 205.5,184.2 207.3,184.2 207.3,182.5 207.3,180.7 209,180.7 
				210.8,180.7 212.6,180.7 214.3,180.7 216.1,180.7 216.1,179 			"/>
		</g>
		<g>
			<rect x="126.4" y="119.2" class="st1" width="1.8" height="1.8"/>
			<polygon class="st1" points="154.5,136.8 154.5,135 152.8,135 152.8,133.3 151,133.3 149.3,133.3 149.3,131.5 147.5,131.5 
				147.5,129.7 145.8,129.7 145.8,128 144,128 142.2,128 140.5,128 140.5,126.2 138.7,126.2 137,126.2 137,124.5 135.2,124.5 
				133.5,124.5 133.5,122.7 131.7,122.7 131.7,121 128.2,121 128.2,122.7 129.9,122.7 129.9,124.5 131.7,124.5 131.7,126.2 
				133.5,126.2 133.5,138.5 135.2,138.5 135.2,142.1 137,142.1 137,145.6 138.7,145.6 138.7,149.1 140.5,149.1 140.5,150.8 
				142.2,150.8 142.2,152.6 144,152.6 144,154.4 145.8,154.4 147.5,154.4 149.3,154.4 151,154.4 152.8,154.4 154.5,154.4 
				154.5,152.6 156.3,152.6 156.3,136.8 			"/>
		</g>
		<g>
			<rect x="203.8" y="149.1" class="st1" width="1.8" height="1.8"/>
			<polygon class="st1" points="202,147.3 202,145.6 200.3,145.6 200.3,143.8 198.5,143.8 198.5,142.1 196.7,142.1 195,142.1 
				195,140.3 193.2,140.3 193.2,138.5 191.5,138.5 191.5,136.8 189.7,136.8 189.7,135 187.9,135 186.2,135 186.2,133.3 184.4,133.3 
				175.6,133.3 175.6,135 173.9,135 172.1,135 170.4,135 170.4,136.8 168.6,136.8 168.6,138.5 166.9,138.5 166.9,142.1 165.1,142.1 
				165.1,145.6 163.3,145.6 163.3,154.4 165.1,154.4 166.9,154.4 166.9,156.1 168.6,156.1 170.4,156.1 170.4,157.9 172.1,157.9 
				173.9,157.9 184.4,157.9 184.4,156.1 186.2,156.1 187.9,156.1 187.9,154.4 189.7,154.4 191.5,154.4 191.5,152.6 193.2,152.6 
				195,152.6 195,150.8 196.7,150.8 198.5,150.8 198.5,149.1 200.3,149.1 202,149.1 203.8,149.1 203.8,147.3 			"/>
		</g>
		<g>
			<polygon class="st2" points="161.6,214.1 161.6,215.9 163.3,215.9 163.3,214.1 163.3,212.4 161.6,212.4 			"/>
			<rect x="163.3" y="210.6" class="st2" width="1.8" height="1.8"/>
			<polygon class="st2" points="165.1,208.8 165.1,210.6 166.9,210.6 166.9,208.8 166.9,207.1 165.1,207.1 			"/>
			<rect x="166.9" y="205.3" class="st2" width="1.8" height="1.8"/>
			<rect x="168.6" y="203.6" class="st2" width="1.8" height="1.8"/>
			<rect x="170.4" y="201.8" class="st2" width="1.8" height="1.8"/>
			<rect x="172.1" y="200.1" class="st2" width="1.8" height="1.8"/>
			<rect x="173.9" y="198.3" class="st2" width="1.8" height="1.8"/>
			<rect x="175.6" y="196.5" class="st2" width="1.8" height="1.8"/>
			<rect x="177.4" y="194.8" class="st2" width="1.8" height="1.8"/>
			<rect x="179.2" y="193" class="st2" width="1.8" height="1.8"/>
			<rect x="180.9" y="191.3" class="st2" width="1.8" height="1.8"/>
			<rect x="135.2" y="231.7" class="st2" width="1.8" height="1.8"/>
			<rect x="137" y="229.9" class="st2" width="1.8" height="1.8"/>
			<rect x="138.7" y="228.2" class="st2" width="1.8" height="1.8"/>
			<polygon class="st2" points="140.5,226.4 140.5,228.2 142.2,228.2 144,228.2 144,226.4 142.2,226.4 			"/>
			<rect x="165.1" y="149.1" class="st2" width="1.8" height="1.8"/>
			<rect x="166.9" y="147.3" class="st2" width="1.8" height="1.8"/>
			<rect x="168.6" y="145.6" class="st2" width="1.8" height="1.8"/>
			<rect x="145.8" y="34.8" class="st2" width="1.8" height="1.8"/>
			<polygon class="st2" points="172.1,261.6 170.4,261.6 170.4,258.1 168.6,258.1 168.6,254.5 166.9,254.5 166.9,252.8 165.1,252.8 
				165.1,247.5 163.3,247.5 163.3,245.8 161.6,245.8 161.6,238.7 159.8,238.7 159.8,237 159.8,221.2 161.6,221.2 161.6,217.6 
				159.8,217.6 159.8,177.2 159.8,171.9 159.8,157.9 159.8,156.1 161.6,156.1 161.6,154.4 163.3,154.4 163.3,152.6 165.1,152.6 
				165.1,150.8 163.3,150.8 161.6,150.8 161.6,152.6 159.8,152.6 158.1,152.6 158.1,145.6 158.1,119.2 158.1,117.4 159.8,117.4 
				159.8,113.9 161.6,113.9 161.6,112.2 163.3,112.2 166.9,112.2 166.9,110.4 168.6,110.4 168.6,108.7 170.4,108.7 170.4,106.9 
				170.4,105.1 170.4,103.4 170.4,98.1 170.4,96.4 172.1,96.4 172.1,91.1 170.4,91.1 170.4,92.8 168.6,92.8 168.6,91.1 168.6,87.6 
				170.4,87.6 170.4,85.8 170.4,84 168.6,84 168.6,85.8 166.9,85.8 166.9,82.3 168.6,82.3 168.6,77 166.9,77 166.9,75.3 165.1,75.3 
				165.1,73.5 166.9,73.5 166.9,71.7 168.6,71.7 168.6,70 168.6,68.2 168.6,64.7 166.9,64.7 166.9,66.5 165.1,66.5 165.1,63 
				166.9,63 166.9,61.2 168.6,61.2 168.6,55.9 166.9,55.9 166.9,52.4 165.1,52.4 165.1,54.2 163.3,54.2 163.3,52.4 163.3,50.6 
				165.1,50.6 165.1,48.9 166.9,48.9 166.9,41.9 165.1,41.9 165.1,43.6 163.3,43.6 163.3,40.1 161.6,40.1 161.6,38.3 163.3,38.3 
				163.3,36.6 165.1,36.6 165.1,34.8 165.1,29.6 163.3,29.6 163.3,24.3 161.6,24.3 161.6,20.8 159.8,20.8 159.8,15.5 158.1,15.5 
				158.1,13.7 156.3,13.7 156.3,15.5 154.5,15.5 154.5,19 152.8,19 152.8,24.3 151,24.3 151,29.6 149.3,29.6 149.3,27.8 147.5,27.8 
				147.5,33.1 149.3,33.1 149.3,36.6 147.5,36.6 147.5,40.1 147.5,41.9 149.3,41.9 149.3,43.6 147.5,43.6 145.8,43.6 145.8,47.1 
				147.5,47.1 147.5,48.9 145.8,48.9 145.8,50.6 147.5,50.6 147.5,54.2 145.8,54.2 145.8,55.9 145.8,57.7 147.5,57.7 147.5,61.2 
				149.3,61.2 149.3,63 149.3,64.7 147.5,64.7 147.5,66.5 147.5,68.2 149.3,68.2 149.3,70 147.5,70 147.5,71.7 147.5,73.5 
				149.3,73.5 149.3,77 147.5,77 145.8,77 144,77 144,82.3 145.8,82.3 145.8,84 147.5,84 147.5,85.8 145.8,85.8 144,85.8 144,89.3 
				144,91.1 145.8,91.1 145.8,92.8 144,92.8 144,98.1 144,101.6 145.8,101.6 145.8,106.9 147.5,106.9 147.5,108.7 147.5,110.4 
				149.3,110.4 149.3,112.2 154.5,112.2 154.5,113.9 156.3,113.9 156.3,117.4 156.3,119.2 156.3,145.6 156.3,150.8 154.5,150.8 
				154.5,152.6 154.5,156.1 154.5,157.9 156.3,157.9 156.3,159.6 156.3,171.9 156.3,177.2 156.3,222.9 154.5,222.9 152.8,222.9 
				152.8,221.2 149.3,221.2 149.3,219.4 147.5,219.4 147.5,217.6 145.8,217.6 145.8,215.9 144,215.9 144,214.1 142.2,214.1 
				142.2,212.4 140.5,212.4 140.5,208.8 138.7,208.8 138.7,207.1 137,207.1 137,205.3 135.2,205.3 135.2,203.6 133.5,203.6 
				133.5,207.1 135.2,207.1 135.2,208.8 137,208.8 137,210.6 137,212.4 138.7,212.4 138.7,214.1 140.5,214.1 140.5,215.9 
				142.2,215.9 142.2,217.6 144,217.6 144,219.4 145.8,219.4 145.8,221.2 147.5,221.2 147.5,222.9 149.3,222.9 149.3,224.7 
				144,224.7 144,226.4 149.3,226.4 151,226.4 154.5,226.4 154.5,228.2 156.3,228.2 156.3,237 156.3,244 158.1,244 158.1,249.3 
				159.8,249.3 159.8,252.8 161.6,252.8 161.6,256.3 163.3,256.3 163.3,259.8 165.1,259.8 165.1,263.3 166.9,263.3 166.9,265.1 
				168.6,265.1 168.6,266.9 170.4,266.9 172.1,266.9 173.9,266.9 173.9,265.1 173.9,263.3 172.1,263.3 			"/>
			<rect x="98.3" y="150.8" class="st2" width="1.8" height="1.8"/>
			<polygon class="st2" points="115.9,161.4 117.6,161.4 117.6,159.6 121.2,159.6 121.2,147.3 121.2,143.8 121.2,136.8 121.2,133.3 
				119.4,133.3 117.6,133.3 117.6,129.7 119.4,129.7 119.4,126.2 117.6,126.2 117.6,128 115.9,128 115.9,121 114.1,121 114.1,115.7 
				112.4,115.7 112.4,112.2 112.4,110.4 110.6,110.4 110.6,112.2 108.8,112.2 108.8,108.7 107.1,108.7 107.1,110.4 105.3,110.4 
				105.3,112.2 105.3,113.9 103.6,113.9 103.6,117.4 101.8,117.4 101.8,122.7 103.6,122.7 103.6,124.5 101.8,124.5 101.8,129.7 
				101.8,131.5 100.1,131.5 100.1,136.8 98.3,136.8 98.3,138.5 100.1,138.5 100.1,140.3 100.1,143.8 100.1,147.3 101.8,147.3 
				103.6,147.3 103.6,149.1 101.8,149.1 101.8,152.6 100.1,152.6 100.1,154.4 101.8,154.4 101.8,156.1 100.1,156.1 100.1,157.9 
				101.8,157.9 101.8,157.9 107.1,157.9 107.1,159.6 108.8,159.6 108.8,161.4 112.4,161.4 112.4,163.1 114.1,163.1 114.1,164.9 
				115.9,164.9 115.9,163.1 			"/>
			<rect x="131.7" y="200.1" class="st2" width="1.8" height="3.5"/>
			<polygon class="st2" points="128.2,189.5 126.4,189.5 126.4,186 124.7,186 124.7,182.5 122.9,182.5 122.9,177.2 121.2,177.2 
				121.2,173.7 119.4,173.7 119.4,170.2 119.4,168.4 117.6,168.4 117.6,164.9 115.9,164.9 115.9,168.4 115.9,170.2 117.6,170.2 
				117.6,175.5 119.4,175.5 119.4,180.7 121.2,180.7 121.2,182.5 121.2,184.2 122.9,184.2 122.9,186 122.9,187.8 121.2,187.8 
				121.2,189.5 122.9,189.5 124.7,189.5 124.7,191.3 126.4,191.3 126.4,193 126.4,194.8 128.2,194.8 128.2,193 			"/>
			<polygon class="st2" points="129.9,196.5 129.9,194.8 128.2,194.8 128.2,198.3 129.9,198.3 129.9,200.1 131.7,200.1 131.7,196.5 
							"/>
			<polygon class="st2" points="119.4,186 117.6,186 110.6,186 108.8,186 107.1,186 105.3,186 103.6,186 103.6,187.8 105.3,187.8 
				107.1,187.8 108.8,187.8 110.6,187.8 117.6,187.8 119.4,187.8 121.2,187.8 121.2,186 			"/>
			<rect x="100.1" y="189.5" class="st2" width="1.8" height="1.8"/>
			<rect x="98.3" y="191.3" class="st2" width="1.8" height="1.8"/>
			<rect x="96.5" y="193" class="st2" width="1.8" height="1.8"/>
			<rect x="94.8" y="194.8" class="st2" width="1.8" height="1.8"/>
			<rect x="93" y="196.5" class="st2" width="1.8" height="1.8"/>
			<rect x="101.8" y="187.8" class="st2" width="1.8" height="1.8"/>
		</g>
		<polygon class="st2" points="154.5,142.1 154.5,140.3 152.8,140.3 151,140.3 149.3,140.3 149.3,138.5 147.5,138.5 145.8,138.5 
			145.8,140.3 147.5,140.3 147.5,142.1 149.3,142.1 149.3,143.8 151,143.8 151,145.6 152.8,145.6 154.5,145.6 154.5,147.3 
			156.3,147.3 156.3,145.6 156.3,143.8 156.3,142.1 		"/>
		<g>
			<rect x="170.4" y="133.3" class="st2" width="1.8" height="1.8"/>
			<rect x="168.6" y="135" class="st2" width="1.8" height="1.8"/>
			<polygon class="st2" points="165.1,136.8 165.1,138.5 163.3,138.5 161.6,138.5 161.6,140.3 159.8,140.3 159.8,142.1 158.1,142.1 
				158.1,149.1 159.8,149.1 159.8,147.3 161.6,147.3 161.6,145.6 163.3,145.6 163.3,143.8 165.1,143.8 165.1,142.1 166.9,142.1 
				166.9,138.5 168.6,138.5 168.6,136.8 166.9,136.8 			"/>
		</g>
		<rect x="158.1" y="47.1" class="st1" width="1.8" height="3.5"/>
		<rect x="158.1" y="36.6" class="st1" width="1.8" height="7"/>
		<rect x="159.8" y="27.8" class="st1" width="1.8" height="3.5"/>
		<rect x="156.3" y="26" class="st1" width="1.8" height="1.8"/>
		<rect x="159.8" y="52.4" class="st1" width="3.5" height="8.8"/>
		<rect x="159.8" y="47.1" class="st1" width="1.8" height="1.8"/>
		<rect x="161.6" y="75.3" class="st1" width="3.5" height="8.8"/>
		<rect x="159.8" y="77" class="st1" width="3.5" height="3.5"/>
		<rect x="156.3" y="94.6" class="st1" width="1.8" height="5.3"/>
		<rect x="151" y="84" class="st1" width="1.8" height="3.5"/>
		<rect x="152.8" y="75.3" class="st1" width="1.8" height="3.5"/>
		<rect x="166.9" y="92.8" class="st1" width="3.5" height="5.3"/>
		<rect x="161.6" y="91.1" class="st1" width="3.5" height="7"/>
		<rect x="154.5" y="59.4" class="st3" width="1.8" height="12.3"/>
		<rect x="159.8" y="64.7" class="st1" width="5.3" height="10.5"/>
		<rect x="158.1" y="43.6" class="st1" width="1.8" height="5.3"/>
		<rect x="158.1" y="31.3" class="st1" width="1.8" height="7"/>
		<rect x="156.3" y="15.5" class="st4" width="1.8" height="3.5"/>
		<rect x="149.3" y="36.6" class="st4" width="1.8" height="3.5"/>
		<rect x="147.5" y="29.6" class="st4" width="1.8" height="1.8"/>
		<rect x="151" y="24.3" class="st4" width="1.8" height="3.5"/>
		<rect x="154.5" y="22.5" class="st4" width="1.8" height="1.8"/>
		<rect x="158.1" y="20.8" class="st4" width="1.8" height="3.5"/>
		<rect x="147.5" y="48.9" class="st4" width="1.8" height="3.5"/>
		<rect x="147.5" y="45.4" class="st4" width="1.8" height="1.8"/>
		<rect x="151" y="41.9" class="st4" width="1.8" height="3.5"/>
		<rect x="152.8" y="80.5" class="st4" width="1.8" height="3.5"/>
		<rect x="147.5" y="70" class="st4" width="1.8" height="1.8"/>
		<rect x="149.3" y="71.7" class="st4" width="1.8" height="1.8"/>
		<rect x="147.5" y="55.9" class="st4" width="1.8" height="3.5"/>
		<rect x="163.3" y="54.2" class="st4" width="1.8" height="1.8"/>
		<rect x="161.6" y="40.1" class="st4" width="1.8" height="3.5"/>
		<rect x="163.3" y="29.6" class="st4" width="1.8" height="3.5"/>
		<rect x="154.5" y="85.8" class="st4" width="1.8" height="5.3"/>
		<rect x="159.8" y="99.9" class="st4" width="1.8" height="3.5"/>
		<rect x="156.3" y="57.7" class="st1" width="1.8" height="14.1"/>
		<g>
			<polygon class="st5" points="163.3,71.7 161.6,71.7 161.6,70 163.3,70 163.3,68.2 163.3,66.5 161.6,66.5 161.6,64.7 159.8,64.7 
				159.8,66.5 158.1,66.5 158.1,68.2 158.1,70 159.8,70 159.8,71.7 158.1,71.7 156.3,71.7 156.3,73.5 158.1,73.5 158.1,77 159.8,77 
				159.8,78.8 161.6,78.8 161.6,77 163.3,77 163.3,73.5 165.1,73.5 165.1,71.7 			"/>
			<polygon class="st5" points="156.3,64.7 156.3,63 154.5,63 154.5,61.2 156.3,61.2 156.3,59.4 156.3,55.9 154.5,55.9 154.5,54.2 
				152.8,54.2 152.8,55.9 151,55.9 151,57.7 151,61.2 152.8,61.2 152.8,63 149.3,63 149.3,64.7 147.5,64.7 147.5,66.5 149.3,66.5 
				149.3,68.2 151,68.2 151,70 154.5,70 154.5,68.2 156.3,68.2 156.3,66.5 158.1,66.5 158.1,64.7 			"/>
			<polygon class="st6" points="152.8,59.4 152.8,63 151,63 151,64.7 152.8,64.7 152.8,66.5 154.5,66.5 154.5,64.7 154.5,63 
				154.5,59.4 			"/>
			<rect x="152.8" y="61.2" class="st7" width="1.8" height="1.8"/>
			<polygon class="st6" points="161.6,70 161.6,68.2 159.8,68.2 159.8,70 159.8,70 159.8,71.7 159.8,71.7 159.8,75.3 161.6,75.3 
				161.6,71.7 161.6,71.7 161.6,70 			"/>
			<rect x="159.8" y="70" class="st7" width="1.8" height="1.8"/>
			<rect x="170.4" y="70" class="st5" width="1.8" height="7"/>
			<rect x="168.6" y="73.5" class="st5" width="1.8" height="3.5"/>
			<rect x="166.9" y="75.3" class="st5" width="1.8" height="3.5"/>
			<rect x="168.6" y="78.8" class="st5" width="1.8" height="5.3"/>
			<rect x="168.6" y="77" class="st5" width="1.8" height="1.8"/>
			<rect x="170.4" y="77" class="st5" width="1.8" height="7"/>
			<rect x="172.1" y="78.8" class="st5" width="1.8" height="5.3"/>
			<rect x="172.1" y="70" class="st5" width="1.8" height="5.3"/>
			<rect x="170.4" y="75.3" class="st6" width="1.8" height="3.5"/>
			<rect x="168.6" y="77" class="st6" width="1.8" height="1.8"/>
			<polygon class="st5" points="168.6,99.9 168.6,98.1 168.6,94.6 166.9,94.6 166.9,92.8 165.1,92.8 165.1,94.6 163.3,94.6 
				163.3,98.1 165.1,98.1 165.1,99.9 163.3,99.9 163.3,103.4 165.1,103.4 165.1,105.1 166.9,105.1 166.9,106.9 168.6,106.9 
				168.6,105.1 170.4,105.1 170.4,99.9 			"/>
			<polygon class="st5" points="156.3,99.9 156.3,98.1 156.3,94.6 156.3,92.8 154.5,92.8 152.8,92.8 152.8,94.6 151,94.6 151,98.1 
				152.8,98.1 152.8,99.9 149.3,99.9 149.3,103.4 151,103.4 151,105.1 152.8,105.1 152.8,106.9 154.5,106.9 154.5,105.1 
				156.3,105.1 156.3,103.4 158.1,103.4 158.1,99.9 			"/>
			<polygon class="st6" points="165.1,96.4 165.1,99.9 166.9,99.9 166.9,101.6 168.6,101.6 168.6,96.4 			"/>
			<rect x="166.9" y="98.1" class="st7" width="1.8" height="1.8"/>
			<polygon class="st6" points="156.3,98.1 154.5,98.1 154.5,96.4 152.8,96.4 152.8,98.1 152.8,99.9 152.8,101.6 154.5,101.6 
				154.5,99.9 156.3,99.9 			"/>
			<rect x="152.8" y="98.1" class="st7" width="1.8" height="1.8"/>
			<polygon class="st5" points="147.5,89.3 147.5,87.6 145.8,87.6 145.8,85.8 144,85.8 144,87.6 142.2,87.6 142.2,91.1 144,91.1 
				144,92.8 145.8,92.8 145.8,94.6 144,94.6 144,96.4 142.2,96.4 142.2,98.1 144,98.1 144,99.9 145.8,99.9 147.5,99.9 149.3,99.9 
				149.3,98.1 149.3,96.4 149.3,94.6 149.3,91.1 149.3,89.3 			"/>
			<polygon class="st5" points="151,106.9 151,105.1 149.3,105.1 149.3,105.1 149.3,103.4 147.5,103.4 147.5,101.6 145.8,101.6 
				144,101.6 144,103.4 144,105.1 145.8,105.1 147.5,105.1 147.5,105.1 145.8,105.1 145.8,108.7 147.5,108.7 147.5,110.4 
				149.3,110.4 151,110.4 152.8,110.4 152.8,106.9 			"/>
			<rect x="147.5" y="105.1" class="st6" width="1.8" height="3.5"/>
			<rect x="147.5" y="105.1" class="st7" width="1.8" height="1.8"/>
			<rect x="145.8" y="105.1" class="st6" width="1.8" height="1.8"/>
			<polygon class="st6" points="149.3,92.8 147.5,92.8 147.5,91.1 145.8,91.1 145.8,92.8 145.8,94.6 145.8,96.4 147.5,96.4 
				147.5,94.6 149.3,94.6 			"/>
			<rect x="145.8" y="92.8" class="st7" width="1.8" height="1.8"/>
		</g>
		<rect x="158.1" y="70" class="st3" width="1.8" height="1.8"/>
		<rect x="159.8" y="61.2" class="st3" width="1.8" height="3.5"/>
		<rect x="158.1" y="50.6" class="st4" width="1.8" height="5.3"/>
		<rect x="158.1" y="36.6" class="st3" width="1.8" height="5.3"/>
		<rect x="159.8" y="26" class="st3" width="1.8" height="5.3"/>
		<rect x="161.6" y="24.3" class="st1" width="1.8" height="4.9"/>
		<rect x="154.5" y="36.6" class="st4" width="1.8" height="3.5"/>
		<rect x="152.8" y="31.3" class="st4" width="1.8" height="1.8"/>
		<rect x="144" y="77" class="st4" width="1.8" height="1.8"/>
		<rect x="145.8" y="78.8" class="st4" width="1.8" height="1.8"/>
		<rect x="144" y="99.9" class="st3" width="5.3" height="1.8"/>
		<rect x="161.6" y="103.4" class="st3" width="3.5" height="3.5"/>
		<rect x="168.6" y="94.6" class="st3" width="1.8" height="5.3"/>
		<rect x="159.8" y="98.1" class="st3" width="5.3" height="1.8"/>
		<rect x="161.6" y="94.6" class="st3" width="1.8" height="3.5"/>
		<rect x="161.6" y="99.9" class="st3" width="1.8" height="1.8"/>
		<rect x="156.3" y="98.1" class="st3" width="1.8" height="1.8"/>
		<rect x="149.3" y="94.6" class="st3" width="1.8" height="5.3"/>
		<rect x="165.1" y="105.1" class="st3" width="1.8" height="3.5"/>
		<rect x="168.6" y="105.1" class="st4" width="1.8" height="1.8"/>
		<rect x="158.1" y="98.1" class="st1" width="1.8" height="10.5"/>
		<rect x="147.5" y="101.6" class="st1" width="1.8" height="1.8"/>
		<rect x="149.3" y="103.4" class="st1" width="1.8" height="1.8"/>
		<rect x="151" y="105.1" class="st1" width="1.8" height="1.8"/>
		<rect x="151" y="98.1" class="st1" width="1.8" height="1.8"/>
		<rect x="152.8" y="106.9" class="st1" width="1.8" height="3.5"/>
		<rect x="156.3" y="103.4" class="st1" width="1.8" height="3.5"/>
		<rect x="154.5" y="105.1" class="st1" width="3.5" height="7"/>
		<rect x="158.1" y="108.7" class="st1" width="1.8" height="5.3"/>
		<rect x="149.3" y="103.4" class="st3" width="1.8" height="1.8"/>
		<rect x="154.5" y="105.1" class="st3" width="1.8" height="3.5"/>
		<rect x="152.8" y="106.9" class="st3" width="3.5" height="1.8"/>
		<rect x="154.5" y="108.7" class="st3" width="1.8" height="3.5"/>
		<rect x="166.9" y="64.7" class="st4" width="1.8" height="3.5"/>
		<rect x="165.1" y="52.4" class="st4" width="1.8" height="1.8"/>
		<rect x="152.8" y="48.9" class="st4" width="1.8" height="3.5"/>
		<rect x="165.1" y="41.9" class="st4" width="1.8" height="1.8"/>
		<rect x="168.6" y="84" class="st4" width="1.8" height="1.8"/>
		<rect x="165.1" y="75.3" class="st4" width="1.8" height="1.8"/>
		<rect x="170.4" y="91.1" class="st4" width="1.8" height="3.5"/>
		<rect x="149.3" y="87.6" class="st4" width="1.8" height="1.8"/>
		<rect x="161.6" y="82.3" class="st3" width="1.8" height="5.3"/>
		<rect x="158.1" y="78.8" class="st3" width="1.8" height="3.5"/>
		<rect x="159.8" y="91.1" class="st3" width="1.8" height="1.8"/>
		<rect x="156.3" y="87.6" class="st1" width="1.8" height="5.3"/>
		<rect x="147.5" y="82.3" class="st1" width="1.8" height="1.8"/>
		<rect x="151" y="73.5" class="st1" width="1.8" height="1.8"/>
		<rect x="149.3" y="52.4" class="st1" width="1.8" height="1.8"/>
		<rect x="151" y="54.2" class="st1" width="1.8" height="1.8"/>
		<rect x="149.3" y="47.1" class="st1" width="1.8" height="1.8"/>
		<rect x="154.5" y="40.1" class="st1" width="1.8" height="1.8"/>
		<rect x="156.3" y="41.9" class="st1" width="1.8" height="1.8"/>
		<rect x="154.5" y="33.1" class="st1" width="1.8" height="1.8"/>
		<rect x="156.3" y="34.8" class="st1" width="1.8" height="1.8"/>
		<rect x="149.3" y="31.3" class="st1" width="1.8" height="1.8"/>
		<rect x="151" y="40.1" class="st1" width="1.8" height="1.8"/>
		<rect x="152.8" y="45.4" class="st1" width="1.8" height="1.8"/>
		<rect x="156.3" y="19" class="st1" width="1.8" height="1.8"/>
		<rect x="156.3" y="24.3" class="st1" width="1.8" height="1.8"/>
		<rect x="161.6" y="33.1" class="st1" width="1.8" height="1.8"/>
		<rect x="163.3" y="45.4" class="st1" width="1.8" height="3.5"/>
		<rect x="161.6" y="48.9" class="st3" width="3.5" height="1.8"/>
		<rect x="163.3" y="61.2" class="st3" width="3.5" height="1.8"/>
		<rect x="165.1" y="71.7" class="st3" width="1.8" height="1.8"/>
		<rect x="163.3" y="77" class="st3" width="1.8" height="1.8"/>
		<rect x="163.3" y="68.2" class="st3" width="1.8" height="3.5"/>
		<rect x="165.1" y="85.8" class="st4" width="1.8" height="3.5"/>
		<rect x="158.1" y="84" class="st4" width="1.8" height="1.8"/>
		<rect x="154.5" y="71.7" class="st4" width="1.8" height="1.8"/>
		<rect x="156.3" y="47.1" class="st4" width="1.8" height="1.8"/>
		<rect x="154.5" y="15.5" class="st4" width="1.8" height="1.8"/>
		<rect x="158.1" y="13.7" class="st4" width="1.8" height="1.8"/>
		<rect x="149.3" y="77" class="st4" width="1.8" height="1.8"/>
		<rect x="159.8" y="105.1" class="st4" width="1.8" height="1.8"/>
		<rect x="158.1" y="108.7" class="st4" width="3.5" height="1.8"/>
		<rect x="158.1" y="110.4" class="st3" width="1.8" height="5.3"/>
		<rect x="156.3" y="103.4" class="st3" width="1.8" height="3.5"/>
		<rect x="154.5" y="50.6" class="st1" width="1.8" height="5.3"/>
		<rect x="147.5" y="34.8" class="st4" width="1.8" height="1.8"/>
		<rect x="161.6" y="57.7" class="st2" width="3.5" height="1.8"/>
		<rect x="165.1" y="59.4" class="st1" width="1.8" height="1.8"/>
		<rect x="159.8" y="54.2" class="st3" width="1.8" height="1.8"/>
		<g>
			<rect x="170.4" y="133.3" class="st4" width="1.8" height="1.8"/>
			<rect x="168.6" y="135" class="st4" width="1.8" height="1.8"/>
			<rect x="166.9" y="136.8" class="st4" width="1.8" height="1.8"/>
		</g>
		<polygon class="st4" points="149.3,140.3 149.3,138.5 147.5,138.5 145.8,138.5 145.8,140.3 147.5,140.3 147.5,142.1 149.3,142.1 
			151,142.1 151,140.3 		"/>
		<rect x="145.8" y="152.6" class="st3" width="8.8" height="1.8"/>
		<rect x="151" y="149.1" class="st3" width="3.5" height="3.5"/>
		<rect x="145.8" y="147.3" class="st3" width="1.8" height="1.8"/>
		<rect x="152.8" y="147.3" class="st3" width="1.8" height="1.8"/>
		<rect x="140.5" y="145.6" class="st3" width="1.8" height="1.8"/>
		<rect x="142.2" y="142.1" class="st3" width="1.8" height="1.8"/>
		<rect x="149.3" y="147.3" class="st3" width="1.8" height="1.8"/>
		<rect x="147.5" y="145.6" class="st3" width="1.8" height="1.8"/>
		<rect x="144" y="150.8" class="st3" width="1.8" height="1.8"/>
		<rect x="151" y="136.8" class="st3" width="1.8" height="1.8"/>
		<rect x="163.3" y="152.6" class="st3" width="3.5" height="1.8"/>
		<rect x="166.9" y="150.8" class="st3" width="1.8" height="1.8"/>
		<rect x="165.1" y="147.3" class="st3" width="1.8" height="1.8"/>
		<rect x="179.2" y="145.6" class="st3" width="1.8" height="1.8"/>
		<rect x="186.2" y="147.3" class="st3" width="1.8" height="1.8"/>
		<rect x="170.4" y="143.8" class="st2" width="1.8" height="1.8"/>
		<rect x="172.1" y="142.1" class="st2" width="1.8" height="1.8"/>
		<rect x="172.1" y="142.1" class="st2" width="5.3" height="1.8"/>
		<rect x="179.2" y="156.1" class="st3" width="1.8" height="1.8"/>
		<rect x="166.9" y="152.6" class="st3" width="1.8" height="3.5"/>
		<rect x="165.1" y="150.8" class="st3" width="5.3" height="1.8"/>
		<rect x="163.3" y="147.3" class="st3" width="1.8" height="3.5"/>
		<rect x="168.6" y="154.4" class="st3" width="3.5" height="1.8"/>
		<rect x="170.4" y="154.4" class="st3" width="1.8" height="3.5"/>
		<rect x="175.6" y="154.4" class="st3" width="1.8" height="1.8"/>
		<rect x="172.1" y="156.1" class="st3" width="3.5" height="1.8"/>
		<rect x="182.7" y="136.8" class="st3" width="1.8" height="1.8"/>
		<rect x="136.8" y="129.7" class="st4" width="1.8" height="1.8"/>
		<rect x="175.6" y="140.3" class="st4" width="7" height="1.8"/>
		<rect x="140.5" y="133.3" class="st4" width="1.8" height="1.8"/>
		<rect x="159.8" y="210.6" class="st3" width="1.8" height="7"/>
		<rect x="161.6" y="215.9" class="st3" width="1.8" height="3.5"/>
		<rect x="163.3" y="215.9" class="st3" width="10.5" height="1.8"/>
		<rect x="163.3" y="217.6" class="st3" width="17.6" height="1.8"/>
		<rect x="165.1" y="219.4" class="st3" width="12.3" height="1.8"/>
		<rect x="182.7" y="205.3" class="st3" width="1.8" height="1.8"/>
		<rect x="165.1" y="193" class="st3" width="1.8" height="1.8"/>
		<rect x="177.4" y="208.8" class="st3" width="1.8" height="3.5"/>
		<rect x="180.9" y="214.1" class="st3" width="1.8" height="3.5"/>
		<rect x="184.4" y="215.9" class="st3" width="3.5" height="1.8"/>
		<rect x="186.2" y="210.6" class="st3" width="1.8" height="1.8"/>
		<rect x="195" y="186" class="st3" width="1.8" height="1.8"/>
		<rect x="193.2" y="194.8" class="st3" width="1.8" height="1.8"/>
		<rect x="190.5" y="204.6" class="st3" width="1.8" height="1.8"/>
		<rect x="166.9" y="212.4" class="st3" width="5.3" height="1.8"/>
		<rect x="177.4" y="184.2" class="st4" width="3.5" height="1.8"/>
		<rect x="182.7" y="180.7" class="st4" width="5.3" height="1.8"/>
		<rect x="193.2" y="180.7" class="st4" width="1.8" height="1.8"/>
		<rect x="170.4" y="193" class="st4" width="1.8" height="1.8"/>
		<rect x="151" y="226.4" class="st3" width="3.5" height="1.8"/>
		<rect x="154.5" y="228.2" class="st3" width="1.8" height="21.1"/>
		<rect x="152.8" y="251" class="st3" width="1.8" height="1.8"/>
		<rect x="151" y="252.8" class="st3" width="1.8" height="1.8"/>
		<rect x="149.3" y="254.5" class="st3" width="1.8" height="1.8"/>
		<rect x="145.8" y="254.5" class="st3" width="1.8" height="3.5"/>
		<rect x="147.5" y="247.5" class="st3" width="1.8" height="1.8"/>
		<rect x="151" y="247.5" class="st3" width="1.8" height="1.8"/>
		<rect x="149.3" y="251" class="st3" width="1.8" height="1.8"/>
		<rect x="151" y="235.2" class="st3" width="1.8" height="1.8"/>
		<rect x="149.3" y="240.5" class="st3" width="1.8" height="1.8"/>
		<rect x="147.5" y="229.9" class="st3" width="1.8" height="1.8"/>
		<rect x="152.8" y="228.2" class="st3" width="1.8" height="3.5"/>
		<rect x="152.8" y="245.8" class="st3" width="1.8" height="5.3"/>
		<rect x="147.5" y="254.5" class="st3" width="1.8" height="1.8"/>
		<rect x="144" y="258.1" class="st3" width="1.8" height="3.5"/>
		<rect x="142.2" y="252.8" class="st3" width="1.8" height="1.8"/>
		<rect x="142.2" y="242.2" class="st3" width="1.8" height="1.8"/>
		<rect x="137" y="259.8" class="st3" width="1.8" height="1.8"/>
		<rect x="133.5" y="268.6" class="st3" width="1.8" height="1.8"/>
		<rect x="133.5" y="275.6" class="st3" width="1.8" height="3.5"/>
		<rect x="129.9" y="284.4" class="st3" width="1.8" height="1.8"/>
		<rect x="138.7" y="265.1" class="st3" width="1.8" height="1.8"/>
		<rect x="128.2" y="277.4" class="st3" width="1.8" height="1.8"/>
		<rect x="115.9" y="251" class="st4" width="1.8" height="3.5"/>
		<rect x="117.6" y="247.5" class="st4" width="1.8" height="3.5"/>
		<rect x="117.6" y="256.3" class="st4" width="1.8" height="1.8"/>
		<rect x="133.5" y="233.5" class="st2" width="1.8" height="1.8"/>
		<rect x="131.7" y="235.2" class="st2" width="1.8" height="1.8"/>
		<rect x="129.9" y="237" class="st2" width="1.8" height="3.5"/>
		<rect x="128.2" y="240.5" class="st2" width="1.8" height="1.8"/>
		<rect x="126.4" y="242.2" class="st2" width="1.8" height="5.3"/>
		<rect x="121.2" y="189.5" class="st3" width="1.8" height="3.5"/>
		<rect x="119.4" y="193" class="st3" width="1.8" height="5.3"/>
		<rect x="115.9" y="198.3" class="st3" width="3.5" height="1.8"/>
		<rect x="108.8" y="194.8" class="st3" width="1.8" height="1.8"/>
		<rect x="101.8" y="200.1" class="st3" width="1.8" height="1.8"/>
		<rect x="108.8" y="201.8" class="st3" width="3.5" height="1.8"/>
		<rect x="114.1" y="200.1" class="st3" width="1.8" height="1.8"/>
		<rect x="114.1" y="189.5" class="st3" width="1.8" height="1.8"/>
		<rect x="89.5" y="191.3" class="st4" width="1.8" height="1.8"/>
		<rect x="87.8" y="196.5" class="st4" width="1.8" height="1.8"/>
		<rect x="117.6" y="196.5" class="st3" width="1.8" height="3.5"/>
		<rect x="110.6" y="200.1" class="st3" width="3.5" height="1.8"/>
		<rect x="114.1" y="196.5" class="st3" width="1.8" height="1.8"/>
		<rect x="103.6" y="193" class="st3" width="1.8" height="1.8"/>
		<rect x="86" y="198.3" class="st4" width="1.8" height="3.5"/>
		<rect x="149.3" y="78.8" class="st1" width="1.8" height="3.5"/>
		<rect x="149.3" y="73.5" class="st1" width="1.8" height="1.8"/>
		<rect x="149.3" y="59.4" class="st1" width="1.8" height="3.5"/>
		<rect x="151" y="33.1" class="st1" width="1.8" height="3.5"/>
		<rect x="149.3" y="40.1" class="st1" width="3.5" height="1.8"/>
		<rect x="158.1" y="45.4" class="st3" width="1.8" height="3.5"/>
		<rect x="156.3" y="33.1" class="st3" width="1.8" height="1.8"/>
		<rect x="156.3" y="77" class="st3" width="1.8" height="1.8"/>
		<rect x="156.3" y="75.3" class="st1" width="1.8" height="1.8"/>
		<rect x="158.1" y="77" class="st1" width="1.8" height="1.8"/>
		<rect x="165.1" y="70" class="st1" width="1.8" height="1.8"/>
		<rect x="166.9" y="55.9" class="st4" width="1.8" height="1.8"/>
		<rect x="151" y="89.3" class="st4" width="1.8" height="1.8"/>
		<rect x="107.1" y="108.7" class="st4" width="1.8" height="1.8"/>
		<rect x="105.3" y="128" class="st4" width="1.8" height="3.5"/>
		<rect x="105.3" y="121" class="st4" width="1.8" height="3.5"/>
		<rect x="101.8" y="119.2" class="st4" width="1.8" height="1.8"/>
		<rect x="103.6" y="113.9" class="st4" width="1.8" height="1.8"/>
		<rect x="100.1" y="133.3" class="st4" width="1.8" height="3.5"/>
		<rect x="105.3" y="135" class="st4" width="1.8" height="1.8"/>
		<rect x="119.4" y="145.6" class="st4" width="1.8" height="1.8"/>
		<rect x="100.1" y="143.8" class="st4" width="1.8" height="1.8"/>
		<rect x="108.8" y="124.5" class="st4" width="1.8" height="1.8"/>
		<rect x="108.8" y="117.4" class="st4" width="1.8" height="1.8"/>
		<rect x="107.1" y="110.4" class="st4" width="1.8" height="1.8"/>
		<rect x="112.4" y="135" class="st3" width="1.8" height="8.8"/>
		<rect x="114.1" y="133.3" class="st3" width="1.8" height="14.1"/>
		<rect x="115.9" y="138.5" class="st3" width="1.8" height="7"/>
		<rect x="117.6" y="143.8" class="st3" width="1.8" height="1.8"/>
		<rect x="112.4" y="149.1" class="st3" width="1.8" height="3.5"/>
		<rect x="114.1" y="149.1" class="st3" width="1.8" height="5.3"/>
		<rect x="121.2" y="150.8" class="st3" width="1.8" height="5.3"/>
		<rect x="105.3" y="149.1" class="st3" width="3.5" height="1.8"/>
		<rect x="105.3" y="150.8" class="st3" width="3.5" height="1.8"/>
		<rect x="103.6" y="143.8" class="st3" width="1.8" height="5.3"/>
		<rect x="105.3" y="138.5" class="st3" width="1.8" height="7"/>
		<rect x="100.1" y="140.3" class="st3" width="5.3" height="1.8"/>
		<rect x="110.6" y="129.7" class="st3" width="1.8" height="1.8"/>
		<rect x="112.4" y="128" class="st3" width="1.8" height="1.8"/>
		<rect x="108.8" y="121" class="st3" width="1.8" height="1.8"/>
		<rect x="110.6" y="122.7" class="st3" width="1.8" height="1.8"/>
		<rect x="112.4" y="119.2" class="st3" width="1.8" height="3.5"/>
		<rect x="107.1" y="117.4" class="st3" width="1.8" height="3.5"/>
		<rect x="108.8" y="115.7" class="st3" width="1.8" height="1.8"/>
		<rect x="107.1" y="136.8" class="st3" width="1.8" height="1.8"/>
		<rect x="108.8" y="135" class="st3" width="1.8" height="1.8"/>
		<rect x="112.4" y="154.4" class="st3" width="1.8" height="3.5"/>
		<rect x="115.9" y="157.9" class="st3" width="1.8" height="1.8"/>
		<rect x="114.1" y="156.1" class="st3" width="1.8" height="1.8"/>
		<rect x="119.4" y="150.8" class="st3" width="1.8" height="1.8"/>
		<rect x="117.6" y="138.5" class="st1" width="1.8" height="5.3"/>
		<rect x="114.1" y="135" class="st1" width="1.8" height="5.3"/>
		<rect x="105.3" y="136.8" class="st1" width="1.8" height="1.8"/>
		<rect x="107.1" y="135" class="st1" width="1.8" height="1.8"/>
		<rect x="101.8" y="135" class="st1" width="1.8" height="3.5"/>
		<rect x="105.3" y="131.5" class="st1" width="3.5" height="1.8"/>
		<rect x="107.1" y="129.7" class="st1" width="1.8" height="1.8"/>
		<rect x="107.1" y="124.5" class="st1" width="1.8" height="3.5"/>
		<rect x="110.6" y="126.2" class="st1" width="1.8" height="3.5"/>
		<rect x="108.8" y="119.2" class="st1" width="1.8" height="1.8"/>
		<rect x="107.1" y="112.2" class="st1" width="1.8" height="3.5"/>
		<rect x="110.6" y="117.4" class="st1" width="1.8" height="3.5"/>
		<rect x="103.6" y="121" class="st1" width="1.8" height="1.8"/>
		<rect x="103.6" y="115.7" class="st1" width="1.8" height="3.5"/>
		<rect x="114.1" y="149.1" class="st1" width="1.8" height="1.8"/>
		<rect x="114.1" y="142.1" class="st1" width="1.8" height="1.8"/>
		<rect x="105.3" y="142.1" class="st1" width="1.8" height="1.8"/>
		<rect x="101.8" y="143.8" class="st1" width="1.8" height="1.8"/>
		<rect x="103.6" y="147.3" class="st1" width="1.8" height="1.8"/>
		<rect x="105.3" y="149.1" class="st1" width="1.8" height="1.8"/>
		<rect x="115.9" y="152.6" class="st1" width="1.8" height="3.5"/>
		<rect x="117.6" y="150.8" class="st1" width="1.8" height="1.8"/>
		<rect x="119.4" y="147.3" class="st1" width="1.8" height="1.8"/>
		<g>
			<polygon class="st5" points="117.6,164.9 117.6,163.1 115.9,163.1 115.9,161.4 115.9,159.6 114.1,159.6 112.4,159.6 112.4,163.1 
				114.1,163.1 114.1,164.9 112.4,164.9 112.4,168.4 114.1,168.4 115.9,168.4 115.9,170.2 117.6,170.2 119.4,170.2 119.4,166.7 
				119.4,164.9 			"/>
			<polygon class="st6" points="115.9,163.1 115.9,161.4 114.1,161.4 114.1,163.1 114.1,164.9 114.1,166.7 115.9,166.7 115.9,164.9 
				117.6,164.9 117.6,163.1 			"/>
			<polygon class="st5" points="112.4,143.8 112.4,140.3 110.6,140.3 110.6,138.5 108.8,138.5 108.8,140.3 107.1,140.3 107.1,143.8 
				107.1,145.6 105.3,145.6 105.3,147.3 105.3,149.1 108.8,149.1 108.8,150.8 110.6,150.8 112.4,150.8 112.4,149.1 114.1,149.1 
				114.1,147.3 114.1,145.6 114.1,143.8 			"/>
			<polygon class="st5" points="119.4,135 117.6,135 117.6,133.3 119.4,133.3 119.4,128 117.6,128 115.9,128 115.9,131.5 
				114.1,131.5 114.1,135 115.9,135 115.9,138.5 117.6,138.5 117.6,140.3 119.4,140.3 119.4,138.5 121.2,138.5 121.2,135 			"/>
			<rect x="115.9" y="131.5" class="st6" width="1.8" height="5.3"/>
			<rect x="115.9" y="133.3" class="st7" width="1.8" height="1.8"/>
			<polygon class="st6" points="112.4,143.8 110.6,143.8 110.6,142.1 108.8,142.1 108.8,143.8 108.8,145.6 108.8,147.3 110.6,147.3 
				110.6,145.6 112.4,145.6 			"/>
			<rect x="108.8" y="143.8" class="st7" width="1.8" height="1.8"/>
			<polygon class="st5" points="100.1,142.1 100.1,140.3 101.8,140.3 101.8,136.8 98.3,136.8 98.3,138.5 96.5,138.5 96.5,143.8 
				98.3,143.8 98.3,145.6 96.5,145.6 96.5,149.1 98.3,149.1 98.3,150.8 100.1,150.8 100.1,149.1 101.8,149.1 101.8,145.6 
				103.6,145.6 103.6,143.8 103.6,142.1 			"/>
			<polygon class="st6" points="96.5,142.1 96.5,143.8 98.3,143.8 98.3,145.6 100.1,145.6 100.1,143.8 100.1,142.1 			"/>
			<rect x="96.5" y="143.8" class="st7" width="1.8" height="1.8"/>
			<polygon class="st5" points="126.4,154.4 126.4,150.8 124.7,150.8 124.7,149.1 122.9,149.1 122.9,150.8 121.2,150.8 121.2,154.4 
				119.4,154.4 119.4,156.1 119.4,159.6 117.6,159.6 117.6,163.1 119.4,163.1 121.2,163.1 121.2,164.9 122.9,164.9 124.7,164.9 
				124.7,159.6 126.4,159.6 126.4,157.9 126.4,156.1 124.7,156.1 124.7,154.4 			"/>
			<rect x="121.2" y="154.4" class="st6" width="1.8" height="5.3"/>
			<rect x="121.2" y="156.1" class="st6" width="3.5" height="1.8"/>
			<rect x="121.2" y="156.1" class="st7" width="1.8" height="1.8"/>
			<polygon class="st5" points="112.4,152.6 110.6,152.6 108.8,152.6 107.1,152.6 107.1,154.4 107.1,156.1 108.8,156.1 108.8,157.9 
				110.6,157.9 110.6,159.6 112.4,159.6 112.4,156.1 114.1,156.1 114.1,154.4 114.1,152.6 			"/>
			<polygon class="st5" points="108.8,163.1 108.8,159.6 107.1,159.6 107.1,157.9 105.3,157.9 105.3,161.4 105.3,163.1 103.6,163.1 
				103.6,164.9 105.3,164.9 105.3,166.7 107.1,166.7 107.1,168.4 108.8,168.4 110.6,168.4 110.6,163.1 			"/>
			<rect x="114.1" y="163.1" class="st7" width="1.8" height="1.8"/>
			<polygon class="st6" points="110.6,152.6 108.8,152.6 108.8,154.4 110.6,154.4 110.6,156.1 112.4,156.1 112.4,154.4 112.4,152.6 
							"/>
			<rect x="110.6" y="152.6" class="st7" width="1.8" height="1.8"/>
			<polygon class="st6" points="107.1,161.4 107.1,163.1 105.3,163.1 105.3,164.9 107.1,164.9 108.8,164.9 108.8,163.1 108.8,161.4 
							"/>
			<rect x="107.1" y="163.1" class="st7" width="1.8" height="1.8"/>
		</g>
		<rect x="103.6" y="138.5" class="st1" width="1.8" height="5.3"/>
		<rect x="112.4" y="138.5" class="st1" width="1.8" height="1.8"/>
		<rect x="115.9" y="142.1" class="st1" width="1.8" height="5.3"/>
		<rect x="103.6" y="154.4" class="st1" width="3.5" height="3.5"/>
		<rect x="107.1" y="156.1" class="st1" width="1.8" height="3.5"/>
		<rect x="108.8" y="157.9" class="st1" width="1.8" height="3.5"/>
		<rect x="110.6" y="159.6" class="st1" width="1.8" height="1.8"/>
		<rect x="101.8" y="150.8" class="st1" width="1.8" height="1.8"/>
		<rect x="101.8" y="124.5" class="st4" width="1.8" height="3.5"/>
		<rect x="103.6" y="128" class="st1" width="1.8" height="1.8"/>
		<rect x="114.1" y="124.5" class="st1" width="1.8" height="5.3"/>
		<rect x="117.6" y="126.2" class="st4" width="1.8" height="1.8"/>
		<rect x="114.1" y="121" class="st4" width="1.8" height="1.8"/>
		<rect x="110.6" y="110.4" class="st4" width="1.8" height="1.8"/>
		<rect x="112.4" y="115.7" class="st4" width="1.8" height="1.8"/>
		<rect x="108.8" y="112.2" class="st4" width="1.8" height="1.8"/>
		<rect x="110.6" y="133.3" class="st4" width="1.8" height="1.8"/>
		<rect x="98.3" y="150.8" class="st4" width="1.8" height="1.8"/>
		<rect x="100.1" y="156.1" class="st4" width="1.8" height="1.8"/>
		<rect x="115.9" y="150.8" class="st4" width="1.8" height="1.8"/>
		<rect x="121.2" y="149.1" class="st4" width="1.8" height="1.8"/>
		<rect x="119.4" y="131.5" class="st4" width="1.8" height="1.8"/>
		<rect x="119.4" y="138.5" class="st4" width="1.8" height="1.8"/>
		<rect x="115.9" y="142.1" class="st2" width="1.8" height="3.5"/>
		<rect x="114.1" y="140.3" class="st2" width="1.8" height="1.8"/>
		<rect x="112.4" y="136.8" class="st2" width="3.5" height="1.8"/>
		<rect x="101.8" y="140.3" class="st2" width="3.5" height="1.8"/>
		<rect x="107.1" y="131.5" class="st2" width="1.8" height="1.8"/>
		<rect x="110.6" y="119.2" class="st2" width="3.5" height="1.8"/>
		<rect x="110.6" y="159.6" class="st3" width="1.8" height="5.3"/>
		<rect x="115.9" y="159.6" class="st3" width="1.8" height="3.5"/>
		<rect x="107.1" y="156.1" class="st3" width="1.8" height="3.5"/>
		<rect x="103.6" y="154.4" class="st3" width="1.8" height="1.8"/>
		<rect x="112.4" y="157.9" class="st1" width="3.5" height="1.8"/>
		<rect x="114.1" y="154.4" class="st1" width="1.8" height="1.8"/>
		<rect x="108.8" y="161.4" class="st1" width="1.8" height="1.8"/>
		<rect x="112.4" y="163.1" class="st1" width="1.8" height="1.8"/>
		<rect x="103.6" y="157.9" class="st1" width="1.8" height="3.5"/>
	</g>
</g>
<g id="GUIDES">
</g>
</svg>
