<?xml version="1.0" encoding="utf-8"?>
<!-- Generator: Adobe Illustrator 25.2.3, SVG Export Plug-In . SVG Version: 6.00 Build 0)  -->
<svg version="1.1" xmlns="http://www.w3.org/2000/svg" xmlns:xlink="http://www.w3.org/1999/xlink" x="0px" y="0px"
	 viewBox="0 0 300 300" style="enable-background:new 0 0 300 300;" xml:space="preserve">
<style type="text/css">
	.st0{opacity:0.46;}
	.st1{fill:#66890B;}
	.st2{fill:#95BC51;}
	.st3{fill:#3F6905;}
	.st4{fill:#CBE46E;}
	.st5{fill:#757DE0;}
	.st6{fill:#CAC5FF;}
	.st7{fill:#E9ECFD;}
	.st8{opacity:0.41;}
	.st9{opacity:0.69;}
	.st10{opacity:0.27;fill:none;stroke:#57ADA0;stroke-miterlimit:10;}
	.st11{opacity:0.65;}
	.st12{opacity:0.54;}
	.st13{opacity:0.51;}
	.st14{fill:#3FA0A7;}
	.st15{fill:#AB7946;}
	.st16{fill:#03464F;}
	.st17{fill:#026385;}
	.st18{fill:#35BCC0;}
	.st19{fill:#018F9F;}
	.st20{fill:#A53A1C;}
	.st21{fill:#DF5330;}
	.st22{fill:#FF8039;}
	.st23{fill:#EE5E2F;}
	.st24{fill:#A51959;}
	.st25{fill:#C12573;}
	.st26{fill:#FF4DA6;}
	.st27{fill:#D2276E;}
	.st28{fill:#7F7973;}
	.st29{fill:#C0B5AA;}
	.st30{fill:#E4DED5;}
	.st31{fill:#514A43;}
	.st32{fill:#606161;}
	.st33{fill:#BEBFB9;}
	.st34{fill:#3A3A3A;}
	.st35{fill:#302C28;}
	.st36{fill:#161616;}
	.st37{fill:#E1E1DF;}
	.st38{fill:#163A20;}
	.st39{fill:#1A5C31;}
	.st40{fill:#3E9B50;}
	.st41{fill:#23763E;}
	.st42{fill:#41296D;}
	.st43{fill:#513C82;}
	.st44{fill:#775ABF;}
	.st45{fill:#614293;}
	.st46{fill:#6C0F13;}
	.st47{fill:#9E1F25;}
	.st48{fill:#E8222E;}
	.st49{fill:#CF232E;}
	.st50{fill:#D27633;}
	.st51{fill:#DD8A34;}
	.st52{fill:#F5C032;}
	.st53{fill:#F3A634;}
	.st54{fill:#D4EAFF;}
	.st55{fill:#EFFAFC;}
	.st56{fill:#171C05;}
	.st57{fill:#688F50;}
	.st58{fill:#92BA73;}
	.st59{fill:#9FC780;}
	.st60{fill:#A7CB8D;}
	.st61{fill:#9CC17B;}
	.st62{fill:#91B166;}
	.st63{fill:#88988D;}
	.st64{fill:#829788;}
	.st65{fill:#5B7A36;}
	.st66{fill:#2C4704;}
	.st67{fill:#415705;}
	.st68{fill:#7D9732;}
	.st69{fill:#778B34;}
	.st70{fill:#879935;}
	.st71{fill:#A3BA62;}
	.st72{fill:#BFDA95;}
	.st73{fill:#B7D690;}
	.st74{fill:#B8D88C;}
	.st75{fill:#B7D78B;}
	.st76{fill:#B8D68C;}
	.st77{fill:#B2D185;}
	.st78{fill:#AECE85;}
	.st79{fill:#ACC87E;}
	.st80{fill:#A3B078;}
	.st81{fill:#758D8F;}
	.st82{fill:#8B9DF1;}
	.st83{fill:#A3B7F2;}
	.st84{fill:#7FA35B;}
	.st85{fill:#6A9047;}
	.st86{fill:#3D6823;}
	.st87{fill:#325F1C;}
	.st88{fill:#33621E;}
	.st89{fill:#214E0B;}
	.st90{fill:#306811;}
	.st91{fill:#689339;}
	.st92{fill:#95BB6E;}
	.st93{fill:#9BC57D;}
	.st94{fill:#A2C781;}
	.st95{fill:#9AB67C;}
	.st96{fill:#B4C8A5;}
	.st97{fill:#97ACBD;}
	.st98{fill:#7F9C88;}
	.st99{fill:#617830;}
	.st100{fill:#56750D;}
	.st101{fill:#789529;}
	.st102{fill:#91A335;}
	.st103{fill:#A5B650;}
	.st104{fill:#A7BD5B;}
	.st105{fill:#C1D894;}
	.st106{fill:#BCDA9A;}
	.st107{fill:#BEDB98;}
	.st108{fill:#BDDC98;}
	.st109{fill:#B9DA95;}
	.st110{fill:#B0D087;}
	.st111{fill:#9EC477;}
	.st112{fill:#98B86D;}
	.st113{fill:#8D9750;}
	.st114{fill:#798749;}
	.st115{fill:#82964F;}
	.st116{fill:#7F9B6B;}
	.st117{fill:#819D77;}
	.st118{fill:#88A855;}
	.st119{fill:#789C52;}
	.st120{fill:#46732E;}
	.st121{fill:#295613;}
	.st122{fill:#1F490A;}
	.st123{fill:#20490D;}
	.st124{fill:#33680C;}
	.st125{fill:#40700D;}
	.st126{fill:#95B864;}
	.st127{fill:#9DC77F;}
	.st128{fill:#9FC37B;}
	.st129{fill:#B4D191;}
	.st130{fill:#BED9A2;}
	.st131{fill:#A2BD94;}
	.st132{fill:#728D40;}
	.st133{fill:#546E17;}
	.st134{fill:#7A932B;}
	.st135{fill:#B5AD64;}
	.st136{fill:#C2C86E;}
	.st137{fill:#B6BC5A;}
	.st138{fill:#AFB56D;}
	.st139{fill:#AEC87F;}
	.st140{fill:#BFDF96;}
	.st141{fill:#C3DD9C;}
	.st142{fill:#BCD997;}
	.st143{fill:#B3D48D;}
	.st144{fill:#83AD63;}
	.st145{fill:#68893A;}
	.st146{fill:#948C44;}
	.st147{fill:#898836;}
	.st148{fill:#68852B;}
	.st149{fill:#90AC57;}
	.st150{fill:#84A54E;}
	.st151{fill:#7E9C42;}
	.st152{fill:#7D9C56;}
	.st153{fill:#5E8640;}
	.st154{fill:#2D5B13;}
	.st155{fill:#1F4D0C;}
	.st156{fill:#1F4708;}
	.st157{fill:#2A5F07;}
	.st158{fill:#4F7B08;}
	.st159{fill:#80A814;}
	.st160{fill:#90BC5A;}
	.st161{fill:#92BC6A;}
	.st162{fill:#9AC478;}
	.st163{fill:#90B766;}
	.st164{fill:#95B957;}
	.st165{fill:#B0CD70;}
	.st166{fill:#7C9E4A;}
	.st167{fill:#6B861D;}
	.st168{fill:#849A35;}
	.st169{fill:#C5B077;}
	.st170{fill:#B8B872;}
	.st171{fill:#AEB855;}
	.st172{fill:#A9B263;}
	.st173{fill:#95AA65;}
	.st174{fill:#B4D68A;}
	.st175{fill:#BBD895;}
	.st176{fill:#A8CB87;}
	.st177{fill:#81AD62;}
	.st178{fill:#6D8C3E;}
	.st179{fill:#9C9046;}
	.st180{fill:#8F8E3E;}
	.st181{fill:#6E901F;}
	.st182{fill:#90AC45;}
	.st183{fill:#8BAD59;}
	.st184{fill:#729723;}
	.st185{fill:#749B1E;}
	.st186{fill:#547C19;}
	.st187{fill:#204903;}
	.st188{fill:#1F4804;}
	.st189{fill:#35570D;}
	.st190{fill:#2C600E;}
	.st191{fill:#376B07;}
	.st192{fill:#588300;}
	.st193{fill:#779E1D;}
	.st194{fill:#93B55E;}
	.st195{fill:#95BF75;}
	.st196{fill:#729D4B;}
	.st197{fill:#779D30;}
	.st198{fill:#8EB248;}
	.st199{fill:#A5CB80;}
	.st200{fill:#8EB363;}
	.st201{fill:#97B04A;}
	.st202{fill:#AAB674;}
	.st203{fill:#798E33;}
	.st204{fill:#889E32;}
	.st205{fill:#99A962;}
	.st206{fill:#899759;}
	.st207{fill:#99AC6A;}
	.st208{fill:#A5BF76;}
	.st209{fill:#A4C87E;}
	.st210{fill:#ABCA86;}
	.st211{fill:#A7C97F;}
	.st212{fill:#9DB36A;}
	.st213{fill:#939F53;}
	.st214{fill:#86922C;}
	.st215{fill:#749029;}
	.st216{fill:#94B250;}
	.st217{fill:#94B157;}
	.st218{fill:#91B03B;}
	.st219{fill:#7B9F01;}
	.st220{fill:#708B18;}
	.st221{fill:#596920;}
	.st222{fill:#485C15;}
	.st223{fill:#707F2A;}
	.st224{fill:#265F12;}
	.st225{fill:#3F6E08;}
	.st226{fill:#7C9F45;}
	.st227{fill:#82A74A;}
	.st228{fill:#94BA67;}
	.st229{fill:#9AC374;}
	.st230{fill:#83B05D;}
	.st231{fill:#629023;}
	.st232{fill:#88AE3F;}
	.st233{fill:#AFD389;}
	.st234{fill:#99C273;}
	.st235{fill:#A6C568;}
	.st236{fill:#B6CB86;}
	.st237{fill:#77933F;}
	.st238{fill:#6E8B2F;}
	.st239{fill:#718E34;}
	.st240{fill:#819148;}
	.st241{fill:#90A05F;}
	.st242{fill:#9CB271;}
	.st243{fill:#96B268;}
	.st244{fill:#95B569;}
	.st245{fill:#A8C37E;}
	.st246{fill:#A5BE7A;}
	.st247{fill:#8CA257;}
	.st248{fill:#7C9341;}
	.st249{fill:#849D49;}
	.st250{fill:#98B561;}
	.st251{fill:#A8C072;}
	.st252{fill:#A1BD4C;}
	.st253{fill:#7FA206;}
	.st254{fill:#9A9C49;}
	.st255{fill:#9E8B53;}
	.st256{fill:#90804D;}
	.st257{fill:#A19A4C;}
	.st258{fill:#2C5F10;}
	.st259{fill:#688D2E;}
	.st260{fill:#8CB25F;}
	.st261{fill:#9BC273;}
	.st262{fill:#9AC26C;}
	.st263{fill:#9CBE67;}
	.st264{fill:#94BC64;}
	.st265{fill:#98BC64;}
	.st266{fill:#A6C965;}
	.st267{fill:#B3D78F;}
	.st268{fill:#96C36E;}
	.st269{fill:#81AA42;}
	.st270{fill:#83A050;}
	.st271{fill:#819F45;}
	.st272{fill:#83A551;}
	.st273{fill:#799C40;}
	.st274{fill:#8FAE5E;}
	.st275{fill:#93AF65;}
	.st276{fill:#9CB86E;}
	.st277{fill:#98B66C;}
	.st278{fill:#85A854;}
	.st279{fill:#90AB5E;}
	.st280{fill:#9AB66C;}
	.st281{fill:#9EB668;}
	.st282{fill:#94B059;}
	.st283{fill:#7B983E;}
	.st284{fill:#80A345;}
	.st285{fill:#8EB052;}
	.st286{fill:#8AA941;}
	.st287{fill:#83A713;}
	.st288{fill:#8DA52B;}
	.st289{fill:#B2B371;}
	.st290{fill:#C0C084;}
	.st291{fill:#B4AF6B;}
	.st292{clip-path:url(#SVGID_2_);}
	.st293{clip-path:url(#SVGID_4_);}
	.st294{clip-path:url(#SVGID_6_);}
	.st295{fill:#7DC0C9;}
	.st296{fill:#16635B;}
	.st297{fill:#A1D7DB;}
	.st298{fill:#CDC982;}
	.st299{fill:#3C5B3B;}
	.st300{fill:#6B8C5F;}
	.st301{fill:#90AA7D;}
	.st302{fill:#A2B271;}
	.st303{fill:#69463A;}
	.st304{fill:#D6B36F;}
	.st305{fill:#9BB655;}
	.st306{fill:#618F46;}
	.st307{fill:#2B5A38;}
	.st308{fill:#7C672E;}
	.st309{fill:#ABA92E;}
	.st310{fill:#E2E57E;}
	.st311{fill:#CBCA6D;}
</style>
<g id="layout">
</g>
<g id="GUIDES">
	<g>
		<rect x="55.9" y="126" class="st4" width="8.9" height="174.2"/>
		<polygon class="st3" points="104.9,103.7 104.9,94.8 100.4,94.8 100.4,90.4 96,90.4 96,85.9 91.5,85.9 91.5,81.5 87.1,81.5 
			87.1,77 82.6,77 78.2,77 64.8,77 64.8,81.5 55.9,81.5 55.9,85.9 47,85.9 47,90.4 38.1,90.4 38.1,94.8 38.1,99.3 33.6,99.3 
			33.6,108.2 38.1,108.2 38.1,112.6 42.5,112.6 42.5,117.1 51.4,117.1 51.4,121.5 60.4,121.5 60.4,126 64.8,126 64.8,130.5 
			69.3,130.5 69.3,134.9 73.7,134.9 73.7,143.8 78.2,143.8 78.2,148.3 82.6,148.3 87.1,148.3 91.5,148.3 91.5,143.8 96,143.8 
			96,139.4 100.4,139.4 100.4,130.5 104.9,130.5 104.9,121.5 109.3,121.5 109.3,103.7 		"/>
		<g>
			<rect x="82.6" y="139.4" class="st1" width="4.5" height="4.5"/>
			<polygon class="st1" points="78.2,130.5 78.2,121.5 82.6,121.5 82.6,117.1 78.2,117.1 78.2,103.7 73.7,103.7 73.7,108.2 
				60.4,108.2 55.9,108.2 51.4,108.2 51.4,103.7 47,103.7 47,108.2 47,117.1 51.4,117.1 51.4,121.5 55.9,121.5 55.9,126 60.4,126 
				64.8,126 64.8,134.9 73.7,134.9 73.7,139.4 78.2,139.4 82.6,139.4 82.6,130.5 			"/>
		</g>
		<polygon class="st3" points="78.2,143.8 78.2,139.4 73.7,139.4 69.3,139.4 69.3,134.9 51.4,134.9 51.4,130.5 47,130.5 47,126 
			42.5,126 42.5,112.6 38.1,112.6 38.1,108.2 33.6,108.2 33.6,112.6 29.2,112.6 24.7,112.6 24.7,117.1 20.3,117.1 20.3,126 
			15.8,126 15.8,148.3 20.3,148.3 20.3,157.2 24.7,157.2 24.7,161.6 29.2,161.6 33.6,161.6 33.6,166.1 38.1,166.1 38.1,170.5 
			64.8,170.5 64.8,166.1 69.3,166.1 73.7,166.1 73.7,161.6 82.6,161.6 82.6,157.2 87.1,157.2 87.1,152.7 87.1,148.3 87.1,143.8 		
			"/>
		<rect x="55.9" y="121.5" class="st4" width="4.5" height="8.9"/>
		<rect x="51.4" y="112.6" class="st4" width="4.5" height="4.5"/>
		<rect x="55.9" y="117.1" class="st4" width="4.5" height="4.5"/>
		<rect x="64.8" y="117.1" class="st4" width="4.5" height="4.5"/>
		<rect x="60.4" y="126" class="st4" width="8.9" height="4.5"/>
		<rect x="69.3" y="130.5" class="st4" width="4.5" height="4.5"/>
		<rect x="69.3" y="112.6" class="st4" width="4.5" height="4.5"/>
		<rect x="60.4" y="152.7" class="st1" width="4.5" height="4.5"/>
		<rect x="64.8" y="157.2" class="st1" width="4.5" height="4.5"/>
		<rect x="42.5" y="134.9" class="st1" width="26.7" height="4.5"/>
		<rect x="29.2" y="121.5" class="st3" width="8.9" height="8.9"/>
		<rect x="42.5" y="121.5" class="st3" width="13.4" height="4.5"/>
		<rect x="42.5" y="117.1" class="st3" width="4.5" height="4.5"/>
		<rect x="42.5" y="117.1" class="st3" width="8.9" height="8.9"/>
		<rect x="69.3" y="134.9" class="st1" width="4.5" height="8.9"/>
		<rect x="29.2" y="126" class="st3" width="8.9" height="22.3"/>
		<rect x="38.1" y="121.5" class="st3" width="4.5" height="26.7"/>
		<rect x="64.8" y="81.5" class="st1" width="4.5" height="4.5"/>
		<rect x="69.3" y="77" class="st1" width="4.5" height="4.5"/>
		<rect x="47" y="126" class="st3" width="4.5" height="4.5"/>
		<rect x="47" y="126" class="st1" width="4.5" height="13.4"/>
	</g>
	<g>
		<rect x="159.3" y="171.3" class="st4" width="8.9" height="129.2"/>
		<polygon class="st3" points="212.8,159.8 212.8,150.9 208.3,150.9 208.3,128.6 203.9,128.6 203.9,124.2 199.4,124.2 199.4,119.7 
			190.5,119.7 186,119.7 186,115.3 181.6,115.3 181.6,110.8 159.3,110.8 159.3,115.3 150.4,115.3 150.4,119.7 146,119.7 146,124.2 
			141.5,124.2 141.5,128.6 137.1,128.6 132.6,128.6 132.6,133.1 128.1,133.1 128.1,137.5 123.7,137.5 123.7,146.4 119.2,146.4 
			119.2,159.8 123.7,159.8 123.7,164.3 128.1,164.3 132.6,164.3 137.1,164.3 137.1,168.7 141.5,168.7 146,168.7 146,173.2 
			159.3,173.2 159.3,177.6 163.8,177.6 163.8,182.1 172.7,182.1 172.7,186.5 190.5,186.5 190.5,191 195,191 199.4,191 199.4,195.4 
			203.9,195.4 208.3,195.4 208.3,191 212.8,191 217.2,191 217.2,159.8 		"/>
		<g>
			<rect x="168.2" y="164.3" class="st1" width="4.5" height="4.5"/>
			<rect x="172.7" y="159.8" class="st1" width="4.5" height="4.5"/>
			<polygon class="st1" points="212.8,173.2 212.8,168.7 208.3,168.7 208.3,186.5 199.4,186.5 199.4,182.1 195,182.1 195,177.6 
				190.5,177.6 190.5,182.1 181.6,182.1 181.6,177.6 177.1,177.6 177.1,173.2 168.2,173.2 168.2,168.7 159.3,168.7 159.3,164.3 
				146,164.3 141.5,164.3 141.5,155.3 132.6,155.3 132.6,150.9 132.6,146.4 128.1,146.4 128.1,150.9 123.7,150.9 119.2,150.9 
				119.2,159.8 123.7,159.8 128.1,159.8 128.1,164.3 132.6,164.3 132.6,168.7 141.5,168.7 141.5,173.2 146,173.2 150.4,173.2 
				159.3,173.2 159.3,177.6 163.8,177.6 163.8,182.1 172.7,182.1 172.7,186.5 181.6,186.5 190.5,186.5 190.5,191 195,191 195,195.4 
				199.4,195.4 212.8,195.4 212.8,191 217.2,191 217.2,173.2 			"/>
		</g>
		<polygon class="st3" points="203.9,199.9 199.4,199.9 199.4,195.4 195,195.4 195,191 190.5,191 190.5,186.5 186,186.5 
			168.2,186.5 163.8,186.5 159.3,186.5 159.3,182.1 154.9,182.1 154.9,177.6 150.4,177.6 150.4,173.2 146,173.2 146,168.7 
			141.5,168.7 137.1,168.7 137.1,164.3 132.6,164.3 119.2,164.3 114.8,164.3 114.8,168.7 110.3,168.7 110.3,186.5 114.8,186.5 
			114.8,191 119.2,191 123.7,191 123.7,199.9 128.1,199.9 128.1,204.3 128.1,208.8 132.6,208.8 132.6,213.3 137.1,213.3 
			141.5,213.3 141.5,217.7 146,217.7 150.4,217.7 150.4,222.2 154.9,222.2 159.3,222.2 172.7,222.2 172.7,217.7 177.1,217.7 
			181.6,217.7 181.6,213.3 186,213.3 190.5,213.3 190.5,208.8 195,208.8 199.4,208.8 199.4,204.3 203.9,204.3 		"/>
		<g>
			<rect x="128.1" y="208.8" class="st1" width="4.5" height="4.5"/>
			<rect x="132.6" y="213.3" class="st1" width="8.9" height="4.5"/>
			<rect x="123.7" y="199.9" class="st1" width="4.5" height="8.9"/>
			<rect x="119.2" y="191" class="st1" width="4.5" height="8.9"/>
			<polygon class="st1" points="150.4,222.2 150.4,217.7 141.5,217.7 141.5,222.2 146,222.2 146,226.6 168.2,226.6 172.7,226.6 
				172.7,222.2 168.2,222.2 			"/>
			<rect x="172.7" y="217.7" class="st1" width="4.5" height="4.5"/>
			<rect x="114.8" y="186.5" class="st1" width="4.5" height="4.5"/>
		</g>
		<rect x="159.3" y="168.7" class="st4" width="4.5" height="13.4"/>
		<rect x="154.9" y="164.3" class="st4" width="4.5" height="4.5"/>
		<rect x="163.8" y="164.3" class="st4" width="4.5" height="4.5"/>
		<rect x="172.7" y="159.8" class="st4" width="4.5" height="4.5"/>
		<rect x="163.8" y="164.3" class="st4" width="4.5" height="22.3"/>
		<rect x="150.4" y="173.2" class="st1" width="8.9" height="4.5"/>
		<rect x="154.9" y="168.7" class="st1" width="4.5" height="13.4"/>
		<rect x="168.2" y="177.6" class="st1" width="4.5" height="8.9"/>
		<rect x="159.3" y="159.8" class="st1" width="4.5" height="8.9"/>
		<rect x="150.4" y="159.8" class="st1" width="22.3" height="4.5"/>
		<rect x="168.2" y="168.7" class="st1" width="4.5" height="4.5"/>
		<rect x="154.9" y="182.1" class="st1" width="4.5" height="8.9"/>
		<rect x="154.9" y="182.1" class="st1" width="22.3" height="8.9"/>
	</g>
	<g>
		
			<rect x="242.6" y="80.9" transform="matrix(-1 -4.492108e-11 4.492108e-11 -1 494.0694 381.0633)" class="st4" width="8.9" height="219.2"/>
		<polygon class="st3" points="202.5,58.7 202.5,49.8 206.9,49.8 206.9,45.3 211.4,45.3 211.4,40.9 215.9,40.9 215.9,36.4 
			220.3,36.4 220.3,31.9 224.8,31.9 229.2,31.9 242.6,31.9 242.6,36.4 251.5,36.4 251.5,40.9 260.4,40.9 260.4,45.3 269.3,45.3 
			269.3,49.8 269.3,54.2 273.8,54.2 273.8,63.1 269.3,63.1 269.3,67.6 264.9,67.6 264.9,72 255.9,72 255.9,76.5 247,76.5 247,80.9 
			242.6,80.9 242.6,85.4 238.1,85.4 238.1,89.9 233.7,89.9 233.7,98.8 229.2,98.8 229.2,103.2 224.8,103.2 220.3,103.2 215.9,103.2 
			215.9,98.8 211.4,98.8 211.4,94.3 206.9,94.3 206.9,85.4 202.5,85.4 202.5,76.5 198,76.5 198,58.7 		"/>
		<g>
			<rect x="220.3" y="94.3" class="st1" width="4.5" height="4.5"/>
			<polygon class="st1" points="229.2,85.4 229.2,76.5 224.8,76.5 224.8,72 229.2,72 229.2,58.7 233.7,58.7 233.7,63.1 247,63.1 
				251.5,63.1 255.9,63.1 255.9,58.7 260.4,58.7 260.4,63.1 260.4,72 255.9,72 255.9,76.5 251.5,76.5 251.5,80.9 247,80.9 
				242.6,80.9 242.6,89.9 233.7,89.9 233.7,94.3 229.2,94.3 224.8,94.3 224.8,85.4 			"/>
		</g>
		<polygon class="st3" points="229.2,98.8 229.2,94.3 233.7,94.3 238.1,94.3 238.1,89.9 255.9,89.9 255.9,85.4 260.4,85.4 
			260.4,80.9 264.9,80.9 264.9,67.6 269.3,67.6 269.3,63.1 273.8,63.1 273.8,67.6 278.2,67.6 282.7,67.6 282.7,72 287.1,72 
			287.1,80.9 291.6,80.9 291.6,103.2 287.1,103.2 287.1,112.1 282.7,112.1 282.7,116.6 278.2,116.6 273.8,116.6 273.8,121 
			269.3,121 269.3,125.5 242.6,125.5 242.6,121 238.1,121 233.7,121 233.7,116.6 224.8,116.6 224.8,112.1 220.3,112.1 220.3,107.7 
			220.3,103.2 220.3,98.8 		"/>
		
			<rect x="247" y="76.5" transform="matrix(-1 -4.492108e-11 4.492108e-11 -1 498.5237 161.8908)" class="st4" width="4.5" height="8.9"/>
		
			<rect x="251.5" y="67.6" transform="matrix(-1 -4.451296e-11 4.451296e-11 -1 507.4321 139.6197)" class="st4" width="4.5" height="4.5"/>
		
			<rect x="247" y="72" transform="matrix(-1 -4.492108e-11 4.492108e-11 -1 498.5237 148.5281)" class="st4" width="4.5" height="4.5"/>
		
			<rect x="238.1" y="72" transform="matrix(-1 -4.492108e-11 4.492108e-11 -1 480.7068 148.5281)" class="st4" width="4.5" height="4.5"/>
		
			<rect x="238.1" y="80.9" transform="matrix(-1 -4.471724e-11 4.471724e-11 -1 485.161 166.345)" class="st4" width="8.9" height="4.5"/>
		
			<rect x="233.7" y="85.4" transform="matrix(-1 -4.492108e-11 4.492108e-11 -1 471.7983 175.2535)" class="st4" width="4.5" height="4.5"/>
		
			<rect x="233.7" y="67.6" transform="matrix(-1 -4.492108e-11 4.492108e-11 -1 471.7983 139.6197)" class="st4" width="4.5" height="4.5"/>
		
			<rect x="242.6" y="107.7" transform="matrix(-1 -4.492108e-11 4.492108e-11 -1 489.6152 219.7957)" class="st1" width="4.5" height="4.5"/>
		
			<rect x="238.1" y="112.1" transform="matrix(-1 -4.492108e-11 4.492108e-11 -1 480.7068 228.7042)" class="st1" width="4.5" height="4.5"/>
		
			<rect x="238.1" y="89.9" transform="matrix(-1 -4.485313e-11 4.485313e-11 -1 502.9779 184.1619)" class="st1" width="26.7" height="4.5"/>
		
			<rect x="269.3" y="76.5" transform="matrix(-1 -4.512536e-11 4.512536e-11 -1 547.5201 161.8908)" class="st3" width="8.9" height="8.9"/>
		
			<rect x="251.5" y="76.5" transform="matrix(-1 -4.492108e-11 4.492108e-11 -1 516.3406 157.4366)" class="st3" width="13.4" height="4.5"/>
		
			<rect x="260.4" y="72" transform="matrix(-1 -4.492108e-11 4.492108e-11 -1 525.249 148.5281)" class="st3" width="4.5" height="4.5"/>
		
			<rect x="255.9" y="72" transform="matrix(-1 -4.492108e-11 4.492108e-11 -1 520.7948 152.9824)" class="st3" width="8.9" height="8.9"/>
		
			<rect x="233.7" y="89.9" transform="matrix(-1 -4.492108e-11 4.492108e-11 -1 471.7983 188.6162)" class="st1" width="4.5" height="8.9"/>
		
			<rect x="269.3" y="80.9" transform="matrix(-1 -4.471724e-11 4.471724e-11 -1 547.5201 184.1619)" class="st3" width="8.9" height="22.3"/>
		
			<rect x="264.9" y="76.5" transform="matrix(-1 -4.532964e-11 4.532964e-11 -1 534.1575 179.7077)" class="st3" width="4.5" height="26.7"/>
		
			<rect x="238.1" y="36.4" transform="matrix(-1 -4.492108e-11 4.492108e-11 -1 480.7068 77.2605)" class="st1" width="4.5" height="4.5"/>
		
			<rect x="233.7" y="31.9" transform="matrix(-1 -4.492108e-11 4.492108e-11 -1 471.7983 68.3521)" class="st1" width="4.5" height="4.5"/>
		
			<rect x="255.9" y="80.9" transform="matrix(-1 -4.532964e-11 4.532964e-11 -1 516.3406 166.345)" class="st3" width="4.5" height="4.5"/>
		
			<rect x="255.9" y="80.9" transform="matrix(-1 -4.492108e-11 4.492108e-11 -1 516.3406 175.2535)" class="st1" width="4.5" height="13.4"/>
	</g>
</g>
</svg>
