<?xml version="1.0" encoding="utf-8"?>
<!-- Generator: Adobe Illustrator 25.2.3, SVG Export Plug-In . SVG Version: 6.00 Build 0)  -->
<svg version="1.1" xmlns="http://www.w3.org/2000/svg" xmlns:xlink="http://www.w3.org/1999/xlink" x="0px" y="0px"
	 viewBox="0 0 300 250" style="enable-background:new 0 0 300 250;" xml:space="preserve">
<style type="text/css">
	.st0{fill:#A7B941;}
	.st1{fill:#E0E48D;}
	.st2{fill:#8A370F;}
	.st3{fill:#DA895E;}
	.st4{fill:#63240B;}
	.st5{fill:#DC0000;}
	.st6{fill:#FF7A69;}
	.st7{fill:#426024;}
	.st8{fill:#649238;}
	.st9{fill:#645C5A;}
	.st10{fill:#7F6D57;}
	.st11{fill:#4B423B;}
	.st12{fill:#E9E1D4;}
</style>
<g id="layout">
</g>
<g id="GUIDES">
	<g>
		<polygon class="st9" points="202.2,101.2 191.8,101.2 191.8,90.8 181.3,90.8 181.3,80.4 118.7,80.4 118.7,90.8 108.2,90.8 
			108.2,101.2 97.8,101.2 97.8,153.4 108.2,153.4 108.2,163.9 118.7,163.9 118.7,174.3 181.3,174.3 181.3,163.9 191.8,163.9 
			191.8,153.4 202.2,153.4 		"/>
		<rect x="160.4" y="122.1" class="st10" width="20.9" height="10.4"/>
		<rect x="170.9" y="59.5" class="st10" width="20.9" height="10.4"/>
		<rect x="170.9" y="90.8" class="st10" width="20.9" height="10.4"/>
		<rect x="118.7" y="101.2" class="st11" width="20.9" height="10.4"/>
		<rect x="129.1" y="153.4" class="st11" width="20.9" height="10.4"/>
		<rect x="170.9" y="184.7" class="st10" width="20.9" height="10.4"/>
		<rect x="129.1" y="49" class="st11" width="20.9" height="10.4"/>
		<rect x="133.8" y="190.5" class="st11" width="10.4" height="10.4"/>
		<rect x="223.1" y="111.7" class="st10" width="10.4" height="10.4"/>
		<rect x="108.2" y="122.1" class="st12" width="20.9" height="10.4"/>
		<rect x="150" y="80.4" class="st12" width="20.9" height="10.4"/>
		<rect x="170.9" y="153.4" class="st12" width="10.4" height="10.4"/>
		<rect x="150" y="111.7" class="st12" width="10.4" height="10.4"/>
		<rect x="76.9" y="174.3" class="st12" width="20.9" height="10.4"/>
		<rect x="202.2" y="163.9" class="st12" width="10.4" height="10.4"/>
		<rect x="160.4" y="132.5" class="st11" width="10.4" height="10.4"/>
		<rect x="97.8" y="59.5" class="st11" width="10.4" height="10.4"/>
		<rect x="66.5" y="90.8" class="st10" width="20.9" height="10.4"/>
		<rect x="76.9" y="143" class="st10" width="10.4" height="10.4"/>
	</g>
</g>
</svg>
