<?xml version="1.0" encoding="utf-8"?>
<!-- Generator: Adobe Illustrator 25.2.3, SVG Export Plug-In . SVG Version: 6.00 Build 0)  -->
<svg version="1.1" xmlns="http://www.w3.org/2000/svg" xmlns:xlink="http://www.w3.org/1999/xlink" x="0px" y="0px"
	 viewBox="0 0 300 250" style="enable-background:new 0 0 300 250;" xml:space="preserve">
<style type="text/css">
	.st0{fill:#A7B941;}
	.st1{fill:#E0E48D;}
	.st2{fill:#8A370F;}
	.st3{fill:#DA895E;}
	.st4{fill:#63240B;}
	.st5{fill:#DC0000;}
	.st6{fill:#FF7A69;}
	.st7{fill:#426024;}
	.st8{fill:#649238;}
	.st9{fill:#645C5A;}
	.st10{fill:#7F6D57;}
	.st11{fill:#4B423B;}
	.st12{fill:#E9E1D4;}
</style>
<g id="layout">
</g>
<g id="GUIDES">
	<g>
		<g>
			<polygon class="st0" points="204,125 204,116 204,107 195,107 195,89 186,89 186,62 177,62 177,53 168,53 168,44 132,44 132,53 
				123,53 123,62 114,62 114,89 105,89 105,107 96,107 96,116 96,125 87,125 87,179 96,179 96,188 105,188 105,197 114,197 114,206 
				141,206 159,206 186,206 186,197 195,197 195,188 204,188 204,179 213,179 213,125 			"/>
			<polygon class="st1" points="195,134 195,116 186,116 186,98 177,98 177,71 168,71 168,62 159,62 159,53 141,53 141,62 132,62 
				132,71 123,71 123,98 114,98 114,116 105,116 105,134 96,134 96,170 105,170 105,179 114,179 114,188 123,188 123,197 132,197 
				141,197 159,197 168,197 177,197 177,188 186,188 186,179 195,179 195,170 204,170 204,134 			"/>
			<polygon class="st2" points="177,143 168,143 168,134 159,134 159,125 141,125 141,134 132,134 132,143 123,143 123,161 132,161 
				132,170 141,170 141,179 159,179 159,170 168,170 168,161 177,161 			"/>
			<rect x="150" y="134" class="st3" width="9" height="9"/>
		</g>
		<rect x="132" y="152" class="st4" width="9" height="9"/>
		<rect x="141" y="161" class="st4" width="9" height="9"/>
	</g>
</g>
</svg>
