<?xml version="1.0" encoding="utf-8"?>
<!-- Generator: Adobe Illustrator 25.2.3, SVG Export Plug-In . SVG Version: 6.00 Build 0)  -->
<svg version="1.1" xmlns="http://www.w3.org/2000/svg" xmlns:xlink="http://www.w3.org/1999/xlink" x="0px" y="0px"
	 viewBox="0 0 600 425" style="enable-background:new 0 0 600 425;" xml:space="preserve">
<style type="text/css">
	.st0{opacity:0.51;}
	.st1{opacity:0.45;}
	.st2{fill:#EFB534;}
	.st3{fill:#D73D94;}
	.st4{fill:#080907;}
	.st5{fill:#3E7C6A;}
	.st6{fill:#B0542D;}
	.st7{fill:#060405;}
	.st8{fill:#BB8235;}
	.st9{fill:#6EA496;}
	.st10{fill:#639187;}
	.st11{opacity:0.49;}
	.st12{fill:#96BC50;}
	.st13{fill:#668B40;}
	.st14{fill:#426A36;}
	.st15{fill:#CBDC72;}
	.st16{fill:#6C1215;}
	.st17{fill:#F4C034;}
	.st18{fill:#F9B932;}
	.st19{fill:#655C5B;}
	.st20{fill:#7F6E58;}
	.st21{fill:#4C433C;}
	.st22{fill:#E9E1D4;}
	.st23{fill:#B77366;}
	.st24{fill:#15120F;}
	.st25{opacity:0.5;}
	.st26{fill:#9F2026;}
	.st27{fill:#CF242F;}
	.st28{fill:#F8A33B;}
	.st29{fill:#FFF7D2;}
	.st30{fill:#FEE42E;}
	.st31{fill:#03984C;}
	.st32{fill:#F79C31;}
	.st33{fill:#FDD730;}
	.st34{fill:#9F662E;}
	.st35{fill:#E4C597;}
	.st36{fill:#E4DED5;}
	.st37{fill:#C0B5AA;}
	.st38{fill:#706353;}
	.st39{fill:#010101;}
	.st40{fill:#33A14D;}
	.st41{fill:#EBD1A4;}
	.st42{fill:#07464F;}
	.st43{fill:#066486;}
	.st44{fill:#35BCC0;}
	.st45{fill:#0A8F9F;}
	.st46{fill:#D27633;}
	.st47{fill:#E72730;}
	.st48{fill:#DD8A35;}
	.st49{fill:#F3A734;}
</style>
<g id="Layer_1">
</g>
<g id="Layer_2">
	<g>
		<polygon class="st10" points="385.5,123.5 385.5,128 376.5,128 376.5,132.5 223.5,132.5 223.5,128 214.5,128 214.5,123.5 
			210,123.5 210,173 214.5,173 214.5,222.5 219,222.5 219,240.5 381,240.5 381,222.5 385.5,222.5 385.5,173 390,173 390,123.5 		"/>
		<polygon class="st4" points="381,285.5 381,263 376.5,263 376.5,258.5 372,258.5 372,254 354,254 354,249.5 331.5,249.5 
			331.5,245 268.5,245 268.5,249.5 246,249.5 246,254 228,254 228,258.5 223.5,258.5 223.5,263 219,263 219,285.5 237,285.5 
			237,290 232.5,290 232.5,294.5 223.5,294.5 223.5,339.5 219,339.5 219,357.5 223.5,357.5 223.5,375.5 246,375.5 246,299 354,299 
			354,375.5 376.5,375.5 376.5,357.5 381,357.5 381,339.5 376.5,339.5 376.5,294.5 367.5,294.5 367.5,290 363,290 363,285.5 		"/>
		<rect x="174" y="384.5" class="st6" width="49.5" height="9"/>
		<polygon class="st10" points="367.5,330.5 367.5,303.5 363,303.5 363,299 358.5,299 358.5,294.5 345,294.5 345,290 313.5,290 
			309,290 309,299 304.5,299 304.5,294.5 295.5,294.5 295.5,299 291,299 291,290 286.5,290 255,290 255,294.5 241.5,294.5 
			241.5,299 237,299 237,303.5 232.5,303.5 232.5,330.5 228,330.5 228,357.5 232.5,357.5 232.5,362 237,362 241.5,362 241.5,366.5 
			246,366.5 246,398 250.5,398 250.5,402.5 259.5,402.5 259.5,407 282,407 282,416 286.5,416 286.5,420.5 291,420.5 295.5,420.5 
			295.5,416 300,416 304.5,416 304.5,420.5 309,420.5 313.5,420.5 313.5,416 318,416 318,407 340.5,407 340.5,402.5 349.5,402.5 
			349.5,398 354,398 354,366.5 358.5,366.5 358.5,362 363,362 367.5,362 367.5,357.5 372,357.5 372,330.5 		"/>
		<polygon class="st8" points="273,384.5 268.5,384.5 268.5,402.5 273,402.5 273,407 277.5,407 277.5,384.5 		"/>
		<g>
			<polygon class="st6" points="277.5,375.5 277.5,371 268.5,371 268.5,375.5 264,375.5 264,389 268.5,389 268.5,384.5 273,384.5 
				273,389 277.5,389 277.5,384.5 282,384.5 282,375.5 			"/>
			<rect x="268.5" y="393.5" class="st6" width="4.5" height="4.5"/>
		</g>
		<polygon class="st8" points="327,384.5 331.5,384.5 331.5,402.5 327,402.5 327,407 322.5,407 322.5,384.5 		"/>
		<g>
			<polygon class="st6" points="322.5,375.5 322.5,371 331.5,371 331.5,375.5 336,375.5 336,389 331.5,389 331.5,384.5 327,384.5 
				327,389 322.5,389 322.5,384.5 318,384.5 318,375.5 			"/>
			<rect x="327" y="393.5" class="st6" width="4.5" height="4.5"/>
		</g>
		<g>
			<rect x="259.5" y="375.5" class="st7" width="4.5" height="13.5"/>
			<polygon class="st7" points="277.5,375.5 282,375.5 282,384.5 277.5,384.5 277.5,389 322.5,389 322.5,384.5 318,384.5 318,375.5 
				322.5,375.5 322.5,371 277.5,371 			"/>
			<rect x="264" y="371" class="st7" width="4.5" height="4.5"/>
			<rect x="331.5" y="371" class="st7" width="4.5" height="4.5"/>
			<rect x="336" y="375.5" class="st7" width="4.5" height="13.5"/>
		</g>
		<g>
			<polygon class="st7" points="313.5,353 313.5,348.5 309,348.5 309,353 304.5,353 304.5,357.5 309,357.5 313.5,357.5 322.5,357.5 
				322.5,353 			"/>
			<polygon class="st7" points="291,348.5 286.5,348.5 286.5,353 277.5,353 277.5,357.5 286.5,357.5 291,357.5 295.5,357.5 
				295.5,353 291,353 			"/>
		</g>
		<polygon class="st9" points="277.5,326 277.5,317 273,317 255,317 250.5,317 250.5,326 246,326 246,339.5 250.5,339.5 250.5,344 
			250.5,348.5 255,348.5 268.5,348.5 273,348.5 277.5,348.5 277.5,344 277.5,339.5 282,339.5 282,326 		"/>
		<polygon class="st7" points="277.5,330.5 273,330.5 273,326 268.5,326 268.5,321.5 259.5,321.5 259.5,326 255,326 255,330.5 
			250.5,330.5 250.5,335 255,335 255,339.5 259.5,339.5 259.5,344 268.5,344 268.5,339.5 273,339.5 273,335 277.5,335 		"/>
		<polygon class="st9" points="349.5,326 349.5,317 345,317 327,317 322.5,317 322.5,326 318,326 318,339.5 322.5,339.5 322.5,344 
			322.5,348.5 327,348.5 340.5,348.5 345,348.5 349.5,348.5 349.5,344 349.5,339.5 354,339.5 354,326 		"/>
		<polygon class="st7" points="349.5,330.5 345,330.5 345,326 340.5,326 340.5,321.5 331.5,321.5 331.5,326 327,326 327,330.5 
			322.5,330.5 322.5,335 327,335 327,339.5 331.5,339.5 331.5,344 340.5,344 340.5,339.5 345,339.5 345,335 349.5,335 		"/>
		<polygon class="st9" points="304.5,348.5 304.5,303.5 295.5,303.5 295.5,348.5 291,348.5 291,353 295.5,353 295.5,357.5 
			304.5,357.5 304.5,353 309,353 309,348.5 		"/>
		<g>
			<polygon class="st5" points="250.5,357.5 250.5,353 246,353 246,348.5 241.5,348.5 241.5,357.5 246,357.5 246,362 250.5,362 
				250.5,366.5 255,366.5 255,362 259.5,362 259.5,357.5 255,357.5 			"/>
			<polygon class="st5" points="237,344 241.5,344 241.5,339.5 237,339.5 237,317 241.5,317 241.5,312.5 237,312.5 237,303.5 
				232.5,303.5 232.5,317 228,317 228,330.5 228,335 228,357.5 232.5,357.5 232.5,362 237,362 241.5,362 241.5,357.5 237,357.5 			
				"/>
			<rect x="237" y="299" class="st5" width="4.5" height="4.5"/>
			<rect x="246" y="299" class="st5" width="4.5" height="4.5"/>
			<rect x="246" y="317" class="st5" width="4.5" height="4.5"/>
			<rect x="246" y="371" class="st5" width="4.5" height="4.5"/>
			<rect x="264" y="348.5" class="st5" width="4.5" height="4.5"/>
			<rect x="259.5" y="303.5" class="st5" width="4.5" height="4.5"/>
		</g>
		<g>
			<polygon class="st5" points="349.5,357.5 349.5,353 354,353 354,348.5 358.5,348.5 358.5,357.5 354,357.5 354,362 349.5,362 
				349.5,366.5 345,366.5 345,362 340.5,362 340.5,357.5 345,357.5 			"/>
			<polygon class="st5" points="363,344 358.5,344 358.5,339.5 363,339.5 363,317 358.5,317 358.5,312.5 363,312.5 363,303.5 
				367.5,303.5 367.5,317 372,317 372,330.5 372,335 372,357.5 367.5,357.5 367.5,362 363,362 358.5,362 358.5,357.5 363,357.5 			
				"/>
			<rect x="358.5" y="299" class="st5" width="4.5" height="4.5"/>
			<rect x="349.5" y="299" class="st5" width="4.5" height="4.5"/>
			<rect x="349.5" y="317" class="st5" width="4.5" height="4.5"/>
			<rect x="349.5" y="371" class="st5" width="4.5" height="4.5"/>
			<rect x="331.5" y="348.5" class="st5" width="4.5" height="4.5"/>
			<rect x="336" y="303.5" class="st5" width="4.5" height="4.5"/>
		</g>
		<rect x="282" y="308" class="st9" width="4.5" height="4.5"/>
		<rect x="313.5" y="308" class="st9" width="4.5" height="4.5"/>
		<rect x="268.5" y="294.5" class="st9" width="4.5" height="4.5"/>
		<rect x="322.5" y="294.5" class="st9" width="4.5" height="4.5"/>
		<rect x="277.5" y="389" class="st9" width="45" height="4.5"/>
		<rect x="264" y="366.5" class="st9" width="72" height="4.5"/>
		<rect x="331.5" y="389" class="st9" width="9" height="4.5"/>
		<rect x="336" y="371" class="st9" width="4.5" height="4.5"/>
		<rect x="340.5" y="375.5" class="st9" width="4.5" height="13.5"/>
		<rect x="255" y="375.5" class="st9" width="4.5" height="13.5"/>
		<rect x="259.5" y="371" class="st9" width="4.5" height="4.5"/>
		<rect x="259.5" y="389" class="st9" width="9" height="4.5"/>
		<rect x="291" y="402.5" class="st9" width="4.5" height="4.5"/>
		<rect x="309" y="398" class="st9" width="4.5" height="4.5"/>
		<rect x="309" y="416" class="st5" width="4.5" height="4.5"/>
		<rect x="282" y="411.5" class="st5" width="4.5" height="4.5"/>
		<g>
			<polygon class="st10" points="205.5,299 201,299 201,308 187.5,308 187.5,303.5 178.5,303.5 178.5,299 165,299 165,303.5 
				160.5,303.5 160.5,312.5 165,312.5 165,317 174,317 174,321.5 178.5,321.5 178.5,326 183,326 183,330.5 187.5,330.5 187.5,335 
				187.5,339.5 210,339.5 210,335 214.5,335 214.5,330.5 214.5,326 214.5,321.5 214.5,317 214.5,312.5 214.5,308 210,308 210,299 
				210,294.5 205.5,294.5 			"/>
			<polygon class="st10" points="210,285.5 210,290 210,294.5 214.5,294.5 214.5,290 214.5,285.5 			"/>
		</g>
		<polygon class="st10" points="219,357.5 219,353 192,353 192,357.5 183,357.5 183,366.5 178.5,366.5 178.5,371 174,371 174,380 
			174,384.5 192,384.5 192,402.5 205.5,402.5 205.5,384.5 223.5,384.5 223.5,380 223.5,375.5 223.5,371 223.5,357.5 		"/>
		<g>
			<polygon class="st8" points="219,393.5 219,389 214.5,389 214.5,393.5 205.5,393.5 205.5,398 223.5,398 223.5,393.5 			"/>
			<polygon class="st8" points="183,389 178.5,389 178.5,393.5 174,393.5 174,398 192,398 192,393.5 183,393.5 			"/>
		</g>
		<rect x="192" y="348.5" class="st6" width="22.5" height="4.5"/>
		<rect x="192" y="344" class="st6" width="22.5" height="4.5"/>
		<rect x="214.5" y="348.5" class="st6" width="4.5" height="4.5"/>
		<rect x="214.5" y="344" class="st8" width="4.5" height="4.5"/>
		<polygon class="st6" points="192,402.5 192,407 187.5,407 187.5,425 192,425 205.5,425 205.5,402.5 		"/>
		<rect x="228" y="371" class="st6" width="13.5" height="27"/>
		<rect x="376.5" y="384.5" transform="matrix(-1 -4.490509e-11 4.490509e-11 -1 802.5 778)" class="st6" width="49.5" height="9"/>
		<g>
			<polygon class="st10" points="394.5,299 399,299 399,308 412.5,308 412.5,303.5 421.5,303.5 421.5,299 435,299 435,303.5 
				439.5,303.5 439.5,312.5 435,312.5 435,317 426,317 426,321.5 421.5,321.5 421.5,326 417,326 417,330.5 412.5,330.5 412.5,335 
				412.5,339.5 390,339.5 390,335 385.5,335 385.5,330.5 385.5,326 385.5,321.5 385.5,317 385.5,312.5 385.5,308 390,308 390,299 
				390,294.5 394.5,294.5 			"/>
			<polygon class="st10" points="390,285.5 390,290 390,294.5 385.5,294.5 385.5,290 385.5,285.5 			"/>
		</g>
		<polygon class="st10" points="381,357.5 381,353 408,353 408,357.5 417,357.5 417,366.5 421.5,366.5 421.5,371 426,371 426,380 
			426,384.5 408,384.5 408,402.5 394.5,402.5 394.5,384.5 376.5,384.5 376.5,380 376.5,375.5 376.5,371 376.5,357.5 		"/>
		<g>
			<polygon class="st8" points="381,393.5 381,389 385.5,389 385.5,393.5 394.5,393.5 394.5,398 376.5,398 376.5,393.5 			"/>
			<polygon class="st8" points="417,389 421.5,389 421.5,393.5 426,393.5 426,398 408,398 408,393.5 417,393.5 			"/>
		</g>
		
			<rect x="385.5" y="348.5" transform="matrix(-1 -4.486867e-11 4.486867e-11 -1 793.5 701.5)" class="st6" width="22.5" height="4.5"/>
		
			<rect x="385.5" y="344" transform="matrix(-1 -4.486867e-11 4.486867e-11 -1 793.5 692.5)" class="st6" width="22.5" height="4.5"/>
		
			<rect x="381" y="348.5" transform="matrix(-1 -4.486867e-11 4.486867e-11 -1 766.5 701.5)" class="st6" width="4.5" height="4.5"/>
		<rect x="381" y="344" transform="matrix(-1 -4.486867e-11 4.486867e-11 -1 766.5 692.5)" class="st8" width="4.5" height="4.5"/>
		<polygon class="st6" points="408,402.5 408,407 412.5,407 412.5,425 408,425 394.5,425 394.5,402.5 		"/>
		<rect x="358.5" y="371" transform="matrix(-1 -4.473367e-11 4.473367e-11 -1 730.5 769)" class="st6" width="13.5" height="27"/>
		<g>
			<rect x="187.5" y="344" class="st8" width="4.5" height="4.5"/>
			<rect x="408" y="344" class="st8" width="4.5" height="4.5"/>
			<polygon class="st8" points="390,339.5 390,335 385.5,335 385.5,308 385.5,303.5 381,303.5 381,299 381,294.5 381,285.5 
				376.5,285.5 376.5,276.5 372,276.5 372,272 367.5,272 367.5,267.5 363,267.5 363,263 349.5,263 349.5,258.5 331.5,258.5 
				331.5,254 268.5,254 268.5,258.5 250.5,258.5 250.5,263 237,263 237,267.5 232.5,267.5 232.5,272 228,272 228,276.5 223.5,276.5 
				223.5,285.5 219,285.5 219,294.5 219,299 219,303.5 214.5,303.5 214.5,308 214.5,335 210,335 210,339.5 192,339.5 192,344 
				214.5,344 214.5,339.5 228,339.5 228,335 228,308 228,303.5 223.5,303.5 223.5,299 223.5,294.5 228,294.5 232.5,294.5 232.5,290 
				237,290 237,285.5 255,285.5 255,281 345,281 345,285.5 363,285.5 363,290 367.5,290 367.5,294.5 372,294.5 376.5,294.5 
				376.5,299 376.5,303.5 372,303.5 372,308 372,335 372,339.5 385.5,339.5 385.5,344 408,344 408,339.5 			"/>
		</g>
		<rect x="219" y="254" class="st8" width="9" height="4.5"/>
		<polygon class="st8" points="376.5,195.5 376.5,186.5 363,186.5 363,222.5 358.5,222.5 358.5,195.5 354,195.5 354,186.5 
			349.5,186.5 349.5,182 331.5,182 331.5,204.5 327,204.5 327,231.5 322.5,231.5 322.5,209 318,209 318,191 313.5,191 313.5,182 
			309,182 309,177.5 291,177.5 291,182 286.5,182 286.5,191 282,191 282,209 277.5,209 277.5,231.5 273,231.5 273,204.5 
			268.5,204.5 268.5,182 250.5,182 250.5,186.5 246,186.5 246,195.5 241.5,195.5 241.5,222.5 237,222.5 237,186.5 223.5,186.5 
			223.5,195.5 219,195.5 219,263 223.5,263 223.5,254 237,254 241.5,254 246,254 246,249.5 250.5,249.5 268.5,249.5 268.5,245 
			273,245 277.5,245 282,245 286.5,245 291,245 295.5,245 304.5,245 309,245 313.5,245 318,245 322.5,245 327,245 331.5,245 
			331.5,249.5 349.5,249.5 354,249.5 354,254 358.5,254 363,254 372,254 372,258.5 376.5,258.5 376.5,263 381,263 381,258.5 
			381,245 381,195.5 		"/>
		<polygon class="st6" points="390,110 210,110 210,123.5 214.5,123.5 214.5,128 223.5,128 223.5,132.5 376.5,132.5 376.5,128 
			385.5,128 385.5,123.5 390,123.5 		"/>
		<polygon class="st8" points="205.5,101 205.5,105.5 210,105.5 210,110 390,110 390,105.5 394.5,105.5 394.5,101 		"/>
		<rect x="331.5" y="119" class="st8" width="4.5" height="4.5"/>
		<rect x="259.5" y="119" class="st8" width="4.5" height="4.5"/>
		<rect x="295.5" y="110" class="st8" width="4.5" height="4.5"/>
		<rect x="219" y="110" class="st8" width="4.5" height="4.5"/>
		<rect x="363" y="123.5" class="st8" width="4.5" height="4.5"/>
		<rect x="381" y="110" class="st8" width="4.5" height="4.5"/>
	</g>
</g>
<g id="Layer_3">
	<g>
		<path d="M101.1,34.8h4.1v-1h1v-1h2.1v2.1h-1v1h-1v1H100v-1h-1v-1h-1V24.5h1v-1h1v-1h6.2v1h1v1h1v2.1h-2.1v-1h-1v-1h-4.1v1h-1v8.2
			h1V34.8z"/>
		<path d="M112.4,30.7v6.2h-2.1V22.5h2.1v5.1h1v-1h1v-1h3.1v1h1v1h1v1h1v8.2h-2.1v-7.2h-1v-1h-1v-1h-1v1h-1v1h-1v1H112.4z"/>
		<path d="M129.8,34.8h1v2.1h-2.1v-1h-1v-1h-1v-5.1h-2.1v-2.1h4.1v6.2h1V34.8z M128.8,23.5v2.1h-2.1v-2.1H128.8z"/>
		<path d="M137,36.8v-1h-1v-1h-1v-4.1h1v-1h1v-1h5.1v1h1v-2.1h-1v-1H137v-2.1h6.2v1h1v1h1v10.3h-2.1v-1h-1v1H137z M138,34.8h4.1v-1
			h1v-2.1h-1v-1H138v1h-1v2.1h1V34.8z"/>
		<path d="M160.5,34.8h-1v-2.1h2.1v1h1v1h4.1v-2.1h-2.1v-1h-2.1v-1h-2.1v-1h-1v-2.1h1v-1h1v-1h6.2v1h1v1h1v2.1h-2.1v-1h-1v-1h-4.1
			v2.1h3.1v1h2.1v1h1v1h1v2.1h-1v1h-1v1h-6.2v-1h-1V34.8z"/>
		<path d="M182.1,33.8v1h-1v1h-1v1h-6.2v-1h-1v-1h-1v-7.2h1v-1h1v-1h6.2v1h1v1h1v3.1h-1v1h-7.2v2.1h1v1h4.1v-1H182.1z M173.9,28.6v1
			h6.2v-1h-1v-1h-4.1v1H173.9z"/>
		<path d="M194.4,33.8v1h-1v1h-1v1h-6.2v-1h-1v-1h-1v-7.2h1v-1h1v-1h6.2v1h1v1h1v3.1h-1v1h-7.2v2.1h1v1h4.1v-1H194.4z M186.2,28.6v1
			h6.2v-1h-1v-1h-4.1v1H186.2z"/>
		<path d="M204.6,27.6v-5.1h2.1v14.4h-2.1v-2.1h-1v1h-1v1h-3.1v-1h-1v-1h-1v-1h-1v-5.1h1v-1h1v-1h1v-1h3.1v1h1v1H204.6z M199.5,33.8
			h1v1h1v-1h1v-1h1v-3.1h-1v-1h-1v-1h-1v1h-1v1h-1v3.1h1V33.8z"/>
		<path d="M209.8,34.8h-1v-2.1h2.1v1h1v1h4.1v-2.1h-2.1v-1h-2.1v-1h-2.1v-1h-1v-2.1h1v-1h1v-1h6.2v1h1v1h1v2.1h-2.1v-1h-1v-1h-4.1
			v2.1h3.1v1h2.1v1h1v1h1v2.1h-1v1h-1v1h-6.2v-1h-1V34.8z"/>
		<path d="M233.3,25.6h2.1v8.2h1v1h1v-5.1h2.1v5.1h1v-1h1v-8.2h2.1v9.2h-1v1h-1v1h-2.1v-1h-2.1v1h-2.1v-1h-1v-1h-1V25.6z"/>
		<path d="M255.9,33.8v1h-1v1h-1v1h-6.2v-1h-1v-1h-1v-7.2h1v-1h1v-1h6.2v1h1v1h1v3.1h-1v1h-7.2v2.1h1v1h4.1v-1H255.9z M247.7,28.6v1
			h6.2v-1h-1v-1h-4.1v1H247.7z"/>
		<path d="M260,30.7v6.2H258V25.6h2.1v2.1h1v-1h1v-1h4.1v1h1v1h1v2.1h-2.1v-1h-1v-1h-2.1v1h-1v1h-1v1H260z"/>
		<path d="M280.5,33.8v1h-1v1h-1v1h-6.2v-1h-1v-1h-1v-7.2h1v-1h1v-1h6.2v1h1v1h1v3.1h-1v1h-7.2v2.1h1v1h4.1v-1H280.5z M272.3,28.6v1
			h6.2v-1h-1v-1h-4.1v1H272.3z"/>
		<path d="M296.9,32.7v4.1h-2.1V24.5h2.1v1h1v-1h5.1v1h1v1h1v5.1h-1v1h-1v1h-5.1v-1H296.9z M303.1,27.6h-1v-1H299v1h-1v3.1h1v1h3.1
			v-1h1V27.6z"/>
		<path d="M309.2,36.8v-1h-1v-1h-1v-4.1h1v-1h1v-1h5.1v1h1v-2.1h-1v-1h-5.1v-2.1h6.2v1h1v1h1v10.3h-2.1v-1h-1v1H309.2z M310.3,34.8
			h4.1v-1h1v-2.1h-1v-1h-4.1v1h-1v2.1h1V34.8z"/>
		<path d="M321.5,30.7v6.2h-2.1V25.6h2.1v2.1h1v-1h1v-1h4.1v1h1v1h1v2.1h-2.1v-1h-1v-1h-2.1v1h-1v1h-1v1H321.5z"/>
		<path d="M339,34.8h1v2.1h-2.1v-1h-1v-1h-1v-7.2h-2.1v-2.1h2.1v-3.1h2.1v3.1h2.1v2.1h-2.1v6.2h1V34.8z"/>
		<path d="M358.4,36.8v-1h-1v-1h-1v-7.2h1v-1h1v-1h6.2v1h1v1h1v7.2h-1v1h-1v1H358.4z M359.5,34.8h4.1v-1h1v-5.1h-1v-1h-4.1v1h-1v5.1
			h1V34.8z"/>
		<path d="M374.9,36.8h-2.1v-9.2h-3.1v-2.1h3.1v-2.1h1v-1h4.1v2.1h-3.1v1h3.1v2.1h-3.1V36.8z"/>
		<path d="M395.4,30.7v6.2h-2.1V25.6h2.1v2.1h1v-1h1v-1h4.1v1h1v1h1v2.1h-2.1v-1h-1v-1h-2.1v1h-1v1h-1v1H395.4z"/>
		<path d="M415.9,33.8v1h-1v1h-1v1h-6.2v-1h-1v-1h-1v-7.2h1v-1h1v-1h6.2v1h1v1h1v3.1h-1v1h-7.2v2.1h1v1h4.1v-1H415.9z M407.7,28.6v1
			h6.2v-1h-1v-1h-4.1v1H407.7z"/>
		<path d="M424.1,22.5v14.4H422V22.5H424.1z"/>
		<path d="M437.4,34.8h1v2.1h-2.1v-1h-1v-1h-1v-5.1h-2.1v-2.1h4.1v6.2h1V34.8z M436.4,23.5v2.1h-2.1v-2.1H436.4z"/>
		<path d="M444.6,35.8h-1v-2.1h2.1v1h4.1v-1h1v-3.1h-1v1h-5.1v-1h-1v-1h-1v-3.1h1v-1h1v-1h6.2v1h1v1h1v8.2h-1v1h-1v1h-6.2V35.8z
			 M450.7,28.6v-1h-1v-1h-4.1v1h-1v1h1v1h4.1v-1H450.7z"/>
		<path d="M462,34.8h1v2.1H461v-1h-1v-1h-1v-5.1h-2.1v-2.1h4.1v6.2h1V34.8z M461,23.5v2.1h-2.1v-2.1H461z"/>
		<path d="M469.2,36.8v-1h-1v-1h-1v-7.2h1v-1h1v-1h6.2v1h1v1h1v7.2h-1v1h-1v1H469.2z M470.2,34.8h4.1v-1h1v-5.1h-1v-1h-4.1v1h-1v5.1
			h1V34.8z"/>
		<path d="M479.4,25.6h2.1v8.2h1v1h4.1v-1h1v-8.2h2.1v9.2h-1v1h-1v1h-6.2v-1h-1v-1h-1V25.6z"/>
		<path d="M492.8,34.8h-1v-2.1h2.1v1h1v1h4.1v-2.1h-2.1v-1h-2.1v-1h-2.1v-1h-1v-2.1h1v-1h1v-1h6.2v1h1v1h1v2.1H500v-1h-1v-1h-4.1
			v2.1h3.1v1h2.1v1h1v1h1v2.1h-1v1h-1v1h-6.2v-1h-1V34.8z"/>
		<path d="M130.8,62v-1h-1v-1h-1v-7.2h1v-1h1v-1h6.2v1h1v1h1V60h-1v1h-1v1H130.8z M131.8,60h4.1v-1h1v-5.1h-1v-1h-4.1v1h-1V59h1V60z
			"/>
		<path d="M147.2,62h-2.1v-9.2h-3.1v-2.1h3.1v-2.1h1v-1h4.1v2.1h-3.1v1h3.1v2.1h-3.1V62z"/>
		<path d="M159.5,62h-2.1v-9.2h-3.1v-2.1h3.1v-2.1h1v-1h4.1v2.1h-3.1v1h3.1v2.1h-3.1V62z"/>
		<path d="M175.9,59v1h-1v1h-1v1h-6.2v-1h-1v-1h-1v-7.2h1v-1h1v-1h6.2v1h1v1h1v3.1h-1v1h-7.2V59h1v1h4.1v-1H175.9z M167.7,53.8v1
			h6.2v-1h-1v-1h-4.1v1H167.7z"/>
		<path d="M180,55.9V62H178V50.8h2.1v2.1h1v-1h1v-1h4.1v1h1v1h1v2.1h-2.1v-1h-1v-1h-2.1v1h-1v1h-1v1H180z"/>
		<path d="M197.5,60h1V62h-2.1v-1h-1v-1h-1v-5.1h-2.1v-2.1h4.1V59h1V60z M196.4,48.7v2.1h-2.1v-2.1H196.4z"/>
		<path d="M204.6,53.8V62h-2.1V50.8h2.1v1h1v-1h5.1v1h1v1h1V62h-2.1v-8.2h-1v-1h-4.1v1H204.6z"/>
		<path d="M216.9,61h-1V59h2.1v1h4.1v-1h1v-3.1h-1v1h-5.1v-1h-1v-1h-1v-3.1h1v-1h1v-1h6.2v1h1v1h1V60h-1v1h-1v1h-6.2V61z
			 M223.1,53.8v-1h-1v-1H218v1h-1v1h1v1h4.1v-1H223.1z"/>
		<path d="M228.2,60h-1v-2.1h2.1v1h1v1h4.1v-2.1h-2.1v-1h-2.1v-1h-2.1v-1h-1v-2.1h1v-1h1v-1h6.2v1h1v1h1v2.1h-2.1v-1h-1v-1h-4.1v2.1
			h3.1v1h2.1v1h1v1h1V60h-1v1h-1v1h-6.2v-1h-1V60z"/>
		<path d="M259,60h1V62H258v-1h-1v-1h-1v-7.2h-2.1v-2.1h2.1v-3.1h2.1v3.1h2.1v2.1H258V59h1V60z"/>
		<path d="M266.2,62v-1h-1v-1h-1v-7.2h1v-1h1v-1h6.2v1h1v1h1V60h-1v1h-1v1H266.2z M267.2,60h4.1v-1h1v-5.1h-1v-1h-4.1v1h-1V59h1V60z
			"/>
		<path d="M295.9,60h1V62h-2.1v-1h-1v-1h-1v-7.2h-2.1v-2.1h2.1v-3.1h2.1v3.1h2.1v2.1h-2.1V59h1V60z"/>
		<path d="M303.1,55.9V62H301V47.7h2.1v5.1h1v-1h1v-1h3.1v1h1v1h1v1h1V62h-2.1v-7.2h-1v-1h-1v-1h-1v1h-1v1h-1v1H303.1z"/>
		<path d="M323.6,59v1h-1v1h-1v1h-6.2v-1h-1v-1h-1v-7.2h1v-1h1v-1h6.2v1h1v1h1v3.1h-1v1h-7.2V59h1v1h4.1v-1H323.6z M315.4,53.8v1
			h6.2v-1h-1v-1h-4.1v1H315.4z"/>
		<path d="M340,62h-2.1V51.8h1v-1h1v-1h1v-1h1v-1h2.1v1h1v1h1v1h1v1h1V62h-2.1v-4.1H340V62z M340,55.9h6.2v-3.1h-1v-1h-1v-1H342v1
			h-1v1h-1V55.9z"/>
		<path d="M354.3,60h6.2V62h-10.3V60h1v-1h1v-1h1v-1h1v-1h1v-1h1v-1h1v-1h-7.2v-2.1h10.3v3.1h-1v1h-1v1h-1v1h-1v1h-1v1h-1V60z"/>
		<path d="M369.7,60h1V62h-2.1v-1h-1v-1h-1v-7.2h-2.1v-2.1h2.1v-3.1h2.1v3.1h2.1v2.1h-2.1V59h1V60z"/>
		<path d="M385.1,59v1h-1v1h-1v1h-6.2v-1h-1v-1h-1v-7.2h1v-1h1v-1h6.2v1h1v1h1v3.1h-1v1h-7.2V59h1v1h4.1v-1H385.1z M376.9,53.8v1
			h6.2v-1h-1v-1h-4.1v1H376.9z"/>
		<path d="M395.4,59v-1h2.1V60h-1v1h-1v1h-6.2v-1h-1v-1h-1v-7.2h1v-1h1v-1h6.2v1h1v1h1v2.1h-2.1v-1h-1v-1h-4.1v1h-1V59h1v1h4.1v-1
			H395.4z"/>
		<path d="M413.8,61h-1V59h2.1v1h4.1v-1h1v-3.1h-1v1h-5.1v-1h-1v-1h-1v-3.1h1v-1h1v-1h6.2v1h1v1h1V60h-1v1h-1v1h-6.2V61z M420,53.8
			v-1h-1v-1h-4.1v1h-1v1h1v1h4.1v-1H420z"/>
		<path d="M426.1,62v-1h-1v-1h-1v-7.2h1v-1h1v-1h6.2v1h1v1h1V60h-1v1h-1v1H426.1z M427.1,60h4.1v-1h1v-5.1h-1v-1h-4.1v1h-1V59h1V60z
			"/>
		<path d="M444.6,52.8v-5.1h2.1V62h-2.1V60h-1v1h-1v1h-3.1v-1h-1v-1h-1v-1h-1v-5.1h1v-1h1v-1h1v-1h3.1v1h1v1H444.6z M439.5,59h1v1h1
			v-1h1v-1h1v-3.1h-1v-1h-1v-1h-1v1h-1v1h-1v3.1h1V59z"/>
		<path d="M449.7,60h-1v-2.1h2.1v1h1v1h4.1v-2.1h-2.1v-1h-2.1v-1h-2.1v-1h-1v-2.1h1v-1h1v-1h6.2v1h1v1h1v2.1h-2.1v-1h-1v-1h-4.1v2.1
			h3.1v1h2.1v1h1v1h1V60h-1v1h-1v1h-6.2v-1h-1V60z"/>
		<path d="M466.1,60V62h-2.1V60H466.1z"/>
	</g>
</g>
</svg>
