<?xml version="1.0" encoding="utf-8"?>
<!-- Generator: Adobe Illustrator 25.2.3, SVG Export Plug-In . SVG Version: 6.00 Build 0)  -->
<svg version="1.1" xmlns="http://www.w3.org/2000/svg" xmlns:xlink="http://www.w3.org/1999/xlink" x="0px" y="0px"
	 viewBox="0 0 600 425" style="enable-background:new 0 0 600 425;" xml:space="preserve">
<style type="text/css">
	.st0{opacity:0.51;}
	.st1{opacity:0.45;}
	.st2{fill:#EFB534;}
	.st3{fill:#D73D94;}
	.st4{fill:#080907;}
	.st5{fill:#3E7C6A;}
	.st6{fill:#B0542D;}
	.st7{fill:#060405;}
	.st8{fill:#BB8235;}
	.st9{fill:#6EA496;}
	.st10{fill:#639187;}
	.st11{opacity:0.49;}
	.st12{fill:#96BC50;}
	.st13{fill:#668B40;}
	.st14{fill:#426A36;}
	.st15{fill:#CBDC72;}
	.st16{fill:#6C1215;}
	.st17{fill:#F4C034;}
	.st18{fill:#F9B932;}
	.st19{fill:#655C5B;}
	.st20{fill:#7F6E58;}
	.st21{fill:#4C433C;}
	.st22{fill:#E9E1D4;}
	.st23{fill:#B77366;}
	.st24{fill:#15120F;}
	.st25{opacity:0.5;}
	.st26{fill:#9F2026;}
	.st27{fill:#CF242F;}
	.st28{fill:#F8A33B;}
	.st29{fill:#FFF7D2;}
	.st30{fill:#FEE42E;}
	.st31{fill:#03984C;}
	.st32{fill:#F79C31;}
	.st33{fill:#FDD730;}
	.st34{fill:#9F662E;}
	.st35{fill:#E4C597;}
	.st36{fill:#E4DED5;}
	.st37{fill:#C0B5AA;}
	.st38{fill:#706353;}
	.st39{fill:#010101;}
	.st40{fill:#33A14D;}
	.st41{fill:#EBD1A4;}
	.st42{fill:#07464F;}
	.st43{fill:#066486;}
	.st44{fill:#35BCC0;}
	.st45{fill:#0A8F9F;}
	.st46{fill:#D27633;}
	.st47{fill:#E72730;}
	.st48{fill:#DD8A35;}
	.st49{fill:#F3A734;}
</style>
<g id="Layer_1">
</g>
<g id="Layer_2">
</g>
<g id="Layer_3">
	<g>
		<polygon class="st19" points="517.4,208.5 504.4,208.5 504.4,195.5 491.3,195.5 491.3,182.4 413.2,182.4 413.2,195.5 400.1,195.5 
			400.1,208.5 387.1,208.5 387.1,273.6 400.1,273.6 400.1,286.7 413.2,286.7 413.2,299.7 491.3,299.7 491.3,286.7 504.4,286.7 
			504.4,273.6 517.4,273.6 		"/>
		<rect x="465.3" y="234.5" class="st20" width="26.1" height="13"/>
		<rect x="478.3" y="156.4" class="st20" width="26.1" height="13"/>
		<rect x="478.3" y="195.5" class="st20" width="26.1" height="13"/>
		<rect x="413.2" y="208.5" class="st21" width="26.1" height="13"/>
		<rect x="426.2" y="273.6" class="st21" width="26.1" height="13"/>
		<rect x="478.3" y="312.7" class="st20" width="26.1" height="13"/>
		<rect x="426.2" y="143.3" class="st21" width="26.1" height="13"/>
		<rect x="432" y="320" class="st21" width="13" height="13"/>
		<rect x="543.5" y="221.5" class="st20" width="13" height="13"/>
		<rect x="400.1" y="234.5" class="st22" width="26.1" height="13"/>
		<rect x="452.2" y="182.4" class="st22" width="26.1" height="13"/>
		<rect x="478.3" y="273.6" class="st22" width="13" height="13"/>
		<rect x="452.2" y="221.5" class="st22" width="13" height="13"/>
		<rect x="361" y="299.7" class="st22" width="26.1" height="13"/>
		<rect x="517.4" y="286.7" class="st22" width="13" height="13"/>
		<rect x="465.3" y="247.6" class="st21" width="13" height="13"/>
		<rect x="387.1" y="156.4" class="st21" width="13" height="13"/>
		<rect x="348" y="195.5" class="st20" width="26.1" height="13"/>
		<rect x="361" y="260.6" class="st20" width="13" height="13"/>
	</g>
	<g>
		<path d="M39.6,30.7h-1v6.2h-2.1V22.5h8.2v1h1v1h1v4.1h-1v1h-1v1h-2.1v1h1v1h1v1h1v1h1v2.1h-2.1v-1h-1v-1h-1v-1h-1v-1h-1v-1h-1
			V30.7z M38.5,24.5v4.1h5.1v-1h1v-2.1h-1v-1H38.5z"/>
		<path d="M59,33.8v1h-1v1h-1v1h-6.2v-1h-1v-1h-1v-7.2h1v-1h1v-1H57v1h1v1h1v3.1h-1v1h-7.2v2.1h1v1H56v-1H59z M50.8,28.6v1H57v-1h-1
			v-1h-4.1v1H50.8z"/>
		<path d="M62.1,34.8h-1v-2.1h2.1v1h1v1h4.1v-2.1h-2.1v-1h-2.1v-1h-2.1v-1h-1v-2.1h1v-1h1v-1h6.2v1h1v1h1v2.1h-2.1v-1h-1v-1h-4.1
			v2.1h3.1v1h2.1v1h1v1h1v2.1h-1v1h-1v1h-6.2v-1h-1V34.8z"/>
		<path d="M83.6,33.8v1h-1v1h-1v1h-6.2v-1h-1v-1h-1v-7.2h1v-1h1v-1h6.2v1h1v1h1v3.1h-1v1h-7.2v2.1h1v1h4.1v-1H83.6z M75.4,28.6v1
			h6.2v-1h-1v-1h-4.1v1H75.4z"/>
		<path d="M87.7,36.8v-1h-1v-1h-1v-4.1h1v-1h1v-1h5.1v1h1v-2.1h-1v-1h-5.1v-2.1h6.2v1h1v1h1v10.3h-2.1v-1h-1v1H87.7z M88.8,34.8h4.1
			v-1h1v-2.1h-1v-1h-4.1v1h-1v2.1h1V34.8z"/>
		<path d="M100,30.7v6.2H98V25.6h2.1v2.1h1v-1h1v-1h4.1v1h1v1h1v2.1h-2.1v-1h-1v-1h-2.1v1h-1v1h-1v1H100z"/>
		<path d="M118.5,33.8v-1h2.1v2.1h-1v1h-1v1h-6.2v-1h-1v-1h-1v-7.2h1v-1h1v-1h6.2v1h1v1h1v2.1h-2.1v-1h-1v-1h-4.1v1h-1v5.1h1v1h4.1
			v-1H118.5z"/>
		<path d="M124.7,30.7v6.2h-2.1V22.5h2.1v5.1h1v-1h1v-1h3.1v1h1v1h1v1h1v8.2h-2.1v-7.2h-1v-1h-1v-1h-1v1h-1v1h-1v1H124.7z"/>
		<path d="M149.3,36.8v-1h-1v-1h-1v-7.2h1v-1h1v-1h6.2v1h1v1h1v7.2h-1v1h-1v1H149.3z M150.3,34.8h4.1v-1h1v-5.1h-1v-1h-4.1v1h-1v5.1
			h1V34.8z"/>
		<path d="M161.6,28.6v8.2h-2.1V25.6h2.1v1h1v-1h5.1v1h1v1h1v9.2h-2.1v-8.2h-1v-1h-4.1v1H161.6z"/>
		<path d="M192.3,33.8v-1h2.1v2.1h-1v1h-1v1h-6.2v-1h-1v-1h-1v-7.2h1v-1h1v-1h6.2v1h1v1h1v2.1h-2.1v-1h-1v-1h-4.1v1h-1v5.1h1v1h4.1
			v-1H192.3z"/>
		<path d="M198.5,30.7v6.2h-2.1V22.5h2.1v5.1h1v-1h1v-1h3.1v1h1v1h1v1h1v8.2h-2.1v-7.2h-1v-1h-1v-1h-1v1h-1v1h-1v1H198.5z"/>
		<path d="M215.9,34.8h1v2.1h-2.1v-1h-1v-1h-1v-5.1h-2.1v-2.1h4.1v6.2h1V34.8z M214.9,23.5v2.1h-2.1v-2.1H214.9z"/>
		<path d="M223.1,36.8v-1h-1v-1h-1v-4.1h1v-1h1v-1h5.1v1h1v-2.1h-1v-1h-5.1v-2.1h6.2v1h1v1h1v10.3h-2.1v-1h-1v1H223.1z M224.1,34.8
			h4.1v-1h1v-2.1h-1v-1h-4.1v1h-1v2.1h1V34.8z"/>
		<path d="M247.7,32.7v4.1h-2.1V24.5h2.1v1h1v-1h5.1v1h1v1h1v5.1h-1v1h-1v1h-5.1v-1H247.7z M253.9,27.6h-1v-1h-3.1v1h-1v3.1h1v1h3.1
			v-1h1V27.6z"/>
		<path d="M260,30.7v6.2H258V25.6h2.1v2.1h1v-1h1v-1h4.1v1h1v1h1v2.1h-2.1v-1h-1v-1h-2.1v1h-1v1h-1v1H260z"/>
		<path d="M272.3,36.8v-1h-1v-1h-1v-7.2h1v-1h1v-1h6.2v1h1v1h1v7.2h-1v1h-1v1H272.3z M273.3,34.8h4.1v-1h1v-5.1h-1v-1h-4.1v1h-1v5.1
			h1V34.8z"/>
		<path d="M282.6,25.6h2.1v6.2h1v1h1v1h2.1v-1h1v-1h1v-6.2h2.1v7.2h-1v1h-1v1h-1v1h-1v1h-2.1v-1h-1v-1h-1v-1h-1v-1h-1V25.6z"/>
		<path d="M305.1,33.8v1h-1v1h-1v1h-6.2v-1h-1v-1h-1v-7.2h1v-1h1v-1h6.2v1h1v1h1v3.1h-1v1h-7.2v2.1h1v1h4.1v-1H305.1z M296.9,28.6v1
			h6.2v-1h-1v-1h-4.1v1H296.9z"/>
		<path d="M315.4,27.6v-5.1h2.1v14.4h-2.1v-2.1h-1v1h-1v1h-3.1v-1h-1v-1h-1v-1h-1v-5.1h1v-1h1v-1h1v-1h3.1v1h1v1H315.4z M310.3,33.8
			h1v1h1v-1h1v-1h1v-3.1h-1v-1h-1v-1h-1v1h-1v1h-1v3.1h1V33.8z"/>
		<path d="M339,34.8h1v2.1h-2.1v-1h-1v-1h-1v-5.1h-2.1v-2.1h4.1v6.2h1V34.8z M337.9,23.5v2.1h-2.1v-2.1H337.9z"/>
		<path d="M351.3,34.8h1v2.1h-2.1v-1h-1v-1h-1v-7.2h-2.1v-2.1h2.1v-3.1h2.1v3.1h2.1v2.1h-2.1v6.2h1V34.8z"/>
		<path d="M370.8,36.8v-1h-1v-1h-1v-4.1h1v-1h1v-1h5.1v1h1v-2.1h-1v-1h-5.1v-2.1h6.2v1h1v1h1v10.3h-2.1v-1h-1v1H370.8z M371.8,34.8
			h4.1v-1h1v-2.1h-1v-1h-4.1v1h-1v2.1h1V34.8z"/>
		<path d="M382,34.8h-1v-2.1h2.1v1h1v1h4.1v-2.1h-2.1v-1h-2.1v-1H382v-1h-1v-2.1h1v-1h1v-1h6.2v1h1v1h1v2.1h-2.1v-1h-1v-1h-4.1v2.1
			h3.1v1h2.1v1h1v1h1v2.1h-1v1h-1v1h-6.2v-1h-1V34.8z"/>
		<path d="M407.7,36.8v-1h-1v-1h-1v-4.1h1v-1h1v-1h5.1v1h1v-2.1h-1v-1h-5.1v-2.1h6.2v1h1v1h1v10.3h-2.1v-1h-1v1H407.7z M408.7,34.8
			h4.1v-1h1v-2.1h-1v-1h-4.1v1h-1v2.1h1V34.8z"/>
		<path d="M431.2,34.8h-1v-2.1h2.1v1h1v1h4.1v-2.1h-2.1v-1h-2.1v-1h-2.1v-1h-1v-2.1h1v-1h1v-1h6.2v1h1v1h1v2.1h-2.1v-1h-1v-1h-4.1
			v2.1h3.1v1h2.1v1h1v1h1v2.1h-1v1h-1v1h-6.2v-1h-1V34.8z"/>
		<path d="M442.5,25.6h2.1v8.2h1v1h4.1v-1h1v-8.2h2.1v9.2h-1v1h-1v1h-6.2v-1h-1v-1h-1V25.6z"/>
		<path d="M455.9,34.8h-1v-2.1h2.1v1h1v1h4.1v-2.1H460v-1h-2.1v-1h-2.1v-1h-1v-2.1h1v-1h1v-1h6.2v1h1v1h1v2.1H463v-1h-1v-1h-4.1v2.1
			h3.1v1h2.1v1h1v1h1v2.1h-1v1h-1v1h-6.2v-1h-1V34.8z"/>
		<path d="M474.3,34.8h1v2.1h-2.1v-1h-1v-1h-1v-7.2h-2.1v-2.1h2.1v-3.1h2.1v3.1h2.1v2.1h-2.1v6.2h1V34.8z"/>
		<path d="M481.5,36.8v-1h-1v-1h-1v-4.1h1v-1h1v-1h5.1v1h1v-2.1h-1v-1h-5.1v-2.1h6.2v1h1v1h1v10.3h-2.1v-1h-1v1H481.5z M482.5,34.8
			h4.1v-1h1v-2.1h-1v-1h-4.1v1h-1v2.1h1V34.8z"/>
		<path d="M498.9,34.8h1v2.1h-2.1v-1h-1v-1h-1v-5.1h-2.1v-2.1h4.1v6.2h1V34.8z M497.9,23.5v2.1h-2.1v-2.1H497.9z"/>
		<path d="M506.1,28.6v8.2h-2.1V25.6h2.1v1h1v-1h5.1v1h1v1h1v9.2h-2.1v-8.2h-1v-1h-4.1v1H506.1z"/>
		<path d="M518.4,36.8v-1h-1v-1h-1v-4.1h1v-1h1v-1h5.1v1h1v-2.1h-1v-1h-5.1v-2.1h6.2v1h1v1h1v10.3h-2.1v-1h-1v1H518.4z M519.4,34.8
			h4.1v-1h1v-2.1h-1v-1h-4.1v1h-1v2.1h1V34.8z"/>
		<path d="M530.7,34.8v2.1h-2.1V22.5h2.1v5.1h1v-1h1v-1h3.1v1h1v1h1v1h1v5.1h-1v1h-1v1h-1v1h-3.1v-1h-1v-1H530.7z M533.8,34.8h1v-1
			h1v-1h1v-3.1h-1v-1h-1v-1h-1v1h-1v1h-1v3.1h1v1h1V34.8z"/>
		<path d="M547.1,22.5v14.4h-2.1V22.5H547.1z"/>
		<path d="M563.5,33.8v1h-1v1h-1v1h-6.2v-1h-1v-1h-1v-7.2h1v-1h1v-1h6.2v1h1v1h1v3.1h-1v1h-7.2v2.1h1v1h4.1v-1H563.5z M555.3,28.6v1
			h6.2v-1h-1v-1h-4.1v1H555.3z"/>
		<path d="M161.6,59v-1h2.1V60h-1v1h-1v1h-6.2v-1h-1v-1h-1v-7.2h1v-1h1v-1h6.2v1h1v1h1v2.1h-2.1v-1h-1v-1h-4.1v1h-1V59h1v1h4.1v-1
			H161.6z"/>
		<path d="M167.7,55.9V62h-2.1V50.8h2.1v2.1h1v-1h1v-1h4.1v1h1v1h1v2.1h-2.1v-1h-1v-1h-2.1v1h-1v1h-1v1H167.7z"/>
		<path d="M180,62v-1h-1v-1h-1v-7.2h1v-1h1v-1h6.2v1h1v1h1V60h-1v1h-1v1H180z M181.1,60h4.1v-1h1v-5.1h-1v-1h-4.1v1h-1V59h1V60z"/>
		<path d="M192.3,57.9V62h-2.1V49.7h2.1v1h1v-1h5.1v1h1v1h1v5.1h-1v1h-1v1h-5.1v-1H192.3z M198.5,52.8h-1v-1h-3.1v1h-1v3.1h1v1h3.1
			v-1h1V52.8z"/>
		<path d="M216.9,62v-1h-1v-1h-1v-4.1h1v-1h1v-1h5.1v1h1v-2.1h-1v-1h-5.1v-2.1h6.2v1h1v1h1V62h-2.1v-1h-1v1H216.9z M218,60h4.1v-1h1
			v-2.1h-1v-1H218v1h-1V59h1V60z"/>
		<path d="M229.2,53.8V62h-2.1V50.8h2.1v1h1v-1h5.1v1h1v1h1V62h-2.1v-8.2h-1v-1h-4.1v1H229.2z"/>
		<path d="M247.7,52.8v-5.1h2.1V62h-2.1V60h-1v1h-1v1h-3.1v-1h-1v-1h-1v-1h-1v-5.1h1v-1h1v-1h1v-1h3.1v1h1v1H247.7z M242.6,59h1v1h1
			v-1h1v-1h1v-3.1h-1v-1h-1v-1h-1v1h-1v1h-1v3.1h1V59z"/>
		<path d="M266.2,62v-1h-1v-1h-1v-4.1h1v-1h1v-1h5.1v1h1v-2.1h-1v-1h-5.1v-2.1h6.2v1h1v1h1V62h-2.1v-1h-1v1H266.2z M267.2,60h4.1v-1
			h1v-2.1h-1v-1h-4.1v1h-1V59h1V60z"/>
		<path d="M290.8,55.9V62h-2.1V47.7h2.1v5.1h1v-1h1v-1h3.1v1h1v1h1v1h1V62h-2.1v-7.2h-1v-1h-1v-1h-1v1h-1v1h-1v1H290.8z"/>
		<path d="M311.3,59v1h-1v1h-1v1h-6.2v-1h-1v-1h-1v-7.2h1v-1h1v-1h6.2v1h1v1h1v3.1h-1v1h-7.2V59h1v1h4.1v-1H311.3z M303.1,53.8v1
			h6.2v-1h-1v-1h-4.1v1H303.1z"/>
		<path d="M315.4,62v-1h-1v-1h-1v-4.1h1v-1h1v-1h5.1v1h1v-2.1h-1v-1h-5.1v-2.1h6.2v1h1v1h1V62h-2.1v-1h-1v1H315.4z M316.4,60h4.1v-1
			h1v-2.1h-1v-1h-4.1v1h-1V59h1V60z"/>
		<path d="M331.8,47.7V62h-2.1V47.7H331.8z"/>
		<path d="M345.1,60h1V62h-2.1v-1h-1v-1h-1v-7.2H340v-2.1h2.1v-3.1h2.1v3.1h2.1v2.1h-2.1V59h1V60z"/>
		<path d="M352.3,55.9V62h-2.1V47.7h2.1v5.1h1v-1h1v-1h3.1v1h1v1h1v1h1V62h-2.1v-7.2h-1v-1h-1v-1h-1v1h-1v1h-1v1H352.3z"/>
		<path d="M364.6,62V60h5.1v-1h1v-3.1h-1v1h-1v1h-4.1v-1h-1v-1h-1v-6.2h2.1v5.1h1v1h2.1v-1h1v-1h1v-2.1h1v-2.1h2.1V60h-1v1h-1v1
			H364.6z"/>
		<path d="M393.3,62h-2.1v-9.2h-3.1v-2.1h3.1v-2.1h1v-1h4.1v2.1h-3.1v1h3.1v2.1h-3.1V62z"/>
		<path d="M401.5,62v-1h-1v-1h-1v-7.2h1v-1h1v-1h6.2v1h1v1h1V60h-1v1h-1v1H401.5z M402.5,60h4.1v-1h1v-5.1h-1v-1h-4.1v1h-1V59h1V60z
			"/>
		<path d="M413.8,62v-1h-1v-1h-1v-7.2h1v-1h1v-1h6.2v1h1v1h1V60h-1v1h-1v1H413.8z M414.8,60h4.1v-1h1v-5.1h-1v-1h-4.1v1h-1V59h1V60z
			"/>
		<path d="M432.3,52.8v-5.1h2.1V62h-2.1V60h-1v1h-1v1h-3.1v-1h-1v-1h-1v-1h-1v-5.1h1v-1h1v-1h1v-1h3.1v1h1v1H432.3z M427.1,59h1v1h1
			v-1h1v-1h1v-3.1h-1v-1h-1v-1h-1v1h-1v1h-1v3.1h1V59z"/>
		<path d="M441.5,60V62h-2.1V60H441.5z"/>
	</g>
	<path class="st46" d="M374.8,224.7V208h-5.6v-11.1h-5.6v-11.1h-5.6v-5.6h-5.6v-11.1h-5.6v-5.6h-5.6v-5.6h-5.6v-5.6h-5.6v-5.6h-5.6
		v-5.6h-5.6v-5.6H308v-5.6h-11.1v-5.6h-22.3V119h-50.1v5.6h-22.3v5.6h-11.1v5.6h-5.6H180v5.6h-5.6v5.6h-5.6v5.6h-5.6v5.6h-5.6v5.6
		h-5.6v5.6h-5.6v5.6h-5.6v5.6h-5.6v11.1H130v22.3h-5.6v11.1h-5.6v55.6h5.6v5.6v5.6v5.6h5.6v5.6h5.6v5.6v5.6H130v5.6h-5.6v5.6h-5.6
		v5.6h-5.6v5.6h-5.6v5.6H96.6v5.6H91v5.6h-5.6v5.6h-5.6v5.6h-5.6v5.6H63.2v5.6v5.6h-5.6v5.6h-5.6v5.6h-5.6v27.8h5.6v5.6h27.8v-5.6
		h5.6v-5.6h11.1v-5.6h5.6v-5.6h5.6v-5.6h5.6v-5.6h5.6v-5.6h5.6v-5.6h5.6v-5.6h11.1v-5.6h5.6v-5.6h5.6v-5.6h11.1v-5.6h5.6h5.6v5.6
		h11.1v5.6h11.1v5.6h5.6h5.6v5.6h16.7v5.6H269v-5.6h27.8v-5.6h5.6v-5.6h11.1v-5.6h11.1v-5.6h5.6v-5.6h5.6v-5.6h5.6V336h5.6v-11.1
		h5.6v-5.6h5.6v-5.6v-5.6h5.6v-5.6h5.6v-11.1h5.6v-16.7h5.6v-50.1H374.8z M346.9,280.3h-5.6v11.1h-5.6v5.6h-5.6v5.6h-5.6v11.1h-5.6
		v11.1H308v5.6h-5.6v5.6h-11.1v5.6h-11.1v5.6h-66.8v-5.6h-11.1V336h-11.1v-5.6h-5.6v-5.6H180h-5.6v-11.1h-5.6v-11.1h-5.6V297h-5.6
		v-5.6h-5.6v-11.1h-5.6v-61.2h5.6V208h5.6v-5.6h5.6v-5.6h5.6v-11.1h5.6v-11.1h11.1v-5.6h5.6v-5.6h11.1v-5.6h11.1v-5.6h66.8v5.6h11.1
		v5.6h11.1v5.6h5.6v5.6h5.6h5.6v11.1h5.6v11.1h5.6v5.6h5.6v5.6h5.6v11.1h5.6V280.3z"/>
	<g>
		<polygon class="st38" points="309,247 302,247 302,240 295,240 295,233 183.1,233 183.1,240 176.1,240 176.1,247 169.1,247 
			169.1,282 176.1,282 176.1,289 183.1,289 183.1,296 295,296 295,289 302,289 302,282 309,282 		"/>
		<rect x="274" y="247" class="st39" width="7" height="14"/>
		<rect x="295" y="247" class="st39" width="7" height="14"/>
		<rect x="281" y="268" class="st39" width="14" height="7"/>
		<rect x="197.1" y="296" class="st39" width="7" height="28"/>
		<rect x="274" y="296" class="st39" width="7" height="28"/>
		<rect x="260" y="296" class="st39" width="7" height="28"/>
		<rect x="211.1" y="296" class="st39" width="7" height="28"/>
		<rect x="274" y="198.1" class="st39" width="7" height="35"/>
		<polygon class="st40" points="259.9,176.7 264.3,181.6 259.4,186 255,181.1 240.4,194.4 253.7,209 258.5,204.6 263,209.5 
			267.8,205.1 272.3,209.9 286.9,196.7 282.5,191.8 287.4,187.4 282.9,182.5 287.8,178.1 274.5,163.4 		"/>
	</g>
</g>
</svg>
