<?xml version="1.0" encoding="utf-8"?>
<!-- Generator: Adobe Illustrator 25.2.3, SVG Export Plug-In . SVG Version: 6.00 Build 0)  -->
<svg version="1.1" xmlns="http://www.w3.org/2000/svg" xmlns:xlink="http://www.w3.org/1999/xlink" x="0px" y="0px"
	 viewBox="0 0 600 425" style="enable-background:new 0 0 600 425;" xml:space="preserve">
<style type="text/css">
	.st0{opacity:0.51;}
	.st1{opacity:0.45;}
	.st2{fill:#EFB534;}
	.st3{fill:#D73D94;}
	.st4{fill:#080907;}
	.st5{fill:#3E7C6A;}
	.st6{fill:#B0542D;}
	.st7{fill:#060405;}
	.st8{fill:#BB8235;}
	.st9{fill:#6EA496;}
	.st10{fill:#639187;}
	.st11{opacity:0.49;}
	.st12{fill:#96BC50;}
	.st13{fill:#668B40;}
	.st14{fill:#426A36;}
	.st15{fill:#CBDC72;}
	.st16{fill:#6C1215;}
	.st17{fill:#F4C034;}
	.st18{fill:#F9B932;}
	.st19{fill:#655C5B;}
	.st20{fill:#7F6E58;}
	.st21{fill:#4C433C;}
	.st22{fill:#E9E1D4;}
	.st23{fill:#B77366;}
	.st24{fill:#15120F;}
	.st25{opacity:0.5;}
	.st26{fill:#9F2026;}
	.st27{fill:#CF242F;}
	.st28{fill:#F8A33B;}
	.st29{fill:#FFF7D2;}
	.st30{fill:#FEE42E;}
	.st31{fill:#03984C;}
	.st32{fill:#F79C31;}
	.st33{fill:#FDD730;}
	.st34{fill:#9F662E;}
	.st35{fill:#E4C597;}
	.st36{fill:#E4DED5;}
	.st37{fill:#C0B5AA;}
	.st38{fill:#706353;}
	.st39{fill:#010101;}
	.st40{fill:#33A14D;}
	.st41{fill:#EBD1A4;}
	.st42{fill:#07464F;}
	.st43{fill:#066486;}
	.st44{fill:#35BCC0;}
	.st45{fill:#0A8F9F;}
	.st46{fill:#D27633;}
	.st47{fill:#E72730;}
	.st48{fill:#DD8A35;}
	.st49{fill:#F3A734;}
</style>
<g id="Layer_1">
</g>
<g id="Layer_2">
</g>
<g id="Layer_3">
	<g>
		<rect x="344.4" y="155.1" class="st30" width="30.4" height="4.3"/>
		<rect x="344.4" y="159.4" class="st31" width="30.4" height="4.3"/>
		<rect x="348.7" y="163.8" class="st31" width="21.7" height="4.3"/>
		<rect x="353" y="168.1" class="st31" width="13" height="13"/>
		<rect x="357.4" y="163.8" class="st31" width="4.3" height="21.7"/>
		<rect x="357.4" y="98.6" class="st30" width="4.3" height="73.9"/>
		<rect x="353" y="163.8" class="st30" width="13" height="4.3"/>
		<rect x="344.4" y="111.6" class="st30" width="30.4" height="43.5"/>
		<rect x="357.4" y="89.9" class="st30" width="4.3" height="8.7"/>
		<rect x="348.7" y="102.9" class="st30" width="21.7" height="13"/>
		<rect x="353" y="94.2" class="st30" width="13" height="13"/>
		<rect x="340" y="129" class="st31" width="4.3" height="30.4"/>
		<rect x="374.8" y="129" class="st31" width="4.3" height="30.4"/>
		<rect x="331.3" y="120.3" class="st31" width="4.3" height="4.3"/>
		<rect x="335.7" y="124.7" class="st31" width="4.3" height="4.3"/>
		<rect x="379.1" y="124.7" class="st31" width="4.3" height="4.3"/>
		<rect x="383.5" y="120.3" class="st31" width="4.3" height="4.3"/>
		<rect x="357.4" y="159.4" class="st32" width="4.3" height="4.3"/>
		<rect x="331.3" y="137.7" class="st31" width="4.3" height="4.3"/>
		<rect x="335.7" y="142" class="st31" width="4.3" height="4.3"/>
		<rect x="344.4" y="155.1" class="st31" width="4.3" height="4.3"/>
		<rect x="370.4" y="155.1" class="st31" width="4.3" height="4.3"/>
		<rect x="379.1" y="142" class="st31" width="4.3" height="4.3"/>
		<rect x="383.5" y="137.7" class="st31" width="4.3" height="4.3"/>
		<rect x="353" y="155.1" class="st33" width="4.3" height="4.3"/>
		<rect x="361.7" y="155.1" class="st33" width="4.3" height="4.3"/>
		<rect x="348.7" y="146.4" class="st33" width="4.3" height="4.3"/>
		<rect x="357.4" y="146.4" class="st33" width="4.3" height="4.3"/>
		<rect x="366.1" y="146.4" class="st33" width="4.3" height="4.3"/>
		<rect x="344.4" y="137.7" class="st33" width="4.3" height="4.3"/>
		<rect x="353" y="137.7" class="st33" width="4.3" height="4.3"/>
		<rect x="361.7" y="137.7" class="st33" width="4.3" height="4.3"/>
		<rect x="370.4" y="137.7" class="st33" width="4.3" height="4.3"/>
		<rect x="348.7" y="129" class="st33" width="4.3" height="4.3"/>
		<rect x="357.4" y="129" class="st33" width="4.3" height="4.3"/>
		<rect x="366.1" y="129" class="st33" width="4.3" height="4.3"/>
		<rect x="361.7" y="120.3" class="st33" width="4.3" height="4.3"/>
		<rect x="353" y="120.3" class="st33" width="4.3" height="4.3"/>
		<rect x="348.7" y="159.4" class="st30" width="21.7" height="4.3"/>
		<rect x="344.4" y="120.3" class="st33" width="4.3" height="4.3"/>
		<rect x="370.4" y="120.3" class="st33" width="4.3" height="4.3"/>
		<rect x="348.7" y="111.6" class="st33" width="4.3" height="4.3"/>
		<rect x="357.4" y="111.6" class="st33" width="4.3" height="4.3"/>
		<rect x="366.1" y="111.6" class="st33" width="4.3" height="4.3"/>
		<rect x="353" y="102.9" class="st33" width="4.3" height="4.3"/>
		<rect x="361.7" y="102.9" class="st33" width="4.3" height="4.3"/>
		<rect x="357.4" y="98.6" class="st33" width="4.3" height="4.3"/>
		<rect x="353" y="94.2" class="st33" width="4.3" height="4.3"/>
		<rect x="361.7" y="94.2" class="st33" width="4.3" height="4.3"/>
		<rect x="353" y="163.8" class="st33" width="4.3" height="4.3"/>
		<rect x="357.4" y="168.1" class="st33" width="4.3" height="4.3"/>
		<rect x="361.7" y="163.8" class="st33" width="4.3" height="4.3"/>
	</g>
	<g>
		<polygon class="st34" points="273.2,208.9 270,208.9 270,202.5 266.8,202.5 266.8,199.3 263.6,199.3 263.6,196.1 260.4,196.1 
			260.4,192.9 244.3,192.9 244.3,196.1 241.1,196.1 241.1,199.3 237.9,199.3 237.9,212.1 241.1,212.1 241.1,218.6 244.3,218.6 
			244.3,221.8 247.6,221.8 247.6,228.2 244.3,228.2 244.3,231.4 241.1,231.4 241.1,237.8 237.9,237.8 237.9,250.7 241.1,250.7 
			241.1,253.9 244.3,253.9 244.3,257.1 260.4,257.1 260.4,253.9 263.6,253.9 263.6,250.7 266.8,250.7 266.8,247.4 270,247.4 
			270,241 273.2,241 		"/>
		<rect x="247.6" y="218.6" class="st35" width="3.2" height="12.8"/>
		<rect x="250.8" y="221.8" class="st35" width="3.2" height="6.4"/>
	</g>
	<rect x="232.9" y="272.2" class="st36" width="45.5" height="151.6"/>
	<rect x="232.9" y="302.5" class="st37" width="45.5" height="7.6"/>
	<rect x="232.9" y="370.7" class="st37" width="45.5" height="7.6"/>
	<rect x="263.2" y="332.8" class="st37" width="7.6" height="7.6"/>
	<rect x="240.5" y="287.4" class="st37" width="7.6" height="7.6"/>
	<rect x="240.5" y="332.8" class="st37" width="7.6" height="7.6"/>
	<rect x="263.2" y="355.6" class="st37" width="7.6" height="7.6"/>
	<rect x="240.5" y="408.6" class="st37" width="7.6" height="7.6"/>
	<rect x="339" y="196.4" class="st36" width="45.5" height="227.3"/>
	<rect x="339" y="226.8" class="st37" width="45.5" height="7.6"/>
	<rect x="339" y="295" class="st37" width="45.5" height="7.6"/>
	<rect x="369.3" y="257.1" class="st37" width="7.6" height="7.6"/>
	<rect x="346.6" y="211.6" class="st37" width="7.6" height="7.6"/>
	<rect x="346.6" y="257.1" class="st37" width="7.6" height="7.6"/>
	<rect x="369.3" y="279.8" class="st37" width="7.6" height="7.6"/>
	<rect x="346.6" y="332.8" class="st37" width="7.6" height="7.6"/>
	<rect x="339" y="370.7" class="st37" width="45.5" height="7.6"/>
	<rect x="445.1" y="348" class="st36" width="45.5" height="75.8"/>
	<rect x="126.8" y="272.2" class="st36" width="45.5" height="151.6"/>
	<rect x="126.8" y="302.5" class="st37" width="45.5" height="7.6"/>
	<rect x="126.8" y="370.7" class="st37" width="45.5" height="7.6"/>
	<rect x="157.1" y="332.8" class="st37" width="7.6" height="7.6"/>
	<rect x="134.4" y="287.4" class="st37" width="7.6" height="7.6"/>
	<rect x="134.4" y="332.8" class="st37" width="7.6" height="7.6"/>
	<rect x="157.1" y="355.6" class="st37" width="7.6" height="7.6"/>
	<rect x="164.7" y="408.6" class="st37" width="7.6" height="7.6"/>
	<g>
		<polygon class="st38" points="179.9,238.7 176.8,238.7 176.8,235.6 173.7,235.6 173.7,232.6 124.8,232.6 124.8,235.6 121.7,235.6 
			121.7,238.7 118.7,238.7 118.7,254 121.7,254 121.7,257 124.8,257 124.8,260.1 173.7,260.1 173.7,257 176.8,257 176.8,254 
			179.9,254 		"/>
		<rect x="164.6" y="238.7" class="st39" width="3.1" height="6.1"/>
		<rect x="173.7" y="238.7" class="st39" width="3.1" height="6.1"/>
		<rect x="167.6" y="247.9" class="st39" width="6.1" height="3.1"/>
		<rect x="130.9" y="260.1" class="st39" width="3.1" height="12.2"/>
		<rect x="164.6" y="260.1" class="st39" width="3.1" height="12.2"/>
		<rect x="158.4" y="260.1" class="st39" width="3.1" height="12.2"/>
		<rect x="137" y="260.1" class="st39" width="3.1" height="12.2"/>
		<rect x="164.6" y="217.3" class="st39" width="3.1" height="15.3"/>
		<polygon class="st40" points="158.4,207.9 160.3,210.1 158.2,212 156.2,209.9 149.8,215.7 155.6,222.1 157.8,220.1 159.7,222.3 
			161.9,220.3 163.8,222.5 170.2,216.7 168.3,214.5 170.4,212.6 168.5,210.5 170.6,208.5 164.8,202.1 		"/>
	</g>
	<rect x="452.7" y="385.9" class="st37" width="7.6" height="7.6"/>
	<rect x="483" y="370.7" class="st37" width="7.6" height="7.6"/>
	<rect x="445.1" y="348" class="st37" width="45.5" height="7.6"/>
	<rect x="475.4" y="401" class="st37" width="7.6" height="7.6"/>
	<polygon class="st41" points="482.9,318.1 480.1,318.1 480.1,315.3 477.3,315.3 477.3,312.4 457.7,312.4 457.7,315.3 454.9,315.3 
		454.9,318.1 452.1,318.1 452.1,334.9 454.9,334.9 454.9,337.7 457.7,337.7 457.7,340.5 477.3,340.5 477.3,337.7 480.1,337.7 
		480.1,334.9 482.9,334.9 	"/>
	<rect x="460.5" y="320.9" class="st39" width="2.8" height="5.6"/>
	<rect x="471.7" y="320.9" class="st39" width="2.8" height="5.6"/>
	<rect x="466.1" y="329.3" class="st39" width="2.8" height="2.8"/>
	<rect x="463.3" y="340.5" class="st39" width="2.8" height="8.4"/>
	<rect x="468.9" y="340.5" class="st39" width="2.8" height="8.4"/>
	<rect x="446.4" y="326.5" class="st39" width="5.6" height="2.8"/>
	<rect x="482.9" y="326.5" class="st39" width="5.6" height="2.8"/>
	<rect x="488.5" y="320.9" class="st39" width="2.8" height="5.6"/>
	<rect x="443.6" y="320.9" class="st39" width="2.8" height="5.6"/>
	<polygon class="st41" points="482.9,281.6 480.1,281.6 480.1,278.8 477.3,278.8 477.3,276 457.7,276 457.7,278.8 454.9,278.8 
		454.9,281.6 452.1,281.6 452.1,298.4 454.9,298.4 454.9,301.2 457.7,301.2 457.7,304 477.3,304 477.3,301.2 480.1,301.2 
		480.1,298.4 482.9,298.4 	"/>
	<rect x="460.5" y="284.4" class="st39" width="2.8" height="5.6"/>
	<rect x="471.7" y="284.4" class="st39" width="2.8" height="5.6"/>
	<rect x="466.1" y="292.8" class="st39" width="2.8" height="2.8"/>
	<rect x="463.3" y="304" class="st39" width="2.8" height="8.4"/>
	<rect x="468.9" y="304" class="st39" width="2.8" height="8.4"/>
	<rect x="446.4" y="290" class="st39" width="5.6" height="2.8"/>
	<rect x="482.9" y="290" class="st39" width="5.6" height="2.8"/>
	<rect x="488.5" y="284.4" class="st39" width="2.8" height="5.6"/>
	<rect x="443.6" y="284.4" class="st39" width="2.8" height="5.6"/>
	<g>
		<path d="M21.1,34.8h4.1v-1h1v-1h2.1v2.1h-1v1h-1v1h-6.2v-1h-1v-1h-1V24.5h1v-1h1v-1h6.2v1h1v1h1v2.1h-2.1v-1h-1v-1h-4.1v1h-1v8.2
			h1V34.8z"/>
		<path d="M32.4,30.7v6.2h-2.1V22.5h2.1v5.1h1v-1h1v-1h3.1v1h1v1h1v1h1v8.2h-2.1v-7.2h-1v-1h-1v-1h-1v1h-1v1h-1v1H32.4z"/>
		<path d="M49.8,34.8h1v2.1h-2.1v-1h-1v-1h-1v-5.1h-2.1v-2.1h4.1v6.2h1V34.8z M48.8,23.5v2.1h-2.1v-2.1H48.8z"/>
		<path d="M57,36.8v-1h-1v-1h-1v-4.1h1v-1h1v-1h5.1v1h1v-2.1h-1v-1H57v-2.1h6.2v1h1v1h1v10.3h-2.1v-1h-1v1H57z M58,34.8h4.1v-1h1
			v-2.1h-1v-1H58v1h-1v2.1h1V34.8z"/>
		<path d="M79.5,25.6h2.1v8.2h1v1h1v-5.1h2.1v5.1h1v-1h1v-8.2h2.1v9.2h-1v1h-1v1h-2.1v-1h-2.1v1h-2.1v-1h-1v-1h-1V25.6z"/>
		<path d="M93.9,36.8v-1h-1v-1h-1v-4.1h1v-1h1v-1H99v1h1v-2.1h-1v-1h-5.1v-2.1h6.2v1h1v1h1v10.3H100v-1h-1v1H93.9z M94.9,34.8H99v-1
			h1v-2.1h-1v-1h-4.1v1h-1v2.1h1V34.8z"/>
		<path d="M105.2,34.8h-1v-2.1h2.1v1h1v1h4.1v-2.1h-2.1v-1h-2.1v-1h-2.1v-1h-1v-2.1h1v-1h1v-1h6.2v1h1v1h1v2.1h-2.1v-1h-1v-1h-4.1
			v2.1h3.1v1h2.1v1h1v1h1v2.1h-1v1h-1v1h-6.2v-1h-1V34.8z"/>
		<path d="M130.8,36.8v-1h-1v-1h-1v-7.2h1v-1h1v-1h6.2v1h1v1h1v7.2h-1v1h-1v1H130.8z M131.8,34.8h4.1v-1h1v-5.1h-1v-1h-4.1v1h-1v5.1
			h1V34.8z"/>
		<path d="M143.1,28.6v8.2h-2.1V25.6h2.1v1h1v-1h5.1v1h1v1h1v9.2h-2.1v-8.2h-1v-1h-4.1v1H143.1z"/>
		<path d="M163.6,33.8v1h-1v1h-1v1h-6.2v-1h-1v-1h-1v-7.2h1v-1h1v-1h6.2v1h1v1h1v3.1h-1v1h-7.2v2.1h1v1h4.1v-1H163.6z M155.4,28.6v1
			h6.2v-1h-1v-1h-4.1v1H155.4z"/>
		<path d="M180,36.8v-1h-1v-1h-1v-7.2h1v-1h1v-1h6.2v1h1v1h1v7.2h-1v1h-1v1H180z M181.1,34.8h4.1v-1h1v-5.1h-1v-1h-4.1v1h-1v5.1h1
			V34.8z"/>
		<path d="M196.4,36.8h-2.1v-9.2h-3.1v-2.1h3.1v-2.1h1v-1h4.1v2.1h-3.1v1h3.1v2.1h-3.1V36.8z"/>
		<path d="M222.1,34.8h1v2.1H221v-1h-1v-1h-1v-7.2h-2.1v-2.1h2.1v-3.1h2.1v3.1h2.1v2.1H221v6.2h1V34.8z"/>
		<path d="M229.2,30.7v6.2h-2.1V22.5h2.1v5.1h1v-1h1v-1h3.1v1h1v1h1v1h1v8.2h-2.1v-7.2h-1v-1h-1v-1h-1v1h-1v1h-1v1H229.2z"/>
		<path d="M249.8,33.8v1h-1v1h-1v1h-6.2v-1h-1v-1h-1v-7.2h1v-1h1v-1h6.2v1h1v1h1v3.1h-1v1h-7.2v2.1h1v1h4.1v-1H249.8z M241.6,28.6v1
			h6.2v-1h-1v-1h-4.1v1H241.6z"/>
		<path d="M266.2,32.7v4.1h-2.1V24.5h2.1v1h1v-1h5.1v1h1v1h1v5.1h-1v1h-1v1h-5.1v-1H266.2z M272.3,27.6h-1v-1h-3.1v1h-1v3.1h1v1h3.1
			v-1h1V27.6z"/>
		<path d="M283.6,34.8h1v2.1h-2.1v-1h-1v-1h-1v-5.1h-2.1v-2.1h4.1v6.2h1V34.8z M282.6,23.5v2.1h-2.1v-2.1H282.6z"/>
		<path d="M294.9,22.5v14.4h-2.1V22.5H294.9z"/>
		<path d="M303.1,36.8v-1h-1v-1h-1v-4.1h1v-1h1v-1h5.1v1h1v-2.1h-1v-1h-5.1v-2.1h6.2v1h1v1h1v10.3h-2.1v-1h-1v1H303.1z M304.1,34.8
			h4.1v-1h1v-2.1h-1v-1h-4.1v1h-1v2.1h1V34.8z"/>
		<path d="M315.4,30.7v6.2h-2.1V25.6h2.1v2.1h1v-1h1v-1h4.1v1h1v1h1v2.1h-2.1v-1h-1v-1h-2.1v1h-1v1h-1v1H315.4z"/>
		<path d="M326.7,34.8h-1v-2.1h2.1v1h1v1h4.1v-2.1h-2.1v-1h-2.1v-1h-2.1v-1h-1v-2.1h1v-1h1v-1h6.2v1h1v1h1v2.1h-2.1v-1h-1v-1h-4.1
			v2.1h3.1v1h2.1v1h1v1h1v2.1h-1v1h-1v1h-6.2v-1h-1V34.8z"/>
		<path d="M352.3,36.8v-1h-1v-1h-1v-7.2h1v-1h1v-1h6.2v1h1v1h1v7.2h-1v1h-1v1H352.3z M353.3,34.8h4.1v-1h1v-5.1h-1v-1h-4.1v1h-1v5.1
			h1V34.8z"/>
		<path d="M368.7,36.8h-2.1v-9.2h-3.1v-2.1h3.1v-2.1h1v-1h4.1v2.1h-3.1v1h3.1v2.1h-3.1V36.8z"/>
		<path d="M389.2,36.8h-2.1V26.6h1v-1h1v-1h1v-1h1v-1h2.1v1h1v1h1v1h1v1h1v10.3h-2.1v-4.1h-6.2V36.8z M389.2,30.7h6.2v-3.1h-1v-1h-1
			v-1h-2.1v1h-1v1h-1V30.7z"/>
		<path d="M403.6,34.8h6.2v2.1h-10.3v-2.1h1v-1h1v-1h1v-1h1v-1h1v-1h1v-1h1v-1h-7.2v-2.1h10.3v3.1h-1v1h-1v1h-1v1h-1v1h-1v1h-1V34.8
			z"/>
		<path d="M418.9,34.8h1v2.1h-2.1v-1h-1v-1h-1v-7.2h-2.1v-2.1h2.1v-3.1h2.1v3.1h2.1v2.1h-2.1v6.2h1V34.8z"/>
		<path d="M434.3,33.8v1h-1v1h-1v1h-6.2v-1h-1v-1h-1v-7.2h1v-1h1v-1h6.2v1h1v1h1v3.1h-1v1h-7.2v2.1h1v1h4.1v-1H434.3z M426.1,28.6v1
			h6.2v-1h-1v-1h-4.1v1H426.1z"/>
		<path d="M444.6,33.8v-1h2.1v2.1h-1v1h-1v1h-6.2v-1h-1v-1h-1v-7.2h1v-1h1v-1h6.2v1h1v1h1v2.1h-2.1v-1h-1v-1h-4.1v1h-1v5.1h1v1h4.1
			v-1H444.6z"/>
		<path d="M463,28.6v8.2H461V25.6h2.1v1h1v-1h5.1v1h1v1h1v9.2h-2.1v-8.2h-1v-1h-4.1v1H463z"/>
		<path d="M473.3,25.6h2.1v8.2h1v1h4.1v-1h1v-8.2h2.1v9.2h-1v1h-1v1h-6.2v-1h-1v-1h-1V25.6z"/>
		<path d="M492.8,34.8h1v2.1h-2.1v-1h-1v-1h-1v-7.2h-2.1v-2.1h2.1v-3.1h2.1v3.1h2.1v2.1h-2.1v6.2h1V34.8z"/>
		<path d="M500,30.7v6.2h-2.1V25.6h2.1v2.1h1v-1h1v-1h4.1v1h1v1h1v2.1h-2.1v-1h-1v-1H503v1h-1v1h-1v1H500z"/>
		<path d="M517.4,34.8h1v2.1h-2.1v-1h-1v-1h-1v-5.1h-2.1v-2.1h4.1v6.2h1V34.8z M516.4,23.5v2.1h-2.1v-2.1H516.4z"/>
		<path d="M529.7,34.8h1v2.1h-2.1v-1h-1v-1h-1v-7.2h-2.1v-2.1h2.1v-3.1h2.1v3.1h2.1v2.1h-2.1v6.2h1V34.8z"/>
		<path d="M542,34.8h1v2.1H541v-1h-1v-1h-1v-5.1h-2.1v-2.1h4.1v6.2h1V34.8z M541,23.5v2.1h-2.1v-2.1H541z"/>
		<path d="M549.2,36.8v-1h-1v-1h-1v-7.2h1v-1h1v-1h6.2v1h1v1h1v7.2h-1v1h-1v1H549.2z M550.2,34.8h4.1v-1h1v-5.1h-1v-1h-4.1v1h-1v5.1
			h1V34.8z"/>
		<path d="M561.5,28.6v8.2h-2.1V25.6h2.1v1h1v-1h5.1v1h1v1h1v9.2h-2.1v-8.2h-1v-1h-4.1v1H561.5z"/>
		<path d="M575.8,34.8v-2.1h2.1v2.1h-1v1h-1v1h-2.1v-1h1v-1H575.8z"/>
		<path d="M81.6,62v-1h-1v-1h-1v-4.1h1v-1h1v-1h5.1v1h1v-2.1h-1v-1h-5.1v-2.1h6.2v1h1v1h1V62h-2.1v-1h-1v1H81.6z M82.6,60h4.1v-1h1
			v-2.1h-1v-1h-4.1v1h-1V59h1V60z"/>
		<path d="M98,47.7V62h-2.1V47.7H98z"/>
		<path d="M106.2,62v-1h-1v-1h-1v-7.2h1v-1h1v-1h6.2v1h1v1h1V60h-1v1h-1v1H106.2z M107.2,60h4.1v-1h1v-5.1h-1v-1h-4.1v1h-1V59h1V60z
			"/>
		<path d="M118.5,53.8V62h-2.1V50.8h2.1v1h1v-1h5.1v1h1v1h1V62h-2.1v-8.2h-1v-1h-4.1v1H118.5z"/>
		<path d="M130.8,61h-1V59h2.1v1h4.1v-1h1v-3.1h-1v1h-5.1v-1h-1v-1h-1v-3.1h1v-1h1v-1h6.2v1h1v1h1V60h-1v1h-1v1h-6.2V61z M137,53.8
			v-1h-1v-1h-4.1v1h-1v1h1v1h4.1v-1H137z"/>
		<path d="M153.4,50.8h2.1V59h1v1h1v-5.1h2.1V60h1v-1h1v-8.2h2.1V60h-1v1h-1v1h-2.1v-1h-2.1v1h-2.1v-1h-1v-1h-1V50.8z"/>
		<path d="M172.9,60h1V62h-2.1v-1h-1v-1h-1v-5.1h-2.1v-2.1h4.1V59h1V60z M171.8,48.7v2.1h-2.1v-2.1H171.8z"/>
		<path d="M185.2,60h1V62h-2.1v-1h-1v-1h-1v-7.2H180v-2.1h2.1v-3.1h2.1v3.1h2.1v2.1h-2.1V59h1V60z"/>
		<path d="M192.3,55.9V62h-2.1V47.7h2.1v5.1h1v-1h1v-1h3.1v1h1v1h1v1h1V62h-2.1v-7.2h-1v-1h-1v-1h-1v1h-1v1h-1v1H192.3z"/>
		<path d="M216.9,60V62h-2.1V47.7h2.1v5.1h1v-1h1v-1h3.1v1h1v1h1v1h1V59h-1v1h-1v1h-1v1H219v-1h-1v-1H216.9z M220,60h1v-1h1v-1h1
			v-3.1h-1v-1h-1v-1h-1v1h-1v1h-1v3.1h1v1h1V60z"/>
		<path d="M237.5,59v1h-1v1h-1v1h-6.2v-1h-1v-1h-1v-7.2h1v-1h1v-1h6.2v1h1v1h1v3.1h-1v1h-7.2V59h1v1h4.1v-1H237.5z M229.2,53.8v1
			h6.2v-1h-1v-1h-4.1v1H229.2z"/>
		<path d="M241.6,62v-1h-1v-1h-1v-4.1h1v-1h1v-1h5.1v1h1v-2.1h-1v-1h-5.1v-2.1h6.2v1h1v1h1V62h-2.1v-1h-1v1H241.6z M242.6,60h4.1v-1
			h1v-2.1h-1v-1h-4.1v1h-1V59h1V60z"/>
		<path d="M253.9,53.8V62h-2.1V50.8h2.1v1h1v-1h5.1v1h1v1h1V62H260v-8.2h-1v-1h-4.1v1H253.9z"/>
		<path d="M265.1,60h-1v-2.1h2.1v1h1v1h4.1v-2.1h-2.1v-1h-2.1v-1h-2.1v-1h-1v-2.1h1v-1h1v-1h6.2v1h1v1h1v2.1h-2.1v-1h-1v-1h-4.1v2.1
			h3.1v1h2.1v1h1v1h1V60h-1v1h-1v1h-6.2v-1h-1V60z"/>
		<path d="M280.5,60v-2.1h2.1V60h-1v1h-1v1h-2.1v-1h1v-1H280.5z"/>
		<path d="M309.2,59v-1h2.1V60h-1v1h-1v1h-6.2v-1h-1v-1h-1v-7.2h1v-1h1v-1h6.2v1h1v1h1v2.1h-2.1v-1h-1v-1h-4.1v1h-1V59h1v1h4.1v-1
			H309.2z"/>
		<path d="M315.4,62v-1h-1v-1h-1v-7.2h1v-1h1v-1h6.2v1h1v1h1V60h-1v1h-1v1H315.4z M316.4,60h4.1v-1h1v-5.1h-1v-1h-4.1v1h-1V59h1V60z
			"/>
		<path d="M327.7,55.9V62h-2.1V50.8h2.1v2.1h1v-1h1v-1h4.1v1h1v1h1v2.1h-2.1v-1h-1v-1h-2.1v1h-1v1h-1v1H327.7z"/>
		<path d="M340,53.8V62h-2.1V50.8h2.1v1h1v-1h5.1v1h1v1h1V62h-2.1v-8.2h-1v-1H341v1H340z"/>
		<path d="M364.6,62v-1h-1v-1h-1v-4.1h1v-1h1v-1h5.1v1h1v-2.1h-1v-1h-5.1v-2.1h6.2v1h1v1h1V62h-2.1v-1h-1v1H364.6z M365.6,60h4.1v-1
			h1v-2.1h-1v-1h-4.1v1h-1V59h1V60z"/>
		<path d="M376.9,53.8V62h-2.1V50.8h2.1v1h1v-1h5.1v1h1v1h1V62h-2.1v-8.2h-1v-1h-4.1v1H376.9z"/>
		<path d="M395.4,52.8v-5.1h2.1V62h-2.1V60h-1v1h-1v1h-3.1v-1h-1v-1h-1v-1h-1v-5.1h1v-1h1v-1h1v-1h3.1v1h1v1H395.4z M390.2,59h1v1h1
			v-1h1v-1h1v-3.1h-1v-1h-1v-1h-1v1h-1v1h-1v3.1h1V59z"/>
		<path d="M413.8,62v-1h-1v-1h-1v-4.1h1v-1h1v-1h5.1v1h1v-2.1h-1v-1h-5.1v-2.1h6.2v1h1v1h1V62H420v-1h-1v1H413.8z M414.8,60h4.1v-1
			h1v-2.1h-1v-1h-4.1v1h-1V59h1V60z"/>
		<path d="M426.1,53.8V62h-2.1V50.8h2.1v1h1v-1h5.1v1h1v1h1V62h-2.1v-8.2h-1v-1h-1V62h-2.1v-9.2h-1v1H426.1z"/>
		<path d="M438.4,62v-1h-1v-1h-1v-4.1h1v-1h1v-1h5.1v1h1v-2.1h-1v-1h-5.1v-2.1h6.2v1h1v1h1V62h-2.1v-1h-1v1H438.4z M439.5,60h4.1v-1
			h1v-2.1h-1v-1h-4.1v1h-1V59h1V60z"/>
		<path d="M450.7,55.9V62h-2.1V50.8h2.1v2.1h1v-1h1v-1h4.1v1h1v1h1v2.1h-2.1v-1h-1v-1h-2.1v1h-1v1h-1v1H450.7z"/>
		<path d="M463,62v-1h-1v-1h-1v-4.1h1v-1h1v-1h5.1v1h1v-2.1h-1v-1H463v-2.1h6.2v1h1v1h1V62h-2.1v-1h-1v1H463z M464.1,60h4.1v-1h1
			v-2.1h-1v-1h-4.1v1h-1V59h1V60z"/>
		<path d="M475.3,53.8V62h-2.1V50.8h2.1v1h1v-1h5.1v1h1v1h1V62h-2.1v-8.2h-1v-1h-4.1v1H475.3z"/>
		<path d="M492.8,60h1V62h-2.1v-1h-1v-1h-1v-7.2h-2.1v-2.1h2.1v-3.1h2.1v3.1h2.1v2.1h-2.1V59h1V60z"/>
		<path d="M500,55.9V62h-2.1V47.7h2.1v5.1h1v-1h1v-1h3.1v1h1v1h1v1h1V62h-2.1v-7.2h-1v-1h-1v-1h-1v1h-1v1h-1v1H500z"/>
		<path d="M515.3,60V62h-2.1V60H515.3z"/>
	</g>
</g>
</svg>
