<?xml version="1.0" encoding="utf-8"?>
<!-- Generator: Adobe Illustrator 25.2.3, SVG Export Plug-In . SVG Version: 6.00 Build 0)  -->
<svg version="1.1" xmlns="http://www.w3.org/2000/svg" xmlns:xlink="http://www.w3.org/1999/xlink" x="0px" y="0px"
	 viewBox="0 0 600 425" style="enable-background:new 0 0 600 425;" xml:space="preserve">
<style type="text/css">
	.st0{opacity:0.51;}
	.st1{opacity:0.45;}
	.st2{fill:#EFB534;}
	.st3{fill:#D73D94;}
	.st4{fill:#080907;}
	.st5{fill:#3E7C6A;}
	.st6{fill:#B0542D;}
	.st7{fill:#060405;}
	.st8{fill:#BB8235;}
	.st9{fill:#6EA496;}
	.st10{fill:#639187;}
	.st11{opacity:0.49;}
	.st12{fill:#96BC50;}
	.st13{fill:#668B40;}
	.st14{fill:#426A36;}
	.st15{fill:#CBDC72;}
	.st16{fill:#6C1215;}
	.st17{fill:#F4C034;}
	.st18{fill:#F9B932;}
	.st19{fill:#655C5B;}
	.st20{fill:#7F6E58;}
	.st21{fill:#4C433C;}
	.st22{fill:#E9E1D4;}
	.st23{fill:#B77366;}
	.st24{fill:#15120F;}
	.st25{opacity:0.5;}
	.st26{fill:#9F2026;}
	.st27{fill:#CF242F;}
	.st28{fill:#F8A33B;}
	.st29{fill:#FFF7D2;}
	.st30{fill:#FEE42E;}
	.st31{fill:#03984C;}
	.st32{fill:#F79C31;}
	.st33{fill:#FDD730;}
	.st34{fill:#9F662E;}
	.st35{fill:#E4C597;}
	.st36{fill:#E4DED5;}
	.st37{fill:#C0B5AA;}
	.st38{fill:#706353;}
	.st39{fill:#010101;}
	.st40{fill:#33A14D;}
	.st41{fill:#EBD1A4;}
	.st42{fill:#07464F;}
	.st43{fill:#066486;}
	.st44{fill:#35BCC0;}
	.st45{fill:#0A8F9F;}
	.st46{fill:#D27633;}
	.st47{fill:#E72730;}
	.st48{fill:#DD8A35;}
	.st49{fill:#F3A734;}
</style>
<g id="Layer_1">
</g>
<g id="Layer_2">
</g>
<g id="Layer_3">
	<g>
		<path d="M18,22.5h2.1v11.3h2.1v-5.1h2.1v5.1h2.1V22.5h2.1v12.3h-1v1h-1v1h-2.1v-1h-2.1v1h-2.1v-1h-1v-1h-1V22.5z"/>
		<path d="M32.4,30.7v6.2h-2.1V22.5h2.1v5.1h1v-1h1v-1h3.1v1h1v1h1v1h1v8.2h-2.1v-7.2h-1v-1h-1v-1h-1v1h-1v1h-1v1H32.4z"/>
		<path d="M52.9,33.8v1h-1v1h-1v1h-6.2v-1h-1v-1h-1v-7.2h1v-1h1v-1h6.2v1h1v1h1v3.1h-1v1h-7.2v2.1h1v1h4.1v-1H52.9z M44.7,28.6v1
			h6.2v-1h-1v-1h-4.1v1H44.7z"/>
		<path d="M57,28.6v8.2h-2.1V25.6H57v1h1v-1h5.1v1h1v1h1v9.2h-2.1v-8.2h-1v-1H58v1H57z"/>
		<path d="M86.7,34.8h1v2.1h-2.1v-1h-1v-1h-1v-7.2h-2.1v-2.1h2.1v-3.1h2.1v3.1h2.1v2.1h-2.1v6.2h1V34.8z"/>
		<path d="M93.9,30.7v6.2h-2.1V22.5h2.1v5.1h1v-1h1v-1H99v1h1v1h1v1h1v8.2H100v-7.2h-1v-1h-1v-1h-1v1h-1v1h-1v1H93.9z"/>
		<path d="M114.4,33.8v1h-1v1h-1v1h-6.2v-1h-1v-1h-1v-7.2h1v-1h1v-1h6.2v1h1v1h1v3.1h-1v1h-7.2v2.1h1v1h4.1v-1H114.4z M106.2,28.6v1
			h6.2v-1h-1v-1h-4.1v1H106.2z"/>
		<path d="M130.8,36.8h-2.1V26.6h1v-1h1v-1h1v-1h1v-1h2.1v1h1v1h1v1h1v1h1v10.3H137v-4.1h-6.2V36.8z M130.8,30.7h6.2v-3.1h-1v-1h-1
			v-1h-2.1v1h-1v1h-1V30.7z"/>
		<path d="M145.2,34.8h6.2v2.1h-10.3v-2.1h1v-1h1v-1h1v-1h1v-1h1v-1h1v-1h1v-1h-7.2v-2.1h10.3v3.1h-1v1h-1v1h-1v1h-1v1h-1v1h-1V34.8
			z"/>
		<path d="M160.5,34.8h1v2.1h-2.1v-1h-1v-1h-1v-7.2h-2.1v-2.1h2.1v-3.1h2.1v3.1h2.1v2.1h-2.1v6.2h1V34.8z"/>
		<path d="M175.9,33.8v1h-1v1h-1v1h-6.2v-1h-1v-1h-1v-7.2h1v-1h1v-1h6.2v1h1v1h1v3.1h-1v1h-7.2v2.1h1v1h4.1v-1H175.9z M167.7,28.6v1
			h6.2v-1h-1v-1h-4.1v1H167.7z"/>
		<path d="M186.2,33.8v-1h2.1v2.1h-1v1h-1v1H180v-1h-1v-1h-1v-7.2h1v-1h1v-1h6.2v1h1v1h1v2.1h-2.1v-1h-1v-1h-4.1v1h-1v5.1h1v1h4.1
			v-1H186.2z"/>
		<path d="M212.8,33.8v1h-1v1h-1v1h-6.2v-1h-1v-1h-1v-7.2h1v-1h1v-1h6.2v1h1v1h1v3.1h-1v1h-7.2v2.1h1v1h4.1v-1H212.8z M204.6,28.6v1
			h6.2v-1h-1v-1h-4.1v1H204.6z"/>
		<path d="M216.9,28.6v8.2h-2.1V25.6h2.1v1h1v-1h5.1v1h1v1h1v9.2h-2.1v-8.2h-1v-1h-1v9.2H219v-9.2h-1v1H216.9z"/>
		<path d="M229.2,32.7v4.1h-2.1V24.5h2.1v1h1v-1h5.1v1h1v1h1v5.1h-1v1h-1v1h-5.1v-1H229.2z M235.4,27.6h-1v-1h-3.1v1h-1v3.1h1v1h3.1
			v-1h1V27.6z"/>
		<path d="M246.7,34.8h1v2.1h-2.1v-1h-1v-1h-1v-5.1h-2.1v-2.1h4.1v6.2h1V34.8z M245.7,23.5v2.1h-2.1v-2.1H245.7z"/>
		<path d="M253.9,30.7v6.2h-2.1V25.6h2.1v2.1h1v-1h1v-1h4.1v1h1v1h1v2.1H260v-1h-1v-1h-2.1v1h-1v1h-1v1H253.9z"/>
		<path d="M274.4,33.8v1h-1v1h-1v1h-6.2v-1h-1v-1h-1v-7.2h1v-1h1v-1h6.2v1h1v1h1v3.1h-1v1h-7.2v2.1h1v1h4.1v-1H274.4z M266.2,28.6v1
			h6.2v-1h-1v-1h-4.1v1H266.2z"/>
		<path d="M294.9,36.8h-2.1v-9.2h-3.1v-2.1h3.1v-2.1h1v-1h4.1v2.1h-3.1v1h3.1v2.1h-3.1V36.8z"/>
		<path d="M311.3,33.8v1h-1v1h-1v1h-6.2v-1h-1v-1h-1v-7.2h1v-1h1v-1h6.2v1h1v1h1v3.1h-1v1h-7.2v2.1h1v1h4.1v-1H311.3z M303.1,28.6v1
			h6.2v-1h-1v-1h-4.1v1H303.1z"/>
		<path d="M319.5,22.5v14.4h-2.1V22.5H319.5z"/>
		<path d="M331.8,22.5v14.4h-2.1V22.5H331.8z"/>
		<path d="M342,34.8v-2.1h2.1v2.1h-1v1h-1v1H340v-1h1v-1H342z"/>
		<path d="M369.7,34.8h1v2.1h-2.1v-1h-1v-1h-1v-7.2h-2.1v-2.1h2.1v-3.1h2.1v3.1h2.1v2.1h-2.1v6.2h1V34.8z"/>
		<path d="M376.9,30.7v6.2h-2.1V22.5h2.1v5.1h1v-1h1v-1h3.1v1h1v1h1v1h1v8.2h-2.1v-7.2h-1v-1h-1v-1h-1v1h-1v1h-1v1H376.9z"/>
		<path d="M397.4,33.8v1h-1v1h-1v1h-6.2v-1h-1v-1h-1v-7.2h1v-1h1v-1h6.2v1h1v1h1v3.1h-1v1h-7.2v2.1h1v1h4.1v-1H397.4z M389.2,28.6v1
			h6.2v-1h-1v-1h-4.1v1H389.2z"/>
		<path d="M406.6,34.8h1v2.1h-2.1v-1h-1v-1h-1v-5.1h-2.1v-2.1h4.1v6.2h1V34.8z M405.6,23.5v2.1h-2.1v-2.1H405.6z"/>
		<path d="M413.8,30.7v6.2h-2.1V25.6h2.1v2.1h1v-1h1v-1h4.1v1h1v1h1v2.1H420v-1h-1v-1h-2.1v1h-1v1h-1v1H413.8z"/>
		<path d="M438.4,30.7v6.2h-2.1V25.6h2.1v2.1h1v-1h1v-1h4.1v1h1v1h1v2.1h-2.1v-1h-1v-1h-2.1v1h-1v1h-1v1H438.4z"/>
		<path d="M458.9,33.8v1h-1v1h-1v1h-6.2v-1h-1v-1h-1v-7.2h1v-1h1v-1h6.2v1h1v1h1v3.1h-1v1h-7.2v2.1h1v1h4.1v-1H458.9z M450.7,28.6v1
			h6.2v-1h-1v-1h-4.1v1H450.7z"/>
		<path d="M467.1,22.5v14.4h-2.1V22.5H467.1z"/>
		<path d="M480.5,34.8h1v2.1h-2.1v-1h-1v-1h-1v-5.1h-2.1v-2.1h4.1v6.2h1V34.8z M479.4,23.5v2.1h-2.1v-2.1H479.4z"/>
		<path d="M487.6,35.8h-1v-2.1h2.1v1h4.1v-1h1v-3.1h-1v1h-5.1v-1h-1v-1h-1v-3.1h1v-1h1v-1h6.2v1h1v1h1v8.2h-1v1h-1v1h-6.2V35.8z
			 M493.8,28.6v-1h-1v-1h-4.1v1h-1v1h1v1h4.1v-1H493.8z"/>
		<path d="M505.1,34.8h1v2.1h-2.1v-1h-1v-1h-1v-5.1H500v-2.1h4.1v6.2h1V34.8z M504.1,23.5v2.1H502v-2.1H504.1z"/>
		<path d="M512.3,36.8v-1h-1v-1h-1v-7.2h1v-1h1v-1h6.2v1h1v1h1v7.2h-1v1h-1v1H512.3z M513.3,34.8h4.1v-1h1v-5.1h-1v-1h-4.1v1h-1v5.1
			h1V34.8z"/>
		<path d="M524.6,28.6v8.2h-2.1V25.6h2.1v1h1v-1h5.1v1h1v1h1v9.2h-2.1v-8.2h-1v-1h-4.1v1H524.6z"/>
		<path d="M547.1,25.6h2.1v8.2h1v1h1v-5.1h2.1v5.1h1v-1h1v-8.2h2.1v9.2h-1v1h-1v1h-2.1v-1h-2.1v1h-2.1v-1h-1v-1h-1V25.6z"/>
		<path d="M561.5,36.8v-1h-1v-1h-1v-4.1h1v-1h1v-1h5.1v1h1v-2.1h-1v-1h-5.1v-2.1h6.2v1h1v1h1v10.3h-2.1v-1h-1v1H561.5z M562.5,34.8
			h4.1v-1h1v-2.1h-1v-1h-4.1v1h-1v2.1h1V34.8z"/>
		<path d="M572.8,34.8h-1v-2.1h2.1v1h1v1h4.1v-2.1h-2.1v-1h-2.1v-1h-2.1v-1h-1v-2.1h1v-1h1v-1h6.2v1h1v1h1v2.1h-2.1v-1h-1v-1h-4.1
			v2.1h3.1v1h2.1v1h1v1h1v2.1h-1v1h-1v1h-6.2v-1h-1V34.8z"/>
		<path d="M7.8,60V62H5.7V47.7h2.1v5.1h1v-1h1v-1h3.1v1h1v1h1v1h1V59h-1v1h-1v1h-1v1H9.8v-1h-1v-1H7.8z M10.8,60h1v-1h1v-1h1v-3.1
			h-1v-1h-1v-1h-1v1h-1v1h-1v3.1h1v1h1V60z"/>
		<path d="M20.1,62v-1h-1v-1h-1v-4.1h1v-1h1v-1h5.1v1h1v-2.1h-1v-1h-5.1v-2.1h6.2v1h1v1h1V62h-2.1v-1h-1v1H20.1z M21.1,60h4.1v-1h1
			v-2.1h-1v-1h-4.1v1h-1V59h1V60z"/>
		<path d="M32.4,53.8V62h-2.1V50.8h2.1v1h1v-1h5.1v1h1v1h1V62h-2.1v-8.2h-1v-1h-4.1v1H32.4z"/>
		<path d="M44.7,53.8V62h-2.1V50.8h2.1v1h1v-1h5.1v1h1v1h1V62h-2.1v-8.2h-1v-1h-4.1v1H44.7z"/>
		<path d="M65.2,59v1h-1v1h-1v1H57v-1h-1v-1h-1v-7.2h1v-1h1v-1h6.2v1h1v1h1v3.1h-1v1H57V59h1v1h4.1v-1H65.2z M57,53.8v1h6.2v-1h-1
			v-1H58v1H57z"/>
		<path d="M75.4,52.8v-5.1h2.1V62h-2.1V60h-1v1h-1v1h-3.1v-1h-1v-1h-1v-1h-1v-5.1h1v-1h1v-1h1v-1h3.1v1h1v1H75.4z M70.3,59h1v1h1v-1
			h1v-1h1v-3.1h-1v-1h-1v-1h-1v1h-1v1h-1v3.1h1V59z"/>
		<path d="M93.9,62v-1h-1v-1h-1v-4.1h1v-1h1v-1H99v1h1v-2.1h-1v-1h-5.1v-2.1h6.2v1h1v1h1V62H100v-1h-1v1H93.9z M94.9,60H99v-1h1
			v-2.1h-1v-1h-4.1v1h-1V59h1V60z"/>
		<path d="M106.2,53.8V62h-2.1V50.8h2.1v1h1v-1h5.1v1h1v1h1V62h-2.1v-8.2h-1v-1h-4.1v1H106.2z"/>
		<path d="M124.7,52.8v-5.1h2.1V62h-2.1V60h-1v1h-1v1h-3.1v-1h-1v-1h-1v-1h-1v-5.1h1v-1h1v-1h1v-1h3.1v1h1v1H124.7z M119.5,59h1v1h1
			v-1h1v-1h1v-3.1h-1v-1h-1v-1h-1v1h-1v1h-1v3.1h1V59z"/>
		<path d="M142.1,60h-1v-2.1h2.1v1h1v1h4.1v-2.1h-2.1v-1h-2.1v-1h-2.1v-1h-1v-2.1h1v-1h1v-1h6.2v1h1v1h1v2.1h-2.1v-1h-1v-1h-4.1v2.1
			h3.1v1h2.1v1h1v1h1V60h-1v1h-1v1h-6.2v-1h-1V60z"/>
		<path d="M155.4,62v-1h-1v-1h-1v-7.2h1v-1h1v-1h6.2v1h1v1h1V60h-1v1h-1v1H155.4z M156.4,60h4.1v-1h1v-5.1h-1v-1h-4.1v1h-1V59h1V60z
			"/>
		<path d="M167.7,53.8V62h-2.1V50.8h2.1v1h1v-1h5.1v1h1v1h1V62h-2.1v-8.2h-1v-1h-1V62h-2.1v-9.2h-1v1H167.7z"/>
		<path d="M188.2,59v1h-1v1h-1v1H180v-1h-1v-1h-1v-7.2h1v-1h1v-1h6.2v1h1v1h1v3.1h-1v1H180V59h1v1h4.1v-1H188.2z M180,53.8v1h6.2v-1
			h-1v-1h-4.1v1H180z"/>
		<path d="M212.8,59v1h-1v1h-1v1h-6.2v-1h-1v-1h-1v-7.2h1v-1h1v-1h6.2v1h1v1h1v3.1h-1v1h-7.2V59h1v1h4.1v-1H212.8z M204.6,53.8v1
			h6.2v-1h-1v-1h-4.1v1H204.6z"/>
		<path d="M215.9,60h-1v-2.1h2.1v1h1v1h4.1v-2.1H220v-1H218v-1h-2.1v-1h-1v-2.1h1v-1h1v-1h6.2v1h1v1h1v2.1h-2.1v-1h-1v-1H218v2.1
			h3.1v1h2.1v1h1v1h1V60h-1v1h-1v1h-6.2v-1h-1V60z"/>
		<path d="M228.2,60h-1v-2.1h2.1v1h1v1h4.1v-2.1h-2.1v-1h-2.1v-1h-2.1v-1h-1v-2.1h1v-1h1v-1h6.2v1h1v1h1v2.1h-2.1v-1h-1v-1h-4.1v2.1
			h3.1v1h2.1v1h1v1h1V60h-1v1h-1v1h-6.2v-1h-1V60z"/>
		<path d="M249.8,59v1h-1v1h-1v1h-6.2v-1h-1v-1h-1v-7.2h1v-1h1v-1h6.2v1h1v1h1v3.1h-1v1h-7.2V59h1v1h4.1v-1H249.8z M241.6,53.8v1
			h6.2v-1h-1v-1h-4.1v1H241.6z"/>
		<path d="M253.9,53.8V62h-2.1V50.8h2.1v1h1v-1h5.1v1h1v1h1V62H260v-8.2h-1v-1h-4.1v1H253.9z"/>
		<path d="M271.3,60h1V62h-2.1v-1h-1v-1h-1v-7.2h-2.1v-2.1h2.1v-3.1h2.1v3.1h2.1v2.1h-2.1V59h1V60z"/>
		<path d="M283.6,60h1V62h-2.1v-1h-1v-1h-1v-5.1h-2.1v-2.1h4.1V59h1V60z M282.6,48.7v2.1h-2.1v-2.1H282.6z"/>
		<path d="M290.8,62v-1h-1v-1h-1v-4.1h1v-1h1v-1h5.1v1h1v-2.1h-1v-1h-5.1v-2.1h6.2v1h1v1h1V62h-2.1v-1h-1v1H290.8z M291.8,60h4.1v-1
			h1v-2.1h-1v-1h-4.1v1h-1V59h1V60z"/>
		<path d="M307.2,47.7V62h-2.1V47.7H307.2z"/>
		<path d="M333.8,59v-1h2.1V60h-1v1h-1v1h-6.2v-1h-1v-1h-1v-7.2h1v-1h1v-1h6.2v1h1v1h1v2.1h-2.1v-1h-1v-1h-4.1v1h-1V59h1v1h4.1v-1
			H333.8z"/>
		<path d="M340,55.9V62h-2.1V50.8h2.1v2.1h1v-1h1v-1h4.1v1h1v1h1v2.1h-2.1v-1h-1v-1h-2.1v1h-1v1h-1v1H340z"/>
		<path d="M352.3,62v-1h-1v-1h-1v-7.2h1v-1h1v-1h6.2v1h1v1h1V60h-1v1h-1v1H352.3z M353.3,60h4.1v-1h1v-5.1h-1v-1h-4.1v1h-1V59h1V60z
			"/>
		<path d="M364.6,57.9V62h-2.1V49.7h2.1v1h1v-1h5.1v1h1v1h1v5.1h-1v1h-1v1h-5.1v-1H364.6z M370.8,52.8h-1v-1h-3.1v1h-1v3.1h1v1h3.1
			v-1h1V52.8z"/>
		<path d="M375.9,60h-1v-2.1h2.1v1h1v1h4.1v-2.1H380v-1h-2.1v-1h-2.1v-1h-1v-2.1h1v-1h1v-1h6.2v1h1v1h1v2.1h-2.1v-1h-1v-1h-4.1v2.1
			h3.1v1h2.1v1h1v1h1V60h-1v1h-1v1h-6.2v-1h-1V60z"/>
		<path d="M399.5,50.8h2.1V59h1v1h1v-5.1h2.1V60h1v-1h1v-8.2h2.1V60h-1v1h-1v1h-2.1v-1h-2.1v1h-2.1v-1h-1v-1h-1V50.8z"/>
		<path d="M422,59v1h-1v1h-1v1h-6.2v-1h-1v-1h-1v-7.2h1v-1h1v-1h6.2v1h1v1h1v3.1h-1v1h-7.2V59h1v1h4.1v-1H422z M413.8,53.8v1h6.2v-1
			h-1v-1h-4.1v1H413.8z"/>
		<path d="M426.1,55.9V62h-2.1V50.8h2.1v2.1h1v-1h1v-1h4.1v1h1v1h1v2.1h-2.1v-1h-1v-1h-2.1v1h-1v1h-1v1H426.1z"/>
		<path d="M446.6,59v1h-1v1h-1v1h-6.2v-1h-1v-1h-1v-7.2h1v-1h1v-1h6.2v1h1v1h1v3.1h-1v1h-7.2V59h1v1h4.1v-1H446.6z M438.4,53.8v1
			h6.2v-1h-1v-1h-4.1v1H438.4z"/>
		<path d="M463,60V62H461V47.7h2.1v5.1h1v-1h1v-1h3.1v1h1v1h1v1h1V59h-1v1h-1v1h-1v1h-3.1v-1h-1v-1H463z M466.1,60h1v-1h1v-1h1v-3.1
			h-1v-1h-1v-1h-1v1h-1v1h-1v3.1h1v1h1V60z"/>
		<path d="M473.3,50.8h2.1V59h1v1h4.1v-1h1v-8.2h2.1V60h-1v1h-1v1h-6.2v-1h-1v-1h-1V50.8z"/>
		<path d="M487.6,55.9V62h-2.1V50.8h2.1v2.1h1v-1h1v-1h4.1v1h1v1h1v2.1h-2.1v-1h-1v-1h-2.1v1h-1v1h-1v1H487.6z"/>
		<path d="M500,53.8V62h-2.1V50.8h2.1v1h1v-1h5.1v1h1v1h1V62h-2.1v-8.2h-1v-1H501v1H500z"/>
		<path d="M517.4,60h1V62h-2.1v-1h-1v-1h-1v-7.2h-2.1v-2.1h2.1v-3.1h2.1v3.1h2.1v2.1h-2.1V59h1V60z"/>
		<path d="M543,52.8v-5.1h2.1V62H543V60h-1v1h-1v1h-3.1v-1h-1v-1h-1v-1h-1v-5.1h1v-1h1v-1h1v-1h3.1v1h1v1H543z M537.9,59h1v1h1v-1h1
			v-1h1v-3.1h-1v-1h-1v-1h-1v1h-1v1h-1v3.1h1V59z"/>
		<path d="M549.2,62v-1h-1v-1h-1v-7.2h1v-1h1v-1h6.2v1h1v1h1V60h-1v1h-1v1H549.2z M550.2,60h4.1v-1h1v-5.1h-1v-1h-4.1v1h-1V59h1V60z
			"/>
		<path d="M559.4,50.8h2.1V59h1v1h1v-5.1h2.1V60h1v-1h1v-8.2h2.1V60h-1v1h-1v1h-2.1v-1h-2.1v1h-2.1v-1h-1v-1h-1V50.8z"/>
		<path d="M573.8,53.8V62h-2.1V50.8h2.1v1h1v-1h5.1v1h1v1h1V62h-2.1v-8.2h-1v-1h-4.1v1H573.8z"/>
		<path d="M589.2,60V62h-2.1V60H589.2z"/>
	</g>
	<g>
		<rect x="282.6" y="111.9" class="st26" width="4.3" height="4.3"/>
		<rect x="286.9" y="116.2" class="st26" width="4.3" height="4.3"/>
		<rect x="385.6" y="120.5" class="st26" width="4.3" height="4.3"/>
		<rect x="389.8" y="116.2" class="st26" width="4.3" height="4.3"/>
		<rect x="394.1" y="111.9" class="st26" width="4.3" height="4.3"/>
		<polygon class="st26" points="462.8,232 462.8,219.1 458.5,219.1 458.5,214.9 454.2,214.9 454.2,202 449.9,202 449.9,193.4 
			445.6,193.4 445.6,223.4 441.3,223.4 437,223.4 437,227.7 432.7,227.7 432.7,223.4 424.2,223.4 424.2,219.1 415.6,219.1 
			411.3,219.1 411.3,214.9 407,214.9 407,206.3 402.7,206.3 402.7,193.4 398.4,193.4 398.4,172 394.1,172 394.1,163.4 389.8,163.4 
			389.8,159.1 385.6,159.1 385.6,154.8 381.3,154.8 381.3,150.5 377,150.5 377,133.4 381.3,133.4 381.3,129.1 385.6,129.1 
			385.6,124.8 381.3,124.8 377,124.8 377,129.1 372.7,129.1 372.7,133.4 368.4,133.4 368.4,137.7 364.1,137.7 364.1,142 359.8,142 
			359.8,176.3 364.1,176.3 364.1,184.8 368.4,184.8 368.4,202 364.1,202 364.1,210.6 359.8,210.6 359.8,223.4 355.5,223.4 
			355.5,227.7 342.7,227.7 342.7,223.4 338.4,223.4 338.4,214.9 334.1,214.9 334.1,210.6 334.1,206.3 325.5,206.3 325.5,202 
			308.4,202 308.4,197.7 304.1,197.7 304.1,184.8 308.4,184.8 308.4,180.6 312.7,180.6 312.7,176.3 316.9,176.3 316.9,172 
			321.2,172 321.2,150.5 316.9,150.5 316.9,146.2 312.7,146.2 312.7,142 308.4,142 308.4,133.4 304.1,133.4 304.1,129.1 
			299.8,129.1 299.8,120.5 295.5,120.5 291.2,120.5 291.2,124.8 295.5,124.8 295.5,133.4 299.8,133.4 299.8,146.2 295.5,146.2 
			295.5,150.5 291.2,150.5 286.9,150.5 286.9,154.8 282.6,154.8 282.6,163.4 278.3,163.4 278.3,167.7 274.1,167.7 274.1,180.6 
			269.8,180.6 269.8,184.8 265.5,184.8 265.5,197.7 261.2,197.7 261.2,202 256.9,202 256.9,206.3 252.6,206.3 252.6,210.6 
			244,210.6 244,214.9 214,214.9 214,206.3 218.3,206.3 218.3,193.4 222.6,193.4 222.6,180.6 218.3,180.6 218.3,184.8 214,184.8 
			214,193.4 209.7,193.4 209.7,197.7 205.4,197.7 205.4,202 201.2,202 201.2,206.3 196.9,206.3 196.9,214.9 192.6,214.9 
			192.6,223.4 188.3,223.4 188.3,240.6 192.6,240.6 192.6,244.9 196.9,244.9 196.9,249.2 201.2,249.2 201.2,253.5 205.4,253.5 
			205.4,257.7 205.4,262 209.7,262 209.7,270.6 209.7,279.2 209.7,283.5 209.7,292.1 209.7,296.3 209.7,304.9 214,304.9 214,309.2 
			209.7,309.2 209.7,360.7 214,360.7 214,365 218.3,365 218.3,369.2 222.6,369.2 222.6,373.5 222.6,377.8 226.9,377.8 226.9,382.1 
			231.2,382.1 231.2,386.4 231.2,390.7 235.5,390.7 235.5,395 239.7,395 239.7,399.3 244,399.3 244,403.6 248.3,403.6 248.3,407.8 
			256.9,407.8 256.9,412.1 265.5,412.1 265.5,416.4 269.8,416.4 269.8,420.7 286.9,420.7 286.9,425 334.1,425 338.4,425 351.3,425 
			351.3,420.7 364.1,420.7 364.1,416.4 372.7,416.4 372.7,412.1 381.3,412.1 381.3,407.8 385.6,407.8 385.6,403.6 389.8,403.6 
			389.8,399.3 398.4,399.3 398.4,395 402.7,395 402.7,390.7 407,390.7 407,386.4 407,382.1 411.3,382.1 411.3,373.5 415.6,373.5 
			415.6,360.7 419.9,360.7 419.9,334.9 424.2,334.9 424.2,317.8 428.4,317.8 428.4,300.6 432.7,300.6 432.7,287.8 437,287.8 
			437,283.5 441.3,283.5 441.3,274.9 445.6,274.9 445.6,270.6 449.9,270.6 449.9,266.3 454.2,266.3 454.2,262 458.5,262 
			458.5,257.7 462.8,257.7 462.8,253.5 467,253.5 467,232 		"/>
	</g>
	<polygon class="st27" points="402.7,300.6 402.7,279.2 398.4,279.2 394.1,279.2 394.1,266.3 389.8,266.3 389.8,257.7 385.6,257.7 
		385.6,249.2 381.3,249.2 381.3,244.9 381.3,240.6 381.3,236.3 377,236.3 377,240.6 372.7,240.6 372.7,249.2 368.4,249.2 
		368.4,257.7 364.1,257.7 364.1,262 359.8,262 359.8,266.3 355.5,266.3 355.5,270.6 351.3,270.6 351.3,262 347,262 347,244.9 
		351.3,244.9 351.3,236.3 355.5,236.3 355.5,223.4 359.8,223.4 359.8,219.1 364.1,219.1 364.1,180.6 359.8,180.6 359.8,154.8 
		355.5,154.8 355.5,146.2 351.3,146.2 351.3,142 347,142 347,137.7 342.7,137.7 342.7,129.1 338.4,129.1 338.4,124.8 334.1,124.8 
		334.1,116.2 329.8,116.2 329.8,159.1 325.5,159.1 325.5,176.3 321.2,176.3 321.2,189.1 316.9,189.1 316.9,202 312.7,202 
		312.7,210.6 308.4,210.6 308.4,214.9 304.1,214.9 304.1,223.4 299.8,223.4 299.8,219.1 295.5,219.1 295.5,202 291.2,202 
		291.2,206.3 286.9,206.3 286.9,210.6 282.6,210.6 282.6,219.1 278.3,219.1 278.3,223.4 274.1,223.4 274.1,232 269.8,232 
		269.8,244.9 265.5,244.9 265.5,287.8 269.8,287.8 269.8,300.6 274.1,300.6 274.1,309.2 269.8,309.2 269.8,304.9 265.5,304.9 
		265.5,300.6 261.2,300.6 261.2,296.3 256.9,296.3 256.9,287.8 252.6,287.8 252.6,283.5 248.3,283.5 248.3,274.9 248.3,262 244,262 
		244,274.9 239.7,274.9 239.7,287.8 235.5,287.8 235.5,296.3 231.2,296.3 231.2,309.2 226.9,309.2 226.9,347.8 231.2,347.8 
		231.2,356.4 235.5,356.4 235.5,365 239.7,365 239.7,373.5 244,373.5 244,382.1 248.3,382.1 248.3,390.7 252.6,390.7 252.6,395 
		252.6,399.3 261.2,399.3 261.2,403.6 265.5,403.6 269.8,403.6 269.8,407.8 278.3,407.8 278.3,412.1 286.9,412.1 286.9,416.4 
		299.8,416.4 299.8,420.7 316.9,420.7 329.8,420.7 329.8,416.4 342.7,416.4 342.7,412.1 355.5,412.1 355.5,407.8 368.4,407.8 
		368.4,403.6 372.7,403.6 372.7,399.3 377,399.3 377,395 381.3,395 381.3,390.7 385.6,390.7 385.6,386.4 394.1,386.4 394.1,382.1 
		398.4,382.1 398.4,373.5 402.7,373.5 402.7,360.7 402.7,356.4 407,356.4 407,300.6 	"/>
	<g>
		<polygon class="st28" points="368.2,322.3 368.2,309.4 363.9,309.4 363.9,300.8 363.9,296.6 355.3,296.6 355.3,292.3 351,292.3 
			351,288 346.8,288 346.8,283.7 342.5,283.7 342.5,279.4 338.2,279.4 338.2,275.1 333.9,275.1 333.9,270.8 321,270.8 321,266.5 
			316.7,266.5 316.7,262.3 308.2,262.3 308.2,253.7 303.9,253.7 303.9,258 299.6,258 299.6,262.3 303.9,262.3 303.9,266.5 
			308.2,266.5 308.2,270.8 308.2,275.1 312.4,275.1 312.4,279.4 316.7,279.4 316.7,283.7 321,283.7 321,288 321,292.3 325.3,292.3 
			325.3,296.6 325.3,300.8 329.6,300.8 329.6,305.1 329.6,309.4 325.3,309.4 325.3,318 321,318 321,322.3 316.7,322.3 316.7,326.6 
			312.4,326.6 312.4,335.2 308.2,335.2 308.2,344 295.5,344 295.5,356.6 291,356.6 291,390.9 291,399.5 291,403.8 291,408.1 
			291,412.4 295.3,412.4 295.3,416.6 299.6,416.6 299.6,420.9 333.9,420.9 333.9,416.6 342.5,416.6 342.5,412.4 346.8,412.4 
			346.8,408.1 351,408.1 351,403.8 355.3,403.8 355.3,399.5 359.6,399.5 359.6,386.6 363.9,386.6 363.9,378 368.2,378 368.2,373.8 
			372.5,373.8 372.5,322.3 		"/>
		<rect x="295.3" y="253.7" class="st28" width="4.3" height="4.3"/>
	</g>
	<polygon class="st17" points="351.3,377.8 351.3,382.1 347,382.1 347,386.4 342.7,386.4 342.7,390.7 338.4,390.7 338.4,386.4 
		334.1,386.4 334.1,377.8 329.8,377.8 329.8,369.2 321.2,369.2 321.2,360.7 316.9,360.7 316.9,347.8 308.4,347.8 308.4,339.2 
		304.1,339.2 304.1,334.9 299.8,334.9 299.8,330.7 295.5,330.7 295.5,326.4 291.2,326.4 291.2,304.9 286.9,304.9 286.9,296.3 
		282.6,296.3 282.6,292.1 278.3,292.1 278.3,322.1 282.6,322.1 282.6,334.9 286.9,334.9 286.9,347.8 286.9,352.1 282.6,352.1 
		282.6,360.7 278.3,360.7 278.3,373.5 282.6,373.5 282.6,386.4 278.3,386.4 278.3,382.1 274.1,382.1 274.1,390.7 278.3,390.7 
		278.3,403.6 282.6,403.6 282.6,407.8 286.9,407.8 286.9,412.1 291.2,412.1 291.2,416.4 299.8,416.4 299.8,420.7 308.4,420.7 
		325.5,420.7 334.1,420.7 334.1,416.4 338.4,416.4 342.7,416.4 342.7,407.8 347,407.8 347,403.6 351.3,403.6 351.3,390.7 
		355.5,390.7 355.5,377.8 	"/>
	<g>
		<rect x="295.5" y="360.7" class="st29" width="4.3" height="4.3"/>
		<polygon class="st29" points="334.1,386.4 334.1,382.1 329.8,382.1 329.8,386.4 325.5,386.4 316.9,386.4 316.9,382.1 321.2,382.1 
			321.2,369.2 316.9,369.2 316.9,365 312.7,365 312.7,360.7 316.9,360.7 316.9,356.4 316.9,352.1 312.7,352.1 312.7,356.4 
			308.4,356.4 304.1,356.4 304.1,360.7 308.4,360.7 308.4,365 304.1,365 299.8,365 299.8,369.2 304.1,369.2 308.4,369.2 
			308.4,377.8 304.1,377.8 304.1,382.1 299.8,382.1 299.8,373.5 295.5,373.5 286.9,373.5 286.9,377.8 295.5,377.8 295.5,386.4 
			295.5,399.3 299.8,399.3 299.8,403.6 299.8,407.8 299.8,412.1 299.8,420.7 304.1,420.7 304.1,412.1 304.1,407.8 304.1,403.6 
			308.4,403.6 308.4,420.7 312.7,420.7 312.7,403.6 316.9,403.6 321.2,403.6 321.2,420.7 325.5,420.7 325.5,403.6 329.8,403.6 
			329.8,420.7 334.1,420.7 334.1,403.6 334.1,399.3 338.4,399.3 338.4,386.4 		"/>
		<rect x="338.4" y="399.3" class="st29" width="4.3" height="4.3"/>
	</g>
</g>
</svg>
