<?xml version="1.0" encoding="utf-8"?>
<!-- Generator: Adobe Illustrator 25.2.3, SVG Export Plug-In . SVG Version: 6.00 Build 0)  -->
<svg version="1.1" xmlns="http://www.w3.org/2000/svg" xmlns:xlink="http://www.w3.org/1999/xlink" x="0px" y="0px"
	 viewBox="0 0 600 425" style="enable-background:new 0 0 600 425;" xml:space="preserve">
<style type="text/css">
	.st0{opacity:0.51;}
	.st1{opacity:0.45;}
	.st2{fill:#EFB534;}
	.st3{fill:#D73D94;}
	.st4{fill:#96BC50;}
	.st5{fill:#668B40;}
	.st6{fill:#426A36;}
	.st7{fill:#CBDC72;}
	.st8{fill:#B77366;}
	.st9{fill:#15120F;}
	.st10{fill:none;}
	.st11{font-family:'VCROSDMono';}
	.st12{font-size:21px;}
	.st13{stroke:#000000;stroke-miterlimit:10;}
	.st14{font-size:25px;}
	.st15{fill:none;stroke:#000000;stroke-miterlimit:10;}
</style>
<g id="Layer_1">
</g>
<g id="Layer_2">
</g>
<g id="Layer_3">
	<rect x="304.7" y="194.5" class="st4" width="4.7" height="4.7"/>
	<rect x="351.4" y="189.8" class="st4" width="4.7" height="4.7"/>
	<g>
		<polygon class="st3" points="197.3,115.1 192.6,115.1 192.6,110.4 187.9,110.4 183.2,110.4 183.2,115.1 178.6,115.1 178.6,124.4 
			183.2,124.4 183.2,129.1 187.9,129.1 192.6,129.1 192.6,124.4 197.3,124.4 		"/>
		<g>
			<polygon class="st2" points="113.2,119.7 108.5,119.7 103.8,119.7 99.2,119.7 99.2,124.4 94.5,124.4 89.8,124.4 89.8,129.1 
				85.1,129.1 85.1,133.7 80.5,133.7 80.5,138.4 75.8,138.4 75.8,147.8 71.1,147.8 71.1,171.1 75.8,171.1 75.8,180.5 80.5,180.5 
				80.5,185.1 85.1,185.1 85.1,189.8 89.8,189.8 89.8,194.5 94.5,194.5 99.2,194.5 103.8,194.5 108.5,194.5 113.2,194.5 
				117.8,194.5 122.5,194.5 122.5,171.1 117.8,171.1 113.2,171.1 108.5,171.1 108.5,166.4 103.8,166.4 99.2,166.4 99.2,147.8 
				103.8,147.8 103.8,143.1 108.5,143.1 113.2,143.1 117.8,143.1 122.5,143.1 122.5,124.4 122.5,119.7 117.8,119.7 			"/>
			<polygon class="st2" points="169.2,143.1 164.6,143.1 164.6,138.4 159.9,138.4 155.2,138.4 150.5,138.4 150.5,143.1 145.9,143.1 
				145.9,115.1 141.2,115.1 136.5,115.1 131.9,115.1 131.9,119.7 127.2,119.7 127.2,189.8 131.9,189.8 136.5,189.8 141.2,189.8 
				145.9,189.8 145.9,157.1 150.5,157.1 155.2,157.1 155.2,185.1 159.9,185.1 164.6,185.1 169.2,185.1 173.9,185.1 173.9,147.8 
				169.2,147.8 			"/>
			<polygon class="st2" points="187.9,133.7 183.2,133.7 183.2,138.4 178.6,138.4 178.6,185.1 183.2,185.1 183.2,180.5 187.9,180.5 
				192.6,180.5 197.3,180.5 197.3,133.7 192.6,133.7 			"/>
			<path class="st2" d="M239.3,133.7h-4.7v-4.7H230h-4.7h-4.7h-4.7v4.7h-4.7h-4.7v14h4.7h4.7h4.7h4.7v4.7h-9.3h-4.7h-4.7v4.7h-4.7
				v18.7h4.7v4.7h4.7h4.7h9.3v-4.7h4.7h4.7v4.7h9.3v-4.7v-4.7v-32.7h-4.7V133.7z M220.6,171.1h-4.7v-9.3h4.7h4.7v4.7h-4.7V171.1z"/>
			<path class="st2" d="M351.4,119.7h-4.7v-4.7h-4.7h-9.3H328v4.7h-4.7v4.7h-4.7v4.7H314v-23.4h-4.7V101h-4.7H300v-4.7h-4.7h-4.7
				H286h-14v4.7h-4.7h-4.7v9.3H258v65.4h4.7h4.7h4.7h4.7v-28h14h4.7h4.7v-4.7h4.7v-4.7h4.7v14h4.7v4.7h4.7v4.7h4.7h4.7v4.7h14v-4.7
				h9.3v-4.7h4.7v-4.7v-4.7h-14v4.7h-9.3v-4.7H328v-4.7h14h4.7h4.7h4.7v-4.7v-14h-4.7V119.7z M290.7,129.1H286v4.7h-9.3v-14h9.3v4.7
				h4.7V129.1z M328,138.4v-4.7h4.7v-4.7h4.7v4.7h4.7v4.7H328z"/>
			<polygon class="st2" points="379.4,110.4 379.4,91.7 374.8,91.7 370.1,91.7 365.4,91.7 365.4,96.4 360.7,96.4 360.7,115.1 
				360.7,124.4 360.7,147.8 365.4,147.8 365.4,157.1 370.1,157.1 370.1,161.8 374.8,161.8 374.8,157.1 379.4,157.1 384.1,157.1 
				388.8,157.1 388.8,143.1 384.1,143.1 384.1,138.4 379.4,138.4 379.4,129.1 388.8,129.1 388.8,124.4 388.8,115.1 388.8,110.4 			
				"/>
		</g>
	</g>
	<rect x="230" y="189.8" class="st4" width="4.7" height="4.7"/>
	<g>
		<polygon class="st8" points="323.4,325.3 323.4,334.6 314,334.6 314,325.3 276.7,325.3 276.7,329.9 225.3,329.9 225.3,320.6 
			187.9,320.6 187.9,348.6 187.9,353.3 187.9,367.3 192.6,367.3 192.6,381.3 197.3,381.3 197.3,395.3 201.9,395.3 201.9,404.7 
			206.6,404.7 206.6,409.3 211.3,409.3 215.9,409.3 220.6,409.3 220.6,404.7 225.3,404.7 225.3,395.3 230,395.3 230,381.3 
			234.6,381.3 234.6,367.3 276.7,367.3 276.7,372 281.3,372 281.3,386 286,386 286,400 290.7,400 290.7,409.3 295.3,409.3 
			295.3,414 300,414 304.7,414 309.4,414 309.4,409.3 314,409.3 314,372 323.4,372 328,372 328,386 332.7,386 332.7,400 337.4,400 
			337.4,409.3 342.1,409.3 342.1,414 346.7,414 351.4,414 356.1,414 356.1,409.3 360.7,409.3 360.7,357.9 360.7,348.6 360.7,325.3 
					"/>
		<polygon class="st5" points="444.8,273.9 440.1,273.9 440.1,269.2 435.5,269.2 435.5,227.2 374.8,227.2 332.7,227.2 332.7,185.1 
			328,185.1 328,180.5 323.4,180.5 323.4,185.1 318.7,185.1 318.7,189.8 314,189.8 314,185.1 309.4,185.1 304.7,185.1 304.7,180.5 
			300,180.5 295.3,180.5 295.3,175.8 290.7,175.8 290.7,180.5 286,180.5 286,175.8 281.3,175.8 276.7,175.8 272,175.8 272,171.1 
			267.3,171.1 262.6,171.1 258,171.1 258,175.8 253.3,175.8 248.6,175.8 248.6,180.5 244,180.5 239.3,180.5 239.3,175.8 
			234.6,175.8 234.6,180.5 230,180.5 225.3,180.5 220.6,180.5 215.9,180.5 215.9,185.1 211.3,185.1 211.3,189.8 206.6,189.8 
			201.9,189.8 201.9,194.5 197.3,194.5 197.3,199.1 192.6,199.1 192.6,203.8 187.9,203.8 187.9,208.5 178.6,208.5 178.6,213.1 
			173.9,213.1 173.9,217.8 169.2,217.8 169.2,222.5 164.6,222.5 164.6,227.2 159.9,227.2 159.9,231.8 159.9,236.5 150.5,236.5 
			150.5,241.2 159.9,241.2 159.9,245.8 155.2,245.8 155.2,250.5 150.5,250.5 150.5,255.2 150.5,259.9 145.9,259.9 145.9,264.5 
			145.9,269.2 141.2,269.2 141.2,283.2 141.2,287.9 141.2,297.2 141.2,301.9 136.5,301.9 136.5,306.6 141.2,306.6 141.2,311.2 
			141.2,315.9 145.9,315.9 145.9,320.6 145.9,325.3 155.2,325.3 155.2,329.9 164.6,329.9 164.6,334.6 169.2,334.6 169.2,339.3 
			173.9,339.3 173.9,343.9 183.2,343.9 183.2,348.6 276.7,348.6 276.7,343.9 281.3,343.9 281.3,339.3 286,339.3 300,339.3 
			300,334.6 304.7,334.6 304.7,339.3 328,339.3 328,343.9 332.7,343.9 332.7,353.3 337.4,353.3 337.4,357.9 342.1,357.9 
			342.1,362.6 346.7,362.6 346.7,367.3 351.4,367.3 351.4,372 388.8,372 393.4,372 393.4,367.3 398.1,367.3 398.1,362.6 
			402.8,362.6 402.8,357.9 407.4,357.9 407.4,353.3 412.1,353.3 412.1,348.6 416.8,348.6 416.8,343.9 421.5,343.9 421.5,339.3 
			426.1,339.3 426.1,343.9 430.8,343.9 430.8,339.3 435.5,339.3 440.1,339.3 440.1,334.6 435.5,334.6 435.5,329.9 440.1,329.9 
			440.1,325.3 435.5,325.3 435.5,320.6 440.1,320.6 440.1,315.9 440.1,306.6 440.1,301.9 435.5,301.9 435.5,297.2 440.1,297.2 
			440.1,292.6 440.1,287.9 444.8,287.9 444.8,278.5 449.5,278.5 449.5,273.9 		"/>
		<polygon class="st9" points="463.5,217.8 458.8,217.8 458.8,213.1 454.2,213.1 454.2,208.5 426.1,208.5 426.1,203.8 421.5,203.8 
			421.5,199.1 416.8,199.1 416.8,185.1 412.1,185.1 407.4,185.1 407.4,180.5 402.8,180.5 398.1,180.5 398.1,185.1 393.4,185.1 
			393.4,194.5 360.7,194.5 360.7,185.1 356.1,185.1 356.1,180.5 351.4,180.5 346.7,180.5 342.1,180.5 337.4,180.5 337.4,185.1 
			332.7,185.1 332.7,227.2 337.4,227.2 337.4,231.8 342.1,231.8 346.7,231.8 346.7,236.5 351.4,236.5 351.4,250.5 365.4,250.5 
			365.4,259.9 402.8,259.9 402.8,264.5 407.4,264.5 407.4,269.2 421.5,269.2 435.5,269.2 440.1,269.2 440.1,264.5 440.1,255.2 
			444.8,255.2 444.8,250.5 449.5,250.5 449.5,245.8 454.2,245.8 454.2,241.2 458.8,241.2 458.8,236.5 463.5,236.5 		"/>
		<rect x="314" y="208.5" class="st4" width="4.7" height="4.7"/>
		<rect x="332.7" y="236.5" class="st4" width="4.7" height="4.7"/>
		<rect x="262.6" y="217.8" class="st4" width="4.7" height="4.7"/>
		<rect x="393.4" y="273.9" class="st4" width="4.7" height="4.7"/>
		<rect x="356.1" y="264.5" class="st4" width="4.7" height="4.7"/>
		<rect x="421.5" y="283.2" class="st4" width="4.7" height="4.7"/>
		<rect x="440.1" y="269.2" class="st4" width="4.7" height="4.7"/>
		<rect x="402.8" y="259.9" class="st4" width="4.7" height="4.7"/>
		<rect x="300" y="236.5" class="st4" width="4.7" height="4.7"/>
		<rect x="220.6" y="227.2" class="st4" width="4.7" height="4.7"/>
		<rect x="197.3" y="208.5" class="st4" width="4.7" height="4.7"/>
		<rect x="300" y="278.5" class="st4" width="4.7" height="4.7"/>
		<rect x="253.3" y="250.5" class="st4" width="4.7" height="4.7"/>
		<rect x="192.6" y="278.5" class="st4" width="4.7" height="4.7"/>
		<rect x="197.3" y="245.8" class="st4" width="4.7" height="4.7"/>
		<rect x="150.5" y="259.9" class="st4" width="4.7" height="4.7"/>
		<rect x="155.2" y="236.5" class="st4" width="4.7" height="4.7"/>
		<rect x="178.6" y="227.2" class="st4" width="4.7" height="4.7"/>
		<rect x="374.8" y="320.6" class="st4" width="4.7" height="4.7"/>
		<rect x="351.4" y="297.2" class="st4" width="4.7" height="4.7"/>
		<rect x="253.3" y="301.9" class="st4" width="4.7" height="4.7"/>
		<rect x="234.6" y="278.5" class="st4" width="4.7" height="4.7"/>
		<rect x="393.4" y="348.6" class="st4" width="4.7" height="4.7"/>
		<rect x="440.1" y="315.9" class="st4" width="4.7" height="4.7"/>
		<rect x="412.1" y="311.2" class="st4" width="4.7" height="4.7"/>
		<rect x="426.1" y="339.3" class="st4" width="4.7" height="4.7"/>
		<rect x="309.4" y="320.6" class="st4" width="4.7" height="4.7"/>
		<rect x="220.6" y="311.2" class="st4" width="4.7" height="4.7"/>
		<rect x="159.9" y="297.2" class="st4" width="4.7" height="4.7"/>
		<rect x="192.6" y="325.3" class="st4" width="4.7" height="4.7"/>
		<rect x="244" y="334.6" class="st4" width="4.7" height="4.7"/>
		<rect x="272" y="199.1" class="st4" width="4.7" height="4.7"/>
		<rect x="356.1" y="348.6" class="st4" width="4.7" height="4.7"/>
		<rect x="346.7" y="325.3" class="st4" width="4.7" height="4.7"/>
	</g>
	<rect x="0" y="22.5" class="st10" width="600" height="49.5"/>
	<text transform="matrix(1 0 0 1 35.4492 37.8721)"><tspan x="0" y="0" class="st11 st12">Joe Pedott starts selling Mexican terracota </tspan><tspan x="24.6" y="25.2" class="st11 st12">decorations as novelty items in the USA</tspan></text>
	<rect x="486" y="355.5" class="st10" width="99" height="54"/>
	<text transform="matrix(1 0 0 1 506.2031 391.6504)" class="st13 st11 st14">1977</text>
	<rect x="486" y="355.5" class="st15" width="99" height="54"/>
</g>
</svg>
