<?xml version="1.0" encoding="utf-8"?>
<!-- Generator: Adobe Illustrator 25.2.3, SVG Export Plug-In . SVG Version: 6.00 Build 0)  -->
<svg version="1.1" xmlns="http://www.w3.org/2000/svg" xmlns:xlink="http://www.w3.org/1999/xlink" x="0px" y="0px"
	 viewBox="0 0 600 425" style="enable-background:new 0 0 600 425;" xml:space="preserve">
<style type="text/css">
	.st0{opacity:0.51;}
	.st1{opacity:0.45;}
	.st2{fill:#EFB534;}
	.st3{fill:#D73D94;}
	.st4{fill:#080907;}
	.st5{fill:#3E7C6A;}
	.st6{fill:#B0542D;}
	.st7{fill:#060405;}
	.st8{fill:#BB8235;}
	.st9{fill:#6EA496;}
	.st10{fill:#639187;}
	.st11{opacity:0.49;}
	.st12{fill:#96BC50;}
	.st13{fill:#668B40;}
	.st14{fill:#426A36;}
	.st15{fill:#CBDC72;}
	.st16{fill:#6C1215;}
	.st17{fill:#F4C034;}
	.st18{fill:#F9B932;}
	.st19{fill:#655C5B;}
	.st20{fill:#7F6E58;}
	.st21{fill:#4C433C;}
	.st22{fill:#E9E1D4;}
	.st23{fill:#B77366;}
	.st24{fill:#15120F;}
	.st25{opacity:0.5;}
	.st26{fill:#9F2026;}
	.st27{fill:#CF242F;}
	.st28{fill:#F8A33B;}
	.st29{fill:#FFF7D2;}
	.st30{fill:#FEE42E;}
	.st31{fill:#03984C;}
	.st32{fill:#F79C31;}
	.st33{fill:#FDD730;}
	.st34{fill:#9F662E;}
	.st35{fill:#E4C597;}
	.st36{fill:#E4DED5;}
	.st37{fill:#C0B5AA;}
	.st38{fill:#706353;}
	.st39{fill:#010101;}
	.st40{fill:#33A14D;}
	.st41{fill:#EBD1A4;}
	.st42{fill:#07464F;}
	.st43{fill:#066486;}
	.st44{fill:#35BCC0;}
	.st45{fill:#0A8F9F;}
	.st46{fill:#D27633;}
	.st47{fill:#E72730;}
	.st48{fill:#DD8A35;}
	.st49{fill:#F3A734;}
</style>
<g id="Layer_1">
</g>
<g id="Layer_2">
	<polygon class="st17" points="421,256.5 421,252 416.5,252 412,252 412,247.5 412,243 407.5,243 407.5,238.5 403,238.5 403,243 
		398.5,243 398.5,247.5 398.5,252 394,252 389.5,252 389.5,256.5 385,256.5 385,261 389.5,261 389.5,265.5 394,265.5 398.5,265.5 
		398.5,270 398.5,274.5 403,274.5 403,279 407.5,279 407.5,274.5 412,274.5 412,270 412,265.5 416.5,265.5 421,265.5 421,261 
		425.5,261 425.5,256.5 	"/>
	<polygon class="st16" points="139.7,172.9 139.7,175.2 139.7,177.5 137.3,177.5 137.3,182.2 135,182.2 135,186.8 132.7,186.8 
		132.7,191.5 128,191.5 128,193.8 123.4,193.8 123.4,196.1 121,196.1 111.7,196.1 109.4,196.1 109.4,193.8 104.7,193.8 104.7,191.5 
		100.1,191.5 100.1,186.8 97.8,186.8 97.8,182.2 95.4,182.2 95.4,177.5 93.1,177.5 93.1,175.2 93.1,172.9 51.2,172.9 51.2,175.2 
		51.2,177.5 51.2,205.4 53.6,205.4 53.6,207.8 83.8,207.8 93.1,207.8 95.4,207.8 97.8,207.8 100.1,207.8 109.4,207.8 111.7,207.8 
		121,207.8 123.4,207.8 132.7,207.8 135,207.8 137.3,207.8 139.7,207.8 149,207.8 149,205.4 151.3,205.4 151.3,177.5 151.3,175.2 
		151.3,172.9 	"/>
	<polygon class="st16" points="149,140.3 149,138 139.7,138 137.3,138 135,138 132.7,138 123.4,138 121,138 118.7,138 118.7,133.3 
		116.4,133.3 116.4,128.7 86.1,128.7 86.1,133.3 83.8,133.3 83.8,138 53.6,138 53.6,140.3 51.2,140.3 51.2,163.6 81.5,163.6 
		93.1,163.6 95.4,163.6 97.8,163.6 97.8,158.9 100.1,158.9 100.1,154.3 104.7,154.3 104.7,151.9 109.4,151.9 109.4,149.6 
		111.7,149.6 121,149.6 123.4,149.6 123.4,151.9 128,151.9 128,154.3 132.7,154.3 132.7,158.9 135,158.9 135,163.6 137.3,163.6 
		151.3,163.6 151.3,140.3 	"/>
	<polygon points="135,168.2 132.7,168.2 132.7,163.6 130.3,163.6 130.3,161.2 128,161.2 128,158.9 125.7,158.9 125.7,156.6 
		109.4,156.6 109.4,158.9 107.1,158.9 107.1,161.2 104.7,161.2 104.7,163.6 102.4,163.6 102.4,168.2 100.1,168.2 100.1,177.5 
		102.4,177.5 102.4,182.2 104.7,182.2 104.7,184.5 107.1,184.5 107.1,186.8 109.4,186.8 109.4,189.2 125.7,189.2 125.7,186.8 
		128,186.8 128,184.5 130.3,184.5 130.3,182.2 132.7,182.2 132.7,177.5 135,177.5 	"/>
	<polygon class="st18" points="135,165.9 135,163.6 132.7,163.6 130.3,163.6 130.3,161.2 130.3,158.9 128,158.9 128,156.6 
		125.7,156.6 125.7,158.9 123.4,158.9 123.4,161.2 123.4,163.6 121,163.6 118.7,163.6 118.7,165.9 116.4,165.9 116.4,168.2 
		118.7,168.2 118.7,170.5 121,170.5 123.4,170.5 123.4,172.9 123.4,175.2 125.7,175.2 125.7,177.5 128,177.5 128,175.2 130.3,175.2 
		130.3,172.9 130.3,170.5 132.7,170.5 135,170.5 135,168.2 137.3,168.2 137.3,165.9 	"/>
	<polygon class="st16" points="482.1,219.7 482.1,222 482.1,224.4 484.5,224.4 484.5,229 486.8,229 486.8,233.7 489.1,233.7 
		489.1,238.3 493.8,238.3 493.8,240.7 498.4,240.7 498.4,243 500.7,243 510.1,243 512.4,243 512.4,240.7 517,240.7 517,238.3 
		521.7,238.3 521.7,233.7 524,233.7 524,229 526.3,229 526.3,224.4 528.7,224.4 528.7,222 528.7,219.7 570.6,219.7 570.6,222 
		570.6,224.4 570.6,252.3 568.2,252.3 568.2,254.6 538,254.6 528.7,254.6 526.3,254.6 524,254.6 521.7,254.6 512.4,254.6 
		510.1,254.6 500.7,254.6 498.4,254.6 489.1,254.6 486.8,254.6 484.5,254.6 482.1,254.6 472.8,254.6 472.8,252.3 470.5,252.3 
		470.5,224.4 470.5,222 470.5,219.7 	"/>
	<polygon class="st16" points="472.8,187.1 472.8,184.8 482.1,184.8 484.5,184.8 486.8,184.8 489.1,184.8 498.4,184.8 500.7,184.8 
		503.1,184.8 503.1,180.2 505.4,180.2 505.4,175.5 535.7,175.5 535.7,180.2 538,180.2 538,184.8 568.2,184.8 568.2,187.1 
		570.6,187.1 570.6,210.4 540.3,210.4 528.7,210.4 526.3,210.4 524,210.4 524,205.7 521.7,205.7 521.7,201.1 517,201.1 517,198.8 
		512.4,198.8 512.4,196.4 510.1,196.4 500.7,196.4 498.4,196.4 498.4,198.8 493.8,198.8 493.8,201.1 489.1,201.1 489.1,205.7 
		486.8,205.7 486.8,210.4 484.5,210.4 470.5,210.4 470.5,187.1 	"/>
	<polygon points="486.8,215.1 489.1,215.1 489.1,210.4 491.4,210.4 491.4,208.1 493.8,208.1 493.8,205.7 496.1,205.7 496.1,203.4 
		512.4,203.4 512.4,205.7 514.7,205.7 514.7,208.1 517,208.1 517,210.4 519.4,210.4 519.4,215.1 521.7,215.1 521.7,224.4 
		519.4,224.4 519.4,229 517,229 517,231.3 514.7,231.3 514.7,233.7 512.4,233.7 512.4,236 496.1,236 496.1,233.7 493.8,233.7 
		493.8,231.3 491.4,231.3 491.4,229 489.1,229 489.1,224.4 486.8,224.4 	"/>
	<polygon class="st18" points="486.8,212.7 486.8,210.4 489.1,210.4 491.4,210.4 491.4,208.1 491.4,205.7 493.8,205.7 493.8,203.4 
		496.1,203.4 496.1,205.7 498.4,205.7 498.4,208.1 498.4,210.4 500.7,210.4 503.1,210.4 503.1,212.7 505.4,212.7 505.4,215.1 
		503.1,215.1 503.1,217.4 500.7,217.4 498.4,217.4 498.4,219.7 498.4,222 496.1,222 496.1,224.4 493.8,224.4 493.8,222 491.4,222 
		491.4,219.7 491.4,217.4 489.1,217.4 486.8,217.4 486.8,215.1 484.5,215.1 484.5,212.7 	"/>
	<polygon class="st18" points="169,351 169,346.5 164.5,346.5 160,346.5 160,342 160,337.5 155.5,337.5 155.5,333 151,333 
		151,337.5 146.5,337.5 146.5,342 146.5,346.5 142,346.5 137.5,346.5 137.5,351 133,351 133,355.5 137.5,355.5 137.5,360 142,360 
		146.5,360 146.5,364.5 146.5,369 151,369 151,373.5 155.5,373.5 155.5,369 160,369 160,364.5 160,360 164.5,360 169,360 169,355.5 
		173.5,355.5 173.5,351 	"/>
	<polygon class="st17" points="259,238.5 259,234 254.5,234 250,234 250,229.5 250,225 245.5,225 245.5,220.5 241,220.5 241,225 
		236.5,225 236.5,229.5 236.5,234 232,234 227.5,234 227.5,238.5 223,238.5 223,243 227.5,243 227.5,247.5 232,247.5 236.5,247.5 
		236.5,252 236.5,256.5 241,256.5 241,261 245.5,261 245.5,256.5 250,256.5 250,252 250,247.5 254.5,247.5 259,247.5 259,243 
		263.5,243 263.5,238.5 	"/>
	<polygon class="st18" points="470.5,369 470.5,364.5 466,364.5 461.5,364.5 461.5,360 461.5,355.5 457,355.5 457,351 452.5,351 
		452.5,355.5 448,355.5 448,360 448,364.5 443.5,364.5 439,364.5 439,369 434.5,369 434.5,373.5 439,373.5 439,378 443.5,378 
		448,378 448,382.5 448,387 452.5,387 452.5,391.5 457,391.5 457,387 461.5,387 461.5,382.5 461.5,378 466,378 470.5,378 
		470.5,373.5 475,373.5 475,369 	"/>
</g>
<g id="Layer_3">
	<g>
		<path d="M22.1,24.5H18v-2.1h10.3v2.1h-4.1v12.3h-2.1V24.5z"/>
		<path d="M32.4,30.7v6.2h-2.1V22.5h2.1v5.1h1v-1h1v-1h3.1v1h1v1h1v1h1v8.2h-2.1v-7.2h-1v-1h-1v-1h-1v1h-1v1h-1v1H32.4z"/>
		<path d="M52.9,33.8v1h-1v1h-1v1h-6.2v-1h-1v-1h-1v-7.2h1v-1h1v-1h6.2v1h1v1h1v3.1h-1v1h-7.2v2.1h1v1h4.1v-1H52.9z M44.7,28.6v1
			h6.2v-1h-1v-1h-4.1v1H44.7z"/>
		<path d="M69.3,28.6v8.2h-2.1V25.6h2.1v1h1v-1h5.1v1h1v1h1v9.2h-2.1v-8.2h-1v-1h-1v9.2h-2.1v-9.2h-1v1H69.3z"/>
		<path d="M89.8,33.8v1h-1v1h-1v1h-6.2v-1h-1v-1h-1v-7.2h1v-1h1v-1h6.2v1h1v1h1v3.1h-1v1h-7.2v2.1h1v1h4.1v-1H89.8z M81.6,28.6v1
			h6.2v-1h-1v-1h-4.1v1H81.6z"/>
		<path d="M100,27.6v-5.1h2.1v14.4H100v-2.1h-1v1h-1v1h-3.1v-1h-1v-1h-1v-1h-1v-5.1h1v-1h1v-1h1v-1H98v1h1v1H100z M94.9,33.8h1v1h1
			v-1h1v-1h1v-3.1h-1v-1h-1v-1h-1v1h-1v1h-1v3.1h1V33.8z"/>
		<path d="M111.3,34.8h1v2.1h-2.1v-1h-1v-1h-1v-5.1h-2.1v-2.1h4.1v6.2h1V34.8z M110.3,23.5v2.1h-2.1v-2.1H110.3z"/>
		<path d="M118.5,36.8v-1h-1v-1h-1v-4.1h1v-1h1v-1h5.1v1h1v-2.1h-1v-1h-5.1v-2.1h6.2v1h1v1h1v10.3h-2.1v-1h-1v1H118.5z M119.5,34.8
			h4.1v-1h1v-2.1h-1v-1h-4.1v1h-1v2.1h1V34.8z"/>
		<path d="M149.3,33.8v-1h2.1v2.1h-1v1h-1v1h-6.2v-1h-1v-1h-1v-7.2h1v-1h1v-1h6.2v1h1v1h1v2.1h-2.1v-1h-1v-1h-4.1v1h-1v5.1h1v1h4.1
			v-1H149.3z"/>
		<path d="M155.4,36.8v-1h-1v-1h-1v-7.2h1v-1h1v-1h6.2v1h1v1h1v7.2h-1v1h-1v1H155.4z M156.4,34.8h4.1v-1h1v-5.1h-1v-1h-4.1v1h-1v5.1
			h1V34.8z"/>
		<path d="M165.7,25.6h2.1v6.2h1v1h1v1h2.1v-1h1v-1h1v-6.2h2.1v7.2h-1v1h-1v1h-1v1h-1v1h-2.1v-1h-1v-1h-1v-1h-1v-1h-1V25.6z"/>
		<path d="M188.2,33.8v1h-1v1h-1v1H180v-1h-1v-1h-1v-7.2h1v-1h1v-1h6.2v1h1v1h1v3.1h-1v1H180v2.1h1v1h4.1v-1H188.2z M180,28.6v1h6.2
			v-1h-1v-1h-4.1v1H180z"/>
		<path d="M192.3,30.7v6.2h-2.1V25.6h2.1v2.1h1v-1h1v-1h4.1v1h1v1h1v2.1h-2.1v-1h-1v-1h-2.1v1h-1v1h-1v1H192.3z"/>
		<path d="M212.8,33.8v1h-1v1h-1v1h-6.2v-1h-1v-1h-1v-7.2h1v-1h1v-1h6.2v1h1v1h1v3.1h-1v1h-7.2v2.1h1v1h4.1v-1H212.8z M204.6,28.6v1
			h6.2v-1h-1v-1h-4.1v1H204.6z"/>
		<path d="M223.1,27.6v-5.1h2.1v14.4h-2.1v-2.1h-1v1h-1v1H218v-1h-1v-1h-1v-1h-1v-5.1h1v-1h1v-1h1v-1h3.1v1h1v1H223.1z M218,33.8h1
			v1h1v-1h1v-1h1v-3.1h-1v-1h-1v-1h-1v1h-1v1h-1v3.1h1V33.8z"/>
		<path d="M246.7,34.8h1v2.1h-2.1v-1h-1v-1h-1v-7.2h-2.1v-2.1h2.1v-3.1h2.1v3.1h2.1v2.1h-2.1v6.2h1V34.8z"/>
		<path d="M253.9,30.7v6.2h-2.1V22.5h2.1v5.1h1v-1h1v-1h3.1v1h1v1h1v1h1v8.2H260v-7.2h-1v-1h-1v-1h-1v1h-1v1h-1v1H253.9z"/>
		<path d="M274.4,33.8v1h-1v1h-1v1h-6.2v-1h-1v-1h-1v-7.2h1v-1h1v-1h6.2v1h1v1h1v3.1h-1v1h-7.2v2.1h1v1h4.1v-1H274.4z M266.2,28.6v1
			h6.2v-1h-1v-1h-4.1v1H266.2z"/>
		<path d="M290.8,30.7v6.2h-2.1V22.5h2.1v5.1h1v-1h1v-1h3.1v1h1v1h1v1h1v8.2h-2.1v-7.2h-1v-1h-1v-1h-1v1h-1v1h-1v1H290.8z"/>
		<path d="M311.3,33.8v1h-1v1h-1v1h-6.2v-1h-1v-1h-1v-7.2h1v-1h1v-1h6.2v1h1v1h1v3.1h-1v1h-7.2v2.1h1v1h4.1v-1H311.3z M303.1,28.6v1
			h6.2v-1h-1v-1h-4.1v1H303.1z"/>
		<path d="M315.4,36.8v-1h-1v-1h-1v-4.1h1v-1h1v-1h5.1v1h1v-2.1h-1v-1h-5.1v-2.1h6.2v1h1v1h1v10.3h-2.1v-1h-1v1H315.4z M316.4,34.8
			h4.1v-1h1v-2.1h-1v-1h-4.1v1h-1v2.1h1V34.8z"/>
		<path d="M331.8,22.5v14.4h-2.1V22.5H331.8z"/>
		<path d="M345.1,34.8h1v2.1h-2.1v-1h-1v-1h-1v-7.2H340v-2.1h2.1v-3.1h2.1v3.1h2.1v2.1h-2.1v6.2h1V34.8z"/>
		<path d="M352.3,30.7v6.2h-2.1V22.5h2.1v5.1h1v-1h1v-1h3.1v1h1v1h1v1h1v8.2h-2.1v-7.2h-1v-1h-1v-1h-1v1h-1v1h-1v1H352.3z"/>
		<path d="M376.9,34.8v2.1h-2.1V22.5h2.1v5.1h1v-1h1v-1h3.1v1h1v1h1v1h1v5.1h-1v1h-1v1h-1v1H379v-1h-1v-1H376.9z M380,34.8h1v-1h1
			v-1h1v-3.1h-1v-1h-1v-1h-1v1h-1v1h-1v3.1h1v1h1V34.8z"/>
		<path d="M397.4,33.8v1h-1v1h-1v1h-6.2v-1h-1v-1h-1v-7.2h1v-1h1v-1h6.2v1h1v1h1v3.1h-1v1h-7.2v2.1h1v1h4.1v-1H397.4z M389.2,28.6v1
			h6.2v-1h-1v-1h-4.1v1H389.2z"/>
		<path d="M401.5,28.6v8.2h-2.1V25.6h2.1v1h1v-1h5.1v1h1v1h1v9.2h-2.1v-8.2h-1v-1h-4.1v1H401.5z"/>
		<path d="M422,33.8v1h-1v1h-1v1h-6.2v-1h-1v-1h-1v-7.2h1v-1h1v-1h6.2v1h1v1h1v3.1h-1v1h-7.2v2.1h1v1h4.1v-1H422z M413.8,28.6v1h6.2
			v-1h-1v-1h-4.1v1H413.8z"/>
		<path d="M430.2,36.8h-2.1v-9.2h-3.1v-2.1h3.1v-2.1h1v-1h4.1v2.1h-3.1v1h3.1v2.1h-3.1V36.8z"/>
		<path d="M443.6,34.8h1v2.1h-2.1v-1h-1v-1h-1v-5.1h-2.1v-2.1h4.1v6.2h1V34.8z M442.5,23.5v2.1h-2.1v-2.1H442.5z"/>
		<path d="M455.9,34.8h1v2.1h-2.1v-1h-1v-1h-1v-7.2h-2.1v-2.1h2.1v-3.1h2.1v3.1h2.1v2.1h-2.1v6.2h1V34.8z"/>
		<path d="M462,34.8h-1v-2.1h2.1v1h1v1h4.1v-2.1h-2.1v-1h-2.1v-1H462v-1h-1v-2.1h1v-1h1v-1h6.2v1h1v1h1v2.1h-2.1v-1h-1v-1h-4.1v2.1
			h3.1v1h2.1v1h1v1h1v2.1h-1v1h-1v1H463v-1h-1V34.8z"/>
		<path d="M487.6,36.8v-1h-1v-1h-1v-7.2h1v-1h1v-1h6.2v1h1v1h1v7.2h-1v1h-1v1H487.6z M488.7,34.8h4.1v-1h1v-5.1h-1v-1h-4.1v1h-1v5.1
			h1V34.8z"/>
		<path d="M504.1,36.8H502v-9.2h-3.1v-2.1h3.1v-2.1h1v-1h4.1v2.1h-3.1v1h3.1v2.1h-3.1V36.8z"/>
		<path d="M530.7,33.8v-1h2.1v2.1h-1v1h-1v1h-6.2v-1h-1v-1h-1v-7.2h1v-1h1v-1h6.2v1h1v1h1v2.1h-2.1v-1h-1v-1h-4.1v1h-1v5.1h1v1h4.1
			v-1H530.7z"/>
		<path d="M536.9,30.7v6.2h-2.1V22.5h2.1v5.1h1v-1h1v-1h3.1v1h1v1h1v1h1v8.2H543v-7.2h-1v-1h-1v-1h-1v1h-1v1h-1v1H536.9z"/>
		<path d="M554.3,34.8h1v2.1h-2.1v-1h-1v-1h-1v-5.1h-2.1v-2.1h4.1v6.2h1V34.8z M553.3,23.5v2.1h-2.1v-2.1H553.3z"/>
		<path d="M561.5,36.8v-1h-1v-1h-1v-4.1h1v-1h1v-1h5.1v1h1v-2.1h-1v-1h-5.1v-2.1h6.2v1h1v1h1v10.3h-2.1v-1h-1v1H561.5z M562.5,34.8
			h4.1v-1h1v-2.1h-1v-1h-4.1v1h-1v2.1h1V34.8z"/>
		<path d="M575.8,34.8v-2.1h2.1v2.1h-1v1h-1v1h-2.1v-1h1v-1H575.8z"/>
		<path d="M112.4,53.8V62h-2.1V50.8h2.1v1h1v-1h5.1v1h1v1h1V62h-2.1v-8.2h-1v-1h-1V62h-2.1v-9.2h-1v1H112.4z"/>
		<path d="M124.7,62v-1h-1v-1h-1v-4.1h1v-1h1v-1h5.1v1h1v-2.1h-1v-1h-5.1v-2.1h6.2v1h1v1h1V62h-2.1v-1h-1v1H124.7z M125.7,60h4.1v-1
			h1v-2.1h-1v-1h-4.1v1h-1V59h1V60z"/>
		<path d="M137,60V62h-2.1V47.7h2.1v9.2h1v-1h1v-1h1v-1h1v-1h1v-1h1v-1h2.1v2.1h-1v1h-1v1h-1v1h-1v1h1v1h1v1h1v1h1V62h-2.1v-1h-1v-1
			h-1v-1h-1v-1h-1v1h-1v1H137z"/>
		<path d="M154.4,60h1V62h-2.1v-1h-1v-1h-1v-5.1h-2.1v-2.1h4.1V59h1V60z M153.4,48.7v2.1h-2.1v-2.1H153.4z"/>
		<path d="M161.6,53.8V62h-2.1V50.8h2.1v1h1v-1h5.1v1h1v1h1V62h-2.1v-8.2h-1v-1h-4.1v1H161.6z"/>
		<path d="M173.9,61h-1V59h2.1v1h4.1v-1h1v-3.1h-1v1h-5.1v-1h-1v-1h-1v-3.1h1v-1h1v-1h6.2v1h1v1h1V60h-1v1h-1v1h-6.2V61z M180,53.8
			v-1h-1v-1h-4.1v1h-1v1h1v1h4.1v-1H180z"/>
		<path d="M203.6,60h1V62h-2.1v-1h-1v-1h-1v-5.1h-2.1v-2.1h4.1V59h1V60z M202.6,48.7v2.1h-2.1v-2.1H202.6z"/>
		<path d="M215.9,60h1V62h-2.1v-1h-1v-1h-1v-7.2h-2.1v-2.1h2.1v-3.1h2.1v3.1h2.1v2.1h-2.1V59h1V60z"/>
		<path d="M235.4,60V62h-2.1V47.7h2.1v9.2h1v-1h1v-1h1v-1h1v-1h1v-1h1v-1h2.1v2.1h-1v1h-1v1h-1v1h-1v1h1v1h1v1h1v1h1V62h-2.1v-1h-1
			v-1h-1v-1h-1v-1h-1v1h-1v1H235.4z"/>
		<path d="M247.7,53.8V62h-2.1V50.8h2.1v1h1v-1h5.1v1h1v1h1V62h-2.1v-8.2h-1v-1h-4.1v1H247.7z"/>
		<path d="M260,62v-1h-1v-1h-1v-7.2h1v-1h1v-1h6.2v1h1v1h1V60h-1v1h-1v1H260z M261,60h4.1v-1h1v-5.1h-1v-1H261v1h-1V59h1V60z"/>
		<path d="M270.3,50.8h2.1V59h1v1h1v-5.1h2.1V60h1v-1h1v-8.2h2.1V60h-1v1h-1v1h-2.1v-1h-2.1v1h-2.1v-1h-1v-1h-1V50.8z"/>
		<path d="M302.1,60h1V62H301v-1h-1v-1h-1v-5.1h-2.1v-2.1h4.1V59h1V60z M301,48.7v2.1H299v-2.1H301z"/>
		<path d="M309.2,53.8V62h-2.1V50.8h2.1v1h1v-1h5.1v1h1v1h1V62h-2.1v-8.2h-1v-1h-4.1v1H309.2z"/>
		<path d="M333.8,53.8V62h-2.1V50.8h2.1v1h1v-1h5.1v1h1v1h1V62H340v-8.2h-1v-1h-1V62h-2.1v-9.2h-1v1H333.8z"/>
		<path d="M346.1,62v-1h-1v-1h-1v-7.2h1v-1h1v-1h6.2v1h1v1h1V60h-1v1h-1v1H346.1z M347.2,60h4.1v-1h1v-5.1h-1v-1h-4.1v1h-1V59h1V60z
			"/>
		<path d="M364.6,52.8v-5.1h2.1V62h-2.1V60h-1v1h-1v1h-3.1v-1h-1v-1h-1v-1h-1v-5.1h1v-1h1v-1h1v-1h3.1v1h1v1H364.6z M359.5,59h1v1h1
			v-1h1v-1h1v-3.1h-1v-1h-1v-1h-1v1h-1v1h-1v3.1h1V59z"/>
		<path d="M379,59v1h-1v1h-1v1h-6.2v-1h-1v-1h-1v-7.2h1v-1h1v-1h6.2v1h1v1h1v3.1h-1v1h-7.2V59h1v1h4.1v-1H379z M370.8,53.8v1h6.2v-1
			h-1v-1h-4.1v1H370.8z"/>
		<path d="M383.1,55.9V62H381V50.8h2.1v2.1h1v-1h1v-1h4.1v1h1v1h1v2.1h-2.1v-1h-1v-1h-2.1v1h-1v1h-1v1H383.1z"/>
		<path d="M395.4,53.8V62h-2.1V50.8h2.1v1h1v-1h5.1v1h1v1h1V62h-2.1v-8.2h-1v-1h-4.1v1H395.4z"/>
		<path d="M425.1,60h1V62h-2.1v-1h-1v-1h-1v-7.2H420v-2.1h2.1v-3.1h2.1v3.1h2.1v2.1h-2.1V59h1V60z"/>
		<path d="M437.4,60h1V62h-2.1v-1h-1v-1h-1v-5.1h-2.1v-2.1h4.1V59h1V60z M436.4,48.7v2.1h-2.1v-2.1H436.4z"/>
		<path d="M444.6,53.8V62h-2.1V50.8h2.1v1h1v-1h5.1v1h1v1h1V62h-2.1v-8.2h-1v-1h-1V62h-2.1v-9.2h-1v1H444.6z"/>
		<path d="M465.1,59v1h-1v1h-1v1h-6.2v-1h-1v-1h-1v-7.2h1v-1h1v-1h6.2v1h1v1h1v3.1h-1v1h-7.2V59h1v1h4.1v-1H465.1z M456.9,53.8v1
			h6.2v-1h-1v-1h-4.1v1H456.9z"/>
		<path d="M468.2,60h-1v-2.1h2.1v1h1v1h4.1v-2.1h-2.1v-1h-2.1v-1h-2.1v-1h-1v-2.1h1v-1h1v-1h6.2v1h1v1h1v2.1h-2.1v-1h-1v-1h-4.1v2.1
			h3.1v1h2.1v1h1v1h1V60h-1v1h-1v1h-6.2v-1h-1V60z"/>
		<path d="M484.6,60V62h-2.1V60H484.6z"/>
	</g>
	<g>
		<polygon class="st38" points="396.9,318.5 387.2,318.5 387.2,308.8 377.5,308.8 377.5,299.1 222.5,299.1 222.5,308.8 212.8,308.8 
			212.8,318.5 203.1,318.5 203.1,366.9 212.8,366.9 212.8,376.6 222.5,376.6 222.5,386.3 377.5,386.3 377.5,376.6 387.2,376.6 
			387.2,366.9 396.9,366.9 		"/>
		<rect x="348.4" y="318.5" class="st39" width="9.7" height="19.4"/>
		<rect x="377.5" y="318.5" class="st39" width="9.7" height="19.4"/>
		<rect x="358.1" y="347.5" class="st39" width="19.4" height="9.7"/>
		<rect x="241.9" y="386.3" class="st39" width="9.7" height="38.7"/>
		<rect x="348.4" y="386.3" class="st39" width="9.7" height="38.7"/>
		<rect x="329.1" y="386.3" class="st39" width="9.7" height="38.7"/>
		<rect x="261.3" y="386.3" class="st39" width="9.7" height="38.7"/>
		<rect x="348.4" y="250.7" class="st39" width="9.7" height="48.4"/>
		<polygon class="st40" points="328.9,221.1 335,227.8 328.2,234 322.1,227.2 301.8,245.6 320.2,265.9 327,259.7 333.1,266.5 
			339.9,260.4 346,267.1 366.3,248.7 360.1,242 366.9,235.9 360.8,229.1 367.5,223 349.1,202.7 		"/>
	</g>
</g>
</svg>
