<?xml version="1.0" encoding="utf-8"?>
<!-- Generator: Adobe Illustrator 25.2.3, SVG Export Plug-In . SVG Version: 6.00 Build 0)  -->
<svg version="1.1" xmlns="http://www.w3.org/2000/svg" xmlns:xlink="http://www.w3.org/1999/xlink" x="0px" y="0px"
	 viewBox="0 0 600 425" style="enable-background:new 0 0 600 425;" xml:space="preserve">
<style type="text/css">
	.st0{opacity:0.51;}
	.st1{opacity:0.45;}
	.st2{fill:#EFB534;}
	.st3{fill:#D73D94;}
	.st4{fill:#080907;}
	.st5{fill:#3E7C6A;}
	.st6{fill:#B0542D;}
	.st7{fill:#060405;}
	.st8{fill:#BB8235;}
	.st9{fill:#6EA496;}
	.st10{fill:#639187;}
	.st11{opacity:0.49;}
	.st12{fill:#96BC50;}
	.st13{fill:#668B40;}
	.st14{fill:#426A36;}
	.st15{fill:#CBDC72;}
	.st16{fill:#6C1215;}
	.st17{fill:#F4C034;}
	.st18{fill:#F9B932;}
	.st19{fill:#655C5B;}
	.st20{fill:#7F6E58;}
	.st21{fill:#4C433C;}
	.st22{fill:#E9E1D4;}
	.st23{fill:#B77366;}
	.st24{fill:#15120F;}
	.st25{opacity:0.5;}
	.st26{fill:#9F2026;}
	.st27{fill:#CF242F;}
	.st28{fill:#F8A33B;}
	.st29{fill:#FFF7D2;}
	.st30{fill:#FEE42E;}
	.st31{fill:#03984C;}
	.st32{fill:#F79C31;}
	.st33{fill:#FDD730;}
	.st34{fill:#9F662E;}
	.st35{fill:#E4C597;}
	.st36{fill:#E4DED5;}
	.st37{fill:#C0B5AA;}
	.st38{fill:#706353;}
	.st39{fill:#010101;}
	.st40{fill:#33A14D;}
	.st41{fill:#EBD1A4;}
	.st42{fill:#07464F;}
	.st43{fill:#066486;}
	.st44{fill:#35BCC0;}
	.st45{fill:#0A8F9F;}
	.st46{fill:#D27633;}
	.st47{fill:#E72730;}
	.st48{fill:#DD8A35;}
	.st49{fill:#F3A734;}
</style>
<g id="Layer_1">
</g>
<g id="Layer_2">
</g>
<g id="Layer_3">
	<rect x="304.7" y="205.5" class="st12" width="4.7" height="4.7"/>
	<rect x="351.4" y="200.8" class="st12" width="4.7" height="4.7"/>
	<g>
		<polygon class="st3" points="197.3,126.1 192.6,126.1 192.6,121.4 187.9,121.4 183.2,121.4 183.2,126.1 178.6,126.1 178.6,135.4 
			183.2,135.4 183.2,140.1 187.9,140.1 192.6,140.1 192.6,135.4 197.3,135.4 		"/>
		<g>
			<polygon class="st2" points="113.2,130.7 108.5,130.7 103.8,130.7 99.2,130.7 99.2,135.4 94.5,135.4 89.8,135.4 89.8,140.1 
				85.1,140.1 85.1,144.7 80.5,144.7 80.5,149.4 75.8,149.4 75.8,158.8 71.1,158.8 71.1,182.1 75.8,182.1 75.8,191.5 80.5,191.5 
				80.5,196.1 85.1,196.1 85.1,200.8 89.8,200.8 89.8,205.5 94.5,205.5 99.2,205.5 103.8,205.5 108.5,205.5 113.2,205.5 
				117.8,205.5 122.5,205.5 122.5,182.1 117.8,182.1 113.2,182.1 108.5,182.1 108.5,177.4 103.8,177.4 99.2,177.4 99.2,158.8 
				103.8,158.8 103.8,154.1 108.5,154.1 113.2,154.1 117.8,154.1 122.5,154.1 122.5,135.4 122.5,130.7 117.8,130.7 			"/>
			<polygon class="st2" points="169.2,154.1 164.6,154.1 164.6,149.4 159.9,149.4 155.2,149.4 150.5,149.4 150.5,154.1 145.9,154.1 
				145.9,126.1 141.2,126.1 136.5,126.1 131.9,126.1 131.9,130.7 127.2,130.7 127.2,200.8 131.9,200.8 136.5,200.8 141.2,200.8 
				145.9,200.8 145.9,168.1 150.5,168.1 155.2,168.1 155.2,196.1 159.9,196.1 164.6,196.1 169.2,196.1 173.9,196.1 173.9,158.8 
				169.2,158.8 			"/>
			<polygon class="st2" points="187.9,144.7 183.2,144.7 183.2,149.4 178.6,149.4 178.6,196.1 183.2,196.1 183.2,191.5 187.9,191.5 
				192.6,191.5 197.3,191.5 197.3,144.7 192.6,144.7 			"/>
			<path class="st2" d="M239.3,144.7h-4.7v-4.7H230h-4.7h-4.7h-4.7v4.7h-4.7h-4.7v14h4.7h4.7h4.7h4.7v4.7h-9.3h-4.7h-4.7v4.7h-4.7
				v18.7h4.7v4.7h4.7h4.7h9.3v-4.7h4.7h4.7v4.7h9.3v-4.7v-4.7v-32.7h-4.7V144.7z M220.6,182.1h-4.7v-9.3h4.7h4.7v4.7h-4.7V182.1z"/>
			<path class="st2" d="M351.4,130.7h-4.7v-4.7h-4.7h-9.3H328v4.7h-4.7v4.7h-4.7v4.7H314v-23.4h-4.7V112h-4.7H300v-4.7h-4.7h-4.7
				H286h-14v4.7h-4.7h-4.7v9.3H258v65.4h4.7h4.7h4.7h4.7v-28h14h4.7h4.7v-4.7h4.7v-4.7h4.7v14h4.7v4.7h4.7v4.7h4.7h4.7v4.7h14v-4.7
				h9.3v-4.7h4.7v-4.7v-4.7h-14v4.7h-9.3v-4.7H328v-4.7h14h4.7h4.7h4.7v-4.7v-14h-4.7V130.7z M290.7,140.1H286v4.7h-9.3v-14h9.3v4.7
				h4.7V140.1z M328,149.4v-4.7h4.7v-4.7h4.7v4.7h4.7v4.7H328z"/>
			<polygon class="st2" points="379.4,121.4 379.4,102.7 374.8,102.7 370.1,102.7 365.4,102.7 365.4,107.4 360.7,107.4 360.7,126.1 
				360.7,135.4 360.7,158.8 365.4,158.8 365.4,168.1 370.1,168.1 370.1,172.8 374.8,172.8 374.8,168.1 379.4,168.1 384.1,168.1 
				388.8,168.1 388.8,154.1 384.1,154.1 384.1,149.4 379.4,149.4 379.4,140.1 388.8,140.1 388.8,135.4 388.8,126.1 388.8,121.4 			
				"/>
		</g>
	</g>
	<rect x="230" y="200.8" class="st12" width="4.7" height="4.7"/>
	<g>
		<polygon class="st23" points="323.4,336.3 323.4,345.6 314,345.6 314,336.3 276.7,336.3 276.7,340.9 225.3,340.9 225.3,331.6 
			187.9,331.6 187.9,359.6 187.9,364.3 187.9,378.3 192.6,378.3 192.6,392.3 197.3,392.3 197.3,406.3 201.9,406.3 201.9,415.7 
			206.6,415.7 206.6,420.3 211.3,420.3 215.9,420.3 220.6,420.3 220.6,415.7 225.3,415.7 225.3,406.3 230,406.3 230,392.3 
			234.6,392.3 234.6,378.3 276.7,378.3 276.7,383 281.3,383 281.3,397 286,397 286,411 290.7,411 290.7,420.3 295.3,420.3 
			295.3,425 300,425 304.7,425 309.4,425 309.4,420.3 314,420.3 314,383 323.4,383 328,383 328,397 332.7,397 332.7,411 337.4,411 
			337.4,420.3 342.1,420.3 342.1,425 346.7,425 351.4,425 356.1,425 356.1,420.3 360.7,420.3 360.7,368.9 360.7,359.6 360.7,336.3 
					"/>
		<polygon class="st13" points="444.8,284.9 440.1,284.9 440.1,280.2 435.5,280.2 435.5,238.2 374.8,238.2 332.7,238.2 332.7,196.1 
			328,196.1 328,191.5 323.4,191.5 323.4,196.1 318.7,196.1 318.7,200.8 314,200.8 314,196.1 309.4,196.1 304.7,196.1 304.7,191.5 
			300,191.5 295.3,191.5 295.3,186.8 290.7,186.8 290.7,191.5 286,191.5 286,186.8 281.3,186.8 276.7,186.8 272,186.8 272,182.1 
			267.3,182.1 262.6,182.1 258,182.1 258,186.8 253.3,186.8 248.6,186.8 248.6,191.5 244,191.5 239.3,191.5 239.3,186.8 
			234.6,186.8 234.6,191.5 230,191.5 225.3,191.5 220.6,191.5 215.9,191.5 215.9,196.1 211.3,196.1 211.3,200.8 206.6,200.8 
			201.9,200.8 201.9,205.5 197.3,205.5 197.3,210.1 192.6,210.1 192.6,214.8 187.9,214.8 187.9,219.5 178.6,219.5 178.6,224.1 
			173.9,224.1 173.9,228.8 169.2,228.8 169.2,233.5 164.6,233.5 164.6,238.2 159.9,238.2 159.9,242.8 159.9,247.5 150.5,247.5 
			150.5,252.2 159.9,252.2 159.9,256.8 155.2,256.8 155.2,261.5 150.5,261.5 150.5,266.2 150.5,270.9 145.9,270.9 145.9,275.5 
			145.9,280.2 141.2,280.2 141.2,294.2 141.2,298.9 141.2,308.2 141.2,312.9 136.5,312.9 136.5,317.6 141.2,317.6 141.2,322.2 
			141.2,326.9 145.9,326.9 145.9,331.6 145.9,336.3 155.2,336.3 155.2,340.9 164.6,340.9 164.6,345.6 169.2,345.6 169.2,350.3 
			173.9,350.3 173.9,354.9 183.2,354.9 183.2,359.6 276.7,359.6 276.7,354.9 281.3,354.9 281.3,350.3 286,350.3 300,350.3 
			300,345.6 304.7,345.6 304.7,350.3 328,350.3 328,354.9 332.7,354.9 332.7,364.3 337.4,364.3 337.4,368.9 342.1,368.9 
			342.1,373.6 346.7,373.6 346.7,378.3 351.4,378.3 351.4,383 388.8,383 393.4,383 393.4,378.3 398.1,378.3 398.1,373.6 
			402.8,373.6 402.8,368.9 407.4,368.9 407.4,364.3 412.1,364.3 412.1,359.6 416.8,359.6 416.8,354.9 421.5,354.9 421.5,350.3 
			426.1,350.3 426.1,354.9 430.8,354.9 430.8,350.3 435.5,350.3 440.1,350.3 440.1,345.6 435.5,345.6 435.5,340.9 440.1,340.9 
			440.1,336.3 435.5,336.3 435.5,331.6 440.1,331.6 440.1,326.9 440.1,317.6 440.1,312.9 435.5,312.9 435.5,308.2 440.1,308.2 
			440.1,303.6 440.1,298.9 444.8,298.9 444.8,289.5 449.5,289.5 449.5,284.9 		"/>
		<polygon class="st24" points="463.5,228.8 458.8,228.8 458.8,224.1 454.2,224.1 454.2,219.5 426.1,219.5 426.1,214.8 421.5,214.8 
			421.5,210.1 416.8,210.1 416.8,196.1 412.1,196.1 407.4,196.1 407.4,191.5 402.8,191.5 398.1,191.5 398.1,196.1 393.4,196.1 
			393.4,205.5 360.7,205.5 360.7,196.1 356.1,196.1 356.1,191.5 351.4,191.5 346.7,191.5 342.1,191.5 337.4,191.5 337.4,196.1 
			332.7,196.1 332.7,238.2 337.4,238.2 337.4,242.8 342.1,242.8 346.7,242.8 346.7,247.5 351.4,247.5 351.4,261.5 365.4,261.5 
			365.4,270.9 402.8,270.9 402.8,275.5 407.4,275.5 407.4,280.2 421.5,280.2 435.5,280.2 440.1,280.2 440.1,275.5 440.1,266.2 
			444.8,266.2 444.8,261.5 449.5,261.5 449.5,256.8 454.2,256.8 454.2,252.2 458.8,252.2 458.8,247.5 463.5,247.5 		"/>
		<rect x="314" y="219.5" class="st12" width="4.7" height="4.7"/>
		<rect x="332.7" y="247.5" class="st12" width="4.7" height="4.7"/>
		<rect x="262.6" y="228.8" class="st12" width="4.7" height="4.7"/>
		<rect x="393.4" y="284.9" class="st12" width="4.7" height="4.7"/>
		<rect x="356.1" y="275.5" class="st12" width="4.7" height="4.7"/>
		<rect x="421.5" y="294.2" class="st12" width="4.7" height="4.7"/>
		<rect x="440.1" y="280.2" class="st12" width="4.7" height="4.7"/>
		<rect x="402.8" y="270.9" class="st12" width="4.7" height="4.7"/>
		<rect x="300" y="247.5" class="st12" width="4.7" height="4.7"/>
		<rect x="220.6" y="238.2" class="st12" width="4.7" height="4.7"/>
		<rect x="197.3" y="219.5" class="st12" width="4.7" height="4.7"/>
		<rect x="300" y="289.5" class="st12" width="4.7" height="4.7"/>
		<rect x="253.3" y="261.5" class="st12" width="4.7" height="4.7"/>
		<rect x="192.6" y="289.5" class="st12" width="4.7" height="4.7"/>
		<rect x="197.3" y="256.8" class="st12" width="4.7" height="4.7"/>
		<rect x="150.5" y="270.9" class="st12" width="4.7" height="4.7"/>
		<rect x="155.2" y="247.5" class="st12" width="4.7" height="4.7"/>
		<rect x="178.6" y="238.2" class="st12" width="4.7" height="4.7"/>
		<rect x="374.8" y="331.6" class="st12" width="4.7" height="4.7"/>
		<rect x="351.4" y="308.2" class="st12" width="4.7" height="4.7"/>
		<rect x="253.3" y="312.9" class="st12" width="4.7" height="4.7"/>
		<rect x="234.6" y="289.5" class="st12" width="4.7" height="4.7"/>
		<rect x="393.4" y="359.6" class="st12" width="4.7" height="4.7"/>
		<rect x="440.1" y="326.9" class="st12" width="4.7" height="4.7"/>
		<rect x="412.1" y="322.2" class="st12" width="4.7" height="4.7"/>
		<rect x="426.1" y="350.3" class="st12" width="4.7" height="4.7"/>
		<rect x="309.4" y="331.6" class="st12" width="4.7" height="4.7"/>
		<rect x="220.6" y="322.2" class="st12" width="4.7" height="4.7"/>
		<rect x="159.9" y="308.2" class="st12" width="4.7" height="4.7"/>
		<rect x="192.6" y="336.3" class="st12" width="4.7" height="4.7"/>
		<rect x="244" y="345.6" class="st12" width="4.7" height="4.7"/>
		<rect x="272" y="210.1" class="st12" width="4.7" height="4.7"/>
		<rect x="356.1" y="359.6" class="st12" width="4.7" height="4.7"/>
		<rect x="346.7" y="336.3" class="st12" width="4.7" height="4.7"/>
	</g>
	<g>
		<path d="M76.5,34.8h4.1v-1h1v-1h2.1v2.1h-1v1h-1v1h-6.2v-1h-1v-1h-1V24.5h1v-1h1v-1h6.2v1h1v1h1v2.1h-2.1v-1h-1v-1h-4.1v1h-1v8.2
			h1V34.8z"/>
		<path d="M87.7,30.7v6.2h-2.1V22.5h2.1v5.1h1v-1h1v-1h3.1v1h1v1h1v1h1v8.2h-2.1v-7.2h-1v-1h-1v-1h-1v1h-1v1h-1v1H87.7z"/>
		<path d="M105.2,34.8h1v2.1h-2.1v-1h-1v-1h-1v-5.1H100v-2.1h4.1v6.2h1V34.8z M104.2,23.5v2.1h-2.1v-2.1H104.2z"/>
		<path d="M112.4,36.8v-1h-1v-1h-1v-4.1h1v-1h1v-1h5.1v1h1v-2.1h-1v-1h-5.1v-2.1h6.2v1h1v1h1v10.3h-2.1v-1h-1v1H112.4z M113.4,34.8
			h4.1v-1h1v-2.1h-1v-1h-4.1v1h-1v2.1h1V34.8z"/>
		<path d="M135.9,34.8h-1v-2.1h2.1v1h1v1h4.1v-2.1H140v-1H138v-1h-2.1v-1h-1v-2.1h1v-1h1v-1h6.2v1h1v1h1v2.1h-2.1v-1h-1v-1H138v2.1
			h3.1v1h2.1v1h1v1h1v2.1h-1v1h-1v1H137v-1h-1V34.8z"/>
		<path d="M157.5,33.8v1h-1v1h-1v1h-6.2v-1h-1v-1h-1v-7.2h1v-1h1v-1h6.2v1h1v1h1v3.1h-1v1h-7.2v2.1h1v1h4.1v-1H157.5z M149.3,28.6v1
			h6.2v-1h-1v-1h-4.1v1H149.3z"/>
		<path d="M169.8,33.8v1h-1v1h-1v1h-6.2v-1h-1v-1h-1v-7.2h1v-1h1v-1h6.2v1h1v1h1v3.1h-1v1h-7.2v2.1h1v1h4.1v-1H169.8z M161.6,28.6v1
			h6.2v-1h-1v-1h-4.1v1H161.6z"/>
		<path d="M180,27.6v-5.1h2.1v14.4H180v-2.1h-1v1h-1v1h-3.1v-1h-1v-1h-1v-1h-1v-5.1h1v-1h1v-1h1v-1h3.1v1h1v1H180z M174.9,33.8h1v1
			h1v-1h1v-1h1v-3.1h-1v-1h-1v-1h-1v1h-1v1h-1v3.1h1V33.8z"/>
		<path d="M185.2,34.8h-1v-2.1h2.1v1h1v1h4.1v-2.1h-2.1v-1h-2.1v-1h-2.1v-1h-1v-2.1h1v-1h1v-1h6.2v1h1v1h1v2.1h-2.1v-1h-1v-1h-4.1
			v2.1h3.1v1h2.1v1h1v1h1v2.1h-1v1h-1v1h-6.2v-1h-1V34.8z"/>
		<path d="M214.9,36.8h-2.1v-9.2h-3.1v-2.1h3.1v-2.1h1v-1h4.1v2.1h-3.1v1h3.1v2.1h-3.1V36.8z"/>
		<path d="M228.2,34.8h1v2.1h-2.1v-1h-1v-1h-1v-5.1h-2.1v-2.1h4.1v6.2h1V34.8z M227.2,23.5v2.1h-2.1v-2.1H227.2z"/>
		<path d="M235.4,30.7v6.2h-2.1V25.6h2.1v2.1h1v-1h1v-1h4.1v1h1v1h1v2.1h-2.1v-1h-1v-1h-2.1v1h-1v1h-1v1H235.4z"/>
		<path d="M246.7,34.8h-1v-2.1h2.1v1h1v1h4.1v-2.1h-2.1v-1h-2.1v-1h-2.1v-1h-1v-2.1h1v-1h1v-1h6.2v1h1v1h1v2.1h-2.1v-1h-1v-1h-4.1
			v2.1h3.1v1h2.1v1h1v1h1v2.1h-1v1h-1v1h-6.2v-1h-1V34.8z"/>
		<path d="M265.1,34.8h1v2.1h-2.1v-1h-1v-1h-1v-7.2H260v-2.1h2.1v-3.1h2.1v3.1h2.1v2.1h-2.1v6.2h1V34.8z"/>
		<path d="M290.8,33.8v-1h2.1v2.1h-1v1h-1v1h-6.2v-1h-1v-1h-1v-7.2h1v-1h1v-1h6.2v1h1v1h1v2.1h-2.1v-1h-1v-1h-4.1v1h-1v5.1h1v1h4.1
			v-1H290.8z"/>
		<path d="M296.9,36.8v-1h-1v-1h-1v-4.1h1v-1h1v-1h5.1v1h1v-2.1h-1v-1h-5.1v-2.1h6.2v1h1v1h1v10.3h-2.1v-1h-1v1H296.9z M297.9,34.8
			h4.1v-1h1v-2.1h-1v-1h-4.1v1h-1v2.1h1V34.8z"/>
		<path d="M309.2,28.6v8.2h-2.1V25.6h2.1v1h1v-1h5.1v1h1v1h1v9.2h-2.1v-8.2h-1v-1h-1v9.2h-2.1v-9.2h-1v1H309.2z"/>
		<path d="M329.7,33.8v1h-1v1h-1v1h-6.2v-1h-1v-1h-1v-7.2h1v-1h1v-1h6.2v1h1v1h1v3.1h-1v1h-7.2v2.1h1v1h4.1v-1H329.7z M321.5,28.6v1
			h6.2v-1h-1v-1h-4.1v1H321.5z"/>
		<path d="M346.1,34.8v2.1h-2.1V22.5h2.1v5.1h1v-1h1v-1h3.1v1h1v1h1v1h1v5.1h-1v1h-1v1h-1v1h-3.1v-1h-1v-1H346.1z M349.2,34.8h1v-1
			h1v-1h1v-3.1h-1v-1h-1v-1h-1v1h-1v1h-1v3.1h1v1h1V34.8z"/>
		<path d="M358.4,36.8v-1h-1v-1h-1v-4.1h1v-1h1v-1h5.1v1h1v-2.1h-1v-1h-5.1v-2.1h6.2v1h1v1h1v10.3h-2.1v-1h-1v1H358.4z M359.5,34.8
			h4.1v-1h1v-2.1h-1v-1h-4.1v1h-1v2.1h1V34.8z"/>
		<path d="M376.9,33.8v-1h2.1v2.1h-1v1h-1v1h-6.2v-1h-1v-1h-1v-7.2h1v-1h1v-1h6.2v1h1v1h1v2.1h-2.1v-1h-1v-1h-4.1v1h-1v5.1h1v1h4.1
			v-1H376.9z"/>
		<path d="M383.1,34.8v2.1H381V22.5h2.1v9.2h1v-1h1v-1h1v-1h1v-1h1v-1h1v-1h2.1v2.1h-1v1h-1v1h-1v1h-1v1h1v1h1v1h1v1h1v2.1h-2.1v-1
			h-1v-1h-1v-1h-1v-1h-1v1h-1v1H383.1z"/>
		<path d="M407.7,36.8v-1h-1v-1h-1v-4.1h1v-1h1v-1h5.1v1h1v-2.1h-1v-1h-5.1v-2.1h6.2v1h1v1h1v10.3h-2.1v-1h-1v1H407.7z M408.7,34.8
			h4.1v-1h1v-2.1h-1v-1h-4.1v1h-1v2.1h1V34.8z"/>
		<path d="M418.9,34.8h-1v-2.1h2.1v1h1v1h4.1v-2.1H423v-1H421v-1h-2.1v-1h-1v-2.1h1v-1h1v-1h6.2v1h1v1h1v2.1h-2.1v-1h-1v-1H421v2.1
			h3.1v1h2.1v1h1v1h1v2.1h-1v1h-1v1H420v-1h-1V34.8z"/>
		<path d="M444.6,28.6v8.2h-2.1V25.6h2.1v1h1v-1h5.1v1h1v1h1v9.2h-2.1v-8.2h-1v-1h-4.1v1H444.6z"/>
		<path d="M456.9,36.8v-1h-1v-1h-1v-7.2h1v-1h1v-1h6.2v1h1v1h1v7.2h-1v1h-1v1H456.9z M457.9,34.8h4.1v-1h1v-5.1h-1v-1h-4.1v1h-1v5.1
			h1V34.8z"/>
		<path d="M467.1,25.6h2.1v6.2h1v1h1v1h2.1v-1h1v-1h1v-6.2h2.1v7.2h-1v1h-1v1h-1v1h-1v1h-2.1v-1h-1v-1h-1v-1h-1v-1h-1V25.6z"/>
		<path d="M489.7,33.8v1h-1v1h-1v1h-6.2v-1h-1v-1h-1v-7.2h1v-1h1v-1h6.2v1h1v1h1v3.1h-1v1h-7.2v2.1h1v1h4.1v-1H489.7z M481.5,28.6v1
			h6.2v-1h-1v-1h-4.1v1H481.5z"/>
		<path d="M497.9,22.5v14.4h-2.1V22.5H497.9z"/>
		<path d="M511.2,34.8h1v2.1h-2.1v-1h-1v-1h-1v-7.2h-2.1v-2.1h2.1v-3.1h2.1v3.1h2.1v2.1h-2.1v6.2h1V34.8z"/>
		<path d="M518.4,36.8v-2.1h5.1v-1h1v-3.1h-1v1h-1v1h-4.1v-1h-1v-1h-1v-6.2h2.1v5.1h1v1h2.1v-1h1v-1h1v-2.1h1v-2.1h2.1v10.3h-1v1h-1
			v1H518.4z"/>
		<path d="M49.8,60h1V62h-2.1v-1h-1v-1h-1v-7.2h-2.1v-2.1h2.1v-3.1h2.1v3.1h2.1v2.1h-2.1V59h1V60z"/>
		<path d="M65.2,59v1h-1v1h-1v1H57v-1h-1v-1h-1v-7.2h1v-1h1v-1h6.2v1h1v1h1v3.1h-1v1H57V59h1v1h4.1v-1H65.2z M57,53.8v1h6.2v-1h-1
			v-1H58v1H57z"/>
		<path d="M69.3,55.9V62h-2.1V50.8h2.1v2.1h1v-1h1v-1h4.1v1h1v1h1v2.1h-2.1v-1h-1v-1h-2.1v1h-1v1h-1v1H69.3z"/>
		<path d="M81.6,55.9V62h-2.1V50.8h2.1v2.1h1v-1h1v-1h4.1v1h1v1h1v2.1h-2.1v-1h-1v-1h-2.1v1h-1v1h-1v1H81.6z"/>
		<path d="M93.9,62v-1h-1v-1h-1v-4.1h1v-1h1v-1H99v1h1v-2.1h-1v-1h-5.1v-2.1h6.2v1h1v1h1V62H100v-1h-1v1H93.9z M94.9,60H99v-1h1
			v-2.1h-1v-1h-4.1v1h-1V59h1V60z"/>
		<path d="M112.4,59v-1h2.1V60h-1v1h-1v1h-6.2v-1h-1v-1h-1v-7.2h1v-1h1v-1h6.2v1h1v1h1v2.1h-2.1v-1h-1v-1h-4.1v1h-1V59h1v1h4.1v-1
			H112.4z"/>
		<path d="M118.5,62v-1h-1v-1h-1v-7.2h1v-1h1v-1h6.2v1h1v1h1V60h-1v1h-1v1H118.5z M119.5,60h4.1v-1h1v-5.1h-1v-1h-4.1v1h-1V59h1V60z
			"/>
		<path d="M135.9,60h1V62h-2.1v-1h-1v-1h-1v-7.2h-2.1v-2.1h2.1v-3.1h2.1v3.1h2.1v2.1h-2.1V59h1V60z"/>
		<path d="M143.1,62v-1h-1v-1h-1v-4.1h1v-1h1v-1h5.1v1h1v-2.1h-1v-1h-5.1v-2.1h6.2v1h1v1h1V62h-2.1v-1h-1v1H143.1z M144.1,60h4.1v-1
			h1v-2.1h-1v-1h-4.1v1h-1V59h1V60z"/>
		<path d="M173.9,52.8v-5.1h2.1V62h-2.1V60h-1v1h-1v1h-3.1v-1h-1v-1h-1v-1h-1v-5.1h1v-1h1v-1h1v-1h3.1v1h1v1H173.9z M168.8,59h1v1h1
			v-1h1v-1h1v-3.1h-1v-1h-1v-1h-1v1h-1v1h-1v3.1h1V59z"/>
		<path d="M188.2,59v1h-1v1h-1v1H180v-1h-1v-1h-1v-7.2h1v-1h1v-1h6.2v1h1v1h1v3.1h-1v1H180V59h1v1h4.1v-1H188.2z M180,53.8v1h6.2v-1
			h-1v-1h-4.1v1H180z"/>
		<path d="M198.5,59v-1h2.1V60h-1v1h-1v1h-6.2v-1h-1v-1h-1v-7.2h1v-1h1v-1h6.2v1h1v1h1v2.1h-2.1v-1h-1v-1h-4.1v1h-1V59h1v1h4.1v-1
			H198.5z"/>
		<path d="M204.6,62v-1h-1v-1h-1v-7.2h1v-1h1v-1h6.2v1h1v1h1V60h-1v1h-1v1H204.6z M205.7,60h4.1v-1h1v-5.1h-1v-1h-4.1v1h-1V59h1V60z
			"/>
		<path d="M216.9,55.9V62h-2.1V50.8h2.1v2.1h1v-1h1v-1h4.1v1h1v1h1v2.1h-2.1v-1h-1v-1H220v1h-1v1h-1v1H216.9z"/>
		<path d="M229.2,62v-1h-1v-1h-1v-4.1h1v-1h1v-1h5.1v1h1v-2.1h-1v-1h-5.1v-2.1h6.2v1h1v1h1V62h-2.1v-1h-1v1H229.2z M230.3,60h4.1v-1
			h1v-2.1h-1v-1h-4.1v1h-1V59h1V60z"/>
		<path d="M246.7,60h1V62h-2.1v-1h-1v-1h-1v-7.2h-2.1v-2.1h2.1v-3.1h2.1v3.1h2.1v2.1h-2.1V59h1V60z"/>
		<path d="M259,60h1V62H258v-1h-1v-1h-1v-5.1h-2.1v-2.1h4.1V59h1V60z M258,48.7v2.1h-2.1v-2.1H258z"/>
		<path d="M266.2,62v-1h-1v-1h-1v-7.2h1v-1h1v-1h6.2v1h1v1h1V60h-1v1h-1v1H266.2z M267.2,60h4.1v-1h1v-5.1h-1v-1h-4.1v1h-1V59h1V60z
			"/>
		<path d="M278.5,53.8V62h-2.1V50.8h2.1v1h1v-1h5.1v1h1v1h1V62h-2.1v-8.2h-1v-1h-4.1v1H278.5z"/>
		<path d="M308.2,60h1V62h-2.1v-1h-1v-1h-1v-5.1h-2.1v-2.1h4.1V59h1V60z M307.2,48.7v2.1h-2.1v-2.1H307.2z"/>
		<path d="M315.4,53.8V62h-2.1V50.8h2.1v1h1v-1h5.1v1h1v1h1V62h-2.1v-8.2h-1v-1h-1V62h-2.1v-9.2h-1v1H315.4z"/>
		<path d="M327.7,57.9V62h-2.1V49.7h2.1v1h1v-1h5.1v1h1v1h1v5.1h-1v1h-1v1h-5.1v-1H327.7z M333.8,52.8h-1v-1h-3.1v1h-1v3.1h1v1h3.1
			v-1h1V52.8z"/>
		<path d="M340,62v-1h-1v-1h-1v-7.2h1v-1h1v-1h6.2v1h1v1h1V60h-1v1h-1v1H340z M341,60h4.1v-1h1v-5.1h-1v-1H341v1h-1V59h1V60z"/>
		<path d="M352.3,55.9V62h-2.1V50.8h2.1v2.1h1v-1h1v-1h4.1v1h1v1h1v2.1h-2.1v-1h-1v-1h-2.1v1h-1v1h-1v1H352.3z"/>
		<path d="M369.7,60h1V62h-2.1v-1h-1v-1h-1v-7.2h-2.1v-2.1h2.1v-3.1h2.1v3.1h2.1v2.1h-2.1V59h1V60z"/>
		<path d="M385.1,59v1h-1v1h-1v1h-6.2v-1h-1v-1h-1v-7.2h1v-1h1v-1h6.2v1h1v1h1v3.1h-1v1h-7.2V59h1v1h4.1v-1H385.1z M376.9,53.8v1
			h6.2v-1h-1v-1h-4.1v1H376.9z"/>
		<path d="M395.4,52.8v-5.1h2.1V62h-2.1V60h-1v1h-1v1h-3.1v-1h-1v-1h-1v-1h-1v-5.1h1v-1h1v-1h1v-1h3.1v1h1v1H395.4z M390.2,59h1v1h1
			v-1h1v-1h1v-3.1h-1v-1h-1v-1h-1v1h-1v1h-1v3.1h1V59z"/>
		<path d="M417.9,62h-2.1v-9.2h-3.1v-2.1h3.1v-2.1h1v-1h4.1v2.1h-3.1v1h3.1v2.1h-3.1V62z"/>
		<path d="M426.1,55.9V62h-2.1V50.8h2.1v2.1h1v-1h1v-1h4.1v1h1v1h1v2.1h-2.1v-1h-1v-1h-2.1v1h-1v1h-1v1H426.1z"/>
		<path d="M438.4,62v-1h-1v-1h-1v-7.2h1v-1h1v-1h6.2v1h1v1h1V60h-1v1h-1v1H438.4z M439.5,60h4.1v-1h1v-5.1h-1v-1h-4.1v1h-1V59h1V60z
			"/>
		<path d="M450.7,53.8V62h-2.1V50.8h2.1v1h1v-1h5.1v1h1v1h1V62h-2.1v-8.2h-1v-1h-1V62h-2.1v-9.2h-1v1H450.7z"/>
		<path d="M475.3,62h-2.1V47.7h2.1v2.1h1v1h1v1h2.1v-1h1v-1h1v-2.1h2.1V62h-2.1v-9.2h-1v1h-1v2.1h-2.1v-2.1h-1v-1h-1V62z"/>
		<path d="M495.8,59v1h-1v1h-1v1h-6.2v-1h-1v-1h-1v-7.2h1v-1h1v-1h6.2v1h1v1h1v3.1h-1v1h-7.2V59h1v1h4.1v-1H495.8z M487.6,53.8v1
			h6.2v-1h-1v-1h-4.1v1H487.6z"/>
		<path d="M500,61v1h-2.1V60h1v-1h1v-1h1v-1h1v-1h-1v-1h-1v-1h-1v-1h-1v-2.1h2.1v1h1v1h1v1h2.1v-1h1v-1h1v-1h2.1v2.1h-1v1h-1v1h-1v1
			h-1v1h1v1h1v1h1v1h1V62h-2.1v-1h-1v-1h-1v-1H502v1h-1v1H500z"/>
		<path d="M517.4,60h1V62h-2.1v-1h-1v-1h-1v-5.1h-2.1v-2.1h4.1V59h1V60z M516.4,48.7v2.1h-2.1v-2.1H516.4z"/>
		<path d="M530.7,59v-1h2.1V60h-1v1h-1v1h-6.2v-1h-1v-1h-1v-7.2h1v-1h1v-1h6.2v1h1v1h1v2.1h-2.1v-1h-1v-1h-4.1v1h-1V59h1v1h4.1v-1
			H530.7z"/>
		<path d="M536.9,62v-1h-1v-1h-1v-7.2h1v-1h1v-1h6.2v1h1v1h1V60h-1v1h-1v1H536.9z M537.9,60h4.1v-1h1v-5.1h-1v-1h-4.1v1h-1V59h1V60z
			"/>
		<path d="M552.2,60V62h-2.1V60H552.2z"/>
	</g>
</g>
</svg>
