<?xml version="1.0" encoding="utf-8"?>
<!-- Generator: Adobe Illustrator 25.2.3, SVG Export Plug-In . SVG Version: 6.00 Build 0)  -->
<svg version="1.1" id="Layer_1" xmlns="http://www.w3.org/2000/svg" xmlns:xlink="http://www.w3.org/1999/xlink" x="0px" y="0px"
	 viewBox="0 0 600 425" style="enable-background:new 0 0 600 425;" xml:space="preserve">
<style type="text/css">
	.st0{fill:#A8B943;}
	.st1{fill:#E0E48E;}
	.st2{fill:#8A3A22;}
	.st3{fill:#DA895E;}
	.st4{fill:#622712;}
	.st5{fill:#288645;}
	.st6{fill:#24522A;}
	.st7{fill:#38A14C;}
	.st8{fill:#7ABF4B;}
	.st9{fill:#0C5489;}
	.st10{fill:#0F3452;}
	.st11{fill:#347AA6;}
	.st12{fill:#0E4C71;}
	.st13{fill:#61296E;}
	.st14{fill:#4A1E56;}
	.st15{fill:#904496;}
	.st16{fill:#291327;}
	.st17{fill:#D1232E;}
	.st18{fill:#E5696D;}
	.st19{fill:#BC272C;}
	.st20{fill:#F28795;}
	.st21{fill:#A4242C;}
	.st22{fill:#FDDE2F;}
	.st23{fill:#F9B932;}
	.st24{fill:#82AA47;}
	.st25{fill:#97C748;}
	.st26{fill:#B3D257;}
	.st27{fill:#5D9646;}
	.st28{fill:#517539;}
</style>
<g>
	<g>
		<polygon class="st0" points="365.1,244.3 365.1,233.5 365.1,222.6 354.3,222.6 354.3,200.9 343.4,200.9 343.4,168.4 332.6,168.4 
			332.6,157.5 321.7,157.5 321.7,146.6 278.3,146.6 278.3,157.5 267.4,157.5 267.4,168.4 256.6,168.4 256.6,200.9 245.7,200.9 
			245.7,222.6 234.9,222.6 234.9,233.5 234.9,244.3 224,244.3 224,309.4 234.9,309.4 234.9,320.3 245.7,320.3 245.7,331.1 
			256.6,331.1 256.6,342 289.1,342 310.9,342 343.4,342 343.4,331.1 354.3,331.1 354.3,320.3 365.1,320.3 365.1,309.4 376,309.4 
			376,244.3 		"/>
		<polygon class="st1" points="354.3,255.2 354.3,233.5 343.4,233.5 343.4,211.8 332.6,211.8 332.6,179.2 321.7,179.2 321.7,168.4 
			310.9,168.4 310.9,157.5 289.1,157.5 289.1,168.4 278.3,168.4 278.3,179.2 267.4,179.2 267.4,211.8 256.6,211.8 256.6,233.5 
			245.7,233.5 245.7,255.2 234.9,255.2 234.9,298.6 245.7,298.6 245.7,309.4 256.6,309.4 256.6,320.3 267.4,320.3 267.4,331.1 
			278.3,331.1 289.1,331.1 310.9,331.1 321.7,331.1 332.6,331.1 332.6,320.3 343.4,320.3 343.4,309.4 354.3,309.4 354.3,298.6 
			365.1,298.6 365.1,255.2 		"/>
		<polygon class="st2" points="332.6,266 321.7,266 321.7,255.2 310.9,255.2 310.9,244.3 289.1,244.3 289.1,255.2 278.3,255.2 
			278.3,266 267.4,266 267.4,287.7 278.3,287.7 278.3,298.6 289.1,298.6 289.1,309.4 310.9,309.4 310.9,298.6 321.7,298.6 
			321.7,287.7 332.6,287.7 		"/>
		<rect x="300" y="255.2" class="st3" width="10.9" height="10.9"/>
	</g>
	<rect x="278.3" y="276.9" class="st4" width="10.9" height="10.9"/>
	<rect x="289.1" y="287.7" class="st4" width="10.9" height="10.9"/>
</g>
<g>
	<g>
		<polygon class="st5" points="224.5,35.3 232.4,30.7 237,38.5 244.8,33.9 249.4,41.7 257.3,37.1 261.9,44.9 269.7,40.3 283.6,63.8 
			275.8,68.4 280.4,76.2 272.6,80.8 277.2,88.7 269.4,93.3 274,101.1 266.2,105.8 219.2,133.5 211.3,138.1 206.7,130.3 198.9,134.9 
			194.3,127.1 186.4,131.7 181.8,123.9 174,128.5 169.3,120.7 145.9,134.6 141.2,126.7 164.7,112.9 160.1,105 167.9,100.4 
			163.3,92.6 171.1,87.9 166.5,80.1 174.3,75.5 169.7,67.7 177.5,63 		"/>
		
			<rect x="209.5" y="43.5" transform="matrix(-0.5086 -0.861 0.861 -0.5086 246.229 318.5625)" class="st6" width="9.1" height="90.9"/>
		
			<rect x="225.8" y="85.4" transform="matrix(-0.5086 -0.861 0.861 -0.5086 270.1606 334.003)" class="st6" width="9.1" height="9.1"/>
		
			<rect x="224.4" y="65.1" transform="matrix(-0.5086 -0.861 0.861 -0.5086 285.4825 302.1733)" class="st6" width="9.1" height="9.1"/>
		
			<rect x="227.6" y="52.6" transform="matrix(-0.5086 -0.861 0.861 -0.5086 301.0415 286.1398)" class="st6" width="9.1" height="9.1"/>
		
			<rect x="193.1" y="83.6" transform="matrix(-0.5086 -0.861 0.861 -0.5086 222.2974 303.122)" class="st6" width="9.1" height="9.1"/>
		
			<rect x="186.7" y="108.5" transform="matrix(-0.5086 -0.861 0.861 -0.5086 191.1792 335.1889)" class="st6" width="9.1" height="9.1"/>
		
			<rect x="196.3" y="71.1" transform="matrix(-0.5086 -0.861 0.861 -0.5086 237.8564 287.0886)" class="st6" width="9.1" height="9.1"/>
		
			<rect x="238.3" y="88.6" transform="matrix(-0.5086 -0.861 0.861 -0.5086 286.194 349.5621)" class="st6" width="9.1" height="9.1"/>
		
			<rect x="199.1" y="111.7" transform="matrix(-0.5086 -0.861 0.861 -0.5086 207.2127 350.748)" class="st6" width="9.1" height="9.1"/>
	</g>
	<g>
		<polygon class="st5" points="4.3,184.4 0,176.4 8,172.2 3.8,164.1 11.8,159.9 7.5,151.8 15.6,147.6 11.3,139.5 35.4,126.7 
			39.7,134.8 47.7,130.5 52,138.5 60,134.3 64.3,142.3 72.3,138.1 76.6,146.1 102.1,194.3 106.4,202.3 98.4,206.6 102.6,214.6 
			94.6,218.9 98.9,226.9 90.8,231.2 95.1,239.2 87.1,243.5 99.8,267.6 91.8,271.9 79,247.7 71,252 66.7,244 58.7,248.2 54.4,240.2 
			46.4,244.5 42.1,236.4 34.1,240.7 29.8,232.7 		"/>
		
			<rect x="52.9" y="151.9" transform="matrix(-0.8834 0.4686 -0.4686 -0.8834 200.7311 344.8783)" class="st6" width="9.1" height="90.9"/>
		
			<rect x="54.6" y="176.5" transform="matrix(-0.8834 0.4686 -0.4686 -0.8834 196.1795 313.3836)" class="st6" width="9.1" height="9.1"/>
		
			<rect x="34.2" y="177" transform="matrix(-0.8834 0.4686 -0.4686 -0.8834 158.1171 323.8308)" class="st6" width="9.1" height="9.1"/>
		
			<rect x="21.9" y="173.3" transform="matrix(-0.8834 0.4686 -0.4686 -0.8834 133.1902 322.4867)" class="st6" width="9.1" height="9.1"/>
		
			<rect x="51.3" y="209.2" transform="matrix(-0.8834 0.4686 -0.4686 -0.8834 205.2826 376.373)" class="st6" width="9.1" height="9.1"/>
		
			<rect x="75.9" y="216.7" transform="matrix(-0.8834 0.4686 -0.4686 -0.8834 255.1364 379.0613)" class="st6" width="9.1" height="9.1"/>
		
			<rect x="39" y="205.4" transform="matrix(-0.8834 0.4686 -0.4686 -0.8834 180.3557 375.0288)" class="st6" width="9.1" height="9.1"/>
		
			<rect x="58.3" y="164.3" transform="matrix(-0.8834 0.4686 -0.4686 -0.8834 197.5237 288.4567)" class="st6" width="9.1" height="9.1"/>
		
			<rect x="79.6" y="204.4" transform="matrix(-0.8834 0.4686 -0.4686 -0.8834 256.4806 354.1344)" class="st6" width="9.1" height="9.1"/>
	</g>
	<g>
		<polygon class="st7" points="77.8,35.2 86.6,39.4 90.8,30.6 99.7,34.8 103.9,25.9 112.8,30.1 117,21.2 125.8,25.4 130,16.5 
			156.6,29.1 152.4,38 161.3,42.2 157.1,51.1 166,55.3 161.8,64.1 170.6,68.3 166.4,77.2 175.3,81.4 145.9,143.5 137.1,139.3 
			132.9,148.1 124,144 119.8,152.8 110.9,148.6 106.7,157.5 97.9,153.3 93.7,162.2 84.8,158 72.2,184.6 63.3,180.4 75.9,153.8 
			67.1,149.6 71.3,140.7 62.4,136.5 66.6,127.6 57.7,123.4 61.9,114.6 53.1,110.4 57.3,101.5 48.4,97.3 		"/>
		
			<rect x="100.7" y="53.6" transform="matrix(-0.9039 -0.4278 0.4278 -0.9039 157.055 240.5991)" class="st8" width="9.8" height="98.1"/>
		
			<rect x="125.8" y="39.6" transform="matrix(-0.9039 -0.4278 0.4278 -0.9039 227.7598 150.0635)" class="st8" width="9.8" height="19.6"/>
		
			<rect x="133.1" y="75.1" transform="matrix(-0.9039 -0.4278 0.4278 -0.9039 228.478 211.3549)" class="st8" width="9.8" height="9.8"/>
		
			<rect x="110.8" y="77.5" transform="matrix(-0.9039 -0.4278 0.4278 -0.9039 194.7046 208.5127)" class="st8" width="20" height="9.8"/>
		
			<rect x="146.6" y="70.3" transform="matrix(-0.9039 -0.4278 0.4278 -0.9039 256.2726 208.0105)" class="st8" width="9.8" height="9.8"/>
		
			<rect x="89.7" y="98" transform="matrix(-0.9039 -0.4278 0.4278 -0.9039 136.0736 236.3596)" class="st8" width="9.8" height="9.8"/>
		
			<rect x="85" y="84.9" transform="matrix(-0.9039 -0.4278 0.4278 -0.9039 132.7685 209.4862)" class="st8" width="9.8" height="9.8"/>
		
			<rect x="80.3" y="71.9" transform="matrix(-0.9039 -0.4278 0.4278 -0.9039 129.4634 182.6128)" class="st8" width="9.8" height="9.8"/>
		
			<rect x="134" y="119" transform="matrix(-0.9039 -0.4278 0.4278 -0.9039 211.52 295.2802)" class="st8" width="9.8" height="9.8"/>
		
			<rect x="98.6" y="126.2" transform="matrix(-0.9039 -0.4278 0.4278 -0.9039 150.2285 295.9984)" class="st8" width="19.6" height="9.8"/>
		
			<rect x="119.9" y="123.6" transform="matrix(-0.9039 -0.4278 0.4278 -0.9039 182.6985 297.9664)" class="st8" width="9.8" height="9.8"/>
		
			<rect x="72.4" y="111.5" transform="matrix(-0.9039 -0.4278 0.4278 -0.9039 97.4161 254.754)" class="st5" width="9.8" height="9.8"/>
		
			<rect x="112.5" y="49.7" transform="matrix(-0.9039 -0.4278 0.4278 -0.9039 200.2317 154.2069)" class="st8" width="9.8" height="9.8"/>
		
			<rect x="67.7" y="98.5" transform="matrix(-0.9039 -0.4278 0.4278 -0.9039 94.111 227.8806)" class="st5" width="9.8" height="9.8"/>
		
			<rect x="146.6" y="92.4" transform="matrix(-0.9039 -0.4278 0.4278 -0.9039 246.8724 250.0124)" class="st5" width="9.8" height="9.8"/>
	</g>
</g>
<g>
	<polygon class="st9" points="176.5,214.8 171.5,214.8 171.5,209.8 166.5,209.8 166.5,204.8 131.5,204.8 131.5,209.8 126.5,209.8 
		126.5,214.8 121.5,214.8 121.5,239.7 126.5,239.7 126.5,244.7 131.5,244.7 131.5,249.7 166.5,249.7 166.5,244.7 171.5,244.7 
		171.5,239.7 176.5,239.7 	"/>
	<rect x="135.9" y="214.8" class="st10" width="25" height="5"/>
	<rect x="140.9" y="209.8" class="st10" width="15" height="15"/>
	<rect x="126.5" y="224.8" class="st11" width="5" height="10"/>
	<rect x="131.5" y="234.7" class="st11" width="5" height="5"/>
	<rect x="161.5" y="244.7" class="st12" width="5" height="5"/>
	<rect x="166.5" y="239.7" class="st12" width="5" height="5"/>
	<rect x="171.5" y="234.7" class="st12" width="5" height="5"/>
	<rect x="166.5" y="214.8" class="st11" width="5" height="5"/>
</g>
<g>
	<polygon class="st13" points="120.7,265 117.8,260.2 113,263 110.1,258.2 105.2,261 102.4,256.1 78,270.4 80.9,275.3 76,278.2 
		78.9,283 74,285.9 76.9,290.8 72,293.6 86.3,318 91.2,315.1 94,320 98.9,317.1 101.7,322 106.6,319.1 109.5,324 133.8,309.7 
		131,304.8 135.8,302 133,297.1 137.8,294.3 135,289.4 139.9,286.5 125.6,262.2 	"/>
	<polygon class="st14" points="108.9,278.5 106.1,273.6 91.5,282.2 94.3,287.1 89.5,289.9 98,304.5 102.9,301.7 105.8,306.5 
		120.4,298 117.5,293.1 122.4,290.2 113.8,275.6 	"/>
	
		<rect x="79.9" y="281.2" transform="matrix(0.8624 -0.5061 0.5061 0.8624 -132.3823 80.9504)" class="st15" width="5.6" height="5.6"/>
	<polygon class="st16" points="111.8,283.4 106.9,286.2 104.1,281.3 99.2,284.2 102.1,289.1 97.2,291.9 100.1,296.8 104.9,293.9 
		107.8,298.8 112.6,295.9 109.8,291.1 114.7,288.2 	"/>
	
		<rect x="80.8" y="288.2" transform="matrix(0.8624 -0.5061 0.5061 0.8624 -138.6417 83.1113)" class="st15" width="5.6" height="16.9"/>
	
		<rect x="126.3" y="293.3" transform="matrix(0.8624 -0.5061 0.5061 0.8624 -132.1143 106.0775)" class="st15" width="5.6" height="5.6"/>
	
		<rect x="126.9" y="280.3" transform="matrix(0.8624 -0.5061 0.5061 0.8624 -126.8907 104.9747)" class="st15" width="5.6" height="11.3"/>
</g>
<g>
	<polygon class="st17" points="201.8,278.7 206.5,271.2 202.7,268.9 205.1,265.1 201.3,262.8 203.6,259 199.9,256.7 196.1,254.3 
		192.4,252 190,255.8 186.3,253.4 183.9,257.2 180.2,254.8 175.5,262.3 171.7,260 153,290 156.8,292.4 154.4,296.1 158.2,298.5 
		155.8,302.2 159.7,304.7 157.3,308.5 168.6,315.5 171,311.7 174.6,314 176.9,310.2 180.7,312.5 183,308.8 186.8,311.1 205.5,281.1 
			"/>
	
		<rect x="171.8" y="258.2" transform="matrix(0.8485 0.5292 -0.5292 0.8485 168.8515 -51.2646)" class="st18" width="4.4" height="22.1"/>
	
		<rect x="180.2" y="299.2" transform="matrix(0.8485 0.5292 -0.5292 0.8485 189.4977 -50.2101)" class="st19" width="4.4" height="13.3"/>
	
		<rect x="167.7" y="307.7" transform="matrix(0.8485 0.5292 -0.5292 0.8485 190.0504 -44.1444)" class="st19" width="8.9" height="4.4"/>
	
		<rect x="186.3" y="297.8" transform="matrix(0.8485 0.5292 -0.5292 0.8485 189.6734 -53.6512)" class="st19" width="4.4" height="13.3"/>
	
		<rect x="166.9" y="306.2" transform="matrix(0.8485 0.5292 -0.5292 0.8485 189.9625 -42.4239)" class="st19" width="4.4" height="8.9"/>
	
		<rect x="181.4" y="257.8" transform="matrix(0.8485 0.5292 -0.5292 0.8485 166.5782 -57.4183)" class="st20" width="4.4" height="8.9"/>
	
		<rect x="174.1" y="263.3" transform="matrix(0.8485 0.5292 -0.5292 0.8485 167.2188 -53.073)" class="st20" width="4.4" height="4.4"/>
	
		<rect x="189.6" y="284.2" transform="matrix(0.8485 0.5292 -0.5292 0.8485 182.9671 -57.4437)" class="st19" width="4.4" height="13.3"/>
	
		<rect x="174.1" y="305.1" transform="matrix(0.8485 0.5292 -0.5292 0.8485 189.3219 -46.7691)" class="st19" width="4.4" height="4.4"/>
	
		<rect x="177.9" y="307.4" transform="matrix(0.8485 0.5292 -0.5292 0.8485 191.1303 -48.4017)" class="st21" width="4.4" height="4.4"/>
	
		<rect x="171.8" y="308.8" transform="matrix(0.8485 0.5292 -0.5292 0.8485 190.9546 -44.9607)" class="st21" width="4.4" height="4.4"/>
	
		<rect x="165.7" y="310.2" transform="matrix(0.8485 0.5292 -0.5292 0.8485 190.7789 -41.5197)" class="st21" width="4.4" height="4.4"/>
</g>
<polygon class="st22" points="220.5,175.5 220.5,171 216,171 211.5,171 211.5,166.5 211.5,162 207,162 207,157.5 202.5,157.5 
	202.5,162 198,162 198,166.5 198,171 193.5,171 189,171 189,175.5 184.5,175.5 184.5,180 189,180 189,184.5 193.5,184.5 198,184.5 
	198,189 198,193.5 202.5,193.5 202.5,198 207,198 207,193.5 211.5,193.5 211.5,189 211.5,184.5 216,184.5 220.5,184.5 220.5,180 
	225,180 225,175.5 "/>
<polygon class="st22" points="414,175.5 414,171 409.5,171 405,171 405,166.5 405,162 400.5,162 400.5,157.5 396,157.5 396,162 
	391.5,162 391.5,166.5 391.5,171 387,171 382.5,171 382.5,175.5 378,175.5 378,180 382.5,180 382.5,184.5 387,184.5 391.5,184.5 
	391.5,189 391.5,193.5 396,193.5 396,198 400.5,198 400.5,193.5 405,193.5 405,189 405,184.5 409.5,184.5 414,184.5 414,180 
	418.5,180 418.5,175.5 "/>
<polygon class="st23" points="317.2,108 317.2,103.5 312.8,103.5 312.8,99 308.2,99 308.2,94.5 303.8,94.5 303.8,90 299.2,90 
	299.2,94.5 294.8,94.5 294.8,99 290.2,99 290.2,103.5 285.8,103.5 285.8,108 281.2,108 281.2,112.5 285.8,112.5 285.8,117 
	290.2,117 290.2,121.5 294.8,121.5 294.8,126 299.2,126 299.2,130.5 303.8,130.5 303.8,126 308.2,126 308.2,121.5 312.8,121.5 
	312.8,117 317.2,117 317.2,112.5 321.8,112.5 321.8,108 "/>
<polygon class="st23" points="220.5,351 220.5,346.5 216,346.5 211.5,346.5 211.5,342 211.5,337.5 207,337.5 207,333 202.5,333 
	202.5,337.5 198,337.5 198,342 198,346.5 193.5,346.5 189,346.5 189,351 184.5,351 184.5,355.5 189,355.5 189,360 193.5,360 
	198,360 198,364.5 198,369 202.5,369 202.5,373.5 207,373.5 207,369 211.5,369 211.5,364.5 211.5,360 216,360 220.5,360 
	220.5,355.5 225,355.5 225,351 "/>
<polygon class="st23" points="414,351 414,346.5 409.5,346.5 405,346.5 405,342 405,337.5 400.5,337.5 400.5,333 396,333 396,337.5 
	391.5,337.5 391.5,342 391.5,346.5 387,346.5 382.5,346.5 382.5,351 378,351 378,355.5 382.5,355.5 382.5,360 387,360 391.5,360 
	391.5,364.5 391.5,369 396,369 396,373.5 400.5,373.5 400.5,369 405,369 405,364.5 405,360 409.5,360 414,360 414,355.5 
	418.5,355.5 418.5,351 "/>
<polygon class="st22" points="317.2,387 317.2,382.5 312.8,382.5 312.8,378 308.2,378 308.2,373.5 303.8,373.5 303.8,369 299.2,369 
	299.2,373.5 294.8,373.5 294.8,378 290.2,378 290.2,382.5 285.8,382.5 285.8,387 281.2,387 281.2,391.5 285.8,391.5 285.8,396 
	290.2,396 290.2,400.5 294.8,400.5 294.8,405 299.2,405 299.2,409.5 303.8,409.5 303.8,405 308.2,405 308.2,400.5 312.8,400.5 
	312.8,396 317.2,396 317.2,391.5 321.8,391.5 321.8,387 "/>
<g>
	<polygon class="st24" points="163.3,365.4 158.4,363.6 162,353.9 157.2,352.1 158.9,347.3 154.1,345.5 155.9,340.7 151,338.9 
		152.8,334 148,332.3 149.7,327.4 144.9,325.6 143.1,330.5 138.3,328.7 136.5,333.5 131.6,331.8 129.9,336.6 125,334.8 123.2,339.7 
		118.4,337.9 114.8,347.6 110,345.8 99.3,374.9 104.1,376.7 102.4,381.5 107.2,383.3 105.4,388.1 110.3,389.9 108.5,394.8 
		113.3,396.5 111.6,401.4 116.4,403.2 114.6,408 119.5,409.8 121.3,404.9 126.1,406.7 127.9,401.9 132.7,403.7 134.5,398.8 
		139.3,400.6 141.1,395.8 146,397.5 147.8,392.7 152.6,394.5 	"/>
	
		<rect x="121.1" y="341.1" transform="matrix(0.9386 0.3449 -0.3449 0.9386 127.1921 -22.3117)" class="st25" width="10.3" height="10.3"/>
	
		<rect x="128.8" y="337.3" transform="matrix(0.9386 0.3449 -0.3449 0.9386 125.3049 -24.4598)" class="st26" width="5.2" height="5.2"/>
	
		<rect x="120.4" y="345.3" transform="matrix(0.9386 0.3449 -0.3449 0.9386 127.5174 -21.075)" class="st26" width="5.2" height="5.2"/>
	
		<rect x="148.2" y="344.5" transform="matrix(0.9386 0.3449 -0.3449 0.9386 128.9506 -30.7076)" class="st26" width="5.2" height="5.2"/>
	
		<rect x="115" y="387.4" transform="matrix(0.9386 0.3449 -0.3449 0.9386 142.6168 -16.4519)" class="st27" width="5.2" height="10.3"/>
	
		<rect x="112.8" y="381" transform="matrix(0.9386 0.3449 -0.3449 0.9386 139.3625 -16.2571)" class="st27" width="5.2" height="5.2"/>
	
		<rect x="117.1" y="393.9" transform="matrix(0.9386 0.3449 -0.3449 0.9386 145.8712 -16.6468)" class="st27" width="5.2" height="15.5"/>
	
		<rect x="124.7" y="385.8" transform="matrix(0.9386 0.3449 -0.3449 0.9386 144.4397 -19.5759)" class="st27" width="5.2" height="20.6"/>
	
		<rect x="126.9" y="338.8" transform="matrix(0.9386 0.3449 -0.3449 0.9386 137.2804 -21.6595)" class="st28" width="5.2" height="72.3"/>
	
		<rect x="132.9" y="384" transform="matrix(0.9386 0.3449 -0.3449 0.9386 142.6829 -23.7416)" class="st27" width="10.3" height="10.3"/>
	
		<rect x="151.3" y="351.1" transform="matrix(0.9386 0.3449 -0.3449 0.9386 131.4239 -31.3582)" class="st26" width="5.2" height="5.2"/>
	
		<rect x="129.5" y="392.8" transform="matrix(0.9386 0.3449 -0.3449 0.9386 145.3511 -21.1378)" class="st27" width="5.2" height="10.3"/>
	
		<rect x="145.5" y="349.2" transform="matrix(0.9386 0.3449 -0.3449 0.9386 131.2935 -29.3405)" class="st25" width="5.2" height="10.3"/>
	
		<rect x="124.4" y="346.9" transform="matrix(0.9386 0.3449 -0.3449 0.9386 129.2098 -22.1813)" class="st25" width="5.2" height="10.3"/>
	
		<rect x="128.9" y="377.2" transform="matrix(0.9386 0.3449 -0.3449 0.9386 140.9905 -22.6354)" class="st24" width="10.3" height="15.5"/>
	
		<rect x="149" y="372.3" transform="matrix(0.9386 0.3449 -0.3449 0.9386 138.5832 -29.2745)" class="st27" width="5.2" height="5.2"/>
	
		<rect x="116.8" y="354.9" transform="matrix(0.9386 0.3449 -0.3449 0.9386 130.6413 -19.2522)" class="st25" width="5.2" height="5.2"/>
	
		<rect x="113.8" y="348.3" transform="matrix(0.9386 0.3449 -0.3449 0.9386 128.168 -18.6017)" class="st25" width="5.2" height="5.2"/>
	
		<rect x="135.4" y="334.3" transform="matrix(0.9386 0.3449 -0.3449 0.9386 124.6544 -26.9332)" class="st25" width="5.2" height="5.2"/>
</g>
<polygon class="st23" points="61.3,332.2 59.7,328 55.5,329.5 51.3,331.1 49.7,326.9 48.2,322.6 44,324.2 42.4,320 38.2,321.5 
	39.7,325.7 35.5,327.3 37,331.5 38.6,335.7 34.4,337.3 30.1,338.8 31.7,343 27.5,344.6 29,348.8 33.2,347.3 34.8,351.5 39,350 
	43.2,348.4 44.8,352.6 46.3,356.9 50.5,355.3 52.1,359.5 56.3,358 54.8,353.8 59,352.2 57.5,348 55.9,343.8 60.1,342.2 64.4,340.7 
	62.8,336.5 67,334.9 65.5,330.7 "/>
<g>
	<g>
		<polygon class="st0" points="234.9,244.2 234.9,233.3 234.9,222.5 245.7,222.5 245.7,200.8 256.6,200.8 256.6,168.2 267.4,168.2 
			267.4,157.3 278.3,157.3 278.3,146.5 321.7,146.5 321.7,157.3 332.6,157.3 332.6,168.2 343.4,168.2 343.4,200.8 354.3,200.8 
			354.3,222.5 365.1,222.5 365.1,233.3 365.1,244.2 376,244.2 376,309.3 365.1,309.3 365.1,320.1 354.3,320.1 354.3,331 343.4,331 
			343.4,341.8 310.9,341.8 289.1,341.8 256.6,341.8 256.6,331 245.7,331 245.7,320.1 234.9,320.1 234.9,309.3 224,309.3 224,244.2 
					"/>
		<polygon class="st1" points="245.7,255 245.7,233.3 256.6,233.3 256.6,211.6 267.4,211.6 267.4,179 278.3,179 278.3,168.2 
			289.1,168.2 289.1,157.3 310.9,157.3 310.9,168.2 321.7,168.2 321.7,179 332.6,179 332.6,211.6 343.4,211.6 343.4,233.3 
			354.3,233.3 354.3,255 365.1,255 365.1,298.4 354.3,298.4 354.3,309.3 343.4,309.3 343.4,320.1 332.6,320.1 332.6,331 321.7,331 
			310.9,331 289.1,331 278.3,331 267.4,331 267.4,320.1 256.6,320.1 256.6,309.3 245.7,309.3 245.7,298.4 234.9,298.4 234.9,255 		
			"/>
		<polygon class="st2" points="267.4,265.9 278.3,265.9 278.3,255 289.1,255 289.1,244.2 310.9,244.2 310.9,255 321.7,255 
			321.7,265.9 332.6,265.9 332.6,287.6 321.7,287.6 321.7,298.4 310.9,298.4 310.9,309.3 289.1,309.3 289.1,298.4 278.3,298.4 
			278.3,287.6 267.4,287.6 		"/>
		
			<rect x="289.1" y="255" transform="matrix(-1 -4.491708e-11 4.491708e-11 -1 589.1469 520.891)" class="st3" width="10.9" height="10.9"/>
	</g>
	
		<rect x="310.9" y="276.7" transform="matrix(-1 -4.491708e-11 4.491708e-11 -1 632.5592 564.3033)" class="st4" width="10.9" height="10.9"/>
	
		<rect x="300" y="287.6" transform="matrix(-1 -4.491708e-11 4.491708e-11 -1 610.8531 586.0095)" class="st4" width="10.9" height="10.9"/>
</g>
<g>
	<g>
		<polygon class="st5" points="375.5,35.1 367.6,30.5 363,38.3 355.2,33.7 350.6,41.5 342.7,36.9 338.1,44.7 330.3,40.1 316.4,63.6 
			324.2,68.2 319.6,76.1 327.4,80.7 322.8,88.5 330.6,93.1 326,101 333.8,105.6 380.8,133.4 388.7,138 393.3,130.1 401.1,134.8 
			405.7,126.9 413.6,131.6 418.2,123.7 426,128.4 430.7,120.5 454.1,134.4 458.8,126.6 435.3,112.7 439.9,104.9 432.1,100.2 
			436.7,92.4 428.9,87.8 433.5,80 425.7,75.3 430.3,67.5 422.5,62.9 		"/>
		
			<rect x="381.4" y="43.4" transform="matrix(0.5086 -0.861 0.861 0.5086 113.1462 375.9875)" class="st6" width="9.1" height="90.9"/>
		
			<rect x="365.1" y="85.2" transform="matrix(0.5086 -0.861 0.861 0.5086 104.3344 362.3299)" class="st6" width="9.1" height="9.1"/>
		
			<rect x="366.5" y="64.9" transform="matrix(0.5086 -0.861 0.861 0.5086 122.4995 353.5857)" class="st6" width="9.1" height="9.1"/>
		
			<rect x="363.3" y="52.5" transform="matrix(0.5086 -0.861 0.861 0.5086 131.6497 344.7062)" class="st6" width="9.1" height="9.1"/>
		
			<rect x="397.8" y="83.4" transform="matrix(0.5086 -0.861 0.861 0.5086 121.958 389.6452)" class="st6" width="9.1" height="9.1"/>
		
			<rect x="404.2" y="108.3" transform="matrix(0.5086 -0.861 0.861 0.5086 103.6576 407.4042)" class="st6" width="9.1" height="9.1"/>
		<rect x="394.6" y="71" transform="matrix(0.5086 -0.861 0.861 0.5086 131.1083 380.7657)" class="st6" width="9.1" height="9.1"/>
		
			<rect x="352.6" y="88.4" transform="matrix(0.5086 -0.861 0.861 0.5086 95.4549 353.1796)" class="st6" width="9.1" height="9.1"/>
		<rect x="391.8" y="111.5" transform="matrix(0.5086 -0.861 0.861 0.5086 94.778 398.254)" class="st6" width="9.1" height="9.1"/>
	</g>
	<g>
		<polygon class="st5" points="595.7,184.3 600,176.3 592,172 596.2,164 588.2,159.7 592.5,151.7 584.4,147.4 588.7,139.4 
			564.6,126.6 560.3,134.6 552.3,130.4 548,138.4 540,134.1 535.7,142.2 527.7,137.9 523.4,145.9 497.9,194.1 493.6,202.2 
			501.6,206.4 497.4,214.5 505.4,218.7 501.1,226.8 509.2,231 504.9,239.1 512.9,243.3 500.2,267.4 508.2,271.7 521,247.6 
			529,251.9 533.3,243.8 541.3,248.1 545.6,240 553.6,244.3 557.9,236.3 565.9,240.5 570.2,232.5 		"/>
		
			<rect x="538" y="151.8" transform="matrix(0.8834 0.4686 -0.4686 0.8834 155.6777 -231.2266)" class="st6" width="9.1" height="90.9"/>
		
			<rect x="536.3" y="176.4" transform="matrix(0.8834 0.4686 -0.4686 0.8834 147.842 -232.359)" class="st6" width="9.1" height="9.1"/>
		
			<rect x="556.7" y="176.9" transform="matrix(0.8834 0.4686 -0.4686 0.8834 150.4412 -241.8286)" class="st6" width="9.1" height="9.1"/>
		
			<rect x="569" y="173.1" transform="matrix(0.8834 0.4686 -0.4686 0.8834 150.1068 -248.0303)" class="st6" width="9.1" height="9.1"/>
		
			<rect x="539.6" y="209" transform="matrix(0.8834 0.4686 -0.4686 0.8834 163.5133 -230.0942)" class="st6" width="9.1" height="9.1"/>
		
			<rect x="515" y="216.6" transform="matrix(0.8834 0.4686 -0.4686 0.8834 164.1821 -217.6909)" class="st6" width="9.1" height="9.1"/>
		
			<rect x="551.9" y="205.2" transform="matrix(0.8834 0.4686 -0.4686 0.8834 163.1789 -236.2958)" class="st6" width="9.1" height="9.1"/>
		
			<rect x="532.6" y="164.1" transform="matrix(0.8834 0.4686 -0.4686 0.8834 141.6404 -232.0246)" class="st6" width="9.1" height="9.1"/>
		
			<rect x="511.3" y="204.3" transform="matrix(0.8834 0.4686 -0.4686 0.8834 157.9805 -217.3565)" class="st6" width="9.1" height="9.1"/>
	</g>
	<g>
		<polygon class="st7" points="522.2,35.1 513.4,39.3 509.2,30.4 500.3,34.6 496.1,25.7 487.2,29.9 483,21.1 474.2,25.3 470,16.4 
			443.4,29 447.6,37.8 438.7,42 442.9,50.9 434,55.1 438.2,64 429.4,68.2 433.6,77 424.7,81.2 454.1,143.3 462.9,139.1 467.1,148 
			476,143.8 480.2,152.7 489.1,148.5 493.3,157.3 502.1,153.1 506.3,162 515.2,157.8 527.8,184.4 536.7,180.2 524.1,153.6 
			532.9,149.4 528.7,140.5 537.6,136.3 533.4,127.5 542.3,123.3 538.1,114.4 546.9,110.2 542.7,101.4 551.6,97.2 		"/>
		
			<rect x="489.5" y="53.4" transform="matrix(0.9039 -0.4278 0.4278 0.9039 3.6749 221.3556)" class="st8" width="9.8" height="98.1"/>
		
			<rect x="464.4" y="39.5" transform="matrix(0.9039 -0.4278 0.4278 0.9039 24.0162 205.4698)" class="st8" width="9.8" height="19.6"/>
		
			<rect x="457.1" y="74.9" transform="matrix(0.9039 -0.4278 0.4278 0.9039 10.2454 205.3084)" class="st8" width="9.8" height="9.8"/>
		
			<rect x="469.2" y="77.3" transform="matrix(0.9039 -0.4278 0.4278 0.9039 10.884 212.8965)" class="st8" width="20" height="9.8"/>
		
			<rect x="443.6" y="70.2" transform="matrix(0.9039 -0.4278 0.4278 0.9039 10.9968 199.0636)" class="st8" width="9.8" height="9.8"/>
		
			<rect x="500.5" y="97.8" transform="matrix(0.9039 -0.4278 0.4278 0.9039 4.6274 226.0696)" class="st8" width="9.8" height="9.8"/>
		
			<rect x="505.2" y="84.8" transform="matrix(0.9039 -0.4278 0.4278 0.9039 10.6652 226.8122)" class="st8" width="9.8" height="9.8"/>
		
			<rect x="509.8" y="71.7" transform="matrix(0.9039 -0.4278 0.4278 0.9039 16.7031 227.5548)" class="st8" width="9.8" height="9.8"/>
		
			<rect x="456.2" y="118.8" transform="matrix(0.9039 -0.4278 0.4278 0.9039 -8.6108 209.1185)" class="st8" width="9.8" height="9.8"/>
		
			<rect x="481.8" y="126.1" transform="matrix(0.9039 -0.4278 0.4278 0.9039 -8.7722 222.8893)" class="st8" width="19.6" height="9.8"/>
		
			<rect x="470.3" y="123.4" transform="matrix(0.9039 -0.4278 0.4278 0.9039 -9.2143 215.594)" class="st8" width="9.8" height="9.8"/>
		
			<rect x="517.8" y="111.4" transform="matrix(0.9039 -0.4278 0.4278 0.9039 0.4946 234.7551)" class="st5" width="9.8" height="9.8"/>
		
			<rect x="477.7" y="49.5" transform="matrix(0.9039 -0.4278 0.4278 0.9039 23.0853 211.6547)" class="st8" width="9.8" height="9.8"/>
		
			<rect x="522.4" y="98.3" transform="matrix(0.9039 -0.4278 0.4278 0.9039 6.5324 235.4977)" class="st5" width="9.8" height="9.8"/>
		
			<rect x="443.6" y="92.2" transform="matrix(0.9039 -0.4278 0.4278 0.9039 1.5599 201.1756)" class="st5" width="9.8" height="9.8"/>
	</g>
</g>
<g>
	<polygon class="st9" points="423.5,214.6 428.5,214.6 428.5,209.6 433.5,209.6 433.5,204.6 468.5,204.6 468.5,209.6 473.5,209.6 
		473.5,214.6 478.5,214.6 478.5,239.6 473.5,239.6 473.5,244.6 468.5,244.6 468.5,249.6 433.5,249.6 433.5,244.6 428.5,244.6 
		428.5,239.6 423.5,239.6 	"/>
	
		<rect x="439.1" y="214.6" transform="matrix(-1 -4.489843e-11 4.489843e-11 -1 903.1176 434.1895)" class="st10" width="25" height="5"/>
	
		<rect x="444.1" y="209.6" transform="matrix(-1 -4.487400e-11 4.487400e-11 -1 903.1176 434.1895)" class="st10" width="15" height="15"/>
	
		<rect x="468.5" y="224.6" transform="matrix(-1 -4.475277e-11 4.475277e-11 -1 942.0018 459.1865)" class="st11" width="5" height="10"/>
	
		<rect x="463.5" y="234.6" transform="matrix(-1 -4.475277e-11 4.475277e-11 -1 932.0031 474.1847)" class="st11" width="5" height="5"/>
	
		<rect x="433.5" y="244.6" transform="matrix(-1 -4.511648e-11 4.511648e-11 -1 872.0103 494.1823)" class="st12" width="5" height="5"/>
	
		<rect x="428.5" y="239.6" transform="matrix(-1 -4.475277e-11 4.475277e-11 -1 862.0115 484.1835)" class="st12" width="5" height="5"/>
	
		<rect x="423.5" y="234.6" transform="matrix(-1 -4.511648e-11 4.511648e-11 -1 852.0127 474.1847)" class="st12" width="5" height="5"/>
	
		<rect x="428.5" y="214.6" transform="matrix(-1 -4.475277e-11 4.475277e-11 -1 862.0115 434.1895)" class="st11" width="5" height="5"/>
</g>
<g>
	<polygon class="st13" points="479.3,264.9 482.2,260 487,262.9 489.9,258 494.8,260.9 497.6,256 522,270.3 519.1,275.1 524,278 
		521.1,282.9 526,285.7 523.1,290.6 528,293.5 513.7,317.8 508.8,315 506,319.8 501.1,317 498.3,321.8 493.4,319 490.5,323.8 
		466.2,309.6 469,304.7 464.2,301.8 467,297 462.2,294.1 465,289.2 460.1,286.4 474.4,262 	"/>
	<polygon class="st14" points="491.1,278.3 493.9,273.5 508.5,282 505.7,286.9 510.5,289.8 502,304.4 497.1,301.5 494.2,306.4 
		479.6,297.8 482.5,292.9 477.6,290.1 486.2,275.5 	"/>
	
		<rect x="514.4" y="281.1" transform="matrix(-0.8624 -0.5061 0.5061 -0.8624 819.6766 790.52)" class="st15" width="5.6" height="5.6"/>
	<polygon class="st16" points="488.2,283.2 493.1,286.1 495.9,281.2 500.8,284 497.9,288.9 502.8,291.8 499.9,296.6 495.1,293.8 
		492.2,298.6 487.4,295.8 490.2,290.9 485.3,288.1 	"/>
	
		<rect x="513.6" y="288" transform="matrix(-0.8624 -0.5061 0.5061 -0.8624 811.7252 813.5527)" class="st15" width="5.6" height="16.9"/>
	
		<rect x="468.1" y="293.1" transform="matrix(-0.8624 -0.5061 0.5061 -0.8624 727.2169 789.5341)" class="st15" width="5.6" height="5.6"/>
	
		<rect x="467.5" y="280.1" transform="matrix(-0.8624 -0.5061 0.5061 -0.8624 731.2747 770.3127)" class="st15" width="5.6" height="11.3"/>
</g>
<g>
	<polygon class="st17" points="398.2,278.6 393.5,271.1 397.3,268.7 394.9,265 398.7,262.6 396.4,258.9 400.1,256.5 403.9,254.2 
		407.6,251.8 410,255.6 413.7,253.3 416.1,257 419.8,254.7 424.5,262.2 428.3,259.8 447,289.9 443.2,292.2 445.6,296 441.8,298.3 
		444.2,302.1 440.3,304.5 442.7,308.3 431.4,315.4 429,311.5 425.4,313.8 423.1,310 419.3,312.4 417,308.6 413.2,311 394.5,280.9 	
		"/>
	
		<rect x="423.8" y="258.1" transform="matrix(-0.8485 0.5292 -0.5292 -0.8485 929.9472 272.0513)" class="st18" width="4.4" height="22.1"/>
	
		<rect x="415.3" y="299.1" transform="matrix(-0.8485 0.5292 -0.5292 -0.8485 933.6309 344.1739)" class="st19" width="4.4" height="13.3"/>
	
		<rect x="423.4" y="307.5" transform="matrix(-0.8485 0.5292 -0.5292 -0.8485 954.8201 346.1046)" class="st19" width="8.9" height="4.4"/>
	
		<rect x="409.2" y="297.7" transform="matrix(-0.8485 0.5292 -0.5292 -0.8485 921.6105 344.7878)" class="st19" width="4.4" height="13.3"/>
	
		<rect x="428.7" y="306" transform="matrix(-0.8485 0.5292 -0.5292 -0.8485 960.8303 345.7976)" class="st19" width="4.4" height="8.9"/>
	
		<rect x="414.2" y="257.7" transform="matrix(-0.8485 0.5292 -0.5292 -0.8485 908.451 264.1104)" class="st20" width="4.4" height="8.9"/>
	
		<rect x="421.5" y="263.2" transform="matrix(-0.8485 0.5292 -0.5292 -0.8485 923.63 266.3481)" class="st20" width="4.4" height="4.4"/>
	
		<rect x="406" y="284.1" transform="matrix(-0.8485 0.5292 -0.5292 -0.8485 908.3622 321.3609)" class="st19" width="4.4" height="13.3"/>
	
		<rect x="421.4" y="304.9" transform="matrix(-0.8485 0.5292 -0.5292 -0.8485 945.6512 343.5599)" class="st19" width="4.4" height="4.4"/>
	
		<rect x="417.7" y="307.3" transform="matrix(-0.8485 0.5292 -0.5292 -0.8485 939.9481 349.8771)" class="st21" width="4.4" height="4.4"/>
	
		<rect x="423.8" y="308.7" transform="matrix(-0.8485 0.5292 -0.5292 -0.8485 951.9684 349.2632)" class="st21" width="4.4" height="4.4"/>
	
		<rect x="429.9" y="310.1" transform="matrix(-0.8485 0.5292 -0.5292 -0.8485 963.9888 348.6493)" class="st21" width="4.4" height="4.4"/>
</g>
<g>
	<polygon class="st24" points="436.7,365.2 441.6,363.5 438,353.8 442.8,352 441.1,347.1 445.9,345.4 444.1,340.5 449,338.7 
		447.2,333.9 452,332.1 450.3,327.3 455.1,325.5 456.9,330.3 461.7,328.5 463.5,333.4 468.4,331.6 470.1,336.5 475,334.7 
		476.8,339.5 481.6,337.7 485.2,347.4 490,345.7 500.7,374.7 495.9,376.5 497.6,381.4 492.8,383.1 494.6,388 489.7,389.8 
		491.5,394.6 486.7,396.4 488.4,401.2 483.6,403 485.4,407.9 480.5,409.6 478.7,404.8 473.9,406.6 472.1,401.7 467.3,403.5 
		465.5,398.7 460.7,400.4 458.9,395.6 454,397.4 452.2,392.5 447.4,394.3 	"/>
	
		<rect x="468.5" y="341" transform="matrix(-0.9386 0.3449 -0.3449 -0.9386 1037.719 507.6774)" class="st25" width="10.3" height="10.3"/>
	
		<rect x="466" y="337.2" transform="matrix(-0.9386 0.3449 -0.3449 -0.9386 1025.6449 497.0697)" class="st26" width="5.2" height="5.2"/>
	
		<rect x="474.4" y="345.1" transform="matrix(-0.9386 0.3449 -0.3449 -0.9386 1044.6702 509.5057)" class="st26" width="5.2" height="5.2"/>
	
		<rect x="446.6" y="344.3" transform="matrix(-0.9386 0.3449 -0.3449 -0.9386 990.5272 517.5612)" class="st26" width="5.2" height="5.2"/>
	
		<rect x="479.9" y="387.3" transform="matrix(-0.9386 0.3449 -0.3449 -0.9386 1070.6556 594.3768)" class="st27" width="5.2" height="10.3"/>
	
		<rect x="482" y="380.8" transform="matrix(-0.9386 0.3449 -0.3449 -0.9386 1071.7507 576.0847)" class="st27" width="5.2" height="5.2"/>
	
		<rect x="477.7" y="393.7" transform="matrix(-0.9386 0.3449 -0.3449 -0.9386 1069.5605 612.6688)" class="st27" width="5.2" height="15.5"/>
	
		<rect x="470.2" y="385.7" transform="matrix(-0.9386 0.3449 -0.3449 -0.9386 1053.0968 604.6225)" class="st27" width="5.2" height="20.6"/>
	
		<rect x="467.9" y="338.7" transform="matrix(-0.9386 0.3449 -0.3449 -0.9386 1041.3848 564.3818)" class="st28" width="5.2" height="72.3"/>
	
		<rect x="456.8" y="383.8" transform="matrix(-0.9386 0.3449 -0.3449 -0.9386 1029.6819 594.7479)" class="st27" width="10.3" height="10.3"/>
	
		<rect x="443.6" y="350.9" transform="matrix(-0.9386 0.3449 -0.3449 -0.9386 986.8706 531.4635)" class="st26" width="5.2" height="5.2"/>
	
		<rect x="465.3" y="392.6" transform="matrix(-0.9386 0.3449 -0.3449 -0.9386 1044.3173 609.7454)" class="st27" width="5.2" height="10.3"/>
	
		<rect x="449.3" y="349" transform="matrix(-0.9386 0.3449 -0.3449 -0.9386 998.2115 530.7303)" class="st25" width="5.2" height="10.3"/>
	
		<rect x="470.5" y="346.7" transform="matrix(-0.9386 0.3449 -0.3449 -0.9386 1038.4521 519.0183)" class="st25" width="5.2" height="10.3"/>
	
		<rect x="460.7" y="377" transform="matrix(-0.9386 0.3449 -0.3449 -0.9386 1035.8999 585.2353)" class="st24" width="10.3" height="15.5"/>
	
		<rect x="445.9" y="372.1" transform="matrix(-0.9386 0.3449 -0.3449 -0.9386 998.5826 571.7042)" class="st27" width="5.2" height="5.2"/>
	
		<rect x="478" y="354.8" transform="matrix(-0.9386 0.3449 -0.3449 -0.9386 1054.9159 527.0646)" class="st25" width="5.2" height="5.2"/>
	
		<rect x="481.1" y="348.2" transform="matrix(-0.9386 0.3449 -0.3449 -0.9386 1058.5724 513.1623)" class="st25" width="5.2" height="5.2"/>
	
		<rect x="459.4" y="334.1" transform="matrix(-0.9386 0.3449 -0.3449 -0.9386 1011.7426 493.4131)" class="st25" width="5.2" height="5.2"/>
</g>
<polygon class="st23" points="538.7,332.1 540.3,327.8 544.5,329.4 548.7,330.9 550.3,326.7 551.8,322.5 556,324 557.6,319.8 
	561.8,321.3 560.3,325.6 564.5,327.1 563,331.3 561.4,335.6 565.6,337.1 569.9,338.7 568.3,342.9 572.5,344.4 571,348.7 
	566.8,347.1 565.2,351.3 561,349.8 556.8,348.3 555.2,352.5 553.7,356.7 549.5,355.2 547.9,359.4 543.7,357.8 545.2,353.6 
	541,352.1 542.5,347.8 544.1,343.6 539.9,342.1 535.6,340.5 537.2,336.3 533,334.8 534.5,330.5 "/>
</svg>
