<?xml version="1.0" encoding="utf-8"?>
<!-- Generator: Adobe Illustrator 25.2.3, SVG Export Plug-In . SVG Version: 6.00 Build 0)  -->
<svg version="1.1" xmlns="http://www.w3.org/2000/svg" xmlns:xlink="http://www.w3.org/1999/xlink" x="0px" y="0px"
	 viewBox="0 0 1108 791" style="enable-background:new 0 0 1108 791;" xml:space="preserve">
<style type="text/css">
	.st0{opacity:0.48;}
	.st1{fill:#03464F;}
	.st2{fill:#026385;}
	.st3{fill:#35BCC0;}
	.st4{fill:#018F9F;}
	.st5{fill:#A53A1C;}
	.st6{fill:#DF5330;}
	.st7{fill:#FF8039;}
	.st8{fill:#EE5E2F;}
	.st9{fill:#A51959;}
	.st10{fill:#C12573;}
	.st11{fill:#FF4DA6;}
	.st12{fill:#D2276E;}
	.st13{fill:#7F7973;}
	.st14{fill:#C0B5AA;}
	.st15{fill:#E4DED5;}
	.st16{fill:#514A43;}
	.st17{fill:#606161;}
	.st18{fill:#BEBFB9;}
	.st19{fill:#3A3A3A;}
	.st20{fill:#302C28;}
	.st21{fill:#161616;}
	.st22{fill:#E1E1DF;}
	.st23{fill:#163A20;}
	.st24{fill:#1A5C31;}
	.st25{fill:#3E9B50;}
	.st26{fill:#23763E;}
	.st27{fill:#41296D;}
	.st28{fill:#513C82;}
	.st29{fill:#775ABF;}
	.st30{fill:#614293;}
	.st31{fill:#6C0F13;}
	.st32{fill:#9E1F25;}
	.st33{fill:#E8222E;}
	.st34{fill:#CF232E;}
	.st35{fill:#D27633;}
	.st36{fill:#DD8A34;}
	.st37{fill:#F5C032;}
	.st38{fill:#F3A634;}
	.st39{fill:#FFFFFF;}
	.st40{fill:none;}
	.st41{stroke:#000000;stroke-width:0.5;stroke-miterlimit:10;}
	.st42{font-family:'VCROSDMono';}
	.st43{font-size:36px;}
</style>
<g id="layout">
</g>
<g id="GUIDES">
</g>
<g id="LOSE_WEIGHT">
</g>
<g id="HEART_HEALTH">
</g>
<g id="TOILET">
	<rect x="99" y="58" class="st40" width="940" height="121"/>
	<text transform="matrix(1 0 0 1 210.4062 88.4761)"><tspan x="0" y="0" class="st41 st42 st43">Chia seeds are very high in fiber. </tspan><tspan x="94.9" y="43.2" class="st41 st42 st43">So, yes, they do help you </tspan><tspan x="158.2" y="86.4" class="st41 st42 st43">go to the bathroom.</tspan></text>
	<g>
		<polygon class="st2" points="652,460 652,451 661,451 661,424 652,424 652,415 364,415 364,424 355,424 355,451 364,451 364,460 
					"/>
		<polygon class="st2" points="598,487 589,487 499,487 373,487 373,496 373,505 373,514 382,514 382,532 391,532 391,550 400,550 
			400,568 409,568 409,586 418,586 418,595 436,595 436,604 445,604 445,613 472,613 472,622 571,622 571,613 589,613 589,685 
			463,685 463,694 454,694 454,703 463,703 463,712 670,712 670,694 670,685 670,487 616,487 		"/>
		<polygon class="st2" points="769,325 769,316 688,316 688,325 679,325 679,451 679,460 688,460 688,469 769,469 769,460 778,460 
			778,451 778,325 		"/>
	</g>
	<g>
		<rect x="760" y="370" class="st39" width="9" height="9"/>
		<polygon class="st39" points="760,325 733,325 733,334 760,334 760,361 769,361 769,334 769,325 		"/>
	</g>
</g>
</svg>
