<?xml version="1.0" encoding="utf-8"?>
<!-- Generator: Adobe Illustrator 25.2.3, SVG Export Plug-In . SVG Version: 6.00 Build 0)  -->
<svg version="1.1" xmlns="http://www.w3.org/2000/svg" xmlns:xlink="http://www.w3.org/1999/xlink" x="0px" y="0px"
	 viewBox="0 0 1108 791" style="enable-background:new 0 0 1108 791;" xml:space="preserve">
<style type="text/css">
	.st0{opacity:0.48;}
	.st1{fill:#03464F;}
	.st2{fill:#026385;}
	.st3{fill:#35BCC0;}
	.st4{fill:#018F9F;}
	.st5{fill:#A53A1C;}
	.st6{fill:#DF5330;}
	.st7{fill:#FF8039;}
	.st8{fill:#EE5E2F;}
	.st9{fill:#A51959;}
	.st10{fill:#C12573;}
	.st11{fill:#FF4DA6;}
	.st12{fill:#D2276E;}
	.st13{fill:#7F7973;}
	.st14{fill:#C0B5AA;}
	.st15{fill:#E4DED5;}
	.st16{fill:#514A43;}
	.st17{fill:#606161;}
	.st18{fill:#BEBFB9;}
	.st19{fill:#3A3A3A;}
	.st20{fill:#302C28;}
	.st21{fill:#161616;}
	.st22{fill:#E1E1DF;}
	.st23{fill:#163A20;}
	.st24{fill:#1A5C31;}
	.st25{fill:#3E9B50;}
	.st26{fill:#23763E;}
	.st27{fill:#41296D;}
	.st28{fill:#513C82;}
	.st29{fill:#775ABF;}
	.st30{fill:#614293;}
	.st31{fill:#6C0F13;}
	.st32{fill:#9E1F25;}
	.st33{fill:#E8222E;}
	.st34{fill:#CF232E;}
	.st35{fill:#D27633;}
	.st36{fill:#DD8A34;}
	.st37{fill:#F5C032;}
	.st38{fill:#F3A634;}
	.st39{fill:none;}
	.st40{stroke:#000000;stroke-width:0.5;stroke-miterlimit:10;}
	.st41{font-family:'VCROSDMono';}
	.st42{font-size:36px;}
	.st43{fill:#FFFFFF;}
</style>
<g id="layout">
</g>
<g id="GUIDES">
</g>
<g id="LOSE_WEIGHT">
</g>
<g id="HEART_HEALTH">
	<rect x="99" y="58" class="st39" width="940" height="121"/>
	<text transform="matrix(1 0 0 1 273.6875 88.4761)"><tspan x="0" y="0" class="st40 st41 st42">Studies are split on whether </tspan><tspan x="0" y="43.2" class="st40 st41 st42">chia seeds have a mitigating </tspan><tspan x="0" y="86.4" class="st40 st41 st42">effect on heart disease risk</tspan></text>
	<g>
		<path class="st38" d="M792.5,370v-36h-9v-18h-9v-9h-9v-9l-9,0v-9h-9v-9h-10h-8v-9h-18v-9h-18.9h-9h-26.9h-9h-9h-8.3v9h-9.7h-8.3v9
			h-9.6h-9v9h-9v18h-9v9h-9v9h-9v9h-9v0.2h-0.3v-9h-9v-9h-9v-9h-9v-18h-9v-9h-9h-9v-9h-9h-9v-9h-9h-9h-9h-26.9h-9h-17.9v9h-17.9v9
			h-9h-9v9h-9v9h-9v9h-9v9h-9v18h-9v36h-9v81v9h9v9v9h9v9h9v9v9h9v18h9v9h9v9h9v9h9v9v9h9v9h9v9h9v9h9v9h9v9v9h9v9v9h9v9h0.4h9.3v9
			h8.3v9h9v9h8.5v18h9.4v9h9v9h9v9h9v9h9v9h9v9h9v9h26.9V757h0.3v-8.8h8.7V748h0.3v-8.8h8.7V739h0.3v-8.8h8.7V730h0.3v-8.8h8.7V721
			h0.3v-8.8h8.7V712h0.3v-8.8h8.7V703h0.3v-8.8h8.7V694h0.8v-17.8h8.2V676h0.3v-9h9v-9h8.3v-8.8h0.1h0.4V649h8.9h0.4v-9h9v-9v-9h9
			v-9v-9h9v-9h9v-9h9v-9h9v-9h9v-9v-9h9v-9h9v-9h9v-9h9v-18h10v-9v-9h9v-9h9v-9v-9h9v-9l0.2-81H792.5z M557.7,379h0.3v0.2h-0.3V379z
			"/>
		<polygon class="st43" points="675.5,478 666.5,478 657.5,478 657.5,487 648.5,487 648.5,505 648.5,514 630.5,514 630.5,478 
			621.5,478 621.5,460 621.5,451 612.5,451 612.5,433 585.5,433 576.5,433 567.5,433 567.5,442 558.5,442 558.5,469 549.5,469 
			549.5,514 540.5,514 540.5,550 513.5,550 513.5,460 504.5,460 504.5,424 504.5,415 504.5,406 495.5,406 495.5,397 495.5,388 
			486.5,388 486.5,379 486.5,370 477.5,370 477.5,361 450.5,361 450.5,370 441.5,370 441.5,379 432.5,379 432.5,388 432.5,397 
			432.5,406 423.5,406 423.5,442 414.5,442 414.5,478 315.5,478 315.5,487 324.5,487 324.5,496 333.5,496 333.5,505 423.5,505 
			423.5,496 432.5,496 432.5,487 441.5,487 441.5,478 441.5,460 450.5,460 450.5,406 459.5,406 477.5,406 477.5,460 486.5,460 
			486.5,514 495.5,514 495.5,559 504.5,559 504.5,586 513.5,586 513.5,595 540.5,595 540.5,586 549.5,586 549.5,577 558.5,577 
			558.5,559 567.5,559 567.5,523 576.5,523 576.5,478 585.5,478 585.5,460 603.5,460 603.5,523 612.5,523 612.5,541 621.5,541 
			621.5,550 630.5,550 648.5,550 648.5,541 657.5,541 657.5,532 666.5,532 666.5,514 675.5,514 675.5,505 774.5,505 774.5,496 
			783.5,496 783.5,487 792.5,487 792.5,478 		"/>
	</g>
	<polygon class="st38" points="295,640 295,631 286,631 286,622 277,622 268,622 259,622 250,622 250,631 241,631 241,640 232,640 
		232,631 223,631 223,622 214,622 205,622 196,622 187,622 187,631 178,631 178,640 169,640 169,658 169,676 169,685 178,685 
		178,694 187,694 187,703 196,703 196,712 205,712 205,721 214,721 214,730 223,730 223,739 232,739 232,748 241,748 241,739 
		250,739 250,730 259,730 259,721 268,721 268,712 277,712 277,703 286,703 286,694 295,694 295,685 304,685 304,676 304,658 
		304,640 	"/>
	<polygon class="st38" points="970,298 970,289 961,289 961,280 952,280 943,280 934,280 925,280 925,289 916,289 916,298 907,298 
		907,289 898,289 898,280 889,280 880,280 871,280 862,280 862,289 853,289 853,298 844,298 844,316 844,334 844,343 853,343 
		853,352 862,352 862,361 871,361 871,370 880,370 880,379 889,379 889,388 898,388 898,397 907,397 907,406 916,406 916,397 
		925,397 925,388 934,388 934,379 943,379 943,370 952,370 952,361 961,361 961,352 970,352 970,343 979,343 979,334 979,316 
		979,298 	"/>
	<g>
		<g>
			<path class="st43" d="M346.9,481.5c1.9,0,1.9-3,0-3C345,478.5,345,481.5,346.9,481.5L346.9,481.5z"/>
		</g>
	</g>
</g>
<g id="TOILET">
</g>
</svg>
