<?xml version="1.0" encoding="utf-8"?>
<!-- Generator: Adobe Illustrator 25.2.3, SVG Export Plug-In . SVG Version: 6.00 Build 0)  -->
<svg version="1.1" id="Layer_1" xmlns="http://www.w3.org/2000/svg" xmlns:xlink="http://www.w3.org/1999/xlink" x="0px" y="0px"
	 viewBox="0 0 1108 791" style="enable-background:new 0 0 1108 791;" xml:space="preserve">
<style type="text/css">
	.st0{fill:none;}
	.st1{enable-background:new    ;}
	.st2{fill:none;stroke:#000000;stroke-width:0.5;stroke-miterlimit:10;}
	.st3{fill:#026385;}
	.st4{fill:#FFFFFF;}
</style>
<g id="layout">
</g>
<g id="GUIDES">
</g>
<g id="LOSE_WEIGHT">
</g>
<g id="HEART_HEALTH">
</g>
<rect x="99" y="58" class="st0" width="940" height="121"/>
<g class="st1">
	<path d="M217.4,83.2h7v-1.8h1.8v-1.8h3.5v3.5H228V85h-1.8v1.8h-10.5V85h-1.8v-1.8h-1.8V65.6h1.8v-1.8h1.8v-1.8h10.5v1.8h1.8v1.8
		h1.8v3.5h-3.5v-1.8h-1.8v-1.8h-7v1.8h-1.8v14.1h1.8V83.2z"/>
	<path d="M236.8,76.2v10.5h-3.5V62.1h3.5v8.8h1.8v-1.8h1.8v-1.8h5.3v1.8h1.8v1.8h1.8v1.8h1.8v14.1h-3.5V74.4h-1.8v-1.8h-1.8v-1.8
		H242v1.8h-1.8v1.8h-1.8v1.8H236.8z"/>
	<path d="M266.7,83.2h1.8v3.5h-3.5V85h-1.8v-1.8h-1.8v-8.8h-3.5v-3.5h7v10.5h1.8V83.2z M264.9,63.9v3.5h-3.5v-3.5H264.9z"/>
	<path d="M279,86.7V85h-1.8v-1.8h-1.8v-7h1.8v-1.8h1.8v-1.8h8.8v1.8h1.8v-3.5h-1.8v-1.8H279v-3.5h10.5v1.8h1.8v1.8h1.8v17.6h-3.5V85
		h-1.8v1.8H279z M280.7,83.2h7v-1.8h1.8v-3.5h-1.8v-1.8h-7v1.8H279v3.5h1.8V83.2z"/>
	<path d="M319.4,83.2h-1.8v-3.5h3.5v1.8h1.8v1.8h7v-3.5h-3.5v-1.8h-3.5v-1.8h-3.5v-1.8h-1.8v-3.5h1.8v-1.8h1.8v-1.8h10.5v1.8h1.8
		v1.8h1.8v3.5h-3.5v-1.8h-1.8v-1.8h-7v3.5h5.3v1.8h3.5v1.8h1.8v1.8h1.8v3.5h-1.8V85h-1.8v1.8h-10.5V85h-1.8V83.2z"/>
	<path d="M356.3,81.4v1.8h-1.8V85h-1.8v1.8h-10.5V85h-1.8v-1.8h-1.8V70.9h1.8v-1.8h1.8v-1.8h10.5v1.8h1.8v1.8h1.8v5.3h-1.8v1.8
		h-12.3v3.5h1.8v1.8h7v-1.8H356.3z M342.2,72.7v1.8h10.5v-1.8H351v-1.8h-7v1.8H342.2z"/>
	<path d="M377.4,81.4v1.8h-1.8V85h-1.8v1.8h-10.5V85h-1.8v-1.8h-1.8V70.9h1.8v-1.8h1.8v-1.8h10.5v1.8h1.8v1.8h1.8v5.3h-1.8v1.8
		h-12.3v3.5h1.8v1.8h7v-1.8H377.4z M363.3,72.7v1.8h10.5v-1.8h-1.8v-1.8h-7v1.8H363.3z"/>
	<path d="M395,70.9v-8.8h3.5v24.6H395v-3.5h-1.8V85h-1.8v1.8h-5.3V85h-1.8v-1.8h-1.8v-1.8h-1.8v-8.8h1.8v-1.8h1.8v-1.8h1.8v-1.8h5.3
		v1.8h1.8v1.8H395z M386.2,81.4h1.8v1.8h1.8v-1.8h1.8v-1.8h1.8v-5.3h-1.8v-1.8h-1.8v-1.8h-1.8v1.8h-1.8v1.8h-1.8v5.3h1.8V81.4z"/>
	<path d="M403.8,83.2H402v-3.5h3.5v1.8h1.8v1.8h7v-3.5h-3.5v-1.8h-3.5v-1.8h-3.5v-1.8H402v-3.5h1.8v-1.8h1.8v-1.8h10.5v1.8h1.8v1.8
		h1.8v3.5h-3.5v-1.8h-1.8v-1.8h-7v3.5h5.3v1.8h3.5v1.8h1.8v1.8h1.8v3.5h-1.8V85h-1.8v1.8h-10.5V85h-1.8V83.2z"/>
	<path d="M447.7,86.7V85H446v-1.8h-1.8v-7h1.8v-1.8h1.8v-1.8h8.8v1.8h1.8v-3.5h-1.8v-1.8h-8.8v-3.5h10.5v1.8h1.8v1.8h1.8v17.6h-3.5
		V85h-1.8v1.8H447.7z M449.5,83.2h7v-1.8h1.8v-3.5h-1.8v-1.8h-7v1.8h-1.8v3.5h1.8V83.2z"/>
	<path d="M468.8,76.2v10.5h-3.5V67.4h3.5v3.5h1.8v-1.8h1.8v-1.8h7v1.8h1.8v1.8h1.8v3.5h-3.5v-1.8h-1.8v-1.8h-3.5v1.8h-1.8v1.8h-1.8
		v1.8H468.8z"/>
	<path d="M504,81.4v1.8h-1.8V85h-1.8v1.8h-10.5V85h-1.8v-1.8h-1.8V70.9h1.8v-1.8h1.8v-1.8h10.5v1.8h1.8v1.8h1.8v5.3h-1.8v1.8h-12.3
		v3.5h1.8v1.8h7v-1.8H504z M489.9,72.7v1.8h10.5v-1.8h-1.8v-1.8h-7v1.8H489.9z"/>
	<path d="M528.6,67.4h3.5v10.5h1.8v1.8h1.8v1.8h3.5v-1.8h1.8v-1.8h1.8V67.4h3.5v12.3h-1.8v1.8h-1.8v1.8h-1.8V85h-1.8v1.8h-3.5V85
		h-1.8v-1.8h-1.8v-1.8h-1.8v-1.8h-1.8V67.4z"/>
	<path d="M567.2,81.4v1.8h-1.8V85h-1.8v1.8h-10.5V85h-1.8v-1.8h-1.8V70.9h1.8v-1.8h1.8v-1.8h10.5v1.8h1.8v1.8h1.8v5.3h-1.8v1.8
		h-12.3v3.5h1.8v1.8h7v-1.8H567.2z M553.2,72.7v1.8h10.5v-1.8H562v-1.8h-7v1.8H553.2z"/>
	<path d="M574.3,76.2v10.5h-3.5V67.4h3.5v3.5h1.8v-1.8h1.8v-1.8h7v1.8h1.8v1.8h1.8v3.5h-3.5v-1.8h-1.8v-1.8h-3.5v1.8h-1.8v1.8H576
		v1.8H574.3z"/>
	<path d="M595.4,86.7v-3.5h8.8v-1.8h1.8v-5.3h-1.8v1.8h-1.8v1.8h-7v-1.8h-1.8v-1.8h-1.8V65.6h3.5v8.8h1.8v1.8h3.5v-1.8h1.8v-1.8h1.8
		v-3.5h1.8v-3.5h3.5v17.6h-1.8V85h-1.8v1.8H595.4z"/>
	<path d="M637.6,76.2v10.5H634V62.1h3.5v8.8h1.8v-1.8h1.8v-1.8h5.3v1.8h1.8v1.8h1.8v1.8h1.8v14.1h-3.5V74.4h-1.8v-1.8h-1.8v-1.8
		h-1.8v1.8h-1.8v1.8h-1.8v1.8H637.6z"/>
	<path d="M667.4,83.2h1.8v3.5h-3.5V85h-1.8v-1.8h-1.8v-8.8h-3.5v-3.5h7v10.5h1.8V83.2z M665.7,63.9v3.5h-3.5v-3.5H665.7z"/>
	<path d="M679.7,85H678v-3.5h3.5v1.8h7v-1.8h1.8v-5.3h-1.8v1.8h-8.8v-1.8H678v-1.8h-1.8v-5.3h1.8v-1.8h1.8v-1.8h10.5v1.8h1.8v1.8
		h1.8v14.1H692V85h-1.8v1.8h-10.5V85z M690.3,72.7v-1.8h-1.8v-1.8h-7v1.8h-1.8v1.8h1.8v1.8h7v-1.8H690.3z"/>
	<path d="M700.8,76.2v10.5h-3.5V62.1h3.5v8.8h1.8v-1.8h1.8v-1.8h5.3v1.8h1.8v1.8h1.8v1.8h1.8v14.1h-3.5V74.4h-1.8v-1.8h-1.8v-1.8
		h-1.8v1.8h-1.8v1.8h-1.8v1.8H700.8z"/>
	<path d="M751.8,83.2h1.8v3.5h-3.5V85h-1.8v-1.8h-1.8v-8.8H743v-3.5h7v10.5h1.8V83.2z M750.1,63.9v3.5h-3.5v-3.5H750.1z"/>
	<path d="M764.1,72.7v14.1h-3.5V67.4h3.5v1.8h1.8v-1.8h8.8v1.8h1.8v1.8h1.8v15.8h-3.5V72.7h-1.8v-1.8h-7v1.8H764.1z"/>
	<path d="M813.3,86.7h-3.5V70.9h-5.3v-3.5h5.3v-3.5h1.8v-1.8h7v3.5h-5.3v1.8h5.3v3.5h-5.3V86.7z"/>
	<path d="M836.2,83.2h1.8v3.5h-3.5V85h-1.8v-1.8h-1.8v-8.8h-3.5v-3.5h7v10.5h1.8V83.2z M834.4,63.9v3.5h-3.5v-3.5H834.4z"/>
	<path d="M848.5,83.2v3.5H845V62.1h3.5v8.8h1.8v-1.8h1.8v-1.8h5.3v1.8h1.8v1.8h1.8v1.8h1.8v8.8h-1.8v1.8H859V85h-1.8v1.8H852V85
		h-1.8v-1.8H848.5z M853.8,83.2h1.8v-1.8h1.8v-1.8h1.8v-5.3h-1.8v-1.8h-1.8v-1.8h-1.8v1.8H852v1.8h-1.8v5.3h1.8v1.8h1.8V83.2z"/>
	<path d="M883.6,81.4v1.8h-1.8V85h-1.8v1.8h-10.5V85h-1.8v-1.8h-1.8V70.9h1.8v-1.8h1.8v-1.8h10.5v1.8h1.8v1.8h1.8v5.3h-1.8v1.8
		h-12.3v3.5h1.8v1.8h7v-1.8H883.6z M869.6,72.7v1.8h10.5v-1.8h-1.8v-1.8h-7v1.8H869.6z"/>
	<path d="M890.7,76.2v10.5h-3.5V67.4h3.5v3.5h1.8v-1.8h1.8v-1.8h7v1.8h1.8v1.8h1.8v3.5h-3.5v-1.8h-1.8v-1.8H896v1.8h-1.8v1.8h-1.8
		v1.8H890.7z"/>
	<path d="M917,83.2v3.5h-3.5v-3.5H917z"/>
</g>
<g class="st1">
	<path class="st2" d="M217.4,83.2h7v-1.8h1.8v-1.8h3.5v3.5H228V85h-1.8v1.8h-10.5V85h-1.8v-1.8h-1.8V65.6h1.8v-1.8h1.8v-1.8h10.5
		v1.8h1.8v1.8h1.8v3.5h-3.5v-1.8h-1.8v-1.8h-7v1.8h-1.8v14.1h1.8V83.2z"/>
	<path class="st2" d="M236.8,76.2v10.5h-3.5V62.1h3.5v8.8h1.8v-1.8h1.8v-1.8h5.3v1.8h1.8v1.8h1.8v1.8h1.8v14.1h-3.5V74.4h-1.8v-1.8
		h-1.8v-1.8H242v1.8h-1.8v1.8h-1.8v1.8H236.8z"/>
	<path class="st2" d="M266.7,83.2h1.8v3.5h-3.5V85h-1.8v-1.8h-1.8v-8.8h-3.5v-3.5h7v10.5h1.8V83.2z M264.9,63.9v3.5h-3.5v-3.5H264.9
		z"/>
	<path class="st2" d="M279,86.7V85h-1.8v-1.8h-1.8v-7h1.8v-1.8h1.8v-1.8h8.8v1.8h1.8v-3.5h-1.8v-1.8H279v-3.5h10.5v1.8h1.8v1.8h1.8
		v17.6h-3.5V85h-1.8v1.8H279z M280.7,83.2h7v-1.8h1.8v-3.5h-1.8v-1.8h-7v1.8H279v3.5h1.8V83.2z"/>
	<path class="st2" d="M319.4,83.2h-1.8v-3.5h3.5v1.8h1.8v1.8h7v-3.5h-3.5v-1.8h-3.5v-1.8h-3.5v-1.8h-1.8v-3.5h1.8v-1.8h1.8v-1.8
		h10.5v1.8h1.8v1.8h1.8v3.5h-3.5v-1.8h-1.8v-1.8h-7v3.5h5.3v1.8h3.5v1.8h1.8v1.8h1.8v3.5h-1.8V85h-1.8v1.8h-10.5V85h-1.8V83.2z"/>
	<path class="st2" d="M356.3,81.4v1.8h-1.8V85h-1.8v1.8h-10.5V85h-1.8v-1.8h-1.8V70.9h1.8v-1.8h1.8v-1.8h10.5v1.8h1.8v1.8h1.8v5.3
		h-1.8v1.8h-12.3v3.5h1.8v1.8h7v-1.8H356.3z M342.2,72.7v1.8h10.5v-1.8H351v-1.8h-7v1.8H342.2z"/>
	<path class="st2" d="M377.4,81.4v1.8h-1.8V85h-1.8v1.8h-10.5V85h-1.8v-1.8h-1.8V70.9h1.8v-1.8h1.8v-1.8h10.5v1.8h1.8v1.8h1.8v5.3
		h-1.8v1.8h-12.3v3.5h1.8v1.8h7v-1.8H377.4z M363.3,72.7v1.8h10.5v-1.8h-1.8v-1.8h-7v1.8H363.3z"/>
	<path class="st2" d="M395,70.9v-8.8h3.5v24.6H395v-3.5h-1.8V85h-1.8v1.8h-5.3V85h-1.8v-1.8h-1.8v-1.8h-1.8v-8.8h1.8v-1.8h1.8v-1.8
		h1.8v-1.8h5.3v1.8h1.8v1.8H395z M386.2,81.4h1.8v1.8h1.8v-1.8h1.8v-1.8h1.8v-5.3h-1.8v-1.8h-1.8v-1.8h-1.8v1.8h-1.8v1.8h-1.8v5.3
		h1.8V81.4z"/>
	<path class="st2" d="M403.8,83.2H402v-3.5h3.5v1.8h1.8v1.8h7v-3.5h-3.5v-1.8h-3.5v-1.8h-3.5v-1.8H402v-3.5h1.8v-1.8h1.8v-1.8h10.5
		v1.8h1.8v1.8h1.8v3.5h-3.5v-1.8h-1.8v-1.8h-7v3.5h5.3v1.8h3.5v1.8h1.8v1.8h1.8v3.5h-1.8V85h-1.8v1.8h-10.5V85h-1.8V83.2z"/>
	<path class="st2" d="M447.7,86.7V85H446v-1.8h-1.8v-7h1.8v-1.8h1.8v-1.8h8.8v1.8h1.8v-3.5h-1.8v-1.8h-8.8v-3.5h10.5v1.8h1.8v1.8
		h1.8v17.6h-3.5V85h-1.8v1.8H447.7z M449.5,83.2h7v-1.8h1.8v-3.5h-1.8v-1.8h-7v1.8h-1.8v3.5h1.8V83.2z"/>
	<path class="st2" d="M468.8,76.2v10.5h-3.5V67.4h3.5v3.5h1.8v-1.8h1.8v-1.8h7v1.8h1.8v1.8h1.8v3.5h-3.5v-1.8h-1.8v-1.8h-3.5v1.8
		h-1.8v1.8h-1.8v1.8H468.8z"/>
	<path class="st2" d="M504,81.4v1.8h-1.8V85h-1.8v1.8h-10.5V85h-1.8v-1.8h-1.8V70.9h1.8v-1.8h1.8v-1.8h10.5v1.8h1.8v1.8h1.8v5.3
		h-1.8v1.8h-12.3v3.5h1.8v1.8h7v-1.8H504z M489.9,72.7v1.8h10.5v-1.8h-1.8v-1.8h-7v1.8H489.9z"/>
	<path class="st2" d="M528.6,67.4h3.5v10.5h1.8v1.8h1.8v1.8h3.5v-1.8h1.8v-1.8h1.8V67.4h3.5v12.3h-1.8v1.8h-1.8v1.8h-1.8V85h-1.8
		v1.8h-3.5V85h-1.8v-1.8h-1.8v-1.8h-1.8v-1.8h-1.8V67.4z"/>
	<path class="st2" d="M567.2,81.4v1.8h-1.8V85h-1.8v1.8h-10.5V85h-1.8v-1.8h-1.8V70.9h1.8v-1.8h1.8v-1.8h10.5v1.8h1.8v1.8h1.8v5.3
		h-1.8v1.8h-12.3v3.5h1.8v1.8h7v-1.8H567.2z M553.2,72.7v1.8h10.5v-1.8H562v-1.8h-7v1.8H553.2z"/>
	<path class="st2" d="M574.3,76.2v10.5h-3.5V67.4h3.5v3.5h1.8v-1.8h1.8v-1.8h7v1.8h1.8v1.8h1.8v3.5h-3.5v-1.8h-1.8v-1.8h-3.5v1.8
		h-1.8v1.8H576v1.8H574.3z"/>
	<path class="st2" d="M595.4,86.7v-3.5h8.8v-1.8h1.8v-5.3h-1.8v1.8h-1.8v1.8h-7v-1.8h-1.8v-1.8h-1.8V65.6h3.5v8.8h1.8v1.8h3.5v-1.8
		h1.8v-1.8h1.8v-3.5h1.8v-3.5h3.5v17.6h-1.8V85h-1.8v1.8H595.4z"/>
	<path class="st2" d="M637.6,76.2v10.5H634V62.1h3.5v8.8h1.8v-1.8h1.8v-1.8h5.3v1.8h1.8v1.8h1.8v1.8h1.8v14.1h-3.5V74.4h-1.8v-1.8
		h-1.8v-1.8h-1.8v1.8h-1.8v1.8h-1.8v1.8H637.6z"/>
	<path class="st2" d="M667.4,83.2h1.8v3.5h-3.5V85h-1.8v-1.8h-1.8v-8.8h-3.5v-3.5h7v10.5h1.8V83.2z M665.7,63.9v3.5h-3.5v-3.5H665.7
		z"/>
	<path class="st2" d="M679.7,85H678v-3.5h3.5v1.8h7v-1.8h1.8v-5.3h-1.8v1.8h-8.8v-1.8H678v-1.8h-1.8v-5.3h1.8v-1.8h1.8v-1.8h10.5
		v1.8h1.8v1.8h1.8v14.1H692V85h-1.8v1.8h-10.5V85z M690.3,72.7v-1.8h-1.8v-1.8h-7v1.8h-1.8v1.8h1.8v1.8h7v-1.8H690.3z"/>
	<path class="st2" d="M700.8,76.2v10.5h-3.5V62.1h3.5v8.8h1.8v-1.8h1.8v-1.8h5.3v1.8h1.8v1.8h1.8v1.8h1.8v14.1h-3.5V74.4h-1.8v-1.8
		h-1.8v-1.8h-1.8v1.8h-1.8v1.8h-1.8v1.8H700.8z"/>
	<path class="st2" d="M751.8,83.2h1.8v3.5h-3.5V85h-1.8v-1.8h-1.8v-8.8H743v-3.5h7v10.5h1.8V83.2z M750.1,63.9v3.5h-3.5v-3.5H750.1z
		"/>
	<path class="st2" d="M764.1,72.7v14.1h-3.5V67.4h3.5v1.8h1.8v-1.8h8.8v1.8h1.8v1.8h1.8v15.8h-3.5V72.7h-1.8v-1.8h-7v1.8H764.1z"/>
	<path class="st2" d="M813.3,86.7h-3.5V70.9h-5.3v-3.5h5.3v-3.5h1.8v-1.8h7v3.5h-5.3v1.8h5.3v3.5h-5.3V86.7z"/>
	<path class="st2" d="M836.2,83.2h1.8v3.5h-3.5V85h-1.8v-1.8h-1.8v-8.8h-3.5v-3.5h7v10.5h1.8V83.2z M834.4,63.9v3.5h-3.5v-3.5H834.4
		z"/>
	<path class="st2" d="M848.5,83.2v3.5H845V62.1h3.5v8.8h1.8v-1.8h1.8v-1.8h5.3v1.8h1.8v1.8h1.8v1.8h1.8v8.8h-1.8v1.8H859V85h-1.8
		v1.8H852V85h-1.8v-1.8H848.5z M853.8,83.2h1.8v-1.8h1.8v-1.8h1.8v-5.3h-1.8v-1.8h-1.8v-1.8h-1.8v1.8H852v1.8h-1.8v5.3h1.8v1.8h1.8
		V83.2z"/>
	<path class="st2" d="M883.6,81.4v1.8h-1.8V85h-1.8v1.8h-10.5V85h-1.8v-1.8h-1.8V70.9h1.8v-1.8h1.8v-1.8h10.5v1.8h1.8v1.8h1.8v5.3
		h-1.8v1.8h-12.3v3.5h1.8v1.8h7v-1.8H883.6z M869.6,72.7v1.8h10.5v-1.8h-1.8v-1.8h-7v1.8H869.6z"/>
	<path class="st2" d="M890.7,76.2v10.5h-3.5V67.4h3.5v3.5h1.8v-1.8h1.8v-1.8h7v1.8h1.8v1.8h1.8v3.5h-3.5v-1.8h-1.8v-1.8H896v1.8
		h-1.8v1.8h-1.8v1.8H890.7z"/>
	<path class="st2" d="M917,83.2v3.5h-3.5v-3.5H917z"/>
</g>
<g class="st1">
	<path d="M322.9,108.8h1.8v3.5h-3.5v-1.8h-1.8v-1.8h-7v1.8h-1.8v3.5h1.8v1.8h8.8v1.8h1.8v1.8h1.8v7h-1.8v1.8h-1.8v1.8h-10.5v-1.8
		h-1.8v-1.8h-1.8v-3.5h3.5v1.8h1.8v1.8h7v-1.8h1.8v-3.5h-1.8v-1.8h-8.8v-1.8h-1.8v-1.8h-1.8v-7h1.8v-1.8h1.8v-1.8h10.5v1.8h1.8
		V108.8z"/>
	<path d="M331.7,129.9v-1.8h-1.8v-1.8h-1.8v-12.3h1.8v-1.8h1.8v-1.8h10.5v1.8h1.8v1.8h1.8v12.3H344v1.8h-1.8v1.8H331.7z
		 M333.4,126.4h7v-1.8h1.8v-8.8h-1.8v-1.8h-7v1.8h-1.8v8.8h1.8V126.4z"/>
	<path d="M356.3,126.4v-3.5h3.5v3.5H358v1.8h-1.8v1.8h-3.5v-1.8h1.8v-1.8H356.3z"/>
	<path d="M395,129.9v-3.5h8.8v-1.8h1.8v-5.3h-1.8v1.8H402v1.8h-7v-1.8h-1.8v-1.8h-1.8v-10.5h3.5v8.8h1.8v1.8h3.5v-1.8h1.8v-1.8h1.8
		v-3.5h1.8v-3.5h3.5v17.6h-1.8v1.8h-1.8v1.8H395z"/>
	<path d="M430.1,124.6v1.8h-1.8v1.8h-1.8v1.8H416v-1.8h-1.8v-1.8h-1.8v-12.3h1.8v-1.8h1.8v-1.8h10.5v1.8h1.8v1.8h1.8v5.3h-1.8v1.8
		H416v3.5h1.8v1.8h7v-1.8H430.1z M416,115.9v1.8h10.5v-1.8h-1.8v-1.8h-7v1.8H416z"/>
	<path d="M435.4,126.4h-1.8v-3.5h3.5v1.8h1.8v1.8h7v-3.5h-3.5v-1.8h-3.5v-1.8h-3.5v-1.8h-1.8v-3.5h1.8v-1.8h1.8v-1.8h10.5v1.8h1.8
		v1.8h1.8v3.5h-3.5v-1.8h-1.8v-1.8h-7v3.5h5.3v1.8h3.5v1.8h1.8v1.8h1.8v3.5h-1.8v1.8h-1.8v1.8h-10.5v-1.8h-1.8V126.4z"/>
	<path d="M461.8,126.4v-3.5h3.5v3.5h-1.8v1.8h-1.8v1.8h-3.5v-1.8h1.8v-1.8H461.8z"/>
	<path d="M509.2,126.4h1.8v3.5h-3.5v-1.8h-1.8v-1.8h-1.8v-12.3h-3.5v-3.5h3.5v-5.3h3.5v5.3h3.5v3.5h-3.5v10.5h1.8V126.4z"/>
	<path d="M521.5,119.4v10.5H518v-24.6h3.5v8.8h1.8v-1.8h1.8v-1.8h5.3v1.8h1.8v1.8h1.8v1.8h1.8v14.1h-3.5v-12.3h-1.8v-1.8h-1.8v-1.8
		h-1.8v1.8H525v1.8h-1.8v1.8H521.5z"/>
	<path d="M556.7,124.6v1.8h-1.8v1.8h-1.8v1.8h-10.5v-1.8h-1.8v-1.8h-1.8v-12.3h1.8v-1.8h1.8v-1.8h10.5v1.8h1.8v1.8h1.8v5.3h-1.8v1.8
		h-12.3v3.5h1.8v1.8h7v-1.8H556.7z M542.6,115.9v1.8h10.5v-1.8h-1.8v-1.8h-7v1.8H542.6z"/>
	<path d="M563.7,129.9v-3.5h8.8v-1.8h1.8v-5.3h-1.8v1.8h-1.8v1.8h-7v-1.8h-1.8v-1.8h-1.8v-10.5h3.5v8.8h1.8v1.8h3.5v-1.8h1.8v-1.8
		h1.8v-3.5h1.8v-3.5h3.5v17.6H576v1.8h-1.8v1.8H563.7z"/>
	<path d="M616.4,114.1v-8.8h3.5v24.6h-3.5v-3.5h-1.8v1.8h-1.8v1.8h-5.3v-1.8h-1.8v-1.8h-1.8v-1.8h-1.8v-8.8h1.8v-1.8h1.8v-1.8h1.8
		v-1.8h5.3v1.8h1.8v1.8H616.4z M607.7,124.6h1.8v1.8h1.8v-1.8h1.8v-1.8h1.8v-5.3h-1.8v-1.8h-1.8v-1.8h-1.8v1.8h-1.8v1.8h-1.8v5.3
		h1.8V124.6z"/>
	<path d="M627,129.9v-1.8h-1.8v-1.8h-1.8v-12.3h1.8v-1.8h1.8v-1.8h10.5v1.8h1.8v1.8h1.8v12.3h-1.8v1.8h-1.8v1.8H627z M628.7,126.4h7
		v-1.8h1.8v-8.8h-1.8v-1.8h-7v1.8H627v8.8h1.8V126.4z"/>
	<path d="M669.2,119.4v10.5h-3.5v-24.6h3.5v8.8h1.8v-1.8h1.8v-1.8h5.3v1.8h1.8v1.8h1.8v1.8h1.8v14.1h-3.5v-12.3H678v-1.8h-1.8v-1.8
		h-1.8v1.8h-1.8v1.8h-1.8v1.8H669.2z"/>
	<path d="M704.3,124.6v1.8h-1.8v1.8h-1.8v1.8h-10.5v-1.8h-1.8v-1.8h-1.8v-12.3h1.8v-1.8h1.8v-1.8h10.5v1.8h1.8v1.8h1.8v5.3h-1.8v1.8
		h-12.3v3.5h1.8v1.8h7v-1.8H704.3z M690.3,115.9v1.8h10.5v-1.8h-1.8v-1.8h-7v1.8H690.3z"/>
	<path d="M718.4,105.3v24.6h-3.5v-24.6H718.4z"/>
	<path d="M732.5,122.9v7h-3.5v-21.1h3.5v1.8h1.8v-1.8h8.8v1.8h1.8v1.8h1.8v8.8h-1.8v1.8H743v1.8h-8.8v-1.8H732.5z M743,114.1h-1.8
		v-1.8H736v1.8h-1.8v5.3h1.8v1.8h5.3v-1.8h1.8V114.1z"/>
	<path d="M774.6,129.9v-3.5h8.8v-1.8h1.8v-5.3h-1.8v1.8h-1.8v1.8h-7v-1.8h-1.8v-1.8h-1.8v-10.5h3.5v8.8h1.8v1.8h3.5v-1.8h1.8v-1.8
		h1.8v-3.5h1.8v-3.5h3.5v17.6h-1.8v1.8h-1.8v1.8H774.6z"/>
	<path d="M795.7,129.9v-1.8H794v-1.8h-1.8v-12.3h1.8v-1.8h1.8v-1.8h10.5v1.8h1.8v1.8h1.8v12.3H808v1.8h-1.8v1.8H795.7z M797.5,126.4
		h7v-1.8h1.8v-8.8h-1.8v-1.8h-7v1.8h-1.8v8.8h1.8V126.4z"/>
	<path d="M813.3,110.6h3.5v14.1h1.8v1.8h7v-1.8h1.8v-14.1h3.5v15.8h-1.8v1.8h-1.8v1.8h-10.5v-1.8h-1.8v-1.8h-1.8V110.6z"/>
</g>
<g class="st1">
	<path class="st2" d="M322.9,108.8h1.8v3.5h-3.5v-1.8h-1.8v-1.8h-7v1.8h-1.8v3.5h1.8v1.8h8.8v1.8h1.8v1.8h1.8v7h-1.8v1.8h-1.8v1.8
		h-10.5v-1.8h-1.8v-1.8h-1.8v-3.5h3.5v1.8h1.8v1.8h7v-1.8h1.8v-3.5h-1.8v-1.8h-8.8v-1.8h-1.8v-1.8h-1.8v-7h1.8v-1.8h1.8v-1.8h10.5
		v1.8h1.8V108.8z"/>
	<path class="st2" d="M331.7,129.9v-1.8h-1.8v-1.8h-1.8v-12.3h1.8v-1.8h1.8v-1.8h10.5v1.8h1.8v1.8h1.8v12.3H344v1.8h-1.8v1.8H331.7z
		 M333.4,126.4h7v-1.8h1.8v-8.8h-1.8v-1.8h-7v1.8h-1.8v8.8h1.8V126.4z"/>
	<path class="st2" d="M356.3,126.4v-3.5h3.5v3.5H358v1.8h-1.8v1.8h-3.5v-1.8h1.8v-1.8H356.3z"/>
	<path class="st2" d="M395,129.9v-3.5h8.8v-1.8h1.8v-5.3h-1.8v1.8H402v1.8h-7v-1.8h-1.8v-1.8h-1.8v-10.5h3.5v8.8h1.8v1.8h3.5v-1.8
		h1.8v-1.8h1.8v-3.5h1.8v-3.5h3.5v17.6h-1.8v1.8h-1.8v1.8H395z"/>
	<path class="st2" d="M430.1,124.6v1.8h-1.8v1.8h-1.8v1.8H416v-1.8h-1.8v-1.8h-1.8v-12.3h1.8v-1.8h1.8v-1.8h10.5v1.8h1.8v1.8h1.8
		v5.3h-1.8v1.8H416v3.5h1.8v1.8h7v-1.8H430.1z M416,115.9v1.8h10.5v-1.8h-1.8v-1.8h-7v1.8H416z"/>
	<path class="st2" d="M435.4,126.4h-1.8v-3.5h3.5v1.8h1.8v1.8h7v-3.5h-3.5v-1.8h-3.5v-1.8h-3.5v-1.8h-1.8v-3.5h1.8v-1.8h1.8v-1.8
		h10.5v1.8h1.8v1.8h1.8v3.5h-3.5v-1.8h-1.8v-1.8h-7v3.5h5.3v1.8h3.5v1.8h1.8v1.8h1.8v3.5h-1.8v1.8h-1.8v1.8h-10.5v-1.8h-1.8V126.4z"
		/>
	<path class="st2" d="M461.8,126.4v-3.5h3.5v3.5h-1.8v1.8h-1.8v1.8h-3.5v-1.8h1.8v-1.8H461.8z"/>
	<path class="st2" d="M509.2,126.4h1.8v3.5h-3.5v-1.8h-1.8v-1.8h-1.8v-12.3h-3.5v-3.5h3.5v-5.3h3.5v5.3h3.5v3.5h-3.5v10.5h1.8V126.4
		z"/>
	<path class="st2" d="M521.5,119.4v10.5H518v-24.6h3.5v8.8h1.8v-1.8h1.8v-1.8h5.3v1.8h1.8v1.8h1.8v1.8h1.8v14.1h-3.5v-12.3h-1.8
		v-1.8h-1.8v-1.8h-1.8v1.8H525v1.8h-1.8v1.8H521.5z"/>
	<path class="st2" d="M556.7,124.6v1.8h-1.8v1.8h-1.8v1.8h-10.5v-1.8h-1.8v-1.8h-1.8v-12.3h1.8v-1.8h1.8v-1.8h10.5v1.8h1.8v1.8h1.8
		v5.3h-1.8v1.8h-12.3v3.5h1.8v1.8h7v-1.8H556.7z M542.6,115.9v1.8h10.5v-1.8h-1.8v-1.8h-7v1.8H542.6z"/>
	<path class="st2" d="M563.7,129.9v-3.5h8.8v-1.8h1.8v-5.3h-1.8v1.8h-1.8v1.8h-7v-1.8h-1.8v-1.8h-1.8v-10.5h3.5v8.8h1.8v1.8h3.5
		v-1.8h1.8v-1.8h1.8v-3.5h1.8v-3.5h3.5v17.6H576v1.8h-1.8v1.8H563.7z"/>
	<path class="st2" d="M616.4,114.1v-8.8h3.5v24.6h-3.5v-3.5h-1.8v1.8h-1.8v1.8h-5.3v-1.8h-1.8v-1.8h-1.8v-1.8h-1.8v-8.8h1.8v-1.8
		h1.8v-1.8h1.8v-1.8h5.3v1.8h1.8v1.8H616.4z M607.7,124.6h1.8v1.8h1.8v-1.8h1.8v-1.8h1.8v-5.3h-1.8v-1.8h-1.8v-1.8h-1.8v1.8h-1.8
		v1.8h-1.8v5.3h1.8V124.6z"/>
	<path class="st2" d="M627,129.9v-1.8h-1.8v-1.8h-1.8v-12.3h1.8v-1.8h1.8v-1.8h10.5v1.8h1.8v1.8h1.8v12.3h-1.8v1.8h-1.8v1.8H627z
		 M628.7,126.4h7v-1.8h1.8v-8.8h-1.8v-1.8h-7v1.8H627v8.8h1.8V126.4z"/>
	<path class="st2" d="M669.2,119.4v10.5h-3.5v-24.6h3.5v8.8h1.8v-1.8h1.8v-1.8h5.3v1.8h1.8v1.8h1.8v1.8h1.8v14.1h-3.5v-12.3H678
		v-1.8h-1.8v-1.8h-1.8v1.8h-1.8v1.8h-1.8v1.8H669.2z"/>
	<path class="st2" d="M704.3,124.6v1.8h-1.8v1.8h-1.8v1.8h-10.5v-1.8h-1.8v-1.8h-1.8v-12.3h1.8v-1.8h1.8v-1.8h10.5v1.8h1.8v1.8h1.8
		v5.3h-1.8v1.8h-12.3v3.5h1.8v1.8h7v-1.8H704.3z M690.3,115.9v1.8h10.5v-1.8h-1.8v-1.8h-7v1.8H690.3z"/>
	<path class="st2" d="M718.4,105.3v24.6h-3.5v-24.6H718.4z"/>
	<path class="st2" d="M732.5,122.9v7h-3.5v-21.1h3.5v1.8h1.8v-1.8h8.8v1.8h1.8v1.8h1.8v8.8h-1.8v1.8H743v1.8h-8.8v-1.8H732.5z
		 M743,114.1h-1.8v-1.8H736v1.8h-1.8v5.3h1.8v1.8h5.3v-1.8h1.8V114.1z"/>
	<path class="st2" d="M774.6,129.9v-3.5h8.8v-1.8h1.8v-5.3h-1.8v1.8h-1.8v1.8h-7v-1.8h-1.8v-1.8h-1.8v-10.5h3.5v8.8h1.8v1.8h3.5
		v-1.8h1.8v-1.8h1.8v-3.5h1.8v-3.5h3.5v17.6h-1.8v1.8h-1.8v1.8H774.6z"/>
	<path class="st2" d="M795.7,129.9v-1.8H794v-1.8h-1.8v-12.3h1.8v-1.8h1.8v-1.8h10.5v1.8h1.8v1.8h1.8v12.3H808v1.8h-1.8v1.8H795.7z
		 M797.5,126.4h7v-1.8h1.8v-8.8h-1.8v-1.8h-7v1.8h-1.8v8.8h1.8V126.4z"/>
	<path class="st2" d="M813.3,110.6h3.5v14.1h1.8v1.8h7v-1.8h1.8v-14.1h3.5v15.8h-1.8v1.8h-1.8v1.8h-10.5v-1.8h-1.8v-1.8h-1.8V110.6z
		"/>
</g>
<g class="st1">
	<path d="M373.9,171.4h-1.8v-3.5h3.5v1.8h7v-1.8h1.8v-5.3h-1.8v1.8h-8.8v-1.8h-1.8v-1.8h-1.8v-5.3h1.8v-1.8h1.8V152h10.5v1.8h1.8
		v1.8h1.8v14.1h-1.8v1.8h-1.8v1.8h-10.5V171.4z M384.4,159.1v-1.8h-1.8v-1.8h-7v1.8h-1.8v1.8h1.8v1.8h7v-1.8H384.4z"/>
	<path d="M395,173.1v-1.8h-1.8v-1.8h-1.8v-12.3h1.8v-1.8h1.8v-1.8h10.5v1.8h1.8v1.8h1.8v12.3h-1.8v1.8h-1.8v1.8H395z M396.7,169.6h7
		v-1.8h1.8v-8.8h-1.8v-1.8h-7v1.8H395v8.8h1.8V169.6z"/>
	<path d="M446,169.6h1.8v3.5h-3.5v-1.8h-1.8v-1.8h-1.8v-12.3h-3.5v-3.5h3.5v-5.3h3.5v5.3h3.5v3.5h-3.5v10.5h1.8V169.6z"/>
	<path d="M458.3,173.1v-1.8h-1.8v-1.8h-1.8v-12.3h1.8v-1.8h1.8v-1.8h10.5v1.8h1.8v1.8h1.8v12.3h-1.8v1.8h-1.8v1.8H458.3z M460,169.6
		h7v-1.8h1.8v-8.8H467v-1.8h-7v1.8h-1.8v8.8h1.8V169.6z"/>
	<path d="M509.2,169.6h1.8v3.5h-3.5v-1.8h-1.8v-1.8H504v-12.3h-3.5v-3.5h3.5v-5.3h3.5v5.3h3.5v3.5h-3.5v10.5h1.8V169.6z"/>
	<path d="M521.5,162.6v10.5H518v-24.6h3.5v8.8h1.8v-1.8h1.8v-1.8h5.3v1.8h1.8v1.8h1.8v1.8h1.8v14.1h-3.5v-12.3h-1.8v-1.8h-1.8v-1.8
		h-1.8v1.8h-1.8v1.8h-1.8v1.8H521.5z"/>
	<path d="M556.7,167.8v1.8h-1.8v1.8h-1.8v1.8h-10.5v-1.8h-1.8v-1.8h-1.8v-12.3h1.8v-1.8h1.8v-1.8h10.5v1.8h1.8v1.8h1.8v5.3h-1.8v1.8
		h-12.3v3.5h1.8v1.8h7v-1.8H556.7z M542.6,159.1v1.8h10.5v-1.8h-1.8v-1.8h-7v1.8H542.6z"/>
	<path d="M584.8,169.6v3.5h-3.5v-24.6h3.5v8.8h1.8v-1.8h1.8v-1.8h5.3v1.8h1.8v1.8h1.8v1.8h1.8v8.8h-1.8v1.8h-1.8v1.8h-1.8v1.8h-5.3
		v-1.8h-1.8v-1.8H584.8z M590.1,169.6h1.8v-1.8h1.8v-1.8h1.8v-5.3h-1.8v-1.8h-1.8v-1.8h-1.8v1.8h-1.8v1.8h-1.8v5.3h1.8v1.8h1.8
		V169.6z"/>
	<path d="M605.9,173.1v-1.8h-1.8v-1.8h-1.8v-7h1.8v-1.8h1.8v-1.8h8.8v1.8h1.8v-3.5h-1.8v-1.8h-8.8V152h10.5v1.8h1.8v1.8h1.8v17.6
		h-3.5v-1.8h-1.8v1.8H605.9z M607.7,169.6h7v-1.8h1.8v-3.5h-1.8v-1.8h-7v1.8h-1.8v3.5h1.8V169.6z"/>
	<path d="M635.8,169.6h1.8v3.5H634v-1.8h-1.8v-1.8h-1.8v-12.3H627v-3.5h3.5v-5.3h3.5v5.3h3.5v3.5H634v10.5h1.8V169.6z"/>
	<path d="M648.1,162.6v10.5h-3.5v-24.6h3.5v8.8h1.8v-1.8h1.8v-1.8h5.3v1.8h1.8v1.8h1.8v1.8h1.8v14.1h-3.5v-12.3h-1.8v-1.8h-1.8v-1.8
		h-1.8v1.8h-1.8v1.8h-1.8v1.8H648.1z"/>
	<path d="M669.2,162.6v10.5h-3.5v-19.3h3.5v3.5h1.8v-1.8h1.8v-1.8h7v1.8h1.8v1.8h1.8v3.5h-3.5v-1.8H678v-1.8h-3.5v1.8h-1.8v1.8H671
		v1.8H669.2z"/>
	<path d="M690.3,173.1v-1.8h-1.8v-1.8h-1.8v-12.3h1.8v-1.8h1.8v-1.8h10.5v1.8h1.8v1.8h1.8v12.3h-1.8v1.8h-1.8v1.8H690.3z M692,169.6
		h7v-1.8h1.8v-8.8h-1.8v-1.8h-7v1.8h-1.8v8.8h1.8V169.6z"/>
	<path d="M711.4,173.1v-1.8h-1.8v-1.8h-1.8v-12.3h1.8v-1.8h1.8v-1.8h10.5v1.8h1.8v1.8h1.8v12.3h-1.8v1.8h-1.8v1.8H711.4z
		 M713.1,169.6h7v-1.8h1.8v-8.8h-1.8v-1.8h-7v1.8h-1.8v8.8h1.8V169.6z"/>
	<path d="M732.5,159.1v14.1H729v-19.3h3.5v1.8h1.8v-1.8h8.8v1.8h1.8v1.8h1.8v15.8H743v-14.1h-1.8v-1.8h-1.8v15.8H736v-15.8h-1.8v1.8
		H732.5z"/>
	<path d="M758.8,169.6v3.5h-3.5v-3.5H758.8z"/>
</g>
<g class="st1">
	<path class="st2" d="M373.9,171.4h-1.8v-3.5h3.5v1.8h7v-1.8h1.8v-5.3h-1.8v1.8h-8.8v-1.8h-1.8v-1.8h-1.8v-5.3h1.8v-1.8h1.8V152
		h10.5v1.8h1.8v1.8h1.8v14.1h-1.8v1.8h-1.8v1.8h-10.5V171.4z M384.4,159.1v-1.8h-1.8v-1.8h-7v1.8h-1.8v1.8h1.8v1.8h7v-1.8H384.4z"/>
	<path class="st2" d="M395,173.1v-1.8h-1.8v-1.8h-1.8v-12.3h1.8v-1.8h1.8v-1.8h10.5v1.8h1.8v1.8h1.8v12.3h-1.8v1.8h-1.8v1.8H395z
		 M396.7,169.6h7v-1.8h1.8v-8.8h-1.8v-1.8h-7v1.8H395v8.8h1.8V169.6z"/>
	<path class="st2" d="M446,169.6h1.8v3.5h-3.5v-1.8h-1.8v-1.8h-1.8v-12.3h-3.5v-3.5h3.5v-5.3h3.5v5.3h3.5v3.5h-3.5v10.5h1.8V169.6z"
		/>
	<path class="st2" d="M458.3,173.1v-1.8h-1.8v-1.8h-1.8v-12.3h1.8v-1.8h1.8v-1.8h10.5v1.8h1.8v1.8h1.8v12.3h-1.8v1.8h-1.8v1.8H458.3
		z M460,169.6h7v-1.8h1.8v-8.8H467v-1.8h-7v1.8h-1.8v8.8h1.8V169.6z"/>
	<path class="st2" d="M509.2,169.6h1.8v3.5h-3.5v-1.8h-1.8v-1.8H504v-12.3h-3.5v-3.5h3.5v-5.3h3.5v5.3h3.5v3.5h-3.5v10.5h1.8V169.6z
		"/>
	<path class="st2" d="M521.5,162.6v10.5H518v-24.6h3.5v8.8h1.8v-1.8h1.8v-1.8h5.3v1.8h1.8v1.8h1.8v1.8h1.8v14.1h-3.5v-12.3h-1.8
		v-1.8h-1.8v-1.8h-1.8v1.8h-1.8v1.8h-1.8v1.8H521.5z"/>
	<path class="st2" d="M556.7,167.8v1.8h-1.8v1.8h-1.8v1.8h-10.5v-1.8h-1.8v-1.8h-1.8v-12.3h1.8v-1.8h1.8v-1.8h10.5v1.8h1.8v1.8h1.8
		v5.3h-1.8v1.8h-12.3v3.5h1.8v1.8h7v-1.8H556.7z M542.6,159.1v1.8h10.5v-1.8h-1.8v-1.8h-7v1.8H542.6z"/>
	<path class="st2" d="M584.8,169.6v3.5h-3.5v-24.6h3.5v8.8h1.8v-1.8h1.8v-1.8h5.3v1.8h1.8v1.8h1.8v1.8h1.8v8.8h-1.8v1.8h-1.8v1.8
		h-1.8v1.8h-5.3v-1.8h-1.8v-1.8H584.8z M590.1,169.6h1.8v-1.8h1.8v-1.8h1.8v-5.3h-1.8v-1.8h-1.8v-1.8h-1.8v1.8h-1.8v1.8h-1.8v5.3
		h1.8v1.8h1.8V169.6z"/>
	<path class="st2" d="M605.9,173.1v-1.8h-1.8v-1.8h-1.8v-7h1.8v-1.8h1.8v-1.8h8.8v1.8h1.8v-3.5h-1.8v-1.8h-8.8V152h10.5v1.8h1.8v1.8
		h1.8v17.6h-3.5v-1.8h-1.8v1.8H605.9z M607.7,169.6h7v-1.8h1.8v-3.5h-1.8v-1.8h-7v1.8h-1.8v3.5h1.8V169.6z"/>
	<path class="st2" d="M635.8,169.6h1.8v3.5H634v-1.8h-1.8v-1.8h-1.8v-12.3H627v-3.5h3.5v-5.3h3.5v5.3h3.5v3.5H634v10.5h1.8V169.6z"
		/>
	<path class="st2" d="M648.1,162.6v10.5h-3.5v-24.6h3.5v8.8h1.8v-1.8h1.8v-1.8h5.3v1.8h1.8v1.8h1.8v1.8h1.8v14.1h-3.5v-12.3h-1.8
		v-1.8h-1.8v-1.8h-1.8v1.8h-1.8v1.8h-1.8v1.8H648.1z"/>
	<path class="st2" d="M669.2,162.6v10.5h-3.5v-19.3h3.5v3.5h1.8v-1.8h1.8v-1.8h7v1.8h1.8v1.8h1.8v3.5h-3.5v-1.8H678v-1.8h-3.5v1.8
		h-1.8v1.8H671v1.8H669.2z"/>
	<path class="st2" d="M690.3,173.1v-1.8h-1.8v-1.8h-1.8v-12.3h1.8v-1.8h1.8v-1.8h10.5v1.8h1.8v1.8h1.8v12.3h-1.8v1.8h-1.8v1.8H690.3
		z M692,169.6h7v-1.8h1.8v-8.8h-1.8v-1.8h-7v1.8h-1.8v8.8h1.8V169.6z"/>
	<path class="st2" d="M711.4,173.1v-1.8h-1.8v-1.8h-1.8v-12.3h1.8v-1.8h1.8v-1.8h10.5v1.8h1.8v1.8h1.8v12.3h-1.8v1.8h-1.8v1.8H711.4
		z M713.1,169.6h7v-1.8h1.8v-8.8h-1.8v-1.8h-7v1.8h-1.8v8.8h1.8V169.6z"/>
	<path class="st2" d="M732.5,159.1v14.1H729v-19.3h3.5v1.8h1.8v-1.8h8.8v1.8h1.8v1.8h1.8v15.8H743v-14.1h-1.8v-1.8h-1.8v15.8H736
		v-15.8h-1.8v1.8H732.5z"/>
	<path class="st2" d="M758.8,169.6v3.5h-3.5v-3.5H758.8z"/>
</g>
<g>
	<polygon class="st3" points="652,460 652,451 661,451 661,424 652,424 652,415 364,415 364,424 355,424 355,451 364,451 364,460 	
		"/>
	<polygon class="st3" points="598,487 589,487 499,487 373,487 373,496 373,505 373,514 382,514 382,532 391,532 391,550 400,550 
		400,568 409,568 409,586 418,586 418,595 436,595 436,604 445,604 445,613 472,613 472,622 571,622 571,613 589,613 589,685 
		463,685 463,694 454,694 454,703 463,703 463,712 670,712 670,694 670,685 670,487 616,487 	"/>
	<polygon class="st3" points="769,325 769,316 688,316 688,325 679,325 679,451 679,460 688,460 688,469 769,469 769,460 778,460 
		778,451 778,325 	"/>
</g>
<g>
	<rect x="760" y="370" class="st4" width="9" height="9"/>
	<polygon class="st4" points="760,325 733,325 733,334 760,334 760,361 769,361 769,334 769,325 	"/>
</g>
</svg>
