<?xml version="1.0" encoding="utf-8"?>
<!-- Generator: Adobe Illustrator 25.2.3, SVG Export Plug-In . SVG Version: 6.00 Build 0)  -->
<svg version="1.1" id="Layer_1" xmlns="http://www.w3.org/2000/svg" xmlns:xlink="http://www.w3.org/1999/xlink" x="0px" y="0px"
	 viewBox="0 0 1108 791" style="enable-background:new 0 0 1108 791;" xml:space="preserve">
<style type="text/css">
	.st0{fill:none;}
	.st1{font-family:'VCROSDMono';}
	.st2{font-size:36px;}
	.st3{enable-background:new    ;}
	.st4{fill:none;stroke:#000000;stroke-width:0.5;stroke-miterlimit:10;}
	.st5{fill:#F5C032;}
	.st6{fill:#D27633;}
	.st7{fill:#161616;}
	.st8{fill:#F3A634;}
</style>
<g id="layout">
</g>
<g id="GUIDES">
</g>
<rect x="99" y="58" class="st0" width="940" height="121"/>
<text transform="matrix(1 0 0 1 136.5781 88.4761)" class="st1 st2">Chia seeds are high in protein and fiber, </text>
<g class="st3">
	<path class="st4" d="M143.6,83.2h7v-1.8h1.8v-1.8h3.5v3.5h-1.8V85h-1.8v1.8h-10.5V85h-1.8v-1.8h-1.8V65.6h1.8v-1.8h1.8v-1.8h10.5
		v1.8h1.8v1.8h1.8v3.5h-3.5v-1.8h-1.8v-1.8h-7v1.8h-1.8v14.1h1.8V83.2z"/>
	<path class="st4" d="M162.9,76.2v10.5h-3.5V62.1h3.5v8.8h1.8v-1.8h1.8v-1.8h5.3v1.8h1.8v1.8h1.8v1.8h1.8v14.1h-3.5V74.4h-1.8v-1.8
		H170v-1.8h-1.8v1.8h-1.8v1.8h-1.8v1.8H162.9z"/>
	<path class="st4" d="M192.8,83.2h1.8v3.5h-3.5V85h-1.8v-1.8h-1.8v-8.8H184v-3.5h7v10.5h1.8V83.2z M191.1,63.9v3.5h-3.5v-3.5H191.1z
		"/>
	<path class="st4" d="M205.1,86.7V85h-1.8v-1.8h-1.8v-7h1.8v-1.8h1.8v-1.8h8.8v1.8h1.8v-3.5h-1.8v-1.8h-8.8v-3.5h10.5v1.8h1.8v1.8
		h1.8v17.6h-3.5V85h-1.8v1.8H205.1z M206.9,83.2h7v-1.8h1.8v-3.5h-1.8v-1.8h-7v1.8h-1.8v3.5h1.8V83.2z"/>
	<path class="st4" d="M245.6,83.2h-1.8v-3.5h3.5v1.8h1.8v1.8h7v-3.5h-3.5v-1.8h-3.5v-1.8h-3.5v-1.8h-1.8v-3.5h1.8v-1.8h1.8v-1.8
		h10.5v1.8h1.8v1.8h1.8v3.5h-3.5v-1.8h-1.8v-1.8h-7v3.5h5.3v1.8h3.5v1.8h1.8v1.8h1.8v3.5h-1.8V85h-1.8v1.8h-10.5V85h-1.8V83.2z"/>
	<path class="st4" d="M282.5,81.4v1.8h-1.8V85H279v1.8h-10.5V85h-1.8v-1.8h-1.8V70.9h1.8v-1.8h1.8v-1.8H279v1.8h1.8v1.8h1.8v5.3
		h-1.8v1.8h-12.3v3.5h1.8v1.8h7v-1.8H282.5z M268.4,72.7v1.8H279v-1.8h-1.8v-1.8h-7v1.8H268.4z"/>
	<path class="st4" d="M303.6,81.4v1.8h-1.8V85h-1.8v1.8h-10.5V85h-1.8v-1.8H286V70.9h1.8v-1.8h1.8v-1.8h10.5v1.8h1.8v1.8h1.8v5.3
		h-1.8v1.8h-12.3v3.5h1.8v1.8h7v-1.8H303.6z M289.5,72.7v1.8h10.5v-1.8h-1.8v-1.8h-7v1.8H289.5z"/>
	<path class="st4" d="M321.1,70.9v-8.8h3.5v24.6h-3.5v-3.5h-1.8V85h-1.8v1.8h-5.3V85h-1.8v-1.8h-1.8v-1.8h-1.8v-8.8h1.8v-1.8h1.8
		v-1.8h1.8v-1.8h5.3v1.8h1.8v1.8H321.1z M312.4,81.4h1.8v1.8h1.8v-1.8h1.8v-1.8h1.8v-5.3h-1.8v-1.8h-1.8v-1.8h-1.8v1.8h-1.8v1.8
		h-1.8v5.3h1.8V81.4z"/>
	<path class="st4" d="M329.9,83.2h-1.8v-3.5h3.5v1.8h1.8v1.8h7v-3.5H337v-1.8h-3.5v-1.8h-3.5v-1.8h-1.8v-3.5h1.8v-1.8h1.8v-1.8h10.5
		v1.8h1.8v1.8h1.8v3.5h-3.5v-1.8h-1.8v-1.8h-7v3.5h5.3v1.8h3.5v1.8h1.8v1.8h1.8v3.5H344V85h-1.8v1.8h-10.5V85h-1.8V83.2z"/>
	<path class="st4" d="M373.9,86.7V85h-1.8v-1.8h-1.8v-7h1.8v-1.8h1.8v-1.8h8.8v1.8h1.8v-3.5h-1.8v-1.8h-8.8v-3.5h10.5v1.8h1.8v1.8
		h1.8v17.6h-3.5V85h-1.8v1.8H373.9z M375.6,83.2h7v-1.8h1.8v-3.5h-1.8v-1.8h-7v1.8h-1.8v3.5h1.8V83.2z"/>
	<path class="st4" d="M395,76.2v10.5h-3.5V67.4h3.5v3.5h1.8v-1.8h1.8v-1.8h7v1.8h1.8v1.8h1.8v3.5h-3.5v-1.8h-1.8v-1.8h-3.5v1.8h-1.8
		v1.8h-1.8v1.8H395z"/>
	<path class="st4" d="M430.1,81.4v1.8h-1.8V85h-1.8v1.8h-10.5V85h-1.8v-1.8h-1.8V70.9h1.8v-1.8h1.8v-1.8h10.5v1.8h1.8v1.8h1.8v5.3
		h-1.8v1.8h-12.3v3.5h1.8v1.8h7v-1.8H430.1z M416.1,72.7v1.8h10.5v-1.8h-1.8v-1.8h-7v1.8H416.1z"/>
	<path class="st4" d="M458.3,76.2v10.5h-3.5V62.1h3.5v8.8h1.8v-1.8h1.8v-1.8h5.3v1.8h1.8v1.8h1.8v1.8h1.8v14.1h-3.5V74.4H467v-1.8
		h-1.8v-1.8h-1.8v1.8h-1.8v1.8H460v1.8H458.3z"/>
	<path class="st4" d="M488.1,83.2h1.8v3.5h-3.5V85h-1.8v-1.8h-1.8v-8.8h-3.5v-3.5h7v10.5h1.8V83.2z M486.4,63.9v3.5h-3.5v-3.5H486.4
		z"/>
	<path class="st4" d="M500.4,85h-1.8v-3.5h3.5v1.8h7v-1.8h1.8v-5.3h-1.8v1.8h-8.8v-1.8h-1.8v-1.8h-1.8v-5.3h1.8v-1.8h1.8v-1.8H511
		v1.8h1.8v1.8h1.8v14.1h-1.8V85H511v1.8h-10.5V85z M511,72.7v-1.8h-1.8v-1.8h-7v1.8h-1.8v1.8h1.8v1.8h7v-1.8H511z"/>
	<path class="st4" d="M521.5,76.2v10.5H518V62.1h3.5v8.8h1.8v-1.8h1.8v-1.8h5.3v1.8h1.8v1.8h1.8v1.8h1.8v14.1h-3.5V74.4h-1.8v-1.8
		h-1.8v-1.8h-1.8v1.8h-1.8v1.8h-1.8v1.8H521.5z"/>
	<path class="st4" d="M572.5,83.2h1.8v3.5h-3.5V85H569v-1.8h-1.8v-8.8h-3.5v-3.5h7v10.5h1.8V83.2z M570.8,63.9v3.5h-3.5v-3.5H570.8z
		"/>
	<path class="st4" d="M584.8,72.7v14.1h-3.5V67.4h3.5v1.8h1.8v-1.8h8.8v1.8h1.8v1.8h1.8v15.8h-3.5V72.7h-1.8v-1.8h-7v1.8H584.8z"/>
	<path class="st4" d="M627,79.7v7h-3.5V65.6h3.5v1.8h1.8v-1.8h8.8v1.8h1.8v1.8h1.8v8.8h-1.8v1.8h-1.8v1.8h-8.8v-1.8H627z
		 M637.6,70.9h-1.8v-1.8h-5.3v1.8h-1.8v5.3h1.8v1.8h5.3v-1.8h1.8V70.9z"/>
	<path class="st4" d="M648.1,76.2v10.5h-3.5V67.4h3.5v3.5h1.8v-1.8h1.8v-1.8h7v1.8h1.8v1.8h1.8v3.5h-3.5v-1.8h-1.8v-1.8h-3.5v1.8
		h-1.8v1.8h-1.8v1.8H648.1z"/>
	<path class="st4" d="M669.2,86.7V85h-1.8v-1.8h-1.8V70.9h1.8v-1.8h1.8v-1.8h10.5v1.8h1.8v1.8h1.8v12.3h-1.8V85h-1.8v1.8H669.2z
		 M671,83.2h7v-1.8h1.8v-8.8H678v-1.8h-7v1.8h-1.8v8.8h1.8V83.2z"/>
	<path class="st4" d="M699.1,83.2h1.8v3.5h-3.5V85h-1.8v-1.8h-1.8V70.9h-3.5v-3.5h3.5v-5.3h3.5v5.3h3.5v3.5h-3.5v10.5h1.8V83.2z"/>
	<path class="st4" d="M725.4,81.4v1.8h-1.8V85h-1.8v1.8h-10.5V85h-1.8v-1.8h-1.8V70.9h1.8v-1.8h1.8v-1.8h10.5v1.8h1.8v1.8h1.8v5.3
		h-1.8v1.8h-12.3v3.5h1.8v1.8h7v-1.8H725.4z M711.4,72.7v1.8h10.5v-1.8h-1.8v-1.8h-7v1.8H711.4z"/>
	<path class="st4" d="M741.3,83.2h1.8v3.5h-3.5V85h-1.8v-1.8H736v-8.8h-3.5v-3.5h7v10.5h1.8V83.2z M739.5,63.9v3.5H736v-3.5H739.5z"
		/>
	<path class="st4" d="M753.6,72.7v14.1h-3.5V67.4h3.5v1.8h1.8v-1.8h8.8v1.8h1.8v1.8h1.8v15.8h-3.5V72.7h-1.8v-1.8h-7v1.8H753.6z"/>
	<path class="st4" d="M795.8,86.7V85H794v-1.8h-1.8v-7h1.8v-1.8h1.8v-1.8h8.8v1.8h1.8v-3.5h-1.8v-1.8h-8.8v-3.5h10.5v1.8h1.8v1.8
		h1.8v17.6h-3.5V85h-1.8v1.8H795.8z M797.5,83.2h7v-1.8h1.8v-3.5h-1.8v-1.8h-7v1.8h-1.8v3.5h1.8V83.2z"/>
	<path class="st4" d="M816.9,72.7v14.1h-3.5V67.4h3.5v1.8h1.8v-1.8h8.8v1.8h1.8v1.8h1.8v15.8h-3.5V72.7h-1.8v-1.8h-7v1.8H816.9z"/>
	<path class="st4" d="M848.5,70.9v-8.8h3.5v24.6h-3.5v-3.5h-1.8V85H845v1.8h-5.3V85h-1.8v-1.8h-1.8v-1.8h-1.8v-8.8h1.8v-1.8h1.8
		v-1.8h1.8v-1.8h5.3v1.8h1.8v1.8H848.5z M839.7,81.4h1.8v1.8h1.8v-1.8h1.8v-1.8h1.8v-5.3H845v-1.8h-1.8v-1.8h-1.8v1.8h-1.8v1.8h-1.8
		v5.3h1.8V81.4z"/>
	<path class="st4" d="M887.2,86.7h-3.5V70.9h-5.3v-3.5h5.3v-3.5h1.8v-1.8h7v3.5h-5.3v1.8h5.3v3.5h-5.3V86.7z"/>
	<path class="st4" d="M910,83.2h1.8v3.5h-3.5V85h-1.8v-1.8h-1.8v-8.8h-3.5v-3.5h7v10.5h1.8V83.2z M908.3,63.9v3.5h-3.5v-3.5H908.3z"
		/>
	<path class="st4" d="M922.3,83.2v3.5h-3.5V62.1h3.5v8.8h1.8v-1.8h1.8v-1.8h5.3v1.8h1.8v1.8h1.8v1.8h1.8v8.8h-1.8v1.8h-1.8V85h-1.8
		v1.8h-5.3V85h-1.8v-1.8H922.3z M927.6,83.2h1.8v-1.8h1.8v-1.8h1.8v-5.3h-1.8v-1.8h-1.8v-1.8h-1.8v1.8h-1.8v1.8h-1.8v5.3h1.8v1.8
		h1.8V83.2z"/>
	<path class="st4" d="M957.5,81.4v1.8h-1.8V85H954v1.8h-10.5V85h-1.8v-1.8h-1.8V70.9h1.8v-1.8h1.8v-1.8H954v1.8h1.8v1.8h1.8v5.3
		h-1.8v1.8h-12.3v3.5h1.8v1.8h7v-1.8H957.5z M943.4,72.7v1.8H954v-1.8h-1.8v-1.8h-7v1.8H943.4z"/>
	<path class="st4" d="M964.5,76.2v10.5H961V67.4h3.5v3.5h1.8v-1.8h1.8v-1.8h7v1.8h1.8v1.8h1.8v3.5h-3.5v-1.8h-1.8v-1.8h-3.5v1.8H968
		v1.8h-1.8v1.8H964.5z"/>
	<path class="st4" d="M989.1,83.2v-3.5h3.5v3.5h-1.8V85h-1.8v1.8h-3.5V85h1.8v-1.8H989.1z"/>
</g>
<text transform="matrix(1 0 0 1 315.8781 131.6761)" class="st1 st2">both aid in weight loss. </text>
<g class="st3">
	<path class="st4" d="M321.2,126.4v3.5h-3.5v-24.6h3.5v8.8h1.8v-1.8h1.8v-1.8h5.3v1.8h1.8v1.8h1.8v1.8h1.8v8.8h-1.8v1.8h-1.8v1.8
		h-1.8v1.8h-5.3v-1.8h-1.8v-1.8H321.2z M326.4,126.4h1.8v-1.8h1.8v-1.8h1.8v-5.3h-1.8v-1.8h-1.8v-1.8h-1.8v1.8h-1.8v1.8h-1.8v5.3
		h1.8v1.8h1.8V126.4z"/>
	<path class="st4" d="M342.2,129.9v-1.8h-1.8v-1.8h-1.8v-12.3h1.8v-1.8h1.8v-1.8h10.5v1.8h1.8v1.8h1.8v12.3h-1.8v1.8h-1.8v1.8H342.2
		z M344,126.4h7v-1.8h1.8v-8.8H351v-1.8h-7v1.8h-1.8v8.8h1.8V126.4z"/>
	<path class="st4" d="M372.1,126.4h1.8v3.5h-3.5v-1.8h-1.8v-1.8h-1.8v-12.3h-3.5v-3.5h3.5v-5.3h3.5v5.3h3.5v3.5h-3.5v10.5h1.8V126.4
		z"/>
	<path class="st4" d="M384.4,119.4v10.5h-3.5v-24.6h3.5v8.8h1.8v-1.8h1.8v-1.8h5.3v1.8h1.8v1.8h1.8v1.8h1.8v14.1H395v-12.3h-1.8
		v-1.8h-1.8v-1.8h-1.8v1.8h-1.8v1.8h-1.8v1.8H384.4z"/>
	<path class="st4" d="M426.6,129.9v-1.8h-1.8v-1.8h-1.8v-7h1.8v-1.8h1.8v-1.8h8.8v1.8h1.8v-3.5h-1.8v-1.8h-8.8v-3.5h10.5v1.8h1.8
		v1.8h1.8v17.6h-3.5v-1.8h-1.8v1.8H426.6z M428.4,126.4h7v-1.8h1.8v-3.5h-1.8v-1.8h-7v1.8h-1.8v3.5h1.8V126.4z"/>
	<path class="st4" d="M456.5,126.4h1.8v3.5h-3.5v-1.8H453v-1.8h-1.8v-8.8h-3.5v-3.5h7v10.5h1.8V126.4z M454.7,107.1v3.5h-3.5v-3.5
		H454.7z"/>
	<path class="st4" d="M479.4,114.1v-8.8h3.5v24.6h-3.5v-3.5h-1.8v1.8h-1.8v1.8h-5.3v-1.8h-1.8v-1.8H467v-1.8h-1.8v-8.8h1.8v-1.8h1.8
		v-1.8h1.8v-1.8h5.3v1.8h1.8v1.8H479.4z M470.6,124.6h1.8v1.8h1.8v-1.8h1.8v-1.8h1.8v-5.3h-1.8v-1.8h-1.8v-1.8h-1.8v1.8h-1.8v1.8
		h-1.8v5.3h1.8V124.6z"/>
	<path class="st4" d="M519.8,126.4h1.8v3.5H518v-1.8h-1.8v-1.8h-1.8v-8.8H511v-3.5h7v10.5h1.8V126.4z M518,107.1v3.5h-3.5v-3.5H518z
		"/>
	<path class="st4" d="M532.1,115.9v14.1h-3.5v-19.3h3.5v1.8h1.8v-1.8h8.8v1.8h1.8v1.8h1.8v15.8h-3.5v-14.1h-1.8v-1.8h-7v1.8H532.1z"
		/>
	<path class="st4" d="M570.8,110.6h3.5v14.1h1.8v1.8h1.8v-8.8h3.5v8.8h1.8v-1.8h1.8v-14.1h3.5v15.8h-1.8v1.8h-1.8v1.8h-3.5v-1.8
		h-3.5v1.8h-3.5v-1.8h-1.8v-1.8h-1.8V110.6z"/>
	<path class="st4" d="M609.4,124.6v1.8h-1.8v1.8h-1.8v1.8h-10.5v-1.8h-1.8v-1.8h-1.8v-12.3h1.8v-1.8h1.8v-1.8h10.5v1.8h1.8v1.8h1.8
		v5.3h-1.8v1.8h-12.3v3.5h1.8v1.8h7v-1.8H609.4z M595.4,115.9v1.8h10.5v-1.8h-1.8v-1.8h-7v1.8H595.4z"/>
	<path class="st4" d="M625.3,126.4h1.8v3.5h-3.5v-1.8h-1.8v-1.8H620v-8.8h-3.5v-3.5h7v10.5h1.8V126.4z M623.5,107.1v3.5H620v-3.5
		H623.5z"/>
	<path class="st4" d="M637.6,128.2h-1.8v-3.5h3.5v1.8h7v-1.8h1.8v-5.3h-1.8v1.8h-8.8v-1.8h-1.8v-1.8H634v-5.3h1.8v-1.8h1.8v-1.8
		h10.5v1.8h1.8v1.8h1.8v14.1h-1.8v1.8h-1.8v1.8h-10.5V128.2z M648.1,115.9v-1.8h-1.8v-1.8h-7v1.8h-1.8v1.8h1.8v1.8h7v-1.8H648.1z"/>
	<path class="st4" d="M658.7,119.4v10.5h-3.5v-24.6h3.5v8.8h1.8v-1.8h1.8v-1.8h5.3v1.8h1.8v1.8h1.8v1.8h1.8v14.1h-3.5v-12.3h-1.8
		v-1.8h-1.8v-1.8h-1.8v1.8h-1.8v1.8h-1.8v1.8H658.7z"/>
	<path class="st4" d="M688.5,126.4h1.8v3.5h-3.5v-1.8H685v-1.8h-1.8v-12.3h-3.5v-3.5h3.5v-5.3h3.5v5.3h3.5v3.5h-3.5v10.5h1.8V126.4z
		"/>
	<path class="st4" d="M729,105.3v24.6h-3.5v-24.6H729z"/>
	<path class="st4" d="M743,129.9v-1.8h-1.8v-1.8h-1.8v-12.3h1.8v-1.8h1.8v-1.8h10.5v1.8h1.8v1.8h1.8v12.3h-1.8v1.8h-1.8v1.8H743z
		 M744.8,126.4h7v-1.8h1.8v-8.8h-1.8v-1.8h-7v1.8H743v8.8h1.8V126.4z"/>
	<path class="st4" d="M762.4,126.4h-1.8v-3.5h3.5v1.8h1.8v1.8h7v-3.5h-3.5v-1.8h-3.5v-1.8h-3.5v-1.8h-1.8v-3.5h1.8v-1.8h1.8v-1.8
		h10.5v1.8h1.8v1.8h1.8v3.5h-3.5v-1.8h-1.8v-1.8h-7v3.5h5.3v1.8h3.5v1.8h1.8v1.8h1.8v3.5h-1.8v1.8h-1.8v1.8h-10.5v-1.8h-1.8V126.4z"
		/>
	<path class="st4" d="M783.5,126.4h-1.8v-3.5h3.5v1.8h1.8v1.8h7v-3.5h-3.5v-1.8H787v-1.8h-3.5v-1.8h-1.8v-3.5h1.8v-1.8h1.8v-1.8
		h10.5v1.8h1.8v1.8h1.8v3.5h-3.5v-1.8H794v-1.8h-7v3.5h5.3v1.8h3.5v1.8h1.8v1.8h1.8v3.5h-1.8v1.8h-1.8v1.8h-10.5v-1.8h-1.8V126.4z"
		/>
	<path class="st4" d="M811.6,126.4v3.5h-3.5v-3.5H811.6z"/>
</g>
<text transform="matrix(1 0 0 1 189.2781 174.8761)" class="st1 st2">However, studies show mixed results.</text>
<g class="st3">
	<path class="st4" d="M194.6,162.6v10.5H191v-24.6h3.5v10.5h10.5v-10.5h3.5v24.6h-3.5v-10.5H194.6z"/>
	<path class="st4" d="M215.6,173.1v-1.8h-1.8v-1.8h-1.8v-12.3h1.8v-1.8h1.8v-1.8h10.5v1.8h1.8v1.8h1.8v12.3H228v1.8h-1.8v1.8H215.6z
		 M217.4,169.6h7v-1.8h1.8v-8.8h-1.8v-1.8h-7v1.8h-1.8v8.8h1.8V169.6z"/>
	<path class="st4" d="M233.2,153.8h3.5v14.1h1.8v1.8h1.8v-8.8h3.5v8.8h1.8v-1.8h1.8v-14.1h3.5v15.8H249v1.8h-1.8v1.8h-3.5v-1.8h-3.5
		v1.8h-3.5v-1.8H235v-1.8h-1.8V153.8z"/>
	<path class="st4" d="M271.9,167.8v1.8h-1.8v1.8h-1.8v1.8h-10.5v-1.8h-1.8v-1.8h-1.8v-12.3h1.8v-1.8h1.8v-1.8h10.5v1.8h1.8v1.8h1.8
		v5.3h-1.8v1.8h-12.3v3.5h1.8v1.8h7v-1.8H271.9z M257.8,159.1v1.8h10.5v-1.8h-1.8v-1.8h-7v1.8H257.8z"/>
	<path class="st4" d="M275.4,153.8h3.5v10.5h1.8v1.8h1.8v1.8h3.5v-1.8h1.8v-1.8h1.8v-10.5h3.5v12.3h-1.8v1.8h-1.8v1.8h-1.8v1.8H286
		v1.8h-3.5v-1.8h-1.8v-1.8h-1.8v-1.8h-1.8v-1.8h-1.8V153.8z"/>
	<path class="st4" d="M314.1,167.8v1.8h-1.8v1.8h-1.8v1.8H300v-1.8h-1.8v-1.8h-1.8v-12.3h1.8v-1.8h1.8v-1.8h10.5v1.8h1.8v1.8h1.8
		v5.3h-1.8v1.8H300v3.5h1.8v1.8h7v-1.8H314.1z M300,159.1v1.8h10.5v-1.8h-1.8v-1.8h-7v1.8H300z"/>
	<path class="st4" d="M321.1,162.6v10.5h-3.5v-19.3h3.5v3.5h1.8v-1.8h1.8v-1.8h7v1.8h1.8v1.8h1.8v3.5h-3.5v-1.8h-1.8v-1.8h-3.5v1.8
		h-1.8v1.8h-1.8v1.8H321.1z"/>
	<path class="st4" d="M345.7,169.6v-3.5h3.5v3.5h-1.8v1.8h-1.8v1.8h-3.5v-1.8h1.8v-1.8H345.7z"/>
	<path class="st4" d="M382.6,169.6h-1.8v-3.5h3.5v1.8h1.8v1.8h7v-3.5h-3.5v-1.8h-3.5v-1.8h-3.5v-1.8h-1.8v-3.5h1.8v-1.8h1.8v-1.8
		h10.5v1.8h1.8v1.8h1.8v3.5h-3.5v-1.8h-1.8v-1.8h-7v3.5h5.3v1.8h3.5v1.8h1.8v1.8h1.8v3.5h-1.8v1.8h-1.8v1.8h-10.5v-1.8h-1.8V169.6z"
		/>
	<path class="st4" d="M414.3,169.6h1.8v3.5h-3.5v-1.8h-1.8v-1.8H409v-12.3h-3.5v-3.5h3.5v-5.3h3.5v5.3h3.5v3.5h-3.5v10.5h1.8V169.6z
		"/>
	<path class="st4" d="M423.1,153.8h3.5v14.1h1.8v1.8h7v-1.8h1.8v-14.1h3.5v15.8h-1.8v1.8h-1.8v1.8h-10.5v-1.8h-1.8v-1.8h-1.8V153.8z
		"/>
	<path class="st4" d="M458.2,157.3v-8.8h3.5v24.6h-3.5v-3.5h-1.8v1.8h-1.8v1.8h-5.3v-1.8h-1.8v-1.8h-1.8v-1.8h-1.8v-8.8h1.8v-1.8
		h1.8v-1.8h1.8v-1.8h5.3v1.8h1.8v1.8H458.2z M449.4,167.8h1.8v1.8h1.8v-1.8h1.8v-1.8h1.8v-5.3h-1.8v-1.8H453v-1.8h-1.8v1.8h-1.8v1.8
		h-1.8v5.3h1.8V167.8z"/>
	<path class="st4" d="M477.6,169.6h1.8v3.5h-3.5v-1.8H474v-1.8h-1.8v-8.8h-3.5v-3.5h7v10.5h1.8V169.6z M475.8,150.3v3.5h-3.5v-3.5
		H475.8z"/>
	<path class="st4" d="M503.9,167.8v1.8h-1.8v1.8h-1.8v1.8h-10.5v-1.8h-1.8v-1.8h-1.8v-12.3h1.8v-1.8h1.8v-1.8h10.5v1.8h1.8v1.8h1.8
		v5.3h-1.8v1.8h-12.3v3.5h1.8v1.8h7v-1.8H503.9z M489.9,159.1v1.8h10.5v-1.8h-1.8v-1.8h-7v1.8H489.9z"/>
	<path class="st4" d="M509.2,169.6h-1.8v-3.5h3.5v1.8h1.8v1.8h7v-3.5h-3.5v-1.8h-3.5v-1.8h-3.5v-1.8h-1.8v-3.5h1.8v-1.8h1.8v-1.8
		h10.5v1.8h1.8v1.8h1.8v3.5h-3.5v-1.8h-1.8v-1.8h-7v3.5h5.3v1.8h3.5v1.8h1.8v1.8h1.8v3.5h-1.8v1.8h-1.8v1.8H511v-1.8h-1.8V169.6z"/>
	<path class="st4" d="M551.4,169.6h-1.8v-3.5h3.5v1.8h1.8v1.8h7v-3.5h-3.5v-1.8h-3.5v-1.8h-3.5v-1.8h-1.8v-3.5h1.8v-1.8h1.8v-1.8
		h10.5v1.8h1.8v1.8h1.8v3.5h-3.5v-1.8h-1.8v-1.8h-7v3.5h5.3v1.8h3.5v1.8h1.8v1.8h1.8v3.5h-1.8v1.8h-1.8v1.8h-10.5v-1.8h-1.8V169.6z"
		/>
	<path class="st4" d="M574.2,162.6v10.5h-3.5v-24.6h3.5v8.8h1.8v-1.8h1.8v-1.8h5.3v1.8h1.8v1.8h1.8v1.8h1.8v14.1h-3.5v-12.3H583
		v-1.8h-1.8v-1.8h-1.8v1.8h-1.8v1.8H576v1.8H574.2z"/>
	<path class="st4" d="M595.3,173.1v-1.8h-1.8v-1.8h-1.8v-12.3h1.8v-1.8h1.8v-1.8h10.5v1.8h1.8v1.8h1.8v12.3h-1.8v1.8h-1.8v1.8H595.3
		z M597.1,169.6h7v-1.8h1.8v-8.8h-1.8v-1.8h-7v1.8h-1.8v8.8h1.8V169.6z"/>
	<path class="st4" d="M612.9,153.8h3.5v14.1h1.8v1.8h1.8v-8.8h3.5v8.8h1.8v-1.8h1.8v-14.1h3.5v15.8h-1.8v1.8H627v1.8h-3.5v-1.8h-3.5
		v1.8h-3.5v-1.8h-1.8v-1.8h-1.8V153.8z"/>
	<path class="st4" d="M658.6,159.1v14.1h-3.5v-19.3h3.5v1.8h1.8v-1.8h8.8v1.8h1.8v1.8h1.8v15.8h-3.5v-14.1h-1.8v-1.8h-1.8v15.8h-3.5
		v-15.8h-1.8v1.8H658.6z"/>
	<path class="st4" d="M688.5,169.6h1.8v3.5h-3.5v-1.8H685v-1.8h-1.8v-8.8h-3.5v-3.5h7v10.5h1.8V169.6z M686.7,150.3v3.5h-3.5v-3.5
		H686.7z"/>
	<path class="st4" d="M700.8,171.4v1.8h-3.5v-3.5h1.8v-1.8h1.8v-1.8h1.8v-1.8h1.8v-1.8h-1.8v-1.8h-1.8v-1.8H699v-1.8h-1.8v-3.5h3.5
		v1.8h1.8v1.8h1.8v1.8h3.5v-1.8h1.8v-1.8h1.8v-1.8h3.5v3.5h-1.8v1.8h-1.8v1.8h-1.8v1.8h-1.8v1.8h1.8v1.8h1.8v1.8h1.8v1.8h1.8v3.5
		h-3.5v-1.8h-1.8v-1.8h-1.8v-1.8h-3.5v1.8h-1.8v1.8H700.8z"/>
	<path class="st4" d="M736,167.8v1.8h-1.8v1.8h-1.8v1.8h-10.5v-1.8h-1.8v-1.8h-1.8v-12.3h1.8v-1.8h1.8v-1.8h10.5v1.8h1.8v1.8h1.8
		v5.3h-1.8v1.8h-12.3v3.5h1.8v1.8h7v-1.8H736z M721.9,159.1v1.8h10.5v-1.8h-1.8v-1.8h-7v1.8H721.9z"/>
	<path class="st4" d="M753.5,157.3v-8.8h3.5v24.6h-3.5v-3.5h-1.8v1.8H750v1.8h-5.3v-1.8H743v-1.8h-1.8v-1.8h-1.8v-8.8h1.8v-1.8h1.8
		v-1.8h1.8v-1.8h5.3v1.8h1.8v1.8H753.5z M744.7,167.8h1.8v1.8h1.8v-1.8h1.8v-1.8h1.8v-5.3H750v-1.8h-1.8v-1.8h-1.8v1.8h-1.8v1.8H743
		v5.3h1.8V167.8z"/>
	<path class="st4" d="M785.2,162.6v10.5h-3.5v-19.3h3.5v3.5h1.8v-1.8h1.8v-1.8h7v1.8h1.8v1.8h1.8v3.5h-3.5v-1.8H794v-1.8h-3.5v1.8
		h-1.8v1.8h-1.8v1.8H785.2z"/>
	<path class="st4" d="M820.3,167.8v1.8h-1.8v1.8h-1.8v1.8h-10.5v-1.8h-1.8v-1.8h-1.8v-12.3h1.8v-1.8h1.8v-1.8h10.5v1.8h1.8v1.8h1.8
		v5.3h-1.8v1.8h-12.3v3.5h1.8v1.8h7v-1.8H820.3z M806.3,159.1v1.8h10.5v-1.8h-1.8v-1.8h-7v1.8H806.3z"/>
	<path class="st4" d="M825.6,169.6h-1.8v-3.5h3.5v1.8h1.8v1.8h7v-3.5h-3.5v-1.8h-3.5v-1.8h-3.5v-1.8h-1.8v-3.5h1.8v-1.8h1.8v-1.8
		h10.5v1.8h1.8v1.8h1.8v3.5h-3.5v-1.8h-1.8v-1.8h-7v3.5h5.3v1.8h3.5v1.8h1.8v1.8h1.8v3.5h-1.8v1.8h-1.8v1.8h-10.5v-1.8h-1.8V169.6z"
		/>
	<path class="st4" d="M844.9,153.8h3.5v14.1h1.8v1.8h7v-1.8h1.8v-14.1h3.5v15.8h-1.8v1.8H859v1.8h-10.5v-1.8h-1.8v-1.8h-1.8V153.8z"
		/>
	<path class="st4" d="M876.6,148.5v24.6h-3.5v-24.6H876.6z"/>
	<path class="st4" d="M899.4,169.6h1.8v3.5h-3.5v-1.8h-1.8v-1.8h-1.8v-12.3h-3.5v-3.5h3.5v-5.3h3.5v5.3h3.5v3.5h-3.5v10.5h1.8V169.6
		z"/>
	<path class="st4" d="M910,169.6h-1.8v-3.5h3.5v1.8h1.8v1.8h7v-3.5H917v-1.8h-3.5v-1.8H910v-1.8h-1.8v-3.5h1.8v-1.8h1.8v-1.8h10.5
		v1.8h1.8v1.8h1.8v3.5h-3.5v-1.8h-1.8v-1.8h-7v3.5h5.3v1.8h3.5v1.8h1.8v1.8h1.8v3.5H924v1.8h-1.8v1.8h-10.5v-1.8H910V169.6z"/>
	<path class="st4" d="M938.1,169.6v3.5h-3.5v-3.5H938.1z"/>
</g>
<path class="st5" d="M766,433v-9h-9v-9h-9v-9h-9v-9h-9v-9h-9v-9h-9v-9h-9v-9h-9v-9h-18v27h-9v9h-9v9h-9v9h-9v9h-9v9h-9v9h-9v9h-9v9
	h-18h-54h-18v-9h-9v-9h-9v-9h-9v-9h-9v-9h-9v-9h-9v-9h-9v-9h-9v-27h-18v9h-9v9h-9v9h-9v9h-9v9h-9v9h-9v9h-9v9h-9v9h-9v207v9v63v9v18
	h162h27h54h27h162v-18v-9v-63v-9V433H766z M505,568v108h-9v9h-9v9h-9v9h-9v9h-54v-9h-9v-9h-9v-9h-9v-9h-9v-27v-9V514h9v-9h9v-9h9v-9
	h9v-9h9h9h9h9h9h9v9h9v9h9v9h9v9h9V568z M739,640v9v27h-9v9h-9v9h-9v9h-9v9h-54v-9h-9v-9h-9v-9h-9v-9h-9V568v-54h9v-9h9v-9h9v-9h9
	v-9h9h9h9h9h9h9v9h9v9h9v9h9v9h9V640z"/>
<rect x="550" y="469" class="st6" width="18" height="252"/>
<path class="st7" d="M667,289v-9h-9v-9h-9v-9h-9v-9h-9v-9h-9v-9h-9v-9h-9v-9h-9h-9h-54h-9h-9v9h-9v9h-9v9h-9v9h-9v9h-9v9h-9v9h-9v9
	h-9v9v18v9v18v27v9h9v9h9v9h9v9h9v9h9v9h9v9h9v9h9v9h9h9h54h9h9v-9h9v-9h9v-9h9v-9h9v-9h9v-9h9v-9h9v-9h9v-9v-18v-9v-18v-27v-9H667z
	 M658,298v27h-27v18h27v9v18v9h-9v9h-9h-9h-9v9v9v9h-9v9h-9v9h-9v9h-9h-18v-27h-18v27h-18h-9v-9h-9v-9h-9v-9h-9v-9v-9v-9h-9h-9h-9
	v-9h-9v-9v-27h27v-18h-27v-9v-18v-9h9v-9h9h9h9v-9v-9v-9h9v-9h9v-9h9v-9h9h18v27h18v-27h18h9v9h9v9h9v9h9v9v18h9h9h9v9h9V298z"/>
<g>
	<rect x="703" y="487" class="st6" width="9" height="9"/>
	<rect x="712" y="496" class="st6" width="9" height="9"/>
	<rect x="721" y="505" class="st6" width="9" height="9"/>
	<polygon class="st6" points="730,514 730,532 730,658 730,676 739,676 739,658 739,532 739,514 	"/>
	<rect x="703" y="694" class="st6" width="9" height="9"/>
	<rect x="712" y="685" class="st6" width="9" height="9"/>
	<rect x="721" y="676" class="st6" width="9" height="9"/>
	<rect x="640" y="694" class="st6" width="9" height="9"/>
	<polygon class="st6" points="658,703 649,703 649,712 658,712 694,712 703,712 703,703 694,703 	"/>
	<rect x="631" y="685" class="st6" width="9" height="9"/>
	<rect x="622" y="676" class="st6" width="9" height="9"/>
	<polygon class="st6" points="622,532 622,514 613,514 613,532 613,658 613,676 622,676 622,658 	"/>
	<polygon class="st6" points="694,487 703,487 703,478 694,478 658,478 649,478 649,487 658,487 	"/>
	<rect x="640" y="487" class="st6" width="9" height="9"/>
	<rect x="631" y="496" class="st6" width="9" height="9"/>
	<rect x="622" y="505" class="st6" width="9" height="9"/>
</g>
<g>
	<rect x="469" y="487" class="st6" width="9" height="9"/>
	<rect x="478" y="496" class="st6" width="9" height="9"/>
	<rect x="487" y="505" class="st6" width="9" height="9"/>
	<polygon class="st6" points="496,514 496,532 496,658 496,676 505,676 505,658 505,532 505,514 	"/>
	<rect x="469" y="694" class="st6" width="9" height="9"/>
	<rect x="478" y="685" class="st6" width="9" height="9"/>
	<rect x="487" y="676" class="st6" width="9" height="9"/>
	<rect x="406" y="694" class="st6" width="9" height="9"/>
	<polygon class="st6" points="424,703 415,703 415,712 424,712 460,712 469,712 469,703 460,703 	"/>
	<rect x="397" y="685" class="st6" width="9" height="9"/>
	<rect x="388" y="676" class="st6" width="9" height="9"/>
	<polygon class="st6" points="388,532 388,514 379,514 379,532 379,658 379,676 388,676 388,658 	"/>
	<polygon class="st6" points="460,487 469,487 469,478 460,478 424,478 415,478 415,487 424,487 	"/>
	<rect x="406" y="487" class="st6" width="9" height="9"/>
	<rect x="397" y="496" class="st6" width="9" height="9"/>
	<rect x="388" y="505" class="st6" width="9" height="9"/>
</g>
<polygon class="st8" points="487,514 487,505 478,505 478,496 469,496 469,487 415,487 415,496 406,496 406,505 397,505 397,514 
	388,514 388,676 397,676 397,685 406,685 406,694 415,694 415,703 469,703 469,694 478,694 478,685 487,685 487,676 496,676 
	496,514 "/>
<polygon class="st8" points="721,514 721,505 712,505 712,496 703,496 703,487 649,487 649,496 640,496 640,505 631,505 631,514 
	622,514 622,676 631,676 631,685 640,685 640,694 649,694 649,703 703,703 703,694 712,694 712,685 721,685 721,676 730,676 
	730,514 "/>
<polygon class="st6" points="784,424 784,415 775,415 775,406 766,406 766,397 757,397 757,388 748,388 748,379 739,379 739,370 
	730,370 730,361 721,361 721,352 712,352 712,343 703,343 694,343 694,334 685,334 685,325 667,325 667,343 676,343 676,352 
	685,352 694,352 694,361 703,361 703,370 712,370 712,379 721,379 721,388 730,388 730,397 739,397 739,406 748,406 748,415 
	757,415 757,424 766,424 766,433 775,433 775,523 775,541 775,739 613,739 559,739 460,739 343,739 343,541 343,523 343,433 
	352,433 352,424 361,424 361,415 370,415 370,406 379,406 379,397 388,397 388,388 397,388 397,379 406,379 406,370 415,370 
	415,361 424,361 424,352 433,352 442,352 442,343 451,343 451,325 442,325 433,325 433,334 424,334 424,343 415,343 406,343 
	406,352 397,352 397,361 388,361 388,370 379,370 379,379 370,379 370,388 361,388 361,397 352,397 352,406 343,406 343,415 
	334,415 334,424 325,424 325,433 325,523 325,541 325,739 325,748 334,748 334,757 343,757 460,757 559,757 613,757 775,757 
	784,757 784,748 793,748 793,739 793,541 793,523 793,433 793,424 "/>
<g>
	<rect x="514" y="289" class="st6" width="9" height="9"/>
	<rect x="523" y="298" class="st6" width="9" height="9"/>
	<polygon class="st6" points="577,316 568,316 550,316 550,307 541,307 532,307 532,316 532,325 541,325 541,352 541,361 577,361 
		577,352 586,352 586,325 586,316 	"/>
</g>
<g id="HEART_HEALTH">
</g>
<g id="TOILET">
</g>
</svg>
