<?xml version="1.0" encoding="utf-8"?>
<!-- Generator: Adobe Illustrator 25.2.3, SVG Export Plug-In . SVG Version: 6.00 Build 0)  -->
<svg version="1.1" id="Layer_1" xmlns="http://www.w3.org/2000/svg" xmlns:xlink="http://www.w3.org/1999/xlink" x="0px" y="0px"
	 viewBox="0 0 1108 791" style="enable-background:new 0 0 1108 791;" xml:space="preserve">
<style type="text/css">
	.st0{fill:none;}
	.st1{enable-background:new    ;}
	.st2{fill:none;stroke:#000000;stroke-width:0.5;stroke-miterlimit:10;}
	.st3{fill:#F3A634;}
	.st4{fill:#FFFFFF;}
</style>
<g id="layout">
</g>
<g id="GUIDES">
</g>
<g id="LOSE_WEIGHT">
</g>
<rect x="99" y="58" class="st0" width="940" height="121"/>
<g class="st1">
	<path d="M291.3,65.6h1.8v3.5h-3.5v-1.8h-1.8v-1.8h-7v1.8H279v3.5h1.8v1.8h8.8v1.8h1.8v1.8h1.8v7h-1.8V85h-1.8v1.8H279V85h-1.8v-1.8
		h-1.8v-3.5h3.5v1.8h1.8v1.8h7v-1.8h1.8v-3.5h-1.8v-1.8H279v-1.8h-1.8v-1.8h-1.8v-7h1.8v-1.8h1.8v-1.8h10.5v1.8h1.8V65.6z"/>
	<path d="M308.8,83.2h1.8v3.5h-3.5V85h-1.8v-1.8h-1.8V70.9h-3.5v-3.5h3.5v-5.3h3.5v5.3h3.5v3.5h-3.5v10.5h1.8V83.2z"/>
	<path d="M317.6,67.4h3.5v14.1h1.8v1.8h7v-1.8h1.8V67.4h3.5v15.8h-1.8V85h-1.8v1.8h-10.5V85h-1.8v-1.8h-1.8V67.4z"/>
	<path d="M352.8,70.9v-8.8h3.5v24.6h-3.5v-3.5H351V85h-1.8v1.8H344V85h-1.8v-1.8h-1.8v-1.8h-1.8v-8.8h1.8v-1.8h1.8v-1.8h1.8v-1.8
		h5.3v1.8h1.8v1.8H352.8z M344,81.4h1.8v1.8h1.8v-1.8h1.8v-1.8h1.8v-5.3h-1.8v-1.8h-1.8v-1.8h-1.8v1.8H344v1.8h-1.8v5.3h1.8V81.4z"
		/>
	<path d="M372.1,83.2h1.8v3.5h-3.5V85h-1.8v-1.8h-1.8v-8.8h-3.5v-3.5h7v10.5h1.8V83.2z M370.4,63.9v3.5h-3.5v-3.5H370.4z"/>
	<path d="M398.5,81.4v1.8h-1.8V85H395v1.8h-10.5V85h-1.8v-1.8h-1.8V70.9h1.8v-1.8h1.8v-1.8H395v1.8h1.8v1.8h1.8v5.3h-1.8v1.8h-12.3
		v3.5h1.8v1.8h7v-1.8H398.5z M384.4,72.7v1.8H395v-1.8h-1.8v-1.8h-7v1.8H384.4z"/>
	<path d="M403.8,83.2H402v-3.5h3.5v1.8h1.8v1.8h7v-3.5h-3.5v-1.8h-3.5v-1.8h-3.5v-1.8H402v-3.5h1.8v-1.8h1.8v-1.8h10.5v1.8h1.8v1.8
		h1.8v3.5h-3.5v-1.8h-1.8v-1.8h-7v3.5h5.3v1.8h3.5v1.8h1.8v1.8h1.8v3.5h-1.8V85h-1.8v1.8h-10.5V85h-1.8V83.2z"/>
	<path d="M447.7,86.7V85H446v-1.8h-1.8v-7h1.8v-1.8h1.8v-1.8h8.8v1.8h1.8v-3.5h-1.8v-1.8h-8.8v-3.5h10.5v1.8h1.8v1.8h1.8v17.6h-3.5
		V85h-1.8v1.8H447.7z M449.5,83.2h7v-1.8h1.8v-3.5h-1.8v-1.8h-7v1.8h-1.8v3.5h1.8V83.2z"/>
	<path d="M468.8,76.2v10.5h-3.5V67.4h3.5v3.5h1.8v-1.8h1.8v-1.8h7v1.8h1.8v1.8h1.8v3.5h-3.5v-1.8h-1.8v-1.8h-3.5v1.8h-1.8v1.8h-1.8
		v1.8H468.8z"/>
	<path d="M504,81.4v1.8h-1.8V85h-1.8v1.8h-10.5V85h-1.8v-1.8h-1.8V70.9h1.8v-1.8h1.8v-1.8h10.5v1.8h1.8v1.8h1.8v5.3h-1.8v1.8h-12.3
		v3.5h1.8v1.8h7v-1.8H504z M489.9,72.7v1.8h10.5v-1.8h-1.8v-1.8h-7v1.8H489.9z"/>
	<path d="M530.3,83.2h-1.8v-3.5h3.5v1.8h1.8v1.8h7v-3.5h-3.5v-1.8h-3.5v-1.8h-3.5v-1.8h-1.8v-3.5h1.8v-1.8h1.8v-1.8h10.5v1.8h1.8
		v1.8h1.8v3.5h-3.5v-1.8h-1.8v-1.8h-7v3.5h5.3v1.8h3.5v1.8h1.8v1.8h1.8v3.5h-1.8V85h-1.8v1.8h-10.5V85h-1.8V83.2z"/>
	<path d="M553.2,79.7v7h-3.5V65.6h3.5v1.8h1.8v-1.8h8.8v1.8h1.8v1.8h1.8v8.8h-1.8v1.8h-1.8v1.8h-8.8v-1.8H553.2z M563.7,70.9H562
		v-1.8h-5.3v1.8h-1.8v5.3h1.8v1.8h5.3v-1.8h1.8V70.9z"/>
	<path d="M581.3,62.1v24.6h-3.5V62.1H581.3z"/>
	<path d="M604.2,83.2h1.8v3.5h-3.5V85h-1.8v-1.8h-1.8v-8.8h-3.5v-3.5h7v10.5h1.8V83.2z M602.4,63.9v3.5h-3.5v-3.5H602.4z"/>
	<path d="M625.2,83.2h1.8v3.5h-3.5V85h-1.8v-1.8H620V70.9h-3.5v-3.5h3.5v-5.3h3.5v5.3h3.5v3.5h-3.5v10.5h1.8V83.2z"/>
	<path d="M658.6,86.7V85h-1.8v-1.8h-1.8V70.9h1.8v-1.8h1.8v-1.8h10.5v1.8h1.8v1.8h1.8v12.3H671V85h-1.8v1.8H658.6z M660.4,83.2h7
		v-1.8h1.8v-8.8h-1.8v-1.8h-7v1.8h-1.8v8.8h1.8V83.2z"/>
	<path d="M679.7,72.7v14.1h-3.5V67.4h3.5v1.8h1.8v-1.8h8.8v1.8h1.8v1.8h1.8v15.8h-3.5V72.7h-1.8v-1.8h-7v1.8H679.7z"/>
	<path d="M718.4,67.4h3.5v14.1h1.8v1.8h1.8v-8.8h3.5v8.8h1.8v-1.8h1.8V67.4h3.5v15.8h-1.8V85h-1.8v1.8H729V85h-3.5v1.8h-3.5V85h-1.8
		v-1.8h-1.8V67.4z"/>
	<path d="M743,76.2v10.5h-3.5V62.1h3.5v8.8h1.8v-1.8h1.8v-1.8h5.3v1.8h1.8v1.8h1.8v1.8h1.8v14.1h-3.5V74.4h-1.8v-1.8h-1.8v-1.8h-1.8
		v1.8h-1.8v1.8h-1.8v1.8H743z"/>
	<path d="M778.2,81.4v1.8h-1.8V85h-1.8v1.8h-10.5V85h-1.8v-1.8h-1.8V70.9h1.8v-1.8h1.8v-1.8h10.5v1.8h1.8v1.8h1.8v5.3h-1.8v1.8
		h-12.3v3.5h1.8v1.8h7v-1.8H778.2z M764.1,72.7v1.8h10.5v-1.8h-1.8v-1.8h-7v1.8H764.1z"/>
	<path d="M794,83.2h1.8v3.5h-3.5V85h-1.8v-1.8h-1.8V70.9h-3.5v-3.5h3.5v-5.3h3.5v5.3h3.5v3.5h-3.5v10.5h1.8V83.2z"/>
	<path d="M806.3,76.2v10.5h-3.5V62.1h3.5v8.8h1.8v-1.8h1.8v-1.8h5.3v1.8h1.8v1.8h1.8v1.8h1.8v14.1h-3.5V74.4h-1.8v-1.8h-1.8v-1.8
		h-1.8v1.8h-1.8v1.8h-1.8v1.8H806.3z"/>
	<path d="M841.5,81.4v1.8h-1.8V85h-1.8v1.8h-10.5V85h-1.8v-1.8h-1.8V70.9h1.8v-1.8h1.8v-1.8h10.5v1.8h1.8v1.8h1.8v5.3h-1.8v1.8
		h-12.3v3.5h1.8v1.8h7v-1.8H841.5z M827.4,72.7v1.8h10.5v-1.8h-1.8v-1.8h-7v1.8H827.4z"/>
	<path d="M848.5,76.2v10.5H845V67.4h3.5v3.5h1.8v-1.8h1.8v-1.8h7v1.8h1.8v1.8h1.8v3.5H859v-1.8h-1.8v-1.8h-3.5v1.8H852v1.8h-1.8v1.8
		H848.5z"/>
</g>
<g class="st1">
	<path class="st2" d="M291.3,65.6h1.8v3.5h-3.5v-1.8h-1.8v-1.8h-7v1.8H279v3.5h1.8v1.8h8.8v1.8h1.8v1.8h1.8v7h-1.8V85h-1.8v1.8H279
		V85h-1.8v-1.8h-1.8v-3.5h3.5v1.8h1.8v1.8h7v-1.8h1.8v-3.5h-1.8v-1.8H279v-1.8h-1.8v-1.8h-1.8v-7h1.8v-1.8h1.8v-1.8h10.5v1.8h1.8
		V65.6z"/>
	<path class="st2" d="M308.8,83.2h1.8v3.5h-3.5V85h-1.8v-1.8h-1.8V70.9h-3.5v-3.5h3.5v-5.3h3.5v5.3h3.5v3.5h-3.5v10.5h1.8V83.2z"/>
	<path class="st2" d="M317.6,67.4h3.5v14.1h1.8v1.8h7v-1.8h1.8V67.4h3.5v15.8h-1.8V85h-1.8v1.8h-10.5V85h-1.8v-1.8h-1.8V67.4z"/>
	<path class="st2" d="M352.8,70.9v-8.8h3.5v24.6h-3.5v-3.5H351V85h-1.8v1.8H344V85h-1.8v-1.8h-1.8v-1.8h-1.8v-8.8h1.8v-1.8h1.8v-1.8
		h1.8v-1.8h5.3v1.8h1.8v1.8H352.8z M344,81.4h1.8v1.8h1.8v-1.8h1.8v-1.8h1.8v-5.3h-1.8v-1.8h-1.8v-1.8h-1.8v1.8H344v1.8h-1.8v5.3
		h1.8V81.4z"/>
	<path class="st2" d="M372.1,83.2h1.8v3.5h-3.5V85h-1.8v-1.8h-1.8v-8.8h-3.5v-3.5h7v10.5h1.8V83.2z M370.4,63.9v3.5h-3.5v-3.5H370.4
		z"/>
	<path class="st2" d="M398.5,81.4v1.8h-1.8V85H395v1.8h-10.5V85h-1.8v-1.8h-1.8V70.9h1.8v-1.8h1.8v-1.8H395v1.8h1.8v1.8h1.8v5.3
		h-1.8v1.8h-12.3v3.5h1.8v1.8h7v-1.8H398.5z M384.4,72.7v1.8H395v-1.8h-1.8v-1.8h-7v1.8H384.4z"/>
	<path class="st2" d="M403.8,83.2H402v-3.5h3.5v1.8h1.8v1.8h7v-3.5h-3.5v-1.8h-3.5v-1.8h-3.5v-1.8H402v-3.5h1.8v-1.8h1.8v-1.8h10.5
		v1.8h1.8v1.8h1.8v3.5h-3.5v-1.8h-1.8v-1.8h-7v3.5h5.3v1.8h3.5v1.8h1.8v1.8h1.8v3.5h-1.8V85h-1.8v1.8h-10.5V85h-1.8V83.2z"/>
	<path class="st2" d="M447.7,86.7V85H446v-1.8h-1.8v-7h1.8v-1.8h1.8v-1.8h8.8v1.8h1.8v-3.5h-1.8v-1.8h-8.8v-3.5h10.5v1.8h1.8v1.8
		h1.8v17.6h-3.5V85h-1.8v1.8H447.7z M449.5,83.2h7v-1.8h1.8v-3.5h-1.8v-1.8h-7v1.8h-1.8v3.5h1.8V83.2z"/>
	<path class="st2" d="M468.8,76.2v10.5h-3.5V67.4h3.5v3.5h1.8v-1.8h1.8v-1.8h7v1.8h1.8v1.8h1.8v3.5h-3.5v-1.8h-1.8v-1.8h-3.5v1.8
		h-1.8v1.8h-1.8v1.8H468.8z"/>
	<path class="st2" d="M504,81.4v1.8h-1.8V85h-1.8v1.8h-10.5V85h-1.8v-1.8h-1.8V70.9h1.8v-1.8h1.8v-1.8h10.5v1.8h1.8v1.8h1.8v5.3
		h-1.8v1.8h-12.3v3.5h1.8v1.8h7v-1.8H504z M489.9,72.7v1.8h10.5v-1.8h-1.8v-1.8h-7v1.8H489.9z"/>
	<path class="st2" d="M530.3,83.2h-1.8v-3.5h3.5v1.8h1.8v1.8h7v-3.5h-3.5v-1.8h-3.5v-1.8h-3.5v-1.8h-1.8v-3.5h1.8v-1.8h1.8v-1.8
		h10.5v1.8h1.8v1.8h1.8v3.5h-3.5v-1.8h-1.8v-1.8h-7v3.5h5.3v1.8h3.5v1.8h1.8v1.8h1.8v3.5h-1.8V85h-1.8v1.8h-10.5V85h-1.8V83.2z"/>
	<path class="st2" d="M553.2,79.7v7h-3.5V65.6h3.5v1.8h1.8v-1.8h8.8v1.8h1.8v1.8h1.8v8.8h-1.8v1.8h-1.8v1.8h-8.8v-1.8H553.2z
		 M563.7,70.9H562v-1.8h-5.3v1.8h-1.8v5.3h1.8v1.8h5.3v-1.8h1.8V70.9z"/>
	<path class="st2" d="M581.3,62.1v24.6h-3.5V62.1H581.3z"/>
	<path class="st2" d="M604.2,83.2h1.8v3.5h-3.5V85h-1.8v-1.8h-1.8v-8.8h-3.5v-3.5h7v10.5h1.8V83.2z M602.4,63.9v3.5h-3.5v-3.5H602.4
		z"/>
	<path class="st2" d="M625.2,83.2h1.8v3.5h-3.5V85h-1.8v-1.8H620V70.9h-3.5v-3.5h3.5v-5.3h3.5v5.3h3.5v3.5h-3.5v10.5h1.8V83.2z"/>
	<path class="st2" d="M658.6,86.7V85h-1.8v-1.8h-1.8V70.9h1.8v-1.8h1.8v-1.8h10.5v1.8h1.8v1.8h1.8v12.3H671V85h-1.8v1.8H658.6z
		 M660.4,83.2h7v-1.8h1.8v-8.8h-1.8v-1.8h-7v1.8h-1.8v8.8h1.8V83.2z"/>
	<path class="st2" d="M679.7,72.7v14.1h-3.5V67.4h3.5v1.8h1.8v-1.8h8.8v1.8h1.8v1.8h1.8v15.8h-3.5V72.7h-1.8v-1.8h-7v1.8H679.7z"/>
	<path class="st2" d="M718.4,67.4h3.5v14.1h1.8v1.8h1.8v-8.8h3.5v8.8h1.8v-1.8h1.8V67.4h3.5v15.8h-1.8V85h-1.8v1.8H729V85h-3.5v1.8
		h-3.5V85h-1.8v-1.8h-1.8V67.4z"/>
	<path class="st2" d="M743,76.2v10.5h-3.5V62.1h3.5v8.8h1.8v-1.8h1.8v-1.8h5.3v1.8h1.8v1.8h1.8v1.8h1.8v14.1h-3.5V74.4h-1.8v-1.8
		h-1.8v-1.8h-1.8v1.8h-1.8v1.8h-1.8v1.8H743z"/>
	<path class="st2" d="M778.2,81.4v1.8h-1.8V85h-1.8v1.8h-10.5V85h-1.8v-1.8h-1.8V70.9h1.8v-1.8h1.8v-1.8h10.5v1.8h1.8v1.8h1.8v5.3
		h-1.8v1.8h-12.3v3.5h1.8v1.8h7v-1.8H778.2z M764.1,72.7v1.8h10.5v-1.8h-1.8v-1.8h-7v1.8H764.1z"/>
	<path class="st2" d="M794,83.2h1.8v3.5h-3.5V85h-1.8v-1.8h-1.8V70.9h-3.5v-3.5h3.5v-5.3h3.5v5.3h3.5v3.5h-3.5v10.5h1.8V83.2z"/>
	<path class="st2" d="M806.3,76.2v10.5h-3.5V62.1h3.5v8.8h1.8v-1.8h1.8v-1.8h5.3v1.8h1.8v1.8h1.8v1.8h1.8v14.1h-3.5V74.4h-1.8v-1.8
		h-1.8v-1.8h-1.8v1.8h-1.8v1.8h-1.8v1.8H806.3z"/>
	<path class="st2" d="M841.5,81.4v1.8h-1.8V85h-1.8v1.8h-10.5V85h-1.8v-1.8h-1.8V70.9h1.8v-1.8h1.8v-1.8h10.5v1.8h1.8v1.8h1.8v5.3
		h-1.8v1.8h-12.3v3.5h1.8v1.8h7v-1.8H841.5z M827.4,72.7v1.8h10.5v-1.8h-1.8v-1.8h-7v1.8H827.4z"/>
	<path class="st2" d="M848.5,76.2v10.5H845V67.4h3.5v3.5h1.8v-1.8h1.8v-1.8h7v1.8h1.8v1.8h1.8v3.5H859v-1.8h-1.8v-1.8h-3.5v1.8H852
		v1.8h-1.8v1.8H848.5z"/>
</g>
<g class="st1">
	<path d="M289.5,124.6v-1.8h3.5v3.5h-1.8v1.8h-1.8v1.8H279v-1.8h-1.8v-1.8h-1.8v-12.3h1.8v-1.8h1.8v-1.8h10.5v1.8h1.8v1.8h1.8v3.5
		h-3.5v-1.8h-1.8v-1.8h-7v1.8H279v8.8h1.8v1.8h7v-1.8H289.5z"/>
	<path d="M300.1,119.4v10.5h-3.5v-24.6h3.5v8.8h1.8v-1.8h1.8v-1.8h5.3v1.8h1.8v1.8h1.8v1.8h1.8v14.1h-3.5v-12.3h-1.8v-1.8h-1.8v-1.8
		h-1.8v1.8h-1.8v1.8h-1.8v1.8H300.1z"/>
	<path d="M329.9,126.4h1.8v3.5h-3.5v-1.8h-1.8v-1.8h-1.8v-8.8h-3.5v-3.5h7v10.5h1.8V126.4z M328.2,107.1v3.5h-3.5v-3.5H328.2z"/>
	<path d="M342.2,129.9v-1.8h-1.8v-1.8h-1.8v-7h1.8v-1.8h1.8v-1.8h8.8v1.8h1.8v-3.5H351v-1.8h-8.8v-3.5h10.5v1.8h1.8v1.8h1.8v17.6
		h-3.5v-1.8H351v1.8H342.2z M344,126.4h7v-1.8h1.8v-3.5H351v-1.8h-7v1.8h-1.8v3.5h1.8V126.4z"/>
	<path d="M382.7,126.4h-1.8v-3.5h3.5v1.8h1.8v1.8h7v-3.5h-3.5v-1.8h-3.5v-1.8h-3.5v-1.8h-1.8v-3.5h1.8v-1.8h1.8v-1.8H395v1.8h1.8
		v1.8h1.8v3.5H395v-1.8h-1.8v-1.8h-7v3.5h5.3v1.8h3.5v1.8h1.8v1.8h1.8v3.5h-1.8v1.8H395v1.8h-10.5v-1.8h-1.8V126.4z"/>
	<path d="M419.6,124.6v1.8h-1.8v1.8h-1.8v1.8h-10.5v-1.8h-1.8v-1.8H402v-12.3h1.8v-1.8h1.8v-1.8h10.5v1.8h1.8v1.8h1.8v5.3h-1.8v1.8
		h-12.3v3.5h1.8v1.8h7v-1.8H419.6z M405.5,115.9v1.8h10.5v-1.8h-1.8v-1.8h-7v1.8H405.5z"/>
	<path d="M440.7,124.6v1.8h-1.8v1.8h-1.8v1.8h-10.5v-1.8h-1.8v-1.8h-1.8v-12.3h1.8v-1.8h1.8v-1.8h10.5v1.8h1.8v1.8h1.8v5.3h-1.8v1.8
		h-12.3v3.5h1.8v1.8h7v-1.8H440.7z M426.6,115.9v1.8h10.5v-1.8h-1.8v-1.8h-7v1.8H426.6z"/>
	<path d="M458.3,114.1v-8.8h3.5v24.6h-3.5v-3.5h-1.8v1.8h-1.8v1.8h-5.3v-1.8h-1.8v-1.8H446v-1.8h-1.8v-8.8h1.8v-1.8h1.8v-1.8h1.8
		v-1.8h5.3v1.8h1.8v1.8H458.3z M449.5,124.6h1.8v1.8h1.8v-1.8h1.8v-1.8h1.8v-5.3h-1.8v-1.8H453v-1.8h-1.8v1.8h-1.8v1.8h-1.8v5.3h1.8
		V124.6z"/>
	<path d="M467,126.4h-1.8v-3.5h3.5v1.8h1.8v1.8h7v-3.5h-3.5v-1.8h-3.5v-1.8H467v-1.8h-1.8v-3.5h1.8v-1.8h1.8v-1.8h10.5v1.8h1.8v1.8
		h1.8v3.5h-3.5v-1.8h-1.8v-1.8h-7v3.5h5.3v1.8h3.5v1.8h1.8v1.8h1.8v3.5h-1.8v1.8h-1.8v1.8h-10.5v-1.8H467V126.4z"/>
	<path d="M511,119.4v10.5h-3.5v-24.6h3.5v8.8h1.8v-1.8h1.8v-1.8h5.3v1.8h1.8v1.8h1.8v1.8h1.8v14.1h-3.5v-12.3h-1.8v-1.8H518v-1.8
		h-1.8v1.8h-1.8v1.8h-1.8v1.8H511z"/>
	<path d="M532.1,129.9v-1.8h-1.8v-1.8h-1.8v-7h1.8v-1.8h1.8v-1.8h8.8v1.8h1.8v-3.5h-1.8v-1.8h-8.8v-3.5h10.5v1.8h1.8v1.8h1.8v17.6
		h-3.5v-1.8h-1.8v1.8H532.1z M533.8,126.4h7v-1.8h1.8v-3.5h-1.8v-1.8h-7v1.8h-1.8v3.5h1.8V126.4z"/>
	<path d="M549.7,110.6h3.5v10.5h1.8v1.8h1.8v1.8h3.5v-1.8h1.8v-1.8h1.8v-10.5h3.5v12.3h-1.8v1.8h-1.8v1.8H562v1.8h-1.8v1.8h-3.5
		v-1.8h-1.8v-1.8h-1.8v-1.8h-1.8v-1.8h-1.8V110.6z"/>
	<path d="M588.3,124.6v1.8h-1.8v1.8h-1.8v1.8h-10.5v-1.8h-1.8v-1.8h-1.8v-12.3h1.8v-1.8h1.8v-1.8h10.5v1.8h1.8v1.8h1.8v5.3h-1.8v1.8
		h-12.3v3.5h1.8v1.8h7v-1.8H588.3z M574.3,115.9v1.8h10.5v-1.8h-1.8v-1.8h-7v1.8H574.3z"/>
	<path d="M616.5,129.9v-1.8h-1.8v-1.8h-1.8v-7h1.8v-1.8h1.8v-1.8h8.8v1.8h1.8v-3.5h-1.8v-1.8h-8.8v-3.5H627v1.8h1.8v1.8h1.8v17.6
		H627v-1.8h-1.8v1.8H616.5z M618.2,126.4h7v-1.8h1.8v-3.5h-1.8v-1.8h-7v1.8h-1.8v3.5h1.8V126.4z"/>
	<path d="M658.6,115.9v14.1h-3.5v-19.3h3.5v1.8h1.8v-1.8h8.8v1.8h1.8v1.8h1.8v15.8h-3.5v-14.1h-1.8v-1.8h-1.8v15.8h-3.5v-15.8h-1.8
		v1.8H658.6z"/>
	<path d="M688.5,126.4h1.8v3.5h-3.5v-1.8H685v-1.8h-1.8v-8.8h-3.5v-3.5h7v10.5h1.8V126.4z M686.8,107.1v3.5h-3.5v-3.5H686.8z"/>
	<path d="M709.6,126.4h1.8v3.5h-3.5v-1.8h-1.8v-1.8h-1.8v-12.3h-3.5v-3.5h3.5v-5.3h3.5v5.3h3.5v3.5h-3.5v10.5h1.8V126.4z"/>
	<path d="M730.7,126.4h1.8v3.5H729v-1.8h-1.8v-1.8h-1.8v-8.8h-3.5v-3.5h7v10.5h1.8V126.4z M729,107.1v3.5h-3.5v-3.5H729z"/>
	<path d="M743,128.2h-1.8v-3.5h3.5v1.8h7v-1.8h1.8v-5.3h-1.8v1.8H743v-1.8h-1.8v-1.8h-1.8v-5.3h1.8v-1.8h1.8v-1.8h10.5v1.8h1.8v1.8
		h1.8v14.1h-1.8v1.8h-1.8v1.8H743V128.2z M753.6,115.9v-1.8h-1.8v-1.8h-7v1.8H743v1.8h1.8v1.8h7v-1.8H753.6z"/>
	<path d="M764.1,129.9v-1.8h-1.8v-1.8h-1.8v-7h1.8v-1.8h1.8v-1.8h8.8v1.8h1.8v-3.5h-1.8v-1.8h-8.8v-3.5h10.5v1.8h1.8v1.8h1.8v17.6
		h-3.5v-1.8h-1.8v1.8H764.1z M765.9,126.4h7v-1.8h1.8v-3.5h-1.8v-1.8h-7v1.8h-1.8v3.5h1.8V126.4z"/>
	<path d="M794,126.4h1.8v3.5h-3.5v-1.8h-1.8v-1.8h-1.8v-12.3h-3.5v-3.5h3.5v-5.3h3.5v5.3h3.5v3.5h-3.5v10.5h1.8V126.4z"/>
	<path d="M815.1,126.4h1.8v3.5h-3.5v-1.8h-1.8v-1.8h-1.8v-8.8h-3.5v-3.5h7v10.5h1.8V126.4z M813.3,107.1v3.5h-3.5v-3.5H813.3z"/>
	<path d="M827.4,115.9v14.1h-3.5v-19.3h3.5v1.8h1.8v-1.8h8.8v1.8h1.8v1.8h1.8v15.8h-3.5v-14.1h-1.8v-1.8h-7v1.8H827.4z"/>
	<path d="M848.5,128.2h-1.8v-3.5h3.5v1.8h7v-1.8h1.8v-5.3h-1.8v1.8h-8.8v-1.8h-1.8v-1.8H845v-5.3h1.8v-1.8h1.8v-1.8H859v1.8h1.8v1.8
		h1.8v14.1h-1.8v1.8H859v1.8h-10.5V128.2z M859,115.9v-1.8h-1.8v-1.8h-7v1.8h-1.8v1.8h1.8v1.8h7v-1.8H859z"/>
</g>
<g class="st1">
	<path class="st2" d="M289.5,124.6v-1.8h3.5v3.5h-1.8v1.8h-1.8v1.8H279v-1.8h-1.8v-1.8h-1.8v-12.3h1.8v-1.8h1.8v-1.8h10.5v1.8h1.8
		v1.8h1.8v3.5h-3.5v-1.8h-1.8v-1.8h-7v1.8H279v8.8h1.8v1.8h7v-1.8H289.5z"/>
	<path class="st2" d="M300.1,119.4v10.5h-3.5v-24.6h3.5v8.8h1.8v-1.8h1.8v-1.8h5.3v1.8h1.8v1.8h1.8v1.8h1.8v14.1h-3.5v-12.3h-1.8
		v-1.8h-1.8v-1.8h-1.8v1.8h-1.8v1.8h-1.8v1.8H300.1z"/>
	<path class="st2" d="M329.9,126.4h1.8v3.5h-3.5v-1.8h-1.8v-1.8h-1.8v-8.8h-3.5v-3.5h7v10.5h1.8V126.4z M328.2,107.1v3.5h-3.5v-3.5
		H328.2z"/>
	<path class="st2" d="M342.2,129.9v-1.8h-1.8v-1.8h-1.8v-7h1.8v-1.8h1.8v-1.8h8.8v1.8h1.8v-3.5H351v-1.8h-8.8v-3.5h10.5v1.8h1.8v1.8
		h1.8v17.6h-3.5v-1.8H351v1.8H342.2z M344,126.4h7v-1.8h1.8v-3.5H351v-1.8h-7v1.8h-1.8v3.5h1.8V126.4z"/>
	<path class="st2" d="M382.7,126.4h-1.8v-3.5h3.5v1.8h1.8v1.8h7v-3.5h-3.5v-1.8h-3.5v-1.8h-3.5v-1.8h-1.8v-3.5h1.8v-1.8h1.8v-1.8
		H395v1.8h1.8v1.8h1.8v3.5H395v-1.8h-1.8v-1.8h-7v3.5h5.3v1.8h3.5v1.8h1.8v1.8h1.8v3.5h-1.8v1.8H395v1.8h-10.5v-1.8h-1.8V126.4z"/>
	<path class="st2" d="M419.6,124.6v1.8h-1.8v1.8h-1.8v1.8h-10.5v-1.8h-1.8v-1.8H402v-12.3h1.8v-1.8h1.8v-1.8h10.5v1.8h1.8v1.8h1.8
		v5.3h-1.8v1.8h-12.3v3.5h1.8v1.8h7v-1.8H419.6z M405.5,115.9v1.8h10.5v-1.8h-1.8v-1.8h-7v1.8H405.5z"/>
	<path class="st2" d="M440.7,124.6v1.8h-1.8v1.8h-1.8v1.8h-10.5v-1.8h-1.8v-1.8h-1.8v-12.3h1.8v-1.8h1.8v-1.8h10.5v1.8h1.8v1.8h1.8
		v5.3h-1.8v1.8h-12.3v3.5h1.8v1.8h7v-1.8H440.7z M426.6,115.9v1.8h10.5v-1.8h-1.8v-1.8h-7v1.8H426.6z"/>
	<path class="st2" d="M458.3,114.1v-8.8h3.5v24.6h-3.5v-3.5h-1.8v1.8h-1.8v1.8h-5.3v-1.8h-1.8v-1.8H446v-1.8h-1.8v-8.8h1.8v-1.8h1.8
		v-1.8h1.8v-1.8h5.3v1.8h1.8v1.8H458.3z M449.5,124.6h1.8v1.8h1.8v-1.8h1.8v-1.8h1.8v-5.3h-1.8v-1.8H453v-1.8h-1.8v1.8h-1.8v1.8
		h-1.8v5.3h1.8V124.6z"/>
	<path class="st2" d="M467,126.4h-1.8v-3.5h3.5v1.8h1.8v1.8h7v-3.5h-3.5v-1.8h-3.5v-1.8H467v-1.8h-1.8v-3.5h1.8v-1.8h1.8v-1.8h10.5
		v1.8h1.8v1.8h1.8v3.5h-3.5v-1.8h-1.8v-1.8h-7v3.5h5.3v1.8h3.5v1.8h1.8v1.8h1.8v3.5h-1.8v1.8h-1.8v1.8h-10.5v-1.8H467V126.4z"/>
	<path class="st2" d="M511,119.4v10.5h-3.5v-24.6h3.5v8.8h1.8v-1.8h1.8v-1.8h5.3v1.8h1.8v1.8h1.8v1.8h1.8v14.1h-3.5v-12.3h-1.8v-1.8
		H518v-1.8h-1.8v1.8h-1.8v1.8h-1.8v1.8H511z"/>
	<path class="st2" d="M532.1,129.9v-1.8h-1.8v-1.8h-1.8v-7h1.8v-1.8h1.8v-1.8h8.8v1.8h1.8v-3.5h-1.8v-1.8h-8.8v-3.5h10.5v1.8h1.8
		v1.8h1.8v17.6h-3.5v-1.8h-1.8v1.8H532.1z M533.8,126.4h7v-1.8h1.8v-3.5h-1.8v-1.8h-7v1.8h-1.8v3.5h1.8V126.4z"/>
	<path class="st2" d="M549.7,110.6h3.5v10.5h1.8v1.8h1.8v1.8h3.5v-1.8h1.8v-1.8h1.8v-10.5h3.5v12.3h-1.8v1.8h-1.8v1.8H562v1.8h-1.8
		v1.8h-3.5v-1.8h-1.8v-1.8h-1.8v-1.8h-1.8v-1.8h-1.8V110.6z"/>
	<path class="st2" d="M588.3,124.6v1.8h-1.8v1.8h-1.8v1.8h-10.5v-1.8h-1.8v-1.8h-1.8v-12.3h1.8v-1.8h1.8v-1.8h10.5v1.8h1.8v1.8h1.8
		v5.3h-1.8v1.8h-12.3v3.5h1.8v1.8h7v-1.8H588.3z M574.3,115.9v1.8h10.5v-1.8h-1.8v-1.8h-7v1.8H574.3z"/>
	<path class="st2" d="M616.5,129.9v-1.8h-1.8v-1.8h-1.8v-7h1.8v-1.8h1.8v-1.8h8.8v1.8h1.8v-3.5h-1.8v-1.8h-8.8v-3.5H627v1.8h1.8v1.8
		h1.8v17.6H627v-1.8h-1.8v1.8H616.5z M618.2,126.4h7v-1.8h1.8v-3.5h-1.8v-1.8h-7v1.8h-1.8v3.5h1.8V126.4z"/>
	<path class="st2" d="M658.6,115.9v14.1h-3.5v-19.3h3.5v1.8h1.8v-1.8h8.8v1.8h1.8v1.8h1.8v15.8h-3.5v-14.1h-1.8v-1.8h-1.8v15.8h-3.5
		v-15.8h-1.8v1.8H658.6z"/>
	<path class="st2" d="M688.5,126.4h1.8v3.5h-3.5v-1.8H685v-1.8h-1.8v-8.8h-3.5v-3.5h7v10.5h1.8V126.4z M686.8,107.1v3.5h-3.5v-3.5
		H686.8z"/>
	<path class="st2" d="M709.6,126.4h1.8v3.5h-3.5v-1.8h-1.8v-1.8h-1.8v-12.3h-3.5v-3.5h3.5v-5.3h3.5v5.3h3.5v3.5h-3.5v10.5h1.8V126.4
		z"/>
	<path class="st2" d="M730.7,126.4h1.8v3.5H729v-1.8h-1.8v-1.8h-1.8v-8.8h-3.5v-3.5h7v10.5h1.8V126.4z M729,107.1v3.5h-3.5v-3.5H729
		z"/>
	<path class="st2" d="M743,128.2h-1.8v-3.5h3.5v1.8h7v-1.8h1.8v-5.3h-1.8v1.8H743v-1.8h-1.8v-1.8h-1.8v-5.3h1.8v-1.8h1.8v-1.8h10.5
		v1.8h1.8v1.8h1.8v14.1h-1.8v1.8h-1.8v1.8H743V128.2z M753.6,115.9v-1.8h-1.8v-1.8h-7v1.8H743v1.8h1.8v1.8h7v-1.8H753.6z"/>
	<path class="st2" d="M764.1,129.9v-1.8h-1.8v-1.8h-1.8v-7h1.8v-1.8h1.8v-1.8h8.8v1.8h1.8v-3.5h-1.8v-1.8h-8.8v-3.5h10.5v1.8h1.8
		v1.8h1.8v17.6h-3.5v-1.8h-1.8v1.8H764.1z M765.9,126.4h7v-1.8h1.8v-3.5h-1.8v-1.8h-7v1.8h-1.8v3.5h1.8V126.4z"/>
	<path class="st2" d="M794,126.4h1.8v3.5h-3.5v-1.8h-1.8v-1.8h-1.8v-12.3h-3.5v-3.5h3.5v-5.3h3.5v5.3h3.5v3.5h-3.5v10.5h1.8V126.4z"
		/>
	<path class="st2" d="M815.1,126.4h1.8v3.5h-3.5v-1.8h-1.8v-1.8h-1.8v-8.8h-3.5v-3.5h7v10.5h1.8V126.4z M813.3,107.1v3.5h-3.5v-3.5
		H813.3z"/>
	<path class="st2" d="M827.4,115.9v14.1h-3.5v-19.3h3.5v1.8h1.8v-1.8h8.8v1.8h1.8v1.8h1.8v15.8h-3.5v-14.1h-1.8v-1.8h-7v1.8H827.4z"
		/>
	<path class="st2" d="M848.5,128.2h-1.8v-3.5h3.5v1.8h7v-1.8h1.8v-5.3h-1.8v1.8h-8.8v-1.8h-1.8v-1.8H845v-5.3h1.8v-1.8h1.8v-1.8H859
		v1.8h1.8v1.8h1.8v14.1h-1.8v1.8H859v1.8h-10.5V128.2z M859,115.9v-1.8h-1.8v-1.8h-7v1.8h-1.8v1.8h1.8v1.8h7v-1.8H859z"/>
</g>
<g class="st1">
	<path d="M293,167.8v1.8h-1.8v1.8h-1.8v1.8H279v-1.8h-1.8v-1.8h-1.8v-12.3h1.8v-1.8h1.8v-1.8h10.5v1.8h1.8v1.8h1.8v5.3h-1.8v1.8H279
		v3.5h1.8v1.8h7v-1.8H293z M279,159.1v1.8h10.5v-1.8h-1.8v-1.8h-7v1.8H279z"/>
	<path d="M307.1,173.1h-3.5v-15.8h-5.3v-3.5h5.3v-3.5h1.8v-1.8h7v3.5h-5.3v1.8h5.3v3.5h-5.3V173.1z"/>
	<path d="M328.2,173.1h-3.5v-15.8h-5.3v-3.5h5.3v-3.5h1.8v-1.8h7v3.5h-5.3v1.8h5.3v3.5h-5.3V173.1z"/>
	<path d="M356.3,167.8v1.8h-1.8v1.8h-1.8v1.8h-10.5v-1.8h-1.8v-1.8h-1.8v-12.3h1.8v-1.8h1.8v-1.8h10.5v1.8h1.8v1.8h1.8v5.3h-1.8v1.8
		h-12.3v3.5h1.8v1.8h7v-1.8H356.3z M342.2,159.1v1.8h10.5v-1.8H351v-1.8h-7v1.8H342.2z"/>
	<path d="M373.9,167.8v-1.8h3.5v3.5h-1.8v1.8h-1.8v1.8h-10.5v-1.8h-1.8v-1.8h-1.8v-12.3h1.8v-1.8h1.8v-1.8h10.5v1.8h1.8v1.8h1.8v3.5
		h-3.5v-1.8h-1.8v-1.8h-7v1.8h-1.8v8.8h1.8v1.8h7v-1.8H373.9z"/>
	<path d="M393.2,169.6h1.8v3.5h-3.5v-1.8h-1.8v-1.8h-1.8v-12.3h-3.5v-3.5h3.5v-5.3h3.5v5.3h3.5v3.5h-3.5v10.5h1.8V169.6z"/>
	<path d="M426.6,173.1v-1.8h-1.8v-1.8h-1.8v-12.3h1.8v-1.8h1.8v-1.8h10.5v1.8h1.8v1.8h1.8v12.3h-1.8v1.8h-1.8v1.8H426.6z
		 M428.4,169.6h7v-1.8h1.8v-8.8h-1.8v-1.8h-7v1.8h-1.8v8.8h1.8V169.6z"/>
	<path d="M447.7,159.1v14.1h-3.5v-19.3h3.5v1.8h1.8v-1.8h8.8v1.8h1.8v1.8h1.8v15.8h-3.5v-14.1h-1.8v-1.8h-7v1.8H447.7z"/>
	<path d="M489.9,162.6v10.5h-3.5v-24.6h3.5v8.8h1.8v-1.8h1.8v-1.8h5.3v1.8h1.8v1.8h1.8v1.8h1.8v14.1h-3.5v-12.3h-1.8v-1.8h-1.8v-1.8
		h-1.8v1.8h-1.8v1.8h-1.8v1.8H489.9z"/>
	<path d="M525.1,167.8v1.8h-1.8v1.8h-1.8v1.8H511v-1.8h-1.8v-1.8h-1.8v-12.3h1.8v-1.8h1.8v-1.8h10.5v1.8h1.8v1.8h1.8v5.3h-1.8v1.8
		H511v3.5h1.8v1.8h7v-1.8H525.1z M511,159.1v1.8h10.5v-1.8h-1.8v-1.8h-7v1.8H511z"/>
	<path d="M532.1,173.1v-1.8h-1.8v-1.8h-1.8v-7h1.8v-1.8h1.8v-1.8h8.8v1.8h1.8v-3.5h-1.8v-1.8h-8.8V152h10.5v1.8h1.8v1.8h1.8v17.6
		h-3.5v-1.8h-1.8v1.8H532.1z M533.8,169.6h7v-1.8h1.8v-3.5h-1.8v-1.8h-7v1.8h-1.8v3.5h1.8V169.6z"/>
	<path d="M553.2,162.6v10.5h-3.5v-19.3h3.5v3.5h1.8v-1.8h1.8v-1.8h7v1.8h1.8v1.8h1.8v3.5h-3.5v-1.8H562v-1.8h-3.5v1.8h-1.8v1.8h-1.8
		v1.8H553.2z"/>
	<path d="M583.1,169.6h1.8v3.5h-3.5v-1.8h-1.8v-1.8h-1.8v-12.3h-3.5v-3.5h3.5v-5.3h3.5v5.3h3.5v3.5h-3.5v10.5h1.8V169.6z"/>
	<path d="M627,157.3v-8.8h3.5v24.6H627v-3.5h-1.8v1.8h-1.8v1.8h-5.3v-1.8h-1.8v-1.8h-1.8v-1.8h-1.8v-8.8h1.8v-1.8h1.8v-1.8h1.8v-1.8
		h5.3v1.8h1.8v1.8H627z M618.2,167.8h1.8v1.8h1.8v-1.8h1.8v-1.8h1.8v-5.3h-1.8v-1.8h-1.8v-1.8H620v1.8h-1.8v1.8h-1.8v5.3h1.8V167.8z
		"/>
	<path d="M646.3,169.6h1.8v3.5h-3.5v-1.8h-1.8v-1.8h-1.8v-8.8h-3.5v-3.5h7v10.5h1.8V169.6z M644.6,150.3v3.5h-3.5v-3.5H644.6z"/>
	<path d="M656.9,169.6h-1.8v-3.5h3.5v1.8h1.8v1.8h7v-3.5h-3.5v-1.8h-3.5v-1.8h-3.5v-1.8h-1.8v-3.5h1.8v-1.8h1.8v-1.8h10.5v1.8h1.8
		v1.8h1.8v3.5h-3.5v-1.8h-1.8v-1.8h-7v3.5h5.3v1.8h3.5v1.8h1.8v1.8h1.8v3.5H671v1.8h-1.8v1.8h-10.5v-1.8h-1.8V169.6z"/>
	<path d="M693.8,167.8v1.8H692v1.8h-1.8v1.8h-10.5v-1.8H678v-1.8h-1.8v-12.3h1.8v-1.8h1.8v-1.8h10.5v1.8h1.8v1.8h1.8v5.3H692v1.8
		h-12.3v3.5h1.8v1.8h7v-1.8H693.8z M679.7,159.1v1.8h10.5v-1.8h-1.8v-1.8h-7v1.8H679.7z"/>
	<path d="M700.8,173.1v-1.8h-1.8v-1.8h-1.8v-7h1.8v-1.8h1.8v-1.8h8.8v1.8h1.8v-3.5h-1.8v-1.8h-8.8V152h10.5v1.8h1.8v1.8h1.8v17.6
		h-3.5v-1.8h-1.8v1.8H700.8z M702.6,169.6h7v-1.8h1.8v-3.5h-1.8v-1.8h-7v1.8h-1.8v3.5h1.8V169.6z"/>
	<path d="M720.2,169.6h-1.8v-3.5h3.5v1.8h1.8v1.8h7v-3.5h-3.5v-1.8h-3.5v-1.8h-3.5v-1.8h-1.8v-3.5h1.8v-1.8h1.8v-1.8h10.5v1.8h1.8
		v1.8h1.8v3.5h-3.5v-1.8h-1.8v-1.8h-7v3.5h5.3v1.8h3.5v1.8h1.8v1.8h1.8v3.5h-1.8v1.8h-1.8v1.8h-10.5v-1.8h-1.8V169.6z"/>
	<path d="M757.1,167.8v1.8h-1.8v1.8h-1.8v1.8H743v-1.8h-1.8v-1.8h-1.8v-12.3h1.8v-1.8h1.8v-1.8h10.5v1.8h1.8v1.8h1.8v5.3h-1.8v1.8
		H743v3.5h1.8v1.8h7v-1.8H757.1z M743,159.1v1.8h10.5v-1.8h-1.8v-1.8h-7v1.8H743z"/>
	<path d="M785.2,162.6v10.5h-3.5v-19.3h3.5v3.5h1.8v-1.8h1.8v-1.8h7v1.8h1.8v1.8h1.8v3.5h-3.5v-1.8H794v-1.8h-3.5v1.8h-1.8v1.8H787
		v1.8H785.2z"/>
	<path d="M815.1,169.6h1.8v3.5h-3.5v-1.8h-1.8v-1.8h-1.8v-8.8h-3.5v-3.5h7v10.5h1.8V169.6z M813.3,150.3v3.5h-3.5v-3.5H813.3z"/>
	<path d="M825.6,169.6h-1.8v-3.5h3.5v1.8h1.8v1.8h7v-3.5h-3.5v-1.8h-3.5v-1.8h-3.5v-1.8h-1.8v-3.5h1.8v-1.8h1.8v-1.8h10.5v1.8h1.8
		v1.8h1.8v3.5h-3.5v-1.8h-1.8v-1.8h-7v3.5h5.3v1.8h3.5v1.8h1.8v1.8h1.8v3.5h-1.8v1.8h-1.8v1.8h-10.5v-1.8h-1.8V169.6z"/>
	<path d="M848.5,169.6v3.5H845v-24.6h3.5v15.8h1.8v-1.8h1.8v-1.8h1.8v-1.8h1.8v-1.8h1.8v-1.8h1.8v-1.8h3.5v3.5h-1.8v1.8H859v1.8
		h-1.8v1.8h-1.8v1.8h1.8v1.8h1.8v1.8h1.8v1.8h1.8v3.5H859v-1.8h-1.8v-1.8h-1.8v-1.8h-1.8v-1.8H852v1.8h-1.8v1.8H848.5z"/>
</g>
<g class="st1">
	<path class="st2" d="M293,167.8v1.8h-1.8v1.8h-1.8v1.8H279v-1.8h-1.8v-1.8h-1.8v-12.3h1.8v-1.8h1.8v-1.8h10.5v1.8h1.8v1.8h1.8v5.3
		h-1.8v1.8H279v3.5h1.8v1.8h7v-1.8H293z M279,159.1v1.8h10.5v-1.8h-1.8v-1.8h-7v1.8H279z"/>
	<path class="st2" d="M307.1,173.1h-3.5v-15.8h-5.3v-3.5h5.3v-3.5h1.8v-1.8h7v3.5h-5.3v1.8h5.3v3.5h-5.3V173.1z"/>
	<path class="st2" d="M328.2,173.1h-3.5v-15.8h-5.3v-3.5h5.3v-3.5h1.8v-1.8h7v3.5h-5.3v1.8h5.3v3.5h-5.3V173.1z"/>
	<path class="st2" d="M356.3,167.8v1.8h-1.8v1.8h-1.8v1.8h-10.5v-1.8h-1.8v-1.8h-1.8v-12.3h1.8v-1.8h1.8v-1.8h10.5v1.8h1.8v1.8h1.8
		v5.3h-1.8v1.8h-12.3v3.5h1.8v1.8h7v-1.8H356.3z M342.2,159.1v1.8h10.5v-1.8H351v-1.8h-7v1.8H342.2z"/>
	<path class="st2" d="M373.9,167.8v-1.8h3.5v3.5h-1.8v1.8h-1.8v1.8h-10.5v-1.8h-1.8v-1.8h-1.8v-12.3h1.8v-1.8h1.8v-1.8h10.5v1.8h1.8
		v1.8h1.8v3.5h-3.5v-1.8h-1.8v-1.8h-7v1.8h-1.8v8.8h1.8v1.8h7v-1.8H373.9z"/>
	<path class="st2" d="M393.2,169.6h1.8v3.5h-3.5v-1.8h-1.8v-1.8h-1.8v-12.3h-3.5v-3.5h3.5v-5.3h3.5v5.3h3.5v3.5h-3.5v10.5h1.8V169.6
		z"/>
	<path class="st2" d="M426.6,173.1v-1.8h-1.8v-1.8h-1.8v-12.3h1.8v-1.8h1.8v-1.8h10.5v1.8h1.8v1.8h1.8v12.3h-1.8v1.8h-1.8v1.8H426.6
		z M428.4,169.6h7v-1.8h1.8v-8.8h-1.8v-1.8h-7v1.8h-1.8v8.8h1.8V169.6z"/>
	<path class="st2" d="M447.7,159.1v14.1h-3.5v-19.3h3.5v1.8h1.8v-1.8h8.8v1.8h1.8v1.8h1.8v15.8h-3.5v-14.1h-1.8v-1.8h-7v1.8H447.7z"
		/>
	<path class="st2" d="M489.9,162.6v10.5h-3.5v-24.6h3.5v8.8h1.8v-1.8h1.8v-1.8h5.3v1.8h1.8v1.8h1.8v1.8h1.8v14.1h-3.5v-12.3h-1.8
		v-1.8h-1.8v-1.8h-1.8v1.8h-1.8v1.8h-1.8v1.8H489.9z"/>
	<path class="st2" d="M525.1,167.8v1.8h-1.8v1.8h-1.8v1.8H511v-1.8h-1.8v-1.8h-1.8v-12.3h1.8v-1.8h1.8v-1.8h10.5v1.8h1.8v1.8h1.8
		v5.3h-1.8v1.8H511v3.5h1.8v1.8h7v-1.8H525.1z M511,159.1v1.8h10.5v-1.8h-1.8v-1.8h-7v1.8H511z"/>
	<path class="st2" d="M532.1,173.1v-1.8h-1.8v-1.8h-1.8v-7h1.8v-1.8h1.8v-1.8h8.8v1.8h1.8v-3.5h-1.8v-1.8h-8.8V152h10.5v1.8h1.8v1.8
		h1.8v17.6h-3.5v-1.8h-1.8v1.8H532.1z M533.8,169.6h7v-1.8h1.8v-3.5h-1.8v-1.8h-7v1.8h-1.8v3.5h1.8V169.6z"/>
	<path class="st2" d="M553.2,162.6v10.5h-3.5v-19.3h3.5v3.5h1.8v-1.8h1.8v-1.8h7v1.8h1.8v1.8h1.8v3.5h-3.5v-1.8H562v-1.8h-3.5v1.8
		h-1.8v1.8h-1.8v1.8H553.2z"/>
	<path class="st2" d="M583.1,169.6h1.8v3.5h-3.5v-1.8h-1.8v-1.8h-1.8v-12.3h-3.5v-3.5h3.5v-5.3h3.5v5.3h3.5v3.5h-3.5v10.5h1.8V169.6
		z"/>
	<path class="st2" d="M627,157.3v-8.8h3.5v24.6H627v-3.5h-1.8v1.8h-1.8v1.8h-5.3v-1.8h-1.8v-1.8h-1.8v-1.8h-1.8v-8.8h1.8v-1.8h1.8
		v-1.8h1.8v-1.8h5.3v1.8h1.8v1.8H627z M618.2,167.8h1.8v1.8h1.8v-1.8h1.8v-1.8h1.8v-5.3h-1.8v-1.8h-1.8v-1.8H620v1.8h-1.8v1.8h-1.8
		v5.3h1.8V167.8z"/>
	<path class="st2" d="M646.3,169.6h1.8v3.5h-3.5v-1.8h-1.8v-1.8h-1.8v-8.8h-3.5v-3.5h7v10.5h1.8V169.6z M644.6,150.3v3.5h-3.5v-3.5
		H644.6z"/>
	<path class="st2" d="M656.9,169.6h-1.8v-3.5h3.5v1.8h1.8v1.8h7v-3.5h-3.5v-1.8h-3.5v-1.8h-3.5v-1.8h-1.8v-3.5h1.8v-1.8h1.8v-1.8
		h10.5v1.8h1.8v1.8h1.8v3.5h-3.5v-1.8h-1.8v-1.8h-7v3.5h5.3v1.8h3.5v1.8h1.8v1.8h1.8v3.5H671v1.8h-1.8v1.8h-10.5v-1.8h-1.8V169.6z"
		/>
	<path class="st2" d="M693.8,167.8v1.8H692v1.8h-1.8v1.8h-10.5v-1.8H678v-1.8h-1.8v-12.3h1.8v-1.8h1.8v-1.8h10.5v1.8h1.8v1.8h1.8
		v5.3H692v1.8h-12.3v3.5h1.8v1.8h7v-1.8H693.8z M679.7,159.1v1.8h10.5v-1.8h-1.8v-1.8h-7v1.8H679.7z"/>
	<path class="st2" d="M700.8,173.1v-1.8h-1.8v-1.8h-1.8v-7h1.8v-1.8h1.8v-1.8h8.8v1.8h1.8v-3.5h-1.8v-1.8h-8.8V152h10.5v1.8h1.8v1.8
		h1.8v17.6h-3.5v-1.8h-1.8v1.8H700.8z M702.6,169.6h7v-1.8h1.8v-3.5h-1.8v-1.8h-7v1.8h-1.8v3.5h1.8V169.6z"/>
	<path class="st2" d="M720.2,169.6h-1.8v-3.5h3.5v1.8h1.8v1.8h7v-3.5h-3.5v-1.8h-3.5v-1.8h-3.5v-1.8h-1.8v-3.5h1.8v-1.8h1.8v-1.8
		h10.5v1.8h1.8v1.8h1.8v3.5h-3.5v-1.8h-1.8v-1.8h-7v3.5h5.3v1.8h3.5v1.8h1.8v1.8h1.8v3.5h-1.8v1.8h-1.8v1.8h-10.5v-1.8h-1.8V169.6z"
		/>
	<path class="st2" d="M757.1,167.8v1.8h-1.8v1.8h-1.8v1.8H743v-1.8h-1.8v-1.8h-1.8v-12.3h1.8v-1.8h1.8v-1.8h10.5v1.8h1.8v1.8h1.8
		v5.3h-1.8v1.8H743v3.5h1.8v1.8h7v-1.8H757.1z M743,159.1v1.8h10.5v-1.8h-1.8v-1.8h-7v1.8H743z"/>
	<path class="st2" d="M785.2,162.6v10.5h-3.5v-19.3h3.5v3.5h1.8v-1.8h1.8v-1.8h7v1.8h1.8v1.8h1.8v3.5h-3.5v-1.8H794v-1.8h-3.5v1.8
		h-1.8v1.8H787v1.8H785.2z"/>
	<path class="st2" d="M815.1,169.6h1.8v3.5h-3.5v-1.8h-1.8v-1.8h-1.8v-8.8h-3.5v-3.5h7v10.5h1.8V169.6z M813.3,150.3v3.5h-3.5v-3.5
		H813.3z"/>
	<path class="st2" d="M825.6,169.6h-1.8v-3.5h3.5v1.8h1.8v1.8h7v-3.5h-3.5v-1.8h-3.5v-1.8h-3.5v-1.8h-1.8v-3.5h1.8v-1.8h1.8v-1.8
		h10.5v1.8h1.8v1.8h1.8v3.5h-3.5v-1.8h-1.8v-1.8h-7v3.5h5.3v1.8h3.5v1.8h1.8v1.8h1.8v3.5h-1.8v1.8h-1.8v1.8h-10.5v-1.8h-1.8V169.6z"
		/>
	<path class="st2" d="M848.5,169.6v3.5H845v-24.6h3.5v15.8h1.8v-1.8h1.8v-1.8h1.8v-1.8h1.8v-1.8h1.8v-1.8h1.8v-1.8h3.5v3.5h-1.8v1.8
		H859v1.8h-1.8v1.8h-1.8v1.8h1.8v1.8h1.8v1.8h1.8v1.8h1.8v3.5H859v-1.8h-1.8v-1.8h-1.8v-1.8h-1.8v-1.8H852v1.8h-1.8v1.8H848.5z"/>
</g>
<g>
	<path class="st3" d="M792.5,370v-36h-9v-18h-9v-9h-9v-9h-9v-9h-9v-9h-10h-8v-9h-18v-9h-18.9h-9h-26.9h-9h-9h-8.3v9h-9.7h-8.3v9
		h-9.6h-9v9h-9v18h-9v9h-9v9h-9v9h-9v0.2h-0.3v-9h-9v-9h-9v-9h-9v-18h-9v-9h-9h-9v-9h-9h-9v-9h-9h-9h-9h-26.9h-9h-17.9v9h-17.9v9h-9
		h-9v9h-9v9h-9v9h-9v9h-9v18h-9v36h-9v81v9h9v9v9h9v9h9v9v9h9v18h9v9h9v9h9v9h9v9v9h9v9h9v9h9v9h9v9h9v9v9h9v9v9h9v9h0.4h9.3v9h8.3
		v9h9v9h8.5v18h9.4v9h9v9h9v9h9v9h9v9h9v9h9v9h26.9V757h0.3v-8.8h8.7V748h0.3v-8.8h8.7V739h0.3v-8.8h8.7V730h0.3v-8.8h8.7V721h0.3
		v-8.8h8.7V712h0.3v-8.8h8.7V703h0.3v-8.8h8.7V694h0.8v-17.8h8.2V676h0.3v-9h9v-9h8.3v-8.8h0.1h0.4V649h8.9h0.4v-9h9v-9v-9h9v-9v-9
		h9v-9h9v-9h9v-9h9v-9h9v-9v-9h9v-9h9v-9h9v-9h9v-18h10v-9v-9h9v-9h9v-9v-9h9v-9l0.2-81H792.5z M557.7,379h0.3v0.2h-0.3V379z"/>
	<polygon class="st4" points="675.5,478 666.5,478 657.5,478 657.5,487 648.5,487 648.5,505 648.5,514 630.5,514 630.5,478 
		621.5,478 621.5,460 621.5,451 612.5,451 612.5,433 585.5,433 576.5,433 567.5,433 567.5,442 558.5,442 558.5,469 549.5,469 
		549.5,514 540.5,514 540.5,550 513.5,550 513.5,460 504.5,460 504.5,424 504.5,415 504.5,406 495.5,406 495.5,397 495.5,388 
		486.5,388 486.5,379 486.5,370 477.5,370 477.5,361 450.5,361 450.5,370 441.5,370 441.5,379 432.5,379 432.5,388 432.5,397 
		432.5,406 423.5,406 423.5,442 414.5,442 414.5,478 315.5,478 315.5,487 324.5,487 324.5,496 333.5,496 333.5,505 423.5,505 
		423.5,496 432.5,496 432.5,487 441.5,487 441.5,478 441.5,460 450.5,460 450.5,406 459.5,406 477.5,406 477.5,460 486.5,460 
		486.5,514 495.5,514 495.5,559 504.5,559 504.5,586 513.5,586 513.5,595 540.5,595 540.5,586 549.5,586 549.5,577 558.5,577 
		558.5,559 567.5,559 567.5,523 576.5,523 576.5,478 585.5,478 585.5,460 603.5,460 603.5,523 612.5,523 612.5,541 621.5,541 
		621.5,550 630.5,550 648.5,550 648.5,541 657.5,541 657.5,532 666.5,532 666.5,514 675.5,514 675.5,505 774.5,505 774.5,496 
		783.5,496 783.5,487 792.5,487 792.5,478 	"/>
</g>
<polygon class="st3" points="295,640 295,631 286,631 286,622 277,622 268,622 259,622 250,622 250,631 241,631 241,640 232,640 
	232,631 223,631 223,622 214,622 205,622 196,622 187,622 187,631 178,631 178,640 169,640 169,658 169,676 169,685 178,685 
	178,694 187,694 187,703 196,703 196,712 205,712 205,721 214,721 214,730 223,730 223,739 232,739 232,748 241,748 241,739 
	250,739 250,730 259,730 259,721 268,721 268,712 277,712 277,703 286,703 286,694 295,694 295,685 304,685 304,676 304,658 
	304,640 "/>
<polygon class="st3" points="970,298 970,289 961,289 961,280 952,280 943,280 934,280 925,280 925,289 916,289 916,298 907,298 
	907,289 898,289 898,280 889,280 880,280 871,280 862,280 862,289 853,289 853,298 844,298 844,316 844,334 844,343 853,343 
	853,352 862,352 862,361 871,361 871,370 880,370 880,379 889,379 889,388 898,388 898,397 907,397 907,406 916,406 916,397 
	925,397 925,388 934,388 934,379 943,379 943,370 952,370 952,361 961,361 961,352 970,352 970,343 979,343 979,334 979,316 
	979,298 "/>
<g>
	<g>
		<path class="st4" d="M346.9,481.5c1.9,0,1.9-3,0-3S345,481.5,346.9,481.5L346.9,481.5z"/>
	</g>
</g>
<g id="TOILET">
</g>
</svg>
