<?xml version="1.0" encoding="utf-8"?>
<!-- Generator: Adobe Illustrator 25.2.3, SVG Export Plug-In . SVG Version: 6.00 Build 0)  -->
<svg version="1.1" xmlns="http://www.w3.org/2000/svg" xmlns:xlink="http://www.w3.org/1999/xlink" x="0px" y="0px"
	 viewBox="0 0 1108 791" style="enable-background:new 0 0 1108 791;" xml:space="preserve">
<style type="text/css">
	.st0{opacity:0.15;}
	.st1{opacity:0.15;fill:#BEBFB9;}
	.st2{fill:none;stroke:#E1E1DF;stroke-miterlimit:10;}
	.st3{stroke:#000000;stroke-miterlimit:10;}
	.st4{stroke:#000000;stroke-width:0.5;stroke-miterlimit:10;}
	.st5{fill:#03464F;}
	.st6{fill:#03464F;stroke:#03464F;stroke-width:0.5;stroke-miterlimit:10;}
	.st7{fill:#026385;}
	.st8{fill:#026385;stroke:#026385;stroke-width:0.5;stroke-miterlimit:10;}
	.st9{fill:#036C84;stroke:#026385;stroke-width:0.5;stroke-miterlimit:10;}
	.st10{fill:#018F9F;}
	.st11{fill:#018F9F;stroke:#018F9F;stroke-width:0.5;stroke-miterlimit:10;}
	.st12{fill:#35BCC0;}
	.st13{fill:#35BCC0;stroke:#35BCC0;stroke-width:0.5;stroke-miterlimit:10;}
	.st14{fill:none;stroke:#606161;stroke-miterlimit:10;}
</style>
<g id="layout">
</g>
<g id="GUIDES">
	<line class="st2" x1="404.8" y1="417.5" x2="404.8" y2="471"/>
	<line class="st2" x1="585.3" y1="417.5" x2="585.3" y2="471"/>
	<line class="st2" x1="765.3" y1="417.5" x2="765.3" y2="471"/>
	<line class="st2" x1="405" y1="30" x2="405" y2="102"/>
	<line class="st2" x1="585.5" y1="30" x2="585.5" y2="102"/>
	<line class="st2" x1="765.5" y1="30" x2="765.5" y2="102"/>
	<line class="st2" x1="405.1" y1="119.8" x2="405.1" y2="407.6"/>
	<line class="st2" x1="585" y1="120" x2="585" y2="407.8"/>
	<line class="st2" x1="584.6" y1="120.6" x2="584.6" y2="408.4"/>
	<line class="st2" x1="765.3" y1="120" x2="765.3" y2="407.8"/>
	<g>
		<path class="st3" d="M120,156.5v6.4h-2.1v-15h8.6v1.1h1.1v1.1h1.1v4.3h-1.1v1.1h-1.1v1.1H120z M120,150.1v4.3h5.4v-1.1h1.1v-2.1
			h-1.1v-1.1H120z"/>
		<path class="st3" d="M134,156.5h-1.1v6.4h-2.1v-15h8.6v1.1h1.1v1.1h1.1v4.3h-1.1v1.1h-1.1v1.1h-2.1v1.1h1.1v1.1h1.1v1.1h1.1v1.1
			h1.1v2.1h-2.1v-1.1h-1.1v-1.1h-1.1v-1.1h-1.1v-1.1H135v-1.1H134V156.5z M132.9,150.1v4.3h5.4v-1.1h1.1v-2.1h-1.1v-1.1H132.9z"/>
		<path class="st3" d="M145.8,149v-1.1h6.4v1.1h1.1v1.1h1.1v10.7h-1.1v1.1h-1.1v1.1h-6.4v-1.1h-1.1v-1.1h-1.1v-10.7h1.1V149H145.8z
			 M151.1,150.1h-4.3v1.1h-1.1v8.6h1.1v1.1h4.3v-1.1h1.1v-8.6h-1.1V150.1z"/>
		<path class="st3" d="M160.8,150.1h-4.3v-2.1h10.7v2.1H163V163h-2.1V150.1z"/>
		<path class="st3" d="M180.1,147.9v2.1h-8.6v4.3h6.4v2.1h-6.4v4.3h8.6v2.1h-10.7v-15H180.1z"/>
		<path class="st3" d="M184.4,163v-2.1h2.1v-10.7h-2.1v-2.1h6.4v2.1h-2.1v10.7h2.1v2.1H184.4z"/>
		<path class="st3" d="M197.3,154.4v8.6h-2.1v-15h2.1v3.2h1.1v1.1h1.1v1.1h1.1v1.1h1.1v1.1h1.1v1.1h1.1v-8.6h2.1v15h-2.1v-3.2h-1.1
			v-1.1h-1.1v-1.1h-1.1v-1.1h-1.1v-1.1h-1.1v-1.1H197.3z"/>
	</g>
	<g>
		<path class="st3" d="M180.1,219.6v2.1h-8.6v4.3h6.4v2.1h-6.4v6.4h-2.1v-15H180.1z"/>
		<path class="st3" d="M184.4,234.6h-2.1v-10.7h1.1v-1.1h1.1v-1.1h1.1v-1.1h1.1v-1.1h2.1v1.1h1.1v1.1h1.1v1.1h1.1v1.1h1.1v10.7h-2.1
			v-4.3h-6.4V234.6z M184.4,228.2h6.4V225h-1.1v-1.1h-1.1v-1.1h-2.1v1.1h-1.1v1.1h-1.1V228.2z"/>
		<path class="st3" d="M199.5,221.7h-4.3v-2.1h10.7v2.1h-4.3v12.9h-2.1V221.7z"/>
	</g>
	<g>
		<path class="st3" d="M146.8,304.5h4.3v-1.1h1.1v-1.1h2.1v2.1h-1.1v1.1h-1.1v1.1h-6.4v-1.1h-1.1v-1.1h-1.1v-10.7h1.1v-1.1h1.1v-1.1
			h6.4v1.1h1.1v1.1h1.1v2.1h-2.1v-1.1h-1.1v-1.1h-4.3v1.1h-1.1v8.6h1.1V304.5z"/>
		<path class="st3" d="M158.7,306.6h-2.1v-10.7h1.1v-1.1h1.1v-1.1h1.1v-1.1h1.1v-1.1h2.1v1.1h1.1v1.1h1.1v1.1h1.1v1.1h1.1v10.7h-2.1
			v-4.3h-6.4V306.6z M158.7,300.2h6.4V297H164v-1.1H163v-1.1h-2.1v1.1h-1.1v1.1h-1.1V300.2z"/>
		<path class="st3" d="M172.6,300.2h-1.1v6.4h-2.1v-15h8.6v1.1h1.1v1.1h1.1v4.3h-1.1v1.1H178v1.1h-2.1v1.1h1.1v1.1h1.1v1.1h1.1v1.1
			h1.1v2.1H178v-1.1h-1.1v-1.1h-1.1v-1.1h-1.1v-1.1h-1.1v-1.1h-1.1V300.2z M171.6,293.7v4.3h5.4V297h1.1v-2.1h-1.1v-1.1H171.6z"/>
		<path class="st3" d="M182.3,306.6v-15h8.6v1.1h1.1v1.1h1.1v4.3H192v2.1h1.1v4.3H192v1.1h-1.1v1.1H182.3z M184.4,298h5.4V297h1.1
			v-2.1h-1.1v-1.1h-5.4V298z M184.4,304.5h5.4v-1.1h1.1v-2.1h-1.1v-1.1h-5.4V304.5z"/>
		<path class="st3" d="M204.9,293.7h1.1v2.1h-2.1v-1.1h-1.1v-1.1h-4.3v1.1h-1.1v2.1h1.1v1.1h5.4v1.1h1.1v1.1h1.1v4.3h-1.1v1.1h-1.1
			v1.1h-6.4v-1.1h-1.1v-1.1h-1.1v-2.1h2.1v1.1h1.1v1.1h4.3v-1.1h1.1v-2.1h-1.1v-1.1h-5.4v-1.1h-1.1V298h-1.1v-4.3h1.1v-1.1h1.1v-1.1
			h6.4v1.1h1.1V293.7z"/>
	</g>
	<g>
		<path class="st3" d="M153.9,363.6v2.1h-8.6v4.3h6.4v2.1h-6.4v6.4h-2.1v-15H153.9z"/>
		<path class="st3" d="M158.2,378.6v-2.1h2.1v-10.7h-2.1v-2.1h6.4v2.1h-2.1v10.7h2.1v2.1H158.2z"/>
		<path class="st3" d="M168.9,378.6v-15h8.6v1.1h1.1v1.1h1.1v4.3h-1.1v2.1h1.1v4.3h-1.1v1.1h-1.1v1.1H168.9z M171,370h5.4v-1.1h1.1
			v-2.1h-1.1v-1.1H171V370z M171,376.4h5.4v-1.1h1.1v-2.1h-1.1v-1.1H171V376.4z"/>
		<path class="st3" d="M192.5,363.6v2.1h-8.6v4.3h6.4v2.1h-6.4v4.3h8.6v2.1h-10.7v-15H192.5z"/>
		<path class="st3" d="M197.9,372.1h-1.1v6.4h-2.1v-15h8.6v1.1h1.1v1.1h1.1v4.3h-1.1v1.1h-1.1v1.1h-2.1v1.1h1.1v1.1h1.1v1.1h1.1v1.1
			h1.1v2.1h-2.1v-1.1h-1.1v-1.1h-1.1v-1.1h-1.1v-1.1H199v-1.1h-1.1V372.1z M196.8,365.7v4.3h5.4v-1.1h1.1v-2.1h-1.1v-1.1H196.8z"/>
	</g>
	<g>
		<path class="st3" d="M152.8,437.9h1.1v2.1h-2.1V439h-1.1v-1.1h-4.3v1.1h-1.1v2.1h1.1v1.1h5.4v1.1h1.1v1.1h1.1v4.3h-1.1v1.1h-1.1
			v1.1h-6.4v-1.1h-1.1v-1.1h-1.1v-2.1h2.1v1.1h1.1v1.1h4.3v-1.1h1.1v-2.1h-1.1v-1.1h-5.4v-1.1h-1.1v-1.1h-1.1v-4.3h1.1v-1.1h1.1
			v-1.1h6.4v1.1h1.1V437.9z"/>
		<path class="st3" d="M157.1,448.6H156v-12.9h2.1v11.8h1.1v1.1h4.3v-1.1h1.1v-11.8h2.1v12.9h-1.1v1.1h-1.1v1.1h-6.4v-1.1h-1.1
			V448.6z"/>
		<path class="st3" d="M178.6,437.9h1.1v2.1h-2.1V439h-1.1v-1.1h-4.3v1.1H171v8.6h1.1v1.1h4.3v-1.1h1.1v-3.2h-3.2v-2.1h5.4v6.4h-1.1
			v1.1h-1.1v1.1H171v-1.1H170v-1.1h-1.1v-10.7h1.1v-1.1h1.1v-1.1h6.4v1.1h1.1V437.9z"/>
		<path class="st3" d="M183.9,450.8h-2.1V440h1.1V439h1.1v-1.1h1.1v-1.1h1.1v-1.1h2.1v1.1h1.1v1.1h1.1v1.1h1.1v1.1h1.1v10.7h-2.1
			v-4.3h-6.4V450.8z M183.9,444.3h6.4v-3.2h-1.1V440h-1.1V439h-2.1v1.1H185v1.1h-1.1V444.3z"/>
		<path class="st3" d="M197.9,444.3h-1.1v6.4h-2.1v-15h8.6v1.1h1.1v1.1h1.1v4.3h-1.1v1.1h-1.1v1.1h-2.1v1.1h1.1v1.1h1.1v1.1h1.1v1.1
			h1.1v2.1h-2.1v-1.1h-1.1v-1.1h-1.1v-1.1h-1.1v-1.1H199v-1.1h-1.1V444.3z M196.8,437.9v4.3h5.4v-1.1h1.1V439h-1.1v-1.1H196.8z"/>
	</g>
	<g>
		<path class="st3" d="M108.2,70.8h4.3v-1.1h1.1v-1.1h2.1v2.1h-1.1v1.1h-1.1V73h-6.4v-1.1H106v-1.1h-1.1V60.1h1.1V59h1.1v-1.1h6.4
			V59h1.1v1.1h1.1v2.1h-2.1v-1.1h-1.1v-1.1h-4.3v1.1h-1.1v8.6h1.1V70.8z"/>
		<path class="st3" d="M120,73h-2.1V62.2h1.1v-1.1h1.1v-1.1h1.1V59h1.1v-1.1h2.1V59h1.1v1.1h1.1v1.1h1.1v1.1h1.1V73h-2.1v-4.3H120
			V73z M120,66.5h6.4v-3.2h-1.1v-1.1h-1.1v-1.1h-2.1v1.1h-1.1v1.1H120V66.5z"/>
		<path class="st3" d="M130.7,73v-15h2.1v12.9h8.6V73H130.7z"/>
		<path class="st3" d="M145.8,59v-1.1h6.4V59h1.1v1.1h1.1v10.7h-1.1v1.1h-1.1V73h-6.4v-1.1h-1.1v-1.1h-1.1V60.1h1.1V59H145.8z
			 M151.1,60.1h-4.3v1.1h-1.1v8.6h1.1v1.1h4.3v-1.1h1.1v-8.6h-1.1V60.1z"/>
		<path class="st3" d="M159.7,66.5h-1.1V73h-2.1v-15h8.6V59h1.1v1.1h1.1v4.3h-1.1v1.1h-1.1v1.1H163v1.1h1.1v1.1h1.1v1.1h1.1v1.1h1.1
			V73h-2.1v-1.1H164v-1.1H163v-1.1h-1.1v-1.1h-1.1v-1.1h-1.1V66.5z M158.7,60.1v4.3h5.4v-1.1h1.1v-2.1H164v-1.1H158.7z"/>
		<path class="st3" d="M171.6,73v-2.1h2.1V60.1h-2.1v-2.1h6.4v2.1h-2.1v10.7h2.1V73H171.6z"/>
		<path class="st3" d="M193,57.9v2.1h-8.6v4.3h6.4v2.1h-6.4v4.3h8.6V73h-10.7v-15H193z"/>
		<path class="st3" d="M204.9,60.1h1.1v2.1h-2.1v-1.1h-1.1v-1.1h-4.3v1.1h-1.1v2.1h1.1v1.1h5.4v1.1h1.1v1.1h1.1v4.3h-1.1v1.1h-1.1
			V73h-6.4v-1.1h-1.1v-1.1h-1.1v-2.1h2.1v1.1h1.1v1.1h4.3v-1.1h1.1v-2.1h-1.1v-1.1h-5.4v-1.1h-1.1v-1.1h-1.1v-4.3h1.1V59h1.1v-1.1
			h6.4V59h1.1V60.1z"/>
	</g>
	<g>
		<path class="st3" d="M615.9,512.5h4.9v-1.2h1.2V510h2.4v2.4h-1.2v1.2H622v1.2h-7.3v-1.2h-1.2v-1.2h-1.2v-12.2h1.2v-1.2h1.2v-1.2
			h7.3v1.2h1.2v1.2h1.2v2.4H622v-1.2h-1.2v-1.2h-4.9v1.2h-1.2v9.8h1.2V512.5z"/>
		<path class="st3" d="M629.4,514.9v-1.2h-1.2v-1.2h-1.2v-4.9h1.2v-1.2h1.2v-1.2h6.1v1.2h1.2v-2.4h-1.2v-1.2h-6.1v-2.4h7.3v1.2h1.2
			v1.2h1.2v12.2h-2.4v-1.2h-1.2v1.2H629.4z M630.6,512.5h4.9v-1.2h1.2v-2.4h-1.2v-1.2h-4.9v1.2h-1.2v2.4h1.2V512.5z"/>
	</g>
	<g>
		<path d="M607.1,527.2h2v-0.5h0.5v-0.5h1v1H610v0.5h-0.5v0.5h-2.9v-0.5h-0.5v-0.5h-0.5v-4.9h0.5v-0.5h0.5v-0.5h2.9v0.5h0.5v0.5h0.5
			v1h-1v-0.5h-0.5v-0.5h-2v0.5h-0.5v3.9h0.5V527.2z"/>
		<path d="M612.5,528.2v-0.5H612v-0.5h-0.5v-2h0.5v-0.5h0.5v-0.5h2.4v0.5h0.5v-1h-0.5v-0.5h-2.4v-1h2.9v0.5h0.5v0.5h0.5v4.9h-1v-0.5
			h-0.5v0.5H612.5z M613,527.2h2v-0.5h0.5v-1h-0.5v-0.5h-2v0.5h-0.5v1h0.5V527.2z"/>
		<path d="M620.3,521.3v6.8h-1v-6.8H620.3z"/>
		<path d="M627.1,526.7v-0.5h1v1h-0.5v0.5h-0.5v0.5h-2.9v-0.5h-0.5v-0.5h-0.5v-3.4h0.5v-0.5h0.5v-0.5h2.9v0.5h0.5v0.5h0.5v1h-1v-0.5
			h-0.5v-0.5h-2v0.5h-0.5v2.4h0.5v0.5h2v-0.5H627.1z"/>
		<path d="M632.5,527.2h0.5v1h-1v-0.5h-0.5v-0.5H631v-2.4h-1v-1h2v2.9h0.5V527.2z M632,521.8v1h-1v-1H632z"/>
		<path d="M634.9,522.8h1v3.9h0.5v0.5h2v-0.5h0.5v-3.9h1v4.4h-0.5v0.5h-0.5v0.5h-2.9v-0.5h-0.5v-0.5h-0.5V522.8z"/>
		<path d="M641.8,524.3v3.9h-1v-5.4h1v0.5h0.5v-0.5h2.4v0.5h0.5v0.5h0.5v4.4h-1v-3.9h-0.5v-0.5h-0.5v4.4h-1v-4.4h-0.5v0.5H641.8z"/>
	</g>
	<line class="st2" x1="656.8" y1="489.6" x2="656.8" y2="757.7"/>
	<line class="st2" x1="729.7" y1="489.2" x2="729.7" y2="757.5"/>
	<line class="st2" x1="872.6" y1="491" x2="872.6" y2="759"/>
	<line class="st2" x1="801.1" y1="491" x2="801.1" y2="759"/>
	<g>
		<path class="st3" d="M624.5,543.2v2.4h-9.8v4.9h7.3v2.4h-7.3v7.3h-2.4v-17.1H624.5z"/>
		<path class="st3" d="M639.2,556.6v1.2h-1.2v1.2h-1.2v1.2h-7.3v-1.2h-1.2v-1.2h-1.2v-8.5h1.2v-1.2h1.2v-1.2h7.3v1.2h1.2v1.2h1.2
			v3.7h-1.2v1.2h-8.5v2.4h1.2v1.2h4.9v-1.2H639.2z M629.4,550.5v1.2h7.3v-1.2h-1.2v-1.2h-4.9v1.2H629.4z"/>
	</g>
	<g>
		<path d="M615.4,573.5v-1h1v-4.9h-1v-1h2.9v1h-1v4.9h1v1H615.4z"/>
		<path d="M621.3,570.6v2.9h-1v-5.4h1v1h0.5v-0.5h0.5v-0.5h2v0.5h0.5v0.5h0.5v1h-1v-0.5h-0.5v-0.5h-1v0.5h-0.5v0.5h-0.5v0.5H621.3z"
			/>
		<path d="M627.2,573.5v-0.5h-0.5v-0.5h-0.5v-3.4h0.5v-0.5h0.5v-0.5h2.9v0.5h0.5v0.5h0.5v3.4h-0.5v0.5h-0.5v0.5H627.2z M627.6,572.6
			h2v-0.5h0.5v-2.4h-0.5v-0.5h-2v0.5h-0.5v2.4h0.5V572.6z"/>
		<path d="M633,569.6v3.9h-1v-5.4h1v0.5h0.5v-0.5h2.4v0.5h0.5v0.5h0.5v4.4h-1v-3.9h-0.5v-0.5h-2v0.5H633z"/>
	</g>
	<g>
		<path class="st3" d="M614.3,595.2v9.8h-2.4v-17.1h2.4v3.7h1.2v1.2h1.2v1.2h1.2v1.2h1.2v1.2h1.2v1.2h1.2v-9.8h2.4V605h-2.4v-3.7
			h-1.2v-1.2h-1.2v-1.2H618v-1.2h-1.2v-1.2h-1.2v-1.2H614.3z"/>
		<path class="st3" d="M629,605v-1.2h-1.2v-1.2h-1.2v-4.9h1.2v-1.2h1.2v-1.2h6.1v1.2h1.2V594h-1.2v-1.2H629v-2.4h7.3v1.2h1.2v1.2
			h1.2V605h-2.4v-1.2h-1.2v1.2H629z M630.2,602.6h4.9v-1.2h1.2v-2.4h-1.2v-1.2h-4.9v1.2H629v2.4h1.2V602.6z"/>
	</g>
	<g>
		<path d="M612.6,612.4h0.5v1h-1v-0.5h-0.5v-0.5h-2v0.5h-0.5v1h0.5v0.5h2.4v0.5h0.5v0.5h0.5v2h-0.5v0.5h-0.5v0.5h-2.9v-0.5h-0.5
			v-0.5h-0.5v-1h1v0.5h0.5v0.5h2v-0.5h0.5v-1h-0.5v-0.5h-2.4v-0.5h-0.5v-0.5h-0.5v-2h0.5v-0.5h0.5v-0.5h2.9v0.5h0.5V612.4z"/>
		<path d="M615,618.3v-0.5h-0.5v-0.5h-0.5v-3.4h0.5v-0.5h0.5v-0.5h2.9v0.5h0.5v0.5h0.5v3.4h-0.5v0.5H618v0.5H615z M615.5,617.3h2
			v-0.5h0.5v-2.4h-0.5v-0.5h-2v0.5H615v2.4h0.5V617.3z"/>
		<path d="M623.8,613.9v-2.4h1v6.8h-1v-1h-0.5v0.5h-0.5v0.5h-1.5v-0.5h-0.5v-0.5h-0.5v-0.5h-0.5v-2.4h0.5v-0.5h0.5v-0.5h0.5v-0.5
			h1.5v0.5h0.5v0.5H623.8z M621.4,616.8h0.5v0.5h0.5v-0.5h0.5v-0.5h0.5v-1.5h-0.5v-0.5h-0.5v-0.5h-0.5v0.5h-0.5v0.5h-0.5v1.5h0.5
			V616.8z"/>
		<path d="M629.2,617.3h0.5v1h-1v-0.5h-0.5v-0.5h-0.5v-2.4h-1v-1h2v2.9h0.5V617.3z M628.7,611.9v1h-1v-1H628.7z"/>
		<path d="M631.6,612.9h1v3.9h0.5v0.5h2v-0.5h0.5v-3.9h1v4.4H636v0.5h-0.5v0.5h-2.9v-0.5h-0.5v-0.5h-0.5V612.9z"/>
		<path d="M638.5,614.4v3.9h-1v-5.4h1v0.5h0.5v-0.5h2.4v0.5h0.5v0.5h0.5v4.4h-1v-3.9h-0.5v-0.5h-0.5v4.4h-1v-4.4H639v0.5H638.5z"/>
	</g>
	<g>
		<path class="st3" d="M614.4,650.2H612v-17.1h2.4v2.4h1.2v1.2h1.2v1.2h2.4v-1.2h1.2v-1.2h1.2v-2.4h2.4v17.1h-2.4v-11h-1.2v1.2h-1.2
			v2.4h-2.4v-2.4h-1.2v-1.2h-1.2V650.2z"/>
		<path class="st3" d="M629.1,649h-1.2v-2.4h2.4v1.2h4.9v-1.2h1.2v-3.7h-1.2v1.2h-6.1v-1.2h-1.2v-1.2h-1.2V638h1.2v-1.2h1.2v-1.2
			h7.3v1.2h1.2v1.2h1.2v9.8h-1.2v1.2h-1.2v1.2h-7.3V649z M636.4,640.5v-1.2h-1.2V638h-4.9v1.2h-1.2v1.2h1.2v1.2h4.9v-1.2H636.4z"/>
	</g>
	<g>
		<path d="M600.5,663.5h-1v-6.8h1v1h0.5v0.5h0.5v0.5h1v-0.5h0.5v-0.5h0.5v-1h1v6.8h-1v-4.4h-0.5v0.5h-0.5v1h-1v-1h-0.5v-0.5h-0.5
			V663.5z"/>
		<path d="M606.3,663.5V663h-0.5v-0.5h-0.5v-2h0.5v-0.5h0.5v-0.5h2.4v0.5h0.5v-1h-0.5v-0.5h-2.4v-1h2.9v0.5h0.5v0.5h0.5v4.9h-1V663
			h-0.5v0.5H606.3z M606.8,662.5h2V662h0.5v-1h-0.5v-0.5h-2v0.5h-0.5v1h0.5V662.5z"/>
		<path d="M612.2,663h-0.5v-1h1v0.5h2V662h0.5v-1.5h-0.5v0.5h-2.4v-0.5h-0.5v-0.5h-0.5v-1.5h0.5v-0.5h0.5v-0.5h2.9v0.5h0.5v0.5h0.5
			v3.9h-0.5v0.5h-0.5v0.5h-2.9V663z M615.1,659.6v-0.5h-0.5v-0.5h-2v0.5h-0.5v0.5h0.5v0.5h2v-0.5H615.1z"/>
		<path d="M618,659.6v3.9h-1v-5.4h1v0.5h0.5v-0.5h2.4v0.5h0.5v0.5h0.5v4.4h-1v-3.9h-0.5v-0.5h-2v0.5H618z"/>
		<path d="M627.8,662v0.5h-0.5v0.5h-0.5v0.5h-2.9V663h-0.5v-0.5h-0.5v-3.4h0.5v-0.5h0.5v-0.5h2.9v0.5h0.5v0.5h0.5v1.5h-0.5v0.5h-3.4
			v1h0.5v0.5h2V662H627.8z M623.9,659.6v0.5h2.9v-0.5h-0.5v-0.5h-2v0.5H623.9z"/>
		<path d="M629.3,662.5h-0.5v-1h1v0.5h0.5v0.5h2v-1h-1V661h-1v-0.5h-1v-0.5h-0.5v-1h0.5v-0.5h0.5v-0.5h2.9v0.5h0.5v0.5h0.5v1h-1
			v-0.5h-0.5v-0.5h-2v1h1.5v0.5h1v0.5h0.5v0.5h0.5v1h-0.5v0.5h-0.5v0.5h-2.9V663h-0.5V662.5z"/>
		<path d="M638.1,662.5h0.5v1h-1V663h-0.5v-0.5h-0.5v-2.4h-1v-1h2v2.9h0.5V662.5z M637.6,657.1v1h-1v-1H637.6z"/>
		<path d="M640.5,658.1h1v3.9h0.5v0.5h2V662h0.5v-3.9h1v4.4h-0.5v0.5h-0.5v0.5h-2.9V663H641v-0.5h-0.5V658.1z"/>
		<path d="M647.3,659.6v3.9h-1v-5.4h1v0.5h0.5v-0.5h2.4v0.5h0.5v0.5h0.5v4.4h-1v-3.9h-0.5v-0.5h-0.5v4.4h-1v-4.4h-0.5v0.5H647.3z"/>
	</g>
	<g>
		<path class="st3" d="M622,687.5v7.3h-2.4v-17.1h9.8v1.2h1.2v1.2h1.2v4.9h-1.2v1.2h-1.2v1.2H622z M622,680.2v4.9h6.1v-1.2h1.2v-2.4
			h-1.2v-1.2H622z"/>
	</g>
	<g>
		<path d="M597.8,705v2.9h-1v-6.8h3.9v0.5h0.5v0.5h0.5v2h-0.5v0.5h-0.5v0.5H597.8z M597.8,702.1v2h2.4v-0.5h0.5v-1h-0.5v-0.5H597.8z
			"/>
		<path d="M603.7,705v2.9h-1v-6.8h1v2.4h0.5v-0.5h0.5v-0.5h1.5v0.5h0.5v0.5h0.5v0.5h0.5v3.9h-1v-3.4h-0.5v-0.5h-0.5v-0.5h-0.5v0.5
			h-0.5v0.5h-0.5v0.5H603.7z"/>
		<path d="M609.5,708v-0.5h-0.5V707h-0.5v-3.4h0.5v-0.5h0.5v-0.5h2.9v0.5h0.5v0.5h0.5v3.4H613v0.5h-0.5v0.5H609.5z M610,707h2v-0.5
			h0.5v-2.4H612v-0.5h-2v0.5h-0.5v2.4h0.5V707z"/>
		<path d="M614.9,707h-0.5v-1h1v0.5h0.5v0.5h2v-1h-1v-0.5h-1V705h-1v-0.5h-0.5v-1h0.5v-0.5h0.5v-0.5h2.9v0.5h0.5v0.5h0.5v1h-1v-0.5
			h-0.5v-0.5h-2v1h1.5v0.5h1v0.5h0.5v0.5h0.5v1h-0.5v0.5h-0.5v0.5h-2.9v-0.5h-0.5V707z"/>
		<path d="M621.3,706v2h-1v-5.9h1v0.5h0.5v-0.5h2.4v0.5h0.5v0.5h0.5v2.4h-0.5v0.5h-0.5v0.5h-2.4V706H621.3z M624.2,703.6h-0.5v-0.5
			h-1.5v0.5h-0.5v1.5h0.5v0.5h1.5V705h0.5V703.6z"/>
		<path d="M627.1,705v2.9h-1v-6.8h1v2.4h0.5v-0.5h0.5v-0.5h1.5v0.5h0.5v0.5h0.5v0.5h0.5v3.9h-1v-3.4h-0.5v-0.5h-0.5v-0.5h-0.5v0.5
			h-0.5v0.5h-0.5v0.5H627.1z"/>
		<path d="M633,708v-0.5h-0.5V707H632v-3.4h0.5v-0.5h0.5v-0.5h2.9v0.5h0.5v0.5h0.5v3.4h-0.5v0.5h-0.5v0.5H633z M633.5,707h2v-0.5
			h0.5v-2.4h-0.5v-0.5h-2v0.5H633v2.4h0.5V707z"/>
		<path d="M638.8,705v2.9h-1v-5.4h1v1h0.5v-0.5h0.5v-0.5h2v0.5h0.5v0.5h0.5v1h-1v-0.5h-0.5v-0.5h-1v0.5h-0.5v0.5h-0.5v0.5H638.8z"/>
		<path d="M643.7,702.6h1v3.9h0.5v0.5h2v-0.5h0.5v-3.9h1v4.4h-0.5v0.5h-0.5v0.5h-2.9v-0.5h-0.5V707h-0.5V702.6z"/>
		<path d="M650.1,707h-0.5v-1h1v0.5h0.5v0.5h2v-1h-1v-0.5h-1V705h-1v-0.5h-0.5v-1h0.5v-0.5h0.5v-0.5h2.9v0.5h0.5v0.5h0.5v1h-1v-0.5
			H653v-0.5h-2v1h1.5v0.5h1v0.5h0.5v0.5h0.5v1H654v0.5h-0.5v0.5h-2.9v-0.5h-0.5V707z"/>
	</g>
	<g>
		<path class="st3" d="M622,727.2V726h-9.8v-2.4h12.2v4.9h-1.2v1.2H622v1.2h-1.2v1.2h-1.2v1.2h-1.2v1.2h-1.2v1.2h-1.2v1.2h-1.2v1.2
			h9.8v2.4h-12.2v-4.9h1.2v-1.2h1.2v-1.2h1.2v-1.2h1.2v-1.2h1.2v-1.2h1.2v-1.2h1.2v-1.2H622z"/>
		<path class="st3" d="M629.3,730.9v9.8h-2.4v-13.4h2.4v1.2h1.2v-1.2h6.1v1.2h1.2v1.2h1.2v11h-2.4v-9.8h-1.2v-1.2h-4.9v1.2H629.3z"
			/>
	</g>
	<g>
		<path d="M618.7,748.4v-0.5h-3.9v-1h4.9v2h-0.5v0.5h-0.5v0.5h-0.5v0.5h-0.5v0.5h-0.5v0.5h-0.5v0.5h-0.5v0.5h-0.5v0.5h3.9v1h-4.9v-2
			h0.5v-0.5h0.5v-0.5h0.5v-0.5h0.5v-0.5h0.5v-0.5h0.5v-0.5h0.5v-0.5H618.7z"/>
		<path d="M624.1,752.8h0.5v1h-1v-0.5h-0.5v-0.5h-0.5v-2.4h-1v-1h2v2.9h0.5V752.8z M623.6,747.5v1h-1v-1H623.6z"/>
		<path d="M627.5,749.9v3.9h-1v-5.4h1v0.5h0.5v-0.5h2.4v0.5h0.5v0.5h0.5v4.4h-1v-3.9h-0.5v-0.5h-2v0.5H627.5z"/>
		<path d="M636.3,752.3v-0.5h1v1h-0.5v0.5h-0.5v0.5h-2.9v-0.5h-0.5v-0.5h-0.5v-3.4h0.5v-0.5h0.5v-0.5h2.9v0.5h0.5v0.5h0.5v1h-1v-0.5
			h-0.5v-0.5h-2v0.5h-0.5v2.4h0.5v0.5h2v-0.5H636.3z"/>
	</g>
	<g>
		<path class="st3" d="M246.8,514.9v-17.1h9.8v1.2h1.2v1.2h1.2v4.9h-1.2v2.4h1.2v4.9h-1.2v1.2h-1.2v1.2H246.8z M249.2,505.2h6.1
			v-1.2h1.2v-2.4h-1.2v-1.2h-6.1V505.2z M249.2,512.5h6.1v-1.2h1.2v-2.4h-1.2v-1.2h-6.1V512.5z"/>
		<path class="st4" d="M265,514.1h1.4v1.4h-4.1v-1.4h1.4v-5.5h-1.4v-1.4h0.7v-0.7h0.7v-0.7h1.4V514.1z"/>
	</g>
	<g>
		<path d="M238.9,522.3h-2v-1h4.9v1h-2v5.9h-1V522.3z"/>
		<path d="M243.8,525.2v2.9h-1v-6.8h1v2.4h0.5v-0.5h0.5v-0.5h1.5v0.5h0.5v0.5h0.5v0.5h0.5v3.9h-1v-3.4h-0.5v-0.5h-0.5v-0.5h-0.5v0.5
			h-0.5v0.5h-0.5v0.5H243.8z"/>
		<path d="M252.1,527.2h0.5v1h-1v-0.5h-0.5v-0.5h-0.5v-2.4h-1v-1h2v2.9h0.5V527.2z M251.6,521.8v1h-1v-1H251.6z"/>
		<path d="M255.5,528.2v-0.5H255v-0.5h-0.5v-2h0.5v-0.5h0.5v-0.5h2.4v0.5h0.5v-1h-0.5v-0.5h-2.4v-1h2.9v0.5h0.5v0.5h0.5v4.9h-1v-0.5
			h-0.5v0.5H255.5z M256,527.2h2v-0.5h0.5v-1h-0.5v-0.5h-2v0.5h-0.5v1h0.5V527.2z"/>
		<path d="M261.3,524.3v3.9h-1v-5.4h1v0.5h0.5v-0.5h2.4v0.5h0.5v0.5h0.5v4.4h-1v-3.9h-0.5v-0.5h-0.5v4.4h-1v-4.4h-0.5v0.5H261.3z"/>
		<path d="M269.6,527.2h0.5v1h-1v-0.5h-0.5v-0.5h-0.5v-2.4h-1v-1h2v2.9h0.5V527.2z M269.1,521.8v1h-1v-1H269.1z"/>
		<path d="M273,524.3v3.9h-1v-5.4h1v0.5h0.5v-0.5h2.4v0.5h0.5v0.5h0.5v4.4h-1v-3.9h-0.5v-0.5h-2v0.5H273z"/>
	</g>
	<line class="st2" x1="288.1" y1="489.5" x2="288.1" y2="757.7"/>
	<line class="st2" x1="359.9" y1="489" x2="359.9" y2="757.5"/>
	<line class="st2" x1="503.8" y1="488.8" x2="503.8" y2="757"/>
	<line class="st2" x1="432.4" y1="488.8" x2="432.4" y2="757"/>
	<g>
		<path class="st3" d="M246.2,605v-17.1h9.8v1.2h1.2v1.2h1.2v4.9h-1.2v2.4h1.2v4.9h-1.2v1.2h-1.2v1.2H246.2z M248.6,595.3h6.1V594
			h1.2v-2.4h-1.2v-1.2h-6.1V595.3z M248.6,602.6h6.1v-1.2h1.2v-2.4h-1.2v-1.2h-6.1V602.6z"/>
		<path class="st4" d="M261,604.2h-0.7v-1.4h1.4v0.7h0.7v0.7h2.7v-0.7h0.7v-1.4h-0.7v-0.7H263v-1.4h2.1v-0.7h0.7V598h-0.7v-0.7h-2.7
			v0.7h-0.7v0.7h-1.4v-1.4h0.7v-0.7h0.7V596h4.1v0.7h0.7v0.7h0.7v2.7h-0.7v1.4h0.7v2.7h-0.7v0.7h-0.7v0.7h-4.1v-0.7H261V604.2z"/>
	</g>
	<g>
		<path d="M240.2,614.4v3.9h-1v-6.8h1v1.5h0.5v0.5h0.5v0.5h0.5v0.5h0.5v0.5h0.5v0.5h0.5v-3.9h1v6.8h-1v-1.5h-0.5v-0.5h-0.5v-0.5
			h-0.5v-0.5h-0.5v-0.5h-0.5v-0.5H240.2z"/>
		<path d="M248.5,617.3h0.5v1h-1v-0.5h-0.5v-0.5H247v-2.4h-1v-1h2v2.9h0.5V617.3z M248,611.9v1h-1v-1H248z"/>
		<path d="M251.9,618.3v-0.5h-0.5v-0.5H251v-2h0.5v-0.5h0.5v-0.5h2.4v0.5h0.5v-1h-0.5v-0.5h-2.4v-1h2.9v0.5h0.5v0.5h0.5v4.9h-1v-0.5
			h-0.5v0.5H251.9z M252.4,617.3h2v-0.5h0.5v-1h-0.5v-0.5h-2v0.5h-0.5v1h0.5V617.3z"/>
		<path d="M260.7,616.8v-0.5h1v1h-0.5v0.5h-0.5v0.5h-2.9v-0.5h-0.5v-0.5h-0.5v-3.4h0.5v-0.5h0.5v-0.5h2.9v0.5h0.5v0.5h0.5v1h-1v-0.5
			h-0.5v-0.5h-2v0.5h-0.5v2.4h0.5v0.5h2v-0.5H260.7z"/>
		<path d="M266.1,617.3h0.5v1h-1v-0.5h-0.5v-0.5h-0.5v-2.4h-1v-1h2v2.9h0.5V617.3z M265.6,611.9v1h-1v-1H265.6z"/>
		<path d="M269.5,614.4v3.9h-1v-5.4h1v0.5h0.5v-0.5h2.4v0.5h0.5v0.5h0.5v4.4h-1v-3.9H272v-0.5h-2v0.5H269.5z"/>
	</g>
	<g>
		<path class="st3" d="M246.3,654.4v-17.1h9.8v1.2h1.2v1.2h1.2v4.9h-1.2v2.4h1.2v4.9h-1.2v1.2h-1.2v1.2H246.3z M248.7,644.7h6.1
			v-1.2h1.2V641h-1.2v-1.2h-6.1V644.7z M248.7,652h6.1v-1.2h1.2v-2.4h-1.2v-1.2h-6.1V652z"/>
		<path class="st4" d="M265.9,654.3v0.7h-4.1v-0.7h-0.7v-0.7h-0.7v-6.8h0.7v-0.7h0.7v-0.7h4.1v0.7h0.7v0.7h0.7v1.4h-1.4v-0.7h-0.7
			v-0.7h-2.7v0.7h-0.7v2.1h4.1v0.7h0.7v0.7h0.7v2.7h-0.7v0.7H265.9z M262.5,653.6h2.7v-0.7h0.7v-1.4h-0.7v-0.7h-3.4v2.1h0.7V653.6z"
			/>
	</g>
	<g>
		<path class="st3" d="M242,699.4v-17.1h9.8v1.2h1.2v1.2h1.2v4.9H253v2.4h1.2v4.9H253v1.2h-1.2v1.2H242z M244.4,689.7h6.1v-1.2h1.2
			V686h-1.2v-1.2h-6.1V689.7z M244.4,697h6.1v-1.2h1.2v-2.4h-1.2v-1.2h-6.1V697z"/>
		<path class="st4" d="M260.2,698.6h1.4v1.4h-4.1v-1.4h1.4v-5.5h-1.4v-1.4h0.7v-0.7h0.7v-0.7h1.4V698.6z"/>
		<path class="st4" d="M265.7,698.6h5.5v1.4h-6.8v-4.1h0.7v-0.7h0.7v-0.7h3.4v-0.7h0.7v-1.4h-0.7v-0.7h-2.7v0.7h-0.7v0.7h-1.4v-1.4
			h0.7v-0.7h0.7v-0.7h4.1v0.7h0.7v0.7h0.7v2.7h-0.7v0.7h-0.7v0.7h-3.4v0.7h-0.7V698.6z"/>
	</g>
	<g>
		<path class="st3" d="M262.5,727.6v2.4h-9.8v4.9h7.3v2.4h-7.3v4.9h9.8v2.4h-12.2v-17.1H262.5z"/>
	</g>
	<g>
		<path class="st3" d="M246.4,559.2v-17.1h9.8v1.2h1.2v1.2h1.2v4.9h-1.2v2.4h1.2v4.9h-1.2v1.2h-1.2v1.2H246.4z M248.8,549.5h6.1
			v-1.2h1.2v-2.4h-1.2v-1.2h-6.1V549.5z M248.8,556.8h6.1v-1.2h1.2v-2.4h-1.2v-1.2h-6.1V556.8z"/>
		<path class="st4" d="M261.8,558.4h5.5v1.4h-6.8v-4.1h0.7V555h0.7v-0.7h3.4v-0.7h0.7v-1.4h-0.7v-0.7h-2.7v0.7h-0.7v0.7h-1.4v-1.4
			h0.7v-0.7h0.7v-0.7h4.1v0.7h0.7v0.7h0.7v2.7h-0.7v0.7h-0.7v0.7h-3.4v0.7h-0.7V558.4z"/>
	</g>
	<g>
		<path d="M229.2,569.5h-0.5v2.9h-1v-6.8h3.9v0.5h0.5v0.5h0.5v2h-0.5v0.5h-0.5v0.5h-1v0.5h0.5v0.5h0.5v0.5h0.5v0.5h0.5v1h-1V572
			h-0.5v-0.5h-0.5V571h-0.5v-0.5h-0.5V570h-0.5V569.5z M228.7,566.6v2h2.4v-0.5h0.5v-1h-0.5v-0.5H228.7z"/>
		<path d="M237,571.5h0.5v1h-1V572H236v-0.5h-0.5V569h-1v-1h2v2.9h0.5V571.5z M236.5,566.1v1h-1v-1H236.5z"/>
		<path d="M240.4,571.5v1h-1v-6.8h1v2.4h0.5v-0.5h0.5v-0.5h1.5v0.5h0.5v0.5h0.5v0.5h0.5v2.4h-0.5v0.5h-0.5v0.5h-0.5v0.5h-1.5V572
			h-0.5v-0.5H240.4z M241.9,571.5h0.5V571h0.5v-0.5h0.5V569h-0.5v-0.5h-0.5v-0.5h-0.5v0.5h-0.5v0.5h-0.5v1.5h0.5v0.5h0.5V571.5z"/>
		<path d="M246.3,572.5V572h-0.5v-0.5h-0.5v-3.4h0.5v-0.5h0.5v-0.5h2.9v0.5h0.5v0.5h0.5v3.4h-0.5v0.5h-0.5v0.5H246.3z M246.8,571.5
			h2V571h0.5v-2.4h-0.5v-0.5h-2v0.5h-0.5v2.4h0.5V571.5z"/>
		<path d="M254.1,572.5h-1v-4.4h-1.5v-1h1.5v-1h0.5v-0.5h2v1h-1.5v0.5h1.5v1h-1.5V572.5z"/>
		<path d="M259.9,565.6v6.8h-1v-6.8H259.9z"/>
		<path d="M263.8,572.5V572h-0.5v-0.5h-0.5v-2h0.5V569h0.5v-0.5h2.4v0.5h0.5v-1h-0.5v-0.5h-2.4v-1h2.9v0.5h0.5v0.5h0.5v4.9h-1V572
			h-0.5v0.5H263.8z M264.3,571.5h2V571h0.5v-1h-0.5v-0.5h-2v0.5h-0.5v1h0.5V571.5z"/>
		<path d="M268.7,567.1h1v2.9h0.5v0.5h0.5v0.5h1v-0.5h0.5V570h0.5v-2.9h1v3.4h-0.5v0.5h-0.5v0.5h-0.5v0.5h-0.5v0.5h-1V572h-0.5v-0.5
			h-0.5V571h-0.5v-0.5h-0.5V567.1z"/>
		<path d="M278,571.5h0.5v1h-1V572H277v-0.5h-0.5V569h-1v-1h2v2.9h0.5V571.5z M277.5,566.1v1h-1v-1H277.5z"/>
		<path d="M281.4,568.6v3.9h-1v-5.4h1v0.5h0.5v-0.5h2.4v0.5h0.5v0.5h0.5v4.4h-1v-3.9h-0.5v-0.5h-2v0.5H281.4z"/>
	</g>
	<g>
		<path class="st3" d="M182.7,755.7v1.1H172v-2.1h9.7v-1.1h1.1v-1.1h1.1v-2.1h-1.1v-1.1h-1.1v-1.1H172v-2.1h10.7v1.1h1.1v1.1h1.1
			v1.1h1.1v1.1h1.1v2.1h-1.1v1.1h-1.1v1.1h-1.1v1.1H182.7z"/>
		<path class="st3" d="M187,741h-2.1v-2.1h-10.7v2.1H172v-6.4h2.1v2.1h10.7v-2.1h2.1V741z"/>
		<path class="st3" d="M174.1,725.2v4.3H172v-10.7h2.1v4.3H187v2.1H174.1z"/>
		<path class="st3" d="M187,713.7v2.1h-10.7v-1.1h-1.1v-1.1h-1.1v-1.1h-1.1v-1.1H172v-2.1h1.1v-1.1h1.1v-1.1h1.1v-1.1h1.1v-1.1H187
			v2.1h-4.3v6.4H187z M180.6,713.7v-6.4h-3.2v1.1h-1.1v1.1h-1.1v2.1h1.1v1.1h1.1v1.1H180.6z"/>
		<path class="st3" d="M187,700v2.1h-15V700h2.1V699h1.1v-1.1h1.1v-2.1h-1.1v-1.1h-1.1v-1.1H172v-2.1h15v2.1h-9.7v1.1h1.1v1.1h2.1
			v2.1h-2.1v1.1h-1.1v1.1H187z"/>
		<path class="st3" d="M187,686.4h-2.1v-2.1h-10.7v2.1H172v-6.4h2.1v2.1h10.7v-2.1h2.1V686.4z"/>
		<path class="st3" d="M178.4,672.7h8.6v2.1h-15v-2.1h3.2v-1.1h1.1v-1.1h1.1v-1.1h1.1v-1.1h1.1v-1.1h1.1v-1.1H172v-2.1h15v2.1h-3.2
			v1.1h-1.1v1.1h-1.1v1.1h-1.1v1.1h-1.1v1.1h-1.1V672.7z"/>
		<path class="st3" d="M174.1,651.5v-1.1h2.1v2.1h-1.1v1.1h-1.1v4.3h1.1v1.1h2.1V658h1.1v-5.4h1.1v-1.1h1.1v-1.1h4.3v1.1h1.1v1.1
			h1.1v6.4h-1.1v1.1h-1.1v1.1h-2.1V659h1.1V658h1.1v-4.3h-1.1v-1.1h-2.1v1.1h-1.1v5.4h-1.1v1.1h-1.1v1.1h-4.3v-1.1h-1.1V659H172
			v-6.4h1.1v-1.1H174.1z"/>
		<path class="st3" d="M180.6,627.4v-1.1h1.1v-1.1h-1.1v-2.1h2.1v1.1h2.1v-1.1h2.1v2.1h-1.1v1.1h1.1v5.4h-1.1v1.1h-1.1v1.1h-5.4
			v-1.1h-1.1v-1.1h-2.1v1.1H172v-1.1h-1.1v-1.1h-1.1v-3.2h1.1v-1.1h1.1v-1.1h4.3v1.1h2.1v1.1H180.6z M172,627.4v3.2h4.3v-1.1h1.1
			v-1.1h-1.1v-1.1H172z M182.7,627.4v1.1h-1.1v1.1h-1.1v2.1h3.2v-1.1h1.1v-3.2H182.7z"/>
		<path class="st3" d="M187,604.4v2.1h-15v-2.1h2.1v-1.1h1.1v-1.1h1.1v-2.1h-1.1V599h-1.1V598H172v-2.1h15v2.1h-9.7v1.1h1.1v1.1h2.1
			v2.1h-2.1v1.1h-1.1v1.1H187z"/>
		<path class="st3" d="M187,590.7h-2.1v-2.1h-10.7v2.1H172v-6.4h2.1v2.1h10.7v-2.1h2.1V590.7z"/>
		<path class="st3" d="M178.4,577.1h8.6v2.1h-15v-2.1h3.2V576h1.1v-1.1h1.1v-1.1h1.1v-1.1h1.1v-1.1h1.1v-1.1H172v-2.1h15v2.1h-3.2
			v1.1h-1.1v1.1h-1.1v1.1h-1.1v1.1h-1.1v1.1h-1.1V577.1z"/>
		<path class="st3" d="M172,554.8h2.1v8.6h4.3V557h2.1v6.4h4.3v-8.6h2.1v10.7h-15V554.8z"/>
		<path class="st3" d="M180.6,548.7v1.1h6.4v2.1h-15v-8.6h1.1v-1.1h1.1v-1.1h4.3v1.1h1.1v1.1h1.1v2.1h1.1v-1.1h1.1v-1.1h1.1v-1.1
			h1.1v-1.1h2.1v2.1h-1.1v1.1h-1.1v1.1h-1.1v1.1h-1.1v1.1h-1.1v1.1H180.6z M174.1,549.8h4.3v-5.4h-1.1v-1.1h-2.1v1.1h-1.1V549.8z"/>
		<path class="st3" d="M187,536.1v2.1h-10.7v-1.1h-1.1v-1.1h-1.1V535h-1.1V534H172v-2.1h1.1v-1.1h1.1v-1.1h1.1v-1.1h1.1v-1.1H187
			v2.1h-4.3v6.4H187z M180.6,536.1v-6.4h-3.2v1.1h-1.1v1.1h-1.1v2.1h1.1v1.1h1.1v1.1H180.6z"/>
		<path class="st3" d="M187,524.6h-15v-2.1h12.9v-8.6h2.1V524.6z"/>
		<path class="st3" d="M174.1,501.3v-1.1h2.1v2.1h-1.1v1.1h-1.1v4.3h1.1v1.1h2.1v-1.1h1.1v-5.4h1.1v-1.1h1.1v-1.1h4.3v1.1h1.1v1.1
			h1.1v6.4h-1.1v1.1h-1.1v1.1h-2.1v-2.1h1.1v-1.1h1.1v-4.3h-1.1v-1.1h-2.1v1.1h-1.1v5.4h-1.1v1.1h-1.1v1.1h-4.3v-1.1h-1.1v-1.1H172
			v-6.4h1.1v-1.1H174.1z"/>
	</g>
</g>
<g id="PEANUTS">
</g>
<g id="SUNFLOWER_copy">
</g>
<g id="ALMONDS">
	<g>
		<path class="st11" d="M446,80.1h-3.1v-6.2h6.2V77h3.1v3.1h12.3V77h3.1v-6.2h-3.1v-3.1h-9.2v-6.2h9.2v-3.1h3.1v-6.2h-3.1v-3.1
			h-12.3v3.1H449v3.1h-6.2v-6.2h3.1v-3.1h3.1v-3.1h18.5v3.1h3.1v3.1h3.1v12.3h-3.1v6.2h3.1v12.3h-3.1v3.1h-3.1v3.1H449v-3.1H446
			V80.1z"/>
		<path class="st11" d="M486,46.3v-3.1h18.5v3.1h3.1v3.1h3.1v30.8h-3.1v3.1h-3.1v3.1H486v-3.1h-3.1v-3.1h-3.1V49.3h3.1v-3.1H486z
			 M489,67.8v-3.1h3.1v-3.1h3.1v-3.1h3.1v-3.1h6.2v-3.1h-3.1v-3.1H489v3.1H486v15.4H489z M486,73.9V77h3.1v3.1h12.3V77h3.1V61.6
			h-3.1v3.1h-3.1v3.1h-3.1v3.1h-3.1v3.1H486z"/>
		<path class="st11" d="M522.9,46.3v-3.1h18.5v3.1h3.1v3.1h3.1v30.8h-3.1v3.1h-3.1v3.1h-18.5v-3.1h-3.1v-3.1h-3.1V49.3h3.1v-3.1
			H522.9z M525.9,67.8v-3.1h3.1v-3.1h3.1v-3.1h3.1v-3.1h6.2v-3.1h-3.1v-3.1h-12.3v3.1h-3.1v15.4H525.9z M522.9,73.9V77h3.1v3.1h12.3
			V77h3.1V61.6h-3.1v3.1h-3.1v3.1h-3.1v3.1H529v3.1H522.9z"/>
	</g>
	<g>
		<path class="st11" d="M476.6,454.4h4.5v4.5h-13.5v-4.5h4.5v-18h-4.5v-4.5h2.2v-2.2h2.2v-2.2h4.5V454.4z"/>
		<path class="st11" d="M508.1,431.9h-18v-4.5h22.5v11.2h-2.2v2.2h-2.2v2.2h-2.2v2.2h-2.2v13.5h-4.5v-15.7h2.2v-2.2h2.2v-2.2h2.2
			v-2.2h2.2V431.9z"/>
		<path class="st11" d="M526,446.5h1.1v2.2h-2.2v-1.1h-1.1v-1.1h-4.5v1.1h-1.1v9h1.1v1.1h4.5v-1.1h1.1v-3.4h-3.4V451h5.6v6.7H526
			v1.1h-1.1v1.1h-6.7v-1.1H517v-1.1h-1.1v-11.2h1.1v-1.1h1.1v-1.1h6.7v1.1h1.1V446.5z"/>
	</g>
	<g>
		<path class="st11" d="M490.5,454.1v4.5H486v-4.5H490.5z"/>
	</g>
	<polygon class="st10" points="378,138 378,129 369,129 360,129 351,129 351,138 342,138 342,147 342,156 342,165 351,165 351,174 
		360,174 369,174 378,174 378,165 387,165 387,156 387,147 387,138 	"/>
	<polygon class="st10" points="486,210 486,201 477,201 468,201 459,201 459,210 450,210 450,219 450,228 450,237 459,237 459,246 
		468,246 477,246 486,246 486,237 495,237 495,228 495,219 495,210 	"/>
	<polygon class="st10" points="261,282 261,273 252,273 243,273 234,273 234,282 225,282 225,291 225,300 225,309 234,309 234,318 
		243,318 252,318 261,318 261,309 270,309 270,300 270,291 270,282 	"/>
	<polygon class="st10" points="369,354 369,345 360,345 351,345 342,345 342,354 333,354 333,363 333,372 333,381 342,381 342,390 
		351,390 360,390 369,390 369,381 378,381 378,372 378,363 378,354 	"/>
	<rect x="684" y="489" class="st10" width="18" height="18"/>
	<path class="st10" d="M288,498v18h18v-18H288z M301.5,511.5h-9v-9h9V511.5z"/>
	<path class="st10" d="M288,543v18h18v-18H288z M301.5,556.5h-9v-9h9V556.5z"/>
	<path class="st10" d="M288,588v18h18v-18H288z M301.5,601.5h-9v-9h9V601.5z"/>
	<path class="st10" d="M288,633v18h18v-18H288z M301.5,646.5h-9v-9h9V646.5z"/>
	<path class="st10" d="M288,678v18h18v-18H288z M301.5,691.5h-9v-9h9V691.5z"/>
	<path class="st10" d="M288,723v18h18v-18H288z M301.5,736.5h-9v-9h9V736.5z"/>
	<rect x="684" y="534" class="st10" width="18" height="18"/>
	<path class="st10" d="M657,588v18h18v-18H657z M670.5,601.5h-9v-9h9V601.5z"/>
	<path class="st10" d="M657,633v18h18v-18H657z M670.5,646.5h-9v-9h9V646.5z"/>
	<path class="st10" d="M657,678v18h18v-18H657z M670.5,691.5h-9v-9h9V691.5z"/>
	<path class="st10" d="M657,723v18h18v-18H657z M670.5,736.5h-9v-9h9V736.5z"/>
</g>
<g id="CHIA">
	<polygon class="st12" points="360,129 360,120 351,120 342,120 333,120 333,129 324,129 324,138 324,147 324,156 333,156 333,165 
		342,165 351,165 360,165 360,156 369,156 369,147 369,138 369,129 	"/>
	<g>
		<path class="st13" d="M268.9,79.8h24.6V86h-30.8V67.5h3.1v-3.1h3.1v-3.1h15.4v-3.1h3.1v-6.2h-3.1v-3.1h-12.3v3.1h-3.1v3.1h-6.2
			v-6.2h3.1V46h3.1v-3.1h18.5V46h3.1v3.1h3.1v12.3h-3.1v3.1h-3.1v3.1h-15.4v3.1h-3.1V79.8z"/>
		<path class="st13" d="M318.1,46v-3.1h6.2v24.6h6.2v6.2h-6.2V86h-6.2V73.7h-18.5V61.4h3.1v-3.1h3.1v-3.1h3.1v-3.1h3.1v-3.1h3.1V46
			H318.1z M318.1,67.5V55.2H315v3.1h-3.1v3.1h-3.1v3.1h-3.1v3.1H318.1z"/>
		<path class="st13" d="M339.6,79.8h-3.1v-6.2h6.2v3.1h3.1v3.1h12.3v-3.1h3.1v-6.2h-3.1v-3.1h-9.2v-6.2h9.2v-3.1h3.1v-6.2h-3.1v-3.1
			h-12.3v3.1h-3.1v3.1h-6.2v-6.2h3.1V46h3.1v-3.1h18.5V46h3.1v3.1h3.1v12.3h-3.1v6.2h3.1v12.3h-3.1v3.1h-3.1V86h-18.5v-3.1h-3.1
			V79.8z"/>
	</g>
	<g>
		<path class="st13" d="M302.3,429.6v-2.2h13.5v2.2h2.2v2.2h2.2v22.5h-2.2v2.2h-2.2v2.2h-13.5v-2.2h-2.2v-2.2h-2.2v-22.5h2.2v-2.2
			H302.3z M304.6,445.3v-2.2h2.2v-2.2h2.2v-2.2h2.2v-2.2h4.5v-2.2h-2.2v-2.2h-9v2.2h-2.2v11.2H304.6z M302.3,449.8v2.2h2.2v2.2h9
			V452h2.2v-11.2h-2.2v2.2h-2.2v2.2h-2.2v2.2h-2.2v2.2H302.3z"/>
		<path class="st13" d="M333.8,446.4h1.1v2.2h-2.2v-1.1h-1.1v-1.1h-4.5v1.1h-1.1v9h1.1v1.1h4.5v-1.1h1.1v-3.4h-3.4v-2.2h5.6v6.7
			h-1.1v1.1h-1.1v1.1h-6.7v-1.1h-1.1v-1.1h-1.1v-11.2h1.1v-1.1h1.1v-1.1h6.7v1.1h1.1V446.4z"/>
	</g>
	<polygon class="st12" points="369,201 369,192 360,192 351,192 342,192 342,201 333,201 333,210 333,219 333,228 342,228 342,237 
		351,237 360,237 369,237 369,228 378,228 378,219 378,210 378,201 	"/>
	<polygon class="st12" points="297,273 297,264 288,264 279,264 270,264 270,273 261,273 261,282 261,291 261,300 270,300 270,309 
		279,309 288,309 297,309 297,300 306,300 306,291 306,282 306,273 	"/>
	<polygon class="st12" points="675.1,344.3 675.1,335.3 666.1,335.3 657.1,335.3 648.1,335.3 648.1,344.3 639.1,344.3 639.1,353.3 
		639.1,362.3 639.1,371.3 648.1,371.3 648.1,380.3 657.1,380.3 666.1,380.3 675.1,380.3 675.1,371.3 684.1,371.3 684.1,362.3 
		684.1,353.3 684.1,344.3 	"/>
	<rect x="720" y="489" class="st12" width="18" height="18"/>
	<rect x="711" y="534" class="st12" width="18" height="18"/>
	<path class="st12" d="M657,579v18h18v-18H657z M670.5,592.5h-9v-9h9V592.5z"/>
	<rect x="765" y="624" class="st12" width="18" height="18"/>
	<rect x="819" y="669" class="st12" width="18" height="18"/>
	<rect x="711" y="714.6" class="st12" width="18" height="17.4"/>
	<rect x="360" y="579" class="st12" width="18" height="18"/>
	<rect x="360" y="489" class="st12" width="18" height="18"/>
	<rect x="306" y="534" class="st12" width="18" height="18"/>
	<rect x="288" y="714" class="st12" width="18" height="18"/>
	<path class="st12" d="M288,624v18h18v-18H288z M301.5,637.5h-9v-9h9V637.5z"/>
	<path class="st12" d="M288,669v18h18v-18H288z M301.5,682.5h-9v-9h9V682.5z"/>
</g>
<g id="top_lines">
	<line class="st14" x1="224.6" y1="192.2" x2="944.6" y2="192.2"/>
	<line class="st14" x1="224.4" y1="263.1" x2="944.4" y2="263.1"/>
	<line class="st14" x1="224.4" y1="335.6" x2="944.4" y2="335.6"/>
	<path class="st14" d="M944.6,30H225c0,0,0,63.6,0,72h719.6V30z"/>
	<polygon class="st14" points="224.5,120.5 225.5,407.5 944.5,408.5 944.5,119.5 	"/>
	<polygon class="st14" points="944.6,417.2 225.5,417.5 225.5,471.5 944.7,471.4 	"/>
	<line class="st14" x1="594" y1="534.6" x2="944.8" y2="534.3"/>
	<line class="st14" x1="594.1" y1="578.8" x2="945" y2="578.5"/>
	<line class="st14" x1="594.3" y1="623.8" x2="945.2" y2="623.5"/>
	<line class="st14" x1="594.4" y1="669" x2="945.2" y2="668.7"/>
	<line class="st14" x1="594.4" y1="714.5" x2="945.2" y2="714.2"/>
	<rect x="593.5" y="489.5" class="st14" width="352" height="270"/>
	<line class="st14" x1="224.5" y1="534.5" x2="575.6" y2="534.3"/>
	<line class="st14" x1="224.7" y1="578.7" x2="575.7" y2="578.4"/>
	<line class="st14" x1="224.9" y1="623.7" x2="575.9" y2="623.4"/>
	<line class="st14" x1="224.9" y1="668.9" x2="576" y2="668.6"/>
	<line class="st14" x1="224.9" y1="714.4" x2="576" y2="714.2"/>
	<rect x="225.2" y="489.4" class="st14" width="350.3" height="270"/>
</g>
</svg>
