<?xml version="1.0" encoding="utf-8"?>
<!-- Generator: Adobe Illustrator 25.2.3, SVG Export Plug-In . SVG Version: 6.00 Build 0)  -->
<svg version="1.1" xmlns="http://www.w3.org/2000/svg" xmlns:xlink="http://www.w3.org/1999/xlink" x="0px" y="0px"
	 viewBox="0 0 1108 791" style="enable-background:new 0 0 1108 791;" xml:space="preserve">
<style type="text/css">
	.st0{opacity:0.15;}
	.st1{opacity:0.15;fill:#BEBFB9;}
	.st2{fill:none;stroke:#E1E1DF;stroke-miterlimit:10;}
	.st3{stroke:#000000;stroke-miterlimit:10;}
	.st4{stroke:#000000;stroke-width:0.5;stroke-miterlimit:10;}
	.st5{fill:#03464F;}
	.st6{fill:#03464F;stroke:#03464F;stroke-width:0.5;stroke-miterlimit:10;}
	.st7{fill:#026385;}
	.st8{fill:#026385;stroke:#026385;stroke-width:0.5;stroke-miterlimit:10;}
	.st9{fill:#036C84;stroke:#026385;stroke-width:0.5;stroke-miterlimit:10;}
	.st10{fill:#018F9F;}
	.st11{fill:#018F9F;stroke:#018F9F;stroke-width:0.5;stroke-miterlimit:10;}
	.st12{fill:#35BCC0;}
	.st13{fill:#35BCC0;stroke:#35BCC0;stroke-width:0.5;stroke-miterlimit:10;}
	.st14{fill:none;stroke:#606161;stroke-miterlimit:10;}
	.st15{fill:none;}
	.st16{font-family:'VCROSDMono';}
	.st17{font-size:22px;}
	.st18{font-size:25px;}
	.st19{font-size:10px;}
	.st20{font-size:14px;}
	.st21{font-size:63px;}
	.st22{font-size:46px;}
	.st23{font-size:23px;}
</style>
<g id="layout">
</g>
<g id="GUIDES">
</g>
<g id="PEANUTS">
</g>
<g id="SUNFLOWER_copy">
</g>
<g id="ALMONDS">
</g>
<g id="CHIA">
</g>
<g id="top_lines">
	<g>
		<line class="st2" x1="436.5" y1="414" x2="436.5" y2="467.5"/>
		<line class="st2" x1="617" y1="414" x2="617" y2="467.5"/>
		<line class="st2" x1="797" y1="414" x2="797" y2="467.5"/>
		<line class="st2" x1="436.8" y1="26.5" x2="436.8" y2="98.5"/>
		<line class="st2" x1="617.2" y1="26.5" x2="617.2" y2="98.5"/>
		<line class="st2" x1="797.2" y1="26.5" x2="797.2" y2="98.5"/>
		<line class="st2" x1="436.8" y1="116.3" x2="436.8" y2="404.1"/>
		<line class="st2" x1="616.8" y1="116.5" x2="616.8" y2="404.3"/>
		<line class="st2" x1="616.3" y1="117.1" x2="616.3" y2="404.9"/>
		<line class="st2" x1="797.1" y1="116.5" x2="797.1" y2="404.3"/>
		<rect x="131.1" y="116.5" class="st15" width="107.7" height="72"/>
		<text transform="matrix(1 0 0 1 148.5159 160.5517)" class="st3 st16 st17">PROTEIN</text>
		<rect x="131.3" y="188.2" class="st15" width="107.5" height="72"/>
		<text transform="matrix(1 0 0 1 200.0776 232.2115)" class="st3 st16 st17">FAT</text>
		<rect x="131.3" y="260.2" class="st15" width="107.5" height="72"/>
		<text transform="matrix(1 0 0 1 174.2969 304.2115)" class="st3 st16 st17">CARBS</text>
		<rect x="130.8" y="332.1" class="st15" width="107.5" height="72"/>
		<text transform="matrix(1 0 0 1 173.7939 376.1663)" class="st3 st16 st17">FIBER</text>
		<rect x="130.8" y="413.5" class="st15" width="107.5" height="53.6"/>
		<text transform="matrix(1 0 0 1 173.7927 448.3592)" class="st3 st16 st17">SUGAR</text>
		<rect x="130.8" y="26.5" class="st15" width="108" height="72"/>
		<text transform="matrix(1 0 0 1 135.625 70.5516)" class="st3 st16 st17">CALORIES</text>
		<rect x="626.1" y="485.5" class="st15" width="62.7" height="36"/>
		<text transform="matrix(1 0 0 1 642.8118 512.6498)" class="st3 st16 st18">Ca</text>
		<rect x="626.1" y="512.5" class="st15" width="62.6" height="18"/>
		<text transform="matrix(1 0 0 1 636.9126 525.1602)" class="st16 st19">Calcium</text>
		<line class="st2" x1="688.6" y1="486.1" x2="688.6" y2="754.2"/>
		<line class="st2" x1="761.4" y1="485.7" x2="761.4" y2="754"/>
		<line class="st2" x1="904.3" y1="487.5" x2="904.3" y2="755.5"/>
		<line class="st2" x1="832.9" y1="487.5" x2="832.9" y2="755.5"/>
		<rect x="626.1" y="530.9" class="st15" width="62.7" height="36"/>
		<text transform="matrix(1 0 0 1 642.8254 558.02)" class="st3 st16 st18">Fe</text>
		<rect x="626.1" y="557.9" class="st15" width="62.6" height="18"/>
		<text transform="matrix(1 0 0 1 645.7153 570.5303)" class="st16 st19">Iron</text>
		<rect x="625.8" y="575.6" class="st15" width="62.7" height="36"/>
		<text transform="matrix(1 0 0 1 642.4287 602.7358)" class="st3 st16 st18">Na</text>
		<rect x="625.8" y="602.6" class="st15" width="62.6" height="18"/>
		<text transform="matrix(1 0 0 1 639.4592 615.2462)" class="st16 st19">Sodium</text>
		<rect x="625.8" y="620.8" class="st15" width="62.7" height="36"/>
		<text transform="matrix(1 0 0 1 642.5046 647.9574)" class="st3 st16 st18">Mg</text>
		<rect x="625.8" y="647.8" class="st15" width="62.6" height="18"/>
		<text transform="matrix(1 0 0 1 630.7461 660.4678)" class="st16 st19">Magnesium</text>
		<rect x="626.1" y="665.3" class="st15" width="62.7" height="36.2"/>
		<text transform="matrix(1 0 0 1 650.0579 692.5431)" class="st3 st16 st18">P</text>
		<rect x="626.1" y="692.3" class="st15" width="62.7" height="18"/>
		<text transform="matrix(1 0 0 1 628.105 704.947)" class="st16 st19">Phosphorus</text>
		<rect x="625.8" y="711.1" class="st15" width="63.3" height="36.2"/>
		<text transform="matrix(1 0 0 1 642.7458 738.3856)" class="st3 st16 st18">Zn</text>
		<rect x="626.4" y="738.1" class="st15" width="62.8" height="18"/>
		<text transform="matrix(1 0 0 1 646.0391 750.7891)" class="st16 st19">Zinc</text>
		<rect x="257.4" y="485.5" class="st15" width="62.7" height="36"/>
		<text transform="matrix(1 0 0 1 277.2979 512.6497)"><tspan x="0" y="0" class="st3 st16 st18">B</tspan><tspan x="14.6" y="0" class="st4 st16 st20">1</tspan></text>
		<rect x="257.4" y="512.5" class="st15" width="62.6" height="18"/>
		<text transform="matrix(1 0 0 1 268.1753 525.16)" class="st16 st19">Thiamin</text>
		<line class="st2" x1="319.9" y1="486" x2="319.9" y2="754.2"/>
		<line class="st2" x1="391.7" y1="485.5" x2="391.7" y2="754"/>
		<line class="st2" x1="535.6" y1="485.3" x2="535.6" y2="753.5"/>
		<line class="st2" x1="464.1" y1="485.3" x2="464.1" y2="753.5"/>
		<rect x="256.8" y="575.6" class="st15" width="62.7" height="36"/>
		<text transform="matrix(1 0 0 1 276.6909 602.7464)"><tspan x="0" y="0" class="st3 st16 st18">B</tspan><tspan x="14.6" y="0" class="st4 st16 st20">3</tspan></text>
		<rect x="256.8" y="602.6" class="st15" width="62.6" height="18"/>
		<text transform="matrix(1 0 0 1 270.498 615.2568)" class="st16 st19">Niacin</text>
		<rect x="256.9" y="620.5" class="st15" width="62.7" height="45"/>
		<text transform="matrix(1 0 0 1 276.8267 652.1389)"><tspan x="0" y="0" class="st3 st16 st18">B</tspan><tspan x="14.6" y="0" class="st4 st16 st20">6</tspan></text>
		<rect x="256.7" y="665.5" class="st15" width="62.7" height="45"/>
		<text transform="matrix(1 0 0 1 272.5168 697.1495)"><tspan x="0" y="0" class="st3 st16 st18">B</tspan><tspan x="14.6" y="0" class="st4 st16 st20">12</tspan></text>
		<rect x="256.8" y="710.7" class="st15" width="62.7" height="45"/>
		<text transform="matrix(1 0 0 1 280.8638 742.381)" class="st3 st16 st18">E</text>
		<rect x="257" y="529.8" class="st15" width="62.7" height="36"/>
		<text transform="matrix(1 0 0 1 276.8813 556.9398)"><tspan x="0" y="0" class="st3 st16 st18">B</tspan><tspan x="14.6" y="0" class="st4 st16 st20">2</tspan></text>
		<rect x="257" y="556.8" class="st15" width="62.6" height="18"/>
		<text transform="matrix(1 0 0 1 258.9695 569.4501)" class="st16 st19">Riboflavin</text>
		<rect x="175.8" y="485.5" class="st15" width="71.9" height="279"/>
		<text transform="matrix(0 -1 1 0 219.8411 754.3906)" class="st3 st16 st17">VITAMINS &amp; MINERALS</text>
		<rect x="616.8" y="26.8" class="st15" width="180" height="72"/>
		<text transform="matrix(1 0 0 1 651.3787 85.8251)" class="st8 st16 st21">291</text>
		<rect x="617" y="414.4" class="st15" width="180" height="53.6"/>
		<text transform="matrix(1 0 0 1 673.3262 458.0258)"><tspan x="0" y="0" class="st8 st16 st22">14</tspan><tspan x="53.9" y="0" class="st8 st16 st23">G</tspan></text>
		<rect x="680.4" y="413.9" class="st15" width="44.3" height="54"/>
		<text transform="matrix(1 0 0 1 689.1135 457.7486)" class="st9 st16 st22">.</text>
		<polygon class="st7" points="409.8,143.5 409.8,134.5 400.8,134.5 391.8,134.5 382.8,134.5 382.8,143.5 373.8,143.5 373.8,152.5 
			373.8,161.5 373.8,170.5 382.8,170.5 382.8,179.5 391.8,179.5 400.8,179.5 409.8,179.5 409.8,170.5 418.8,170.5 418.8,161.5 
			418.8,152.5 418.8,143.5 		"/>
		<polygon class="st7" points="508.8,215.5 508.8,206.5 499.8,206.5 490.8,206.5 481.8,206.5 481.8,215.5 472.8,215.5 472.8,224.5 
			472.8,233.5 472.8,242.5 481.8,242.5 481.8,251.5 490.8,251.5 499.8,251.5 508.8,251.5 508.8,242.5 517.8,242.5 517.8,233.5 
			517.8,224.5 517.8,215.5 		"/>
		<polygon class="st7" points="292.8,287.5 292.8,278.5 283.8,278.5 274.8,278.5 265.8,278.5 265.8,287.5 256.8,287.5 256.8,296.5 
			256.8,305.5 256.8,314.5 265.8,314.5 265.8,323.5 274.8,323.5 283.8,323.5 292.8,323.5 292.8,314.5 301.8,314.5 301.8,305.5 
			301.8,296.5 301.8,287.5 		"/>
		<polygon class="st7" points="418.8,359.5 418.8,350.5 409.8,350.5 400.8,350.5 391.8,350.5 391.8,359.5 382.8,359.5 382.8,368.5 
			382.8,377.5 382.8,386.5 391.8,386.5 391.8,395.5 400.8,395.5 409.8,395.5 418.8,395.5 418.8,386.5 427.8,386.5 427.8,377.5 
			427.8,368.5 427.8,359.5 		"/>
		<rect x="328.8" y="503.5" class="st7" width="18" height="18"/>
		<path class="st7" d="M319.8,683.5v18h18v-18H319.8z M333.2,697h-9v-9h9V697z"/>
		<rect x="337.8" y="548.5" class="st7" width="18" height="18"/>
		<rect x="382.8" y="593.5" class="st7" width="18" height="18"/>
		<rect x="409.8" y="638.5" class="st7" width="18" height="18"/>
		<rect x="481.8" y="728.5" class="st7" width="18" height="18"/>
		<rect x="688.8" y="503.5" class="st7" width="18" height="18"/>
		<rect x="715.8" y="548.5" class="st7" width="18" height="18"/>
		<path class="st7" d="M688.8,593.5v18h18v-18H688.8z M702.3,607h-9v-9h9V607z"/>
		<rect x="733.8" y="638.5" class="st7" width="18" height="18"/>
		<rect x="913.8" y="683.5" class="st7" width="18" height="18"/>
		<rect x="751.8" y="728.5" class="st7" width="18" height="18"/>
		<line class="st14" x1="256.3" y1="188.7" x2="976.3" y2="188.7"/>
		<line class="st14" x1="256.1" y1="259.6" x2="976.1" y2="259.6"/>
		<line class="st14" x1="256.1" y1="332.1" x2="976.1" y2="332.1"/>
		<path class="st14" d="M976.3,26.5H256.8c0,0,0,63.6,0,72h719.6V26.5z"/>
		<polygon class="st14" points="256.2,117 257.2,404 976.3,405 976.3,116 		"/>
		<polygon class="st14" points="976.3,413.7 257.2,414 257.2,468 976.4,467.9 		"/>
		<line class="st14" x1="625.8" y1="531.1" x2="976.6" y2="530.8"/>
		<line class="st14" x1="625.9" y1="575.3" x2="976.7" y2="575"/>
		<line class="st14" x1="626.1" y1="620.3" x2="976.9" y2="620"/>
		<line class="st14" x1="626.1" y1="665.5" x2="977" y2="665.2"/>
		<line class="st14" x1="626.2" y1="711" x2="977" y2="710.7"/>
		<rect x="625.2" y="486" class="st14" width="352" height="270"/>
		<line class="st14" x1="256.3" y1="531" x2="607.3" y2="530.8"/>
		<line class="st14" x1="256.4" y1="575.2" x2="607.5" y2="574.9"/>
		<line class="st14" x1="256.6" y1="620.2" x2="607.7" y2="619.9"/>
		<line class="st14" x1="256.7" y1="665.4" x2="607.7" y2="665.1"/>
		<line class="st14" x1="256.7" y1="710.9" x2="607.8" y2="710.7"/>
		<rect x="256.9" y="485.9" class="st14" width="350.3" height="270"/>
	</g>
</g>
</svg>
