<?xml version="1.0" encoding="utf-8"?>
<!-- Generator: Adobe Illustrator 25.2.3, SVG Export Plug-In . SVG Version: 6.00 Build 0)  -->
<svg version="1.1" xmlns="http://www.w3.org/2000/svg" xmlns:xlink="http://www.w3.org/1999/xlink" x="0px" y="0px"
	 viewBox="0 0 1108 791" style="enable-background:new 0 0 1108 791;" xml:space="preserve">
<style type="text/css">
	.st0{opacity:0.15;}
	.st1{opacity:0.15;fill:#BEBFB9;}
	.st2{fill:none;stroke:#E1E1DF;stroke-miterlimit:10;}
	.st3{stroke:#000000;stroke-miterlimit:10;}
	.st4{stroke:#000000;stroke-width:0.5;stroke-miterlimit:10;}
	.st5{fill:#03464F;}
	.st6{fill:#03464F;stroke:#03464F;stroke-width:0.5;stroke-miterlimit:10;}
	.st7{fill:#026385;}
	.st8{fill:#026385;stroke:#026385;stroke-width:0.5;stroke-miterlimit:10;}
	.st9{fill:#036C84;stroke:#026385;stroke-width:0.5;stroke-miterlimit:10;}
	.st10{fill:#018F9F;}
	.st11{fill:#018F9F;stroke:#018F9F;stroke-width:0.5;stroke-miterlimit:10;}
	.st12{fill:#35BCC0;}
	.st13{fill:#35BCC0;stroke:#35BCC0;stroke-width:0.5;stroke-miterlimit:10;}
	.st14{fill:none;stroke:#606161;stroke-miterlimit:10;}
</style>
<g id="layout">
</g>
<g id="GUIDES">
</g>
<g id="PEANUTS">
</g>
<g id="SUNFLOWER_copy">
</g>
<g id="ALMONDS">
</g>
<g id="CHIA">
</g>
<g id="top_lines">
	<line class="st2" x1="436.5" y1="414" x2="436.5" y2="467.5"/>
	<line class="st2" x1="617" y1="414" x2="617" y2="467.5"/>
	<line class="st2" x1="797" y1="414" x2="797" y2="467.5"/>
	<line class="st2" x1="436.8" y1="26.5" x2="436.8" y2="98.5"/>
	<line class="st2" x1="617.2" y1="26.5" x2="617.2" y2="98.5"/>
	<line class="st2" x1="797.2" y1="26.5" x2="797.2" y2="98.5"/>
	<line class="st2" x1="436.8" y1="116.3" x2="436.8" y2="404.1"/>
	<line class="st2" x1="616.8" y1="116.5" x2="616.8" y2="404.3"/>
	<line class="st2" x1="616.3" y1="117.1" x2="616.3" y2="404.9"/>
	<line class="st2" x1="797.1" y1="116.5" x2="797.1" y2="404.3"/>
	<g>
		<path class="st3" d="M151.7,153v6.4h-2.1v-15h8.6v1.1h1.1v1.1h1.1v4.3h-1.1v1.1h-1.1v1.1H151.7z M151.7,146.6v4.3h5.4v-1.1h1.1
			v-2.1h-1.1v-1.1H151.7z"/>
		<path class="st3" d="M165.7,153h-1.1v6.4h-2.1v-15h8.6v1.1h1.1v1.1h1.1v4.3h-1.1v1.1h-1.1v1.1h-2.1v1.1h1.1v1.1h1.1v1.1h1.1v1.1
			h1.1v2.1h-2.1v-1.1H170v-1.1h-1.1v-1.1h-1.1v-1.1h-1.1v-1.1h-1.1V153z M164.6,146.6v4.3h5.4v-1.1h1.1v-2.1H170v-1.1H164.6z"/>
		<path class="st3" d="M177.5,145.5v-1.1h6.4v1.1h1.1v1.1h1.1v10.7H185v1.1H184v1.1h-6.4v-1.1h-1.1v-1.1h-1.1v-10.7h1.1v-1.1H177.5z
			 M182.9,146.6h-4.3v1.1h-1.1v8.6h1.1v1.1h4.3v-1.1h1.1v-8.6h-1.1V146.6z"/>
		<path class="st3" d="M192.6,146.6h-4.3v-2.1H199v2.1h-4.3v12.9h-2.1V146.6z"/>
		<path class="st3" d="M211.9,144.4v2.1h-8.6v4.3h6.4v2.1h-6.4v4.3h8.6v2.1h-10.7v-15H211.9z"/>
		<path class="st3" d="M216.2,159.5v-2.1h2.1v-10.7h-2.1v-2.1h6.4v2.1h-2.1v10.7h2.1v2.1H216.2z"/>
		<path class="st3" d="M229.1,150.9v8.6h-2.1v-15h2.1v3.2h1.1v1.1h1.1v1.1h1.1v1.1h1.1v1.1h1.1v1.1h1.1v-8.6h2.1v15h-2.1v-3.2h-1.1
			v-1.1h-1.1v-1.1h-1.1V153h-1.1V152h-1.1v-1.1H229.1z"/>
	</g>
	<g>
		<path class="st3" d="M211.9,216.1v2.1h-8.6v4.3h6.4v2.1h-6.4v6.4h-2.1v-15H211.9z"/>
		<path class="st3" d="M216.2,231.1H214v-10.7h1.1v-1.1h1.1v-1.1h1.1v-1.1h1.1v-1.1h2.1v1.1h1.1v1.1h1.1v1.1h1.1v1.1h1.1v10.7h-2.1
			v-4.3h-6.4V231.1z M216.2,224.7h6.4v-3.2h-1.1v-1.1h-1.1v-1.1h-2.1v1.1h-1.1v1.1h-1.1V224.7z"/>
		<path class="st3" d="M231.2,218.2h-4.3v-2.1h10.7v2.1h-4.3v12.9h-2.1V218.2z"/>
	</g>
	<g>
		<path class="st3" d="M178.6,301h4.3v-1.1h1.1v-1.1h2.1v2.1H185v1.1H184v1.1h-6.4v-1.1h-1.1V301h-1.1v-10.7h1.1v-1.1h1.1v-1.1h6.4
			v1.1h1.1v1.1h1.1v2.1H184v-1.1h-1.1v-1.1h-4.3v1.1h-1.1v8.6h1.1V301z"/>
		<path class="st3" d="M190.4,303.1h-2.1v-10.7h1.1v-1.1h1.1v-1.1h1.1v-1.1h1.1v-1.1h2.1v1.1h1.1v1.1h1.1v1.1h1.1v1.1h1.1v10.7h-2.1
			v-4.3h-6.4V303.1z M190.4,296.7h6.4v-3.2h-1.1v-1.1h-1.1v-1.1h-2.1v1.1h-1.1v1.1h-1.1V296.7z"/>
		<path class="st3" d="M204.4,296.7h-1.1v6.4h-2.1v-15h8.6v1.1h1.1v1.1h1.1v4.3h-1.1v1.1h-1.1v1.1h-2.1v1.1h1.1v1.1h1.1v1.1h1.1v1.1
			h1.1v2.1h-2.1v-1.1h-1.1V301h-1.1v-1.1h-1.1v-1.1h-1.1v-1.1h-1.1V296.7z M203.3,290.2v4.3h5.4v-1.1h1.1v-2.1h-1.1v-1.1H203.3z"/>
		<path class="st3" d="M214,303.1v-15h8.6v1.1h1.1v1.1h1.1v4.3h-1.1v2.1h1.1v4.3h-1.1v1.1h-1.1v1.1H214z M216.2,294.5h5.4v-1.1h1.1
			v-2.1h-1.1v-1.1h-5.4V294.5z M216.2,301h5.4v-1.1h1.1v-2.1h-1.1v-1.1h-5.4V301z"/>
		<path class="st3" d="M236.6,290.2h1.1v2.1h-2.1v-1.1h-1.1v-1.1h-4.3v1.1h-1.1v2.1h1.1v1.1h5.4v1.1h1.1v1.1h1.1v4.3h-1.1v1.1h-1.1
			v1.1h-6.4v-1.1H228V301h-1.1v-2.1h2.1v1.1h1.1v1.1h4.3v-1.1h1.1v-2.1h-1.1v-1.1h-5.4v-1.1H228v-1.1h-1.1v-4.3h1.1v-1.1h1.1v-1.1
			h6.4v1.1h1.1V290.2z"/>
	</g>
	<g>
		<path class="st3" d="M185.6,360.1v2.1H177v4.3h6.4v2.1H177v6.4h-2.1v-15H185.6z"/>
		<path class="st3" d="M189.9,375.1v-2.1h2.1v-10.7h-2.1v-2.1h6.4v2.1h-2.1v10.7h2.1v2.1H189.9z"/>
		<path class="st3" d="M200.6,375.1v-15h8.6v1.1h1.1v1.1h1.1v4.3h-1.1v2.1h1.1v4.3h-1.1v1.1h-1.1v1.1H200.6z M202.8,366.5h5.4v-1.1
			h1.1v-2.1h-1.1v-1.1h-5.4V366.5z M202.8,372.9h5.4v-1.1h1.1v-2.1h-1.1v-1.1h-5.4V372.9z"/>
		<path class="st3" d="M224.3,360.1v2.1h-8.6v4.3h6.4v2.1h-6.4v4.3h8.6v2.1h-10.7v-15H224.3z"/>
		<path class="st3" d="M229.7,368.6h-1.1v6.4h-2.1v-15h8.6v1.1h1.1v1.1h1.1v4.3h-1.1v1.1H235v1.1h-2.1v1.1h1.1v1.1h1.1v1.1h1.1v1.1
			h1.1v2.1H235V374H234v-1.1h-1.1v-1.1h-1.1v-1.1h-1.1v-1.1h-1.1V368.6z M228.6,362.2v4.3h5.4v-1.1h1.1v-2.1H234v-1.1H228.6z"/>
	</g>
	<g>
		<path class="st3" d="M184.5,434.4h1.1v2.1h-2.1v-1.1h-1.1v-1.1h-4.3v1.1H177v2.1h1.1v1.1h5.4v1.1h1.1v1.1h1.1v4.3h-1.1v1.1h-1.1
			v1.1H177v-1.1h-1.1v-1.1h-1.1V443h2.1v1.1h1.1v1.1h4.3v-1.1h1.1v-2.1h-1.1v-1.1H177v-1.1h-1.1v-1.1h-1.1v-4.3h1.1v-1.1h1.1v-1.1
			h6.4v1.1h1.1V434.4z"/>
		<path class="st3" d="M188.8,445.1h-1.1v-12.9h2.1v11.8h1.1v1.1h4.3v-1.1h1.1v-11.8h2.1v12.9h-1.1v1.1h-1.1v1.1h-6.4v-1.1h-1.1
			V445.1z"/>
		<path class="st3" d="M210.3,434.4h1.1v2.1h-2.1v-1.1h-1.1v-1.1h-4.3v1.1h-1.1v8.6h1.1v1.1h4.3v-1.1h1.1v-3.2H206v-2.1h5.4v6.4
			h-1.1v1.1h-1.1v1.1h-6.4v-1.1h-1.1v-1.1h-1.1v-10.7h1.1v-1.1h1.1v-1.1h6.4v1.1h1.1V434.4z"/>
		<path class="st3" d="M215.7,447.3h-2.1v-10.7h1.1v-1.1h1.1v-1.1h1.1v-1.1h1.1v-1.1h2.1v1.1h1.1v1.1h1.1v1.1h1.1v1.1h1.1v10.7h-2.1
			V443h-6.4V447.3z M215.7,440.8h6.4v-3.2h-1.1v-1.1H220v-1.1h-2.1v1.1h-1.1v1.1h-1.1V440.8z"/>
		<path class="st3" d="M229.7,440.8h-1.1v6.4h-2.1v-15h8.6v1.1h1.1v1.1h1.1v4.3h-1.1v1.1H235v1.1h-2.1v1.1h1.1v1.1h1.1v1.1h1.1v1.1
			h1.1v2.1H235v-1.1h-1.1v-1.1h-1.1v-1.1h-1.1V443h-1.1v-1.1h-1.1V440.8z M228.6,434.4v4.3h5.4v-1.1h1.1v-2.1h-1.1v-1.1H228.6z"/>
	</g>
	<g>
		<path class="st3" d="M139.9,67.3h4.3v-1.1h1.1v-1.1h2.1v2.1h-1.1v1.1h-1.1v1.1h-6.4v-1.1h-1.1v-1.1h-1.1V56.6h1.1v-1.1h1.1v-1.1
			h6.4v1.1h1.1v1.1h1.1v2.1h-2.1v-1.1h-1.1v-1.1h-4.3v1.1h-1.1v8.6h1.1V67.3z"/>
		<path class="st3" d="M151.7,69.5h-2.1V58.7h1.1v-1.1h1.1v-1.1h1.1v-1.1h1.1v-1.1h2.1v1.1h1.1v1.1h1.1v1.1h1.1v1.1h1.1v10.7h-2.1
			v-4.3h-6.4V69.5z M151.7,63h6.4v-3.2h-1.1v-1.1H156v-1.1h-2.1v1.1h-1.1v1.1h-1.1V63z"/>
		<path class="st3" d="M162.5,69.5v-15h2.1v12.9h8.6v2.1H162.5z"/>
		<path class="st3" d="M177.5,55.5v-1.1h6.4v1.1h1.1v1.1h1.1v10.7H185v1.1H184v1.1h-6.4v-1.1h-1.1v-1.1h-1.1V56.6h1.1v-1.1H177.5z
			 M182.9,56.6h-4.3v1.1h-1.1v8.6h1.1v1.1h4.3v-1.1h1.1v-8.6h-1.1V56.6z"/>
		<path class="st3" d="M191.5,63h-1.1v6.4h-2.1v-15h8.6v1.1h1.1v1.1h1.1v4.3h-1.1V62h-1.1V63h-2.1v1.1h1.1v1.1h1.1v1.1h1.1v1.1h1.1
			v2.1h-2.1v-1.1h-1.1v-1.1h-1.1v-1.1h-1.1v-1.1h-1.1v-1.1h-1.1V63z M190.4,56.6v4.3h5.4v-1.1h1.1v-2.1h-1.1v-1.1H190.4z"/>
		<path class="st3" d="M203.3,69.5v-2.1h2.1V56.6h-2.1v-2.1h6.4v2.1h-2.1v10.7h2.1v2.1H203.3z"/>
		<path class="st3" d="M224.8,54.4v2.1h-8.6v4.3h6.4V63h-6.4v4.3h8.6v2.1H214v-15H224.8z"/>
		<path class="st3" d="M236.6,56.6h1.1v2.1h-2.1v-1.1h-1.1v-1.1h-4.3v1.1h-1.1v2.1h1.1v1.1h5.4V62h1.1V63h1.1v4.3h-1.1v1.1h-1.1v1.1
			h-6.4v-1.1H228v-1.1h-1.1v-2.1h2.1v1.1h1.1v1.1h4.3v-1.1h1.1v-2.1h-1.1V63h-5.4V62H228v-1.1h-1.1v-4.3h1.1v-1.1h1.1v-1.1h6.4v1.1
			h1.1V56.6z"/>
	</g>
	<g>
		<path class="st3" d="M647.7,509h4.9v-1.2h1.2v-1.2h2.4v2.4H655v1.2h-1.2v1.2h-7.3v-1.2h-1.2V509H644v-12.2h1.2v-1.2h1.2v-1.2h7.3
			v1.2h1.2v1.2h1.2v2.4h-2.4V498h-1.2v-1.2h-4.9v1.2h-1.2v9.8h1.2V509z"/>
		<path class="st3" d="M661.1,511.4v-1.2h-1.2V509h-1.2v-4.9h1.2v-1.2h1.2v-1.2h6.1v1.2h1.2v-2.4h-1.2v-1.2h-6.1v-2.4h7.3v1.2h1.2
			v1.2h1.2v12.2h-2.4v-1.2h-1.2v1.2H661.1z M662.3,509h4.9v-1.2h1.2v-2.4h-1.2v-1.2h-4.9v1.2h-1.2v2.4h1.2V509z"/>
	</g>
	<g>
		<path d="M638.9,523.7h2v-0.5h0.5v-0.5h1v1h-0.5v0.5h-0.5v0.5h-2.9v-0.5h-0.5v-0.5h-0.5v-4.9h0.5v-0.5h0.5v-0.5h2.9v0.5h0.5v0.5
			h0.5v1h-1v-0.5h-0.5v-0.5h-2v0.5h-0.5v3.9h0.5V523.7z"/>
		<path d="M644.2,524.7v-0.5h-0.5v-0.5h-0.5v-2h0.5v-0.5h0.5v-0.5h2.4v0.5h0.5v-1h-0.5v-0.5h-2.4v-1h2.9v0.5h0.5v0.5h0.5v4.9h-1
			v-0.5h-0.5v0.5H644.2z M644.7,523.7h2v-0.5h0.5v-1h-0.5v-0.5h-2v0.5h-0.5v1h0.5V523.7z"/>
		<path d="M652,517.8v6.8h-1v-6.8H652z"/>
		<path d="M658.9,523.2v-0.5h1v1h-0.5v0.5h-0.5v0.5H656v-0.5h-0.5v-0.5H655v-3.4h0.5v-0.5h0.5v-0.5h2.9v0.5h0.5v0.5h0.5v1h-1v-0.5
			h-0.5v-0.5h-2v0.5H656v2.4h0.5v0.5h2v-0.5H658.9z"/>
		<path d="M664.3,523.7h0.5v1h-1v-0.5h-0.5v-0.5h-0.5v-2.4h-1v-1h2v2.9h0.5V523.7z M663.8,518.3v1h-1v-1H663.8z"/>
		<path d="M666.7,519.3h1v3.9h0.5v0.5h2v-0.5h0.5v-3.9h1v4.4h-0.5v0.5h-0.5v0.5h-2.9v-0.5h-0.5v-0.5h-0.5V519.3z"/>
		<path d="M673.5,520.8v3.9h-1v-5.4h1v0.5h0.5v-0.5h2.4v0.5h0.5v0.5h0.5v4.4h-1v-3.9H676v-0.5h-0.5v4.4h-1v-4.4H674v0.5H673.5z"/>
	</g>
	<line class="st2" x1="688.6" y1="486.1" x2="688.6" y2="754.2"/>
	<line class="st2" x1="761.4" y1="485.7" x2="761.4" y2="754"/>
	<line class="st2" x1="904.3" y1="487.5" x2="904.3" y2="755.5"/>
	<line class="st2" x1="832.9" y1="487.5" x2="832.9" y2="755.5"/>
	<g>
		<path class="st3" d="M656.3,539.7v2.4h-9.8v4.9h7.3v2.4h-7.3v7.3H644v-17.1H656.3z"/>
		<path class="st3" d="M670.9,553.1v1.2h-1.2v1.2h-1.2v1.2h-7.3v-1.2h-1.2v-1.2h-1.2v-8.5h1.2v-1.2h1.2v-1.2h7.3v1.2h1.2v1.2h1.2
			v3.7h-1.2v1.2h-8.5v2.4h1.2v1.2h4.9v-1.2H670.9z M661.1,547v1.2h7.3V547h-1.2v-1.2h-4.9v1.2H661.1z"/>
	</g>
	<g>
		<path d="M647.2,570v-1h1v-4.9h-1v-1h2.9v1h-1v4.9h1v1H647.2z"/>
		<path d="M653,567.1v2.9h-1v-5.4h1v1h0.5v-0.5h0.5v-0.5h2v0.5h0.5v0.5h0.5v1h-1v-0.5h-0.5v-0.5h-1v0.5H654v0.5h-0.5v0.5H653z"/>
		<path d="M658.9,570v-0.5h-0.5v-0.5h-0.5v-3.4h0.5v-0.5h0.5v-0.5h2.9v0.5h0.5v0.5h0.5v3.4h-0.5v0.5h-0.5v0.5H658.9z M659.4,569.1h2
			v-0.5h0.5v-2.4h-0.5v-0.5h-2v0.5h-0.5v2.4h0.5V569.1z"/>
		<path d="M664.8,566.1v3.9h-1v-5.4h1v0.5h0.5v-0.5h2.4v0.5h0.5v0.5h0.5v4.4h-1v-3.9h-0.5v-0.5h-2v0.5H664.8z"/>
	</g>
	<g>
		<path class="st3" d="M646.1,591.7v9.8h-2.4v-17.1h2.4v3.7h1.2v1.2h1.2v1.2h1.2v1.2h1.2v1.2h1.2v1.2h1.2v-9.8h2.4v17.1h-2.4v-3.7
			h-1.2v-1.2H651v-1.2h-1.2v-1.2h-1.2V593h-1.2v-1.2H646.1z"/>
		<path class="st3" d="M660.7,601.5v-1.2h-1.2v-1.2h-1.2v-4.9h1.2V593h1.2v-1.2h6.1v1.2h1.2v-2.4h-1.2v-1.2h-6.1v-2.4h7.3v1.2h1.2
			v1.2h1.2v12.2h-2.4v-1.2h-1.2v1.2H660.7z M662,599.1h4.9v-1.2h1.2v-2.4h-1.2v-1.2H662v1.2h-1.2v2.4h1.2V599.1z"/>
	</g>
	<g>
		<path d="M644.3,608.9h0.5v1h-1v-0.5h-0.5v-0.5h-2v0.5h-0.5v1h0.5v0.5h2.4v0.5h0.5v0.5h0.5v2h-0.5v0.5h-0.5v0.5h-2.9v-0.5h-0.5
			v-0.5h-0.5v-1h1v0.5h0.5v0.5h2v-0.5h0.5v-1h-0.5v-0.5h-2.4v-0.5h-0.5v-0.5h-0.5v-2h0.5v-0.5h0.5v-0.5h2.9v0.5h0.5V608.9z"/>
		<path d="M646.8,614.8v-0.5h-0.5v-0.5h-0.5v-3.4h0.5v-0.5h0.5v-0.5h2.9v0.5h0.5v0.5h0.5v3.4h-0.5v0.5h-0.5v0.5H646.8z M647.3,613.8
			h2v-0.5h0.5v-2.4h-0.5v-0.5h-2v0.5h-0.5v2.4h0.5V613.8z"/>
		<path d="M655.6,610.4v-2.4h1v6.8h-1v-1h-0.5v0.5h-0.5v0.5h-1.5v-0.5h-0.5v-0.5h-0.5v-0.5h-0.5v-2.4h0.5v-0.5h0.5v-0.5h0.5v-0.5
			h1.5v0.5h0.5v0.5H655.6z M653.1,613.3h0.5v0.5h0.5v-0.5h0.5v-0.5h0.5v-1.5h-0.5v-0.5h-0.5v-0.5h-0.5v0.5h-0.5v0.5h-0.5v1.5h0.5
			V613.3z"/>
		<path d="M660.9,613.8h0.5v1h-1v-0.5H660v-0.5h-0.5v-2.4h-1v-1h2v2.9h0.5V613.8z M660.5,608.4v1h-1v-1H660.5z"/>
		<path d="M663.4,609.4h1v3.9h0.5v0.5h2v-0.5h0.5v-3.9h1v4.4h-0.5v0.5h-0.5v0.5h-2.9v-0.5h-0.5v-0.5h-0.5V609.4z"/>
		<path d="M670.2,610.9v3.9h-1v-5.4h1v0.5h0.5v-0.5h2.4v0.5h0.5v0.5h0.5v4.4h-1v-3.9h-0.5v-0.5h-0.5v4.4h-1v-4.4h-0.5v0.5H670.2z"/>
	</g>
	<g>
		<path class="st3" d="M646.2,646.7h-2.4v-17.1h2.4v2.4h1.2v1.2h1.2v1.2h2.4v-1.2h1.2v-1.2h1.2v-2.4h2.4v17.1h-2.4v-11h-1.2v1.2H651
			v2.4h-2.4V637h-1.2v-1.2h-1.2V646.7z"/>
		<path class="st3" d="M660.8,645.5h-1.2v-2.4h2.4v1.2h4.9v-1.2h1.2v-3.7h-1.2v1.2h-6.1v-1.2h-1.2v-1.2h-1.2v-3.7h1.2v-1.2h1.2v-1.2
			h7.3v1.2h1.2v1.2h1.2v9.8h-1.2v1.2h-1.2v1.2h-7.3V645.5z M668.1,637v-1.2h-1.2v-1.2H662v1.2h-1.2v1.2h1.2v1.2h4.9V637H668.1z"/>
	</g>
	<g>
		<path d="M632.2,660h-1v-6.8h1v1h0.5v0.5h0.5v0.5h1v-0.5h0.5v-0.5h0.5v-1h1v6.8h-1v-4.4h-0.5v0.5h-0.5v1h-1v-1h-0.5v-0.5h-0.5V660z
			"/>
		<path d="M638.1,660v-0.5h-0.5V659h-0.5v-2h0.5v-0.5h0.5v-0.5h2.4v0.5h0.5v-1h-0.5v-0.5h-2.4v-1h2.9v0.5h0.5v0.5h0.5v4.9h-1v-0.5
			h-0.5v0.5H638.1z M638.6,659h2v-0.5h0.5v-1h-0.5v-0.5h-2v0.5h-0.5v1h0.5V659z"/>
		<path d="M643.9,659.5h-0.5v-1h1v0.5h2v-0.5h0.5v-1.5h-0.5v0.5h-2.4v-0.5h-0.5v-0.5H643v-1.5h0.5v-0.5h0.5v-0.5h2.9v0.5h0.5v0.5
			h0.5v3.9h-0.5v0.5h-0.5v0.5h-2.9V659.5z M646.9,656.1v-0.5h-0.5v-0.5h-2v0.5h-0.5v0.5h0.5v0.5h2v-0.5H646.9z"/>
		<path d="M649.8,656.1v3.9h-1v-5.4h1v0.5h0.5v-0.5h2.4v0.5h0.5v0.5h0.5v4.4h-1v-3.9h-0.5v-0.5h-2v0.5H649.8z"/>
		<path d="M659.6,658.5v0.5h-0.5v0.5h-0.5v0.5h-2.9v-0.5h-0.5V659h-0.5v-3.4h0.5v-0.5h0.5v-0.5h2.9v0.5h0.5v0.5h0.5v1.5h-0.5v0.5
			h-3.4v1h0.5v0.5h2v-0.5H659.6z M655.6,656.1v0.5h2.9v-0.5h-0.5v-0.5h-2v0.5H655.6z"/>
		<path d="M661,659h-0.5v-1h1v0.5h0.5v0.5h2v-1h-1v-0.5h-1v-0.5h-1v-0.5h-0.5v-1h0.5v-0.5h0.5v-0.5h2.9v0.5h0.5v0.5h0.5v1h-1v-0.5
			h-0.5v-0.5h-2v1h1.5v0.5h1v0.5h0.5v0.5h0.5v1h-0.5v0.5h-0.5v0.5h-2.9v-0.5H661V659z"/>
		<path d="M669.8,659h0.5v1h-1v-0.5h-0.5V659h-0.5v-2.4h-1v-1h2v2.9h0.5V659z M669.3,653.6v1h-1v-1H669.3z"/>
		<path d="M672.2,654.6h1v3.9h0.5v0.5h2v-0.5h0.5v-3.9h1v4.4h-0.5v0.5h-0.5v0.5h-2.9v-0.5h-0.5V659h-0.5V654.6z"/>
		<path d="M679.1,656.1v3.9h-1v-5.4h1v0.5h0.5v-0.5h2.4v0.5h0.5v0.5h0.5v4.4h-1v-3.9h-0.5v-0.5H681v4.4h-1v-4.4h-0.5v0.5H679.1z"/>
	</g>
	<g>
		<path class="st3" d="M653.7,684v7.3h-2.4v-17.1h9.8v1.2h1.2v1.2h1.2v4.9h-1.2v1.2H661v1.2H653.7z M653.7,676.7v4.9h6.1v-1.2h1.2
			v-2.4h-1.2v-1.2H653.7z"/>
	</g>
	<g>
		<path d="M629.6,701.5v2.9h-1v-6.8h3.9v0.5h0.5v0.5h0.5v2H633v0.5h-0.5v0.5H629.6z M629.6,698.6v2h2.4v-0.5h0.5v-1H632v-0.5H629.6z
			"/>
		<path d="M635.4,701.5v2.9h-1v-6.8h1v2.4h0.5v-0.5h0.5v-0.5h1.5v0.5h0.5v0.5h0.5v0.5h0.5v3.9h-1V701h-0.5v-0.5h-0.5v-0.5h-0.5v0.5
			h-0.5v0.5h-0.5v0.5H635.4z"/>
		<path d="M641.3,704.5V704h-0.5v-0.5h-0.5v-3.4h0.5v-0.5h0.5v-0.5h2.9v0.5h0.5v0.5h0.5v3.4h-0.5v0.5h-0.5v0.5H641.3z M641.8,703.5
			h2V703h0.5v-2.4h-0.5v-0.5h-2v0.5h-0.5v2.4h0.5V703.5z"/>
		<path d="M646.7,703.5h-0.5v-1h1v0.5h0.5v0.5h2v-1h-1V702h-1v-0.5h-1V701h-0.5v-1h0.5v-0.5h0.5v-0.5h2.9v0.5h0.5v0.5h0.5v1h-1v-0.5
			h-0.5v-0.5h-2v1h1.5v0.5h1v0.5h0.5v0.5h0.5v1h-0.5v0.5h-0.5v0.5h-2.9V704h-0.5V703.5z"/>
		<path d="M653,702.5v2h-1v-5.9h1v0.5h0.5v-0.5h2.4v0.5h0.5v0.5h0.5v2.4h-0.5v0.5h-0.5v0.5h-2.4v-0.5H653z M655.9,700.1h-0.5v-0.5
			H654v0.5h-0.5v1.5h0.5v0.5h1.5v-0.5h0.5V700.1z"/>
		<path d="M658.9,701.5v2.9h-1v-6.8h1v2.4h0.5v-0.5h0.5v-0.5h1.5v0.5h0.5v0.5h0.5v0.5h0.5v3.9h-1V701h-0.5v-0.5h-0.5v-0.5h-0.5v0.5
			h-0.5v0.5h-0.5v0.5H658.9z"/>
		<path d="M664.7,704.5V704h-0.5v-0.5h-0.5v-3.4h0.5v-0.5h0.5v-0.5h2.9v0.5h0.5v0.5h0.5v3.4h-0.5v0.5h-0.5v0.5H664.7z M665.2,703.5
			h2V703h0.5v-2.4h-0.5v-0.5h-2v0.5h-0.5v2.4h0.5V703.5z"/>
		<path d="M670.6,701.5v2.9h-1v-5.4h1v1h0.5v-0.5h0.5v-0.5h2v0.5h0.5v0.5h0.5v1h-1v-0.5H673v-0.5h-1v0.5h-0.5v0.5h-0.5v0.5H670.6z"
			/>
		<path d="M675.5,699.1h1v3.9h0.5v0.5h2V703h0.5v-3.9h1v4.4h-0.5v0.5h-0.5v0.5h-2.9V704H676v-0.5h-0.5V699.1z"/>
		<path d="M681.8,703.5h-0.5v-1h1v0.5h0.5v0.5h2v-1h-1V702h-1v-0.5h-1V701h-0.5v-1h0.5v-0.5h0.5v-0.5h2.9v0.5h0.5v0.5h0.5v1h-1v-0.5
			h-0.5v-0.5h-2v1h1.5v0.5h1v0.5h0.5v0.5h0.5v1h-0.5v0.5h-0.5v0.5h-2.9V704h-0.5V703.5z"/>
	</g>
	<g>
		<path class="st3" d="M653.7,723.7v-1.2H644v-2.4h12.2v4.9H655v1.2h-1.2v1.2h-1.2v1.2h-1.2v1.2h-1.2v1.2h-1.2v1.2h-1.2v1.2h-1.2
			v1.2h9.8v2.4H644v-4.9h1.2v-1.2h1.2v-1.2h1.2v-1.2h1.2v-1.2h1.2v-1.2h1.2V725h1.2v-1.2H653.7z"/>
		<path class="st3" d="M661.1,727.4v9.8h-2.4v-13.4h2.4v1.2h1.2v-1.2h6.1v1.2h1.2v1.2h1.2v11h-2.4v-9.8h-1.2v-1.2h-4.9v1.2H661.1z"
			/>
	</g>
	<g>
		<path d="M650.4,744.9v-0.5h-3.9v-1h4.9v2h-0.5v0.5h-0.5v0.5h-0.5v0.5h-0.5v0.5H649v0.5h-0.5v0.5H648v0.5h-0.5v0.5h3.9v1h-4.9v-2
			h0.5v-0.5h0.5v-0.5h0.5v-0.5h0.5v-0.5h0.5v-0.5h0.5v-0.5h0.5v-0.5H650.4z"/>
		<path d="M655.8,749.3h0.5v1h-1v-0.5h-0.5v-0.5h-0.5v-2.4h-1v-1h2v2.9h0.5V749.3z M655.3,744v1h-1v-1H655.3z"/>
		<path d="M659.2,746.4v3.9h-1v-5.4h1v0.5h0.5v-0.5h2.4v0.5h0.5v0.5h0.5v4.4h-1v-3.9h-0.5v-0.5h-2v0.5H659.2z"/>
		<path d="M668,748.8v-0.5h1v1h-0.5v0.5H668v0.5h-2.9v-0.5h-0.5v-0.5h-0.5v-3.4h0.5v-0.5h0.5v-0.5h2.9v0.5h0.5v0.5h0.5v1h-1v-0.5
			h-0.5v-0.5h-2v0.5h-0.5v2.4h0.5v0.5h2v-0.5H668z"/>
	</g>
	<g>
		<path class="st3" d="M278.5,511.4v-17.1h9.8v1.2h1.2v1.2h1.2v4.9h-1.2v2.4h1.2v4.9h-1.2v1.2h-1.2v1.2H278.5z M281,501.7h6.1v-1.2
			h1.2V498h-1.2v-1.2H281V501.7z M281,509h6.1v-1.2h1.2v-2.4h-1.2v-1.2H281V509z"/>
		<path class="st4" d="M296.7,510.6h1.4v1.4H294v-1.4h1.4v-5.5H294v-1.4h0.7v-0.7h0.7v-0.7h1.4V510.6z"/>
	</g>
	<g>
		<path d="M270.6,518.8h-2v-1h4.9v1h-2v5.9h-1V518.8z"/>
		<path d="M275.5,521.7v2.9h-1v-6.8h1v2.4h0.5v-0.5h0.5v-0.5h1.5v0.5h0.5v0.5h0.5v0.5h0.5v3.9h-1v-3.4h-0.5v-0.5h-0.5v-0.5H277v0.5
			h-0.5v0.5H276v0.5H275.5z"/>
		<path d="M283.8,523.7h0.5v1h-1v-0.5h-0.5v-0.5h-0.5v-2.4h-1v-1h2v2.9h0.5V523.7z M283.3,518.3v1h-1v-1H283.3z"/>
		<path d="M287.2,524.7v-0.5h-0.5v-0.5h-0.5v-2h0.5v-0.5h0.5v-0.5h2.4v0.5h0.5v-1h-0.5v-0.5h-2.4v-1h2.9v0.5h0.5v0.5h0.5v4.9h-1
			v-0.5h-0.5v0.5H287.2z M287.7,523.7h2v-0.5h0.5v-1h-0.5v-0.5h-2v0.5h-0.5v1h0.5V523.7z"/>
		<path d="M293.1,520.8v3.9h-1v-5.4h1v0.5h0.5v-0.5h2.4v0.5h0.5v0.5h0.5v4.4h-1v-3.9h-0.5v-0.5H295v4.4h-1v-4.4h-0.5v0.5H293.1z"/>
		<path d="M301.4,523.7h0.5v1h-1v-0.5h-0.5v-0.5h-0.5v-2.4h-1v-1h2v2.9h0.5V523.7z M300.9,518.3v1h-1v-1H300.9z"/>
		<path d="M304.8,520.8v3.9h-1v-5.4h1v0.5h0.5v-0.5h2.4v0.5h0.5v0.5h0.5v4.4h-1v-3.9h-0.5v-0.5h-2v0.5H304.8z"/>
	</g>
	<line class="st2" x1="319.9" y1="486" x2="319.9" y2="754.2"/>
	<line class="st2" x1="391.7" y1="485.5" x2="391.7" y2="754"/>
	<line class="st2" x1="535.6" y1="485.3" x2="535.6" y2="753.5"/>
	<line class="st2" x1="464.1" y1="485.3" x2="464.1" y2="753.5"/>
	<g>
		<path class="st3" d="M277.9,601.5v-17.1h9.8v1.2h1.2v1.2h1.2v4.9h-1.2v2.4h1.2v4.9h-1.2v1.2h-1.2v1.2H277.9z M280.4,591.8h6.1
			v-1.2h1.2v-2.4h-1.2v-1.2h-6.1V591.8z M280.4,599.1h6.1v-1.2h1.2v-2.4h-1.2v-1.2h-6.1V599.1z"/>
		<path class="st4" d="M292.7,600.7H292v-1.4h1.4v0.7h0.7v0.7h2.7V600h0.7v-1.4h-0.7V598h-2.1v-1.4h2.1v-0.7h0.7v-1.4h-0.7v-0.7
			h-2.7v0.7h-0.7v0.7H292v-1.4h0.7v-0.7h0.7v-0.7h4.1v0.7h0.7v0.7h0.7v2.7h-0.7v1.4h0.7v2.7h-0.7v0.7h-0.7v0.7h-4.1v-0.7h-0.7V600.7
			z"/>
	</g>
	<g>
		<path d="M272,610.9v3.9h-1v-6.8h1v1.5h0.5v0.5h0.5v0.5h0.5v0.5h0.5v0.5h0.5v0.5h0.5v-3.9h1v6.8h-1v-1.5h-0.5v-0.5h-0.5v-0.5h-0.5
			v-0.5h-0.5v-0.5h-0.5v-0.5H272z"/>
		<path d="M280.3,613.8h0.5v1h-1v-0.5h-0.5v-0.5h-0.5v-2.4h-1v-1h2v2.9h0.5V613.8z M279.8,608.4v1h-1v-1H279.8z"/>
		<path d="M283.7,614.8v-0.5h-0.5v-0.5h-0.5v-2h0.5v-0.5h0.5v-0.5h2.4v0.5h0.5v-1h-0.5v-0.5h-2.4v-1h2.9v0.5h0.5v0.5h0.5v4.9h-1
			v-0.5h-0.5v0.5H283.7z M284.2,613.8h2v-0.5h0.5v-1h-0.5v-0.5h-2v0.5h-0.5v1h0.5V613.8z"/>
		<path d="M292.5,613.3v-0.5h1v1H293v0.5h-0.5v0.5h-2.9v-0.5h-0.5v-0.5h-0.5v-3.4h0.5v-0.5h0.5v-0.5h2.9v0.5h0.5v0.5h0.5v1h-1v-0.5
			H292v-0.5h-2v0.5h-0.5v2.4h0.5v0.5h2v-0.5H292.5z"/>
		<path d="M297.8,613.8h0.5v1h-1v-0.5h-0.5v-0.5h-0.5v-2.4h-1v-1h2v2.9h0.5V613.8z M297.4,608.4v1h-1v-1H297.4z"/>
		<path d="M301.3,610.9v3.9h-1v-5.4h1v0.5h0.5v-0.5h2.4v0.5h0.5v0.5h0.5v4.4h-1v-3.9h-0.5v-0.5h-2v0.5H301.3z"/>
	</g>
	<g>
		<path class="st3" d="M278,650.9v-17.1h9.8v1.2h1.2v1.2h1.2v4.9H289v2.4h1.2v4.9H289v1.2h-1.2v1.2H278z M280.5,641.2h6.1v-1.2h1.2
			v-2.4h-1.2v-1.2h-6.1V641.2z M280.5,648.5h6.1v-1.2h1.2v-2.4h-1.2v-1.2h-6.1V648.5z"/>
		<path class="st4" d="M297.6,650.8v0.7h-4.1v-0.7h-0.7v-0.7h-0.7v-6.8h0.7v-0.7h0.7v-0.7h4.1v0.7h0.7v0.7h0.7v1.4h-1.4v-0.7h-0.7
			v-0.7h-2.7v0.7h-0.7v2.1h4.1v0.7h0.7v0.7h0.7v2.7h-0.7v0.7H297.6z M294.2,650.1h2.7v-0.7h0.7V648h-0.7v-0.7h-3.4v2.1h0.7V650.1z"
			/>
	</g>
	<g>
		<path class="st3" d="M273.7,695.9v-17.1h9.8v1.2h1.2v1.2h1.2v4.9h-1.2v2.4h1.2v4.9h-1.2v1.2h-1.2v1.2H273.7z M276.2,686.2h6.1
			v-1.2h1.2v-2.4h-1.2v-1.2h-6.1V686.2z M276.2,693.5h6.1v-1.2h1.2v-2.4h-1.2v-1.2h-6.1V693.5z"/>
		<path class="st4" d="M291.9,695.1h1.4v1.4h-4.1v-1.4h1.4v-5.5h-1.4v-1.4h0.7v-0.7h0.7v-0.7h1.4V695.1z"/>
		<path class="st4" d="M297.4,695.1h5.5v1.4h-6.8v-4.1h0.7v-0.7h0.7V691h3.4v-0.7h0.7v-1.4h-0.7v-0.7h-2.7v0.7h-0.7v0.7h-1.4v-1.4
			h0.7v-0.7h0.7v-0.7h4.1v0.7h0.7v0.7h0.7v2.7h-0.7v0.7h-0.7v0.7h-3.4v0.7h-0.7V695.1z"/>
	</g>
	<g>
		<path class="st3" d="M294.3,724.1v2.4h-9.8v4.9h7.3v2.4h-7.3v4.9h9.8v2.4h-12.2v-17.1H294.3z"/>
	</g>
	<g>
		<path class="st3" d="M278.1,555.7v-17.1h9.8v1.2h1.2v1.2h1.2v4.9h-1.2v2.4h1.2v4.9h-1.2v1.2h-1.2v1.2H278.1z M280.5,546h6.1v-1.2
			h1.2v-2.4h-1.2v-1.2h-6.1V546z M280.5,553.3h6.1v-1.2h1.2v-2.4h-1.2v-1.2h-6.1V553.3z"/>
		<path class="st4" d="M293.6,554.9h5.5v1.4h-6.8v-4.1h0.7v-0.7h0.7v-0.7h3.4v-0.7h0.7v-1.4H297v-0.7h-2.7v0.7h-0.7v0.7h-1.4v-1.4
			h0.7v-0.7h0.7v-0.7h4.1v0.7h0.7v0.7h0.7v2.7h-0.7v0.7h-0.7v0.7h-3.4v0.7h-0.7V554.9z"/>
	</g>
	<g>
		<path d="M260.9,566h-0.5v2.9h-1v-6.8h3.9v0.5h0.5v0.5h0.5v2h-0.5v0.5h-0.5v0.5h-1v0.5h0.5v0.5h0.5v0.5h0.5v0.5h0.5v1h-1v-0.5h-0.5
			V568h-0.5v-0.5h-0.5V567h-0.5v-0.5h-0.5V566z M260.4,563.1v2h2.4v-0.5h0.5v-1h-0.5v-0.5H260.4z"/>
		<path d="M268.7,568h0.5v1h-1v-0.5h-0.5V568h-0.5v-2.4h-1v-1h2v2.9h0.5V568z M268.2,562.6v1h-1v-1H268.2z"/>
		<path d="M272.2,568v1h-1v-6.8h1v2.4h0.5v-0.5h0.5v-0.5h1.5v0.5h0.5v0.5h0.5v0.5h0.5v2.4h-0.5v0.5h-0.5v0.5h-0.5v0.5h-1.5v-0.5
			h-0.5V568H272.2z M273.6,568h0.5v-0.5h0.5V567h0.5v-1.5h-0.5v-0.5h-0.5v-0.5h-0.5v0.5h-0.5v0.5h-0.5v1.5h0.5v0.5h0.5V568z"/>
		<path d="M278,569v-0.5h-0.5V568H277v-3.4h0.5v-0.5h0.5v-0.5h2.9v0.5h0.5v0.5h0.5v3.4h-0.5v0.5h-0.5v0.5H278z M278.5,568h2v-0.5
			h0.5v-2.4h-0.5v-0.5h-2v0.5H278v2.4h0.5V568z"/>
		<path d="M285.8,569h-1v-4.4h-1.5v-1h1.5v-1h0.5v-0.5h2v1h-1.5v0.5h1.5v1h-1.5V569z"/>
		<path d="M291.7,562.1v6.8h-1v-6.8H291.7z"/>
		<path d="M295.6,569v-0.5h-0.5V568h-0.5v-2h0.5v-0.5h0.5v-0.5h2.4v0.5h0.5v-1H298v-0.5h-2.4v-1h2.9v0.5h0.5v0.5h0.5v4.9h-1v-0.5
			H298v0.5H295.6z M296.1,568h2v-0.5h0.5v-1H298V566h-2v0.5h-0.5v1h0.5V568z"/>
		<path d="M300.5,563.6h1v2.9h0.5v0.5h0.5v0.5h1V567h0.5v-0.5h0.5v-2.9h1v3.4h-0.5v0.5h-0.5v0.5h-0.5v0.5h-0.5v0.5h-1v-0.5h-0.5V568
			h-0.5v-0.5H301V567h-0.5V563.6z"/>
		<path d="M309.8,568h0.5v1h-1v-0.5h-0.5V568h-0.5v-2.4h-1v-1h2v2.9h0.5V568z M309.3,562.6v1h-1v-1H309.3z"/>
		<path d="M313.2,565.1v3.9h-1v-5.4h1v0.5h0.5v-0.5h2.4v0.5h0.5v0.5h0.5v4.4h-1v-3.9h-0.5v-0.5h-2v0.5H313.2z"/>
	</g>
	<g>
		<path class="st3" d="M214.5,752.2v1.1h-10.7v-2.1h9.7v-1.1h1.1V749h1.1v-2.1h-1.1v-1.1h-1.1v-1.1h-9.7v-2.1h10.7v1.1h1.1v1.1h1.1
			v1.1h1.1v1.1h1.1v2.1h-1.1v1.1h-1.1v1.1h-1.1v1.1H214.5z"/>
		<path class="st3" d="M218.8,737.5h-2.1v-2.1h-10.7v2.1h-2.1v-6.4h2.1v2.1h10.7v-2.1h2.1V737.5z"/>
		<path class="st3" d="M205.9,721.7v4.3h-2.1v-10.7h2.1v4.3h12.9v2.1H205.9z"/>
		<path class="st3" d="M218.8,710.2v2.1H208v-1.1H207v-1.1h-1.1v-1.1h-1.1V708h-1.1v-2.1h1.1v-1.1h1.1v-1.1h1.1v-1.1h1.1v-1.1h10.7
			v2.1h-4.3v6.4H218.8z M212.3,710.2v-6.4h-3.2v1.1H208v1.1H207v2.1h1.1v1.1h1.1v1.1H212.3z"/>
		<path class="st3" d="M218.8,696.5v2.1h-15v-2.1h2.1v-1.1h1.1v-1.1h1.1v-2.1H207v-1.1h-1.1v-1.1h-2.1v-2.1h15v2.1h-9.7v1.1h1.1v1.1
			h2.1v2.1h-2.1v1.1h-1.1v1.1H218.8z"/>
		<path class="st3" d="M218.8,682.9h-2.1v-2.1h-10.7v2.1h-2.1v-6.4h2.1v2.1h10.7v-2.1h2.1V682.9z"/>
		<path class="st3" d="M210.2,669.2h8.6v2.1h-15v-2.1h3.2v-1.1h1.1v-1.1h1.1V666h1.1v-1.1h1.1v-1.1h1.1v-1.1h-8.6v-2.1h15v2.1h-3.2
			v1.1h-1.1v1.1h-1.1v1.1h-1.1v1.1h-1.1v1.1h-1.1V669.2z"/>
		<path class="st3" d="M205.9,648V647h2.1v2.1H207v1.1h-1.1v4.3h1.1v1.1h2.1v-1.1h1.1v-5.4h1.1V648h1.1V647h4.3v1.1h1.1v1.1h1.1v6.4
			h-1.1v1.1h-1.1v1.1h-2.1v-2.1h1.1v-1.1h1.1v-4.3h-1.1v-1.1h-2.1v1.1h-1.1v5.4h-1.1v1.1h-1.1v1.1h-4.3v-1.1h-1.1v-1.1h-1.1v-6.4
			h1.1V648H205.9z"/>
		<path class="st3" d="M212.3,623.9v-1.1h1.1v-1.1h-1.1v-2.1h2.1v1.1h2.1v-1.1h2.1v2.1h-1.1v1.1h1.1v5.4h-1.1v1.1h-1.1v1.1h-5.4
			v-1.1h-1.1v-1.1H208v1.1h-4.3v-1.1h-1.1v-1.1h-1.1v-3.2h1.1v-1.1h1.1v-1.1h4.3v1.1h2.1v1.1H212.3z M203.7,623.9v3.2h4.3v-1.1h1.1
			V625H208v-1.1H203.7z M214.5,623.9v1.1h-1.1v1.1h-1.1v2.1h3.2v-1.1h1.1v-3.2H214.5z"/>
		<path class="st3" d="M218.8,600.9v2.1h-15v-2.1h2.1v-1.1h1.1v-1.1h1.1v-2.1H207v-1.1h-1.1v-1.1h-2.1v-2.1h15v2.1h-9.7v1.1h1.1v1.1
			h2.1v2.1h-2.1v1.1h-1.1v1.1H218.8z"/>
		<path class="st3" d="M218.8,587.2h-2.1v-2.1h-10.7v2.1h-2.1v-6.4h2.1v2.1h10.7v-2.1h2.1V587.2z"/>
		<path class="st3" d="M210.2,573.6h8.6v2.1h-15v-2.1h3.2v-1.1h1.1v-1.1h1.1v-1.1h1.1v-1.1h1.1v-1.1h1.1v-1.1h-8.6V565h15v2.1h-3.2
			v1.1h-1.1v1.1h-1.1v1.1h-1.1v1.1h-1.1v1.1h-1.1V573.6z"/>
		<path class="st3" d="M203.7,551.3h2.1v8.6h4.3v-6.4h2.1v6.4h4.3v-8.6h2.1v10.7h-15V551.3z"/>
		<path class="st3" d="M212.3,545.2v1.1h6.4v2.1h-15v-8.6h1.1v-1.1h1.1v-1.1h4.3v1.1h1.1v1.1h1.1v2.1h1.1v-1.1h1.1v-1.1h1.1v-1.1
			h1.1v-1.1h2.1v2.1h-1.1v1.1h-1.1v1.1h-1.1v1.1h-1.1v1.1h-1.1v1.1H212.3z M205.9,546.3h4.3v-5.4h-1.1v-1.1H207v1.1h-1.1V546.3z"/>
		<path class="st3" d="M218.8,532.6v2.1H208v-1.1H207v-1.1h-1.1v-1.1h-1.1v-1.1h-1.1v-2.1h1.1v-1.1h1.1v-1.1h1.1v-1.1h1.1V524h10.7
			v2.1h-4.3v6.4H218.8z M212.3,532.6v-6.4h-3.2v1.1H208v1.1H207v2.1h1.1v1.1h1.1v1.1H212.3z"/>
		<path class="st3" d="M218.8,521.1h-15v-2.1h12.9v-8.6h2.1V521.1z"/>
		<path class="st3" d="M205.9,497.8v-1.1h2.1v2.1H207v1.1h-1.1v4.3h1.1v1.1h2.1v-1.1h1.1v-5.4h1.1v-1.1h1.1v-1.1h4.3v1.1h1.1v1.1
			h1.1v6.4h-1.1v1.1h-1.1v1.1h-2.1v-2.1h1.1v-1.1h1.1v-4.3h-1.1v-1.1h-2.1v1.1h-1.1v5.4h-1.1v1.1h-1.1v1.1h-4.3v-1.1h-1.1v-1.1h-1.1
			v-6.4h1.1v-1.1H205.9z"/>
	</g>
	<polygon class="st12" points="391.8,125.5 391.8,116.5 382.8,116.5 373.8,116.5 364.8,116.5 364.8,125.5 355.8,125.5 355.8,134.5 
		355.8,143.5 355.8,152.5 364.8,152.5 364.8,161.5 373.8,161.5 382.8,161.5 391.8,161.5 391.8,152.5 400.8,152.5 400.8,143.5 
		400.8,134.5 400.8,125.5 	"/>
	<g>
		<path class="st13" d="M300.6,76.3h24.6v6.2h-30.8V64h3.1v-3.1h3.1v-3.1H316v-3.1h3.1v-6.2H316v-3.1h-12.3v3.1h-3.1v3.1h-6.2v-6.2
			h3.1v-3.1h3.1v-3.1h18.5v3.1h3.1v3.1h3.1v12.3h-3.1v3.1h-3.1V64h-15.4v3.1h-3.1V76.3z"/>
		<path class="st13" d="M349.8,42.5v-3.1h6.2V64h6.2v6.2H356v12.3h-6.2V70.2h-18.5V57.9h3.1v-3.1h3.1v-3.1h3.1v-3.1h3.1v-3.1h3.1
			v-3.1H349.8z M349.8,64V51.7h-3.1v3.1h-3.1v3.1h-3.1v3.1h-3.1V64H349.8z"/>
		<path class="st13" d="M371.4,76.3h-3.1v-6.2h6.2v3.1h3.1v3.1h12.3v-3.1h3.1v-6.2h-3.1V64h-9.2v-6.2h9.2v-3.1h3.1v-6.2h-3.1v-3.1
			h-12.3v3.1h-3.1v3.1h-6.2v-6.2h3.1v-3.1h3.1v-3.1h18.5v3.1h3.1v3.1h3.1v12.3H396V64h3.1v12.3H396v3.1h-3.1v3.1h-18.5v-3.1h-3.1
			V76.3z"/>
	</g>
	<g>
		<path class="st13" d="M334.1,426.1v-2.2h13.5v2.2h2.2v2.2h2.2v22.5h-2.2v2.2h-2.2v2.2h-13.5V453h-2.2v-2.2h-2.2v-22.5h2.2v-2.2
			H334.1z M336.3,441.8v-2.2h2.2v-2.2h2.2v-2.2h2.2v-2.2h4.5v-2.2h-2.2v-2.2h-9v2.2h-2.2v11.2H336.3z M334.1,446.3v2.2h2.2v2.2h9
			v-2.2h2.2v-11.2h-2.2v2.2h-2.2v2.2h-2.2v2.2h-2.2v2.2H334.1z"/>
		<path class="st13" d="M365.5,442.9h1.1v2.2h-2.2V444h-1.1v-1.1h-4.5v1.1h-1.1v9h1.1v1.1h4.5V453h1.1v-3.4H361v-2.2h5.6v6.7h-1.1
			v1.1h-1.1v1.1h-6.7v-1.1h-1.1v-1.1h-1.1v-11.2h1.1v-1.1h1.1v-1.1h6.7v1.1h1.1V442.9z"/>
	</g>
	<polygon class="st12" points="400.8,197.5 400.8,188.5 391.8,188.5 382.8,188.5 373.8,188.5 373.8,197.5 364.8,197.5 364.8,206.5 
		364.8,215.5 364.8,224.5 373.8,224.5 373.8,233.5 382.8,233.5 391.8,233.5 400.8,233.5 400.8,224.5 409.8,224.5 409.8,215.5 
		409.8,206.5 409.8,197.5 	"/>
	<polygon class="st12" points="328.8,269.5 328.8,260.5 319.8,260.5 310.8,260.5 301.8,260.5 301.8,269.5 292.8,269.5 292.8,278.5 
		292.8,287.5 292.8,296.5 301.8,296.5 301.8,305.5 310.8,305.5 319.8,305.5 328.8,305.5 328.8,296.5 337.8,296.5 337.8,287.5 
		337.8,278.5 337.8,269.5 	"/>
	<polygon class="st12" points="706.9,340.8 706.9,331.8 697.9,331.8 688.9,331.8 679.9,331.8 679.9,340.8 670.9,340.8 670.9,349.8 
		670.9,358.8 670.9,367.8 679.9,367.8 679.9,376.8 688.9,376.8 697.9,376.8 706.9,376.8 706.9,367.8 715.9,367.8 715.9,358.8 
		715.9,349.8 715.9,340.8 	"/>
	<rect x="751.8" y="485.5" class="st12" width="18" height="18"/>
	<rect x="742.8" y="530.5" class="st12" width="18" height="18"/>
	<path class="st12" d="M688.8,575.5v18h18v-18H688.8z M702.2,589h-9v-9h9V589z"/>
	<rect x="796.8" y="620.5" class="st12" width="18" height="18"/>
	<rect x="850.8" y="665.5" class="st12" width="18" height="18"/>
	<rect x="742.8" y="711.1" class="st12" width="18" height="17.4"/>
	<rect x="391.8" y="575.5" class="st12" width="18" height="18"/>
	<rect x="391.8" y="485.5" class="st12" width="18" height="18"/>
	<rect x="337.8" y="530.5" class="st12" width="18" height="18"/>
	<rect x="319.8" y="710.5" class="st12" width="18" height="18"/>
	<path class="st12" d="M319.8,620.5v18h18v-18H319.8z M333.2,634h-9v-9h9V634z"/>
	<path class="st12" d="M319.8,665.5v18h18v-18H319.8z M333.2,679h-9v-9h9V679z"/>
	<line class="st14" x1="256.3" y1="188.7" x2="976.3" y2="188.7"/>
	<line class="st14" x1="256.1" y1="259.6" x2="976.1" y2="259.6"/>
	<line class="st14" x1="256.1" y1="332.1" x2="976.1" y2="332.1"/>
	<path class="st14" d="M976.3,26.5H256.8c0,0,0,63.6,0,72h719.6V26.5z"/>
	<polygon class="st14" points="256.2,117 257.2,404 976.3,405 976.3,116 	"/>
	<polygon class="st14" points="976.3,413.7 257.2,414 257.2,468 976.4,467.9 	"/>
	<line class="st14" x1="625.8" y1="531.1" x2="976.6" y2="530.8"/>
	<line class="st14" x1="625.9" y1="575.3" x2="976.7" y2="575"/>
	<line class="st14" x1="626.1" y1="620.3" x2="976.9" y2="620"/>
	<line class="st14" x1="626.1" y1="665.5" x2="977" y2="665.2"/>
	<line class="st14" x1="626.2" y1="711" x2="977" y2="710.7"/>
	<rect x="625.2" y="486" class="st14" width="352" height="270"/>
	<line class="st14" x1="256.3" y1="531" x2="607.3" y2="530.8"/>
	<line class="st14" x1="256.4" y1="575.2" x2="607.5" y2="574.9"/>
	<line class="st14" x1="256.6" y1="620.2" x2="607.7" y2="619.9"/>
	<line class="st14" x1="256.7" y1="665.4" x2="607.7" y2="665.1"/>
	<line class="st14" x1="256.7" y1="710.9" x2="607.8" y2="710.7"/>
	<rect x="256.9" y="485.9" class="st14" width="350.3" height="270"/>
</g>
</svg>
