<?xml version="1.0" encoding="utf-8"?>
<!-- Generator: Adobe Illustrator 25.2.3, SVG Export Plug-In . SVG Version: 6.00 Build 0)  -->
<svg version="1.1" xmlns="http://www.w3.org/2000/svg" xmlns:xlink="http://www.w3.org/1999/xlink" x="0px" y="0px"
	 viewBox="0 0 1108 791" style="enable-background:new 0 0 1108 791;" xml:space="preserve">
<style type="text/css">
	.st0{opacity:0.15;}
	.st1{opacity:0.15;fill:#BEBFB9;}
	.st2{fill:none;stroke:#E1E1DF;stroke-miterlimit:10;}
	.st3{fill:#03464F;}
	.st4{fill:#026385;}
	.st5{fill:#018F9F;}
	.st6{fill:#35BCC0;}
	.st7{fill:none;stroke:#606161;stroke-miterlimit:10;}
	.st8{fill:none;}
	.st9{stroke:#000000;stroke-miterlimit:10;}
	.st10{font-family:'VCROSDMono';}
	.st11{font-size:22px;}
	.st12{font-size:25px;}
	.st13{font-size:10px;}
	.st14{stroke:#000000;stroke-width:0.5;stroke-miterlimit:10;}
	.st15{font-size:14px;}
	.st16{fill:#03464F;stroke:#03464F;stroke-width:0.5;stroke-miterlimit:10;}
	.st17{font-size:63px;}
	.st18{font-size:46px;}
	.st19{font-size:19px;}
	.st20{font-size:23px;}
</style>
<g id="layout">
</g>
<g id="GUIDES">
</g>
<g id="PEANUTS">
</g>
<g id="SUNFLOWER_copy">
</g>
<g id="ALMONDS">
</g>
<g id="CHIA">
</g>
<g id="top_lines">
	<g>
		<line class="st2" x1="436.5" y1="414.1" x2="436.5" y2="467.6"/>
		<line class="st2" x1="617" y1="414.1" x2="617" y2="467.6"/>
		<line class="st2" x1="797" y1="414.1" x2="797" y2="467.6"/>
		<line class="st2" x1="436.8" y1="26.6" x2="436.8" y2="98.6"/>
		<line class="st2" x1="617.2" y1="26.6" x2="617.2" y2="98.6"/>
		<line class="st2" x1="797.2" y1="26.6" x2="797.2" y2="98.6"/>
		<line class="st2" x1="436.8" y1="116.4" x2="436.8" y2="404.2"/>
		<line class="st2" x1="616.8" y1="116.6" x2="616.8" y2="404.4"/>
		<line class="st2" x1="616.3" y1="117.2" x2="616.3" y2="405.1"/>
		<line class="st2" x1="797.1" y1="116.6" x2="797.1" y2="404.4"/>
		<rect x="131.1" y="116.6" class="st8" width="107.7" height="72"/>
		<text transform="matrix(1 0 0 1 148.5156 160.6708)" class="st9 st10 st11">PROTEIN</text>
		<rect x="131.3" y="188.3" class="st8" width="107.5" height="72"/>
		<text transform="matrix(1 0 0 1 200.0776 232.3306)" class="st9 st10 st11">FAT</text>
		<rect x="131.3" y="260.3" class="st8" width="107.5" height="72"/>
		<text transform="matrix(1 0 0 1 174.2969 304.3306)" class="st9 st10 st11">CARBS</text>
		<rect x="130.8" y="332.2" class="st8" width="107.5" height="72"/>
		<text transform="matrix(1 0 0 1 173.7939 376.2854)" class="st9 st10 st11">FIBER</text>
		<rect x="130.8" y="413.6" class="st8" width="107.5" height="53.6"/>
		<text transform="matrix(1 0 0 1 173.793 448.4783)" class="st9 st10 st11">SUGAR</text>
		<rect x="130.8" y="26.6" class="st8" width="108" height="72"/>
		<text transform="matrix(1 0 0 1 135.625 70.6707)" class="st9 st10 st11">CALORIES</text>
		<rect x="626.1" y="485.6" class="st8" width="62.7" height="36"/>
		<text transform="matrix(1 0 0 1 642.8115 512.7689)" class="st9 st10 st12">Ca</text>
		<rect x="626.1" y="512.6" class="st8" width="62.6" height="18"/>
		<text transform="matrix(1 0 0 1 636.9116 525.2792)" class="st10 st13">Calcium</text>
		<line class="st2" x1="688.6" y1="486.3" x2="688.6" y2="754.3"/>
		<line class="st2" x1="761.4" y1="485.8" x2="761.4" y2="754.1"/>
		<line class="st2" x1="904.3" y1="487.6" x2="904.3" y2="755.6"/>
		<line class="st2" x1="832.9" y1="487.6" x2="832.9" y2="755.6"/>
		<rect x="626.1" y="531" class="st8" width="62.7" height="36"/>
		<text transform="matrix(1 0 0 1 642.8252 558.1385)" class="st9 st10 st12">Fe</text>
		<rect x="626.1" y="558" class="st8" width="62.6" height="18"/>
		<text transform="matrix(1 0 0 1 645.7163 570.6489)" class="st10 st13">Iron</text>
		<rect x="625.8" y="575.7" class="st8" width="62.7" height="36"/>
		<text transform="matrix(1 0 0 1 642.4287 602.8544)" class="st9 st10 st12">Na</text>
		<rect x="625.8" y="602.7" class="st8" width="62.6" height="18"/>
		<text transform="matrix(1 0 0 1 639.459 615.3643)" class="st10 st13">Sodium</text>
		<rect x="625.8" y="620.9" class="st8" width="62.7" height="36"/>
		<text transform="matrix(1 0 0 1 642.5049 648.077)" class="st9 st10 st12">Mg</text>
		<rect x="625.8" y="647.9" class="st8" width="62.6" height="18"/>
		<text transform="matrix(1 0 0 1 630.7461 660.5873)" class="st10 st13">Magnesium</text>
		<rect x="626.1" y="665.4" class="st8" width="62.7" height="36.2"/>
		<text transform="matrix(1 0 0 1 650.0576 692.6621)" class="st9 st10 st12">P</text>
		<rect x="626.1" y="692.4" class="st8" width="62.7" height="18"/>
		<text transform="matrix(1 0 0 1 628.105 705.0656)" class="st10 st13">Phosphorus</text>
		<rect x="625.8" y="711.2" class="st8" width="63.3" height="36.2"/>
		<text transform="matrix(1 0 0 1 642.7461 738.5046)" class="st9 st10 st12">Zn</text>
		<rect x="626.4" y="738.2" class="st8" width="62.8" height="18"/>
		<text transform="matrix(1 0 0 1 646.0391 750.9086)" class="st10 st13">Zinc</text>
		<rect x="257.4" y="485.6" class="st8" width="62.7" height="36"/>
		<text transform="matrix(1 0 0 1 277.2979 512.7687)"><tspan x="0" y="0" class="st9 st10 st12">B</tspan><tspan x="14.6" y="0" class="st14 st10 st15">1</tspan></text>
		<rect x="257.4" y="512.6" class="st8" width="62.6" height="18"/>
		<text transform="matrix(1 0 0 1 268.1753 525.2791)" class="st10 st13">Thiamin</text>
		<line class="st2" x1="319.9" y1="486.1" x2="319.9" y2="754.3"/>
		<line class="st2" x1="391.7" y1="485.6" x2="391.7" y2="754.1"/>
		<line class="st2" x1="535.6" y1="485.4" x2="535.6" y2="753.6"/>
		<line class="st2" x1="464.1" y1="485.4" x2="464.1" y2="753.6"/>
		<rect x="256.8" y="575.7" class="st8" width="62.7" height="36"/>
		<text transform="matrix(1 0 0 1 276.6909 602.8655)"><tspan x="0" y="0" class="st9 st10 st12">B</tspan><tspan x="14.6" y="0" class="st14 st10 st15">3</tspan></text>
		<rect x="256.8" y="602.7" class="st8" width="62.6" height="18"/>
		<text transform="matrix(1 0 0 1 270.498 615.3759)" class="st10 st13">Niacin</text>
		<rect x="256.9" y="620.6" class="st8" width="62.7" height="45"/>
		<text transform="matrix(1 0 0 1 276.8267 652.2584)"><tspan x="0" y="0" class="st9 st10 st12">B</tspan><tspan x="14.6" y="0" class="st14 st10 st15">6</tspan></text>
		<rect x="256.7" y="665.6" class="st8" width="62.7" height="45"/>
		<text transform="matrix(1 0 0 1 272.5166 697.2686)"><tspan x="0" y="0" class="st9 st10 st12">B</tspan><tspan x="14.6" y="0" class="st14 st10 st15">12</tspan></text>
		<rect x="256.8" y="710.8" class="st8" width="62.7" height="45"/>
		<text transform="matrix(1 0 0 1 280.8647 742.4996)" class="st9 st10 st12">E</text>
		<rect x="257" y="529.9" class="st8" width="62.7" height="36"/>
		<text transform="matrix(1 0 0 1 276.8813 557.0588)"><tspan x="0" y="0" class="st9 st10 st12">B</tspan><tspan x="14.6" y="0" class="st14 st10 st15">2</tspan></text>
		<rect x="257" y="556.9" class="st8" width="62.6" height="18"/>
		<text transform="matrix(1 0 0 1 258.9697 569.5692)" class="st10 st13">Riboflavin</text>
		<rect x="175.8" y="485.6" class="st8" width="71.9" height="279"/>
		<text transform="matrix(4.489659e-11 -1 1 4.489659e-11 219.8413 754.5117)" class="st9 st10 st11">VITAMINS &amp; MINERALS</text>
		<polygon class="st3" points="445.8,152.6 445.8,143.6 436.8,143.6 427.8,143.6 418.8,143.6 418.8,152.6 409.8,152.6 409.8,161.6 
			409.8,170.6 409.8,179.6 418.8,179.6 418.8,188.6 427.8,188.6 436.8,188.6 445.8,188.6 445.8,179.6 454.8,179.6 454.8,170.6 
			454.8,161.6 454.8,152.6 		"/>
		<polygon class="st3" points="499.8,224.6 499.8,215.6 490.8,215.6 481.8,215.6 472.8,215.6 472.8,224.6 463.8,224.6 463.8,233.6 
			463.8,242.6 463.8,251.6 472.8,251.6 472.8,260.6 481.8,260.6 490.8,260.6 499.8,260.6 499.8,251.6 508.8,251.6 508.8,242.6 
			508.8,233.6 508.8,224.6 		"/>
		<polygon class="st3" points="292.8,296.6 292.8,287.6 283.8,287.6 274.8,287.6 265.8,287.6 265.8,296.6 256.8,296.6 256.8,305.6 
			256.8,314.6 256.8,323.6 265.8,323.6 265.8,332.6 274.8,332.6 283.8,332.6 292.8,332.6 292.8,323.6 301.8,323.6 301.8,314.6 
			301.8,305.6 301.8,296.6 		"/>
		<polygon class="st3" points="382.8,368.6 382.8,359.6 373.8,359.6 364.8,359.6 355.8,359.6 355.8,368.6 346.8,368.6 346.8,377.6 
			346.8,386.6 346.8,395.6 355.8,395.6 355.8,404.6 364.8,404.6 373.8,404.6 382.8,404.6 382.8,395.6 391.8,395.6 391.8,386.6 
			391.8,377.6 391.8,368.6 		"/>
		<rect x="796.8" y="26.4" class="st8" width="180" height="72"/>
		<text transform="matrix(1 0 0 1 831.3569 85.4384)" class="st16 st10 st17">294</text>
		<rect x="796.4" y="414.3" class="st8" width="180" height="53.6"/>
		<text transform="matrix(1 0 0 1 847.1465 457.9336)"><tspan x="0" y="0" class="st16 st10 st18">2</tspan><tspan x="27" y="0" class="st16 st10 st19"> </tspan><tspan x="38.1" y="0" class="st16 st10 st18">5</tspan><tspan x="65" y="0" class="st16 st10 st20">G</tspan></text>
		<rect x="859.8" y="413.8" class="st8" width="44.3" height="54"/>
		<text transform="matrix(1 0 0 1 868.5005 457.6565)" class="st16 st10 st18">.</text>
		<rect x="346.8" y="737.6" class="st3" width="18" height="18"/>
		<path class="st3" d="M320,692.6v18h18v-18H320z M333.5,706.1h-9v-9h9V706.1z"/>
		<rect x="364.8" y="647.6" class="st3" width="18" height="18"/>
		<rect x="445.8" y="602.6" class="st3" width="18" height="18"/>
		<rect x="337.8" y="557.6" class="st3" width="18" height="18"/>
		<rect x="328.8" y="512.6" class="st3" width="18" height="18"/>
		<rect x="688.8" y="512.6" class="st3" width="18" height="18"/>
		<rect x="688.8" y="557.6" class="st3" width="18" height="18"/>
		<rect x="706.8" y="602.6" class="st3" width="18" height="18"/>
		<rect x="742.8" y="647.6" class="st3" width="18" height="18"/>
		<rect x="751.8" y="692.6" class="st3" width="18" height="18"/>
		<rect x="715.8" y="737.6" class="st3" width="18" height="18"/>
		<line class="st7" x1="256.3" y1="188.8" x2="976.3" y2="188.8"/>
		<line class="st7" x1="256.1" y1="259.7" x2="976.1" y2="259.7"/>
		<line class="st7" x1="256.1" y1="332.2" x2="976.1" y2="332.2"/>
		<path class="st7" d="M976.3,26.6H256.8c0,0,0,63.6,0,72h719.6V26.6z"/>
		<polygon class="st7" points="256.2,117.1 257.2,404.1 976.3,405.1 976.3,116.1 		"/>
		<polygon class="st7" points="976.3,413.8 257.2,414.1 257.2,468.1 976.4,468 		"/>
		<line class="st7" x1="625.8" y1="531.2" x2="976.6" y2="531"/>
		<line class="st7" x1="625.9" y1="575.4" x2="976.7" y2="575.1"/>
		<line class="st7" x1="626.1" y1="620.4" x2="976.9" y2="620.1"/>
		<line class="st7" x1="626.1" y1="665.6" x2="977" y2="665.3"/>
		<line class="st7" x1="626.2" y1="711.1" x2="977" y2="710.9"/>
		<rect x="625.2" y="486.1" class="st7" width="352" height="270"/>
		<line class="st7" x1="256.3" y1="531.2" x2="607.3" y2="530.9"/>
		<line class="st7" x1="256.4" y1="575.3" x2="607.5" y2="575.1"/>
		<line class="st7" x1="256.6" y1="620.3" x2="607.7" y2="620"/>
		<line class="st7" x1="256.7" y1="665.5" x2="607.7" y2="665.2"/>
		<line class="st7" x1="256.7" y1="711.1" x2="607.8" y2="710.8"/>
		<rect x="256.9" y="486" class="st7" width="350.3" height="270"/>
	</g>
</g>
</svg>
