<?xml version="1.0" encoding="utf-8"?>
<!-- Generator: Adobe Illustrator 25.2.3, SVG Export Plug-In . SVG Version: 6.00 Build 0)  -->
<svg version="1.1" xmlns="http://www.w3.org/2000/svg" xmlns:xlink="http://www.w3.org/1999/xlink" x="0px" y="0px"
	 viewBox="0 0 1108 791" style="enable-background:new 0 0 1108 791;" xml:space="preserve">
<style type="text/css">
	.st0{opacity:0.15;}
	.st1{opacity:0.15;fill:#BEBFB9;}
	.st2{fill:none;}
	.st3{font-family:'VCROSDMono';}
	.st4{font-size:10px;}
	.st5{fill:none;stroke:#E1E1DF;stroke-miterlimit:10;}
	.st6{stroke:#000000;stroke-miterlimit:10;}
	.st7{font-size:22px;}
	.st8{font-size:25px;}
	.st9{stroke:#000000;stroke-width:0.5;stroke-miterlimit:10;}
	.st10{font-size:14px;}
	.st11{fill:#03464F;}
	.st12{fill:#03464F;stroke:#03464F;stroke-width:0.5;stroke-miterlimit:10;}
	.st13{font-size:63px;}
	.st14{font-size:46px;}
	.st15{font-size:19px;}
	.st16{font-size:23px;}
	.st17{fill:#026385;stroke:#026385;stroke-width:0.5;stroke-miterlimit:10;}
	.st18{fill:#036C84;stroke:#026385;stroke-width:0.5;stroke-miterlimit:10;}
	.st19{fill:#026385;}
	.st20{fill:#018F9F;stroke:#018F9F;stroke-width:0.5;stroke-miterlimit:10;}
	.st21{fill:#018F9F;}
	.st22{fill:#35BCC0;}
	.st23{fill:#35BCC0;stroke:#35BCC0;stroke-width:0.5;stroke-miterlimit:10;}
	.st24{fill:none;stroke:#606161;stroke-miterlimit:10;}
</style>
<g id="layout">
	<rect x="225" y="30" class="st0" width="180" height="72"/>
	<rect x="405" y="30" class="st1" width="180" height="72"/>
	<rect x="585" y="30" class="st0" width="180" height="72"/>
	<rect x="765" y="30" class="st1" width="180" height="72"/>
	<rect x="188.9" y="101.8" class="st2" width="72" height="18.2"/>
	<text transform="matrix(1 0 0 1 222.0146 114.5467)" class="st3 st4">0</text>
	<rect x="288" y="101.8" class="st2" width="18" height="18.2"/>
	<text transform="matrix(1 0 0 1 291.1406 114.5466)" class="st3 st4">10</text>
	<rect x="360" y="101.8" class="st2" width="18" height="18.2"/>
	<text transform="matrix(1 0 0 1 363.1406 114.5298)" class="st3 st4">20</text>
	<rect x="297" y="101.8" class="st2" width="72" height="18.2"/>
	<text transform="matrix(1 0 0 1 327.1406 114.5297)" class="st3 st4">15</text>
	<rect x="225" y="101.8" class="st2" width="72" height="18.2"/>
	<text transform="matrix(1 0 0 1 258.0703 114.53)" class="st3 st4">5</text>
	<rect x="431.9" y="102" class="st2" width="18" height="18.2"/>
	<text transform="matrix(1 0 0 1 435.0137 114.7391)" class="st3 st4">30</text>
	<text transform="matrix(1 0 0 1 399.0137 116.5685)" class="st3 st4">25</text>
	<rect x="503.2" y="102" class="st2" width="18" height="18.2"/>
	<text transform="matrix(1 0 0 1 506.333 114.787)" class="st3 st4">40</text>
	<rect x="575.2" y="102" class="st2" width="18" height="18.2"/>
	<text transform="matrix(1 0 0 1 578.333 114.7703)" class="st3 st4">50</text>
	<rect x="512.2" y="102" class="st2" width="72" height="18.2"/>
	<text transform="matrix(1 0 0 1 542.333 114.7701)" class="st3 st4">45</text>
	<rect x="440.2" y="102" class="st2" width="72" height="18.2"/>
	<text transform="matrix(1 0 0 1 470.333 114.7704)" class="st3 st4">35</text>
	<rect x="648.5" y="102.5" class="st2" width="18" height="18.2"/>
	<text transform="matrix(1 0 0 1 651.6421 115.2237)" class="st3 st4">60</text>
	<rect x="720.5" y="102.4" class="st2" width="18" height="18.2"/>
	<text transform="matrix(1 0 0 1 723.6421 115.2069)" class="st3 st4">70</text>
	<rect x="657.5" y="102.4" class="st2" width="72" height="18.2"/>
	<text transform="matrix(1 0 0 1 687.6421 115.2067)" class="st3 st4">65</text>
	<rect x="585.5" y="102.4" class="st2" width="72" height="18.2"/>
	<text transform="matrix(1 0 0 1 615.6421 115.207)" class="st3 st4">55</text>
	<rect x="792.4" y="102.6" class="st2" width="18" height="18.2"/>
	<text transform="matrix(1 0 0 1 795.5151 115.4162)" class="st3 st4">80</text>
	<text transform="matrix(1 0 0 1 759.5151 117.2456)" class="st3 st4">75</text>
	<rect x="863.7" y="102.7" class="st2" width="18" height="18.2"/>
	<text transform="matrix(1 0 0 1 866.8345 115.4641)" class="st3 st4">90</text>
	<rect x="935.7" y="102.7" class="st2" width="18" height="18.2"/>
	<text transform="matrix(1 0 0 1 935.9048 115.4473)" class="st3 st4">100</text>
	<rect x="872.7" y="102.7" class="st2" width="72" height="18.2"/>
	<text transform="matrix(1 0 0 1 902.8345 115.4471)" class="st3 st4">95</text>
	<rect x="800.7" y="102.7" class="st2" width="72" height="18.2"/>
	<text transform="matrix(1 0 0 1 830.8345 115.4474)" class="st3 st4">85</text>
	<rect x="224.6" y="417" class="st0" width="180" height="54"/>
	<rect x="404.6" y="417" class="st1" width="180" height="54"/>
	<rect x="584.6" y="417" class="st0" width="180" height="54"/>
	<polygon class="st1" points="944.6,472 764.6,471 764.6,417 944.6,417 	"/>
	<rect x="594" y="489" class="st0" width="63" height="270"/>
	<rect x="657" y="489" class="st1" width="72" height="270"/>
	<g>
		<g>
			<path d="M659.4,480.4V480h1.2v0.4h0.2v0.4h0.2v3.5h-0.2v0.4h-0.2v0.4h-1.2v-0.4h-0.2v-0.4H659v-3.5h0.2v-0.4H659.4z M659.6,482.9
				v-0.4h0.2v-0.4h0.2v-0.4h0.2v-0.4h0.4v-0.4h-0.2v-0.4h-0.8v0.4h-0.2v1.8H659.6z M659.4,483.6v0.4h0.2v0.4h0.8v-0.4h0.2v-1.8h-0.2
				v0.4h-0.2v0.4H660v0.4h-0.2v0.4H659.4z"/>
		</g>
		<g>
			<path d="M687.3,484.3h0.4v0.7h-1.2v-0.7h0.4v-2.8h-0.4v-0.7h0.2v-0.4h0.2V480h0.4V484.3z"/>
			<path d="M688.8,480.4V480h1.2v0.4h0.2v0.4h0.2v3.5h-0.2v0.4H690v0.4h-1.2v-0.4h-0.2v-0.4h-0.2v-3.5h0.2v-0.4H688.8z M689,482.9
				v-0.4h0.2v-0.4h0.2v-0.4h0.2v-0.4h0.4v-0.4h-0.2v-0.4H689v0.4h-0.2v1.8H689z M688.8,483.6v0.4h0.2v0.4h0.8v-0.4h0.2v-1.8h-0.2
				v0.4h-0.2v0.4h-0.2v0.4h-0.2v0.4H688.8z"/>
		</g>
		<g>
			<path d="M714.8,484.3h1.5v0.7h-1.9v-2.1h0.2v-0.4h0.2v-0.4h1v-0.4h0.2v-0.7h-0.2v-0.4H715v0.4h-0.2v0.4h-0.4v-0.7h0.2v-0.4h0.2
				V480h1.2v0.4h0.2v0.4h0.2v1.4h-0.2v0.4H716v0.4h-1v0.4h-0.2V484.3z"/>
			<path d="M717.1,480.4V480h1.2v0.4h0.2v0.4h0.2v3.5h-0.2v0.4h-0.2v0.4h-1.2v-0.4h-0.2v-0.4h-0.2v-3.5h0.2v-0.4H717.1z
				 M717.3,482.8v-0.4h0.2v-0.4h0.2v-0.4h0.2v-0.4h0.4v-0.4h-0.2v-0.4h-0.8v0.4h-0.2v1.8H717.3z M717.1,483.5v0.4h0.2v0.4h0.8v-0.4
				h0.2v-1.8h-0.2v0.4h-0.2v0.4h-0.2v0.4h-0.2v0.4H717.1z"/>
		</g>
		<g>
			<path d="M701.5,484.3h0.4v0.7h-1.2v-0.7h0.4v-2.8h-0.4v-0.7h0.2v-0.4h0.2V480h0.4V484.3z"/>
			<path d="M702.6,480h1.9v0.7H703v0.7h1.2v0.4h0.2v0.4h0.2v2.1h-0.2v0.4h-0.2v0.4H703v-0.4h-0.2v-0.4h-0.2v-0.7h0.4v0.4h0.2v0.4
				h0.8v-0.4h0.2v-1.4h-0.2v-0.4h-1.3V480z"/>
		</g>
		<g>
			<path d="M673.2,480h1.9v0.7h-1.5v0.7h1.2v0.4h0.2v0.4h0.2v2.1h-0.2v0.4h-0.2v0.4h-1.2v-0.4h-0.2v-0.4h-0.2v-0.7h0.4v0.4h0.2v0.4
				h0.8v-0.4h0.2v-1.4h-0.2v-0.4h-1.3V480z"/>
		</g>
		<g>
			<path d="M742.9,484.4h-0.2v-0.7h0.4v0.4h0.2v0.4h0.8v-0.4h0.2v-0.7H744V483h-0.6v-0.7h0.6v-0.4h0.2v-0.7H744v-0.4h-0.8v0.4h-0.2
				v0.4h-0.4v-0.7h0.2v-0.4h0.2v-0.4h1.2v0.4h0.2v0.4h0.2v1.4h-0.2v0.7h0.2v1.4h-0.2v0.4h-0.2v0.4h-1.2v-0.4h-0.2V484.4z"/>
			<path d="M745.4,480.5v-0.4h1.2v0.4h0.2v0.4h0.2v3.5h-0.2v0.4h-0.2v0.4h-1.2v-0.4h-0.2v-0.4H745v-3.5h0.2v-0.4H745.4z M745.6,483
				v-0.4h0.2v-0.4h0.2v-0.4h0.2v-0.4h0.4v-0.4h-0.2v-0.4h-0.8v0.4h-0.2v1.8H745.6z M745.4,483.7v0.4h0.2v0.4h0.8v-0.4h0.2v-1.8h-0.2
				v0.4h-0.2v0.4h-0.2v0.4h-0.2v0.4H745.4z"/>
		</g>
		<g>
			<path d="M728.9,485.7h1.5v0.7h-1.9v-2.1h0.2V484h0.2v-0.4h1v-0.4h0.2v-0.7h-0.2v-0.4h-0.8v0.4h-0.2v0.4h-0.4v-0.7h0.2v-0.4h0.2
				v-0.4h1.2v0.4h0.2v0.4h0.2v1.4h-0.2v0.4h-0.2v0.4h-1v0.4h-0.2V485.7z"/>
			<path d="M730.8,481.5h1.9v0.7h-1.5v0.7h1.2v0.4h0.2v0.4h0.2v2.1h-0.2v0.4h-0.2v0.4h-1.2v-0.4H731v-0.4h-0.2V485h0.4v0.4h0.2v0.4
				h0.8v-0.4h0.2V484h-0.2v-0.4h-1.3V481.5z"/>
		</g>
		<g>
			<path d="M771.9,480.5v-0.4h0.4v2.8h0.4v0.7h-0.4v1.4h-0.4v-1.4h-1.2v-1.4h0.2V482h0.2v-0.4h0.2v-0.4h0.2v-0.4h0.2v-0.4H771.9z
				 M771.9,483v-1.4h-0.2v0.4h-0.2v0.4h-0.2v0.4h-0.2v0.4H771.9z"/>
			<path d="M773.4,480.5v-0.4h1.2v0.4h0.2v0.4h0.2v3.5h-0.2v0.4h-0.2v0.4h-1.2v-0.4h-0.2v-0.4H773v-3.5h0.2v-0.4H773.4z M773.6,483
				v-0.4h0.2v-0.4h0.2V482h0.2v-0.4h0.4v-0.4h-0.2v-0.4h-0.8v0.4h-0.2v1.8H773.6z M773.4,483.7v0.4h0.2v0.4h0.8v-0.4h0.2v-1.8h-0.2
				v0.4h-0.2v0.4H774v0.4h-0.2v0.4H773.4z"/>
		</g>
		<g>
			<path d="M799,480.2h1.9v0.7h-1.5v0.7h1.2v0.4h0.2v0.4h0.2v2.1h-0.2v0.4h-0.2v0.4h-1.2v-0.4h-0.2v-0.4H799v-0.7h0.4v0.4h0.2v0.4
				h0.8v-0.4h0.2v-1.4h-0.2v-0.4H799V480.2z"/>
			<path d="M801.7,480.5v-0.4h1.2v0.4h0.2v0.4h0.2v3.5H803v0.4h-0.2v0.4h-1.2v-0.4h-0.2v-0.4h-0.2v-3.5h0.2v-0.4H801.7z M801.9,483
				v-0.4h0.2v-0.4h0.2v-0.4h0.2v-0.4h0.4v-0.4h-0.2v-0.4h-0.8v0.4h-0.2v1.8H801.9z M801.7,483.7v0.4h0.2v0.4h0.8v-0.4h0.2v-1.8h-0.2
				v0.4h-0.2v0.4h-0.2v0.4h-0.2v0.4H801.7z"/>
		</g>
		<g>
			<path d="M786,480.5v-0.4h0.4v2.8h0.4v0.7h-0.4v1.4H786v-1.4h-1.2v-1.4h0.2v-0.4h0.2v-0.4h0.2v-0.4h0.2v-0.4h0.2v-0.4H786z
				 M786,483v-1.4h-0.2v0.4h-0.2v0.4h-0.2v0.4h-0.2v0.4H786z"/>
			<path d="M787.1,480.2h1.9v0.7h-1.5v0.7h1.2v0.4h0.2v0.4h0.2v2.1h-0.2v0.4h-0.2v0.4h-1.2v-0.4h-0.2v-0.4h-0.2v-0.7h0.4v0.4h0.2
				v0.4h0.8v-0.4h0.2v-1.4h-0.2v-0.4h-1.3V480.2z"/>
		</g>
		<g>
			<path d="M756.8,484.4h-0.2v-0.7h0.4v0.4h0.2v0.4h0.8v-0.4h0.2v-0.7h-0.2V483h-0.6v-0.7h0.6v-0.4h0.2v-0.7h-0.2v-0.4h-0.8v0.4
				h-0.2v0.4h-0.4v-0.7h0.2v-0.4h0.2v-0.4h1.2v0.4h0.2v0.4h0.2v1.4h-0.2v0.7h0.2v1.4h-0.2v0.4h-0.2v0.4h-1.2v-0.4h-0.2V484.4z"/>
			<path d="M758.9,480.2h1.9v0.7h-1.5v0.7h1.2v0.4h0.2v0.4h0.2v2.1h-0.2v0.4h-0.2v0.4h-1.2v-0.4h-0.2v-0.4h-0.2v-0.7h0.4v0.4h0.2
				v0.4h0.8v-0.4h0.2v-1.4h-0.2v-0.4h-1.3V480.2z"/>
		</g>
		<g>
			<path d="M829.3,485.1v0.4h-1.2v-0.4H828v-0.4h-0.2v-3.5h0.2v-0.4h0.2v-0.4h1.2v0.4h0.2v0.4h0.2v0.7h-0.4v-0.4h-0.2v-0.4h-0.8v0.4
				h-0.2v1.1h1.2v0.4h0.2v0.4h0.2v1.4h-0.2v0.4H829.3z M828.4,484.8h0.8v-0.4h0.2v-0.7h-0.2v-0.4h-1v1.1h0.2V484.8z"/>
			<path d="M830.5,480.9v-0.4h1.2v0.4h0.2v0.4h0.2v3.5h-0.2v0.4h-0.2v0.4h-1.2v-0.4h-0.2v-0.4h-0.2v-3.5h0.2v-0.4H830.5z
				 M830.7,483.3V483h0.2v-0.4h0.2v-0.4h0.2v-0.4h0.4v-0.4h-0.2v-0.4h-0.8v0.4h-0.2v1.8H830.7z M830.5,484.1v0.4h0.2v0.4h0.8v-0.4
				h0.2v-1.8h-0.2v0.4h-0.2v0.4h-0.2v0.4h-0.2v0.4H830.5z"/>
		</g>
		<g>
			<path d="M857.6,481.2h-1.5v-0.7h1.9v1.8h-0.2v0.4h-0.2v0.4h-0.2v0.4h-0.2v2.1h-0.4V483h0.2v-0.4h0.2v-0.4h0.2v-0.4h0.2V481.2z"/>
			<path d="M858.8,480.8v-0.4h1.2v0.4h0.2v0.4h0.2v3.5h-0.2v0.4h-0.2v0.4h-1.2v-0.4h-0.2v-0.4h-0.2v-3.5h0.2v-0.4H858.8z M859,483.3
				V483h0.2v-0.4h0.2v-0.4h0.2v-0.4h0.4v-0.4h-0.2v-0.4H859v0.4h-0.2v1.8H859z M858.8,484v0.4h0.2v0.4h0.8v-0.4h0.2v-1.8h-0.2v0.4
				h-0.2v0.4h-0.2v0.4h-0.2v0.4H858.8z"/>
		</g>
		<g>
			<path d="M843.5,485.1v0.4h-1.2v-0.4h-0.2v-0.4h-0.2v-3.5h0.2v-0.4h0.2v-0.4h1.2v0.4h0.2v0.4h0.2v0.7h-0.4v-0.4h-0.2v-0.4h-0.8
				v0.4h-0.2v1.1h1.2v0.4h0.2v0.4h0.2v1.4h-0.2v0.4H843.5z M842.5,484.7h0.8v-0.4h0.2v-0.7h-0.2v-0.4h-1v1.1h0.2V484.7z"/>
			<path d="M844.2,480.5h1.9v0.7h-1.5v0.7h1.2v0.4h0.2v0.4h0.2v2.1H846v0.4h-0.2v0.4h-1.2v-0.4h-0.2v-0.4h-0.2V484h0.4v0.4h0.2v0.4
				h0.8v-0.4h0.2V483h-0.2v-0.4h-1.3V480.5z"/>
		</g>
		<g>
			<path d="M813.6,480.5h1.9v0.7H814v0.7h1.2v0.4h0.2v0.4h0.2v2.1h-0.2v0.4h-0.2v0.4H814v-0.4h-0.2v-0.4h-0.2V484h0.4v0.4h0.2v0.4
				h0.8v-0.4h0.2V483H815v-0.4h-1.3V480.5z"/>
			<path d="M816,480.5h1.9v0.7h-1.5v0.7h1.2v0.4h0.2v0.4h0.2v2.1h-0.2v0.4h-0.2v0.4h-1.2v-0.4h-0.2v-0.4H816V484h0.4v0.4h0.2v0.4
				h0.8v-0.4h0.2V483h-0.2v-0.4H816V480.5z"/>
		</g>
		<g>
			<path d="M885.9,485.3v0.4h-1.2v-0.4h-0.2v-0.4h-0.2v-1.4h0.2v-0.7h-0.2v-1.4h0.2V481h0.2v-0.4h1.2v0.4h0.2v0.4h0.2v1.4H886v0.7
				h0.2v1.4H886v0.4H885.9z M885.7,481.4h-0.8v0.4h-0.2v0.7h0.2v0.4h0.8v-0.4h0.2v-0.7h-0.2V481.4z M884.9,484.9h0.8v-0.4h0.2v-0.7
				h-0.2v-0.4h-0.8v0.4h-0.2v0.7h0.2V484.9z"/>
			<path d="M887,481v-0.4h1.2v0.4h0.2v0.4h0.2v3.5h-0.2v0.4h-0.2v0.4H887v-0.4h-0.2v-0.4h-0.2v-3.5h0.2V481H887z M887.2,483.5v-0.4
				h0.2v-0.4h0.2v-0.4h0.2v-0.4h0.4v-0.4H888v-0.4h-0.8v0.4H887v1.8H887.2z M887,484.2v0.4h0.2v0.4h0.8v-0.4h0.2v-1.8H888v0.4h-0.2
				v0.4h-0.2v0.4h-0.2v0.4H887z"/>
		</g>
		<g>
			<path d="M871.7,482.7h-1.5V482h1.9v1.8h-0.2v0.4h-0.2v0.4h-0.2v0.4h-0.2v2.1h-0.4v-2.5h0.2v-0.4h0.2v-0.4h0.2v-0.4h0.2V482.7z"/>
			<path d="M872.5,482h1.9v0.7h-1.5v0.7h1.2v0.4h0.2v0.4h0.2v2.1h-0.2v0.4H874v0.4h-1.2v-0.4h-0.2v-0.4h-0.2v-0.7h0.4v0.4h0.2v0.4
				h0.8v-0.4h0.2v-1.4h-0.2v-0.4h-1.3V482z"/>
		</g>
		<g>
			<path d="M912.5,484.9h-0.2v-0.7h0.4v0.4h0.2v0.4h0.8v-0.4h0.2v-1.1h-1.2v-0.4h-0.2v-0.4h-0.2v-1.4h0.2V481h0.2v-0.4h1.2v0.4h0.2
				v0.4h0.2v3.5h-0.2v0.4h-0.2v0.4h-1.2v-0.4h-0.2V484.9z M913.9,482.8v-1.1h-0.2v-0.4h-0.8v0.4h-0.2v0.7h0.2v0.4H913.9z"/>
			<path d="M915,481v-0.4h1.2v0.4h0.2v0.4h0.2v3.5h-0.2v0.4h-0.2v0.4H915v-0.4h-0.2v-0.4h-0.2v-3.5h0.2V481H915z M915.2,483.5v-0.4
				h0.2v-0.4h0.2v-0.4h0.2v-0.4h0.4v-0.4H916v-0.4h-0.8v0.4H915v1.8H915.2z M915,484.2v0.4h0.2v0.4h0.8v-0.4h0.2v-1.8H916v0.4h-0.2
				v0.4h-0.2v0.4h-0.2v0.4H915z"/>
		</g>
		<g>
			<path d="M940.6,484.9h0.4v0.7h-1.2v-0.7h0.4v-2.8h-0.4v-0.7h0.2V481h0.2v-0.4h0.4V484.9z"/>
			<path d="M942.2,481v-0.4h1.2v0.4h0.2v0.4h0.2v3.5h-0.2v0.4h-0.2v0.4h-1.2v-0.4H942v-0.4h-0.2v-3.5h0.2V481H942.2z M942.4,483.5
				v-0.4h0.2v-0.4h0.2v-0.4h0.2v-0.4h0.4v-0.4h-0.2v-0.4h-0.8v0.4h-0.2v1.8H942.4z M942.2,484.2v0.4h0.2v0.4h0.8v-0.4h0.2v-1.8h-0.2
				v0.4h-0.2v0.4h-0.2v0.4h-0.2v0.4H942.2z"/>
			<path d="M944.5,481v-0.4h1.2v0.4h0.2v0.4h0.2v3.5h-0.2v0.4h-0.2v0.4h-1.2v-0.4h-0.2v-0.4h-0.2v-3.5h0.2V481H944.5z M944.7,483.5
				v-0.4h0.2v-0.4h0.2v-0.4h0.2v-0.4h0.4v-0.4h-0.2v-0.4h-0.8v0.4h-0.2v1.8H944.7z M944.5,484.2v0.4h0.2v0.4h0.8v-0.4h0.2v-1.8h-0.2
				v0.4h-0.2v0.4H945v0.4h-0.2v0.4H944.5z"/>
		</g>
		<g>
			<path d="M926.7,484.9h-0.2v-0.7h0.4v0.4h0.2v0.4h0.8v-0.4h0.2v-1.1h-1.2v-0.4h-0.2v-0.4h-0.2v-1.4h0.2V481h0.2v-0.4h1.2v0.4h0.2
				v0.4h0.2v3.5h-0.2v0.4H928v0.4h-1.2v-0.4h-0.2V484.9z M928,482.8v-1.1h-0.2v-0.4h-0.8v0.4h-0.2v0.7h0.2v0.4H928z"/>
			<path d="M928.8,480.7h1.9v0.7h-1.5v0.7h1.2v0.4h0.2v0.4h0.2v2.1h-0.2v0.4h-0.2v0.4h-1.2v-0.4H929v-0.4h-0.2v-0.7h0.4v0.4h0.2v0.4
				h0.8v-0.4h0.2v-1.4h-0.2v-0.4h-1.3V480.7z"/>
		</g>
		<g>
			<path d="M899.7,485.3v0.4h-1.2v-0.4h-0.2v-0.4h-0.2v-1.4h0.2v-0.7h-0.2v-1.4h0.2V481h0.2v-0.4h1.2v0.4h0.2v0.4h0.2v1.4h-0.2v0.7
				h0.2v1.4h-0.2v0.4H899.7z M899.5,481.4h-0.8v0.4h-0.2v0.7h0.2v0.4h0.8v-0.4h0.2v-0.7h-0.2V481.4z M898.8,484.9h0.8v-0.4h0.2v-0.7
				h-0.2v-0.4h-0.8v0.4h-0.2v0.7h0.2V484.9z"/>
			<path d="M900.5,480.7h1.9v0.7h-1.5v0.7h1.2v0.4h0.2v0.4h0.2v2.1h-0.2v0.4H902v0.4h-1.2v-0.4h-0.2v-0.4h-0.2v-0.7h0.4v0.4h0.2v0.4
				h0.8v-0.4h0.2v-1.4h-0.2v-0.4h-1.3V480.7z"/>
		</g>
	</g>
	<rect x="801.1" y="488.8" class="st1" width="72" height="270.2"/>
	<rect x="728.6" y="489" class="st0" width="72.4" height="270"/>
	<rect x="872.9" y="488.8" class="st0" width="72.4" height="270.2"/>
	<rect x="224.8" y="489.5" class="st0" width="63" height="270"/>
	<rect x="287.8" y="489.5" class="st1" width="72" height="270"/>
	<g>
		<g>
			<path d="M290.2,480.8v-0.4h1.2v0.4h0.2v0.4h0.2v3.5h-0.2v0.4h-0.2v0.4h-1.2v-0.4H290v-0.4h-0.2v-3.5h0.2v-0.4H290.2z
				 M290.4,483.3V483h0.2v-0.4h0.2v-0.4h0.2v-0.4h0.4v-0.4h-0.2v-0.4h-0.8v0.4h-0.2v1.8H290.4z M290.2,484v0.4h0.2v0.4h0.8v-0.4h0.2
				v-1.8h-0.2v0.4h-0.2v0.4h-0.2v0.4h-0.2v0.4H290.2z"/>
		</g>
		<g>
			<path d="M318.1,484.7h0.4v0.7h-1.2v-0.7h0.4v-2.8h-0.4v-0.7h0.2v-0.4h0.2v-0.4h0.4V484.7z"/>
			<path d="M319.6,480.8v-0.4h1.2v0.4h0.2v0.4h0.2v3.5H321v0.4h-0.2v0.4h-1.2v-0.4h-0.2v-0.4h-0.2v-3.5h0.2v-0.4H319.6z
				 M319.8,483.3V483h0.2v-0.4h0.2v-0.4h0.2v-0.4h0.4v-0.4h-0.2v-0.4h-0.8v0.4h-0.2v1.8H319.8z M319.6,484v0.4h0.2v0.4h0.8v-0.4h0.2
				v-1.8h-0.2v0.4h-0.2v0.4h-0.2v0.4H320v0.4H319.6z"/>
		</g>
		<g>
			<path d="M345.6,484.7h1.5v0.7h-1.9v-2.1h0.2v-0.4h0.2v-0.4h1v-0.4h0.2v-0.7h-0.2v-0.4h-0.8v0.4h-0.2v0.4h-0.4v-0.7h0.2v-0.4h0.2
				v-0.4h1.2v0.4h0.2v0.4h0.2v1.4H347v0.4h-0.2v0.4h-1v0.4h-0.2V484.7z"/>
			<path d="M347.9,480.8v-0.4h1.2v0.4h0.2v0.4h0.2v3.5h-0.2v0.4h-0.2v0.4h-1.2v-0.4h-0.2v-0.4h-0.2v-3.5h0.2v-0.4H347.9z
				 M348.1,483.3v-0.4h0.2v-0.4h0.2v-0.4h0.2v-0.4h0.4v-0.4h-0.2v-0.4h-0.8v0.4h-0.2v1.8H348.1z M347.9,484v0.4h0.2v0.4h0.8v-0.4
				h0.2v-1.8h-0.2v0.4h-0.2v0.4h-0.2v0.4h-0.2v0.4H347.9z"/>
		</g>
		<g>
			<path d="M332.2,484.7h0.4v0.7h-1.2v-0.7h0.4v-2.8h-0.4v-0.7h0.2v-0.4h0.2v-0.4h0.4V484.7z"/>
			<path d="M333.4,480.5h1.9v0.7h-1.5v0.7h1.2v0.4h0.2v0.4h0.2v2.1h-0.2v0.4h-0.2v0.4h-1.2v-0.4h-0.2v-0.4h-0.2V484h0.4v0.4h0.2v0.4
				h0.8v-0.4h0.2v-1.4h-0.2v-0.4h-1.3V480.5z"/>
		</g>
		<g>
			<path d="M303.9,480.5h1.9v0.7h-1.5v0.7h1.2v0.4h0.2v0.4h0.2v2.1h-0.2v0.4h-0.2v0.4h-1.2v-0.4h-0.2v-0.4h-0.2V484h0.4v0.4h0.2v0.4
				h0.8v-0.4h0.2v-1.4h-0.2v-0.4h-1.3V480.5z"/>
		</g>
		<g>
			<path d="M373.7,484.9h-0.2v-0.7h0.4v0.4h0.2v0.4h0.8v-0.4h0.2v-0.7h-0.2v-0.4h-0.6v-0.7h0.6v-0.4h0.2v-0.7h-0.2v-0.4H374v0.4
				h-0.2v0.4h-0.4v-0.7h0.2V481h0.2v-0.4h1.2v0.4h0.2v0.4h0.2v1.4h-0.2v0.7h0.2v1.4h-0.2v0.4H375v0.4h-1.2v-0.4h-0.2V484.9z"/>
			<path d="M376.1,481v-0.4h1.2v0.4h0.2v0.4h0.2v3.5h-0.2v0.4h-0.2v0.4h-1.2v-0.4H376v-0.4h-0.2v-3.5h0.2V481H376.1z M376.3,483.5
				v-0.4h0.2v-0.4h0.2v-0.4h0.2V482h0.4v-0.4h-0.2v-0.4h-0.8v0.4h-0.2v1.8H376.3z M376.1,484.2v0.4h0.2v0.4h0.8v-0.4h0.2v-1.8h-0.2
				v0.4h-0.2v0.4h-0.2v0.4h-0.2v0.4H376.1z"/>
		</g>
		<g>
			<path d="M359.7,486.2h1.5v0.7h-1.9v-2.1h0.2v-0.4h0.2v-0.4h1v-0.4h0.2V483h-0.2v-0.4h-0.8v0.4h-0.2v0.4h-0.4v-0.7h0.2v-0.4h0.2
				v-0.4h1.2v0.4h0.2v0.4h0.2v1.4H361v0.4h-0.2v0.4h-1v0.4h-0.2V486.2z"/>
			<path d="M361.6,481.9h1.9v0.7H362v0.7h1.2v0.4h0.2v0.4h0.2v2.1h-0.2v0.4h-0.2v0.4H362v-0.4h-0.2v-0.4h-0.2v-0.7h0.4v0.4h0.2v0.4
				h0.8v-0.4h0.2v-1.4H363v-0.4h-1.3V481.9z"/>
		</g>
		<g>
			<path d="M402.6,481v-0.4h0.4v2.8h0.4v0.7H403v1.4h-0.4v-1.4h-1.2v-1.4h0.2v-0.4h0.2v-0.4h0.2v-0.4h0.2v-0.4h0.2V481H402.6z
				 M402.6,483.5v-1.4h-0.2v0.4h-0.2v0.4h-0.2v0.4h-0.2v0.4H402.6z"/>
			<path d="M404.2,481v-0.4h1.2v0.4h0.2v0.4h0.2v3.5h-0.2v0.4h-0.2v0.4h-1.2v-0.4H404v-0.4h-0.2v-3.5h0.2V481H404.2z M404.4,483.5
				v-0.4h0.2v-0.4h0.2v-0.4h0.2v-0.4h0.4v-0.4h-0.2v-0.4h-0.8v0.4h-0.2v1.8H404.4z M404.2,484.2v0.4h0.2v0.4h0.8v-0.4h0.2v-1.8h-0.2
				v0.4h-0.2v0.4h-0.2v0.4h-0.2v0.4H404.2z"/>
		</g>
		<g>
			<path d="M429.8,480.6h1.9v0.7h-1.5v0.7h1.2v0.4h0.2v0.4h0.2v2.1h-0.2v0.4h-0.2v0.4h-1.2v-0.4H430v-0.4h-0.2v-0.7h0.4v0.4h0.2v0.4
				h0.8v-0.4h0.2v-1.4h-0.2v-0.4h-1.3V480.6z"/>
			<path d="M432.5,481v-0.4h1.2v0.4h0.2v0.4h0.2v3.5h-0.2v0.4h-0.2v0.4h-1.2v-0.4h-0.2v-0.4h-0.2v-3.5h0.2V481H432.5z M432.6,483.5
				v-0.4h0.2v-0.4h0.2v-0.4h0.2v-0.4h0.4v-0.4h-0.2v-0.4h-0.8v0.4h-0.2v1.8H432.6z M432.5,484.2v0.4h0.2v0.4h0.8v-0.4h0.2v-1.8h-0.2
				v0.4h-0.2v0.4H433v0.4h-0.2v0.4H432.5z"/>
		</g>
		<g>
			<path d="M416.8,481v-0.4h0.4v2.8h0.4v0.7h-0.4v1.4h-0.4v-1.4h-1.2v-1.4h0.2v-0.4h0.2v-0.4h0.2v-0.4h0.2v-0.4h0.2V481H416.8z
				 M416.8,483.5v-1.4h-0.2v0.4h-0.2v0.4h-0.2v0.4H416v0.4H416.8z"/>
			<path d="M417.9,480.6h1.9v0.7h-1.5v0.7h1.2v0.4h0.2v0.4h0.2v2.1h-0.2v0.4h-0.2v0.4h-1.2v-0.4h-0.2v-0.4h-0.2v-0.7h0.4v0.4h0.2
				v0.4h0.8v-0.4h0.2v-1.4h-0.2v-0.4h-1.3V480.6z"/>
		</g>
		<g>
			<path d="M387.5,484.9h-0.2v-0.7h0.4v0.4h0.2v0.4h0.8v-0.4h0.2v-0.7h-0.2v-0.4h-0.6v-0.7h0.6v-0.4h0.2v-0.7h-0.2v-0.4h-0.8v0.4
				h-0.2v0.4h-0.4v-0.7h0.2V481h0.2v-0.4h1.2v0.4h0.2v0.4h0.2v1.4h-0.2v0.7h0.2v1.4h-0.2v0.4h-0.2v0.4h-1.2v-0.4h-0.2V484.9z"/>
			<path d="M389.6,480.6h1.9v0.7H390v0.7h1.2v0.4h0.2v0.4h0.2v2.1h-0.2v0.4h-0.2v0.4H390v-0.4h-0.2v-0.4h-0.2v-0.7h0.4v0.4h0.2v0.4
				h0.8v-0.4h0.2v-1.4H391v-0.4h-1.3V480.6z"/>
		</g>
		<g>
			<path d="M460.1,485.6v0.4H459v-0.4h-0.2v-0.4h-0.2v-3.5h0.2v-0.4h0.2V481h1.2v0.4h0.2v0.4h0.2v0.7h-0.4V482h-0.2v-0.4h-0.8v0.4
				H459v1.1h1.2v0.4h0.2v0.4h0.2v1.4h-0.2v0.4H460.1z M459.1,485.2h0.8v-0.4h0.2v-0.7h-0.2v-0.4h-1v1.1h0.2V485.2z"/>
			<path d="M461.3,481.3V481h1.2v0.4h0.2v0.4h0.2v3.5h-0.2v0.4h-0.2v0.4h-1.2v-0.4h-0.2v-0.4h-0.2v-3.5h0.2v-0.4H461.3z
				 M461.4,483.8v-0.4h0.2v-0.4h0.2v-0.4h0.2v-0.4h0.4V482h-0.2v-0.4h-0.8v0.4h-0.2v1.8H461.4z M461.3,484.5v0.4h0.2v0.4h0.8v-0.4
				h0.2v-1.8h-0.2v0.4H462v0.4h-0.2v0.4h-0.2v0.4H461.3z"/>
		</g>
		<g>
			<path d="M488.4,481.7h-1.5V481h1.9v1.8h-0.2v0.4h-0.2v0.4h-0.2v0.4H488v2.1h-0.4v-2.5h0.2v-0.4h0.2v-0.4h0.2v-0.4h0.2V481.7z"/>
			<path d="M489.5,481.3V481h1.2v0.4h0.2v0.4h0.2v3.5h-0.2v0.4h-0.2v0.4h-1.2v-0.4h-0.2v-0.4h-0.2v-3.5h0.2v-0.4H489.5z
				 M489.7,483.8v-0.4h0.2v-0.4h0.2v-0.4h0.2v-0.4h0.4V482h-0.2v-0.4h-0.8v0.4h-0.2v1.8H489.7z M489.5,484.5v0.4h0.2v0.4h0.8v-0.4
				h0.2v-1.8h-0.2v0.4h-0.2v0.4h-0.2v0.4h-0.2v0.4H489.5z"/>
		</g>
		<g>
			<path d="M474.3,485.6v0.4h-1.2v-0.4h-0.2v-0.4h-0.2v-3.5h0.2v-0.4h0.2V481h1.2v0.4h0.2v0.4h0.2v0.7h-0.4V482h-0.2v-0.4h-0.8v0.4
				h-0.2v1.1h1.2v0.4h0.2v0.4h0.2v1.4h-0.2v0.4H474.3z M473.3,485.2h0.8v-0.4h0.2v-0.7h-0.2v-0.4h-1v1.1h0.2V485.2z"/>
			<path d="M475,481h1.9v0.7h-1.5v0.7h1.2v0.4h0.2v0.4h0.2v2.1h-0.2v0.4h-0.2v0.4h-1.2v-0.4h-0.2v-0.4H475v-0.7h0.4v0.4h0.2v0.4h0.8
				v-0.4h0.2v-1.4h-0.2v-0.4H475V481z"/>
		</g>
		<g>
			<path d="M444.4,481h1.9v0.7h-1.5v0.7h1.2v0.4h0.2v0.4h0.2v2.1h-0.2v0.4H446v0.4h-1.2v-0.4h-0.2v-0.4h-0.2v-0.7h0.4v0.4h0.2v0.4
				h0.8v-0.4h0.2v-1.4h-0.2v-0.4h-1.3V481z"/>
			<path d="M446.7,481h1.9v0.7h-1.5v0.7h1.2v0.4h0.2v0.4h0.2v2.1h-0.2v0.4h-0.2v0.4h-1.2v-0.4h-0.2v-0.4h-0.2v-0.7h0.4v0.4h0.2v0.4
				h0.8v-0.4h0.2v-1.4h-0.2v-0.4h-1.3V481z"/>
		</g>
		<g>
			<path d="M516.6,485.7v0.4h-1.2v-0.4h-0.2v-0.4h-0.2v-1.4h0.2v-0.7h-0.2v-1.4h0.2v-0.4h0.2v-0.4h1.2v0.4h0.2v0.4h0.2v1.4h-0.2v0.7
				h0.2v1.4h-0.2v0.4H516.6z M516.4,481.8h-0.8v0.4h-0.2v0.7h0.2v0.4h0.8v-0.4h0.2v-0.7h-0.2V481.8z M515.7,485.4h0.8V485h0.2v-0.7
				h-0.2v-0.4h-0.8v0.4h-0.2v0.7h0.2V485.4z"/>
			<path d="M517.8,481.5v-0.4h1.2v0.4h0.2v0.4h0.2v3.5h-0.2v0.4h-0.2v0.4h-1.2v-0.4h-0.2v-0.4h-0.2v-3.5h0.2v-0.4H517.8z M518,483.9
				v-0.4h0.2v-0.4h0.2v-0.4h0.2v-0.4h0.4v-0.4h-0.2v-0.4H518v0.4h-0.2v1.8H518z M517.8,484.7v0.4h0.2v0.4h0.8V485h0.2v-1.8h-0.2v0.4
				h-0.2v0.4h-0.2v0.4h-0.2v0.4H517.8z"/>
		</g>
		<g>
			<path d="M502.5,483.1H501v-0.7h1.9v1.8h-0.2v0.4h-0.2v0.4h-0.2v0.4h-0.2v2.1h-0.4v-2.5h0.2v-0.4h0.2v-0.4h0.2v-0.4h0.2V483.1z"/>
			<path d="M503.3,482.4h1.9v0.7h-1.5v0.7h1.2v0.4h0.2v0.4h0.2v2.1H505v0.4h-0.2v0.4h-1.2v-0.4h-0.2v-0.4h-0.2V486h0.4v0.4h0.2v0.4
				h0.8v-0.4h0.2v-1.4h-0.2v-0.4h-1.3V482.4z"/>
		</g>
		<g>
			<path d="M543.3,485.4h-0.2v-0.7h0.4v0.4h0.2v0.4h0.8V485h0.2V484h-1.2v-0.4h-0.2v-0.4h-0.2v-1.4h0.2v-0.4h0.2v-0.4h1.2v0.4h0.2
				v0.4h0.2v3.5h-0.2v0.4h-0.2v0.4h-1.2v-0.4h-0.2V485.4z M544.7,483.3v-1.1h-0.2v-0.4h-0.8v0.4h-0.2v0.7h0.2v0.4H544.7z"/>
			<path d="M545.8,481.5v-0.4h1.2v0.4h0.2v0.4h0.2v3.5h-0.2v0.4H547v0.4h-1.2v-0.4h-0.2v-0.4h-0.2v-3.5h0.2v-0.4H545.8z M546,484
				v-0.4h0.2v-0.4h0.2v-0.4h0.2v-0.4h0.4v-0.4h-0.2v-0.4H546v0.4h-0.2v1.8H546z M545.8,484.7v0.4h0.2v0.4h0.8V485h0.2v-1.8h-0.2v0.4
				h-0.2v0.4h-0.2v0.4h-0.2v0.4H545.8z"/>
		</g>
		<g>
			<path d="M571.4,485.4h0.4v0.7h-1.2v-0.7h0.4v-2.8h-0.4v-0.7h0.2v-0.4h0.2v-0.4h0.4V485.4z"/>
			<path d="M572.9,481.5v-0.4h1.2v0.4h0.2v0.4h0.2v3.5h-0.2v0.4h-0.2v0.4h-1.2v-0.4h-0.2v-0.4h-0.2v-3.5h0.2v-0.4H572.9z M573.1,484
				v-0.4h0.2v-0.4h0.2v-0.4h0.2v-0.4h0.4v-0.4h-0.2v-0.4h-0.8v0.4h-0.2v1.8H573.1z M572.9,484.7v0.4h0.2v0.4h0.8V485h0.2v-1.8h-0.2
				v0.4h-0.2v0.4h-0.2v0.4h-0.2v0.4H572.9z"/>
			<path d="M575.2,481.5v-0.4h1.2v0.4h0.2v0.4h0.2v3.5h-0.2v0.4h-0.2v0.4h-1.2v-0.4h-0.2v-0.4h-0.2v-3.5h0.2v-0.4H575.2z M575.4,484
				v-0.4h0.2v-0.4h0.2v-0.4h0.2v-0.4h0.4v-0.4h-0.2v-0.4h-0.8v0.4h-0.2v1.8H575.4z M575.2,484.7v0.4h0.2v0.4h0.8V485h0.2v-1.8h-0.2
				v0.4H576v0.4h-0.2v0.4h-0.2v0.4H575.2z"/>
		</g>
		<g>
			<path d="M557.5,485.4h-0.2v-0.7h0.4v0.4h0.2v0.4h0.8V485h0.2V484h-1.2v-0.4h-0.2v-0.4h-0.2v-1.4h0.2v-0.4h0.2v-0.4h1.2v0.4h0.2
				v0.4h0.2v3.5H559v0.4h-0.2v0.4h-1.2v-0.4h-0.2V485.4z M558.8,483.3v-1.1h-0.2v-0.4h-0.8v0.4h-0.2v0.7h0.2v0.4H558.8z"/>
			<path d="M559.6,481.1h1.9v0.7h-1.5v0.7h1.2v0.4h0.2v0.4h0.2v2.1h-0.2v0.4h-0.2v0.4h-1.2v-0.4h-0.2v-0.4h-0.2v-0.7h0.4v0.4h0.2
				v0.4h0.8V485h0.2v-1.4h-0.2v-0.4h-1.3V481.1z"/>
		</g>
		<g>
			<path d="M530.5,485.7v0.4h-1.2v-0.4h-0.2v-0.4H529V484h0.2v-0.7H529v-1.4h0.2v-0.4h0.2v-0.4h1.2v0.4h0.2v0.4h0.2v1.4h-0.2v0.7
				h0.2v1.4h-0.2v0.4H530.5z M530.3,481.8h-0.8v0.4h-0.2v0.7h0.2v0.4h0.8v-0.4h0.2v-0.7h-0.2V481.8z M529.5,485.4h0.8V485h0.2v-0.7
				h-0.2V484h-0.8v0.4h-0.2v0.7h0.2V485.4z"/>
			<path d="M531.3,481.1h1.9v0.7h-1.5v0.7h1.2v0.4h0.2v0.4h0.2v2.1H533v0.4h-0.2v0.4h-1.2v-0.4h-0.2v-0.4h-0.2v-0.7h0.4v0.4h0.2v0.4
				h0.8V485h0.2v-1.4h-0.2v-0.4h-1.3V481.1z"/>
		</g>
	</g>
	<rect x="431.9" y="489.3" class="st1" width="72" height="270.2"/>
	<rect x="359.4" y="489.5" class="st0" width="72.4" height="270"/>
	<rect x="503.6" y="489.3" class="st0" width="72.4" height="270.2"/>
	<rect x="224.7" y="120" class="st0" width="180" height="288"/>
	<rect x="404.7" y="120" class="st1" width="180" height="288"/>
	<rect x="584.7" y="120" class="st0" width="180" height="288"/>
	<rect x="764.7" y="120" class="st1" width="180" height="288"/>
</g>
<g id="GUIDES">
	<line class="st5" x1="404.8" y1="417.5" x2="404.8" y2="471"/>
	<line class="st5" x1="585.3" y1="417.5" x2="585.3" y2="471"/>
	<line class="st5" x1="765.3" y1="417.5" x2="765.3" y2="471"/>
	<line class="st5" x1="405" y1="30" x2="405" y2="102"/>
	<line class="st5" x1="585.5" y1="30" x2="585.5" y2="102"/>
	<line class="st5" x1="765.5" y1="30" x2="765.5" y2="102"/>
	<line class="st5" x1="405.1" y1="119.8" x2="405.1" y2="407.6"/>
	<line class="st5" x1="585" y1="120" x2="585" y2="407.8"/>
	<line class="st5" x1="584.6" y1="120.6" x2="584.6" y2="408.4"/>
	<line class="st5" x1="765.3" y1="120" x2="765.3" y2="407.8"/>
	<rect x="99.3" y="120" class="st2" width="107.7" height="72"/>
	<text transform="matrix(1 0 0 1 116.7656 164.0519)" class="st6 st3 st7">PROTEIN</text>
	<rect x="99.5" y="191.7" class="st2" width="107.5" height="72"/>
	<text transform="matrix(1 0 0 1 168.3276 235.7117)" class="st6 st3 st7">FAT</text>
	<rect x="99.5" y="263.7" class="st2" width="107.5" height="72"/>
	<text transform="matrix(1 0 0 1 142.5469 307.7117)" class="st6 st3 st7">CARBS</text>
	<rect x="99" y="335.6" class="st2" width="107.5" height="72"/>
	<text transform="matrix(1 0 0 1 142.0439 379.6665)" class="st6 st3 st7">FIBER</text>
	<rect x="99" y="417" class="st2" width="107.5" height="53.6"/>
	<text transform="matrix(1 0 0 1 142.0425 451.8594)" class="st6 st3 st7">SUGAR</text>
	<rect x="99" y="30" class="st2" width="108" height="72"/>
	<text transform="matrix(1 0 0 1 103.875 74.0518)" class="st6 st3 st7">CALORIES</text>
	<rect x="594.4" y="489" class="st2" width="62.7" height="36"/>
	<text transform="matrix(1 0 0 1 611.0618 516.15)" class="st6 st3 st8">Ca</text>
	<rect x="594.4" y="516" class="st2" width="62.6" height="18"/>
	<text transform="matrix(1 0 0 1 605.1616 528.6603)" class="st3 st4">Calcium</text>
	<line class="st5" x1="656.8" y1="489.6" x2="656.8" y2="757.7"/>
	<line class="st5" x1="729.7" y1="489.2" x2="729.7" y2="757.5"/>
	<line class="st5" x1="872.6" y1="491" x2="872.6" y2="759"/>
	<line class="st5" x1="801.1" y1="491" x2="801.1" y2="759"/>
	<rect x="594.4" y="534.4" class="st2" width="62.7" height="36"/>
	<text transform="matrix(1 0 0 1 611.0754 561.5197)" class="st6 st3 st8">Fe</text>
	<rect x="594.4" y="561.4" class="st2" width="62.6" height="18"/>
	<text transform="matrix(1 0 0 1 613.9663 574.03)" class="st3 st4">Iron</text>
	<rect x="594" y="579.1" class="st2" width="62.7" height="36"/>
	<text transform="matrix(1 0 0 1 610.6787 606.2355)" class="st6 st3 st8">Na</text>
	<rect x="594" y="606.1" class="st2" width="62.6" height="18"/>
	<text transform="matrix(1 0 0 1 607.7092 618.7454)" class="st3 st4">Sodium</text>
	<rect x="594.1" y="624.3" class="st2" width="62.7" height="36"/>
	<text transform="matrix(1 0 0 1 610.7546 651.4581)" class="st6 st3 st8">Mg</text>
	<rect x="594.1" y="651.3" class="st2" width="62.6" height="18"/>
	<text transform="matrix(1 0 0 1 598.9961 663.9684)" class="st3 st4">Magnesium</text>
	<rect x="594.3" y="668.8" class="st2" width="62.7" height="36.2"/>
	<text transform="matrix(1 0 0 1 618.3079 696.0432)" class="st6 st3 st8">P</text>
	<rect x="594.3" y="695.8" class="st2" width="62.7" height="18"/>
	<text transform="matrix(1 0 0 1 596.355 708.4467)" class="st3 st4">Phosphorus</text>
	<rect x="594" y="714.6" class="st2" width="63.3" height="36.2"/>
	<text transform="matrix(1 0 0 1 610.9958 741.8857)" class="st6 st3 st8">Zn</text>
	<rect x="594.6" y="741.6" class="st2" width="62.8" height="18"/>
	<text transform="matrix(1 0 0 1 614.2891 754.2897)" class="st3 st4">Zinc</text>
	<rect x="225.6" y="489" class="st2" width="62.7" height="36"/>
	<text transform="matrix(1 0 0 1 245.5479 516.1498)"><tspan x="0" y="0" class="st6 st3 st8">B</tspan><tspan x="14.6" y="0" class="st9 st3 st10">1</tspan></text>
	<rect x="225.6" y="516" class="st2" width="62.6" height="18"/>
	<text transform="matrix(1 0 0 1 236.4253 528.6602)" class="st3 st4">Thiamin</text>
	<line class="st5" x1="288.1" y1="489.5" x2="288.1" y2="757.7"/>
	<line class="st5" x1="359.9" y1="489" x2="359.9" y2="757.5"/>
	<line class="st5" x1="503.8" y1="488.8" x2="503.8" y2="757"/>
	<line class="st5" x1="432.4" y1="488.8" x2="432.4" y2="757"/>
	<rect x="225" y="579.1" class="st2" width="62.7" height="36"/>
	<text transform="matrix(1 0 0 1 244.9409 606.2466)"><tspan x="0" y="0" class="st6 st3 st8">B</tspan><tspan x="14.6" y="0" class="st9 st3 st10">3</tspan></text>
	<rect x="225" y="606.1" class="st2" width="62.6" height="18"/>
	<text transform="matrix(1 0 0 1 238.748 618.757)" class="st3 st4">Niacin</text>
	<rect x="225.2" y="624" class="st2" width="62.7" height="45"/>
	<text transform="matrix(1 0 0 1 245.0767 655.6395)"><tspan x="0" y="0" class="st6 st3 st8">B</tspan><tspan x="14.6" y="0" class="st9 st3 st10">6</tspan></text>
	<rect x="225" y="669" class="st2" width="62.7" height="45"/>
	<text transform="matrix(1 0 0 1 240.7666 700.6497)"><tspan x="0" y="0" class="st6 st3 st8">B</tspan><tspan x="14.6" y="0" class="st9 st3 st10">12</tspan></text>
	<rect x="225.1" y="714.2" class="st2" width="62.7" height="45"/>
	<text transform="matrix(1 0 0 1 249.1147 745.8807)" class="st6 st3 st8">E</text>
	<rect x="225.2" y="533.3" class="st2" width="62.7" height="36"/>
	<text transform="matrix(1 0 0 1 245.1313 560.4399)"><tspan x="0" y="0" class="st6 st3 st8">B</tspan><tspan x="14.6" y="0" class="st9 st3 st10">2</tspan></text>
	<rect x="225.2" y="560.3" class="st2" width="62.6" height="18"/>
	<text transform="matrix(1 0 0 1 227.2197 572.9503)" class="st3 st4">Riboflavin</text>
	<rect x="144.1" y="489" class="st2" width="71.9" height="279"/>
	<text transform="matrix(0 -1 1 0 188.0911 757.8926)" class="st6 st3 st7">VITAMINS &amp; MINERALS</text>
</g>
<g id="PEANUTS">
	<polygon class="st11" points="414,156 414,147 405,147 396,147 387,147 387,156 378,156 378,165 378,174 378,183 387,183 387,192 
		396,192 405,192 414,192 414,183 423,183 423,174 423,165 423,156 	"/>
	<polygon class="st11" points="468,228 468,219 459,219 450,219 441,219 441,228 432,228 432,237 432,246 432,255 441,255 441,264 
		450,264 459,264 468,264 468,255 477,255 477,246 477,237 477,228 	"/>
	<polygon class="st11" points="261,300 261,291 252,291 243,291 234,291 234,300 225,300 225,309 225,318 225,327 234,327 234,336 
		243,336 252,336 261,336 261,327 270,327 270,318 270,309 270,300 	"/>
	<polygon class="st11" points="351,372 351,363 342,363 333,363 324,363 324,372 315,372 315,381 315,390 315,399 324,399 324,408 
		333,408 342,408 351,408 351,399 360,399 360,390 360,381 360,372 	"/>
	<rect x="765" y="29.8" class="st2" width="180" height="72"/>
	<text transform="matrix(1 0 0 1 799.6069 88.8195)" class="st12 st3 st13">294</text>
	<rect x="764.7" y="417.7" class="st2" width="180" height="53.6"/>
	<text transform="matrix(1 0 0 1 815.3967 461.3147)"><tspan x="0" y="0" class="st12 st3 st14">2</tspan><tspan x="27" y="0" class="st12 st3 st15"> </tspan><tspan x="38.1" y="0" class="st12 st3 st14">5</tspan><tspan x="65" y="0" class="st12 st3 st16">G</tspan></text>
	<rect x="828.1" y="417.2" class="st2" width="44.3" height="54"/>
	<text transform="matrix(1 0 0 1 836.7505 461.0376)" class="st12 st3 st14">.</text>
	<rect x="315" y="741" class="st11" width="18" height="18"/>
	<path class="st11" d="M288.3,696v18h18v-18H288.3z M301.8,709.5h-9v-9h9V709.5z"/>
	<rect x="333" y="651" class="st11" width="18" height="18"/>
	<rect x="414" y="606" class="st11" width="18" height="18"/>
	<rect x="306" y="561" class="st11" width="18" height="18"/>
	<rect x="297" y="516" class="st11" width="18" height="18"/>
	<rect x="657" y="516" class="st11" width="18" height="18"/>
	<rect x="657" y="561" class="st11" width="18" height="18"/>
	<rect x="675" y="606" class="st11" width="18" height="18"/>
	<rect x="711" y="651" class="st11" width="18" height="18"/>
	<rect x="720" y="696" class="st11" width="18" height="18"/>
	<rect x="684" y="741" class="st11" width="18" height="18"/>
</g>
<g id="SUNFLOWER_copy">
	<rect x="585" y="30.3" class="st2" width="180" height="72"/>
	<text transform="matrix(1 0 0 1 619.6284 89.3253)" class="st17 st3 st13">291</text>
	<rect x="585.3" y="417.9" class="st2" width="180" height="53.6"/>
	<text transform="matrix(1 0 0 1 641.5762 461.5259)"><tspan x="0" y="0" class="st17 st3 st14">14</tspan><tspan x="53.9" y="0" class="st17 st3 st16">G</tspan></text>
	<rect x="648.7" y="417.4" class="st2" width="44.3" height="54"/>
	<text transform="matrix(1 0 0 1 657.3638 461.2488)" class="st18 st3 st14">.</text>
	<polygon class="st19" points="378,147 378,138 369,138 360,138 351,138 351,147 342,147 342,156 342,165 342,174 351,174 351,183 
		360,183 369,183 378,183 378,174 387,174 387,165 387,156 387,147 	"/>
	<polygon class="st19" points="477,219 477,210 468,210 459,210 450,210 450,219 441,219 441,228 441,237 441,246 450,246 450,255 
		459,255 468,255 477,255 477,246 486,246 486,237 486,228 486,219 	"/>
	<polygon class="st19" points="261,291 261,282 252,282 243,282 234,282 234,291 225,291 225,300 225,309 225,318 234,318 234,327 
		243,327 252,327 261,327 261,318 270,318 270,309 270,300 270,291 	"/>
	<polygon class="st19" points="387,363 387,354 378,354 369,354 360,354 360,363 351,363 351,372 351,381 351,390 360,390 360,399 
		369,399 378,399 387,399 387,390 396,390 396,381 396,372 396,363 	"/>
	<rect x="297" y="507" class="st19" width="18" height="18"/>
	<path class="st19" d="M288,687v18h18v-18H288z M301.5,700.5h-9v-9h9V700.5z"/>
	<rect x="306" y="552" class="st19" width="18" height="18"/>
	<rect x="351" y="597" class="st19" width="18" height="18"/>
	<rect x="378" y="642" class="st19" width="18" height="18"/>
	<rect x="450" y="732" class="st19" width="18" height="18"/>
	<rect x="657" y="507" class="st19" width="18" height="18"/>
	<rect x="684" y="552" class="st19" width="18" height="18"/>
	<path class="st19" d="M657,597v18h18v-18H657z M670.5,610.5h-9v-9h9V610.5z"/>
	<rect x="702" y="642" class="st19" width="18" height="18"/>
	<rect x="882" y="687" class="st19" width="18" height="18"/>
	<rect x="720" y="732" class="st19" width="18" height="18"/>
</g>
<g id="ALMONDS">
	<rect x="405.2" y="30.3" class="st2" width="180" height="72"/>
	<text transform="matrix(1 0 0 1 439.8091 89.3253)" class="st20 st3 st13">300</text>
	<rect x="404.6" y="417.5" class="st2" width="180" height="53.6"/>
	<text transform="matrix(1 0 0 1 460.896 461.113)"><tspan x="0" y="0" class="st20 st3 st14">17</tspan><tspan x="53.9" y="0" class="st20 st3 st16">G</tspan></text>
	<rect x="468" y="417" class="st2" width="45" height="54"/>
	<text transform="matrix(1 0 0 1 477.0234 460.8359)" class="st20 st3 st14">.</text>
	<polygon class="st21" points="378,138 378,129 369,129 360,129 351,129 351,138 342,138 342,147 342,156 342,165 351,165 351,174 
		360,174 369,174 378,174 378,165 387,165 387,156 387,147 387,138 	"/>
	<polygon class="st21" points="486,210 486,201 477,201 468,201 459,201 459,210 450,210 450,219 450,228 450,237 459,237 459,246 
		468,246 477,246 486,246 486,237 495,237 495,228 495,219 495,210 	"/>
	<polygon class="st21" points="261,282 261,273 252,273 243,273 234,273 234,282 225,282 225,291 225,300 225,309 234,309 234,318 
		243,318 252,318 261,318 261,309 270,309 270,300 270,291 270,282 	"/>
	<polygon class="st21" points="369,354 369,345 360,345 351,345 342,345 342,354 333,354 333,363 333,372 333,381 342,381 342,390 
		351,390 360,390 369,390 369,381 378,381 378,372 378,363 378,354 	"/>
	<rect x="684" y="489" class="st21" width="18" height="18"/>
	<path class="st21" d="M288,498v18h18v-18H288z M301.5,511.5h-9v-9h9V511.5z"/>
	<path class="st21" d="M288,543v18h18v-18H288z M301.5,556.5h-9v-9h9V556.5z"/>
	<path class="st21" d="M288,588v18h18v-18H288z M301.5,601.5h-9v-9h9V601.5z"/>
	<path class="st21" d="M288,633v18h18v-18H288z M301.5,646.5h-9v-9h9V646.5z"/>
	<path class="st21" d="M288,678v18h18v-18H288z M301.5,691.5h-9v-9h9V691.5z"/>
	<path class="st21" d="M288,723v18h18v-18H288z M301.5,736.5h-9v-9h9V736.5z"/>
	<rect x="684" y="534" class="st21" width="18" height="18"/>
	<path class="st21" d="M657,588v18h18v-18H657z M670.5,601.5h-9v-9h9V601.5z"/>
	<path class="st21" d="M657,633v18h18v-18H657z M670.5,646.5h-9v-9h9V646.5z"/>
	<path class="st21" d="M657,678v18h18v-18H657z M670.5,691.5h-9v-9h9V691.5z"/>
	<path class="st21" d="M657,723v18h18v-18H657z M670.5,736.5h-9v-9h9V736.5z"/>
</g>
<g id="CHIA">
	<polygon class="st22" points="360,129 360,120 351,120 342,120 333,120 333,129 324,129 324,138 324,147 324,156 333,156 333,165 
		342,165 351,165 360,165 360,156 369,156 369,147 369,138 369,129 	"/>
	<rect x="225" y="30" class="st2" width="180" height="72"/>
	<text transform="matrix(1 0 0 1 259.6289 89.0576)" class="st23 st3 st13">243</text>
	<rect x="225.8" y="417.4" class="st2" width="180" height="53.6"/>
	<text transform="matrix(1 0 0 1 295.6079 461.0192)"><tspan x="0" y="0" class="st23 st3 st14">0</tspan><tspan x="27" y="0" class="st23 st3 st16">G</tspan></text>
	<polygon class="st22" points="369,201 369,192 360,192 351,192 342,192 342,201 333,201 333,210 333,219 333,228 342,228 342,237 
		351,237 360,237 369,237 369,228 378,228 378,219 378,210 378,201 	"/>
	<polygon class="st22" points="297,273 297,264 288,264 279,264 270,264 270,273 261,273 261,282 261,291 261,300 270,300 270,309 
		279,309 288,309 297,309 297,300 306,300 306,291 306,282 306,273 	"/>
	<polygon class="st22" points="675.1,344.3 675.1,335.3 666.1,335.3 657.1,335.3 648.1,335.3 648.1,344.3 639.1,344.3 639.1,353.3 
		639.1,362.3 639.1,371.3 648.1,371.3 648.1,380.3 657.1,380.3 666.1,380.3 675.1,380.3 675.1,371.3 684.1,371.3 684.1,362.3 
		684.1,353.3 684.1,344.3 	"/>
	<rect x="720" y="489" class="st22" width="18" height="18"/>
	<rect x="711" y="534" class="st22" width="18" height="18"/>
	<path class="st22" d="M657,579v18h18v-18H657z M670.5,592.5h-9v-9h9V592.5z"/>
	<rect x="765" y="624" class="st22" width="18" height="18"/>
	<rect x="819" y="669" class="st22" width="18" height="18"/>
	<rect x="711" y="714.6" class="st22" width="18" height="17.4"/>
	<rect x="360" y="579" class="st22" width="18" height="18"/>
	<rect x="360" y="489" class="st22" width="18" height="18"/>
	<rect x="306" y="534" class="st22" width="18" height="18"/>
	<rect x="288" y="714" class="st22" width="18" height="18"/>
	<path class="st22" d="M288,624v18h18v-18H288z M301.5,637.5h-9v-9h9V637.5z"/>
	<path class="st22" d="M288,669v18h18v-18H288z M301.5,682.5h-9v-9h9V682.5z"/>
</g>
<g id="top_lines">
	<line class="st24" x1="224.6" y1="192.2" x2="944.6" y2="192.2"/>
	<line class="st24" x1="224.4" y1="263.1" x2="944.4" y2="263.1"/>
	<line class="st24" x1="224.4" y1="335.6" x2="944.4" y2="335.6"/>
	<path class="st24" d="M944.6,30H225c0,0,0,63.6,0,72h719.6V30z"/>
	<polygon class="st24" points="224.5,120.5 225.5,407.5 944.5,408.5 944.5,119.5 	"/>
	<polygon class="st24" points="944.6,417.2 225.5,417.5 225.5,471.5 944.7,471.4 	"/>
	<line class="st24" x1="594" y1="534.6" x2="944.8" y2="534.3"/>
	<line class="st24" x1="594.1" y1="578.8" x2="945" y2="578.5"/>
	<line class="st24" x1="594.3" y1="623.8" x2="945.2" y2="623.5"/>
	<line class="st24" x1="594.4" y1="669" x2="945.2" y2="668.7"/>
	<line class="st24" x1="594.4" y1="714.5" x2="945.2" y2="714.2"/>
	<rect x="593.5" y="489.5" class="st24" width="352" height="270"/>
	<line class="st24" x1="224.5" y1="534.5" x2="575.6" y2="534.3"/>
	<line class="st24" x1="224.7" y1="578.7" x2="575.7" y2="578.4"/>
	<line class="st24" x1="224.9" y1="623.7" x2="575.9" y2="623.4"/>
	<line class="st24" x1="224.9" y1="668.9" x2="576" y2="668.6"/>
	<line class="st24" x1="224.9" y1="714.4" x2="576" y2="714.2"/>
	<rect x="225.2" y="489.4" class="st24" width="350.3" height="270"/>
</g>
</svg>
