<?xml version="1.0" encoding="utf-8"?>
<!-- Generator: Adobe Illustrator 25.2.3, SVG Export Plug-In . SVG Version: 6.00 Build 0)  -->
<svg version="1.1" xmlns="http://www.w3.org/2000/svg" xmlns:xlink="http://www.w3.org/1999/xlink" x="0px" y="0px"
	 viewBox="0 0 1108 791" style="enable-background:new 0 0 1108 791;" xml:space="preserve">
<style type="text/css">
	.st0{opacity:0.15;}
	.st1{opacity:0.15;fill:#BEBFB9;}
	.st2{fill:none;stroke:#E1E1DF;stroke-miterlimit:10;}
	.st3{fill:#03464F;}
	.st4{fill:#026385;}
	.st5{fill:#018F9F;}
	.st6{fill:#35BCC0;}
	.st7{fill:none;stroke:#606161;stroke-miterlimit:10;}
	.st8{fill:none;}
	.st9{stroke:#000000;stroke-miterlimit:10;}
	.st10{font-family:'VCROSDMono';}
	.st11{font-size:22px;}
	.st12{font-size:25px;}
	.st13{font-size:10px;}
	.st14{stroke:#000000;stroke-width:0.5;stroke-miterlimit:10;}
	.st15{font-size:14px;}
	.st16{fill:#35BCC0;stroke:#35BCC0;stroke-width:0.5;stroke-miterlimit:10;}
	.st17{font-size:63px;}
	.st18{font-size:46px;}
	.st19{font-size:23px;}
</style>
<g id="layout">
</g>
<g id="GUIDES">
</g>
<g id="PEANUTS">
</g>
<g id="SUNFLOWER_copy">
</g>
<g id="ALMONDS">
</g>
<g id="CHIA">
</g>
<g id="top_lines">
	<g>
		<line class="st2" x1="436.5" y1="414" x2="436.5" y2="467.5"/>
		<line class="st2" x1="617" y1="414" x2="617" y2="467.5"/>
		<line class="st2" x1="797" y1="414" x2="797" y2="467.5"/>
		<line class="st2" x1="436.8" y1="26.5" x2="436.8" y2="98.5"/>
		<line class="st2" x1="617.2" y1="26.5" x2="617.2" y2="98.5"/>
		<line class="st2" x1="797.2" y1="26.5" x2="797.2" y2="98.5"/>
		<line class="st2" x1="436.8" y1="116.3" x2="436.8" y2="404.1"/>
		<line class="st2" x1="616.8" y1="116.5" x2="616.8" y2="404.3"/>
		<line class="st2" x1="616.3" y1="117.1" x2="616.3" y2="404.9"/>
		<line class="st2" x1="797.1" y1="116.5" x2="797.1" y2="404.3"/>
		<rect x="131.1" y="116.5" class="st8" width="107.7" height="72"/>
		<text transform="matrix(1 0 0 1 148.5158 160.5517)" class="st9 st10 st11">PROTEIN</text>
		<rect x="131.3" y="188.2" class="st8" width="107.5" height="72"/>
		<text transform="matrix(1 0 0 1 200.0776 232.2115)" class="st9 st10 st11">FAT</text>
		<rect x="131.3" y="260.2" class="st8" width="107.5" height="72"/>
		<text transform="matrix(1 0 0 1 174.297 304.2115)" class="st9 st10 st11">CARBS</text>
		<rect x="130.8" y="332.1" class="st8" width="107.5" height="72"/>
		<text transform="matrix(1 0 0 1 173.794 376.1664)" class="st9 st10 st11">FIBER</text>
		<rect x="130.8" y="413.5" class="st8" width="107.5" height="53.6"/>
		<text transform="matrix(1 0 0 1 173.7927 448.3592)" class="st9 st10 st11">SUGAR</text>
		<rect x="130.8" y="26.5" class="st8" width="108" height="72"/>
		<text transform="matrix(1 0 0 1 135.6249 70.5516)" class="st9 st10 st11">CALORIES</text>
		<rect x="626.1" y="485.5" class="st8" width="62.7" height="36"/>
		<text transform="matrix(1 0 0 1 642.8118 512.6498)" class="st9 st10 st12">Ca</text>
		<rect x="626.1" y="512.5" class="st8" width="62.6" height="18"/>
		<text transform="matrix(1 0 0 1 636.9116 525.1602)" class="st10 st13">Calcium</text>
		<line class="st2" x1="688.6" y1="486.1" x2="688.6" y2="754.2"/>
		<line class="st2" x1="761.4" y1="485.7" x2="761.4" y2="754"/>
		<line class="st2" x1="904.3" y1="487.5" x2="904.3" y2="755.5"/>
		<line class="st2" x1="832.9" y1="487.5" x2="832.9" y2="755.5"/>
		<rect x="626.1" y="530.9" class="st8" width="62.7" height="36"/>
		<text transform="matrix(1 0 0 1 642.8254 558.0195)" class="st9 st10 st12">Fe</text>
		<rect x="626.1" y="557.9" class="st8" width="62.6" height="18"/>
		<text transform="matrix(1 0 0 1 645.7163 570.5298)" class="st10 st13">Iron</text>
		<rect x="625.8" y="575.6" class="st8" width="62.7" height="36"/>
		<text transform="matrix(1 0 0 1 642.4287 602.7353)" class="st9 st10 st12">Na</text>
		<rect x="625.8" y="602.6" class="st8" width="62.6" height="18"/>
		<text transform="matrix(1 0 0 1 639.4592 615.2452)" class="st10 st13">Sodium</text>
		<rect x="625.8" y="620.8" class="st8" width="62.7" height="36"/>
		<text transform="matrix(1 0 0 1 642.5046 647.9579)" class="st9 st10 st12">Mg</text>
		<rect x="625.8" y="647.8" class="st8" width="62.6" height="18"/>
		<text transform="matrix(1 0 0 1 630.7461 660.4683)" class="st10 st13">Magnesium</text>
		<rect x="626.1" y="665.3" class="st8" width="62.7" height="36.2"/>
		<text transform="matrix(1 0 0 1 650.0579 692.5431)" class="st9 st10 st12">P</text>
		<rect x="626.1" y="692.3" class="st8" width="62.7" height="18"/>
		<text transform="matrix(1 0 0 1 628.105 704.9465)" class="st10 st13">Phosphorus</text>
		<rect x="625.8" y="711.1" class="st8" width="63.3" height="36.2"/>
		<text transform="matrix(1 0 0 1 642.7458 738.3856)" class="st9 st10 st12">Zn</text>
		<rect x="626.4" y="738.1" class="st8" width="62.8" height="18"/>
		<text transform="matrix(1 0 0 1 646.0391 750.7896)" class="st10 st13">Zinc</text>
		<rect x="257.4" y="485.5" class="st8" width="62.7" height="36"/>
		<text transform="matrix(1 0 0 1 277.298 512.6497)"><tspan x="0" y="0" class="st9 st10 st12">B</tspan><tspan x="14.6" y="0" class="st14 st10 st15">1</tspan></text>
		<rect x="257.4" y="512.5" class="st8" width="62.6" height="18"/>
		<text transform="matrix(1 0 0 1 268.1752 525.16)" class="st10 st13">Thiamin</text>
		<line class="st2" x1="319.9" y1="486" x2="319.9" y2="754.2"/>
		<line class="st2" x1="391.7" y1="485.5" x2="391.7" y2="754"/>
		<line class="st2" x1="535.6" y1="485.3" x2="535.6" y2="753.5"/>
		<line class="st2" x1="464.1" y1="485.3" x2="464.1" y2="753.5"/>
		<rect x="256.8" y="575.6" class="st8" width="62.7" height="36"/>
		<text transform="matrix(1 0 0 1 276.691 602.7464)"><tspan x="0" y="0" class="st9 st10 st12">B</tspan><tspan x="14.6" y="0" class="st14 st10 st15">3</tspan></text>
		<rect x="256.8" y="602.6" class="st8" width="62.6" height="18"/>
		<text transform="matrix(1 0 0 1 270.4979 615.2568)" class="st10 st13">Niacin</text>
		<rect x="256.9" y="620.5" class="st8" width="62.7" height="45"/>
		<text transform="matrix(1 0 0 1 276.8267 652.1393)"><tspan x="0" y="0" class="st9 st10 st12">B</tspan><tspan x="14.6" y="0" class="st14 st10 st15">6</tspan></text>
		<rect x="256.7" y="665.5" class="st8" width="62.7" height="45"/>
		<text transform="matrix(1 0 0 1 272.5168 697.1495)"><tspan x="0" y="0" class="st9 st10 st12">B</tspan><tspan x="14.6" y="0" class="st14 st10 st15">12</tspan></text>
		<rect x="256.8" y="710.7" class="st8" width="62.7" height="45"/>
		<text transform="matrix(1 0 0 1 280.8647 742.3806)" class="st9 st10 st12">E</text>
		<rect x="257" y="529.8" class="st8" width="62.7" height="36"/>
		<text transform="matrix(1 0 0 1 276.8813 556.9398)"><tspan x="0" y="0" class="st9 st10 st12">B</tspan><tspan x="14.6" y="0" class="st14 st10 st15">2</tspan></text>
		<rect x="257" y="556.8" class="st8" width="62.6" height="18"/>
		<text transform="matrix(1 0 0 1 258.9695 569.4501)" class="st10 st13">Riboflavin</text>
		<rect x="175.8" y="485.5" class="st8" width="71.9" height="279"/>
		<text transform="matrix(4.489659e-11 -1 1 4.489659e-11 219.8411 754.3926)" class="st9 st10 st11">VITAMINS &amp; MINERALS</text>
		<polygon class="st6" points="391.8,125.5 391.8,116.5 382.8,116.5 373.8,116.5 364.8,116.5 364.8,125.5 355.8,125.5 355.8,134.5 
			355.8,143.5 355.8,152.5 364.8,152.5 364.8,161.5 373.8,161.5 382.8,161.5 391.8,161.5 391.8,152.5 400.8,152.5 400.8,143.5 
			400.8,134.5 400.8,125.5 		"/>
		<rect x="256.8" y="26.5" class="st8" width="180" height="72"/>
		<text transform="matrix(1 0 0 1 291.3789 85.5574)" class="st16 st10 st17">243</text>
		<rect x="257.6" y="413.9" class="st8" width="180" height="53.6"/>
		<text transform="matrix(1 0 0 1 327.3581 457.519)"><tspan x="0" y="0" class="st16 st10 st18">0</tspan><tspan x="27" y="0" class="st16 st10 st19">G</tspan></text>
		<polygon class="st6" points="400.8,197.5 400.8,188.5 391.8,188.5 382.8,188.5 373.8,188.5 373.8,197.5 364.8,197.5 364.8,206.5 
			364.8,215.5 364.8,224.5 373.8,224.5 373.8,233.5 382.8,233.5 391.8,233.5 400.8,233.5 400.8,224.5 409.8,224.5 409.8,215.5 
			409.8,206.5 409.8,197.5 		"/>
		<polygon class="st6" points="328.8,269.5 328.8,260.5 319.8,260.5 310.8,260.5 301.8,260.5 301.8,269.5 292.8,269.5 292.8,278.5 
			292.8,287.5 292.8,296.5 301.8,296.5 301.8,305.5 310.8,305.5 319.8,305.5 328.8,305.5 328.8,296.5 337.8,296.5 337.8,287.5 
			337.8,278.5 337.8,269.5 		"/>
		<polygon class="st6" points="706.9,340.8 706.9,331.8 697.9,331.8 688.9,331.8 679.9,331.8 679.9,340.8 670.9,340.8 670.9,349.8 
			670.9,358.8 670.9,367.8 679.9,367.8 679.9,376.8 688.9,376.8 697.9,376.8 706.9,376.8 706.9,367.8 715.9,367.8 715.9,358.8 
			715.9,349.8 715.9,340.8 		"/>
		<rect x="751.8" y="485.5" class="st6" width="18" height="18"/>
		<rect x="742.8" y="530.5" class="st6" width="18" height="18"/>
		<path class="st6" d="M688.8,575.5v18h18v-18H688.8z M702.2,589h-9v-9h9V589z"/>
		<rect x="796.8" y="620.5" class="st6" width="18" height="18"/>
		<rect x="850.8" y="665.5" class="st6" width="18" height="18"/>
		<rect x="742.8" y="711.1" class="st6" width="18" height="17.4"/>
		<rect x="391.8" y="575.5" class="st6" width="18" height="18"/>
		<rect x="391.8" y="485.5" class="st6" width="18" height="18"/>
		<rect x="337.8" y="530.5" class="st6" width="18" height="18"/>
		<rect x="319.8" y="710.5" class="st6" width="18" height="18"/>
		<path class="st6" d="M319.8,620.5v18h18v-18H319.8z M333.2,634h-9v-9h9V634z"/>
		<path class="st6" d="M319.8,665.5v18h18v-18H319.8z M333.2,679h-9v-9h9V679z"/>
		<line class="st7" x1="256.3" y1="188.7" x2="976.3" y2="188.7"/>
		<line class="st7" x1="256.1" y1="259.6" x2="976.1" y2="259.6"/>
		<line class="st7" x1="256.1" y1="332.1" x2="976.1" y2="332.1"/>
		<path class="st7" d="M976.3,26.5H256.8c0,0,0,63.6,0,72h719.6V26.5z"/>
		<polygon class="st7" points="256.2,117 257.2,404 976.3,405 976.3,116 		"/>
		<polygon class="st7" points="976.3,413.7 257.2,414 257.2,468 976.4,467.9 		"/>
		<line class="st7" x1="625.8" y1="531.1" x2="976.6" y2="530.8"/>
		<line class="st7" x1="625.9" y1="575.3" x2="976.7" y2="575"/>
		<line class="st7" x1="626.1" y1="620.3" x2="976.9" y2="620"/>
		<line class="st7" x1="626.1" y1="665.5" x2="977" y2="665.2"/>
		<line class="st7" x1="626.2" y1="711" x2="977" y2="710.7"/>
		<rect x="625.2" y="486" class="st7" width="352" height="270"/>
		<line class="st7" x1="256.3" y1="531" x2="607.3" y2="530.8"/>
		<line class="st7" x1="256.4" y1="575.2" x2="607.5" y2="574.9"/>
		<line class="st7" x1="256.6" y1="620.2" x2="607.7" y2="619.9"/>
		<line class="st7" x1="256.7" y1="665.4" x2="607.7" y2="665.1"/>
		<line class="st7" x1="256.7" y1="710.9" x2="607.8" y2="710.7"/>
		<rect x="256.9" y="485.9" class="st7" width="350.3" height="270"/>
	</g>
</g>
</svg>
