<?xml version="1.0" encoding="utf-8"?>
<!-- Generator: Adobe Illustrator 25.2.3, SVG Export Plug-In . SVG Version: 6.00 Build 0)  -->
<svg version="1.1" xmlns="http://www.w3.org/2000/svg" xmlns:xlink="http://www.w3.org/1999/xlink" x="0px" y="0px"
	 viewBox="0 0 800 580" style="enable-background:new 0 0 800 580;" xml:space="preserve">
<style type="text/css">
	.st0{opacity:0.41;}
	.st1{opacity:0.46;}
	.st2{fill:#A8B4A5;}
	.st3{opacity:0.37;}
	.st4{opacity:0.5;}
	.st5{fill:#296D3C;}
	.st6{fill:#38874B;}
	.st7{fill:#D2C6B1;}
	.st8{fill:#8C2429;}
	.st9{fill:#41B5B1;}
	.st10{fill:#E3DBCE;}
	.st11{fill:#EFBD38;}
	.st12{fill:#D9CEB8;}
	.st13{fill:#343533;}
	.st14{fill:#B16447;}
	.st15{fill:#D18238;}
	.st16{fill:#198691;}
	.st17{fill:#613C34;}
	.st18{fill:#EDBC3A;}
	.st19{fill:#FFFFFF;}
	.st20{clip-path:url(#SVGID_2_);fill:#E3DBCE;}
	.st21{clip-path:url(#SVGID_2_);}
	.st22{clip-path:url(#SVGID_2_);fill:#613C34;}
	.st23{clip-path:url(#SVGID_2_);fill:#B16447;}
	.st24{fill:#153C41;}
	.st25{fill:#1E512E;}
	.st26{fill:#1D5B76;}
	.st27{fill:#633D34;}
	.st28{fill:#BE2830;}
	.st29{fill:#E3963A;}
	.st30{fill:#DD5832;}
	.st31{clip-path:url(#SVGID_4_);}
	.st32{fill:#4B4B4B;}
	.st33{fill:#9CA051;}
	.st34{fill:#FDE22F;}
	.st35{fill:#00964C;}
	.st36{fill:#F69C33;}
	.st37{fill:#FBD630;}
	.st38{fill:#9F672F;}
	.st39{fill:#E3C395;}
	.st40{fill:#E3DDD4;}
	.st41{fill:#7F7A74;}
	.st42{fill:#BFB4A9;}
	.st43{fill:#716454;}
	.st44{fill:#010101;}
	.st45{fill:#33A04D;}
	.st46{fill:#EBD0A3;}
	.st47{fill:none;stroke:#231F20;stroke-miterlimit:10;}
	.st48{fill:#96BC50;}
	.st49{fill:#D73D94;}
	.st50{fill:#EFB534;}
	.st51{fill:#B77366;}
	.st52{fill:#668B40;}
	.st53{fill:#15120F;}
	.st54{clip-path:url(#SVGID_6_);fill:#A8B4A5;}
	.st55{clip-path:url(#SVGID_6_);}
	.st56{clip-path:url(#SVGID_6_);fill:#E3DBCE;}
	.st57{clip-path:url(#SVGID_6_);fill:#BAB1A1;}
	.st58{clip-path:url(#SVGID_6_);fill:#1D5B76;}
	.st59{clip-path:url(#SVGID_6_);fill:#8C2429;}
	.st60{clip-path:url(#SVGID_6_);fill:#77736A;}
	.st61{fill:#314C2C;}
	.st62{fill:#BF3E3B;}
	.st63{clip-path:url(#SVGID_6_);fill:#38874B;}
	.st64{clip-path:url(#SVGID_6_);fill:#296D3C;}
	.st65{clip-path:url(#SVGID_6_);fill:#1E512E;}
</style>
<g id="Layer_1">
</g>
<g id="Layer_5">
</g>
<g id="Layer_2">
</g>
<g id="Layer_3">
</g>
<g id="Layer_7">
</g>
<g id="Layer_4">
</g>
<g id="Layer_6">
	<g>
		<defs>
			<rect id="SVGID_5_" x="-2" width="802" height="580"/>
		</defs>
		<clipPath id="SVGID_2_">
			<use xlink:href="#SVGID_5_"  style="overflow:visible;"/>
		</clipPath>
		<rect x="0" y="-45" style="clip-path:url(#SVGID_2_);fill:#A8B4A5;" width="800" height="625"/>
		<g class="st21">
			<g>
				<rect x="569.5" y="9" class="st30" width="4.5" height="4.5"/>
				<polygon class="st30" points="556,-31.5 560.5,-31.5 560.5,-27 565,-27 565,-22.5 565,-18 565,-13.5 569.5,-13.5 569.5,4.5 
					569.5,9 565,9 560.5,9 560.5,4.5 547,4.5 547,0 542.5,0 533.5,0 533.5,-4.5 529,-4.5 529,-9 524.5,-9 524.5,-13.5 524.5,-18 
					524.5,-31.5 				"/>
			</g>
			<g>
				<rect x="547" y="27" class="st15" width="4.5" height="4.5"/>
				<polygon class="st15" points="533.5,9 533.5,13.5 538,13.5 538,18 542.5,18 542.5,22.5 547,22.5 547,27 542.5,27 538,27 
					538,22.5 524.5,22.5 524.5,18 520,18 520,13.5 515.5,13.5 515.5,9 				"/>
			</g>
			<polygon class="st15" points="461.5,40.5 466,40.5 470.5,40.5 470.5,45 470.5,49.5 470.5,72 466,72 466,63 461.5,63 461.5,54 
				457,54 457,49.5 457,45 457,40.5 			"/>
			<g>
				<rect x="524.5" y="63" class="st30" width="4.5" height="4.5"/>
				<polygon class="st30" points="511,22.5 515.5,22.5 515.5,27 520,27 520,31.5 520,36 520,40.5 524.5,40.5 524.5,58.5 524.5,63 
					520,63 515.5,63 515.5,58.5 502,58.5 502,54 497.5,54 488.5,54 488.5,49.5 484,49.5 484,45 479.5,45 479.5,40.5 479.5,36 
					479.5,22.5 				"/>
			</g>
			<g>
				<rect x="263.5" y="9" class="st30" width="4.5" height="4.5"/>
				<polygon class="st30" points="281.5,-31.5 277,-31.5 277,-27 272.5,-27 272.5,-22.5 272.5,-18 272.5,-13.5 268,-13.5 268,4.5 
					268,9 272.5,9 277,9 277,4.5 290.5,4.5 290.5,0 295,0 304,0 304,-4.5 308.5,-4.5 308.5,-9 313,-9 313,-13.5 313,-18 313,-31.5 
									"/>
			</g>
			<g>
				<rect x="286" y="27" class="st15" width="4.5" height="4.5"/>
				<polygon class="st15" points="304,9 304,13.5 299.5,13.5 299.5,18 295,18 295,22.5 290.5,22.5 290.5,27 295,27 299.5,27 
					299.5,22.5 313,22.5 313,18 317.5,18 317.5,13.5 322,13.5 322,9 				"/>
			</g>
			<polygon class="st15" points="376,40.5 371.5,40.5 367,40.5 367,45 367,49.5 367,72 371.5,72 371.5,63 376,63 376,54 380.5,54 
				380.5,49.5 380.5,45 380.5,40.5 			"/>
			<g>
				<rect x="308.5" y="63" class="st30" width="4.5" height="4.5"/>
				<polygon class="st30" points="326.5,22.5 322,22.5 322,27 317.5,27 317.5,31.5 317.5,36 317.5,40.5 313,40.5 313,58.5 313,63 
					317.5,63 322,63 322,58.5 335.5,58.5 335.5,54 340,54 349,54 349,49.5 353.5,49.5 353.5,45 358,45 358,40.5 358,36 358,22.5 
									"/>
			</g>
			<polygon class="st11" points="556,-112.5 556,-148.5 551.5,-148.5 551.5,-162 542.5,-162 542.5,-166.5 542.5,-171 542.5,-175.5 
				538,-175.5 533.5,-175.5 533.5,-184.5 529,-184.5 529,-189 524.5,-189 524.5,-193.5 515.5,-193.5 515.5,-198 511,-198 
				511,-202.5 502,-202.5 502,-211.5 488.5,-211.5 488.5,-216 470.5,-216 470.5,-220.5 466,-220.5 466,-225 425.5,-225 421,-225 
				416.5,-225 412,-225 371.5,-225 371.5,-220.5 367,-220.5 367,-216 349,-216 349,-211.5 335.5,-211.5 335.5,-202.5 326.5,-202.5 
				326.5,-198 322,-198 322,-193.5 313,-193.5 313,-189 308.5,-189 308.5,-184.5 304,-184.5 304,-175.5 299.5,-175.5 295,-175.5 
				295,-171 295,-166.5 295,-162 286,-162 286,-148.5 281.5,-148.5 281.5,-112.5 277,-112.5 277,-103.5 277,-81 277,-72 281.5,-72 
				281.5,-36 286,-36 286,-22.5 295,-22.5 295,-18 295,-13.5 295,-9 299.5,-9 304,-9 304,0 308.5,0 308.5,4.5 313,4.5 313,9 322,9 
				322,13.5 326.5,13.5 326.5,18 335.5,18 335.5,27 349,27 349,31.5 367,31.5 367,36 371.5,36 371.5,40.5 412,40.5 416.5,40.5 
				421,40.5 425.5,40.5 466,40.5 466,36 470.5,36 470.5,31.5 488.5,31.5 488.5,27 502,27 502,18 511,18 511,13.5 515.5,13.5 
				515.5,9 524.5,9 524.5,4.5 529,4.5 529,0 533.5,0 533.5,-9 538,-9 542.5,-9 542.5,-13.5 542.5,-18 542.5,-22.5 551.5,-22.5 
				551.5,-36 556,-36 556,-72 560.5,-72 560.5,-81 560.5,-103.5 560.5,-112.5 			"/>
			<polygon class="st30" points="382.8,45 387.2,45 387.2,49.5 391.8,49.5 391.8,54 391.8,63 391.8,67.5 396.2,67.5 396.2,81 
				400.8,81 400.8,90 405.2,90 405.2,94.5 405.2,103.5 409.8,103.5 409.8,112.5 414.2,112.5 414.2,121.5 418.8,121.5 418.8,112.5 
				423.2,112.5 423.2,103.5 427.8,103.5 427.8,94.5 427.8,90 432.2,90 432.2,81 436.8,81 436.8,67.5 441.2,67.5 441.2,63 441.2,54 
				441.2,49.5 445.8,49.5 445.8,45 450.2,45 450.2,40.5 445.8,40.5 387.2,40.5 382.8,40.5 			"/>
		</g>
		<polygon class="st20" points="763,477 763,405 727,405 727,333 695.5,333 695.5,261 637,261 637,216 632.5,216 632.5,184.5 
			628,184.5 628,166.5 623.5,166.5 623.5,157.5 623.5,139.5 619,139.5 619,126 614.5,126 614.5,108 610,108 610,94.5 605.5,94.5 
			601,94.5 533.5,94.5 529,94.5 461.5,94.5 457,94.5 452.5,94.5 452.5,108 448,108 448,126 443.5,126 443.5,139.5 439,139.5 
			439,157.5 439,166.5 434.5,166.5 434.5,184.5 430,184.5 430,216 403,216 403,184.5 398.5,184.5 398.5,166.5 394,166.5 394,157.5 
			394,139.5 389.5,139.5 389.5,126 385,126 385,108 380.5,108 380.5,94.5 376,94.5 371.5,94.5 304,94.5 299.5,94.5 232,94.5 
			227.5,94.5 223,94.5 223,108 218.5,108 218.5,126 214,126 214,139.5 209.5,139.5 209.5,157.5 209.5,166.5 205,166.5 205,184.5 
			200.5,184.5 200.5,216 196,216 196,261 137.5,261 137.5,333 106,333 106,405 70,405 70,477 38.5,477 38.5,549 196,549 218.5,549 
			371.5,549 461.5,549 614.5,549 637,549 794.5,549 794.5,477 		"/>
		<rect x="263.5" y="202.5" style="clip-path:url(#SVGID_2_);fill:#BAB1A1;" width="81" height="31.5"/>
		<rect x="232" y="81" style="clip-path:url(#SVGID_2_);fill:#1D5B76;" width="144" height="13.5"/>
		<rect x="241" y="103.5" style="clip-path:url(#SVGID_2_);fill:#1D5B76;" width="9" height="22.5"/>
		<rect x="259" y="103.5" style="clip-path:url(#SVGID_2_);fill:#1D5B76;" width="9" height="22.5"/>
		<rect x="277" y="103.5" style="clip-path:url(#SVGID_2_);fill:#1D5B76;" width="9" height="22.5"/>
		<rect x="295" y="103.5" style="clip-path:url(#SVGID_2_);fill:#1D5B76;" width="9" height="22.5"/>
		<rect x="313" y="103.5" style="clip-path:url(#SVGID_2_);fill:#1D5B76;" width="9" height="22.5"/>
		<rect x="331" y="103.5" style="clip-path:url(#SVGID_2_);fill:#1D5B76;" width="9" height="22.5"/>
		<rect x="349" y="103.5" style="clip-path:url(#SVGID_2_);fill:#1D5B76;" width="9" height="22.5"/>
		<rect x="227.5" y="148.5" style="clip-path:url(#SVGID_2_);fill:#1D5B76;" width="9" height="31.5"/>
		<rect x="245.5" y="148.5" style="clip-path:url(#SVGID_2_);fill:#1D5B76;" width="9" height="31.5"/>
		<rect x="263.5" y="148.5" style="clip-path:url(#SVGID_2_);fill:#1D5B76;" width="9" height="31.5"/>
		<rect x="281.5" y="148.5" style="clip-path:url(#SVGID_2_);fill:#1D5B76;" width="9" height="31.5"/>
		<rect x="299.5" y="148.5" style="clip-path:url(#SVGID_2_);fill:#1D5B76;" width="9" height="31.5"/>
		<rect x="317.5" y="148.5" style="clip-path:url(#SVGID_2_);fill:#1D5B76;" width="9" height="31.5"/>
		<rect x="335.5" y="148.5" style="clip-path:url(#SVGID_2_);fill:#1D5B76;" width="9" height="31.5"/>
		<rect x="353.5" y="148.5" style="clip-path:url(#SVGID_2_);fill:#1D5B76;" width="9" height="31.5"/>
		<rect x="371.5" y="148.5" style="clip-path:url(#SVGID_2_);fill:#1D5B76;" width="9" height="31.5"/>
		<rect x="263.5" y="202.5" style="clip-path:url(#SVGID_2_);fill:#8C2429;" width="81" height="4.5"/>
		<rect x="200.5" y="229.5" style="clip-path:url(#SVGID_2_);fill:#8C2429;" width="54" height="13.5"/>
		
			<rect x="358" y="229.5" transform="matrix(-1 -1.224647e-16 1.224647e-16 -1 837.5 472.5)" style="clip-path:url(#SVGID_2_);fill:#8C2429;" width="121.5" height="13.5"/>
		<rect x="290.5" y="211.5" style="clip-path:url(#SVGID_2_);fill:#77736A;" width="27" height="18"/>
		<rect x="322" y="211.5" style="clip-path:url(#SVGID_2_);fill:#77736A;" width="13.5" height="18"/>
		<rect x="272.5" y="211.5" style="clip-path:url(#SVGID_2_);fill:#77736A;" width="13.5" height="18"/>
		<rect x="493" y="202.5" style="clip-path:url(#SVGID_2_);fill:#BAB1A1;" width="81" height="31.5"/>
		<rect x="493" y="202.5" style="clip-path:url(#SVGID_2_);fill:#8C2429;" width="81" height="4.5"/>
		<rect x="520" y="211.5" style="clip-path:url(#SVGID_2_);fill:#77736A;" width="27" height="18"/>
		<rect x="551.5" y="211.5" style="clip-path:url(#SVGID_2_);fill:#77736A;" width="13.5" height="18"/>
		<rect x="502" y="211.5" style="clip-path:url(#SVGID_2_);fill:#77736A;" width="13.5" height="18"/>
		<rect x="583" y="229.5" style="clip-path:url(#SVGID_2_);fill:#8C2429;" width="54" height="13.5"/>
		<rect x="218.5" y="256.5" style="clip-path:url(#SVGID_2_);fill:#BAB1A1;" width="180" height="301.5"/>
		<rect x="457" y="81" style="clip-path:url(#SVGID_2_);fill:#8C2429;" width="144" height="13.5"/>
		<polygon style="clip-path:url(#SVGID_2_);fill:#8C2429;" points="614.5,175.5 614.5,157.5 610,157.5 610,153 605.5,153 605.5,144 
			457,144 457,153 452.5,153 452.5,157.5 448,157.5 448,175.5 443.5,175.5 443.5,180 452.5,180 470.5,180 587.5,180 614.5,180 
			619,180 619,175.5 		"/>
		<polygon style="clip-path:url(#SVGID_2_);fill:#8C2429;" points="601,121.5 601,112.5 596.5,112.5 596.5,108 466,108 466,112.5 
			461.5,112.5 461.5,121.5 457,121.5 457,126 461.5,126 601,126 605.5,126 605.5,121.5 		"/>
		<g class="st21">
			<rect x="227.5" y="265.5" class="st10" width="162" height="27"/>
			<rect x="227.5" y="301.5" class="st10" width="162" height="27"/>
			<rect x="227.5" y="337.5" class="st10" width="162" height="27"/>
			<rect x="227.5" y="373.5" class="st10" width="162" height="27"/>
			<rect x="227.5" y="409.5" class="st10" width="162" height="27"/>
			<rect x="227.5" y="445.5" class="st10" width="162" height="27"/>
			<rect x="227.5" y="481.5" class="st10" width="162" height="27"/>
			<rect x="227.5" y="517.5" class="st10" width="162" height="27"/>
		</g>
		<rect x="443.5" y="256.5" style="clip-path:url(#SVGID_2_);fill:#BAB1A1;" width="180" height="301.5"/>
		<g class="st21">
			<rect x="452.5" y="265.5" class="st10" width="162" height="27"/>
			<rect x="452.5" y="301.5" class="st10" width="162" height="27"/>
			<rect x="452.5" y="337.5" class="st10" width="162" height="27"/>
			<rect x="452.5" y="373.5" class="st10" width="162" height="27"/>
			<rect x="452.5" y="409.5" class="st10" width="162" height="27"/>
			<rect x="452.5" y="445.5" class="st10" width="162" height="27"/>
			<rect x="452.5" y="481.5" class="st10" width="162" height="27"/>
			<rect x="452.5" y="517.5" class="st10" width="162" height="27"/>
		</g>
		<g class="st21">
			<polygon class="st33" points="178,301.5 178,297 173.5,297 173.5,288 169,288 169,279 164.5,279 164.5,274.5 160,274.5 
				155.5,274.5 151,274.5 151,270 146.5,270 146.5,274.5 142,274.5 137.5,274.5 133,274.5 133,279 128.5,279 128.5,283.5 124,283.5 
				124,288 119.5,288 119.5,297 115,297 115,306 110.5,306 110.5,342 115,342 115,355.5 119.5,355.5 119.5,364.5 124,364.5 124,369 
				128.5,369 128.5,373.5 133,373.5 133,382.5 137.5,382.5 137.5,391.5 124,391.5 124,396 119.5,396 119.5,400.5 115,400.5 115,405 
				110.5,405 110.5,409.5 106,409.5 106,418.5 101.5,418.5 101.5,427.5 97,427.5 97,459 97,472.5 101.5,472.5 101.5,486 92.5,486 
				92.5,481.5 92.5,477 88,477 88,468 88,445.5 83.5,445.5 83.5,432 79,432 79,427.5 74.5,427.5 74.5,423 70,423 70,418.5 
				65.5,418.5 65.5,414 61,414 61,409.5 56.5,409.5 56.5,405 52,405 47.5,405 47.5,400.5 25,400.5 20.5,400.5 20.5,405 16,405 
				16,409.5 11.5,409.5 11.5,418.5 7,418.5 7,450 11.5,450 11.5,463.5 16,463.5 16,468 20.5,468 20.5,472.5 25,472.5 25,477 
				29.5,477 29.5,481.5 34,481.5 34,486 38.5,486 38.5,490.5 52,490.5 52,495 61,495 61,499.5 70,499.5 70,513 65.5,513 65.5,549 
				70,549 70,562.5 74.5,562.5 74.5,567 83.5,567 83.5,558 88,558 92.5,558 115,558 119.5,558 124,558 124,549 128.5,549 133,549 
				137.5,549 137.5,522 133,522 133,517.5 128.5,517.5 128.5,508.5 124,508.5 124,499.5 124,486 137.5,486 137.5,481.5 142,481.5 
				142,477 146.5,477 146.5,472.5 151,472.5 151,468 155.5,468 155.5,459 160,459 160,450 164.5,450 169,450 169,445.5 173.5,445.5 
				173.5,405 169,405 169,400.5 164.5,400.5 164.5,396 160,396 160,391.5 160,382.5 164.5,382.5 164.5,373.5 169,373.5 169,360 
				173.5,360 173.5,351 178,351 178,346.5 182.5,346.5 182.5,301.5 			"/>
			<rect x="151" y="310.5" class="st61" width="4.5" height="13.5"/>
			<rect x="137.5" y="297" class="st61" width="4.5" height="13.5"/>
			<rect x="119.5" y="301.5" class="st61" width="4.5" height="13.5"/>
			<rect x="160" y="351" class="st61" width="4.5" height="13.5"/>
			<rect x="133" y="351" class="st61" width="4.5" height="13.5"/>
			<rect x="43" y="432" class="st61" width="4.5" height="4.5"/>
			<rect x="47.5" y="436.5" class="st61" width="4.5" height="4.5"/>
			<rect x="47.5" y="414" class="st61" width="4.5" height="4.5"/>
			<rect x="52" y="418.5" class="st61" width="4.5" height="4.5"/>
			<rect x="16" y="432" class="st61" width="4.5" height="4.5"/>
			<rect x="20.5" y="436.5" class="st61" width="4.5" height="4.5"/>
			<rect x="52" y="472.5" class="st61" width="4.5" height="4.5"/>
			<rect x="56.5" y="477" class="st61" width="4.5" height="4.5"/>
			<rect x="61" y="459" class="st61" width="4.5" height="4.5"/>
			<rect x="65.5" y="463.5" class="st61" width="4.5" height="4.5"/>
			<rect x="79" y="472.5" class="st61" width="4.5" height="4.5"/>
			<rect x="83.5" y="477" class="st61" width="4.5" height="4.5"/>
			<rect x="110.5" y="441" class="st61" width="4.5" height="9"/>
			<rect x="142" y="432" class="st61" width="4.5" height="13.5"/>
			<rect x="128.5" y="423" class="st61" width="4.5" height="4.5"/>
			<rect x="133" y="418.5" class="st61" width="4.5" height="4.5"/>
			<rect x="151" y="409.5" class="st61" width="4.5" height="9"/>
			<rect x="119.5" y="468" class="st61" width="4.5" height="4.5"/>
			<rect x="124" y="463.5" class="st61" width="4.5" height="4.5"/>
			<rect x="128.5" y="459" class="st61" width="4.5" height="4.5"/>
			<rect x="106" y="522" class="st61" width="4.5" height="9"/>
			<rect x="79" y="508.5" class="st61" width="4.5" height="13.5"/>
			<rect x="88" y="540" class="st61" width="4.5" height="9"/>
			<polygon class="st62" points="137.5,256.5 137.5,252 133,252 128.5,252 124,252 124,256.5 119.5,256.5 119.5,274.5 124,274.5 
				124,279 128.5,279 128.5,283.5 133,283.5 142,283.5 142,279 142,274.5 142,256.5 			"/>
			<rect x="146.5" y="247.5" class="st62" width="13.5" height="31.5"/>
			<rect x="146.5" y="247.5" class="st62" width="18" height="27"/>
			<rect x="151" y="243" class="st62" width="9" height="4.5"/>
			<polygon class="st62" points="182.5,265.5 182.5,261 178,261 173.5,261 173.5,265.5 169,265.5 169,288 169,292.5 173.5,292.5 
				178,292.5 182.5,292.5 187,292.5 187,288 187,265.5 			"/>
			<rect x="29.5" y="378" class="st28" width="4.5" height="18"/>
			<rect x="34" y="373.5" class="st28" width="18" height="22.5"/>
			<rect x="38.5" y="369" class="st28" width="13.5" height="4.5"/>
			<rect x="34" y="396" class="st28" width="13.5" height="4.5"/>
			<polygon class="st28" points="16,396 16,391.5 11.5,391.5 11.5,387 7,387 2.5,387 -2,387 -2,391.5 -6.5,391.5 -6.5,405 -2,405 
				-2,414 2.5,414 2.5,418.5 7,418.5 11.5,418.5 16,418.5 20.5,418.5 20.5,396 			"/>
		</g>
		<g class="st21">
			<polygon class="st33" points="628,304.7 628,300.2 632.5,300.2 632.5,291.2 637,291.2 637,282.2 641.5,282.2 641.5,277.7 
				646,277.7 650.5,277.7 655,277.7 655,273.2 659.5,273.2 659.5,277.7 664,277.7 668.5,277.7 673,277.7 673,282.2 677.5,282.2 
				677.5,286.7 682,286.7 682,291.2 686.5,291.2 686.5,300.2 691,300.2 691,309.2 695.5,309.2 695.5,345.2 691,345.2 691,358.7 
				686.5,358.7 686.5,367.7 682,367.7 682,372.2 677.5,372.2 677.5,376.7 673,376.7 673,385.7 668.5,385.7 668.5,394.7 682,394.7 
				682,399.2 686.5,399.2 686.5,403.7 691,403.7 691,408.2 695.5,408.2 695.5,412.7 700,412.7 700,421.7 704.5,421.7 704.5,430.7 
				709,430.7 709,462.2 709,475.7 704.5,475.7 704.5,489.2 713.5,489.2 713.5,484.7 713.5,480.2 718,480.2 718,471.2 718,448.7 
				722.5,448.7 722.5,435.2 727,435.2 727,430.7 731.5,430.7 731.5,426.2 736,426.2 736,421.7 740.5,421.7 740.5,417.2 745,417.2 
				745,412.7 749.5,412.7 749.5,408.2 754,408.2 758.5,408.2 758.5,403.7 781,403.7 785.5,403.7 785.5,408.2 790,408.2 790,412.7 
				794.5,412.7 794.5,421.7 799,421.7 799,453.2 794.5,453.2 794.5,466.7 790,466.7 790,471.2 785.5,471.2 785.5,475.7 781,475.7 
				781,480.2 776.5,480.2 776.5,484.7 772,484.7 772,489.2 767.5,489.2 767.5,493.7 754,493.7 754,498.2 745,498.2 745,502.7 
				736,502.7 736,516.2 740.5,516.2 740.5,552.2 736,552.2 736,565.7 731.5,565.7 731.5,570.2 722.5,570.2 722.5,561.2 718,561.2 
				713.5,561.2 691,561.2 686.5,561.2 682,561.2 682,552.2 677.5,552.2 673,552.2 668.5,552.2 668.5,525.2 673,525.2 673,520.7 
				677.5,520.7 677.5,511.7 682,511.7 682,502.7 682,489.2 668.5,489.2 668.5,484.7 664,484.7 664,480.2 659.5,480.2 659.5,475.7 
				655,475.7 655,471.2 650.5,471.2 650.5,462.2 646,462.2 646,453.2 641.5,453.2 637,453.2 637,448.7 632.5,448.7 632.5,408.2 
				637,408.2 637,403.7 641.5,403.7 641.5,399.2 646,399.2 646,394.7 646,385.7 641.5,385.7 641.5,376.7 637,376.7 637,363.2 
				632.5,363.2 632.5,354.2 628,354.2 628,349.7 623.5,349.7 623.5,304.7 			"/>
			
				<rect x="650.5" y="313.7" transform="matrix(-1 -4.486867e-11 4.486867e-11 -1 1305.5 640.9638)" class="st61" width="4.5" height="13.5"/>
			
				<rect x="664" y="300.2" transform="matrix(-1 -4.446411e-11 4.446411e-11 -1 1332.5 613.9638)" class="st61" width="4.5" height="13.5"/>
			
				<rect x="682" y="304.7" transform="matrix(-1 -4.446411e-11 4.446411e-11 -1 1368.5 622.9638)" class="st61" width="4.5" height="13.5"/>
			
				<rect x="641.5" y="354.2" transform="matrix(-1 -4.486867e-11 4.486867e-11 -1 1287.5 721.9638)" class="st61" width="4.5" height="13.5"/>
			
				<rect x="668.5" y="354.2" transform="matrix(-1 -4.486867e-11 4.486867e-11 -1 1341.5 721.9638)" class="st61" width="4.5" height="13.5"/>
			
				<rect x="758.5" y="435.2" transform="matrix(-1 -4.486867e-11 4.486867e-11 -1 1521.5 874.9638)" class="st61" width="4.5" height="4.5"/>
			
				<rect x="754" y="439.7" transform="matrix(-1 -4.486867e-11 4.486867e-11 -1 1512.5 883.9638)" class="st61" width="4.5" height="4.5"/>
			
				<rect x="754" y="417.2" transform="matrix(-1 -4.486867e-11 4.486867e-11 -1 1512.5 838.9638)" class="st61" width="4.5" height="4.5"/>
			
				<rect x="749.5" y="421.7" transform="matrix(-1 -4.486867e-11 4.486867e-11 -1 1503.5 847.9638)" class="st61" width="4.5" height="4.5"/>
			
				<rect x="785.5" y="435.2" transform="matrix(-1 -4.486867e-11 4.486867e-11 -1 1575.5 874.9638)" class="st61" width="4.5" height="4.5"/>
			
				<rect x="781" y="439.7" transform="matrix(-1 -4.486867e-11 4.486867e-11 -1 1566.5 883.9638)" class="st61" width="4.5" height="4.5"/>
			
				<rect x="749.5" y="475.7" transform="matrix(-1 -4.486867e-11 4.486867e-11 -1 1503.5 955.9638)" class="st61" width="4.5" height="4.5"/>
			
				<rect x="745" y="480.2" transform="matrix(-1 -4.486867e-11 4.486867e-11 -1 1494.5 964.9638)" class="st61" width="4.5" height="4.5"/>
			
				<rect x="740.5" y="462.2" transform="matrix(-1 -4.527280e-11 4.527280e-11 -1 1485.5 928.9638)" class="st61" width="4.5" height="4.5"/>
			
				<rect x="736" y="466.7" transform="matrix(-1 -4.486867e-11 4.486867e-11 -1 1476.5 937.9638)" class="st61" width="4.5" height="4.5"/>
			
				<rect x="722.5" y="475.7" transform="matrix(-1 -4.486867e-11 4.486867e-11 -1 1449.5 955.9638)" class="st61" width="4.5" height="4.5"/>
			
				<rect x="718" y="480.2" transform="matrix(-1 -4.486867e-11 4.486867e-11 -1 1440.5 964.9638)" class="st61" width="4.5" height="4.5"/>
			
				<rect x="691" y="444.2" transform="matrix(-1 -4.486867e-11 4.486867e-11 -1 1386.5 897.4638)" class="st61" width="4.5" height="9"/>
			
				<rect x="659.5" y="435.2" transform="matrix(-1 -4.486867e-11 4.486867e-11 -1 1323.5 883.9638)" class="st61" width="4.5" height="13.5"/>
			
				<rect x="673" y="426.2" transform="matrix(-1 -4.486867e-11 4.486867e-11 -1 1350.5 856.9638)" class="st61" width="4.5" height="4.5"/>
			
				<rect x="668.5" y="421.7" transform="matrix(-1 -4.486867e-11 4.486867e-11 -1 1341.5 847.9638)" class="st61" width="4.5" height="4.5"/>
			
				<rect x="650.5" y="412.7" transform="matrix(-1 -4.486867e-11 4.486867e-11 -1 1305.5 834.4638)" class="st61" width="4.5" height="9"/>
			
				<rect x="682" y="471.2" transform="matrix(-1 -4.486867e-11 4.486867e-11 -1 1368.5 946.9638)" class="st61" width="4.5" height="4.5"/>
			
				<rect x="677.5" y="466.7" transform="matrix(-1 -4.527280e-11 4.527280e-11 -1 1359.5 937.9638)" class="st61" width="4.5" height="4.5"/>
			
				<rect x="673" y="462.2" transform="matrix(-1 -4.486867e-11 4.486867e-11 -1 1350.5 928.9638)" class="st61" width="4.5" height="4.5"/>
			
				<rect x="695.5" y="525.2" transform="matrix(-1 -4.486867e-11 4.486867e-11 -1 1395.5 1059.4639)" class="st61" width="4.5" height="9"/>
			
				<rect x="722.5" y="511.7" transform="matrix(-1 -4.486867e-11 4.486867e-11 -1 1449.5 1036.9639)" class="st61" width="4.5" height="13.5"/>
			
				<rect x="713.5" y="543.2" transform="matrix(-1 -4.486867e-11 4.486867e-11 -1 1431.5 1095.4639)" class="st61" width="4.5" height="9"/>
			<polygon class="st62" points="668.5,259.7 668.5,255.2 673,255.2 677.5,255.2 682,255.2 682,259.7 686.5,259.7 686.5,277.7 
				682,277.7 682,282.2 677.5,282.2 677.5,286.7 673,286.7 664,286.7 664,282.2 664,277.7 664,259.7 			"/>
			
				<rect x="646" y="250.7" transform="matrix(-1 -4.486867e-11 4.486867e-11 -1 1305.5 532.9638)" class="st62" width="13.5" height="31.5"/>
			
				<rect x="641.5" y="250.7" transform="matrix(-1 -4.486867e-11 4.486867e-11 -1 1301 528.4638)" class="st62" width="18" height="27"/>
			
				<rect x="646" y="246.2" transform="matrix(-1 -4.476742e-11 4.476742e-11 -1 1301 496.9638)" class="st62" width="9" height="4.5"/>
			<polygon class="st62" points="623.5,268.7 623.5,264.2 628,264.2 632.5,264.2 632.5,268.7 637,268.7 637,291.2 637,295.7 
				632.5,295.7 628,295.7 623.5,295.7 619,295.7 619,291.2 619,268.7 			"/>
			
				<rect x="772" y="381.2" transform="matrix(-1 -4.486867e-11 4.486867e-11 -1 1548.5 780.4638)" class="st28" width="4.5" height="18"/>
			
				<rect x="754" y="376.7" transform="matrix(-1 -4.486867e-11 4.486867e-11 -1 1526 775.9638)" class="st28" width="18" height="22.5"/>
			
				<rect x="754" y="372.2" transform="matrix(-1 -4.486867e-11 4.486867e-11 -1 1521.5 748.9638)" class="st28" width="13.5" height="4.5"/>
			
				<rect x="758.5" y="399.2" transform="matrix(-1 -4.486867e-11 4.486867e-11 -1 1530.5 802.9638)" class="st28" width="13.5" height="4.5"/>
			<polygon class="st28" points="790,399.2 790,394.7 794.5,394.7 794.5,390.2 799,390.2 803.5,390.2 808,390.2 808,394.7 
				812.5,394.7 812.5,408.2 808,408.2 808,417.2 803.5,417.2 803.5,421.7 799,421.7 794.5,421.7 790,421.7 785.5,421.7 785.5,399.2 
							"/>
		</g>
		<polygon style="clip-path:url(#SVGID_2_);fill:#38874B;" points="982,557.5 982,562.5 964,562.5 964,567 955,567 955,571.5 
			896.5,571.5 896.5,567 883,567 883,562.5 856,562.5 856,553.5 824.5,553.5 824.5,549 806.5,549 806.5,544.5 797.5,544.5 
			797.5,540 784,540 784,535.5 770.5,535.5 770.5,531 761.5,531 761.5,526.5 748,526.5 748,522 739,522 739,517.5 641.5,517.5 
			641.5,513 583,513 583,517.5 556,517.5 556,522 529,522 529,526.5 497.5,526.5 497.5,531 466,531 466,535.5 434.5,535.5 
			434.5,540 394,540 394,544.5 335.5,544.5 313,544.5 313,540 290.5,540 290.5,535.5 281.5,535.5 281.5,531 236.5,531 236.5,526.5 
			214,526.5 214,522 173.5,522 173.5,517.5 61,517.5 61,522 52,522 52,526.5 38.5,526.5 38.5,531 29.5,531 29.5,535.5 16,535.5 
			16,540 2.5,540 2.5,544.5 -6.5,544.5 -6.5,549 -24.5,549 -24.5,553.5 -56,553.5 -56,562.5 -83,562.5 -83,567 -96.5,567 
			-96.5,571.5 -155,571.5 -155,567 -164,567 -164,562.5 -182,562.5 -182,557.5 -200,557.5 -200,580.6 -200,612 -200,620.5 
			335.5,620.5 339.4,620.5 460.6,620.5 468.7,620.5 1000,620.5 1000,612 1000,580.6 1000,557.5 		"/>
		<polyline style="clip-path:url(#SVGID_2_);fill:#296D3C;" points="1001.5,580.5 934,580.5 934,576 911.5,576 911.5,571.5 
			898,571.5 898,567 880,567 880,562.5 826,562.5 826,567 808,567 808,571.5 799,571.5 799,576 781,576 781,580.5 772,580.5 
			772,585 659.5,585 659.5,580.5 596.5,580.5 596.5,576 583,576 583,571.5 551.5,571.5 547,571.5 547,567 542.5,567 524.5,567 
			524.5,562.5 430,562.5 430,567 412,567 407.5,567 407.5,571.5 403,571.5 371.5,571.5 371.5,576 358,576 358,580.5 295,580.5 
			295,585 182.5,585 182.5,580.5 173.5,580.5 173.5,576 155.5,576 155.5,571.5 146.5,571.5 146.5,567 128.5,567 128.5,562.5 
			74.5,562.5 74.5,567 56.5,567 56.5,571.5 43,571.5 43,576 20.5,576 20.5,580.5 -83,580.5 -83,576 -195.5,576 -195.5,585 -200,585 
			-200,607.5 -78.5,607.5 -78.5,603 182.5,603 182.5,598.5 295,598.5 295,607.5 389.5,607.5 389.5,598.5 434.5,598.5 520,598.5 
			565,598.5 565,607.5 659.5,607.5 659.5,598.5 772,598.5 772,603 1001.5,603 		"/>
		<polygon style="clip-path:url(#SVGID_2_);fill:#1E512E;" points="986.5,608.3 986.5,603 964,603 964,594 932.5,594 932.5,589.5 
			914.5,589.5 914.5,585 896.5,585 896.5,580.5 784,580.5 784,585 770.5,585 770.5,589.5 766,589.5 743.5,589.5 689.5,589.5 
			689.5,594 649,594 649,589.5 595,589.5 595,585 563.5,585 563.5,580.5 532,580.5 532,576 437.5,576 437.5,580.5 401.5,580.5 
			398.5,580.5 362.5,580.5 362.5,576 268,576 268,580.5 236.5,580.5 236.5,585 205,585 205,589.5 151,589.5 151,594 110.5,594 
			110.5,589.5 56.5,589.5 34,589.5 29.5,589.5 29.5,585 16,585 16,580.5 -96.5,580.5 -96.5,585 -114.5,585 -114.5,589.5 
			-132.5,589.5 -132.5,594 -164,594 -164,603 -186.5,603 -186.5,608.3 -200,608.3 -200,620.5 52,620.5 67.1,620.5 83.5,620.5 
			151,620.5 167.4,620.5 251.7,620.5 283.5,620.5 380.5,620.5 389.4,620.5 410.6,620.5 419.5,620.5 516.5,620.5 548.3,620.5 
			632.6,620.5 649,620.5 716.5,620.5 732.9,620.5 748,620.5 1000,620.5 1000,608.3 		"/>
	</g>
</g>
</svg>
