<?xml version="1.0" encoding="utf-8"?>
<!-- Generator: Adobe Illustrator 25.2.3, SVG Export Plug-In . SVG Version: 6.00 Build 0)  -->
<svg version="1.1" xmlns="http://www.w3.org/2000/svg" xmlns:xlink="http://www.w3.org/1999/xlink" x="0px" y="0px"
	 viewBox="0 0 1200 625" style="enable-background:new 0 0 1200 625;" xml:space="preserve">
<style type="text/css">
	.st0{opacity:0.41;}
	.st1{opacity:0.46;}
	.st2{fill:#A8B4A5;}
	.st3{fill:#D18238;}
	.st4{fill:#DD5832;}
	.st5{fill:#EFBD38;}
	.st6{fill:#E3DBCE;}
	.st7{fill:#D9CEB8;}
	.st8{fill:#343533;}
	.st9{fill:#B16447;}
	.st10{fill:#BAB1A1;}
	.st11{fill:#1D5B76;}
	.st12{fill:#8C2429;}
	.st13{fill:#77736A;}
	.st14{fill:#198691;}
	.st15{fill:#613C34;}
	.st16{fill:#EDBC3A;}
	.st17{fill:#FFFFFF;}
	.st18{clip-path:url(#SVGID_2_);fill:#E3DBCE;}
	.st19{clip-path:url(#SVGID_2_);fill:#B16447;}
	.st20{clip-path:url(#SVGID_2_);}
	.st21{fill:#153C41;}
	.st22{fill:#1E512E;}
	.st23{clip-path:url(#SVGID_2_);fill:#613C34;}
	.st24{fill:#41B5B1;}
	.st25{fill:#633D34;}
	.st26{fill:#BE2830;}
	.st27{fill:#E3963A;}
	.st28{clip-path:url(#SVGID_4_);}
	.st29{fill:#9CA051;}
	.st30{fill:#314C2C;}
	.st31{fill:#BF3E3B;}
	.st32{stroke:#000000;stroke-width:0.5;stroke-miterlimit:10;}
	.st33{fill:#38874B;}
	.st34{fill:#296D3C;}
</style>
<g id="Layer_1">
</g>
<g id="Layer_5">
	<rect class="st2" width="1200" height="625"/>
	<rect x="471.5" y="243" class="st2" width="263.7" height="382"/>
</g>
<g id="Layer_2">
</g>
<g id="Layer_3">
	<g>
		
			<rect x="332.7" y="535.5" transform="matrix(-0.7071 0.7071 -0.7071 -0.7071 955.2341 688.8291)" class="st5" width="4.5" height="13.5"/>
		
			<rect x="328.2" y="540" transform="matrix(-0.7071 0.7071 -0.7071 -0.7071 955.2341 688.8291)" class="st5" width="13.5" height="4.5"/>
		<path class="st11" d="M315.9,558.2l3.2,3.2l6.4-6.4l3.2,3.2l6.4-6.4l6.4,6.4l3.2-3.2l6.4,6.4l3.2-3.2l-6.4-6.4l3.2-3.2l-6.4-6.4
			l6.4-6.4l-3.2-3.2l6.4-6.4l-3.2-3.2l-6.4,6.4l-3.2-3.2l-6.4,6.4l-6.4-6.4l-3.2,3.2l-6.4-6.4l-3.2,3.2l6.4,6.4l-3.2,3.2l6.4,6.4
			l-6.4,6.4l3.2,3.2L315.9,558.2z M328.6,545.4l3.2-3.2l-3.2-3.2l3.2-3.2l3.2,3.2l3.2-3.2l3.2,3.2l-3.2,3.2l3.2,3.2l-3.2,3.2
			l-3.2-3.2l-3.2,3.2L328.6,545.4z"/>
		<g>
			<path class="st24" d="M309.5,564.5l3.2,3.2l3.2-3.2l3.2,3.2l3.2-3.2l3.2,3.2l9.5-9.5l9.5,9.5l3.2-3.2l3.2,3.2l3.2-3.2l3.2,3.2
				l3.2-3.2l-3.2-3.2l3.2-3.2l-3.2-3.2l3.2-3.2l-9.5-9.5l9.5-9.5l-3.2-3.2l3.2-3.2l-3.2-3.2l3.2-3.2l-3.2-3.2L354,520l-3.2-3.2
				l-3.2,3.2l-3.2-3.2l-9.5,9.5l-9.5-9.5l-3.2,3.2l-3.2-3.2l-3.2,3.2l-3.2-3.2l-3.2,3.2l3.2,3.2l-3.2,3.2l3.2,3.2l-3.2,3.2l9.5,9.5
				l-9.5,9.5l3.2,3.2l-3.2,3.2l3.2,3.2L309.5,564.5z M315.9,558.2l6.4-6.4l-3.2-3.2l3.2-3.2l3.2-3.2l-3.2-3.2l-3.2-3.2l3.2-3.2
				l-6.4-6.4l3.2-3.2l6.4,6.4l3.2-3.2l3.2,3.2l3.2,3.2l3.2-3.2l3.2-3.2l3.2,3.2l6.4-6.4l3.2,3.2l-6.4,6.4l3.2,3.2l-3.2,3.2l-3.2,3.2
				l3.2,3.2l3.2,3.2l-3.2,3.2l6.4,6.4l-3.2,3.2l-6.4-6.4l-3.2,3.2l-3.2-3.2l-3.2-3.2l-3.2,3.2l-3.2,3.2l-3.2-3.2l-6.4,6.4
				L315.9,558.2z"/>
			
				<rect x="326.3" y="540" transform="matrix(0.7071 -0.7071 0.7071 0.7071 -287.1863 391.1709)" class="st24" width="4.5" height="4.5"/>
			
				<rect x="332.7" y="533.6" transform="matrix(0.7071 -0.7071 0.7071 0.7071 -280.8224 393.8069)" class="st24" width="4.5" height="4.5"/>
			
				<rect x="339.1" y="540" transform="matrix(0.7071 -0.7071 0.7071 0.7071 -283.4584 400.1709)" class="st24" width="4.5" height="4.5"/>
			
				<rect x="332.7" y="546.4" transform="matrix(0.7071 -0.7071 0.7071 0.7071 -289.8224 397.5349)" class="st24" width="4.5" height="4.5"/>
		</g>
	</g>
	<g>
		
			<rect x="332.7" y="171.7" transform="matrix(-0.7071 0.7071 -0.7071 -0.7071 697.9927 67.7936)" class="st5" width="4.5" height="13.5"/>
		
			<rect x="328.2" y="176.2" transform="matrix(-0.7071 0.7071 -0.7071 -0.7071 697.9927 67.7936)" class="st5" width="13.5" height="4.5"/>
		<path class="st11" d="M315.9,194.4l3.2,3.2l6.4-6.4l3.2,3.2l6.4-6.4l6.4,6.4l3.2-3.2l6.4,6.4l3.2-3.2l-6.4-6.4l3.2-3.2l-6.4-6.4
			l6.4-6.4l-3.2-3.2l6.4-6.4l-3.2-3.2l-6.4,6.4l-3.2-3.2l-6.4,6.4l-6.4-6.4l-3.2,3.2l-6.4-6.4l-3.2,3.2l6.4,6.4l-3.2,3.2l6.4,6.4
			l-6.4,6.4l3.2,3.2L315.9,194.4z M328.6,181.6l3.2-3.2l-3.2-3.2l3.2-3.2l3.2,3.2l3.2-3.2l3.2,3.2l-3.2,3.2l3.2,3.2l-3.2,3.2
			l-3.2-3.2l-3.2,3.2L328.6,181.6z"/>
		<g>
			<path class="st24" d="M309.5,200.7l3.2,3.2l3.2-3.2l3.2,3.2l3.2-3.2l3.2,3.2l9.5-9.5l9.5,9.5l3.2-3.2l3.2,3.2l3.2-3.2l3.2,3.2
				l3.2-3.2l-3.2-3.2l3.2-3.2l-3.2-3.2l3.2-3.2l-9.5-9.5l9.5-9.5l-3.2-3.2l3.2-3.2l-3.2-3.2l3.2-3.2l-3.2-3.2l-3.2,3.2l-3.2-3.2
				l-3.2,3.2l-3.2-3.2l-9.5,9.5l-9.5-9.5l-3.2,3.2L319,153l-3.2,3.2l-3.2-3.2l-3.2,3.2l3.2,3.2l-3.2,3.2l3.2,3.2l-3.2,3.2l9.5,9.5
				l-9.5,9.5l3.2,3.2l-3.2,3.2l3.2,3.2L309.5,200.7z M315.9,194.4l6.4-6.4l-3.2-3.2l3.2-3.2l3.2-3.2l-3.2-3.2l-3.2-3.2l3.2-3.2
				l-6.4-6.4l3.2-3.2l6.4,6.4l3.2-3.2l3.2,3.2l3.2,3.2l3.2-3.2l3.2-3.2l3.2,3.2l6.4-6.4l3.2,3.2l-6.4,6.4l3.2,3.2l-3.2,3.2l-3.2,3.2
				l3.2,3.2l3.2,3.2l-3.2,3.2l6.4,6.4l-3.2,3.2l-6.4-6.4l-3.2,3.2l-3.2-3.2L335,188l-3.2,3.2l-3.2,3.2l-3.2-3.2l-6.4,6.4
				L315.9,194.4z"/>
			
				<rect x="326.3" y="176.2" transform="matrix(0.7071 -0.7071 0.7071 0.7071 -29.945 284.618)" class="st24" width="4.5" height="4.5"/>
			
				<rect x="332.7" y="169.8" transform="matrix(0.7071 -0.7071 0.7071 0.7071 -23.581 287.2541)" class="st24" width="4.5" height="4.5"/>
			
				<rect x="339.1" y="176.2" transform="matrix(0.7071 -0.7071 0.7071 0.7071 -26.2171 293.618)" class="st24" width="4.5" height="4.5"/>
			
				<rect x="332.7" y="182.6" transform="matrix(0.7071 -0.7071 0.7071 0.7071 -32.581 290.982)" class="st24" width="4.5" height="4.5"/>
		</g>
	</g>
	<g>
		
			<rect x="79.3" y="350.3" transform="matrix(-0.7071 -0.7071 0.7071 -0.7071 -113.2638 667.1729)" class="st5" width="4.5" height="13.5"/>
		
			<rect x="74.8" y="354.8" transform="matrix(-0.7071 -0.7071 0.7071 -0.7071 -113.2638 667.1729)" class="st5" width="13.5" height="4.5"/>
		<path class="st11" d="M65.6,338l-3.2,3.2l6.4,6.4l-3.2,3.2L72,357l-6.4,6.4l3.2,3.2l-6.4,6.4l3.2,3.2l6.4-6.4l3.2,3.2l6.4-6.4
			l6.4,6.4l3.2-3.2l6.4,6.4l3.2-3.2l-6.4-6.4l3.2-3.2l-6.4-6.4l6.4-6.4l-3.2-3.2l6.4-6.4l-3.2-3.2l-6.4,6.4l-3.2-3.2l-6.4,6.4
			l-6.4-6.4l-3.2,3.2L65.6,338z M78.4,350.7l3.2,3.2l3.2-3.2l3.2,3.2l-3.2,3.2l3.2,3.2l-3.2,3.2l-3.2-3.2l-3.2,3.2l-3.2-3.2l3.2-3.2
			l-3.2-3.2L78.4,350.7z"/>
		<g>
			<path class="st24" d="M59.3,331.6l-3.2,3.2l3.2,3.2l-3.2,3.2l3.2,3.2l-3.2,3.2l9.5,9.5l-9.5,9.5l3.2,3.2l-3.2,3.2l3.2,3.2
				l-3.2,3.2l3.2,3.2l3.2-3.2l3.2,3.2l3.2-3.2l3.2,3.2l9.5-9.5l9.5,9.5l3.2-3.2l3.2,3.2l3.2-3.2l3.2,3.2l3.2-3.2l-3.2-3.2l3.2-3.2
				l-3.2-3.2l3.2-3.2l-9.5-9.5l9.5-9.5l-3.2-3.2l3.2-3.2l-3.2-3.2l3.2-3.2l-3.2-3.2l-3.2,3.2l-3.2-3.2l-3.2,3.2l-3.2-3.2l-9.5,9.5
				l-9.5-9.5l-3.2,3.2l-3.2-3.2l-3.2,3.2L59.3,331.6z M65.6,338l6.4,6.4l3.2-3.2l3.2,3.2l3.2,3.2l3.2-3.2l3.2-3.2l3.2,3.2l6.4-6.4
				l3.2,3.2l-6.4,6.4l3.2,3.2l-3.2,3.2l-3.2,3.2l3.2,3.2l3.2,3.2l-3.2,3.2l6.4,6.4l-3.2,3.2l-6.4-6.4l-3.2,3.2l-3.2-3.2l-3.2-3.2
				l-3.2,3.2l-3.2,3.2l-3.2-3.2l-6.4,6.4l-3.2-3.2l6.4-6.4l-3.2-3.2l3.2-3.2L72,357l-3.2-3.2l-3.2-3.2l3.2-3.2l-6.4-6.4L65.6,338z"
				/>
			
				<rect x="79.3" y="348.4" transform="matrix(0.7071 -0.7071 0.7071 0.7071 -224.0846 160.3723)" class="st24" width="4.5" height="4.5"/>
			
				<rect x="85.7" y="354.8" transform="matrix(0.7071 -0.7071 0.7071 0.7071 -226.7207 166.7362)" class="st24" width="4.5" height="4.5"/>
			
				<rect x="79.3" y="361.2" transform="matrix(0.7071 -0.7071 0.7071 0.7071 -233.0846 164.1002)" class="st24" width="4.5" height="4.5"/>
			
				<rect x="72.9" y="354.8" transform="matrix(0.7071 -0.7071 0.7071 0.7071 -230.4486 157.7362)" class="st24" width="4.5" height="4.5"/>
		</g>
	</g>
	<g>
		
			<rect x="431" y="355.5" transform="matrix(-1 -4.486867e-11 4.486867e-11 -1 866.5 724.5)" class="st5" width="4.5" height="13.5"/>
		
			<rect x="426.5" y="360" transform="matrix(-1 -4.500323e-11 4.500323e-11 -1 866.5 724.5)" class="st5" width="13.5" height="4.5"/>
		<path class="st11" d="M408.5,360v4.5h9v4.5h9v9h4.5v9h4.5v-9h4.5v-9h9v-4.5h9V360h-9v-4.5h-9v-9h-4.5v-9H431v9h-4.5v9h-9v4.5
			H408.5z M426.5,360h4.5v-4.5h4.5v4.5h4.5v4.5h-4.5v4.5H431v-4.5h-4.5V360z"/>
		<g>
			<path class="st24" d="M399.5,360v4.5h4.5v4.5h4.5v4.5H422V387h4.5v4.5h4.5v4.5h4.5v-4.5h4.5V387h4.5v-13.5H458V369h4.5v-4.5h4.5
				V360h-4.5v-4.5H458V351h-13.5v-13.5H440V333h-4.5v-4.5H431v4.5h-4.5v4.5H422V351h-13.5v4.5H404v4.5H399.5z M408.5,360h9v-4.5h4.5
				h4.5V351v-4.5h4.5v-9h4.5v9h4.5v4.5v4.5h4.5h4.5v4.5h9v4.5h-9v4.5h-4.5H440v4.5v4.5h-4.5v9H431v-9h-4.5v-4.5V369H422h-4.5v-4.5
				h-9V360z"/>
			<rect x="426.5" y="355.5" class="st24" width="4.5" height="4.5"/>
			<rect x="435.5" y="355.5" class="st24" width="4.5" height="4.5"/>
			<rect x="435.5" y="364.5" class="st24" width="4.5" height="4.5"/>
			<rect x="426.5" y="364.5" class="st24" width="4.5" height="4.5"/>
		</g>
	</g>
	<g>
		<polygon class="st5" points="264.5,360 264.5,337.5 255.5,337.5 255.5,333 237.5,333 237.5,324 233,324 233,319.5 215,319.5 
			215,324 210.5,324 210.5,333 192.5,333 192.5,337.5 183.5,337.5 183.5,360 188,360 188,364.5 183.5,364.5 183.5,382.5 188,382.5 
			188,387 192.5,387 192.5,391.5 210.5,391.5 210.5,400.5 215,400.5 215,405 233,405 233,400.5 237.5,400.5 237.5,391.5 
			255.5,391.5 255.5,387 260,387 260,382.5 264.5,382.5 264.5,364.5 260,364.5 260,360 		"/>
		<g>
			<rect x="201.5" y="342" class="st27" width="4.5" height="4.5"/>
			<rect x="206" y="346.5" class="st27" width="4.5" height="4.5"/>
			<polygon class="st27" points="210.5,346.5 215,346.5 215,342 215,333 210.5,333 210.5,342 			"/>
			<rect x="188" y="333" class="st27" width="4.5" height="4.5"/>
			<rect x="183.5" y="337.5" class="st27" width="4.5" height="4.5"/>
			<rect x="179" y="342" class="st27" width="4.5" height="18"/>
			<polygon class="st27" points="192.5,369 201.5,369 201.5,364.5 192.5,364.5 188,364.5 188,369 			"/>
			<polygon class="st27" points="206,360 206,355.5 201.5,355.5 201.5,360 201.5,364.5 206,364.5 			"/>
			<rect x="242" y="342" class="st27" width="4.5" height="4.5"/>
			<rect x="237.5" y="346.5" class="st27" width="4.5" height="4.5"/>
			<polygon class="st27" points="233,342 233,346.5 237.5,346.5 237.5,342 237.5,333 233,333 			"/>
			<polygon class="st27" points="237.5,333 242,333 251,333 255.5,333 255.5,328.5 251,328.5 242,328.5 242,324 237.5,324 
				237.5,328.5 			"/>
			<rect x="255.5" y="333" class="st27" width="4.5" height="4.5"/>
			<rect x="260" y="337.5" class="st27" width="4.5" height="4.5"/>
			<rect x="264.5" y="342" class="st27" width="4.5" height="18"/>
			<polygon class="st27" points="246.5,364.5 246.5,369 255.5,369 260,369 260,364.5 255.5,364.5 			"/>
			<polygon class="st27" points="246.5,355.5 242,355.5 242,360 242,364.5 246.5,364.5 246.5,360 			"/>
			<polygon class="st27" points="206,333 210.5,333 210.5,328.5 210.5,324 206,324 206,328.5 197,328.5 192.5,328.5 192.5,333 
				197,333 			"/>
			<rect x="210.5" y="319.5" class="st27" width="4.5" height="4.5"/>
			<rect x="233" y="319.5" class="st27" width="4.5" height="4.5"/>
			<rect x="215" y="315" class="st27" width="18" height="4.5"/>
			<rect x="201.5" y="378" class="st27" width="4.5" height="4.5"/>
			<rect x="206" y="373.5" class="st27" width="4.5" height="4.5"/>
			<polygon class="st27" points="215,382.5 215,378 210.5,378 210.5,382.5 210.5,391.5 215,391.5 			"/>
			<rect x="188" y="387" class="st27" width="4.5" height="4.5"/>
			<rect x="183.5" y="382.5" class="st27" width="4.5" height="4.5"/>
			<rect x="179" y="364.5" class="st27" width="4.5" height="18"/>
			<rect x="183.5" y="360" class="st27" width="4.5" height="4.5"/>
			<rect x="242" y="378" class="st27" width="4.5" height="4.5"/>
			<rect x="237.5" y="373.5" class="st27" width="4.5" height="4.5"/>
			<polygon class="st27" points="237.5,378 233,378 233,382.5 233,391.5 237.5,391.5 237.5,382.5 			"/>
			<polygon class="st27" points="242,391.5 237.5,391.5 237.5,396 237.5,400.5 242,400.5 242,396 251,396 255.5,396 255.5,391.5 
				251,391.5 			"/>
			<rect x="255.5" y="387" class="st27" width="4.5" height="4.5"/>
			<rect x="260" y="382.5" class="st27" width="4.5" height="4.5"/>
			<rect x="264.5" y="364.5" class="st27" width="4.5" height="18"/>
			<rect x="260" y="360" class="st27" width="4.5" height="4.5"/>
			<polygon class="st27" points="210.5,391.5 206,391.5 197,391.5 192.5,391.5 192.5,396 197,396 206,396 206,400.5 210.5,400.5 
				210.5,396 			"/>
			<rect x="210.5" y="400.5" class="st27" width="4.5" height="4.5"/>
			<rect x="233" y="400.5" class="st27" width="4.5" height="4.5"/>
			<rect x="215" y="405" class="st27" width="18" height="4.5"/>
		</g>
		<polygon class="st4" points="237.5,360 233,360 233,355.5 228.5,355.5 228.5,351 219.5,351 219.5,355.5 215,355.5 215,360 
			210.5,360 210.5,364.5 215,364.5 215,369 219.5,369 219.5,373.5 228.5,373.5 228.5,369 233,369 233,364.5 237.5,364.5 		"/>
	</g>
	<g>
		<polygon class="st5" points="127.2,166.5 127.2,144 118.2,144 118.2,139.5 100.2,139.5 100.2,130.5 95.8,130.5 95.8,126 77.8,126 
			77.8,130.5 73.2,130.5 73.2,139.5 55.2,139.5 55.2,144 46.2,144 46.2,166.5 50.8,166.5 50.8,171 46.2,171 46.2,189 50.8,189 
			50.8,193.5 55.2,193.5 55.2,198 73.2,198 73.2,207 77.8,207 77.8,211.5 95.8,211.5 95.8,207 100.2,207 100.2,198 118.2,198 
			118.2,193.5 122.8,193.5 122.8,189 127.2,189 127.2,171 122.8,171 122.8,166.5 		"/>
		<g>
			<rect x="64.2" y="148.5" class="st27" width="4.5" height="4.5"/>
			<rect x="68.8" y="153" class="st27" width="4.5" height="4.5"/>
			<polygon class="st27" points="73.2,153 77.8,153 77.8,148.5 77.8,139.5 73.2,139.5 73.2,148.5 			"/>
			<rect x="50.8" y="139.5" class="st27" width="4.5" height="4.5"/>
			<rect x="46.2" y="144" class="st27" width="4.5" height="4.5"/>
			<rect x="41.8" y="148.5" class="st27" width="4.5" height="18"/>
			<polygon class="st27" points="55.2,175.5 64.2,175.5 64.2,171 55.2,171 50.8,171 50.8,175.5 			"/>
			<polygon class="st27" points="68.8,166.5 68.8,162 64.2,162 64.2,166.5 64.2,171 68.8,171 			"/>
			<rect x="104.8" y="148.5" class="st27" width="4.5" height="4.5"/>
			<rect x="100.2" y="153" class="st27" width="4.5" height="4.5"/>
			<polygon class="st27" points="95.8,148.5 95.8,153 100.2,153 100.2,148.5 100.2,139.5 95.8,139.5 			"/>
			<polygon class="st27" points="100.2,139.5 104.8,139.5 113.8,139.5 118.2,139.5 118.2,135 113.8,135 104.8,135 104.8,130.5 
				100.2,130.5 100.2,135 			"/>
			<rect x="118.2" y="139.5" class="st27" width="4.5" height="4.5"/>
			<rect x="122.8" y="144" class="st27" width="4.5" height="4.5"/>
			<rect x="127.2" y="148.5" class="st27" width="4.5" height="18"/>
			<polygon class="st27" points="109.2,171 109.2,175.5 118.2,175.5 122.8,175.5 122.8,171 118.2,171 			"/>
			<polygon class="st27" points="109.2,162 104.8,162 104.8,166.5 104.8,171 109.2,171 109.2,166.5 			"/>
			<polygon class="st27" points="68.8,139.5 73.2,139.5 73.2,135 73.2,130.5 68.8,130.5 68.8,135 59.8,135 55.2,135 55.2,139.5 
				59.8,139.5 			"/>
			<rect x="73.2" y="126" class="st27" width="4.5" height="4.5"/>
			<rect x="95.8" y="126" class="st27" width="4.5" height="4.5"/>
			<rect x="77.8" y="121.5" class="st27" width="18" height="4.5"/>
			<rect x="64.2" y="184.5" class="st27" width="4.5" height="4.5"/>
			<rect x="68.8" y="180" class="st27" width="4.5" height="4.5"/>
			<polygon class="st27" points="77.8,189 77.8,184.5 73.2,184.5 73.2,189 73.2,198 77.8,198 			"/>
			<rect x="50.8" y="193.5" class="st27" width="4.5" height="4.5"/>
			<rect x="46.2" y="189" class="st27" width="4.5" height="4.5"/>
			<rect x="41.8" y="171" class="st27" width="4.5" height="18"/>
			<rect x="46.2" y="166.5" class="st27" width="4.5" height="4.5"/>
			<rect x="104.8" y="184.5" class="st27" width="4.5" height="4.5"/>
			<rect x="100.2" y="180" class="st27" width="4.5" height="4.5"/>
			<polygon class="st27" points="100.2,184.5 95.8,184.5 95.8,189 95.8,198 100.2,198 100.2,189 			"/>
			<polygon class="st27" points="104.8,198 100.2,198 100.2,202.5 100.2,207 104.8,207 104.8,202.5 113.8,202.5 118.2,202.5 
				118.2,198 113.8,198 			"/>
			<rect x="118.2" y="193.5" class="st27" width="4.5" height="4.5"/>
			<rect x="122.8" y="189" class="st27" width="4.5" height="4.5"/>
			<rect x="127.2" y="171" class="st27" width="4.5" height="18"/>
			<rect x="122.8" y="166.5" class="st27" width="4.5" height="4.5"/>
			<polygon class="st27" points="73.2,198 68.8,198 59.8,198 55.2,198 55.2,202.5 59.8,202.5 68.8,202.5 68.8,207 73.2,207 
				73.2,202.5 			"/>
			<rect x="73.2" y="207" class="st27" width="4.5" height="4.5"/>
			<rect x="95.8" y="207" class="st27" width="4.5" height="4.5"/>
			<rect x="77.8" y="211.5" class="st27" width="18" height="4.5"/>
		</g>
		<polygon class="st4" points="100.2,166.5 95.8,166.5 95.8,162 91.2,162 91.2,157.5 82.2,157.5 82.2,162 77.8,162 77.8,166.5 
			73.2,166.5 73.2,171 77.8,171 77.8,175.5 82.2,175.5 82.2,180 91.2,180 91.2,175.5 95.8,175.5 95.8,171 100.2,171 		"/>
	</g>
	<g>
		<polygon class="st5" points="640.5,166.5 640.5,144 631.5,144 631.5,139.5 613.5,139.5 613.5,130.5 609,130.5 609,126 591,126 
			591,130.5 586.5,130.5 586.5,139.5 568.5,139.5 568.5,144 559.5,144 559.5,166.5 564,166.5 564,171 559.5,171 559.5,189 564,189 
			564,193.5 568.5,193.5 568.5,198 586.5,198 586.5,207 591,207 591,211.5 609,211.5 609,207 613.5,207 613.5,198 631.5,198 
			631.5,193.5 636,193.5 636,189 640.5,189 640.5,171 636,171 636,166.5 		"/>
		<g>
			<rect x="577.5" y="148.5" class="st27" width="4.5" height="4.5"/>
			<rect x="582" y="153" class="st27" width="4.5" height="4.5"/>
			<polygon class="st27" points="586.5,153 591,153 591,148.5 591,139.5 586.5,139.5 586.5,148.5 			"/>
			<rect x="564" y="139.5" class="st27" width="4.5" height="4.5"/>
			<rect x="559.5" y="144" class="st27" width="4.5" height="4.5"/>
			<rect x="555" y="148.5" class="st27" width="4.5" height="18"/>
			<polygon class="st27" points="568.5,175.5 577.5,175.5 577.5,171 568.5,171 564,171 564,175.5 			"/>
			<polygon class="st27" points="582,166.5 582,162 577.5,162 577.5,166.5 577.5,171 582,171 			"/>
			<rect x="618" y="148.5" class="st27" width="4.5" height="4.5"/>
			<rect x="613.5" y="153" class="st27" width="4.5" height="4.5"/>
			<polygon class="st27" points="609,148.5 609,153 613.5,153 613.5,148.5 613.5,139.5 609,139.5 			"/>
			<polygon class="st27" points="613.5,139.5 618,139.5 627,139.5 631.5,139.5 631.5,135 627,135 618,135 618,130.5 613.5,130.5 
				613.5,135 			"/>
			<rect x="631.5" y="139.5" class="st27" width="4.5" height="4.5"/>
			<rect x="636" y="144" class="st27" width="4.5" height="4.5"/>
			<rect x="640.5" y="148.5" class="st27" width="4.5" height="18"/>
			<polygon class="st27" points="622.5,171 622.5,175.5 631.5,175.5 636,175.5 636,171 631.5,171 			"/>
			<polygon class="st27" points="622.5,162 618,162 618,166.5 618,171 622.5,171 622.5,166.5 			"/>
			<polygon class="st27" points="582,139.5 586.5,139.5 586.5,135 586.5,130.5 582,130.5 582,135 573,135 568.5,135 568.5,139.5 
				573,139.5 			"/>
			<rect x="586.5" y="126" class="st27" width="4.5" height="4.5"/>
			<rect x="609" y="126" class="st27" width="4.5" height="4.5"/>
			<rect x="591" y="121.5" class="st27" width="18" height="4.5"/>
			<rect x="577.5" y="184.5" class="st27" width="4.5" height="4.5"/>
			<rect x="582" y="180" class="st27" width="4.5" height="4.5"/>
			<polygon class="st27" points="591,189 591,184.5 586.5,184.5 586.5,189 586.5,198 591,198 			"/>
			<rect x="564" y="193.5" class="st27" width="4.5" height="4.5"/>
			<rect x="559.5" y="189" class="st27" width="4.5" height="4.5"/>
			<rect x="555" y="171" class="st27" width="4.5" height="18"/>
			<rect x="559.5" y="166.5" class="st27" width="4.5" height="4.5"/>
			<rect x="618" y="184.5" class="st27" width="4.5" height="4.5"/>
			<rect x="613.5" y="180" class="st27" width="4.5" height="4.5"/>
			<polygon class="st27" points="613.5,184.5 609,184.5 609,189 609,198 613.5,198 613.5,189 			"/>
			<polygon class="st27" points="618,198 613.5,198 613.5,202.5 613.5,207 618,207 618,202.5 627,202.5 631.5,202.5 631.5,198 
				627,198 			"/>
			<rect x="631.5" y="193.5" class="st27" width="4.5" height="4.5"/>
			<rect x="636" y="189" class="st27" width="4.5" height="4.5"/>
			<rect x="640.5" y="171" class="st27" width="4.5" height="18"/>
			<rect x="636" y="166.5" class="st27" width="4.5" height="4.5"/>
			<polygon class="st27" points="586.5,198 582,198 573,198 568.5,198 568.5,202.5 573,202.5 582,202.5 582,207 586.5,207 
				586.5,202.5 			"/>
			<rect x="586.5" y="207" class="st27" width="4.5" height="4.5"/>
			<rect x="609" y="207" class="st27" width="4.5" height="4.5"/>
			<rect x="591" y="211.5" class="st27" width="18" height="4.5"/>
		</g>
		<polygon class="st4" points="613.5,166.5 609,166.5 609,162 604.5,162 604.5,157.5 595.5,157.5 595.5,162 591,162 591,166.5 
			586.5,166.5 586.5,171 591,171 591,175.5 595.5,175.5 595.5,180 604.5,180 604.5,175.5 609,175.5 609,171 613.5,171 		"/>
	</g>
	<g>
		<polygon class="st5" points="127.2,535.5 127.2,513 118.2,513 118.2,508.5 100.2,508.5 100.2,499.5 95.8,499.5 95.8,495 77.8,495 
			77.8,499.5 73.2,499.5 73.2,508.5 55.2,508.5 55.2,513 46.2,513 46.2,535.5 50.8,535.5 50.8,540 46.2,540 46.2,558 50.8,558 
			50.8,562.5 55.2,562.5 55.2,567 73.2,567 73.2,576 77.8,576 77.8,580.5 95.8,580.5 95.8,576 100.2,576 100.2,567 118.2,567 
			118.2,562.5 122.8,562.5 122.8,558 127.2,558 127.2,540 122.8,540 122.8,535.5 		"/>
		<g>
			<rect x="64.2" y="517.5" class="st27" width="4.5" height="4.5"/>
			<rect x="68.8" y="522" class="st27" width="4.5" height="4.5"/>
			<polygon class="st27" points="73.2,522 77.8,522 77.8,517.5 77.8,508.5 73.2,508.5 73.2,517.5 			"/>
			<rect x="50.8" y="508.5" class="st27" width="4.5" height="4.5"/>
			<rect x="46.2" y="513" class="st27" width="4.5" height="4.5"/>
			<rect x="41.8" y="517.5" class="st27" width="4.5" height="18"/>
			<polygon class="st27" points="55.2,544.5 64.2,544.5 64.2,540 55.2,540 50.8,540 50.8,544.5 			"/>
			<polygon class="st27" points="68.8,535.5 68.8,531 64.2,531 64.2,535.5 64.2,540 68.8,540 			"/>
			<rect x="104.8" y="517.5" class="st27" width="4.5" height="4.5"/>
			<rect x="100.2" y="522" class="st27" width="4.5" height="4.5"/>
			<polygon class="st27" points="95.8,517.5 95.8,522 100.2,522 100.2,517.5 100.2,508.5 95.8,508.5 			"/>
			<polygon class="st27" points="100.2,508.5 104.8,508.5 113.8,508.5 118.2,508.5 118.2,504 113.8,504 104.8,504 104.8,499.5 
				100.2,499.5 100.2,504 			"/>
			<rect x="118.2" y="508.5" class="st27" width="4.5" height="4.5"/>
			<rect x="122.8" y="513" class="st27" width="4.5" height="4.5"/>
			<rect x="127.2" y="517.5" class="st27" width="4.5" height="18"/>
			<polygon class="st27" points="109.2,540 109.2,544.5 118.2,544.5 122.8,544.5 122.8,540 118.2,540 			"/>
			<polygon class="st27" points="109.2,531 104.8,531 104.8,535.5 104.8,540 109.2,540 109.2,535.5 			"/>
			<polygon class="st27" points="68.8,508.5 73.2,508.5 73.2,504 73.2,499.5 68.8,499.5 68.8,504 59.8,504 55.2,504 55.2,508.5 
				59.8,508.5 			"/>
			<rect x="73.2" y="495" class="st27" width="4.5" height="4.5"/>
			<rect x="95.8" y="495" class="st27" width="4.5" height="4.5"/>
			<rect x="77.8" y="490.5" class="st27" width="18" height="4.5"/>
			<rect x="64.2" y="553.5" class="st27" width="4.5" height="4.5"/>
			<rect x="68.8" y="549" class="st27" width="4.5" height="4.5"/>
			<polygon class="st27" points="77.8,558 77.8,553.5 73.2,553.5 73.2,558 73.2,567 77.8,567 			"/>
			<rect x="50.8" y="562.5" class="st27" width="4.5" height="4.5"/>
			<rect x="46.2" y="558" class="st27" width="4.5" height="4.5"/>
			<rect x="41.8" y="540" class="st27" width="4.5" height="18"/>
			<rect x="46.2" y="535.5" class="st27" width="4.5" height="4.5"/>
			<rect x="104.8" y="553.5" class="st27" width="4.5" height="4.5"/>
			<rect x="100.2" y="549" class="st27" width="4.5" height="4.5"/>
			<polygon class="st27" points="100.2,553.5 95.8,553.5 95.8,558 95.8,567 100.2,567 100.2,558 			"/>
			<polygon class="st27" points="104.8,567 100.2,567 100.2,571.5 100.2,576 104.8,576 104.8,571.5 113.8,571.5 118.2,571.5 
				118.2,567 113.8,567 			"/>
			<rect x="118.2" y="562.5" class="st27" width="4.5" height="4.5"/>
			<rect x="122.8" y="558" class="st27" width="4.5" height="4.5"/>
			<rect x="127.2" y="540" class="st27" width="4.5" height="18"/>
			<rect x="122.8" y="535.5" class="st27" width="4.5" height="4.5"/>
			<polygon class="st27" points="73.2,567 68.8,567 59.8,567 55.2,567 55.2,571.5 59.8,571.5 68.8,571.5 68.8,576 73.2,576 
				73.2,571.5 			"/>
			<rect x="73.2" y="576" class="st27" width="4.5" height="4.5"/>
			<rect x="95.8" y="576" class="st27" width="4.5" height="4.5"/>
			<rect x="77.8" y="580.5" class="st27" width="18" height="4.5"/>
		</g>
		<polygon class="st4" points="100.2,535.5 95.8,535.5 95.8,531 91.2,531 91.2,526.5 82.2,526.5 82.2,531 77.8,531 77.8,535.5 
			73.2,535.5 73.2,540 77.8,540 77.8,544.5 82.2,544.5 82.2,549 91.2,549 91.2,544.5 95.8,544.5 95.8,540 100.2,540 		"/>
	</g>
	<g>
		
			<rect x="863.5" y="536.3" transform="matrix(0.7071 0.7071 -0.7071 0.7071 637.5543 -453.1151)" class="st5" width="4.5" height="13.5"/>
		
			<rect x="859" y="540.8" transform="matrix(0.7071 0.7071 -0.7071 0.7071 637.5543 -453.1151)" class="st5" width="13.5" height="4.5"/>
		<path class="st11" d="M878.5,552.6l3.2-3.2l-6.4-6.4l6.4-6.4l-3.2-3.2l6.4-6.4l-3.2-3.2l-6.4,6.4l-3.2-3.2l-6.4,6.4l-6.4-6.4
			l-3.2,3.2l-6.4-6.4l-3.2,3.2l6.4,6.4l-3.2,3.2l6.4,6.4l-6.4,6.4l3.2,3.2l-6.4,6.4l3.2,3.2l6.4-6.4l3.2,3.2l6.4-6.4l6.4,6.4
			l3.2-3.2l6.4,6.4l3.2-3.2L878.5,552.6z M868.9,549.4l-3.2-3.2l-3.2,3.2l-3.2-3.2l3.2-3.2l-3.2-3.2l3.2-3.2l3.2,3.2l3.2-3.2
			l3.2,3.2l-3.2,3.2l3.2,3.2L868.9,549.4z"/>
		<g>
			<path class="st24" d="M888,562.1l3.2-3.2l-3.2-3.2l3.2-3.2l-9.5-9.5l9.5-9.5l-3.2-3.2l3.2-3.2l-3.2-3.2l3.2-3.2l-3.2-3.2
				l-3.2,3.2l-3.2-3.2l-3.2,3.2l-3.2-3.2l-9.5,9.5l-9.5-9.5l-3.2,3.2l-3.2-3.2l-3.2,3.2l-3.2-3.2l-3.2,3.2l3.2,3.2l-3.2,3.2l3.2,3.2
				l-3.2,3.2l9.5,9.5l-9.5,9.5l3.2,3.2l-3.2,3.2l3.2,3.2l-3.2,3.2l3.2,3.2l3.2-3.2l3.2,3.2l3.2-3.2l3.2,3.2l9.5-9.5l9.5,9.5l3.2-3.2
				l3.2,3.2l3.2-3.2l3.2,3.2l3.2-3.2L888,562.1z M881.6,562.1l-6.4-6.4l-3.2,3.2l-3.2-3.2l-3.2-3.2l-3.2,3.2l-3.2,3.2l-3.2-3.2
				l-6.4,6.4l-3.2-3.2l6.4-6.4l-3.2-3.2l3.2-3.2l3.2-3.2l-3.2-3.2l-3.2-3.2l3.2-3.2l-6.4-6.4l3.2-3.2l6.4,6.4l3.2-3.2l3.2,3.2
				l3.2,3.2l3.2-3.2l3.2-3.2l3.2,3.2l6.4-6.4l3.2,3.2l-6.4,6.4l3.2,3.2l-3.2,3.2l-3.2,3.2l3.2,3.2l3.2,3.2l-3.2,3.2l6.4,6.4
				L881.6,562.1z"/>
			
				<rect x="869.8" y="540.8" transform="matrix(0.7071 -0.7071 0.7071 0.7071 -128.5542 775.7197)" class="st24" width="4.5" height="4.5"/>
			
				<rect x="863.5" y="534.4" transform="matrix(0.7071 -0.7071 0.7071 0.7071 -125.9182 769.3557)" class="st24" width="4.5" height="4.5"/>
			
				<rect x="857.1" y="540.8" transform="matrix(0.7071 -0.7071 0.7071 0.7071 -132.2822 766.7197)" class="st24" width="4.5" height="4.5"/>
			
				<rect x="863.5" y="547.2" transform="matrix(0.7071 -0.7071 0.7071 0.7071 -134.9182 773.0837)" class="st24" width="4.5" height="4.5"/>
		</g>
	</g>
	<g>
		
			<rect x="863.5" y="172.5" transform="matrix(0.7071 0.7071 -0.7071 0.7071 380.313 -559.6679)" class="st5" width="4.5" height="13.5"/>
		
			<rect x="859" y="177" transform="matrix(0.7071 0.7071 -0.7071 0.7071 380.313 -559.6679)" class="st5" width="13.5" height="4.5"/>
		<path class="st11" d="M878.5,188.8l3.2-3.2l-6.4-6.4l6.4-6.4l-3.2-3.2l6.4-6.4l-3.2-3.2l-6.4,6.4l-3.2-3.2l-6.4,6.4l-6.4-6.4
			l-3.2,3.2l-6.4-6.4l-3.2,3.2l6.4,6.4l-3.2,3.2l6.4,6.4l-6.4,6.4l3.2,3.2l-6.4,6.4l3.2,3.2l6.4-6.4l3.2,3.2l6.4-6.4l6.4,6.4
			l3.2-3.2l6.4,6.4l3.2-3.2L878.5,188.8z M868.9,185.6l-3.2-3.2l-3.2,3.2l-3.2-3.2l3.2-3.2l-3.2-3.2l3.2-3.2l3.2,3.2l3.2-3.2
			l3.2,3.2l-3.2,3.2l3.2,3.2L868.9,185.6z"/>
		<g>
			<path class="st24" d="M888,198.3l3.2-3.2L888,192l3.2-3.2l-9.5-9.5l9.5-9.5l-3.2-3.2l3.2-3.2l-3.2-3.2l3.2-3.2l-3.2-3.2l-3.2,3.2
				l-3.2-3.2l-3.2,3.2l-3.2-3.2l-9.5,9.5l-9.5-9.5L853,157l-3.2-3.2l-3.2,3.2l-3.2-3.2l-3.2,3.2l3.2,3.2l-3.2,3.2l3.2,3.2l-3.2,3.2
				l9.5,9.5l-9.5,9.5l3.2,3.2l-3.2,3.2l3.2,3.2l-3.2,3.2l3.2,3.2l3.2-3.2l3.2,3.2l3.2-3.2l3.2,3.2l9.5-9.5l9.5,9.5l3.2-3.2l3.2,3.2
				l3.2-3.2l3.2,3.2l3.2-3.2L888,198.3z M881.6,198.3l-6.4-6.4l-3.2,3.2l-3.2-3.2l-3.2-3.2l-3.2,3.2l-3.2,3.2l-3.2-3.2l-6.4,6.4
				l-3.2-3.2l6.4-6.4l-3.2-3.2l3.2-3.2l3.2-3.2l-3.2-3.2l-3.2-3.2l3.2-3.2l-6.4-6.4l3.2-3.2l6.4,6.4l3.2-3.2l3.2,3.2l3.2,3.2
				l3.2-3.2l3.2-3.2l3.2,3.2l6.4-6.4l3.2,3.2l-6.4,6.4l3.2,3.2l-3.2,3.2l-3.2,3.2l3.2,3.2l3.2,3.2l-3.2,3.2l6.4,6.4L881.6,198.3z"/>
			
				<rect x="869.8" y="177" transform="matrix(0.7071 -0.7071 0.7071 0.7071 128.6871 669.1669)" class="st24" width="4.5" height="4.5"/>
			
				<rect x="863.5" y="170.6" transform="matrix(0.7071 -0.7071 0.7071 0.7071 131.3231 662.8029)" class="st24" width="4.5" height="4.5"/>
			
				<rect x="857.1" y="177" transform="matrix(0.7071 -0.7071 0.7071 0.7071 124.9591 660.1669)" class="st24" width="4.5" height="4.5"/>
			
				<rect x="863.5" y="183.4" transform="matrix(0.7071 -0.7071 0.7071 0.7071 122.3231 666.5308)" class="st24" width="4.5" height="4.5"/>
		</g>
	</g>
	<g>
		
			<rect x="1116.9" y="351.1" transform="matrix(0.7071 -0.7071 0.7071 0.7071 74.7647 896.1633)" class="st5" width="4.5" height="13.5"/>
		
			<rect x="1112.4" y="355.6" transform="matrix(0.7071 -0.7071 0.7071 0.7071 74.7647 896.1633)" class="st5" width="13.5" height="4.5"/>
		<path class="st11" d="M1128.7,345.1l-3.2-3.2l-6.4,6.4l-6.4-6.4l-3.2,3.2l-6.4-6.4l-3.2,3.2l6.4,6.4l-3.2,3.2l6.4,6.4l-6.4,6.4
			l3.2,3.2l-6.4,6.4l3.2,3.2l6.4-6.4l3.2,3.2l6.4-6.4l6.4,6.4l3.2-3.2l6.4,6.4l3.2-3.2l-6.4-6.4l3.2-3.2l-6.4-6.4l6.4-6.4l-3.2-3.2
			l6.4-6.4l-3.2-3.2L1128.7,345.1z M1125.5,354.7l-3.2,3.2l3.2,3.2l-3.2,3.2l-3.2-3.2l-3.2,3.2l-3.2-3.2l3.2-3.2l-3.2-3.2l3.2-3.2
			l3.2,3.2l3.2-3.2L1125.5,354.7z"/>
		<g>
			<path class="st24" d="M1138.2,335.6l-3.2-3.2l-3.2,3.2l-3.2-3.2l-9.5,9.5l-9.5-9.5l-3.2,3.2l-3.2-3.2l-3.2,3.2l-3.2-3.2l-3.2,3.2
				l3.2,3.2l-3.2,3.2l3.2,3.2l-3.2,3.2l9.5,9.5l-9.5,9.5l3.2,3.2l-3.2,3.2l3.2,3.2l-3.2,3.2l3.2,3.2l3.2-3.2l3.2,3.2l3.2-3.2
				l3.2,3.2l9.5-9.5l9.5,9.5l3.2-3.2l3.2,3.2l3.2-3.2l3.2,3.2l3.2-3.2l-3.2-3.2l3.2-3.2l-3.2-3.2l3.2-3.2l-9.5-9.5l9.5-9.5l-3.2-3.2
				l3.2-3.2l-3.2-3.2l3.2-3.2l-3.2-3.2L1138.2,335.6z M1138.2,341.9l-6.4,6.4l3.2,3.2l-3.2,3.2l-3.2,3.2l3.2,3.2l3.2,3.2l-3.2,3.2
				l6.4,6.4l-3.2,3.2l-6.4-6.4l-3.2,3.2l-3.2-3.2l-3.2-3.2l-3.2,3.2l-3.2,3.2l-3.2-3.2l-6.4,6.4l-3.2-3.2l6.4-6.4l-3.2-3.2l3.2-3.2
				l3.2-3.2l-3.2-3.2l-3.2-3.2l3.2-3.2l-6.4-6.4l3.2-3.2l6.4,6.4l3.2-3.2l3.2,3.2l3.2,3.2l3.2-3.2l3.2-3.2l3.2,3.2l6.4-6.4
				L1138.2,341.9z"/>
			
				<rect x="1116.9" y="349.2" transform="matrix(0.7071 -0.7071 0.7071 0.7071 79.2647 894.2993)" class="st24" width="4.5" height="4.5"/>
			
				<rect x="1110.5" y="355.6" transform="matrix(0.7071 -0.7071 0.7071 0.7071 72.9007 891.6633)" class="st24" width="4.5" height="4.5"/>
			
				<rect x="1116.9" y="361.9" transform="matrix(0.7071 -0.7071 0.7071 0.7071 70.2647 898.0272)" class="st24" width="4.5" height="4.5"/>
			
				<rect x="1123.3" y="355.6" transform="matrix(0.7071 -0.7071 0.7071 0.7071 76.6286 900.6633)" class="st24" width="4.5" height="4.5"/>
		</g>
	</g>
	<g>
		<rect x="765.2" y="356.3" class="st5" width="4.5" height="13.5"/>
		<rect x="760.7" y="360.8" class="st5" width="13.5" height="4.5"/>
		<path class="st11" d="M783.2,360.8v-4.5h-9v-9h-4.5v-9h-4.5v9h-4.5v9h-9v4.5h-9v4.5h9v4.5h9v9h4.5v9h4.5v-9h4.5v-9h9v-4.5h9v-4.5
			H783.2z M774.2,365.3h-4.5v4.5h-4.5v-4.5h-4.5v-4.5h4.5v-4.5h4.5v4.5h4.5V365.3z"/>
		<g>
			<path class="st24" d="M796.7,360.8v-4.5h-4.5v-4.5h-13.5v-13.5h-4.5v-4.5h-4.5v-4.5h-4.5v4.5h-4.5v4.5h-4.5v13.5h-13.5v4.5h-4.5
				v4.5h-4.5v4.5h4.5v4.5h4.5v4.5h13.5v13.5h4.5v4.5h4.5v4.5h4.5v-4.5h4.5v-4.5h4.5v-13.5h13.5v-4.5h4.5v-4.5h4.5v-4.5H796.7z
				 M792.2,365.3h-9v4.5h-4.5h-4.5v4.5v4.5h-4.5v9h-4.5v-9h-4.5v-4.5v-4.5h-4.5h-4.5v-4.5h-9v-4.5h9v-4.5h4.5h4.5v-4.5v-4.5h4.5v-9
				h4.5v9h4.5v4.5v4.5h4.5h4.5v4.5h9V365.3z"/>
			<rect x="769.7" y="356.3" class="st24" width="4.5" height="4.5"/>
			<rect x="760.7" y="356.3" class="st24" width="4.5" height="4.5"/>
			<rect x="760.7" y="365.3" class="st24" width="4.5" height="4.5"/>
			<rect x="769.7" y="365.3" class="st24" width="4.5" height="4.5"/>
		</g>
	</g>
	<g>
		<polygon class="st5" points="936.2,360.8 936.2,338.3 945.2,338.3 945.2,333.8 963.2,333.8 963.2,324.8 967.7,324.8 967.7,320.3 
			985.7,320.3 985.7,324.8 990.2,324.8 990.2,333.8 1008.2,333.8 1008.2,338.3 1017.2,338.3 1017.2,360.8 1012.7,360.8 
			1012.7,365.3 1017.2,365.3 1017.2,383.3 1012.7,383.3 1012.7,387.8 1008.2,387.8 1008.2,392.3 990.2,392.3 990.2,401.3 
			985.7,401.3 985.7,405.8 967.7,405.8 967.7,401.3 963.2,401.3 963.2,392.3 945.2,392.3 945.2,387.8 940.7,387.8 940.7,383.3 
			936.2,383.3 936.2,365.3 940.7,365.3 940.7,360.8 		"/>
		<g>
			<rect x="994.7" y="342.8" class="st27" width="4.5" height="4.5"/>
			<rect x="990.2" y="347.3" class="st27" width="4.5" height="4.5"/>
			<polygon class="st27" points="990.2,347.3 985.7,347.3 985.7,342.8 985.7,333.8 990.2,333.8 990.2,342.8 			"/>
			<rect x="1008.2" y="333.8" class="st27" width="4.5" height="4.5"/>
			<rect x="1012.7" y="338.3" class="st27" width="4.5" height="4.5"/>
			<rect x="1017.2" y="342.8" class="st27" width="4.5" height="18"/>
			<polygon class="st27" points="1008.2,369.8 999.2,369.8 999.2,365.3 1008.2,365.3 1012.7,365.3 1012.7,369.8 			"/>
			<polygon class="st27" points="994.7,360.8 994.7,356.3 999.2,356.3 999.2,360.8 999.2,365.3 994.7,365.3 			"/>
			<rect x="954.2" y="342.8" class="st27" width="4.5" height="4.5"/>
			<rect x="958.7" y="347.3" class="st27" width="4.5" height="4.5"/>
			<polygon class="st27" points="967.7,342.8 967.7,347.3 963.2,347.3 963.2,342.8 963.2,333.8 967.7,333.8 			"/>
			<polygon class="st27" points="963.2,333.8 958.7,333.8 949.7,333.8 945.2,333.8 945.2,329.3 949.7,329.3 958.7,329.3 
				958.7,324.8 963.2,324.8 963.2,329.3 			"/>
			<rect x="940.7" y="333.8" class="st27" width="4.5" height="4.5"/>
			<rect x="936.2" y="338.3" class="st27" width="4.5" height="4.5"/>
			<rect x="931.7" y="342.8" class="st27" width="4.5" height="18"/>
			<polygon class="st27" points="954.2,365.3 954.2,369.8 945.2,369.8 940.7,369.8 940.7,365.3 945.2,365.3 			"/>
			<polygon class="st27" points="954.2,356.3 958.7,356.3 958.7,360.8 958.7,365.3 954.2,365.3 954.2,360.8 			"/>
			<polygon class="st27" points="994.7,333.8 990.2,333.8 990.2,329.3 990.2,324.8 994.7,324.8 994.7,329.3 1003.7,329.3 
				1008.2,329.3 1008.2,333.8 1003.7,333.8 			"/>
			<rect x="985.7" y="320.3" class="st27" width="4.5" height="4.5"/>
			<rect x="963.2" y="320.3" class="st27" width="4.5" height="4.5"/>
			<rect x="967.7" y="315.8" class="st27" width="18" height="4.5"/>
			<rect x="994.7" y="378.8" class="st27" width="4.5" height="4.5"/>
			<rect x="990.2" y="374.3" class="st27" width="4.5" height="4.5"/>
			<polygon class="st27" points="985.7,383.3 985.7,378.8 990.2,378.8 990.2,383.3 990.2,392.3 985.7,392.3 			"/>
			<rect x="1008.2" y="387.8" class="st27" width="4.5" height="4.5"/>
			<rect x="1012.7" y="383.3" class="st27" width="4.5" height="4.5"/>
			<rect x="1017.2" y="365.3" class="st27" width="4.5" height="18"/>
			<rect x="1012.7" y="360.8" class="st27" width="4.5" height="4.5"/>
			<rect x="954.2" y="378.8" class="st27" width="4.5" height="4.5"/>
			<rect x="958.7" y="374.3" class="st27" width="4.5" height="4.5"/>
			<polygon class="st27" points="963.2,378.8 967.7,378.8 967.7,383.3 967.7,392.3 963.2,392.3 963.2,383.3 			"/>
			<polygon class="st27" points="958.7,392.3 963.2,392.3 963.2,396.8 963.2,401.3 958.7,401.3 958.7,396.8 949.7,396.8 
				945.2,396.8 945.2,392.3 949.7,392.3 			"/>
			<rect x="940.7" y="387.8" class="st27" width="4.5" height="4.5"/>
			<rect x="936.2" y="383.3" class="st27" width="4.5" height="4.5"/>
			<rect x="931.7" y="365.3" class="st27" width="4.5" height="18"/>
			<rect x="936.2" y="360.8" class="st27" width="4.5" height="4.5"/>
			<polygon class="st27" points="990.2,392.3 994.7,392.3 1003.7,392.3 1008.2,392.3 1008.2,396.8 1003.7,396.8 994.7,396.8 
				994.7,401.3 990.2,401.3 990.2,396.8 			"/>
			<rect x="985.7" y="401.3" class="st27" width="4.5" height="4.5"/>
			<rect x="963.2" y="401.3" class="st27" width="4.5" height="4.5"/>
			<rect x="967.7" y="405.8" class="st27" width="18" height="4.5"/>
		</g>
		<polygon class="st4" points="963.2,360.8 967.7,360.8 967.7,356.3 972.2,356.3 972.2,351.8 981.2,351.8 981.2,356.3 985.7,356.3 
			985.7,360.8 990.2,360.8 990.2,365.3 985.7,365.3 985.7,369.8 981.2,369.8 981.2,374.3 972.2,374.3 972.2,369.8 967.7,369.8 
			967.7,365.3 963.2,365.3 		"/>
	</g>
	<g>
		<polygon class="st5" points="1073.4,167.3 1073.4,144.8 1082.4,144.8 1082.4,140.3 1100.4,140.3 1100.4,131.3 1104.9,131.3 
			1104.9,126.8 1122.9,126.8 1122.9,131.3 1127.4,131.3 1127.4,140.3 1145.4,140.3 1145.4,144.8 1154.4,144.8 1154.4,167.3 
			1149.9,167.3 1149.9,171.8 1154.4,171.8 1154.4,189.8 1149.9,189.8 1149.9,194.3 1145.4,194.3 1145.4,198.8 1127.4,198.8 
			1127.4,207.8 1122.9,207.8 1122.9,212.3 1104.9,212.3 1104.9,207.8 1100.4,207.8 1100.4,198.8 1082.4,198.8 1082.4,194.3 
			1077.9,194.3 1077.9,189.8 1073.4,189.8 1073.4,171.8 1077.9,171.8 1077.9,167.3 		"/>
		<g>
			<rect x="1131.9" y="149.3" class="st27" width="4.5" height="4.5"/>
			<rect x="1127.4" y="153.8" class="st27" width="4.5" height="4.5"/>
			<polygon class="st27" points="1127.4,153.8 1122.9,153.8 1122.9,149.3 1122.9,140.3 1127.4,140.3 1127.4,149.3 			"/>
			<rect x="1145.4" y="140.3" class="st27" width="4.5" height="4.5"/>
			<rect x="1149.9" y="144.8" class="st27" width="4.5" height="4.5"/>
			<rect x="1154.4" y="149.3" class="st27" width="4.5" height="18"/>
			<polygon class="st27" points="1145.4,176.3 1136.4,176.3 1136.4,171.8 1145.4,171.8 1149.9,171.8 1149.9,176.3 			"/>
			<polygon class="st27" points="1131.9,167.3 1131.9,162.8 1136.4,162.8 1136.4,167.3 1136.4,171.8 1131.9,171.8 			"/>
			<rect x="1091.4" y="149.3" class="st27" width="4.5" height="4.5"/>
			<rect x="1095.9" y="153.8" class="st27" width="4.5" height="4.5"/>
			<polygon class="st27" points="1104.9,149.3 1104.9,153.8 1100.4,153.8 1100.4,149.3 1100.4,140.3 1104.9,140.3 			"/>
			<polygon class="st27" points="1100.4,140.3 1095.9,140.3 1086.9,140.3 1082.4,140.3 1082.4,135.8 1086.9,135.8 1095.9,135.8 
				1095.9,131.3 1100.4,131.3 1100.4,135.8 			"/>
			<rect x="1077.9" y="140.3" class="st27" width="4.5" height="4.5"/>
			<rect x="1073.4" y="144.8" class="st27" width="4.5" height="4.5"/>
			<rect x="1068.9" y="149.3" class="st27" width="4.5" height="18"/>
			<polygon class="st27" points="1091.4,171.8 1091.4,176.3 1082.4,176.3 1077.9,176.3 1077.9,171.8 1082.4,171.8 			"/>
			<polygon class="st27" points="1091.4,162.8 1095.9,162.8 1095.9,167.3 1095.9,171.8 1091.4,171.8 1091.4,167.3 			"/>
			<polygon class="st27" points="1131.9,140.3 1127.4,140.3 1127.4,135.8 1127.4,131.3 1131.9,131.3 1131.9,135.8 1140.9,135.8 
				1145.4,135.8 1145.4,140.3 1140.9,140.3 			"/>
			<rect x="1122.9" y="126.8" class="st27" width="4.5" height="4.5"/>
			<rect x="1100.4" y="126.8" class="st27" width="4.5" height="4.5"/>
			<rect x="1104.9" y="122.3" class="st27" width="18" height="4.5"/>
			<rect x="1131.9" y="185.3" class="st27" width="4.5" height="4.5"/>
			<rect x="1127.4" y="180.8" class="st27" width="4.5" height="4.5"/>
			<polygon class="st27" points="1122.9,189.8 1122.9,185.3 1127.4,185.3 1127.4,189.8 1127.4,198.8 1122.9,198.8 			"/>
			<rect x="1145.4" y="194.3" class="st27" width="4.5" height="4.5"/>
			<rect x="1149.9" y="189.8" class="st27" width="4.5" height="4.5"/>
			<rect x="1154.4" y="171.8" class="st27" width="4.5" height="18"/>
			<rect x="1149.9" y="167.3" class="st27" width="4.5" height="4.5"/>
			<rect x="1091.4" y="185.3" class="st27" width="4.5" height="4.5"/>
			<rect x="1095.9" y="180.8" class="st27" width="4.5" height="4.5"/>
			<polygon class="st27" points="1100.4,185.3 1104.9,185.3 1104.9,189.8 1104.9,198.8 1100.4,198.8 1100.4,189.8 			"/>
			<polygon class="st27" points="1095.9,198.8 1100.4,198.8 1100.4,203.3 1100.4,207.8 1095.9,207.8 1095.9,203.3 1086.9,203.3 
				1082.4,203.3 1082.4,198.8 1086.9,198.8 			"/>
			<rect x="1077.9" y="194.3" class="st27" width="4.5" height="4.5"/>
			<rect x="1073.4" y="189.8" class="st27" width="4.5" height="4.5"/>
			<rect x="1068.9" y="171.8" class="st27" width="4.5" height="18"/>
			<rect x="1073.4" y="167.3" class="st27" width="4.5" height="4.5"/>
			<polygon class="st27" points="1127.4,198.8 1131.9,198.8 1140.9,198.8 1145.4,198.8 1145.4,203.3 1140.9,203.3 1131.9,203.3 
				1131.9,207.8 1127.4,207.8 1127.4,203.3 			"/>
			<rect x="1122.9" y="207.8" class="st27" width="4.5" height="4.5"/>
			<rect x="1100.4" y="207.8" class="st27" width="4.5" height="4.5"/>
			<rect x="1104.9" y="212.3" class="st27" width="18" height="4.5"/>
		</g>
		<polygon class="st4" points="1100.4,167.3 1104.9,167.3 1104.9,162.8 1109.4,162.8 1109.4,158.3 1118.4,158.3 1118.4,162.8 
			1122.9,162.8 1122.9,167.3 1127.4,167.3 1127.4,171.8 1122.9,171.8 1122.9,176.3 1118.4,176.3 1118.4,180.8 1109.4,180.8 
			1109.4,176.3 1104.9,176.3 1104.9,171.8 1100.4,171.8 		"/>
	</g>
	<g>
		<polygon class="st5" points="1073.4,536.3 1073.4,513.8 1082.4,513.8 1082.4,509.3 1100.4,509.3 1100.4,500.3 1104.9,500.3 
			1104.9,495.8 1122.9,495.8 1122.9,500.3 1127.4,500.3 1127.4,509.3 1145.4,509.3 1145.4,513.8 1154.4,513.8 1154.4,536.3 
			1149.9,536.3 1149.9,540.8 1154.4,540.8 1154.4,558.8 1149.9,558.8 1149.9,563.3 1145.4,563.3 1145.4,567.8 1127.4,567.8 
			1127.4,576.8 1122.9,576.8 1122.9,581.3 1104.9,581.3 1104.9,576.8 1100.4,576.8 1100.4,567.8 1082.4,567.8 1082.4,563.3 
			1077.9,563.3 1077.9,558.8 1073.4,558.8 1073.4,540.8 1077.9,540.8 1077.9,536.3 		"/>
		<g>
			<rect x="1131.9" y="518.3" class="st27" width="4.5" height="4.5"/>
			<rect x="1127.4" y="522.8" class="st27" width="4.5" height="4.5"/>
			<polygon class="st27" points="1127.4,522.8 1122.9,522.8 1122.9,518.3 1122.9,509.3 1127.4,509.3 1127.4,518.3 			"/>
			<rect x="1145.4" y="509.3" class="st27" width="4.5" height="4.5"/>
			<rect x="1149.9" y="513.8" class="st27" width="4.5" height="4.5"/>
			<rect x="1154.4" y="518.3" class="st27" width="4.5" height="18"/>
			<polygon class="st27" points="1145.4,545.3 1136.4,545.3 1136.4,540.8 1145.4,540.8 1149.9,540.8 1149.9,545.3 			"/>
			<polygon class="st27" points="1131.9,536.3 1131.9,531.8 1136.4,531.8 1136.4,536.3 1136.4,540.8 1131.9,540.8 			"/>
			<rect x="1091.4" y="518.3" class="st27" width="4.5" height="4.5"/>
			<rect x="1095.9" y="522.8" class="st27" width="4.5" height="4.5"/>
			<polygon class="st27" points="1104.9,518.3 1104.9,522.8 1100.4,522.8 1100.4,518.3 1100.4,509.3 1104.9,509.3 			"/>
			<polygon class="st27" points="1100.4,509.3 1095.9,509.3 1086.9,509.3 1082.4,509.3 1082.4,504.8 1086.9,504.8 1095.9,504.8 
				1095.9,500.3 1100.4,500.3 1100.4,504.8 			"/>
			<rect x="1077.9" y="509.3" class="st27" width="4.5" height="4.5"/>
			<rect x="1073.4" y="513.8" class="st27" width="4.5" height="4.5"/>
			<rect x="1068.9" y="518.3" class="st27" width="4.5" height="18"/>
			<polygon class="st27" points="1091.4,540.8 1091.4,545.3 1082.4,545.3 1077.9,545.3 1077.9,540.8 1082.4,540.8 			"/>
			<polygon class="st27" points="1091.4,531.8 1095.9,531.8 1095.9,536.3 1095.9,540.8 1091.4,540.8 1091.4,536.3 			"/>
			<polygon class="st27" points="1131.9,509.3 1127.4,509.3 1127.4,504.8 1127.4,500.3 1131.9,500.3 1131.9,504.8 1140.9,504.8 
				1145.4,504.8 1145.4,509.3 1140.9,509.3 			"/>
			<rect x="1122.9" y="495.8" class="st27" width="4.5" height="4.5"/>
			<rect x="1100.4" y="495.8" class="st27" width="4.5" height="4.5"/>
			<rect x="1104.9" y="491.3" class="st27" width="18" height="4.5"/>
			<rect x="1131.9" y="554.3" class="st27" width="4.5" height="4.5"/>
			<rect x="1127.4" y="549.8" class="st27" width="4.5" height="4.5"/>
			<polygon class="st27" points="1122.9,558.8 1122.9,554.3 1127.4,554.3 1127.4,558.8 1127.4,567.8 1122.9,567.8 			"/>
			<rect x="1145.4" y="563.3" class="st27" width="4.5" height="4.5"/>
			<rect x="1149.9" y="558.8" class="st27" width="4.5" height="4.5"/>
			<rect x="1154.4" y="540.8" class="st27" width="4.5" height="18"/>
			<rect x="1149.9" y="536.3" class="st27" width="4.5" height="4.5"/>
			<rect x="1091.4" y="554.3" class="st27" width="4.5" height="4.5"/>
			<rect x="1095.9" y="549.8" class="st27" width="4.5" height="4.5"/>
			<polygon class="st27" points="1100.4,554.3 1104.9,554.3 1104.9,558.8 1104.9,567.8 1100.4,567.8 1100.4,558.8 			"/>
			<polygon class="st27" points="1095.9,567.8 1100.4,567.8 1100.4,572.3 1100.4,576.8 1095.9,576.8 1095.9,572.3 1086.9,572.3 
				1082.4,572.3 1082.4,567.8 1086.9,567.8 			"/>
			<rect x="1077.9" y="563.3" class="st27" width="4.5" height="4.5"/>
			<rect x="1073.4" y="558.8" class="st27" width="4.5" height="4.5"/>
			<rect x="1068.9" y="540.8" class="st27" width="4.5" height="18"/>
			<rect x="1073.4" y="536.3" class="st27" width="4.5" height="4.5"/>
			<polygon class="st27" points="1127.4,567.8 1131.9,567.8 1140.9,567.8 1145.4,567.8 1145.4,572.3 1140.9,572.3 1131.9,572.3 
				1131.9,576.8 1127.4,576.8 1127.4,572.3 			"/>
			<rect x="1122.9" y="576.8" class="st27" width="4.5" height="4.5"/>
			<rect x="1100.4" y="576.8" class="st27" width="4.5" height="4.5"/>
			<rect x="1104.9" y="581.3" class="st27" width="18" height="4.5"/>
		</g>
		<polygon class="st4" points="1100.4,536.3 1104.9,536.3 1104.9,531.8 1109.4,531.8 1109.4,527.3 1118.4,527.3 1118.4,531.8 
			1122.9,531.8 1122.9,536.3 1127.4,536.3 1127.4,540.8 1122.9,540.8 1122.9,545.3 1118.4,545.3 1118.4,549.8 1109.4,549.8 
			1109.4,545.3 1104.9,545.3 1104.9,540.8 1100.4,540.8 		"/>
	</g>
	<g>
		<defs>
			<rect id="SVGID_3_" x="467" y="234" width="257.7" height="391"/>
		</defs>
		<clipPath id="SVGID_2_">
			<use xlink:href="#SVGID_3_"  style="overflow:visible;"/>
		</clipPath>
		<g class="st20">
			<polygon class="st7" points="685.7,433.5 677.9,433.5 670.1,433.5 670.1,425.7 662.3,425.7 639,425.7 639,433.5 623.4,433.5 
				623.4,441.3 615.6,441.3 615.6,449.1 607.8,449.1 607.8,456.9 592.2,456.9 592.2,449.1 584.4,449.1 584.4,441.3 576.6,441.3 
				576.6,433.5 561,433.5 561,425.7 537.7,425.7 529.9,425.7 529.9,433.5 522.1,433.5 514.3,433.5 506.5,433.5 506.5,441.3 
				506.5,449.1 514.3,449.1 514.3,456.9 522.1,456.9 522.1,472.5 522.1,480.3 522.1,511.4 529.9,511.4 529.9,620.5 592.2,620.5 
				607.8,620.5 670.1,620.5 670.1,511.4 677.9,511.4 677.9,480.3 677.9,472.5 677.9,456.9 685.7,456.9 685.7,449.1 693.5,449.1 
				693.5,441.3 693.5,433.5 			"/>
			<polygon class="st8" points="677.9,363.4 677.9,347.8 670.1,347.8 670.1,340 662.3,340 662.3,316.6 537.7,316.6 537.7,340 
				529.9,340 529.9,347.8 522.1,347.8 522.1,363.4 514.3,363.4 514.3,394.5 522.1,394.5 522.1,410.1 529.9,410.1 529.9,417.9 
				561,417.9 561,410.1 576.6,410.1 576.6,355.6 623.4,355.6 623.4,410.1 639,410.1 639,417.9 670.1,417.9 670.1,410.1 677.9,410.1 
				677.9,394.5 685.7,394.5 685.7,363.4 			"/>
			<polygon class="st9" points="646.8,340 646.8,324.4 639,324.4 639,316.6 615.6,316.6 615.6,308.8 607.8,308.8 607.8,301 
				592.2,301 592.2,308.8 584.4,308.8 584.4,316.6 561,316.6 561,324.4 553.2,324.4 553.2,340 537.7,340 537.7,363.4 553.2,363.4 
				553.2,386.7 561,386.7 561,394.5 568.8,394.5 568.8,402.3 631.2,402.3 631.2,394.5 639,394.5 639,386.7 646.8,386.7 646.8,363.4 
				662.3,363.4 662.3,340 			"/>
			
				<rect x="537.7" y="363.4" transform="matrix(-1 -4.481450e-11 4.481450e-11 -1 1090.8951 742.3122)" class="st3" width="15.6" height="15.6"/>
			<polygon class="st9" points="639,425.7 631.2,425.7 631.2,417.9 623.4,417.9 623.4,410.1 576.6,410.1 576.6,417.9 568.8,417.9 
				568.8,425.7 561,425.7 561,433.5 576.6,433.5 576.6,441.3 584.4,441.3 584.4,449.1 592.2,449.1 592.2,456.9 607.8,456.9 
				607.8,449.1 615.6,449.1 615.6,441.3 623.4,441.3 623.4,433.5 639,433.5 			"/>
			<rect x="584.4" y="378.9" class="st25" width="31.2" height="7.8"/>
			<rect x="592.2" y="363.4" class="st25" width="15.6" height="7.8"/>
			<g>
				<polygon class="st8" points="615.6,332.2 615.6,340 623.4,340 623.4,347.8 631.2,347.8 631.2,340 639,340 639,332.2 				"/>
				<rect x="639" y="340" class="st8" width="7.8" height="7.8"/>
			</g>
			<g>
				<polygon class="st8" points="561,332.2 561,340 568.8,340 568.8,347.8 576.6,347.8 576.6,340 584.4,340 584.4,332.2 				"/>
				<rect x="553.2" y="340" class="st8" width="7.8" height="7.8"/>
			</g>
			<polygon class="st8" points="646.8,301 646.8,293.2 639,293.2 639,285.4 631.2,285.4 631.2,277.6 568.8,277.6 568.8,285.4 
				561,285.4 561,293.2 553.2,293.2 553.2,301 545.4,301 545.4,308.8 545.4,340 553.2,340 553.2,324.4 561,324.4 561,316.6 
				584.4,316.6 584.4,308.8 592.2,308.8 592.2,301 600,301 607.8,301 607.8,308.8 615.6,308.8 615.6,316.6 639,316.6 639,324.4 
				646.8,324.4 646.8,340 654.6,340 654.6,316.6 654.6,308.8 654.6,301 			"/>
			<rect x="576.6" y="402.3" class="st8" width="46.8" height="7.8"/>
			<rect x="576.6" y="402.3" class="st25" width="46.8" height="7.8"/>
			
				<rect x="646.8" y="363.4" transform="matrix(-1 -4.481450e-11 4.481450e-11 -1 1309.1049 742.3122)" class="st3" width="15.6" height="15.6"/>
			<polygon class="st26" points="631.2,433.5 631.2,472.5 623.4,472.5 623.4,449.1 615.6,449.1 615.6,472.5 584.4,472.5 
				584.4,449.1 576.6,449.1 576.6,472.5 568.8,472.5 568.8,433.5 561,433.5 561,472.5 561,480.3 568.8,480.3 631.2,480.3 639,480.3 
				639,472.5 639,433.5 			"/>
			<polygon class="st9" points="716.9,472.5 716.9,464.7 716.9,456.9 709.1,456.9 709.1,449.1 701.3,449.1 701.3,441.3 693.5,441.3 
				693.5,449.1 685.7,449.1 685.7,456.9 677.9,456.9 677.9,550.4 685.7,550.4 685.7,573.8 693.5,573.8 693.5,581.6 685.7,581.6 
				685.7,597.2 685.7,628.3 693.5,628.3 693.5,651.7 716.9,651.7 716.9,636.1 724.7,636.1 724.7,620.5 724.7,581.6 724.7,472.5 			
				"/>
			<polygon class="st9" points="483.1,472.5 483.1,464.7 483.1,456.9 490.9,456.9 490.9,449.1 498.7,449.1 498.7,441.3 506.5,441.3 
				506.5,449.1 514.3,449.1 514.3,456.9 522.1,456.9 522.1,550.4 514.3,550.4 514.3,573.8 506.5,573.8 506.5,581.6 514.3,581.6 
				514.3,597.2 514.3,628.3 506.5,628.3 506.5,651.7 483.1,651.7 483.1,636.1 475.3,636.1 475.3,620.5 475.3,581.6 475.3,472.5 			
				"/>
			<rect x="537.7" y="620.5" class="st26" width="124.7" height="7.8"/>
			<rect x="576.6" y="371.2" class="st25" width="7.8" height="7.8"/>
			<rect x="615.6" y="371.2" class="st25" width="7.8" height="7.8"/>
		</g>
	</g>
</g>
<g id="Layer_7">
</g>
<g id="Layer_4">
	<g>
		<path class="st32" d="M53.1,40.5v2.2h-9v4.5h6.7v2.2h-6.7V54h9v2.2H41.8V40.5H53.1z"/>
		<path class="st32" d="M64.3,46.1v-5.6h2.2v15.7h-2.2V54h-1.1v1.1h-1.1v1.1h-3.4v-1.1h-1.1V54h-1.1v-1.1h-1.1v-5.6h1.1v-1.1h1.1V45
			h1.1v-1.1h3.4V45h1.1v1.1H64.3z M58.7,52.8h1.1V54h1.1v-1.1h1.1v-1.1h1.1v-3.4h-1.1v-1.1h-1.1v-1.1h-1.1v1.1h-1.1v1.1h-1.1v3.4
			h1.1V52.8z"/>
		<path class="st32" d="M68.8,43.9H71v9h1.1V54h4.5v-1.1h1.1v-9H80V54h-1.1v1.1h-1.1v1.1H71v-1.1h-1.1V54h-1.1V43.9z"/>
		<path class="st32" d="M91.3,52.8v-1.1h2.2V54h-1.1v1.1h-1.1v1.1h-6.7v-1.1h-1.1V54h-1.1v-7.9h1.1V45h1.1v-1.1h6.7V45h1.1v1.1h1.1
			v2.2h-2.2v-1.1h-1.1v-1.1h-4.5v1.1h-1.1v5.6h1.1V54h4.5v-1.1H91.3z"/>
		<path class="st32" d="M98,56.2v-1.1h-1.1V54h-1.1v-4.5h1.1v-1.1H98v-1.1h5.6v1.1h1.1v-2.2h-1.1V45H98v-2.2h6.7v1.1h1.1V45h1.1
			v11.2h-2.2v-1.1h-1.1v1.1H98z M99.1,54h4.5v-1.1h1.1v-2.2h-1.1v-1.1h-4.5v1.1H98v2.2h1.1V54z"/>
		<path class="st32" d="M117.1,54h1.1v2.2H116v-1.1h-1.1V54h-1.1v-7.9h-2.2v-2.2h2.2v-3.4h2.2v3.4h2.2v2.2H116v6.7h1.1V54z"/>
		<path class="st32" d="M130.6,54h1.1v2.2h-2.2v-1.1h-1.1V54h-1.1v-5.6H125v-2.2h4.5v6.7h1.1V54z M129.4,41.6v2.2h-2.2v-2.2H129.4z"
			/>
		<path class="st32" d="M138.4,56.2v-1.1h-1.1V54h-1.1v-7.9h1.1V45h1.1v-1.1h6.7V45h1.1v1.1h1.1V54h-1.1v1.1h-1.1v1.1H138.4z
			 M139.6,54h4.5v-1.1h1.1v-5.6H144v-1.1h-4.5v1.1h-1.1v5.6h1.1V54z"/>
		<path class="st32" d="M151.9,47.2v9h-2.2V43.9h2.2V45h1.1v-1.1h5.6V45h1.1v1.1h1.1v10.1h-2.2v-9h-1.1v-1.1H153v1.1H151.9z"/>
		<path class="st32" d="M176.6,43.9h2.2v9h1.1V54h1.1v-5.6h2.2V54h1.1v-1.1h1.1v-9h2.2V54h-1.1v1.1h-1.1v1.1h-2.2v-1.1h-2.2v1.1
			h-2.2v-1.1h-1.1V54h-1.1V43.9z"/>
		<path class="st32" d="M192.3,56.2v-1.1h-1.1V54h-1.1v-4.5h1.1v-1.1h1.1v-1.1h5.6v1.1h1.1v-2.2h-1.1V45h-5.6v-2.2h6.7v1.1h1.1V45
			h1.1v11.2h-2.2v-1.1h-1.1v1.1H192.3z M193.5,54h4.5v-1.1h1.1v-2.2h-1.1v-1.1h-4.5v1.1h-1.1v2.2h1.1V54z"/>
		<path class="st32" d="M204.7,54h-1.1v-2.2h2.2v1.1h1.1V54h4.5v-2.2h-2.2v-1.1h-2.2v-1.1h-2.2v-1.1h-1.1v-2.2h1.1V45h1.1v-1.1h6.7
			V45h1.1v1.1h1.1v2.2h-2.2v-1.1h-1.1v-1.1h-4.5v2.2h3.4v1.1h2.2v1.1h1.1v1.1h1.1V54h-1.1v1.1h-1.1v1.1h-6.7v-1.1h-1.1V54z"/>
		<path class="st32" d="M232.8,47.2v9h-2.2V43.9h2.2V45h1.1v-1.1h5.6V45h1.1v1.1h1.1v10.1h-2.2v-9h-1.1v-1.1h-1.1v10.1H235V46.1
			h-1.1v1.1H232.8z"/>
		<path class="st32" d="M246.2,56.2v-1.1h-1.1V54H244v-4.5h1.1v-1.1h1.1v-1.1h5.6v1.1h1.1v-2.2h-1.1V45h-5.6v-2.2h6.7v1.1h1.1V45
			h1.1v11.2H253v-1.1h-1.1v1.1H246.2z M247.4,54h4.5v-1.1h1.1v-2.2h-1.1v-1.1h-4.5v1.1h-1.1v2.2h1.1V54z"/>
		<path class="st32" d="M259.7,47.2v9h-2.2V43.9h2.2V45h1.1v-1.1h5.6V45h1.1v1.1h1.1v10.1h-2.2v-9h-1.1v-1.1h-4.5v1.1H259.7z"/>
		<path class="st32" d="M279.9,46.1v-5.6h2.2v15.7h-2.2V54h-1.1v1.1h-1.1v1.1h-3.4v-1.1h-1.1V54h-1.1v-1.1h-1.1v-5.6h1.1v-1.1h1.1
			V45h1.1v-1.1h3.4V45h1.1v1.1H279.9z M274.3,52.8h1.1V54h1.1v-1.1h1.1v-1.1h1.1v-3.4h-1.1v-1.1h-1.1v-1.1h-1.1v1.1h-1.1v1.1h-1.1
			v3.4h1.1V52.8z"/>
		<path class="st32" d="M286.7,56.2v-1.1h-1.1V54h-1.1v-4.5h1.1v-1.1h1.1v-1.1h5.6v1.1h1.1v-2.2h-1.1V45h-5.6v-2.2h6.7v1.1h1.1V45
			h1.1v11.2h-2.2v-1.1h-1.1v1.1H286.7z M287.8,54h4.5v-1.1h1.1v-2.2h-1.1v-1.1h-4.5v1.1h-1.1v2.2h1.1V54z"/>
		<path class="st32" d="M305.8,54h1.1v2.2h-2.2v-1.1h-1.1V54h-1.1v-7.9h-2.2v-2.2h2.2v-3.4h2.2v3.4h2.2v2.2h-2.2v6.7h1.1V54z"/>
		<path class="st32" d="M313.6,56.2v-1.1h-1.1V54h-1.1v-7.9h1.1V45h1.1v-1.1h6.7V45h1.1v1.1h1.1V54h-1.1v1.1h-1.1v1.1H313.6z
			 M314.7,54h4.5v-1.1h1.1v-5.6h-1.1v-1.1h-4.5v1.1h-1.1v5.6h1.1V54z"/>
		<path class="st32" d="M327.1,49.5v6.7h-2.2V43.9h2.2v2.2h1.1V45h1.1v-1.1h4.5V45h1.1v1.1h1.1v2.2h-2.2v-1.1h-1.1v-1.1h-2.2v1.1
			h-1.1v1.1h-1.1v1.1H327.1z"/>
		<path class="st32" d="M340.6,56.2V54h5.6v-1.1h1.1v-3.4h-1.1v1.1h-1.1v1.1h-4.5v-1.1h-1.1v-1.1h-1.1v-6.7h2.2v5.6h1.1v1.1h2.2
			v-1.1h1.1v-1.1h1.1V45h1.1v-2.2h2.2V54h-1.1v1.1h-1.1v1.1H340.6z"/>
		<path class="st32" d="M367.5,49.5v6.7h-2.2V43.9h2.2v2.2h1.1V45h1.1v-1.1h4.5V45h1.1v1.1h1.1v2.2h-2.2v-1.1h-1.1v-1.1h-2.2v1.1
			h-1.1v1.1h-1.1v1.1H367.5z"/>
		<path class="st32" d="M390,52.8V54h-1.1v1.1h-1.1v1.1H381v-1.1h-1.1V54h-1.1v-7.9h1.1V45h1.1v-1.1h6.7V45h1.1v1.1h1.1v3.4h-1.1
			v1.1H381v2.2h1.1V54h4.5v-1.1H390z M381,47.2v1.1h6.7v-1.1h-1.1v-1.1h-4.5v1.1H381z"/>
		<path class="st32" d="M394.5,55.1h-1.1v-2.2h2.2V54h4.5v-1.1h1.1v-3.4h-1.1v1.1h-5.6v-1.1h-1.1v-1.1h-1.1V45h1.1v-1.1h1.1v-1.1
			h6.7v1.1h1.1V45h1.1v9h-1.1v1.1h-1.1v1.1h-6.7V55.1z M401.2,47.2v-1.1h-1.1V45h-4.5v1.1h-1.1v1.1h1.1v1.1h4.5v-1.1H401.2z"/>
		<path class="st32" d="M408,56.2v-1.1h-1.1V54h-1.1v-4.5h1.1v-1.1h1.1v-1.1h5.6v1.1h1.1v-2.2h-1.1V45H408v-2.2h6.7v1.1h1.1V45h1.1
			v11.2h-2.2v-1.1h-1.1v1.1H408z M409.1,54h4.5v-1.1h1.1v-2.2h-1.1v-1.1h-4.5v1.1H408v2.2h1.1V54z"/>
		<path class="st32" d="M421.4,49.5v6.7h-2.2V43.9h2.2v2.2h1.1V45h1.1v-1.1h4.5V45h1.1v1.1h1.1v2.2h-2.2v-1.1h-1.1v-1.1h-2.2v1.1
			h-1.1v1.1h-1.1v1.1H421.4z"/>
		<path class="st32" d="M441.7,46.1v-5.6h2.2v15.7h-2.2V54h-1.1v1.1h-1.1v1.1H436v-1.1h-1.1V54h-1.1v-1.1h-1.1v-5.6h1.1v-1.1h1.1V45
			h1.1v-1.1h3.4V45h1.1v1.1H441.7z M436,52.8h1.1V54h1.1v-1.1h1.1v-1.1h1.1v-3.4h-1.1v-1.1h-1.1v-1.1h-1.1v1.1H436v1.1h-1.1v3.4h1.1
			V52.8z"/>
		<path class="st32" d="M452.9,40.5v15.7h-2.2V40.5H452.9z"/>
		<path class="st32" d="M470.8,52.8V54h-1.1v1.1h-1.1v1.1h-6.7v-1.1h-1.1V54h-1.1v-7.9h1.1V45h1.1v-1.1h6.7V45h1.1v1.1h1.1v3.4h-1.1
			v1.1h-7.9v2.2h1.1V54h4.5v-1.1H470.8z M461.9,47.2v1.1h6.7v-1.1h-1.1v-1.1H463v1.1H461.9z"/>
		<path class="st32" d="M474.2,54h-1.1v-2.2h2.2v1.1h1.1V54h4.5v-2.2h-2.2v-1.1h-2.2v-1.1h-2.2v-1.1h-1.1v-2.2h1.1V45h1.1v-1.1h6.7
			V45h1.1v1.1h1.1v2.2h-2.2v-1.1H481v-1.1h-4.5v2.2h3.4v1.1h2.2v1.1h1.1v1.1h1.1V54h-1.1v1.1h-1.1v1.1h-6.7v-1.1h-1.1V54z"/>
		<path class="st32" d="M487.7,54h-1.1v-2.2h2.2v1.1h1.1V54h4.5v-2.2h-2.2v-1.1h-2.2v-1.1h-2.2v-1.1h-1.1v-2.2h1.1V45h1.1v-1.1h6.7
			V45h1.1v1.1h1.1v2.2h-2.2v-1.1h-1.1v-1.1h-4.5v2.2h3.4v1.1h2.2v1.1h1.1v1.1h1.1V54h-1.1v1.1h-1.1v1.1h-6.7v-1.1h-1.1V54z"/>
		<path class="st32" d="M515.8,56.2v-1.1h-1.1V54h-1.1v-7.9h1.1V45h1.1v-1.1h6.7V45h1.1v1.1h1.1V54h-1.1v1.1h-1.1v1.1H515.8z
			 M516.9,54h4.5v-1.1h1.1v-5.6h-1.1v-1.1h-4.5v1.1h-1.1v5.6h1.1V54z"/>
		<path class="st32" d="M533.7,56.2h-2.2V46.1h-3.4v-2.2h3.4v-2.2h1.1v-1.1h4.5v2.2h-3.4v1.1h3.4v2.2h-3.4V56.2z"/>
		<path class="st32" d="M556.2,55.1h-1.1v-2.2h2.2V54h4.5v-1.1h1.1v-3.4h-1.1v1.1h-5.6v-1.1h-1.1v-1.1H554V45h1.1v-1.1h1.1v-1.1h6.7
			v1.1h1.1V45h1.1v9h-1.1v1.1h-1.1v1.1h-6.7V55.1z M562.9,47.2v-1.1h-1.1V45h-4.5v1.1h-1.1v1.1h1.1v1.1h4.5v-1.1H562.9z"/>
		<path class="st32" d="M578.7,52.8V54h-1.1v1.1h-1.1v1.1h-6.7v-1.1h-1.1V54h-1.1v-7.9h1.1V45h1.1v-1.1h6.7V45h1.1v1.1h1.1v3.4h-1.1
			v1.1h-7.9v2.2h1.1V54h4.5v-1.1H578.7z M569.7,47.2v1.1h6.7v-1.1h-1.1v-1.1h-4.5v1.1H569.7z"/>
		<path class="st32" d="M583.2,47.2v9h-2.2V43.9h2.2V45h1.1v-1.1h5.6V45h1.1v1.1h1.1v10.1h-2.2v-9h-1.1v-1.1h-4.5v1.1H583.2z"/>
		<path class="st32" d="M603.4,46.1v-5.6h2.2v15.7h-2.2V54h-1.1v1.1h-1.1v1.1h-3.4v-1.1h-1.1V54h-1.1v-1.1h-1.1v-5.6h1.1v-1.1h1.1
			V45h1.1v-1.1h3.4V45h1.1v1.1H603.4z M597.8,52.8h1.1V54h1.1v-1.1h1.1v-1.1h1.1v-3.4h-1.1v-1.1H600v-1.1h-1.1v1.1h-1.1v1.1h-1.1
			v3.4h1.1V52.8z"/>
		<path class="st32" d="M619.1,52.8V54H618v1.1h-1.1v1.1h-6.7v-1.1H609V54h-1.1v-7.9h1.1V45h1.1v-1.1h6.7V45h1.1v1.1h1.1v3.4H618
			v1.1h-7.9v2.2h1.1V54h4.5v-1.1H619.1z M610.1,47.2v1.1h6.7v-1.1h-1.1v-1.1h-4.5v1.1H610.1z"/>
		<path class="st32" d="M623.6,49.5v6.7h-2.2V43.9h2.2v2.2h1.1V45h1.1v-1.1h4.5V45h1.1v1.1h1.1v2.2h-2.2v-1.1h-1.1v-1.1H627v1.1
			h-1.1v1.1h-1.1v1.1H623.6z"/>
		<path class="st32" d="M650.5,56.2v-1.1h-1.1V54h-1.1v-7.9h1.1V45h1.1v-1.1h6.7V45h1.1v1.1h1.1V54h-1.1v1.1h-1.1v1.1H650.5z
			 M651.7,54h4.5v-1.1h1.1v-5.6h-1.1v-1.1h-4.5v1.1h-1.1v5.6h1.1V54z"/>
		<path class="st32" d="M664,49.5v6.7h-2.2V43.9h2.2v2.2h1.1V45h1.1v-1.1h4.5V45h1.1v1.1h1.1v2.2h-2.2v-1.1h-1.1v-1.1h-2.2v1.1h-1.1
			v1.1h-1.1v1.1H664z"/>
		<path class="st32" d="M697.7,52.8v-1.1h2.2V54h-1.1v1.1h-1.1v1.1H691v-1.1h-1.1V54h-1.1v-7.9h1.1V45h1.1v-1.1h6.7V45h1.1v1.1h1.1
			v2.2h-2.2v-1.1h-1.1v-1.1h-4.5v1.1H691v5.6h1.1V54h4.5v-1.1H697.7z"/>
		<path class="st32" d="M708.9,40.5v15.7h-2.2V40.5H708.9z"/>
		<path class="st32" d="M717.9,56.2v-1.1h-1.1V54h-1.1v-4.5h1.1v-1.1h1.1v-1.1h5.6v1.1h1.1v-2.2h-1.1V45h-5.6v-2.2h6.7v1.1h1.1V45
			h1.1v11.2h-2.2v-1.1h-1.1v1.1H717.9z M719,54h4.5v-1.1h1.1v-2.2h-1.1v-1.1H719v1.1h-1.1v2.2h1.1V54z"/>
		<path class="st32" d="M730.3,54h-1.1v-2.2h2.2v1.1h1.1V54h4.5v-2.2h-2.2v-1.1h-2.2v-1.1h-2.2v-1.1h-1.1v-2.2h1.1V45h1.1v-1.1h6.7
			V45h1.1v1.1h1.1v2.2h-2.2v-1.1H737v-1.1h-4.5v2.2h3.4v1.1h2.2v1.1h1.1v1.1h1.1V54h-1.1v1.1h-1.1v1.1h-6.7v-1.1h-1.1V54z"/>
		<path class="st32" d="M743.8,54h-1.1v-2.2h2.2v1.1h1.1V54h4.5v-2.2h-2.2v-1.1H746v-1.1h-2.2v-1.1h-1.1v-2.2h1.1V45h1.1v-1.1h6.7
			V45h1.1v1.1h1.1v2.2h-2.2v-1.1h-1.1v-1.1H746v2.2h3.4v1.1h2.2v1.1h1.1v1.1h1.1V54h-1.1v1.1h-1.1v1.1h-6.7v-1.1h-1.1V54z"/>
		<path class="st32" d="M761.7,54v2.2h-2.2V54H761.7z"/>
		<path class="st32" d="M787.5,42.7h-4.5v-2.2h11.2v2.2h-4.5v13.5h-2.2V42.7z"/>
		<path class="st32" d="M798.8,49.5v6.7h-2.2V40.5h2.2v5.6h1.1V45h1.1v-1.1h3.4V45h1.1v1.1h1.1v1.1h1.1v9h-2.2v-7.9h-1.1v-1.1h-1.1
			v-1.1h-1.1v1.1H801v1.1h-1.1v1.1H798.8z"/>
		<path class="st32" d="M821.2,52.8V54h-1.1v1.1H819v1.1h-6.7v-1.1h-1.1V54H810v-7.9h1.1V45h1.1v-1.1h6.7V45h1.1v1.1h1.1v3.4h-1.1
			v1.1h-7.9v2.2h1.1V54h4.5v-1.1H821.2z M812.3,47.2v1.1h6.7v-1.1h-1.1v-1.1h-4.5v1.1H812.3z"/>
		<path class="st32" d="M839.2,56.2H837V45h1.1v-1.1h1.1v-1.1h1.1v-1.1h1.1v-1.1h2.2v1.1h1.1v1.1h1.1v1.1h1.1V45h1.1v11.2h-2.2v-4.5
			h-6.7V56.2z M839.2,49.5h6.7v-3.4h-1.1V45h-1.1v-1.1h-2.2V45h-1.1v1.1h-1.1V49.5z"/>
		<path class="st32" d="M854.9,54h6.7v2.2h-11.2V54h1.1v-1.1h1.1v-1.1h1.1v-1.1h1.1v-1.1h1.1v-1.1h1.1v-1.1h1.1v-1.1h-7.9v-2.2h11.2
			v3.4h-1.1v1.1h-1.1v1.1h-1.1v1.1h-1.1v1.1h-1.1v1.1h-1.1V54z"/>
		<path class="st32" d="M871.8,54h1.1v2.2h-2.2v-1.1h-1.1V54h-1.1v-7.9h-2.2v-2.2h2.2v-3.4h2.2v3.4h2.2v2.2h-2.2v6.7h1.1V54z"/>
		<path class="st32" d="M888.6,52.8V54h-1.1v1.1h-1.1v1.1h-6.7v-1.1h-1.1V54h-1.1v-7.9h1.1V45h1.1v-1.1h6.7V45h1.1v1.1h1.1v3.4h-1.1
			v1.1h-7.9v2.2h1.1V54h4.5v-1.1H888.6z M879.6,47.2v1.1h6.7v-1.1h-1.1v-1.1h-4.5v1.1H879.6z"/>
		<path class="st32" d="M899.9,52.8v-1.1h2.2V54H901v1.1h-1.1v1.1h-6.7v-1.1H892V54h-1.1v-7.9h1.1V45h1.1v-1.1h6.7V45h1.1v1.1h1.1
			v2.2h-2.2v-1.1h-1.1v-1.1h-4.5v1.1h-1.1v5.6h1.1V54h4.5v-1.1H899.9z"/>
		<path class="st32" d="M905.5,54h-1.1v-2.2h2.2v1.1h1.1V54h4.5v-2.2H910v-1.1h-2.2v-1.1h-2.2v-1.1h-1.1v-2.2h1.1V45h1.1v-1.1h6.7
			V45h1.1v1.1h1.1v2.2h-2.2v-1.1h-1.1v-1.1h-4.5v2.2h3.4v1.1h2.2v1.1h1.1v1.1h1.1V54h-1.1v1.1h-1.1v1.1h-6.7v-1.1h-1.1V54z"/>
		<path class="st32" d="M931.3,43.9h2.2v6.7h1.1v1.1h1.1v1.1h2.2v-1.1h1.1v-1.1h1.1v-6.7h2.2v7.9h-1.1v1.1h-1.1V54h-1.1v1.1H938v1.1
			h-2.2v-1.1h-1.1V54h-1.1v-1.1h-1.1v-1.1h-1.1V43.9z"/>
		<path class="st32" d="M947,56.2v-1.1h-1.1V54h-1.1v-4.5h1.1v-1.1h1.1v-1.1h5.6v1.1h1.1v-2.2h-1.1V45H947v-2.2h6.7v1.1h1.1V45h1.1
			v11.2h-2.2v-1.1h-1.1v1.1H947z M948.1,54h4.5v-1.1h1.1v-2.2h-1.1v-1.1h-4.5v1.1H947v2.2h1.1V54z"/>
		<path class="st32" d="M965,40.5v15.7h-2.2V40.5H965z"/>
		<path class="st32" d="M971.7,43.9h2.2v9h1.1V54h4.5v-1.1h1.1v-9h2.2V54h-1.1v1.1h-1.1v1.1H974v-1.1h-1.1V54h-1.1V43.9z"/>
		<path class="st32" d="M996.4,52.8V54h-1.1v1.1h-1.1v1.1h-6.7v-1.1h-1.1V54h-1.1v-7.9h1.1V45h1.1v-1.1h6.7V45h1.1v1.1h1.1v3.4h-1.1
			v1.1h-7.9v2.2h1.1V54h4.5v-1.1H996.4z M987.5,47.2v1.1h6.7v-1.1h-1.1v-1.1h-4.5v1.1H987.5z"/>
		<path class="st32" d="M1007.7,46.1v-5.6h2.2v15.7h-2.2V54h-1.1v1.1h-1.1v1.1h-3.4v-1.1h-1.1V54h-1.1v-1.1h-1.1v-5.6h1.1v-1.1h1.1
			V45h1.1v-1.1h3.4V45h1.1v1.1H1007.7z M1002.1,52.8h1.1V54h1.1v-1.1h1.1v-1.1h1.1v-3.4h-1.1v-1.1h-1.1v-1.1h-1.1v1.1h-1.1v1.1h-1.1
			v3.4h1.1V52.8z"/>
		<path class="st32" d="M1027.9,49.5v6.7h-2.2V40.5h2.2v5.6h1.1V45h1.1v-1.1h3.4V45h1.1v1.1h1.1v1.1h1.1v9h-2.2v-7.9h-1.1v-1.1h-1.1
			v-1.1h-1.1v1.1h-1.1v1.1h-1.1v1.1H1027.9z"/>
		<path class="st32" d="M1041.4,56.2v-1.1h-1.1V54h-1.1v-4.5h1.1v-1.1h1.1v-1.1h5.6v1.1h1.1v-2.2h-1.1V45h-5.6v-2.2h6.7v1.1h1.1V45
			h1.1v11.2h-2.2v-1.1h-1.1v1.1H1041.4z M1042.5,54h4.5v-1.1h1.1v-2.2h-1.1v-1.1h-4.5v1.1h-1.1v2.2h1.1V54z"/>
		<path class="st32" d="M1054.8,49.5v6.7h-2.2V43.9h2.2v2.2h1.1V45h1.1v-1.1h4.5V45h1.1v1.1h1.1v2.2h-2.2v-1.1h-1.1v-1.1h-2.2v1.1
			h-1.1v1.1h-1.1v1.1H1054.8z"/>
		<path class="st32" d="M1075,46.1v-5.6h2.2v15.7h-2.2V54h-1.1v1.1h-1.1v1.1h-3.4v-1.1h-1.1V54h-1.1v-1.1h-1.1v-5.6h1.1v-1.1h1.1V45
			h1.1v-1.1h3.4V45h1.1v1.1H1075z M1069.4,52.8h1.1V54h1.1v-1.1h1.1v-1.1h1.1v-3.4h-1.1v-1.1h-1.1v-1.1h-1.1v1.1h-1.1v1.1h-1.1v3.4
			h1.1V52.8z"/>
		<path class="st32" d="M1093,43.9h2.2v9h1.1V54h1.1v-5.6h2.2V54h1.1v-1.1h1.1v-9h2.2V54h-1.1v1.1h-1.1v1.1h-2.2v-1.1h-2.2v1.1h-2.2
			v-1.1h-1.1V54h-1.1V43.9z"/>
		<path class="st32" d="M1108.7,56.2v-1.1h-1.1V54h-1.1v-7.9h1.1V45h1.1v-1.1h6.7V45h1.1v1.1h1.1V54h-1.1v1.1h-1.1v1.1H1108.7z
			 M1109.9,54h4.5v-1.1h1.1v-5.6h-1.1v-1.1h-4.5v1.1h-1.1v5.6h1.1V54z"/>
		<path class="st32" d="M1122.2,49.5v6.7h-2.2V43.9h2.2v2.2h1.1V45h1.1v-1.1h4.5V45h1.1v1.1h1.1v2.2h-2.2v-1.1h-1.1v-1.1h-2.2v1.1
			h-1.1v1.1h-1.1v1.1H1122.2z"/>
		<path class="st32" d="M1135.7,54v2.2h-2.2V40.5h2.2v10.1h1.1v-1.1h1.1v-1.1h1.1v-1.1h1.1v-1.1h1.1V45h1.1v-1.1h2.2v2.2h-1.1v1.1
			h-1.1v1.1h-1.1v1.1h-1.1v1.1h1.1v1.1h1.1v1.1h1.1V54h1.1v2.2h-2.2v-1.1h-1.1V54h-1.1v-1.1h-1.1v-1.1h-1.1v1.1h-1.1V54H1135.7z"/>
		<path class="st32" d="M1151.4,54v-2.2h2.2V54h-1.1v1.1h-1.1v1.1h-2.2v-1.1h1.1V54H1151.4z"/>
		<path class="st32" d="M192.3,77.1v6.7h-2.2V71.5h2.2v2.2h1.1v-1.1h1.1v-1.1h4.5v1.1h1.1v1.1h1.1V76h-2.2v-1.1h-1.1v-1.1h-2.2v1.1
			h-1.1V76h-1.1v1.1H192.3z"/>
		<path class="st32" d="M214.8,80.4v1.1h-1.1v1.1h-1.1v1.1h-6.7v-1.1h-1.1v-1.1h-1.1v-7.9h1.1v-1.1h1.1v-1.1h6.7v1.1h1.1v1.1h1.1
			v3.4h-1.1v1.1h-7.9v2.2h1.1v1.1h4.5v-1.1H214.8z M205.8,74.8V76h6.7v-1.1h-1.1v-1.1h-4.5v1.1H205.8z"/>
		<path class="st32" d="M218.2,81.6H217v-2.2h2.2v1.1h1.1v1.1h4.5v-2.2h-2.2v-1.1h-2.2v-1.1h-2.2V76H217v-2.2h1.1v-1.1h1.1v-1.1h6.7
			v1.1h1.1v1.1h1.1V76H226v-1.1h-1.1v-1.1h-4.5V76h3.4v1.1h2.2v1.1h1.1v1.1h1.1v2.2h-1.1v1.1H226v1.1h-6.7v-1.1h-1.1V81.6z"/>
		<path class="st32" d="M238.4,81.6h1.1v2.2h-2.2v-1.1h-1.1v-1.1H235v-7.9h-2.2v-2.2h2.2v-3.4h2.2v3.4h2.2v2.2h-2.2v6.7h1.1V81.6z"
			/>
		<path class="st32" d="M246.2,77.1v6.7H244V71.5h2.2v2.2h1.1v-1.1h1.1v-1.1h4.5v1.1h1.1v1.1h1.1V76H253v-1.1h-1.1v-1.1h-2.2v1.1
			h-1.1V76h-1.1v1.1H246.2z"/>
		<path class="st32" d="M259.7,83.8v-1.1h-1.1v-1.1h-1.1v-4.5h1.1V76h1.1v-1.1h5.6V76h1.1v-2.2h-1.1v-1.1h-5.6v-2.2h6.7v1.1h1.1v1.1
			h1.1v11.2h-2.2v-1.1h-1.1v1.1H259.7z M260.8,81.6h4.5v-1.1h1.1v-2.2h-1.1v-1.1h-4.5v1.1h-1.1v2.2h1.1V81.6z"/>
		<path class="st32" d="M278.8,81.6h1.1v2.2h-2.2v-1.1h-1.1v-1.1h-1.1V76h-2.2v-2.2h4.5v6.7h1.1V81.6z M277.7,69.2v2.2h-2.2v-2.2
			H277.7z"/>
		<path class="st32" d="M286.7,74.8v9h-2.2V71.5h2.2v1.1h1.1v-1.1h5.6v1.1h1.1v1.1h1.1v10.1h-2.2v-9h-1.1v-1.1h-4.5v1.1H286.7z"/>
		<path class="st32" d="M305.8,81.6h1.1v2.2h-2.2v-1.1h-1.1v-1.1h-1.1v-7.9h-2.2v-2.2h2.2v-3.4h2.2v3.4h2.2v2.2h-2.2v6.7h1.1V81.6z"
			/>
		<path class="st32" d="M327.1,83.8v-1.1H326v-1.1h-1.1v-4.5h1.1V76h1.1v-1.1h5.6V76h1.1v-2.2h-1.1v-1.1h-5.6v-2.2h6.7v1.1h1.1v1.1
			h1.1v11.2h-2.2v-1.1h-1.1v1.1H327.1z M328.2,81.6h4.5v-1.1h1.1v-2.2h-1.1v-1.1h-4.5v1.1h-1.1v2.2h1.1V81.6z"/>
		<path class="st32" d="M340.6,74.8v9h-2.2V71.5h2.2v1.1h1.1v-1.1h5.6v1.1h1.1v1.1h1.1v10.1h-2.2v-9h-1.1v-1.1h-4.5v1.1H340.6z"/>
		<path class="st32" d="M360.8,73.7v-5.6h2.2v15.7h-2.2v-2.2h-1.1v1.1h-1.1v1.1h-3.4v-1.1h-1.1v-1.1h-1.1v-1.1h-1.1v-5.6h1.1v-1.1
			h1.1v-1.1h1.1v-1.1h3.4v1.1h1.1v1.1H360.8z M355.2,80.4h1.1v1.1h1.1v-1.1h1.1v-1.1h1.1V76h-1.1v-1.1h-1.1v-1.1h-1.1v1.1h-1.1V76
			h-1.1v3.4h1.1V80.4z"/>
		<path class="st32" d="M381,77.1v6.7h-2.2V68.1h2.2v5.6h1.1v-1.1h1.1v-1.1h3.4v1.1h1.1v1.1h1.1v1.1h1.1v9h-2.2V76h-1.1v-1.1h-1.1
			v-1.1h-1.1v1.1h-1.1V76h-1.1v1.1H381z"/>
		<path class="st32" d="M392.2,71.5h2.2v9h1.1v1.1h4.5v-1.1h1.1v-9h2.2v10.1h-1.1v1.1h-1.1v1.1h-6.7v-1.1h-1.1v-1.1h-1.1V71.5z"/>
		<path class="st32" d="M408,74.8v9h-2.2V71.5h2.2v1.1h1.1v-1.1h5.6v1.1h1.1v1.1h1.1v10.1h-2.2v-9h-1.1v-1.1h-1.1v10.1h-2.2V73.7
			h-1.1v1.1H408z"/>
		<path class="st32" d="M427.1,81.6h1.1v2.2h-2.2v-1.1h-1.1v-1.1h-1.1V76h-2.2v-2.2h4.5v6.7h1.1V81.6z M425.9,69.2v2.2h-2.2v-2.2
			H425.9z"/>
		<path class="st32" d="M439.4,68.1v15.7h-2.2V68.1H439.4z"/>
		<path class="st32" d="M454,81.6h1.1v2.2h-2.2v-1.1h-1.1v-1.1h-1.1V76h-2.2v-2.2h4.5v6.7h1.1V81.6z M452.9,69.2v2.2h-2.2v-2.2
			H452.9z"/>
		<path class="st32" d="M467.5,81.6h1.1v2.2h-2.2v-1.1h-1.1v-1.1h-1.1v-7.9h-2.2v-2.2h2.2v-3.4h2.2v3.4h2.2v2.2h-2.2v6.7h1.1V81.6z"
			/>
		<path class="st32" d="M475.3,83.8v-2.2h5.6v-1.1h1.1v-3.4H481v1.1h-1.1v1.1h-4.5v-1.1h-1.1v-1.1h-1.1v-6.7h2.2V76h1.1v1.1h2.2V76
			h1.1v-1.1h1.1v-2.2h1.1v-2.2h2.2v11.2h-1.1v1.1h-1.1v1.1H475.3z"/>
		<path class="st32" d="M502.3,83.8v-1.1h-1.1v-1.1H500v-4.5h1.1V76h1.1v-1.1h5.6V76h1.1v-2.2h-1.1v-1.1h-5.6v-2.2h6.7v1.1h1.1v1.1
			h1.1v11.2H509v-1.1h-1.1v1.1H502.3z M503.4,81.6h4.5v-1.1h1.1v-2.2h-1.1v-1.1h-4.5v1.1h-1.1v2.2h1.1V81.6z"/>
		<path class="st32" d="M514.6,81.6h-1.1v-2.2h2.2v1.1h1.1v1.1h4.5v-2.2h-2.2v-1.1h-2.2v-1.1h-2.2V76h-1.1v-2.2h1.1v-1.1h1.1v-1.1
			h6.7v1.1h1.1v1.1h1.1V76h-2.2v-1.1h-1.1v-1.1h-4.5V76h3.4v1.1h2.2v1.1h1.1v1.1h1.1v2.2h-1.1v1.1h-1.1v1.1h-6.7v-1.1h-1.1V81.6z"/>
		<path class="st32" d="M540.5,71.5h2.2v9h1.1v1.1h1.1V76h2.2v5.6h1.1v-1.1h1.1v-9h2.2v10.1h-1.1v1.1h-1.1v1.1h-2.2v-1.1H545v1.1
			h-2.2v-1.1h-1.1v-1.1h-1.1V71.5z"/>
		<path class="st32" d="M565.2,80.4v1.1h-1.1v1.1h-1.1v1.1h-6.7v-1.1h-1.1v-1.1H554v-7.9h1.1v-1.1h1.1v-1.1h6.7v1.1h1.1v1.1h1.1v3.4
			h-1.1v1.1h-7.9v2.2h1.1v1.1h4.5v-1.1H565.2z M556.2,74.8V76h6.7v-1.1h-1.1v-1.1h-4.5v1.1H556.2z"/>
		<path class="st32" d="M574.2,68.1v15.7h-2.2V68.1H574.2z"/>
		<path class="st32" d="M587.6,68.1v15.7h-2.2V68.1H587.6z"/>
		<path class="st32" d="M610.1,83.8v-1.1H609v-1.1h-1.1v-4.5h1.1V76h1.1v-1.1h5.6V76h1.1v-2.2h-1.1v-1.1h-5.6v-2.2h6.7v1.1h1.1v1.1
			h1.1v11.2h-2.2v-1.1h-1.1v1.1H610.1z M611.2,81.6h4.5v-1.1h1.1v-2.2h-1.1v-1.1h-4.5v1.1h-1.1v2.2h1.1V81.6z"/>
		<path class="st32" d="M622.5,81.6h-1.1v-2.2h2.2v1.1h1.1v1.1h4.5v-2.2H627v-1.1h-2.2v-1.1h-2.2V76h-1.1v-2.2h1.1v-1.1h1.1v-1.1
			h6.7v1.1h1.1v1.1h1.1V76h-2.2v-1.1h-1.1v-1.1h-4.5V76h3.4v1.1h2.2v1.1h1.1v1.1h1.1v2.2h-1.1v1.1h-1.1v1.1h-6.7v-1.1h-1.1V81.6z"/>
		<path class="st32" d="M650.5,81.6v2.2h-2.2V68.1h2.2v5.6h1.1v-1.1h1.1v-1.1h3.4v1.1h1.1v1.1h1.1v1.1h1.1v5.6h-1.1v1.1h-1.1v1.1
			h-1.1v1.1h-3.4v-1.1h-1.1v-1.1H650.5z M653.9,81.6h1.1v-1.1h1.1v-1.1h1.1V76h-1.1v-1.1H655v-1.1h-1.1v1.1h-1.1V76h-1.1v3.4h1.1
			v1.1h1.1V81.6z"/>
		<path class="st32" d="M673,80.4v1.1h-1.1v1.1h-1.1v1.1H664v-1.1h-1.1v-1.1h-1.1v-7.9h1.1v-1.1h1.1v-1.1h6.7v1.1h1.1v1.1h1.1v3.4
			h-1.1v1.1H664v2.2h1.1v1.1h4.5v-1.1H673z M664,74.8V76h6.7v-1.1h-1.1v-1.1h-4.5v1.1H664z"/>
		<path class="st32" d="M677.5,83.8v-1.1h-1.1v-1.1h-1.1v-4.5h1.1V76h1.1v-1.1h5.6V76h1.1v-2.2h-1.1v-1.1h-5.6v-2.2h6.7v1.1h1.1v1.1
			h1.1v11.2h-2.2v-1.1h-1.1v1.1H677.5z M678.6,81.6h4.5v-1.1h1.1v-2.2h-1.1v-1.1h-4.5v1.1h-1.1v2.2h1.1V81.6z"/>
		<path class="st32" d="M688.7,71.5h2.2v9h1.1v1.1h4.5v-1.1h1.1v-9h2.2v10.1h-1.1v1.1h-1.1v1.1H691v-1.1h-1.1v-1.1h-1.1V71.5z"/>
		<path class="st32" d="M710.1,81.6h1.1v2.2h-2.2v-1.1h-1.1v-1.1h-1.1v-7.9h-2.2v-2.2h2.2v-3.4h2.2v3.4h2.2v2.2h-2.2v6.7h1.1V81.6z"
			/>
		<path class="st32" d="M717.9,83.8v-2.2h5.6v-1.1h1.1v-3.4h-1.1v1.1h-1.1v1.1h-4.5v-1.1h-1.1v-1.1h-1.1v-6.7h2.2V76h1.1v1.1h2.2V76
			h1.1v-1.1h1.1v-2.2h1.1v-2.2h2.2v11.2h-1.1v1.1h-1.1v1.1H717.9z"/>
		<path class="st32" d="M733.6,81.6v-2.2h2.2v2.2h-1.1v1.1h-1.1v1.1h-2.2v-1.1h1.1v-1.1H733.6z"/>
		<path class="st32" d="M762.8,83.8h-2.2V73.7h-3.4v-2.2h3.4v-2.2h1.1v-1.1h4.5v2.2h-3.4v1.1h3.4v2.2h-3.4V83.8z"/>
		<path class="st32" d="M776.3,68.1v15.7h-2.2V68.1H776.3z"/>
		<path class="st32" d="M785.3,83.8v-1.1h-1.1v-1.1h-1.1v-7.9h1.1v-1.1h1.1v-1.1h6.7v1.1h1.1v1.1h1.1v7.9h-1.1v1.1H792v1.1H785.3z
			 M786.4,81.6h4.5v-1.1h1.1v-5.6h-1.1v-1.1h-4.5v1.1h-1.1v5.6h1.1V81.6z"/>
		<path class="st32" d="M796.5,71.5h2.2v9h1.1v1.1h1.1V76h2.2v5.6h1.1v-1.1h1.1v-9h2.2v10.1h-1.1v1.1h-1.1v1.1h-2.2v-1.1H801v1.1
			h-2.2v-1.1h-1.1v-1.1h-1.1V71.5z"/>
		<path class="st32" d="M821.2,80.4v1.1h-1.1v1.1H819v1.1h-6.7v-1.1h-1.1v-1.1H810v-7.9h1.1v-1.1h1.1v-1.1h6.7v1.1h1.1v1.1h1.1v3.4
			h-1.1v1.1h-7.9v2.2h1.1v1.1h4.5v-1.1H821.2z M812.3,74.8V76h6.7v-1.1h-1.1v-1.1h-4.5v1.1H812.3z"/>
		<path class="st32" d="M825.7,77.1v6.7h-2.2V71.5h2.2v2.2h1.1v-1.1h1.1v-1.1h4.5v1.1h1.1v1.1h1.1V76h-2.2v-1.1h-1.1v-1.1h-2.2v1.1
			H828V76h-1.1v1.1H825.7z"/>
		<path class="st32" d="M838.1,81.6H837v-2.2h2.2v1.1h1.1v1.1h4.5v-2.2h-2.2v-1.1h-2.2v-1.1h-2.2V76H837v-2.2h1.1v-1.1h1.1v-1.1h6.7
			v1.1h1.1v1.1h1.1V76h-2.2v-1.1h-1.1v-1.1h-4.5V76h3.4v1.1h2.2v1.1h1.1v1.1h1.1v2.2h-1.1v1.1h-1.1v1.1h-6.7v-1.1h-1.1V81.6z"/>
		<path class="st32" d="M866.2,83.8v-1.1H865v-1.1h-1.1v-4.5h1.1V76h1.1v-1.1h5.6V76h1.1v-2.2h-1.1v-1.1h-5.6v-2.2h6.7v1.1h1.1v1.1
			h1.1v11.2h-2.2v-1.1h-1.1v1.1H866.2z M867.3,81.6h4.5v-1.1h1.1v-2.2h-1.1v-1.1h-4.5v1.1h-1.1v2.2h1.1V81.6z"/>
		<path class="st32" d="M879.6,74.8v9h-2.2V71.5h2.2v1.1h1.1v-1.1h5.6v1.1h1.1v1.1h1.1v10.1h-2.2v-9h-1.1v-1.1h-4.5v1.1H879.6z"/>
		<path class="st32" d="M899.9,73.7v-5.6h2.2v15.7h-2.2v-2.2h-1.1v1.1h-1.1v1.1h-3.4v-1.1h-1.1v-1.1H892v-1.1h-1.1v-5.6h1.1v-1.1
			h1.1v-1.1h1.1v-1.1h3.4v1.1h1.1v1.1H899.9z M894.2,80.4h1.1v1.1h1.1v-1.1h1.1v-1.1h1.1V76h-1.1v-1.1h-1.1v-1.1h-1.1v1.1h-1.1V76
			h-1.1v3.4h1.1V80.4z"/>
		<path class="st32" d="M920.1,79.3v4.5h-2.2V70.3h2.2v1.1h1.1v-1.1h5.6v1.1h1.1v1.1h1.1v5.6h-1.1v1.1h-1.1v1.1h-5.6v-1.1H920.1z
			 M926.8,73.7h-1.1v-1.1h-3.4v1.1h-1.1v3.4h1.1v1.1h3.4v-1.1h1.1V73.7z"/>
		<path class="st32" d="M933.5,83.8v-1.1h-1.1v-1.1h-1.1v-7.9h1.1v-1.1h1.1v-1.1h6.7v1.1h1.1v1.1h1.1v7.9h-1.1v1.1h-1.1v1.1H933.5z
			 M934.7,81.6h4.5v-1.1h1.1v-5.6h-1.1v-1.1h-4.5v1.1h-1.1v5.6h1.1V81.6z"/>
		<path class="st32" d="M956,80.4v1.1h-1.1v1.1h-1.1v1.1H947v-1.1h-1.1v-1.1h-1.1v-7.9h1.1v-1.1h1.1v-1.1h6.7v1.1h1.1v1.1h1.1v3.4
			h-1.1v1.1H947v2.2h1.1v1.1h4.5v-1.1H956z M947,74.8V76h6.7v-1.1h-1.1v-1.1h-4.5v1.1H947z"/>
		<path class="st32" d="M966.1,81.6h1.1v2.2H965v-1.1h-1.1v-1.1h-1.1v-7.9h-2.2v-2.2h2.2v-3.4h2.2v3.4h2.2v2.2H965v6.7h1.1V81.6z"/>
		<path class="st32" d="M974,77.1v6.7h-2.2V71.5h2.2v2.2h1.1v-1.1h1.1v-1.1h4.5v1.1h1.1v1.1h1.1V76h-2.2v-1.1h-1.1v-1.1h-2.2v1.1
			h-1.1V76h-1.1v1.1H974z"/>
		<path class="st32" d="M987.5,83.8v-2.2h5.6v-1.1h1.1v-3.4h-1.1v1.1h-1.1v1.1h-4.5v-1.1h-1.1v-1.1h-1.1v-6.7h2.2V76h1.1v1.1h2.2V76
			h1.1v-1.1h1.1v-2.2h1.1v-2.2h2.2v11.2h-1.1v1.1h-1.1v1.1H987.5z"/>
		<path class="st32" d="M1004.3,81.6v2.2h-2.2v-2.2H1004.3z"/>
	</g>
</g>
<g id="Layer_6">
</g>
</svg>
