<?xml version="1.0" encoding="utf-8"?>
<!-- Generator: Adobe Illustrator 25.2.3, SVG Export Plug-In . SVG Version: 6.00 Build 0)  -->
<svg version="1.1" xmlns="http://www.w3.org/2000/svg" xmlns:xlink="http://www.w3.org/1999/xlink" x="0px" y="0px"
	 viewBox="0 0 1200 625" style="enable-background:new 0 0 1200 625;" xml:space="preserve">
<style type="text/css">
	.st0{opacity:0.41;}
	.st1{opacity:0.46;}
	.st2{fill:#A8B4A5;}
	.st3{fill:#D18238;}
	.st4{fill:#DD5832;}
	.st5{fill:#EFBD38;}
	.st6{fill:#E3DBCE;}
	.st7{fill:#B16447;}
	.st8{fill:#BAB1A1;}
	.st9{fill:#1D5B76;}
	.st10{fill:#8C2429;}
	.st11{fill:#77736A;}
	.st12{fill:#198691;}
	.st13{fill:#343533;}
	.st14{fill:#613C34;}
	.st15{fill:#EDBC3A;}
	.st16{fill:#FFFFFF;}
	.st17{clip-path:url(#SVGID_2_);fill:#B16447;}
	.st18{clip-path:url(#SVGID_2_);}
	.st19{fill:#153C41;}
	.st20{fill:#1E512E;}
	.st21{fill:#41B5B1;}
	.st22{fill:#9CA051;}
	.st23{fill:#314C2C;}
	.st24{fill:#BF3E3B;}
	.st25{fill:#BE2830;}
	.st26{fill:none;}
	.st27{stroke:#000000;stroke-width:0.5;stroke-miterlimit:10;}
	.st28{font-family:'VCROSDMono';}
	.st29{font-size:23px;}
	.st30{fill:#38874B;}
	.st31{fill:#296D3C;}
</style>
<g id="Layer_1">
</g>
<g id="Layer_5">
	<rect class="st2" width="1200" height="625"/>
</g>
<g id="Layer_2">
	<polygon class="st6" points="963,522 963,450 927,450 927,378 895.5,378 895.5,306 837,306 837,261 832.5,261 832.5,229.5 
		828,229.5 828,211.5 823.5,211.5 823.5,202.5 823.5,184.5 819,184.5 819,171 814.5,171 814.5,153 810,153 810,139.5 805.5,139.5 
		801,139.5 733.5,139.5 729,139.5 661.5,139.5 657,139.5 652.5,139.5 652.5,153 648,153 648,171 643.5,171 643.5,184.5 639,184.5 
		639,202.5 639,211.5 634.5,211.5 634.5,229.5 630,229.5 630,261 603,261 603,229.5 598.5,229.5 598.5,211.5 594,211.5 594,202.5 
		594,184.5 589.5,184.5 589.5,171 585,171 585,153 580.5,153 580.5,139.5 576,139.5 571.5,139.5 504,139.5 499.5,139.5 432,139.5 
		427.5,139.5 423,139.5 423,153 418.5,153 418.5,171 414,171 414,184.5 409.5,184.5 409.5,202.5 409.5,211.5 405,211.5 405,229.5 
		400.5,229.5 400.5,261 396,261 396,306 337.5,306 337.5,378 306,378 306,450 270,450 270,522 238.5,522 238.5,594 396,594 
		418.5,594 571.5,594 661.5,594 814.5,594 837,594 994.5,594 994.5,522 	"/>
</g>
<g id="Layer_3">
	<rect x="463.5" y="247.5" class="st8" width="81" height="31.5"/>
	<rect x="432" y="126" class="st9" width="144" height="13.5"/>
	<rect x="441" y="148.5" class="st9" width="9" height="22.5"/>
	<rect x="459" y="148.5" class="st9" width="9" height="22.5"/>
	<rect x="477" y="148.5" class="st9" width="9" height="22.5"/>
	<rect x="495" y="148.5" class="st9" width="9" height="22.5"/>
	<rect x="513" y="148.5" class="st9" width="9" height="22.5"/>
	<rect x="531" y="148.5" class="st9" width="9" height="22.5"/>
	<rect x="549" y="148.5" class="st9" width="9" height="22.5"/>
	<rect x="427.5" y="193.5" class="st9" width="9" height="31.5"/>
	<rect x="445.5" y="193.5" class="st9" width="9" height="31.5"/>
	<rect x="463.5" y="193.5" class="st9" width="9" height="31.5"/>
	<rect x="481.5" y="193.5" class="st9" width="9" height="31.5"/>
	<rect x="499.5" y="193.5" class="st9" width="9" height="31.5"/>
	<rect x="517.5" y="193.5" class="st9" width="9" height="31.5"/>
	<rect x="535.5" y="193.5" class="st9" width="9" height="31.5"/>
	<rect x="553.5" y="193.5" class="st9" width="9" height="31.5"/>
	<rect x="571.5" y="193.5" class="st9" width="9" height="31.5"/>
	<rect x="463.5" y="247.5" class="st10" width="81" height="4.5"/>
	<rect x="400.5" y="274.5" class="st10" width="54" height="13.5"/>
	
		<rect x="558" y="274.5" transform="matrix(-1 -1.224647e-16 1.224647e-16 -1 1237.5 562.5)" class="st10" width="121.5" height="13.5"/>
	<rect x="490.5" y="256.5" class="st11" width="27" height="18"/>
	<rect x="522" y="256.5" class="st11" width="13.5" height="18"/>
	<rect x="472.5" y="256.5" class="st11" width="13.5" height="18"/>
	<rect x="693" y="247.5" class="st8" width="81" height="31.5"/>
	<rect x="693" y="247.5" class="st10" width="81" height="4.5"/>
	<rect x="720" y="256.5" class="st11" width="27" height="18"/>
	<rect x="751.5" y="256.5" class="st11" width="13.5" height="18"/>
	<rect x="702" y="256.5" class="st11" width="13.5" height="18"/>
	<rect x="783" y="274.5" class="st10" width="54" height="13.5"/>
	<rect x="418.5" y="301.5" class="st8" width="180" height="301.5"/>
	<rect x="657" y="126" class="st10" width="144" height="13.5"/>
	<polygon class="st10" points="814.5,220.5 814.5,202.5 810,202.5 810,198 805.5,198 805.5,189 657,189 657,198 652.5,198 
		652.5,202.5 648,202.5 648,220.5 643.5,220.5 643.5,225 652.5,225 670.5,225 787.5,225 814.5,225 819,225 819,220.5 	"/>
	<polygon class="st10" points="801,166.5 801,157.5 796.5,157.5 796.5,153 666,153 666,157.5 661.5,157.5 661.5,166.5 657,166.5 
		657,171 661.5,171 801,171 805.5,171 805.5,166.5 	"/>
	<g>
		<rect x="427.5" y="310.5" class="st6" width="162" height="27"/>
		<rect x="427.5" y="346.5" class="st6" width="162" height="27"/>
		<rect x="427.5" y="382.5" class="st6" width="162" height="27"/>
		<rect x="427.5" y="418.5" class="st6" width="162" height="27"/>
		<rect x="427.5" y="454.5" class="st6" width="162" height="27"/>
		<rect x="427.5" y="490.5" class="st6" width="162" height="27"/>
		<rect x="427.5" y="526.5" class="st6" width="162" height="27"/>
		<rect x="427.5" y="562.5" class="st6" width="162" height="27"/>
	</g>
	<rect x="643.5" y="301.5" class="st8" width="180" height="301.5"/>
	<g>
		<rect x="652.5" y="310.5" class="st6" width="162" height="27"/>
		<rect x="652.5" y="346.5" class="st6" width="162" height="27"/>
		<rect x="652.5" y="382.5" class="st6" width="162" height="27"/>
		<rect x="652.5" y="418.5" class="st6" width="162" height="27"/>
		<rect x="652.5" y="454.5" class="st6" width="162" height="27"/>
		<rect x="652.5" y="490.5" class="st6" width="162" height="27"/>
		<rect x="652.5" y="526.5" class="st6" width="162" height="27"/>
		<rect x="652.5" y="562.5" class="st6" width="162" height="27"/>
	</g>
</g>
<g id="Layer_7">
	<g>
		<polygon class="st22" points="198,346.5 198,342 193.5,342 193.5,333 189,333 189,324 184.5,324 184.5,319.5 180,319.5 
			175.5,319.5 171,319.5 171,315 166.5,315 166.5,319.5 162,319.5 157.5,319.5 153,319.5 153,324 148.5,324 148.5,328.5 144,328.5 
			144,333 139.5,333 139.5,342 135,342 135,351 130.5,351 130.5,387 135,387 135,400.5 139.5,400.5 139.5,409.5 144,409.5 144,414 
			148.5,414 148.5,418.5 153,418.5 153,427.5 157.5,427.5 157.5,436.5 144,436.5 144,441 139.5,441 139.5,445.5 135,445.5 135,450 
			130.5,450 130.5,454.5 126,454.5 126,463.5 121.5,463.5 121.5,472.5 117,472.5 117,504 117,517.5 121.5,517.5 121.5,531 
			112.5,531 112.5,526.5 112.5,522 108,522 108,513 108,490.5 103.5,490.5 103.5,477 99,477 99,472.5 94.5,472.5 94.5,468 90,468 
			90,463.5 85.5,463.5 85.5,459 81,459 81,454.5 76.5,454.5 76.5,450 72,450 67.5,450 67.5,445.5 45,445.5 40.5,445.5 40.5,450 
			36,450 36,454.5 31.5,454.5 31.5,463.5 27,463.5 27,495 31.5,495 31.5,508.5 36,508.5 36,513 40.5,513 40.5,517.5 45,517.5 
			45,522 49.5,522 49.5,526.5 54,526.5 54,531 58.5,531 58.5,535.5 72,535.5 72,540 81,540 81,544.5 90,544.5 90,558 85.5,558 
			85.5,594 90,594 90,607.5 94.5,607.5 94.5,612 103.5,612 103.5,603 108,603 112.5,603 135,603 139.5,603 144,603 144,594 
			148.5,594 153,594 157.5,594 157.5,567 153,567 153,562.5 148.5,562.5 148.5,553.5 144,553.5 144,544.5 144,531 157.5,531 
			157.5,526.5 162,526.5 162,522 166.5,522 166.5,517.5 171,517.5 171,513 175.5,513 175.5,504 180,504 180,495 184.5,495 189,495 
			189,490.5 193.5,490.5 193.5,450 189,450 189,445.5 184.5,445.5 184.5,441 180,441 180,436.5 180,427.5 184.5,427.5 184.5,418.5 
			189,418.5 189,405 193.5,405 193.5,396 198,396 198,391.5 202.5,391.5 202.5,346.5 		"/>
		<rect x="171" y="355.5" class="st23" width="4.5" height="13.5"/>
		<rect x="157.5" y="342" class="st23" width="4.5" height="13.5"/>
		<rect x="139.5" y="346.5" class="st23" width="4.5" height="13.5"/>
		<rect x="180" y="396" class="st23" width="4.5" height="13.5"/>
		<rect x="153" y="396" class="st23" width="4.5" height="13.5"/>
		<rect x="63" y="477" class="st23" width="4.5" height="4.5"/>
		<rect x="67.5" y="481.5" class="st23" width="4.5" height="4.5"/>
		<rect x="67.5" y="459" class="st23" width="4.5" height="4.5"/>
		<rect x="72" y="463.5" class="st23" width="4.5" height="4.5"/>
		<rect x="36" y="477" class="st23" width="4.5" height="4.5"/>
		<rect x="40.5" y="481.5" class="st23" width="4.5" height="4.5"/>
		<rect x="72" y="517.5" class="st23" width="4.5" height="4.5"/>
		<rect x="76.5" y="522" class="st23" width="4.5" height="4.5"/>
		<rect x="81" y="504" class="st23" width="4.5" height="4.5"/>
		<rect x="85.5" y="508.5" class="st23" width="4.5" height="4.5"/>
		<rect x="99" y="517.5" class="st23" width="4.5" height="4.5"/>
		<rect x="103.5" y="522" class="st23" width="4.5" height="4.5"/>
		<rect x="130.5" y="486" class="st23" width="4.5" height="9"/>
		<rect x="162" y="477" class="st23" width="4.5" height="13.5"/>
		<rect x="148.5" y="468" class="st23" width="4.5" height="4.5"/>
		<rect x="153" y="463.5" class="st23" width="4.5" height="4.5"/>
		<rect x="171" y="454.5" class="st23" width="4.5" height="9"/>
		<rect x="139.5" y="513" class="st23" width="4.5" height="4.5"/>
		<rect x="144" y="508.5" class="st23" width="4.5" height="4.5"/>
		<rect x="148.5" y="504" class="st23" width="4.5" height="4.5"/>
		<rect x="126" y="567" class="st23" width="4.5" height="9"/>
		<rect x="99" y="553.5" class="st23" width="4.5" height="13.5"/>
		<rect x="108" y="585" class="st23" width="4.5" height="9"/>
		<polygon class="st24" points="157.5,301.5 157.5,297 153,297 148.5,297 144,297 144,301.5 139.5,301.5 139.5,319.5 144,319.5 
			144,324 148.5,324 148.5,328.5 153,328.5 162,328.5 162,324 162,319.5 162,301.5 		"/>
		<rect x="166.5" y="292.5" class="st24" width="13.5" height="31.5"/>
		<rect x="166.5" y="292.5" class="st24" width="18" height="27"/>
		<rect x="171" y="288" class="st24" width="9" height="4.5"/>
		<polygon class="st24" points="202.5,310.5 202.5,306 198,306 193.5,306 193.5,310.5 189,310.5 189,333 189,337.5 193.5,337.5 
			198,337.5 202.5,337.5 207,337.5 207,333 207,310.5 		"/>
		<rect x="49.5" y="423" class="st25" width="4.5" height="18"/>
		<rect x="54" y="418.5" class="st25" width="18" height="22.5"/>
		<rect x="58.5" y="414" class="st25" width="13.5" height="4.5"/>
		<rect x="54" y="441" class="st25" width="13.5" height="4.5"/>
		<polygon class="st25" points="36,441 36,436.5 31.5,436.5 31.5,432 27,432 22.5,432 18,432 18,436.5 13.5,436.5 13.5,450 18,450 
			18,459 22.5,459 22.5,463.5 27,463.5 31.5,463.5 36,463.5 40.5,463.5 40.5,441 		"/>
	</g>
	<g>
		<polygon class="st22" points="1005.1,349.7 1005.1,345.2 1009.6,345.2 1009.6,336.2 1014.1,336.2 1014.1,327.2 1018.6,327.2 
			1018.6,322.7 1023.1,322.7 1027.6,322.7 1032.1,322.7 1032.1,318.2 1036.6,318.2 1036.6,322.7 1041.1,322.7 1045.6,322.7 
			1050.1,322.7 1050.1,327.2 1054.6,327.2 1054.6,331.7 1059.1,331.7 1059.1,336.2 1063.6,336.2 1063.6,345.2 1068.1,345.2 
			1068.1,354.2 1072.6,354.2 1072.6,390.2 1068.1,390.2 1068.1,403.7 1063.6,403.7 1063.6,412.7 1059.1,412.7 1059.1,417.2 
			1054.6,417.2 1054.6,421.7 1050.1,421.7 1050.1,430.7 1045.6,430.7 1045.6,439.7 1059.1,439.7 1059.1,444.2 1063.6,444.2 
			1063.6,448.7 1068.1,448.7 1068.1,453.2 1072.6,453.2 1072.6,457.7 1077.1,457.7 1077.1,466.7 1081.6,466.7 1081.6,475.7 
			1086.1,475.7 1086.1,507.2 1086.1,520.7 1081.6,520.7 1081.6,534.2 1090.6,534.2 1090.6,529.7 1090.6,525.2 1095.1,525.2 
			1095.1,516.2 1095.1,493.7 1099.6,493.7 1099.6,480.2 1104.1,480.2 1104.1,475.7 1108.6,475.7 1108.6,471.2 1113.1,471.2 
			1113.1,466.7 1117.6,466.7 1117.6,462.2 1122.1,462.2 1122.1,457.7 1126.6,457.7 1126.6,453.2 1131.1,453.2 1135.6,453.2 
			1135.6,448.7 1158.1,448.7 1162.6,448.7 1162.6,453.2 1167.1,453.2 1167.1,457.7 1171.6,457.7 1171.6,466.7 1176.1,466.7 
			1176.1,498.2 1171.6,498.2 1171.6,511.7 1167.1,511.7 1167.1,516.2 1162.6,516.2 1162.6,520.7 1158.1,520.7 1158.1,525.2 
			1153.6,525.2 1153.6,529.7 1149.1,529.7 1149.1,534.2 1144.6,534.2 1144.6,538.7 1131.1,538.7 1131.1,543.2 1122.1,543.2 
			1122.1,547.7 1113.1,547.7 1113.1,561.2 1117.6,561.2 1117.6,597.2 1113.1,597.2 1113.1,610.7 1108.6,610.7 1108.6,615.2 
			1099.6,615.2 1099.6,606.2 1095.1,606.2 1090.6,606.2 1068.1,606.2 1063.6,606.2 1059.1,606.2 1059.1,597.2 1054.6,597.2 
			1050.1,597.2 1045.6,597.2 1045.6,570.2 1050.1,570.2 1050.1,565.7 1054.6,565.7 1054.6,556.7 1059.1,556.7 1059.1,547.7 
			1059.1,534.2 1045.6,534.2 1045.6,529.7 1041.1,529.7 1041.1,525.2 1036.6,525.2 1036.6,520.7 1032.1,520.7 1032.1,516.2 
			1027.6,516.2 1027.6,507.2 1023.1,507.2 1023.1,498.2 1018.6,498.2 1014.1,498.2 1014.1,493.7 1009.6,493.7 1009.6,453.2 
			1014.1,453.2 1014.1,448.7 1018.6,448.7 1018.6,444.2 1023.1,444.2 1023.1,439.7 1023.1,430.7 1018.6,430.7 1018.6,421.7 
			1014.1,421.7 1014.1,408.2 1009.6,408.2 1009.6,399.2 1005.1,399.2 1005.1,394.7 1000.6,394.7 1000.6,349.7 		"/>
		
			<rect x="1027.6" y="358.7" transform="matrix(-1 -4.486867e-11 4.486867e-11 -1 2059.6235 730.9638)" class="st23" width="4.5" height="13.5"/>
		
			<rect x="1041.1" y="345.2" transform="matrix(-1 -4.446411e-11 4.446411e-11 -1 2086.6235 703.9638)" class="st23" width="4.5" height="13.5"/>
		
			<rect x="1059.1" y="349.7" transform="matrix(-1 -4.446411e-11 4.446411e-11 -1 2122.6235 712.9638)" class="st23" width="4.5" height="13.5"/>
		
			<rect x="1018.6" y="399.2" transform="matrix(-1 -4.486867e-11 4.486867e-11 -1 2041.6234 811.9638)" class="st23" width="4.5" height="13.5"/>
		
			<rect x="1045.6" y="399.2" transform="matrix(-1 -4.486867e-11 4.486867e-11 -1 2095.6235 811.9638)" class="st23" width="4.5" height="13.5"/>
		
			<rect x="1135.6" y="480.2" transform="matrix(-1 -4.486867e-11 4.486867e-11 -1 2275.6235 964.9638)" class="st23" width="4.5" height="4.5"/>
		
			<rect x="1131.1" y="484.7" transform="matrix(-1 -4.486867e-11 4.486867e-11 -1 2266.6235 973.9638)" class="st23" width="4.5" height="4.5"/>
		
			<rect x="1131.1" y="462.2" transform="matrix(-1 -4.486867e-11 4.486867e-11 -1 2266.6235 928.9638)" class="st23" width="4.5" height="4.5"/>
		
			<rect x="1126.6" y="466.7" transform="matrix(-1 -4.486867e-11 4.486867e-11 -1 2257.6235 937.9638)" class="st23" width="4.5" height="4.5"/>
		
			<rect x="1162.6" y="480.2" transform="matrix(-1 -4.486867e-11 4.486867e-11 -1 2329.6235 964.9638)" class="st23" width="4.5" height="4.5"/>
		
			<rect x="1158.1" y="484.7" transform="matrix(-1 -4.486867e-11 4.486867e-11 -1 2320.6235 973.9638)" class="st23" width="4.5" height="4.5"/>
		
			<rect x="1126.6" y="520.7" transform="matrix(-1 -4.486867e-11 4.486867e-11 -1 2257.6235 1045.9639)" class="st23" width="4.5" height="4.5"/>
		
			<rect x="1122.1" y="525.2" transform="matrix(-1 -4.486867e-11 4.486867e-11 -1 2248.6235 1054.9639)" class="st23" width="4.5" height="4.5"/>
		
			<rect x="1117.6" y="507.2" transform="matrix(-1 -4.527280e-11 4.527280e-11 -1 2239.6235 1018.9638)" class="st23" width="4.5" height="4.5"/>
		
			<rect x="1113.1" y="511.7" transform="matrix(-1 -4.486867e-11 4.486867e-11 -1 2230.6235 1027.9639)" class="st23" width="4.5" height="4.5"/>
		
			<rect x="1099.6" y="520.7" transform="matrix(-1 -4.486867e-11 4.486867e-11 -1 2203.6235 1045.9639)" class="st23" width="4.5" height="4.5"/>
		
			<rect x="1095.1" y="525.2" transform="matrix(-1 -4.486867e-11 4.486867e-11 -1 2194.6235 1054.9639)" class="st23" width="4.5" height="4.5"/>
		
			<rect x="1068.1" y="489.2" transform="matrix(-1 -4.486867e-11 4.486867e-11 -1 2140.6235 987.4638)" class="st23" width="4.5" height="9"/>
		
			<rect x="1036.6" y="480.2" transform="matrix(-1 -4.486867e-11 4.486867e-11 -1 2077.6235 973.9638)" class="st23" width="4.5" height="13.5"/>
		
			<rect x="1050.1" y="471.2" transform="matrix(-1 -4.486867e-11 4.486867e-11 -1 2104.6235 946.9638)" class="st23" width="4.5" height="4.5"/>
		
			<rect x="1045.6" y="466.7" transform="matrix(-1 -4.486867e-11 4.486867e-11 -1 2095.6235 937.9638)" class="st23" width="4.5" height="4.5"/>
		
			<rect x="1027.6" y="457.7" transform="matrix(-1 -4.486867e-11 4.486867e-11 -1 2059.6235 924.4638)" class="st23" width="4.5" height="9"/>
		
			<rect x="1059.1" y="516.2" transform="matrix(-1 -4.486867e-11 4.486867e-11 -1 2122.6235 1036.9639)" class="st23" width="4.5" height="4.5"/>
		
			<rect x="1054.6" y="511.7" transform="matrix(-1 -4.527280e-11 4.527280e-11 -1 2113.6235 1027.9639)" class="st23" width="4.5" height="4.5"/>
		
			<rect x="1050.1" y="507.2" transform="matrix(-1 -4.486867e-11 4.486867e-11 -1 2104.6235 1018.9638)" class="st23" width="4.5" height="4.5"/>
		
			<rect x="1072.6" y="570.2" transform="matrix(-1 -4.486867e-11 4.486867e-11 -1 2149.6235 1149.4639)" class="st23" width="4.5" height="9"/>
		
			<rect x="1099.6" y="556.7" transform="matrix(-1 -4.486867e-11 4.486867e-11 -1 2203.6235 1126.9639)" class="st23" width="4.5" height="13.5"/>
		
			<rect x="1090.6" y="588.2" transform="matrix(-1 -4.486867e-11 4.486867e-11 -1 2185.6235 1185.4639)" class="st23" width="4.5" height="9"/>
		<polygon class="st24" points="1045.6,304.7 1045.6,300.2 1050.1,300.2 1054.6,300.2 1059.1,300.2 1059.1,304.7 1063.6,304.7 
			1063.6,322.7 1059.1,322.7 1059.1,327.2 1054.6,327.2 1054.6,331.7 1050.1,331.7 1041.1,331.7 1041.1,327.2 1041.1,322.7 
			1041.1,304.7 		"/>
		
			<rect x="1023.1" y="295.7" transform="matrix(-1 -4.486867e-11 4.486867e-11 -1 2059.6235 622.9638)" class="st24" width="13.5" height="31.5"/>
		
			<rect x="1018.6" y="295.7" transform="matrix(-1 -4.486867e-11 4.486867e-11 -1 2055.1235 618.4638)" class="st24" width="18" height="27"/>
		
			<rect x="1023.1" y="291.2" transform="matrix(-1 -4.486867e-11 4.486867e-11 -1 2055.1235 586.9638)" class="st24" width="9" height="4.5"/>
		<polygon class="st24" points="1000.6,313.7 1000.6,309.2 1005.1,309.2 1009.6,309.2 1009.6,313.7 1014.1,313.7 1014.1,336.2 
			1014.1,340.7 1009.6,340.7 1005.1,340.7 1000.6,340.7 996.1,340.7 996.1,336.2 996.1,313.7 		"/>
		
			<rect x="1149.1" y="426.2" transform="matrix(-1 -4.486867e-11 4.486867e-11 -1 2302.6235 870.4638)" class="st25" width="4.5" height="18"/>
		
			<rect x="1131.1" y="421.7" transform="matrix(-1 -4.486867e-11 4.486867e-11 -1 2280.1235 865.9638)" class="st25" width="18" height="22.5"/>
		
			<rect x="1131.1" y="417.2" transform="matrix(-1 -4.486867e-11 4.486867e-11 -1 2275.6235 838.9638)" class="st25" width="13.5" height="4.5"/>
		
			<rect x="1135.6" y="444.2" transform="matrix(-1 -4.486867e-11 4.486867e-11 -1 2284.6235 892.9638)" class="st25" width="13.5" height="4.5"/>
		<polygon class="st25" points="1167.1,444.2 1167.1,439.7 1171.6,439.7 1171.6,435.2 1176.1,435.2 1180.6,435.2 1185.1,435.2 
			1185.1,439.7 1189.6,439.7 1189.6,453.2 1185.1,453.2 1185.1,462.2 1180.6,462.2 1180.6,466.7 1176.1,466.7 1171.6,466.7 
			1167.1,466.7 1162.6,466.7 1162.6,444.2 		"/>
	</g>
</g>
<g id="Layer_4">
	<rect x="4.2" y="27" class="st26" width="1191.5" height="49.5"/>
	<text transform="matrix(1 0 0 1 148.5355 43.8359)"><tspan x="0" y="0" class="st27 st28 st29">The Aztecs had massive aqueducts, stone temples, artificial islands </tspan><tspan x="161.7" y="27.6" class="st27 st28 st29">and their capitalcity floated on the water.</tspan></text>
</g>
<g id="Layer_6">
	<polygon class="st30" points="1182,562 1182,567 1164,567 1164,571.5 1155,571.5 1155,576 1096.5,576 1096.5,571.5 1083,571.5 
		1083,567 1056,567 1056,558 1024.5,558 1024.5,553.5 1006.5,553.5 1006.5,549 997.5,549 997.5,544.5 984,544.5 984,540 970.5,540 
		970.5,535.5 961.5,535.5 961.5,531 948,531 948,526.5 939,526.5 939,522 841.5,522 841.5,517.5 783,517.5 783,522 756,522 
		756,526.5 729,526.5 729,531 697.5,531 697.5,535.5 666,535.5 666,540 634.5,540 634.5,544.5 594,544.5 594,549 535.5,549 513,549 
		513,544.5 490.5,544.5 490.5,540 481.5,540 481.5,535.5 436.5,535.5 436.5,531 414,531 414,526.5 373.5,526.5 373.5,522 261,522 
		261,526.5 252,526.5 252,531 238.5,531 238.5,535.5 229.5,535.5 229.5,540 216,540 216,544.5 202.5,544.5 202.5,549 193.5,549 
		193.5,553.5 175.5,553.5 175.5,558 144,558 144,567 117,567 117,571.5 103.5,571.5 103.5,576 45,576 45,571.5 36,571.5 36,567 
		18,567 18,562 0,562 0,585.1 0,616.5 0,625 535.5,625 539.4,625 660.6,625 668.7,625 1200,625 1200,616.5 1200,585.1 1200,562 	"/>
	<polyline class="st31" points="1201.5,585 1134,585 1134,580.5 1111.5,580.5 1111.5,576 1098,576 1098,571.5 1080,571.5 1080,567 
		1026,567 1026,571.5 1008,571.5 1008,576 999,576 999,580.5 981,580.5 981,585 972,585 972,589.5 859.5,589.5 859.5,585 796.5,585 
		796.5,580.5 783,580.5 783,576 751.5,576 747,576 747,571.5 742.5,571.5 724.5,571.5 724.5,567 630,567 630,571.5 612,571.5 
		607.5,571.5 607.5,576 603,576 571.5,576 571.5,580.5 558,580.5 558,585 495,585 495,589.5 382.5,589.5 382.5,585 373.5,585 
		373.5,580.5 355.5,580.5 355.5,576 346.5,576 346.5,571.5 328.5,571.5 328.5,567 274.5,567 274.5,571.5 256.5,571.5 256.5,576 
		243,576 243,580.5 220.5,580.5 220.5,585 117,585 117,580.5 4.5,580.5 4.5,589.5 0,589.5 0,612 121.5,612 121.5,607.5 382.5,607.5 
		382.5,603 495,603 495,612 589.5,612 589.5,603 634.5,603 720,603 765,603 765,612 859.5,612 859.5,603 972,603 972,607.5 
		1201.5,607.5 	"/>
	<polygon class="st20" points="1186.5,612.8 1186.5,607.5 1164,607.5 1164,598.5 1132.5,598.5 1132.5,594 1114.5,594 1114.5,589.5 
		1096.5,589.5 1096.5,585 984,585 984,589.5 970.5,589.5 970.5,594 966,594 943.5,594 889.5,594 889.5,598.5 849,598.5 849,594 
		795,594 795,589.5 763.5,589.5 763.5,585 732,585 732,580.5 637.5,580.5 637.5,585 601.5,585 598.5,585 562.5,585 562.5,580.5 
		468,580.5 468,585 436.5,585 436.5,589.5 405,589.5 405,594 351,594 351,598.5 310.5,598.5 310.5,594 256.5,594 234,594 229.5,594 
		229.5,589.5 216,589.5 216,585 103.5,585 103.5,589.5 85.5,589.5 85.5,594 67.5,594 67.5,598.5 36,598.5 36,607.5 13.5,607.5 
		13.5,612.8 0,612.8 0,625 252,625 267.1,625 283.5,625 351,625 367.4,625 451.7,625 483.5,625 580.5,625 589.4,625 610.6,625 
		619.5,625 716.5,625 748.3,625 832.6,625 849,625 916.5,625 932.9,625 948,625 1200,625 1200,612.8 	"/>
</g>
</svg>
