<?xml version="1.0" encoding="utf-8"?>
<!-- Generator: Adobe Illustrator 25.2.3, SVG Export Plug-In . SVG Version: 6.00 Build 0)  -->
<svg version="1.1" xmlns="http://www.w3.org/2000/svg" xmlns:xlink="http://www.w3.org/1999/xlink" x="0px" y="0px"
	 viewBox="0 0 800 580" style="enable-background:new 0 0 800 580;" xml:space="preserve">
<style type="text/css">
	.st0{opacity:0.41;}
	.st1{opacity:0.46;}
	.st2{fill:#A8B4A5;}
	.st3{opacity:0.37;}
	.st4{opacity:0.5;}
	.st5{fill:#296D3C;}
	.st6{fill:#38874B;}
	.st7{fill:#D2C6B1;}
	.st8{fill:#8C2429;}
	.st9{fill:#41B5B1;}
	.st10{fill:#E3DBCE;}
	.st11{fill:#EFBD38;}
	.st12{fill:#D9CEB8;}
	.st13{fill:#343533;}
	.st14{fill:#B16447;}
	.st15{fill:#D18238;}
	.st16{fill:#198691;}
	.st17{fill:#613C34;}
	.st18{fill:#EDBC3A;}
	.st19{fill:#FFFFFF;}
	.st20{clip-path:url(#SVGID_2_);fill:#E3DBCE;}
	.st21{clip-path:url(#SVGID_2_);}
	.st22{clip-path:url(#SVGID_2_);fill:#613C34;}
	.st23{clip-path:url(#SVGID_2_);fill:#B16447;}
	.st24{fill:#153C41;}
	.st25{fill:#1E512E;}
	.st26{fill:#1D5B76;}
	.st27{fill:#633D34;}
	.st28{fill:#BE2830;}
	.st29{fill:#E3963A;}
	.st30{fill:#DD5832;}
	.st31{clip-path:url(#SVGID_4_);}
	.st32{fill:#4B4B4B;}
	.st33{fill:#9CA051;}
	.st34{fill:#FDE22F;}
	.st35{fill:#00964C;}
	.st36{fill:#F69C33;}
	.st37{fill:#FBD630;}
	.st38{fill:#9F672F;}
	.st39{fill:#E3C395;}
	.st40{fill:#E3DDD4;}
	.st41{fill:#7F7A74;}
	.st42{fill:#BFB4A9;}
	.st43{fill:#716454;}
	.st44{fill:#010101;}
	.st45{fill:#33A04D;}
	.st46{fill:#EBD0A3;}
	.st47{fill:none;stroke:#231F20;stroke-miterlimit:10;}
	.st48{fill:#96BC50;}
	.st49{fill:#D73D94;}
	.st50{fill:#EFB534;}
	.st51{fill:#B77366;}
	.st52{fill:#668B40;}
	.st53{fill:#15120F;}
	.st54{clip-path:url(#SVGID_6_);fill:#A8B4A5;}
	.st55{clip-path:url(#SVGID_6_);}
	.st56{clip-path:url(#SVGID_6_);fill:#E3DBCE;}
	.st57{clip-path:url(#SVGID_6_);fill:#BAB1A1;}
	.st58{clip-path:url(#SVGID_6_);fill:#1D5B76;}
	.st59{clip-path:url(#SVGID_6_);fill:#8C2429;}
	.st60{clip-path:url(#SVGID_6_);fill:#77736A;}
	.st61{fill:#314C2C;}
	.st62{fill:#BF3E3B;}
	.st63{clip-path:url(#SVGID_6_);fill:#38874B;}
	.st64{clip-path:url(#SVGID_6_);fill:#296D3C;}
	.st65{clip-path:url(#SVGID_6_);fill:#1E512E;}
</style>
<g id="Layer_1">
</g>
<g id="Layer_5">
</g>
<g id="Layer_2">
</g>
<g id="Layer_3">
	<g>
		<defs>
			<rect id="SVGID_1_" y="-45" width="800" height="625.5"/>
		</defs>
		<clipPath id="SVGID_2_">
			<use xlink:href="#SVGID_1_"  style="overflow:visible;"/>
		</clipPath>
		<rect y="-45" class="st20" width="800" height="625"/>
		<g class="st21">
			<polygon class="st14" points="173,265 173,259.8 167.8,259.8 167.8,254.6 167.8,244.2 162.6,244.2 162.6,239 157.4,239 
				157.4,233.8 152.2,233.8 152.2,228.6 120.9,228.6 120.9,233.8 115.7,233.8 115.7,239 110.5,239 110.5,244.2 105.3,244.2 
				105.3,254.6 105.3,259.8 100.1,259.8 100.1,265 94.8,265 94.8,285.9 100.1,285.9 110.5,285.9 110.5,322.3 115.7,322.3 
				115.7,327.6 120.9,327.6 131.3,327.6 141.7,327.6 152.2,327.6 157.4,327.6 157.4,322.3 162.6,322.3 162.6,285.9 173,285.9 
				178.2,285.9 178.2,265 			"/>
			<rect x="105.3" y="285.9" class="st14" width="62.5" height="5.2"/>
			<rect x="115.7" y="327.6" class="st17" width="41.7" height="5.2"/>
			<polygon class="st18" points="266.8,457.8 266.8,405.7 261.6,405.7 261.6,390.1 256.4,390.1 256.4,379.7 251.2,379.7 
				251.2,374.4 245.9,374.4 245.9,369.2 230.3,369.2 230.3,364 209.5,364 199.1,364 193.8,364 79.2,364 68.8,364 58.4,364 37.5,364 
				37.5,369.2 21.9,369.2 21.9,374.4 16.7,374.4 16.7,379.7 11.5,379.7 11.5,390.1 6.3,390.1 6.3,405.7 1.1,405.7 1.1,457.8 
				-4.2,457.8 -4.2,530.8 1.1,530.8 1.1,541.2 6.3,541.2 6.3,546.4 6.3,551.6 11.5,551.6 11.5,562 16.7,562 16.7,588.1 21.9,588.1 
				21.9,593.3 21.9,598.5 53.2,598.5 53.2,593.3 53.2,551.6 53.2,546.4 53.2,530.8 47.9,530.8 47.9,515.1 42.7,515.1 42.7,483.9 
				47.9,483.9 47.9,478.7 53.2,478.7 53.2,483.9 53.2,489.1 58.4,489.1 58.4,499.5 63.6,499.5 63.6,504.7 68.8,504.7 68.8,515.1 
				74,515.1 74,530.8 74,582.9 193.8,582.9 193.8,530.8 193.8,515.1 199.1,515.1 199.1,504.7 204.3,504.7 204.3,499.5 209.5,499.5 
				209.5,489.1 214.7,489.1 214.7,483.9 214.7,478.7 219.9,478.7 219.9,483.9 225.1,483.9 225.1,515.1 219.9,515.1 219.9,530.8 
				214.7,530.8 214.7,546.4 214.7,551.6 214.7,593.3 214.7,598.5 245.9,598.5 245.9,593.3 245.9,588.1 251.2,588.1 251.2,562 
				256.4,562 256.4,551.6 261.6,551.6 261.6,546.4 261.6,541.2 266.8,541.2 266.8,530.8 272,530.8 272,457.8 			"/>
			<polygon class="st14" points="188.6,358.8 188.6,353.6 167.8,353.6 167.8,348.4 157.4,348.4 157.4,332.8 115.7,332.8 
				115.7,348.4 105.3,348.4 105.3,353.6 79.2,353.6 79.2,358.8 68.8,358.8 68.8,364 79.2,364 79.2,369.2 89.6,369.2 89.6,374.4 
				178.2,374.4 178.2,369.2 188.6,369.2 188.6,364 199.1,364 199.1,358.8 			"/>
			<polygon class="st8" points="204.3,364 204.3,358.8 199.1,358.8 199.1,364 188.6,364 188.6,369.2 178.2,369.2 178.2,374.4 
				89.6,374.4 89.6,369.2 79.2,369.2 79.2,364 68.8,364 68.8,358.8 63.6,358.8 63.6,364 58.4,364 58.4,369.2 58.4,374.4 74,374.4 
				74,379.7 89.6,379.7 89.6,384.9 120.9,384.9 120.9,390.1 152.2,390.1 152.2,384.9 183.4,384.9 183.4,379.7 199.1,379.7 
				199.1,374.4 209.5,374.4 209.5,369.2 209.5,364 			"/>
			
				<rect x="126.1" y="270.2" transform="matrix(-1 -4.503388e-11 4.503388e-11 -1 257.4211 545.6842)" class="st13" width="5.2" height="5.2"/>
			
				<rect x="110.5" y="265" transform="matrix(-1 -4.480117e-11 4.480117e-11 -1 236.5789 535.2632)" class="st13" width="15.6" height="5.2"/>
			
				<rect x="115.7" y="270.2" transform="matrix(-1 -4.468482e-11 4.468482e-11 -1 236.5789 545.6842)" class="st13" width="5.2" height="5.2"/>
			<rect x="131.3" y="291.1" class="st17" width="10.4" height="5.2"/>
			<rect x="141.7" y="285.9" class="st17" width="5.2" height="5.2"/>
			<rect x="126.1" y="285.9" class="st17" width="5.2" height="5.2"/>
			<rect x="120.9" y="306.7" class="st17" width="31.3" height="5.2"/>
			<polygon class="st15" points="105.3,291.1 100.1,291.1 100.1,285.9 94.8,285.9 94.8,291.1 89.6,291.1 89.6,301.5 94.8,301.5 
				94.8,306.7 100.1,306.7 100.1,301.5 105.3,301.5 			"/>
			<polygon class="st15" points="183.4,291.1 178.2,291.1 178.2,285.9 173,285.9 173,291.1 167.8,291.1 167.8,301.5 173,301.5 
				173,306.7 178.2,306.7 178.2,301.5 183.4,301.5 			"/>
			<rect x="100.1" y="254.6" class="st17" width="5.2" height="31.3"/>
			<rect x="167.8" y="254.6" class="st17" width="5.2" height="31.3"/>
			<polygon class="st13" points="141.7,207.7 141.7,202.5 131.3,202.5 131.3,207.7 126.1,207.7 126.1,228.6 131.3,228.6 
				141.7,228.6 146.9,228.6 146.9,207.7 			"/>
			<rect x="152.2" y="233.8" class="st16" width="5.2" height="93.8"/>
			<rect x="157.4" y="239" class="st16" width="5.2" height="88.6"/>
			<rect x="141.7" y="270.2" class="st13" width="5.2" height="5.2"/>
			<rect x="146.9" y="265" class="st13" width="15.6" height="5.2"/>
			<rect x="152.2" y="270.2" class="st13" width="5.2" height="5.2"/>
			<rect x="110.5" y="322.3" class="st14" width="20.8" height="5.2"/>
			<polygon class="st19" points="146.9,390.1 141.7,390.1 131.3,390.1 126.1,390.1 126.1,400.5 131.3,400.5 131.3,410.9 
				141.7,410.9 141.7,400.5 146.9,400.5 			"/>
			<g>
				<polygon class="st19" points="183.4,379.7 183.4,384.9 173,384.9 173,390.1 183.4,390.1 188.6,390.1 188.6,379.7 				"/>
				<rect x="188.6" y="390.1" class="st19" width="5.2" height="5.2"/>
				<rect x="193.8" y="395.3" class="st19" width="5.2" height="5.2"/>
			</g>
			<polygon class="st19" points="214.7,364 209.5,364 209.5,374.4 214.7,374.4 214.7,369.2 225.1,369.2 225.1,364 			"/>
			<g>
				<polygon class="st19" points="89.6,379.7 89.6,384.9 100.1,384.9 100.1,390.1 89.6,390.1 84.4,390.1 84.4,379.7 				"/>
				<rect x="79.2" y="390.1" class="st19" width="5.2" height="5.2"/>
				<rect x="74" y="395.3" class="st19" width="5.2" height="5.2"/>
			</g>
			<polygon class="st19" points="58.4,364 63.6,364 63.6,374.4 58.4,374.4 58.4,369.2 47.9,369.2 47.9,364 			"/>
		</g>
		<g class="st21">
			<polygon class="st16" points="802.6,464.8 802.6,416 797.7,416 797.7,401.3 792.8,401.3 792.8,391.5 788,391.5 788,386.7 
				783.1,386.7 783.1,381.8 768.4,381.8 768.4,376.9 748.9,376.9 739.1,376.9 734.2,376.9 626.7,376.9 616.9,376.9 607.1,376.9 
				587.6,376.9 587.6,381.8 572.9,381.8 572.9,386.7 568,386.7 568,391.5 563.2,391.5 563.2,401.3 558.3,401.3 558.3,416 553.4,416 
				553.4,464.8 548.5,464.8 548.5,533.3 553.4,533.3 553.4,543 558.3,543 558.3,547.9 558.3,552.8 563.2,552.8 563.2,562.6 
				568,562.6 568,587 572.9,587 572.9,591.9 572.9,596.8 602.3,596.8 602.3,591.9 602.3,552.8 602.3,547.9 602.3,533.3 597.4,533.3 
				597.4,518.6 592.5,518.6 592.5,489.3 597.4,489.3 597.4,484.4 602.3,484.4 602.3,489.3 602.3,494.2 607.1,494.2 607.1,503.9 
				612,503.9 612,508.8 616.9,508.8 616.9,518.6 621.8,518.6 621.8,533.3 621.8,582.1 734.2,582.1 734.2,533.3 734.2,518.6 
				739.1,518.6 739.1,508.8 744,508.8 744,503.9 748.9,503.9 748.9,494.2 753.7,494.2 753.7,489.3 753.7,484.4 758.6,484.4 
				758.6,489.3 763.5,489.3 763.5,518.6 758.6,518.6 758.6,533.3 753.7,533.3 753.7,547.9 753.7,552.8 753.7,591.9 753.7,596.8 
				783.1,596.8 783.1,591.9 783.1,587 788,587 788,562.6 792.8,562.6 792.8,552.8 797.7,552.8 797.7,547.9 797.7,543 802.6,543 
				802.6,533.3 807.5,533.3 807.5,464.8 			"/>
			<polygon class="st13" points="724.4,284 724.4,274.3 719.5,274.3 719.5,269.4 714.7,269.4 714.7,264.5 709.8,264.5 709.8,259.6 
				709.8,254.7 704.9,254.7 704.9,249.8 700,249.8 700,244.9 685.3,244.9 685.3,235.2 690.2,235.2 690.2,225.4 685.3,225.4 
				685.3,220.5 675.6,220.5 675.6,225.4 670.7,225.4 670.7,235.2 675.6,235.2 675.6,244.9 660.9,244.9 660.9,249.8 656,249.8 
				656,254.7 651.1,254.7 651.1,259.6 651.1,264.5 646.2,264.5 646.2,269.4 641.3,269.4 641.3,274.3 636.5,274.3 636.5,284 
				631.6,284 631.6,347.6 636.5,347.6 636.5,367.1 641.3,367.1 675.6,367.1 685.3,367.1 719.5,367.1 724.4,367.1 724.4,347.6 
				729.3,347.6 729.3,284 			"/>
			<polygon class="st14" points="714.7,284 714.7,279.1 709.8,279.1 709.8,274.3 704.9,274.3 704.9,269.4 656,269.4 656,274.3 
				651.1,274.3 651.1,279.1 646.2,279.1 646.2,284 641.3,284 641.3,303.6 646.2,303.6 656,303.6 656,337.8 660.9,337.8 660.9,342.7 
				665.8,342.7 675.6,342.7 685.3,342.7 695.1,342.7 700,342.7 700,337.8 704.9,337.8 704.9,303.6 714.7,303.6 719.5,303.6 
				719.5,284 			"/>
			<polygon class="st14" points="729.3,372 729.3,367.1 709.8,367.1 709.8,362.2 700,362.2 700,347.6 660.9,347.6 660.9,362.2 
				651.1,362.2 651.1,367.1 626.7,367.1 626.7,372 616.9,372 616.9,376.9 626.7,376.9 626.7,381.8 636.5,381.8 636.5,386.7 
				719.5,386.7 719.5,381.8 729.3,381.8 729.3,376.9 739.1,376.9 739.1,372 			"/>
			<polygon class="st8" points="744,376.9 744,372 739.1,372 739.1,376.9 729.3,376.9 729.3,381.8 719.5,381.8 719.5,386.7 
				636.5,386.7 636.5,381.8 626.7,381.8 626.7,376.9 616.9,376.9 616.9,372 612,372 612,376.9 607.1,376.9 607.1,381.8 607.1,386.7 
				621.8,386.7 621.8,391.5 636.5,391.5 636.5,396.4 665.8,396.4 665.8,401.3 695.1,401.3 695.1,396.4 724.4,396.4 724.4,391.5 
				739.1,391.5 739.1,386.7 748.9,386.7 748.9,381.8 748.9,376.9 			"/>
			<rect x="685.3" y="288.9" class="st13" width="4.9" height="4.9"/>
			<rect x="690.2" y="284" class="st13" width="14.7" height="4.9"/>
			<rect x="695.1" y="288.9" class="st13" width="4.9" height="4.9"/>
			
				<rect x="670.7" y="288.9" transform="matrix(-1 -4.466706e-11 4.466706e-11 -1 1346.2264 582.717)" class="st13" width="4.9" height="4.9"/>
			
				<rect x="656" y="284" transform="matrix(-1 -4.479140e-11 4.479140e-11 -1 1326.6792 572.9434)" class="st13" width="14.7" height="4.9"/>
			
				<rect x="660.9" y="288.9" transform="matrix(-1 -4.466706e-11 4.466706e-11 -1 1326.6792 582.717)" class="st13" width="4.9" height="4.9"/>
			<rect x="675.6" y="308.5" class="st17" width="9.8" height="4.9"/>
			<rect x="685.3" y="303.6" class="st17" width="4.9" height="4.9"/>
			<rect x="670.7" y="303.6" class="st17" width="4.9" height="4.9"/>
			<rect x="665.8" y="323.1" class="st17" width="29.3" height="4.9"/>
			<polygon class="st15" points="651.1,308.5 646.2,308.5 646.2,303.6 641.3,303.6 641.3,308.5 636.5,308.5 636.5,318.2 
				641.3,318.2 641.3,328 646.2,328 646.2,318.2 651.1,318.2 			"/>
			<polygon class="st15" points="724.4,308.5 719.5,308.5 719.5,303.6 714.7,303.6 714.7,308.5 709.8,308.5 709.8,318.2 
				714.7,318.2 714.7,328 719.5,328 719.5,318.2 724.4,318.2 			"/>
			<rect x="646.2" y="274.3" class="st13" width="4.9" height="34.2"/>
			<rect x="709.8" y="269.4" class="st13" width="4.9" height="34.2"/>
		</g>
		<rect x="665.2" y="342.7" class="st22" width="39.1" height="4.9"/>
		<rect x="510.5" y="422.5" class="st23" width="9" height="36"/>
		<g class="st21">
			<polygon class="st24" points="562,576 562,540 557.5,540 557.5,513 553,513 553,486 548.5,486 548.5,481.5 548.5,472.5 
				548.5,463.5 535,463.5 535,414 499,414 499,400.5 296.5,400.5 296.5,414 260.5,414 260.5,472.5 251.5,472.5 247,472.5 247,486 
				242.5,486 242.5,513 238,513 238,540 233.5,540 233.5,576 229,576 229,594 229,616.5 233.5,616.5 238,616.5 242.5,616.5 
				247,616.5 251.5,616.5 341.5,616.5 364,616.5 431.5,616.5 449.5,616.5 544,616.5 548.5,616.5 553,616.5 557.5,616.5 562,616.5 
				566.5,616.5 566.5,594 566.5,576 			"/>
			<polygon class="st14" points="530.5,558 530.5,553.5 526,553.5 526,540 530.5,540 530.5,481.5 526,481.5 521.5,481.5 521.5,459 
				517,459 517,454.5 508,454.5 508,450 503.5,450 503.5,445.5 499,445.5 499,441 490,441 490,436.5 485.5,436.5 485.5,432 481,432 
				481,427.5 476.5,427.5 476.5,423 467.5,423 467.5,418.5 463,418.5 463,414 445,414 445,409.5 422.5,409.5 422.5,405 413.5,405 
				413.5,400.5 409,400.5 409,405 400,405 395.5,405 395.5,409.5 391,409.5 391,414 386.5,414 386.5,418.5 382,418.5 377.5,418.5 
				377.5,423 373,423 368.5,423 368.5,427.5 364,427.5 364,432 359.5,432 359.5,436.5 355,436.5 350.5,436.5 346,436.5 346,441 
				341.5,441 337,441 337,445.5 332.5,445.5 328,445.5 328,450 323.5,450 319,450 314.5,450 314.5,454.5 305.5,454.5 305.5,459 
				301,459 296.5,459 292,459 292,463.5 287.5,463.5 283,463.5 283,468 278.5,468 274,468 269.5,468 265,468 260.5,468 260.5,481.5 
				260.5,490.5 260.5,540 265,540 265,553.5 260.5,553.5 260.5,558 256,558 256,607.5 256,612 256,616.5 296.5,616.5 296.5,612 
				296.5,607.5 296.5,603 301,603 301,553.5 296.5,553.5 296.5,540 296.5,535.5 301,535.5 301,517.5 305.5,517.5 305.5,490.5 
				310,490.5 310,486 310,477 310,472.5 310,463.5 314.5,463.5 314.5,472.5 314.5,477 319,477 319,481.5 323.5,481.5 323.5,486 
				323.5,490.5 328,490.5 328,495 332.5,495 332.5,499.5 332.5,504 337,504 337,508.5 337,513 341.5,513 341.5,562.5 346,562.5 
				346,567 350.5,567 350.5,571.5 355,571.5 355,576 364,576 364,580.5 368.5,580.5 368.5,585 373,585 373,589.5 427,589.5 427,585 
				431.5,585 431.5,580.5 431.5,576 440.5,576 440.5,571.5 445,571.5 445,567 449.5,567 449.5,562.5 454,562.5 454,513 458.5,513 
				458.5,508.5 458.5,504 463,504 463,499.5 463,495 463,490.5 467.5,490.5 467.5,486 467.5,481.5 472,481.5 472,477 476.5,477 
				476.5,472.5 476.5,463.5 481,463.5 481,472.5 481,477 481,486 481,490.5 485.5,490.5 485.5,517.5 490,517.5 490,535.5 
				494.5,535.5 494.5,540 494.5,553.5 490,553.5 490,603 494.5,603 494.5,607.5 494.5,612 494.5,616.5 535,616.5 535,612 535,607.5 
				535,558 			"/>
			<polygon class="st25" points="607,247.5 607,243 611.5,243 611.5,238.5 607,238.5 607,234 589,234 589,229.5 598,229.5 598,225 
				602.5,225 602.5,220.5 602.5,216 598,216 598,211.5 589,211.5 589,207 598,207 598,202.5 602.5,202.5 602.5,198 598,198 
				598,193.5 593.5,193.5 589,193.5 580,193.5 580,189 584.5,189 584.5,184.5 589,184.5 589,180 584.5,180 584.5,175.5 580,175.5 
				580,171 571,171 571,166.5 575.5,166.5 575.5,162 571,162 571,157.5 566.5,157.5 562,157.5 557.5,157.5 557.5,153 562,153 
				562,148.5 557.5,148.5 557.5,144 548.5,144 544,144 544,139.5 548.5,139.5 548.5,135 544,135 544,130.5 539.5,130.5 539.5,126 
				535,126 530.5,126 530.5,130.5 526,130.5 526,121.5 521.5,121.5 521.5,117 517,117 517,121.5 512.5,121.5 512.5,126 508,126 
				508,121.5 508,112.5 503.5,112.5 503.5,108 499,108 494.5,108 494.5,112.5 490,112.5 490,117 485.5,117 485.5,108 485.5,103.5 
				485.5,99 481,99 481,94.5 476.5,94.5 476.5,103.5 472,103.5 472,108 467.5,108 467.5,99 463,99 463,94.5 458.5,94.5 458.5,99 
				454,99 454,103.5 449.5,103.5 449.5,94.5 445,94.5 445,90 440.5,90 440.5,85.5 436,85.5 436,54 431.5,54 431.5,49.5 427,49.5 
				422.5,49.5 422.5,54 418,54 418,58.5 418,63 418,76.5 413.5,76.5 413.5,49.5 409,49.5 409,45 404.5,45 404.5,40.5 400,40.5 
				395.5,40.5 395.5,45 391,45 391,49.5 386.5,49.5 386.5,76.5 382,76.5 382,63 382,58.5 382,54 377.5,54 377.5,49.5 373,49.5 
				368.5,49.5 368.5,54 364,54 364,85.5 359.5,85.5 359.5,90 355,90 355,94.5 350.5,94.5 350.5,103.5 346,103.5 346,99 341.5,99 
				341.5,94.5 337,94.5 337,99 332.5,99 332.5,108 328,108 328,103.5 323.5,103.5 323.5,94.5 319,94.5 319,99 314.5,99 314.5,103.5 
				314.5,108 314.5,117 310,117 310,112.5 305.5,112.5 305.5,108 301,108 296.5,108 296.5,112.5 292,112.5 292,121.5 292,126 
				287.5,126 287.5,121.5 283,121.5 283,117 278.5,117 278.5,121.5 274,121.5 274,130.5 269.5,130.5 269.5,126 265,126 260.5,126 
				260.5,130.5 256,130.5 256,135 251.5,135 251.5,139.5 256,139.5 256,144 251.5,144 242.5,144 242.5,148.5 238,148.5 238,153 
				242.5,153 242.5,157.5 238,157.5 233.5,157.5 229,157.5 229,162 224.5,162 224.5,166.5 229,166.5 229,171 220,171 220,175.5 
				215.5,175.5 215.5,180 211,180 211,184.5 215.5,184.5 215.5,189 220,189 220,193.5 211,193.5 206.5,193.5 202,193.5 202,198 
				197.5,198 197.5,202.5 202,202.5 202,207 211,207 211,211.5 202,211.5 202,216 197.5,216 197.5,220.5 197.5,225 202,225 
				202,229.5 211,229.5 211,234 193,234 193,238.5 188.5,238.5 188.5,243 193,243 193,247.5 202,247.5 202,252 193,252 193,256.5 
				188.5,256.5 188.5,261 188.5,265.5 202,265.5 202,270 319,270 346,270 400,270 454,270 481,270 598,270 598,265.5 611.5,265.5 
				611.5,261 611.5,256.5 607,256.5 607,252 598,252 598,247.5 			"/>
			<polygon class="st16" points="499,252 499,243 494.5,243 494.5,238.5 494.5,234 490,234 490,229.5 485.5,229.5 485.5,220.5 
				481,220.5 481,216 476.5,216 476.5,211.5 472,211.5 472,207 463,207 463,202.5 458.5,202.5 454,202.5 454,198 445,198 445,193.5 
				431.5,193.5 431.5,189 422.5,189 418,189 400,189 395.5,189 377.5,189 373,189 364,189 364,193.5 350.5,193.5 350.5,198 
				341.5,198 341.5,202.5 337,202.5 332.5,202.5 332.5,207 323.5,207 323.5,211.5 319,211.5 319,216 314.5,216 314.5,220.5 
				310,220.5 310,229.5 305.5,229.5 305.5,234 301,234 301,238.5 301,243 296.5,243 296.5,252 292,252 292,261 292,265.5 292,270 
				395.5,270 400,270 503.5,270 503.5,265.5 503.5,261 503.5,252 			"/>
			<polygon class="st13" points="445,306 445,288 440.5,288 440.5,279 436,279 436,274.5 431.5,274.5 431.5,270 400,270 395.5,270 
				364,270 364,274.5 359.5,274.5 359.5,279 355,279 355,288 350.5,288 350.5,306 346,306 346,315 346,324 346,360 350.5,360 
				355,360 431.5,360 445,360 449.5,360 449.5,324 449.5,315 449.5,306 			"/>
			<rect x="377.5" y="355.5" class="st14" width="40.5" height="31.5"/>
			<polygon class="st14" points="427,297 427,292.5 422.5,292.5 418,292.5 418,288 409,288 409,283.5 404.5,283.5 404.5,279 
				400,279 400,274.5 395.5,274.5 395.5,279 391,279 391,283.5 386.5,283.5 386.5,288 377.5,288 377.5,292.5 373,292.5 368.5,292.5 
				368.5,297 364,297 364,310.5 368.5,310.5 368.5,319.5 373,319.5 373,346.5 377.5,346.5 377.5,351 418,351 418,346.5 422.5,346.5 
				422.5,319.5 427,319.5 427,310.5 431.5,310.5 431.5,297 			"/>
			<rect x="377.5" y="301.5" class="st13" width="4.5" height="4.5"/>
			<rect x="373" y="297" class="st13" width="4.5" height="4.5"/>
			<rect x="382" y="297" class="st13" width="4.5" height="4.5"/>
			<rect x="386.5" y="301.5" class="st13" width="4.5" height="4.5"/>
			<rect x="377.5" y="297" class="st13" width="4.5" height="4.5"/>
			<rect x="404.5" y="301.5" class="st13" width="4.5" height="4.5"/>
			<rect x="409" y="297" class="st13" width="13.5" height="4.5"/>
			<rect x="413.5" y="301.5" class="st13" width="4.5" height="4.5"/>
			<rect x="391" y="337.5" class="st13" width="13.5" height="4.5"/>
			<rect x="395.5" y="333" class="st13" width="4.5" height="4.5"/>
			<rect x="386.5" y="328.5" class="st17" width="22.5" height="4.5"/>
			<rect x="391" y="315" class="st17" width="4.5" height="4.5"/>
			<rect x="395.5" y="319.5" class="st17" width="4.5" height="4.5"/>
			<rect x="400" y="315" class="st17" width="4.5" height="4.5"/>
			<g>
				<rect x="364" y="234" class="st11" width="4.5" height="4.5"/>
				<rect x="350.5" y="256.5" class="st11" width="4.5" height="4.5"/>
				<polygon class="st11" points="332.5,256.5 323.5,256.5 323.5,261 332.5,261 332.5,265.5 341.5,265.5 341.5,252 332.5,252 				
					"/>
				<rect x="355" y="243" class="st11" width="4.5" height="4.5"/>
				<rect x="377.5" y="225" class="st11" width="4.5" height="4.5"/>
				<rect x="341.5" y="238.5" class="st11" width="4.5" height="4.5"/>
				<polygon class="st11" points="337,234 332.5,234 332.5,238.5 337,238.5 341.5,238.5 341.5,234 				"/>
				<rect x="346" y="216" class="st11" width="4.5" height="4.5"/>
				<rect x="350.5" y="220.5" class="st11" width="4.5" height="4.5"/>
				<rect x="355" y="225" class="st11" width="4.5" height="4.5"/>
				<polygon class="st11" points="373,216 377.5,216 377.5,211.5 377.5,207 373,207 373,211.5 				"/>
				<polygon class="st11" points="427,256.5 427,252 422.5,252 422.5,247.5 418,247.5 418,243 413.5,243 413.5,238.5 409,238.5 
					409,234 404.5,234 404.5,229.5 400,229.5 395.5,229.5 391,229.5 391,234 386.5,234 386.5,238.5 382,238.5 382,243 377.5,243 
					377.5,247.5 373,247.5 373,252 368.5,252 368.5,256.5 368.5,261 364,261 364,270 431.5,270 431.5,261 427,261 				"/>
				<rect x="395.5" y="220.5" class="st11" width="4.5" height="4.5"/>
				<polygon class="st11" points="400,211.5 404.5,211.5 404.5,207 404.5,202.5 400,202.5 400,193.5 395.5,193.5 395.5,202.5 
					391,202.5 391,207 391,211.5 395.5,211.5 				"/>
				<rect x="368.5" y="202.5" class="st11" width="4.5" height="4.5"/>
				<rect x="422.5" y="202.5" class="st11" width="4.5" height="4.5"/>
				<rect x="427" y="234" class="st11" width="4.5" height="4.5"/>
				<rect x="440.5" y="256.5" class="st11" width="4.5" height="4.5"/>
				<polygon class="st11" points="463,256.5 463,252 454,252 454,265.5 463,265.5 463,261 472,261 472,256.5 				"/>
				<rect x="436" y="243" class="st11" width="4.5" height="4.5"/>
				<rect x="413.5" y="225" class="st11" width="4.5" height="4.5"/>
				<rect x="449.5" y="238.5" class="st11" width="4.5" height="4.5"/>
				<polygon class="st11" points="463,238.5 463,234 458.5,234 454,234 454,238.5 458.5,238.5 				"/>
				<rect x="445" y="216" class="st11" width="4.5" height="4.5"/>
				<rect x="440.5" y="220.5" class="st11" width="4.5" height="4.5"/>
				<rect x="436" y="225" class="st11" width="4.5" height="4.5"/>
				<polygon class="st11" points="422.5,211.5 422.5,207 418,207 418,211.5 418,216 422.5,216 				"/>
			</g>
			<polygon class="st16" points="368.5,135 368.5,153 373,153 373,162 422.5,162 422.5,153 427,153 427,135 			"/>
			<rect x="382" y="153" class="st11" width="4.5" height="4.5"/>
			<rect x="395.5" y="153" class="st11" width="4.5" height="4.5"/>
			<rect x="409" y="153" class="st11" width="4.5" height="4.5"/>
			<rect x="368.5" y="121.5" class="st11" width="58.5" height="9"/>
			<rect x="368.5" y="130.5" class="st8" width="58.5" height="4.5"/>
			<polygon class="st11" points="535,247.5 535,238.5 535,234 530.5,234 530.5,225 526,225 526,220.5 526,216 521.5,216 
				521.5,211.5 517,211.5 517,207 512.5,207 512.5,202.5 508,202.5 508,198 503.5,198 503.5,193.5 499,193.5 499,189 494.5,189 
				494.5,184.5 490,184.5 490,180 485.5,180 481,180 481,175.5 467.5,175.5 467.5,171 458.5,171 458.5,166.5 445,166.5 445,162 
				436,162 427,162 422.5,162 413.5,162 382,162 373,162 368.5,162 359.5,162 350.5,162 350.5,166.5 337,166.5 337,171 328,171 
				328,175.5 314.5,175.5 314.5,180 310,180 305.5,180 305.5,184.5 301,184.5 301,189 296.5,189 296.5,193.5 292,193.5 292,198 
				287.5,198 287.5,202.5 283,202.5 283,207 278.5,207 278.5,211.5 274,211.5 274,216 269.5,216 269.5,220.5 269.5,225 265,225 
				265,234 260.5,234 260.5,238.5 260.5,247.5 256,247.5 256,252 256,270 260.5,270 265,270 265,261 265,247.5 269.5,247.5 
				269.5,243 269.5,238.5 269.5,234 274,234 274,225 278.5,225 278.5,220.5 283,220.5 283,211.5 287.5,211.5 287.5,207 292,207 
				292,202.5 296.5,202.5 296.5,198 301,198 301,193.5 305.5,193.5 305.5,189 310,189 314.5,189 314.5,184.5 323.5,184.5 323.5,180 
				332.5,180 332.5,175.5 346,175.5 346,171 364,171 373,171 422.5,171 431.5,171 449.5,171 449.5,175.5 463,175.5 463,180 472,180 
				472,184.5 481,184.5 481,189 485.5,189 490,189 490,193.5 494.5,193.5 494.5,198 499,198 499,202.5 503.5,202.5 503.5,207 
				508,207 508,211.5 512.5,211.5 512.5,220.5 517,220.5 517,225 521.5,225 521.5,234 526,234 526,238.5 526,243 526,247.5 
				530.5,247.5 530.5,261 530.5,270 535,270 539.5,270 539.5,252 539.5,247.5 			"/>
			<g>
				<rect x="409" y="517.5" class="st17" width="4.5" height="4.5"/>
				<rect x="413.5" y="522" class="st17" width="4.5" height="4.5"/>
				<rect x="418" y="526.5" class="st17" width="4.5" height="4.5"/>
				<rect x="422.5" y="531" class="st17" width="4.5" height="36"/>
				<polygon class="st17" points="400,513 400,508.5 395.5,508.5 395.5,513 386.5,513 386.5,517.5 395.5,517.5 395.5,589.5 
					400,589.5 400,517.5 409,517.5 409,513 				"/>
				<rect x="382" y="517.5" class="st17" width="4.5" height="4.5"/>
				<rect x="377.5" y="522" class="st17" width="4.5" height="4.5"/>
				<rect x="373" y="526.5" class="st17" width="4.5" height="4.5"/>
				<rect x="368.5" y="531" class="st17" width="4.5" height="36"/>
			</g>
			<rect x="341.5" y="468" class="st17" width="112.5" height="4.5"/>
			<polygon class="st26" points="544,454.5 544,445.5 539.5,445.5 539.5,427.5 535,427.5 535,409.5 530.5,409.5 530.5,405 
				530.5,396 526,396 526,391.5 521.5,391.5 517,391.5 517,387 508,387 508,382.5 494.5,382.5 494.5,378 481,378 481,373.5 
				467.5,373.5 467.5,369 449.5,369 445,369 445,364.5 413.5,364.5 413.5,369 400,369 400,373.5 395.5,373.5 395.5,369 386.5,369 
				386.5,364.5 355,364.5 355,369 332.5,369 332.5,373.5 305.5,373.5 305.5,378 292,378 292,382.5 283,382.5 283,387 274,387 
				274,391.5 269.5,391.5 269.5,396 265,396 265,400.5 260.5,400.5 260.5,418.5 256,418.5 256,432 251.5,432 251.5,459 247,459 
				247,477 251.5,477 256,477 256,472.5 260.5,472.5 265,472.5 265,468 269.5,468 274,468 278.5,468 283,468 283,463.5 287.5,463.5 
				292,463.5 292,459 296.5,459 301,459 305.5,459 305.5,454.5 314.5,454.5 314.5,450 319,450 323.5,450 328,450 328,445.5 
				332.5,445.5 337,445.5 337,441 341.5,441 346,441 346,436.5 350.5,436.5 355,436.5 359.5,436.5 359.5,432 364,432 364,427.5 
				368.5,427.5 368.5,423 373,423 377.5,423 377.5,418.5 382,418.5 386.5,418.5 386.5,414 391,414 391,409.5 395.5,409.5 395.5,405 
				400,405 409,405 409,400.5 413.5,400.5 413.5,405 422.5,405 422.5,409.5 445,409.5 445,414 463,414 463,418.5 467.5,418.5 
				467.5,423 476.5,423 476.5,427.5 481,427.5 481,432 485.5,432 485.5,436.5 490,436.5 490,441 499,441 499,445.5 503.5,445.5 
				503.5,450 508,450 508,454.5 517,454.5 517,459 526,459 530.5,459 530.5,463.5 535,463.5 535,468 539.5,468 544,468 548.5,468 
				548.5,454.5 			"/>
			<g>
				<rect x="341.5" y="459" class="st11" width="4.5" height="4.5"/>
				<rect x="445" y="459" class="st11" width="4.5" height="4.5"/>
				<rect x="476.5" y="450" class="st11" width="4.5" height="4.5"/>
				<path class="st11" d="M485.5,432H481v-4.5h-4.5V423H472h-4.5v-4.5H463V414h-22.5v4.5h-18h-45v4.5h-9v4.5H364v4.5h-4.5v4.5h-9
					H346v4.5h-9v9h9v9h4.5v-4.5h4.5V450h9v4.5h9v4.5h4.5v4.5H373v9h-4.5V486H364v18h-4.5v4.5h4.5h9h4.5h4.5h36h13.5h4.5V504h-4.5
					v-18H427v-13.5h-4.5v-9H418V459h4.5v-4.5h4.5V450h9v4.5h4.5v4.5h4.5v-4.5V450h9h9v-4.5h4.5h4.5v4.5h4.5v-9h4.5v-4.5h4.5V432z
					 M382,450v-18h4.5v-4.5h18v4.5h4.5v18h-4.5v4.5h-18V450H382z"/>
			</g>
			<polygon class="st10" points="467.5,594 467.5,585 463,585 463,571.5 458.5,571.5 458.5,567 454,567 454,562.5 449.5,562.5 
				449.5,567 445,567 445,571.5 440.5,571.5 440.5,576 431.5,576 431.5,580.5 427,580.5 427,585 422.5,585 422.5,589.5 373,589.5 
				373,585 368.5,585 368.5,580.5 364,580.5 364,576 355,576 355,571.5 350.5,571.5 350.5,567 346,567 346,562.5 341.5,562.5 
				341.5,567 337,567 337,571.5 332.5,571.5 332.5,585 328,585 328,594 323.5,594 323.5,612 323.5,616.5 328,616.5 341.5,616.5 
				350.5,616.5 355,616.5 440.5,616.5 445,616.5 454,616.5 467.5,616.5 472,616.5 472,612 472,594 			"/>
		</g>
		<rect x="377.4" y="351" class="st22" width="40.6" height="4.5"/>
	</g>
</g>
<g id="Layer_7">
</g>
<g id="Layer_4">
</g>
<g id="Layer_6">
</g>
</svg>
