<?xml version="1.0" encoding="utf-8"?>
<!-- Generator: Adobe Illustrator 25.2.3, SVG Export Plug-In . SVG Version: 6.00 Build 0)  -->
<svg version="1.1" xmlns="http://www.w3.org/2000/svg" xmlns:xlink="http://www.w3.org/1999/xlink" x="0px" y="0px"
	 viewBox="0 0 1200 625" style="enable-background:new 0 0 1200 625;" xml:space="preserve">
<style type="text/css">
	.st0{opacity:0.41;}
	.st1{opacity:0.46;}
	.st2{fill:#A8B4A5;}
	.st3{fill:#D18238;}
	.st4{fill:#DD5832;}
	.st5{fill:#EFBD38;}
	.st6{fill:#E3DBCE;}
	.st7{fill:#D9CEB8;}
	.st8{fill:#343533;}
	.st9{fill:#B16447;}
	.st10{fill:#BAB1A1;}
	.st11{fill:#1D5B76;}
	.st12{fill:#8C2429;}
	.st13{fill:#77736A;}
	.st14{fill:#198691;}
	.st15{fill:#613C34;}
	.st16{fill:#EDBC3A;}
	.st17{fill:#FFFFFF;}
	.st18{clip-path:url(#SVGID_2_);fill:#E3DBCE;}
	.st19{clip-path:url(#SVGID_2_);fill:#B16447;}
	.st20{clip-path:url(#SVGID_2_);}
	.st21{fill:#153C41;}
	.st22{fill:#1E512E;}
	.st23{clip-path:url(#SVGID_2_);fill:#613C34;}
	.st24{fill:#41B5B1;}
	.st25{fill:#633D34;}
	.st26{fill:#BE2830;}
	.st27{fill:#E3963A;}
	.st28{clip-path:url(#SVGID_4_);}
	.st29{fill:#9CA051;}
	.st30{fill:#314C2C;}
	.st31{fill:#BF3E3B;}
	.st32{stroke:#000000;stroke-width:0.5;stroke-miterlimit:10;}
	.st33{fill:#38874B;}
	.st34{fill:#296D3C;}
</style>
<g id="Layer_1">
</g>
<g id="Layer_5">
</g>
<g id="Layer_2">
</g>
<g id="Layer_3">
	<g>
		<defs>
			<rect id="SVGID_1_" x="-0.5" width="1201.5" height="625.5"/>
		</defs>
		<clipPath id="SVGID_2_">
			<use xlink:href="#SVGID_1_"  style="overflow:visible;"/>
		</clipPath>
		<rect class="st18" width="1200" height="625"/>
		<rect x="710.5" y="467.5" class="st19" width="9" height="36"/>
		<g class="st20">
			<polygon class="st21" points="762,621 762,585 757.5,585 757.5,558 753,558 753,531 748.5,531 748.5,526.5 748.5,517.5 
				748.5,508.5 735,508.5 735,459 699,459 699,445.5 496.5,445.5 496.5,459 460.5,459 460.5,517.5 451.5,517.5 447,517.5 447,531 
				442.5,531 442.5,558 438,558 438,585 433.5,585 433.5,621 429,621 429,639 429,661.5 433.5,661.5 438,661.5 442.5,661.5 
				447,661.5 451.5,661.5 541.5,661.5 564,661.5 631.5,661.5 649.5,661.5 744,661.5 748.5,661.5 753,661.5 757.5,661.5 762,661.5 
				766.5,661.5 766.5,639 766.5,621 			"/>
			<polygon class="st9" points="730.5,603 730.5,598.5 726,598.5 726,585 730.5,585 730.5,526.5 726,526.5 721.5,526.5 721.5,504 
				717,504 717,499.5 708,499.5 708,495 703.5,495 703.5,490.5 699,490.5 699,486 690,486 690,481.5 685.5,481.5 685.5,477 681,477 
				681,472.5 676.5,472.5 676.5,468 667.5,468 667.5,463.5 663,463.5 663,459 645,459 645,454.5 622.5,454.5 622.5,450 613.5,450 
				613.5,445.5 609,445.5 609,450 600,450 595.5,450 595.5,454.5 591,454.5 591,459 586.5,459 586.5,463.5 582,463.5 577.5,463.5 
				577.5,468 573,468 568.5,468 568.5,472.5 564,472.5 564,477 559.5,477 559.5,481.5 555,481.5 550.5,481.5 546,481.5 546,486 
				541.5,486 537,486 537,490.5 532.5,490.5 528,490.5 528,495 523.5,495 519,495 514.5,495 514.5,499.5 505.5,499.5 505.5,504 
				501,504 496.5,504 492,504 492,508.5 487.5,508.5 483,508.5 483,513 478.5,513 474,513 469.5,513 465,513 460.5,513 460.5,526.5 
				460.5,535.5 460.5,585 465,585 465,598.5 460.5,598.5 460.5,603 456,603 456,652.5 456,657 456,661.5 496.5,661.5 496.5,657 
				496.5,652.5 496.5,648 501,648 501,598.5 496.5,598.5 496.5,585 496.5,580.5 501,580.5 501,562.5 505.5,562.5 505.5,535.5 
				510,535.5 510,531 510,522 510,517.5 510,508.5 514.5,508.5 514.5,517.5 514.5,522 519,522 519,526.5 523.5,526.5 523.5,531 
				523.5,535.5 528,535.5 528,540 532.5,540 532.5,544.5 532.5,549 537,549 537,553.5 537,558 541.5,558 541.5,607.5 546,607.5 
				546,612 550.5,612 550.5,616.5 555,616.5 555,621 564,621 564,625.5 568.5,625.5 568.5,630 573,630 573,634.5 627,634.5 627,630 
				631.5,630 631.5,625.5 631.5,621 640.5,621 640.5,616.5 645,616.5 645,612 649.5,612 649.5,607.5 654,607.5 654,558 658.5,558 
				658.5,553.5 658.5,549 663,549 663,544.5 663,540 663,535.5 667.5,535.5 667.5,531 667.5,526.5 672,526.5 672,522 676.5,522 
				676.5,517.5 676.5,508.5 681,508.5 681,517.5 681,522 681,531 681,535.5 685.5,535.5 685.5,562.5 690,562.5 690,580.5 
				694.5,580.5 694.5,585 694.5,598.5 690,598.5 690,648 694.5,648 694.5,652.5 694.5,657 694.5,661.5 735,661.5 735,657 735,652.5 
				735,603 			"/>
			<polygon class="st22" points="807,292.5 807,288 811.5,288 811.5,283.5 807,283.5 807,279 789,279 789,274.5 798,274.5 798,270 
				802.5,270 802.5,265.5 802.5,261 798,261 798,256.5 789,256.5 789,252 798,252 798,247.5 802.5,247.5 802.5,243 798,243 
				798,238.5 793.5,238.5 789,238.5 780,238.5 780,234 784.5,234 784.5,229.5 789,229.5 789,225 784.5,225 784.5,220.5 780,220.5 
				780,216 771,216 771,211.5 775.5,211.5 775.5,207 771,207 771,202.5 766.5,202.5 762,202.5 757.5,202.5 757.5,198 762,198 
				762,193.5 757.5,193.5 757.5,189 748.5,189 744,189 744,184.5 748.5,184.5 748.5,180 744,180 744,175.5 739.5,175.5 739.5,171 
				735,171 730.5,171 730.5,175.5 726,175.5 726,166.5 721.5,166.5 721.5,162 717,162 717,166.5 712.5,166.5 712.5,171 708,171 
				708,166.5 708,157.5 703.5,157.5 703.5,153 699,153 694.5,153 694.5,157.5 690,157.5 690,162 685.5,162 685.5,153 685.5,148.5 
				685.5,144 681,144 681,139.5 676.5,139.5 676.5,148.5 672,148.5 672,153 667.5,153 667.5,144 663,144 663,139.5 658.5,139.5 
				658.5,144 654,144 654,148.5 649.5,148.5 649.5,139.5 645,139.5 645,135 640.5,135 640.5,130.5 636,130.5 636,99 631.5,99 
				631.5,94.5 627,94.5 622.5,94.5 622.5,99 618,99 618,103.5 618,108 618,121.5 613.5,121.5 613.5,94.5 609,94.5 609,90 604.5,90 
				604.5,85.5 600,85.5 595.5,85.5 595.5,90 591,90 591,94.5 586.5,94.5 586.5,121.5 582,121.5 582,108 582,103.5 582,99 577.5,99 
				577.5,94.5 573,94.5 568.5,94.5 568.5,99 564,99 564,130.5 559.5,130.5 559.5,135 555,135 555,139.5 550.5,139.5 550.5,148.5 
				546,148.5 546,144 541.5,144 541.5,139.5 537,139.5 537,144 532.5,144 532.5,153 528,153 528,148.5 523.5,148.5 523.5,139.5 
				519,139.5 519,144 514.5,144 514.5,148.5 514.5,153 514.5,162 510,162 510,157.5 505.5,157.5 505.5,153 501,153 496.5,153 
				496.5,157.5 492,157.5 492,166.5 492,171 487.5,171 487.5,166.5 483,166.5 483,162 478.5,162 478.5,166.5 474,166.5 474,175.5 
				469.5,175.5 469.5,171 465,171 460.5,171 460.5,175.5 456,175.5 456,180 451.5,180 451.5,184.5 456,184.5 456,189 451.5,189 
				442.5,189 442.5,193.5 438,193.5 438,198 442.5,198 442.5,202.5 438,202.5 433.5,202.5 429,202.5 429,207 424.5,207 424.5,211.5 
				429,211.5 429,216 420,216 420,220.5 415.5,220.5 415.5,225 411,225 411,229.5 415.5,229.5 415.5,234 420,234 420,238.5 
				411,238.5 406.5,238.5 402,238.5 402,243 397.5,243 397.5,247.5 402,247.5 402,252 411,252 411,256.5 402,256.5 402,261 
				397.5,261 397.5,265.5 397.5,270 402,270 402,274.5 411,274.5 411,279 393,279 393,283.5 388.5,283.5 388.5,288 393,288 
				393,292.5 402,292.5 402,297 393,297 393,301.5 388.5,301.5 388.5,306 388.5,310.5 402,310.5 402,315 519,315 546,315 600,315 
				654,315 681,315 798,315 798,310.5 811.5,310.5 811.5,306 811.5,301.5 807,301.5 807,297 798,297 798,292.5 			"/>
			<polygon class="st14" points="699,297 699,288 694.5,288 694.5,283.5 694.5,279 690,279 690,274.5 685.5,274.5 685.5,265.5 
				681,265.5 681,261 676.5,261 676.5,256.5 672,256.5 672,252 663,252 663,247.5 658.5,247.5 654,247.5 654,243 645,243 645,238.5 
				631.5,238.5 631.5,234 622.5,234 618,234 600,234 595.5,234 577.5,234 573,234 564,234 564,238.5 550.5,238.5 550.5,243 
				541.5,243 541.5,247.5 537,247.5 532.5,247.5 532.5,252 523.5,252 523.5,256.5 519,256.5 519,261 514.5,261 514.5,265.5 
				510,265.5 510,274.5 505.5,274.5 505.5,279 501,279 501,283.5 501,288 496.5,288 496.5,297 492,297 492,306 492,310.5 492,315 
				595.5,315 600,315 703.5,315 703.5,310.5 703.5,306 703.5,297 			"/>
			<polygon class="st8" points="645,351 645,333 640.5,333 640.5,324 636,324 636,319.5 631.5,319.5 631.5,315 600,315 595.5,315 
				564,315 564,319.5 559.5,319.5 559.5,324 555,324 555,333 550.5,333 550.5,351 546,351 546,360 546,369 546,405 550.5,405 
				555,405 631.5,405 645,405 649.5,405 649.5,369 649.5,360 649.5,351 			"/>
			<rect x="577.5" y="400.5" class="st9" width="40.5" height="31.5"/>
			<polygon class="st9" points="627,342 627,337.5 622.5,337.5 618,337.5 618,333 609,333 609,328.5 604.5,328.5 604.5,324 600,324 
				600,319.5 595.5,319.5 595.5,324 591,324 591,328.5 586.5,328.5 586.5,333 577.5,333 577.5,337.5 573,337.5 568.5,337.5 
				568.5,342 564,342 564,355.5 568.5,355.5 568.5,364.5 573,364.5 573,391.5 577.5,391.5 577.5,396 618,396 618,391.5 622.5,391.5 
				622.5,364.5 627,364.5 627,355.5 631.5,355.5 631.5,342 			"/>
			<rect x="577.5" y="346.5" class="st8" width="4.5" height="4.5"/>
			<rect x="573" y="342" class="st8" width="4.5" height="4.5"/>
			<rect x="582" y="342" class="st8" width="4.5" height="4.5"/>
			<rect x="586.5" y="346.5" class="st8" width="4.5" height="4.5"/>
			<rect x="577.5" y="342" class="st8" width="4.5" height="4.5"/>
			<rect x="604.5" y="346.5" class="st8" width="4.5" height="4.5"/>
			<rect x="609" y="342" class="st8" width="13.5" height="4.5"/>
			<rect x="613.5" y="346.5" class="st8" width="4.5" height="4.5"/>
			<rect x="591" y="382.5" class="st8" width="13.5" height="4.5"/>
			<rect x="595.5" y="378" class="st8" width="4.5" height="4.5"/>
			<rect x="586.5" y="373.5" class="st15" width="22.5" height="4.5"/>
			<rect x="591" y="360" class="st15" width="4.5" height="4.5"/>
			<rect x="595.5" y="364.5" class="st15" width="4.5" height="4.5"/>
			<rect x="600" y="360" class="st15" width="4.5" height="4.5"/>
			<g>
				<rect x="564" y="279" class="st5" width="4.5" height="4.5"/>
				<rect x="550.5" y="301.5" class="st5" width="4.5" height="4.5"/>
				<polygon class="st5" points="532.5,301.5 523.5,301.5 523.5,306 532.5,306 532.5,310.5 541.5,310.5 541.5,297 532.5,297 				"/>
				<rect x="555" y="288" class="st5" width="4.5" height="4.5"/>
				<rect x="577.5" y="270" class="st5" width="4.5" height="4.5"/>
				<rect x="541.5" y="283.5" class="st5" width="4.5" height="4.5"/>
				<polygon class="st5" points="537,279 532.5,279 532.5,283.5 537,283.5 541.5,283.5 541.5,279 				"/>
				<rect x="546" y="261" class="st5" width="4.5" height="4.5"/>
				<rect x="550.5" y="265.5" class="st5" width="4.5" height="4.5"/>
				<rect x="555" y="270" class="st5" width="4.5" height="4.5"/>
				<polygon class="st5" points="573,261 577.5,261 577.5,256.5 577.5,252 573,252 573,256.5 				"/>
				<polygon class="st5" points="627,301.5 627,297 622.5,297 622.5,292.5 618,292.5 618,288 613.5,288 613.5,283.5 609,283.5 
					609,279 604.5,279 604.5,274.5 600,274.5 595.5,274.5 591,274.5 591,279 586.5,279 586.5,283.5 582,283.5 582,288 577.5,288 
					577.5,292.5 573,292.5 573,297 568.5,297 568.5,301.5 568.5,306 564,306 564,315 631.5,315 631.5,306 627,306 				"/>
				<rect x="595.5" y="265.5" class="st5" width="4.5" height="4.5"/>
				<polygon class="st5" points="600,256.5 604.5,256.5 604.5,252 604.5,247.5 600,247.5 600,238.5 595.5,238.5 595.5,247.5 
					591,247.5 591,252 591,256.5 595.5,256.5 				"/>
				<rect x="568.5" y="247.5" class="st5" width="4.5" height="4.5"/>
				<rect x="622.5" y="247.5" class="st5" width="4.5" height="4.5"/>
				<rect x="627" y="279" class="st5" width="4.5" height="4.5"/>
				<rect x="640.5" y="301.5" class="st5" width="4.5" height="4.5"/>
				<polygon class="st5" points="663,301.5 663,297 654,297 654,310.5 663,310.5 663,306 672,306 672,301.5 				"/>
				<rect x="636" y="288" class="st5" width="4.5" height="4.5"/>
				<rect x="613.5" y="270" class="st5" width="4.5" height="4.5"/>
				<rect x="649.5" y="283.5" class="st5" width="4.5" height="4.5"/>
				<polygon class="st5" points="663,283.5 663,279 658.5,279 654,279 654,283.5 658.5,283.5 				"/>
				<rect x="645" y="261" class="st5" width="4.5" height="4.5"/>
				<rect x="640.5" y="265.5" class="st5" width="4.5" height="4.5"/>
				<rect x="636" y="270" class="st5" width="4.5" height="4.5"/>
				<polygon class="st5" points="622.5,256.5 622.5,252 618,252 618,256.5 618,261 622.5,261 				"/>
			</g>
			<polygon class="st14" points="568.5,180 568.5,198 573,198 573,207 622.5,207 622.5,198 627,198 627,180 			"/>
			<rect x="582" y="198" class="st5" width="4.5" height="4.5"/>
			<rect x="595.5" y="198" class="st5" width="4.5" height="4.5"/>
			<rect x="609" y="198" class="st5" width="4.5" height="4.5"/>
			<rect x="568.5" y="166.5" class="st5" width="58.5" height="9"/>
			<rect x="568.5" y="175.5" class="st12" width="58.5" height="4.5"/>
			<polygon class="st5" points="735,292.5 735,283.5 735,279 730.5,279 730.5,270 726,270 726,265.5 726,261 721.5,261 721.5,256.5 
				717,256.5 717,252 712.5,252 712.5,247.5 708,247.5 708,243 703.5,243 703.5,238.5 699,238.5 699,234 694.5,234 694.5,229.5 
				690,229.5 690,225 685.5,225 681,225 681,220.5 667.5,220.5 667.5,216 658.5,216 658.5,211.5 645,211.5 645,207 636,207 627,207 
				622.5,207 613.5,207 582,207 573,207 568.5,207 559.5,207 550.5,207 550.5,211.5 537,211.5 537,216 528,216 528,220.5 
				514.5,220.5 514.5,225 510,225 505.5,225 505.5,229.5 501,229.5 501,234 496.5,234 496.5,238.5 492,238.5 492,243 487.5,243 
				487.5,247.5 483,247.5 483,252 478.5,252 478.5,256.5 474,256.5 474,261 469.5,261 469.5,265.5 469.5,270 465,270 465,279 
				460.5,279 460.5,283.5 460.5,292.5 456,292.5 456,297 456,315 460.5,315 465,315 465,306 465,292.5 469.5,292.5 469.5,288 
				469.5,283.5 469.5,279 474,279 474,270 478.5,270 478.5,265.5 483,265.5 483,256.5 487.5,256.5 487.5,252 492,252 492,247.5 
				496.5,247.5 496.5,243 501,243 501,238.5 505.5,238.5 505.5,234 510,234 514.5,234 514.5,229.5 523.5,229.5 523.5,225 532.5,225 
				532.5,220.5 546,220.5 546,216 564,216 573,216 622.5,216 631.5,216 649.5,216 649.5,220.5 663,220.5 663,225 672,225 672,229.5 
				681,229.5 681,234 685.5,234 690,234 690,238.5 694.5,238.5 694.5,243 699,243 699,247.5 703.5,247.5 703.5,252 708,252 
				708,256.5 712.5,256.5 712.5,265.5 717,265.5 717,270 721.5,270 721.5,279 726,279 726,283.5 726,288 726,292.5 730.5,292.5 
				730.5,306 730.5,315 735,315 739.5,315 739.5,297 739.5,292.5 			"/>
			<g>
				<rect x="609" y="562.5" class="st15" width="4.5" height="4.5"/>
				<rect x="613.5" y="567" class="st15" width="4.5" height="4.5"/>
				<rect x="618" y="571.5" class="st15" width="4.5" height="4.5"/>
				<rect x="622.5" y="576" class="st15" width="4.5" height="36"/>
				<polygon class="st15" points="600,558 600,553.5 595.5,553.5 595.5,558 586.5,558 586.5,562.5 595.5,562.5 595.5,634.5 
					600,634.5 600,562.5 609,562.5 609,558 				"/>
				<rect x="582" y="562.5" class="st15" width="4.5" height="4.5"/>
				<rect x="577.5" y="567" class="st15" width="4.5" height="4.5"/>
				<rect x="573" y="571.5" class="st15" width="4.5" height="4.5"/>
				<rect x="568.5" y="576" class="st15" width="4.5" height="36"/>
			</g>
			<rect x="541.5" y="513" class="st15" width="112.5" height="4.5"/>
			<polygon class="st11" points="744,499.5 744,490.5 739.5,490.5 739.5,472.5 735,472.5 735,454.5 730.5,454.5 730.5,450 
				730.5,441 726,441 726,436.5 721.5,436.5 717,436.5 717,432 708,432 708,427.5 694.5,427.5 694.5,423 681,423 681,418.5 
				667.5,418.5 667.5,414 649.5,414 645,414 645,409.5 613.5,409.5 613.5,414 600,414 600,418.5 595.5,418.5 595.5,414 586.5,414 
				586.5,409.5 555,409.5 555,414 532.5,414 532.5,418.5 505.5,418.5 505.5,423 492,423 492,427.5 483,427.5 483,432 474,432 
				474,436.5 469.5,436.5 469.5,441 465,441 465,445.5 460.5,445.5 460.5,463.5 456,463.5 456,477 451.5,477 451.5,504 447,504 
				447,522 451.5,522 456,522 456,517.5 460.5,517.5 465,517.5 465,513 469.5,513 474,513 478.5,513 483,513 483,508.5 487.5,508.5 
				492,508.5 492,504 496.5,504 501,504 505.5,504 505.5,499.5 514.5,499.5 514.5,495 519,495 523.5,495 528,495 528,490.5 
				532.5,490.5 537,490.5 537,486 541.5,486 546,486 546,481.5 550.5,481.5 555,481.5 559.5,481.5 559.5,477 564,477 564,472.5 
				568.5,472.5 568.5,468 573,468 577.5,468 577.5,463.5 582,463.5 586.5,463.5 586.5,459 591,459 591,454.5 595.5,454.5 595.5,450 
				600,450 609,450 609,445.5 613.5,445.5 613.5,450 622.5,450 622.5,454.5 645,454.5 645,459 663,459 663,463.5 667.5,463.5 
				667.5,468 676.5,468 676.5,472.5 681,472.5 681,477 685.5,477 685.5,481.5 690,481.5 690,486 699,486 699,490.5 703.5,490.5 
				703.5,495 708,495 708,499.5 717,499.5 717,504 726,504 730.5,504 730.5,508.5 735,508.5 735,513 739.5,513 744,513 748.5,513 
				748.5,499.5 			"/>
			<g>
				<rect x="541.5" y="504" class="st5" width="4.5" height="4.5"/>
				<rect x="645" y="504" class="st5" width="4.5" height="4.5"/>
				<rect x="676.5" y="495" class="st5" width="4.5" height="4.5"/>
				<path class="st5" d="M685.5,477H681v-4.5h-4.5V468H672h-4.5v-4.5H663V459h-22.5v4.5h-18h-45v4.5h-9v4.5H564v4.5h-4.5v4.5h-9H546
					v4.5h-9v9h9v9h4.5v-4.5h4.5V495h9v4.5h9v4.5h4.5v4.5H573v9h-4.5V531H564v18h-4.5v4.5h4.5h9h4.5h4.5h36h13.5h4.5V549h-4.5v-18
					H627v-13.5h-4.5v-9H618V504h4.5v-4.5h4.5V495h9v4.5h4.5v4.5h4.5v-4.5V495h9h9v-4.5h4.5h4.5v4.5h4.5v-9h4.5v-4.5h4.5V477z
					 M582,495v-18h4.5v-4.5h18v4.5h4.5v18h-4.5v4.5h-18V495H582z"/>
			</g>
			<polygon class="st6" points="667.5,639 667.5,630 663,630 663,616.5 658.5,616.5 658.5,612 654,612 654,607.5 649.5,607.5 
				649.5,612 645,612 645,616.5 640.5,616.5 640.5,621 631.5,621 631.5,625.5 627,625.5 627,630 622.5,630 622.5,634.5 573,634.5 
				573,630 568.5,630 568.5,625.5 564,625.5 564,621 555,621 555,616.5 550.5,616.5 550.5,612 546,612 546,607.5 541.5,607.5 
				541.5,612 537,612 537,616.5 532.5,616.5 532.5,630 528,630 528,639 523.5,639 523.5,657 523.5,661.5 528,661.5 541.5,661.5 
				550.5,661.5 555,661.5 640.5,661.5 645,661.5 654,661.5 667.5,661.5 672,661.5 672,657 672,639 			"/>
		</g>
		<g class="st20">
			<polygon class="st14" points="1132.9,509.8 1132.9,461 1128,461 1128,446.3 1123.1,446.3 1123.1,436.5 1118.2,436.5 
				1118.2,431.7 1113.3,431.7 1113.3,426.8 1098.7,426.8 1098.7,421.9 1079.1,421.9 1069.3,421.9 1064.5,421.9 956.9,421.9 
				947.2,421.9 937.4,421.9 917.8,421.9 917.8,426.8 903.2,426.8 903.2,431.7 898.3,431.7 898.3,436.5 893.4,436.5 893.4,446.3 
				888.5,446.3 888.5,461 883.6,461 883.6,509.8 878.8,509.8 878.8,578.3 883.6,578.3 883.6,588 888.5,588 888.5,592.9 888.5,597.8 
				893.4,597.8 893.4,607.6 898.3,607.6 898.3,632 903.2,632 903.2,636.9 903.2,641.8 932.5,641.8 932.5,636.9 932.5,597.8 
				932.5,592.9 932.5,578.3 927.6,578.3 927.6,563.6 922.7,563.6 922.7,534.3 927.6,534.3 927.6,529.4 932.5,529.4 932.5,534.3 
				932.5,539.2 937.4,539.2 937.4,548.9 942.3,548.9 942.3,553.8 947.2,553.8 947.2,563.6 952.1,563.6 952.1,578.3 952.1,627.1 
				1064.5,627.1 1064.5,578.3 1064.5,563.6 1069.3,563.6 1069.3,553.8 1074.2,553.8 1074.2,548.9 1079.1,548.9 1079.1,539.2 
				1084,539.2 1084,534.3 1084,529.4 1088.9,529.4 1088.9,534.3 1093.8,534.3 1093.8,563.6 1088.9,563.6 1088.9,578.3 1084,578.3 
				1084,592.9 1084,597.8 1084,636.9 1084,641.8 1113.3,641.8 1113.3,636.9 1113.3,632 1118.2,632 1118.2,607.6 1123.1,607.6 
				1123.1,597.8 1128,597.8 1128,592.9 1128,588 1132.9,588 1132.9,578.3 1137.8,578.3 1137.8,509.8 			"/>
			<polygon class="st8" points="1054.7,329 1054.7,319.3 1049.8,319.3 1049.8,314.4 1044.9,314.4 1044.9,309.5 1040,309.5 
				1040,304.6 1040,299.7 1035.1,299.7 1035.1,294.8 1030.2,294.8 1030.2,289.9 1015.6,289.9 1015.6,280.2 1020.5,280.2 
				1020.5,270.4 1015.6,270.4 1015.6,265.5 1005.8,265.5 1005.8,270.4 1000.9,270.4 1000.9,280.2 1005.8,280.2 1005.8,289.9 
				991.2,289.9 991.2,294.8 986.3,294.8 986.3,299.7 981.4,299.7 981.4,304.6 981.4,309.5 976.5,309.5 976.5,314.4 971.6,314.4 
				971.6,319.3 966.7,319.3 966.7,329 961.8,329 961.8,392.6 966.7,392.6 966.7,412.1 971.6,412.1 1005.8,412.1 1015.6,412.1 
				1049.8,412.1 1054.7,412.1 1054.7,392.6 1059.6,392.6 1059.6,329 			"/>
			<polygon class="st9" points="1044.9,329 1044.9,324.1 1040,324.1 1040,319.3 1035.1,319.3 1035.1,314.4 986.3,314.4 986.3,319.3 
				981.4,319.3 981.4,324.1 976.5,324.1 976.5,329 971.6,329 971.6,348.6 976.5,348.6 986.3,348.6 986.3,382.8 991.2,382.8 
				991.2,387.7 996,387.7 1005.8,387.7 1015.6,387.7 1025.4,387.7 1030.2,387.7 1030.2,382.8 1035.1,382.8 1035.1,348.6 
				1044.9,348.6 1049.8,348.6 1049.8,329 			"/>
			<polygon class="st9" points="1059.6,417 1059.6,412.1 1040,412.1 1040,407.2 1030.2,407.2 1030.2,392.6 991.2,392.6 991.2,407.2 
				981.4,407.2 981.4,412.1 956.9,412.1 956.9,417 947.2,417 947.2,421.9 956.9,421.9 956.9,426.8 966.7,426.8 966.7,431.7 
				1049.8,431.7 1049.8,426.8 1059.6,426.8 1059.6,421.9 1069.3,421.9 1069.3,417 			"/>
			<polygon class="st12" points="1074.2,421.9 1074.2,417 1069.3,417 1069.3,421.9 1059.6,421.9 1059.6,426.8 1049.8,426.8 
				1049.8,431.7 966.7,431.7 966.7,426.8 956.9,426.8 956.9,421.9 947.2,421.9 947.2,417 942.3,417 942.3,421.9 937.4,421.9 
				937.4,426.8 937.4,431.7 952.1,431.7 952.1,436.5 966.7,436.5 966.7,441.4 996,441.4 996,446.3 1025.4,446.3 1025.4,441.4 
				1054.7,441.4 1054.7,436.5 1069.3,436.5 1069.3,431.7 1079.1,431.7 1079.1,426.8 1079.1,421.9 			"/>
			<rect x="1015.6" y="333.9" class="st8" width="4.9" height="4.9"/>
			<rect x="1020.5" y="329" class="st8" width="14.7" height="4.9"/>
			<rect x="1025.4" y="333.9" class="st8" width="4.9" height="4.9"/>
			
				<rect x="1000.9" y="333.9" transform="matrix(-1 -4.466706e-11 4.466706e-11 -1 2006.7358 672.717)" class="st8" width="4.9" height="4.9"/>
			
				<rect x="986.3" y="329" transform="matrix(-1 -4.479140e-11 4.479140e-11 -1 1987.1887 662.9434)" class="st8" width="14.7" height="4.9"/>
			
				<rect x="991.2" y="333.9" transform="matrix(-1 -4.466706e-11 4.466706e-11 -1 1987.1887 672.717)" class="st8" width="4.9" height="4.9"/>
			<rect x="1005.8" y="353.5" class="st15" width="9.8" height="4.9"/>
			<rect x="1015.6" y="348.6" class="st15" width="4.9" height="4.9"/>
			<rect x="1000.9" y="348.6" class="st15" width="4.9" height="4.9"/>
			<rect x="996" y="368.1" class="st15" width="29.3" height="4.9"/>
			<polygon class="st3" points="981.4,353.5 976.5,353.5 976.5,348.6 971.6,348.6 971.6,353.5 966.7,353.5 966.7,363.2 971.6,363.2 
				971.6,373 976.5,373 976.5,363.2 981.4,363.2 			"/>
			<polygon class="st3" points="1054.7,353.5 1049.8,353.5 1049.8,348.6 1044.9,348.6 1044.9,353.5 1040,353.5 1040,363.2 
				1044.9,363.2 1044.9,373 1049.8,373 1049.8,363.2 1054.7,363.2 			"/>
			<rect x="976.5" y="319.3" class="st8" width="4.9" height="34.2"/>
			<rect x="1040" y="314.4" class="st8" width="4.9" height="34.2"/>
		</g>
		<g class="st20">
			<polygon class="st9" points="229.8,310 229.8,304.8 224.6,304.8 224.6,299.6 224.6,289.2 219.4,289.2 219.4,284 214.2,284 
				214.2,278.8 209,278.8 209,273.6 177.7,273.6 177.7,278.8 172.5,278.8 172.5,284 167.3,284 167.3,289.2 162.1,289.2 162.1,299.6 
				162.1,304.8 156.9,304.8 156.9,310 151.7,310 151.7,330.9 156.9,330.9 167.3,330.9 167.3,367.3 172.5,367.3 172.5,372.6 
				177.7,372.6 188.1,372.6 198.6,372.6 209,372.6 214.2,372.6 214.2,367.3 219.4,367.3 219.4,330.9 229.8,330.9 235,330.9 235,310 
							"/>
			<rect x="162.1" y="330.9" class="st9" width="62.5" height="5.2"/>
			<rect x="172.5" y="372.6" class="st15" width="41.7" height="5.2"/>
			<polygon class="st16" points="323.6,502.8 323.6,450.7 318.4,450.7 318.4,435.1 313.2,435.1 313.2,424.7 308,424.7 308,419.4 
				302.8,419.4 302.8,414.2 287.1,414.2 287.1,409 266.3,409 255.9,409 250.7,409 136,409 125.6,409 115.2,409 94.4,409 94.4,414.2 
				78.7,414.2 78.7,419.4 73.5,419.4 73.5,424.7 68.3,424.7 68.3,435.1 63.1,435.1 63.1,450.7 57.9,450.7 57.9,502.8 52.7,502.8 
				52.7,575.8 57.9,575.8 57.9,586.2 63.1,586.2 63.1,591.4 63.1,596.6 68.3,596.6 68.3,607 73.5,607 73.5,633.1 78.7,633.1 
				78.7,638.3 78.7,643.5 110,643.5 110,638.3 110,596.6 110,591.4 110,575.8 104.8,575.8 104.8,560.1 99.6,560.1 99.6,528.9 
				104.8,528.9 104.8,523.7 110,523.7 110,528.9 110,534.1 115.2,534.1 115.2,544.5 120.4,544.5 120.4,549.7 125.6,549.7 
				125.6,560.1 130.8,560.1 130.8,575.8 130.8,627.9 250.7,627.9 250.7,575.8 250.7,560.1 255.9,560.1 255.9,549.7 261.1,549.7 
				261.1,544.5 266.3,544.5 266.3,534.1 271.5,534.1 271.5,528.9 271.5,523.7 276.7,523.7 276.7,528.9 281.9,528.9 281.9,560.1 
				276.7,560.1 276.7,575.8 271.5,575.8 271.5,591.4 271.5,596.6 271.5,638.3 271.5,643.5 302.8,643.5 302.8,638.3 302.8,633.1 
				308,633.1 308,607 313.2,607 313.2,596.6 318.4,596.6 318.4,591.4 318.4,586.2 323.6,586.2 323.6,575.8 328.8,575.8 328.8,502.8 
							"/>
			<polygon class="st9" points="245.5,403.8 245.5,398.6 224.6,398.6 224.6,393.4 214.2,393.4 214.2,377.8 172.5,377.8 172.5,393.4 
				162.1,393.4 162.1,398.6 136,398.6 136,403.8 125.6,403.8 125.6,409 136,409 136,414.2 146.5,414.2 146.5,419.4 235,419.4 
				235,414.2 245.5,414.2 245.5,409 255.9,409 255.9,403.8 			"/>
			<polygon class="st12" points="261.1,409 261.1,403.8 255.9,403.8 255.9,409 245.5,409 245.5,414.2 235,414.2 235,419.4 
				146.5,419.4 146.5,414.2 136,414.2 136,409 125.6,409 125.6,403.8 120.4,403.8 120.4,409 115.2,409 115.2,414.2 115.2,419.4 
				130.8,419.4 130.8,424.7 146.5,424.7 146.5,429.9 177.7,429.9 177.7,435.1 209,435.1 209,429.9 240.2,429.9 240.2,424.7 
				255.9,424.7 255.9,419.4 266.3,419.4 266.3,414.2 266.3,409 			"/>
			
				<rect x="182.9" y="315.2" transform="matrix(-1 -4.503388e-11 4.503388e-11 -1 371.0789 635.6842)" class="st8" width="5.2" height="5.2"/>
			
				<rect x="167.3" y="310" transform="matrix(-1 -4.480117e-11 4.480117e-11 -1 350.2368 625.2632)" class="st8" width="15.6" height="5.2"/>
			
				<rect x="172.5" y="315.2" transform="matrix(-1 -4.468482e-11 4.468482e-11 -1 350.2368 635.6842)" class="st8" width="5.2" height="5.2"/>
			<rect x="188.1" y="336.1" class="st15" width="10.4" height="5.2"/>
			<rect x="198.6" y="330.9" class="st15" width="5.2" height="5.2"/>
			<rect x="182.9" y="330.9" class="st15" width="5.2" height="5.2"/>
			<rect x="177.7" y="351.7" class="st15" width="31.3" height="5.2"/>
			<polygon class="st3" points="162.1,336.1 156.9,336.1 156.9,330.9 151.7,330.9 151.7,336.1 146.5,336.1 146.5,346.5 151.7,346.5 
				151.7,351.7 156.9,351.7 156.9,346.5 162.1,346.5 			"/>
			<polygon class="st3" points="240.2,336.1 235,336.1 235,330.9 229.8,330.9 229.8,336.1 224.6,336.1 224.6,346.5 229.8,346.5 
				229.8,351.7 235,351.7 235,346.5 240.2,346.5 			"/>
			<rect x="156.9" y="299.6" class="st15" width="5.2" height="31.3"/>
			<rect x="224.6" y="299.6" class="st15" width="5.2" height="31.3"/>
			<polygon class="st8" points="198.6,252.7 198.6,247.5 188.1,247.5 188.1,252.7 182.9,252.7 182.9,273.6 188.1,273.6 198.6,273.6 
				203.8,273.6 203.8,252.7 			"/>
			<rect x="209" y="278.8" class="st14" width="5.2" height="93.8"/>
			<rect x="214.2" y="284" class="st14" width="5.2" height="88.6"/>
			<rect x="198.6" y="315.2" class="st8" width="5.2" height="5.2"/>
			<rect x="203.8" y="310" class="st8" width="15.6" height="5.2"/>
			<rect x="209" y="315.2" class="st8" width="5.2" height="5.2"/>
			<rect x="167.3" y="367.3" class="st9" width="20.8" height="5.2"/>
			<polygon class="st17" points="203.8,435.1 198.6,435.1 188.1,435.1 182.9,435.1 182.9,445.5 188.1,445.5 188.1,455.9 
				198.6,455.9 198.6,445.5 203.8,445.5 			"/>
			<g>
				<polygon class="st17" points="240.2,424.7 240.2,429.9 229.8,429.9 229.8,435.1 240.2,435.1 245.5,435.1 245.5,424.7 				"/>
				<rect x="245.5" y="435.1" class="st17" width="5.2" height="5.2"/>
				<rect x="250.7" y="440.3" class="st17" width="5.2" height="5.2"/>
			</g>
			<polygon class="st17" points="271.5,409 266.3,409 266.3,419.4 271.5,419.4 271.5,414.2 281.9,414.2 281.9,409 			"/>
			<g>
				<polygon class="st17" points="146.5,424.7 146.5,429.9 156.9,429.9 156.9,435.1 146.5,435.1 141.2,435.1 141.2,424.7 				"/>
				<rect x="136" y="435.1" class="st17" width="5.2" height="5.2"/>
				<rect x="130.8" y="440.3" class="st17" width="5.2" height="5.2"/>
			</g>
			<polygon class="st17" points="115.2,409 120.4,409 120.4,419.4 115.2,419.4 115.2,414.2 104.8,414.2 104.8,409 			"/>
		</g>
		<rect x="991.2" y="387.7" class="st23" width="39.1" height="4.9"/>
		<rect x="577.4" y="396" class="st23" width="40.6" height="4.5"/>
	</g>
</g>
<g id="Layer_7">
</g>
<g id="Layer_4">
	<g>
		<path class="st32" d="M354.1,42.7h-2.2V31.5h1.1v-1.1h1.1v-1.1h1.1v-1.1h1.1V27h2.2v1.1h1.1v1.1h1.1v1.1h1.1v1.1h1.1v11.2h-2.2
			v-4.5h-6.7V42.7z M354.1,36h6.7v-3.4h-1.1v-1.1h-1.1v-1.1h-2.2v1.1h-1.1v1.1h-1.1V36z"/>
		<path class="st32" d="M369.8,40.5h6.7v2.2h-11.2v-2.2h1.1v-1.1h1.1v-1.1h1.1v-1.1h1.1V36h1.1v-1.1h1.1v-1.1h1.1v-1.1h-7.9v-2.2
			h11.2v3.4h-1.1v1.1h-1.1V36h-1.1v1.1H372v1.1h-1.1v1.1h-1.1V40.5z"/>
		<path class="st32" d="M386.6,40.5h1.1v2.2h-2.2v-1.1h-1.1v-1.1h-1.1v-7.9H381v-2.2h2.2V27h2.2v3.4h2.2v2.2h-2.2v6.7h1.1V40.5z"/>
		<path class="st32" d="M403.5,39.3v1.1h-1.1v1.1h-1.1v1.1h-6.7v-1.1h-1.1v-1.1h-1.1v-7.9h1.1v-1.1h1.1v-1.1h6.7v1.1h1.1v1.1h1.1V36
			h-1.1v1.1h-7.9v2.2h1.1v1.1h4.5v-1.1H403.5z M394.5,33.7v1.1h6.7v-1.1h-1.1v-1.1h-4.5v1.1H394.5z"/>
		<path class="st32" d="M414.7,39.3v-1.1h2.2v2.2h-1.1v1.1h-1.1v1.1H408v-1.1h-1.1v-1.1h-1.1v-7.9h1.1v-1.1h1.1v-1.1h6.7v1.1h1.1
			v1.1h1.1v2.2h-2.2v-1.1h-1.1v-1.1h-4.5v1.1H408v5.6h1.1v1.1h4.5v-1.1H414.7z"/>
		<path class="st32" d="M433.8,40.5h-1.1v-2.2h2.2v1.1h1.1v1.1h4.5v-2.2h-2.2v-1.1H436V36h-2.2v-1.1h-1.1v-2.2h1.1v-1.1h1.1v-1.1
			h6.7v1.1h1.1v1.1h1.1v2.2h-2.2v-1.1h-1.1v-1.1H436v2.2h3.4V36h2.2v1.1h1.1v1.1h1.1v2.2h-1.1v1.1h-1.1v1.1h-6.7v-1.1h-1.1V40.5z"/>
		<path class="st32" d="M448.4,42.7v-1.1h-1.1v-1.1h-1.1v-7.9h1.1v-1.1h1.1v-1.1h6.7v1.1h1.1v1.1h1.1v7.9h-1.1v1.1h-1.1v1.1H448.4z
			 M449.5,40.5h4.5v-1.1h1.1v-5.6H454v-1.1h-4.5v1.1h-1.1v5.6h1.1V40.5z"/>
		<path class="st32" d="M468.6,39.3v-1.1h2.2v2.2h-1.1v1.1h-1.1v1.1h-6.7v-1.1h-1.1v-1.1h-1.1v-7.9h1.1v-1.1h1.1v-1.1h6.7v1.1h1.1
			v1.1h1.1v2.2h-2.2v-1.1h-1.1v-1.1H463v1.1h-1.1v5.6h1.1v1.1h4.5v-1.1H468.6z"/>
		<path class="st32" d="M481,40.5h1.1v2.2h-2.2v-1.1h-1.1v-1.1h-1.1v-5.6h-2.2v-2.2h4.5v6.7h1.1V40.5z M479.8,28.1v2.2h-2.2v-2.2
			H479.8z"/>
		<path class="st32" d="M497.8,39.3v1.1h-1.1v1.1h-1.1v1.1h-6.7v-1.1h-1.1v-1.1h-1.1v-7.9h1.1v-1.1h1.1v-1.1h6.7v1.1h1.1v1.1h1.1V36
			h-1.1v1.1h-7.9v2.2h1.1v1.1h4.5v-1.1H497.8z M488.8,33.7v1.1h6.7v-1.1h-1.1v-1.1h-4.5v1.1H488.8z"/>
		<path class="st32" d="M507.9,40.5h1.1v2.2h-2.2v-1.1h-1.1v-1.1h-1.1v-7.9h-2.2v-2.2h2.2V27h2.2v3.4h2.2v2.2h-2.2v6.7h1.1V40.5z"/>
		<path class="st32" d="M515.8,42.7v-2.2h5.6v-1.1h1.1V36h-1.1v1.1h-1.1v1.1h-4.5v-1.1h-1.1V36h-1.1v-6.7h2.2v5.6h1.1V36h2.2v-1.1
			h1.1v-1.1h1.1v-2.2h1.1v-2.2h2.2v11.2h-1.1v1.1h-1.1v1.1H515.8z"/>
		<path class="st32" d="M540.5,30.4h2.2v9h1.1v1.1h1.1v-5.6h2.2v5.6h1.1v-1.1h1.1v-9h2.2v10.1h-1.1v1.1h-1.1v1.1h-2.2v-1.1H545v1.1
			h-2.2v-1.1h-1.1v-1.1h-1.1V30.4z"/>
		<path class="st32" d="M556.2,42.7v-1.1h-1.1v-1.1H554V36h1.1v-1.1h1.1v-1.1h5.6v1.1h1.1v-2.2h-1.1v-1.1h-5.6v-2.2h6.7v1.1h1.1v1.1
			h1.1v11.2h-2.2v-1.1h-1.1v1.1H556.2z M557.3,40.5h4.5v-1.1h1.1v-2.2h-1.1V36h-4.5v1.1h-1.1v2.2h1.1V40.5z"/>
		<path class="st32" d="M568.6,40.5h-1.1v-2.2h2.2v1.1h1.1v1.1h4.5v-2.2H573v-1.1h-2.2V36h-2.2v-1.1h-1.1v-2.2h1.1v-1.1h1.1v-1.1
			h6.7v1.1h1.1v1.1h1.1v2.2h-2.2v-1.1h-1.1v-1.1h-4.5v2.2h3.4V36h2.2v1.1h1.1v1.1h1.1v2.2h-1.1v1.1h-1.1v1.1h-6.7v-1.1h-1.1V40.5z"
			/>
		<path class="st32" d="M601.1,42.7h-2.2V32.6h-3.4v-2.2h3.4v-2.2h1.1V27h4.5v2.2h-3.4v1.1h3.4v2.2h-3.4V42.7z"/>
		<path class="st32" d="M610.1,42.7v-1.1H609v-1.1h-1.1v-7.9h1.1v-1.1h1.1v-1.1h6.7v1.1h1.1v1.1h1.1v7.9H618v1.1h-1.1v1.1H610.1z
			 M611.2,40.5h4.5v-1.1h1.1v-5.6h-1.1v-1.1h-4.5v1.1h-1.1v5.6h1.1V40.5z"/>
		<path class="st32" d="M630.3,39.3v-1.1h2.2v2.2h-1.1v1.1h-1.1v1.1h-6.7v-1.1h-1.1v-1.1h-1.1v-7.9h1.1v-1.1h1.1v-1.1h6.7v1.1h1.1
			v1.1h1.1v2.2h-2.2v-1.1h-1.1v-1.1h-4.5v1.1h-1.1v5.6h1.1v1.1h4.5v-1.1H630.3z"/>
		<path class="st32" d="M634.8,30.4h2.2v9h1.1v1.1h4.5v-1.1h1.1v-9h2.2v10.1h-1.1v1.1h-1.1v1.1h-6.7v-1.1h-1.1v-1.1h-1.1V30.4z"/>
		<path class="st32" d="M649.4,40.5h-1.1v-2.2h2.2v1.1h1.1v1.1h4.5v-2.2h-2.2v-1.1h-2.2V36h-2.2v-1.1h-1.1v-2.2h1.1v-1.1h1.1v-1.1
			h6.7v1.1h1.1v1.1h1.1v2.2h-2.2v-1.1h-1.1v-1.1h-4.5v2.2h3.4V36h2.2v1.1h1.1v1.1h1.1v2.2h-1.1v1.1h-1.1v1.1h-6.7v-1.1h-1.1V40.5z"
			/>
		<path class="st32" d="M673,39.3v1.1h-1.1v1.1h-1.1v1.1H664v-1.1h-1.1v-1.1h-1.1v-7.9h1.1v-1.1h1.1v-1.1h6.7v1.1h1.1v1.1h1.1V36
			h-1.1v1.1H664v2.2h1.1v1.1h4.5v-1.1H673z M664,33.7v1.1h6.7v-1.1h-1.1v-1.1h-4.5v1.1H664z"/>
		<path class="st32" d="M684.2,32.6V27h2.2v15.7h-2.2v-2.2h-1.1v1.1H682v1.1h-3.4v-1.1h-1.1v-1.1h-1.1v-1.1h-1.1v-5.6h1.1v-1.1h1.1
			v-1.1h1.1v-1.1h3.4v1.1h1.1v1.1H684.2z M678.6,39.3h1.1v1.1h1.1v-1.1h1.1v-1.1h1.1v-3.4H682v-1.1h-1.1v-1.1h-1.1v1.1h-1.1v1.1
			h-1.1v3.4h1.1V39.3z"/>
		<path class="st32" d="M704.4,42.7v-1.1h-1.1v-1.1h-1.1v-7.9h1.1v-1.1h1.1v-1.1h6.7v1.1h1.1v1.1h1.1v7.9h-1.1v1.1h-1.1v1.1H704.4z
			 M705.6,40.5h4.5v-1.1h1.1v-5.6h-1.1v-1.1h-4.5v1.1h-1.1v5.6h1.1V40.5z"/>
		<path class="st32" d="M717.9,33.7v9h-2.2V30.4h2.2v1.1h1.1v-1.1h5.6v1.1h1.1v1.1h1.1v10.1h-2.2v-9h-1.1v-1.1H719v1.1H717.9z"/>
		<path class="st32" d="M742.6,30.4h2.2v9h1.1v1.1h1.1v-5.6h2.2v5.6h1.1v-1.1h1.1v-9h2.2v10.1h-1.1v1.1h-1.1v1.1h-2.2v-1.1h-2.2v1.1
			h-2.2v-1.1h-1.1v-1.1h-1.1V30.4z"/>
		<path class="st32" d="M758.3,42.7v-1.1h-1.1v-1.1h-1.1V36h1.1v-1.1h1.1v-1.1h5.6v1.1h1.1v-2.2H764v-1.1h-5.6v-2.2h6.7v1.1h1.1v1.1
			h1.1v11.2h-2.2v-1.1H764v1.1H758.3z M759.5,40.5h4.5v-1.1h1.1v-2.2H764V36h-4.5v1.1h-1.1v2.2h1.1V40.5z"/>
		<path class="st32" d="M771.8,36v6.7h-2.2V30.4h2.2v2.2h1.1v-1.1h1.1v-1.1h4.5v1.1h1.1v1.1h1.1v2.2h-2.2v-1.1h-1.1v-1.1h-2.2v1.1
			h-1.1v1.1h-1.1V36H771.8z"/>
		<path class="st32" d="M789.8,42.7h-2.2V32.6h-3.4v-2.2h3.4v-2.2h1.1V27h4.5v2.2h-3.4v1.1h3.4v2.2h-3.4V42.7z"/>
		<path class="st32" d="M798.8,42.7v-1.1h-1.1v-1.1h-1.1V36h1.1v-1.1h1.1v-1.1h5.6v1.1h1.1v-2.2h-1.1v-1.1h-5.6v-2.2h6.7v1.1h1.1
			v1.1h1.1v11.2h-2.2v-1.1h-1.1v1.1H798.8z M799.9,40.5h4.5v-1.1h1.1v-2.2h-1.1V36h-4.5v1.1h-1.1v2.2h1.1V40.5z"/>
		<path class="st32" d="M812.3,36v6.7H810V30.4h2.2v2.2h1.1v-1.1h1.1v-1.1h4.5v1.1h1.1v1.1h1.1v2.2H819v-1.1h-1.1v-1.1h-2.2v1.1
			h-1.1v1.1h-1.1V36H812.3z"/>
		<path class="st32" d="M834.7,39.3v1.1h-1.1v1.1h-1.1v1.1h-6.7v-1.1h-1.1v-1.1h-1.1v-7.9h1.1v-1.1h1.1v-1.1h6.7v1.1h1.1v1.1h1.1V36
			h-1.1v1.1h-7.9v2.2h1.1v1.1h4.5v-1.1H834.7z M825.7,33.7v1.1h6.7v-1.1h-1.1v-1.1h-4.5v1.1H825.7z"/>
		<path class="st32" d="M842.6,40.5v2.2h-2.2v-2.2H842.6z"/>
		<path class="st32" d="M133.9,56.8h-4.5v-2.2h11.2v2.2h-4.5v13.5h-2.2V56.8z"/>
		<path class="st32" d="M145.2,63.6v6.7h-2.2V54.6h2.2v5.6h1.1v-1.1h1.1V58h3.4v1.1h1.1v1.1h1.1v1.1h1.1v9h-2.2v-7.9h-1.1v-1.1h-1.1
			v-1.1h-1.1v1.1h-1.1v1.1h-1.1v1.1H145.2z"/>
		<path class="st32" d="M167.6,66.9v1.1h-1.1v1.1h-1.1v1.1h-6.7v-1.1h-1.1v-1.1h-1.1v-7.9h1.1v-1.1h1.1V58h6.7v1.1h1.1v1.1h1.1v3.4
			h-1.1v1.1h-7.9v2.2h1.1v1.1h4.5v-1.1H167.6z M158.6,61.3v1.1h6.7v-1.1h-1.1v-1.1h-4.5v1.1H158.6z"/>
		<path class="st32" d="M172.1,70.3v-2.2h5.6v-1.1h1.1v-3.4h-1.1v1.1h-1.1v1.1h-4.5v-1.1H171v-1.1h-1.1v-6.7h2.2v5.6h1.1v1.1h2.2
			v-1.1h1.1v-1.1h1.1v-2.2h1.1v-2.2h2.2v11.2H180v1.1h-1.1v1.1H172.1z"/>
		<path class="st32" d="M199.1,63.6v6.7h-2.2V54.6h2.2v5.6h1.1v-1.1h1.1V58h3.4v1.1h1.1v1.1h1.1v1.1h1.1v9h-2.2v-7.9h-1.1v-1.1h-1.1
			v-1.1h-1.1v1.1h-1.1v1.1h-1.1v1.1H199.1z"/>
		<path class="st32" d="M212.5,70.3v-1.1h-1.1v-1.1h-1.1v-4.5h1.1v-1.1h1.1v-1.1h5.6v1.1h1.1v-2.2h-1.1v-1.1h-5.6v-2.2h6.7V58h1.1
			v1.1h1.1v11.2h-2.2v-1.1h-1.1v1.1H212.5z M213.7,68.1h4.5v-1.1h1.1v-2.2h-1.1v-1.1h-4.5v1.1h-1.1v2.2h1.1V68.1z"/>
		<path class="st32" d="M232.8,60.2v-5.6h2.2v15.7h-2.2v-2.2h-1.1v1.1h-1.1v1.1h-3.4v-1.1H226v-1.1h-1.1v-1.1h-1.1v-5.6h1.1v-1.1
			h1.1v-1.1h1.1V58h3.4v1.1h1.1v1.1H232.8z M227.1,66.9h1.1v1.1h1.1v-1.1h1.1v-1.1h1.1v-3.4h-1.1v-1.1h-1.1v-1.1h-1.1v1.1h-1.1v1.1
			H226v3.4h1.1V66.9z"/>
		<path class="st32" d="M253,70.3v-1.1h-1.1v-1.1h-1.1v-4.5h1.1v-1.1h1.1v-1.1h5.6v1.1h1.1v-2.2h-1.1v-1.1H253v-2.2h6.7V58h1.1v1.1
			h1.1v11.2h-2.2v-1.1h-1.1v1.1H253z M254.1,68.1h4.5v-1.1h1.1v-2.2h-1.1v-1.1h-4.5v1.1H253v2.2h1.1V68.1z"/>
		<path class="st32" d="M278.8,68.1h-1.1v-2.2h2.2v1.1h1.1v1.1h4.5v-2.2h-2.2v-1.1h-2.2v-1.1h-2.2v-1.1h-1.1v-2.2h1.1v-1.1h1.1V58
			h6.7v1.1h1.1v1.1h1.1v2.2h-2.2v-1.1h-1.1v-1.1h-4.5v2.2h3.4v1.1h2.2v1.1h1.1v1.1h1.1v2.2h-1.1v1.1h-1.1v1.1h-6.7v-1.1h-1.1V68.1z"
			/>
		<path class="st32" d="M291.2,58h2.2v9h1.1v1.1h4.5v-1.1h1.1v-9h2.2v10.1h-1.1v1.1h-1.1v1.1h-6.7v-1.1h-1.1v-1.1h-1.1V58z"/>
		<path class="st32" d="M306.9,65.8v4.5h-2.2V56.8h2.2V58h1.1v-1.1h5.6V58h1.1v1.1h1.1v5.6h-1.1v1.1h-1.1v1.1H308v-1.1H306.9z
			 M313.6,60.2h-1.1v-1.1h-3.4v1.1H308v3.4h1.1v1.1h3.4v-1.1h1.1V60.2z"/>
		<path class="st32" d="M329.3,66.9v1.1h-1.1v1.1h-1.1v1.1h-6.7v-1.1h-1.1v-1.1h-1.1v-7.9h1.1v-1.1h1.1V58h6.7v1.1h1.1v1.1h1.1v3.4
			h-1.1v1.1h-7.9v2.2h1.1v1.1h4.5v-1.1H329.3z M320.4,61.3v1.1h6.7v-1.1H326v-1.1h-4.5v1.1H320.4z"/>
		<path class="st32" d="M333.8,63.6v6.7h-2.2V58h2.2v2.2h1.1v-1.1h1.1V58h4.5v1.1h1.1v1.1h1.1v2.2h-2.2v-1.1h-1.1v-1.1h-2.2v1.1
			h-1.1v1.1H335v1.1H333.8z"/>
		<path class="st32" d="M347.3,68.1v2.2h-2.2V54.6h2.2v5.6h1.1v-1.1h1.1V58h3.4v1.1h1.1v1.1h1.1v1.1h1.1v5.6h-1.1v1.1h-1.1v1.1h-1.1
			v1.1h-3.4v-1.1h-1.1v-1.1H347.3z M350.7,68.1h1.1v-1.1h1.1v-1.1h1.1v-3.4h-1.1v-1.1h-1.1v-1.1h-1.1v1.1h-1.1v1.1h-1.1v3.4h1.1v1.1
			h1.1V68.1z"/>
		<path class="st32" d="M374.3,61.3v9H372V58h2.2v1.1h1.1V58h5.6v1.1h1.1v1.1h1.1v10.1H381v-9h-1.1v-1.1h-1.1v10.1h-2.2V60.2h-1.1
			v1.1H374.3z"/>
		<path class="st32" d="M393.4,68.1h1.1v2.2h-2.2v-1.1h-1.1v-1.1H390v-5.6h-2.2v-2.2h4.5v6.7h1.1V68.1z M392.2,55.7V58H390v-2.2
			H392.2z"/>
		<path class="st32" d="M405.7,54.6v15.7h-2.2V54.6H405.7z"/>
		<path class="st32" d="M420.3,68.1h1.1v2.2h-2.2v-1.1h-1.1v-1.1h-1.1v-5.6h-2.2v-2.2h4.5v6.7h1.1V68.1z M419.2,55.7V58h-2.2v-2.2
			H419.2z"/>
		<path class="st32" d="M433.8,68.1h1.1v2.2h-2.2v-1.1h-1.1v-1.1h-1.1v-7.9h-2.2V58h2.2v-3.4h2.2V58h2.2v2.2h-2.2v6.7h1.1V68.1z"/>
		<path class="st32" d="M441.7,70.3v-1.1h-1.1v-1.1h-1.1v-4.5h1.1v-1.1h1.1v-1.1h5.6v1.1h1.1v-2.2h-1.1v-1.1h-5.6v-2.2h6.7V58h1.1
			v1.1h1.1v11.2h-2.2v-1.1h-1.1v1.1H441.7z M442.8,68.1h4.5v-1.1h1.1v-2.2h-1.1v-1.1h-4.5v1.1h-1.1v2.2h1.1V68.1z"/>
		<path class="st32" d="M455.1,63.6v6.7h-2.2V58h2.2v2.2h1.1v-1.1h1.1V58h4.5v1.1h1.1v1.1h1.1v2.2h-2.2v-1.1h-1.1v-1.1h-2.2v1.1
			h-1.1v1.1h-1.1v1.1H455.1z"/>
		<path class="st32" d="M468.6,70.3v-2.2h5.6v-1.1h1.1v-3.4h-1.1v1.1h-1.1v1.1h-4.5v-1.1h-1.1v-1.1h-1.1v-6.7h2.2v5.6h1.1v1.1h2.2
			v-1.1h1.1v-1.1h1.1v-2.2h1.1v-2.2h2.2v11.2h-1.1v1.1h-1.1v1.1H468.6z"/>
		<path class="st32" d="M493.3,58h2.2v9h1.1v1.1h1.1v-5.6h2.2v5.6h1.1v-1.1h1.1v-9h2.2v10.1h-1.1v1.1h-1.1v1.1H500v-1.1h-2.2v1.1
			h-2.2v-1.1h-1.1v-1.1h-1.1V58z"/>
		<path class="st32" d="M514.6,68.1h1.1v2.2h-2.2v-1.1h-1.1v-1.1h-1.1v-5.6H509v-2.2h4.5v6.7h1.1V68.1z M513.5,55.7V58h-2.2v-2.2
			H513.5z"/>
		<path class="st32" d="M528.1,68.1h1.1v2.2H527v-1.1h-1.1v-1.1h-1.1v-7.9h-2.2V58h2.2v-3.4h2.2V58h2.2v2.2H527v6.7h1.1V68.1z"/>
		<path class="st32" d="M536,63.6v6.7h-2.2V54.6h2.2v5.6h1.1v-1.1h1.1V58h3.4v1.1h1.1v1.1h1.1v1.1h1.1v9h-2.2v-7.9h-1.1v-1.1h-1.1
			v-1.1h-1.1v1.1h-1.1v1.1h-1.1v1.1H536z"/>
		<path class="st32" d="M560.7,58h2.2v9h1.1v1.1h1.1v-5.6h2.2v5.6h1.1v-1.1h1.1v-9h2.2v10.1h-1.1v1.1h-1.1v1.1h-2.2v-1.1h-2.2v1.1
			h-2.2v-1.1h-1.1v-1.1h-1.1V58z"/>
		<path class="st32" d="M576.4,63.6v6.7h-2.2V54.6h2.2v5.6h1.1v-1.1h1.1V58h3.4v1.1h1.1v1.1h1.1v1.1h1.1v9h-2.2v-7.9H582v-1.1h-1.1
			v-1.1h-1.1v1.1h-1.1v1.1h-1.1v1.1H576.4z"/>
		<path class="st32" d="M595.5,68.1h1.1v2.2h-2.2v-1.1h-1.1v-1.1h-1.1v-5.6h-2.2v-2.2h4.5v6.7h1.1V68.1z M594.4,55.7V58h-2.2v-2.2
			H594.4z"/>
		<path class="st32" d="M610.1,66.9v-1.1h2.2v2.2h-1.1v1.1h-1.1v1.1h-6.7v-1.1h-1.1v-1.1h-1.1v-7.9h1.1v-1.1h1.1V58h6.7v1.1h1.1v1.1
			h1.1v2.2h-2.2v-1.1H609v-1.1h-4.5v1.1h-1.1v5.6h1.1v1.1h4.5v-1.1H610.1z"/>
		<path class="st32" d="M616.8,63.6v6.7h-2.2V54.6h2.2v5.6h1.1v-1.1h1.1V58h3.4v1.1h1.1v1.1h1.1v1.1h1.1v9h-2.2v-7.9h-1.1v-1.1h-1.1
			v-1.1h-1.1v1.1h-1.1v1.1H618v1.1H616.8z"/>
		<path class="st32" d="M649.4,68.1h1.1v2.2h-2.2v-1.1h-1.1v-1.1H646v-7.9h-2.2V58h2.2v-3.4h2.2V58h2.2v2.2h-2.2v6.7h1.1V68.1z"/>
		<path class="st32" d="M657.3,63.6v6.7H655V54.6h2.2v5.6h1.1v-1.1h1.1V58h3.4v1.1h1.1v1.1h1.1v1.1h1.1v9H664v-7.9h-1.1v-1.1h-1.1
			v-1.1h-1.1v1.1h-1.1v1.1h-1.1v1.1H657.3z"/>
		<path class="st32" d="M679.7,66.9v1.1h-1.1v1.1h-1.1v1.1h-6.7v-1.1h-1.1v-1.1h-1.1v-7.9h1.1v-1.1h1.1V58h6.7v1.1h1.1v1.1h1.1v3.4
			h-1.1v1.1h-7.9v2.2h1.1v1.1h4.5v-1.1H679.7z M670.8,61.3v1.1h6.7v-1.1h-1.1v-1.1h-4.5v1.1H670.8z"/>
		<path class="st32" d="M684.2,70.3v-2.2h5.6v-1.1h1.1v-3.4h-1.1v1.1h-1.1v1.1h-4.5v-1.1h-1.1v-1.1H682v-6.7h2.2v5.6h1.1v1.1h2.2
			v-1.1h1.1v-1.1h1.1v-2.2h1.1v-2.2h2.2v11.2h-1.1v1.1H691v1.1H684.2z"/>
		<path class="st32" d="M711.2,63.6v6.7h-2.2V58h2.2v2.2h1.1v-1.1h1.1V58h4.5v1.1h1.1v1.1h1.1v2.2h-2.2v-1.1h-1.1v-1.1h-2.2v1.1
			h-1.1v1.1h-1.1v1.1H711.2z"/>
		<path class="st32" d="M722.4,58h2.2v9h1.1v1.1h4.5v-1.1h1.1v-9h2.2v10.1h-1.1v1.1h-1.1v1.1h-6.7v-1.1h-1.1v-1.1h-1.1V58z"/>
		<path class="st32" d="M742.6,54.6v15.7h-2.2V54.6H742.6z"/>
		<path class="st32" d="M760.6,66.9v1.1h-1.1v1.1h-1.1v1.1h-6.7v-1.1h-1.1v-1.1h-1.1v-7.9h1.1v-1.1h1.1V58h6.7v1.1h1.1v1.1h1.1v3.4
			h-1.1v1.1h-7.9v2.2h1.1v1.1h4.5v-1.1H760.6z M751.6,61.3v1.1h6.7v-1.1h-1.1v-1.1h-4.5v1.1H751.6z"/>
		<path class="st32" d="M771.8,60.2v-5.6h2.2v15.7h-2.2v-2.2h-1.1v1.1h-1.1v1.1h-3.4v-1.1h-1.1v-1.1H764v-1.1h-1.1v-5.6h1.1v-1.1
			h1.1v-1.1h1.1V58h3.4v1.1h1.1v1.1H771.8z M766.2,66.9h1.1v1.1h1.1v-1.1h1.1v-1.1h1.1v-3.4h-1.1v-1.1h-1.1v-1.1h-1.1v1.1h-1.1v1.1
			h-1.1v3.4h1.1V66.9z"/>
		<path class="st32" d="M797.7,68.1h1.1v2.2h-2.2v-1.1h-1.1v-1.1h-1.1v-7.9H792V58h2.2v-3.4h2.2V58h2.2v2.2h-2.2v6.7h1.1V68.1z"/>
		<path class="st32" d="M805.5,63.6v6.7h-2.2V54.6h2.2v5.6h1.1v-1.1h1.1V58h3.4v1.1h1.1v1.1h1.1v1.1h1.1v9h-2.2v-7.9h-1.1v-1.1H810
			v-1.1h-1.1v1.1h-1.1v1.1h-1.1v1.1H805.5z"/>
		<path class="st32" d="M828,66.9v1.1h-1.1v1.1h-1.1v1.1H819v-1.1h-1.1v-1.1h-1.1v-7.9h1.1v-1.1h1.1V58h6.7v1.1h1.1v1.1h1.1v3.4
			h-1.1v1.1H819v2.2h1.1v1.1h4.5v-1.1H828z M819,61.3v1.1h6.7v-1.1h-1.1v-1.1h-4.5v1.1H819z"/>
		<path class="st32" d="M843.7,58h2.2v6.7h1.1v1.1h1.1v1.1h2.2v-1.1h1.1v-1.1h1.1V58h2.2v7.9h-1.1v1.1h-1.1v1.1h-1.1v1.1h-1.1v1.1
			h-2.2v-1.1h-1.1v-1.1h-1.1v-1.1h-1.1v-1.1h-1.1V58z"/>
		<path class="st32" d="M859.4,70.3v-1.1h-1.1v-1.1h-1.1v-4.5h1.1v-1.1h1.1v-1.1h5.6v1.1h1.1v-2.2H865v-1.1h-5.6v-2.2h6.7V58h1.1
			v1.1h1.1v11.2h-2.2v-1.1H865v1.1H859.4z M860.5,68.1h4.5v-1.1h1.1v-2.2H865v-1.1h-4.5v1.1h-1.1v2.2h1.1V68.1z"/>
		<path class="st32" d="M877.4,54.6v15.7h-2.2V54.6H877.4z"/>
		<path class="st32" d="M890.9,54.6v15.7h-2.2V54.6H890.9z"/>
		<path class="st32" d="M908.8,66.9v1.1h-1.1v1.1h-1.1v1.1h-6.7v-1.1h-1.1v-1.1h-1.1v-7.9h1.1v-1.1h1.1V58h6.7v1.1h1.1v1.1h1.1v3.4
			h-1.1v1.1h-7.9v2.2h1.1v1.1h4.5v-1.1H908.8z M899.9,61.3v1.1h6.7v-1.1h-1.1v-1.1H901v1.1H899.9z"/>
		<path class="st32" d="M913.3,70.3v-2.2h5.6v-1.1h1.1v-3.4h-1.1v1.1h-1.1v1.1h-4.5v-1.1h-1.1v-1.1h-1.1v-6.7h2.2v5.6h1.1v1.1h2.2
			v-1.1h1.1v-1.1h1.1v-2.2h1.1v-2.2h2.2v11.2h-1.1v1.1h-1.1v1.1H913.3z"/>
		<path class="st32" d="M940.3,70.3v-1.1h-1.1v-1.1H938v-7.9h1.1v-1.1h1.1V58h6.7v1.1h1.1v1.1h1.1v7.9h-1.1v1.1H947v1.1H940.3z
			 M941.4,68.1h4.5v-1.1h1.1v-5.6h-1.1v-1.1h-4.5v1.1h-1.1v5.6h1.1V68.1z"/>
		<path class="st32" d="M958.3,70.3H956V60.2h-3.4V58h3.4v-2.2h1.1v-1.1h4.5v2.2h-3.4V58h3.4v2.2h-3.4V70.3z"/>
		<path class="st32" d="M980.7,70.3h-2.2V54.6h2.2v2.2h1.1V58h1.1v1.1h2.2V58h1.1v-1.1h1.1v-2.2h2.2v15.7h-2.2V60.2h-1.1v1.1h-1.1
			v2.2H983v-2.2h-1.1v-1.1h-1.1V70.3z"/>
		<path class="st32" d="M1003.2,66.9v1.1h-1.1v1.1h-1.1v1.1h-6.7v-1.1h-1.1v-1.1h-1.1v-7.9h1.1v-1.1h1.1V58h6.7v1.1h1.1v1.1h1.1v3.4
			h-1.1v1.1h-7.9v2.2h1.1v1.1h4.5v-1.1H1003.2z M994.2,61.3v1.1h6.7v-1.1h-1.1v-1.1h-4.5v1.1H994.2z"/>
		<path class="st32" d="M1007.7,69.2v1.1h-2.2v-2.2h1.1v-1.1h1.1v-1.1h1.1v-1.1h1.1v-1.1h-1.1v-1.1h-1.1v-1.1h-1.1v-1.1h-1.1V58h2.2
			v1.1h1.1v1.1h1.1v1.1h2.2v-1.1h1.1v-1.1h1.1V58h2.2v2.2h-1.1v1.1h-1.1v1.1h-1.1v1.1h-1.1v1.1h1.1v1.1h1.1v1.1h1.1v1.1h1.1v2.2
			h-2.2v-1.1h-1.1v-1.1h-1.1v-1.1h-2.2v1.1h-1.1v1.1H1007.7z"/>
		<path class="st32" d="M1026.8,68.1h1.1v2.2h-2.2v-1.1h-1.1v-1.1h-1.1v-5.6h-2.2v-2.2h4.5v6.7h1.1V68.1z M1025.6,55.7V58h-2.2v-2.2
			H1025.6z"/>
		<path class="st32" d="M1041.4,66.9v-1.1h2.2v2.2h-1.1v1.1h-1.1v1.1h-6.7v-1.1h-1.1v-1.1h-1.1v-7.9h1.1v-1.1h1.1V58h6.7v1.1h1.1
			v1.1h1.1v2.2h-2.2v-1.1h-1.1v-1.1h-4.5v1.1h-1.1v5.6h1.1v1.1h4.5v-1.1H1041.4z"/>
		<path class="st32" d="M1048.1,70.3v-1.1h-1.1v-1.1h-1.1v-7.9h1.1v-1.1h1.1V58h6.7v1.1h1.1v1.1h1.1v7.9h-1.1v1.1h-1.1v1.1H1048.1z
			 M1049.2,68.1h4.5v-1.1h1.1v-5.6h-1.1v-1.1h-4.5v1.1h-1.1v5.6h1.1V68.1z"/>
		<path class="st32" d="M1064.9,68.1v2.2h-2.2v-2.2H1064.9z"/>
	</g>
</g>
<g id="Layer_6">
</g>
</svg>
