<?xml version="1.0" encoding="utf-8"?>
<!-- Generator: Adobe Illustrator 25.2.3, SVG Export Plug-In . SVG Version: 6.00 Build 0)  -->
<svg version="1.1" xmlns="http://www.w3.org/2000/svg" xmlns:xlink="http://www.w3.org/1999/xlink" x="0px" y="0px"
	 viewBox="0 0 800 580" style="enable-background:new 0 0 800 580;" xml:space="preserve">
<style type="text/css">
	.st0{opacity:0.41;}
	.st1{opacity:0.46;}
	.st2{fill:#A8B4A5;}
	.st3{opacity:0.37;}
	.st4{opacity:0.5;}
	.st5{fill:#296D3C;}
	.st6{fill:#38874B;}
	.st7{fill:#D2C6B1;}
	.st8{fill:#8C2429;}
	.st9{fill:#41B5B1;}
	.st10{fill:#E3DBCE;}
	.st11{fill:#EFBD38;}
	.st12{fill:#D9CEB8;}
	.st13{fill:#343533;}
	.st14{fill:#B16447;}
	.st15{fill:#D18238;}
	.st16{fill:#198691;}
	.st17{fill:#613C34;}
	.st18{fill:#EDBC3A;}
	.st19{fill:#FFFFFF;}
	.st20{clip-path:url(#SVGID_2_);fill:#E3DBCE;}
	.st21{clip-path:url(#SVGID_2_);}
	.st22{clip-path:url(#SVGID_2_);fill:#613C34;}
	.st23{clip-path:url(#SVGID_2_);fill:#B16447;}
	.st24{fill:#153C41;}
	.st25{fill:#1E512E;}
	.st26{fill:#1D5B76;}
	.st27{fill:#633D34;}
	.st28{fill:#BE2830;}
	.st29{fill:#E3963A;}
	.st30{fill:#DD5832;}
	.st31{clip-path:url(#SVGID_4_);}
	.st32{fill:#4B4B4B;}
	.st33{fill:#9CA051;}
	.st34{fill:#FDE22F;}
	.st35{fill:#00964C;}
	.st36{fill:#F69C33;}
	.st37{fill:#FBD630;}
	.st38{fill:#9F672F;}
	.st39{fill:#E3C395;}
	.st40{fill:#E3DDD4;}
	.st41{fill:#7F7A74;}
	.st42{fill:#BFB4A9;}
	.st43{fill:#716454;}
	.st44{fill:#010101;}
	.st45{fill:#33A04D;}
	.st46{fill:#EBD0A3;}
	.st47{fill:none;stroke:#231F20;stroke-miterlimit:10;}
	.st48{fill:#96BC50;}
	.st49{fill:#D73D94;}
	.st50{fill:#EFB534;}
	.st51{fill:#B77366;}
	.st52{fill:#668B40;}
	.st53{fill:#15120F;}
	.st54{clip-path:url(#SVGID_6_);fill:#A8B4A5;}
	.st55{clip-path:url(#SVGID_6_);}
	.st56{clip-path:url(#SVGID_6_);fill:#E3DBCE;}
	.st57{clip-path:url(#SVGID_6_);fill:#BAB1A1;}
	.st58{clip-path:url(#SVGID_6_);fill:#1D5B76;}
	.st59{clip-path:url(#SVGID_6_);fill:#8C2429;}
	.st60{clip-path:url(#SVGID_6_);fill:#77736A;}
	.st61{fill:#314C2C;}
	.st62{fill:#BF3E3B;}
	.st63{clip-path:url(#SVGID_6_);fill:#38874B;}
	.st64{clip-path:url(#SVGID_6_);fill:#296D3C;}
	.st65{clip-path:url(#SVGID_6_);fill:#1E512E;}
</style>
<g id="Layer_1">
</g>
<g id="Layer_5">
	<rect class="st2" width="800" height="580"/>
	<rect x="271.5" y="198" class="st2" width="263.7" height="382"/>
</g>
<g id="Layer_2">
</g>
<g id="Layer_3">
	<g>
		
			<rect x="132.7" y="490.5" transform="matrix(-0.7071 0.7071 -0.7071 -0.7071 581.9929 753.4307)" class="st11" width="4.5" height="13.5"/>
		
			<rect x="128.2" y="495" transform="matrix(-0.7071 0.7071 -0.7071 -0.7071 581.9929 753.4307)" class="st11" width="13.5" height="4.5"/>
		<path class="st26" d="M115.9,513.2l3.2,3.2l6.4-6.4l3.2,3.2l6.4-6.4l6.4,6.4l3.2-3.2l6.4,6.4l3.2-3.2l-6.4-6.4l3.2-3.2l-6.4-6.4
			l6.4-6.4l-3.2-3.2l6.4-6.4l-3.2-3.2l-6.4,6.4l-3.2-3.2l-6.4,6.4l-6.4-6.4l-3.2,3.2l-6.4-6.4l-3.2,3.2l6.4,6.4l-3.2,3.2l6.4,6.4
			l-6.4,6.4l3.2,3.2L115.9,513.2z M128.6,500.4l3.2-3.2l-3.2-3.2l3.2-3.2l3.2,3.2l3.2-3.2l3.2,3.2l-3.2,3.2l3.2,3.2l-3.2,3.2
			l-3.2-3.2l-3.2,3.2L128.6,500.4z"/>
		<g>
			<path class="st9" d="M109.5,519.5l3.2,3.2l3.2-3.2l3.2,3.2l3.2-3.2l3.2,3.2l9.5-9.5l9.5,9.5l3.2-3.2l3.2,3.2l3.2-3.2l3.2,3.2
				l3.2-3.2l-3.2-3.2l3.2-3.2l-3.2-3.2l3.2-3.2l-9.5-9.5l9.5-9.5l-3.2-3.2l3.2-3.2l-3.2-3.2l3.2-3.2l-3.2-3.2L154,475l-3.2-3.2
				l-3.2,3.2l-3.2-3.2l-9.5,9.5l-9.5-9.5l-3.2,3.2l-3.2-3.2l-3.2,3.2l-3.2-3.2l-3.2,3.2l3.2,3.2l-3.2,3.2l3.2,3.2l-3.2,3.2l9.5,9.5
				l-9.5,9.5l3.2,3.2l-3.2,3.2l3.2,3.2L109.5,519.5z M115.9,513.2l6.4-6.4l-3.2-3.2l3.2-3.2l3.2-3.2l-3.2-3.2l-3.2-3.2l3.2-3.2
				l-6.4-6.4l3.2-3.2l6.4,6.4l3.2-3.2l3.2,3.2l3.2,3.2l3.2-3.2l3.2-3.2l3.2,3.2l6.4-6.4l3.2,3.2l-6.4,6.4l3.2,3.2l-3.2,3.2l-3.2,3.2
				l3.2,3.2l3.2,3.2l-3.2,3.2l6.4,6.4l-3.2,3.2l-6.4-6.4l-3.2,3.2l-3.2-3.2l-3.2-3.2l-3.2,3.2l-3.2,3.2l-3.2-3.2l-6.4,6.4
				L115.9,513.2z"/>
			
				<rect x="126.3" y="495" transform="matrix(0.7071 -0.7071 0.7071 0.7071 -313.9452 236.5694)" class="st9" width="4.5" height="4.5"/>
			
				<rect x="132.7" y="488.6" transform="matrix(0.7071 -0.7071 0.7071 0.7071 -307.5812 239.2054)" class="st9" width="4.5" height="4.5"/>
			
				<rect x="139.1" y="495" transform="matrix(0.7071 -0.7071 0.7071 0.7071 -310.2172 245.5694)" class="st9" width="4.5" height="4.5"/>
			
				<rect x="132.7" y="501.4" transform="matrix(0.7071 -0.7071 0.7071 0.7071 -316.5812 242.9333)" class="st9" width="4.5" height="4.5"/>
		</g>
	</g>
	<g>
		
			<rect x="132.7" y="162.7" transform="matrix(-0.7071 0.7071 -0.7071 -0.7071 350.2074 193.851)" class="st11" width="4.5" height="13.5"/>
		
			<rect x="128.2" y="167.2" transform="matrix(-0.7071 0.7071 -0.7071 -0.7071 350.2074 193.851)" class="st11" width="13.5" height="4.5"/>
		<path class="st26" d="M115.9,185.4l3.2,3.2l6.4-6.4l3.2,3.2l6.4-6.4l6.4,6.4l3.2-3.2l6.4,6.4l3.2-3.2l-6.4-6.4l3.2-3.2l-6.4-6.4
			l6.4-6.4l-3.2-3.2l6.4-6.4l-3.2-3.2l-6.4,6.4l-3.2-3.2l-6.4,6.4l-6.4-6.4l-3.2,3.2l-6.4-6.4l-3.2,3.2l6.4,6.4l-3.2,3.2l6.4,6.4
			l-6.4,6.4l3.2,3.2L115.9,185.4z M128.6,172.6l3.2-3.2l-3.2-3.2l3.2-3.2l3.2,3.2l3.2-3.2l3.2,3.2l-3.2,3.2l3.2,3.2l-3.2,3.2
			l-3.2-3.2l-3.2,3.2L128.6,172.6z"/>
		<g>
			<path class="st9" d="M109.5,191.7l3.2,3.2l3.2-3.2l3.2,3.2l3.2-3.2l3.2,3.2l9.5-9.5l9.5,9.5l3.2-3.2l3.2,3.2l3.2-3.2l3.2,3.2
				l3.2-3.2l-3.2-3.2l3.2-3.2l-3.2-3.2l3.2-3.2l-9.5-9.5l9.5-9.5l-3.2-3.2l3.2-3.2l-3.2-3.2l3.2-3.2l-3.2-3.2l-3.2,3.2l-3.2-3.2
				l-3.2,3.2l-3.2-3.2l-9.5,9.5l-9.5-9.5l-3.2,3.2L119,144l-3.2,3.2l-3.2-3.2l-3.2,3.2l3.2,3.2l-3.2,3.2l3.2,3.2l-3.2,3.2l9.5,9.5
				l-9.5,9.5l3.2,3.2l-3.2,3.2l3.2,3.2L109.5,191.7z M115.9,185.4l6.4-6.4l-3.2-3.2l3.2-3.2l3.2-3.2l-3.2-3.2l-3.2-3.2l3.2-3.2
				l-6.4-6.4l3.2-3.2l6.4,6.4l3.2-3.2l3.2,3.2l3.2,3.2l3.2-3.2l3.2-3.2l3.2,3.2l6.4-6.4l3.2,3.2l-6.4,6.4l3.2,3.2l-3.2,3.2l-3.2,3.2
				l3.2,3.2l3.2,3.2l-3.2,3.2l6.4,6.4l-3.2,3.2l-6.4-6.4l-3.2,3.2l-3.2-3.2L135,179l-3.2,3.2l-3.2,3.2l-3.2-3.2l-6.4,6.4
				L115.9,185.4z"/>
			
				<rect x="126.3" y="167.2" transform="matrix(0.7071 -0.7071 0.7071 0.7071 -82.1597 140.5607)" class="st9" width="4.5" height="4.5"/>
			
				<rect x="132.7" y="160.8" transform="matrix(0.7071 -0.7071 0.7071 0.7071 -75.7957 143.1967)" class="st9" width="4.5" height="4.5"/>
			
				<rect x="139.1" y="167.2" transform="matrix(0.7071 -0.7071 0.7071 0.7071 -78.4318 149.5607)" class="st9" width="4.5" height="4.5"/>
			
				<rect x="132.7" y="173.6" transform="matrix(0.7071 -0.7071 0.7071 0.7071 -84.7957 146.9246)" class="st9" width="4.5" height="4.5"/>
		</g>
	</g>
	<g>
		
			<rect x="231" y="256.5" transform="matrix(-1 -4.486867e-11 4.486867e-11 -1 466.5 526.5)" class="st11" width="4.5" height="13.5"/>
		
			<rect x="226.5" y="261" transform="matrix(-1 -4.500323e-11 4.500323e-11 -1 466.5 526.5)" class="st11" width="13.5" height="4.5"/>
		<path class="st26" d="M208.5,261v4.5h9v4.5h9v9h4.5v9h4.5v-9h4.5v-9h9v-4.5h9V261h-9v-4.5h-9v-9h-4.5v-9H231v9h-4.5v9h-9v4.5
			H208.5z M226.5,261h4.5v-4.5h4.5v4.5h4.5v4.5h-4.5v4.5H231v-4.5h-4.5V261z"/>
		<g>
			<path class="st9" d="M199.5,261v4.5h4.5v4.5h4.5v4.5H222V288h4.5v4.5h4.5v4.5h4.5v-4.5h4.5V288h4.5v-13.5H258V270h4.5v-4.5h4.5
				V261h-4.5v-4.5H258V252h-13.5v-13.5H240V234h-4.5v-4.5H231v4.5h-4.5v4.5H222V252h-13.5v4.5H204v4.5H199.5z M208.5,261h9v-4.5h4.5
				h4.5V252v-4.5h4.5v-9h4.5v9h4.5v4.5v4.5h4.5h4.5v4.5h9v4.5h-9v4.5h-4.5H240v4.5v4.5h-4.5v9H231v-9h-4.5v-4.5V270H222h-4.5v-4.5
				h-9V261z"/>
			<rect x="226.5" y="256.5" class="st9" width="4.5" height="4.5"/>
			<rect x="235.5" y="256.5" class="st9" width="4.5" height="4.5"/>
			<rect x="235.5" y="265.5" class="st9" width="4.5" height="4.5"/>
			<rect x="226.5" y="265.5" class="st9" width="4.5" height="4.5"/>
		</g>
	</g>
	<g>
		<polygon class="st11" points="109.5,310.5 109.5,288 100.5,288 100.5,283.5 82.5,283.5 82.5,274.5 78,274.5 78,270 60,270 
			60,274.5 55.5,274.5 55.5,283.5 37.5,283.5 37.5,288 28.5,288 28.5,310.5 33,310.5 33,315 28.5,315 28.5,333 33,333 33,337.5 
			37.5,337.5 37.5,342 55.5,342 55.5,351 60,351 60,355.5 78,355.5 78,351 82.5,351 82.5,342 100.5,342 100.5,337.5 105,337.5 
			105,333 109.5,333 109.5,315 105,315 105,310.5 		"/>
		<g>
			<rect x="46.5" y="292.5" class="st29" width="4.5" height="4.5"/>
			<rect x="51" y="297" class="st29" width="4.5" height="4.5"/>
			<polygon class="st29" points="55.5,297 60,297 60,292.5 60,283.5 55.5,283.5 55.5,292.5 			"/>
			<rect x="33" y="283.5" class="st29" width="4.5" height="4.5"/>
			<rect x="28.5" y="288" class="st29" width="4.5" height="4.5"/>
			<rect x="24" y="292.5" class="st29" width="4.5" height="18"/>
			<polygon class="st29" points="37.5,319.5 46.5,319.5 46.5,315 37.5,315 33,315 33,319.5 			"/>
			<polygon class="st29" points="51,310.5 51,306 46.5,306 46.5,310.5 46.5,315 51,315 			"/>
			<rect x="87" y="292.5" class="st29" width="4.5" height="4.5"/>
			<rect x="82.5" y="297" class="st29" width="4.5" height="4.5"/>
			<polygon class="st29" points="78,292.5 78,297 82.5,297 82.5,292.5 82.5,283.5 78,283.5 			"/>
			<polygon class="st29" points="82.5,283.5 87,283.5 96,283.5 100.5,283.5 100.5,279 96,279 87,279 87,274.5 82.5,274.5 82.5,279 
							"/>
			<rect x="100.5" y="283.5" class="st29" width="4.5" height="4.5"/>
			<rect x="105" y="288" class="st29" width="4.5" height="4.5"/>
			<rect x="109.5" y="292.5" class="st29" width="4.5" height="18"/>
			<polygon class="st29" points="91.5,315 91.5,319.5 100.5,319.5 105,319.5 105,315 100.5,315 			"/>
			<polygon class="st29" points="91.5,306 87,306 87,310.5 87,315 91.5,315 91.5,310.5 			"/>
			<polygon class="st29" points="51,283.5 55.5,283.5 55.5,279 55.5,274.5 51,274.5 51,279 42,279 37.5,279 37.5,283.5 42,283.5 			
				"/>
			<rect x="55.5" y="270" class="st29" width="4.5" height="4.5"/>
			<rect x="78" y="270" class="st29" width="4.5" height="4.5"/>
			<rect x="60" y="265.5" class="st29" width="18" height="4.5"/>
			<rect x="46.5" y="328.5" class="st29" width="4.5" height="4.5"/>
			<rect x="51" y="324" class="st29" width="4.5" height="4.5"/>
			<polygon class="st29" points="60,333 60,328.5 55.5,328.5 55.5,333 55.5,342 60,342 			"/>
			<rect x="33" y="337.5" class="st29" width="4.5" height="4.5"/>
			<rect x="28.5" y="333" class="st29" width="4.5" height="4.5"/>
			<rect x="24" y="315" class="st29" width="4.5" height="18"/>
			<rect x="28.5" y="310.5" class="st29" width="4.5" height="4.5"/>
			<rect x="87" y="328.5" class="st29" width="4.5" height="4.5"/>
			<rect x="82.5" y="324" class="st29" width="4.5" height="4.5"/>
			<polygon class="st29" points="82.5,328.5 78,328.5 78,333 78,342 82.5,342 82.5,333 			"/>
			<polygon class="st29" points="87,342 82.5,342 82.5,346.5 82.5,351 87,351 87,346.5 96,346.5 100.5,346.5 100.5,342 96,342 			
				"/>
			<rect x="100.5" y="337.5" class="st29" width="4.5" height="4.5"/>
			<rect x="105" y="333" class="st29" width="4.5" height="4.5"/>
			<rect x="109.5" y="315" class="st29" width="4.5" height="18"/>
			<rect x="105" y="310.5" class="st29" width="4.5" height="4.5"/>
			<polygon class="st29" points="55.5,342 51,342 42,342 37.5,342 37.5,346.5 42,346.5 51,346.5 51,351 55.5,351 55.5,346.5 			"/>
			<rect x="55.5" y="351" class="st29" width="4.5" height="4.5"/>
			<rect x="78" y="351" class="st29" width="4.5" height="4.5"/>
			<rect x="60" y="355.5" class="st29" width="18" height="4.5"/>
		</g>
		<polygon class="st30" points="82.5,310.5 78,310.5 78,306 73.5,306 73.5,301.5 64.5,301.5 64.5,306 60,306 60,310.5 55.5,310.5 
			55.5,315 60,315 60,319.5 64.5,319.5 64.5,324 73.5,324 73.5,319.5 78,319.5 78,315 82.5,315 		"/>
	</g>
	<g>
		<polygon class="st11" points="109.5,67.5 109.5,45 100.5,45 100.5,40.5 82.5,40.5 82.5,31.5 78,31.5 78,27 60,27 60,31.5 
			55.5,31.5 55.5,40.5 37.5,40.5 37.5,45 28.5,45 28.5,67.5 33,67.5 33,72 28.5,72 28.5,90 33,90 33,94.5 37.5,94.5 37.5,99 
			55.5,99 55.5,108 60,108 60,112.5 78,112.5 78,108 82.5,108 82.5,99 100.5,99 100.5,94.5 105,94.5 105,90 109.5,90 109.5,72 
			105,72 105,67.5 		"/>
		<g>
			<rect x="46.5" y="49.5" class="st29" width="4.5" height="4.5"/>
			<rect x="51" y="54" class="st29" width="4.5" height="4.5"/>
			<polygon class="st29" points="55.5,54 60,54 60,49.5 60,40.5 55.5,40.5 55.5,49.5 			"/>
			<rect x="33" y="40.5" class="st29" width="4.5" height="4.5"/>
			<rect x="28.5" y="45" class="st29" width="4.5" height="4.5"/>
			<rect x="24" y="49.5" class="st29" width="4.5" height="18"/>
			<polygon class="st29" points="37.5,76.5 46.5,76.5 46.5,72 37.5,72 33,72 33,76.5 			"/>
			<polygon class="st29" points="51,67.5 51,63 46.5,63 46.5,67.5 46.5,72 51,72 			"/>
			<rect x="87" y="49.5" class="st29" width="4.5" height="4.5"/>
			<rect x="82.5" y="54" class="st29" width="4.5" height="4.5"/>
			<polygon class="st29" points="78,49.5 78,54 82.5,54 82.5,49.5 82.5,40.5 78,40.5 			"/>
			<polygon class="st29" points="82.5,40.5 87,40.5 96,40.5 100.5,40.5 100.5,36 96,36 87,36 87,31.5 82.5,31.5 82.5,36 			"/>
			<rect x="100.5" y="40.5" class="st29" width="4.5" height="4.5"/>
			<rect x="105" y="45" class="st29" width="4.5" height="4.5"/>
			<rect x="109.5" y="49.5" class="st29" width="4.5" height="18"/>
			<polygon class="st29" points="91.5,72 91.5,76.5 100.5,76.5 105,76.5 105,72 100.5,72 			"/>
			<polygon class="st29" points="91.5,63 87,63 87,67.5 87,72 91.5,72 91.5,67.5 			"/>
			<polygon class="st29" points="51,40.5 55.5,40.5 55.5,36 55.5,31.5 51,31.5 51,36 42,36 37.5,36 37.5,40.5 42,40.5 			"/>
			<rect x="55.5" y="27" class="st29" width="4.5" height="4.5"/>
			<rect x="78" y="27" class="st29" width="4.5" height="4.5"/>
			<rect x="60" y="22.5" class="st29" width="18" height="4.5"/>
			<rect x="46.5" y="85.5" class="st29" width="4.5" height="4.5"/>
			<rect x="51" y="81" class="st29" width="4.5" height="4.5"/>
			<polygon class="st29" points="60,90 60,85.5 55.5,85.5 55.5,90 55.5,99 60,99 			"/>
			<rect x="33" y="94.5" class="st29" width="4.5" height="4.5"/>
			<rect x="28.5" y="90" class="st29" width="4.5" height="4.5"/>
			<rect x="24" y="72" class="st29" width="4.5" height="18"/>
			<rect x="28.5" y="67.5" class="st29" width="4.5" height="4.5"/>
			<rect x="87" y="85.5" class="st29" width="4.5" height="4.5"/>
			<rect x="82.5" y="81" class="st29" width="4.5" height="4.5"/>
			<polygon class="st29" points="82.5,85.5 78,85.5 78,90 78,99 82.5,99 82.5,90 			"/>
			<polygon class="st29" points="87,99 82.5,99 82.5,103.5 82.5,108 87,108 87,103.5 96,103.5 100.5,103.5 100.5,99 96,99 			"/>
			<rect x="100.5" y="94.5" class="st29" width="4.5" height="4.5"/>
			<rect x="105" y="90" class="st29" width="4.5" height="4.5"/>
			<rect x="109.5" y="72" class="st29" width="4.5" height="18"/>
			<rect x="105" y="67.5" class="st29" width="4.5" height="4.5"/>
			<polygon class="st29" points="55.5,99 51,99 42,99 37.5,99 37.5,103.5 42,103.5 51,103.5 51,108 55.5,108 55.5,103.5 			"/>
			<rect x="55.5" y="108" class="st29" width="4.5" height="4.5"/>
			<rect x="78" y="108" class="st29" width="4.5" height="4.5"/>
			<rect x="60" y="112.5" class="st29" width="18" height="4.5"/>
		</g>
		<polygon class="st30" points="82.5,67.5 78,67.5 78,63 73.5,63 73.5,58.5 64.5,58.5 64.5,63 60,63 60,67.5 55.5,67.5 55.5,72 
			60,72 60,76.5 64.5,76.5 64.5,81 73.5,81 73.5,76.5 78,76.5 78,72 82.5,72 		"/>
	</g>
	<g>
		<polygon class="st11" points="440.5,67.5 440.5,45 431.5,45 431.5,40.5 413.5,40.5 413.5,31.5 409,31.5 409,27 391,27 391,31.5 
			386.5,31.5 386.5,40.5 368.5,40.5 368.5,45 359.5,45 359.5,67.5 364,67.5 364,72 359.5,72 359.5,90 364,90 364,94.5 368.5,94.5 
			368.5,99 386.5,99 386.5,108 391,108 391,112.5 409,112.5 409,108 413.5,108 413.5,99 431.5,99 431.5,94.5 436,94.5 436,90 
			440.5,90 440.5,72 436,72 436,67.5 		"/>
		<g>
			<rect x="377.5" y="49.5" class="st29" width="4.5" height="4.5"/>
			<rect x="382" y="54" class="st29" width="4.5" height="4.5"/>
			<polygon class="st29" points="386.5,54 391,54 391,49.5 391,40.5 386.5,40.5 386.5,49.5 			"/>
			<rect x="364" y="40.5" class="st29" width="4.5" height="4.5"/>
			<rect x="359.5" y="45" class="st29" width="4.5" height="4.5"/>
			<rect x="355" y="49.5" class="st29" width="4.5" height="18"/>
			<polygon class="st29" points="368.5,76.5 377.5,76.5 377.5,72 368.5,72 364,72 364,76.5 			"/>
			<polygon class="st29" points="382,67.5 382,63 377.5,63 377.5,67.5 377.5,72 382,72 			"/>
			<rect x="418" y="49.5" class="st29" width="4.5" height="4.5"/>
			<rect x="413.5" y="54" class="st29" width="4.5" height="4.5"/>
			<polygon class="st29" points="409,49.5 409,54 413.5,54 413.5,49.5 413.5,40.5 409,40.5 			"/>
			<polygon class="st29" points="413.5,40.5 418,40.5 427,40.5 431.5,40.5 431.5,36 427,36 418,36 418,31.5 413.5,31.5 413.5,36 			
				"/>
			<rect x="431.5" y="40.5" class="st29" width="4.5" height="4.5"/>
			<rect x="436" y="45" class="st29" width="4.5" height="4.5"/>
			<rect x="440.5" y="49.5" class="st29" width="4.5" height="18"/>
			<polygon class="st29" points="422.5,72 422.5,76.5 431.5,76.5 436,76.5 436,72 431.5,72 			"/>
			<polygon class="st29" points="422.5,63 418,63 418,67.5 418,72 422.5,72 422.5,67.5 			"/>
			<polygon class="st29" points="382,40.5 386.5,40.5 386.5,36 386.5,31.5 382,31.5 382,36 373,36 368.5,36 368.5,40.5 373,40.5 			
				"/>
			<rect x="386.5" y="27" class="st29" width="4.5" height="4.5"/>
			<rect x="409" y="27" class="st29" width="4.5" height="4.5"/>
			<rect x="391" y="22.5" class="st29" width="18" height="4.5"/>
			<rect x="377.5" y="85.5" class="st29" width="4.5" height="4.5"/>
			<rect x="382" y="81" class="st29" width="4.5" height="4.5"/>
			<polygon class="st29" points="391,90 391,85.5 386.5,85.5 386.5,90 386.5,99 391,99 			"/>
			<rect x="364" y="94.5" class="st29" width="4.5" height="4.5"/>
			<rect x="359.5" y="90" class="st29" width="4.5" height="4.5"/>
			<rect x="355" y="72" class="st29" width="4.5" height="18"/>
			<rect x="359.5" y="67.5" class="st29" width="4.5" height="4.5"/>
			<rect x="418" y="85.5" class="st29" width="4.5" height="4.5"/>
			<rect x="413.5" y="81" class="st29" width="4.5" height="4.5"/>
			<polygon class="st29" points="413.5,85.5 409,85.5 409,90 409,99 413.5,99 413.5,90 			"/>
			<polygon class="st29" points="418,99 413.5,99 413.5,103.5 413.5,108 418,108 418,103.5 427,103.5 431.5,103.5 431.5,99 427,99 
							"/>
			<rect x="431.5" y="94.5" class="st29" width="4.5" height="4.5"/>
			<rect x="436" y="90" class="st29" width="4.5" height="4.5"/>
			<rect x="440.5" y="72" class="st29" width="4.5" height="18"/>
			<rect x="436" y="67.5" class="st29" width="4.5" height="4.5"/>
			<polygon class="st29" points="386.5,99 382,99 373,99 368.5,99 368.5,103.5 373,103.5 382,103.5 382,108 386.5,108 386.5,103.5 
							"/>
			<rect x="386.5" y="108" class="st29" width="4.5" height="4.5"/>
			<rect x="409" y="108" class="st29" width="4.5" height="4.5"/>
			<rect x="391" y="112.5" class="st29" width="18" height="4.5"/>
		</g>
		<polygon class="st30" points="413.5,67.5 409,67.5 409,63 404.5,63 404.5,58.5 395.5,58.5 395.5,63 391,63 391,67.5 386.5,67.5 
			386.5,72 391,72 391,76.5 395.5,76.5 395.5,81 404.5,81 404.5,76.5 409,76.5 409,72 413.5,72 		"/>
	</g>
	<g>
		
			<rect x="663.5" y="491.3" transform="matrix(0.7071 0.7071 -0.7071 0.7071 547.1558 -324.8739)" class="st11" width="4.5" height="13.5"/>
		
			<rect x="659" y="495.8" transform="matrix(0.7071 0.7071 -0.7071 0.7071 547.1558 -324.8739)" class="st11" width="13.5" height="4.5"/>
		<path class="st26" d="M678.5,507.6l3.2-3.2l-6.4-6.4l6.4-6.4l-3.2-3.2l6.4-6.4l-3.2-3.2l-6.4,6.4l-3.2-3.2l-6.4,6.4l-6.4-6.4
			l-3.2,3.2l-6.4-6.4l-3.2,3.2l6.4,6.4l-3.2,3.2l6.4,6.4l-6.4,6.4l3.2,3.2l-6.4,6.4l3.2,3.2l6.4-6.4l3.2,3.2l6.4-6.4l6.4,6.4
			l3.2-3.2l6.4,6.4l3.2-3.2L678.5,507.6z M668.9,504.4l-3.2-3.2l-3.2,3.2l-3.2-3.2l3.2-3.2l-3.2-3.2l3.2-3.2l3.2,3.2l3.2-3.2
			l3.2,3.2l-3.2,3.2l3.2,3.2L668.9,504.4z"/>
		<g>
			<path class="st9" d="M688,517.1l3.2-3.2l-3.2-3.2l3.2-3.2l-9.5-9.5l9.5-9.5l-3.2-3.2l3.2-3.2l-3.2-3.2l3.2-3.2l-3.2-3.2l-3.2,3.2
				l-3.2-3.2l-3.2,3.2l-3.2-3.2l-9.5,9.5l-9.5-9.5l-3.2,3.2l-3.2-3.2l-3.2,3.2l-3.2-3.2l-3.2,3.2l3.2,3.2l-3.2,3.2l3.2,3.2l-3.2,3.2
				l9.5,9.5l-9.5,9.5l3.2,3.2l-3.2,3.2l3.2,3.2l-3.2,3.2l3.2,3.2l3.2-3.2l3.2,3.2l3.2-3.2l3.2,3.2l9.5-9.5l9.5,9.5l3.2-3.2l3.2,3.2
				l3.2-3.2l3.2,3.2l3.2-3.2L688,517.1z M681.6,517.1l-6.4-6.4l-3.2,3.2l-3.2-3.2l-3.2-3.2l-3.2,3.2l-3.2,3.2l-3.2-3.2l-6.4,6.4
				l-3.2-3.2l6.4-6.4l-3.2-3.2l3.2-3.2l3.2-3.2l-3.2-3.2l-3.2-3.2l3.2-3.2l-6.4-6.4l3.2-3.2l6.4,6.4l3.2-3.2l3.2,3.2l3.2,3.2
				l3.2-3.2l3.2-3.2l3.2,3.2l6.4-6.4l3.2,3.2l-6.4,6.4l3.2,3.2l-3.2,3.2l-3.2,3.2l3.2,3.2l3.2,3.2l-3.2,3.2l6.4,6.4L681.6,517.1z"/>
			
				<rect x="669.8" y="495.8" transform="matrix(0.7071 -0.7071 0.7071 0.7071 -155.3131 621.1182)" class="st9" width="4.5" height="4.5"/>
			
				<rect x="663.5" y="489.4" transform="matrix(0.7071 -0.7071 0.7071 0.7071 -152.677 614.7542)" class="st9" width="4.5" height="4.5"/>
			
				<rect x="657.1" y="495.8" transform="matrix(0.7071 -0.7071 0.7071 0.7071 -159.041 612.1182)" class="st9" width="4.5" height="4.5"/>
			
				<rect x="663.5" y="502.2" transform="matrix(0.7071 -0.7071 0.7071 0.7071 -161.677 618.4821)" class="st9" width="4.5" height="4.5"/>
		</g>
	</g>
	<g>
		
			<rect x="663.5" y="163.5" transform="matrix(0.7071 0.7071 -0.7071 0.7071 315.3704 -420.8826)" class="st11" width="4.5" height="13.5"/>
		
			<rect x="659" y="168" transform="matrix(0.7071 0.7071 -0.7071 0.7071 315.3704 -420.8826)" class="st11" width="13.5" height="4.5"/>
		<path class="st26" d="M678.5,179.8l3.2-3.2l-6.4-6.4l6.4-6.4l-3.2-3.2l6.4-6.4l-3.2-3.2l-6.4,6.4l-3.2-3.2l-6.4,6.4l-6.4-6.4
			l-3.2,3.2l-6.4-6.4l-3.2,3.2l6.4,6.4l-3.2,3.2l6.4,6.4l-6.4,6.4l3.2,3.2l-6.4,6.4l3.2,3.2l6.4-6.4l3.2,3.2l6.4-6.4l6.4,6.4
			l3.2-3.2l6.4,6.4l3.2-3.2L678.5,179.8z M668.9,176.6l-3.2-3.2l-3.2,3.2l-3.2-3.2l3.2-3.2l-3.2-3.2l3.2-3.2l3.2,3.2l3.2-3.2
			l3.2,3.2l-3.2,3.2l3.2,3.2L668.9,176.6z"/>
		<g>
			<path class="st9" d="M688,189.3l3.2-3.2L688,183l3.2-3.2l-9.5-9.5l9.5-9.5l-3.2-3.2l3.2-3.2l-3.2-3.2l3.2-3.2l-3.2-3.2l-3.2,3.2
				l-3.2-3.2l-3.2,3.2l-3.2-3.2l-9.5,9.5l-9.5-9.5L653,148l-3.2-3.2l-3.2,3.2l-3.2-3.2l-3.2,3.2l3.2,3.2l-3.2,3.2l3.2,3.2l-3.2,3.2
				l9.5,9.5l-9.5,9.5l3.2,3.2l-3.2,3.2l3.2,3.2l-3.2,3.2l3.2,3.2l3.2-3.2l3.2,3.2l3.2-3.2l3.2,3.2l9.5-9.5l9.5,9.5l3.2-3.2l3.2,3.2
				l3.2-3.2l3.2,3.2l3.2-3.2L688,189.3z M681.6,189.3l-6.4-6.4l-3.2,3.2l-3.2-3.2l-3.2-3.2l-3.2,3.2l-3.2,3.2l-3.2-3.2l-6.4,6.4
				l-3.2-3.2l6.4-6.4l-3.2-3.2l3.2-3.2l3.2-3.2l-3.2-3.2l-3.2-3.2l3.2-3.2l-6.4-6.4l3.2-3.2l6.4,6.4l3.2-3.2l3.2,3.2l3.2,3.2
				l3.2-3.2l3.2-3.2l3.2,3.2l6.4-6.4l3.2,3.2l-6.4,6.4l3.2,3.2l-3.2,3.2l-3.2,3.2l3.2,3.2l3.2,3.2l-3.2,3.2l6.4,6.4L681.6,189.3z"/>
			
				<rect x="669.8" y="168" transform="matrix(0.7071 -0.7071 0.7071 0.7071 76.4724 525.1094)" class="st9" width="4.5" height="4.5"/>
			
				<rect x="663.5" y="161.6" transform="matrix(0.7071 -0.7071 0.7071 0.7071 79.1084 518.7455)" class="st9" width="4.5" height="4.5"/>
			
				<rect x="657.1" y="168" transform="matrix(0.7071 -0.7071 0.7071 0.7071 72.7445 516.1094)" class="st9" width="4.5" height="4.5"/>
			
				<rect x="663.5" y="174.4" transform="matrix(0.7071 -0.7071 0.7071 0.7071 70.1084 522.4734)" class="st9" width="4.5" height="4.5"/>
		</g>
	</g>
	<g>
		<rect x="565.2" y="257.3" class="st11" width="4.5" height="13.5"/>
		<rect x="560.7" y="261.8" class="st11" width="13.5" height="4.5"/>
		<path class="st26" d="M583.2,261.8v-4.5h-9v-9h-4.5v-9h-4.5v9h-4.5v9h-9v4.5h-9v4.5h9v4.5h9v9h4.5v9h4.5v-9h4.5v-9h9v-4.5h9v-4.5
			H583.2z M574.2,266.3h-4.5v4.5h-4.5v-4.5h-4.5v-4.5h4.5v-4.5h4.5v4.5h4.5V266.3z"/>
		<g>
			<path class="st9" d="M596.7,261.8v-4.5h-4.5v-4.5h-13.5v-13.5h-4.5v-4.5h-4.5v-4.5h-4.5v4.5h-4.5v4.5h-4.5v13.5h-13.5v4.5h-4.5
				v4.5h-4.5v4.5h4.5v4.5h4.5v4.5h13.5v13.5h4.5v4.5h4.5v4.5h4.5v-4.5h4.5v-4.5h4.5v-13.5h13.5v-4.5h4.5v-4.5h4.5v-4.5H596.7z
				 M592.2,266.3h-9v4.5h-4.5h-4.5v4.5v4.5h-4.5v9h-4.5v-9h-4.5v-4.5v-4.5h-4.5h-4.5v-4.5h-9v-4.5h9v-4.5h4.5h4.5v-4.5v-4.5h4.5v-9
				h4.5v9h4.5v4.5v4.5h4.5h4.5v4.5h9V266.3z"/>
			<rect x="569.7" y="257.3" class="st9" width="4.5" height="4.5"/>
			<rect x="560.7" y="257.3" class="st9" width="4.5" height="4.5"/>
			<rect x="560.7" y="266.3" class="st9" width="4.5" height="4.5"/>
			<rect x="569.7" y="266.3" class="st9" width="4.5" height="4.5"/>
		</g>
	</g>
	<g>
		<polygon class="st11" points="682.2,302.3 682.2,279.8 691.2,279.8 691.2,275.3 709.2,275.3 709.2,266.3 713.7,266.3 713.7,261.8 
			731.7,261.8 731.7,266.3 736.2,266.3 736.2,275.3 754.2,275.3 754.2,279.8 763.2,279.8 763.2,302.3 758.7,302.3 758.7,306.8 
			763.2,306.8 763.2,324.8 758.7,324.8 758.7,329.3 754.2,329.3 754.2,333.8 736.2,333.8 736.2,342.8 731.7,342.8 731.7,347.3 
			713.7,347.3 713.7,342.8 709.2,342.8 709.2,333.8 691.2,333.8 691.2,329.3 686.7,329.3 686.7,324.8 682.2,324.8 682.2,306.8 
			686.7,306.8 686.7,302.3 		"/>
		<g>
			<rect x="740.7" y="284.3" class="st29" width="4.5" height="4.5"/>
			<rect x="736.2" y="288.8" class="st29" width="4.5" height="4.5"/>
			<polygon class="st29" points="736.2,288.8 731.7,288.8 731.7,284.3 731.7,275.3 736.2,275.3 736.2,284.3 			"/>
			<rect x="754.2" y="275.3" class="st29" width="4.5" height="4.5"/>
			<rect x="758.7" y="279.8" class="st29" width="4.5" height="4.5"/>
			<rect x="763.2" y="284.3" class="st29" width="4.5" height="18"/>
			<polygon class="st29" points="754.2,311.3 745.2,311.3 745.2,306.8 754.2,306.8 758.7,306.8 758.7,311.3 			"/>
			<polygon class="st29" points="740.7,302.3 740.7,297.8 745.2,297.8 745.2,302.3 745.2,306.8 740.7,306.8 			"/>
			<rect x="700.2" y="284.3" class="st29" width="4.5" height="4.5"/>
			<rect x="704.7" y="288.8" class="st29" width="4.5" height="4.5"/>
			<polygon class="st29" points="713.7,284.3 713.7,288.8 709.2,288.8 709.2,284.3 709.2,275.3 713.7,275.3 			"/>
			<polygon class="st29" points="709.2,275.3 704.7,275.3 695.7,275.3 691.2,275.3 691.2,270.8 695.7,270.8 704.7,270.8 
				704.7,266.3 709.2,266.3 709.2,270.8 			"/>
			<rect x="686.7" y="275.3" class="st29" width="4.5" height="4.5"/>
			<rect x="682.2" y="279.8" class="st29" width="4.5" height="4.5"/>
			<rect x="677.7" y="284.3" class="st29" width="4.5" height="18"/>
			<polygon class="st29" points="700.2,306.8 700.2,311.3 691.2,311.3 686.7,311.3 686.7,306.8 691.2,306.8 			"/>
			<polygon class="st29" points="700.2,297.8 704.7,297.8 704.7,302.3 704.7,306.8 700.2,306.8 700.2,302.3 			"/>
			<polygon class="st29" points="740.7,275.3 736.2,275.3 736.2,270.8 736.2,266.3 740.7,266.3 740.7,270.8 749.7,270.8 
				754.2,270.8 754.2,275.3 749.7,275.3 			"/>
			<rect x="731.7" y="261.8" class="st29" width="4.5" height="4.5"/>
			<rect x="709.2" y="261.8" class="st29" width="4.5" height="4.5"/>
			<rect x="713.7" y="257.3" class="st29" width="18" height="4.5"/>
			<rect x="740.7" y="320.3" class="st29" width="4.5" height="4.5"/>
			<rect x="736.2" y="315.8" class="st29" width="4.5" height="4.5"/>
			<polygon class="st29" points="731.7,324.8 731.7,320.3 736.2,320.3 736.2,324.8 736.2,333.8 731.7,333.8 			"/>
			<rect x="754.2" y="329.3" class="st29" width="4.5" height="4.5"/>
			<rect x="758.7" y="324.8" class="st29" width="4.5" height="4.5"/>
			<rect x="763.2" y="306.8" class="st29" width="4.5" height="18"/>
			<rect x="758.7" y="302.3" class="st29" width="4.5" height="4.5"/>
			<rect x="700.2" y="320.3" class="st29" width="4.5" height="4.5"/>
			<rect x="704.7" y="315.8" class="st29" width="4.5" height="4.5"/>
			<polygon class="st29" points="709.2,320.3 713.7,320.3 713.7,324.8 713.7,333.8 709.2,333.8 709.2,324.8 			"/>
			<polygon class="st29" points="704.7,333.8 709.2,333.8 709.2,338.3 709.2,342.8 704.7,342.8 704.7,338.3 695.7,338.3 
				691.2,338.3 691.2,333.8 695.7,333.8 			"/>
			<rect x="686.7" y="329.3" class="st29" width="4.5" height="4.5"/>
			<rect x="682.2" y="324.8" class="st29" width="4.5" height="4.5"/>
			<rect x="677.7" y="306.8" class="st29" width="4.5" height="18"/>
			<rect x="682.2" y="302.3" class="st29" width="4.5" height="4.5"/>
			<polygon class="st29" points="736.2,333.8 740.7,333.8 749.7,333.8 754.2,333.8 754.2,338.3 749.7,338.3 740.7,338.3 
				740.7,342.8 736.2,342.8 736.2,338.3 			"/>
			<rect x="731.7" y="342.8" class="st29" width="4.5" height="4.5"/>
			<rect x="709.2" y="342.8" class="st29" width="4.5" height="4.5"/>
			<rect x="713.7" y="347.3" class="st29" width="18" height="4.5"/>
		</g>
		<polygon class="st30" points="709.2,302.3 713.7,302.3 713.7,297.8 718.2,297.8 718.2,293.3 727.2,293.3 727.2,297.8 731.7,297.8 
			731.7,302.3 736.2,302.3 736.2,306.8 731.7,306.8 731.7,311.3 727.2,311.3 727.2,315.8 718.2,315.8 718.2,311.3 713.7,311.3 
			713.7,306.8 709.2,306.8 		"/>
	</g>
	<g>
		<polygon class="st11" points="682.2,67.5 682.2,45 691.2,45 691.2,40.5 709.2,40.5 709.2,31.5 713.7,31.5 713.7,27 731.7,27 
			731.7,31.5 736.2,31.5 736.2,40.5 754.2,40.5 754.2,45 763.2,45 763.2,67.5 758.7,67.5 758.7,72 763.2,72 763.2,90 758.7,90 
			758.7,94.5 754.2,94.5 754.2,99 736.2,99 736.2,108 731.7,108 731.7,112.5 713.7,112.5 713.7,108 709.2,108 709.2,99 691.2,99 
			691.2,94.5 686.7,94.5 686.7,90 682.2,90 682.2,72 686.7,72 686.7,67.5 		"/>
		<g>
			<rect x="740.7" y="49.5" class="st29" width="4.5" height="4.5"/>
			<rect x="736.2" y="54" class="st29" width="4.5" height="4.5"/>
			<polygon class="st29" points="736.2,54 731.7,54 731.7,49.5 731.7,40.5 736.2,40.5 736.2,49.5 			"/>
			<rect x="754.2" y="40.5" class="st29" width="4.5" height="4.5"/>
			<rect x="758.7" y="45" class="st29" width="4.5" height="4.5"/>
			<rect x="763.2" y="49.5" class="st29" width="4.5" height="18"/>
			<polygon class="st29" points="754.2,76.5 745.2,76.5 745.2,72 754.2,72 758.7,72 758.7,76.5 			"/>
			<polygon class="st29" points="740.7,67.5 740.7,63 745.2,63 745.2,67.5 745.2,72 740.7,72 			"/>
			<rect x="700.2" y="49.5" class="st29" width="4.5" height="4.5"/>
			<rect x="704.7" y="54" class="st29" width="4.5" height="4.5"/>
			<polygon class="st29" points="713.7,49.5 713.7,54 709.2,54 709.2,49.5 709.2,40.5 713.7,40.5 			"/>
			<polygon class="st29" points="709.2,40.5 704.7,40.5 695.7,40.5 691.2,40.5 691.2,36 695.7,36 704.7,36 704.7,31.5 709.2,31.5 
				709.2,36 			"/>
			<rect x="686.7" y="40.5" class="st29" width="4.5" height="4.5"/>
			<rect x="682.2" y="45" class="st29" width="4.5" height="4.5"/>
			<rect x="677.7" y="49.5" class="st29" width="4.5" height="18"/>
			<polygon class="st29" points="700.2,72 700.2,76.5 691.2,76.5 686.7,76.5 686.7,72 691.2,72 			"/>
			<polygon class="st29" points="700.2,63 704.7,63 704.7,67.5 704.7,72 700.2,72 700.2,67.5 			"/>
			<polygon class="st29" points="740.7,40.5 736.2,40.5 736.2,36 736.2,31.5 740.7,31.5 740.7,36 749.7,36 754.2,36 754.2,40.5 
				749.7,40.5 			"/>
			<rect x="731.7" y="27" class="st29" width="4.5" height="4.5"/>
			<rect x="709.2" y="27" class="st29" width="4.5" height="4.5"/>
			<rect x="713.7" y="22.5" class="st29" width="18" height="4.5"/>
			<rect x="740.7" y="85.5" class="st29" width="4.5" height="4.5"/>
			<rect x="736.2" y="81" class="st29" width="4.5" height="4.5"/>
			<polygon class="st29" points="731.7,90 731.7,85.5 736.2,85.5 736.2,90 736.2,99 731.7,99 			"/>
			<rect x="754.2" y="94.5" class="st29" width="4.5" height="4.5"/>
			<rect x="758.7" y="90" class="st29" width="4.5" height="4.5"/>
			<rect x="763.2" y="72" class="st29" width="4.5" height="18"/>
			<rect x="758.7" y="67.5" class="st29" width="4.5" height="4.5"/>
			<rect x="700.2" y="85.5" class="st29" width="4.5" height="4.5"/>
			<rect x="704.7" y="81" class="st29" width="4.5" height="4.5"/>
			<polygon class="st29" points="709.2,85.5 713.7,85.5 713.7,90 713.7,99 709.2,99 709.2,90 			"/>
			<polygon class="st29" points="704.7,99 709.2,99 709.2,103.5 709.2,108 704.7,108 704.7,103.5 695.7,103.5 691.2,103.5 691.2,99 
				695.7,99 			"/>
			<rect x="686.7" y="94.5" class="st29" width="4.5" height="4.5"/>
			<rect x="682.2" y="90" class="st29" width="4.5" height="4.5"/>
			<rect x="677.7" y="72" class="st29" width="4.5" height="18"/>
			<rect x="682.2" y="67.5" class="st29" width="4.5" height="4.5"/>
			<polygon class="st29" points="736.2,99 740.7,99 749.7,99 754.2,99 754.2,103.5 749.7,103.5 740.7,103.5 740.7,108 736.2,108 
				736.2,103.5 			"/>
			<rect x="731.7" y="108" class="st29" width="4.5" height="4.5"/>
			<rect x="709.2" y="108" class="st29" width="4.5" height="4.5"/>
			<rect x="713.7" y="112.5" class="st29" width="18" height="4.5"/>
		</g>
		<polygon class="st30" points="709.2,67.5 713.7,67.5 713.7,63 718.2,63 718.2,58.5 727.2,58.5 727.2,63 731.7,63 731.7,67.5 
			736.2,67.5 736.2,72 731.7,72 731.7,76.5 727.2,76.5 727.2,81 718.2,81 718.2,76.5 713.7,76.5 713.7,72 709.2,72 		"/>
	</g>
	<g>
		<defs>
			<rect id="SVGID_3_" x="238.5" y="90" width="322.9" height="490"/>
		</defs>
		<clipPath id="SVGID_2_">
			<use xlink:href="#SVGID_3_"  style="overflow:visible;"/>
		</clipPath>
		<g class="st21">
			<polygon class="st12" points="512.6,340 502.9,340 493.1,340 493.1,330.2 483.3,330.2 454,330.2 454,340 434.5,340 434.5,349.8 
				424.7,349.8 424.7,359.5 415,359.5 415,369.3 395.4,369.3 395.4,359.5 385.7,359.5 385.7,349.8 375.9,349.8 375.9,340 356.4,340 
				356.4,330.2 327.1,330.2 317.3,330.2 317.3,340 307.5,340 297.8,340 288,340 288,349.8 288,359.5 297.8,359.5 297.8,369.3 
				307.5,369.3 307.5,388.8 307.5,398.6 307.5,437.7 317.3,437.7 317.3,574.4 395.4,574.4 415,574.4 493.1,574.4 493.1,437.7 
				502.9,437.7 502.9,398.6 502.9,388.8 502.9,369.3 512.6,369.3 512.6,359.5 522.4,359.5 522.4,349.8 522.4,340 			"/>
			<polygon class="st13" points="502.9,252.1 502.9,232.6 493.1,232.6 493.1,222.8 483.3,222.8 483.3,193.5 327.1,193.5 
				327.1,222.8 317.3,222.8 317.3,232.6 307.5,232.6 307.5,252.1 297.8,252.1 297.8,291.2 307.5,291.2 307.5,310.7 317.3,310.7 
				317.3,320.5 356.4,320.5 356.4,310.7 375.9,310.7 375.9,242.4 434.5,242.4 434.5,310.7 454,310.7 454,320.5 493.1,320.5 
				493.1,310.7 502.9,310.7 502.9,291.2 512.6,291.2 512.6,252.1 			"/>
			<polygon class="st14" points="463.8,222.8 463.8,203.3 454,203.3 454,193.5 424.7,193.5 424.7,183.8 415,183.8 415,174 
				395.4,174 395.4,183.8 385.7,183.8 385.7,193.5 356.4,193.5 356.4,203.3 346.6,203.3 346.6,222.8 327.1,222.8 327.1,252.1 
				346.6,252.1 346.6,281.4 356.4,281.4 356.4,291.2 366.1,291.2 366.1,300.9 444.3,300.9 444.3,291.2 454,291.2 454,281.4 
				463.8,281.4 463.8,252.1 483.3,252.1 483.3,222.8 			"/>
			
				<rect x="327.1" y="252.1" transform="matrix(-1 -4.479318e-11 4.479318e-11 -1 673.6826 523.7672)" class="st15" width="19.5" height="19.5"/>
			<polygon class="st14" points="454,330.2 444.3,330.2 444.3,320.5 434.5,320.5 434.5,310.7 375.9,310.7 375.9,320.5 366.1,320.5 
				366.1,330.2 356.4,330.2 356.4,340 375.9,340 375.9,349.8 385.7,349.8 385.7,359.5 395.4,359.5 395.4,369.3 415,369.3 415,359.5 
				424.7,359.5 424.7,349.8 434.5,349.8 434.5,340 454,340 			"/>
			<rect x="385.7" y="271.7" class="st27" width="39.1" height="9.8"/>
			<rect x="395.4" y="252.1" class="st27" width="19.5" height="9.8"/>
			<g>
				<polygon class="st13" points="424.7,213.1 424.7,222.8 434.5,222.8 434.5,232.6 444.3,232.6 444.3,222.8 454,222.8 454,213.1 
									"/>
				<rect x="454" y="222.8" class="st13" width="9.8" height="9.8"/>
			</g>
			<g>
				<polygon class="st13" points="356.4,213.1 356.4,222.8 366.1,222.8 366.1,232.6 375.9,232.6 375.9,222.8 385.7,222.8 
					385.7,213.1 				"/>
				<rect x="346.6" y="222.8" class="st13" width="9.8" height="9.8"/>
			</g>
			<polygon class="st13" points="463.8,174 463.8,164.2 454,164.2 454,154.5 444.3,154.5 444.3,144.7 366.1,144.7 366.1,154.5 
				356.4,154.5 356.4,164.2 346.6,164.2 346.6,174 336.8,174 336.8,183.8 336.8,222.8 346.6,222.8 346.6,203.3 356.4,203.3 
				356.4,193.5 385.7,193.5 385.7,183.8 395.4,183.8 395.4,174 405.2,174 415,174 415,183.8 424.7,183.8 424.7,193.5 454,193.5 
				454,203.3 463.8,203.3 463.8,222.8 473.6,222.8 473.6,193.5 473.6,183.8 473.6,174 			"/>
			<rect x="375.9" y="300.9" class="st13" width="58.6" height="9.8"/>
			<rect x="375.9" y="300.9" class="st27" width="58.6" height="9.8"/>
			
				<rect x="463.8" y="252.1" transform="matrix(-1 -4.488644e-11 4.488644e-11 -1 947.1423 523.7672)" class="st15" width="19.5" height="19.5"/>
			<polygon class="st28" points="444.3,340 444.3,388.8 434.5,388.8 434.5,359.5 424.7,359.5 424.7,388.8 385.7,388.8 385.7,359.5 
				375.9,359.5 375.9,388.8 366.1,388.8 366.1,340 356.4,340 356.4,388.8 356.4,398.6 366.1,398.6 444.3,398.6 454,398.6 454,388.8 
				454,340 			"/>
			<polygon class="st14" points="551.7,388.8 551.7,379.1 551.7,369.3 541.9,369.3 541.9,359.5 532.2,359.5 532.2,349.8 
				522.4,349.8 522.4,359.5 512.6,359.5 512.6,369.3 502.9,369.3 502.9,486.5 512.6,486.5 512.6,515.8 522.4,515.8 522.4,525.6 
				512.6,525.6 512.6,545.1 512.6,584.2 522.4,584.2 522.4,613.5 551.7,613.5 551.7,593.9 561.5,593.9 561.5,574.4 561.5,525.6 
				561.5,388.8 			"/>
			<polygon class="st14" points="258.7,388.8 258.7,379.1 258.7,369.3 268.5,369.3 268.5,359.5 278.2,359.5 278.2,349.8 288,349.8 
				288,359.5 297.8,359.5 297.8,369.3 307.5,369.3 307.5,486.5 297.8,486.5 297.8,515.8 288,515.8 288,525.6 297.8,525.6 
				297.8,545.1 297.8,584.2 288,584.2 288,613.5 258.7,613.5 258.7,593.9 248.9,593.9 248.9,574.4 248.9,525.6 248.9,388.8 			"/>
			<rect x="327.1" y="574.4" class="st28" width="156.3" height="9.8"/>
			<rect x="375.9" y="261.9" class="st27" width="9.8" height="9.8"/>
			<rect x="424.7" y="261.9" class="st27" width="9.8" height="9.8"/>
		</g>
	</g>
</g>
<g id="Layer_7">
</g>
<g id="Layer_4">
</g>
<g id="Layer_6">
</g>
</svg>
