<?xml version="1.0" encoding="utf-8"?>
<!-- Generator: Adobe Illustrator 25.2.3, SVG Export Plug-In . SVG Version: 6.00 Build 0)  -->
<svg version="1.1" xmlns="http://www.w3.org/2000/svg" xmlns:xlink="http://www.w3.org/1999/xlink" x="0px" y="0px"
	 viewBox="0 0 800 580" style="enable-background:new 0 0 800 580;" xml:space="preserve">
<style type="text/css">
	.st0{opacity:0.41;}
	.st1{opacity:0.46;}
	.st2{fill:#A8B4A5;}
	.st3{opacity:0.37;}
	.st4{opacity:0.5;}
	.st5{fill:#296D3C;}
	.st6{fill:#38874B;}
	.st7{fill:#D2C6B1;}
	.st8{fill:#8C2429;}
	.st9{fill:#41B5B1;}
	.st10{fill:#E3DBCE;}
	.st11{fill:#EFBD38;}
	.st12{fill:#D9CEB8;}
	.st13{fill:#343533;}
	.st14{fill:#B16447;}
	.st15{fill:#D18238;}
	.st16{fill:#198691;}
	.st17{fill:#613C34;}
	.st18{fill:#EDBC3A;}
	.st19{fill:#FFFFFF;}
	.st20{clip-path:url(#SVGID_2_);fill:#E3DBCE;}
	.st21{clip-path:url(#SVGID_2_);}
	.st22{clip-path:url(#SVGID_2_);fill:#613C34;}
	.st23{clip-path:url(#SVGID_2_);fill:#B16447;}
	.st24{fill:#153C41;}
	.st25{fill:#1E512E;}
	.st26{fill:#1D5B76;}
	.st27{fill:#633D34;}
	.st28{fill:#BE2830;}
	.st29{fill:#E3963A;}
	.st30{fill:#DD5832;}
	.st31{clip-path:url(#SVGID_4_);}
	.st32{fill:#4B4B4B;}
	.st33{fill:#9CA051;}
	.st34{fill:#FDE22F;}
	.st35{fill:#00964C;}
	.st36{fill:#F69C33;}
	.st37{fill:#FBD630;}
	.st38{fill:#9F672F;}
	.st39{fill:#E3C395;}
	.st40{fill:#E3DDD4;}
	.st41{fill:#7F7A74;}
	.st42{fill:#BFB4A9;}
	.st43{fill:#716454;}
	.st44{fill:#010101;}
	.st45{fill:#33A04D;}
	.st46{fill:#EBD0A3;}
	.st47{fill:none;stroke:#231F20;stroke-miterlimit:10;}
	.st48{fill:#96BC50;}
	.st49{fill:#D73D94;}
	.st50{fill:#EFB534;}
	.st51{fill:#B77366;}
	.st52{fill:#668B40;}
	.st53{fill:#15120F;}
	.st54{clip-path:url(#SVGID_6_);fill:#A8B4A5;}
	.st55{clip-path:url(#SVGID_6_);}
	.st56{clip-path:url(#SVGID_6_);fill:#E3DBCE;}
	.st57{clip-path:url(#SVGID_6_);fill:#BAB1A1;}
	.st58{clip-path:url(#SVGID_6_);fill:#1D5B76;}
	.st59{clip-path:url(#SVGID_6_);fill:#8C2429;}
	.st60{clip-path:url(#SVGID_6_);fill:#77736A;}
	.st61{fill:#314C2C;}
	.st62{fill:#BF3E3B;}
	.st63{clip-path:url(#SVGID_6_);fill:#38874B;}
	.st64{clip-path:url(#SVGID_6_);fill:#296D3C;}
	.st65{clip-path:url(#SVGID_6_);fill:#1E512E;}
</style>
<g id="Layer_1">
</g>
<g id="Layer_5">
</g>
<g id="Layer_2">
</g>
<g id="Layer_3">
	<g>
		<g>
			<rect x="505.8" y="123.1" class="st34" width="45.4" height="6.4"/>
			<rect x="505.8" y="129.7" class="st35" width="45.4" height="6.4"/>
			<rect x="512.3" y="136.1" class="st35" width="32.4" height="6.4"/>
			<rect x="518.8" y="142.6" class="st35" width="19.4" height="19.4"/>
			<rect x="525.2" y="136.1" class="st35" width="6.4" height="32.4"/>
			<rect x="525.2" y="38.9" class="st34" width="6.4" height="110.1"/>
			<rect x="518.8" y="136.1" class="st34" width="19.4" height="6.4"/>
			<rect x="505.8" y="58.4" class="st34" width="45.4" height="64.8"/>
			<rect x="525.2" y="26" class="st34" width="6.4" height="13"/>
			<rect x="512.3" y="45.4" class="st34" width="32.4" height="19.4"/>
			<rect x="518.8" y="32.4" class="st34" width="19.4" height="19.4"/>
			<rect x="499.3" y="84.3" class="st35" width="6.4" height="45.4"/>
			<rect x="551.2" y="84.3" class="st35" width="6.4" height="45.4"/>
			<rect x="486.3" y="71.3" class="st35" width="6.4" height="6.4"/>
			<rect x="492.9" y="77.8" class="st35" width="6.4" height="6.4"/>
			<rect x="557.6" y="77.8" class="st35" width="6.4" height="6.4"/>
			<rect x="564.2" y="71.3" class="st35" width="6.4" height="6.4"/>
			<rect x="525.2" y="129.7" class="st36" width="6.4" height="6.4"/>
			<rect x="486.3" y="97.2" class="st35" width="6.4" height="6.4"/>
			<rect x="492.9" y="103.7" class="st35" width="6.4" height="6.4"/>
			<rect x="505.8" y="123.1" class="st35" width="6.4" height="6.4"/>
			<rect x="544.7" y="123.1" class="st35" width="6.4" height="6.4"/>
			<rect x="557.6" y="103.7" class="st35" width="6.4" height="6.4"/>
			<rect x="564.2" y="97.2" class="st35" width="6.4" height="6.4"/>
			<rect x="518.8" y="123.1" class="st37" width="6.4" height="6.4"/>
			<rect x="531.7" y="123.1" class="st37" width="6.4" height="6.4"/>
			<rect x="512.3" y="110.1" class="st37" width="6.4" height="6.4"/>
			<rect x="525.2" y="110.1" class="st37" width="6.4" height="6.4"/>
			<rect x="538.2" y="110.1" class="st37" width="6.4" height="6.4"/>
			<rect x="505.8" y="97.2" class="st37" width="6.4" height="6.4"/>
			<rect x="518.8" y="97.2" class="st37" width="6.4" height="6.4"/>
			<rect x="531.7" y="97.2" class="st37" width="6.4" height="6.4"/>
			<rect x="544.7" y="97.2" class="st37" width="6.4" height="6.4"/>
			<rect x="512.3" y="84.3" class="st37" width="6.4" height="6.4"/>
			<rect x="525.2" y="84.3" class="st37" width="6.4" height="6.4"/>
			<rect x="538.2" y="84.3" class="st37" width="6.4" height="6.4"/>
			<rect x="531.7" y="71.3" class="st37" width="6.4" height="6.4"/>
			<rect x="518.8" y="71.3" class="st37" width="6.4" height="6.4"/>
			<rect x="512.3" y="129.7" class="st34" width="32.4" height="6.4"/>
			<rect x="505.8" y="71.3" class="st37" width="6.4" height="6.4"/>
			<rect x="544.7" y="71.3" class="st37" width="6.4" height="6.4"/>
			<rect x="512.3" y="58.4" class="st37" width="6.4" height="6.4"/>
			<rect x="525.2" y="58.4" class="st37" width="6.4" height="6.4"/>
			<rect x="538.2" y="58.4" class="st37" width="6.4" height="6.4"/>
			<rect x="518.8" y="45.4" class="st37" width="6.4" height="6.4"/>
			<rect x="531.7" y="45.4" class="st37" width="6.4" height="6.4"/>
			<rect x="525.2" y="38.9" class="st37" width="6.4" height="6.4"/>
			<rect x="518.8" y="32.4" class="st37" width="6.4" height="6.4"/>
			<rect x="531.7" y="32.4" class="st37" width="6.4" height="6.4"/>
			<rect x="518.8" y="136.1" class="st37" width="6.4" height="6.4"/>
			<rect x="525.2" y="142.6" class="st37" width="6.4" height="6.4"/>
			<rect x="531.7" y="136.1" class="st37" width="6.4" height="6.4"/>
		</g>
		<g>
			<polygon class="st38" points="370.8,203.4 366,203.4 366,193.9 361.3,193.9 361.3,189.1 356.5,189.1 356.5,184.2 351.6,184.2 
				351.6,179.5 327.8,179.5 327.8,184.2 322.9,184.2 322.9,189.1 318.2,189.1 318.2,208.2 322.9,208.2 322.9,217.8 327.8,217.8 
				327.8,222.6 332.6,222.6 332.6,232.1 327.8,232.1 327.8,236.9 322.9,236.9 322.9,246.5 318.2,246.5 318.2,265.6 322.9,265.6 
				322.9,270.5 327.8,270.5 327.8,275.2 351.6,275.2 351.6,270.5 356.5,270.5 356.5,265.6 361.3,265.6 361.3,260.8 366,260.8 
				366,251.3 370.8,251.3 			"/>
			<rect x="332.6" y="217.8" class="st39" width="4.8" height="19.2"/>
			<rect x="337.3" y="222.6" class="st39" width="4.8" height="9.5"/>
		</g>
		<rect x="310.7" y="297.8" class="st40" width="67.8" height="226"/>
		<rect x="310.7" y="297.9" class="st41" width="67.8" height="11.3"/>
		<rect x="310.7" y="408.6" class="st41" width="67.8" height="11.3"/>
		<rect x="355.9" y="388.2" class="st42" width="11.3" height="11.3"/>
		<rect x="322" y="320.4" class="st42" width="11.3" height="11.3"/>
		<rect x="322" y="388.2" class="st42" width="11.3" height="11.3"/>
		<rect x="355.9" y="444.6" class="st42" width="11.3" height="11.3"/>
		<rect x="322" y="501.2" class="st42" width="11.3" height="11.3"/>
		<rect x="497.8" y="184.8" class="st40" width="67.8" height="338.9"/>
		<rect x="543.1" y="275.2" class="st42" width="11.3" height="11.3"/>
		<rect x="509.1" y="207.4" class="st42" width="11.3" height="11.3"/>
		<rect x="509.1" y="275.2" class="st42" width="11.3" height="11.3"/>
		<rect x="543.1" y="339.2" class="st42" width="11.3" height="11.3"/>
		<rect x="509.1" y="388.2" class="st42" width="11.3" height="11.3"/>
		<rect x="682.7" y="410.8" class="st40" width="67.8" height="113"/>
		<rect x="123.6" y="297.8" class="st40" width="67.8" height="226"/>
		<rect x="123.6" y="297.9" class="st41" width="67.8" height="11.3"/>
		<rect x="123.6" y="408.6" class="st41" width="67.8" height="11.3"/>
		<rect x="168.8" y="365.7" class="st42" width="11.3" height="11.3"/>
		<rect x="134.9" y="320.4" class="st42" width="11.3" height="11.3"/>
		<rect x="134.9" y="365.7" class="st42" width="11.3" height="11.3"/>
		<rect x="138.7" y="448.4" class="st42" width="11.3" height="11.3"/>
		<rect x="180.1" y="501.2" class="st42" width="11.3" height="11.3"/>
		<g>
			<polygon class="st43" points="202.6,247.8 198.1,247.8 198.1,243.3 193.5,243.3 193.5,238.7 120.6,238.7 120.6,243.3 116,243.3 
				116,247.8 111.4,247.8 111.4,270.6 116,270.6 116,275.1 120.6,275.1 120.6,279.7 193.5,279.7 193.5,275.1 198.1,275.1 
				198.1,270.6 202.6,270.6 			"/>
			<rect x="179.8" y="247.8" class="st44" width="4.6" height="9.1"/>
			<rect x="193.5" y="247.8" class="st44" width="4.6" height="9.1"/>
			<rect x="184.4" y="261.4" class="st44" width="9.1" height="4.6"/>
			<rect x="129.7" y="279.7" class="st44" width="4.6" height="18.3"/>
			<rect x="179.8" y="279.7" class="st44" width="4.6" height="18.3"/>
			<rect x="170.7" y="279.7" class="st44" width="4.6" height="18.3"/>
			<rect x="138.8" y="279.7" class="st44" width="4.6" height="18.3"/>
			<rect x="179.8" y="215.9" class="st44" width="4.6" height="22.8"/>
			<polygon class="st45" points="170.6,201.9 173.6,205.1 170.4,208 167.5,204.8 157.9,213.5 166.6,223 169.8,220.1 172.6,223.3 
				175.9,220.5 178.7,223.6 188.2,215 185.4,211.8 188.6,208.9 185.7,205.7 188.8,202.8 180.2,193.3 			"/>
		</g>
		<rect x="694" y="467.3" class="st42" width="11.3" height="11.3"/>
		<rect x="716.6" y="444.6" class="st42" width="11.3" height="11.3"/>
		<rect x="682.7" y="410.8" class="st41" width="67.8" height="11.3"/>
		<rect x="727.9" y="489.9" class="st42" width="11.3" height="11.3"/>
		<polygon class="st46" points="739.1,366.1 734.9,366.1 734.9,362 730.7,362 730.7,357.8 701.4,357.8 701.4,362 697.3,362 
			697.3,366.1 693.1,366.1 693.1,391.2 697.3,391.2 697.3,395.4 701.4,395.4 701.4,399.6 730.7,399.6 730.7,395.4 734.9,395.4 
			734.9,391.2 739.1,391.2 		"/>
		<rect x="705.7" y="370.4" class="st44" width="4.2" height="8.4"/>
		<rect x="722.4" y="370.4" class="st44" width="4.2" height="8.4"/>
		<rect x="714" y="382.8" class="st44" width="4.2" height="4.2"/>
		<rect x="709.8" y="399.6" class="st44" width="4.2" height="12.5"/>
		<rect x="718.2" y="399.6" class="st44" width="4.2" height="12.5"/>
		<rect x="684.7" y="378.7" class="st44" width="8.4" height="4.2"/>
		<rect x="739.1" y="378.7" class="st44" width="8.4" height="4.2"/>
		<rect x="747.5" y="370.4" class="st44" width="4.2" height="8.4"/>
		<rect x="680.6" y="370.4" class="st44" width="4.2" height="8.4"/>
		<polygon class="st46" points="739.1,311.8 734.9,311.8 734.9,307.6 730.7,307.6 730.7,303.5 701.4,303.5 701.4,307.6 697.3,307.6 
			697.3,311.8 693.1,311.8 693.1,336.9 697.3,336.9 697.3,341 701.4,341 701.4,345.3 730.7,345.3 730.7,341 734.9,341 734.9,336.9 
			739.1,336.9 		"/>
		<rect x="705.7" y="316" class="st44" width="4.2" height="8.4"/>
		<rect x="722.4" y="316" class="st44" width="4.2" height="8.4"/>
		<rect x="714" y="328.6" class="st44" width="4.2" height="4.2"/>
		<rect x="709.8" y="345.3" class="st44" width="4.2" height="12.5"/>
		<rect x="718.2" y="345.3" class="st44" width="4.2" height="12.5"/>
		<rect x="684.7" y="324.3" class="st44" width="8.4" height="4.2"/>
		<rect x="739.1" y="324.3" class="st44" width="8.4" height="4.2"/>
		<rect x="747.5" y="316" class="st44" width="4.2" height="8.4"/>
		<rect x="680.6" y="316" class="st44" width="4.2" height="8.4"/>
		<rect x="497.7" y="297.9" class="st41" width="67.8" height="11.3"/>
		<rect x="497.7" y="408.6" class="st41" width="67.8" height="11.3"/>
		<rect x="497.8" y="182.3" class="st41" width="67.8" height="11.3"/>
		<rect x="545.3" y="441.5" class="st42" width="11.3" height="11.3"/>
		<rect x="511.3" y="490.5" class="st42" width="11.3" height="11.3"/>
		<line class="st47" x1="58.2" y1="523.8" x2="58.2" y2="186.1"/>
		<line class="st47" x1="67.9" y1="186.9" x2="48.5" y2="186.9"/>
		<line class="st47" x1="67.9" y1="303.5" x2="48.5" y2="303.5"/>
		<line class="st47" x1="67.9" y1="420.2" x2="48.5" y2="420.2"/>
		<line class="st47" x1="797.9" y1="523.8" x2="48.5" y2="523.8"/>
		<g>
			<path class="st44" d="M3.2,191.5H2.1v-2.1h2.1v1.1h1.1v1.1h4.3v-1.1h1.1v-2.1H9.6v-1.1H6.4v-2.1h3.3v-1.1h1.1V182H9.6v-1.1H5.3
				v1.1H4.2v1.1H2.1v-2.1h1.1v-1.1h1.1v-1.1h6.4v1.1h1.1v1.1h1.1v4.3h-1.1v2.1h1.1v4.3h-1.1v1.1h-1.1v1.1H4.2v-1.1H3.2V191.5z"/>
			<path class="st44" d="M17.2,179.7v-1.1h6.4v1.1h1.1v1.1h1.1v10.8h-1.1v1.1h-1.1v1.1h-6.4v-1.1h-1.1v-1.1h-1.1v-10.8h1.1v-1.1
				H17.2z M18.3,187.2v-1.1h1.1v-1.1h1.1v-1.1h1.1V183h2.1V182h-1.1v-1.1h-4.3v1.1h-1.1v5.4L18.3,187.2L18.3,187.2z M17.2,189.4v1.1
				h1.1v1.1h4.3v-1.1h1.1V185h-1.1v1.1h-1.1v1.1h-1.1v1.1h-1.1v1.1L17.2,189.4L17.2,189.4z"/>
			<path class="st44" d="M30.1,179.7v-1.1h6.4v1.1h1.1v1.1h1.1v10.8h-1.1v1.1h-1.1v1.1h-6.4v-1.1h-1.1v-1.1H28v-10.8h1.1v-1.1H30.1z
				 M31.3,187.2v-1.1h1.1v-1.1h1.1v-1.1h1.1V183h2.1V182h-1.1v-1.1h-4.3v1.1h-1.1v5.4L31.3,187.2L31.3,187.2z M30.1,189.4v1.1h1.1
				v1.1h4.3v-1.1h1.1V185h-1.1v1.1h-1.1v1.1h-1.1v1.1h-1.1v1.1L30.1,189.4L30.1,189.4z"/>
		</g>
		<g>
			<path class="st44" d="M4.2,302.7h8.7v2.1H2.1v-6.4h1.1v-1.1h1.1v-1.1h5.4v-1.1h1.1v-2.1H9.6V292H5.3v1.1H4.2v1.1H2.1V292h1.1V291
				h1.1v-1.2h6.4v1.1h1.1v1.1h1.1v4.3h-1.1v1.1h-1.1v1.1H5.3v1.1H4.2V302.7z"/>
			<path class="st44" d="M17.2,290.8v-1.1h6.4v1.1h1.1v1.1h1.1v10.8h-1.1v1.1h-1.1v1.1h-6.4v-1.1h-1.1v-1.1h-1.1v-10.8h1.1v-1.1
				H17.2z M18.3,298.4v-1.1h1.1v-1.1h1.1v-1.1h1.1v-1.1h2.1v-1.1h-1.1V292h-4.3v1.1h-1.1v5.4L18.3,298.4L18.3,298.4z M17.2,300.5
				v1.1h1.1v1.1h4.3v-1.1h1.1v-5.4h-1.1v1.1h-1.1v1.1h-1.1v1.1h-1.1v1.1L17.2,300.5L17.2,300.5z"/>
			<path class="st44" d="M30.1,290.8v-1.1h6.4v1.1h1.1v1.1h1.1v10.8h-1.1v1.1h-1.1v1.1h-6.4v-1.1h-1.1v-1.1H28v-10.8h1.1v-1.1H30.1z
				 M31.3,298.4v-1.1h1.1v-1.1h1.1v-1.1h1.1v-1.1h2.1v-1.1h-1.1V292h-4.3v1.1h-1.1v5.4L31.3,298.4L31.3,298.4z M30.1,300.5v1.1h1.1
				v1.1h4.3v-1.1h1.1v-5.4h-1.1v1.1h-1.1v1.1h-1.1v1.1h-1.1v1.1L30.1,300.5L30.1,300.5z"/>
		</g>
		<g>
			<path class="st44" d="M8.6,424.8h2.1v2.1H4.2v-2.1h2.1v-8.7H4.2V414h1.1v-1.1h1.1v-1.1h2.1L8.6,424.8L8.6,424.8z"/>
			<path class="st44" d="M17.2,412.9v-1.1h6.4v1.1h1.1v1.1h1.1v10.8h-1.1v1.1h-1.1v1.1h-6.4v-1.1h-1.1v-1.1h-1.1V414h1.1v-1.1H17.2z
				 M18.3,420.4v-1.1h1.1v-1.1h1.1v-1.1h1.1v-1.1h2.1v-1.1h-1.1v-1.1h-4.3v1.1h-1.1v5.4L18.3,420.4L18.3,420.4z M17.2,422.7v1.1h1.1
				v1.1h4.3v-1.1h1.1v-5.4h-1.1v1.1h-1.1v1.1h-1.1v1.1h-1.1v1.1L17.2,422.7L17.2,422.7z"/>
			<path class="st44" d="M30.1,412.9v-1.1h6.4v1.1h1.1v1.1h1.1v10.8h-1.1v1.1h-1.1v1.1h-6.4v-1.1h-1.1v-1.1H28V414h1.1v-1.1H30.1z
				 M31.3,420.4v-1.1h1.1v-1.1h1.1v-1.1h1.1v-1.1h2.1v-1.1h-1.1v-1.1h-4.3v1.1h-1.1v5.4L31.3,420.4L31.3,420.4z M30.1,422.7v1.1h1.1
				v1.1h4.3v-1.1h1.1v-5.4h-1.1v1.1h-1.1v1.1h-1.1v1.1h-1.1v1.1L30.1,422.7L30.1,422.7z"/>
		</g>
		<g>
			<path class="st44" d="M135.9,560.8h4.3v-1.1h1.1v-1.1h2.1v2.1h-1.1v1.1h-1.1v1.1h-6.4v-1.1h-1.1v-1.1h-1.1V550h1.1V549h1.1v-1.1
				h6.4v1.1h1.1v1.1h1.1v2.1h-2.1v-1h-1.1v-1.1h-4.3v1.1h-1.1v8.7h1.1V560.8z"/>
			<path class="st44" d="M147.8,556.6v6.4h-2.1v-15.1h2.1v6.4h6.4v-6.4h2.1V563h-2.1v-6.4H147.8z"/>
			<path class="st44" d="M160.7,563v-2.1h2.1v-10.8h-2.1V548h6.4v2.1H165v10.8h2.1v2.1H160.7z"/>
			<path class="st44" d="M173.7,563h-2.1v-10.8h1.1v-1.1h1.1v-1.1h1.1v-1.1h1.1V548h2.1v1.1h1.1v1.1h1.1v1.1h1.1v1.1h1.1V563h-2
				v-4.3h-6.4V563z M173.7,556.6h6.4v-3.3H179v-1.1H178v-1.1h-2.1v1.1h-1.1v1.1h-1.1L173.7,556.6L173.7,556.6z"/>
		</g>
		<g>
			<path class="st44" d="M313.3,563v-15.1h8.7v1.1h1.1v1.1h1.1v4.3H323v2.1h1.1v4.3H323v1.1H322v1.1L313.3,563L313.3,563z
				 M315.5,554.4h5.4v-1.1h1.1v-2.1h-1.1v-1.1h-5.4V554.4z M315.5,560.8h5.4v-1.1h1.1v-2.1h-1.1v-1.1h-5.4V560.8z"/>
			<path class="st44" d="M337.1,547.9v2.1h-8.7v4.3h6.4v2.1h-6.4v4.3h8.7v2.1h-10.8v-15.1L337.1,547.9L337.1,547.9z"/>
			<path class="st44" d="M341.4,563h-2.1v-10.8h1.1v-1.1h1.1v-1.1h1.1v-1.1h1.1V548h2.1v1.1h1.1v1.1h1.1v1.1h1.1v1.1h1.1V563h-2.1
				v-4.3h-6.4L341.4,563L341.4,563z M341.4,556.6h6.4v-3.3h-1.1v-1.1h-1.1v-1.1h-2.2v1.1h-1.1v1.1h-1.1L341.4,556.6L341.4,556.6z"/>
			<path class="st44" d="M354.3,554.4v8.7h-2.1v-15.1h2.1v3.3h1.1v1.1h1.1v1.1h1.1v1.1h1.1v1.1h1.1v1.1h1.1v-8.7h2.1v15.1h-2.1v-3.3
				h-1.1v-1.1h-1.1v-1.1h-1.1v-1.1h-1.1v-1.1h-1.1v-1.1H354.3z"/>
			<path class="st44" d="M374.8,550h1.1v2.1h-2.1v-1h-1.1v-1.1h-4.3v1.1h-1.1v2.1h1.1v1.1h5.4v1.1h1.1v1.1h1.1v4.3h-1.1v1.1h-1.1
				v1.1h-6.4v-1.1h-1.1v-1.1h-1.1v-2.1h2.1v1.1h1.1v1.1h4.3v-1.1h1.1v-2.1h-1.1v-1.1h-5.4v-1.1h-1.1v-1.1h-1.1v-4.3h1.1v-1.1h1.1
				V548h6.4v1.1h1.1V550z"/>
		</g>
		<g>
			<path class="st44" d="M510.1,560.8h4.3v-1.1h1.1v-1.1h2.1v2.1h-1v1.1h-1.1v1.1h-6.4v-1.1h-1.1v-1.1h-1.1V550h1.1V549h1.1v-1.1
				h6.4v1.1h1.1v1.1h1.1v2.1h-2.1v-1h-1.1v-1.1h-4.3v1.1H509v8.7h1.1V560.8z"/>
			<path class="st44" d="M522,549v-1.1h6.4v1.1h1.1v1.1h1.1v10.8h-1.1v1.1h-1.1v1.1H522v-1.1H521v-1.1h-1.1V550h1.1V549H522z
				 M527.4,550h-4.3v1.1H522v8.7h1.1v1.1h4.3v-1.1h1.1v-8.6h-1.1V550z"/>
			<path class="st44" d="M536,556.6h-1.1v6.4h-2.1v-15.1h8.7v1.1h1.1v1.1h1.1v4.3h-1.1v1.1h-1.1v1.1h-2.1v1.1h1.1v1.1h1.1v1.1h1.1
				v1.1h1.1v2.1h-2.1v-1.1h-1.1v-1.1h-1.1v-1.1h-1.1v-1.1h-1.1v-1.1h-1.1L536,556.6L536,556.6z M534.9,550v4.3h5.4v-1.1h1.1v-2.1
				h-1.1v-1.1L534.9,550L534.9,550z"/>
			<path class="st44" d="M547.9,554.4v8.7h-2.1v-15.1h2.1v3.3h1.1v1.1h1.1v1.1h1.1v1.1h1.1v1.1h1.1v1.1h1.1v-8.7h2.1v15.1h-2.1v-3.3
				h-1.1v-1.1h-1.1v-1.1h-1.1v-1.1H550v-1.1H549v-1.1H547.9z"/>
		</g>
		<g>
			<path class="st44" d="M665.4,563h-2.1v-10.8h1.1v-1.1h1.1v-1.1h1.1v-1.1h1.1V548h2.1v1.1h1.1v1.1h1.1v1.1h1.1v1.1h1.1V563h-2.1
				v-4.3h-6.4L665.4,563L665.4,563z M665.4,556.6h6.4v-3.3h-1.1v-1.1h-1.1v-1.1h-2.1v1.1h-1.1v1.1h-1.1L665.4,556.6L665.4,556.6z"/>
			<path class="st44" d="M678.3,563h-2.1v-15.1h2.1v2.1h1.1v1.1h1.1v1.1h2.1v-1h1.1v-1.1h1.1V548h2.1v15.1h-2.1v-9.7h-1.1v1.1h-1.1
				v2.1h-2.1v-2.1h-1.1v-1.1h-1.1V563z"/>
			<path class="st44" d="M691.3,563h-2.1v-10.8h1.1v-1.1h1.1v-1.1h1.1v-1.1h1.1V548h2.1v1.1h1.1v1.1h1.1v1.1h1.1v1.1h1.1V563h-2
				v-4.3h-6.4V563z M691.3,556.6h6.4v-3.3h-1.1v-1.1h-1.1v-1.1h-2.1v1.1h-1.1v1.1h-1.1L691.3,556.6L691.3,556.6z"/>
			<path class="st44" d="M705.2,556.6h-1.1v6.4H702v-15.1h8.7v1.1h1.1v1.1h1.1v4.3h-1.1v1.1h-1.1v1.1h-2.1v1.1h1.1v1.1h1.1v1.1h1.1
				v1.1h1.1v2.1h-2.1v-1.1h-1.1v-1.1h-1.1v-1.1h-1.1v-1.1h-1.1v-1.1h-1.1L705.2,556.6L705.2,556.6z M704.2,550v4.3h5.4v-1.1h1.1
				v-2.1h-1.1v-1.1L704.2,550L704.2,550z"/>
			<path class="st44" d="M717.2,563H715v-10.8h1.1v-1.1h1.1v-1.1h1.1v-1.1h1.1V548h2.1v1.1h1.1v1.1h1.1v1.1h1.1v1.1h1.1V563h-2.1
				v-4.3h-6.4V563z M717.2,556.6h6.4v-3.3h-1.1v-1.1h-1.1v-1.1h-2.1v1.1h-1.1v1.1h-1.1V556.6z"/>
			<path class="st44" d="M730.1,554.4v8.7h-2.1v-15.1h2.1v3.3h1.1v1.1h1.1v1.1h1.1v1.1h1.1v1.1h1.1v1.1h1.1v-8.7h2.1v15.1h-2.1v-3.3
				h-1.1v-1.1h-1.1v-1.1h-1.1v-1.1h-1.1v-1.1h-1.1v-1.1H730.1z"/>
			<path class="st44" d="M745.2,550h-4.3v-2.1h10.8v2.1h-4.3v12.9h-2.1L745.2,550L745.2,550z"/>
			<path class="st44" d="M755.9,556.6v6.4h-2.1v-15.1h2.1v6.4h6.4v-6.4h2.1V563h-2.1v-6.4H755.9z"/>
		</g>
	</g>
</g>
<g id="Layer_7">
</g>
<g id="Layer_4">
</g>
<g id="Layer_6">
</g>
</svg>
