<?xml version="1.0" encoding="utf-8"?>
<!-- Generator: Adobe Illustrator 25.2.3, SVG Export Plug-In . SVG Version: 6.00 Build 0)  -->
<svg version="1.1" xmlns="http://www.w3.org/2000/svg" xmlns:xlink="http://www.w3.org/1999/xlink" x="0px" y="0px"
	 viewBox="0 0 300 280" style="enable-background:new 0 0 300 280;" xml:space="preserve">
<style type="text/css">
	.st0{opacity:0.37;}
	.st1{opacity:0.49;}
	.st2{fill:none;stroke:#FCFFFF;stroke-miterlimit:10;}
	.st3{fill:#9E1F25;}
	.st4{fill:#CF232E;}
	.st5{fill:#F7A33B;}
	.st6{fill:#F5C032;}
	.st7{fill:#FFF6D1;}
	.st8{fill:#23763E;}
	.st9{fill:#03464F;}
	.st10{fill:#026385;}
	.st11{fill:#35BCC0;}
	.st12{fill:#018F9F;}
	.st13{fill:#A53A1C;}
	.st14{fill:#DF5330;}
	.st15{fill:#FF8039;}
	.st16{fill:#EE5E2F;}
	.st17{fill:#A51959;}
	.st18{fill:#C12573;}
	.st19{fill:#FF4DA6;}
	.st20{fill:#D2276E;}
	.st21{fill:#163A20;}
	.st22{fill:#1A5C31;}
	.st23{fill:#3E9B50;}
	.st24{fill:#41296D;}
	.st25{fill:#513C82;}
	.st26{fill:#775ABF;}
	.st27{fill:#614293;}
	.st28{fill:#6C0F13;}
	.st29{fill:#E8222E;}
	.st30{fill:#D27633;}
	.st31{fill:#DD8A34;}
	.st32{fill:#F3A634;}
	.st33{fill:none;stroke:#161616;stroke-miterlimit:10;}
	.st34{fill:#7F7973;}
	.st35{fill:#C0B5AA;}
	.st36{fill:#E4DED5;}
	.st37{fill:#514A43;}
	.st38{fill:#606161;}
	.st39{fill:#BEBFB9;}
	.st40{fill:#3A3A3A;}
	.st41{fill:#302C28;}
	.st42{fill:#161616;}
	.st43{fill:#E1E1DF;}
	.st44{fill:#757DE0;}
	.st45{fill:#CAC5FF;}
	.st46{fill:#E9ECFD;}
	.st47{fill:#FCB912;}
	.st48{fill:#FCF54D;}
	.st49{fill:none;}
	.st50{stroke:#000000;stroke-width:0.25;stroke-miterlimit:10;}
	.st51{font-family:'VCROSDMono';}
	.st52{font-size:18px;}
	.st53{fill:#FFDE01;}
	.st54{fill:#6F6252;}
	.st55{fill:#32A00D;}
</style>
<g id="layout">
</g>
<g id="Layer_3">
</g>
<g id="GUIDES">
	<g>
		<polygon class="st47" points="238.7,114.7 239.9,109.5 237.3,108.9 237.9,106.3 235.3,105.6 235.9,103 230.7,101.8 231.3,99.2 
			210.5,94.3 209.9,96.9 204.7,95.7 204.1,98.3 201.5,97.7 200.9,100.3 198.3,99.6 197.1,104.8 194.5,104.2 189.6,125 192.2,125.6 
			190.9,130.8 193.5,131.5 192.9,134.1 195.5,134.7 194.9,137.3 200.1,138.5 199.5,141.1 220.3,146 220.9,143.4 226.1,144.6 
			226.7,142 229.3,142.7 229.9,140.1 232.5,140.7 233.7,135.5 236.3,136.1 241.3,115.3 		"/>
		
			<rect x="194.6" y="104.9" transform="matrix(0.9732 0.2299 -0.2299 0.9732 31.8165 -41.9487)" class="st48" width="2.7" height="21.4"/>
		
			<rect x="200.2" y="100.5" transform="matrix(0.9732 0.2299 -0.2299 0.9732 29.1213 -43.5841)" class="st48" width="2.7" height="5.3"/>
		
			<rect x="203.7" y="98.9" transform="matrix(0.9732 0.2299 -0.2299 0.9732 28.5658 -44.7721)" class="st48" width="5.3" height="2.7"/>
		
			<rect x="209.5" y="97.8" transform="matrix(0.9732 0.2299 -0.2299 0.9732 28.5117 -46.4359)" class="st48" width="8" height="2.7"/>
		
			<rect x="207.1" y="107.6" transform="matrix(0.9732 0.2299 -0.2299 0.9732 30.6256 -45.0114)" class="st48" width="2.7" height="2.7"/>
		
			<rect x="210.3" y="105.6" transform="matrix(0.9732 0.2299 -0.2299 0.9732 30.2553 -45.8034)" class="st48" width="2.7" height="2.7"/>
	</g>
	<g>
		<polygon class="st47" points="102.8,96.3 104,91.1 101.4,90.5 102,87.9 99.4,87.3 100,84.7 94.8,83.5 95.4,80.9 74.6,76 74,78.6 
			68.8,77.3 68.2,79.9 65.6,79.3 65,81.9 62.4,81.3 61.2,86.5 58.6,85.9 53.7,106.7 56.3,107.3 55,112.5 57.6,113.1 57,115.7 
			59.6,116.3 59,118.9 64.2,120.1 63.6,122.7 84.4,127.7 85,125.1 90.2,126.3 90.8,123.7 93.4,124.3 94,121.7 96.6,122.3 
			97.8,117.1 100.4,117.7 105.4,96.9 		"/>
		
			<rect x="58.7" y="86.5" transform="matrix(0.9732 0.2299 -0.2299 0.9732 23.956 -11.1946)" class="st48" width="2.7" height="21.4"/>
		
			<rect x="64.3" y="82.1" transform="matrix(0.9732 0.2299 -0.2299 0.9732 21.2609 -12.83)" class="st48" width="2.7" height="5.3"/>
		
			<rect x="67.8" y="80.5" transform="matrix(0.9732 0.2299 -0.2299 0.9732 20.7053 -14.018)" class="st48" width="5.3" height="2.7"/>
		
			<rect x="73.6" y="79.4" transform="matrix(0.9732 0.2299 -0.2299 0.9732 20.6512 -15.6818)" class="st48" width="8" height="2.7"/>
		
			<rect x="71.2" y="89.2" transform="matrix(0.9732 0.2299 -0.2299 0.9732 22.7652 -14.2573)" class="st48" width="2.7" height="2.7"/>
		
			<rect x="74.4" y="87.2" transform="matrix(0.9732 0.2299 -0.2299 0.9732 22.3948 -15.0493)" class="st48" width="2.7" height="2.7"/>
	</g>
	<rect x="64.5" y="5.2" class="st49" width="171" height="24.8"/>
	<text transform="matrix(1 0 0 1 97.2656 18.3324)" class="st50 st51 st52">CRYPTOCHIA</text>
	<g>
		<polygon class="st47" points="85.1,50.4 83.6,44.4 80.6,45.1 79.9,42.1 76.9,42.8 76.2,39.8 70.1,41.3 69.4,38.3 45.4,44.1 
			46.1,47.1 40.1,48.6 40.9,51.6 37.9,52.3 38.6,55.3 35.6,56 37,62 34,62.7 39.9,86.8 42.9,86 44.3,92 47.3,91.3 48,94.3 51,93.6 
			51.8,96.6 57.8,95.1 58.5,98.1 82.5,92.3 81.8,89.3 87.8,87.9 87.1,84.8 90.1,84.1 89.3,81.1 92.3,80.4 90.9,74.4 93.9,73.7 
			88.1,49.6 		"/>
		<polygon class="st53" points="85.1,50.4 82.1,51.1 80.6,45.1 77.6,45.8 76.9,42.8 70.9,44.3 70.1,41.3 46.1,47.1 46.9,50.1 
			40.9,51.6 41.6,54.6 38.6,55.3 40,61.3 37,62 42.9,86 45.9,85.3 47.3,91.3 50.3,90.6 51,93.6 57,92.1 57.8,95.1 81.8,89.3 
			81.1,86.3 87.1,84.8 86.3,81.8 89.3,81.1 87.9,75.1 90.9,74.4 		"/>
		<g>
			
				<rect x="61.3" y="55.1" transform="matrix(0.9719 -0.2356 0.2356 0.9719 -11.481 17.1235)" class="st47" width="9.3" height="3.1"/>
			
				<rect x="67.1" y="79.1" transform="matrix(0.9719 -0.2356 0.2356 0.9719 -16.9743 19.1709)" class="st47" width="9.3" height="3.1"/>
			<polygon class="st47" points="56.5,63.7 57.2,66.7 54.2,67.4 55,70.4 58,69.7 58.7,72.7 55.7,73.4 56.4,76.4 59.4,75.7 
				60.1,78.7 63.1,77.9 62.4,74.9 71.4,72.8 70.7,69.8 61.7,71.9 61,68.9 70,66.7 69.2,63.7 60.2,65.9 59.5,62.9 			"/>
			
				<rect x="59.1" y="59.5" transform="matrix(0.9719 -0.2356 0.2356 0.9719 -12.6795 16.0061)" class="st47" width="3.1" height="3.1"/>
			
				<rect x="63.5" y="77.5" transform="matrix(0.9719 -0.2356 0.2356 0.9719 -16.7995 17.5416)" class="st47" width="3.1" height="3.1"/>
		</g>
		
			<rect x="39.9" y="61.3" transform="matrix(0.9719 -0.2356 0.2356 0.9719 -16.1876 11.8393)" class="st48" width="3.1" height="24.7"/>
		
			<rect x="39.3" y="54.8" transform="matrix(0.9719 -0.2356 0.2356 0.9719 -12.4984 11.2464)" class="st48" width="3.1" height="6.2"/>
		
			<rect x="41.1" y="50.8" transform="matrix(0.9719 -0.2356 0.2356 0.9719 -11.0845 11.8925)" class="st48" width="6.2" height="3.1"/>
		<rect x="46.4" y="46" transform="matrix(0.9719 -0.2356 0.2356 0.9719 -9.758 13.3532)" class="st48" width="9.3" height="3.1"/>
		
			<rect x="49.4" y="58.7" transform="matrix(0.9719 -0.2356 0.2356 0.9719 -12.7606 13.6902)" class="st48" width="3.1" height="3.1"/>
		<rect x="51.6" y="55" transform="matrix(0.9719 -0.2356 0.2356 0.9719 -11.818 14.121)" class="st48" width="3.1" height="3.1"/>
	</g>
	<g>
		<g>
			<polygon class="st54" points="90,149.9 97.5,149.9 97.5,142.6 105.1,142.6 105.1,135.2 225.3,135.2 225.3,142.6 232.8,142.6 
				232.8,149.9 240.3,149.9 240.3,186.7 232.8,186.7 232.8,194.1 225.3,194.1 225.3,201.4 105.1,201.4 105.1,194.1 97.5,194.1 
				97.5,186.7 90,186.7 			"/>
			<rect x="120.1" y="149.9" transform="matrix(-1 -4.503299e-11 4.503299e-11 -1 247.6812 314.5525)" width="7.5" height="14.7"/>
			<rect x="97.5" y="149.9" transform="matrix(-1 -4.503299e-11 4.503299e-11 -1 202.6031 314.5525)" width="7.5" height="14.7"/>
			<rect x="105.1" y="172" transform="matrix(-1 -4.479096e-11 4.479096e-11 -1 225.1422 351.3358)" width="15" height="7.4"/>
			<rect x="202.7" y="201.4" transform="matrix(-1 -4.479096e-11 4.479096e-11 -1 412.9676 432.2589)" width="7.5" height="29.4"/>
			<rect x="120.1" y="201.4" transform="matrix(-1 -4.503299e-11 4.503299e-11 -1 247.6812 432.2589)" width="7.5" height="29.4"/>
			<rect x="135.1" y="201.4" transform="matrix(-1 -4.454849e-11 4.454849e-11 -1 277.7333 432.2589)" width="7.5" height="29.4"/>
			<rect x="187.7" y="201.4" transform="matrix(-1 -4.503299e-11 4.503299e-11 -1 382.9155 432.2589)" width="7.5" height="29.4"/>
			<rect x="120.1" y="98.4" transform="matrix(-1 -4.503299e-11 4.503299e-11 -1 247.6812 233.6293)" width="7.5" height="36.8"/>
			<polygon class="st55" points="142.8,76 138,81.1 143.3,85.8 148,80.6 163.7,94.6 149.5,110 144.2,105.3 139.5,110.5 134.2,105.8 
				129.5,110.9 113.8,97 118.5,91.8 113.3,87.2 118,82.1 112.8,77.4 127.1,62 			"/>
		</g>
		<rect x="115.3" y="147" transform="matrix(-1 -4.487844e-11 4.487844e-11 -1 249.4385 314.2423)" width="18.9" height="20.1"/>
		<rect x="89" y="147" transform="matrix(-1 -4.487844e-11 4.487844e-11 -1 196.9282 314.2423)" width="18.9" height="20.1"/>
		<rect x="103.1" y="155.6" transform="matrix(-1 -4.485624e-11 4.485624e-11 -1 224.1262 315.821)" width="18" height="4.6"/>
	</g>
	<g>
		<polygon class="st47" points="279.6,228.3 280.4,222.2 277.3,221.7 277.8,218.7 274.7,218.3 275.1,215.2 269,214.4 269.4,211.3 
			244.9,207.9 244.5,211 238.4,210.2 238,213.2 234.9,212.8 234.5,215.9 231.5,215.4 230.6,221.6 227.6,221.1 224.2,245.6 
			227.3,246 226.4,252.2 229.5,252.6 229.1,255.6 232.1,256.1 231.7,259.1 237.8,260 237.4,263 261.9,266.4 262.3,263.3 
			268.4,264.2 268.8,261.1 271.9,261.5 272.3,258.5 275.4,258.9 276.2,252.8 279.3,253.2 282.6,228.7 		"/>
		<polygon class="st53" points="279.6,228.3 276.5,227.9 277.3,221.7 274.3,221.3 274.7,218.3 268.6,217.4 269,214.4 244.5,211 
			244.1,214.1 238,213.2 237.6,216.3 234.5,215.9 233.7,222 230.6,221.6 227.3,246 230.3,246.5 229.5,252.6 232.5,253 232.1,256.1 
			238.2,256.9 237.8,260 262.3,263.3 262.7,260.3 268.8,261.1 269.2,258 272.3,258.5 273.1,252.3 276.2,252.8 		"/>
		<g>
			
				<rect x="257.9" y="222.4" transform="matrix(0.136 -0.9907 0.9907 0.136 -0.7847 453.2584)" class="st47" width="3.1" height="9.3"/>
			
				<rect x="254.6" y="246.9" transform="matrix(0.136 -0.9907 0.9907 0.136 -27.9382 471.0793)" class="st47" width="3.1" height="9.3"/>
			<polygon class="st47" points="248.1,230.2 247.7,233.3 244.6,232.8 244.2,235.9 247.3,236.3 246.9,239.4 243.8,239 243.4,242 
				246.4,242.4 246,245.5 249.1,245.9 249.5,242.9 258.7,244.1 259.1,241.1 249.9,239.8 250.3,236.7 259.5,238 259.9,234.9 
				250.8,233.7 251.2,230.6 			"/>
			
				<rect x="251.4" y="227.8" transform="matrix(0.136 -0.9907 0.9907 0.136 -8.6341 448.6976)" class="st47" width="3.1" height="3.1"/>
			
				<rect x="248.9" y="246.1" transform="matrix(0.136 -0.9907 0.9907 0.136 -28.9992 462.0633)" class="st47" width="3.1" height="3.1"/>
		</g>
		
			<rect x="228.9" y="221.7" transform="matrix(0.9907 0.136 -0.136 0.9907 33.9616 -29.1648)" class="st48" width="3.1" height="24.7"/>
		
			<rect x="234.1" y="216" transform="matrix(0.9907 0.136 -0.136 0.9907 31.9862 -30.0046)" class="st48" width="3.1" height="6.2"/>
		
			<rect x="237.8" y="213.6" transform="matrix(0.9907 0.136 -0.136 0.9907 31.4963 -30.7512)" class="st48" width="6.2" height="3.1"/>
		
			<rect x="244.3" y="211.6" transform="matrix(0.9907 0.136 -0.136 0.9907 31.2979 -31.8671)" class="st48" width="9.3" height="3.1"/>
		
			<rect x="242.6" y="223.4" transform="matrix(0.9907 0.136 -0.136 0.9907 32.8611 -31.1128)" class="st48" width="3.1" height="3.1"/>
		
			<rect x="246.1" y="220.8" transform="matrix(0.9907 0.136 -0.136 0.9907 32.5344 -31.6105)" class="st48" width="3.1" height="3.1"/>
	</g>
	<g>
		<polygon class="st47" points="85.3,227.8 87.4,222.9 84.9,221.8 86,219.4 83.5,218.3 84.6,215.9 79.7,213.7 80.7,211.3 
			61.1,202.9 60,205.3 55.1,203.2 54.1,205.7 51.6,204.6 50.6,207.1 48.1,206 46,210.9 43.5,209.8 35.1,229.5 37.6,230.5 
			35.4,235.4 37.9,236.5 36.8,239 39.3,240 38.2,242.5 43.2,244.6 42.1,247 61.7,255.5 62.8,253 67.7,255.1 68.7,252.7 71.2,253.7 
			72.3,251.3 74.7,252.3 76.8,247.4 79.3,248.5 87.7,228.8 		"/>
		
			<rect x="41.7" y="210.6" transform="matrix(0.9187 0.3949 -0.3949 0.9187 90.874 1.0012)" class="st48" width="2.7" height="21.4"/>
		
			<rect x="49.4" y="207.4" transform="matrix(0.9187 0.3949 -0.3949 0.9187 87.0734 -2.9625)" class="st48" width="2.7" height="5.3"/>
		
			<rect x="53.3" y="206.6" transform="matrix(0.9187 0.3949 -0.3949 0.9187 86.6725 -5.2116)" class="st48" width="5.3" height="2.7"/>
		<rect x="59.2" y="206.8" transform="matrix(0.9187 0.3949 -0.3949 0.9187 87.3293 -8.036)" class="st48" width="8" height="2.7"/>
		
			<rect x="55.2" y="215.5" transform="matrix(0.9187 0.3949 -0.3949 0.9187 90.2466 -4.6884)" class="st48" width="2.7" height="2.7"/>
		
			<rect x="58.7" y="214.1" transform="matrix(0.9187 0.3949 -0.3949 0.9187 89.9793 -6.1878)" class="st48" width="2.7" height="2.7"/>
	</g>
</g>
</svg>
