<?xml version="1.0" encoding="utf-8"?>
<!-- Generator: Adobe Illustrator 25.2.3, SVG Export Plug-In . SVG Version: 6.00 Build 0)  -->
<svg version="1.1" xmlns="http://www.w3.org/2000/svg" xmlns:xlink="http://www.w3.org/1999/xlink" x="0px" y="0px"
	 viewBox="0 0 1108 791" style="enable-background:new 0 0 1108 791;" xml:space="preserve">
<style type="text/css">
	.st0{fill:none;stroke:#EB1C24;stroke-width:10;stroke-miterlimit:10;}
	.st1{opacity:0.54;}
	.st2{fill:#FCB912;}
	.st3{fill:#FCF54D;}
	.st4{fill:#EB1C24;}
	.st5{fill:#8A370F;}
	.st6{fill:#FFDE01;}
	.st7{fill:#FFFFFF;}
	.st8{fill:#37A01A;}
	.st9{fill:#F4CB00;}
	.st10{fill:#21851D;}
	.st11{fill:#C30C08;}
	.st12{fill:#FA5810;}
	.st13{fill:#0F4B70;}
	.st14{fill:#0B5389;}
	.st15{fill:#0C3352;}
	.st16{fill:#3279A5;}
</style>
<g id="layout">
	<rect x="-1319" y="-585" class="st0" width="855" height="757"/>
	<g class="st1">
		
			<image style="overflow:visible;" width="1300" height="1300" id="fZY8uY" xlink:href="4DDD738AE20A98AD.jpg"  transform="matrix(0.1662 0 0 0.1662 -311 235)">
		</image>
	</g>
</g>
<g id="GUIDES">
	<g>
		<polygon class="st2" points="913.2,473.6 907.8,464.8 903.3,467.5 900.6,463.1 896.2,465.8 893.5,461.3 884.6,466.8 881.9,462.3 
			846.5,484.1 849.2,488.5 840.3,493.9 843,498.4 838.6,501.1 841.3,505.5 836.9,508.2 842.3,517.1 837.9,519.8 859.6,555.2 
			864,552.5 869.5,561.4 873.9,558.7 876.6,563.1 881,560.4 883.8,564.8 892.6,559.4 895.3,563.8 930.8,542.1 928.1,537.7 
			936.9,532.2 934.2,527.8 938.6,525.1 935.9,520.7 940.4,518 934.9,509.1 939.4,506.4 917.6,470.9 		"/>
		
			<rect x="852.8" y="512.7" transform="matrix(0.8527 -0.5225 0.5225 0.8527 -152.6768 525.5003)" class="st3" width="5.2" height="41.6"/>
		
			<rect x="843.6" y="503.4" transform="matrix(0.8527 -0.5225 0.5225 0.8527 -141.0298 517.0579)" class="st3" width="5.2" height="10.4"/>
		
			<rect x="843.6" y="495.3" transform="matrix(0.8527 -0.5225 0.5225 0.8527 -135.05 516.8232)" class="st3" width="10.4" height="5.2"/>
		
			<rect x="849.4" y="484" transform="matrix(0.8527 -0.5225 0.5225 0.8527 -127.9562 519.5395)" class="st3" width="15.6" height="5.2"/>
		
			<rect x="861" y="504.5" transform="matrix(0.8527 -0.5225 0.5225 0.8527 -137.688 525.9105)" class="st3" width="5.2" height="5.2"/>
		
			<rect x="862.7" y="497.3" transform="matrix(0.8527 -0.5225 0.5225 0.8527 -133.7015 525.7541)" class="st3" width="5.2" height="5.2"/>
	</g>
	<g>
		<polygon class="st4" points="-464,352 -464,343 -473,343 -482,343 -482,352 -482,361 -491,361 -491,379 -482,379 -482,388 
			-473,388 -473,397 -482,397 -482,406 -473,406 -410,406 -410,352 		"/>
		<rect x="-491" y="334" class="st4" width="9" height="9"/>
	</g>
	<rect x="-428" y="433" width="9" height="45"/>
	<rect x="-410" y="433" width="9" height="45"/>
	<rect x="-185" y="28" class="st5" width="9" height="9"/>
	<polygon class="st6" points="-167,46 -167,37 -176,37 -176,28 -185,28 -185,37 -203,37 -203,55 -212,55 -212,91 -221,91 -221,109 
		-239,109 -239,118 -248,118 -257,118 -257,127 -275,127 -293,127 -293,136 -311,136 -311,145 -311,145 -311,154 -302,154 -302,163 
		-276,163 -276,172 -275,172 -221,172 -221,163 -203.2,163 -203,163 -203,154 -185,154 -185,145 -176,145 -176,136 -167,136 
		-167,127 -158,127 -158,82 -158,46 	"/>
	<rect x="-311" y="145" class="st5" width="9" height="9"/>
	<rect x="-194" y="19" class="st5" width="9" height="18"/>
	<rect x="-239" y="154" class="st2" width="9" height="9"/>
	<rect x="-230" y="154" class="st2" width="9" height="9"/>
	<rect x="-293" y="136" class="st2" width="9" height="9"/>
	<rect x="-230" y="145" class="st2" width="18" height="9"/>
	<rect x="-194" y="136" class="st2" width="9" height="9"/>
	<rect x="-185" y="127" class="st2" width="9" height="9"/>
	<rect x="-185" y="136" class="st2" width="9" height="9"/>
	<rect x="-176" y="109" class="st2" width="9" height="18"/>
	<rect x="-203" y="46" class="st3" width="9" height="9"/>
	<rect x="-167" y="55" class="st2" width="9" height="45"/>
	<rect x="-185" y="19" class="st5" width="9" height="9"/>
	<rect x="-185" y="10" class="st5" width="9" height="9"/>
	<rect x="-203" y="55" class="st3" width="9" height="9"/>
	<rect x="-311" y="136" class="st5" width="9" height="9"/>
	<rect x="-302" y="127" class="st7" width="18" height="9"/>
	<rect x="-383" y="307" class="st5" width="9" height="9"/>
	<polygon class="st6" points="-365,325 -365,316 -374,316 -374,307 -383,307 -383,316 -401,316 -401,334 -410,334 -410,370 
		-419,370 -419,388 -437,388 -437,397 -446,397 -455,397 -455,406 -473,406 -482,406 -482,415 -509,415 -509,424 -509,424 -509,433 
		-500,433 -500,442 -474,442 -474,451 -473,451 -419,451 -419,442 -401.2,442 -401,442 -401,433 -383,433 -383,424 -374,424 
		-374,415 -365,415 -365,406 -356,406 -356,361 -356,325 	"/>
	<rect x="-491" y="415" class="st2" width="9" height="9"/>
	<polygon class="st2" points="-428,424 -428,433 -437,433 -437,442 -419,442 -419,433 -410,433 -410,424 	"/>
	<polygon class="st2" points="-383,406 -383,415 -392,415 -392,424 -383,424 -374,424 -374,415 -374,406 	"/>
	<rect x="-374" y="388" class="st2" width="9" height="18"/>
	<rect x="-365" y="334" class="st2" width="9" height="45"/>
	<polygon class="st5" points="-383,289 -383,298 -392,298 -392,316 -383,316 -383,307 -374,307 -374,298 -374,289 	"/>
	<polygon class="st3" points="-401,325 -401,334 -401,343 -392,343 -392,334 -392,325 	"/>
	<polygon class="st5" points="-509,415 -509,424 -509,433 -500,433 -500,424 -500,415 	"/>
	<g>
		<rect x="-392" y="334" width="9" height="18"/>
	</g>
	<g>
		<rect x="-374" y="334" width="9" height="18"/>
	</g>
	<rect x="-383" y="361" width="9" height="9"/>
	<rect x="-347" y="370" width="9" height="18"/>
	<rect x="-338" y="361" width="9" height="9"/>
	<rect x="-356" y="388" width="9" height="9"/>
	<polygon class="st6" points="-752,352 -752,343 -761,343 -761,334 -770,334 -770,343 -797,343 -797,361 -806,361 -806,406 
		-824,406 -824,424 -842,424 -842,433 -851,433 -860,433 -860,442 -878,442 -887,442 -887,451 -914,451 -914,460 -914,460 -914,479 
		-905,479 -905,488 -879,488 -879,497 -878,497 -824,497 -824,488 -797.2,488 -797,488 -797,479 -770,479 -770,460 -761,460 
		-761,451 -752,451 -752,442 -743,442 -743,397 -743,352 	"/>
	<rect x="-815" y="370" class="st6" width="27" height="72"/>
	<rect x="-788" y="334" class="st6" width="18" height="54"/>
	<g>
		<polygon class="st4" points="-517.9,233.1 -520.6,227.1 -526.7,229.8 -529.4,223.8 -601.9,256.9 -599.1,262.9 -605.1,265.7 
			-602.4,271.7 -608.4,274.4 -591.9,310.7 -585.9,307.9 -580.3,320 -574.3,317.2 -571.5,323.3 -565.5,320.5 -562.8,326.5 
			-556.7,323.8 -554,329.8 -547.9,327.1 -545.2,333.1 -539.1,330.3 -536.4,336.4 -512.2,325.4 -515,319.3 -509,316.6 -511.7,310.5 
			-505.7,307.8 -508.4,301.7 -502.4,299 -505.2,292.9 -499.1,290.2 -501.9,284.2 -495.8,281.4 -501.4,269.3 -495.3,266.6 
			-511.8,230.4 		"/>
		<g>
			
				<rect x="-594.2" y="237.6" transform="matrix(0.9097 -0.4153 0.4153 0.9097 -153.4219 -223.6431)" class="st8" width="6.6" height="6.6"/>
			
				<rect x="-588.7" y="249.7" transform="matrix(0.9097 -0.4153 0.4153 0.9097 -157.9375 -220.2642)" class="st8" width="6.6" height="6.6"/>
			<polygon class="st8" points="-556.3,228.8 -562.4,231.5 -567.9,219.5 -579.9,225 -574.4,237 -580.5,239.8 -586.5,242.6 
				-583.8,248.6 -577.7,245.8 -575,251.9 -550.8,240.9 -553.6,234.8 -547.5,232.1 -550.3,226 			"/>
			
				<rect x="-546.5" y="230.4" transform="matrix(0.9097 -0.4153 0.4153 0.9097 -146.1111 -204.4597)" class="st8" width="6.6" height="6.6"/>
			
				<rect x="-552" y="218.3" transform="matrix(0.9097 -0.4153 0.4153 0.9097 -141.5955 -207.8387)" class="st8" width="6.6" height="6.6"/>
		</g>
		
			<rect x="-535.4" y="254.5" transform="matrix(0.9097 -0.4153 0.4153 0.9097 -155.1422 -197.7018)" class="st9" width="6.6" height="6.6"/>
		
			<rect x="-561.2" y="310" transform="matrix(0.9097 -0.4153 0.4153 0.9097 -180.5153 -203.3693)" class="st9" width="6.6" height="6.6"/>
		
			<rect x="-569.9" y="258.9" transform="matrix(0.9097 -0.4153 0.4153 0.9097 -160.0775 -211.6187)" class="st9" width="6.6" height="6.6"/>
		
			<rect x="-545.3" y="280.9" transform="matrix(0.9097 -0.4153 0.4153 0.9097 -166.984 -199.4066)" class="st9" width="6.6" height="6.6"/>
		
			<rect x="-518.4" y="275.9" transform="matrix(0.9097 -0.4153 0.4153 0.9097 -162.4839 -188.686)" class="st9" width="6.6" height="6.6"/>
		
			<rect x="-531.5" y="311.1" transform="matrix(0.9097 -0.4153 0.4153 0.9097 -178.2729 -190.9592)" class="st9" width="6.6" height="6.6"/>
		
			<rect x="-571.5" y="220.2" transform="matrix(0.9097 -0.4153 0.4153 0.9097 -145.5351 -215.4567)" class="st10" width="6.6" height="13.3"/>
		
			<rect x="-570.6" y="241.4" transform="matrix(0.9097 -0.4153 0.4153 0.9097 -152.869 -213.4908)" class="st10" width="6.6" height="6.6"/>
		
			<rect x="-519.7" y="304.2" transform="matrix(0.9097 -0.4153 0.4153 0.9097 -174.0492 -185.3148)" class="st11" width="13.3" height="6.6"/>
		
			<rect x="-516.4" y="295.4" transform="matrix(0.9097 -0.4153 0.4153 0.9097 -170.102 -184.7465)" class="st11" width="13.3" height="6.6"/>
		
			<rect x="-518.1" y="305.3" transform="matrix(0.9097 -0.4153 0.4153 0.9097 -176.0229 -185.5989)" class="st11" width="6.6" height="13.3"/>
		
			<rect x="-506.8" y="285.2" transform="matrix(0.9097 -0.4153 0.4153 0.9097 -165.31 -183.0493)" class="st11" width="6.6" height="6.6"/>
		
			<rect x="-504.9" y="270.1" transform="matrix(0.9097 -0.4153 0.4153 0.9097 -160.2338 -183.3257)" class="st11" width="6.6" height="13.3"/>
		
			<rect x="-509.4" y="263" transform="matrix(0.9097 -0.4153 0.4153 0.9097 -156.0024 -184.731)" class="st11" width="13.3" height="6.6"/>
		
			<rect x="-505.8" y="248.9" transform="matrix(0.9097 -0.4153 0.4153 0.9097 -152.8999 -185.2916)" class="st11" width="6.6" height="19.9"/>
		
			<rect x="-526.3" y="321.8" transform="matrix(0.9097 -0.4153 0.4153 0.9097 -181.9438 -186.4514)" class="st11" width="13.3" height="6.6"/>
		
			<rect x="-595.8" y="275.4" transform="matrix(0.9097 -0.4153 0.4153 0.9097 -172.0371 -220.2796)" class="st12" width="6.6" height="19.9"/>
		
			<rect x="-595.3" y="267.3" transform="matrix(0.9097 -0.4153 0.4153 0.9097 -165.832 -221.4008)" class="st12" width="6.6" height="6.6"/>
		
			<rect x="-592" y="258.5" transform="matrix(0.9097 -0.4153 0.4153 0.9097 -161.8848 -220.8325)" class="st12" width="6.6" height="6.6"/>
		
			<rect x="-583.7" y="276.6" transform="matrix(0.9097 -0.4153 0.4153 0.9097 -168.6581 -215.764)" class="st9" width="6.6" height="6.6"/>
		
			<rect x="-582.9" y="291.1" transform="matrix(0.9097 -0.4153 0.4153 0.9097 -175.9921 -213.7981)" class="st12" width="6.6" height="13.3"/>
	</g>
	<rect x="-410" y="370" width="9" height="18"/>
	<rect x="-401" y="361" width="9" height="9"/>
	<rect x="-419" y="388" width="9" height="9"/>
	<g>
		<g>
			<polygon class="st4" points="266.2,289.3 266.2,267.5 244.4,267.5 222.5,267.5 222.5,289.3 222.5,311.1 200.7,311.1 200.7,354.8 
				222.5,354.8 222.5,376.7 244.4,376.7 244.4,398.5 222.5,398.5 222.5,420.3 244.4,420.3 397.2,420.3 397.2,289.3 			"/>
			<rect x="200.7" y="245.6" class="st4" width="21.8" height="21.8"/>
		</g>
		<rect x="353.5" y="485.8" width="21.8" height="109.2"/>
		<rect x="397.2" y="485.8" width="21.8" height="109.2"/>
		<rect x="462.7" y="180.1" class="st5" width="21.8" height="21.8"/>
		<polygon class="st6" points="506.4,223.8 506.4,202 484.6,202 484.6,180.1 462.7,180.1 462.7,202 419,202 419,245.6 397.2,245.6 
			397.2,333 375.4,333 375.4,376.7 331.7,376.7 331.7,398.5 309.9,398.5 288,398.5 288,420.3 244.4,420.3 222.5,420.3 222.5,442.2 
			157,442.2 157,464 157,464 157,485.8 178.9,485.8 178.9,507.7 241.9,507.7 241.9,529.5 244.4,529.5 375.4,529.5 375.4,507.7 
			418.6,507.7 419,507.7 419,485.8 462.7,485.8 462.7,464 484.6,464 484.6,442.2 506.4,442.2 506.4,420.3 528.2,420.3 528.2,311.1 
			528.2,223.8 		"/>
		<rect x="200.7" y="442.2" class="st2" width="21.8" height="21.8"/>
		<polygon class="st2" points="353.5,464 353.5,485.8 331.7,485.8 331.7,507.7 375.4,507.7 375.4,485.8 397.2,485.8 397.2,464 		"/>
		<polygon class="st2" points="462.7,420.3 462.7,442.2 440.9,442.2 440.9,464 462.7,464 484.6,464 484.6,442.2 484.6,420.3 		"/>
		<rect x="484.6" y="376.7" class="st2" width="21.8" height="43.7"/>
		<rect x="506.4" y="245.6" class="st2" width="21.8" height="109.2"/>
		<polygon class="st5" points="462.7,136.5 462.7,158.3 440.9,158.3 440.9,202 462.7,202 462.7,180.1 484.6,180.1 484.6,158.3 
			484.6,136.5 		"/>
		<polygon class="st3" points="419,223.8 419,245.6 419,267.5 440.9,267.5 440.9,245.6 440.9,223.8 		"/>
		<polygon class="st5" points="157,442.2 157,464 157,485.8 178.9,485.8 178.9,464 178.9,442.2 		"/>
		<g>
			<rect x="440.9" y="245.6" width="21.8" height="43.7"/>
		</g>
		<g>
			<rect x="484.6" y="245.6" width="21.8" height="43.7"/>
		</g>
		<rect x="462.7" y="311.1" width="21.8" height="21.8"/>
		<rect x="550.1" y="333" width="21.8" height="43.7"/>
		<rect x="571.9" y="311.1" width="21.8" height="21.8"/>
		<rect x="528.2" y="376.7" width="21.8" height="21.8"/>
		<rect x="397.2" y="333" width="21.8" height="43.7"/>
		<rect x="419" y="311.1" width="21.8" height="21.8"/>
		<rect x="375.4" y="376.7" width="21.8" height="21.8"/>
	</g>
	<polygon class="st2" points="-131,307 -131,289 -140,289 -140,280 -149,280 -149,271 -167,271 -167,262 -239,262 -239,271 
		-257,271 -257,280 -266,280 -266,289 -275,289 -275,307 -284,307 -284,379 -275,379 -275,397 -266,397 -266,406 -257,406 -257,415 
		-239,415 -239,424 -167,424 -167,415 -149,415 -149,406 -140,406 -140,397 -131,397 -131,379 -122,379 -122,307 	"/>
	<polygon class="st6" points="-131,307 -140,307 -140,289 -149,289 -149,280 -167,280 -167,271 -239,271 -239,280 -257,280 
		-257,289 -266,289 -266,307 -275,307 -275,379 -266,379 -266,397 -257,397 -257,406 -239,406 -239,415 -167,415 -167,406 -149,406 
		-149,397 -140,397 -140,379 -131,379 	"/>
	<g>
		<rect x="-203" y="307" class="st2" width="27" height="9"/>
		<rect x="-203" y="379" class="st2" width="27" height="9"/>
		<polygon class="st2" points="-221,325 -221,334 -230,334 -230,343 -221,343 -221,352 -230,352 -230,361 -221,361 -221,370 
			-212,370 -212,361 -185,361 -185,352 -212,352 -212,343 -185,343 -185,334 -212,334 -212,325 		"/>
		<rect x="-212" y="316" class="st2" width="9" height="9"/>
		<rect x="-212" y="370" class="st2" width="9" height="9"/>
	</g>
	<rect x="-275" y="307" class="st3" width="9" height="72"/>
	<rect x="-266" y="289" class="st3" width="9" height="18"/>
	<rect x="-257" y="280" class="st3" width="18" height="9"/>
	<rect x="-239" y="271" class="st3" width="27" height="9"/>
	<rect x="-239" y="307" class="st3" width="9" height="9"/>
	<rect x="-230" y="298" class="st3" width="9" height="9"/>
	<g>
		<polygon class="st2" points="793.4,261.6 790.9,251.5 785.9,252.8 784.7,247.7 779.6,249 778.4,243.9 768.3,246.4 767,241.4 
			726.7,251.4 727.9,256.4 717.8,258.9 719.1,263.9 714,265.2 715.3,270.2 710.2,271.5 712.7,281.6 707.7,282.8 717.7,323.2 
			722.7,321.9 725.2,332 730.3,330.8 731.5,335.8 736.5,334.6 737.8,339.6 747.9,337.1 749.1,342.2 789.5,332.2 788.2,327.1 
			798.3,324.6 797.1,319.6 802.1,318.3 800.9,313.3 805.9,312 803.4,302 808.5,300.7 798.5,260.3 		"/>
		<polygon class="st6" points="793.4,261.6 788.4,262.8 785.9,252.8 780.9,254 779.6,249 769.5,251.5 768.3,246.4 727.9,256.4 
			729.2,261.4 719.1,263.9 720.3,269 715.3,270.2 717.8,280.3 712.7,281.6 722.7,321.9 727.8,320.7 730.3,330.8 735.3,329.5 
			736.5,334.6 746.6,332.1 747.9,337.1 788.2,327.1 787,322.1 797.1,319.6 795.8,314.5 800.9,313.3 798.4,303.2 803.4,302 		"/>
		<g>
			
				<rect x="753.5" y="269.6" transform="matrix(0.9707 -0.2402 0.2402 0.9707 -43.1046 190.8405)" class="st2" width="15.6" height="5.2"/>
			
				<rect x="763.5" y="310" transform="matrix(0.9707 -0.2402 0.2402 0.9707 -52.5069 194.4213)" class="st2" width="15.6" height="5.2"/>
			<polygon class="st2" points="745.5,284.2 746.7,289.2 741.7,290.5 742.9,295.5 748,294.3 749.2,299.3 744.2,300.6 745.4,305.6 
				750.5,304.4 751.7,309.4 756.8,308.1 755.5,303.1 770.7,299.4 769.4,294.3 754.3,298.1 753,293 768.2,289.3 766.9,284.2 
				751.8,288 750.5,282.9 			"/>
			
				<rect x="749.8" y="277.2" transform="matrix(0.9707 -0.2402 0.2402 0.9707 -45.1751 188.9376)" class="st2" width="5.2" height="5.2"/>
			
				<rect x="757.3" y="307.4" transform="matrix(0.9707 -0.2402 0.2402 0.9707 -52.2268 191.6232)" class="st2" width="5.2" height="5.2"/>
		</g>
		
			<rect x="717.6" y="280.3" transform="matrix(0.9707 -0.2402 0.2402 0.9707 -51.2465 181.8296)" class="st3" width="5.2" height="41.6"/>
		
			<rect x="716.4" y="269.5" transform="matrix(0.9707 -0.2402 0.2402 0.9707 -44.9224 180.7669)" class="st3" width="5.2" height="10.4"/>
		
			<rect x="719.5" y="262.6" transform="matrix(0.9707 -0.2402 0.2402 0.9707 -42.4881 181.8584)" class="st3" width="10.4" height="5.2"/>
		
			<rect x="728.3" y="254.5" transform="matrix(0.9707 -0.2402 0.2402 0.9707 -40.1938 184.349)" class="st3" width="15.6" height="5.2"/>
		
			<rect x="733.5" y="275.9" transform="matrix(0.9707 -0.2402 0.2402 0.9707 -45.3426 184.9641)" class="st3" width="5.2" height="5.2"/>
		
			<rect x="737.2" y="269.6" transform="matrix(0.9707 -0.2402 0.2402 0.9707 -43.7197 185.6918)" class="st3" width="5.2" height="5.2"/>
	</g>
	<g>
		<polygon class="st2" points="911,542.1 913.3,532 908.3,530.8 909.5,525.7 904.4,524.5 905.6,519.5 895.5,517.1 896.7,512 
			856.2,502.5 855,507.5 844.9,505.1 843.7,510.2 838.7,509 837.5,514.1 832.4,512.9 830,523 825,521.8 815.4,562.2 820.5,563.4 
			818.1,573.5 823.1,574.7 821.9,579.8 827,581 825.8,586.1 835.9,588.4 834.7,593.5 875.2,603.1 876.4,598 886.5,600.4 
			887.7,595.3 892.8,596.5 893.9,591.5 899,592.7 901.4,582.6 906.5,583.7 916,543.3 		"/>
		<polygon class="st6" points="911,542.1 905.9,540.9 908.3,530.8 903.2,529.6 904.4,524.5 894.3,522.1 895.5,517.1 855,507.5 
			853.8,512.6 843.7,510.2 842.5,515.2 837.5,514.1 835.1,524.2 830,523 820.5,563.4 825.5,564.6 823.1,574.7 828.2,575.9 827,581 
			837.1,583.4 835.9,588.4 876.4,598 877.6,592.9 887.7,595.3 888.9,590.3 893.9,591.5 896.3,581.4 901.4,582.6 		"/>
		<g>
			
				<rect x="874.9" y="529.1" transform="matrix(0.2299 -0.9732 0.9732 0.2299 153.2608 1267.3896)" class="st2" width="5.2" height="15.6"/>
			
				<rect x="865.3" y="569.5" transform="matrix(0.2299 -0.9732 0.9732 0.2299 106.5214 1289.2456)" class="st2" width="5.2" height="15.6"/>
			<polygon class="st2" points="858,540.3 856.8,545.3 851.7,544.1 850.5,549.2 855.6,550.4 854.4,555.4 849.3,554.2 848.1,559.3 
				853.2,560.5 852,565.5 857.1,566.7 858.3,561.7 873.4,565.3 874.6,560.2 859.5,556.6 860.7,551.6 875.8,555.2 877,550.1 
				861.8,546.5 863,541.5 			"/>
			
				<rect x="863.6" y="536.9" transform="matrix(0.2299 -0.9732 0.9732 0.2299 141.9544 1258.4368)" class="st2" width="5.2" height="5.2"/>
			
				<rect x="856.4" y="567.3" transform="matrix(0.2299 -0.9732 0.9732 0.2299 106.8998 1274.8287)" class="st2" width="5.2" height="5.2"/>
		</g>
		
			<rect x="825.2" y="523" transform="matrix(0.9732 0.2299 -0.2299 0.9732 147.207 -175.7542)" class="st3" width="5.2" height="41.6"/>
		
			<rect x="836.2" y="514.5" transform="matrix(0.9732 0.2299 -0.2299 0.9732 141.9629 -178.9362)" class="st3" width="5.2" height="10.4"/>
		
			<rect x="843" y="511.3" transform="matrix(0.9732 0.2299 -0.2299 0.9732 140.882 -181.2478)" class="st3" width="10.4" height="5.2"/>
		
			<rect x="854.2" y="509.2" transform="matrix(0.9732 0.2299 -0.2299 0.9732 140.7767 -184.4852)" class="st3" width="15.6" height="5.2"/>
		
			<rect x="849.6" y="528.3" transform="matrix(0.9732 0.2299 -0.2299 0.9732 144.8899 -181.7135)" class="st3" width="5.2" height="5.2"/>
		
			<rect x="855.8" y="524.4" transform="matrix(0.9732 0.2299 -0.2299 0.9732 144.1693 -183.2545)" class="st3" width="5.2" height="5.2"/>
	</g>
	<g>
		<polygon class="st2" points="806.6,452.9 809,442.8 804,441.6 805.2,436.5 800.1,435.4 801.3,430.3 791.2,427.9 792.4,422.8 
			751.9,413.3 750.7,418.3 740.6,416 739.4,421 734.3,419.8 733.2,424.9 728.1,423.7 725.7,433.8 720.6,432.6 711.1,473.1 
			716.1,474.3 713.8,484.4 718.8,485.6 717.6,490.6 722.7,491.8 721.5,496.9 731.6,499.3 730.4,504.3 770.9,513.9 772.1,508.8 
			782.2,511.2 783.4,506.2 788.4,507.4 789.6,502.3 794.7,503.5 797.1,493.4 802.1,494.6 811.7,454.1 		"/>
		
			<rect x="720.9" y="433.8" transform="matrix(0.9732 0.2299 -0.2299 0.9732 123.909 -154.1573)" class="st3" width="5.2" height="41.6"/>
		
			<rect x="731.9" y="425.3" transform="matrix(0.9732 0.2299 -0.2299 0.9732 118.6649 -157.3393)" class="st3" width="5.2" height="10.4"/>
		
			<rect x="738.7" y="422.1" transform="matrix(0.9732 0.2299 -0.2299 0.9732 117.5839 -159.6509)" class="st3" width="10.4" height="5.2"/>
		
			<rect x="749.9" y="420.1" transform="matrix(0.9732 0.2299 -0.2299 0.9732 117.4786 -162.8883)" class="st3" width="15.6" height="5.2"/>
		
			<rect x="745.3" y="439.1" transform="matrix(0.9732 0.2299 -0.2299 0.9732 121.5919 -160.1165)" class="st3" width="5.2" height="5.2"/>
		
			<rect x="751.5" y="435.2" transform="matrix(0.9732 0.2299 -0.2299 0.9732 120.8712 -161.6576)" class="st3" width="5.2" height="5.2"/>
	</g>
	<g>
		<polygon class="st2" points="911.2,229.1 913.6,219 908.5,217.8 909.7,212.7 904.7,211.5 905.9,206.5 895.7,204.1 896.9,199 
			856.5,189.5 855.3,194.5 845.2,192.1 844,197.2 838.9,196 837.7,201.1 832.7,199.9 830.3,210 825.2,208.8 815.6,249.3 
			820.7,250.4 818.3,260.6 823.4,261.8 822.2,266.8 827.2,268 826,273.1 836.2,275.5 835,280.5 875.4,290.1 876.6,285 886.7,287.4 
			887.9,282.3 893,283.5 894.2,278.5 899.2,279.7 901.6,269.6 906.7,270.8 916.2,230.3 		"/>
		
			<rect x="825.4" y="210" transform="matrix(0.9732 0.2299 -0.2299 0.9732 75.2513 -184.1938)" class="st3" width="5.2" height="41.6"/>
		
			<rect x="836.4" y="201.5" transform="matrix(0.9732 0.2299 -0.2299 0.9732 70.0072 -187.3758)" class="st3" width="5.2" height="10.4"/>
		
			<rect x="843.2" y="198.3" transform="matrix(0.9732 0.2299 -0.2299 0.9732 68.9263 -189.6874)" class="st3" width="10.4" height="5.2"/>
		
			<rect x="854.5" y="196.3" transform="matrix(0.9732 0.2299 -0.2299 0.9732 68.821 -192.9249)" class="st3" width="15.6" height="5.2"/>
		
			<rect x="849.8" y="215.3" transform="matrix(0.9732 0.2299 -0.2299 0.9732 72.9342 -190.1531)" class="st3" width="5.2" height="5.2"/>
		
			<rect x="856.1" y="211.4" transform="matrix(0.9732 0.2299 -0.2299 0.9732 72.2136 -191.6942)" class="st3" width="5.2" height="5.2"/>
	</g>
	<g>
		<polygon class="st2" points="893,150.1 895.3,140 890.3,138.8 891.5,133.7 886.4,132.5 887.6,127.5 877.5,125.1 878.7,120 
			838.2,110.5 837,115.5 826.9,113.1 825.7,118.2 820.7,117 819.5,122.1 814.4,120.9 812,131 807,129.8 797.4,170.2 802.5,171.4 
			800.1,181.5 805.1,182.7 803.9,187.8 809,189 807.8,194.1 817.9,196.4 816.7,201.5 857.2,211.1 858.4,206 868.5,208.4 
			869.7,203.3 874.8,204.5 875.9,199.5 881,200.7 883.4,190.6 888.5,191.7 898,151.3 		"/>
		<polygon class="st6" points="893,150.1 887.9,148.9 890.3,138.8 885.2,137.6 886.4,132.5 876.3,130.1 877.5,125.1 837,115.5 
			835.8,120.6 825.7,118.2 824.5,123.2 819.5,122.1 817.1,132.2 812,131 802.5,171.4 807.5,172.6 805.1,182.7 810.2,183.9 809,189 
			819.1,191.4 817.9,196.4 858.4,206 859.6,200.9 869.7,203.3 870.9,198.3 875.9,199.5 878.3,189.4 883.4,190.6 		"/>
		<g>
			
				<rect x="856.9" y="137.1" transform="matrix(0.2299 -0.9732 0.9732 0.2299 520.8975 948.0006)" class="st2" width="5.2" height="15.6"/>
			
				<rect x="847.3" y="177.5" transform="matrix(0.2299 -0.9732 0.9732 0.2299 474.1581 969.8566)" class="st2" width="5.2" height="15.6"/>
			<polygon class="st2" points="840,148.3 838.8,153.3 833.7,152.1 832.5,157.2 837.6,158.4 836.4,163.4 831.3,162.2 830.1,167.3 
				835.2,168.5 834,173.5 839.1,174.7 840.3,169.7 855.4,173.3 856.6,168.2 841.5,164.6 842.7,159.6 857.8,163.2 859,158.1 
				843.8,154.5 845,149.5 			"/>
			
				<rect x="845.6" y="144.9" transform="matrix(0.2299 -0.9732 0.9732 0.2299 509.591 939.0478)" class="st2" width="5.2" height="5.2"/>
			
				<rect x="838.4" y="175.3" transform="matrix(0.2299 -0.9732 0.9732 0.2299 474.5365 955.4398)" class="st2" width="5.2" height="5.2"/>
		</g>
		
			<rect x="807.2" y="131" transform="matrix(0.9732 0.2299 -0.2299 0.9732 56.5961 -182.1175)" class="st3" width="5.2" height="41.6"/>
		
			<rect x="818.2" y="122.5" transform="matrix(0.9732 0.2299 -0.2299 0.9732 51.352 -185.2995)" class="st3" width="5.2" height="10.4"/>
		
			<rect x="825" y="119.3" transform="matrix(0.9732 0.2299 -0.2299 0.9732 50.271 -187.6112)" class="st3" width="10.4" height="5.2"/>
		
			<rect x="836.2" y="117.2" transform="matrix(0.9732 0.2299 -0.2299 0.9732 50.1657 -190.8486)" class="st3" width="15.6" height="5.2"/>
		
			<rect x="831.6" y="136.3" transform="matrix(0.9732 0.2299 -0.2299 0.9732 54.2789 -188.0768)" class="st3" width="5.2" height="5.2"/>
		
			<rect x="837.8" y="132.4" transform="matrix(0.9732 0.2299 -0.2299 0.9732 53.5583 -189.6179)" class="st3" width="5.2" height="5.2"/>
	</g>
	<g>
		<polygon class="st2" points="914,348.6 912.9,338.2 907.7,338.8 907.2,333.6 902,334.2 901.4,329 891.1,330.2 890.5,325 
			849.2,329.6 849.8,334.8 839.4,335.9 840,341.1 834.8,341.6 835.4,346.8 830.2,347.4 831.4,357.7 826.2,358.3 830.8,399.6 
			836,399 837.1,409.4 842.3,408.8 842.8,413.9 848,413.4 848.6,418.5 858.9,417.4 859.5,422.6 900.8,418 900.2,412.8 910.6,411.7 
			910,406.5 915.2,406 914.6,400.8 919.7,400.2 918.6,389.9 923.8,389.3 919.2,348 		"/>
		<polygon class="st6" points="914,348.6 908.9,349.1 907.7,338.8 902.6,339.4 902,334.2 891.7,335.4 891.1,330.2 849.8,334.8 
			850.3,339.9 840,341.1 840.6,346.2 835.4,346.8 836.6,357.1 831.4,357.7 836,399 841.1,398.5 842.3,408.8 847.4,408.2 848,413.4 
			858.3,412.2 858.9,417.4 900.2,412.8 899.7,407.7 910,406.5 909.4,401.4 914.6,400.8 913.4,390.5 918.6,389.9 		"/>
		<g>
			
				<rect x="873" y="352.3" transform="matrix(0.9939 -0.1099 0.1099 0.9939 -33.6522 98.9021)" class="st2" width="15.6" height="5.2"/>
			
				<rect x="877.5" y="393.6" transform="matrix(0.9939 -0.1099 0.1099 0.9939 -38.1642 99.654)" class="st2" width="15.6" height="5.2"/>
			<polygon class="st2" points="863.5,364.6 864.1,369.8 858.9,370.3 859.5,375.5 864.7,374.9 865.2,380.1 860.1,380.7 860.6,385.8 
				865.8,385.3 866.4,390.4 871.5,389.9 871,384.7 886.5,383 885.9,377.8 870.4,379.5 869.8,374.4 885.3,372.7 884.8,367.5 
				869.3,369.2 868.7,364 			"/>
			
				<rect x="868.4" y="358.6" transform="matrix(0.9939 -0.1099 0.1099 0.9939 -34.4042 97.8681)" class="st2" width="5.2" height="5.2"/>
			
				<rect x="871.8" y="389.6" transform="matrix(0.9939 -0.1099 0.1099 0.9939 -37.7882 98.432)" class="st2" width="5.2" height="5.2"/>
		</g>
		
			<rect x="833.7" y="357.3" transform="matrix(0.9939 -0.1099 0.1099 0.9939 -36.4721 94.155)" class="st3" width="5.2" height="41.6"/>
		
			<rect x="836" y="346.5" transform="matrix(0.9939 -0.1099 0.1099 0.9939 -33.558 94.2491)" class="st3" width="5.2" height="10.4"/>
		
			<rect x="840.3" y="340.5" transform="matrix(0.9939 -0.1099 0.1099 0.9939 -32.5711 94.9541)" class="st3" width="10.4" height="5.2"/>
		
			<rect x="850" y="333.9" transform="matrix(0.9939 -0.1099 0.1099 0.9939 -31.7721 96.2702)" class="st3" width="15.6" height="5.2"/>
		
			<rect x="852.3" y="355.1" transform="matrix(0.9939 -0.1099 0.1099 0.9939 -34.1221 96.0821)" class="st3" width="5.2" height="5.2"/>
		
			<rect x="856.9" y="349.4" transform="matrix(0.9939 -0.1099 0.1099 0.9939 -33.4641 96.5521)" class="st3" width="5.2" height="5.2"/>
	</g>
	<g>
		<polygon class="st2" points="779.2,615.1 781.6,605 776.6,603.8 777.8,598.8 772.7,597.6 773.9,592.5 763.8,590.1 765,585.1 
			724.5,575.5 723.3,580.6 713.2,578.2 712,583.2 707,582 705.8,587.1 700.7,585.9 698.3,596 693.3,594.8 683.7,635.3 688.8,636.5 
			686.4,646.6 691.4,647.8 690.2,652.8 695.3,654 694.1,659.1 704.2,661.5 703,666.5 743.5,676.1 744.7,671 754.8,673.4 756,668.4 
			761,669.6 762.2,664.5 767.3,665.7 769.7,655.6 774.7,656.8 784.3,616.3 		"/>
		<polygon class="st6" points="779.2,615.1 774.2,613.9 776.6,603.8 771.5,602.6 772.7,597.6 762.6,595.2 763.8,590.1 723.3,580.6 
			722.1,585.6 712,583.2 710.8,588.3 705.8,587.1 703.4,597.2 698.3,596 688.8,636.5 693.8,637.7 691.4,647.8 696.5,649 695.3,654 
			705.4,656.4 704.2,661.5 744.7,671 745.9,666 756,668.4 757.2,663.3 762.2,664.5 764.6,654.4 769.7,655.6 		"/>
		<g>
			
				<rect x="743.2" y="602.1" transform="matrix(0.2299 -0.9732 0.9732 0.2299 -19.2455 1195.4434)" class="st2" width="5.2" height="15.6"/>
			
				<rect x="733.6" y="642.5" transform="matrix(0.2299 -0.9732 0.9732 0.2299 -65.9849 1217.2994)" class="st2" width="5.2" height="15.6"/>
			<polygon class="st2" points="726.3,613.3 725.1,618.3 720,617.2 718.8,622.2 723.9,623.4 722.7,628.5 717.6,627.3 716.4,632.3 
				721.5,633.5 720.3,638.6 725.4,639.8 726.5,634.7 741.7,638.3 742.9,633.2 727.7,629.7 728.9,624.6 744.1,628.2 745.3,623.1 
				730.1,619.5 731.3,614.5 			"/>
			
				<rect x="731.9" y="610" transform="matrix(0.2299 -0.9732 0.9732 0.2299 -30.5519 1186.4906)" class="st2" width="5.2" height="5.2"/>
			
				<rect x="724.7" y="640.3" transform="matrix(0.2299 -0.9732 0.9732 0.2299 -65.6065 1202.8826)" class="st2" width="5.2" height="5.2"/>
		</g>
		
			<rect x="693.5" y="596" transform="matrix(0.9732 0.2299 -0.2299 0.9732 160.4698 -143.5136)" class="st3" width="5.2" height="41.6"/>
		
			<rect x="704.5" y="587.5" transform="matrix(0.9732 0.2299 -0.2299 0.9732 155.2256 -146.6956)" class="st3" width="5.2" height="10.4"/>
		
			<rect x="711.3" y="584.3" transform="matrix(0.9732 0.2299 -0.2299 0.9732 154.1447 -149.0073)" class="st3" width="10.4" height="5.2"/>
		
			<rect x="722.5" y="582.3" transform="matrix(0.9732 0.2299 -0.2299 0.9732 154.0394 -152.2447)" class="st3" width="15.6" height="5.2"/>
		
			<rect x="717.9" y="601.3" transform="matrix(0.9732 0.2299 -0.2299 0.9732 158.1526 -149.4729)" class="st3" width="5.2" height="5.2"/>
		
			<rect x="724.1" y="597.4" transform="matrix(0.9732 0.2299 -0.2299 0.9732 157.432 -151.014)" class="st3" width="5.2" height="5.2"/>
	</g>
	<rect x="585" y="460" width="54" height="9"/>
	<rect x="585" y="487" width="54" height="9"/>
	<g>
		
			<rect x="532" y="634.6" transform="matrix(0.9983 5.906362e-02 -5.906362e-02 0.9983 38.6838 -30.5691)" class="st13" width="9" height="9"/>
		<g>
			<polygon class="st14" points="562.4,582 553.4,581.5 553.9,572.5 544.9,572 545.5,563 482.6,559.3 482,568.3 473.1,567.7 
				472.5,576.7 463.5,576.2 460.9,621.1 469.9,621.6 469.3,630.6 478.3,631.1 477.8,640.1 540.7,643.9 541.2,634.9 550.2,635.4 
				550.7,626.4 559.7,626.9 			"/>
			
				<rect x="489.2" y="579" transform="matrix(0.9983 5.906362e-02 -5.906362e-02 0.9983 35.359 -29.2036)" class="st15" width="45" height="9"/>
			
				<rect x="498.2" y="570" transform="matrix(0.9983 5.906362e-02 -5.906362e-02 0.9983 35.359 -29.2036)" class="st15" width="27" height="27"/>
			
				<rect x="470.9" y="594.9" transform="matrix(0.9983 5.906362e-02 -5.906362e-02 0.9983 36.5002 -27.0259)" class="st16" width="9" height="18"/>
			
				<rect x="479.1" y="613.4" transform="matrix(0.9983 5.906362e-02 -5.906362e-02 0.9983 37.3419 -27.485)" class="st16" width="9" height="9"/>
			
				<rect x="541.5" y="626.1" transform="matrix(0.9983 5.906362e-02 -5.906362e-02 0.9983 38.2011 -31.1459)" class="st13" width="9" height="9"/>
			
				<rect x="551" y="617.7" transform="matrix(0.9983 5.906362e-02 -5.906362e-02 0.9983 37.7185 -31.7227)" class="st13" width="9" height="9"/>
			
				<rect x="534.6" y="589.7" transform="matrix(0.9983 5.906362e-02 -5.906362e-02 0.9983 36.0352 -30.8045)" class="st16" width="9" height="9"/>
		</g>
	</g>
	<g>
		<polygon class="st14" points="284.9,577.7 276.9,577.4 277.3,569.4 269.3,569 269.7,561 213.8,558.4 213.4,566.4 205.4,566 
			205,574 197,573.6 195.2,613.6 203.1,613.9 202.8,621.9 210.8,622.3 210.4,630.3 266.3,632.9 266.7,624.9 274.7,625.3 
			275.1,617.3 283.1,617.7 		"/>
		
			<rect x="219.9" y="575.6" transform="matrix(0.9989 4.686845e-02 -4.686845e-02 0.9989 27.4295 -10.6071)" class="st15" width="40" height="8"/>
		
			<rect x="227.9" y="567.6" transform="matrix(0.9989 4.686845e-02 -4.686845e-02 0.9989 27.4295 -10.6071)" class="st15" width="24" height="24"/>
		
			<rect x="203.9" y="590.1" transform="matrix(0.9989 4.686845e-02 -4.686845e-02 0.9989 28.2624 -9.0863)" class="st16" width="8" height="16"/>
		
			<rect x="211.3" y="606.5" transform="matrix(0.9989 4.686845e-02 -4.686845e-02 0.9989 28.8499 -9.4209)" class="st16" width="8" height="8"/>
		
			<rect x="258.5" y="624.7" transform="matrix(0.9989 4.686845e-02 -4.686845e-02 0.9989 29.7563 -11.6129)" class="st13" width="8" height="8"/>
		
			<rect x="266.9" y="617.1" transform="matrix(0.9989 4.686845e-02 -4.686845e-02 0.9989 29.4085 -12.0134)" class="st13" width="8" height="8"/>
		
			<rect x="275.3" y="609.5" transform="matrix(0.9989 4.686845e-02 -4.686845e-02 0.9989 29.0607 -12.4138)" class="st13" width="8" height="8"/>
		
			<rect x="268.8" y="577.2" transform="matrix(0.9989 4.686845e-02 -4.686845e-02 0.9989 27.5379 -12.1451)" class="st16" width="8" height="8"/>
	</g>
	<g>
		<polygon class="st14" points="348.7,127.6 340.7,128.4 339.9,120.5 332,121.3 331.2,113.3 275.5,118.8 276.2,126.8 268.3,127.5 
			269.1,135.5 261.1,136.3 265,176.1 273,175.3 273.8,183.3 281.7,182.5 282.5,190.4 338.2,184.9 337.5,177 345.4,176.2 
			344.6,168.2 352.6,167.4 		"/>
		
			<rect x="284.4" y="132" transform="matrix(0.9952 -9.819666e-02 9.819666e-02 0.9952 -11.8866 30.5479)" class="st15" width="40" height="8"/>
		
			<rect x="292.4" y="124" transform="matrix(0.9952 -9.819666e-02 9.819666e-02 0.9952 -11.8866 30.5479)" class="st15" width="24" height="24"/>
		
			<rect x="271.4" y="151" transform="matrix(0.9952 -9.819666e-02 9.819666e-02 0.9952 -14.2812 27.8115)" class="st16" width="8" height="16"/>
		
			<rect x="280.5" y="166.1" transform="matrix(0.9952 -9.819666e-02 9.819666e-02 0.9952 -15.3326 28.7629)" class="st16" width="8" height="8"/>
		
			<rect x="329.9" y="177.4" transform="matrix(0.9952 -9.819666e-02 9.819666e-02 0.9952 -16.1948 33.662)" class="st13" width="8" height="8"/>
		
			<rect x="337.1" y="168.6" transform="matrix(0.9952 -9.819666e-02 9.819666e-02 0.9952 -15.3012 34.3244)" class="st13" width="8" height="8"/>
		
			<rect x="344.2" y="159.9" transform="matrix(0.9952 -9.819666e-02 9.819666e-02 0.9952 -14.4076 34.9867)" class="st13" width="8" height="8"/>
		
			<rect x="333.1" y="128.8" transform="matrix(0.9952 -9.819666e-02 9.819666e-02 0.9952 -11.4113 33.7463)" class="st16" width="8" height="8"/>
	</g>
</g>
<g id="top_lines">
</g>
</svg>
