<?xml version="1.0" encoding="utf-8"?>
<!-- Generator: Adobe Illustrator 25.2.3, SVG Export Plug-In . SVG Version: 6.00 Build 0)  -->
<svg version="1.1" xmlns="http://www.w3.org/2000/svg" xmlns:xlink="http://www.w3.org/1999/xlink" x="0px" y="0px"
	 viewBox="0 0 1108 791" style="enable-background:new 0 0 1108 791;" xml:space="preserve">
<style type="text/css">
	.st0{fill:none;stroke:#EB1C24;stroke-width:10;stroke-miterlimit:10;}
	.st1{opacity:0.54;}
	.st2{fill:#EB1C24;}
	.st3{fill:#8A370F;}
	.st4{fill:#FFDE01;}
	.st5{fill:#FCB912;}
	.st6{fill:#FCF54D;}
	.st7{fill:#FFFFFF;}
	.st8{fill:#37A01A;}
	.st9{fill:#F4CB00;}
	.st10{fill:#21851D;}
	.st11{fill:#C30C08;}
	.st12{fill:#FA5810;}
	.st13{fill:#0F4B70;}
	.st14{fill:#0B5389;}
	.st15{fill:#0C3352;}
	.st16{fill:#3279A5;}
	.st17{fill:none;stroke:#000000;stroke-miterlimit:10;}
	.st18{fill:none;stroke:#E8222E;stroke-width:7;stroke-miterlimit:10;}
	.st19{fill:#E8222E;}
	.st20{stroke:#000000;stroke-width:0.5;stroke-miterlimit:10;}
</style>
<g id="Layer_2">
	<g id="Sj3iJo.tif">
		
			<image style="overflow:visible;" width="2352" height="844" id="Layer_0" xlink:href="4DDD738AE20A98AE.png"  transform="matrix(0.5283 0 0 0.8957 -112.5 -883)">
		</image>
	</g>
</g>
<g id="Layer_1">
	<g id="layout">
		<rect x="-1319" y="-585" class="st0" width="855" height="757"/>
		<g class="st1">
			
				<image style="overflow:visible;enable-background:new    ;" width="1299" height="1299" id="fZY8uY" xlink:href="4DDD738AE20A98AD.jpg"  transform="matrix(0.1663 0 0 0.1663 -311 235)">
			</image>
		</g>
	</g>
	<g>
		<polygon class="st2" points="-464,352 -464,343 -473,343 -482,343 -482,352 -482,361 -491,361 -491,379 -482,379 -482,388 
			-473,388 -473,397 -482,397 -482,406 -473,406 -410,406 -410,352 		"/>
		<rect x="-491" y="334" class="st2" width="9" height="9"/>
	</g>
	<rect x="-428" y="433" width="9" height="45"/>
	<rect x="-410" y="433" width="9" height="45"/>
	<rect x="-185" y="28" class="st3" width="9" height="9"/>
	<polygon class="st4" points="-167,46 -167,37 -176,37 -176,28 -185,28 -185,37 -203,37 -203,55 -212,55 -212,91 -221,91 -221,109 
		-239,109 -239,118 -248,118 -257,118 -257,127 -275,127 -293,127 -293,136 -311,136 -311,145 -311,145 -311,154 -302,154 -302,163 
		-276,163 -276,172 -275,172 -221,172 -221,163 -203.2,163 -203,163 -203,154 -185,154 -185,145 -176,145 -176,136 -167,136 
		-167,127 -158,127 -158,82 -158,46 	"/>
	<rect x="-311" y="145" class="st3" width="9" height="9"/>
	<rect x="-194" y="19" class="st3" width="9" height="18"/>
	<rect x="-239" y="154" class="st5" width="9" height="9"/>
	<rect x="-230" y="154" class="st5" width="9" height="9"/>
	<rect x="-293" y="136" class="st5" width="9" height="9"/>
	<rect x="-230" y="145" class="st5" width="18" height="9"/>
	<rect x="-194" y="136" class="st5" width="9" height="9"/>
	<rect x="-185" y="127" class="st5" width="9" height="9"/>
	<rect x="-185" y="136" class="st5" width="9" height="9"/>
	<rect x="-176" y="109" class="st5" width="9" height="18"/>
	<rect x="-203" y="46" class="st6" width="9" height="9"/>
	<rect x="-167" y="55" class="st5" width="9" height="45"/>
	<rect x="-185" y="19" class="st3" width="9" height="9"/>
	<rect x="-185" y="10" class="st3" width="9" height="9"/>
	<rect x="-203" y="55" class="st6" width="9" height="9"/>
	<rect x="-311" y="136" class="st3" width="9" height="9"/>
	<rect x="-302" y="127" class="st7" width="18" height="9"/>
	<rect x="-383" y="307" class="st3" width="9" height="9"/>
	<polygon class="st4" points="-365,325 -365,316 -374,316 -374,307 -383,307 -383,316 -401,316 -401,334 -410,334 -410,370 
		-419,370 -419,388 -437,388 -437,397 -446,397 -455,397 -455,406 -473,406 -482,406 -482,415 -509,415 -509,424 -509,424 -509,433 
		-500,433 -500,442 -474,442 -474,451 -473,451 -419,451 -419,442 -401.2,442 -401,442 -401,433 -383,433 -383,424 -374,424 
		-374,415 -365,415 -365,406 -356,406 -356,361 -356,325 	"/>
	<rect x="-491" y="415" class="st5" width="9" height="9"/>
	<polygon class="st5" points="-428,424 -428,433 -437,433 -437,442 -419,442 -419,433 -410,433 -410,424 	"/>
	<polygon class="st5" points="-383,406 -383,415 -392,415 -392,424 -383,424 -374,424 -374,415 -374,406 	"/>
	<rect x="-374" y="388" class="st5" width="9" height="18"/>
	<rect x="-365" y="334" class="st5" width="9" height="45"/>
	<polygon class="st3" points="-383,289 -383,298 -392,298 -392,316 -383,316 -383,307 -374,307 -374,298 -374,289 	"/>
	<polygon class="st6" points="-401,325 -401,334 -401,343 -392,343 -392,334 -392,325 	"/>
	<polygon class="st3" points="-509,415 -509,424 -509,433 -500,433 -500,424 -500,415 	"/>
	<g>
		<rect x="-392" y="334" width="9" height="18"/>
	</g>
	<g>
		<rect x="-374" y="334" width="9" height="18"/>
	</g>
	<rect x="-383" y="361" width="9" height="9"/>
	<rect x="-347" y="370" width="9" height="18"/>
	<rect x="-338" y="361" width="9" height="9"/>
	<rect x="-356" y="388" width="9" height="9"/>
	<polygon class="st4" points="-752,352 -752,343 -761,343 -761,334 -770,334 -770,343 -797,343 -797,361 -806,361 -806,406 
		-824,406 -824,424 -842,424 -842,433 -851,433 -860,433 -860,442 -878,442 -887,442 -887,451 -914,451 -914,460 -914,460 -914,479 
		-905,479 -905,488 -879,488 -879,497 -878,497 -824,497 -824,488 -797.2,488 -797,488 -797,479 -770,479 -770,460 -761,460 
		-761,451 -752,451 -752,442 -743,442 -743,397 -743,352 	"/>
	<rect x="-815" y="370" class="st4" width="27" height="72"/>
	<rect x="-788" y="334" class="st4" width="18" height="54"/>
	<g>
		<polygon class="st2" points="-517.9,233.1 -520.6,227.1 -526.7,229.8 -529.4,223.8 -601.9,256.9 -599.1,262.9 -605.1,265.7 
			-602.4,271.7 -608.4,274.4 -591.9,310.7 -585.9,307.9 -580.3,320 -574.3,317.2 -571.5,323.3 -565.5,320.5 -562.8,326.5 
			-556.7,323.8 -554,329.8 -547.9,327.1 -545.2,333.1 -539.1,330.3 -536.4,336.4 -512.2,325.4 -515,319.3 -509,316.6 -511.7,310.5 
			-505.7,307.8 -508.4,301.7 -502.4,299 -505.2,292.9 -499.1,290.2 -501.9,284.2 -495.8,281.4 -501.4,269.3 -495.3,266.6 
			-511.8,230.4 		"/>
		<g>
			
				<rect x="-594.2" y="237.6" transform="matrix(0.9097 -0.4153 0.4153 0.9097 -153.4137 -223.648)" class="st8" width="6.6" height="6.6"/>
			
				<rect x="-588.7" y="249.7" transform="matrix(0.9097 -0.4153 0.4153 0.9097 -157.9417 -220.2655)" class="st8" width="6.6" height="6.6"/>
			<polygon class="st8" points="-556.3,228.8 -562.4,231.5 -567.9,219.5 -579.9,225 -574.4,237 -580.5,239.8 -586.5,242.6 
				-583.8,248.6 -577.7,245.8 -575,251.9 -550.8,240.9 -553.6,234.8 -547.5,232.1 -550.3,226 			"/>
			
				<rect x="-546.5" y="230.4" transform="matrix(0.9097 -0.4153 0.4153 0.9097 -146.1243 -204.481)" class="st8" width="6.6" height="6.6"/>
			
				<rect x="-552" y="218.3" transform="matrix(0.9097 -0.4153 0.4153 0.9097 -141.5962 -207.8635)" class="st8" width="6.6" height="6.6"/>
		</g>
		
			<rect x="-535.4" y="254.5" transform="matrix(0.9097 -0.4153 0.4153 0.9097 -155.1209 -197.7075)" class="st9" width="6.6" height="6.6"/>
		
			<rect x="-561.2" y="310" transform="matrix(0.9097 -0.4153 0.4153 0.9097 -180.5141 -203.4041)" class="st9" width="6.6" height="6.6"/>
		
			<rect x="-569.9" y="258.9" transform="matrix(0.9097 -0.4153 0.4153 0.9097 -160.069 -211.6335)" class="st9" width="6.6" height="6.6"/>
		
			<rect x="-545.3" y="280.9" transform="matrix(0.9097 -0.4153 0.4153 0.9097 -166.9868 -199.4259)" class="st9" width="6.6" height="6.6"/>
		
			<rect x="-518.4" y="275.9" transform="matrix(0.9097 -0.4153 0.4153 0.9097 -162.4816 -188.7083)" class="st9" width="6.6" height="6.6"/>
		
			<rect x="-531.5" y="311.1" transform="matrix(0.9097 -0.4153 0.4153 0.9097 -178.2772 -190.9655)" class="st9" width="6.6" height="6.6"/>
		
			<rect x="-571.5" y="220.2" transform="matrix(0.9097 -0.4153 0.4153 0.9097 -145.54 -215.4863)" class="st10" width="6.6" height="13.3"/>
		
			<rect x="-570.6" y="241.4" transform="matrix(0.9097 -0.4153 0.4153 0.9097 -152.8637 -213.5031)" class="st10" width="6.6" height="6.6"/>
		
			<rect x="-519.7" y="304.2" transform="matrix(0.9097 -0.4153 0.4153 0.9097 -174.0343 -185.3033)" class="st11" width="13.3" height="6.6"/>
		
			<rect x="-516.4" y="295.4" transform="matrix(0.9097 -0.4153 0.4153 0.9097 -170.079 -184.7305)" class="st11" width="13.3" height="6.6"/>
		
			<rect x="-518.1" y="305.3" transform="matrix(0.9097 -0.4153 0.4153 0.9097 -176.0544 -185.611)" class="st11" width="6.6" height="13.3"/>
		
			<rect x="-506.8" y="285.2" transform="matrix(0.9097 -0.4153 0.4153 0.9097 -165.2887 -183.0575)" class="st11" width="6.6" height="6.6"/>
		
			<rect x="-504.9" y="270.1" transform="matrix(0.9097 -0.4153 0.4153 0.9097 -160.2333 -183.3197)" class="st11" width="6.6" height="13.3"/>
		
			<rect x="-509.4" y="263" transform="matrix(0.9097 -0.4153 0.4153 0.9097 -156.0044 -184.7416)" class="st11" width="13.3" height="6.6"/>
		
			<rect x="-505.8" y="248.9" transform="matrix(0.9097 -0.4153 0.4153 0.9097 -152.8926 -185.3157)" class="st11" width="6.6" height="19.9"/>
		
			<rect x="-526.3" y="321.8" transform="matrix(0.9097 -0.4153 0.4153 0.9097 -181.9448 -186.4489)" class="st11" width="13.3" height="6.6"/>
		
			<rect x="-595.8" y="275.4" transform="matrix(0.9097 -0.4153 0.4153 0.9097 -172.0248 -220.3012)" class="st12" width="6.6" height="19.9"/>
		
			<rect x="-595.3" y="267.3" transform="matrix(0.9097 -0.4153 0.4153 0.9097 -165.8522 -221.4111)" class="st12" width="6.6" height="6.6"/>
		
			<rect x="-592" y="258.5" transform="matrix(0.9097 -0.4153 0.4153 0.9097 -161.897 -220.8384)" class="st12" width="6.6" height="6.6"/>
		
			<rect x="-583.7" y="276.6" transform="matrix(0.9097 -0.4153 0.4153 0.9097 -168.6594 -215.7604)" class="st9" width="6.6" height="6.6"/>
		
			<rect x="-582.9" y="291.1" transform="matrix(0.9097 -0.4153 0.4153 0.9097 -176.0086 -213.8112)" class="st12" width="6.6" height="13.3"/>
	</g>
	<rect x="-410" y="370" width="9" height="18"/>
	<rect x="-401" y="361" width="9" height="9"/>
	<rect x="-419" y="388" width="9" height="9"/>
	<g>
		<g>
			<polygon class="st2" points="155.3,186.5 158.5,173.6 145.6,170.4 132.6,167.1 129.4,180.1 126.2,193 113.2,189.8 106.8,215.7 
				119.7,219 116.5,232 129.5,235.2 126.3,248.1 113.3,244.9 110.1,257.8 123.1,261.1 213.8,283.6 233.1,205.8 			"/>
			
				<rect x="121.1" y="152.3" transform="matrix(0.241 -0.9705 0.9705 0.241 -57.3584 244.6505)" class="st2" width="13.3" height="13.3"/>
		</g>
		<rect x="143.2" y="343.4" transform="matrix(0.241 -0.9705 0.9705 0.241 -205.6969 437.0487)" width="66.8" height="13.3"/>
		<rect x="169.1" y="349.8" transform="matrix(0.241 -0.9705 0.9705 0.241 -192.2625 467.1127)" width="66.8" height="13.3"/>
		
			<rect x="286.3" y="152.1" transform="matrix(0.241 -0.9705 0.9705 0.241 68.2481 404.7606)" class="st3" width="13.3" height="13.3"/>
		<polygon class="st4" points="307.6,183 310.8,170.1 297.8,166.9 301.1,153.9 288.1,150.7 284.8,163.7 258.9,157.2 252.5,183.1 
			239.5,179.9 226.6,231.8 213.7,228.6 207.3,254.5 181.3,248.1 178.1,261 165.2,257.8 152.2,254.5 148.9,267.5 123.1,261.1 
			110.1,257.8 106.8,270.8 68,261.2 64.7,274.1 64.7,274.1 61.5,287.1 74.5,290.3 71.3,303.3 108.7,312.6 105.5,325.5 107,325.9 
			184.7,345.2 187.9,332.3 213.6,338.6 213.8,338.7 217,325.7 243,332.1 246.2,319.2 259.2,322.4 262.4,309.5 275.4,312.7 
			278.6,299.7 291.5,302.9 307.6,238.1 320.5,186.3 		"/>
		
			<rect x="92.1" y="269" transform="matrix(0.241 -0.9705 0.9705 0.241 -192.612 305.0899)" class="st5" width="13.3" height="13.3"/>
		<polygon class="st5" points="181.4,303.1 178.2,316 165.2,312.8 162,325.8 187.9,332.3 191.2,319.3 204.1,322.5 207.3,309.5 		"/>
		<polygon class="st5" points="252.6,293.2 249.4,306.2 236.5,303 233.3,316 246.2,319.2 259.2,322.4 262.4,309.5 265.6,296.5 		"/>
		
			<rect x="262" y="278.5" transform="matrix(0.241 -0.9705 0.9705 0.241 -67.8061 483.6327)" class="st5" width="26.7" height="13.3"/>
		
			<rect x="269.4" y="223.3" transform="matrix(0.241 -0.9705 0.9705 0.241 6.5569 468.3952)" class="st5" width="66.8" height="13.3"/>
		<polygon class="st3" points="294.5,124.8 291.3,137.7 278.3,134.5 271.9,160.5 284.8,163.7 288.1,150.7 301.1,153.9 304.3,141 
			307.5,128 		"/>
		<polygon class="st6" points="255.7,170.2 252.5,183.1 249.2,196.1 262.2,199.3 265.5,186.3 268.7,173.4 		"/>
		<polygon class="st3" points="68,261.2 64.7,274.1 61.5,287.1 74.5,290.3 77.7,277.3 81,264.4 		"/>
		<g>
			<rect x="255.3" y="194.2" transform="matrix(0.241 -0.9705 0.9705 0.241 8.9514 413.2655)" width="26.7" height="13.3"/>
		</g>
		<g>
			<rect x="281.3" y="200.7" transform="matrix(0.241 -0.9705 0.9705 0.241 22.3858 443.3295)" width="26.7" height="13.3"/>
		</g>
		<rect x="266.9" y="229.8" transform="matrix(0.241 -0.9705 0.9705 0.241 -21.8751 445.0331)" width="13.3" height="13.3"/>
		<rect x="307.3" y="262.2" transform="matrix(0.241 -0.9705 0.9705 0.241 -17.6059 515.2599)" width="26.7" height="13.3"/>
		<rect x="331.8" y="245.9" transform="matrix(0.241 -0.9705 0.9705 0.241 11.6955 520.1587)" width="13.3" height="13.3"/>
		<rect x="296.1" y="278.4" transform="matrix(0.241 -0.9705 0.9705 0.241 -46.8693 510.2617)" width="13.3" height="13.3"/>
		<rect x="216.5" y="239.7" transform="matrix(0.241 -0.9705 0.9705 0.241 -64.6109 410.0703)" width="26.7" height="13.3"/>
		<rect x="241" y="223.4" transform="matrix(0.241 -0.9705 0.9705 0.241 -35.3095 414.9691)" width="13.3" height="13.3"/>
		<rect x="205.4" y="255.9" transform="matrix(0.241 -0.9705 0.9705 0.241 -93.8436 405.1408)" width="13.3" height="13.3"/>
	</g>
	<polygon class="st5" points="-131,307 -131,289 -140,289 -140,280 -149,280 -149,271 -167,271 -167,262 -239,262 -239,271 
		-257,271 -257,280 -266,280 -266,289 -275,289 -275,307 -284,307 -284,379 -275,379 -275,397 -266,397 -266,406 -257,406 -257,415 
		-239,415 -239,424 -167,424 -167,415 -149,415 -149,406 -140,406 -140,397 -131,397 -131,379 -122,379 -122,307 	"/>
	<polygon class="st4" points="-131,307 -140,307 -140,289 -149,289 -149,280 -167,280 -167,271 -239,271 -239,280 -257,280 
		-257,289 -266,289 -266,307 -275,307 -275,379 -266,379 -266,397 -257,397 -257,406 -239,406 -239,415 -167,415 -167,406 -149,406 
		-149,397 -140,397 -140,379 -131,379 	"/>
	<g>
		<rect x="-203" y="307" class="st5" width="27" height="9"/>
		<rect x="-203" y="379" class="st5" width="27" height="9"/>
		<polygon class="st5" points="-221,325 -221,334 -230,334 -230,343 -221,343 -221,352 -230,352 -230,361 -221,361 -221,370 
			-212,370 -212,361 -185,361 -185,352 -212,352 -212,343 -185,343 -185,334 -212,334 -212,325 		"/>
		<rect x="-212" y="316" class="st5" width="9" height="9"/>
		<rect x="-212" y="370" class="st5" width="9" height="9"/>
	</g>
	<rect x="-275" y="307" class="st6" width="9" height="72"/>
	<rect x="-266" y="289" class="st6" width="9" height="18"/>
	<rect x="-257" y="280" class="st6" width="18" height="9"/>
	<rect x="-239" y="271" class="st6" width="27" height="9"/>
	<rect x="-239" y="307" class="st6" width="9" height="9"/>
	<rect x="-230" y="298" class="st6" width="9" height="9"/>
	<g>
		<polygon class="st5" points="509.8,157.9 507.1,147.1 501.8,148.5 500.5,143 495,144.4 493.7,138.9 482.9,141.6 481.5,136.3 
			438.4,147 439.7,152.3 428.9,155 430.3,160.3 424.8,161.7 426.2,167.1 420.7,168.5 423.4,179.3 418.1,180.6 428.8,223.8 
			434.1,222.4 436.8,233.2 442.2,231.9 443.5,237.3 448.9,236 450.3,241.4 461.1,238.7 462.4,244.1 505.6,233.4 504.2,228 
			515,225.3 513.7,220 519.1,218.6 517.8,213.2 523.2,211.8 520.5,201.1 525.9,199.7 515.2,156.5 		"/>
		<polygon class="st4" points="509.8,157.9 504.4,159.2 501.8,148.5 496.4,149.7 495,144.4 484.2,147.1 482.9,141.6 439.7,152.3 
			441.1,157.7 430.3,160.3 431.5,165.8 426.2,167.1 428.9,177.9 423.4,179.3 434.1,222.4 439.6,221.1 442.2,231.9 447.6,230.5 
			448.9,236 459.7,233.3 461.1,238.7 504.2,228 502.9,222.6 513.7,220 512.3,214.5 517.8,213.2 515.1,202.4 520.5,201.1 		"/>
		<g>
			
				<rect x="467" y="166.4" transform="matrix(0.9707 -0.2402 0.2402 0.9707 -26.7294 119.146)" class="st5" width="16.7" height="5.6"/>
			
				<rect x="477.8" y="209.7" transform="matrix(0.9707 -0.2402 0.2402 0.9707 -36.8012 122.985)" class="st5" width="16.7" height="5.6"/>
			<polygon class="st5" points="458.5,182.1 459.8,187.4 454.4,188.8 455.7,194.2 461.2,192.9 462.5,198.2 457.1,199.6 458.4,205 
				463.9,203.7 465.1,209 470.6,207.6 469.2,202.3 485.5,198.3 484.1,192.9 467.9,196.9 466.5,191.5 482.8,187.5 481.4,182.1 
				465.3,186.1 463.9,180.7 			"/>
			
				<rect x="463.1" y="174.6" transform="matrix(0.9707 -0.2402 0.2402 0.9707 -28.9649 117.1004)" class="st5" width="5.6" height="5.6"/>
			
				<rect x="471.1" y="206.9" transform="matrix(0.9707 -0.2402 0.2402 0.9707 -36.4945 119.9705)" class="st5" width="5.6" height="5.6"/>
		</g>
		
			<rect x="428.6" y="177.9" transform="matrix(0.9707 -0.2402 0.2402 0.9707 -35.451 109.4865)" class="st6" width="5.6" height="44.5"/>
		
			<rect x="427.4" y="166.3" transform="matrix(0.9707 -0.2402 0.2402 0.9707 -28.7005 108.3553)" class="st6" width="5.6" height="11.1"/>
		
			<rect x="430.7" y="159" transform="matrix(0.9707 -0.2402 0.2402 0.9707 -26.0801 109.5193)" class="st6" width="11.1" height="5.6"/>
		
			<rect x="440.1" y="150.3" transform="matrix(0.9707 -0.2402 0.2402 0.9707 -23.6373 112.1998)" class="st6" width="16.7" height="5.6"/>
		
			<rect x="445.7" y="173.2" transform="matrix(0.9707 -0.2402 0.2402 0.9707 -29.1363 112.8678)" class="st6" width="5.6" height="5.6"/>
		
			<rect x="449.6" y="166.5" transform="matrix(0.9707 -0.2402 0.2402 0.9707 -27.4067 113.6227)" class="st6" width="5.6" height="5.6"/>
	</g>
	<g>
		<polygon class="st5" points="797.2,165.1 799.7,154.3 794.3,153 795.6,147.6 790.1,146.3 791.4,140.9 780.6,138.4 781.9,132.9 
			738.5,122.8 737.3,128.1 726.4,125.5 725.2,131 719.8,129.7 718.5,135.2 713.1,133.9 710.5,144.7 705.1,143.4 694.9,186.7 
			700.3,187.9 697.8,198.7 703.1,200 701.8,205.5 707.3,206.8 706,212.2 716.8,214.7 715.5,220.2 758.9,230.4 760.2,225 771,227.5 
			772.3,222.1 777.7,223.4 778.9,218 784.3,219.3 786.9,208.5 792.4,209.7 802.5,166.4 		"/>
		<polygon class="st4" points="797.2,165.1 791.7,163.9 794.3,153 788.8,151.8 790.1,146.3 779.3,143.7 780.6,138.4 737.3,128.1 
			736,133.6 725.2,131 723.9,136.3 718.5,135.2 716,146 710.5,144.7 700.3,187.9 705.7,189.2 703.1,200 708.6,201.3 707.3,206.8 
			718.1,209.3 716.8,214.7 760.2,225 761.4,219.5 772.3,222.1 773.5,216.7 778.9,218 781.5,207.2 786.9,208.5 		"/>
		<g>
			
				<rect x="758.6" y="151.2" transform="matrix(0.2299 -0.9732 0.9732 0.2299 431.0755 863.7895)" class="st5" width="5.6" height="16.7"/>
			
				<rect x="748.3" y="194.5" transform="matrix(0.2299 -0.9732 0.9732 0.2299 380.9659 887.1304)" class="st5" width="5.6" height="16.7"/>
			<polygon class="st5" points="740.5,163.2 739.2,168.6 733.7,167.3 732.4,172.7 737.9,174 736.6,179.4 731.2,178.1 729.9,183.5 
				735.3,184.8 734,190.2 739.5,191.5 740.8,186.1 756.9,190 758.2,184.5 742.1,180.7 743.4,175.3 759.5,179.2 760.8,173.7 
				744.5,169.8 745.8,164.5 			"/>
			
				<rect x="746.4" y="159.6" transform="matrix(0.2299 -0.9732 0.9732 0.2299 418.9485 854.1196)" class="st5" width="5.6" height="5.6"/>
			
				<rect x="738.8" y="192.1" transform="matrix(0.2299 -0.9732 0.9732 0.2299 381.4225 871.7455)" class="st5" width="5.6" height="5.6"/>
		</g>
		
			<rect x="685.9" y="164.2" transform="matrix(0.2299 -0.9732 0.9732 0.2299 382.8723 817.7356)" class="st6" width="44.5" height="5.6"/>
		
			<rect x="714.4" y="138.4" transform="matrix(0.2299 -0.9732 0.9732 0.2299 417.0517 809.3251)" class="st6" width="11.1" height="5.6"/>
		
			<rect x="727.2" y="129.4" transform="matrix(0.2299 -0.9732 0.9732 0.2299 430.8366 814.3406)" class="st6" width="5.6" height="11.1"/>
		
			<rect x="742" y="124.3" transform="matrix(0.2299 -0.9732 0.9732 0.2299 444.4138 826.9854)" class="st6" width="5.6" height="16.7"/>
		
			<rect x="731.5" y="150.3" transform="matrix(0.2299 -0.9732 0.9732 0.2299 416.4211 832.5101)" class="st6" width="5.6" height="5.6"/>
		
			<rect x="738.1" y="146.2" transform="matrix(0.2299 -0.9732 0.9732 0.2299 425.6135 835.7549)" class="st6" width="5.6" height="5.6"/>
	</g>
	<g>
		<polygon class="st5" points="504.1,367.5 506.7,356.7 501.4,355.4 502.6,349.9 497.2,348.8 498.5,343.3 487.7,340.7 488.9,335.3 
			445.6,325.1 444.3,330.5 433.5,328 432.2,333.3 426.8,332.1 425.6,337.5 420.1,336.2 417.6,347 412.1,345.8 401.9,389.1 
			407.3,390.4 404.8,401.2 410.2,402.5 408.9,407.8 414.3,409.1 413.1,414.6 423.9,417.2 422.6,422.5 465.9,432.8 467.2,427.3 
			478,429.9 479.3,424.5 484.7,425.8 485.9,420.4 491.4,421.7 494,410.8 499.3,412.1 509.6,368.8 		"/>
		
			<rect x="392.9" y="366.5" transform="matrix(0.2299 -0.9732 0.9732 0.2299 -39.6613 688.4843)" class="st6" width="44.5" height="5.6"/>
		
			<rect x="421.4" y="340.7" transform="matrix(0.2299 -0.9732 0.9732 0.2299 -5.4819 680.0738)" class="st6" width="11.1" height="5.6"/>
		
			<rect x="434.3" y="331.7" transform="matrix(0.2299 -0.9732 0.9732 0.2299 8.3029 685.0892)" class="st6" width="5.6" height="11.1"/>
		
			<rect x="449" y="326.8" transform="matrix(0.2299 -0.9732 0.9732 0.2299 21.7598 697.7903)" class="st6" width="5.6" height="16.7"/>
		
			<rect x="438.5" y="352.7" transform="matrix(0.2299 -0.9732 0.9732 0.2299 -6.1127 703.2589)" class="st6" width="5.6" height="5.6"/>
		
			<rect x="445.2" y="348.5" transform="matrix(0.2299 -0.9732 0.9732 0.2299 3.0798 706.5035)" class="st6" width="5.6" height="5.6"/>
	</g>
	<g>
		<polygon class="st5" points="658.8,117.1 661.4,106.3 655.9,105 657.2,99.5 651.9,98.3 653.2,92.9 642.2,90.3 643.5,84.9 
			600.3,74.7 599,80.1 588.2,77.5 586.9,83 581.4,81.7 580.2,87.1 574.8,85.8 572.2,96.7 566.8,95.4 556.5,138.7 562,139.9 
			559.4,150.8 564.9,152.1 563.6,157.4 568.9,158.7 567.6,164.2 578.6,166.8 577.3,172.1 620.5,182.4 621.8,176.9 632.6,179.5 
			633.9,174 639.4,175.3 640.6,170 646,171.3 648.6,160.4 654,161.7 664.2,118.4 		"/>
		
			<rect x="547.5" y="116.1" transform="matrix(0.2299 -0.9732 0.9732 0.2299 323.0808 646.0775)" class="st6" width="44.5" height="5.6"/>
		
			<rect x="576" y="90.3" transform="matrix(0.2299 -0.9732 0.9732 0.2299 357.2602 637.6671)" class="st6" width="11.1" height="5.6"/>
		
			<rect x="588.8" y="81.3" transform="matrix(0.2299 -0.9732 0.9732 0.2299 371.045 642.6826)" class="st6" width="5.6" height="11.1"/>
		
			<rect x="603.7" y="76.4" transform="matrix(0.2299 -0.9732 0.9732 0.2299 384.5583 655.5038)" class="st6" width="5.6" height="16.7"/>
		
			<rect x="593.1" y="102.3" transform="matrix(0.2299 -0.9732 0.9732 0.2299 356.6295 660.852)" class="st6" width="5.6" height="5.6"/>
		
			<rect x="599.9" y="98.1" transform="matrix(0.2299 -0.9732 0.9732 0.2299 365.8783 664.217)" class="st6" width="5.6" height="5.6"/>
	</g>
	<g>
		<polygon class="st5" points="637.4,56.8 639.9,46 634.5,44.7 635.8,39.2 630.4,37.9 631.6,32.6 620.8,30 622.1,24.6 578.8,14.4 
			577.5,19.7 566.7,17.2 565.4,22.6 560,21.3 558.8,26.8 553.3,25.5 550.7,36.3 545.4,35 535.1,78.3 540.6,79.6 538,90.4 
			543.3,91.7 542.1,97.1 547.5,98.4 546.2,103.9 557,106.3 555.8,111.8 599.1,122.1 600.4,116.6 611.2,119.2 612.5,113.7 617.9,115 
			619.1,109.6 624.6,110.9 627.1,100.1 632.6,101.3 642.8,58.1 		"/>
		<polygon class="st4" points="637.4,56.8 632,55.5 634.5,44.7 629.1,43.4 630.4,37.9 619.5,35.4 620.8,30 577.5,19.7 576.2,25.2 
			565.4,22.6 564.1,28 558.8,26.8 556.2,37.6 550.7,36.3 540.6,79.6 545.9,80.9 543.3,91.7 548.8,92.9 547.5,98.4 558.3,101 
			557,106.3 600.4,116.6 601.7,111.1 612.5,113.7 613.8,108.4 619.1,109.6 621.7,98.8 627.1,100.1 		"/>
		<g>
			
				<rect x="598.8" y="42.8" transform="matrix(0.2299 -0.9732 0.9732 0.2299 413.5004 624.8561)" class="st5" width="5.6" height="16.7"/>
			
				<rect x="588.5" y="86.1" transform="matrix(0.2299 -0.9732 0.9732 0.2299 363.3907 648.197)" class="st5" width="5.6" height="16.7"/>
			<polygon class="st5" points="580.7,54.8 579.4,60.2 574,58.9 572.7,64.4 578.1,65.7 576.8,71 571.4,69.7 570.1,75.2 575.6,76.5 
				574.3,81.8 579.7,83.1 581,77.7 597.2,81.6 598.5,76.1 582.3,72.3 583.6,66.9 599.7,70.8 601,65.3 584.8,61.5 586,56.1 			"/>
			
				<rect x="586.6" y="51.2" transform="matrix(0.2299 -0.9732 0.9732 0.2299 401.3731 615.1861)" class="st5" width="5.6" height="5.6"/>
			
				<rect x="579" y="83.7" transform="matrix(0.2299 -0.9732 0.9732 0.2299 363.8472 632.8121)" class="st5" width="5.6" height="5.6"/>
		</g>
		
			<rect x="526.1" y="55.8" transform="matrix(0.2299 -0.9732 0.9732 0.2299 365.2913 578.7869)" class="st6" width="44.5" height="5.6"/>
		
			<rect x="554.6" y="30" transform="matrix(0.2299 -0.9732 0.9732 0.2299 399.4706 570.3764)" class="st6" width="11.1" height="5.6"/>
		
			<rect x="567.4" y="21" transform="matrix(0.2299 -0.9732 0.9732 0.2299 413.2556 575.3917)" class="st6" width="5.6" height="11.1"/>
		
			<rect x="582.2" y="16" transform="matrix(0.2299 -0.9732 0.9732 0.2299 426.8328 588.0364)" class="st6" width="5.6" height="16.7"/>
		
			<rect x="571.7" y="42" transform="matrix(0.2299 -0.9732 0.9732 0.2299 398.8399 593.5613)" class="st6" width="5.6" height="5.6"/>
		
			<rect x="578.3" y="37.8" transform="matrix(0.2299 -0.9732 0.9732 0.2299 408.0325 596.8059)" class="st6" width="5.6" height="5.6"/>
	</g>
	<g>
		<polygon class="st5" points="692,257.1 690.8,246 685.3,246.6 684.7,241.1 679.2,241.7 678.5,236.2 667.5,237.4 666.9,231.9 
			622.7,236.8 623.3,242.4 612.2,243.5 612.8,249.1 607.2,249.6 607.9,255.2 602.3,255.8 603.6,266.9 598,267.5 603,311.7 
			608.5,311.1 609.7,322.2 615.3,321.6 615.8,327 621.4,326.5 622,331.9 633,330.8 633.7,336.3 677.9,331.4 677.2,325.8 
			688.4,324.7 687.7,319.1 693.3,318.6 692.7,313 698.1,312.4 696.9,301.3 702.5,300.7 697.6,256.5 		"/>
		<polygon class="st4" points="692,257.1 686.6,257.7 685.3,246.6 679.8,247.3 679.2,241.7 668.1,243 667.5,237.4 623.3,242.4 
			623.8,247.8 612.8,249.1 613.5,254.6 607.9,255.2 609.2,266.2 603.6,266.9 608.5,311.1 614,310.5 615.3,321.6 620.7,320.9 
			621.4,326.5 632.4,325.2 633,330.8 677.2,325.8 676.7,320.4 687.7,319.1 687.1,313.6 692.7,313 691.4,302 696.9,301.3 		"/>
		<g>
			
				<rect x="648.1" y="261" transform="matrix(0.9939 -0.1099 0.1099 0.9939 -25.017 73.7456)" class="st5" width="16.7" height="5.6"/>
			
				<rect x="652.9" y="305.2" transform="matrix(0.9939 -0.1099 0.1099 0.9939 -29.8467 74.5427)" class="st5" width="16.7" height="5.6"/>
			<polygon class="st5" points="638,274.3 638.6,279.8 633,280.4 633.7,285.9 639.2,285.3 639.8,290.8 634.3,291.5 634.9,296.9 
				640.4,296.4 641.1,301.9 646.5,301.3 646,295.8 662.6,294 661.9,288.4 645.3,290.2 644.7,284.7 661.3,282.9 660.8,277.4 
				644.2,279.2 643.5,273.6 			"/>
			
				<rect x="643.2" y="267.8" transform="matrix(0.9939 -0.1099 0.1099 0.9939 -25.8222 72.6337)" class="st5" width="5.6" height="5.6"/>
			
				<rect x="646.8" y="301" transform="matrix(0.9939 -0.1099 0.1099 0.9939 -29.4469 73.2349)" class="st5" width="5.6" height="5.6"/>
		</g>
		
			<rect x="606" y="266.4" transform="matrix(0.9939 -0.1099 0.1099 0.9939 -28.0349 68.6615)" class="st6" width="5.6" height="44.5"/>
		
			<rect x="608.5" y="254.8" transform="matrix(0.9939 -0.1099 0.1099 0.9939 -24.9147 68.7608)" class="st6" width="5.6" height="11.1"/>
		
			<rect x="613.1" y="248.4" transform="matrix(0.9939 -0.1099 0.1099 0.9939 -23.8583 69.5167)" class="st6" width="11.1" height="5.6"/>
		
			<rect x="623.5" y="241.3" transform="matrix(0.9939 -0.1099 0.1099 0.9939 -23.0027 70.9206)" class="st6" width="16.7" height="5.6"/>
		
			<rect x="625.9" y="264" transform="matrix(0.9939 -0.1099 0.1099 0.9939 -25.5155 70.7167)" class="st6" width="5.6" height="5.6"/>
		
			<rect x="630.9" y="257.9" transform="matrix(0.9939 -0.1099 0.1099 0.9939 -24.815 71.2212)" class="st6" width="5.6" height="5.6"/>
	</g>
	<g>
		<polygon class="st5" points="549.8,319.1 552.4,308.3 547.1,307 548.3,301.6 542.9,300.3 544.2,294.9 533.4,292.3 534.6,287 
			491.3,276.7 490,282.1 479.2,279.6 477.9,284.9 472.6,283.6 471.3,289.1 465.8,287.8 463.3,298.6 457.9,297.3 447.6,340.7 
			453.1,342 450.5,352.8 455.9,354.1 454.6,359.4 460,360.7 458.8,366.2 469.6,368.7 468.3,374.1 511.6,384.4 512.9,378.9 
			523.7,381.5 525,376.1 530.4,377.4 531.6,371.9 537.1,373.2 539.7,362.4 545,363.7 555.3,320.4 		"/>
		<polygon class="st4" points="549.8,319.1 544.5,317.8 547.1,307 541.6,305.7 542.9,300.3 532.1,297.8 533.4,292.3 490,282.1 
			488.7,287.5 477.9,284.9 476.6,290.4 471.3,289.1 468.7,299.9 463.3,298.6 453.1,342 458.4,343.3 455.9,354.1 461.3,355.3 
			460,360.7 470.9,363.3 469.6,368.7 512.9,378.9 514.2,373.5 525,376.1 526.3,370.7 531.6,371.9 534.2,361.1 539.7,362.4 		"/>
		<g>
			
				<rect x="511.3" y="305.1" transform="matrix(0.2299 -0.9732 0.9732 0.2299 90.8312 741.6744)" class="st5" width="5.6" height="16.7"/>
			
				<rect x="501" y="348.4" transform="matrix(0.2299 -0.9732 0.9732 0.2299 40.7214 765.0154)" class="st5" width="5.6" height="16.7"/>
			<polygon class="st5" points="493.2,317.1 491.9,322.5 486.5,321.3 485.2,326.7 490.7,327.9 489.4,333.4 483.9,332.1 482.6,337.5 
				488.1,338.8 486.8,344.2 492.3,345.5 493.4,340 509.7,343.9 511,338.4 494.7,334.7 496,329.2 512.3,333.1 513.6,327.6 
				497.3,323.8 498.6,318.4 			"/>
			
				<rect x="499.2" y="313.5" transform="matrix(0.2299 -0.9732 0.9732 0.2299 78.7604 732.1249)" class="st5" width="5.6" height="5.6"/>
			
				<rect x="491.5" y="346" transform="matrix(0.2299 -0.9732 0.9732 0.2299 41.1781 749.6305)" class="st5" width="5.6" height="5.6"/>
		</g>
		
			<rect x="438.7" y="318.1" transform="matrix(0.2299 -0.9732 0.9732 0.2299 42.6699 695.6724)" class="st6" width="44.5" height="5.6"/>
		
			<rect x="467.1" y="292.3" transform="matrix(0.2299 -0.9732 0.9732 0.2299 76.8492 687.2618)" class="st6" width="11.1" height="5.6"/>
		
			<rect x="480" y="283.3" transform="matrix(0.2299 -0.9732 0.9732 0.2299 90.6342 692.2773)" class="st6" width="5.6" height="11.1"/>
		
			<rect x="494.7" y="278.4" transform="matrix(0.2299 -0.9732 0.9732 0.2299 104.0911 704.9783)" class="st6" width="5.6" height="16.7"/>
		
			<rect x="484.2" y="304.3" transform="matrix(0.2299 -0.9732 0.9732 0.2299 76.2186 710.4468)" class="st6" width="5.6" height="5.6"/>
		
			<rect x="490.9" y="300.1" transform="matrix(0.2299 -0.9732 0.9732 0.2299 85.4111 713.6915)" class="st6" width="5.6" height="5.6"/>
	</g>
	<g>
		
			<rect x="333.3" y="424.2" transform="matrix(5.906092e-02 -0.9983 0.9983 5.906092e-02 -110.0527 738.2777)" class="st13" width="6.6" height="6.6"/>
		<g>
			<polygon class="st14" points="355.5,385.8 348.9,385.4 349.3,378.8 342.7,378.5 343.2,371.9 297.2,369.2 296.8,375.8 
				290.3,375.3 289.8,381.9 283.3,381.5 281.4,414.3 287.9,414.7 287.5,421.3 294.1,421.6 293.7,428.2 339.6,431 340,424.4 
				346.6,424.8 347,418.2 353.5,418.6 			"/>
			
				<rect x="315.2" y="370.5" transform="matrix(5.906092e-02 -0.9983 0.9983 5.906092e-02 -86.55 681.9739)" class="st15" width="6.6" height="32.9"/>
			
				<rect x="308.6" y="377" transform="matrix(5.906092e-02 -0.9983 0.9983 5.906092e-02 -86.55 681.9739)" class="st15" width="19.7" height="19.7"/>
			
				<rect x="285.4" y="398.5" transform="matrix(5.906092e-02 -0.9983 0.9983 5.906092e-02 -126.3777 669.523)" class="st16" width="13.1" height="6.6"/>
			
				<rect x="294.7" y="408.7" transform="matrix(5.906092e-02 -0.9983 0.9983 5.906092e-02 -130.9509 685.1272)" class="st16" width="6.6" height="6.6"/>
			
				<rect x="340.3" y="418" transform="matrix(5.906092e-02 -0.9983 0.9983 5.906092e-02 -97.3214 739.3643)" class="st13" width="6.6" height="6.6"/>
			
				<rect x="347.2" y="411.9" transform="matrix(5.906092e-02 -0.9983 0.9983 5.906092e-02 -84.6669 740.5153)" class="st13" width="6.6" height="6.6"/>
			
				<rect x="335.2" y="391.4" transform="matrix(5.906092e-02 -0.9983 0.9983 5.906092e-02 -75.5203 709.3069)" class="st16" width="6.6" height="6.6"/>
		</g>
	</g>
	<g>
		<polygon class="st14" points="405,67.9 398.7,67.6 399,61.3 392.7,61 393,54.6 348.8,52.6 348.5,58.9 342.1,58.6 341.8,64.9 
			335.5,64.6 334.1,96.2 340.3,96.5 340.1,102.8 346.4,103.1 346.1,109.4 390.3,111.5 390.6,105.2 396.9,105.5 397.3,99.2 
			403.6,99.5 		"/>
		
			<rect x="366.3" y="53.5" transform="matrix(4.686850e-02 -0.9989 0.9989 4.686850e-02 282.8266 435.114)" class="st15" width="6.3" height="31.6"/>
		
			<rect x="359.9" y="59.9" transform="matrix(4.686850e-02 -0.9989 0.9989 4.686850e-02 282.8266 435.114)" class="st15" width="19" height="19"/>
		
			<rect x="337.8" y="80.8" transform="matrix(4.686850e-02 -0.9989 0.9989 4.686850e-02 244.0967 423.7826)" class="st16" width="12.7" height="6.3"/>
		
			<rect x="346.8" y="90.6" transform="matrix(4.686850e-02 -0.9989 0.9989 4.686850e-02 239.8793 438.9707)" class="st16" width="6.3" height="6.3"/>
		
			<rect x="384.1" y="105" transform="matrix(4.686850e-02 -0.9989 0.9989 4.686850e-02 261.0781 489.9706)" class="st13" width="6.3" height="6.3"/>
		
			<rect x="390.8" y="99" transform="matrix(4.686850e-02 -0.9989 0.9989 4.686850e-02 273.4102 490.878)" class="st13" width="6.3" height="6.3"/>
		
			<rect x="397.4" y="93" transform="matrix(4.686850e-02 -0.9989 0.9989 4.686850e-02 285.742 491.7856)" class="st13" width="6.3" height="6.3"/>
		
			<rect x="392.3" y="67.5" transform="matrix(4.686850e-02 -0.9989 0.9989 4.686850e-02 306.3548 462.306)" class="st16" width="6.3" height="6.3"/>
	</g>
	<g>
		<polygon class="st14" points="-155.8,-272.8 -162.4,-272.2 -163.1,-278.7 -169.6,-278 -170.3,-284.6 -216.3,-280.1 -215.7,-273.5 
			-222.2,-272.9 -221.6,-266.3 -228.2,-265.6 -224.9,-232.8 -218.3,-233.4 -217.7,-226.8 -211.2,-227.5 -210.5,-221 -164.5,-225.5 
			-165.1,-232 -158.5,-232.7 -159.2,-239.3 -152.6,-239.9 		"/>
		
			<rect x="-208.9" y="-269.2" transform="matrix(0.9952 -9.819344e-02 9.819344e-02 0.9952 25.1776 -20.1772)" class="st15" width="33" height="6.6"/>
		
			<rect x="-202.3" y="-275.8" transform="matrix(0.9952 -9.819344e-02 9.819344e-02 0.9952 25.1776 -20.1772)" class="st15" width="19.8" height="19.8"/>
		
			<rect x="-219.6" y="-253.5" transform="matrix(0.9952 -9.819344e-02 9.819344e-02 0.9952 23.1966 -22.4369)" class="st16" width="6.6" height="13.2"/>
		
			<rect x="-212.1" y="-241" transform="matrix(0.9952 -9.819344e-02 9.819344e-02 0.9952 22.3324 -21.655)" class="st16" width="6.6" height="6.6"/>
		
			<rect x="-171.3" y="-231.7" transform="matrix(0.9952 -9.819344e-02 9.819344e-02 0.9952 21.6137 -17.603)" class="st13" width="6.6" height="6.6"/>
		
			<rect x="-165.4" y="-239" transform="matrix(0.9952 -9.819344e-02 9.819344e-02 0.9952 22.3563 -17.0547)" class="st13" width="6.6" height="6.6"/>
		
			<rect x="-159.5" y="-246.1" transform="matrix(0.9952 -9.819344e-02 9.819344e-02 0.9952 23.0896 -16.5131)" class="st13" width="6.6" height="6.6"/>
		
			<rect x="-168.7" y="-271.8" transform="matrix(0.9952 -9.819344e-02 9.819344e-02 0.9952 25.5674 -17.5378)" class="st16" width="6.6" height="6.6"/>
	</g>
	<g id="top_lines">
	</g>
	<g>
		
			<rect x="106.5" y="113.2" transform="matrix(0.9651 -0.2619 0.2619 0.9651 -26.6086 32.7229)" class="st13" width="6" height="6"/>
		<g>
			<polygon class="st14" points="113.7,74.9 107.9,76.5 106.3,70.7 100.6,72.3 99.1,66.5 58.8,77.4 60.3,83.2 54.6,84.7 56.1,90.5 
				50.3,92.1 58.2,120.8 63.9,119.2 65.5,125 71.2,123.4 72.8,129.2 113.1,118.3 111.5,112.6 117.3,111 115.7,105.2 121.4,103.6 			
				"/>
			
				<rect x="67.3" y="83.5" transform="matrix(0.9651 -0.2619 0.2619 0.9651 -19.7874 24.5378)" class="st15" width="29.8" height="6"/>
			
				<rect x="73.2" y="77.6" transform="matrix(0.9651 -0.2619 0.2619 0.9651 -19.7874 24.5378)" class="st15" width="17.9" height="17.9"/>
			
				<rect x="60.7" y="101" transform="matrix(0.9651 -0.2619 0.2619 0.9651 -25.7922 20.4093)" class="st16" width="6" height="11.9"/>
			
				<rect x="68.8" y="111.1" transform="matrix(0.9651 -0.2619 0.2619 0.9651 -27.3589 22.7776)" class="st16" width="6" height="6"/>
			
				<rect x="110.7" y="105.9" transform="matrix(0.9651 -0.2619 0.2619 0.9651 -24.5401 33.5598)" class="st13" width="6" height="6"/>
			
				<rect x="114.9" y="98.6" transform="matrix(0.9651 -0.2619 0.2619 0.9651 -22.4878 34.4035)" class="st13" width="6" height="6"/>
			<rect x="98.7" y="84.5" transform="matrix(0.9651 -0.2619 0.2619 0.9651 -19.3544 29.6668)" class="st16" width="6" height="6"/>
		</g>
	</g>
</g>
<g id="Layer_4">
	<line class="st17" x1="45" y1="638" x2="1053" y2="638"/>
	<line class="st17" x1="867.4" y1="638" x2="867.4" y2="624.5"/>
	<g>
		<path d="M851,653h6.2v1.6h-7.8v-4.7h0.8v-0.8h0.8v-0.8h3.9v-0.8h0.8V646h-0.8v-0.8h-3.1v0.8H851v0.8h-1.6v-1.6h0.8v-0.8h0.8v-0.8
			h4.7v0.8h0.8v0.8h0.8v3.1h-0.8v0.8h-0.8v0.8h-3.9v0.8H851V653z"/>
		<path d="M860.3,644.4v-0.8h4.7v0.8h0.8v0.8h0.8v7.8h-0.8v0.8H865v0.8h-4.7v-0.8h-0.8V653h-0.8v-7.8h0.8v-0.8H860.3z M861.1,649.9
			v-0.8h0.8v-0.8h0.8v-0.8h0.8v-0.8h1.6V646h-0.8v-0.8h-3.1v0.8h-0.8v3.9H861.1z M860.3,651.4v0.8h0.8v0.8h3.1v-0.8h0.8v-3.9h-0.8
			v0.8h-0.8v0.8h-0.8v0.8h-0.8v0.8H860.3z"/>
		<path d="M869.7,644.4v-0.8h4.7v0.8h0.8v0.8h0.8v7.8h-0.8v0.8h-0.8v0.8h-4.7v-0.8h-0.8V653h-0.8v-7.8h0.8v-0.8H869.7z M870.5,649.9
			v-0.8h0.8v-0.8h0.8v-0.8h0.8v-0.8h1.6V646h-0.8v-0.8h-3.1v0.8h-0.8v3.9H870.5z M869.7,651.4v0.8h0.8v0.8h3.1v-0.8h0.8v-3.9h-0.8
			v0.8h-0.8v0.8h-0.8v0.8h-0.8v0.8H869.7z"/>
		<path d="M879.1,644.4v-0.8h4.7v0.8h0.8v0.8h0.8v7.8h-0.8v0.8h-0.8v0.8h-4.7v-0.8h-0.8V653h-0.8v-7.8h0.8v-0.8H879.1z M879.9,649.9
			v-0.8h0.8v-0.8h0.8v-0.8h0.8v-0.8h1.6V646H883v-0.8h-3.1v0.8h-0.8v3.9H879.9z M879.1,651.4v0.8h0.8v0.8h3.1v-0.8h0.8v-3.9H883v0.8
			h-0.8v0.8h-0.8v0.8h-0.8v0.8H879.1z"/>
	</g>
	<line class="st17" x1="964.1" y1="638" x2="964.1" y2="624.5"/>
	<g>
		<path d="M947.7,653h6.2v1.6h-7.8v-4.7h0.8v-0.8h0.8v-0.8h3.9v-0.8h0.8V646h-0.8v-0.8h-3.1v0.8h-0.8v0.8h-1.6v-1.6h0.8v-0.8h0.8
			v-0.8h4.7v0.8h0.8v0.8h0.8v3.1h-0.8v0.8h-0.8v0.8h-3.9v0.8h-0.8V653z"/>
		<path d="M957.1,644.4v-0.8h4.7v0.8h0.8v0.8h0.8v7.8h-0.8v0.8h-0.8v0.8h-4.7v-0.8h-0.8V653h-0.8v-7.8h0.8v-0.8H957.1z M957.9,649.9
			v-0.8h0.8v-0.8h0.8v-0.8h0.8v-0.8h1.6V646H961v-0.8h-3.1v0.8h-0.8v3.9H957.9z M957.1,651.4v0.8h0.8v0.8h3.1v-0.8h0.8v-3.9H961v0.8
			h-0.8v0.8h-0.8v0.8h-0.8v0.8H957.1z"/>
		<path d="M969.6,653h1.6v1.6h-4.7V653h1.6v-6.2h-1.6v-1.6h0.8v-0.8h0.8v-0.8h1.6V653z"/>
		<path d="M975.8,644.4v-0.8h4.7v0.8h0.8v0.8h0.8v7.8h-0.8v0.8h-0.8v0.8h-4.7v-0.8h-0.8V653h-0.8v-7.8h0.8v-0.8H975.8z M976.6,649.9
			v-0.8h0.8v-0.8h0.8v-0.8h0.8v-0.8h1.6V646h-0.8v-0.8h-3.1v0.8h-0.8v3.9H976.6z M975.8,651.4v0.8h0.8v0.8h3.1v-0.8h0.8v-3.9h-0.8
			v0.8H979v0.8h-0.8v0.8h-0.8v0.8H975.8z"/>
	</g>
	<line class="st17" x1="670.5" y1="638" x2="670.5" y2="624.5"/>
	<line class="st17" x1="767.2" y1="638" x2="767.2" y2="624.5"/>
	<line class="st17" x1="472.5" y1="638" x2="472.5" y2="624.5"/>
	<line class="st17" x1="569.2" y1="638" x2="569.2" y2="624.5"/>
	<line class="st17" x1="274.5" y1="638" x2="274.5" y2="624.5"/>
	<line class="st17" x1="371.2" y1="638" x2="371.2" y2="624.5"/>
	<line class="st17" x1="173.2" y1="638" x2="173.2" y2="624.5"/>
	<line class="st17" x1="74.2" y1="638" x2="74.2" y2="624.5"/>
	<g>
		<path d="M61,653h1.6v1.6h-4.7V653h1.6v-6.2h-1.6v-1.6h0.8v-0.8h0.8v-0.8H61V653z"/>
		<path d="M66.4,653h-0.8v-1.6h1.6v0.8H68v0.8h3.1v-0.8h0.8v-2.3h-4.7v-0.8h-0.8v-0.8h-0.8v-3.1h0.8v-0.8h0.8v-0.8h4.7v0.8h0.8v0.8
			h0.8v7.8h-0.8v0.8h-0.8v0.8h-4.7v-0.8h-0.8V653z M71.9,648.3V646h-0.8v-0.8H68v0.8h-0.8v1.6H68v0.8H71.9z"/>
		<path d="M76.6,653h6.2v1.6H75v-4.7h0.8v-0.8h0.8v-0.8h3.9v-0.8h0.8V646h-0.8v-0.8h-3.1v0.8h-0.8v0.8H75v-1.6h0.8v-0.8h0.8v-0.8
			h4.7v0.8h0.8v0.8h0.8v3.1h-0.8v0.8h-0.8v0.8h-3.9v0.8h-0.8V653z"/>
		<path d="M86,644.4v-0.8h4.7v0.8h0.8v0.8h0.8v7.8h-0.8v0.8h-0.8v0.8H86v-0.8h-0.8V653h-0.8v-7.8h0.8v-0.8H86z M86.8,649.9v-0.8h0.8
			v-0.8h0.8v-0.8h0.8v-0.8h1.6V646h-0.8v-0.8h-3.1v0.8H86v3.9H86.8z M86,651.4v0.8h0.8v0.8h3.1v-0.8h0.8v-3.9h-0.8v0.8h-0.8v0.8
			h-0.8v0.8h-0.8v0.8H86z"/>
	</g>
</g>
<g id="Layer_3">
	<path class="st18" d="M45,631h61.7c0,0,23.1-4.1,25.1-2.7c2,1.4,9.5,0.7,14.2,2.7c4.7,2,17-3,17-3s14.2,1.2,22.4,3.5
		c8.1,2.2,28.5-2.4,31.9-3.5s9.5,3.8,16.3,4.1s34.6,0,34.6,0s29.9-3,33.9-2.1c4.1,1,12.9-1.3,19-2.2s17.6,3.5,23.1,4.4
		c5.4,0.8,10.9-2.6,19-2.2c8.1,0.4,21.7-2.8,24.4-2.2c2.7,0.6,10.9,5.3,22.4,4.6c11.5-0.7,26.5,2.8,29.2,0.1s10.9-7.5,10.9-7.5
		s10.2,5.2,17,4.3s16.3,0.2,23.7,0c7.5-0.2,9.5-1.1,30.5,0c21,1.1,45.4,0.2,53.6,0c8.2-0.2,21.1,0.2,24.5,0c3.4-0.2,14.9,0,14.9,0
		s0.7-3.6,7.5-4.3c6.8-0.7,10.9,5.2,16.3,4.3s6.1-3,16.3-4.3c10.2-1.3,13.6,5.2,16.3,4.3c2.7-0.9,19-2,25.1-4.5
		c6.1-2.5,6.8,1.1,16.3,0c9.5-1.1,25.8-4.5,25.8-4.5s4.7,4.5,14.2,6.7s17,1.9,27.1,0c10.2-1.9,22.4,1.9,25.1,0
		c2.7-1.9,6.8-12.1,12.9-12.1s13.6-8.1,19-7.5c5.4,0.7,7.5,6.1,17,6.1c0,0,3.4-6.9,13.6-6.1s3.4,6.1,10.2,6.1s6.1-7.6,10.9-6.2
		c4.7,1.4,5.4,7.6,9.5,5.5c4.1-2,22.4-69.2,27.8-71.2c5.4-2,11.5,0.7,15.6,0c4.1-0.7,10.9-147.9,17.6-147.9c6.8,0,12.9,65.8,17,65.8
		S996.3,403,999,325s3.4-197,11.5-196.9c8.1,0.1,10.9,6.3,12.2,1.5c1.4-4.8,6.8-22.2,10.9-19.6c4.1,2.6,5.4,35.1,10.9,36.2
		s12.9-18.2,12.9-43.2"/>
	<rect x="1366.7" y="-146.1" class="st19" width="216" height="216"/>
	<g>
		<path class="st20" d="M47.6,720.8h-1.3V705H49v14.5h1.3v1.3h5.3v-1.3h1.3V705h2.6v15.8h-1.3v1.3h-1.3v1.3H49v-1.3h-1.3V720.8z"/>
		<path class="st20" d="M74,707.6h1.3v2.6h-2.6v-1.3h-1.3v-1.3h-5.3v1.3h-1.3v2.6h1.3v1.3h6.6v1.3H74v1.3h1.3v5.3H74v1.3h-1.3v1.3
			h-7.9v-1.3h-1.3v-1.3h-1.3v-2.6h2.6v1.3h1.3v1.3h5.3v-1.3h1.3v-2.6h-1.3v-1.3h-6.6v-1.3h-1.3v-1.3h-1.3v-5.3h1.3v-1.3h1.3V705h7.9
			v1.3H74V707.6z"/>
		<path class="st20" d="M91.1,705v2.6H80.6v5.3h7.9v2.6h-7.9v5.3h10.5v2.6H78V705H91.1z"/>
		<path class="st20" d="M112.2,706.3V705h7.9v1.3h1.3v1.3h1.3v13.2h-1.3v1.3h-1.3v1.3h-7.9v-1.3h-1.3v-1.3h-1.3v-13.2h1.3v-1.3
			H112.2z M118.8,707.6h-5.3v1.3h-1.3v10.5h1.3v1.3h5.3v-1.3h1.3v-10.5h-1.3V707.6z"/>
		<path class="st20" d="M138.6,705v2.6h-10.5v5.3h7.9v2.6h-7.9v7.9h-2.6V705H138.6z"/>
		<path class="st20" d="M166.3,708.9h1.3v4h-4v-5.3h1.3v-1.3h1.3V708.9z M167.6,705v1.3h-1.3V705H167.6z"/>
		<path class="st20" d="M184.7,707.6h1.3v2.6h-2.6v-1.3h-1.3v-1.3h-5.3v1.3h-1.3v2.6h1.3v1.3h6.6v1.3h1.3v1.3h1.3v5.3h-1.3v1.3h-1.3
			v1.3h-7.9v-1.3h-1.3v-1.3h-1.3v-2.6h2.6v1.3h1.3v1.3h5.3v-1.3h1.3v-2.6h-1.3v-1.3h-6.6v-1.3h-1.3v-1.3h-1.3v-5.3h1.3v-1.3h1.3V705
			h7.9v1.3h1.3V707.6z"/>
		<path class="st20" d="M190,720.8h-1.3V705h2.6v14.5h1.3v1.3h5.3v-1.3h1.3V705h2.6v15.8h-1.3v1.3h-1.3v1.3h-7.9v-1.3H190V720.8z"/>
		<path class="st20" d="M207.2,715.5v7.9h-2.6V705h10.5v1.3h1.3v1.3h1.3v5.3h-1.3v1.3h-1.3v1.3H207.2z M207.2,707.6v5.3h6.6v-1.3
			h1.3v-2.6h-1.3v-1.3H207.2z"/>
		<path class="st20" d="M233.5,705v2.6H223v5.3h7.9v2.6H223v5.3h10.5v2.6h-13.2V705H233.5z"/>
		<path class="st20" d="M240.1,715.5h-1.3v7.9h-2.6V705h10.5v1.3h1.3v1.3h1.3v5.3H248v1.3h-1.3v1.3h-2.6v1.3h1.3v1.3h1.3v1.3h1.3
			v1.3h1.3v2.6h-2.6v-1.3h-1.3v-1.3h-1.3v-1.3h-1.3v-1.3h-1.3v-1.3h-1.3V715.5z M238.8,707.6v5.3h6.6v-1.3h1.3v-2.6h-1.3v-1.3H238.8
			z"/>
		<path class="st20" d="M265.2,705v2.6h-10.5v5.3h7.9v2.6h-7.9v7.9H252V705H265.2z"/>
		<path class="st20" d="M270.4,706.3V705h7.9v1.3h1.3v1.3h1.3v13.2h-1.3v1.3h-1.3v1.3h-7.9v-1.3h-1.3v-1.3h-1.3v-13.2h1.3v-1.3
			H270.4z M277,707.6h-5.3v1.3h-1.3v10.5h1.3v1.3h5.3v-1.3h1.3v-10.5H277V707.6z"/>
		<path class="st20" d="M286.3,706.3V705h7.9v1.3h1.3v1.3h1.3v13.2h-1.3v1.3h-1.3v1.3h-7.9v-1.3h-1.3v-1.3h-1.3v-13.2h1.3v-1.3
			H286.3z M292.9,707.6h-5.3v1.3h-1.3v10.5h1.3v1.3h5.3v-1.3h1.3v-10.5h-1.3V707.6z"/>
		<path class="st20" d="M299.4,723.4V705H310v1.3h1.3v1.3h1.3v13.2h-1.3v1.3H310v1.3H299.4z M302.1,707.6v13.2h6.6v-1.3h1.3v-10.5
			h-1.3v-1.3H302.1z"/>
		<path class="st20" d="M319.2,708.9h-1.3v-4h4v5.3h-1.3v1.3h-1.3V708.9z M317.9,712.9v-1.3h1.3v1.3H317.9z"/>
		<path class="st20" d="M54.2,754.5h1.3v1.3h-2.6v-1.3h-1.3v-1.3h-1.3v-1.3H49v-13.2h1.3v-1.3h1.3v-1.3h1.3v-1.3h2.6v1.3h-1.3v1.3
			h-1.3v1.3h-1.3v13.2h1.3v1.3h1.3V754.5z"/>
		<path class="st20" d="M70,753.2h2.6v2.6h-7.9v-2.6h2.6v-10.5h-2.6V740h1.3v-1.3h1.3v-1.3H70V753.2z"/>
		<path class="st20" d="M79.3,753.2H78v-2.6h2.6v1.3h1.3v1.3h5.3v-1.3h1.3v-4h-7.9v-1.3h-1.3v-1.3H78V740h1.3v-1.3h1.3v-1.3h7.9v1.3
			h1.3v1.3h1.3v13.2h-1.3v1.3h-1.3v1.3h-7.9v-1.3h-1.3V753.2z M88.5,745.3v-4h-1.3V740h-5.3v1.3h-1.3v2.7h1.3v1.3H88.5z"/>
		<path class="st20" d="M101.7,753.2h2.6v2.6h-7.9v-2.6h2.6v-10.5h-2.6V740h1.3v-1.3h1.3v-1.3h2.6V753.2z"/>
		<path class="st20" d="M120.1,740h-10.5v-2.6h13.2v6.6h-1.3v1.3h-1.3v1.3h-1.3v1.3h-1.3v7.9h-2.6v-9.2h1.3v-1.3h1.3V744h1.3v-1.3
			h1.3V740z"/>
		<path class="st20" d="M153.1,745.3v2.6h-10.5v-2.6H153.1z"/>
		<path class="st20" d="M175.5,753.2h10.5v2.6h-13.2v-7.9h1.3v-1.3h1.3v-1.3h6.6V744h1.3v-2.6h-1.3V740h-5.3v1.3h-1.3v1.3h-2.6V740
			h1.3v-1.3h1.3v-1.3h7.9v1.3h1.3v1.3h1.3v5.3h-1.3v1.3h-1.3v1.3h-6.6v1.3h-1.3V753.2z"/>
		<path class="st20" d="M191.3,738.7v-1.3h7.9v1.3h1.3v1.3h1.3v13.2h-1.3v1.3h-1.3v1.3h-7.9v-1.3H190v-1.3h-1.3V740h1.3v-1.3H191.3z
			 M192.7,747.9v-1.3h1.3v-1.3h1.3V744h1.3v-1.3h2.6v-1.3h-1.3V740h-5.3v1.3h-1.3v6.6H192.7z M191.3,750.6v1.3h1.3v1.3h5.3v-1.3h1.3
			v-6.6h-1.3v1.3h-1.3v1.3h-1.3v1.3H194v1.3H191.3z"/>
		<path class="st20" d="M212.4,753.2h2.6v2.6h-7.9v-2.6h2.6v-10.5h-2.6V740h1.3v-1.3h1.3v-1.3h2.6V753.2z"/>
		<path class="st20" d="M221.7,753.2h-1.3v-2.6h2.6v1.3h1.3v1.3h5.3v-1.3h1.3v-4H223v-1.3h-1.3v-1.3h-1.3V740h1.3v-1.3h1.3v-1.3h7.9
			v1.3h1.3v1.3h1.3v13.2h-1.3v1.3h-1.3v1.3H223v-1.3h-1.3V753.2z M230.9,745.3v-4h-1.3V740h-5.3v1.3H223v2.7h1.3v1.3H230.9z"/>
		<path class="st20" d="M242.8,754.5v1.3h-2.6v-1.3h1.3v-1.3h1.3v-1.3h1.3v-13.2h-1.3v-1.3h-1.3v-1.3h-1.3v-1.3h2.6v1.3h1.3v1.3h1.3
			v1.3h1.3v13.2h-1.3v1.3h-1.3v1.3H242.8z"/>
		<path class="st20" d="M279.7,740h1.3v2.6h-2.6v-1.3H277V740h-5.3v1.3h-1.3v10.5h1.3v1.3h5.3v-1.3h1.3v-4h-4v-2.6h6.6v7.9h-1.3v1.3
			h-1.3v1.3h-7.9v-1.3h-1.3v-1.3h-1.3V740h1.3v-1.3h1.3v-1.3h7.9v1.3h1.3V740z"/>
		<path class="st20" d="M286.3,738.7v-1.3h7.9v1.3h1.3v1.3h1.3v13.2h-1.3v1.3h-1.3v1.3h-7.9v-1.3h-1.3v-1.3h-1.3V740h1.3v-1.3H286.3
			z M292.9,740h-5.3v1.3h-1.3v10.5h1.3v1.3h5.3v-1.3h1.3v-10.5h-1.3V740z"/>
		<path class="st20" d="M302.1,738.7v-1.3h7.9v1.3h1.3v1.3h1.3v13.2h-1.3v1.3H310v1.3h-7.9v-1.3h-1.3v-1.3h-1.3V740h1.3v-1.3H302.1z
			 M308.7,740h-5.3v1.3h-1.3v10.5h1.3v1.3h5.3v-1.3h1.3v-10.5h-1.3V740z"/>
		<path class="st20" d="M327.1,740h1.3v2.6h-2.6v-1.3h-1.3V740h-5.3v1.3h-1.3v10.5h1.3v1.3h5.3v-1.3h1.3v-4h-4v-2.6h6.6v7.9h-1.3
			v1.3h-1.3v1.3h-7.9v-1.3h-1.3v-1.3h-1.3V740h1.3v-1.3h1.3v-1.3h7.9v1.3h1.3V740z"/>
		<path class="st20" d="M331.1,755.8v-18.5h2.6v15.8h10.5v2.6H331.1z"/>
		<path class="st20" d="M360.1,737.4v2.6h-10.5v5.3h7.9v2.6h-7.9v5.3h10.5v2.6h-13.2v-18.5H360.1z"/>
		<path class="st20" d="M381.2,745.3v10.5h-2.6v-18.5h2.6v4h1.3v1.3h1.3v1.3h1.3v1.3h1.3v1.3h1.3v1.3h1.3v-10.5h2.6v18.5h-2.6v-4
			h-1.3v-1.3h-1.3v-1.3h-1.3v-1.3h-1.3v-1.3h-1.3v-1.3H381.2z"/>
		<path class="st20" d="M406.2,740h1.3v2.6h-2.6v-1.3h-1.3V740h-5.3v1.3H397v10.5h1.3v1.3h5.3v-1.3h1.3v-4h-4v-2.6h6.6v7.9h-1.3v1.3
			h-1.3v1.3H397v-1.3h-1.3v-1.3h-1.3V740h1.3v-1.3h1.3v-1.3h7.9v1.3h1.3V740z"/>
		<path class="st20" d="M414.1,747.9h-1.3v7.9h-2.6v-18.5h10.5v1.3h1.3v1.3h1.3v5.3h-1.3v1.3h-1.3v1.3h-2.6v1.3h1.3v1.3h1.3v1.3h1.3
			v1.3h1.3v2.6h-2.6v-1.3h-1.3v-1.3h-1.3v-1.3h-1.3v-1.3h-1.3v-1.3h-1.3V747.9z M412.8,740v5.3h6.6V744h1.3v-2.6h-1.3V740H412.8z"/>
		<path class="st20" d="M428.6,755.8H426v-13.2h1.3v-1.3h1.3V740h1.3v-1.3h1.3v-1.3h2.6v1.3h1.3v1.3h1.3v1.3h1.3v1.3h1.3v13.2h-2.6
			v-5.3h-7.9V755.8z M428.6,747.9h7.9v-4h-1.3v-1.3h-1.3v-1.3h-2.6v1.3H430v1.3h-1.3V747.9z"/>
		<path class="st20" d="M444.5,755.8h-2.6v-18.5h2.6v2.6h1.3v1.3h1.3v1.3h2.6v-1.3h1.3V740h1.3v-2.6h2.6v18.5h-2.6V744h-1.3v1.3
			h-1.3v2.6h-2.6v-2.6h-1.3V744h-1.3V755.8z"/>
	</g>
</g>
</svg>
