<?xml version="1.0" encoding="utf-8"?>
<!-- Generator: Adobe Illustrator 25.2.3, SVG Export Plug-In . SVG Version: 6.00 Build 0)  -->
<svg version="1.1" id="Layer_1" xmlns="http://www.w3.org/2000/svg" xmlns:xlink="http://www.w3.org/1999/xlink" x="0px" y="0px"
	 viewBox="0 0 710 671" style="enable-background:new 0 0 710 671;" xml:space="preserve">
<style type="text/css">
	.st0{fill:#21851D;}
	.st1{fill:#135110;}
	.st2{fill:#8A370F;}
	.st3{fill:#FFDE01;}
	.st4{fill:#FCB912;}
	.st5{fill:#FCF54D;}
	.st6{fill:#FFFFFF;}
	.st7{fill:#A7B941;}
	.st8{fill:#E0E48D;}
	.st9{fill:#DA895E;}
	.st10{fill:#63240B;}
	.st11{fill:#DC0000;}
	.st12{fill:#AE0002;}
	.st13{fill:#FF7A69;}
	.st14{fill:#426024;}
	.st15{fill:#649238;}
	.st16{fill:#EB1C24;}
	.st17{fill:#37A01A;}
	.st18{fill:#F4CB00;}
	.st19{fill:#C30C08;}
	.st20{fill:#FA5810;}
	.st21{fill:#432355;}
	.st22{fill:#F8C09D;}
	.st23{fill:#B31D4A;}
	.st24{fill:#DC1C4B;}
	.st25{fill:#FFE627;}
	.st26{fill:#FFAD27;}
	.st27{fill:#FFF576;}
	.st28{fill:#BCD531;}
	.st29{fill:#7F2600;}
	.st30{fill:#E0E11B;}
	.st31{fill:#98C93C;}
	.st32{fill:#A13906;}
	.st33{fill:#0B5389;}
	.st34{fill:#0C3352;}
	.st35{fill:#3279A5;}
	.st36{fill:#0F4B70;}
	.st37{fill:#DBCEAC;}
	.st38{fill:#FFF6DA;}
	.st39{fill:#FFF4D8;}
	.st40{fill:#BFAF8B;}
	.st41{fill:#6B2114;}
	.st42{fill:#F2CF95;}
	.st43{fill:#C88C43;}
	.st44{fill:#7B3720;}
	.st45{fill:#9C5738;}
	.st46{fill:#DDB67D;}
	.st47{fill:#FFE2AE;}
	.st48{fill:#133415;}
	.st49{fill:#608D62;}
	.st50{fill:#305937;}
	.st51{fill:#2E9649;}
	.st52{fill:#FF854E;}
	.st53{fill:#3BA746;}
	.st54{fill:#308A43;}
	.st55{fill:#F76140;}
	.st56{fill:#FCBB5E;}
	.st57{fill:#4E1349;}
	.st58{fill:#8A428E;}
	.st59{fill:#2A0E27;}
	.st60{fill:#2B853F;}
	.st61{fill:#83AA37;}
	.st62{fill:#96CB3B;}
	.st63{fill:#B1E656;}
	.st64{fill:#5C9514;}
	.st65{fill:#4F7319;}
	.st66{fill:#645C5A;}
	.st67{fill:#7F6D57;}
	.st68{fill:#4B423B;}
	.st69{fill:#E9E1D4;}
	.st70{fill:#9A0A14;}
	.st71{fill:#FCFAE1;}
	.st72{fill:#F8151E;}
	.st73{fill:#DA191E;}
	.st74{fill:#F9572B;}
	.st75{fill:#F79B20;}
	.st76{fill:#F36527;}
	.st77{fill:#FBD371;}
	.st78{fill:#EFEF97;}
	.st79{fill:#D87E3D;}
	.st80{fill:#B55E2C;}
	.st81{fill:#ED9857;}
	.st82{fill:#803415;}
	.st83{fill:#8B561D;}
	.st84{fill:#95B90B;}
	.st85{fill:#B5CE4D;}
	.st86{fill:#FFFEFF;}
	.st87{fill:#000900;}
	.st88{fill:#61176E;}
	.st89{fill:#4A1056;}
	.st90{fill:#A126B8;}
	.st91{fill:#EA0F13;}
	.st92{fill:#BC0406;}
	.st93{fill:#F9B6BD;}
	.st94{fill:#D1282B;}
	.st95{fill:#EC2125;}
	.st96{fill:#881719;}
	.st97{fill:#ADC45C;}
	.st98{fill:#717D33;}
	.st99{fill:#C0D667;}
	.st100{fill:#78C433;}
	.st101{fill:#D22127;}
	.st102{fill:#E4696C;}
	.st103{fill:#BC2325;}
	.st104{fill:#FB8794;}
	.st105{fill:#A3242B;}
</style>
<g>
	<g>
		<polygon class="st0" points="520.9,18.5 514.6,14.8 511,21 504.8,17.4 501.1,23.6 494.9,19.9 491.2,26.1 485,22.4 474,41.1 
			480.2,44.8 476.5,51 482.7,54.6 479.1,60.8 485.3,64.5 481.6,70.7 487.8,74.4 525.1,96.4 531.3,100.1 535,93.9 541.2,97.5 
			544.9,91.3 551.1,95 554.7,88.8 561,92.5 564.6,86.2 583.3,97.3 586.9,91 568.3,80 572,73.8 565.8,70.2 569.4,63.9 563.2,60.3 
			566.9,54.1 560.7,50.4 564.3,44.2 558.1,40.5 		"/>
		
			<rect x="525.6" y="25" transform="matrix(0.5086 -0.861 0.861 0.5086 207.3942 485.6516)" class="st1" width="7.2" height="72.2"/>
		
			<rect x="512.6" y="58.2" transform="matrix(0.5086 -0.861 0.861 0.5086 200.4035 474.8165)" class="st1" width="7.2" height="7.2"/>
		
			<rect x="513.7" y="42.1" transform="matrix(0.5086 -0.861 0.861 0.5086 214.8145 467.8794)" class="st1" width="7.2" height="7.2"/>
		
			<rect x="511.2" y="32.2" transform="matrix(0.5086 -0.861 0.861 0.5086 222.0737 460.835)" class="st1" width="7.2" height="7.2"/>
		
			<rect x="538.6" y="56.8" transform="matrix(0.5086 -0.861 0.861 0.5086 214.385 496.4867)" class="st1" width="7.2" height="7.2"/>
		
			<rect x="543.7" y="76.6" transform="matrix(0.5086 -0.861 0.861 0.5086 199.8665 510.5756)" class="st1" width="7.2" height="7.2"/>
		<rect x="536" y="46.9" transform="matrix(0.5086 -0.861 0.861 0.5086 221.6442 489.4423)" class="st1" width="7.2" height="7.2"/>
		
			<rect x="502.7" y="60.8" transform="matrix(0.5086 -0.861 0.861 0.5086 193.359 467.5573)" class="st1" width="7.2" height="7.2"/>
		
			<rect x="533.8" y="79.1" transform="matrix(0.5086 -0.861 0.861 0.5086 192.8221 503.3164)" class="st1" width="7.2" height="7.2"/>
	</g>
	<g>
		<polygon class="st0" points="695.6,136.8 699,130.5 692.6,127.1 696,120.7 689.6,117.3 693,110.9 686.6,107.6 690,101.2 670.9,91 
			667.5,97.4 661.1,94 657.7,100.4 651.4,97 648,103.4 641.6,100 638.2,106.4 617.9,144.6 614.6,151 620.9,154.4 617.6,160.8 
			623.9,164.2 620.5,170.5 626.9,173.9 623.5,180.3 629.9,183.7 619.8,202.8 626.1,206.2 636.3,187 642.7,190.4 646,184.1 
			652.4,187.4 655.8,181.1 662.2,184.4 665.6,178.1 671.9,181.4 675.3,175.1 		"/>
		
			<rect x="649.8" y="111" transform="matrix(0.8834 0.4686 -0.4686 0.8834 145.1054 -289.014)" class="st1" width="7.2" height="72.2"/>
		
			<rect x="648.5" y="130.6" transform="matrix(0.8834 0.4686 -0.4686 0.8834 138.8891 -289.9124)" class="st1" width="7.2" height="7.2"/>
		
			<rect x="664.6" y="131" transform="matrix(0.8834 0.4686 -0.4686 0.8834 140.9511 -297.425)" class="st1" width="7.2" height="7.2"/>
		
			<rect x="674.4" y="128" transform="matrix(0.8834 0.4686 -0.4686 0.8834 140.6858 -302.345)" class="st1" width="7.2" height="7.2"/>
		
			<rect x="651.1" y="156.4" transform="matrix(0.8834 0.4686 -0.4686 0.8834 151.3217 -288.1157)" class="st1" width="7.2" height="7.2"/>
		
			<rect x="631.6" y="162.4" transform="matrix(0.8834 0.4686 -0.4686 0.8834 151.8523 -278.2757)" class="st1" width="7.2" height="7.2"/>
		
			<rect x="660.8" y="153.5" transform="matrix(0.8834 0.4686 -0.4686 0.8834 151.0564 -293.0356)" class="st1" width="7.2" height="7.2"/>
		
			<rect x="645.5" y="120.8" transform="matrix(0.8834 0.4686 -0.4686 0.8834 133.9691 -289.6471)" class="st1" width="7.2" height="7.2"/>
		
			<rect x="628.6" y="152.7" transform="matrix(0.8834 0.4686 -0.4686 0.8834 146.9323 -278.0104)" class="st1" width="7.2" height="7.2"/>
	</g>
	<g>
		<rect x="434.4" y="53.4" transform="matrix(0.994 0.109 -0.109 0.994 8.9827 -47.5544)" class="st2" width="10.1" height="10.1"/>
		<polygon class="st3" points="452.8,75 453.9,65 443.9,63.9 445,53.9 435,52.8 433.9,62.8 413.9,60.6 411.7,80.6 401.7,79.5 
			397.3,119.5 387.3,118.4 385.1,138.5 365.1,136.3 364,146.3 354,145.2 344,144.1 342.9,154.1 322.9,151.9 302.9,149.7 
			301.8,159.7 281.8,157.5 280.7,167.5 280.7,167.5 279.6,177.5 289.6,178.6 288.5,188.6 317.4,191.8 316.3,201.8 317.4,201.9 
			377.4,208.5 378.5,198.5 398.3,200.6 398.5,200.6 399.6,190.6 419.6,192.8 420.7,182.8 430.7,183.9 431.8,173.9 441.8,175 
			442.9,165 452.9,166.1 458.4,116.1 462.8,76.1 		"/>
		<rect x="280.1" y="168" transform="matrix(0.994 0.109 -0.109 0.994 20.5618 -30.0547)" class="st2" width="10.1" height="10.1"/>
		<rect x="425" y="42.2" transform="matrix(0.994 0.109 -0.109 0.994 8.2618 -46.5603)" class="st2" width="10.1" height="20.1"/>
		<rect x="359" y="186.8" transform="matrix(0.994 0.109 -0.109 0.994 23.0786 -38.5446)" class="st4" width="10.1" height="10.1"/>
		<rect x="369" y="187.9" transform="matrix(0.994 0.109 -0.109 0.994 23.2578 -39.6282)" class="st4" width="10.1" height="10.1"/>
		
			<rect x="301.2" y="160.2" transform="matrix(0.994 0.109 -0.109 0.994 19.8365 -32.4011)" class="st4" width="10.1" height="10.1"/>
		
			<rect x="370.1" y="178.4" transform="matrix(0.994 0.109 -0.109 0.994 22.2637 -40.3492)" class="st4" width="20.1" height="10.1"/>
		
			<rect x="411.2" y="172.3" transform="matrix(0.994 0.109 -0.109 0.994 21.8071 -44.321)" class="st4" width="10.1" height="10.1"/>
		
			<rect x="422.3" y="163.4" transform="matrix(0.994 0.109 -0.109 0.994 20.9026 -45.5838)" class="st4" width="10.1" height="10.1"/>
		
			<rect x="421.2" y="173.4" transform="matrix(0.994 0.109 -0.109 0.994 21.9862 -45.4046)" class="st4" width="10.1" height="10.1"/>
		<rect x="434" y="144.4" transform="matrix(0.994 0.109 -0.109 0.994 19.4563 -46.9361)" class="st4" width="10.1" height="20.1"/>
		
			<rect x="412.2" y="71.2" transform="matrix(0.994 0.109 -0.109 0.994 10.7917 -45.0288)" class="st5" width="10.1" height="10.1"/>
		
			<rect x="448.9" y="85.4" transform="matrix(0.994 0.109 -0.109 0.994 14.7591 -48.8259)" class="st4" width="10.1" height="50.3"/>
		<rect x="435.5" y="43.3" transform="matrix(0.994 0.109 -0.109 0.994 7.8991 -47.7335)" class="st2" width="10.1" height="10.1"/>
		<rect x="436.6" y="33.3" transform="matrix(0.994 0.109 -0.109 0.994 6.8155 -47.9127)" class="st2" width="10.1" height="10.1"/>
		
			<rect x="411.1" y="81.2" transform="matrix(0.994 0.109 -0.109 0.994 11.8753 -44.8497)" class="st5" width="10.1" height="10.1"/>
		<rect x="281.2" y="158" transform="matrix(0.994 0.109 -0.109 0.994 19.4782 -30.2339)" class="st2" width="10.1" height="10.1"/>
		
			<rect x="292.3" y="149.6" transform="matrix(0.994 0.109 -0.109 0.994 18.6633 -32.0384)" class="st6" width="20.1" height="10.1"/>
	</g>
	<g>
		<g>
			<polygon class="st7" points="130.2,83.8 130.2,75.2 130.2,66.6 121.6,66.6 121.6,49.3 113,49.3 113,23.5 104.4,23.5 104.4,14.9 
				95.8,14.9 95.8,6.3 61.3,6.3 61.3,14.9 52.7,14.9 52.7,23.5 44.1,23.5 44.1,49.3 35.5,49.3 35.5,66.6 26.9,66.6 26.9,75.2 
				26.9,83.8 18.3,83.8 18.3,135.4 26.9,135.4 26.9,144.1 35.5,144.1 35.5,152.7 44.1,152.7 44.1,161.3 69.9,161.3 87.2,161.3 
				113,161.3 113,152.7 121.6,152.7 121.6,144.1 130.2,144.1 130.2,135.4 138.8,135.4 138.8,83.8 			"/>
			<polygon class="st8" points="121.6,92.4 121.6,75.2 113,75.2 113,58 104.4,58 104.4,32.1 95.8,32.1 95.8,23.5 87.2,23.5 
				87.2,14.9 69.9,14.9 69.9,23.5 61.3,23.5 61.3,32.1 52.7,32.1 52.7,58 44.1,58 44.1,75.2 35.5,75.2 35.5,92.4 26.9,92.4 
				26.9,126.8 35.5,126.8 35.5,135.4 44.1,135.4 44.1,144.1 52.7,144.1 52.7,152.7 61.3,152.7 69.9,152.7 87.2,152.7 95.8,152.7 
				104.4,152.7 104.4,144.1 113,144.1 113,135.4 121.6,135.4 121.6,126.8 130.2,126.8 130.2,92.4 			"/>
			<polygon class="st2" points="104.4,101 95.8,101 95.8,92.4 87.2,92.4 87.2,83.8 69.9,83.8 69.9,92.4 61.3,92.4 61.3,101 
				52.7,101 52.7,118.2 61.3,118.2 61.3,126.8 69.9,126.8 69.9,135.4 87.2,135.4 87.2,126.8 95.8,126.8 95.8,118.2 104.4,118.2 			
				"/>
			<rect x="78.5" y="92.4" class="st9" width="8.6" height="8.6"/>
		</g>
		<rect x="61.3" y="109.6" class="st10" width="8.6" height="8.6"/>
		<rect x="69.9" y="118.2" class="st10" width="8.6" height="8.6"/>
	</g>
	<g>
		<polygon class="st11" points="594.6,169.3 594.6,154.6 587.3,154.6 587.3,147.3 579.9,147.3 579.9,140 572.6,140 572.6,132.6 
			550.6,132.6 499.3,132.6 499.3,140 492,140 492,147.3 484.6,147.3 484.6,154.6 477.3,154.6 477.3,169.3 470,169.3 470,205.9 
			477.3,205.9 477.3,213.3 484.6,213.3 484.6,220.6 492,220.6 492,227.9 499.3,227.9 499.3,235.3 572.6,235.3 572.6,227.9 
			579.9,227.9 579.9,220.6 587.3,220.6 587.3,213.3 594.6,213.3 594.6,205.9 601.9,205.9 601.9,169.3 		"/>
		<rect x="506.6" y="228" class="st12" width="22" height="7.3"/>
		<rect x="499.3" y="154.6" class="st13" width="7.3" height="7.3"/>
		<polygon class="st13" points="499.3,162 492,162 484.6,162 484.6,176.6 484.6,191.3 492,191.3 492,176.6 499.3,176.6 		"/>
		<g>
			<rect x="514" y="118" class="st14" width="7.3" height="7.3"/>
			<rect x="499.3" y="140" class="st14" width="7.3" height="7.3"/>
			<rect x="565.3" y="154.6" class="st14" width="7.3" height="7.3"/>
			<rect x="557.9" y="118" class="st14" width="7.3" height="7.3"/>
			<rect x="514" y="154.6" class="st14" width="7.3" height="7.3"/>
			<rect x="565.6" y="110.6" class="st14" width="7.3" height="7.3"/>
			<rect x="506.6" y="110.7" class="st14" width="7.3" height="7.3"/>
			<rect x="572.6" y="125.3" class="st14" width="7.3" height="7.3"/>
			<polygon class="st14" points="557.9,125.3 543.3,125.3 521.3,125.3 521.3,132.6 506.6,132.6 506.6,140 521.3,140 528.6,140 
				528.6,147.3 521.3,147.3 521.3,154.6 536,154.6 536,147.3 543.3,147.3 550.6,147.3 550.6,154.6 557.9,154.6 565.3,154.6 
				565.3,147.3 557.9,147.3 557.9,140 572.6,140 572.6,132.6 557.9,132.6 			"/>
		</g>
		<polygon class="st15" points="543.3,110.7 543.3,118 536,118 536,125.3 536,132.6 543.3,132.6 543.3,125.3 550.6,125.3 550.6,118 
			550.6,110.7 		"/>
		<rect x="528.6" y="132.6" class="st15" width="7.3" height="7.3"/>
		<polygon class="st12" points="601.7,198.6 601.7,191 594.4,191 594.4,198.6 587.3,198.6 587.3,205.9 579.9,205.9 579.9,220.6 
			572.6,220.6 572.6,213.3 565.3,213.3 565.3,220.6 557.9,220.6 557.9,227.9 543.3,227.9 543.3,235.3 557.9,235.3 565.3,235.3 
			572.6,235.3 572.6,227.9 579.9,227.9 579.9,221.1 587.5,221.1 587.5,213.3 594.6,213.3 594.6,205.9 601.9,205.9 601.9,198.6 		"/>
	</g>
	<g>
		<polygon class="st16" points="325.9,238.9 323.8,234.1 319,236.3 316.8,231.5 259.3,257.7 261.5,262.5 256.7,264.7 258.9,269.5 
			254.1,271.7 267.2,300.4 272,298.2 276.4,307.8 281.2,305.6 283.4,310.4 288.2,308.2 290.3,313 295.1,310.8 297.3,315.6 
			302.1,313.4 304.3,318.2 309.1,316 311.3,320.8 330.4,312.1 328.2,307.3 333,305.1 330.8,300.3 335.6,298.1 333.4,293.3 
			338.2,291.1 336,286.3 340.8,284.2 338.6,279.4 343.4,277.2 339.1,267.6 343.9,265.4 330.7,236.7 		"/>
		<g>
			
				<rect x="265.4" y="242.4" transform="matrix(0.9097 -0.4153 0.4153 0.9097 -77.5713 133.4414)" class="st17" width="5.3" height="5.3"/>
			
				<rect x="269.8" y="252" transform="matrix(0.9097 -0.4153 0.4153 0.9097 -81.1536 136.1221)" class="st17" width="5.3" height="5.3"/>
			<polygon class="st17" points="295.4,235.4 290.7,237.6 286.3,228.1 276.7,232.4 281.1,242 276.3,244.2 271.5,246.4 273.7,251.2 
				278.5,249 280.7,253.8 299.8,245 297.6,240.2 302.4,238 300.2,233.3 			"/>
			
				<rect x="303.3" y="236.7" transform="matrix(0.9097 -0.4153 0.4153 0.9097 -71.7713 148.6604)" class="st17" width="5.3" height="5.3"/>
			
				<rect x="298.9" y="227.1" transform="matrix(0.9097 -0.4153 0.4153 0.9097 -68.189 145.9797)" class="st17" width="5.3" height="5.3"/>
		</g>
		
			<rect x="312" y="255.9" transform="matrix(0.9097 -0.4153 0.4153 0.9097 -78.936 154.0217)" class="st18" width="5.3" height="5.3"/>
		
			<rect x="291.6" y="299.9" transform="matrix(0.9097 -0.4153 0.4153 0.9097 -99.0654 149.5254)" class="st18" width="5.3" height="5.3"/>
		
			<rect x="284.7" y="259.3" transform="matrix(0.9097 -0.4153 0.4153 0.9097 -82.8514 142.9808)" class="st18" width="5.3" height="5.3"/>
		
			<rect x="304.2" y="276.8" transform="matrix(0.9097 -0.4153 0.4153 0.9097 -88.3306 152.6691)" class="st18" width="5.3" height="5.3"/>
		
			<rect x="325.6" y="272.8" transform="matrix(0.9097 -0.4153 0.4153 0.9097 -84.7604 161.1742)" class="st18" width="5.3" height="5.3"/>
		
			<rect x="315.1" y="300.7" transform="matrix(0.9097 -0.4153 0.4153 0.9097 -97.2865 159.3708)" class="st18" width="5.3" height="5.3"/>
		
			<rect x="283.4" y="228.7" transform="matrix(0.9097 -0.4153 0.4153 0.9097 -71.3144 139.936)" class="st0" width="5.3" height="10.5"/>
		
			<rect x="284.1" y="245.5" transform="matrix(0.9097 -0.4153 0.4153 0.9097 -77.1326 141.4957)" class="st0" width="5.3" height="5.3"/>
		
			<rect x="324.5" y="295.3" transform="matrix(0.9097 -0.4153 0.4153 0.9097 -93.9357 163.8487)" class="st19" width="10.5" height="5.3"/>
		
			<rect x="327.1" y="288.3" transform="matrix(0.9097 -0.4153 0.4153 0.9097 -90.8042 164.2996)" class="st19" width="10.5" height="5.3"/>
		
			<rect x="325.8" y="296.1" transform="matrix(0.9097 -0.4153 0.4153 0.9097 -95.5014 163.6233)" class="st19" width="5.3" height="10.5"/>
		
			<rect x="334.7" y="280.2" transform="matrix(0.9097 -0.4153 0.4153 0.9097 -87.0025 165.646)" class="st19" width="5.3" height="5.3"/>
		
			<rect x="336.2" y="268.2" transform="matrix(0.9097 -0.4153 0.4153 0.9097 -82.9754 165.4267)" class="st19" width="5.3" height="10.5"/>
		
			<rect x="332.7" y="262.6" transform="matrix(0.9097 -0.4153 0.4153 0.9097 -79.6184 164.3118)" class="st19" width="10.5" height="5.3"/>
		
			<rect x="335.5" y="251.4" transform="matrix(0.9097 -0.4153 0.4153 0.9097 -77.1571 163.8671)" class="st19" width="5.3" height="15.8"/>
		
			<rect x="319.3" y="309.2" transform="matrix(0.9097 -0.4153 0.4153 0.9097 -100.1987 162.947)" class="st19" width="10.5" height="5.3"/>
		
			<rect x="264.1" y="272.5" transform="matrix(0.9097 -0.4153 0.4153 0.9097 -92.3393 136.1099)" class="st20" width="5.3" height="15.8"/>
		
			<rect x="264.6" y="266" transform="matrix(0.9097 -0.4153 0.4153 0.9097 -87.4166 135.2204)" class="st20" width="5.3" height="5.3"/>
		
			<rect x="267.2" y="259" transform="matrix(0.9097 -0.4153 0.4153 0.9097 -84.2851 135.6712)" class="st20" width="5.3" height="5.3"/>
		
			<rect x="273.7" y="273.4" transform="matrix(0.9097 -0.4153 0.4153 0.9097 -89.6587 139.6922)" class="st18" width="5.3" height="5.3"/>
		
			<rect x="274.4" y="284.9" transform="matrix(0.9097 -0.4153 0.4153 0.9097 -95.477 141.2519)" class="st20" width="5.3" height="10.5"/>
	</g>
	<g>
		<polygon class="st21" points="247.9,188.3 245.9,177.6 240.6,178.6 239.6,173.3 234.3,174.3 233.4,169 228.1,170 227.1,164.7 
			221.8,165.7 220.8,160.4 215.5,161.3 214.5,156 209.2,157 206.2,141.1 195.6,143.1 198.6,159 193.3,160 194.3,165.3 188.9,166.2 
			189.9,171.6 184.6,172.5 185.6,177.8 180.3,178.8 181.3,184.1 176,185.1 177,190.4 171.7,191.4 173.6,202 168.3,203 174.2,234.8 
			179.5,233.8 180.5,239.2 185.8,238.2 186.8,243.5 250.5,231.7 249.5,226.4 254.8,225.4 253.8,220.1 259.1,219.1 253.2,187.3 		"/>
		<polygon class="st22" points="248.9,193.6 243.6,194.6 241.6,183.9 236.3,184.9 235.3,179.6 230,180.6 229,175.3 223.7,176.3 
			222.7,171 217.4,171.9 216.5,166.6 211.2,167.6 210.2,162.3 199.6,164.3 200.5,169.6 195.2,170.6 196.2,175.9 190.9,176.9 
			191.9,182.2 186.6,183.1 187.6,188.5 182.3,189.4 183.2,194.7 177.9,195.7 179.9,206.3 174.6,207.3 178.5,228.5 183.8,227.6 
			184.8,232.9 190.1,231.9 191.1,237.2 212.3,233.3 222.9,231.3 244.2,227.4 243.2,222.1 248.5,221.1 247.5,215.8 252.8,214.8 		"/>
		<polygon class="st23" points="243.6,194.6 238.3,195.5 237.3,190.2 232,191.2 231,185.9 225.7,186.9 224.7,181.6 219.4,182.6 
			218.4,177.3 213.1,178.2 212.1,172.9 201.5,174.9 202.5,180.2 197.2,181.2 198.2,186.5 192.9,187.5 193.9,192.8 188.6,193.8 
			189.5,199.1 184.2,200 185.2,205.4 179.9,206.3 182.8,222.3 188.2,221.3 189.1,226.6 194.4,225.6 195.4,230.9 237.9,223 
			236.9,217.7 242.2,216.8 241.2,211.5 246.5,210.5 		"/>
		
			<rect x="233.9" y="195.9" transform="matrix(0.9833 -0.182 0.182 0.9833 -32.6885 46.4202)" class="st24" width="5.4" height="10.8"/>
		
			<rect x="214.6" y="210.5" transform="matrix(0.9833 -0.182 0.182 0.9833 -35.6563 43.1578)" class="st24" width="5.4" height="10.8"/>
		
			<rect x="195.5" y="197.4" transform="matrix(0.9833 -0.182 0.182 0.9833 -33.5951 39.4536)" class="st24" width="5.4" height="10.8"/>
		
			<rect x="185.7" y="204.8" transform="matrix(0.9833 -0.182 0.182 0.9833 -34.6198 37.7431)" class="st24" width="5.4" height="5.4"/>
		
			<rect x="198.1" y="185.9" transform="matrix(0.9833 -0.182 0.182 0.9833 -30.9692 39.6872)" class="st24" width="5.4" height="5.4"/>
		
			<rect x="204.6" y="218" transform="matrix(0.9833 -0.182 0.182 0.9833 -36.7031 41.4096)" class="st24" width="5.4" height="5.4"/>
		
			<rect x="217.6" y="199" transform="matrix(0.9833 -0.182 0.182 0.9833 -33.0228 43.4592)" class="st24" width="5.4" height="5.4"/>
		
			<rect x="220.8" y="187.3" transform="matrix(0.9833 -0.182 0.182 0.9833 -30.8499 43.8533)" class="st24" width="5.4" height="5.4"/>
		
			<rect x="208.7" y="178.6" transform="matrix(0.9833 -0.182 0.182 0.9833 -29.9607 41.5538)" class="st24" width="5.4" height="10.8"/>
		
			<rect x="206.9" y="200.9" transform="matrix(0.9833 -0.182 0.182 0.9833 -33.5505 41.5402)" class="st24" width="5.4" height="5.4"/>
		
			<rect x="192.9" y="214.4" transform="matrix(0.9833 -0.182 0.182 0.9833 -36.251 39.227)" class="st24" width="5.4" height="5.4"/>
		
			<rect x="231.5" y="212.8" transform="matrix(0.9833 -0.182 0.182 0.9833 -35.8036 46.2729)" class="st24" width="5.4" height="10.8"/>
		
			<rect x="182.3" y="216.4" transform="matrix(0.9833 -0.182 0.182 0.9833 -36.7857 37.3285)" class="st24" width="5.4" height="5.4"/>
	</g>
	<g>
		<polygon class="st25" points="623.6,394.8 616.5,397.6 613.7,390.4 606.6,393.2 603.8,386 596.6,388.8 593.9,381.6 586.7,384.4 
			583.9,377.3 576.8,380 574,372.9 516.7,395 519.5,402.2 512.3,405 515.1,412.1 508,414.9 510.7,422 503.6,424.8 506.3,432 
			499.2,434.7 502,441.9 494.8,444.7 503.1,466.1 510.3,463.4 513,470.5 520.2,467.8 523,474.9 530.1,472.1 532.9,479.3 540,476.5 
			542.8,483.7 550,480.9 552.7,488.1 610,465.9 607.2,458.8 614.4,456 611.6,448.8 618.8,446.1 616,438.9 623.2,436.1 620.4,429 
			627.6,426.2 624.8,419.1 632,416.3 		"/>
		
			<rect x="529.9" y="463.1" transform="matrix(0.9326 -0.3608 0.3608 0.9326 -133.9068 224.2751)" class="st26" width="7.7" height="15.4"/>
		
			<rect x="557.5" y="472.4" transform="matrix(0.9326 -0.3608 0.3608 0.9326 -133.2311 238.7619)" class="st26" width="30.7" height="7.7"/>
		
			<rect x="539.8" y="467.5" transform="matrix(0.9326 -0.3608 0.3608 0.9326 -134.8216 228.1528)" class="st26" width="7.7" height="15.4"/>
		
			<rect x="521.3" y="466.1" transform="matrix(0.9326 -0.3608 0.3608 0.9326 -134.1901 221.1381)" class="st26" width="7.7" height="7.7"/>
		
			<rect x="548.3" y="472.1" transform="matrix(0.9326 -0.3608 0.3608 0.9326 -134.5383 231.2898)" class="st26" width="7.7" height="7.7"/>
		
			<rect x="563.3" y="382.5" transform="matrix(0.9326 -0.3608 0.3608 0.9326 -100.9463 232.0514)" class="st27" width="15.4" height="7.7"/>
		
			<rect x="579.3" y="378.1" transform="matrix(0.9326 -0.3608 0.3608 0.9326 -99.9222 236.3865)" class="st27" width="7.7" height="15.4"/>
		
			<rect x="569.4" y="373.7" transform="matrix(0.9326 -0.3608 0.3608 0.9326 -99.0074 232.5088)" class="st27" width="7.7" height="15.4"/>
		
			<rect x="593.1" y="395.7" transform="matrix(0.9326 -0.3608 0.3608 0.9326 -103.6908 243.6845)" class="st27" width="15.4" height="7.7"/>
		
			<rect x="500.1" y="449.9" transform="matrix(0.9326 -0.3608 0.3608 0.9326 -131.1622 212.642)" class="st26" width="7.7" height="15.4"/>
		
			<rect x="597.8" y="387.2" transform="matrix(0.9326 -0.3608 0.3608 0.9326 -100.5538 243.4012)" class="st27" width="7.7" height="7.7"/>
		
			<rect x="623.2" y="410.3" transform="matrix(0.9326 -0.3608 0.3608 0.9326 -107.1761 254.1195)" class="st26" width="7.7" height="7.7"/>
		
			<rect x="498.7" y="450.2" transform="matrix(0.9326 -0.3608 0.3608 0.9326 -129.9641 211.9013)" class="st18" width="7.7" height="7.7"/>
		
			<rect x="593.5" y="438.8" transform="matrix(0.9326 -0.3608 0.3608 0.9326 -119.4894 245.3477)" class="st18" width="7.7" height="7.7"/>
		
			<rect x="602" y="418.2" transform="matrix(0.9326 -0.3608 0.3608 0.9326 -111.4677 247.0128)" class="st18" width="7.7" height="7.7"/>
		
			<rect x="569.1" y="398.2" transform="matrix(0.9326 -0.3608 0.3608 0.9326 -106.4795 233.8161)" class="st18" width="7.7" height="7.7"/>
	</g>
	<g>
		<polygon class="st28" points="402.1,485.8 401.3,479 394.5,479.9 393.6,473.1 359.7,477.5 360.5,484.3 340.2,486.9 339.3,480.1 
			305.3,484.4 306.2,491.2 299.4,492.1 300.3,498.9 293.5,499.8 300.5,554.1 307.3,553.2 308.1,560 314.9,559.1 315.8,565.9 
			322.6,565 323.5,571.8 330.2,571 331.1,577.8 392.2,569.9 391.4,563.1 398.1,562.2 397.3,555.5 404.1,554.6 403.2,547.8 
			410,546.9 409.1,540.1 415.9,539.3 408.9,484.9 		"/>
		
			<rect x="346.5" y="465.1" transform="matrix(0.9919 -0.1273 0.1273 0.9919 -58.5478 48.4794)" class="st29" width="6.8" height="34.2"/>
		
			<rect x="307.5" y="497.6" transform="matrix(0.9919 -0.1273 0.1273 0.9919 -61.2604 43.667)" class="st30" width="6.8" height="6.8"/>
		
			<rect x="313.4" y="489.5" transform="matrix(0.9919 -0.1273 0.1273 0.9919 -60.1535 44.787)" class="st30" width="13.7" height="6.8"/>
		
			<rect x="302.4" y="505.2" transform="matrix(0.9919 -0.1273 0.1273 0.9919 -63.1416 43.142)" class="st30" width="6.8" height="20.5"/>
		
			<rect x="301.5" y="504.8" transform="matrix(0.9919 -0.1273 0.1273 0.9919 -62.201 43.4045)" class="st30" width="13.7" height="6.8"/>
		
			<rect x="373" y="548.2" transform="matrix(0.9919 -0.1273 0.1273 0.9919 -67.1742 52.4258)" class="st31" width="6.8" height="6.8"/>
		
			<rect x="371.3" y="564.4" transform="matrix(0.9919 -0.1273 0.1273 0.9919 -69.1964 53.2133)" class="st31" width="20.5" height="6.8"/>
		
			<rect x="390.5" y="549" transform="matrix(0.9919 -0.1273 0.1273 0.9919 -67.5776 54.6789)" class="st31" width="6.8" height="13.7"/>
		
			<rect x="390" y="548.6" transform="matrix(0.9919 -0.1273 0.1273 0.9919 -67.0657 55.0245)" class="st31" width="13.7" height="6.8"/>
		
			<rect x="402.3" y="533.7" transform="matrix(0.9919 -0.1273 0.1273 0.9919 -65.5301 56.0614)" class="st31" width="6.8" height="13.7"/>
		
			<rect x="408.2" y="526.1" transform="matrix(0.9919 -0.1273 0.1273 0.9919 -64.5063 56.7526)" class="st31" width="6.8" height="13.7"/>
		
			<rect x="328.7" y="501.7" transform="matrix(0.9919 -0.1273 0.1273 0.9919 -61.6191 46.4057)" class="st7" width="6.8" height="6.8"/>
		
			<rect x="317.3" y="523.8" transform="matrix(0.9919 -0.1273 0.1273 0.9919 -64.5164 45.1272)" class="st7" width="6.8" height="6.8"/>
		
			<rect x="349.1" y="498.7" transform="matrix(0.9919 -0.1273 0.1273 0.9919 -61.0428 49.3777)" class="st31" width="13.2" height="6.8"/>
		
			<rect x="361.8" y="490.6" transform="matrix(0.9919 -0.1273 0.1273 0.9919 -59.9302 50.5269)" class="st7" width="6.8" height="6.8"/>
		
			<rect x="345.2" y="465.1" transform="matrix(0.9919 -0.1273 0.1273 0.9919 -57.2615 48.23)" class="st32" width="6.8" height="13.7"/>
		
			<rect x="380.5" y="481.1" transform="matrix(0.9919 -0.1273 0.1273 0.9919 -58.5738 52.8343)" class="st30" width="6.8" height="6.8"/>
	</g>
	<g>
		<polygon class="st33" points="587.7,329.6 583.7,329.6 583.7,325.7 579.7,325.7 579.7,321.7 552,321.7 552,325.7 548,325.7 
			548,329.6 544,329.6 544,349.5 548,349.5 548,353.4 552,353.4 552,357.4 579.7,357.4 579.7,353.4 583.7,353.4 583.7,349.5 
			587.7,349.5 		"/>
		<rect x="555.5" y="329.6" class="st34" width="19.8" height="4"/>
		<rect x="559.5" y="325.7" class="st34" width="11.9" height="11.9"/>
		<rect x="548" y="337.6" class="st35" width="4" height="7.9"/>
		<rect x="552" y="345.5" class="st35" width="4" height="4"/>
		<rect x="575.8" y="353.4" class="st36" width="4" height="4"/>
		<rect x="579.7" y="349.5" class="st36" width="4" height="4"/>
		<rect x="583.7" y="345.5" class="st36" width="4" height="4"/>
		<rect x="579.7" y="329.6" class="st35" width="4" height="4"/>
	</g>
	<g>
		<polygon class="st37" points="301.1,367 301.1,361.4 295.4,361.4 295.4,355.7 284.1,355.7 284.1,350.1 272.8,350.1 272.8,344.4 
			267.1,344.4 267.1,321.7 255.8,321.7 255.8,344.4 250.1,344.4 250.1,350.1 238.8,350.1 238.8,355.7 227.5,355.7 227.5,361.4 
			221.8,361.4 221.8,367 216.1,367 216.1,401 221.8,401 221.8,406.7 227.5,406.7 227.5,412.4 255.8,412.4 255.8,406.7 267.1,406.7 
			267.1,412.4 295.4,412.4 295.4,406.7 301.1,406.7 301.1,401 306.8,401 306.8,367 		"/>
		<rect x="255.8" y="350.1" class="st38" width="11.3" height="51"/>
		<rect x="250.1" y="355.7" class="st39" width="22.7" height="39.6"/>
		<polygon class="st38" points="238.8,361.4 233.1,361.4 233.1,367 227.5,367 227.5,372.7 221.8,372.7 221.8,395.4 227.5,395.4 
			227.5,401 233.1,401 233.1,406.7 238.8,406.7 238.8,401 244.5,401 244.5,378.4 244.5,367 244.5,361.4 		"/>
		<rect x="250.1" y="355.7" class="st6" width="5.7" height="11.3"/>
		<rect x="261.5" y="316.1" class="st40" width="5.7" height="22.7"/>
		<rect x="244.5" y="401" class="st40" width="5.7" height="5.7"/>
		<rect x="250.1" y="406.7" class="st40" width="5.7" height="5.7"/>
		<rect x="272.8" y="401" class="st40" width="5.7" height="5.7"/>
		<rect x="267.1" y="406.7" class="st40" width="5.7" height="5.7"/>
		<polygon class="st38" points="284.1,361.4 289.8,361.4 289.8,367 295.4,367 295.4,372.7 301.1,372.7 301.1,395.4 295.4,395.4 
			295.4,401 289.8,401 289.8,406.7 284.1,406.7 284.1,401 278.4,401 278.4,378.4 278.4,367 278.4,361.4 		"/>
		<rect x="227.5" y="372.7" class="st6" width="5.7" height="5.7"/>
		<rect x="255.8" y="406.7" class="st40" width="11.3" height="5.7"/>
	</g>
	<g>
		<polygon class="st41" points="121.6,219.6 114.3,218.7 115.2,211.4 107.9,210.5 108.8,203.2 101.5,202.3 102.3,195 95,194.1 
			95.9,186.8 52,181.5 51.1,188.8 43.8,187.9 42.9,195.2 35.6,194.3 34.7,201.6 27.4,200.8 26.5,208.1 19.2,207.2 16.5,229.1 
			23.8,230 22.9,237.3 110.8,248 111.7,240.7 119,241.6 		"/>
		<polygon class="st42" points="97.9,231.6 98.8,224.3 91.5,223.4 92.4,216.1 77.7,214.3 78.6,207 49.3,203.4 48.4,210.7 
			41.1,209.8 40.2,217.2 32.9,216.3 32,223.6 39.4,224.5 38.5,231.8 53.1,233.6 50.4,255.5 47.8,277.5 46,292.1 45.1,299.5 
			52.4,300.3 51.5,307.7 58.8,308.6 58,315.9 87.2,319.4 91.7,282.8 77,281.1 77.9,273.7 70.6,272.8 75.1,236.3 89.7,238 97,238.9 
			104.3,239.8 105.2,232.5 		"/>
		
			<rect x="40.2" y="210.7" transform="matrix(0.9927 0.1206 -0.1206 0.9927 26.6471 -4.1442)" class="st43" width="14.7" height="14.7"/>
		
			<rect x="65.2" y="191.9" transform="matrix(0.9927 0.1206 -0.1206 0.9927 24.1426 -7.7734)" class="st44" width="22.1" height="7.4"/>
		
			<rect x="80.8" y="185.9" transform="matrix(0.9927 0.1206 -0.1206 0.9927 23.5074 -9.2485)" class="st45" width="14.7" height="7.4"/>
		
			<rect x="47.7" y="255.8" transform="matrix(0.9927 0.1206 -0.1206 0.9927 33.898 -4.1732)" class="st46" width="7.4" height="44.2"/>
		<rect x="67.3" y="221" transform="matrix(0.9927 0.1206 -0.1206 0.9927 29.4 -6.8094)" class="st47" width="7.4" height="36.9"/>
		
			<rect x="94.6" y="194.5" transform="matrix(0.9927 0.1206 -0.1206 0.9927 24.6246 -10.4022)" class="st45" width="7.4" height="7.4"/>
		
			<rect x="101" y="202.7" transform="matrix(0.9927 0.1206 -0.1206 0.9927 25.6615 -11.1177)" class="st45" width="7.4" height="7.4"/>
		
			<rect x="32.4" y="217.1" transform="matrix(0.9927 0.1206 -0.1206 0.9927 26.9245 -3.1877)" class="st43" width="14.7" height="7.4"/>
		
			<rect x="48.9" y="203.8" transform="matrix(0.9927 0.1206 -0.1206 0.9927 25.413 -4.8234)" class="st43" width="7.4" height="7.4"/>
		
			<rect x="38.9" y="225.3" transform="matrix(0.9927 0.1206 -0.1206 0.9927 27.9614 -3.9032)" class="st43" width="14.7" height="7.4"/>
		
			<rect x="75.4" y="230.7" transform="matrix(0.9927 0.1206 -0.1206 0.9927 28.9255 -9.1607)" class="st43" width="29.5" height="7.4"/>
		
			<rect x="76.3" y="222.9" transform="matrix(0.9927 0.1206 -0.1206 0.9927 27.9689 -8.8832)" class="st43" width="22.1" height="7.4"/>
		
			<rect x="77.2" y="215.2" transform="matrix(0.9927 0.1206 -0.1206 0.9927 27.0123 -8.6058)" class="st43" width="14.7" height="7.4"/>
		
			<rect x="41.9" y="197.8" transform="matrix(0.9927 0.1206 -0.1206 0.9927 25.2159 -6.2181)" class="st41" width="44.2" height="14.7"/>
		<rect x="47.9" y="212" transform="matrix(0.9927 0.1206 -0.1206 0.9927 26.45 -5.5389)" class="st42" width="22.1" height="7.4"/>
		
			<rect x="52.4" y="293.9" transform="matrix(0.9927 0.1206 -0.1206 0.9927 36.7677 -5.0055)" class="st46" width="14.7" height="14.7"/>
		
			<rect x="79" y="200.5" transform="matrix(0.9927 0.1206 -0.1206 0.9927 25.2598 -8.9271)" class="st44" width="14.7" height="7.4"/>
		
			<rect x="58.3" y="310.3" transform="matrix(0.9927 0.1206 -0.1206 0.9927 38.4034 -6.517)" class="st46" width="29.5" height="7.4"/>
		
			<rect x="70.1" y="273.3" transform="matrix(0.9927 0.1206 -0.1206 0.9927 33.9419 -6.8822)" class="st47" width="7.4" height="7.4"/>
	</g>
	<g>
		<polygon class="st48" points="233.8,49.6 227.7,49.6 227.7,43.5 221.7,43.5 221.7,37.5 185.2,37.5 185.2,43.5 179.1,43.5 
			179.1,49.6 173.1,49.6 173.1,80 179.1,80 179.1,86.1 185.2,86.1 185.2,92.1 221.7,92.1 221.7,86.1 227.7,86.1 227.7,80 233.8,80 
					"/>
		<rect x="188.6" y="59.1" class="st49" width="6.1" height="6.1"/>
		<rect x="203.4" y="43.5" class="st49" width="6.1" height="6.1"/>
		<rect x="215.6" y="73.9" class="st49" width="6.1" height="6.1"/>
		<rect x="227.7" y="37.5" class="st49" width="6.1" height="6.1"/>
		<rect x="185.2" y="25.3" class="st49" width="6.1" height="6.1"/>
		<rect x="154.8" y="31.4" class="st49" width="6.1" height="6.1"/>
		<rect x="167" y="92.1" class="st50" width="6.1" height="6.1"/>
		<rect x="215.6" y="61.8" class="st50" width="6.1" height="6.1"/>
		<rect x="227.7" y="86.1" class="st50" width="12.1" height="12.1"/>
		<rect x="167" y="25.3" class="st50" width="12.1" height="12.1"/>
		<rect x="233.8" y="19.2" class="st50" width="6.1" height="6.1"/>
		<rect x="191.3" y="104.3" class="st50" width="6.1" height="6.1"/>
		<rect x="245.9" y="67.8" class="st49" width="6.1" height="6.1"/>
	</g>
	<g>
		<g>
			<rect x="128.3" y="370.4" class="st51" width="27" height="36"/>
			<polygon class="st52" points="146.3,388.4 146.3,379.4 128.3,379.4 128.3,370.4 110.3,370.4 110.3,379.4 101.3,379.4 
				101.3,388.4 92.3,388.4 92.3,406.4 83.3,406.4 83.3,415.4 74.3,415.4 74.3,433.4 65.3,433.4 65.3,451.4 56.3,451.4 56.3,469.4 
				47.3,469.4 47.3,487.4 38.3,487.4 38.3,496.4 29.3,496.4 29.3,505.4 29.3,514.4 20.3,514.4 20.3,523.4 29.3,523.4 38.3,523.4 
				38.3,514.4 56.3,514.4 56.3,505.4 65.3,505.4 65.3,496.4 74.3,496.4 74.3,487.4 92.3,487.4 92.3,478.4 101.3,478.4 101.3,469.4 
				110.3,469.4 110.3,460.4 119.3,460.4 119.3,451.4 128.3,451.4 128.3,442.4 137.3,442.4 137.3,424.4 146.3,424.4 146.3,415.4 
				155.3,415.4 155.3,388.4 			"/>
			<rect x="137.3" y="361.4" class="st53" width="27" height="9"/>
			<rect x="146.3" y="352.4" class="st53" width="9" height="27"/>
			<rect x="146.3" y="361.4" class="st54" width="9" height="18"/>
			<rect x="74.3" y="478.4" class="st55" width="18" height="9"/>
			<rect x="92.3" y="469.4" class="st55" width="9" height="9"/>
			<rect x="110.3" y="388.4" class="st56" width="9" height="9"/>
			<rect x="65.3" y="487.4" class="st55" width="9" height="9"/>
			<rect x="56.3" y="496.4" class="st55" width="9" height="9"/>
			<rect x="38.3" y="505.4" class="st55" width="18" height="9"/>
			<rect x="101.3" y="379.4" class="st56" width="9" height="9"/>
			<rect x="110.3" y="451.4" class="st55" width="9" height="9"/>
			<rect x="101.3" y="424.4" class="st56" width="9" height="9"/>
			<rect x="74.3" y="442.4" class="st56" width="9" height="9"/>
			<rect x="92.3" y="397.4" class="st56" width="9" height="9"/>
		</g>
		<rect x="155.3" y="352.4" class="st53" width="9" height="9"/>
		<rect x="164.3" y="343.4" class="st53" width="9" height="18"/>
		<rect x="173.3" y="334.4" class="st53" width="9" height="18"/>
		<rect x="182.3" y="325.4" class="st53" width="9" height="18"/>
		<rect x="182.3" y="307.4" class="st53" width="9" height="9"/>
		<rect x="191.3" y="325.4" class="st51" width="18" height="9"/>
		<rect x="191.3" y="316.4" class="st53" width="9" height="9"/>
		<rect x="182.3" y="316.4" class="st53" width="9" height="9"/>
		<rect x="200.3" y="307.4" class="st53" width="9" height="9"/>
		<rect x="200.3" y="298.4" class="st53" width="9" height="9"/>
		<rect x="209.3" y="307.4" class="st53" width="9" height="9"/>
		<rect x="155.3" y="361.4" class="st54" width="9" height="9"/>
		<rect x="200.3" y="316.4" class="st54" width="9" height="9"/>
		<rect x="191.3" y="307.4" class="st54" width="9" height="9"/>
		<rect x="209.3" y="316.4" class="st54" width="9" height="9"/>
		<rect x="191.3" y="298.4" class="st53" width="9" height="9"/>
	</g>
	<g>
		<polygon class="st57" points="678.2,554.6 655.9,557.7 654.3,546.6 620.9,551.2 619.3,540.1 608.2,541.6 606.6,530.4 584.3,533.5 
			582.8,522.4 560.5,525.5 558.9,514.3 547.8,515.9 546.2,504.7 525.2,507.6 523.6,496.5 466.6,504.4 472.8,549 484,547.5 
			487,569.8 498.2,568.2 501.3,590.5 523.6,587.4 525.1,598.6 536.3,597 539.4,619.3 550.5,617.8 553.6,640.1 575.9,637 579,659.3 
			601.3,656.2 602.9,667.4 669.8,658.1 668.3,646.9 690.6,643.9 		"/>
		
			<rect x="646.2" y="558.4" transform="matrix(0.9905 -0.1373 0.1373 0.9905 -72.0478 94.9073)" class="st58" width="11.3" height="22.5"/>
		
			<rect x="576.7" y="624.9" transform="matrix(0.9905 -0.1373 0.1373 0.9905 -82.616 86.0383)" class="st59" width="11.3" height="33.8"/>
		
			<rect x="602" y="654.6" transform="matrix(0.9905 -0.1373 0.1373 0.9905 -84.8548 90.4663)" class="st59" width="22.5" height="11.3"/>
		
			<rect x="599" y="633.1" transform="matrix(0.9905 -0.1373 0.1373 0.9905 -81.9801 89.0719)" class="st59" width="11.3" height="11.3"/>
		
			<rect x="634.2" y="559.2" transform="matrix(0.9905 -0.1373 0.1373 0.9905 -71.4484 93.9899)" class="st58" width="22.5" height="11.3"/>
		
			<rect x="660.5" y="579.1" transform="matrix(0.9905 -0.1373 0.1373 0.9905 -74.7635 97.06)" class="st58" width="11.3" height="22.5"/>
		
			<rect x="592.4" y="549.4" transform="matrix(0.9905 -0.1373 0.1373 0.9905 -70.5469 87.3791)" class="st58" width="11.3" height="11.3"/>
		
			<rect x="552.8" y="628.1" transform="matrix(0.9905 -0.1373 0.1373 0.9905 -81.7351 82.6867)" class="st59" width="11.3" height="11.3"/>
		<polygon class="st60" points="509.7,487.1 498.5,488.6 487.4,490.1 476.2,491.7 474.7,480.5 452.4,483.6 455.5,505.9 466.6,504.4 
			468.2,515.5 469.7,526.7 480.9,525.2 479.3,514 501.6,510.9 500.1,499.8 511.2,498.2 		"/>
		
			<rect x="488.1" y="489.3" transform="matrix(0.9905 -0.1373 0.1373 0.9905 -63.2883 72.486)" class="st17" width="11.3" height="11.3"/>
		
			<rect x="464.2" y="481.3" transform="matrix(0.9905 -0.1373 0.1373 0.9905 -62.4074 69.1344)" class="st17" width="11.3" height="11.3"/>
		
			<rect x="476.9" y="490.9" transform="matrix(0.9905 -0.1373 0.1373 0.9905 -63.6063 70.9692)" class="st17" width="11.3" height="11.3"/>
	</g>
	<g>
		<polygon class="st61" points="677.3,478.7 673.4,477.3 676.2,469.6 672.4,468.2 673.8,464.4 670,463 671.4,459.1 667.5,457.7 
			668.9,453.9 665.1,452.4 666.5,448.6 662.7,447.2 661.2,451 657.4,449.6 656,453.5 652.1,452 650.7,455.9 646.9,454.5 
			645.5,458.3 641.6,456.9 638.8,464.6 635,463.2 626.5,486.3 630.3,487.7 628.9,491.5 632.8,492.9 631.4,496.8 635.2,498.2 
			633.8,502 637.6,503.4 636.2,507.3 640.1,508.7 638.6,512.5 642.5,513.9 643.9,510.1 647.8,511.5 649.2,507.7 653,509.1 
			654.4,505.2 658.3,506.7 659.7,502.8 663.5,504.2 664.9,500.4 668.8,501.8 		"/>
		
			<rect x="643.8" y="459.5" transform="matrix(0.9386 0.3449 -0.3449 0.9386 199.6482 -195.0208)" class="st62" width="8.2" height="8.2"/>
		
			<rect x="649.9" y="456.5" transform="matrix(0.9386 0.3449 -0.3449 0.9386 198.151 -196.7249)" class="st63" width="4.1" height="4.1"/>
		
			<rect x="643.2" y="462.7" transform="matrix(0.9386 0.3449 -0.3449 0.9386 199.9062 -194.0397)" class="st63" width="4.1" height="4.1"/>
		
			<rect x="665.3" y="462.1" transform="matrix(0.9386 0.3449 -0.3449 0.9386 201.0432 -201.6815)" class="st63" width="4.1" height="4.1"/>
		
			<rect x="638.9" y="496.2" transform="matrix(0.9386 0.3449 -0.3449 0.9386 211.8851 -190.372)" class="st64" width="4.1" height="8.2"/>
		
			<rect x="637.2" y="491.1" transform="matrix(0.9386 0.3449 -0.3449 0.9386 209.3033 -190.2174)" class="st64" width="4.1" height="4.1"/>
		
			<rect x="640.6" y="501.3" transform="matrix(0.9386 0.3449 -0.3449 0.9386 214.4669 -190.5266)" class="st64" width="4.1" height="12.3"/>
		
			<rect x="646.6" y="494.9" transform="matrix(0.9386 0.3449 -0.3449 0.9386 213.3313 -192.8503)" class="st64" width="4.1" height="16.4"/>
		
			<rect x="648.4" y="457.7" transform="matrix(0.9386 0.3449 -0.3449 0.9386 207.6516 -194.5034)" class="st65" width="4.1" height="57.3"/>
		
			<rect x="653.1" y="493.5" transform="matrix(0.9386 0.3449 -0.3449 0.9386 211.9375 -196.1551)" class="st64" width="8.2" height="8.2"/>
		
			<rect x="667.7" y="467.4" transform="matrix(0.9386 0.3449 -0.3449 0.9386 203.0054 -202.1976)" class="st63" width="4.1" height="4.1"/>
		
			<rect x="650.4" y="500.4" transform="matrix(0.9386 0.3449 -0.3449 0.9386 214.0543 -194.0894)" class="st64" width="4.1" height="8.2"/>
		
			<rect x="663.2" y="465.8" transform="matrix(0.9386 0.3449 -0.3449 0.9386 202.9019 -200.597)" class="st62" width="4.1" height="8.2"/>
		
			<rect x="646.4" y="464" transform="matrix(0.9386 0.3449 -0.3449 0.9386 201.2488 -194.9173)" class="st62" width="4.1" height="8.2"/>
		
			<rect x="650" y="488.1" transform="matrix(0.9386 0.3449 -0.3449 0.9386 210.5949 -195.2775)" class="st61" width="8.2" height="12.3"/>
		
			<rect x="665.9" y="484.2" transform="matrix(0.9386 0.3449 -0.3449 0.9386 208.6851 -200.5446)" class="st64" width="4.1" height="4.1"/>
		
			<rect x="640.4" y="470.4" transform="matrix(0.9386 0.3449 -0.3449 0.9386 202.3845 -192.5935)" class="st62" width="4.1" height="4.1"/>
		
			<rect x="638" y="465.2" transform="matrix(0.9386 0.3449 -0.3449 0.9386 200.4223 -192.0774)" class="st62" width="4.1" height="4.1"/>
		
			<rect x="655.2" y="454" transform="matrix(0.9386 0.3449 -0.3449 0.9386 197.6349 -198.6871)" class="st62" width="4.1" height="4.1"/>
	</g>
	<polygon class="st66" points="111.9,576 104.7,576 104.7,568.8 97.6,568.8 97.6,561.7 54.7,561.7 54.7,568.8 47.5,568.8 47.5,576 
		40.3,576 40.3,611.8 47.5,611.8 47.5,618.9 54.7,618.9 54.7,626.1 97.6,626.1 97.6,618.9 104.7,618.9 104.7,611.8 111.9,611.8 	"/>
	<rect x="83.3" y="590.3" class="st67" width="14.3" height="7.2"/>
	<rect x="90.4" y="547.4" class="st67" width="14.3" height="7.2"/>
	<rect x="90.4" y="568.8" class="st67" width="14.3" height="7.2"/>
	<rect x="54.7" y="576" class="st68" width="14.3" height="7.2"/>
	<rect x="61.8" y="611.8" class="st68" width="14.3" height="7.2"/>
	<rect x="90.4" y="633.2" class="st67" width="14.3" height="7.2"/>
	<rect x="61.8" y="540.2" class="st68" width="14.3" height="7.2"/>
	<rect x="65" y="637.2" class="st68" width="7.2" height="7.2"/>
	<rect x="126.2" y="583.1" class="st67" width="7.2" height="7.2"/>
	<rect x="47.5" y="590.3" class="st69" width="14.3" height="7.2"/>
	<rect x="76.1" y="561.7" class="st69" width="14.3" height="7.2"/>
	<rect x="90.4" y="611.8" class="st69" width="7.2" height="7.2"/>
	<rect x="76.1" y="583.1" class="st69" width="7.2" height="7.2"/>
	<rect x="26" y="626.1" class="st69" width="14.3" height="7.2"/>
	<rect x="111.9" y="618.9" class="st69" width="7.2" height="7.2"/>
	<rect x="83.3" y="597.4" class="st68" width="7.2" height="7.2"/>
	<rect x="40.3" y="547.4" class="st68" width="7.2" height="7.2"/>
	<rect x="18.9" y="568.8" class="st67" width="14.3" height="7.2"/>
	<rect x="26" y="604.6" class="st67" width="7.2" height="7.2"/>
	<g>
		<polygon class="st70" points="284,557.8 284,549.1 275.4,549.1 275.4,540.4 266.7,540.4 266.7,531.7 240.6,531.7 240.6,523 
			240.6,514.4 231.9,514.4 231.9,523 223.2,523 223.2,514.4 214.5,514.4 214.5,523 205.9,523 205.9,514.4 197.2,514.4 197.2,523 
			197.2,531.7 171.1,531.7 171.1,540.4 162.4,540.4 162.4,549.1 153.7,549.1 153.7,557.8 145,557.8 145,627.3 153.7,627.3 
			153.7,636 162.4,636 162.4,644.7 171.1,644.7 171.1,653.4 266.7,653.4 266.7,644.7 275.4,644.7 275.4,636 284,636 284,627.3 
			292.7,627.3 292.7,557.8 		"/>
		<polygon class="st71" points="284,566.5 275.4,566.5 275.4,557.8 266.7,557.8 266.7,549.1 258,549.1 258,540.4 231.9,540.4 
			231.9,531.7 223.2,531.7 223.2,540.4 214.5,540.4 214.5,531.7 205.9,531.7 205.9,540.4 179.8,540.4 179.8,549.1 171.1,549.1 
			171.1,557.8 162.4,557.8 162.4,566.5 153.7,566.5 153.7,618.6 162.4,618.6 162.4,627.3 171.1,627.3 171.1,636 178.8,636 
			178.8,644.7 258,644.7 258,636 266.7,636 266.7,627.3 275.4,627.3 275.4,618.6 284,618.6 		"/>
		<polygon class="st72" points="188.5,549.1 188.5,557.8 179.8,557.8 179.8,566.5 171.1,566.5 171.1,575.2 162.4,575.2 162.4,601.2 
			171.1,601.2 188.5,601.2 214.5,601.2 214.5,583.9 214.5,566.5 214.5,557.8 214.5,549.1 		"/>
		<polygon class="st72" points="188.5,609.9 171.1,609.9 171.1,618.6 179.8,618.6 179.8,627.3 188.5,627.3 188.5,636 214.5,636 
			214.5,618.6 214.5,609.9 		"/>
		<polygon class="st72" points="249.3,549.1 249.3,557.8 258,557.8 258,566.5 266.7,566.5 266.7,575.2 275.4,575.2 275.4,601.2 
			266.7,601.2 249.3,601.2 223.2,601.2 223.2,583.9 223.2,566.5 223.2,557.8 223.2,549.1 		"/>
		<polygon class="st72" points="249.3,609.9 266.7,609.9 266.7,618.6 258,618.6 258,627.3 249.3,627.3 249.3,636 223.2,636 
			223.2,618.6 223.2,609.9 		"/>
		<rect x="231.9" y="566.5" class="st73" width="8.7" height="8.7"/>
		<rect x="249.3" y="575.2" class="st73" width="8.7" height="8.7"/>
		<rect x="231.9" y="583.9" class="st73" width="8.7" height="8.7"/>
		<rect x="240.6" y="557.8" class="st73" width="8.7" height="8.7"/>
		<rect x="223.2" y="549.1" class="st73" width="8.7" height="8.7"/>
		<rect x="266.7" y="583.9" class="st73" width="8.7" height="8.7"/>
		<rect x="249.3" y="592.5" class="st73" width="8.7" height="8.7"/>
		<rect x="231.9" y="609.9" class="st73" width="8.7" height="8.7"/>
		<rect x="249.3" y="618.6" class="st73" width="8.7" height="8.7"/>
		<rect x="197.2" y="609.9" class="st73" width="8.7" height="8.7"/>
		<rect x="179.8" y="583.9" class="st73" width="8.7" height="8.7"/>
		<rect x="197.2" y="566.5" class="st73" width="8.7" height="8.7"/>
		<rect x="188.5" y="618.6" class="st73" width="8.7" height="8.7"/>
		<rect x="205.9" y="583.9" class="st73" width="8.7" height="8.7"/>
		<rect x="179.8" y="566.5" class="st73" width="8.7" height="8.7"/>
		<rect x="205.9" y="549.1" class="st73" width="8.7" height="8.7"/>
		<rect x="162.4" y="583.9" class="st73" width="8.7" height="8.7"/>
		<rect x="231.9" y="627.3" class="st73" width="8.7" height="8.7"/>
		<rect x="197.2" y="627.3" class="st73" width="8.7" height="8.7"/>
		<rect x="171.1" y="609.9" class="st73" width="8.7" height="8.7"/>
		<rect x="258" y="609.9" class="st73" width="8.7" height="8.7"/>
		<rect x="240.6" y="575.2" class="st74" width="8.7" height="8.7"/>
		<rect x="188.5" y="575.2" class="st74" width="8.7" height="8.7"/>
		<rect x="197.2" y="592.5" class="st74" width="8.7" height="8.7"/>
		<rect x="205.9" y="618.6" class="st74" width="8.7" height="8.7"/>
		<rect x="231.9" y="618.6" class="st74" width="8.7" height="8.7"/>
		<rect x="249.3" y="609.9" class="st74" width="8.7" height="8.7"/>
		<rect x="205.9" y="557.8" class="st74" width="8.7" height="8.7"/>
		<rect x="188.5" y="557.8" class="st74" width="8.7" height="8.7"/>
		<rect x="179.8" y="609.9" class="st74" width="8.7" height="8.7"/>
		<rect x="258" y="566.5" class="st74" width="8.7" height="8.7"/>
		<rect x="223.2" y="592.5" class="st74" width="8.7" height="8.7"/>
	</g>
	<g>
		<polygon class="st75" points="461.3,367.7 454.3,367.7 454.3,360.6 447.3,360.6 447.3,353.6 440.2,353.6 440.2,346.6 433.2,346.6 
			433.2,339.6 363.1,339.6 363.1,346.6 356.1,346.6 356.1,353.6 349.1,353.6 349.1,360.6 342.1,360.6 342.1,367.7 335.1,367.7 
			335.1,423.7 342.1,423.7 342.1,430.7 349.1,430.7 349.1,437.8 356.1,437.8 356.1,444.8 363.1,444.8 363.1,451.8 433.2,451.8 
			433.2,444.8 440.2,444.8 440.2,437.8 447.3,437.8 447.3,430.7 454.3,430.7 454.3,423.7 461.3,423.7 		"/>
		<rect x="405.2" y="437.8" class="st76" width="28" height="14"/>
		<rect x="433.2" y="423.7" class="st76" width="7" height="21"/>
		<rect x="440.2" y="423.7" class="st76" width="7" height="14"/>
		<rect x="447.3" y="416.7" class="st76" width="7" height="14"/>
		<rect x="454.3" y="402.7" class="st76" width="7" height="21"/>
		<rect x="405.2" y="423.7" class="st75" width="21" height="21"/>
		<rect x="412.2" y="423.7" class="st76" width="7" height="7"/>
		<rect x="426.2" y="402.7" class="st76" width="7" height="7"/>
		<rect x="391.2" y="339.6" class="st76" width="21" height="7"/>
		<rect x="412.2" y="367.7" class="st76" width="7" height="7"/>
		<rect x="426.2" y="346.6" class="st76" width="7" height="7"/>
		<rect x="363.1" y="437.8" class="st76" width="7" height="7"/>
		<rect x="348.3" y="430.7" class="st76" width="7.8" height="7"/>
		<rect x="356.1" y="367.7" class="st77" width="7" height="14"/>
		<rect x="362.3" y="360.6" class="st77" width="7" height="7"/>
		<rect x="356.1" y="360.6" class="st78" width="7" height="7"/>
		<rect x="370.1" y="374.7" class="st77" width="7" height="7"/>
		<rect x="349.1" y="367.7" class="st78" width="7" height="7"/>
		<rect x="447.3" y="395.7" class="st77" width="7" height="14"/>
		<rect x="356.1" y="388.7" class="st77" width="7" height="7"/>
		<rect x="342.1" y="381.7" class="st76" width="7" height="7"/>
		<rect x="454.3" y="381.7" class="st77" width="7" height="14"/>
		<rect x="398.2" y="346.6" class="st76" width="21" height="7"/>
		<rect x="370.1" y="346.6" class="st77" width="7" height="7"/>
	</g>
	<g>
		<polygon class="st79" points="428.1,622.7 430.2,626.8 434.2,624.8 436.3,628.8 456.6,618.6 454.6,614.5 458.7,612.5 456.6,608.4 
			460.7,606.4 446.4,577.9 442.3,579.9 438.3,571.8 434.2,573.8 432.2,569.8 428.1,571.8 426,567.7 422,569.8 419.9,565.7 
			415.9,567.7 417.9,571.8 413.8,573.9 415.9,577.9 411.8,580 413.8,584 409.8,586.1 413.8,594.2 409.8,596.3 424.1,624.8 		"/>
		
			<rect x="433" y="615.1" transform="matrix(-0.8939 0.4482 -0.4482 -0.8939 1119.4535 974.3677)" class="st80" width="22.8" height="9.1"/>
		
			<rect x="423.8" y="604.5" transform="matrix(-0.8939 0.4482 -0.4482 -0.8939 1081.9922 971.0537)" class="st80" width="4.6" height="18.2"/>
		
			<rect x="434" y="589.7" transform="matrix(-0.8939 0.4482 -0.4482 -0.8939 1096.6886 947.1841)" class="st80" width="4.6" height="27.3"/>
		
			<rect x="448.2" y="592.2" transform="matrix(-0.8939 0.4482 -0.4482 -0.8939 1122.7675 936.9063)" class="st80" width="4.6" height="18.2"/>
		
			<rect x="414.6" y="593" transform="matrix(-0.8939 0.4482 -0.4482 -0.8939 1056.3817 940.4723)" class="st80" width="4.6" height="4.6"/>
		
			<rect x="439.1" y="580.7" transform="matrix(-0.8939 0.4482 -0.4482 -0.8939 1097.1569 906.3249)" class="st80" width="4.6" height="4.6"/>
		
			<rect x="422.8" y="578.7" transform="matrix(-0.8939 0.4482 -0.4482 -0.8939 1065.3868 909.8068)" class="st80" width="4.6" height="4.6"/>
		
			<rect x="427.5" y="615.3" transform="matrix(-0.8939 0.4482 -0.4482 -0.8939 1116.6079 970.9697)" class="st80" width="31.9" height="4.6"/>
		
			<rect x="430.9" y="615.3" transform="matrix(-0.8939 0.4482 -0.4482 -0.8939 1097.325 975.5563)" class="st80" width="4.6" height="4.6"/>
		
			<rect x="447.2" y="607.2" transform="matrix(-0.8939 0.4482 -0.4482 -0.8939 1124.5084 952.7914)" class="st80" width="4.6" height="4.6"/>
		
			<rect x="451.1" y="604.1" transform="matrix(-0.8939 0.4482 -0.4482 -0.8939 1134.7023 944.2545)" class="st80" width="9.1" height="4.6"/>
		
			<rect x="422.6" y="618.4" transform="matrix(-0.8939 0.4482 -0.4482 -0.8939 1087.1311 984.0931)" class="st80" width="9.1" height="4.6"/>
		
			<rect x="417.7" y="566.2" transform="matrix(-0.8939 0.4482 -0.4482 -0.8939 1051.1587 892.8171)" class="st81" width="4.6" height="9.1"/>
		
			<rect x="424.8" y="572.6" transform="matrix(-0.8939 0.4482 -0.4482 -0.8939 1066.4915 897.3197)" class="st81" width="4.6" height="4.6"/>
		
			<rect x="432.9" y="578.7" transform="matrix(-0.8939 0.4482 -0.4482 -0.8939 1084.6698 905.2202)" class="st81" width="4.6" height="4.6"/>
		
			<rect x="438" y="586.6" transform="matrix(-0.8939 0.4482 -0.4482 -0.8939 1098.8978 922.2099)" class="st81" width="4.6" height="9.1"/>
		
			<rect x="422.8" y="599.1" transform="matrix(-0.8939 0.4482 -0.4482 -0.8939 1074.5601 948.3728)" class="st81" width="4.6" height="4.6"/>
		
			<rect x="444.1" y="578.4" transform="matrix(-0.8939 0.4482 -0.4482 -0.8939 1106.7985 904.0316)" class="st81" width="4.6" height="9.1"/>
		
			<rect x="428.9" y="621.5" transform="matrix(-0.8939 0.4482 -0.4482 -0.8939 1096.2203 988.0434)" class="st82" width="4.6" height="4.6"/>
		
			<rect x="438.9" y="620.4" transform="matrix(-0.8939 0.4482 -0.4482 -0.8939 1118.9012 980.6112)" class="st82" width="9.1" height="4.6"/>
		
			<rect x="445.2" y="613.3" transform="matrix(-0.8939 0.4482 -0.4482 -0.8939 1123.4038 965.2785)" class="st82" width="4.6" height="4.6"/>
		
			<rect x="447.2" y="607.2" transform="matrix(-0.8939 0.4482 -0.4482 -0.8939 1124.5084 952.7914)" class="st79" width="4.6" height="4.6"/>
		
			<rect x="416.7" y="586.8" transform="matrix(-0.8939 0.4482 -0.4482 -0.8939 1057.4863 927.9852)" class="st81" width="4.6" height="4.6"/>
	</g>
	<g>
		<polygon class="st83" points="476.4,250.5 476.4,250.5 470.3,250.5 470.3,244.5 470.3,244.5 464.3,244.5 464.3,238.4 458.3,238.4 
			458.3,232.4 452.2,232.4 452.2,226.4 446.2,226.4 410,226.4 403.9,226.4 403.9,232.4 397.9,232.4 397.9,238.4 391.9,238.4 
			391.9,244.5 385.8,244.5 385.8,250.5 379.8,250.5 379.8,298.8 385.8,298.8 385.8,304.8 391.9,304.8 391.9,310.9 397.9,310.9 
			397.9,316.9 403.9,316.9 403.9,323 410,323 446.2,323 452.2,323 452.2,316.9 458.3,316.9 458.3,310.9 464.3,310.9 464.3,304.8 
			470.3,304.8 470.3,298.8 476.4,298.8 		"/>
		<polygon class="st84" points="471,256.5 464.3,256.5 464.3,250.5 458.3,250.5 458.3,244.5 452.2,244.5 452.2,238.4 446.2,238.4 
			446.2,232.4 410,232.4 410,238.4 403.9,238.4 403.9,244.5 397.9,244.5 397.9,250.5 391.9,250.5 391.9,256.5 385.8,256.5 
			385.8,292.8 391.9,292.8 391.9,298.8 397.9,298.8 397.9,304.8 403.9,304.8 403.9,310.9 410,310.9 410,316.9 446.2,316.9 
			446.2,310.9 452.2,310.9 452.2,304.8 458.3,304.8 458.3,298.8 464.3,298.8 464.3,292.8 471,292.8 		"/>
		<polygon class="st85" points="458.3,256.5 452.2,256.5 452.2,250.5 446.2,250.5 446.2,244.5 410,244.5 410,250.5 403.9,250.5 
			403.9,256.5 397.9,256.5 397.9,292.8 403.9,292.8 403.9,298.8 410,298.8 410,304.8 446.2,304.8 446.2,298.8 452.2,298.8 
			452.2,292.8 458.3,292.8 		"/>
		<polygon class="st86" points="434.1,286.7 434.1,280.7 440.2,280.7 440.2,268.6 434.1,268.6 434.1,262.6 422,262.6 422,268.6 
			416,268.6 416,280.7 422,280.7 422,286.7 		"/>
		<rect x="410" y="256.5" class="st87" width="6" height="6"/>
		<rect x="410" y="286.7" class="st87" width="6" height="6"/>
		<rect x="440.2" y="256.5" class="st87" width="6" height="6"/>
		<rect x="440.2" y="286.7" class="st87" width="6" height="6"/>
		<rect x="446.2" y="268.6" class="st87" width="6" height="6"/>
		<rect x="403.9" y="274.7" class="st87" width="6" height="6"/>
		<rect x="428.1" y="250.5" class="st87" width="6" height="6"/>
		<rect x="422" y="292.8" class="st87" width="6" height="6"/>
		<rect x="416" y="238.4" class="st85" width="12.1" height="12.1"/>
		<rect x="452.2" y="268.6" class="st85" width="12.1" height="18.1"/>
		<rect x="416" y="298.8" class="st85" width="24.1" height="12.1"/>
		<rect x="391.9" y="262.6" class="st85" width="12.1" height="24.1"/>
	</g>
	<g>
		<polygon class="st88" points="168.9,487.5 168.9,483 164.4,483 164.4,478.6 159.9,478.6 159.9,474.1 137.5,474.1 137.5,478.6 
			133,478.6 133,483 128.5,483 128.5,487.5 124.1,487.5 124.1,509.9 128.5,509.9 128.5,514.4 133,514.4 133,518.9 137.5,518.9 
			137.5,523.4 159.9,523.4 159.9,518.9 164.4,518.9 164.4,514.4 168.9,514.4 168.9,509.9 173.3,509.9 173.3,487.5 		"/>
		<polygon class="st89" points="155.4,492 155.4,487.5 142,487.5 142,492 137.5,492 137.5,505.4 142,505.4 142,509.9 155.4,509.9 
			155.4,505.4 159.9,505.4 159.9,492 		"/>
		<rect x="133" y="483" class="st90" width="4.5" height="4.5"/>
		<polygon class="st59" points="155.4,496.5 150.9,496.5 150.9,492 146.5,492 146.5,496.5 142,496.5 142,501 146.5,501 146.5,505.4 
			150.9,505.4 150.9,501 155.4,501 		"/>
		<rect x="128.5" y="487.5" class="st90" width="4.5" height="13.4"/>
		<rect x="159.9" y="509.9" class="st90" width="4.5" height="4.5"/>
		<rect x="164.4" y="501" class="st90" width="4.5" height="9"/>
	</g>
	<g>
		<polygon class="st88" points="266.3,449.7 264,445.9 260.1,448.1 257.9,444.3 254,446.5 251.7,442.7 232.4,454 234.7,457.9 
			230.8,460.1 233.1,464 229.2,466.3 231.5,470.1 227.6,472.4 239,491.7 242.8,489.4 245.1,493.3 249,491 251.2,494.9 255.1,492.6 
			257.4,496.5 276.7,485.2 274.4,481.3 278.3,479 276,475.2 279.9,472.9 277.6,469 281.5,466.8 270.1,447.5 		"/>
		<polygon class="st89" points="257,460.4 254.7,456.5 243.1,463.3 245.4,467.2 241.5,469.5 248.3,481 252.2,478.8 254.4,482.6 
			266,475.8 263.8,472 267.6,469.7 260.8,458.1 		"/>
		
			<rect x="233.9" y="462.6" transform="matrix(0.8624 -0.5061 0.5061 0.8624 -202.768 183.4673)" class="st90" width="4.5" height="4.5"/>
		<polygon class="st59" points="259.2,464.3 255.4,466.5 253.1,462.7 249.2,464.9 251.5,468.8 247.6,471.1 249.9,474.9 253.8,472.6 
			256,476.5 259.9,474.2 257.6,470.4 261.5,468.1 		"/>
		
			<rect x="234.6" y="468.1" transform="matrix(0.8624 -0.5061 0.5061 0.8624 -207.7339 185.1816)" class="st90" width="4.5" height="13.4"/>
		
			<rect x="270.7" y="472.1" transform="matrix(0.8624 -0.5061 0.5061 0.8624 -202.5555 203.4015)" class="st90" width="4.5" height="4.5"/>
		
			<rect x="271.2" y="461.8" transform="matrix(0.8624 -0.5061 0.5061 0.8624 -198.4113 202.5266)" class="st90" width="4.5" height="9"/>
	</g>
	<g>
		<polygon class="st88" points="214.5,440.3 216.3,436.2 212.2,434.4 213.9,430.3 209.8,428.5 211.6,424.4 191,415.5 189.3,419.6 
			185.1,417.9 183.4,422 179.3,420.2 177.5,424.3 173.4,422.5 164.5,443.1 168.6,444.9 166.8,449 171,450.8 169.2,454.9 
			173.3,456.7 171.5,460.8 192.1,469.6 193.9,465.5 198,467.3 199.8,463.2 203.9,465 205.6,460.8 209.8,462.6 218.6,442 		"/>
		<polygon class="st89" points="200.4,439.1 202.2,435 189.8,429.6 188,433.8 183.9,432 178.6,444.3 182.7,446.1 181,450.2 
			193.3,455.5 195.1,451.4 199.2,453.2 204.5,440.8 		"/>
		
			<rect x="182.3" y="422.7" transform="matrix(0.9183 0.3958 -0.3958 0.9183 183.2498 -38.3387)" class="st90" width="4.5" height="4.5"/>
		<polygon class="st59" points="198.6,443.2 194.5,441.4 196.3,437.3 192.2,435.5 190.4,439.6 186.3,437.9 184.5,442 188.6,443.8 
			186.8,447.9 191,449.6 192.7,445.5 196.8,447.3 		"/>
		
			<rect x="174.6" y="424.7" transform="matrix(0.9183 0.3958 -0.3958 0.9183 185.1788 -34.7802)" class="st90" width="4.5" height="13.4"/>
		
			<rect x="196.3" y="458" transform="matrix(0.9183 0.3958 -0.3958 0.9183 198.3753 -41.0131)" class="st90" width="4.5" height="4.5"/>
		
			<rect x="203.1" y="451.4" transform="matrix(0.9183 0.3958 -0.3958 0.9183 197.1879 -44.0528)" class="st90" width="4.5" height="9"/>
	</g>
	<g>
		<polygon class="st91" points="317,620.5 313.1,615.7 332.3,600 336.2,604.8 341,600.9 344.9,605.7 349.7,601.7 361.5,616.1 
			369.3,625.7 373.3,630.5 378.1,626.5 382,631.3 385.9,636.1 390.7,632.2 394.6,637 399.4,633 403.4,637.8 407.3,642.6 
			392.9,654.4 389,649.6 379.4,657.5 375.5,652.7 370.7,656.6 366.8,651.8 362,655.8 358,651 353.3,654.9 349.3,650.1 344.5,654 
			340.6,649.3 335.8,653.2 312.2,624.4 		"/>
		
			<rect x="359.3" y="648.3" transform="matrix(-0.7731 0.6343 -0.6343 -0.7731 1055.7599 925.147)" class="st92" width="6.2" height="6.2"/>
		
			<rect x="368" y="649.2" transform="matrix(-0.7731 0.6343 -0.6343 -0.7731 1071.7672 921.1412)" class="st92" width="6.2" height="6.2"/>
		
			<rect x="376" y="648.1" transform="matrix(-0.7731 0.6343 -0.6343 -0.7731 1090.775 912.132)" class="st92" width="12.4" height="6.2"/>
		
			<rect x="390.3" y="647" transform="matrix(-0.7731 0.6343 -0.6343 -0.7731 1109.7828 903.1229)" class="st92" width="6.2" height="6.2"/>
		
			<rect x="343.3" y="606.2" transform="matrix(-0.7731 0.6343 -0.6343 -0.7731 1002.7184 866.1288)" class="st93" width="6.2" height="12.4"/>
		
			<rect x="332.7" y="606.1" transform="matrix(-0.7731 0.6343 -0.6343 -0.7731 981.7077 867.1342)" class="st93" width="6.2" height="6.2"/>
		
			<rect x="350.6" y="647.4" transform="matrix(-0.7731 0.6343 -0.6343 -0.7731 1039.7524 929.1528)" class="st92" width="6.2" height="6.2"/>
		<g>
			
				<rect x="313" y="582.1" transform="matrix(0.7731 -0.6343 0.6343 0.7731 -299.4598 333.2803)" class="st60" width="6.2" height="6.2"/>
			
				<rect x="333.5" y="597.3" transform="matrix(0.7731 -0.6343 0.6343 0.7731 -304.4666 349.7453)" class="st60" width="6.2" height="6.2"/>
			<polygon class="st60" points="313.1,615.7 309.2,610.9 314,607 310,602.2 314.8,598.3 310.9,593.5 315.7,589.6 323.5,599.1 
				328.3,595.2 332.3,600 317.9,611.8 321.8,616.6 317,620.5 312.2,624.4 308.3,619.7 			"/>
			
				<rect x="323.1" y="613.9" transform="matrix(0.7731 -0.6343 0.6343 0.7731 -317.352 346.885)" class="st60" width="6.2" height="6.2"/>
		</g>
		
			<rect x="316.1" y="595.6" transform="matrix(-0.7731 0.6343 -0.6343 -0.7731 945.6871 859.1385)" class="st17" width="6.2" height="6.2"/>
		
			<rect x="316.9" y="586.9" transform="matrix(-0.7731 0.6343 -0.6343 -0.7731 941.6813 843.1312)" class="st17" width="6.2" height="6.2"/>
		
			<rect x="319.1" y="609.1" transform="matrix(-0.7731 0.6343 -0.6343 -0.7731 959.6996 881.1467)" class="st17" width="6.2" height="6.2"/>
	</g>
	<g>
		<polygon class="st79" points="470.5,650.5 469.8,654.8 474.2,655.6 473.4,659.9 495.3,663.6 496,659.2 500.4,659.9 501.1,655.6 
			505.5,656.3 510.6,625.7 506.2,625 507.7,616.2 503.3,615.5 504,611.1 499.7,610.4 500.4,606 496,605.3 496.8,600.9 492.4,600.2 
			491.7,604.6 487.3,603.8 486.6,608.2 482.2,607.5 481.5,611.9 477.1,611.1 475.6,619.9 471.3,619.1 466.2,649.7 		"/>
		
			<rect x="474" y="653" transform="matrix(-0.9864 -0.1645 0.1645 -0.9864 855.4631 1385.6108)" class="st80" width="22.2" height="8.9"/>
		
			<rect x="472" y="633.2" transform="matrix(-0.9864 -0.1645 0.1645 -0.9864 836.2781 1353.4265)" class="st80" width="4.4" height="17.7"/>
		
			<rect x="485.8" y="626.6" transform="matrix(-0.9864 -0.1645 0.1645 -0.9864 864.1293 1351.3646)" class="st80" width="4.4" height="26.6"/>
		
			<rect x="498.2" y="637.6" transform="matrix(-0.9864 -0.1645 0.1645 -0.9864 887.6474 1366.4259)" class="st80" width="4.4" height="17.7"/>
		
			<rect x="475.2" y="620.2" transform="matrix(-0.9864 -0.1645 0.1645 -0.9864 846.0277 1314.8995)" class="st80" width="4.4" height="4.4"/>
		
			<rect x="501.5" y="624.6" transform="matrix(-0.9864 -0.1645 0.1645 -0.9864 897.397 1327.8989)" class="st80" width="4.4" height="4.4"/>
		
			<rect x="489.8" y="613.7" transform="matrix(-0.9864 -0.1645 0.1645 -0.9864 876.0455 1304.2761)" class="st80" width="4.4" height="4.4"/>
		
			<rect x="470" y="653" transform="matrix(-0.9864 -0.1645 0.1645 -0.9864 856.5463 1381.3301)" class="st80" width="31" height="4.4"/>
		
			<rect x="475.2" y="647.2" transform="matrix(-0.9864 -0.1645 0.1645 -0.9864 841.5898 1368.4354)" class="st80" width="4.4" height="4.4"/>
		
			<rect x="492.7" y="650.1" transform="matrix(-0.9864 -0.1645 0.1645 -0.9864 875.836 1377.1017)" class="st80" width="4.4" height="4.4"/>
		
			<rect x="497.1" y="651.2" transform="matrix(-0.9864 -0.1645 0.1645 -0.9864 888.6783 1380.3516)" class="st80" width="8.9" height="4.4"/>
		
			<rect x="466.5" y="646.1" transform="matrix(-0.9864 -0.1645 0.1645 -0.9864 828.7475 1365.1855)" class="st80" width="8.9" height="4.4"/>
		
			<rect x="491.6" y="600.5" transform="matrix(-0.9864 -0.1645 0.1645 -0.9864 881.462 1282.8723)" class="st81" width="4.4" height="8.9"/>
		
			<rect x="494.9" y="610" transform="matrix(-0.9864 -0.1645 0.1645 -0.9864 886.7736 1297.8812)" class="st81" width="4.4" height="4.4"/>
		
			<rect x="497.8" y="619.5" transform="matrix(-0.9864 -0.1645 0.1645 -0.9864 891.002 1317.1709)" class="st81" width="4.4" height="4.4"/>
		
			<rect x="496" y="628.2" transform="matrix(-0.9864 -0.1645 0.1645 -0.9864 885.5856 1338.5747)" class="st81" width="4.4" height="8.9"/>
		
			<rect x="478.2" y="629.7" transform="matrix(-0.9864 -0.1645 0.1645 -0.9864 850.2561 1334.1892)" class="st81" width="4.4" height="4.4"/>
		
			<rect x="505.5" y="625.3" transform="matrix(-0.9864 -0.1645 0.1645 -0.9864 904.8752 1334.3463)" class="st81" width="4.4" height="8.9"/>
		
			<rect x="470.1" y="650.8" transform="matrix(-0.9864 -0.1645 0.1645 -0.9864 830.8617 1374.8303)" class="st82" width="4.4" height="4.4"/>
		
			<rect x="478.1" y="657" transform="matrix(-0.9864 -0.1645 0.1645 -0.9864 850.099 1388.8083)" class="st82" width="8.9" height="4.4"/>
		
			<rect x="487.6" y="653.7" transform="matrix(-0.9864 -0.1645 0.1645 -0.9864 865.1079 1383.4967)" class="st82" width="4.4" height="4.4"/>
		
			<rect x="492.7" y="650.1" transform="matrix(-0.9864 -0.1645 0.1645 -0.9864 875.836 1377.1017)" class="st79" width="4.4" height="4.4"/>
		
			<rect x="480.3" y="616.6" transform="matrix(-0.9864 -0.1645 0.1645 -0.9864 856.7559 1308.5045)" class="st81" width="4.4" height="4.4"/>
	</g>
	<g>
		<polygon class="st94" points="56.2,374.6 56.2,370.1 51.7,370.1 51.7,365.6 47.2,365.6 47.2,365.6 24.6,365.6 24.6,365.6 
			20.1,365.6 20.1,370.1 15.5,370.1 15.5,374.6 11,374.6 11,397.2 15.5,397.2 15.5,401.7 20.1,401.7 20.1,406.2 24.6,406.2 
			24.6,410.8 47.2,410.8 47.2,406.2 51.7,406.2 51.7,401.7 56.2,401.7 56.2,397.2 60.8,397.2 60.8,374.6 		"/>
		<rect x="20.1" y="379.1" class="st95" width="4.5" height="9"/>
		<rect x="33.6" y="406.2" class="st96" width="13.6" height="4.5"/>
		<rect x="47.2" y="401.7" class="st96" width="4.5" height="4.5"/>
		<rect x="51.7" y="397.2" class="st96" width="4.5" height="4.5"/>
		<rect x="56.2" y="392.7" class="st96" width="4.5" height="4.5"/>
		<rect x="20.1" y="370.1" class="st95" width="9" height="4.5"/>
		<rect x="15.5" y="374.6" class="st95" width="9" height="4.5"/>
		<rect x="15.5" y="374.6" class="st20" width="4.5" height="4.5"/>
		<rect x="20.1" y="370.1" class="st20" width="4.5" height="4.5"/>
		<rect x="29.1" y="365.6" class="st95" width="4.5" height="4.5"/>
		<rect x="47.2" y="392.7" class="st96" width="4.5" height="4.5"/>
		<rect x="33.6" y="356.5" class="st29" width="4.5" height="13.6"/>
		<rect x="38.2" y="370.1" class="st29" width="4.5" height="4.5"/>
		<rect x="38.2" y="338.4" class="st32" width="4.5" height="9"/>
		<rect x="33.6" y="347.5" class="st29" width="4.5" height="13.6"/>
		<rect x="42.7" y="333.9" class="st32" width="4.5" height="4.5"/>
		<rect x="47.2" y="329.4" class="st32" width="4.5" height="4.5"/>
		<rect x="33.6" y="347.5" class="st32" width="4.5" height="9"/>
		<rect x="38.2" y="343" class="st29" width="4.5" height="4.5"/>
	</g>
	<g>
		<polygon class="st94" points="164.3,279.3 162.7,275.1 158.5,276.7 156.9,272.5 152.7,274.1 152.7,274.1 131.5,282.1 131.5,282.1 
			127.3,283.7 128.9,287.9 124.7,289.5 126.3,293.8 122,295.4 130.1,316.5 134.3,314.9 135.9,319.1 140.1,317.5 141.7,321.7 
			146,320.1 147.6,324.4 168.7,316.3 167.1,312.1 171.3,310.5 169.7,306.3 173.9,304.7 172.3,300.5 176.6,298.9 168.5,277.7 		"/>
		
			<rect x="133.6" y="295.3" transform="matrix(0.935 -0.3548 0.3548 0.935 -97.5232 67.6817)" class="st95" width="4.5" height="9"/>
		
			<rect x="154.8" y="314.4" transform="matrix(0.935 -0.3548 0.3548 0.935 -101.8211 77.9033)" class="st96" width="13.6" height="4.5"/>
		
			<rect x="166.1" y="306.9" transform="matrix(0.935 -0.3548 0.3548 0.935 -98.7383 79.8497)" class="st96" width="4.5" height="4.5"/>
		
			<rect x="168.8" y="301.1" transform="matrix(0.935 -0.3548 0.3548 0.935 -96.4993 80.401)" class="st96" width="4.5" height="4.5"/>
		
			<rect x="171.4" y="295.3" transform="matrix(0.935 -0.3548 0.3548 0.935 -94.2604 80.9523)" class="st96" width="4.5" height="4.5"/>
		
			<rect x="129.4" y="286.2" transform="matrix(0.935 -0.3548 0.3548 0.935 -93.6134 66.2697)" class="st95" width="9" height="4.5"/>
		<rect x="126.8" y="292" transform="matrix(0.935 -0.3548 0.3548 0.935 -95.8524 65.7184)" class="st95" width="9" height="4.5"/>
		
			<rect x="126.9" y="292.8" transform="matrix(0.935 -0.3548 0.3548 0.935 -96.2743 65.0209)" class="st20" width="4.5" height="4.5"/>
		
			<rect x="129.6" y="287" transform="matrix(0.935 -0.3548 0.3548 0.935 -94.0354 65.5722)" class="st20" width="4.5" height="4.5"/>
		
			<rect x="136.4" y="279.5" transform="matrix(0.935 -0.3548 0.3548 0.935 -90.9526 67.5186)" class="st95" width="4.5" height="4.5"/>
		
			<rect x="162.9" y="298.5" transform="matrix(0.935 -0.3548 0.3548 0.935 -95.948 78.162)" class="st96" width="4.5" height="4.5"/>
		
			<rect x="139" y="269.2" transform="matrix(0.935 -0.3548 0.3548 0.935 -88.7136 68.0699)" class="st29" width="4.5" height="13.6"/>
		
			<rect x="146.5" y="280.6" transform="matrix(0.935 -0.3548 0.3548 0.935 -90.6601 71.1527)" class="st29" width="4.5" height="4.5"/>
		<rect x="136" y="250.8" transform="matrix(0.935 -0.3548 0.3548 0.935 -81.5918 65.6678)" class="st32" width="4.5" height="9"/>
		
			<rect x="135.8" y="260.7" transform="matrix(0.935 -0.3548 0.3548 0.935 -85.9234 66.3822)" class="st29" width="4.5" height="13.6"/>
		
			<rect x="137.9" y="245.1" transform="matrix(0.935 -0.3548 0.3548 0.935 -78.6552 65.7972)" class="st32" width="4.5" height="4.5"/>
		
			<rect x="140.5" y="239.3" transform="matrix(0.935 -0.3548 0.3548 0.935 -76.4163 66.3485)" class="st32" width="4.5" height="4.5"/>
		<rect x="135" y="260.9" transform="matrix(0.935 -0.3548 0.3548 0.935 -85.2258 65.9603)" class="st32" width="4.5" height="9"/>
		
			<rect x="136.8" y="255.2" transform="matrix(0.935 -0.3548 0.3548 0.935 -82.2893 66.0897)" class="st29" width="4.5" height="4.5"/>
	</g>
	<g>
		<polygon class="st33" points="570.6,265.3 566.4,266.7 565,262.5 560.8,263.8 559.5,259.6 530,269.1 531.4,273.3 527.2,274.6 
			528.5,278.8 524.3,280.2 531.1,301.2 535.3,299.8 536.7,304.1 540.9,302.7 542.2,306.9 571.6,297.4 570.3,293.2 574.5,291.9 
			573.2,287.7 577.4,286.3 		"/>
		
			<rect x="536.6" y="272.8" transform="matrix(0.952 -0.3062 0.3062 0.952 -57.8928 180.884)" class="st34" width="22.1" height="4.4"/>
		
			<rect x="541.1" y="268.4" transform="matrix(0.952 -0.3062 0.3062 0.952 -57.8928 180.884)" class="st34" width="13.3" height="13.3"/>
		
			<rect x="532.5" y="286.3" transform="matrix(0.952 -0.3062 0.3062 0.952 -63.344 177.6701)" class="st35" width="4.4" height="8.8"/>
		
			<rect x="538.7" y="293.5" transform="matrix(0.952 -0.3062 0.3062 0.952 -64.5616 179.8164)" class="st35" width="4.4" height="4.4"/>
		
			<rect x="566.7" y="293.8" transform="matrix(0.952 -0.3062 0.3062 0.952 -63.3109 188.3825)" class="st36" width="4.4" height="4.4"/>
		
			<rect x="569.5" y="288.2" transform="matrix(0.952 -0.3062 0.3062 0.952 -61.4726 188.989)" class="st36" width="4.4" height="4.4"/>
		
			<rect x="572.4" y="282.7" transform="matrix(0.952 -0.3062 0.3062 0.952 -59.6343 189.5954)" class="st36" width="4.4" height="4.4"/>
		
			<rect x="559.9" y="272.8" transform="matrix(0.952 -0.3062 0.3062 0.952 -57.199 185.3029)" class="st35" width="4.4" height="4.4"/>
	</g>
	<g>
		<polygon class="st33" points="514.9,334.1 510.9,334.1 510.9,330.1 507,330.1 507,326.1 479.2,326.1 479.2,330.1 475.2,330.1 
			475.2,334.1 471.3,334.1 471.3,353.9 475.2,353.9 475.2,357.9 479.2,357.9 479.2,361.8 507,361.8 507,357.9 510.9,357.9 
			510.9,353.9 514.9,353.9 		"/>
		<rect x="482.7" y="334.1" class="st34" width="19.8" height="4"/>
		<rect x="486.7" y="330.1" class="st34" width="11.9" height="11.9"/>
		<rect x="475.2" y="342" class="st35" width="4" height="7.9"/>
		<rect x="479.2" y="349.9" class="st35" width="4" height="4"/>
		<rect x="503" y="357.9" class="st36" width="4" height="4"/>
		<rect x="507" y="353.9" class="st36" width="4" height="4"/>
		<rect x="510.9" y="349.9" class="st36" width="4" height="4"/>
		<rect x="507" y="334.1" class="st35" width="4" height="4"/>
	</g>
	<g>
		<polygon class="st97" points="681.8,269.5 675.3,269.5 675.3,263 668.8,263 668.8,256.5 629.6,256.5 629.6,263 623.1,263 
			623.1,269.5 616.5,269.5 616.5,302.2 623.1,302.2 623.1,308.7 629.6,308.7 629.6,315.2 668.8,315.2 668.8,308.7 675.3,308.7 
			675.3,302.2 681.8,302.2 		"/>
		<rect x="648.9" y="273.6" class="st98" width="6.5" height="6.5"/>
		<rect x="636.1" y="302.2" class="st98" width="6.5" height="6.5"/>
		<rect x="636.1" y="263" class="st99" width="6.5" height="6.5"/>
		<rect x="681.8" y="243.4" class="st99" width="13.1" height="13.1"/>
		<rect x="603.5" y="308.7" class="st99" width="14.5" height="13.1"/>
		<rect x="672.4" y="292.8" class="st98" width="6.5" height="6.5"/>
		<rect x="636.1" y="282.6" class="st99" width="6.5" height="6.5"/>
		<rect x="662.2" y="302.2" class="st99" width="6.5" height="6.5"/>
		<rect x="688.3" y="243.4" class="st97" width="6.5" height="6.5"/>
		<rect x="610" y="315.2" class="st97" width="13.1" height="6.5"/>
		<rect x="596.9" y="295.7" class="st97" width="6.5" height="6.5"/>
		<rect x="610" y="243.4" class="st98" width="6.5" height="6.5"/>
		<rect x="603.5" y="236.9" class="st97" width="6.5" height="6.5"/>
		<rect x="688.3" y="308.7" class="st97" width="6.5" height="6.5"/>
		<rect x="642.6" y="230.4" class="st97" width="6.5" height="6.5"/>
		<rect x="662.2" y="263" class="st99" width="6.5" height="6.5"/>
		<rect x="649.2" y="328.3" class="st97" width="13.1" height="6.5"/>
		<rect x="649.2" y="321.8" class="st99" width="6.5" height="6.5"/>
	</g>
	<g>
		<polygon class="st61" points="692.7,373.1 689.5,373.8 688.1,367.4 684.9,368 684.3,364.8 681.1,365.5 680.4,362.3 677.2,363 
			676.5,359.8 673.3,360.5 672.6,357.3 669.4,358 670.1,361.2 666.9,361.9 667.6,365.1 664.4,365.7 665.1,368.9 661.9,369.6 
			662.5,372.8 659.3,373.5 660.7,379.9 657.5,380.6 661.6,399.8 664.8,399.1 665.5,402.3 668.7,401.6 669.4,404.8 672.6,404.1 
			673.2,407.3 676.4,406.7 677.1,409.9 680.3,409.2 681,412.4 684.2,411.7 683.5,408.5 686.7,407.8 686,404.6 689.2,403.9 
			688.6,400.7 691.8,400.1 691.1,396.9 694.3,396.2 693.6,393 696.8,392.3 		"/>
		
			<rect x="663.1" y="372.1" transform="matrix(0.9781 -0.2083 0.2083 0.9781 -63.571 147.068)" class="st62" width="6.5" height="6.5"/>
		
			<rect x="665.4" y="368.6" transform="matrix(0.9781 -0.2083 0.2083 0.9781 -62.4871 147.0755)" class="st63" width="3.3" height="3.3"/>
		
			<rect x="663.5" y="375.6" transform="matrix(0.9781 -0.2083 0.2083 0.9781 -64.003 146.8482)" class="st63" width="3.3" height="3.3"/>
		
			<rect x="678.2" y="365.8" transform="matrix(0.9781 -0.2083 0.2083 0.9781 -61.6381 149.6829)" class="st63" width="3.3" height="3.3"/>
		
			<rect x="675.7" y="399.8" transform="matrix(0.9781 -0.2083 0.2083 0.9781 -69.1191 149.956)" class="st64" width="3.3" height="6.5"/>
		
			<rect x="671.5" y="397.4" transform="matrix(0.9781 -0.2083 0.2083 0.9781 -68.3536 148.9858)" class="st64" width="3.3" height="3.3"/>
		
			<rect x="679.9" y="402.3" transform="matrix(0.9781 -0.2083 0.2083 0.9781 -69.8846 150.9262)" class="st64" width="3.3" height="9.8"/>
		
			<rect x="682.1" y="395.2" transform="matrix(0.9781 -0.2083 0.2083 0.9781 -68.6946 151.2597)" class="st64" width="3.3" height="13.1"/>
		
			<rect x="676.2" y="366.7" transform="matrix(0.9781 -0.2083 0.2083 0.9781 -66.2995 149.7588)" class="st65" width="3.3" height="45.8"/>
		
			<rect x="683.9" y="391.1" transform="matrix(0.9781 -0.2083 0.2083 0.9781 -67.0725 151.8129)" class="st64" width="6.5" height="6.5"/>
		
			<rect x="682" y="368.4" transform="matrix(0.9781 -0.2083 0.2083 0.9781 -62.0777 150.5469)" class="st63" width="3.3" height="3.3"/>
		
			<rect x="685.3" y="397.8" transform="matrix(0.9781 -0.2083 0.2083 0.9781 -68.4823 151.9115)" class="st64" width="3.3" height="6.5"/>
		
			<rect x="679.2" y="369" transform="matrix(0.9781 -0.2083 0.2083 0.9781 -62.6159 150.0012)" class="st62" width="3.3" height="6.5"/>
		
			<rect x="667.1" y="374.9" transform="matrix(0.9781 -0.2083 0.2083 0.9781 -64.1167 147.6062)" class="st62" width="3.3" height="6.5"/>
		
			<rect x="680.4" y="388.5" transform="matrix(0.9781 -0.2083 0.2083 0.9781 -66.9589 151.0549)" class="st61" width="6.5" height="9.8"/>
		
			<rect x="688" y="380.5" transform="matrix(0.9781 -0.2083 0.2083 0.9781 -64.4728 152.0478)" class="st64" width="3.3" height="3.3"/>
		
			<rect x="664.9" y="382" transform="matrix(0.9781 -0.2083 0.2083 0.9781 -65.3067 147.2727)" class="st62" width="3.3" height="3.3"/>
		
			<rect x="661" y="379.5" transform="matrix(0.9781 -0.2083 0.2083 0.9781 -64.8671 146.4086)" class="st62" width="3.3" height="3.3"/>
		
			<rect x="667.9" y="364.7" transform="matrix(0.9781 -0.2083 0.2083 0.9781 -61.6231 147.5151)" class="st62" width="3.3" height="3.3"/>
	</g>
	<g>
		<polygon class="st17" points="637.3,18.4 630.2,21.8 626.9,14.7 619.9,18.1 616.5,11 609.5,14.4 606.2,7.3 599.1,10.7 595.8,3.6 
			574.7,13.6 578,20.6 571,24 574.3,31 567.3,34.3 570.6,41.4 563.6,44.7 566.9,51.7 559.9,55.1 583.2,104.3 590.2,101 593.6,108 
			600.6,104.7 603.9,111.7 611,108.4 614.3,115.4 621.3,112.1 624.7,119.1 631.7,115.8 641.7,136.9 648.7,133.6 638.7,112.5 
			645.8,109.2 642.4,102.1 649.5,98.8 646.1,91.8 653.2,88.4 649.8,81.4 656.9,78.1 653.6,71 660.6,67.7 		"/>
		
			<rect x="611.3" y="33" transform="matrix(0.9039 -0.4278 0.4278 0.9039 28.3556 270.0873)" class="st100" width="7.8" height="77.8"/>
		
			<rect x="591.4" y="21.9" transform="matrix(0.9039 -0.4278 0.4278 0.9039 44.4931 257.4846)" class="st100" width="7.8" height="15.6"/>
		
			<rect x="585.6" y="50.1" transform="matrix(0.9039 -0.4278 0.4278 0.9039 33.5682 257.3565)" class="st100" width="7.8" height="7.8"/>
		
			<rect x="595.2" y="52" transform="matrix(0.9039 -0.4278 0.4278 0.9039 34.0749 263.3765)" class="st100" width="15.9" height="7.8"/>
		
			<rect x="574.9" y="46.3" transform="matrix(0.9039 -0.4278 0.4278 0.9039 34.1644 252.4023)" class="st100" width="7.8" height="7.8"/>
		
			<rect x="620" y="68.2" transform="matrix(0.9039 -0.4278 0.4278 0.9039 29.1113 273.8272)" class="st100" width="7.8" height="7.8"/>
		
			<rect x="623.7" y="57.9" transform="matrix(0.9039 -0.4278 0.4278 0.9039 33.9013 274.4163)" class="st100" width="7.8" height="7.8"/>
		
			<rect x="627.5" y="47.5" transform="matrix(0.9039 -0.4278 0.4278 0.9039 38.6914 275.0054)" class="st100" width="7.8" height="7.8"/>
		
			<rect x="584.9" y="84.9" transform="matrix(0.9039 -0.4278 0.4278 0.9039 18.609 260.3792)" class="st100" width="7.8" height="7.8"/>
		
			<rect x="605.2" y="90.6" transform="matrix(0.9039 -0.4278 0.4278 0.9039 18.4809 271.3041)" class="st100" width="15.6" height="7.8"/>
		
			<rect x="596.1" y="88.5" transform="matrix(0.9039 -0.4278 0.4278 0.9039 18.1302 265.5165)" class="st100" width="7.8" height="7.8"/>
		
			<rect x="633.7" y="79" transform="matrix(0.9039 -0.4278 0.4278 0.9039 25.8326 280.7177)" class="st0" width="7.8" height="7.8"/>
		
			<rect x="601.9" y="29.9" transform="matrix(0.9039 -0.4278 0.4278 0.9039 43.7546 262.3913)" class="st100" width="7.8" height="7.8"/>
		
			<rect x="637.4" y="68.6" transform="matrix(0.9039 -0.4278 0.4278 0.9039 30.6226 281.3068)" class="st0" width="7.8" height="7.8"/>
		
			<rect x="574.9" y="63.8" transform="matrix(0.9039 -0.4278 0.4278 0.9039 26.6777 254.0778)" class="st0" width="7.8" height="7.8"/>
	</g>
	<g>
		<polygon class="st101" points="391.8,70.9 395.6,65 392.6,63.1 394.4,60.1 391.5,58.3 393.3,55.3 390.3,53.4 387.4,51.6 
			384.4,49.7 382.5,52.7 379.5,50.8 377.7,53.8 374.7,52 371,57.9 368,56.1 353.1,79.9 356.1,81.8 354.3,84.7 357.2,86.6 
			355.4,89.6 358.5,91.5 356.6,94.5 365.5,100.1 367.4,97.1 370.3,98.9 372.1,95.9 375.1,97.7 377,94.8 380,96.6 394.8,72.8 		"/>
		
			<rect x="368" y="54.7" transform="matrix(0.8485 0.5292 -0.5292 0.8485 89.5813 -186.0602)" class="st102" width="3.5" height="17.6"/>
		
			<rect x="374.7" y="87.2" transform="matrix(0.8485 0.5292 -0.5292 0.8485 105.9607 -185.2236)" class="st103" width="3.5" height="10.5"/>
		
			<rect x="364.8" y="93.9" transform="matrix(0.8485 0.5292 -0.5292 0.8485 106.3992 -180.4114)" class="st103" width="7" height="3.5"/>
		
			<rect x="379.6" y="86.1" transform="matrix(0.8485 0.5292 -0.5292 0.8485 106.1002 -187.9535)" class="st103" width="3.5" height="10.5"/>
		
			<rect x="364.1" y="92.7" transform="matrix(0.8485 0.5292 -0.5292 0.8485 106.3295 -179.0465)" class="st103" width="3.5" height="7"/>
		
			<rect x="375.6" y="54.3" transform="matrix(0.8485 0.5292 -0.5292 0.8485 87.7779 -190.9421)" class="st104" width="3.5" height="7"/>
		
			<rect x="369.9" y="58.7" transform="matrix(0.8485 0.5292 -0.5292 0.8485 88.2861 -187.4949)" class="st104" width="3.5" height="3.5"/>
		
			<rect x="382.2" y="75.3" transform="matrix(0.8485 0.5292 -0.5292 0.8485 100.7798 -190.9623)" class="st103" width="3.5" height="10.5"/>
		
			<rect x="369.9" y="91.8" transform="matrix(0.8485 0.5292 -0.5292 0.8485 105.8213 -182.4937)" class="st103" width="3.5" height="3.5"/>
		
			<rect x="372.9" y="93.7" transform="matrix(0.8485 0.5292 -0.5292 0.8485 107.256 -183.7889)" class="st105" width="3.5" height="3.5"/>
		
			<rect x="368" y="94.8" transform="matrix(0.8485 0.5292 -0.5292 0.8485 107.1165 -181.0591)" class="st105" width="3.5" height="3.5"/>
		
			<rect x="363.2" y="95.9" transform="matrix(0.8485 0.5292 -0.5292 0.8485 106.9771 -178.3291)" class="st105" width="3.5" height="3.5"/>
	</g>
	<g>
		<polygon class="st101" points="308.1,94.1 306.1,87.4 302.8,88.4 301.8,85 298.4,86 297.4,82.7 294,83.7 290.7,84.7 287.3,85.7 
			288.3,89 284.9,90.1 285.9,93.4 282.6,94.4 284.6,101.2 281.2,102.2 289.3,129.1 292.6,128.1 293.6,131.4 297,130.4 298,133.8 
			301.5,132.8 302.5,136.2 312.6,133.2 311.6,129.7 314.8,128.8 313.8,125.4 317.2,124.4 316.2,121 319.5,120 311.5,93.1 		"/>
		
			<rect x="286.2" y="96.9" transform="matrix(0.9582 -0.2859 0.2859 0.9582 -18.2054 86.7406)" class="st102" width="3.5" height="17.6"/>
		
			<rect x="312.4" y="114.6" transform="matrix(0.9582 -0.2859 0.2859 0.9582 -21.1612 94.8278)" class="st103" width="3.5" height="10.5"/>
		
			<rect x="307.6" y="126.4" transform="matrix(0.9582 -0.2859 0.2859 0.9582 -23.6431 94.3026)" class="st103" width="7" height="3.5"/>
		
			<rect x="314.7" y="110.2" transform="matrix(0.9582 -0.2859 0.2859 0.9582 -19.8134 95.3204)" class="st103" width="3.5" height="10.5"/>
		
			<rect x="308.2" y="126.8" transform="matrix(0.9582 -0.2859 0.2859 0.9582 -24.3171 94.0563)" class="st103" width="3.5" height="7"/>
		
			<rect x="287" y="92.8" transform="matrix(0.9582 -0.2859 0.2859 0.9582 -15.4771 86.5919)" class="st104" width="3.5" height="7"/>
		
			<rect x="285.2" y="100.6" transform="matrix(0.9582 -0.2859 0.2859 0.9582 -17.2851 86.313)" class="st104" width="3.5" height="3.5"/>
		
			<rect x="308.4" y="101.1" transform="matrix(0.9582 -0.2859 0.2859 0.9582 -17.4802 93.1174)" class="st103" width="3.5" height="10.5"/>
		
			<rect x="310" y="122.5" transform="matrix(0.9582 -0.2859 0.2859 0.9582 -22.5091 94.3352)" class="st103" width="3.5" height="3.5"/>
		
			<rect x="313.4" y="121.5" transform="matrix(0.9582 -0.2859 0.2859 0.9582 -22.0815 95.2554)" class="st105" width="3.5" height="3.5"/>
		
			<rect x="311" y="125.9" transform="matrix(0.9582 -0.2859 0.2859 0.9582 -23.4293 94.7628)" class="st105" width="3.5" height="3.5"/>
		
			<rect x="308.7" y="130.2" transform="matrix(0.9582 -0.2859 0.2859 0.9582 -24.7772 94.2701)" class="st105" width="3.5" height="3.5"/>
	</g>
	<g>
		<polygon class="st101" points="335.6,27.8 337.9,21.2 334.6,20 335.8,16.7 332.4,15.5 333.6,12.2 330.3,11.1 327,9.9 323.6,8.8 
			322.5,12.1 319.2,10.9 318,14.3 314.7,13.1 312.4,19.7 309.1,18.6 299.9,45.1 303.2,46.3 302,49.6 305.3,50.7 304.2,54.1 
			307.6,55.2 306.5,58.6 316.4,62.1 317.6,58.7 320.8,59.8 321.9,56.5 325.2,57.7 326.4,54.3 329.7,55.5 338.9,29 		"/>
		
			<rect x="310.7" y="16.6" transform="matrix(0.9445 0.3284 -0.3284 0.9445 25.6615 -101.1969)" class="st102" width="3.5" height="17.6"/>
		
			<rect x="323.7" y="46.9" transform="matrix(0.9445 0.3284 -0.3284 0.9445 35.1891 -103.9726)" class="st103" width="3.5" height="10.5"/>
		
			<rect x="314.6" y="55.3" transform="matrix(0.9445 0.3284 -0.3284 0.9445 36.3957 -101.3094)" class="st103" width="7" height="3.5"/>
		
			<rect x="328.1" y="44.8" transform="matrix(0.9445 0.3284 -0.3284 0.9445 34.7265 -105.5606)" class="st103" width="3.5" height="10.5"/>
		
			<rect x="314.1" y="54.7" transform="matrix(0.9445 0.3284 -0.3284 0.9445 36.627 -100.5154)" class="st103" width="3.5" height="7"/>
		
			<rect x="316.9" y="14.7" transform="matrix(0.9445 0.3284 -0.3284 0.9445 23.6609 -103.6288)" class="st104" width="3.5" height="7"/>
		
			<rect x="311.8" y="20.3" transform="matrix(0.9445 0.3284 -0.3284 0.9445 24.6362 -101.7596)" class="st104" width="3.5" height="3.5"/>
		
			<rect x="328.3" y="33.7" transform="matrix(0.9445 0.3284 -0.3284 0.9445 31.088 -106.2232)" class="st103" width="3.5" height="10.5"/>
		
			<rect x="319.2" y="52.6" transform="matrix(0.9445 0.3284 -0.3284 0.9445 35.6517 -102.3847)" class="st103" width="3.5" height="3.5"/>
		
			<rect x="322.5" y="53.8" transform="matrix(0.9445 0.3284 -0.3284 0.9445 36.2144 -103.41)" class="st105" width="3.5" height="3.5"/>
		
			<rect x="318" y="55.9" transform="matrix(0.9445 0.3284 -0.3284 0.9445 36.677 -101.822)" class="st105" width="3.5" height="3.5"/>
		
			<rect x="313.6" y="58.1" transform="matrix(0.9445 0.3284 -0.3284 0.9445 37.1396 -100.2341)" class="st105" width="3.5" height="3.5"/>
	</g>
</g>
</svg>
