<?xml version="1.0" encoding="utf-8"?>
<!-- Generator: Adobe Illustrator 25.2.3, SVG Export Plug-In . SVG Version: 6.00 Build 0)  -->
<svg version="1.1" id="Layer_1" xmlns="http://www.w3.org/2000/svg" xmlns:xlink="http://www.w3.org/1999/xlink" x="0px" y="0px"
	 viewBox="0 0 800 800" style="enable-background:new 0 0 800 800;" xml:space="preserve">
<style type="text/css">
	.st0{fill:#8A370F;}
	.st1{fill:#FFDE01;}
	.st2{fill:#FCB912;}
	.st3{fill:#FCF54D;}
	.st4{fill:#FFFFFF;}
	.st5{fill:#0B5389;}
	.st6{fill:#0C3352;}
	.st7{fill:#3279A5;}
	.st8{fill:#0F4B70;}
</style>
<g>
	<rect x="657.6" y="396.8" transform="matrix(0.994 0.109 -0.109 0.994 48.4363 -70.4544)" class="st0" width="22" height="22"/>
	<polygon class="st1" points="697.8,444.2 700.2,422.3 678.4,419.9 680.8,398 658.9,395.6 656.5,417.5 612.7,412.7 607.9,456.5 
		586,454.1 576.4,541.6 554.5,539.2 549.7,583 505.9,578.2 503.5,600.1 481.7,597.7 459.8,595.3 457.4,617.2 413.6,612.4 
		369.8,607.6 367.4,629.5 323.7,624.7 321.3,646.6 321.3,646.6 318.9,668.4 340.7,670.8 338.3,692.7 401.6,699.7 399.2,721.6 
		401.6,721.8 532.9,736.2 535.3,714.3 578.7,719.1 579.1,719.1 581.5,697.2 625.3,702 627.7,680.2 649.6,682.6 652,660.7 
		673.8,663.1 676.2,641.2 698.1,643.6 710.1,534.2 719.7,446.6 	"/>
	<rect x="320" y="647.7" transform="matrix(0.994 0.109 -0.109 0.994 73.7771 -32.1565)" class="st0" width="22" height="22"/>
	<rect x="636.9" y="372.4" transform="matrix(0.994 0.109 -0.109 0.994 46.8585 -68.2789)" class="st0" width="22" height="44"/>
	<rect x="492.7" y="688.8" transform="matrix(0.994 0.109 -0.109 0.994 79.2851 -50.7365)" class="st2" width="22" height="22"/>
	<rect x="514.6" y="691.2" transform="matrix(0.994 0.109 -0.109 0.994 79.6771 -53.108)" class="st2" width="22" height="22"/>
	<rect x="366.2" y="630.6" transform="matrix(0.994 0.109 -0.109 0.994 72.1897 -37.2916)" class="st2" width="22" height="22"/>
	<rect x="516.9" y="670.5" transform="matrix(0.994 0.109 -0.109 0.994 77.5016 -54.6858)" class="st2" width="44" height="22"/>
	<rect x="606.9" y="657" transform="matrix(0.994 0.109 -0.109 0.994 76.5023 -63.3782)" class="st2" width="22" height="22"/>
	<rect x="631.2" y="637.5" transform="matrix(0.994 0.109 -0.109 0.994 74.5229 -66.1417)" class="st2" width="22" height="22"/>
	<rect x="628.8" y="659.4" transform="matrix(0.994 0.109 -0.109 0.994 76.8944 -65.7497)" class="st2" width="22" height="22"/>
	<rect x="656.7" y="596.1" transform="matrix(0.994 0.109 -0.109 0.994 71.3577 -69.1013)" class="st2" width="22" height="44"/>
	<rect x="609" y="435.7" transform="matrix(0.994 0.109 -0.109 0.994 52.3952 -64.9273)" class="st3" width="22" height="22"/>
	<rect x="689.4" y="467" transform="matrix(0.994 0.109 -0.109 0.994 61.078 -73.2371)" class="st2" width="22" height="110.1"/>
	<rect x="660" y="374.9" transform="matrix(0.994 0.109 -0.109 0.994 46.0648 -70.8465)" class="st0" width="22" height="22"/>
	<rect x="662.4" y="353" transform="matrix(0.994 0.109 -0.109 0.994 43.6933 -71.2385)" class="st0" width="22" height="22"/>
	<rect x="606.6" y="457.6" transform="matrix(0.994 0.109 -0.109 0.994 54.7667 -64.5352)" class="st3" width="22" height="22"/>
	<rect x="322.4" y="625.8" transform="matrix(0.994 0.109 -0.109 0.994 71.4056 -32.5486)" class="st0" width="22" height="22"/>
	<rect x="346.6" y="607.5" transform="matrix(0.994 0.109 -0.109 0.994 69.6221 -36.4979)" class="st4" width="44" height="22"/>
</g>
<g>
	<polygon class="st5" points="502.7,719.1 495.8,719.1 495.8,712.2 488.9,712.2 488.9,705.3 440.8,705.3 440.8,712.2 433.9,712.2 
		433.9,719.1 427,719.1 427,753.5 433.9,753.5 433.9,760.4 440.8,760.4 440.8,767.2 488.9,767.2 488.9,760.4 495.8,760.4 
		495.8,753.5 502.7,753.5 	"/>
	<rect x="446.9" y="719.1" class="st6" width="34.4" height="6.9"/>
	<rect x="453.8" y="712.2" class="st6" width="20.6" height="20.6"/>
	<rect x="433.9" y="732.8" class="st7" width="6.9" height="13.8"/>
	<rect x="440.8" y="746.6" class="st7" width="6.9" height="6.9"/>
	<rect x="482.1" y="760.4" class="st8" width="6.9" height="6.9"/>
	<rect x="488.9" y="753.5" class="st8" width="6.9" height="6.9"/>
	<rect x="495.8" y="746.6" class="st8" width="6.9" height="6.9"/>
	<rect x="488.9" y="719.1" class="st7" width="6.9" height="6.9"/>
</g>
<g>
	<polygon class="st5" points="705.3,668.6 698.1,670.9 695.7,663.6 688.4,666 686.1,658.7 635,675.1 637.3,682.4 630,684.7 
		632.4,692 625.1,694.4 636.8,730.9 644.1,728.5 646.5,735.8 653.8,733.5 656.1,740.8 707.2,724.3 704.8,717 712.1,714.7 
		709.8,707.4 717.1,705 	"/>
	
		<rect x="646.4" y="681.6" transform="matrix(0.952 -0.3062 0.3062 0.952 -177.8772 236.6912)" class="st6" width="38.3" height="7.7"/>
	
		<rect x="654.1" y="673.9" transform="matrix(0.952 -0.3062 0.3062 0.952 -177.8772 236.6912)" class="st6" width="23" height="23"/>
	
		<rect x="639.2" y="705.1" transform="matrix(0.952 -0.3062 0.3062 0.952 -187.3354 231.1149)" class="st7" width="7.7" height="15.3"/>
	
		<rect x="650.1" y="717.5" transform="matrix(0.952 -0.3062 0.3062 0.952 -189.4481 234.8388)" class="st7" width="7.7" height="7.7"/>
	<rect x="698.5" y="718" transform="matrix(0.952 -0.3062 0.3062 0.952 -187.278 249.7016)" class="st8" width="7.7" height="7.7"/>
	
		<rect x="703.5" y="708.4" transform="matrix(0.952 -0.3062 0.3062 0.952 -184.0884 250.7538)" class="st8" width="7.7" height="7.7"/>
	
		<rect x="708.4" y="698.7" transform="matrix(0.952 -0.3062 0.3062 0.952 -180.8988 251.8061)" class="st8" width="7.7" height="7.7"/>
	
		<rect x="686.8" y="681.5" transform="matrix(0.952 -0.3062 0.3062 0.952 -176.6734 244.3582)" class="st7" width="7.7" height="7.7"/>
</g>
<g>
	<polygon class="st5" points="619.2,670.7 612.4,670.7 612.4,663.9 605.5,663.9 605.5,657 557.3,657 557.3,663.9 550.4,663.9 
		550.4,670.7 543.5,670.7 543.5,705.1 550.4,705.1 550.4,712 557.3,712 557.3,718.9 605.5,718.9 605.5,712 612.4,712 612.4,705.1 
		619.2,705.1 	"/>
	<rect x="563.4" y="670.7" class="st6" width="34.4" height="6.9"/>
	<rect x="570.3" y="663.9" class="st6" width="20.6" height="20.6"/>
	<rect x="550.4" y="684.5" class="st7" width="6.9" height="13.8"/>
	<rect x="557.3" y="698.3" class="st7" width="6.9" height="6.9"/>
	<rect x="598.6" y="712" class="st8" width="6.9" height="6.9"/>
	<rect x="605.5" y="705.1" class="st8" width="6.9" height="6.9"/>
	<rect x="612.4" y="698.3" class="st8" width="6.9" height="6.9"/>
	<rect x="605.5" y="670.7" class="st7" width="6.9" height="6.9"/>
</g>
</svg>
