<?xml version="1.0" encoding="utf-8"?>
<!-- Generator: Adobe Illustrator 25.2.3, SVG Export Plug-In . SVG Version: 6.00 Build 0)  -->
<svg version="1.1" xmlns="http://www.w3.org/2000/svg" xmlns:xlink="http://www.w3.org/1999/xlink" x="0px" y="0px"
	 viewBox="0 0 350 565" style="enable-background:new 0 0 350 565;" xml:space="preserve">
<style type="text/css">
	.st0{fill:#FFFFFF;}
	.st1{fill:#21851D;}
	.st2{fill:#135110;}
	.st3{fill:#8A370F;}
	.st4{fill:#FFDE01;}
	.st5{fill:#FCB912;}
	.st6{fill:#FCF54D;}
	.st7{fill:#A7B941;}
	.st8{fill:#E0E48D;}
	.st9{fill:#DA895E;}
	.st10{fill:#63240B;}
	.st11{fill:#DC0000;}
	.st12{fill:#AE0002;}
	.st13{fill:#FF7A69;}
	.st14{fill:#426024;}
	.st15{fill:#649238;}
	.st16{fill:#EB1C24;}
	.st17{fill:#37A01A;}
	.st18{fill:#F4CB00;}
	.st19{fill:#C30C08;}
	.st20{fill:#FA5810;}
	.st21{fill:#432355;}
	.st22{fill:#F8C09D;}
	.st23{fill:#B31D4A;}
	.st24{fill:#DC1C4B;}
	.st25{fill:#FFE627;}
	.st26{fill:#FFAD27;}
	.st27{fill:#FFF576;}
	.st28{fill:#BCD531;}
	.st29{fill:#7F2600;}
	.st30{fill:#E0E11B;}
	.st31{fill:#98C93C;}
	.st32{fill:#A13906;}
	.st33{fill:#0B5389;}
	.st34{fill:#0C3352;}
	.st35{fill:#3279A5;}
	.st36{fill:#0F4B70;}
	.st37{fill:#DBCEAC;}
	.st38{fill:#FFF6DA;}
	.st39{fill:#FFF4D8;}
	.st40{fill:#BFAF8B;}
	.st41{fill:#6B2114;}
	.st42{fill:#F2CF95;}
	.st43{fill:#C88C43;}
	.st44{fill:#7B3720;}
	.st45{fill:#9C5738;}
	.st46{fill:#DDB67D;}
	.st47{fill:#FFE2AE;}
	.st48{fill:#133415;}
	.st49{fill:#608D62;}
	.st50{fill:#305937;}
	.st51{fill:#2E9649;}
	.st52{fill:#FF854E;}
	.st53{fill:#3BA746;}
	.st54{fill:#308A43;}
	.st55{fill:#F76140;}
	.st56{fill:#FCBB5E;}
	.st57{fill:#4E1349;}
	.st58{fill:#8A428E;}
	.st59{fill:#2A0E27;}
	.st60{fill:#2B853F;}
	.st61{fill:#83AA37;}
	.st62{fill:#96CB3B;}
	.st63{fill:#B1E656;}
	.st64{fill:#5C9514;}
	.st65{fill:#4F7319;}
	.st66{fill:#645C5A;}
	.st67{fill:#7F6D57;}
	.st68{fill:#4B423B;}
	.st69{fill:#E9E1D4;}
	.st70{fill:#9A0A14;}
	.st71{fill:#FCFAE1;}
	.st72{fill:#F8151E;}
	.st73{fill:#DA191E;}
	.st74{fill:#F9572B;}
	.st75{fill:#F79B20;}
	.st76{fill:#F36527;}
	.st77{fill:#FBD371;}
	.st78{fill:#EFEF97;}
	.st79{fill:#D87E3D;}
	.st80{fill:#B55E2C;}
	.st81{fill:#ED9857;}
	.st82{fill:#803415;}
	.st83{fill:#8B561D;}
	.st84{fill:#95B90B;}
	.st85{fill:#B5CE4D;}
	.st86{fill:#FFFEFF;}
	.st87{fill:#000900;}
	.st88{fill:#61176E;}
	.st89{fill:#4A1056;}
	.st90{fill:#A126B8;}
	.st91{fill:#EA0F13;}
	.st92{fill:#BC0406;}
	.st93{fill:#F9B6BD;}
	.st94{fill:#D1282B;}
	.st95{fill:#EC2125;}
	.st96{fill:#881719;}
	.st97{fill:#ADC45C;}
	.st98{fill:#717D33;}
	.st99{fill:#C0D667;}
	.st100{fill:#78C433;}
	.st101{fill:#D22127;}
	.st102{fill:#E4696C;}
	.st103{fill:#BC2325;}
	.st104{fill:#FB8794;}
	.st105{fill:#A3242B;}
</style>
<g id="Layer_1">
</g>
<g id="Layer_2">
</g>
<g id="Layer_3">
	<g>
		<polygon class="st1" points="38.6,15.1 33.9,12.4 31.1,17.1 26.4,14.3 23.6,19 18.8,16.2 16.1,20.9 11.3,18.1 3,32.4 7.7,35.1 
			5,39.8 9.7,42.6 6.9,47.3 11.6,50.1 8.8,54.8 13.5,57.7 41.8,74.3 46.6,77.2 49.3,72.4 54,75.2 56.8,70.5 61.5,73.3 64.4,68.5 
			69.1,71.4 71.9,66.6 86,75 88.8,70.3 74.6,61.9 77.4,57.2 72.7,54.4 75.5,49.7 70.8,46.9 73.6,42.2 68.9,39.4 71.6,34.7 
			66.9,31.9 		"/>
		
			<rect x="42.2" y="20.1" transform="matrix(0.5086 -0.861 0.861 0.5086 -18.8365 62.0019)" class="st2" width="5.5" height="54.8"/>
		<rect x="32.3" y="45.4" transform="matrix(0.5086 -0.861 0.861 0.5086 -24.1947 53.807)" class="st2" width="5.5" height="5.5"/>
		<rect x="33.1" y="33.1" transform="matrix(0.5086 -0.861 0.861 0.5086 -13.2753 48.5074)" class="st2" width="5.5" height="5.5"/>
		<rect x="31.2" y="25.6" transform="matrix(0.5086 -0.861 0.861 0.5086 -7.728 43.1503)" class="st2" width="5.5" height="5.5"/>
		<rect x="52.1" y="44.3" transform="matrix(0.5086 -0.861 0.861 0.5086 -13.5321 70.2873)" class="st2" width="5.5" height="5.5"/>
		<rect x="55.9" y="59.3" transform="matrix(0.5086 -0.861 0.861 0.5086 -24.5993 80.9712)" class="st2" width="5.5" height="5.5"/>
		<rect x="50.1" y="36.8" transform="matrix(0.5086 -0.861 0.861 0.5086 -8.0786 64.8866)" class="st2" width="5.5" height="5.5"/>
		<rect x="24.7" y="47.3" transform="matrix(0.5086 -0.861 0.861 0.5086 -29.5576 48.2459)" class="st2" width="5.5" height="5.5"/>
		<rect x="48.4" y="61.2" transform="matrix(0.5086 -0.861 0.861 0.5086 -29.9096 75.4782)" class="st2" width="5.5" height="5.5"/>
	</g>
	<g>
		<polygon class="st1" points="171.4,105.1 173.9,100.2 169.1,97.7 171.7,92.8 166.8,90.3 169.4,85.4 164.5,82.8 167.1,78 
			152.6,70.3 150,75.1 145.2,72.6 142.6,77.4 137.8,74.9 135.2,79.7 130.4,77.1 127.8,81.9 112.3,111 109.8,115.8 114.6,118.4 
			112.1,123.3 116.9,125.8 114.3,130.7 119.2,133.2 116.6,138.1 121.5,140.6 113.7,155.2 118.6,157.8 126.3,143.2 131.1,145.8 
			133.7,140.9 138.5,143.5 141.1,138.7 146,141.2 148.5,136.4 153.4,139 155.9,134.1 		"/>
		
			<rect x="111.8" y="110.2" transform="matrix(0.4686 -0.8834 0.8834 0.4686 -25.7996 183.0495)" class="st2" width="54.8" height="5.5"/>
		
			<rect x="135.6" y="100.4" transform="matrix(0.4686 -0.8834 0.8834 0.4686 -17.6061 176.9644)" class="st2" width="5.5" height="5.5"/>
		
			<rect x="147.7" y="100.6" transform="matrix(0.4686 -0.8834 0.8834 0.4686 -11.3448 187.86)" class="st2" width="5.5" height="5.5"/>
		
			<rect x="155.3" y="98.4" transform="matrix(0.4686 -0.8834 0.8834 0.4686 -5.3685 193.3082)" class="st2" width="5.5" height="5.5"/>
		
			<rect x="137.5" y="120" transform="matrix(0.4686 -0.8834 0.8834 0.4686 -33.9073 189.0998)" class="st2" width="5.5" height="5.5"/>
		
			<rect x="122.7" y="124.6" transform="matrix(0.4686 -0.8834 0.8834 0.4686 -45.8155 178.4268)" class="st2" width="5.5" height="5.5"/>
		
			<rect x="144.9" y="117.7" transform="matrix(0.4686 -0.8834 0.8834 0.4686 -27.9684 194.4559)" class="st2" width="5.5" height="5.5"/>
		
			<rect x="133.3" y="92.9" transform="matrix(0.4686 -0.8834 0.8834 0.4686 -12.2594 170.9909)" class="st2" width="5.5" height="5.5"/>
		
			<rect x="120.4" y="117.1" transform="matrix(0.4686 -0.8834 0.8834 0.4686 -40.4817 172.4721)" class="st2" width="5.5" height="5.5"/>
	</g>
	<g>
		
			<rect x="181.1" y="252.6" transform="matrix(0.9761 -0.2174 0.2174 0.9761 -51.5719 46.6429)" class="st3" width="10.1" height="10.1"/>
		<polygon class="st4" points="204.3,269.1 202.1,259.2 192.2,261.4 190.1,251.5 180.2,253.7 182.4,263.6 162.6,268 167,287.7 
			157.2,289.9 166,329.5 156.1,331.7 160.5,351.4 140.7,355.8 142.9,365.7 133,367.9 123.2,370.1 125.4,379.9 105.6,384.3 
			85.9,388.7 88.1,398.7 68.3,403 70.5,412.9 70.5,412.9 72.7,422.8 82.6,420.6 84.8,430.5 113.3,424.1 115.6,434 116.7,433.7 
			175.9,420.5 173.7,410.6 193.3,406.3 193.4,406.2 191.2,396.4 211,392 208.8,382.1 218.6,379.9 216.5,370.1 226.3,367.9 
			224.1,358 234,355.8 223,306.4 214.3,266.9 		"/>
		
			<rect x="71.5" y="411.7" transform="matrix(0.9761 -0.2174 0.2174 0.9761 -88.7801 26.6081)" class="st3" width="10.1" height="10.1"/>
		
			<rect x="170.2" y="244.8" transform="matrix(0.9761 -0.2174 0.2174 0.9761 -51.2285 44.1923)" class="st3" width="10.1" height="20.2"/>
		
			<rect x="152.7" y="404.1" transform="matrix(0.9761 -0.2174 0.2174 0.9761 -85.1686 44.0847)" class="st5" width="10.1" height="10.1"/>
		
			<rect x="162.6" y="401.9" transform="matrix(0.9761 -0.2174 0.2174 0.9761 -84.4558 46.1777)" class="st5" width="10.1" height="10.1"/>
		
			<rect x="89" y="397.5" transform="matrix(0.9761 -0.2174 0.2174 0.9761 -85.2614 30.0814)" class="st5" width="10.1" height="10.1"/>
		
			<rect x="160.2" y="390.9" transform="matrix(0.9761 -0.2174 0.2174 0.9761 -82.0075 46.502)" class="st5" width="20.2" height="10.1"/>
		
			<rect x="197.7" y="373.3" transform="matrix(0.9761 -0.2174 0.2174 0.9761 -77.3995 53.1224)" class="st5" width="10.1" height="10.1"/>
		
			<rect x="205.4" y="361.2" transform="matrix(0.9761 -0.2174 0.2174 0.9761 -74.5935 54.5028)" class="st5" width="10.1" height="10.1"/>
		
			<rect x="207.5" y="371.1" transform="matrix(0.9761 -0.2174 0.2174 0.9761 -76.6867 55.2156)" class="st5" width="10.1" height="10.1"/>
		
			<rect x="211.9" y="339.2" transform="matrix(0.9761 -0.2174 0.2174 0.9761 -70.7506 55.5278)" class="st5" width="10.1" height="20.2"/>
		
			<rect x="165.8" y="276.8" transform="matrix(0.9761 -0.2174 0.2174 0.9761 -57.1834 43.8823)" class="st6" width="10.1" height="10.1"/>
		
			<rect x="211.9" y="277.3" transform="matrix(0.9761 -0.2174 0.2174 0.9761 -60.5919 54.4064)" class="st5" width="10.1" height="50.6"/>
		
			<rect x="178.9" y="242.8" transform="matrix(0.9761 -0.2174 0.2174 0.9761 -49.4788 45.9301)" class="st3" width="10.1" height="10.1"/>
		
			<rect x="176.8" y="232.9" transform="matrix(0.9761 -0.2174 0.2174 0.9761 -47.3855 45.2174)" class="st3" width="10.1" height="10.1"/>
		
			<rect x="168" y="286.6" transform="matrix(0.9761 -0.2174 0.2174 0.9761 -59.2767 44.5951)" class="st6" width="10.1" height="10.1"/>
		
			<rect x="69.3" y="401.9" transform="matrix(0.9761 -0.2174 0.2174 0.9761 -86.687 25.8952)" class="st3" width="10.1" height="10.1"/>
		
			<rect x="76.9" y="388.7" transform="matrix(0.9761 -0.2174 0.2174 0.9761 -83.5234 28.3316)" class="st0" width="20.2" height="10.1"/>
	</g>
	<g>
		<polygon class="st11" points="120.5,493.3 120.5,479.6 113.6,479.6 113.6,472.7 106.7,472.7 106.7,465.9 99.9,465.9 99.9,459 
			79.3,459 31.3,459 31.3,465.9 24.5,465.9 24.5,472.7 17.6,472.7 17.6,479.6 10.8,479.6 10.8,493.3 3.9,493.3 3.9,527.5 
			10.8,527.5 10.8,534.4 17.6,534.4 17.6,541.3 24.5,541.3 24.5,548.1 31.3,548.1 31.3,555 99.9,555 99.9,548.1 106.7,548.1 
			106.7,541.3 113.6,541.3 113.6,534.4 120.5,534.4 120.5,527.5 127.3,527.5 127.3,493.3 		"/>
		<rect x="38.2" y="548.2" class="st12" width="20.6" height="6.8"/>
		<rect x="31.3" y="479.6" class="st13" width="6.8" height="6.8"/>
		<polygon class="st13" points="31.3,486.4 24.5,486.4 17.6,486.4 17.6,500.2 17.6,513.8 24.5,513.8 24.5,500.2 31.3,500.2 		"/>
		<g>
			<rect x="45.1" y="445.3" class="st14" width="6.8" height="6.8"/>
			<rect x="31.3" y="465.9" class="st14" width="6.8" height="6.8"/>
			<rect x="93" y="479.6" class="st14" width="6.8" height="6.8"/>
			<rect x="86.2" y="445.3" class="st14" width="6.8" height="6.8"/>
			<rect x="45.1" y="479.6" class="st14" width="6.8" height="6.8"/>
			<rect x="93.3" y="438.3" class="st14" width="6.8" height="6.8"/>
			<rect x="38.2" y="438.4" class="st14" width="6.8" height="6.8"/>
			<rect x="99.9" y="452.1" class="st14" width="6.8" height="6.8"/>
			<polygon class="st14" points="86.2,452.1 72.4,452.1 51.9,452.1 51.9,459 38.2,459 38.2,465.9 51.9,465.9 58.8,465.9 58.8,472.7 
				51.9,472.7 51.9,479.6 65.6,479.6 65.6,472.7 72.4,472.7 79.3,472.7 79.3,479.6 86.2,479.6 93,479.6 93,472.7 86.2,472.7 
				86.2,465.9 99.9,465.9 99.9,459 86.2,459 			"/>
		</g>
		<polygon class="st15" points="72.4,438.4 72.4,445.3 65.6,445.3 65.6,452.1 65.6,459 72.4,459 72.4,452.1 79.3,452.1 79.3,445.3 
			79.3,438.4 		"/>
		<rect x="58.8" y="459" class="st15" width="6.8" height="6.8"/>
		<polygon class="st12" points="127.1,520.7 127.1,513.6 120.2,513.6 120.2,520.7 113.6,520.7 113.6,527.5 106.7,527.5 106.7,541.3 
			99.9,541.3 99.9,534.4 93,534.4 93,541.3 86.2,541.3 86.2,548.1 72.4,548.1 72.4,555 86.2,555 93,555 99.9,555 99.9,548.1 
			106.7,548.1 106.7,541.7 113.8,541.7 113.8,534.4 120.5,534.4 120.5,527.5 127.3,527.5 127.3,520.7 		"/>
	</g>
	<g>
		<polygon class="st16" points="82.3,94.7 80.9,91.7 77.9,93.1 76.5,90 39.7,106.8 41.1,109.8 38.1,111.2 39.5,114.3 36.4,115.7 
			44.8,134.1 47.8,132.7 50.6,138.8 53.7,137.4 55.1,140.4 58.2,139 59.6,142.1 62.6,140.8 64,143.8 67.1,142.4 68.5,145.4 
			71.5,144.1 73,147.1 85.2,141.5 83.8,138.5 86.8,137.1 85.4,134 88.5,132.6 87.1,129.5 90.2,128.1 88.8,125.1 91.8,123.7 
			90.4,120.6 93.5,119.2 90.7,113.2 93.7,111.8 85.4,93.4 		"/>
		<g>
			
				<rect x="43.6" y="97" transform="matrix(0.9097 -0.4153 0.4153 0.9097 -36.9082 27.7439)" class="st17" width="3.4" height="3.4"/>
			
				<rect x="46.5" y="103.2" transform="matrix(0.9097 -0.4153 0.4153 0.9097 -39.1951 29.4612)" class="st17" width="3.4" height="3.4"/>
			<polygon class="st17" points="62.8,92.6 59.8,94 57,87.9 50.8,90.7 53.6,96.8 50.6,98.2 47.5,99.5 48.9,102.6 52,101.2 
				53.4,104.3 65.6,98.7 64.2,95.6 67.3,94.2 65.9,91.2 			"/>
			
				<rect x="67.9" y="93.4" transform="matrix(0.9097 -0.4153 0.4153 0.9097 -33.2135 37.4747)" class="st17" width="3.4" height="3.4"/>
			
				<rect x="65.1" y="87.3" transform="matrix(0.9097 -0.4153 0.4153 0.9097 -30.9255 35.7574)" class="st17" width="3.4" height="3.4"/>
		</g>
		
			<rect x="73.5" y="105.6" transform="matrix(0.9097 -0.4153 0.4153 0.9097 -37.7879 40.9116)" class="st18" width="3.4" height="3.4"/>
		
			<rect x="60.4" y="133.8" transform="matrix(0.9097 -0.4153 0.4153 0.9097 -50.6399 38.0204)" class="st18" width="3.4" height="3.4"/>
		
			<rect x="56" y="107.9" transform="matrix(0.9097 -0.4153 0.4153 0.9097 -40.2914 33.8607)" class="st18" width="3.4" height="3.4"/>
		
			<rect x="68.5" y="119" transform="matrix(0.9097 -0.4153 0.4153 0.9097 -43.7944 40.0565)" class="st18" width="3.4" height="3.4"/>
		
			<rect x="82.1" y="116.5" transform="matrix(0.9097 -0.4153 0.4153 0.9097 -41.5115 45.46)" class="st18" width="3.4" height="3.4"/>
		
			<rect x="75.4" y="134.3" transform="matrix(0.9097 -0.4153 0.4153 0.9097 -49.4914 44.3126)" class="st18" width="3.4" height="3.4"/>
		
			<rect x="55.2" y="88.2" transform="matrix(0.9097 -0.4153 0.4153 0.9097 -32.9014 31.8895)" class="st1" width="3.4" height="6.7"/>
		<rect x="55.6" y="99" transform="matrix(0.9097 -0.4153 0.4153 0.9097 -36.6188 32.8926)" class="st1" width="3.4" height="3.4"/>
		
			<rect x="81.4" y="130.8" transform="matrix(0.9097 -0.4153 0.4153 0.9097 -47.3733 47.1792)" class="st19" width="6.7" height="3.4"/>
		
			<rect x="83.1" y="126.4" transform="matrix(0.9097 -0.4153 0.4153 0.9097 -45.3718 47.4649)" class="st19" width="6.7" height="3.4"/>
		
			<rect x="82.3" y="131.3" transform="matrix(0.9097 -0.4153 0.4153 0.9097 -48.3454 47.0292)" class="st19" width="3.4" height="6.7"/>
		
			<rect x="87.9" y="121.2" transform="matrix(0.9097 -0.4153 0.4153 0.9097 -42.9406 48.3209)" class="st19" width="3.4" height="3.4"/>
		
			<rect x="89" y="113.5" transform="matrix(0.9097 -0.4153 0.4153 0.9097 -40.3276 48.1986)" class="st19" width="3.4" height="6.7"/>
		
			<rect x="86.7" y="109.9" transform="matrix(0.9097 -0.4153 0.4153 0.9097 -38.2199 47.4595)" class="st19" width="6.7" height="3.4"/>
		
			<rect x="88.5" y="102.8" transform="matrix(0.9097 -0.4153 0.4153 0.9097 -36.6251 47.1994)" class="st19" width="3.4" height="10.1"/>
		
			<rect x="78.1" y="139.7" transform="matrix(0.9097 -0.4153 0.4153 0.9097 -51.379 46.6104)" class="st19" width="6.7" height="3.4"/>
		
			<rect x="42.9" y="116.2" transform="matrix(0.9097 -0.4153 0.4153 0.9097 -46.3314 29.4622)" class="st20" width="3.4" height="10.1"/>
		
			<rect x="43.1" y="112.1" transform="matrix(0.9097 -0.4153 0.4153 0.9097 -43.1996 28.8924)" class="st20" width="3.4" height="3.4"/>
		
			<rect x="44.8" y="107.6" transform="matrix(0.9097 -0.4153 0.4153 0.9097 -41.1969 29.1771)" class="st20" width="3.4" height="3.4"/>
		
			<rect x="49" y="116.8" transform="matrix(0.9097 -0.4153 0.4153 0.9097 -44.6291 31.7539)" class="st18" width="3.4" height="3.4"/>
		
			<rect x="49.4" y="124.1" transform="matrix(0.9097 -0.4153 0.4153 0.9097 -48.3165 32.7491)" class="st20" width="3.4" height="6.7"/>
	</g>
	<g>
		<polygon class="st91" points="22.1,262.9 19.1,259.3 33.7,247.3 36.7,251 40.3,248 43.3,251.6 46.9,248.6 55.9,259.6 61.8,266.8 
			64.8,270.5 68.5,267.5 71.5,271.1 74.4,274.7 78.1,271.8 81.1,275.4 84.7,272.5 87.7,276.1 90.7,279.7 79.8,288.6 76.8,285 
			69.5,291 66.5,287.4 62.9,290.4 59.9,286.7 56.2,289.7 53.2,286 49.6,289 46.6,285.4 43,288.4 40,284.8 36.4,287.7 18.4,265.9 		
			"/>
		
			<rect x="54.3" y="284" transform="matrix(0.7731 -0.6343 0.6343 0.7731 -168.8109 100.9231)" class="st92" width="4.7" height="4.7"/>
		
			<rect x="60.8" y="284.7" transform="matrix(0.7731 -0.6343 0.6343 0.7731 -167.7374 105.2172)" class="st92" width="4.7" height="4.7"/>
		
			<rect x="67" y="283.9" transform="matrix(0.7731 -0.6343 0.6343 0.7731 -165.2806 110.4117)" class="st92" width="9.4" height="4.7"/>
		
			<rect x="77.8" y="283" transform="matrix(0.7731 -0.6343 0.6343 0.7731 -162.8295 115.6082)" class="st92" width="4.7" height="4.7"/>
		
			<rect x="42.1" y="252.1" transform="matrix(0.7731 -0.6343 0.6343 0.7731 -152.7883 86.4664)" class="st93" width="4.7" height="9.4"/>
		
			<rect x="34" y="251.9" transform="matrix(0.7731 -0.6343 0.6343 0.7731 -153.036 80.7698)" class="st93" width="4.7" height="4.7"/>
		
			<rect x="47.6" y="283.4" transform="matrix(0.7731 -0.6343 0.6343 0.7731 -169.9063 96.5497)" class="st92" width="4.7" height="4.7"/>
		<g>
			
				<rect x="19" y="233.7" transform="matrix(0.7731 -0.6343 0.6343 0.7731 -144.8833 67.129)" class="st60" width="4.7" height="4.7"/>
			
				<rect x="34.7" y="245.3" transform="matrix(0.7731 -0.6343 0.6343 0.7731 -148.6936 79.6747)" class="st60" width="4.7" height="4.7"/>
			<polygon class="st60" points="19.1,259.3 16.1,255.6 19.7,252.6 16.8,249 20.4,246 17.4,242.4 21.1,239.4 27.1,246.7 30.7,243.7 
				33.7,247.3 22.8,256.3 25.7,259.9 22.1,262.9 18.4,265.9 15.5,262.3 			"/>
			
				<rect x="26.8" y="257.8" transform="matrix(0.7731 -0.6343 0.6343 0.7731 -158.4375 77.5047)" class="st60" width="4.7" height="4.7"/>
		</g>
		
			<rect x="21.4" y="244" transform="matrix(0.7731 -0.6343 0.6343 0.7731 -150.899 70.977)" class="st17" width="4.7" height="4.7"/>
		
			<rect x="22" y="237.4" transform="matrix(0.7731 -0.6343 0.6343 0.7731 -146.554 69.876)" class="st17" width="4.7" height="4.7"/>
		
			<rect x="23.8" y="254.3" transform="matrix(0.7731 -0.6343 0.6343 0.7731 -156.8642 74.7998)" class="st17" width="4.7" height="4.7"/>
	</g>
	<g>
		<polygon class="st33" points="200.4,173.4 197.4,173.4 197.4,170.4 194.4,170.4 194.4,167.3 173.3,167.3 173.3,170.4 170.3,170.4 
			170.3,173.4 167.3,173.4 167.3,188.4 170.3,188.4 170.3,191.5 173.3,191.5 173.3,194.5 194.4,194.5 194.4,191.5 197.4,191.5 
			197.4,188.4 200.4,188.4 		"/>
		<rect x="176" y="173.4" class="st34" width="15.1" height="3"/>
		<rect x="179" y="170.4" class="st34" width="9" height="9"/>
		<rect x="170.3" y="179.4" class="st35" width="3" height="6"/>
		<rect x="173.3" y="185.4" class="st35" width="3" height="3"/>
		<rect x="191.4" y="191.5" class="st36" width="3" height="3"/>
		<rect x="194.4" y="188.4" class="st36" width="3" height="3"/>
		<rect x="197.4" y="185.4" class="st36" width="3" height="3"/>
		<rect x="194.4" y="173.4" class="st35" width="3" height="3"/>
	</g>
	<g>
		<polygon class="st97" points="79.6,343.2 74.7,343.2 74.7,338.2 69.7,338.2 69.7,333.2 39.9,333.2 39.9,338.2 35,338.2 35,343.2 
			30,343.2 30,368 35,368 35,372.9 39.9,372.9 39.9,377.8 69.7,377.8 69.7,372.9 74.7,372.9 74.7,368 79.6,368 		"/>
		<rect x="54.6" y="346.2" class="st98" width="5" height="5"/>
		<rect x="44.9" y="368" class="st98" width="5" height="5"/>
		<rect x="44.9" y="338.2" class="st99" width="5" height="5"/>
		<rect x="79.6" y="323.3" class="st99" width="9.9" height="9.9"/>
		<rect x="20.1" y="372.9" class="st99" width="11" height="9.9"/>
		<rect x="72.4" y="360.8" class="st98" width="5" height="5"/>
		<rect x="44.9" y="353.1" class="st99" width="5" height="5"/>
		<rect x="64.7" y="368" class="st99" width="5" height="5"/>
		<rect x="84.6" y="323.3" class="st97" width="5" height="5"/>
		<rect x="25.1" y="377.8" class="st97" width="9.9" height="5"/>
		<rect x="15.1" y="363" class="st97" width="5" height="5"/>
		<rect x="25.1" y="323.3" class="st98" width="5" height="5"/>
		<rect x="20.1" y="318.4" class="st97" width="5" height="5"/>
		<rect x="84.6" y="372.9" class="st97" width="5" height="5"/>
		<rect x="49.9" y="313.4" class="st97" width="5" height="5"/>
		<rect x="64.7" y="338.2" class="st99" width="5" height="5"/>
		<rect x="54.8" y="387.8" class="st97" width="9.9" height="5"/>
		<rect x="54.8" y="382.8" class="st99" width="5" height="5"/>
	</g>
	<g>
		<polygon class="st17" points="127.1,15.1 121.7,17.6 119.2,12.3 113.9,14.8 111.3,9.5 106,12 103.4,6.7 98.1,9.2 95.6,3.9 
			79.5,11.4 82.1,16.8 76.7,19.3 79.3,24.7 73.9,27.2 76.4,32.5 71.1,35.1 73.6,40.4 68.2,42.9 86,80.4 91.3,77.9 93.9,83.2 
			99.2,80.7 101.7,86 107.1,83.5 109.6,88.8 115,86.3 117.4,91.6 122.8,89.1 130.4,105.1 135.7,102.6 128.1,86.6 133.5,84 131,78.7 
			136.3,76.2 133.8,70.8 139.1,68.3 136.6,62.9 142,60.5 139.4,55.1 144.8,52.6 		"/>
		
			<rect x="107.4" y="26.2" transform="matrix(0.9039 -0.4278 0.4278 0.9039 -13.2381 52.5679)" class="st100" width="5.9" height="59.1"/>
		
			<rect x="92.2" y="17.8" transform="matrix(0.9039 -0.4278 0.4278 0.9039 -0.9833 42.9997)" class="st100" width="5.9" height="11.9"/>
		
			<rect x="87.9" y="39.1" transform="matrix(0.9039 -0.4278 0.4278 0.9039 -9.2619 42.9123)" class="st100" width="5.9" height="5.9"/>
		
			<rect x="95.2" y="40.6" transform="matrix(0.9039 -0.4278 0.4278 0.9039 -8.8843 47.4914)" class="st100" width="12" height="5.9"/>
		
			<rect x="79.7" y="36.2" transform="matrix(0.9039 -0.4278 0.4278 0.9039 -8.8202 39.1487)" class="st100" width="5.9" height="5.9"/>
		
			<rect x="114.1" y="52.9" transform="matrix(0.9039 -0.4278 0.4278 0.9039 -12.6527 55.444)" class="st100" width="5.9" height="5.9"/>
		<rect x="116.8" y="45" transform="matrix(0.9039 -0.4278 0.4278 0.9039 -9.018 55.859)" class="st100" width="5.9" height="5.9"/>
		
			<rect x="119.7" y="37.2" transform="matrix(0.9039 -0.4278 0.4278 0.9039 -5.3805 56.3291)" class="st100" width="5.9" height="5.9"/>
		
			<rect x="87.3" y="65.6" transform="matrix(0.9039 -0.4278 0.4278 0.9039 -20.6313 45.2108)" class="st100" width="5.9" height="5.9"/>
		
			<rect x="102.8" y="70" transform="matrix(0.9039 -0.4278 0.4278 0.9039 -20.7413 53.528)" class="st100" width="11.9" height="5.9"/>
		
			<rect x="95.8" y="68.3" transform="matrix(0.9039 -0.4278 0.4278 0.9039 -20.9899 49.0967)" class="st100" width="5.9" height="5.9"/>
		
			<rect x="124.5" y="61.1" transform="matrix(0.9039 -0.4278 0.4278 0.9039 -15.1446 60.6705)" class="st1" width="5.9" height="5.9"/>
		
			<rect x="100.3" y="23.8" transform="matrix(0.9039 -0.4278 0.4278 0.9039 -1.5315 46.7321)" class="st100" width="5.9" height="5.9"/>
		
			<rect x="127.3" y="53.2" transform="matrix(0.9039 -0.4278 0.4278 0.9039 -11.5009 61.1175)" class="st1" width="5.9" height="5.9"/>
		
			<rect x="79.7" y="49.6" transform="matrix(0.9039 -0.4278 0.4278 0.9039 -14.5196 40.4298)" class="st1" width="5.9" height="5.9"/>
	</g>
	<g>
		<polygon class="st88" points="207.9,522.7 209.3,519.6 206.1,518.2 207.5,515.1 204.4,513.8 205.7,510.6 190.1,503.9 188.7,507 
			185.6,505.7 184.3,508.8 181.2,507.5 179.8,510.6 176.7,509.3 169.9,524.9 173.1,526.2 171.7,529.3 174.9,530.7 173.5,533.8 
			176.6,535.1 175.3,538.3 190.9,545 192.3,541.9 195.4,543.2 196.7,540.1 199.8,541.4 201.2,538.3 204.3,539.7 211.1,524 		"/>
		<polygon class="st89" points="197.2,521.8 198.6,518.7 189.2,514.6 187.8,517.7 184.7,516.4 180.7,525.8 183.8,527.1 182.4,530.2 
			191.8,534.3 193.1,531.2 196.3,532.5 200.3,523.2 		"/>
		
			<rect x="183.4" y="509.4" transform="matrix(0.3958 -0.9183 0.9183 0.3958 -357.5444 478.7969)" class="st90" width="3.4" height="3.4"/>
		<polygon class="st59" points="195.8,524.9 192.8,523.5 194.1,520.4 191,519.1 189.6,522.2 186.5,520.9 185.1,524 188.2,525.3 
			186.9,528.4 190,529.8 191.4,526.7 194.5,528.1 		"/>
		
			<rect x="174.1" y="514.3" transform="matrix(0.3958 -0.9183 0.9183 0.3958 -365.5855 476.3797)" class="st90" width="10.2" height="3.4"/>
		
			<rect x="194" y="536.2" transform="matrix(0.3958 -0.9183 0.9183 0.3958 -375.6893 504.7539)" class="st90" width="3.4" height="3.4"/>
		
			<rect x="197.5" y="532.9" transform="matrix(0.3958 -0.9183 0.9183 0.3958 -369.56 507.4451)" class="st90" width="6.8" height="3.4"/>
	</g>
	<g>
		<polygon class="st94" points="235.4,458.4 234.2,455.2 231,456.4 229.8,453.2 226.5,454.4 226.5,454.4 210.5,460.5 210.5,460.5 
			207.3,461.7 208.5,464.9 205.3,466.2 206.5,469.4 203.3,470.6 209.4,486.7 212.6,485.4 213.8,488.6 217,487.4 218.2,490.7 
			221.4,489.5 222.6,492.6 238.7,486.5 237.5,483.3 240.7,482.1 239.5,478.9 242.7,477.7 241.5,474.5 244.7,473.3 238.6,457.2 		"/>
		
			<rect x="211.9" y="470.5" transform="matrix(0.9349 -0.3548 0.3548 0.9349 -154.2752 106.6302)" class="st95" width="3.4" height="6.9"/>
		
			<rect x="227.9" y="485" transform="matrix(0.9349 -0.3548 0.3548 0.9349 -157.5282 114.376)" class="st96" width="10.3" height="3.4"/>
		
			<rect x="236.6" y="479.3" transform="matrix(0.9349 -0.3548 0.3548 0.9349 -155.1746 115.8613)" class="st96" width="3.4" height="3.4"/>
		
			<rect x="238.6" y="474.9" transform="matrix(0.9349 -0.3548 0.3548 0.9349 -153.4879 116.2759)" class="st96" width="3.4" height="3.4"/>
		
			<rect x="240.6" y="470.5" transform="matrix(0.9349 -0.3548 0.3548 0.9349 -151.7751 116.6859)" class="st96" width="3.4" height="3.4"/>
		
			<rect x="208.7" y="463.6" transform="matrix(0.9349 -0.3548 0.3548 0.9349 -151.2946 105.5446)" class="st95" width="6.9" height="3.4"/>
		
			<rect x="206.7" y="468" transform="matrix(0.9349 -0.3548 0.3548 0.9349 -152.9821 105.1298)" class="st95" width="6.9" height="3.4"/>
		
			<rect x="206.9" y="468.6" transform="matrix(0.9349 -0.3548 0.3548 0.9349 -153.3132 104.6071)" class="st20" width="3.4" height="3.4"/>
		
			<rect x="208.8" y="464.2" transform="matrix(0.9349 -0.3548 0.3548 0.9349 -151.6254 105.021)" class="st20" width="3.4" height="3.4"/>
		
			<rect x="214" y="458.6" transform="matrix(0.9349 -0.3548 0.3548 0.9349 -149.2772 106.4824)" class="st95" width="3.4" height="3.4"/>
		
			<rect x="234.2" y="473" transform="matrix(0.9349 -0.3548 0.3548 0.9349 -153.0724 114.5894)" class="st96" width="3.4" height="3.4"/>
		
			<rect x="216" y="450.6" transform="matrix(0.9349 -0.3548 0.3548 0.9349 -147.5599 106.9161)" class="st29" width="3.4" height="10.3"/>
		
			<rect x="221.6" y="459.3" transform="matrix(0.9349 -0.3548 0.3548 0.9349 -149.0506 109.2459)" class="st29" width="3.4" height="3.4"/>
		
			<rect x="213.7" y="436.7" transform="matrix(0.9349 -0.3548 0.3548 0.9349 -142.1467 105.082)" class="st32" width="3.4" height="6.9"/>
		
			<rect x="213.6" y="444.3" transform="matrix(0.9349 -0.3548 0.3548 0.9349 -145.458 105.6444)" class="st29" width="3.4" height="10.3"/>
		
			<rect x="215.1" y="432.4" transform="matrix(0.9349 -0.3548 0.3548 0.9349 -139.9312 105.1912)" class="st32" width="3.4" height="3.4"/>
		
			<rect x="217.1" y="428" transform="matrix(0.9349 -0.3548 0.3548 0.9349 -138.2192 105.6002)" class="st32" width="3.4" height="3.4"/>
		
			<rect x="213" y="444.4" transform="matrix(0.9349 -0.3548 0.3548 0.9349 -144.9341 105.314)" class="st32" width="3.4" height="6.9"/>
		
			<rect x="214.3" y="440.1" transform="matrix(0.9349 -0.3548 0.3548 0.9349 -142.6994 105.3928)" class="st29" width="3.4" height="3.4"/>
	</g>
	<g>
		<polygon class="st101" points="212.8,15.1 211.3,10 208.7,10.8 207.9,8.1 205.4,8.9 204.6,6.4 202.1,7.1 199.5,7.9 197,8.6 
			197.7,11.2 195.1,12 196,14.6 193.4,15.3 194.9,20.4 192.3,21.2 198.4,41.6 201,40.8 201.8,43.4 204.3,42.7 205.1,45.2 
			207.8,44.4 208.5,47 216.2,44.7 215.4,42.1 217.9,41.4 217.1,38.9 219.7,38.1 218.9,35.5 221.5,34.8 215.3,14.3 		"/>
		
			<rect x="196.2" y="17.2" transform="matrix(0.9583 -0.2859 0.2859 0.9583 1.4156 57.4855)" class="st102" width="2.7" height="13.3"/>
		
			<rect x="216.1" y="30.6" transform="matrix(0.9583 -0.2859 0.2859 0.9583 -0.8291 63.6204)" class="st103" width="2.7" height="8"/>
		
			<rect x="212.5" y="39.6" transform="matrix(0.9583 -0.2859 0.2859 0.9583 -2.71 63.2255)" class="st103" width="5.4" height="2.7"/>
		<rect x="217.9" y="27.3" transform="matrix(0.9583 -0.2859 0.2859 0.9583 0.193 63.9922)" class="st103" width="2.7" height="8"/>
		
			<rect x="212.9" y="39.9" transform="matrix(0.9583 -0.2859 0.2859 0.9583 -3.2242 63.0199)" class="st103" width="2.7" height="5.4"/>
		
			<rect x="196.9" y="14" transform="matrix(0.9583 -0.2859 0.2859 0.9583 3.4922 57.3682)" class="st104" width="2.7" height="5.4"/>
		
			<rect x="195.5" y="20" transform="matrix(0.9583 -0.2859 0.2859 0.9583 2.1217 57.1591)" class="st104" width="2.7" height="2.7"/>
		
			<rect x="213.1" y="20.4" transform="matrix(0.9583 -0.2859 0.2859 0.9583 1.9654 62.3374)" class="st103" width="2.7" height="8"/>
		
			<rect x="214.4" y="36.6" transform="matrix(0.9583 -0.2859 0.2859 0.9583 -1.8432 63.2656)" class="st103" width="2.7" height="2.7"/>
		
			<rect x="216.9" y="35.9" transform="matrix(0.9583 -0.2859 0.2859 0.9583 -1.5257 63.9456)" class="st105" width="2.7" height="2.7"/>
		
			<rect x="215.1" y="39.2" transform="matrix(0.9583 -0.2859 0.2859 0.9583 -2.5478 63.5739)" class="st105" width="2.7" height="2.7"/>
		
			<rect x="213.3" y="42.5" transform="matrix(0.9583 -0.2859 0.2859 0.9583 -3.5652 63.1995)" class="st105" width="2.7" height="2.7"/>
	</g>
	<g>
		<polygon class="st101" points="337.4,220.6 335,215.8 332.7,216.9 331.5,214.6 329.1,215.7 328,213.3 325.5,214.4 323.1,215.6 
			320.8,216.8 321.9,219.2 319.5,220.4 320.6,222.7 318.3,223.9 320.6,228.7 318.1,229.9 327.4,249.1 329.9,247.9 331,250.3 
			333.4,249.2 334.6,251.6 337.1,250.4 338.3,252.8 345.5,249.3 344.3,246.9 346.6,245.7 345.4,243.4 347.8,242.2 346.7,239.8 
			349.1,238.7 339.8,219.4 		"/>
		
			<rect x="322.3" y="225" transform="matrix(0.9001 -0.4357 0.4357 0.9001 -68.6069 164.1493)" class="st102" width="2.7" height="13.3"/>
		
			<rect x="343.7" y="235.2" transform="matrix(0.9001 -0.4357 0.4357 0.9001 -69.7327 174.2332)" class="st103" width="2.7" height="8"/>
		
			<rect x="341.1" y="244.3" transform="matrix(0.9001 -0.4357 0.4357 0.9001 -72.6882 174.3246)" class="st103" width="5.4" height="2.7"/>
		
			<rect x="344.9" y="231.6" transform="matrix(0.9001 -0.4357 0.4357 0.9001 -68.0577 174.4006)" class="st103" width="2.7" height="8"/>
		
			<rect x="341.8" y="244.8" transform="matrix(0.9001 -0.4357 0.4357 0.9001 -73.5314 174.2243)" class="st103" width="2.7" height="5.4"/>
		
			<rect x="321.8" y="221.8" transform="matrix(0.9001 -0.4357 0.4357 0.9001 -65.5346 163.2107)" class="st104" width="2.7" height="5.4"/>
		
			<rect x="321.1" y="227.9" transform="matrix(0.9001 -0.4357 0.4357 0.9001 -67.6798 163.4131)" class="st104" width="2.7" height="2.7"/>
		
			<rect x="339.1" y="225.5" transform="matrix(0.9001 -0.4357 0.4357 0.9001 -66.0037 171.2445)" class="st103" width="2.7" height="8"/>
		
			<rect x="342.4" y="241.3" transform="matrix(0.9001 -0.4357 0.4357 0.9001 -71.3852 174.0228)" class="st103" width="2.7" height="2.7"/>
		
			<rect x="344.9" y="240.2" transform="matrix(0.9001 -0.4357 0.4357 0.9001 -70.6432 174.9653)" class="st105" width="2.7" height="2.7"/>
		
			<rect x="343.6" y="243.7" transform="matrix(0.9001 -0.4357 0.4357 0.9001 -72.3177 174.7953)" class="st105" width="2.7" height="2.7"/>
		
			<rect x="342.4" y="247.3" transform="matrix(0.9001 -0.4357 0.4357 0.9001 -74.0012 174.5941)" class="st105" width="2.7" height="2.7"/>
	</g>
	<g>
		<polygon class="st61" points="255.6,245.5 253.1,246 252.1,241.2 249.6,241.7 249.1,239.3 246.7,239.8 246.2,237.4 243.8,237.9 
			243.2,235.5 240.8,236 240.3,233.5 237.8,234.1 238.3,236.5 235.9,237 236.4,239.4 234,239.9 234.5,242.3 232.1,242.9 
			232.6,245.3 230.2,245.8 231.2,250.7 228.8,251.2 231.9,265.8 234.3,265.3 234.8,267.7 237.3,267.2 237.8,269.7 240.2,269.1 
			240.8,271.5 243.2,271 243.7,273.4 246.1,272.9 246.6,275.4 249.1,274.8 248.5,272.4 251,271.9 250.5,269.5 252.9,269 
			252.4,266.6 254.9,266 254.3,263.6 256.8,263.1 256.2,260.6 258.6,260.1 		"/>
		<rect x="233.2" y="244.8" transform="matrix(0.9781 -0.2083 0.2083 0.9781 -46.343 54.52)" class="st62" width="5" height="5"/>
		
			<rect x="234.9" y="242.1" transform="matrix(0.9781 -0.2083 0.2083 0.9781 -45.5159 54.5339)" class="st63" width="2.5" height="2.5"/>
		
			<rect x="233.5" y="247.5" transform="matrix(0.9781 -0.2083 0.2083 0.9781 -46.6616 54.3591)" class="st63" width="2.5" height="2.5"/>
		
			<rect x="244.7" y="240" transform="matrix(0.9781 -0.2083 0.2083 0.9781 -44.8637 56.519)" class="st63" width="2.5" height="2.5"/>
		
			<rect x="242.8" y="265.9" transform="matrix(0.9781 -0.2083 0.2083 0.9781 -50.553 56.7289)" class="st64" width="2.5" height="5"/>
		
			<rect x="239.6" y="264" transform="matrix(0.9781 -0.2083 0.2083 0.9781 -49.9671 55.9822)" class="st64" width="2.5" height="2.5"/>
		
			<rect x="246" y="267.8" transform="matrix(0.9781 -0.2083 0.2083 0.9781 -51.1309 57.4475)" class="st64" width="2.5" height="7.5"/>
		
			<rect x="247.6" y="262.4" transform="matrix(0.9781 -0.2083 0.2083 0.9781 -50.2249 57.7011)" class="st64" width="2.5" height="9.9"/>
		
			<rect x="243.2" y="240.7" transform="matrix(0.9781 -0.2083 0.2083 0.9781 -48.4088 56.5698)" class="st65" width="2.5" height="34.8"/>
		<rect x="249" y="259.2" transform="matrix(0.9781 -0.2083 0.2083 0.9781 -48.9963 58.1282)" class="st64" width="5" height="5"/>
		
			<rect x="247.6" y="242" transform="matrix(0.9781 -0.2083 0.2083 0.9781 -45.1977 57.1713)" class="st63" width="2.5" height="2.5"/>
		
			<rect x="250" y="264.3" transform="matrix(0.9781 -0.2083 0.2083 0.9781 -50.0657 58.1942)" class="st64" width="2.5" height="5"/>
		
			<rect x="245.5" y="242.5" transform="matrix(0.9781 -0.2083 0.2083 0.9781 -45.6104 56.7586)" class="st62" width="2.5" height="5"/>
		
			<rect x="236.2" y="246.9" transform="matrix(0.9781 -0.2083 0.2083 0.9781 -46.7463 54.9185)" class="st62" width="2.5" height="5"/>
		
			<rect x="246.3" y="257.3" transform="matrix(0.9781 -0.2083 0.2083 0.9781 -48.9022 57.5547)" class="st61" width="5" height="7.5"/>
		
			<rect x="252.2" y="251.2" transform="matrix(0.9781 -0.2083 0.2083 0.9781 -47.0236 58.3168)" class="st64" width="2.5" height="2.5"/>
		
			<rect x="234.5" y="252.4" transform="matrix(0.9781 -0.2083 0.2083 0.9781 -47.6522 54.6648)" class="st62" width="2.5" height="2.5"/>
		
			<rect x="231.6" y="250.4" transform="matrix(0.9781 -0.2083 0.2083 0.9781 -47.3183 54.0124)" class="st62" width="2.5" height="2.5"/>
		
			<rect x="236.8" y="239.2" transform="matrix(0.9781 -0.2083 0.2083 0.9781 -44.8539 54.8536)" class="st62" width="2.5" height="2.5"/>
	</g>
	<g>
		<polygon class="st101" points="317.2,471.1 320,466.6 317.7,465.2 319.1,462.9 316.9,461.5 318.3,459.2 316,457.8 313.7,456.4 
			311.4,455 310,457.3 307.8,455.8 306.4,458.1 304.1,456.7 301.3,461.3 299,459.8 287.7,478 290,479.4 288.6,481.6 290.9,483.1 
			289.5,485.3 291.8,486.8 290.3,489.1 297.2,493.3 298.6,491 300.7,492.4 302.2,490.1 304.4,491.5 305.8,489.2 308.1,490.6 
			319.4,472.5 		"/>
		
			<rect x="293.7" y="464.1" transform="matrix(0.5292 -0.8485 0.8485 0.5292 -253.5324 474.043)" class="st102" width="13.3" height="2.7"/>
		
			<rect x="301.5" y="486.1" transform="matrix(0.5292 -0.8485 0.8485 0.5292 -269.7929 488.7202)" class="st103" width="8" height="2.7"/>
		
			<rect x="298" y="487.3" transform="matrix(0.5292 -0.8485 0.8485 0.5292 -274.8169 484.6273)" class="st103" width="2.7" height="5.4"/>
		
			<rect x="305.2" y="485.3" transform="matrix(0.5292 -0.8485 0.8485 0.5292 -267.3529 491.4495)" class="st103" width="8" height="2.7"/>
		
			<rect x="294.8" y="489" transform="matrix(0.5292 -0.8485 0.8485 0.5292 -276.0243 483.2195)" class="st103" width="5.4" height="2.7"/>
		
			<rect x="303.5" y="459.8" transform="matrix(0.5292 -0.8485 0.8485 0.5292 -247.1209 476.9095)" class="st104" width="5.4" height="2.7"/>
		
			<rect x="300.5" y="461.8" transform="matrix(0.5292 -0.8485 0.8485 0.5292 -250.8782 474.1589)" class="st104" width="2.7" height="2.7"/>
		
			<rect x="307.2" y="477.1" transform="matrix(0.5292 -0.8485 0.8485 0.5292 -259.4375 489.2722)" class="st103" width="8" height="2.7"/>
		
			<rect x="300.5" y="487" transform="matrix(0.5292 -0.8485 0.8485 0.5292 -272.2629 486.0145)" class="st103" width="2.7" height="2.7"/>
		
			<rect x="302.8" y="488.4" transform="matrix(0.5292 -0.8485 0.8485 0.5292 -272.3463 488.6224)" class="st105" width="2.7" height="2.7"/>
		
			<rect x="299.1" y="489.3" transform="matrix(0.5292 -0.8485 0.8485 0.5292 -274.8589 485.9232)" class="st105" width="2.7" height="2.7"/>
		
			<rect x="295.4" y="490.1" transform="matrix(0.5292 -0.8485 0.8485 0.5292 -277.3214 483.1561)" class="st105" width="2.7" height="2.7"/>
	</g>
	<g>
		<polygon class="st88" points="335.5,389.2 335.5,385.7 332.2,385.7 332.2,382.4 328.7,382.4 328.7,379 311.7,379 311.7,382.4 
			308.3,382.4 308.3,385.7 305,385.7 305,389.2 301.5,389.2 301.5,406.2 305,406.2 305,409.6 308.3,409.6 308.3,413 311.7,413 
			311.7,416.4 328.7,416.4 328.7,413 332.2,413 332.2,409.6 335.5,409.6 335.5,406.2 339,406.2 339,389.2 		"/>
		<polygon class="st89" points="325.4,392.6 325.4,389.2 315.2,389.2 315.2,392.6 311.7,392.6 311.7,402.8 315.2,402.8 315.2,406.2 
			325.4,406.2 325.4,402.8 328.7,402.8 328.7,392.6 		"/>
		<rect x="308.3" y="385.7" class="st90" width="3.4" height="3.4"/>
		<polygon class="st59" points="325.4,396 322,396 322,392.6 318.5,392.6 318.5,396 315.2,396 315.2,399.4 318.5,399.4 318.5,402.8 
			322,402.8 322,399.4 325.4,399.4 		"/>
		<rect x="305" y="389.2" class="st90" width="3.4" height="10.2"/>
		<rect x="328.7" y="406.2" class="st90" width="3.4" height="3.4"/>
		<rect x="332.2" y="399.4" class="st90" width="3.4" height="6.8"/>
	</g>
	<g>
		<polygon class="st21" points="318.8,317.4 321.7,309.8 317.9,308.3 319.4,304.5 315.5,303 317,299.2 313.2,297.7 314.7,293.8 
			310.8,292.4 312.3,288.6 308.5,287.1 309.9,283.3 306.1,281.8 310.5,270.3 302.9,267.4 298.5,278.9 294.6,277.4 293.2,281.2 
			289.4,279.8 287.9,283.6 284.1,282.1 282.5,285.9 278.7,284.5 277.3,288.3 273.4,286.8 272,290.7 268.1,289.2 265.2,296.8 
			261.4,295.4 252.6,318.4 256.4,319.8 254.9,323.6 258.8,325.1 257.3,329 303.2,346.6 304.6,342.7 308.5,344.2 310,340.4 
			313.8,341.8 322.6,318.9 		"/>
		<polygon class="st22" points="317.3,321.3 313.5,319.8 316.4,312.1 312.6,310.7 314.1,306.8 310.3,305.4 311.7,301.6 307.9,300 
			309.4,296.3 305.5,294.7 307,290.9 303.2,289.4 304.6,285.6 297,282.7 295.5,286.5 291.7,285.1 290.2,288.9 286.4,287.4 
			284.9,291.2 281.1,289.8 279.6,293.6 275.8,292.1 274.3,295.9 270.5,294.5 267.6,302.1 263.7,300.7 257.9,316 261.7,317.4 
			260.2,321.3 264.1,322.7 262.6,326.5 277.9,332.5 285.5,335.4 300.8,341.3 302.3,337.4 306.1,338.9 307.6,335.1 311.5,336.5 		"/>
		<polygon class="st23" points="313.5,319.8 309.7,318.3 311.1,314.5 307.3,313 308.8,309.2 305,307.7 306.4,303.9 302.6,302.4 
			304.1,298.6 300.3,297.1 301.7,293.3 294.1,290.3 292.5,294.2 288.8,292.7 287.3,296.5 283.4,295.1 282,298.9 278.1,297.4 
			276.7,301.2 272.8,299.8 271.4,303.6 267.6,302.1 263.2,313.6 267,315.1 265.5,318.9 269.3,320.4 267.9,324.2 298.5,336 
			300,332.1 303.8,333.6 305.2,329.8 309.1,331.3 		"/>
		
			<rect x="302.2" y="319.2" transform="matrix(0.3584 -0.9336 0.9336 0.3584 -103.3511 492.0822)" class="st24" width="8.2" height="4.1"/>
		
			<rect x="284" y="321" transform="matrix(0.3584 -0.9336 0.9336 0.3584 -116.7912 476.2301)" class="st24" width="8.2" height="4.1"/>
		
			<rect x="276.7" y="304.9" transform="matrix(0.3584 -0.9336 0.9336 0.3584 -106.3896 459.1514)" class="st24" width="8.2" height="4.1"/>
		
			<rect x="270.6" y="304.1" transform="matrix(0.3584 -0.9336 0.9336 0.3584 -110.8659 450.8851)" class="st24" width="4.1" height="4.1"/>
		
			<rect x="286.1" y="296.7" transform="matrix(0.3584 -0.9336 0.9336 0.3584 -94.0517 460.7076)" class="st24" width="4.1" height="4.1"/>
		
			<rect x="277.7" y="320.2" transform="matrix(0.3584 -0.9336 0.9336 0.3584 -121.363 467.853)" class="st24" width="4.1" height="4.1"/>
		
			<rect x="293.6" y="313" transform="matrix(0.3584 -0.9336 0.9336 0.3584 -104.4474 478.1234)" class="st24" width="4.1" height="4.1"/>
		
			<rect x="300.3" y="306.7" transform="matrix(0.3584 -0.9336 0.9336 0.3584 -94.2668 480.3884)" class="st24" width="4.1" height="4.1"/>
		
			<rect x="292.8" y="298" transform="matrix(0.3584 -0.9336 0.9336 0.3584 -89.6415 469.7336)" class="st24" width="8.2" height="4.1"/>
		
			<rect x="285.9" y="310" transform="matrix(0.3584 -0.9336 0.9336 0.3584 -106.5933 469.0345)" class="st24" width="4.1" height="4.1"/>
		
			<rect x="271.4" y="313.2" transform="matrix(0.3584 -0.9336 0.9336 0.3584 -118.8481 457.5975)" class="st24" width="4.1" height="4.1"/>
		
			<rect x="294" y="329.3" transform="matrix(0.3584 -0.9336 0.9336 0.3584 -118.0322 490.8393)" class="st24" width="8.2" height="4.1"/>
		
			<rect x="263.8" y="310.3" transform="matrix(0.3584 -0.9336 0.9336 0.3584 -121.0128 448.6355)" class="st24" width="4.1" height="4.1"/>
	</g>
	<g>
		<polygon class="st48" points="299.3,189.2 294.6,189.2 294.6,184.6 290,184.6 290,180 262.3,180 262.3,184.6 257.7,184.6 
			257.7,189.2 253.1,189.2 253.1,212.3 257.7,212.3 257.7,216.9 262.3,216.9 262.3,221.5 290,221.5 290,216.9 294.6,216.9 
			294.6,212.3 299.3,212.3 		"/>
		<rect x="264.8" y="196.4" class="st49" width="4.6" height="4.6"/>
		<rect x="276.1" y="184.6" class="st49" width="4.6" height="4.6"/>
		<rect x="285.4" y="207.7" class="st49" width="4.6" height="4.6"/>
		<rect x="294.6" y="180" class="st49" width="4.6" height="4.6"/>
		<rect x="262.3" y="170.7" class="st49" width="4.6" height="4.6"/>
		<rect x="239.2" y="175.4" class="st49" width="4.6" height="4.6"/>
		<rect x="248.5" y="221.5" class="st50" width="4.6" height="4.6"/>
		<rect x="285.4" y="198.4" class="st50" width="4.6" height="4.6"/>
		<rect x="294.6" y="216.9" class="st50" width="9.2" height="9.2"/>
		<rect x="248.5" y="170.7" class="st50" width="9.2" height="9.2"/>
		<rect x="299.3" y="166.1" class="st50" width="4.6" height="4.6"/>
		<rect x="266.9" y="230.8" class="st50" width="4.6" height="4.6"/>
		<rect x="308.4" y="203" class="st49" width="4.6" height="4.6"/>
	</g>
	<g>
		<polygon class="st79" points="146.1,482.2 147.7,485.3 150.7,483.7 152.3,486.9 167.7,479.1 166.2,476 169.3,474.4 167.7,471.4 
			170.9,469.8 160,448.2 156.9,449.7 153.8,443.5 150.7,445.1 149.1,442 146.1,443.5 144.5,440.5 141.4,442 139.9,438.9 
			136.8,440.5 138.3,443.5 135.2,445.1 136.8,448.2 133.7,449.7 135.2,452.8 132.1,454.4 135.2,460.5 132.1,462.1 143,483.7 		"/>
		
			<rect x="149.7" y="476.4" transform="matrix(0.8939 -0.4482 0.4482 0.8939 -198.2861 121.8834)" class="st80" width="17.3" height="6.9"/>
		
			<rect x="142.7" y="468.3" transform="matrix(0.8939 -0.4482 0.4482 0.8939 -197.6928 115.1256)" class="st80" width="3.4" height="13.8"/>
		
			<rect x="150.4" y="457.1" transform="matrix(0.8939 -0.4482 0.4482 0.8939 -193.397 117.7918)" class="st80" width="3.4" height="20.8"/>
		
			<rect x="161.3" y="459" transform="matrix(0.8939 -0.4482 0.4482 0.8939 -191.5474 122.4827)" class="st80" width="3.4" height="13.8"/>
		
			<rect x="135.8" y="459.6" transform="matrix(0.8939 -0.4482 0.4482 0.8939 -192.2014 110.5685)" class="st80" width="3.4" height="3.4"/>
		
			<rect x="154.3" y="450.3" transform="matrix(0.8939 -0.4482 0.4482 0.8939 -186.0639 117.8933)" class="st80" width="3.4" height="3.4"/>
		
			<rect x="142" y="448.8" transform="matrix(0.8939 -0.4482 0.4482 0.8939 -186.6889 112.1915)" class="st80" width="3.4" height="3.4"/>
		
			<rect x="145.5" y="476.6" transform="matrix(0.8939 -0.4482 0.4482 0.8939 -197.678 121.3695)" class="st80" width="24.2" height="3.4"/>
		
			<rect x="148.1" y="476.6" transform="matrix(0.8939 -0.4482 0.4482 0.8939 -198.5051 117.8804)" class="st80" width="3.4" height="3.4"/>
		
			<rect x="160.5" y="470.4" transform="matrix(0.8939 -0.4482 0.4482 0.8939 -194.4064 122.7894)" class="st80" width="3.4" height="3.4"/>
		
			<rect x="163.4" y="468.1" transform="matrix(0.8939 -0.4482 0.4482 0.8939 -192.8788 124.6527)" class="st80" width="6.9" height="3.4"/>
		
			<rect x="141.8" y="478.9" transform="matrix(0.8939 -0.4482 0.4482 0.8939 -200.0336 116.086)" class="st80" width="6.9" height="3.4"/>
		
			<rect x="138.1" y="439.3" transform="matrix(0.8939 -0.4482 0.4482 0.8939 -183.6315 109.627)" class="st81" width="3.4" height="6.9"/>
		
			<rect x="143.5" y="444.2" transform="matrix(0.8939 -0.4482 0.4482 0.8939 -184.4418 112.3831)" class="st81" width="3.4" height="3.4"/>
		
			<rect x="149.6" y="448.8" transform="matrix(0.8939 -0.4482 0.4482 0.8939 -185.8601 115.6139)" class="st81" width="3.4" height="3.4"/>
		
			<rect x="153.5" y="454.8" transform="matrix(0.8939 -0.4482 0.4482 0.8939 -188.918 118.1795)" class="st81" width="3.4" height="6.9"/>
		
			<rect x="141.9" y="464.2" transform="matrix(0.8939 -0.4482 0.4482 0.8939 -193.6179 113.7993)" class="st81" width="3.4" height="3.4"/>
		
			<rect x="158.2" y="448.6" transform="matrix(0.8939 -0.4482 0.4482 0.8939 -185.6534 119.6108)" class="st81" width="3.4" height="6.9"/>
		
			<rect x="146.6" y="481.3" transform="matrix(0.8939 -0.4482 0.4482 0.8939 -200.7521 117.69)" class="st82" width="3.4" height="3.4"/>
		
			<rect x="154.1" y="480.5" transform="matrix(0.8939 -0.4482 0.4482 0.8939 -199.4167 121.7988)" class="st82" width="6.9" height="3.4"/>
		
			<rect x="159" y="475.1" transform="matrix(0.8939 -0.4482 0.4482 0.8939 -196.6538 122.5984)" class="st82" width="3.4" height="3.4"/>
		
			<rect x="160.5" y="470.4" transform="matrix(0.8939 -0.4482 0.4482 0.8939 -194.4064 122.7894)" class="st79" width="3.4" height="3.4"/>
		
			<rect x="137.3" y="455" transform="matrix(0.8939 -0.4482 0.4482 0.8939 -189.9545 110.7607)" class="st81" width="3.4" height="3.4"/>
	</g>
	<g>
		<polygon class="st79" points="190.7,105.6 190.2,108.9 193.6,109.4 193,112.8 209.5,115.5 210.1,112.2 213.4,112.8 214,109.4 
			217.3,109.9 221.2,86.7 217.8,86.2 219,79.5 215.7,79 216.2,75.7 212.9,75.1 213.4,71.8 210.1,71.3 210.7,67.9 207.4,67.3 
			206.8,70.7 203.5,70.1 202.9,73.4 199.6,72.9 199,76.2 195.7,75.7 194.6,82.3 191.3,81.7 187.4,105 		"/>
		
			<rect x="198.4" y="102.3" transform="matrix(0.1645 -0.9864 0.9864 0.1645 59.4491 291.5333)" class="st80" width="6.8" height="16.8"/>
		
			<rect x="186.9" y="97.4" transform="matrix(0.1645 -0.9864 0.9864 0.1645 64.0044 273.7539)" class="st80" width="13.4" height="3.4"/>
		
			<rect x="193.9" y="95.7" transform="matrix(0.1645 -0.9864 0.9864 0.1645 74.3916 282.6141)" class="st80" width="20.2" height="3.4"/>
		
			<rect x="206.7" y="100.7" transform="matrix(0.1645 -0.9864 0.9864 0.1645 77.3312 296.0935)" class="st80" width="13.4" height="3.4"/>
		
			<rect x="194.3" y="82.5" transform="matrix(0.1645 -0.9864 0.9864 0.1645 80.7512 263.6774)" class="st80" width="3.4" height="3.4"/>
		
			<rect x="214.2" y="85.8" transform="matrix(0.1645 -0.9864 0.9864 0.1645 94.1653 286.0556)" class="st80" width="3.4" height="3.4"/>
		
			<rect x="205.4" y="77.5" transform="matrix(0.1645 -0.9864 0.9864 0.1645 94.9401 270.3995)" class="st80" width="3.4" height="3.4"/>
		
			<rect x="200.4" y="97.2" transform="matrix(0.1645 -0.9864 0.9864 0.1645 61.3596 290.4317)" class="st80" width="3.4" height="23.6"/>
		
			<rect x="194.4" y="103" transform="matrix(0.1645 -0.9864 0.9864 0.1645 60.6165 280.854)" class="st80" width="3.4" height="3.4"/>
		
			<rect x="207.6" y="105.1" transform="matrix(0.1645 -0.9864 0.9864 0.1645 69.5356 295.6382)" class="st80" width="3.4" height="3.4"/>
		
			<rect x="212.6" y="104.3" transform="matrix(0.1645 -0.9864 0.9864 0.1645 72.8392 301.3521)" class="st80" width="3.4" height="6.8"/>
		
			<rect x="189.4" y="100.4" transform="matrix(0.1645 -0.9864 0.9864 0.1645 57.255 275.2022)" class="st80" width="3.4" height="6.8"/>
		
			<rect x="205.1" y="69.1" transform="matrix(0.1645 -0.9864 0.9864 0.1645 104.3304 264.8214)" class="st81" width="6.8" height="3.4"/>
		
			<rect x="209.3" y="74.7" transform="matrix(0.1645 -0.9864 0.9864 0.1645 100.9908 271.9344)" class="st81" width="3.4" height="3.4"/>
		
			<rect x="211.6" y="81.9" transform="matrix(0.1645 -0.9864 0.9864 0.1645 95.7078 280.1763)" class="st81" width="3.4" height="3.4"/>
		
			<rect x="208.5" y="90.2" transform="matrix(0.1645 -0.9864 0.9864 0.1645 86.3777 285.7211)" class="st81" width="6.8" height="3.4"/>
		
			<rect x="196.6" y="89.7" transform="matrix(0.1645 -0.9864 0.9864 0.1645 75.5386 271.8776)" class="st81" width="3.4" height="3.4"/>
		
			<rect x="215.7" y="88" transform="matrix(0.1645 -0.9864 0.9864 0.1645 94.5164 291.0011)" class="st81" width="6.8" height="3.4"/>
		
			<rect x="190.5" y="105.7" transform="matrix(0.1645 -0.9864 0.9864 0.1645 54.6365 279.277)" class="st82" width="3.4" height="3.4"/>
		
			<rect x="198.3" y="108.7" transform="matrix(0.1645 -0.9864 0.9864 0.1645 56.5002 290.8597)" class="st82" width="3.4" height="6.8"/>
		
			<rect x="203.8" y="107.9" transform="matrix(0.1645 -0.9864 0.9864 0.1645 63.5878 294.2094)" class="st82" width="3.4" height="3.4"/>
		
			<rect x="207.6" y="105.1" transform="matrix(0.1645 -0.9864 0.9864 0.1645 69.5356 295.6382)" class="st79" width="3.4" height="3.4"/>
		
			<rect x="198.2" y="79.7" transform="matrix(0.1645 -0.9864 0.9864 0.1645 86.7403 265.1873)" class="st81" width="3.4" height="3.4"/>
	</g>
	<g>
		<polygon class="st28" points="323.9,27.6 324.7,22.4 319.6,21.6 320.4,16.5 294.7,12.6 293.9,17.7 278.4,15.3 279.2,10.2 
			253.5,6.3 252.7,11.5 247.6,10.6 246.8,15.8 241.7,15 235.4,56.1 240.5,56.9 239.7,62.1 244.9,62.8 244.1,68 249.2,68.7 
			248.5,73.9 253.6,74.7 252.8,79.8 299.1,86.9 299.8,81.7 305,82.5 305.8,77.4 310.9,78.2 311.7,73 316.9,73.8 317.6,68.7 
			322.8,69.4 329.1,28.3 		"/>
		
			<rect x="273.5" y="11.6" transform="matrix(0.151 -0.9885 0.9885 0.151 229.2612 295.2965)" class="st29" width="26" height="5.2"/>
		
			<rect x="251.5" y="17" transform="matrix(0.151 -0.9885 0.9885 0.151 196.3372 267.9278)" class="st30" width="5.2" height="5.2"/>
		
			<rect x="260" y="10.5" transform="matrix(0.151 -0.9885 0.9885 0.151 207.4012 272.9103)" class="st30" width="5.2" height="10.4"/>
		
			<rect x="239.6" y="26.6" transform="matrix(0.151 -0.9885 0.9885 0.151 181.1902 269.3491)" class="st30" width="15.6" height="5.2"/>
		
			<rect x="248.1" y="19.2" transform="matrix(0.151 -0.9885 0.9885 0.151 188.7338 268.6388)" class="st30" width="5.2" height="10.4"/>
		
			<rect x="288.8" y="67.8" transform="matrix(0.151 -0.9885 0.9885 0.151 177.8263 347.794)" class="st31" width="5.2" height="5.2"/>
		
			<rect x="289.1" y="75.5" transform="matrix(0.151 -0.9885 0.9885 0.151 165.3533 359.1293)" class="st31" width="5.2" height="15.6"/>
		
			<rect x="298" y="74.6" transform="matrix(0.151 -0.9885 0.9885 0.151 181.1055 365.2039)" class="st31" width="10.4" height="5.2"/>
		
			<rect x="303.6" y="69.8" transform="matrix(0.151 -0.9885 0.9885 0.151 185.8614 366.3575)" class="st31" width="5.2" height="10.4"/>
		
			<rect x="309.9" y="65.9" transform="matrix(0.151 -0.9885 0.9885 0.151 199.8404 369.6287)" class="st31" width="10.4" height="5.2"/>
		
			<rect x="315.8" y="61.4" transform="matrix(0.151 -0.9885 0.9885 0.151 209.1916 371.6754)" class="st31" width="10.4" height="5.2"/>
		
			<rect x="266.2" y="24.5" transform="matrix(0.151 -0.9885 0.9885 0.151 201.385 288.7447)" class="st7" width="5.2" height="5.2"/>
		
			<rect x="253.2" y="38.3" transform="matrix(0.151 -0.9885 0.9885 0.151 176.7281 287.579)" class="st7" width="5.2" height="5.2"/>
		
			<rect x="284" y="24.9" transform="matrix(0.151 -0.9885 0.9885 0.151 213.7302 308.7801)" class="st31" width="5.2" height="10.1"/>
		
			<rect x="292.7" y="23.3" transform="matrix(0.151 -0.9885 0.9885 0.151 225.103 313.9178)" class="st7" width="5.2" height="5.2"/>
		
			<rect x="282.5" y="3.8" transform="matrix(0.151 -0.9885 0.9885 0.151 237.9507 289.8906)" class="st32" width="10.4" height="5.2"/>
		
			<rect x="308.3" y="20.4" transform="matrix(0.151 -0.9885 0.9885 0.151 241.2449 326.8342)" class="st30" width="5.2" height="5.2"/>
	</g>
	<g>
		<polygon class="st33" points="270,119.5 267,119.5 267,116.5 263.9,116.5 263.9,113.5 242.8,113.5 242.8,116.5 239.8,116.5 
			239.8,119.5 236.8,119.5 236.8,134.6 239.8,134.6 239.8,137.6 242.8,137.6 242.8,140.6 263.9,140.6 263.9,137.6 267,137.6 
			267,134.6 270,134.6 		"/>
		<rect x="245.6" y="119.5" class="st34" width="15.1" height="3"/>
		<rect x="248.6" y="116.5" class="st34" width="9" height="9"/>
		<rect x="239.8" y="125.5" class="st35" width="3" height="6"/>
		<rect x="242.8" y="131.5" class="st35" width="3" height="3"/>
		<rect x="260.9" y="137.6" class="st36" width="3" height="3"/>
		<rect x="263.9" y="134.6" class="st36" width="3" height="3"/>
		<rect x="267" y="131.5" class="st36" width="3" height="3"/>
		<rect x="263.9" y="119.5" class="st35" width="3" height="3"/>
	</g>
	<g>
		<polygon class="st94" points="292.4,123.7 286.3,139.7 289.5,141 288.2,144.2 291.5,145.4 290.3,148.6 293.5,149.9 292.3,153.1 
			308.3,159.2 309.5,155.9 312.8,157.1 314,154 317.2,155.2 318.4,152 321.6,153.2 327.7,137.1 324.5,135.9 325.7,132.7 
			322.5,131.5 323.7,128.3 320.5,127.1 320.5,127.1 304.4,120.9 304.4,120.9 301.2,119.7 300,122.9 296.8,121.7 295.6,125 		"/>
		
			<rect x="313.7" y="138.9" transform="matrix(0.3548 -0.9349 0.9349 0.3548 73.1293 387.241)" class="st95" width="6.9" height="3.4"/>
		
			<rect x="295.9" y="148.3" transform="matrix(0.3548 -0.9349 0.9349 0.3548 48.5805 377.2556)" class="st96" width="3.4" height="10.3"/>
		
			<rect x="290.7" y="146.1" transform="matrix(0.3548 -0.9349 0.9349 0.3548 50.488 368.7411)" class="st96" width="3.4" height="3.4"/>
		
			<rect x="288.7" y="141.6" transform="matrix(0.3548 -0.9349 0.9349 0.3548 53.3494 364.0354)" class="st96" width="3.4" height="3.4"/>
		
			<rect x="286.7" y="137.2" transform="matrix(0.3548 -0.9349 0.9349 0.3548 56.1943 359.2842)" class="st96" width="3.4" height="3.4"/>
		
			<rect x="316.9" y="128.6" transform="matrix(0.3548 -0.9349 0.9349 0.3548 82.1278 383.1299)" class="st95" width="3.4" height="6.9"/>
		
			<rect x="318.9" y="133" transform="matrix(0.3548 -0.9349 0.9349 0.3548 79.301 387.7605)" class="st95" width="3.4" height="6.9"/>
		
			<rect x="320.5" y="135.3" transform="matrix(0.3548 -0.9349 0.9349 0.3548 79.7899 389.6767)" class="st20" width="3.4" height="3.4"/>
		
			<rect x="318.5" y="130.9" transform="matrix(0.3548 -0.9349 0.9349 0.3548 82.6281 384.9156)" class="st20" width="3.4" height="3.4"/>
		
			<rect x="313.3" y="125.3" transform="matrix(0.3548 -0.9349 0.9349 0.3548 84.5456 376.4747)" class="st95" width="3.4" height="3.4"/>
		
			<rect x="293.1" y="139.6" transform="matrix(0.3548 -0.9349 0.9349 0.3548 58.0942 366.8275)" class="st96" width="3.4" height="3.4"/>
		
			<rect x="307.8" y="120.8" transform="matrix(0.3548 -0.9349 0.9349 0.3548 87.3848 371.6985)" class="st29" width="10.3" height="3.4"/>
		
			<rect x="305.7" y="126" transform="matrix(0.3548 -0.9349 0.9349 0.3548 78.9006 369.7932)" class="st29" width="3.4" height="3.4"/>
		
			<rect x="311.9" y="105.1" transform="matrix(0.3548 -0.9349 0.9349 0.3548 103.5117 363.734)" class="st32" width="6.9" height="3.4"/>
		
			<rect x="310.3" y="114.4" transform="matrix(0.3548 -0.9349 0.9349 0.3548 94.9639 369.8712)" class="st29" width="10.3" height="3.4"/>
		
			<rect x="312.3" y="99.1" transform="matrix(0.3548 -0.9349 0.9349 0.3548 108.309 358.5993)" class="st32" width="3.4" height="3.4"/>
		
			<rect x="310.2" y="94.7" transform="matrix(0.3548 -0.9349 0.9349 0.3548 111.1126 353.8471)" class="st32" width="3.4" height="3.4"/>
		
			<rect x="312.6" y="112.8" transform="matrix(0.3548 -0.9349 0.9349 0.3548 96.872 369.3819)" class="st32" width="6.9" height="3.4"/>
		
			<rect x="313" y="106.8" transform="matrix(0.3548 -0.9349 0.9349 0.3548 101.628 364.2206)" class="st29" width="3.4" height="3.4"/>
	</g>
	<g>
		<polygon class="st33" points="269,389.2 265.9,389.2 265.9,386.2 262.9,386.2 262.9,383.2 241.8,383.2 241.8,386.2 238.8,386.2 
			238.8,389.2 235.7,389.2 235.7,404.3 238.8,404.3 238.8,407.3 241.8,407.3 241.8,410.3 262.9,410.3 262.9,407.3 265.9,407.3 
			265.9,404.3 269,404.3 		"/>
		<rect x="244.5" y="389.2" class="st34" width="15.1" height="3"/>
		<rect x="247.5" y="386.2" class="st34" width="9" height="9"/>
		<rect x="238.8" y="395.3" class="st35" width="3" height="6"/>
		<rect x="241.8" y="401.3" class="st35" width="3" height="3"/>
		<rect x="259.9" y="407.3" class="st36" width="3" height="3"/>
		<rect x="262.9" y="404.3" class="st36" width="3" height="3"/>
		<rect x="265.9" y="401.3" class="st36" width="3" height="3"/>
		<rect x="262.9" y="389.2" class="st35" width="3" height="3"/>
	</g>
	<g>
		<polygon class="st41" points="342.7,473.7 337.1,473 337.8,467.5 332.2,466.8 332.9,461.2 327.4,460.5 328.1,455 322.5,454.3 
			323.2,448.8 289.8,444.7 289.1,450.3 283.5,449.6 282.9,455.1 277.3,454.5 276.6,460 271.1,459.4 270.4,464.9 264.8,464.2 
			262.8,480.9 268.4,481.6 267.7,487.2 334.4,495.3 335.1,489.7 340.7,490.4 		"/>
		<polygon class="st42" points="324.7,482.8 325.3,477.2 319.8,476.5 320.5,471 309.3,469.7 310,464.1 287.8,461.4 287.1,467 
			281.5,466.3 280.8,471.8 275.3,471.2 274.6,476.7 280.2,477.4 279.5,483 290.6,484.3 288.6,501 286.6,517.7 285.2,528.8 
			284.5,534.3 290.1,535 289.4,540.6 295,541.3 294.4,546.8 316.5,549.5 319.9,521.7 308.8,520.4 309.5,514.8 303.9,514.1 
			307.3,486.4 318.4,487.7 324,488.4 329.5,489 330.2,483.5 		"/>
		
			<rect x="280.8" y="466.9" transform="matrix(0.1206 -0.9927 0.9927 0.1206 -217.1859 699.8472)" class="st43" width="11.2" height="11.2"/>
		
			<rect x="305.5" y="447" transform="matrix(0.1206 -0.9927 0.9927 0.1206 -181.0324 706.5374)" class="st44" width="5.6" height="16.8"/>
		
			<rect x="314.5" y="445.3" transform="matrix(0.1206 -0.9927 0.9927 0.1206 -168.6108 711.4697)" class="st45" width="5.6" height="11.2"/>
		
			<rect x="272.6" y="515.2" transform="matrix(0.1206 -0.9927 0.9927 0.1206 -259.7852 742.8098)" class="st46" width="33.6" height="5.6"/>
		
			<rect x="290.1" y="486" transform="matrix(0.1206 -0.9927 0.9927 0.1206 -217.7209 731.7553)" class="st47" width="28" height="5.6"/>
		
			<rect x="322.1" y="454.6" transform="matrix(0.1206 -0.9927 0.9927 0.1206 -168.3909 724.8033)" class="st45" width="5.6" height="5.6"/>
		
			<rect x="327" y="460.9" transform="matrix(0.1206 -0.9927 0.9927 0.1206 -170.3253 735.1404)" class="st45" width="5.6" height="5.6"/>
		
			<rect x="277.7" y="469" transform="matrix(0.1206 -0.9927 0.9927 0.1206 -224.4569 695.8405)" class="st43" width="5.6" height="11.2"/>
		
			<rect x="287.4" y="461.7" transform="matrix(0.1206 -0.9927 0.9927 0.1206 -205.9191 696.538)" class="st43" width="5.6" height="5.6"/>
		
			<rect x="282.6" y="475.2" transform="matrix(0.1206 -0.9927 0.9927 0.1206 -226.3147 706.1926)" class="st43" width="5.6" height="11.2"/>
		
			<rect x="316" y="473.7" transform="matrix(0.1206 -0.9927 0.9927 0.1206 -201.0743 742.8856)" class="st43" width="5.6" height="22.4"/>
		
			<rect x="313.9" y="470.6" transform="matrix(0.1206 -0.9927 0.9927 0.1206 -197.0717 735.629)" class="st43" width="5.6" height="16.8"/>
		
			<rect x="311.8" y="467.5" transform="matrix(0.1206 -0.9927 0.9927 0.1206 -193.0807 728.3571)" class="st43" width="5.6" height="11.2"/>
		
			<rect x="293.2" y="446" transform="matrix(0.1206 -0.9927 0.9927 0.1206 -196.5829 703.6176)" class="st41" width="11.2" height="33.6"/>
		
			<rect x="292.3" y="462.4" transform="matrix(0.1206 -0.9927 0.9927 0.1206 -207.8132 706.9614)" class="st42" width="5.6" height="16.8"/>
		
			<rect x="290.1" y="530.1" transform="matrix(0.1206 -0.9927 0.9927 0.1206 -271.7823 764.6543)" class="st46" width="11.2" height="11.2"/>
		
			<rect x="313.1" y="456.4" transform="matrix(0.1206 -0.9927 0.9927 0.1206 -180.8549 719.9205)" class="st44" width="5.6" height="11.2"/>
		
			<rect x="303" y="534.2" transform="matrix(0.1206 -0.9927 0.9927 0.1206 -272.5644 783.1757)" class="st46" width="5.6" height="22.4"/>
		
			<rect x="303.6" y="514.4" transform="matrix(0.1206 -0.9927 0.9927 0.1206 -243.9949 759.0107)" class="st47" width="5.6" height="5.6"/>
	</g>
	<g>
		<polygon class="st83" points="153.6,198.9 153.6,198.9 149,198.9 149,194.3 149,194.3 144.5,194.3 144.5,189.7 139.9,189.7 
			139.9,185.2 135.3,185.2 135.3,180.6 130.6,180.6 103.2,180.6 98.6,180.6 98.6,185.2 94,185.2 94,189.7 89.4,189.7 89.4,194.3 
			84.8,194.3 84.8,198.9 80.2,198.9 80.2,235.6 84.8,235.6 84.8,240.2 89.4,240.2 89.4,244.7 94,244.7 94,249.3 98.6,249.3 
			98.6,253.9 103.2,253.9 130.6,253.9 135.3,253.9 135.3,249.3 139.9,249.3 139.9,244.7 144.5,244.7 144.5,240.2 149,240.2 
			149,235.6 153.6,235.6 		"/>
		<polygon class="st84" points="149.5,203.5 144.5,203.5 144.5,198.9 139.9,198.9 139.9,194.3 135.3,194.3 135.3,189.7 130.6,189.7 
			130.6,185.2 103.2,185.2 103.2,189.7 98.6,189.7 98.6,194.3 94,194.3 94,198.9 89.4,198.9 89.4,203.5 84.8,203.5 84.8,231 
			89.4,231 89.4,235.6 94,235.6 94,240.2 98.6,240.2 98.6,244.7 103.2,244.7 103.2,249.3 130.6,249.3 130.6,244.7 135.3,244.7 
			135.3,240.2 139.9,240.2 139.9,235.6 144.5,235.6 144.5,231 149.5,231 		"/>
		<polygon class="st85" points="139.9,203.5 135.3,203.5 135.3,198.9 130.6,198.9 130.6,194.3 103.2,194.3 103.2,198.9 98.6,198.9 
			98.6,203.5 94,203.5 94,231 98.6,231 98.6,235.6 103.2,235.6 103.2,240.2 130.6,240.2 130.6,235.6 135.3,235.6 135.3,231 
			139.9,231 		"/>
		<polygon class="st86" points="121.5,226.5 121.5,221.8 126.1,221.8 126.1,212.6 121.5,212.6 121.5,208 112.3,208 112.3,212.6 
			107.8,212.6 107.8,221.8 112.3,221.8 112.3,226.5 		"/>
		<rect x="103.2" y="203.5" class="st87" width="4.6" height="4.6"/>
		<rect x="103.2" y="226.5" class="st87" width="4.6" height="4.6"/>
		<rect x="126.1" y="203.5" class="st87" width="4.6" height="4.6"/>
		<rect x="126.1" y="226.5" class="st87" width="4.6" height="4.6"/>
		<rect x="130.6" y="212.6" class="st87" width="4.6" height="4.6"/>
		<rect x="98.6" y="217.2" class="st87" width="4.6" height="4.6"/>
		<rect x="116.9" y="198.9" class="st87" width="4.6" height="4.6"/>
		<rect x="112.3" y="231" class="st87" width="4.6" height="4.6"/>
		<rect x="107.8" y="189.7" class="st85" width="9.2" height="9.2"/>
		<rect x="135.3" y="212.6" class="st85" width="9.2" height="13.8"/>
		<rect x="107.8" y="235.6" class="st85" width="18.4" height="9.2"/>
		<rect x="89.4" y="208" class="st85" width="9.2" height="18.4"/>
	</g>
	<g>
		<polygon class="st88" points="53,180.7 53,177.3 49.7,177.3 49.7,173.9 46.2,173.9 46.2,170.5 29.2,170.5 29.2,173.9 25.8,173.9 
			25.8,177.3 22.4,177.3 22.4,180.7 19,180.7 19,197.7 22.4,197.7 22.4,201.1 25.8,201.1 25.8,204.6 29.2,204.6 29.2,207.9 
			46.2,207.9 46.2,204.6 49.7,204.6 49.7,201.1 53,201.1 53,197.7 56.5,197.7 56.5,180.7 		"/>
		<polygon class="st89" points="42.8,184.1 42.8,180.7 32.6,180.7 32.6,184.1 29.2,184.1 29.2,194.4 32.6,194.4 32.6,197.7 
			42.8,197.7 42.8,194.4 46.2,194.4 46.2,184.1 		"/>
		<rect x="25.8" y="177.3" class="st90" width="3.4" height="3.4"/>
		<polygon class="st59" points="42.8,187.6 39.5,187.6 39.5,184.1 36,184.1 36,187.6 32.6,187.6 32.6,190.9 36,190.9 36,194.4 
			39.5,194.4 39.5,190.9 42.8,190.9 		"/>
		<rect x="22.4" y="180.7" class="st90" width="3.4" height="10.2"/>
		<rect x="46.2" y="197.7" class="st90" width="3.4" height="3.4"/>
		<rect x="49.7" y="190.9" class="st90" width="3.4" height="6.8"/>
	</g>
	<g>
		<polygon class="st79" points="112.1,329.3 111.6,332.6 114.9,333.1 114.4,336.5 130.9,339.2 131.5,335.9 134.8,336.5 135.4,333.1 
			138.7,333.7 142.6,310.4 139.2,309.9 140.4,303.3 137.1,302.7 137.6,299.4 134.3,298.8 134.8,295.5 131.5,295 132.1,291.6 
			128.8,291.1 128.2,294.4 124.9,293.9 124.3,297.2 121,296.6 120.4,300 117.1,299.4 116,306 112.7,305.5 108.8,328.7 		"/>
		
			<rect x="119.8" y="326" transform="matrix(0.1645 -0.9864 0.9864 0.1645 -226.9327 400.9472)" class="st80" width="6.8" height="16.8"/>
		
			<rect x="108.3" y="321.2" transform="matrix(0.1645 -0.9864 0.9864 0.1645 -222.3773 383.1678)" class="st80" width="13.4" height="3.4"/>
		
			<rect x="115.3" y="319.5" transform="matrix(0.1645 -0.9864 0.9864 0.1645 -211.9902 392.028)" class="st80" width="20.2" height="3.4"/>
		
			<rect x="128.1" y="324.5" transform="matrix(0.1645 -0.9864 0.9864 0.1645 -209.0506 405.5074)" class="st80" width="13.4" height="3.4"/>
		
			<rect x="115.7" y="306.2" transform="matrix(0.1645 -0.9864 0.9864 0.1645 -205.6306 373.0913)" class="st80" width="3.4" height="3.4"/>
		
			<rect x="135.6" y="309.5" transform="matrix(0.1645 -0.9864 0.9864 0.1645 -192.2165 395.4695)" class="st80" width="3.4" height="3.4"/>
		
			<rect x="126.8" y="301.2" transform="matrix(0.1645 -0.9864 0.9864 0.1645 -191.4417 379.8134)" class="st80" width="3.4" height="3.4"/>
		
			<rect x="121.8" y="321" transform="matrix(0.1645 -0.9864 0.9864 0.1645 -225.0222 399.8456)" class="st80" width="3.4" height="23.6"/>
		
			<rect x="115.8" y="326.7" transform="matrix(0.1645 -0.9864 0.9864 0.1645 -225.7653 390.2679)" class="st80" width="3.4" height="3.4"/>
		
			<rect x="129" y="328.8" transform="matrix(0.1645 -0.9864 0.9864 0.1645 -216.8462 405.0521)" class="st80" width="3.4" height="3.4"/>
		
			<rect x="134" y="328.1" transform="matrix(0.1645 -0.9864 0.9864 0.1645 -213.5426 410.7659)" class="st80" width="3.4" height="6.8"/>
		
			<rect x="110.8" y="324.2" transform="matrix(0.1645 -0.9864 0.9864 0.1645 -229.1267 384.6161)" class="st80" width="3.4" height="6.8"/>
		
			<rect x="126.5" y="292.9" transform="matrix(0.1645 -0.9864 0.9864 0.1645 -182.0514 374.2353)" class="st81" width="6.8" height="3.4"/>
		
			<rect x="130.7" y="298.4" transform="matrix(0.1645 -0.9864 0.9864 0.1645 -185.391 381.3482)" class="st81" width="3.4" height="3.4"/>
		
			<rect x="132.9" y="305.7" transform="matrix(0.1645 -0.9864 0.9864 0.1645 -190.674 389.5902)" class="st81" width="3.4" height="3.4"/>
		
			<rect x="129.9" y="313.9" transform="matrix(0.1645 -0.9864 0.9864 0.1645 -200.0041 395.135)" class="st81" width="6.8" height="3.4"/>
		
			<rect x="118" y="313.4" transform="matrix(0.1645 -0.9864 0.9864 0.1645 -210.8432 381.2915)" class="st81" width="3.4" height="3.4"/>
		
			<rect x="137.1" y="311.8" transform="matrix(0.1645 -0.9864 0.9864 0.1645 -191.8654 400.415)" class="st81" width="6.8" height="3.4"/>
		
			<rect x="111.9" y="329.5" transform="matrix(0.1645 -0.9864 0.9864 0.1645 -231.7453 388.6909)" class="st82" width="3.4" height="3.4"/>
		
			<rect x="119.6" y="332.5" transform="matrix(0.1645 -0.9864 0.9864 0.1645 -229.8816 400.2736)" class="st82" width="3.4" height="6.8"/>
		
			<rect x="125.2" y="331.6" transform="matrix(0.1645 -0.9864 0.9864 0.1645 -222.794 403.6232)" class="st82" width="3.4" height="3.4"/>
		
			<rect x="129" y="328.8" transform="matrix(0.1645 -0.9864 0.9864 0.1645 -216.8462 405.0521)" class="st79" width="3.4" height="3.4"/>
		
			<rect x="119.6" y="303.5" transform="matrix(0.1645 -0.9864 0.9864 0.1645 -199.6415 374.6012)" class="st81" width="3.4" height="3.4"/>
	</g>
	<g>
		<polygon class="st101" points="258.5,524.6 256.1,519.8 253.8,520.9 252.5,518.6 250.2,519.7 249,517.3 246.6,518.4 244.2,519.6 
			241.8,520.8 243,523.2 240.6,524.4 241.7,526.7 239.4,527.9 241.6,532.7 239.2,533.8 248.5,553.1 251,551.9 252.1,554.3 
			254.5,553.2 255.7,555.6 258.2,554.4 259.4,556.8 266.6,553.3 265.4,550.9 267.7,549.7 266.5,547.4 268.9,546.2 267.8,543.8 
			270.1,542.6 260.9,523.4 		"/>
		
			<rect x="243.4" y="529" transform="matrix(0.9001 -0.4357 0.4357 0.9001 -208.9373 160.1368)" class="st102" width="2.7" height="13.3"/>
		
			<rect x="264.8" y="539.1" transform="matrix(0.9001 -0.4357 0.4357 0.9001 -210.063 170.2208)" class="st103" width="2.7" height="8"/>
		
			<rect x="262.2" y="548.3" transform="matrix(0.9001 -0.4357 0.4357 0.9001 -213.0185 170.3121)" class="st103" width="5.4" height="2.7"/>
		
			<rect x="266" y="535.6" transform="matrix(0.9001 -0.4357 0.4357 0.9001 -208.388 170.3881)" class="st103" width="2.7" height="8"/>
		
			<rect x="262.9" y="548.8" transform="matrix(0.9001 -0.4357 0.4357 0.9001 -213.8618 170.2118)" class="st103" width="2.7" height="5.4"/>
		
			<rect x="242.9" y="525.8" transform="matrix(0.9001 -0.4357 0.4357 0.9001 -205.8649 159.1982)" class="st104" width="2.7" height="5.4"/>
		
			<rect x="242.2" y="531.9" transform="matrix(0.9001 -0.4357 0.4357 0.9001 -208.0102 159.4006)" class="st104" width="2.7" height="2.7"/>
		
			<rect x="260.1" y="529.5" transform="matrix(0.9001 -0.4357 0.4357 0.9001 -206.334 167.2321)" class="st103" width="2.7" height="8"/>
		
			<rect x="263.5" y="545.3" transform="matrix(0.9001 -0.4357 0.4357 0.9001 -211.7155 170.0104)" class="st103" width="2.7" height="2.7"/>
		
			<rect x="265.9" y="544.2" transform="matrix(0.9001 -0.4357 0.4357 0.9001 -210.9736 170.9529)" class="st105" width="2.7" height="2.7"/>
		
			<rect x="264.7" y="547.7" transform="matrix(0.9001 -0.4357 0.4357 0.9001 -212.648 170.7829)" class="st105" width="2.7" height="2.7"/>
		
			<rect x="263.5" y="551.3" transform="matrix(0.9001 -0.4357 0.4357 0.9001 -214.3315 170.5816)" class="st105" width="2.7" height="2.7"/>
	</g>
</g>
</svg>
