<?xml version="1.0" encoding="utf-8"?>
<!-- Generator: Adobe Illustrator 25.2.3, SVG Export Plug-In . SVG Version: 6.00 Build 0)  -->
<svg version="1.1" xmlns="http://www.w3.org/2000/svg" xmlns:xlink="http://www.w3.org/1999/xlink" x="0px" y="0px"
	 viewBox="0 0 350 565" style="enable-background:new 0 0 350 565;" xml:space="preserve">
<style type="text/css">
	.st0{fill:#FFFFFF;}
	.st1{fill:#21851D;}
	.st2{fill:#135110;}
	.st3{fill:#8A370F;}
	.st4{fill:#FFDE01;}
	.st5{fill:#FCB912;}
	.st6{fill:#FCF54D;}
	.st7{fill:#A7B941;}
	.st8{fill:#E0E48D;}
	.st9{fill:#DA895E;}
	.st10{fill:#63240B;}
	.st11{fill:#DC0000;}
	.st12{fill:#AE0002;}
	.st13{fill:#FF7A69;}
	.st14{fill:#426024;}
	.st15{fill:#649238;}
	.st16{fill:#EB1C24;}
	.st17{fill:#37A01A;}
	.st18{fill:#F4CB00;}
	.st19{fill:#C30C08;}
	.st20{fill:#FA5810;}
	.st21{fill:#432355;}
	.st22{fill:#F8C09D;}
	.st23{fill:#B31D4A;}
	.st24{fill:#DC1C4B;}
	.st25{fill:#FFE627;}
	.st26{fill:#FFAD27;}
	.st27{fill:#FFF576;}
	.st28{fill:#BCD531;}
	.st29{fill:#7F2600;}
	.st30{fill:#E0E11B;}
	.st31{fill:#98C93C;}
	.st32{fill:#A13906;}
	.st33{fill:#0B5389;}
	.st34{fill:#0C3352;}
	.st35{fill:#3279A5;}
	.st36{fill:#0F4B70;}
	.st37{fill:#DBCEAC;}
	.st38{fill:#FFF6DA;}
	.st39{fill:#FFF4D8;}
	.st40{fill:#BFAF8B;}
	.st41{fill:#6B2114;}
	.st42{fill:#F2CF95;}
	.st43{fill:#C88C43;}
	.st44{fill:#7B3720;}
	.st45{fill:#9C5738;}
	.st46{fill:#DDB67D;}
	.st47{fill:#FFE2AE;}
	.st48{fill:#133415;}
	.st49{fill:#608D62;}
	.st50{fill:#305937;}
	.st51{fill:#2E9649;}
	.st52{fill:#FF854E;}
	.st53{fill:#3BA746;}
	.st54{fill:#308A43;}
	.st55{fill:#F76140;}
	.st56{fill:#FCBB5E;}
	.st57{fill:#4E1349;}
	.st58{fill:#8A428E;}
	.st59{fill:#2A0E27;}
	.st60{fill:#2B853F;}
	.st61{fill:#83AA37;}
	.st62{fill:#96CB3B;}
	.st63{fill:#B1E656;}
	.st64{fill:#5C9514;}
	.st65{fill:#4F7319;}
	.st66{fill:#645C5A;}
	.st67{fill:#7F6D57;}
	.st68{fill:#4B423B;}
	.st69{fill:#E9E1D4;}
	.st70{fill:#9A0A14;}
	.st71{fill:#FCFAE1;}
	.st72{fill:#F8151E;}
	.st73{fill:#DA191E;}
	.st74{fill:#F9572B;}
	.st75{fill:#F79B20;}
	.st76{fill:#F36527;}
	.st77{fill:#FBD371;}
	.st78{fill:#EFEF97;}
	.st79{fill:#D87E3D;}
	.st80{fill:#B55E2C;}
	.st81{fill:#ED9857;}
	.st82{fill:#803415;}
	.st83{fill:#8B561D;}
	.st84{fill:#95B90B;}
	.st85{fill:#B5CE4D;}
	.st86{fill:#FFFEFF;}
	.st87{fill:#000900;}
	.st88{fill:#61176E;}
	.st89{fill:#4A1056;}
	.st90{fill:#A126B8;}
	.st91{fill:#EA0F13;}
	.st92{fill:#BC0406;}
	.st93{fill:#F9B6BD;}
	.st94{fill:#D1282B;}
	.st95{fill:#EC2125;}
	.st96{fill:#881719;}
	.st97{fill:#ADC45C;}
	.st98{fill:#717D33;}
	.st99{fill:#C0D667;}
	.st100{fill:#78C433;}
	.st101{fill:#D22127;}
	.st102{fill:#E4696C;}
	.st103{fill:#BC2325;}
	.st104{fill:#FB8794;}
	.st105{fill:#A3242B;}
</style>
<g id="Layer_1">
</g>
<g id="Layer_2">
</g>
<g id="Layer_3">
	<g>
		<g>
			<polygon class="st7" points="230.5,64.9 230.5,58.3 230.5,51.8 223.9,51.8 223.9,38.7 217.4,38.7 217.4,19.1 210.8,19.1 
				210.8,12.6 204.3,12.6 204.3,6 178.1,6 178.1,12.6 171.6,12.6 171.6,19.1 165.1,19.1 165.1,38.7 158.5,38.7 158.5,51.8 
				151.9,51.8 151.9,58.3 151.9,64.9 145.4,64.9 145.4,104.2 151.9,104.2 151.9,110.7 158.5,110.7 158.5,117.2 165.1,117.2 
				165.1,123.8 184.6,123.8 197.8,123.8 217.4,123.8 217.4,117.2 223.9,117.2 223.9,110.7 230.5,110.7 230.5,104.2 237,104.2 
				237,64.9 			"/>
			<polygon class="st8" points="223.9,71.5 223.9,58.3 217.4,58.3 217.4,45.3 210.8,45.3 210.8,25.6 204.3,25.6 204.3,19.1 
				197.8,19.1 197.8,12.6 184.6,12.6 184.6,19.1 178.1,19.1 178.1,25.6 171.6,25.6 171.6,45.3 165.1,45.3 165.1,58.3 158.5,58.3 
				158.5,71.5 151.9,71.5 151.9,97.6 158.5,97.6 158.5,104.2 165.1,104.2 165.1,110.7 171.6,110.7 171.6,117.2 178.1,117.2 
				184.6,117.2 197.8,117.2 204.3,117.2 210.8,117.2 210.8,110.7 217.4,110.7 217.4,104.2 223.9,104.2 223.9,97.6 230.5,97.6 
				230.5,71.5 			"/>
			<polygon class="st3" points="210.8,78 204.3,78 204.3,71.5 197.8,71.5 197.8,64.9 184.6,64.9 184.6,71.5 178.1,71.5 178.1,78 
				171.6,78 171.6,91.1 178.1,91.1 178.1,97.6 184.6,97.6 184.6,104.2 197.8,104.2 197.8,97.6 204.3,97.6 204.3,91.1 210.8,91.1 			
				"/>
			<rect x="191.2" y="71.5" class="st9" width="6.5" height="6.5"/>
		</g>
		<rect x="178.1" y="84.5" class="st10" width="6.5" height="6.5"/>
		<rect x="184.6" y="91.1" class="st10" width="6.5" height="6.5"/>
	</g>
	<g>
		<polygon class="st21" points="290.2,149.8 288.7,141.8 284.7,142.5 283.9,138.5 279.9,139.3 279.2,135.2 275.1,135.9 274.3,131.9 
			270.3,132.7 269.6,128.7 265.6,129.4 264.9,125.4 260.8,126.1 258.5,114 250.5,115.5 252.7,127.6 248.7,128.4 249.4,132.4 
			245.4,133.1 246.2,137.1 242.2,137.9 242.9,141.9 238.9,142.7 239.6,146.7 235.6,147.5 236.3,151.5 232.3,152.3 233.8,160.3 
			229.7,161 234.2,185.3 238.2,184.5 239,188.5 243,187.8 243.8,191.8 292.1,182.8 291.4,178.8 295.4,178.1 294.7,174 298.7,173.3 
			294.2,149.1 		"/>
		<polygon class="st22" points="291,153.8 286.9,154.6 285.4,146.6 281.4,147.3 280.7,143.3 276.6,144 275.9,140 271.9,140.8 
			271.1,136.7 267.1,137.5 266.3,133.4 262.3,134.2 261.5,130.1 253.5,131.6 254.2,135.7 250.2,136.4 251,140.5 246.9,141.2 
			247.6,145.2 243.6,145.9 244.4,150 240.3,150.7 241.1,154.7 237.1,155.5 238.5,163.6 234.5,164.3 237.5,180.5 241.5,179.7 
			242.3,183.7 246.3,183 247.1,187 263.2,184.1 271.2,182.5 287.4,179.5 286.6,175.5 290.7,174.8 289.9,170.7 294,170 		"/>
		<polygon class="st23" points="286.9,154.6 282.9,155.4 282.2,151.4 278.1,152.1 277.3,148 273.3,148.8 272.6,144.7 268.6,145.5 
			267.8,141.5 263.8,142.2 263,138.2 255,139.7 255.7,143.7 251.7,144.5 252.4,148.5 248.4,149.3 249.2,153.3 245.1,154 
			245.9,158.1 241.8,158.8 242.6,162.8 238.5,163.6 240.8,175.6 244.8,174.9 245.5,179 249.6,178.2 250.3,182.3 282.6,176.3 
			281.9,172.3 285.9,171.5 285.1,167.5 289.2,166.7 		"/>
		
			<rect x="279.6" y="155.7" transform="matrix(0.9833 -0.182 0.182 0.9833 -24.3812 53.9229)" class="st24" width="4.1" height="8.2"/>
		
			<rect x="264.9" y="166.7" transform="matrix(0.9833 -0.182 0.182 0.9833 -26.6326 51.4391)" class="st24" width="4.1" height="8.2"/>
		
			<rect x="250.4" y="156.8" transform="matrix(0.9833 -0.182 0.182 0.9833 -25.0657 48.6286)" class="st24" width="4.1" height="8.2"/>
		
			<rect x="242.9" y="162.4" transform="matrix(0.9833 -0.182 0.182 0.9833 -25.8456 47.3317)" class="st24" width="4.1" height="4.1"/>
		
			<rect x="252.4" y="148" transform="matrix(0.9833 -0.182 0.182 0.9833 -23.0665 48.8078)" class="st24" width="4.1" height="4.1"/>
		
			<rect x="257.3" y="172.5" transform="matrix(0.9833 -0.182 0.182 0.9833 -27.426 50.1203)" class="st24" width="4.1" height="4.1"/>
		<rect x="267.2" y="158" transform="matrix(0.9833 -0.182 0.182 0.9833 -24.628 51.6764)" class="st24" width="4.1" height="4.1"/>
		
			<rect x="269.6" y="149.1" transform="matrix(0.9833 -0.182 0.182 0.9833 -22.9753 51.969)" class="st24" width="4.1" height="4.1"/>
		
			<rect x="260.5" y="142.5" transform="matrix(0.9833 -0.182 0.182 0.9833 -22.2993 50.2227)" class="st24" width="4.1" height="8.2"/>
		
			<rect x="259.1" y="159.5" transform="matrix(0.9833 -0.182 0.182 0.9833 -25.0312 50.2161)" class="st24" width="4.1" height="4.1"/>
		
			<rect x="248.5" y="169.7" transform="matrix(0.9833 -0.182 0.182 0.9833 -27.075 48.4622)" class="st24" width="4.1" height="4.1"/>
		
			<rect x="277.8" y="168.5" transform="matrix(0.9833 -0.182 0.182 0.9833 -26.7422 53.8121)" class="st24" width="4.1" height="8.2"/>
		
			<rect x="240.4" y="171.2" transform="matrix(0.9833 -0.182 0.182 0.9833 -27.4887 47.0145)" class="st24" width="4.1" height="4.1"/>
	</g>
	<g>
		<polygon class="st25" points="334,238.7 328.6,240.8 326.5,235.3 321,237.4 319,232 313.5,234.1 311.4,228.7 306,230.8 
			303.9,225.3 298.4,227.4 296.3,222 252.8,238.8 254.9,244.3 249.4,246.4 251.6,251.8 246.1,253.9 248.2,259.4 242.8,261.4 
			244.9,266.9 239.5,269 241.6,274.4 236.1,276.5 242.4,292.8 247.8,290.7 250,296.1 255.4,294.1 257.5,299.5 263,297.4 
			265.1,302.8 270.5,300.7 272.6,306.2 278.1,304.1 280.2,309.5 323.7,292.7 321.6,287.2 327,285.1 324.9,279.7 330.3,277.6 
			328.2,272.1 333.7,270.1 331.5,264.6 337,262.5 334.9,257.1 340.3,255 		"/>
		
			<rect x="262.7" y="290.5" transform="matrix(0.9326 -0.3608 0.3608 0.9326 -89.0441 115.7872)" class="st26" width="5.8" height="11.7"/>
		
			<rect x="283.7" y="297.5" transform="matrix(0.9326 -0.3608 0.3608 0.9326 -88.5048 126.8122)" class="st26" width="23.3" height="5.8"/>
		
			<rect x="270.3" y="293.8" transform="matrix(0.9326 -0.3608 0.3608 0.9326 -89.7271 118.7476)" class="st26" width="5.8" height="11.7"/>
		
			<rect x="256.2" y="292.8" transform="matrix(0.9326 -0.3608 0.3608 0.9326 -89.2449 113.4234)" class="st26" width="5.8" height="5.8"/>
		
			<rect x="276.8" y="297.4" transform="matrix(0.9326 -0.3608 0.3608 0.9326 -89.5193 121.1364)" class="st26" width="5.8" height="5.8"/>
		
			<rect x="288.1" y="229.4" transform="matrix(0.9326 -0.3608 0.3608 0.9326 -64.0003 121.7012)" class="st27" width="11.7" height="5.8"/>
		
			<rect x="300.3" y="226" transform="matrix(0.9326 -0.3608 0.3608 0.9326 -63.2157 125.0054)" class="st27" width="5.8" height="11.7"/>
		
			<rect x="292.7" y="222.7" transform="matrix(0.9326 -0.3608 0.3608 0.9326 -62.5326 122.0459)" class="st27" width="5.8" height="11.7"/>
		
			<rect x="310.8" y="239.4" transform="matrix(0.9326 -0.3608 0.3608 0.9326 -66.0809 130.5632)" class="st27" width="11.7" height="5.8"/>
		
			<rect x="240.1" y="280.5" transform="matrix(0.9326 -0.3608 0.3608 0.9326 -86.9518 106.9751)" class="st26" width="5.8" height="11.7"/>
		
			<rect x="314.3" y="232.9" transform="matrix(0.9326 -0.3608 0.3608 0.9326 -63.6972 130.3307)" class="st27" width="5.8" height="5.8"/>
		
			<rect x="333.6" y="250.4" transform="matrix(0.9326 -0.3608 0.3608 0.9326 -68.719 138.4785)" class="st26" width="5.8" height="5.8"/>
		
			<rect x="239" y="280.7" transform="matrix(0.9326 -0.3608 0.3608 0.9326 -86.036 106.3983)" class="st18" width="5.8" height="5.8"/>
		
			<rect x="311" y="272.1" transform="matrix(0.9326 -0.3608 0.3608 0.9326 -78.0811 131.8013)" class="st18" width="5.8" height="5.8"/>
		
			<rect x="317.5" y="256.4" transform="matrix(0.9326 -0.3608 0.3608 0.9326 -71.991 133.0687)" class="st18" width="5.8" height="5.8"/>
		
			<rect x="292.5" y="241.3" transform="matrix(0.9326 -0.3608 0.3608 0.9326 -68.2017 123.032)" class="st18" width="5.8" height="5.8"/>
	</g>
	<g>
		<polygon class="st33" points="176.2,258.1 173.2,258.1 173.2,255.1 170.1,255.1 170.1,252.1 149,252.1 149,255.1 146,255.1 
			146,258.1 143.1,258.1 143.1,273.2 146,273.2 146,276.2 149,276.2 149,279.2 170.1,279.2 170.1,276.2 173.2,276.2 173.2,273.2 
			176.2,273.2 		"/>
		<rect x="151.7" y="258.1" class="st34" width="15.1" height="3"/>
		<rect x="154.8" y="255.1" class="st34" width="9" height="9"/>
		<rect x="146" y="264.2" class="st35" width="3" height="6"/>
		<rect x="149" y="270.2" class="st35" width="3" height="3"/>
		<rect x="167.1" y="276.2" class="st36" width="3" height="3"/>
		<rect x="170.1" y="273.2" class="st36" width="3" height="3"/>
		<rect x="173.2" y="270.2" class="st36" width="3" height="3"/>
		<rect x="170.1" y="258.1" class="st35" width="3" height="3"/>
	</g>
	<g>
		<polygon class="st41" points="162.5,161.9 157,161.2 157.7,155.7 152.1,155 152.8,149.4 147.2,148.7 147.9,143.2 142.3,142.5 
			143,136.9 109.7,132.9 109,138.4 103.4,137.7 102.7,143.3 97.2,142.7 96.5,148.2 91,147.6 90.2,153.1 84.7,152.4 82.7,169.1 
			88.2,169.8 87.6,175.3 154.3,183.4 155,177.9 160.5,178.5 		"/>
		<polygon class="st42" points="144.5,171 145.2,165.4 139.6,164.7 140.3,159.2 129.2,157.8 129.9,152.3 107.6,149.5 106.9,155.1 
			101.4,154.4 100.7,160 95.2,159.4 94.5,164.9 100.1,165.6 99.4,171.1 110.5,172.5 108.5,189.2 106.4,205.8 105.1,217 104.4,222.5 
			110,223.2 109.3,228.8 114.8,229.5 114.2,235 136.4,237.7 139.8,209.9 128.7,208.6 129.3,203 123.8,202.3 127.1,174.5 
			138.3,175.9 143.8,176.6 149.4,177.2 150.1,171.7 		"/>
		
			<rect x="100.7" y="155.1" transform="matrix(0.1206 -0.9927 0.9927 0.1206 -66.0393 246.7888)" class="st43" width="11.2" height="11.2"/>
		
			<rect x="125.3" y="135.2" transform="matrix(0.1206 -0.9927 0.9927 0.1206 -29.8858 253.479)" class="st44" width="5.6" height="16.8"/>
		
			<rect x="134.3" y="133.5" transform="matrix(0.1206 -0.9927 0.9927 0.1206 -17.4642 258.4113)" class="st45" width="5.6" height="11.2"/>
		
			<rect x="92.4" y="203.4" transform="matrix(0.1206 -0.9927 0.9927 0.1206 -108.6386 289.7514)" class="st46" width="33.6" height="5.6"/>
		
			<rect x="110" y="174.1" transform="matrix(0.1206 -0.9927 0.9927 0.1206 -66.5743 278.6968)" class="st47" width="28" height="5.6"/>
		
			<rect x="142" y="142.8" transform="matrix(0.1206 -0.9927 0.9927 0.1206 -17.2443 271.7449)" class="st45" width="5.6" height="5.6"/>
		
			<rect x="146.8" y="149.1" transform="matrix(0.1206 -0.9927 0.9927 0.1206 -19.1788 282.0819)" class="st45" width="5.6" height="5.6"/>
		
			<rect x="97.6" y="157.2" transform="matrix(0.1206 -0.9927 0.9927 0.1206 -73.3103 242.7821)" class="st43" width="5.6" height="11.2"/>
		
			<rect x="107.2" y="149.9" transform="matrix(0.1206 -0.9927 0.9927 0.1206 -54.7725 243.4796)" class="st43" width="5.6" height="5.6"/>
		
			<rect x="102.5" y="163.4" transform="matrix(0.1206 -0.9927 0.9927 0.1206 -75.1681 253.1342)" class="st43" width="5.6" height="11.2"/>
		
			<rect x="135.8" y="161.9" transform="matrix(0.1206 -0.9927 0.9927 0.1206 -49.9277 289.8271)" class="st43" width="5.6" height="22.4"/>
		
			<rect x="133.7" y="158.8" transform="matrix(0.1206 -0.9927 0.9927 0.1206 -45.9252 282.5705)" class="st43" width="5.6" height="16.8"/>
		
			<rect x="131.6" y="155.7" transform="matrix(0.1206 -0.9927 0.9927 0.1206 -41.9341 275.2987)" class="st43" width="5.6" height="11.2"/>
		
			<rect x="113.1" y="134.1" transform="matrix(0.1206 -0.9927 0.9927 0.1206 -45.4364 250.5592)" class="st41" width="11.2" height="33.6"/>
		
			<rect x="112.2" y="150.5" transform="matrix(0.1206 -0.9927 0.9927 0.1206 -56.6666 253.903)" class="st42" width="5.6" height="16.8"/>
		
			<rect x="109.9" y="218.3" transform="matrix(0.1206 -0.9927 0.9927 0.1206 -120.6358 311.5959)" class="st46" width="11.2" height="11.2"/>
		
			<rect x="133" y="144.6" transform="matrix(0.1206 -0.9927 0.9927 0.1206 -29.7084 266.862)" class="st44" width="5.6" height="11.2"/>
		
			<rect x="122.8" y="222.4" transform="matrix(0.1206 -0.9927 0.9927 0.1206 -121.4178 330.1172)" class="st46" width="5.6" height="22.4"/>
		
			<rect x="123.5" y="202.6" transform="matrix(0.1206 -0.9927 0.9927 0.1206 -92.8484 305.9522)" class="st47" width="5.6" height="5.6"/>
	</g>
	<g>
		<polygon class="st48" points="302.1,25.4 297.4,25.4 297.4,20.8 292.9,20.8 292.9,16.1 265.1,16.1 265.1,20.8 260.5,20.8 
			260.5,25.4 255.9,25.4 255.9,48.5 260.5,48.5 260.5,53 265.1,53 265.1,57.7 292.9,57.7 292.9,53 297.4,53 297.4,48.5 302.1,48.5 
					"/>
		<rect x="267.7" y="32.6" class="st49" width="4.6" height="4.6"/>
		<rect x="279" y="20.8" class="st49" width="4.6" height="4.6"/>
		<rect x="288.2" y="43.9" class="st49" width="4.6" height="4.6"/>
		<rect x="297.4" y="16.1" class="st49" width="4.6" height="4.6"/>
		<rect x="265.1" y="6.9" class="st49" width="4.6" height="4.6"/>
		<rect x="242.1" y="11.6" class="st49" width="4.6" height="4.6"/>
		<rect x="251.3" y="57.7" class="st50" width="4.6" height="4.6"/>
		<rect x="288.2" y="34.6" class="st50" width="4.6" height="4.6"/>
		<rect x="297.4" y="53" class="st50" width="9.2" height="9.2"/>
		<rect x="251.3" y="6.9" class="st50" width="9.2" height="9.2"/>
		<rect x="302.1" y="2.3" class="st50" width="4.6" height="4.6"/>
		<rect x="269.8" y="66.9" class="st50" width="4.6" height="4.6"/>
		<rect x="311.3" y="39.2" class="st49" width="4.6" height="4.6"/>
	</g>
	<g>
		<g>
			
				<rect x="144" y="413.1" transform="matrix(0.995 -9.945533e-02 9.945533e-02 0.995 -41.8284 17.5777)" class="st51" width="22.8" height="30.4"/>
			<polygon class="st52" points="159.2,427.9 158.5,420.3 143.3,421.8 142.5,414.3 127.4,415.9 128.2,423.4 120.6,424.1 
				121.4,431.7 113.8,432.4 115.3,447.5 107.8,448.3 108.6,455.9 101,456.6 102.5,471.7 94.9,472.5 96.5,487.6 88.9,488.4 
				90.4,503.5 82.9,504.2 84.4,519.3 76.8,520.1 77.5,527.7 70,528.4 70.8,536 71.6,543.5 64,544.3 64.7,551.8 72.3,551.1 
				79.8,550.3 79.1,542.8 94.2,541.2 93.4,533.7 101,533 100.2,525.4 107.8,524.7 107,517.1 122.2,515.5 121.4,508 128.9,507.3 
				128.2,499.7 135.7,499 135,491.4 142.5,490.6 141.8,483.1 149.3,482.3 148.6,474.8 156.1,474 154.7,458.9 162.2,458.1 
				161.5,450.6 169,449.8 166.7,427.2 			"/>
			
				<rect x="149.6" y="404.9" transform="matrix(0.995 -9.945533e-02 9.945533e-02 0.995 -39.8463 18.0394)" class="st53" width="22.8" height="7.6"/>
			
				<rect x="157.3" y="397.2" transform="matrix(0.995 -9.945533e-02 9.945533e-02 0.995 -39.8428 18.0436)" class="st53" width="7.6" height="22.8"/>
			
				<rect x="157.6" y="404.9" transform="matrix(0.995 -9.945533e-02 9.945533e-02 0.995 -40.2224 18.0979)" class="st54" width="7.6" height="15.2"/>
			
				<rect x="106.6" y="508.7" transform="matrix(0.995 -9.945533e-02 9.945533e-02 0.995 -50.4058 13.8959)" class="st55" width="15.2" height="7.6"/>
			
				<rect x="121" y="500" transform="matrix(0.995 -9.945533e-02 9.945533e-02 0.995 -49.4891 14.906)" class="st55" width="7.6" height="7.6"/>
			
				<rect x="129.3" y="430.5" transform="matrix(0.995 -9.945533e-02 9.945533e-02 0.995 -42.5342 15.3895)" class="st56" width="7.6" height="7.6"/>
			
				<rect x="99.8" y="517.4" transform="matrix(0.995 -9.945533e-02 9.945533e-02 0.995 -51.3224 12.8859)" class="st55" width="7.6" height="7.6"/>
			
				<rect x="93" y="525.7" transform="matrix(0.995 -9.945533e-02 9.945533e-02 0.995 -52.1841 12.2515)" class="st55" width="7.6" height="7.6"/>
			
				<rect x="78.7" y="534.4" transform="matrix(0.995 -9.945533e-02 9.945533e-02 0.995 -53.1015 11.2489)" class="st55" width="15.2" height="7.6"/>
			
				<rect x="121" y="423.7" transform="matrix(0.995 -9.945533e-02 9.945533e-02 0.995 -41.8998 14.5278)" class="st56" width="7.6" height="7.6"/>
			
				<rect x="134.5" y="483.5" transform="matrix(0.995 -9.945533e-02 9.945533e-02 0.995 -47.7731 16.174)" class="st55" width="7.6" height="7.6"/>
			
				<rect x="124.8" y="461.6" transform="matrix(0.995 -9.945533e-02 9.945533e-02 0.995 -45.6434 15.0922)" class="st56" width="7.6" height="7.6"/>
			
				<rect x="103.6" y="478.9" transform="matrix(0.995 -9.945533e-02 9.945533e-02 0.995 -47.4692 13.0729)" class="st56" width="7.6" height="7.6"/>
			
				<rect x="114.9" y="439.6" transform="matrix(0.995 -9.945533e-02 9.945533e-02 0.995 -43.5056 14.0037)" class="st56" width="7.6" height="7.6"/>
		</g>
		
			<rect x="164.1" y="396.6" transform="matrix(0.995 -9.945533e-02 9.945533e-02 0.995 -38.9849 18.6774)" class="st53" width="7.6" height="7.6"/>
		
			<rect x="171.2" y="388.2" transform="matrix(0.995 -9.945533e-02 9.945533e-02 0.995 -38.4988 19.3666)" class="st53" width="7.6" height="15.2"/>
		
			<rect x="178" y="379.9" transform="matrix(0.995 -9.945533e-02 9.945533e-02 0.995 -37.6371 20.0009)" class="st53" width="7.6" height="15.2"/>
		
			<rect x="184.9" y="371.6" transform="matrix(0.995 -9.945533e-02 9.945533e-02 0.995 -36.776 20.6428)" class="st53" width="7.6" height="15.2"/>
		
			<rect x="183" y="356.5" transform="matrix(0.995 -9.945533e-02 9.945533e-02 0.995 -34.9042 20.3606)" class="st53" width="7.6" height="7.6"/>
		
			<rect x="192" y="370.5" transform="matrix(0.995 -9.945533e-02 9.945533e-02 0.995 -36.2352 21.7077)" class="st51" width="15.2" height="7.6"/>
		
			<rect x="191.2" y="363.3" transform="matrix(0.995 -9.945533e-02 9.945533e-02 0.995 -35.5379 21.2149)" class="st53" width="7.6" height="7.6"/>
		
			<rect x="183.7" y="364.1" transform="matrix(0.995 -9.945533e-02 9.945533e-02 0.995 -35.6557 20.4702)" class="st53" width="7.6" height="7.6"/>
		
			<rect x="198.1" y="355" transform="matrix(0.995 -9.945533e-02 9.945533e-02 0.995 -34.6843 21.8558)" class="st53" width="7.6" height="7.6"/>
		
			<rect x="197.3" y="347.4" transform="matrix(0.995 -9.945533e-02 9.945533e-02 0.995 -33.9321 21.7387)" class="st53" width="7.6" height="7.6"/>
		
			<rect x="205.6" y="354.2" transform="matrix(0.995 -9.945533e-02 9.945533e-02 0.995 -34.5664 22.6007)" class="st53" width="7.6" height="7.6"/>
		
			<rect x="164.8" y="404.1" transform="matrix(0.995 -9.945533e-02 9.945533e-02 0.995 -39.7289 18.7878)" class="st54" width="7.6" height="7.6"/>
		
			<rect x="198.8" y="362.5" transform="matrix(0.995 -9.945533e-02 9.945533e-02 0.995 -35.4283 21.9662)" class="st54" width="7.6" height="7.6"/>
		
			<rect x="190.5" y="355.7" transform="matrix(0.995 -9.945533e-02 9.945533e-02 0.995 -34.7939 21.1044)" class="st54" width="7.6" height="7.6"/>
		
			<rect x="206.3" y="361.8" transform="matrix(0.995 -9.945533e-02 9.945533e-02 0.995 -35.3178 22.7103)" class="st54" width="7.6" height="7.6"/>
		
			<rect x="189.8" y="348.2" transform="matrix(0.995 -9.945533e-02 9.945533e-02 0.995 -34.0425 20.9948)" class="st53" width="7.6" height="7.6"/>
	</g>
	<g>
		<polygon class="st66" points="332.9,351.1 327.4,351.1 327.4,345.7 322,345.7 322,340.3 289.4,340.3 289.4,345.7 284,345.7 
			284,351.1 278.5,351.1 278.5,378.3 284,378.3 284,383.8 289.4,383.8 289.4,389.2 322,389.2 322,383.8 327.4,383.8 327.4,378.3 
			332.9,378.3 		"/>
		<rect x="311.1" y="362" class="st67" width="10.9" height="5.4"/>
		<rect x="316.5" y="329.4" class="st67" width="10.9" height="5.4"/>
		<rect x="316.5" y="345.7" class="st67" width="10.9" height="5.4"/>
		<rect x="289.4" y="351.1" class="st68" width="10.9" height="5.4"/>
		<rect x="294.8" y="378.3" class="st68" width="10.9" height="5.4"/>
		<rect x="316.5" y="394.7" class="st67" width="10.9" height="5.4"/>
		<rect x="294.8" y="324" class="st68" width="10.9" height="5.4"/>
		<rect x="297.2" y="397.7" class="st68" width="5.4" height="5.4"/>
		<rect x="343.7" y="356.6" class="st67" width="5.4" height="5.4"/>
		<rect x="284" y="362" class="st69" width="10.9" height="5.4"/>
		<rect x="305.7" y="340.3" class="st69" width="10.9" height="5.4"/>
		<rect x="316.5" y="378.3" class="st69" width="5.4" height="5.4"/>
		<rect x="305.7" y="356.6" class="st69" width="5.4" height="5.4"/>
		<rect x="267.7" y="389.2" class="st69" width="10.9" height="5.4"/>
		<rect x="332.9" y="383.8" class="st69" width="5.4" height="5.4"/>
		<rect x="311.1" y="367.4" class="st68" width="5.4" height="5.4"/>
		<rect x="278.5" y="329.4" class="st68" width="5.4" height="5.4"/>
		<rect x="262.2" y="345.7" class="st67" width="10.9" height="5.4"/>
		<rect x="267.7" y="372.9" class="st67" width="5.4" height="5.4"/>
	</g>
	<g>
		<polygon class="st88" points="173.1,525.7 173.1,522.4 169.7,522.4 169.7,518.9 166.2,518.9 166.2,515.5 149.2,515.5 149.2,518.9 
			145.9,518.9 145.9,522.4 142.5,522.4 142.5,525.7 139,525.7 139,542.8 142.5,542.8 142.5,546.2 145.9,546.2 145.9,549.6 
			149.2,549.6 149.2,553 166.2,553 166.2,549.6 169.7,549.6 169.7,546.2 173.1,546.2 173.1,542.8 176.5,542.8 176.5,525.7 		"/>
		<polygon class="st89" points="162.9,529.2 162.9,525.7 152.7,525.7 152.7,529.2 149.2,529.2 149.2,539.4 152.7,539.4 152.7,542.8 
			162.9,542.8 162.9,539.4 166.2,539.4 166.2,529.2 		"/>
		<rect x="145.9" y="522.4" class="st90" width="3.4" height="3.4"/>
		<polygon class="st59" points="162.9,532.6 159.5,532.6 159.5,529.2 156,529.2 156,532.6 152.7,532.6 152.7,536 156,536 156,539.4 
			159.5,539.4 159.5,536 162.9,536 		"/>
		<rect x="142.5" y="525.7" class="st90" width="3.4" height="10.2"/>
		<rect x="166.2" y="542.8" class="st90" width="3.4" height="3.4"/>
		<rect x="169.7" y="536" class="st90" width="3.4" height="6.8"/>
	</g>
	<g>
		<polygon class="st88" points="123.5,11.9 121.8,8.9 118.9,10.7 117.1,7.7 114.2,9.5 112.5,6.6 97.8,15.2 99.6,18.1 96.6,19.8 
			98.3,22.8 95.4,24.5 97.1,27.4 94.2,29.1 102.8,43.8 105.7,42.1 107.5,45 110.4,43.3 112.1,46.2 115,44.5 116.8,47.4 131.5,38.8 
			129.7,35.9 132.6,34.2 130.9,31.3 133.9,29.5 132.2,26.6 135.1,24.9 126.4,10.2 		"/>
		<polygon class="st89" points="116.4,20 114.7,17.1 105.9,22.3 107.6,25.2 104.7,26.9 109.9,35.7 112.8,34 114.5,36.9 123.3,31.8 
			121.6,28.8 124.5,27.1 119.4,18.3 		"/>
		
			<rect x="98.9" y="21.6" transform="matrix(0.8625 -0.5061 0.5061 0.8625 2.0226 54.1412)" class="st90" width="3.4" height="3.4"/>
		<polygon class="st59" points="118.2,23 115.2,24.7 113.5,21.8 110.6,23.5 112.3,26.4 109.4,28.1 111.1,31.1 114,29.3 115.7,32.3 
			118.7,30.6 117,27.6 119.9,25.9 		"/>
		
			<rect x="99.5" y="25.8" transform="matrix(0.8625 -0.5061 0.5061 0.8625 -1.7306 55.4796)" class="st90" width="3.4" height="10.2"/>
		<rect x="126.9" y="29" transform="matrix(0.8625 -0.5061 0.5061 0.8625 2.1589 69.316)" class="st90" width="3.4" height="3.4"/>
		
			<rect x="127.2" y="21.1" transform="matrix(0.8625 -0.5061 0.5061 0.8625 5.3144 68.6287)" class="st90" width="3.4" height="6.8"/>
	</g>
	<g>
		<polygon class="st88" points="48.6,310.3 50,307.2 46.9,305.8 48.2,302.7 45.1,301.3 46.4,298.2 30.7,291.5 29.5,294.6 
			26.3,293.3 24.9,296.4 21.8,295 20.5,298.2 17.4,296.8 10.6,312.4 13.7,313.8 12.4,316.9 15.6,318.2 14.2,321.4 17.3,322.7 
			16,325.8 31.6,332.6 32.9,329.5 36.1,330.8 37.4,327.7 40.6,329 41.9,325.9 45,327.2 51.8,311.6 		"/>
		<polygon class="st89" points="37.9,309.4 39.2,306.2 29.8,302.2 28.5,305.3 25.4,304 21.4,313.3 24.5,314.7 23.2,317.8 
			32.5,321.9 33.9,318.7 37,320.1 41,310.7 		"/>
		
			<rect x="24.1" y="296.8" transform="matrix(0.3958 -0.9183 0.9183 0.3958 -258.5923 204.0746)" class="st90" width="3.4" height="3.4"/>
		<polygon class="st59" points="36.5,312.4 33.4,311.1 34.8,308 31.6,306.6 30.3,309.8 27.2,308.4 25.8,311.5 29,312.9 27.6,316 
			30.7,317.3 32.1,314.2 35.2,315.6 		"/>
		
			<rect x="14.9" y="301.8" transform="matrix(0.3958 -0.9183 0.9183 0.3958 -266.6211 201.7263)" class="st90" width="10.2" height="3.4"/>
		
			<rect x="34.8" y="323.7" transform="matrix(0.3958 -0.9183 0.9183 0.3958 -276.8346 230.1258)" class="st90" width="3.4" height="3.4"/>
		
			<rect x="38.2" y="320.3" transform="matrix(0.3958 -0.9183 0.9183 0.3958 -270.5995 232.8079)" class="st90" width="6.8" height="3.4"/>
	</g>
	<g>
		<polygon class="st94" points="285.6,430.2 272.2,440.9 274.3,443.6 271.6,445.7 273.8,448.4 271.1,450.6 273.2,453.2 270.5,455.4 
			281.2,468.8 283.9,466.7 286,469.3 288.7,467.2 290.9,469.9 293.6,467.7 295.7,470.4 309.1,459.8 307,457.1 309.7,454.9 
			307.5,452.2 310.2,450.1 308.1,447.4 308.1,447.4 297.4,434 297.4,434 295.3,431.3 292.6,433.4 290.4,430.7 287.7,432.9 		"/>
		
			<rect x="294.9" y="455.6" transform="matrix(0.7822 -0.623 0.623 0.7822 -219.936 285.5124)" class="st95" width="6.9" height="3.4"/>
		
			<rect x="273.3" y="453.1" transform="matrix(0.7822 -0.623 0.623 0.7822 -225.632 271.1902)" class="st96" width="3.4" height="10.3"/>
		
			<rect x="271.8" y="449.1" transform="matrix(0.7822 -0.623 0.623 0.7822 -221.312 268.5915)" class="st96" width="3.4" height="3.4"/>
		
			<rect x="272.3" y="444.3" transform="matrix(0.7822 -0.623 0.623 0.7822 -218.1796 267.8794)" class="st96" width="3.4" height="3.4"/>
		
			<rect x="272.8" y="439.5" transform="matrix(0.7822 -0.623 0.623 0.7822 -215.0829 267.1449)" class="st96" width="3.4" height="3.4"/>
		
			<rect x="302.3" y="447.2" transform="matrix(0.7822 -0.623 0.623 0.7822 -214.5255 287.5766)" class="st95" width="3.4" height="6.9"/>
		
			<rect x="301.8" y="452" transform="matrix(0.7822 -0.623 0.623 0.7822 -217.6578 288.2887)" class="st95" width="3.4" height="6.9"/>
		
			<rect x="302.8" y="455.1" transform="matrix(0.7822 -0.623 0.623 0.7822 -218.2629 289.2498)" class="st20" width="3.4" height="3.4"/>
		
			<rect x="303.4" y="450.2" transform="matrix(0.7822 -0.623 0.623 0.7822 -215.1305 288.5377)" class="st20" width="3.4" height="3.4"/>
		
			<rect x="301.8" y="442.7" transform="matrix(0.7822 -0.623 0.623 0.7822 -210.788 285.9034)" class="st95" width="3.4" height="3.4"/>
		
			<rect x="277.1" y="444.9" transform="matrix(0.7822 -0.623 0.623 0.7822 -217.5032 270.9893)" class="st96" width="3.4" height="3.4"/>
		
			<rect x="298.9" y="437.9" transform="matrix(0.7822 -0.623 0.623 0.7822 -207.6557 285.1913)" class="st29" width="10.3" height="3.4"/>
		
			<rect x="294.8" y="439.5" transform="matrix(0.7822 -0.623 0.623 0.7822 -210.29 280.8488)" class="st29" width="3.4" height="3.4"/>
		
			<rect x="310.5" y="425.6" transform="matrix(0.7822 -0.623 0.623 0.7822 -197.8312 288.6924)" class="st32" width="6.9" height="3.4"/>
		
			<rect x="304.2" y="433.6" transform="matrix(0.7822 -0.623 0.623 0.7822 -203.8468 287.5892)" class="st29" width="10.3" height="3.4"/>
		
			<rect x="314.2" y="419.7" transform="matrix(0.7822 -0.623 0.623 0.7822 -193.7602 288.6209)" class="st32" width="3.4" height="3.4"/>
		
			<rect x="314.7" y="414.9" transform="matrix(0.7822 -0.623 0.623 0.7822 -190.6278 287.9088)" class="st32" width="3.4" height="3.4"/>
		
			<rect x="307.3" y="432.6" transform="matrix(0.7822 -0.623 0.623 0.7822 -202.8857 288.1943)" class="st32" width="6.9" height="3.4"/>
		
			<rect x="310.9" y="426.6" transform="matrix(0.7822 -0.623 0.623 0.7822 -198.7923 288.0872)" class="st29" width="3.4" height="3.4"/>
	</g>
	<g>
		<polygon class="st94" points="215.8,206.5 214.6,203.3 211.4,204.5 210.2,201.2 207,202.5 207,202.5 190.9,208.6 190.9,208.6 
			187.7,209.8 188.9,213 185.7,214.2 186.9,217.4 183.7,218.6 189.8,234.7 193,233.5 194.2,236.7 197.4,235.5 198.7,238.7 
			201.9,237.5 203.1,240.7 219.2,234.6 217.9,231.4 221.1,230.2 219.9,227 223.2,225.7 222,222.5 225.1,221.3 219,205.2 		"/>
		
			<rect x="192.4" y="218.6" transform="matrix(0.9349 -0.3548 0.3548 0.9349 -66.1367 83.3368)" class="st95" width="3.4" height="6.9"/>
		
			<rect x="208.6" y="233.1" transform="matrix(0.9349 -0.3548 0.3548 0.9349 -69.4096 91.1129)" class="st96" width="10.3" height="3.4"/>
		
			<rect x="217.2" y="227.4" transform="matrix(0.9349 -0.3548 0.3548 0.9349 -67.0612 92.5735)" class="st96" width="3.4" height="3.4"/>
		
			<rect x="219.2" y="223" transform="matrix(0.9349 -0.3548 0.3548 0.9349 -65.3684 93.0137)" class="st96" width="3.4" height="3.4"/>
		
			<rect x="221.2" y="218.6" transform="matrix(0.9349 -0.3548 0.3548 0.9349 -63.656 93.4231)" class="st96" width="3.4" height="3.4"/>
		
			<rect x="189.3" y="211.7" transform="matrix(0.9349 -0.3548 0.3548 0.9349 -63.1754 82.2819)" class="st95" width="6.9" height="3.4"/>
		
			<rect x="187.3" y="216.1" transform="matrix(0.9349 -0.3548 0.3548 0.9349 -64.8691 81.8416)" class="st95" width="6.9" height="3.4"/>
		
			<rect x="187.4" y="216.6" transform="matrix(0.9349 -0.3548 0.3548 0.9349 -65.1746 81.3135)" class="st20" width="3.4" height="3.4"/>
		
			<rect x="189.4" y="212.3" transform="matrix(0.9349 -0.3548 0.3548 0.9349 -63.4865 81.7279)" class="st20" width="3.4" height="3.4"/>
		
			<rect x="194.6" y="206.6" transform="matrix(0.9349 -0.3548 0.3548 0.9349 -61.1333 83.2136)" class="st95" width="3.4" height="3.4"/>
		
			<rect x="214.7" y="221" transform="matrix(0.9349 -0.3548 0.3548 0.9349 -64.9338 91.2957)" class="st96" width="3.4" height="3.4"/>
		
			<rect x="196.6" y="198.7" transform="matrix(0.9349 -0.3548 0.3548 0.9349 -59.4461 83.6287)" class="st29" width="3.4" height="10.3"/>
		
			<rect x="202.3" y="207.4" transform="matrix(0.9349 -0.3548 0.3548 0.9349 -60.9314 85.9824)" class="st29" width="3.4" height="3.4"/>
		
			<rect x="194.4" y="184.8" transform="matrix(0.9349 -0.3548 0.3548 0.9349 -54.0281 81.8189)" class="st32" width="3.4" height="6.9"/>
		
			<rect x="194.2" y="192.3" transform="matrix(0.9349 -0.3548 0.3548 0.9349 -57.3191 82.3505)" class="st29" width="3.4" height="10.3"/>
		
			<rect x="195.7" y="180.5" transform="matrix(0.9349 -0.3548 0.3548 0.9349 -51.7925 81.8968)" class="st32" width="3.4" height="3.4"/>
		
			<rect x="197.7" y="176.1" transform="matrix(0.9349 -0.3548 0.3548 0.9349 -50.1001 82.3374)" class="st32" width="3.4" height="3.4"/>
		
			<rect x="193.5" y="192.4" transform="matrix(0.9349 -0.3548 0.3548 0.9349 -56.7959 82.02)" class="st32" width="3.4" height="6.9"/>
		
			<rect x="194.9" y="188.1" transform="matrix(0.9349 -0.3548 0.3548 0.9349 -54.5556 82.1239)" class="st29" width="3.4" height="3.4"/>
	</g>
	<g>
		<polygon class="st101" points="329,94.9 327.4,89.8 324.8,90.6 324.1,87.9 321.5,88.7 320.8,86.2 318.2,86.9 315.7,87.7 
			313.1,88.5 313.9,91 311.3,91.8 312.1,94.3 309.6,95.1 311.1,100.2 308.5,101 314.6,121.4 317.1,120.6 317.9,123.2 320.5,122.5 
			321.2,125 323.9,124.2 324.7,126.8 332.4,124.5 331.5,121.9 334,121.2 333.3,118.7 335.8,117.9 335,115.3 337.6,114.6 331.5,94.1 
					"/>
		
			<rect x="312.3" y="97" transform="matrix(0.9583 -0.2859 0.2859 0.9583 -16.5425 93.9943)" class="st102" width="2.7" height="13.3"/>
		
			<rect x="332.2" y="110.4" transform="matrix(0.9583 -0.2859 0.2859 0.9583 -18.8022 100.1292)" class="st103" width="2.7" height="8"/>
		
			<rect x="328.6" y="119.4" transform="matrix(0.9583 -0.2859 0.2859 0.9583 -20.6832 99.7343)" class="st103" width="5.4" height="2.7"/>
		
			<rect x="334" y="107.1" transform="matrix(0.9583 -0.2859 0.2859 0.9583 -17.7802 100.5014)" class="st103" width="2.7" height="8"/>
		
			<rect x="329" y="119.7" transform="matrix(0.9583 -0.2859 0.2859 0.9583 -21.194 99.5484)" class="st103" width="2.7" height="5.4"/>
		
			<rect x="312.9" y="93.9" transform="matrix(0.9583 -0.2859 0.2859 0.9583 -14.4854 93.8799)" class="st104" width="2.7" height="5.4"/>
		
			<rect x="311.5" y="99.8" transform="matrix(0.9583 -0.2859 0.2859 0.9583 -15.8556 93.6707)" class="st104" width="2.7" height="2.7"/>
		
			<rect x="329.1" y="100.2" transform="matrix(0.9583 -0.2859 0.2859 0.9583 -16.0153 98.8293)" class="st103" width="2.7" height="8"/>
		
			<rect x="330.4" y="116.4" transform="matrix(0.9583 -0.2859 0.2859 0.9583 -19.8241 99.7578)" class="st103" width="2.7" height="2.7"/>
		
			<rect x="333" y="115.7" transform="matrix(0.9583 -0.2859 0.2859 0.9583 -19.499 100.4548)" class="st105" width="2.7" height="2.7"/>
		
			<rect x="331.2" y="119" transform="matrix(0.9583 -0.2859 0.2859 0.9583 -20.5209 100.0827)" class="st105" width="2.7" height="2.7"/>
		
			<rect x="329.4" y="122.3" transform="matrix(0.9583 -0.2859 0.2859 0.9583 -21.5425 99.7111)" class="st105" width="2.7" height="2.7"/>
	</g>
	<g>
		<polygon class="st101" points="28.6,463.7 30.4,458.6 27.9,457.8 28.7,455.3 26.2,454.4 27.1,451.9 24.5,451 22.1,450.1 
			19.5,449.3 18.6,451.7 16.1,450.9 15.2,453.4 12.8,452.5 11,457.6 8.5,456.7 1.5,476.9 4,477.8 3.1,480.2 5.6,481.1 4.7,483.7 
			7.3,484.6 6.4,487.1 14,489.7 14.9,487.2 17.3,488 18.2,485.5 20.7,486.4 21.6,483.9 24.1,484.8 31.2,464.6 		"/>
		
			<rect x="4.3" y="460.5" transform="matrix(0.3284 -0.9445 0.9445 0.3284 -428.8738 320.5345)" class="st102" width="13.3" height="2.7"/>
		
			<rect x="16.8" y="480.9" transform="matrix(0.3284 -0.9445 0.9445 0.3284 -441.5122 343.4991)" class="st103" width="8" height="2.7"/>
		
			<rect x="14" y="483.3" transform="matrix(0.3284 -0.9445 0.9445 0.3284 -448.7344 340.8297)" class="st103" width="2.7" height="5.4"/>
		
			<rect x="20.2" y="479.3" transform="matrix(0.3284 -0.9445 0.9445 0.3284 -437.674 345.6597)" class="st103" width="8" height="2.7"/>
		
			<rect x="10.9" y="485.4" transform="matrix(0.3284 -0.9445 0.9445 0.3284 -450.6042 339.7166)" class="st103" width="5.4" height="2.7"/>
		
			<rect x="13" y="455" transform="matrix(0.3284 -0.9445 0.9445 0.3284 -420.5674 321.2644)" class="st104" width="5.4" height="2.7"/>
		
			<rect x="10.5" y="458" transform="matrix(0.3284 -0.9445 0.9445 0.3284 -425.8825 319.6713)" class="st104" width="2.7" height="2.7"/>
		
			<rect x="20.3" y="470.8" transform="matrix(0.3284 -0.9445 0.9445 0.3284 -429.6447 340.0522)" class="st103" width="8" height="2.7"/>
		
			<rect x="16.1" y="482.5" transform="matrix(0.3284 -0.9445 0.9445 0.3284 -445.2712 341.3563)" class="st103" width="2.7" height="2.7"/>
		
			<rect x="18.6" y="483.4" transform="matrix(0.3284 -0.9445 0.9445 0.3284 -444.4547 344.4102)" class="st105" width="2.7" height="2.7"/>
		
			<rect x="15.2" y="485" transform="matrix(0.3284 -0.9445 0.9445 0.3284 -448.2813 342.2664)" class="st105" width="2.7" height="2.7"/>
		
			<rect x="11.7" y="486.7" transform="matrix(0.3284 -0.9445 0.9445 0.3284 -452.1532 340.0815)" class="st105" width="2.7" height="2.7"/>
	</g>
	<g>
		<polygon class="st33" points="87,452.9 83.9,452.9 83.9,449.9 80.9,449.9 80.9,446.9 59.8,446.9 59.8,449.9 56.8,449.9 
			56.8,452.9 53.9,452.9 53.9,467.9 56.8,467.9 56.8,471 59.8,471 59.8,474 80.9,474 80.9,471 83.9,471 83.9,467.9 87,467.9 		"/>
		<rect x="62.5" y="452.9" class="st34" width="15.1" height="3"/>
		<rect x="65.6" y="449.9" class="st34" width="9" height="9"/>
		<rect x="56.8" y="458.9" class="st35" width="3" height="6"/>
		<rect x="59.8" y="465" class="st35" width="3" height="3"/>
		<rect x="77.9" y="471" class="st36" width="3" height="3"/>
		<rect x="80.9" y="467.9" class="st36" width="3" height="3"/>
		<rect x="83.9" y="465" class="st36" width="3" height="3"/>
		<rect x="80.9" y="452.9" class="st35" width="3" height="3"/>
	</g>
	<g>
		<polygon class="st91" points="15.4,384.4 12.8,380.5 28.5,370.1 31.1,374 35,371.4 37.6,375.3 41.5,372.7 49.4,384.5 54.6,392.3 
			57.2,396.2 61.1,393.6 63.7,397.5 66.3,401.4 70.3,398.8 72.8,402.8 76.8,400.1 79.4,404 82,408 70.2,415.8 67.6,411.8 
			59.8,417.1 57.2,413.2 53.3,415.8 50.7,411.9 46.7,414.4 44.1,410.5 40.2,413.1 37.6,409.2 33.7,411.8 31.1,407.9 27.2,410.6 
			11.5,387 		"/>
		
			<rect x="45" y="408.9" transform="matrix(0.8323 -0.5544 0.5544 0.8323 -220.0393 95.2513)" class="st92" width="4.7" height="4.7"/>
		
			<rect x="51.6" y="410.2" transform="matrix(0.8323 -0.5544 0.5544 0.8323 -219.6553 99.0863)" class="st92" width="4.7" height="4.7"/>
		
			<rect x="57.7" y="410.2" transform="matrix(0.8323 -0.5544 0.5544 0.8323 -218.2305 103.8168)" class="st92" width="9.4" height="4.7"/>
		
			<rect x="68.5" y="410.2" transform="matrix(0.8323 -0.5544 0.5544 0.8323 -216.8308 108.5014)" class="st92" width="4.7" height="4.7"/>
		
			<rect x="35.9" y="375.8" transform="matrix(0.8323 -0.5544 0.5544 0.8323 -204.5485 85.058)" class="st93" width="4.7" height="9.4"/>
		
			<rect x="28.1" y="374.9" transform="matrix(0.8323 -0.5544 0.5544 0.8323 -204.031 80.1796)" class="st93" width="4.7" height="4.7"/>
		
			<rect x="38.5" y="407.5" transform="matrix(0.8323 -0.5544 0.5544 0.8323 -220.3765 91.3962)" class="st92" width="4.7" height="4.7"/>
		<g>
			
				<rect x="15" y="355.3" transform="matrix(0.8323 -0.5544 0.5544 0.8323 -195.3557 69.6239)" class="st60" width="4.7" height="4.7"/>
			
				<rect x="29.4" y="368.4" transform="matrix(0.8323 -0.5544 0.5544 0.8323 -200.2002 79.8029)" class="st60" width="4.7" height="4.7"/>
			<polygon class="st60" points="12.8,380.5 10.2,376.6 14.1,374 11.5,370.1 15.4,367.4 12.8,363.5 16.7,360.9 22,368.8 25.9,366.2 
				28.5,370.1 16.7,377.9 19.3,381.8 15.4,384.4 11.5,387 8.9,383.1 			"/>
			
				<rect x="20.2" y="380.1" transform="matrix(0.8323 -0.5544 0.5544 0.8323 -208.2274 76.6655)" class="st60" width="4.7" height="4.7"/>
		</g>
		
			<rect x="16.4" y="365.8" transform="matrix(0.8323 -0.5544 0.5544 0.8323 -200.9636 72.1259)" class="st17" width="4.7" height="4.7"/>
		
			<rect x="17.6" y="359.3" transform="matrix(0.8323 -0.5544 0.5544 0.8323 -197.1286 71.7419)" class="st17" width="4.7" height="4.7"/>
		
			<rect x="17.7" y="376.2" transform="matrix(0.8323 -0.5544 0.5544 0.8323 -206.5227 74.6178)" class="st17" width="4.7" height="4.7"/>
	</g>
	<g>
		<polygon class="st83" points="83.7,26.2 83.7,26.2 79.1,26.2 79.1,21.7 79.1,21.7 74.5,21.7 74.5,17.1 69.9,17.1 69.9,12.5 
			65.4,12.5 65.4,7.9 60.8,7.9 33.3,7.9 28.7,7.9 28.7,12.5 24.1,12.5 24.1,17.1 19.5,17.1 19.5,21.7 14.9,21.7 14.9,26.2 
			10.4,26.2 10.4,63 14.9,63 14.9,67.5 19.5,67.5 19.5,72.1 24.1,72.1 24.1,76.7 28.7,76.7 28.7,81.3 33.3,81.3 60.8,81.3 
			65.4,81.3 65.4,76.7 69.9,76.7 69.9,72.1 74.5,72.1 74.5,67.5 79.1,67.5 79.1,63 83.7,63 		"/>
		<polygon class="st84" points="79.6,30.8 74.5,30.8 74.5,26.2 69.9,26.2 69.9,21.7 65.4,21.7 65.4,17.1 60.8,17.1 60.8,12.5 
			33.3,12.5 33.3,17.1 28.7,17.1 28.7,21.7 24.1,21.7 24.1,26.2 19.5,26.2 19.5,30.8 14.9,30.8 14.9,58.4 19.5,58.4 19.5,63 
			24.1,63 24.1,67.5 28.7,67.5 28.7,72.1 33.3,72.1 33.3,76.7 60.8,76.7 60.8,72.1 65.4,72.1 65.4,67.5 69.9,67.5 69.9,63 74.5,63 
			74.5,58.4 79.6,58.4 		"/>
		<polygon class="st85" points="69.9,30.8 65.4,30.8 65.4,26.2 60.8,26.2 60.8,21.7 33.3,21.7 33.3,26.2 28.7,26.2 28.7,30.8 
			24.1,30.8 24.1,58.4 28.7,58.4 28.7,63 33.3,63 33.3,67.5 60.8,67.5 60.8,63 65.4,63 65.4,58.4 69.9,58.4 		"/>
		<polygon class="st86" points="51.6,53.8 51.6,49.2 56.2,49.2 56.2,40 51.6,40 51.6,35.4 42.4,35.4 42.4,40 37.9,40 37.9,49.2 
			42.4,49.2 42.4,53.8 		"/>
		<rect x="33.3" y="30.8" class="st87" width="4.6" height="4.6"/>
		<rect x="33.3" y="53.8" class="st87" width="4.6" height="4.6"/>
		<rect x="56.2" y="30.8" class="st87" width="4.6" height="4.6"/>
		<rect x="56.2" y="53.8" class="st87" width="4.6" height="4.6"/>
		<rect x="60.8" y="40" class="st87" width="4.6" height="4.6"/>
		<rect x="28.7" y="44.6" class="st87" width="4.6" height="4.6"/>
		<rect x="47.1" y="26.2" class="st87" width="4.6" height="4.6"/>
		<rect x="42.4" y="58.4" class="st87" width="4.6" height="4.6"/>
		<rect x="37.9" y="17.1" class="st85" width="9.2" height="9.2"/>
		<rect x="65.4" y="40" class="st85" width="9.2" height="13.8"/>
		<rect x="37.9" y="63" class="st85" width="18.4" height="9.2"/>
		<rect x="19.5" y="35.4" class="st85" width="9.2" height="18.4"/>
	</g>
	<g>
		<polygon class="st101" points="75.1,198.7 77.9,194.1 75.7,192.7 77.1,190.5 74.8,189.1 76.2,186.8 74,185.4 71.7,184 69.5,182.5 
			68.1,184.8 65.8,183.4 64.4,185.7 62.1,184.3 59.3,188.8 57,187.4 45.7,205.5 48,206.9 46.6,209.2 48.8,210.6 47.4,212.8 
			49.8,214.3 48.4,216.6 55.1,220.9 56.6,218.6 58.8,219.9 60.2,217.7 62.5,219.1 63.9,216.8 66.1,218.2 77.4,200.1 		"/>
		
			<rect x="51.7" y="191.7" transform="matrix(0.5292 -0.8485 0.8485 0.5292 -136.2936 140.3879)" class="st102" width="13.3" height="2.7"/>
		
			<rect x="59.5" y="213.7" transform="matrix(0.5292 -0.8485 0.8485 0.5292 -152.5733 155.1132)" class="st103" width="8" height="2.7"/>
		
			<rect x="55.9" y="214.8" transform="matrix(0.5292 -0.8485 0.8485 0.5292 -157.5792 150.9668)" class="st103" width="2.7" height="5.4"/>
		
			<rect x="63.2" y="212.9" transform="matrix(0.5292 -0.8485 0.8485 0.5292 -150.121 157.8401)" class="st103" width="8" height="2.7"/>
		
			<rect x="52.8" y="216.5" transform="matrix(0.5292 -0.8485 0.8485 0.5292 -158.708 149.6096)" class="st103" width="5.4" height="2.7"/>
		
			<rect x="61.5" y="187.4" transform="matrix(0.5292 -0.8485 0.8485 0.5292 -129.8985 143.3213)" class="st104" width="5.4" height="2.7"/>
		
			<rect x="58.4" y="189.4" transform="matrix(0.5292 -0.8485 0.8485 0.5292 -133.6624 140.4967)" class="st104" width="2.7" height="2.7"/>
		
			<rect x="65.1" y="204.6" transform="matrix(0.5292 -0.8485 0.8485 0.5292 -142.1989 155.6171)" class="st103" width="8" height="2.7"/>
		
			<rect x="58.4" y="214.5" transform="matrix(0.5292 -0.8485 0.8485 0.5292 -155.0347 152.3473)" class="st103" width="2.7" height="2.7"/>
		
			<rect x="60.7" y="216" transform="matrix(0.5292 -0.8485 0.8485 0.5292 -155.1782 154.9468)" class="st105" width="2.7" height="2.7"/>
		
			<rect x="57.1" y="216.8" transform="matrix(0.5292 -0.8485 0.8485 0.5292 -157.6201 152.2681)" class="st105" width="2.7" height="2.7"/>
		
			<rect x="53.3" y="217.7" transform="matrix(0.5292 -0.8485 0.8485 0.5292 -160.0974 149.5116)" class="st105" width="2.7" height="2.7"/>
	</g>
	<g>
		<polygon class="st97" points="67.7,119.8 62.7,119.8 62.7,114.8 57.7,114.8 57.7,109.9 28,109.9 28,114.8 23,114.8 23,119.8 
			18.1,119.8 18.1,144.6 23,144.6 23,149.5 28,149.5 28,154.5 57.7,154.5 57.7,149.5 62.7,149.5 62.7,144.6 67.7,144.6 		"/>
		<rect x="42.7" y="122.9" class="st98" width="5" height="5"/>
		<rect x="33" y="144.6" class="st98" width="5" height="5"/>
		<rect x="33" y="114.8" class="st99" width="5" height="5"/>
		<rect x="67.7" y="100" class="st99" width="9.9" height="9.9"/>
		<rect x="8.2" y="149.5" class="st99" width="11" height="9.9"/>
		<rect x="60.6" y="137.4" class="st98" width="5" height="5"/>
		<rect x="33" y="129.7" class="st99" width="5" height="5"/>
		<rect x="52.8" y="144.6" class="st99" width="5" height="5"/>
		<rect x="72.7" y="100" class="st97" width="5" height="5"/>
		<rect x="13.1" y="154.5" class="st97" width="9.9" height="5"/>
		<rect x="3.2" y="139.7" class="st97" width="5" height="5"/>
		<rect x="13.1" y="100" class="st98" width="5" height="5"/>
		<rect x="8.2" y="95" class="st97" width="5" height="5"/>
		<rect x="72.7" y="149.5" class="st97" width="5" height="5"/>
		<rect x="37.9" y="90" class="st97" width="5" height="5"/>
		<rect x="52.8" y="114.8" class="st99" width="5" height="5"/>
		<rect x="42.9" y="164.5" class="st97" width="9.9" height="5"/>
		<rect x="42.9" y="159.5" class="st99" width="5" height="5"/>
	</g>
	<g>
		<polygon class="st61" points="57.2,521.6 54.2,520.5 56.4,514.6 53.5,513.6 54.5,510.7 51.6,509.6 52.7,506.6 49.8,505.6 
			50.9,502.6 47.9,501.6 49,498.7 46.1,497.6 45,500.5 42.1,499.4 41,502.4 38.1,501.3 37,504.2 34.1,503.1 33,506 30.1,505 
			28,510.8 25,509.8 18.6,527.2 21.5,528.3 20.5,531.2 23.4,532.3 22.3,535.3 25.2,536.3 24.1,539.2 27.1,540.3 26,543.2 
			28.9,544.3 27.8,547.2 30.8,548.3 31.8,545.4 34.7,546.5 35.8,543.5 38.7,544.6 39.8,541.7 42.8,542.8 43.8,539.9 46.7,540.9 
			47.8,538 50.7,539.1 		"/>
		
			<rect x="31.6" y="506.9" transform="matrix(0.3449 -0.9386 0.9386 0.3449 -455.9182 366.7062)" class="st62" width="6.2" height="6.2"/>
		
			<rect x="36.2" y="504.6" transform="matrix(0.3449 -0.9386 0.9386 0.3449 -450.3717 367.0863)" class="st63" width="3.1" height="3.1"/>
		
			<rect x="31.2" y="509.4" transform="matrix(0.3449 -0.9386 0.9386 0.3449 -458.1248 365.5096)" class="st63" width="3.1" height="3.1"/>
		
			<rect x="48" y="508.9" transform="matrix(0.3449 -0.9386 0.9386 0.3449 -446.7233 380.9243)" class="st63" width="3.1" height="3.1"/>
		
			<rect x="26.4" y="536.3" transform="matrix(0.3449 -0.9386 0.9386 0.3449 -485.5647 380.063)" class="st64" width="6.2" height="3.1"/>
		
			<rect x="26.7" y="530.9" transform="matrix(0.3449 -0.9386 0.9386 0.3449 -481.2786 375.2717)" class="st64" width="3.1" height="3.1"/>
		
			<rect x="26.2" y="541.8" transform="matrix(0.3449 -0.9386 0.9386 0.3449 -489.7862 384.8997)" class="st64" width="9.4" height="3.1"/>
		
			<rect x="29.2" y="538.5" transform="matrix(0.3449 -0.9386 0.9386 0.3449 -483.7044 386.9839)" class="st64" width="12.4" height="3.1"/>
		
			<rect x="14.9" y="525.8" transform="matrix(0.3449 -0.9386 0.9386 0.3449 -470.9226 379.9078)" class="st65" width="43.5" height="3.1"/>
		
			<rect x="38.7" y="532.6" transform="matrix(0.3449 -0.9386 0.9386 0.3449 -475.4489 390.2697)" class="st64" width="6.2" height="6.2"/>
		
			<rect x="49.8" y="512.9" transform="matrix(0.3449 -0.9386 0.9386 0.3449 -449.2458 385.1852)" class="st63" width="3.1" height="3.1"/>
		
			<rect x="35.2" y="539.6" transform="matrix(0.3449 -0.9386 0.9386 0.3449 -482.8623 390.4212)" class="st64" width="6.2" height="3.1"/>
		
			<rect x="44.8" y="513.3" transform="matrix(0.3449 -0.9386 0.9386 0.3449 -451.8467 382.2418)" class="st62" width="6.2" height="3.1"/>
		
			<rect x="32" y="511.9" transform="matrix(0.3449 -0.9386 0.9386 0.3449 -458.928 369.3708)" class="st62" width="6.2" height="3.1"/>
		
			<rect x="34.8" y="530.2" transform="matrix(0.3449 -0.9386 0.9386 0.3449 -474.6958 386.4219)" class="st61" width="9.4" height="6.2"/>
		
			<rect x="48.4" y="525.7" transform="matrix(0.3449 -0.9386 0.9386 0.3449 -462.1115 392.3076)" class="st64" width="3.1" height="3.1"/>
		
			<rect x="29.1" y="515.2" transform="matrix(0.3449 -0.9386 0.9386 0.3449 -464.9691 367.3524)" class="st62" width="3.1" height="3.1"/>
		
			<rect x="27.2" y="511.3" transform="matrix(0.3449 -0.9386 0.9386 0.3449 -462.4888 362.9536)" class="st62" width="3.1" height="3.1"/>
		
			<rect x="40.3" y="502.8" transform="matrix(0.3449 -0.9386 0.9386 0.3449 -445.9889 369.6442)" class="st62" width="3.1" height="3.1"/>
	</g>
	<g>
		<polygon class="st61" points="212.2,292.7 209.8,293.2 208.7,288.4 206.3,288.9 205.8,286.5 203.3,287 202.8,284.6 200.4,285.1 
			199.9,282.7 197.5,283.2 197,280.7 194.5,281.2 195,283.7 192.6,284.2 193.1,286.6 190.7,287.2 191.2,289.6 188.8,290.1 
			189.3,292.5 186.8,293 187.9,297.9 185.4,298.4 188.5,313 191,312.5 191.5,315 194,314.4 194.5,316.9 196.9,316.3 197.4,318.8 
			199.8,318.3 200.3,320.7 202.8,320.1 203.3,322.6 205.7,322 205.2,319.6 207.7,319.1 207.1,316.7 209.6,316.2 209.1,313.8 
			211.5,313.2 211,310.8 213.4,310.2 212.9,307.8 215.3,307.3 		"/>
		<rect x="189.8" y="292" transform="matrix(0.9781 -0.2083 0.2083 0.9781 -57.1152 46.5004)" class="st62" width="5" height="5"/>
		
			<rect x="191.4" y="289.4" transform="matrix(0.9781 -0.2083 0.2083 0.9781 -56.3035 46.5021)" class="st63" width="2.5" height="2.5"/>
		
			<rect x="190.1" y="294.7" transform="matrix(0.9781 -0.2083 0.2083 0.9781 -57.4476 46.3412)" class="st63" width="2.5" height="2.5"/>
		
			<rect x="201.2" y="287.2" transform="matrix(0.9781 -0.2083 0.2083 0.9781 -55.6512 48.4872)" class="st63" width="2.5" height="2.5"/>
		
			<rect x="199.3" y="313.1" transform="matrix(0.9781 -0.2083 0.2083 0.9781 -61.3406 48.697)" class="st64" width="2.5" height="5"/>
		
			<rect x="196.1" y="311.2" transform="matrix(0.9781 -0.2083 0.2083 0.9781 -60.7531 47.9643)" class="st64" width="2.5" height="2.5"/>
		
			<rect x="202.5" y="315" transform="matrix(0.9781 -0.2083 0.2083 0.9781 -61.9143 49.4284)" class="st64" width="2.5" height="7.5"/>
		
			<rect x="204.2" y="309.6" transform="matrix(0.9781 -0.2083 0.2083 0.9781 -61.0221 49.6836)" class="st64" width="2.5" height="9.9"/>
		
			<rect x="199.7" y="287.9" transform="matrix(0.9781 -0.2083 0.2083 0.9781 -59.1947 48.552)" class="st65" width="2.5" height="34.8"/>
		
			<rect x="205.6" y="306.4" transform="matrix(0.9781 -0.2083 0.2083 0.9781 -59.7823 50.1103)" class="st64" width="5" height="5"/>
		
			<rect x="204.2" y="289.2" transform="matrix(0.9781 -0.2083 0.2083 0.9781 -55.9836 49.1534)" class="st63" width="2.5" height="2.5"/>
		
			<rect x="206.6" y="311.5" transform="matrix(0.9781 -0.2083 0.2083 0.9781 -60.8475 50.189)" class="st64" width="2.5" height="5"/>
		
			<rect x="201.9" y="289.7" transform="matrix(0.9781 -0.2083 0.2083 0.9781 -56.3979 48.7268)" class="st62" width="2.5" height="5"/>
		
			<rect x="192.8" y="294.1" transform="matrix(0.9781 -0.2083 0.2083 0.9781 -57.5281 46.9132)" class="st62" width="2.5" height="5"/>
		
			<rect x="202.9" y="304.5" transform="matrix(0.9781 -0.2083 0.2083 0.9781 -59.6881 49.5367)" class="st61" width="5" height="7.5"/>
		
			<rect x="208.6" y="298.4" transform="matrix(0.9781 -0.2083 0.2083 0.9781 -57.8111 50.2851)" class="st64" width="2.5" height="2.5"/>
		
			<rect x="191.1" y="299.6" transform="matrix(0.9781 -0.2083 0.2083 0.9781 -58.4478 46.6611)" class="st62" width="2.5" height="2.5"/>
		
			<rect x="188.2" y="297.6" transform="matrix(0.9781 -0.2083 0.2083 0.9781 -58.1001 46.0072)" class="st62" width="2.5" height="2.5"/>
		
			<rect x="193.4" y="286.4" transform="matrix(0.9781 -0.2083 0.2083 0.9781 -55.6357 46.8483)" class="st62" width="2.5" height="2.5"/>
	</g>
	<g>
		<polygon class="st75" points="162.8,310.9 157.1,311.7 156.4,305.9 150.7,306.6 149.9,301 144.3,301.7 143.5,296 137.8,296.8 
			137.1,291 80.2,298.3 81,304 75.2,304.7 76,310.4 70.3,311.1 71,316.8 65.4,317.5 66,323.2 60.3,324 66.2,369.5 71.8,368.7 
			72.6,374.4 78.3,373.7 79,379.4 84.7,378.7 85.4,384.4 91.1,383.6 91.8,389.3 148.8,382.1 148,376.4 153.7,375.7 153,370 
			158.6,369.3 157.9,363.6 163.6,362.8 162.9,357.2 168.6,356.4 		"/>
		
			<rect x="125.2" y="372.1" transform="matrix(0.992 -0.1263 0.1263 0.992 -46.6274 20.2822)" class="st76" width="22.9" height="11.4"/>
		
			<rect x="146.8" y="358.9" transform="matrix(0.992 -0.1263 0.1263 0.992 -45.2186 21.8528)" class="st76" width="5.8" height="17.2"/>
		
			<rect x="152.2" y="358.2" transform="matrix(0.992 -0.1263 0.1263 0.992 -44.7189 22.5039)" class="st76" width="5.8" height="11.4"/>
		
			<rect x="157.2" y="351.8" transform="matrix(0.992 -0.1263 0.1263 0.992 -43.869 23.0766)" class="st76" width="5.8" height="11.4"/>
		
			<rect x="161.7" y="339.7" transform="matrix(0.992 -0.1263 0.1263 0.992 -42.6681 23.5803)" class="st76" width="5.8" height="17.2"/>
		
			<rect x="124.1" y="361.1" transform="matrix(0.992 -0.1263 0.1263 0.992 -45.6253 19.7135)" class="st75" width="17.2" height="17.2"/>
		
			<rect x="129.1" y="361.1" transform="matrix(0.992 -0.1263 0.1263 0.992 -44.9185 19.5799)" class="st76" width="5.8" height="5.8"/>
		
			<rect x="138.3" y="342.6" transform="matrix(0.992 -0.1263 0.1263 0.992 -42.5066 20.596)" class="st76" width="5.8" height="5.8"/>
		
			<rect x="103.3" y="294.2" transform="matrix(0.992 -0.1263 0.1263 0.992 -36.6308 16.5059)" class="st76" width="17.2" height="5.8"/>
		
			<rect x="123.3" y="315.6" transform="matrix(0.992 -0.1263 0.1263 0.992 -39.2078 18.4884)" class="st76" width="5.8" height="5.8"/>
		
			<rect x="132.5" y="297" transform="matrix(0.992 -0.1263 0.1263 0.992 -36.7966 19.4951)" class="st76" width="5.8" height="5.8"/>
		
			<rect x="90.7" y="377.6" transform="matrix(0.992 -0.1263 0.1263 0.992 -47.3028 14.868)" class="st76" width="5.8" height="5.8"/>
		<rect x="78" y="373.4" transform="matrix(0.992 -0.1263 0.1263 0.992 -46.8716 13.26)" class="st76" width="6.3" height="5.8"/>
		
			<rect x="78.1" y="321.4" transform="matrix(0.992 -0.1263 0.1263 0.992 -40.6644 12.8478)" class="st77" width="5.8" height="11.4"/>
		<rect x="82.1" y="315" transform="matrix(0.992 -0.1263 0.1263 0.992 -39.4728 13.2772)" class="st77" width="5.8" height="5.8"/>
		
			<rect x="77.1" y="315.7" transform="matrix(0.992 -0.1263 0.1263 0.992 -39.5968 12.6492)" class="st78" width="5.8" height="5.8"/>
		
			<rect x="89.8" y="325.7" transform="matrix(0.992 -0.1263 0.1263 0.992 -40.7522 14.3403)" class="st77" width="5.8" height="5.8"/>
		
			<rect x="72.1" y="322.1" transform="matrix(0.992 -0.1263 0.1263 0.992 -40.4474 12.0671)" class="st78" width="5.8" height="5.8"/>
		
			<rect x="155" y="334.7" transform="matrix(0.992 -0.1263 0.1263 0.992 -41.735 22.6607)" class="st77" width="5.8" height="11.4"/>
		<rect x="80" y="338.4" transform="matrix(0.992 -0.1263 0.1263 0.992 -42.4427 13.1944)" class="st77" width="5.8" height="5.8"/>
		
			<rect x="67.9" y="334.2" transform="matrix(0.992 -0.1263 0.1263 0.992 -42.0087 11.6331)" class="st76" width="5.8" height="5.8"/>
		
			<rect x="159.2" y="322.6" transform="matrix(0.992 -0.1263 0.1263 0.992 -40.1637 23.1035)" class="st77" width="5.8" height="11.4"/>
		
			<rect x="109.7" y="299.3" transform="matrix(0.992 -0.1263 0.1263 0.992 -37.2129 17.3565)" class="st76" width="17.2" height="5.8"/>
		<rect x="87" y="302.9" transform="matrix(0.992 -0.1263 0.1263 0.992 -37.8969 13.7946)" class="st77" width="5.8" height="5.8"/>
	</g>
	<g>
		<polygon class="st79" points="104.7,111.7 106.2,114.8 109.3,113.2 110.9,116.4 126.4,108.6 124.8,105.5 127.9,103.9 126.3,100.9 
			129.4,99.3 118.6,77.7 115.5,79.2 112.3,73 109.3,74.5 107.8,71.5 104.6,73 103.1,70 100,71.5 98.4,68.4 95.3,70 96.9,73 
			93.8,74.5 95.3,77.7 92.3,79.2 93.8,82.3 90.7,83.8 93.8,90 90.7,91.6 101.6,113.2 		"/>
		
			<rect x="108.4" y="105.9" transform="matrix(0.8939 -0.4482 0.4482 0.8939 -36.6105 64.0489)" class="st80" width="17.3" height="6.9"/>
		
			<rect x="101.4" y="97.8" transform="matrix(0.8939 -0.4482 0.4482 0.8939 -36.001 57.3132)" class="st80" width="3.4" height="13.8"/>
		
			<rect x="109.2" y="86.6" transform="matrix(0.8939 -0.4482 0.4482 0.8939 -31.7025 59.9798)" class="st80" width="3.4" height="20.8"/>
		
			<rect x="119.9" y="88.5" transform="matrix(0.8939 -0.4482 0.4482 0.8939 -29.8642 64.6385)" class="st80" width="3.4" height="13.8"/>
		
			<rect x="94.4" y="89.1" transform="matrix(0.8939 -0.4482 0.4482 0.8939 -30.4941 52.7239)" class="st80" width="3.4" height="3.4"/>
		
			<rect x="113" y="79.8" transform="matrix(0.8939 -0.4482 0.4482 0.8939 -24.3564 60.0482)" class="st80" width="3.4" height="3.4"/>
		
			<rect x="100.6" y="78.2" transform="matrix(0.8939 -0.4482 0.4482 0.8939 -24.9814 54.3463)" class="st80" width="3.4" height="3.4"/>
		
			<rect x="104.2" y="106.1" transform="matrix(0.8939 -0.4482 0.4482 0.8939 -35.9857 63.5559)" class="st80" width="24.2" height="3.4"/>
		
			<rect x="106.8" y="106.1" transform="matrix(0.8939 -0.4482 0.4482 0.8939 -36.8107 60.0669)" class="st80" width="3.4" height="3.4"/>
		
			<rect x="119.2" y="99.9" transform="matrix(0.8939 -0.4482 0.4482 0.8939 -32.7215 64.9884)" class="st80" width="3.4" height="3.4"/>
		
			<rect x="122.1" y="97.5" transform="matrix(0.8939 -0.4482 0.4482 0.8939 -31.1713 66.806)" class="st80" width="6.9" height="3.4"/>
		
			<rect x="100.4" y="108.4" transform="matrix(0.8939 -0.4482 0.4482 0.8939 -38.3595 58.2517)" class="st80" width="6.9" height="3.4"/>
		
			<rect x="96.7" y="68.8" transform="matrix(0.8939 -0.4482 0.4482 0.8939 -21.9574 51.7926)" class="st81" width="3.4" height="6.9"/>
		
			<rect x="102.1" y="73.6" transform="matrix(0.8939 -0.4482 0.4482 0.8939 -22.734 54.5374)" class="st81" width="3.4" height="3.4"/>
		
			<rect x="108.3" y="78.2" transform="matrix(0.8939 -0.4482 0.4482 0.8939 -24.1671 57.802)" class="st81" width="3.4" height="3.4"/>
		
			<rect x="112.2" y="84.2" transform="matrix(0.8939 -0.4482 0.4482 0.8939 -27.2246 60.3665)" class="st81" width="3.4" height="6.9"/>
		
			<rect x="100.6" y="93.7" transform="matrix(0.8939 -0.4482 0.4482 0.8939 -31.9249 55.9874)" class="st81" width="3.4" height="3.4"/>
		
			<rect x="116.9" y="78" transform="matrix(0.8939 -0.4482 0.4482 0.8939 -23.9604 61.7989)" class="st81" width="3.4" height="6.9"/>
		
			<rect x="105.3" y="110.7" transform="matrix(0.8939 -0.4482 0.4482 0.8939 -39.0591 59.8782)" class="st82" width="3.4" height="3.4"/>
		
			<rect x="112.9" y="110" transform="matrix(0.8939 -0.4482 0.4482 0.8939 -37.7237 63.9868)" class="st82" width="6.9" height="3.4"/>
		
			<rect x="117.6" y="104.6" transform="matrix(0.8939 -0.4482 0.4482 0.8939 -34.9781 64.7639)" class="st82" width="3.4" height="3.4"/>
		
			<rect x="119.2" y="99.9" transform="matrix(0.8939 -0.4482 0.4482 0.8939 -32.7215 64.9884)" class="st79" width="3.4" height="3.4"/>
		
			<rect x="96" y="84.4" transform="matrix(0.8939 -0.4482 0.4482 0.8939 -28.2471 52.9155)" class="st81" width="3.4" height="3.4"/>
	</g>
	<g>
		<polygon class="st79" points="9.6,250 9,253.4 12.3,253.9 11.8,257.2 28.4,260 28.9,256.7 32.3,257.2 32.8,253.9 36.1,254.4 
			40,231.2 36.7,230.7 37.8,224 34.5,223.5 35,220.1 31.7,219.6 32.3,216.3 28.9,215.7 29.5,212.4 26.2,211.8 25.6,215.1 
			22.3,214.6 21.7,217.9 18.4,217.3 17.9,220.7 14.5,220.1 13.5,226.8 10.1,226.2 6.3,249.5 		"/>
		
			<rect x="17.3" y="246.9" transform="matrix(0.1645 -0.9864 0.9864 0.1645 -234.5254 233.6601)" class="st80" width="6.8" height="16.8"/>
		
			<rect x="5.6" y="242" transform="matrix(0.1645 -0.9864 0.9864 0.1645 -230.0473 215.7556)" class="st80" width="13.4" height="3.4"/>
		
			<rect x="12.7" y="240.3" transform="matrix(0.1645 -0.9864 0.9864 0.1645 -219.6167 224.7298)" class="st80" width="20.2" height="3.4"/>
		
			<rect x="25.6" y="245.2" transform="matrix(0.1645 -0.9864 0.9864 0.1645 -216.578 238.1362)" class="st80" width="13.4" height="3.4"/>
		
			<rect x="13.2" y="227" transform="matrix(0.1645 -0.9864 0.9864 0.1645 -213.1515 205.7662)" class="st80" width="3.4" height="3.4"/>
		
			<rect x="33.1" y="230.3" transform="matrix(0.1645 -0.9864 0.9864 0.1645 -199.7783 228.199)" class="st80" width="3.4" height="3.4"/>
		
			<rect x="24.3" y="222" transform="matrix(0.1645 -0.9864 0.9864 0.1645 -198.93 212.5339)" class="st80" width="3.4" height="3.4"/>
		
			<rect x="19.3" y="241.8" transform="matrix(0.1645 -0.9864 0.9864 0.1645 -232.6149 232.5585)" class="st80" width="3.4" height="23.6"/>
		
			<rect x="13.2" y="247.5" transform="matrix(0.1645 -0.9864 0.9864 0.1645 -233.356 222.8346)" class="st80" width="3.4" height="3.4"/>
		
			<rect x="26.5" y="249.7" transform="matrix(0.1645 -0.9864 0.9864 0.1645 -224.4291 237.7903)" class="st80" width="3.4" height="3.4"/>
		
			<rect x="31.4" y="248.8" transform="matrix(0.1645 -0.9864 0.9864 0.1645 -221.0885 243.3484)" class="st80" width="3.4" height="6.8"/>
		
			<rect x="8.2" y="245" transform="matrix(0.1645 -0.9864 0.9864 0.1645 -236.673 217.301)" class="st80" width="3.4" height="6.8"/>
		
			<rect x="23.9" y="213.7" transform="matrix(0.1645 -0.9864 0.9864 0.1645 -189.672 206.9491)" class="st81" width="6.8" height="3.4"/>
		
			<rect x="28.1" y="219.2" transform="matrix(0.1645 -0.9864 0.9864 0.1645 -192.989 214.0191)" class="st81" width="3.4" height="3.4"/>
		
			<rect x="30.3" y="226.4" transform="matrix(0.1645 -0.9864 0.9864 0.1645 -198.2438 222.1484)" class="st81" width="3.4" height="3.4"/>
		
			<rect x="27.3" y="234.7" transform="matrix(0.1645 -0.9864 0.9864 0.1645 -207.5986 227.7673)" class="st81" width="6.8" height="3.4"/>
		
			<rect x="15.4" y="234.2" transform="matrix(0.1645 -0.9864 0.9864 0.1645 -218.3641 213.9663)" class="st81" width="3.4" height="3.4"/>
		
			<rect x="34.4" y="232.5" transform="matrix(0.1645 -0.9864 0.9864 0.1645 -199.432 233.006)" class="st81" width="6.8" height="3.4"/>
		
			<rect x="9.3" y="250.3" transform="matrix(0.1645 -0.9864 0.9864 0.1645 -239.3644 221.3705)" class="st82" width="3.4" height="3.4"/>
		
			<rect x="17.1" y="253.3" transform="matrix(0.1645 -0.9864 0.9864 0.1645 -237.4798 232.9445)" class="st82" width="3.4" height="6.8"/>
		
			<rect x="22.6" y="252.4" transform="matrix(0.1645 -0.9864 0.9864 0.1645 -230.4019 236.2689)" class="st82" width="3.4" height="3.4"/>
		
			<rect x="26.5" y="249.7" transform="matrix(0.1645 -0.9864 0.9864 0.1645 -224.4291 237.7903)" class="st79" width="3.4" height="3.4"/>
		
			<rect x="17" y="224.2" transform="matrix(0.1645 -0.9864 0.9864 0.1645 -207.1998 207.213)" class="st81" width="3.4" height="3.4"/>
	</g>
	<g>
		<polygon class="st33" points="335.5,178.3 332.3,179.3 331.3,176.2 328.1,177.2 327.1,174 304.7,181.2 305.7,184.3 302.5,185.4 
			303.6,188.6 300.4,189.6 305.5,205.5 308.7,204.5 309.7,207.7 312.9,206.7 314,209.9 336.3,202.7 335.3,199.5 338.5,198.5 
			337.5,195.3 340.7,194.3 		"/>
		
			<rect x="309.7" y="184" transform="matrix(0.952 -0.3062 0.3062 0.952 -41.5787 106.3272)" class="st34" width="16.8" height="3.4"/>
		
			<rect x="313.1" y="180.6" transform="matrix(0.952 -0.3062 0.3062 0.952 -41.5661 106.3357)" class="st34" width="10.1" height="10.1"/>
		
			<rect x="306.6" y="194.3" transform="matrix(0.952 -0.3062 0.3062 0.952 -45.6972 103.8948)" class="st35" width="3.4" height="6.7"/>
		
			<rect x="311.3" y="199.7" transform="matrix(0.952 -0.3062 0.3062 0.952 -46.6433 105.5229)" class="st35" width="3.4" height="3.4"/>
		
			<rect x="332.6" y="199.9" transform="matrix(0.952 -0.3062 0.3062 0.952 -45.6817 112.0298)" class="st36" width="3.4" height="3.4"/>
		
			<rect x="334.7" y="195.7" transform="matrix(0.952 -0.3062 0.3062 0.952 -44.2899 112.4913)" class="st36" width="3.4" height="3.4"/>
		
			<rect x="336.9" y="191.5" transform="matrix(0.952 -0.3062 0.3062 0.952 -42.8984 112.9532)" class="st36" width="3.4" height="3.4"/>
		
			<rect x="327.4" y="184" transform="matrix(0.952 -0.3062 0.3062 0.952 -41.0524 109.6835)" class="st35" width="3.4" height="3.4"/>
	</g>
	<g>
		<polygon class="st88" points="91,248.8 89.2,245.9 86.3,247.6 84.6,244.6 81.7,246.4 79.9,243.4 65.3,252 67,255 64.1,256.7 
			65.8,259.6 62.9,261.3 64.6,264.3 61.7,266 70.3,280.7 73.2,278.9 74.9,281.9 77.8,280.1 79.6,283.1 82.5,281.4 84.2,284.3 
			98.9,275.7 97.2,272.8 100.1,271 98.4,268.1 101.3,266.4 99.6,263.4 102.5,261.7 93.9,247.1 		"/>
		<polygon class="st89" points="83.9,256.9 82.2,253.9 73.4,259.1 75.1,262 72.2,263.8 77.3,272.6 80.3,270.8 82,273.8 90.8,268.6 
			89.1,265.7 92,264 86.8,255.2 		"/>
		
			<rect x="66.4" y="258.5" transform="matrix(0.8625 -0.5061 0.5061 0.8625 -122.3555 70.2549)" class="st90" width="3.4" height="3.4"/>
		<polygon class="st59" points="85.6,259.8 82.7,261.5 81,258.6 78,260.3 79.8,263.3 76.8,265 78.5,267.9 81.5,266.2 83.2,269.1 
			86.1,267.4 84.4,264.5 87.3,262.7 		"/>
		
			<rect x="66.9" y="262.8" transform="matrix(0.8625 -0.5061 0.5061 0.8625 -126.1241 71.5547)" class="st90" width="3.4" height="10.2"/>
		
			<rect x="94.4" y="265.8" transform="matrix(0.8625 -0.5061 0.5061 0.8625 -122.1806 85.4144)" class="st90" width="3.4" height="3.4"/>
		
			<rect x="94.7" y="258" transform="matrix(0.8625 -0.5061 0.5061 0.8625 -119.025 84.7272)" class="st90" width="3.4" height="6.8"/>
	</g>
	<g>
		<polygon class="st1" points="213,457.2 216.4,461.5 220.7,458.1 224.1,462.4 228.4,459 231.8,463.3 236.1,459.8 239.5,464.1 
			243.8,460.7 254,473.6 258.3,470.2 248.1,457.3 252.4,453.9 248.9,449.6 253.2,446.2 249.9,441.9 254.2,438.5 250.7,434.2 
			255,430.8 251.6,426.5 231.2,400.7 227.8,396.5 223.5,399.9 220.1,395.6 215.8,399 212.3,394.7 208,398.1 204.7,393.8 191.7,404 
			195.2,408.4 190.9,411.7 194.3,416 190,419.4 193.4,423.7 189.2,427.1 192.5,431.4 		"/>
		
			<rect x="222.7" y="405.8" transform="matrix(0.7833 -0.6217 0.6217 0.7833 -220.4831 234.0419)" class="st2" width="5.5" height="54.8"/>
		
			<rect x="221.9" y="420.7" transform="matrix(0.7833 -0.6217 0.6217 0.7833 -214.5256 231.4362)" class="st2" width="5.5" height="5.5"/>
		
			<rect x="209.9" y="423.1" transform="matrix(0.7833 -0.6217 0.6217 0.7833 -218.6666 224.5206)" class="st2" width="5.5" height="5.5"/>
		
			<rect x="202.2" y="422.3" transform="matrix(0.7833 -0.6217 0.6217 0.7833 -219.8014 219.5264)" class="st2" width="5.5" height="5.5"/>
		
			<rect x="223.5" y="440.4" transform="matrix(0.7833 -0.6217 0.6217 0.7833 -226.4435 236.7174)" class="st2" width="5.5" height="5.5"/>
		
			<rect x="239" y="442.1" transform="matrix(0.7833 -0.6217 0.6217 0.7833 -224.1782 246.6789)" class="st2" width="5.5" height="5.5"/>
		
			<rect x="215.9" y="439.4" transform="matrix(0.7833 -0.6217 0.6217 0.7833 -227.5104 231.7332)" class="st2" width="5.5" height="5.5"/>
		
			<rect x="222.8" y="412.9" transform="matrix(0.7833 -0.6217 0.6217 0.7833 -209.5232 230.2959)" class="st2" width="5.5" height="5.5"/>
		
			<rect x="239.8" y="434.5" transform="matrix(0.7833 -0.6217 0.6217 0.7833 -219.2298 245.5573)" class="st2" width="5.5" height="5.5"/>
	</g>
	<g>
		<polygon class="st1" points="326.4,531.4 330.9,528.2 327.7,523.7 332.1,520.6 328.9,516.1 333.3,512.9 330.2,508.4 334.6,505.2 
			331.4,500.8 344.8,491.1 341.5,486.7 328.2,496.3 325,491.9 320.5,495.1 317.3,490.6 312.9,493.9 309.7,489.4 305.2,492.6 
			302,488.2 297.6,491.4 270.9,510.6 266.4,513.9 269.7,518.2 265.2,521.5 268.4,525.9 264,529.1 267.2,533.6 262.7,536.8 
			272.3,550.1 276.8,546.9 280,551.4 284.5,548.2 287.7,552.6 292.1,549.4 295.3,553.8 299.8,550.6 		"/>
		
			<rect x="275.8" y="515" transform="matrix(0.8109 -0.5851 0.5851 0.8109 -245.6271 275.2928)" class="st2" width="54.8" height="5.5"/>
		
			<rect x="290.6" y="515.4" transform="matrix(0.8109 -0.5851 0.5851 0.8109 -247.7293 269.5797)" class="st2" width="5.5" height="5.5"/>
		
			<rect x="292.5" y="527.4" transform="matrix(0.8109 -0.5851 0.5851 0.8109 -254.4127 272.9731)" class="st2" width="5.5" height="5.5"/>
		
			<rect x="291.3" y="535.2" transform="matrix(0.8109 -0.5851 0.5851 0.8109 -259.1749 273.7406)" class="st2" width="5.5" height="5.5"/>
		
			<rect x="310.3" y="514.6" transform="matrix(0.8109 -0.5851 0.5851 0.8109 -243.5563 280.9605)" class="st2" width="5.5" height="5.5"/>
		
			<rect x="312.8" y="499.3" transform="matrix(0.8109 -0.5851 0.5851 0.8109 -234.1271 279.5224)" class="st2" width="5.5" height="5.5"/>
		
			<rect x="309" y="522.3" transform="matrix(0.8109 -0.5851 0.5851 0.8109 -248.2698 281.6942)" class="st2" width="5.5" height="5.5"/>
		
			<rect x="282.9" y="514.2" transform="matrix(0.8109 -0.5851 0.5851 0.8109 -248.447 264.8522)" class="st2" width="5.5" height="5.5"/>
		
			<rect x="305.1" y="498.1" transform="matrix(0.8109 -0.5851 0.5851 0.8109 -234.8446 274.8084)" class="st2" width="5.5" height="5.5"/>
	</g>
	<g>
		<polygon class="st17" points="244.1,531.5 245.9,525.8 251.6,527.6 253.3,522 258.9,523.7 260.7,518.1 266.4,519.9 268.1,514.2 
			273.7,516 275.5,510.4 292.4,515.7 294.2,510 277.3,504.7 279.1,499.1 273.4,497.3 275.2,491.7 269.6,489.9 271.4,484.2 
			265.7,482.4 267.5,476.9 261.9,475.1 263.6,469.4 224.1,457 222.4,462.6 216.7,460.9 214.9,466.5 209.3,464.8 207.5,470.4 
			201.9,468.6 200.1,474.3 194.5,472.5 189.1,489.4 194.8,491.2 193,496.8 198.6,498.6 196.8,504.3 202.5,506 200.8,511.6 
			206.4,513.4 204.6,519.1 		"/>
		
			<rect x="239.6" y="467.4" transform="matrix(0.3 -0.9539 0.9539 0.3 -304.2853 579.2369)" class="st100" width="5.9" height="59.1"/>
		
			<rect x="205.8" y="480.4" transform="matrix(0.3 -0.9539 0.9539 0.3 -317.8206 539.524)" class="st100" width="5.9" height="11.9"/>
		
			<rect x="223.4" y="476.6" transform="matrix(0.3 -0.9539 0.9539 0.3 -298.9973 551.5587)" class="st100" width="5.9" height="5.9"/>
		<rect x="223.2" y="486.6" transform="matrix(0.3 -0.9539 0.9539 0.3 -306.616 561.3409)" class="st100" width="12" height="5.9"/>
		
			<rect x="219.4" y="468.9" transform="matrix(0.3 -0.9539 0.9539 0.3 -294.4341 542.4074)" class="st100" width="5.9" height="5.9"/>
		
			<rect x="240.6" y="500.6" transform="matrix(0.3 -0.9539 0.9539 0.3 -309.8568 584.8664)" class="st100" width="5.9" height="5.9"/>
		
			<rect x="233.2" y="504.4" transform="matrix(0.3 -0.9539 0.9539 0.3 -318.6776 580.4332)" class="st100" width="5.9" height="5.9"/>
		
			<rect x="225.8" y="508.3" transform="matrix(0.3 -0.9539 0.9539 0.3 -327.5859 576.1202)" class="st100" width="5.9" height="5.9"/>
		
			<rect x="249.5" y="472.4" transform="matrix(0.3 -0.9539 0.9539 0.3 -276.7204 573.5477)" class="st100" width="5.9" height="5.9"/>
		
			<rect x="253.4" y="490" transform="matrix(0.3 -0.9539 0.9539 0.3 -288.7608 592.4913)" class="st100" width="11.9" height="5.9"/>
		
			<rect x="253.4" y="480.4" transform="matrix(0.3 -0.9539 0.9539 0.3 -281.6522 582.8522)" class="st100" width="5.9" height="5.9"/>
		<rect x="250.1" y="509.8" transform="matrix(0.3 -0.9539 0.9539 0.3 -311.9523 600.3505)" class="st1" width="5.9" height="5.9"/>
		
			<rect x="209.9" y="490.9" transform="matrix(0.3 -0.9539 0.9539 0.3 -322.0973 548.7621)" class="st100" width="5.9" height="5.9"/>
		<rect x="242.7" y="513.6" transform="matrix(0.3 -0.9539 0.9539 0.3 -320.8406 595.9761)" class="st1" width="5.9" height="5.9"/>
		<rect x="232.6" y="467" transform="matrix(0.3 -0.9539 0.9539 0.3 -283.4572 553.7214)" class="st1" width="5.9" height="5.9"/>
	</g>
</g>
</svg>
