<?xml version="1.0" encoding="utf-8"?>
<!-- Generator: Adobe Illustrator 25.2.3, SVG Export Plug-In . SVG Version: 6.00 Build 0)  -->
<svg version="1.1" xmlns="http://www.w3.org/2000/svg" xmlns:xlink="http://www.w3.org/1999/xlink" x="0px" y="0px"
	 viewBox="0 0 700 130" style="enable-background:new 0 0 700 130;" xml:space="preserve">
<style type="text/css">
	.st0{fill:#FFFFFF;}
	.st1{fill:#21851D;}
	.st2{fill:#135110;}
	.st3{fill:#8A370F;}
	.st4{fill:#FFDE01;}
	.st5{fill:#FCB912;}
	.st6{fill:#FCF54D;}
	.st7{fill:#A7B941;}
	.st8{fill:#E0E48D;}
	.st9{fill:#DA895E;}
	.st10{fill:#63240B;}
	.st11{fill:#DC0000;}
	.st12{fill:#AE0002;}
	.st13{fill:#FF7A69;}
	.st14{fill:#426024;}
	.st15{fill:#649238;}
	.st16{fill:#EB1C24;}
	.st17{fill:#37A01A;}
	.st18{fill:#F4CB00;}
	.st19{fill:#C30C08;}
	.st20{fill:#FA5810;}
	.st21{fill:#432355;}
	.st22{fill:#F8C09D;}
	.st23{fill:#B31D4A;}
	.st24{fill:#DC1C4B;}
	.st25{fill:#FFE627;}
	.st26{fill:#FFAD27;}
	.st27{fill:#FFF576;}
	.st28{fill:#BCD531;}
	.st29{fill:#7F2600;}
	.st30{fill:#E0E11B;}
	.st31{fill:#98C93C;}
	.st32{fill:#A13906;}
	.st33{fill:#0B5389;}
	.st34{fill:#0C3352;}
	.st35{fill:#3279A5;}
	.st36{fill:#0F4B70;}
	.st37{fill:#DBCEAC;}
	.st38{fill:#FFF6DA;}
	.st39{fill:#FFF4D8;}
	.st40{fill:#BFAF8B;}
	.st41{fill:#6B2114;}
	.st42{fill:#F2CF95;}
	.st43{fill:#C88C43;}
	.st44{fill:#7B3720;}
	.st45{fill:#9C5738;}
	.st46{fill:#DDB67D;}
	.st47{fill:#FFE2AE;}
	.st48{fill:#133415;}
	.st49{fill:#608D62;}
	.st50{fill:#305937;}
	.st51{fill:#2E9649;}
	.st52{fill:#FF854E;}
	.st53{fill:#3BA746;}
	.st54{fill:#308A43;}
	.st55{fill:#F76140;}
	.st56{fill:#FCBB5E;}
	.st57{fill:#4E1349;}
	.st58{fill:#8A428E;}
	.st59{fill:#2A0E27;}
	.st60{fill:#2B853F;}
	.st61{fill:#83AA37;}
	.st62{fill:#96CB3B;}
	.st63{fill:#B1E656;}
	.st64{fill:#5C9514;}
	.st65{fill:#4F7319;}
	.st66{fill:#645C5A;}
	.st67{fill:#7F6D57;}
	.st68{fill:#4B423B;}
	.st69{fill:#E9E1D4;}
	.st70{fill:#9A0A14;}
	.st71{fill:#FCFAE1;}
	.st72{fill:#F8151E;}
	.st73{fill:#DA191E;}
	.st74{fill:#F9572B;}
	.st75{fill:#F79B20;}
	.st76{fill:#F36527;}
	.st77{fill:#FBD371;}
	.st78{fill:#EFEF97;}
	.st79{fill:#D87E3D;}
	.st80{fill:#B55E2C;}
	.st81{fill:#ED9857;}
	.st82{fill:#803415;}
	.st83{fill:#8B561D;}
	.st84{fill:#95B90B;}
	.st85{fill:#B5CE4D;}
	.st86{fill:#FFFEFF;}
	.st87{fill:#000900;}
	.st88{fill:#61176E;}
	.st89{fill:#4A1056;}
	.st90{fill:#A126B8;}
	.st91{fill:#EA0F13;}
	.st92{fill:#BC0406;}
	.st93{fill:#F9B6BD;}
	.st94{fill:#D1282B;}
	.st95{fill:#EC2125;}
	.st96{fill:#881719;}
	.st97{fill:#ADC45C;}
	.st98{fill:#717D33;}
	.st99{fill:#C0D667;}
	.st100{fill:#78C433;}
	.st101{fill:#D22127;}
	.st102{fill:#E4696C;}
	.st103{fill:#BC2325;}
	.st104{fill:#FB8794;}
	.st105{fill:#A3242B;}
</style>
<g id="Layer_1">
</g>
<g id="Layer_2">
</g>
<g id="Layer_3">
	<g>
		<polygon class="st61" points="311,88.5 308,87.4 310.2,81.5 307.3,80.4 308.3,77.6 305.4,76.5 306.5,73.6 303.6,72.5 304.6,69.5 
			301.7,68.5 302.8,65.6 299.9,64.5 298.8,67.4 295.8,66.4 294.8,69.2 291.9,68.2 290.8,71.1 287.9,70 286.8,72.9 283.9,71.9 
			281.8,77.8 278.8,76.7 272.4,94.1 275.3,95.2 274.2,98.2 277.2,99.2 276.1,102.2 279,103.3 277.9,106.1 280.9,107.2 279.8,110.1 
			282.7,111.2 281.6,114.2 284.6,115.2 285.6,112.3 288.5,113.4 289.6,110.5 292.5,111.5 293.6,108.6 296.5,109.7 297.6,106.8 
			300.5,107.8 301.6,104.9 304.5,106 		"/>
		
			<rect x="285.5" y="73.9" transform="matrix(0.3449 -0.9386 0.9386 0.3449 116.8386 321.3686)" class="st62" width="6.2" height="6.2"/>
		
			<rect x="290.1" y="71.6" transform="matrix(0.3449 -0.9386 0.9386 0.3449 122.3539 321.7346)" class="st63" width="3.1" height="3.1"/>
		
			<rect x="285.1" y="76.4" transform="matrix(0.3449 -0.9386 0.9386 0.3449 114.6135 320.1017)" class="st63" width="3.1" height="3.1"/>
		
			<rect x="301.8" y="75.9" transform="matrix(0.3449 -0.9386 0.9386 0.3449 126.023 335.4717)" class="st63" width="3.1" height="3.1"/>
		
			<rect x="280.2" y="103.3" transform="matrix(0.3449 -0.9386 0.9386 0.3449 87.1547 334.6407)" class="st64" width="6.2" height="3.1"/>
		
			<rect x="280.4" y="97.8" transform="matrix(0.3449 -0.9386 0.9386 0.3449 91.4245 329.8043)" class="st64" width="3.1" height="3.1"/>
		
			<rect x="280" y="108.8" transform="matrix(0.3449 -0.9386 0.9386 0.3449 82.8816 339.4977)" class="st64" width="9.4" height="3.1"/>
		
			<rect x="283" y="105.5" transform="matrix(0.3449 -0.9386 0.9386 0.3449 88.9633 341.5819)" class="st64" width="12.4" height="3.1"/>
		
			<rect x="268.8" y="92.8" transform="matrix(0.3449 -0.9386 0.9386 0.3449 101.8155 334.5561)" class="st65" width="43.5" height="3.1"/>
		
			<rect x="292.6" y="99.7" transform="matrix(0.3449 -0.9386 0.9386 0.3449 97.2204 344.918)" class="st64" width="6.2" height="6.2"/>
		
			<rect x="303.6" y="79.9" transform="matrix(0.3449 -0.9386 0.9386 0.3449 123.4668 339.8357)" class="st63" width="3.1" height="3.1"/>
		
			<rect x="289" y="106.5" transform="matrix(0.3449 -0.9386 0.9386 0.3449 89.9022 344.9825)" class="st64" width="6.2" height="3.1"/>
		
			<rect x="298.6" y="80.3" transform="matrix(0.3449 -0.9386 0.9386 0.3449 120.8726 336.8197)" class="st62" width="6.2" height="3.1"/>
		
			<rect x="285.9" y="78.9" transform="matrix(0.3449 -0.9386 0.9386 0.3449 113.8101 324.0191)" class="st62" width="6.2" height="3.1"/>
		
			<rect x="288.6" y="97.1" transform="matrix(0.3449 -0.9386 0.9386 0.3449 98.0425 341.0015)" class="st61" width="9.4" height="6.2"/>
		
			<rect x="302.3" y="92.6" transform="matrix(0.3449 -0.9386 0.9386 0.3449 110.5956 346.8853)" class="st64" width="3.1" height="3.1"/>
		
			<rect x="282.9" y="82.2" transform="matrix(0.3449 -0.9386 0.9386 0.3449 107.7215 321.8851)" class="st62" width="3.1" height="3.1"/>
		
			<rect x="281" y="78.2" transform="matrix(0.3449 -0.9386 0.9386 0.3449 110.2307 317.5437)" class="st62" width="3.1" height="3.1"/>
		
			<rect x="294.1" y="69.8" transform="matrix(0.3449 -0.9386 0.9386 0.3449 126.7305 324.222)" class="st62" width="3.1" height="3.1"/>
	</g>
	<g>
		<polygon class="st70" points="688.4,42 688.4,34.6 681.1,34.6 681.1,27.2 673.6,27.2 673.6,19.8 651.4,19.8 651.4,12.4 651.4,5 
			644,5 644,12.4 636.6,12.4 636.6,5 629.2,5 629.2,12.4 621.8,12.4 621.8,5 614.4,5 614.4,12.4 614.4,19.8 592.2,19.8 592.2,27.2 
			584.7,27.2 584.7,34.6 577.4,34.6 577.4,42 569.9,42 569.9,101.3 577.4,101.3 577.4,108.7 584.7,108.7 584.7,116.1 592.2,116.1 
			592.2,123.5 673.6,123.5 673.6,116.1 681.1,116.1 681.1,108.7 688.4,108.7 688.4,101.3 695.9,101.3 695.9,42 		"/>
		<polygon class="st71" points="688.4,49.5 681.1,49.5 681.1,42 673.6,42 673.6,34.6 666.3,34.6 666.3,27.2 644,27.2 644,19.8 
			636.6,19.8 636.6,27.2 629.2,27.2 629.2,19.8 621.8,19.8 621.8,27.2 599.6,27.2 599.6,34.6 592.2,34.6 592.2,42 584.7,42 
			584.7,49.5 577.4,49.5 577.4,93.9 584.7,93.9 584.7,101.3 592.2,101.3 592.2,108.7 598.8,108.7 598.8,116.1 666.3,116.1 
			666.3,108.7 673.6,108.7 673.6,101.3 681.1,101.3 681.1,93.9 688.4,93.9 		"/>
		<polygon class="st72" points="607,34.6 607,42 599.6,42 599.6,49.5 592.2,49.5 592.2,56.9 584.7,56.9 584.7,79.1 592.2,79.1 
			607,79.1 629.2,79.1 629.2,64.3 629.2,49.5 629.2,42 629.2,34.6 		"/>
		<polygon class="st72" points="607,86.5 592.2,86.5 592.2,93.9 599.6,93.9 599.6,101.3 607,101.3 607,108.7 629.2,108.7 
			629.2,93.9 629.2,86.5 		"/>
		<polygon class="st72" points="658.8,34.6 658.8,42 666.3,42 666.3,49.5 673.6,49.5 673.6,56.9 681.1,56.9 681.1,79.1 673.6,79.1 
			658.8,79.1 636.6,79.1 636.6,64.3 636.6,49.5 636.6,42 636.6,34.6 		"/>
		<polygon class="st72" points="658.8,86.5 673.6,86.5 673.6,93.9 666.3,93.9 666.3,101.3 658.8,101.3 658.8,108.7 636.6,108.7 
			636.6,93.9 636.6,86.5 		"/>
		<rect x="644" y="49.5" class="st73" width="7.4" height="7.4"/>
		<rect x="658.8" y="56.9" class="st73" width="7.4" height="7.4"/>
		<rect x="644" y="64.3" class="st73" width="7.4" height="7.4"/>
		<rect x="651.4" y="42" class="st73" width="7.4" height="7.4"/>
		<rect x="636.6" y="34.6" class="st73" width="7.4" height="7.4"/>
		<rect x="673.6" y="64.3" class="st73" width="7.4" height="7.4"/>
		<rect x="658.8" y="71.7" class="st73" width="7.4" height="7.4"/>
		<rect x="644" y="86.5" class="st73" width="7.4" height="7.4"/>
		<rect x="658.8" y="93.9" class="st73" width="7.4" height="7.4"/>
		<rect x="614.4" y="86.5" class="st73" width="7.4" height="7.4"/>
		<rect x="599.6" y="64.3" class="st73" width="7.4" height="7.4"/>
		<rect x="614.4" y="49.5" class="st73" width="7.4" height="7.4"/>
		<rect x="607" y="93.9" class="st73" width="7.4" height="7.4"/>
		<rect x="621.8" y="64.3" class="st73" width="7.4" height="7.4"/>
		<rect x="599.6" y="49.5" class="st73" width="7.4" height="7.4"/>
		<rect x="621.8" y="34.6" class="st73" width="7.4" height="7.4"/>
		<rect x="584.7" y="64.3" class="st73" width="7.4" height="7.4"/>
		<rect x="644" y="101.3" class="st73" width="7.4" height="7.4"/>
		<rect x="614.4" y="101.3" class="st73" width="7.4" height="7.4"/>
		<rect x="592.2" y="86.5" class="st73" width="7.4" height="7.4"/>
		<rect x="666.3" y="86.5" class="st73" width="7.4" height="7.4"/>
		<rect x="651.4" y="56.9" class="st74" width="7.4" height="7.4"/>
		<rect x="607" y="56.9" class="st74" width="7.4" height="7.4"/>
		<rect x="614.4" y="71.7" class="st74" width="7.4" height="7.4"/>
		<rect x="621.8" y="93.9" class="st74" width="7.4" height="7.4"/>
		<rect x="644" y="93.9" class="st74" width="7.4" height="7.4"/>
		<rect x="658.8" y="86.5" class="st74" width="7.4" height="7.4"/>
		<rect x="621.8" y="42" class="st74" width="7.4" height="7.4"/>
		<rect x="607" y="42" class="st74" width="7.4" height="7.4"/>
		<rect x="599.6" y="86.5" class="st74" width="7.4" height="7.4"/>
		<rect x="666.3" y="49.5" class="st74" width="7.4" height="7.4"/>
		<rect x="636.6" y="71.7" class="st74" width="7.4" height="7.4"/>
	</g>
	<g>
		<polygon class="st75" points="100.5,49.6 95.1,49.6 95.1,44.3 89.8,44.3 89.8,39 84.5,39 84.5,33.6 79.1,33.6 79.1,28.3 
			25.9,28.3 25.9,33.6 20.6,33.6 20.6,39 15.2,39 15.2,44.3 9.9,44.3 9.9,49.6 4.6,49.6 4.6,92.3 9.9,92.3 9.9,97.5 15.2,97.5 
			15.2,102.9 20.6,102.9 20.6,108.2 25.9,108.2 25.9,113.5 79.1,113.5 79.1,108.2 84.5,108.2 84.5,102.9 89.8,102.9 89.8,97.5 
			95.1,97.5 95.1,92.3 100.5,92.3 		"/>
		<rect x="57.9" y="102.9" class="st76" width="21.3" height="10.6"/>
		<rect x="79.1" y="92.3" class="st76" width="5.4" height="16"/>
		<rect x="84.5" y="92.3" class="st76" width="5.4" height="10.6"/>
		<rect x="89.8" y="86.9" class="st76" width="5.4" height="10.6"/>
		<rect x="95.1" y="76.3" class="st76" width="5.4" height="16"/>
		<rect x="57.9" y="92.3" class="st75" width="16" height="16"/>
		<rect x="63.2" y="92.3" class="st76" width="5.4" height="5.4"/>
		<rect x="73.9" y="76.3" class="st76" width="5.4" height="5.4"/>
		<rect x="47.2" y="28.3" class="st76" width="16" height="5.4"/>
		<rect x="63.2" y="49.6" class="st76" width="5.4" height="5.4"/>
		<rect x="73.9" y="33.6" class="st76" width="5.4" height="5.4"/>
		<rect x="25.9" y="102.9" class="st76" width="5.4" height="5.4"/>
		<rect x="14.7" y="97.5" class="st76" width="5.9" height="5.4"/>
		<rect x="20.6" y="49.6" class="st77" width="5.4" height="10.6"/>
		<rect x="25.3" y="44.3" class="st77" width="5.4" height="5.4"/>
		<rect x="20.6" y="44.3" class="st78" width="5.4" height="5.4"/>
		<rect x="31.2" y="55" class="st77" width="5.4" height="5.4"/>
		<rect x="15.2" y="49.6" class="st78" width="5.4" height="5.4"/>
		<rect x="89.8" y="70.9" class="st77" width="5.4" height="10.6"/>
		<rect x="20.6" y="65.6" class="st77" width="5.4" height="5.4"/>
		<rect x="9.9" y="60.3" class="st76" width="5.4" height="5.4"/>
		<rect x="95.1" y="60.3" class="st77" width="5.4" height="10.6"/>
		<rect x="52.5" y="33.6" class="st76" width="16" height="5.4"/>
		<rect x="31.2" y="33.6" class="st77" width="5.4" height="5.4"/>
	</g>
	<g>
		<polygon class="st61" points="284.4,22 282,22.5 281,17.6 278.6,18.2 278.1,15.7 275.6,16.2 275.1,13.8 272.6,14.3 272.1,11.9 
			269.7,12.5 269.2,10 266.8,10.5 267.3,13 264.9,13.5 265.4,15.9 263,16.4 263.5,18.8 261,19.3 261.6,21.8 259.1,22.3 260.2,27.2 
			257.7,27.7 260.8,42.3 263.2,41.8 263.8,44.2 266.2,43.7 266.7,46.1 269.1,45.6 269.7,48 272.1,47.5 272.6,49.9 275.1,49.4 
			275.6,51.8 278,51.3 277.5,48.9 279.9,48.4 279.4,46 281.8,45.5 281.3,43 283.7,42.5 283.2,40.1 285.6,39.5 285.1,37.1 
			287.6,36.6 		"/>
		<rect x="262.1" y="21.3" transform="matrix(0.9781 -0.2083 0.2083 0.9781 0.8582 55.629)" class="st62" width="5" height="5"/>
		
			<rect x="263.7" y="18.6" transform="matrix(0.9781 -0.2083 0.2083 0.9781 1.6838 55.6293)" class="st63" width="2.5" height="2.5"/>
		
			<rect x="262.3" y="23.9" transform="matrix(0.9781 -0.2083 0.2083 0.9781 0.5381 55.4544)" class="st63" width="2.5" height="2.5"/>
		
			<rect x="273.5" y="16.5" transform="matrix(0.9781 -0.2083 0.2083 0.9781 2.336 57.6143)" class="st63" width="2.5" height="2.5"/>
		
			<rect x="271.6" y="42.3" transform="matrix(0.9781 -0.2083 0.2083 0.9781 -3.3534 57.8242)" class="st64" width="2.5" height="5"/>
		
			<rect x="268.4" y="40.4" transform="matrix(0.9781 -0.2083 0.2083 0.9781 -2.7674 57.0776)" class="st64" width="2.5" height="2.5"/>
		
			<rect x="274.8" y="44.3" transform="matrix(0.9781 -0.2083 0.2083 0.9781 -3.9409 58.5571)" class="st64" width="2.5" height="7.5"/>
		
			<rect x="276.5" y="38.8" transform="matrix(0.9781 -0.2083 0.2083 0.9781 -3.0349 58.8108)" class="st64" width="2.5" height="9.9"/>
		
			<rect x="272" y="17.2" transform="matrix(0.9781 -0.2083 0.2083 0.9781 -1.2091 57.6652)" class="st65" width="2.5" height="34.8"/>
		<rect x="277.8" y="35.7" transform="matrix(0.9781 -0.2083 0.2083 0.9781 -1.7965 59.2235)" class="st64" width="5" height="5"/>
		
			<rect x="276.4" y="18.4" transform="matrix(0.9781 -0.2083 0.2083 0.9781 2.002 58.2667)" class="st63" width="2.5" height="2.5"/>
		
			<rect x="278.9" y="40.8" transform="matrix(0.9781 -0.2083 0.2083 0.9781 -2.8757 59.3039)" class="st64" width="2.5" height="5"/>
		<rect x="274.3" y="18.9" transform="matrix(0.9781 -0.2083 0.2083 0.9781 1.5892 57.8538)" class="st62" width="2.5" height="5"/>
		<rect x="265" y="23.4" transform="matrix(0.9781 -0.2083 0.2083 0.9781 0.4438 56.0281)" class="st62" width="2.5" height="5"/>
		
			<rect x="275.2" y="33.7" transform="matrix(0.9781 -0.2083 0.2083 0.9781 -1.7162 58.6516)" class="st61" width="5" height="7.5"/>
		<rect x="281" y="27.6" transform="matrix(0.9781 -0.2083 0.2083 0.9781 0.1761 59.4122)" class="st64" width="2.5" height="2.5"/>
		
			<rect x="263.4" y="28.8" transform="matrix(0.9781 -0.2083 0.2083 0.9781 -0.4622 55.7745)" class="st62" width="2.5" height="2.5"/>
		
			<rect x="260.4" y="26.9" transform="matrix(0.9781 -0.2083 0.2083 0.9781 -0.1145 55.1204)" class="st62" width="2.5" height="2.5"/>
		
			<rect x="265.7" y="15.6" transform="matrix(0.9781 -0.2083 0.2083 0.9781 2.3361 55.9632)" class="st62" width="2.5" height="2.5"/>
	</g>
	<g>
		<polygon class="st101" points="203.7,24.3 206.6,19.7 204.3,18.3 205.7,16 203.4,14.6 204.8,12.4 202.5,10.9 200.3,9.5 198.1,8.1 
			196.6,10.4 194.4,9 193,11.3 190.7,9.9 187.9,14.4 185.6,13 174.3,31.1 176.6,32.5 175.2,34.8 177.4,36.2 176,38.4 178.4,39.9 
			176.9,42.2 183.7,46.4 185.1,44.2 187.4,45.5 188.8,43.3 191,44.7 192.4,42.4 194.7,43.8 206,25.7 		"/>
		
			<rect x="180.3" y="17.3" transform="matrix(0.5292 -0.8485 0.8485 0.5292 72.2576 167.4082)" class="st102" width="13.3" height="2.7"/>
		
			<rect x="188.1" y="39.3" transform="matrix(0.5292 -0.8485 0.8485 0.5292 55.9796 182.128)" class="st103" width="8" height="2.7"/>
		
			<rect x="184.5" y="40.4" transform="matrix(0.5292 -0.8485 0.8485 0.5292 50.9655 177.9964)" class="st103" width="2.7" height="5.4"/>
		
			<rect x="191.7" y="38.5" transform="matrix(0.5292 -0.8485 0.8485 0.5292 58.3552 184.8434)" class="st103" width="8" height="2.7"/>
		
			<rect x="181.3" y="42.1" transform="matrix(0.5292 -0.8485 0.8485 0.5292 49.7567 176.5673)" class="st103" width="5.4" height="2.7"/>
		
			<rect x="190.1" y="12.9" transform="matrix(0.5292 -0.8485 0.8485 0.5292 78.6505 170.278)" class="st104" width="5.4" height="2.7"/>
		
			<rect x="187.1" y="14.9" transform="matrix(0.5292 -0.8485 0.8485 0.5292 74.8905 167.5115)" class="st104" width="2.7" height="2.7"/>
		
			<rect x="193.7" y="30.3" transform="matrix(0.5292 -0.8485 0.8485 0.5292 66.261 182.642)" class="st103" width="8" height="2.7"/>
		
			<rect x="187" y="40.1" transform="matrix(0.5292 -0.8485 0.8485 0.5292 53.5111 179.366)" class="st103" width="2.7" height="2.7"/>
		
			<rect x="189.3" y="41.6" transform="matrix(0.5292 -0.8485 0.8485 0.5292 53.3675 181.9653)" class="st105" width="2.7" height="2.7"/>
		
			<rect x="185.6" y="42.4" transform="matrix(0.5292 -0.8485 0.8485 0.5292 50.9276 179.236)" class="st105" width="2.7" height="2.7"/>
		
			<rect x="182" y="43.3" transform="matrix(0.5292 -0.8485 0.8485 0.5292 48.45 176.5247)" class="st105" width="2.7" height="2.7"/>
	</g>
	<g>
		<polygon class="st79" points="117.4,109.9 116.8,113.3 120.1,113.8 119.6,117.1 136.2,119.9 136.8,116.6 140.1,117.1 140.6,113.8 
			143.9,114.4 147.8,91.1 144.5,90.6 145.6,83.9 142.3,83.4 142.8,80 139.5,79.5 140.1,76.2 136.8,75.7 137.3,72.3 134,71.8 
			133.4,75.1 130.1,74.5 129.6,77.9 126.3,77.3 125.7,80.6 122.4,80 121.2,86.7 117.9,86.2 114.1,109.4 		"/>
		
			<rect x="125.1" y="106.7" transform="matrix(0.1645 -0.9864 0.9864 0.1645 -6.2033 222.9161)" class="st80" width="6.8" height="16.8"/>
		
			<rect x="113.4" y="101.8" transform="matrix(0.1645 -0.9864 0.9864 0.1645 -1.7163 205.0324)" class="st80" width="13.4" height="3.4"/>
		
			<rect x="120.6" y="100.2" transform="matrix(0.1645 -0.9864 0.9864 0.1645 8.7142 214.0065)" class="st80" width="20.2" height="3.4"/>
		
			<rect x="133.4" y="105.2" transform="matrix(0.1645 -0.9864 0.9864 0.1645 11.626 227.539)" class="st80" width="13.4" height="3.4"/>
		
			<rect x="121" y="86.9" transform="matrix(0.1645 -0.9864 0.9864 0.1645 15.1541 195.0531)" class="st80" width="3.4" height="3.4"/>
		
			<rect x="140.9" y="90.2" transform="matrix(0.1645 -0.9864 0.9864 0.1645 28.5018 217.3842)" class="st80" width="3.4" height="3.4"/>
		
			<rect x="132.1" y="81.9" transform="matrix(0.1645 -0.9864 0.9864 0.1645 29.2627 201.7923)" class="st80" width="3.4" height="3.4"/>
		
			<rect x="127.1" y="101.7" transform="matrix(0.1645 -0.9864 0.9864 0.1645 -4.3179 221.8242)" class="st80" width="3.4" height="23.6"/>
		
			<rect x="121" y="107.4" transform="matrix(0.1645 -0.9864 0.9864 0.1645 -5.1043 212.1326)" class="st80" width="3.4" height="3.4"/>
		
			<rect x="134.2" y="109.6" transform="matrix(0.1645 -0.9864 0.9864 0.1645 3.7539 227.0993)" class="st80" width="3.4" height="3.4"/>
		
			<rect x="139.3" y="108.8" transform="matrix(0.1645 -0.9864 0.9864 0.1645 7.1494 232.762)" class="st80" width="3.4" height="6.8"/>
		
			<rect x="116" y="104.9" transform="matrix(0.1645 -0.9864 0.9864 0.1645 -8.4339 206.5407)" class="st80" width="3.4" height="6.8"/>
		
			<rect x="131.8" y="73.6" transform="matrix(0.1645 -0.9864 0.9864 0.1645 38.6529 196.2138)" class="st81" width="6.8" height="3.4"/>
		
			<rect x="135.9" y="79.2" transform="matrix(0.1645 -0.9864 0.9864 0.1645 35.1942 203.328)" class="st81" width="3.4" height="3.4"/>
		
			<rect x="138.1" y="86.4" transform="matrix(0.1645 -0.9864 0.9864 0.1645 29.9493 211.4826)" class="st81" width="3.4" height="3.4"/>
		
			<rect x="135" y="94.6" transform="matrix(0.1645 -0.9864 0.9864 0.1645 20.6315 217.0098)" class="st81" width="6.8" height="3.4"/>
		
			<rect x="123.2" y="94.1" transform="matrix(0.1645 -0.9864 0.9864 0.1645 9.8708 203.2952)" class="st81" width="3.4" height="3.4"/>
		
			<rect x="142.3" y="92.4" transform="matrix(0.1645 -0.9864 0.9864 0.1645 28.9098 222.3512)" class="st81" width="6.8" height="3.4"/>
		
			<rect x="117.2" y="110.2" transform="matrix(0.1645 -0.9864 0.9864 0.1645 -11.0312 210.6949)" class="st82" width="3.4" height="3.4"/>
		
			<rect x="124.8" y="113.2" transform="matrix(0.1645 -0.9864 0.9864 0.1645 -9.2496 222.1868)" class="st82" width="3.4" height="6.8"/>
		
			<rect x="130.4" y="112.4" transform="matrix(0.1645 -0.9864 0.9864 0.1645 -2.1504 225.5669)" class="st82" width="3.4" height="3.4"/>
		
			<rect x="134.2" y="109.6" transform="matrix(0.1645 -0.9864 0.9864 0.1645 3.7539 227.0993)" class="st79" width="3.4" height="3.4"/>
		
			<rect x="124.8" y="84.1" transform="matrix(0.1645 -0.9864 0.9864 0.1645 21.0972 196.479)" class="st81" width="3.4" height="3.4"/>
	</g>
	<g>
		<polygon class="st88" points="139.9,14.7 139.9,11.3 136.5,11.3 136.5,7.9 133.1,7.9 133.1,4.5 116.1,4.5 116.1,7.9 112.7,7.9 
			112.7,11.3 109.2,11.3 109.2,14.7 105.9,14.7 105.9,31.7 109.2,31.7 109.2,35.2 112.7,35.2 112.7,38.5 116.1,38.5 116.1,42 
			133.1,42 133.1,38.5 136.5,38.5 136.5,35.2 139.9,35.2 139.9,31.7 143.3,31.7 143.3,14.7 		"/>
		<polygon class="st89" points="129.7,18.1 129.7,14.7 119.4,14.7 119.4,18.1 116.1,18.1 116.1,28.3 119.4,28.3 119.4,31.7 
			129.7,31.7 129.7,28.3 133.1,28.3 133.1,18.1 		"/>
		<rect x="112.7" y="11.3" class="st90" width="3.4" height="3.4"/>
		<polygon class="st59" points="129.7,21.5 126.3,21.5 126.3,18.1 122.9,18.1 122.9,21.5 119.4,21.5 119.4,25 122.9,25 122.9,28.3 
			126.3,28.3 126.3,25 129.7,25 		"/>
		<rect x="109.2" y="14.7" class="st90" width="3.4" height="10.2"/>
		<rect x="133.1" y="31.7" class="st90" width="3.4" height="3.4"/>
		<rect x="136.5" y="25" class="st90" width="3.4" height="6.8"/>
	</g>
	<g>
		<polygon class="st16" points="349.1,55.8 339.9,76 343.2,77.6 340.1,84.3 343.5,85.8 342,89.2 345.3,90.7 343.8,94.1 347.2,95.6 
			345.6,99 349,100.5 347.5,103.9 350.8,105.5 349.3,108.8 362.8,115 364.3,111.6 367.7,113.1 369.2,109.8 372.6,111.3 374.1,108 
			377.5,109.5 379.1,106.1 382.4,107.6 384,104.3 387.3,105.8 390.4,99.1 393.8,100.6 403,80.4 399.6,78.8 401.2,75.5 397.8,73.9 
			399.3,70.6 358.9,52.1 357.4,55.5 354,53.9 352.4,57.3 		"/>
		<g>
			
				<rect x="391.3" y="59.8" transform="matrix(0.4153 -0.9097 0.9097 0.4153 173.7877 393.7476)" class="st17" width="3.7" height="3.7"/>
			
				<rect x="388.2" y="66.6" transform="matrix(0.4153 -0.9097 0.9097 0.4153 165.8495 394.8768)" class="st17" width="3.7" height="3.7"/>
			<polygon class="st17" points="370.6,53.4 369,56.7 372.4,58.3 370.8,61.6 384.3,67.8 385.9,64.5 389.2,66 390.8,62.6 387.4,61.1 
				384,59.5 387.1,52.8 380.4,49.7 377.3,56.4 373.9,54.9 			"/>
			
				<rect x="364.6" y="55.8" transform="matrix(0.4153 -0.9097 0.9097 0.4153 161.8212 367.1317)" class="st17" width="3.7" height="3.7"/>
			
				<rect x="367.7" y="49.1" transform="matrix(0.4153 -0.9097 0.9097 0.4153 169.7616 366.0001)" class="st17" width="3.7" height="3.7"/>
		</g>
		
			<rect x="358.5" y="69.3" transform="matrix(0.4153 -0.9097 0.9097 0.4153 145.9388 369.3868)" class="st18" width="3.7" height="3.7"/>
		
			<rect x="372.9" y="100.3" transform="matrix(0.4153 -0.9097 0.9097 0.4153 126.1916 400.5975)" class="st18" width="3.7" height="3.7"/>
		
			<rect x="377.7" y="71.8" transform="matrix(0.4153 -0.9097 0.9097 0.4153 154.9541 388.3283)" class="st18" width="3.7" height="3.7"/>
		
			<rect x="363.9" y="84.1" transform="matrix(0.4153 -0.9097 0.9097 0.4153 135.7263 382.9898)" class="st18" width="3.7" height="3.7"/>
		
			<rect x="349" y="81.2" transform="matrix(0.4153 -0.9097 0.9097 0.4153 129.5397 367.7516)" class="st18" width="3.7" height="3.7"/>
		
			<rect x="356.3" y="100.8" transform="matrix(0.4153 -0.9097 0.9097 0.4153 115.9943 385.8463)" class="st18" width="3.7" height="3.7"/>
		
			<rect x="376.8" y="52" transform="matrix(0.4153 -0.9097 0.9097 0.4153 173.5124 377.5854)" class="st1" width="7.4" height="3.7"/>
		
			<rect x="378.1" y="61.9" transform="matrix(0.4153 -0.9097 0.9097 0.4153 164.154 382.9666)" class="st1" width="3.7" height="3.7"/>
		
			<rect x="347.9" y="95.2" transform="matrix(0.4153 -0.9097 0.9097 0.4153 114.5104 375.9641)" class="st19" width="3.7" height="7.4"/>
		
			<rect x="346" y="90.3" transform="matrix(0.4153 -0.9097 0.9097 0.4153 117.912 371.4299)" class="st19" width="3.7" height="7.4"/>
		
			<rect x="346.9" y="99.4" transform="matrix(0.4153 -0.9097 0.9097 0.4153 112.8807 378.1888)" class="st19" width="7.4" height="3.7"/>
		
			<rect x="342.5" y="86.4" transform="matrix(0.4153 -0.9097 0.9097 0.4153 121.0348 364.9131)" class="st19" width="3.7" height="3.7"/>
		
			<rect x="339.6" y="79.8" transform="matrix(0.4153 -0.9097 0.9097 0.4153 126.4576 359.9752)" class="st19" width="7.4" height="3.7"/>
		
			<rect x="342.1" y="72.2" transform="matrix(0.4153 -0.9097 0.9097 0.4153 132.1011 357.2621)" class="st19" width="3.7" height="7.4"/>
		
			<rect x="338.2" y="69.8" transform="matrix(0.4153 -0.9097 0.9097 0.4153 135.7785 354.6159)" class="st19" width="11.1" height="3.7"/>
		
			<rect x="351.5" y="105.1" transform="matrix(0.4153 -0.9097 0.9097 0.4153 107.6968 385.0332)" class="st19" width="3.7" height="7.4"/>
		
			<rect x="388.5" y="84.6" transform="matrix(0.4153 -0.9097 0.9097 0.4153 151.6998 409.0226)" class="st20" width="11.1" height="3.7"/>
		
			<rect x="391.9" y="76.4" transform="matrix(0.4153 -0.9097 0.9097 0.4153 159.0381 403.9433)" class="st20" width="3.7" height="3.7"/>
		
			<rect x="390.1" y="71.5" transform="matrix(0.4153 -0.9097 0.9097 0.4153 162.444 399.4086)" class="st20" width="3.7" height="3.7"/>
		
			<rect x="385.4" y="81.6" transform="matrix(0.4153 -0.9097 0.9097 0.4153 150.5312 401.1043)" class="st18" width="3.7" height="3.7"/>
		
			<rect x="383.1" y="91.5" transform="matrix(0.4153 -0.9097 0.9097 0.4153 141.2479 406.4417)" class="st20" width="7.4" height="3.7"/>
	</g>
	<g>
		<polygon class="st66" points="544.3,35.4 538.8,35.4 538.8,30 533.4,30 533.4,24.6 500.8,24.6 500.8,30 495.3,30 495.3,35.4 
			489.9,35.4 489.9,62.6 495.3,62.6 495.3,68.1 500.8,68.1 500.8,73.5 533.4,73.5 533.4,68.1 538.8,68.1 538.8,62.6 544.3,62.6 		
			"/>
		<rect x="522.5" y="46.3" class="st67" width="10.9" height="5.4"/>
		<rect x="527.9" y="13.7" class="st67" width="10.9" height="5.4"/>
		<rect x="527.9" y="30" class="st67" width="10.9" height="5.4"/>
		<rect x="500.8" y="35.4" class="st68" width="10.9" height="5.4"/>
		<rect x="506.2" y="62.6" class="st68" width="10.9" height="5.4"/>
		<rect x="527.9" y="79" class="st67" width="10.9" height="5.4"/>
		<rect x="506.2" y="8.3" class="st68" width="10.9" height="5.4"/>
		<rect x="508.6" y="81.9" class="st68" width="5.4" height="5.4"/>
		<rect x="555.1" y="40.9" class="st67" width="5.4" height="5.4"/>
		<rect x="495.3" y="46.3" class="st69" width="10.9" height="5.4"/>
		<rect x="517.1" y="24.6" class="st69" width="10.9" height="5.4"/>
		<rect x="527.9" y="62.6" class="st69" width="5.4" height="5.4"/>
		<rect x="517.1" y="40.9" class="st69" width="5.4" height="5.4"/>
		<rect x="479" y="73.5" class="st69" width="10.9" height="5.4"/>
		<rect x="544.3" y="68.1" class="st69" width="5.4" height="5.4"/>
		<rect x="522.5" y="51.7" class="st68" width="5.4" height="5.4"/>
		<rect x="489.9" y="13.7" class="st68" width="5.4" height="5.4"/>
		<rect x="473.6" y="30" class="st67" width="10.9" height="5.4"/>
		<rect x="479" y="57.2" class="st67" width="5.4" height="5.4"/>
	</g>
	<g>
		<polygon class="st21" points="248.5,88.7 251.4,81 247.6,79.6 249,75.7 245.2,74.3 246.7,70.4 242.9,68.9 244.3,65.1 240.5,63.6 
			242,59.8 238.1,58.3 239.6,54.5 235.8,53 240.2,41.6 232.5,38.6 228.1,50.1 224.3,48.6 222.8,52.5 219,51 217.6,54.8 213.7,53.4 
			212.2,57.2 208.4,55.7 207,59.5 203.1,58.1 201.6,61.9 197.8,60.4 194.9,68.1 191,66.6 182.2,89.6 186.1,91 184.6,94.9 
			188.4,96.4 187,100.2 232.8,117.8 234.3,114 238.1,115.4 239.7,111.6 243.5,113.1 252.3,90.1 		"/>
		<polygon class="st22" points="247,92.5 243.2,91 246.1,83.4 242.3,81.9 243.7,78.1 239.9,76.6 241.4,72.8 237.6,71.3 239,67.5 
			235.2,66 236.7,62.2 232.8,60.7 234.3,56.9 226.7,53.9 225.2,57.8 221.4,56.3 219.8,60.1 216.1,58.7 214.6,62.5 210.7,61 
			209.3,64.8 205.4,63.4 204,67.2 200.2,65.7 197.2,73.4 193.4,71.9 187.5,87.2 191.4,88.7 189.9,92.6 193.7,94 192.2,97.8 
			207.5,103.7 215.2,106.6 230.5,112.5 232,108.7 235.8,110.1 237.2,106.3 241.1,107.8 		"/>
		<polygon class="st23" points="243.2,91 239.3,89.6 240.8,85.7 237,84.3 238.5,80.4 234.6,79 236.1,75.1 232.3,73.7 233.7,69.9 
			229.9,68.3 231.4,64.5 223.7,61.6 222.2,65.4 218.4,63.9 217,67.8 213.1,66.3 211.6,70.1 207.8,68.7 206.3,72.5 202.5,71 
			201,74.8 197.2,73.4 192.8,84.8 196.6,86.3 195.2,90.1 199,91.7 197.5,95.4 228.1,107.2 229.7,103.4 233.4,104.9 234.9,101 
			238.8,102.5 		"/>
		
			<rect x="231.9" y="90.4" transform="matrix(0.3584 -0.9336 0.9336 0.3584 65.0809 279.6462)" class="st24" width="8.2" height="4.1"/>
		
			<rect x="213.6" y="92.3" transform="matrix(0.3584 -0.9336 0.9336 0.3584 51.6408 263.7942)" class="st24" width="8.2" height="4.1"/>
		
			<rect x="206.4" y="76.2" transform="matrix(0.3584 -0.9336 0.9336 0.3584 62.0424 246.7155)" class="st24" width="8.2" height="4.1"/>
		
			<rect x="200.2" y="75.3" transform="matrix(0.3584 -0.9336 0.9336 0.3584 57.5661 238.4492)" class="st24" width="4.1" height="4.1"/>
		
			<rect x="215.8" y="68" transform="matrix(0.3584 -0.9336 0.9336 0.3584 74.3803 248.2717)" class="st24" width="4.1" height="4.1"/>
		
			<rect x="207.3" y="91.4" transform="matrix(0.3584 -0.9336 0.9336 0.3584 47.069 255.4171)" class="st24" width="4.1" height="4.1"/>
		
			<rect x="223.2" y="84.3" transform="matrix(0.3584 -0.9336 0.9336 0.3584 63.9846 265.6875)" class="st24" width="4.1" height="4.1"/>
		<rect x="230" y="78" transform="matrix(0.3584 -0.9336 0.9336 0.3584 74.1652 267.9525)" class="st24" width="4.1" height="4.1"/>
		
			<rect x="222.5" y="69.3" transform="matrix(0.3584 -0.9336 0.9336 0.3584 78.7906 257.2977)" class="st24" width="8.2" height="4.1"/>
		
			<rect x="215.6" y="81.3" transform="matrix(0.3584 -0.9336 0.9336 0.3584 61.8387 256.5986)" class="st24" width="4.1" height="4.1"/>
		
			<rect x="201.1" y="84.5" transform="matrix(0.3584 -0.9336 0.9336 0.3584 49.584 245.1616)" class="st24" width="4.1" height="4.1"/>
		
			<rect x="223.6" y="100.5" transform="matrix(0.3584 -0.9336 0.9336 0.3584 50.3998 278.4034)" class="st24" width="8.2" height="4.1"/>
		
			<rect x="193.5" y="81.6" transform="matrix(0.3584 -0.9336 0.9336 0.3584 47.4193 236.1996)" class="st24" width="4.1" height="4.1"/>
	</g>
	<g>
		<polygon class="st33" points="350.8,17.7 347.8,17.7 347.8,14.7 344.8,14.7 344.8,11.6 323.7,11.6 323.7,14.7 320.7,14.7 
			320.7,17.7 317.7,17.7 317.7,32.7 320.7,32.7 320.7,35.8 323.7,35.8 323.7,38.8 344.8,38.8 344.8,35.8 347.8,35.8 347.8,32.7 
			350.8,32.7 		"/>
		<rect x="326.4" y="17.7" class="st34" width="15.1" height="3"/>
		<rect x="329.4" y="14.7" class="st34" width="9" height="9"/>
		<rect x="320.7" y="23.8" class="st35" width="3" height="6"/>
		<rect x="323.7" y="29.7" class="st35" width="3" height="3"/>
		<rect x="341.8" y="35.8" class="st36" width="3" height="3"/>
		<rect x="344.8" y="32.7" class="st36" width="3" height="3"/>
		<rect x="347.8" y="29.7" class="st36" width="3" height="3"/>
		<rect x="344.8" y="17.7" class="st35" width="3" height="3"/>
	</g>
	<g>
		<polygon class="st79" points="425.5,55.3 427.6,58 430.3,55.8 432.5,58.5 446,47.8 443.9,45 446.6,42.9 444.4,40.2 447.2,38 
			432.1,19.1 429.4,21.2 425,15.8 422.3,18 420.2,15.3 417.5,17.4 415.3,14.8 412.6,16.9 410.4,14.2 407.8,16.3 409.9,19 
			407.2,21.1 409.4,23.9 406.6,26 408.8,28.8 406.1,30.9 410.4,36.3 407.7,38.5 422.8,57.4 		"/>
		
			<rect x="428.5" y="47" transform="matrix(0.7826 -0.6226 0.6226 0.7826 63.6409 283.0969)" class="st80" width="17.3" height="6.9"/>
		
			<rect x="420.7" y="41.9" transform="matrix(0.7826 -0.6226 0.6226 0.7826 61.4941 273.6062)" class="st80" width="3.4" height="13.8"/>
		
			<rect x="426.7" y="29.2" transform="matrix(0.7826 -0.6226 0.6226 0.7826 68.5212 275.3601)" class="st80" width="3.4" height="20.8"/>
		
			<rect x="437" y="28.9" transform="matrix(0.7826 -0.6226 0.6226 0.7826 73.0971 280.9443)" class="st80" width="3.4" height="13.8"/>
		
			<rect x="411.1" y="34.8" transform="matrix(0.7826 -0.6226 0.6226 0.7826 66.9886 264.9392)" class="st80" width="3.4" height="3.4"/>
		
			<rect x="427.3" y="21.9" transform="matrix(0.7826 -0.6226 0.6226 0.7826 78.5648 272.2357)" class="st80" width="3.4" height="3.4"/>
		
			<rect x="414.9" y="23" transform="matrix(0.7826 -0.6226 0.6226 0.7826 75.2156 264.7355)" class="st80" width="3.4" height="3.4"/>
		
			<rect x="423.9" y="47.4" transform="matrix(0.7826 -0.6226 0.6226 0.7826 64.2491 282.1107)" class="st80" width="24.2" height="3.4"/>
		
			<rect x="426.7" y="49" transform="matrix(0.7826 -0.6226 0.6226 0.7826 61.5953 277.718)" class="st80" width="3.4" height="3.4"/>
		
			<rect x="437.6" y="40.3" transform="matrix(0.7826 -0.6226 0.6226 0.7826 69.326 282.6335)" class="st80" width="3.4" height="3.4"/>
		
			<rect x="439.8" y="37.1" transform="matrix(0.7826 -0.6226 0.6226 0.7826 72.2336 284.4304)" class="st80" width="6.9" height="3.4"/>
		
			<rect x="420.9" y="52.2" transform="matrix(0.7826 -0.6226 0.6226 0.7826 58.6903 275.9183)" class="st80" width="6.9" height="3.4"/>
		
			<rect x="409.5" y="14.4" transform="matrix(0.7826 -0.6226 0.6226 0.7826 78.2581 259.9023)" class="st81" width="3.4" height="6.9"/>
		
			<rect x="415.4" y="18.1" transform="matrix(0.7826 -0.6226 0.6226 0.7826 78.3607 264.0123)" class="st81" width="3.4" height="3.4"/>
		
			<rect x="422.4" y="21.4" transform="matrix(0.7826 -0.6226 0.6226 0.7826 77.839 269.0911)" class="st81" width="3.4" height="3.4"/>
		
			<rect x="427.8" y="26.4" transform="matrix(0.7826 -0.6226 0.6226 0.7826 74.7946 273.9258)" class="st81" width="3.4" height="6.9"/>
		
			<rect x="418.1" y="38.1" transform="matrix(0.7826 -0.6226 0.6226 0.7826 66.4695 270.0154)" class="st81" width="3.4" height="3.4"/>
		
			<rect x="431.1" y="19.4" transform="matrix(0.7826 -0.6226 0.6226 0.7826 79.8697 274.4485)" class="st81" width="3.4" height="6.9"/>
		
			<rect x="426.1" y="53.8" transform="matrix(0.7826 -0.6226 0.6226 0.7826 58.4471 278.4435)" class="st82" width="3.4" height="3.4"/>
		
			<rect x="433.4" y="51.2" transform="matrix(0.7826 -0.6226 0.6226 0.7826 62.0687 283.4594)" class="st82" width="6.9" height="3.4"/>
		
			<rect x="437" y="45.2" transform="matrix(0.7826 -0.6226 0.6226 0.7826 66.1791 283.3566)" class="st82" width="3.4" height="3.4"/>
		
			<rect x="437.6" y="40.3" transform="matrix(0.7826 -0.6226 0.6226 0.7826 69.326 282.6335)" class="st79" width="3.4" height="3.4"/>
		
			<rect x="411.6" y="30" transform="matrix(0.7826 -0.6226 0.6226 0.7826 70.1375 264.2154)" class="st81" width="3.4" height="3.4"/>
	</g>
	<g>
		<polygon class="st88" points="464.9,95.7 466.2,92.6 463.1,91.2 464.4,88.1 461.3,86.8 462.6,83.6 447,76.9 445.7,80 442.6,78.7 
			441.2,81.8 438.1,80.5 436.8,83.6 433.6,82.3 426.9,97.9 430,99.2 428.7,102.3 431.8,103.7 430.4,106.8 433.6,108.1 432.2,111.3 
			447.8,118 449.2,114.9 452.3,116.2 453.6,113.1 456.8,114.4 458.1,111.3 461.2,112.7 468,97 		"/>
		<polygon class="st89" points="454.2,94.8 455.5,91.7 446.1,87.6 444.7,90.7 441.7,89.4 437.6,98.8 440.7,100.1 439.4,103.2 
			448.7,107.3 450.1,104.2 453.2,105.5 457.3,96.2 		"/>
		
			<rect x="440.3" y="82.4" transform="matrix(0.3958 -0.9183 0.9183 0.3958 189.8149 456.7519)" class="st90" width="3.4" height="3.4"/>
		<polygon class="st59" points="452.7,97.9 449.7,96.5 451,93.4 447.9,92.1 446.6,95.2 443.4,93.9 442,97 445.2,98.3 443.8,101.4 
			446.9,102.8 448.3,99.7 451.4,101.1 		"/>
		
			<rect x="431.1" y="87.3" transform="matrix(0.3958 -0.9183 0.9183 0.3958 181.7738 454.3347)" class="st90" width="10.2" height="3.4"/>
		
			<rect x="451" y="109.2" transform="matrix(0.3958 -0.9183 0.9183 0.3958 171.67 482.7089)" class="st90" width="3.4" height="3.4"/>
		
			<rect x="454.4" y="105.9" transform="matrix(0.3958 -0.9183 0.9183 0.3958 177.7993 485.4001)" class="st90" width="6.8" height="3.4"/>
	</g>
</g>
</svg>
