<?xml version="1.0" encoding="utf-8"?>
<!-- Generator: Adobe Illustrator 25.2.3, SVG Export Plug-In . SVG Version: 6.00 Build 0)  -->
<svg version="1.1" xmlns="http://www.w3.org/2000/svg" xmlns:xlink="http://www.w3.org/1999/xlink" x="0px" y="0px"
	 viewBox="0 0 700 130" style="enable-background:new 0 0 700 130;" xml:space="preserve">
<style type="text/css">
	.st0{fill:#FFFFFF;}
	.st1{fill:#21851D;}
	.st2{fill:#135110;}
	.st3{fill:#8A370F;}
	.st4{fill:#FFDE01;}
	.st5{fill:#FCB912;}
	.st6{fill:#FCF54D;}
	.st7{fill:#A7B941;}
	.st8{fill:#E0E48D;}
	.st9{fill:#DA895E;}
	.st10{fill:#63240B;}
	.st11{fill:#DC0000;}
	.st12{fill:#AE0002;}
	.st13{fill:#FF7A69;}
	.st14{fill:#426024;}
	.st15{fill:#649238;}
	.st16{fill:#EB1C24;}
	.st17{fill:#37A01A;}
	.st18{fill:#F4CB00;}
	.st19{fill:#C30C08;}
	.st20{fill:#FA5810;}
	.st21{fill:#432355;}
	.st22{fill:#F8C09D;}
	.st23{fill:#B31D4A;}
	.st24{fill:#DC1C4B;}
	.st25{fill:#FFE627;}
	.st26{fill:#FFAD27;}
	.st27{fill:#FFF576;}
	.st28{fill:#BCD531;}
	.st29{fill:#7F2600;}
	.st30{fill:#E0E11B;}
	.st31{fill:#98C93C;}
	.st32{fill:#A13906;}
	.st33{fill:#0B5389;}
	.st34{fill:#0C3352;}
	.st35{fill:#3279A5;}
	.st36{fill:#0F4B70;}
	.st37{fill:#DBCEAC;}
	.st38{fill:#FFF6DA;}
	.st39{fill:#FFF4D8;}
	.st40{fill:#BFAF8B;}
	.st41{fill:#6B2114;}
	.st42{fill:#F2CF95;}
	.st43{fill:#C88C43;}
	.st44{fill:#7B3720;}
	.st45{fill:#9C5738;}
	.st46{fill:#DDB67D;}
	.st47{fill:#FFE2AE;}
	.st48{fill:#133415;}
	.st49{fill:#608D62;}
	.st50{fill:#305937;}
	.st51{fill:#2E9649;}
	.st52{fill:#FF854E;}
	.st53{fill:#3BA746;}
	.st54{fill:#308A43;}
	.st55{fill:#F76140;}
	.st56{fill:#FCBB5E;}
	.st57{fill:#4E1349;}
	.st58{fill:#8A428E;}
	.st59{fill:#2A0E27;}
	.st60{fill:#2B853F;}
	.st61{fill:#83AA37;}
	.st62{fill:#96CB3B;}
	.st63{fill:#B1E656;}
	.st64{fill:#5C9514;}
	.st65{fill:#4F7319;}
	.st66{fill:#645C5A;}
	.st67{fill:#7F6D57;}
	.st68{fill:#4B423B;}
	.st69{fill:#E9E1D4;}
	.st70{fill:#9A0A14;}
	.st71{fill:#FCFAE1;}
	.st72{fill:#F8151E;}
	.st73{fill:#DA191E;}
	.st74{fill:#F9572B;}
	.st75{fill:#F79B20;}
	.st76{fill:#F36527;}
	.st77{fill:#FBD371;}
	.st78{fill:#EFEF97;}
	.st79{fill:#D87E3D;}
	.st80{fill:#B55E2C;}
	.st81{fill:#ED9857;}
	.st82{fill:#803415;}
	.st83{fill:#8B561D;}
	.st84{fill:#95B90B;}
	.st85{fill:#B5CE4D;}
	.st86{fill:#FFFEFF;}
	.st87{fill:#000900;}
	.st88{fill:#61176E;}
	.st89{fill:#4A1056;}
	.st90{fill:#A126B8;}
	.st91{fill:#EA0F13;}
	.st92{fill:#BC0406;}
	.st93{fill:#F9B6BD;}
	.st94{fill:#D1282B;}
	.st95{fill:#EC2125;}
	.st96{fill:#881719;}
	.st97{fill:#ADC45C;}
	.st98{fill:#717D33;}
	.st99{fill:#C0D667;}
	.st100{fill:#78C433;}
	.st101{fill:#D22127;}
	.st102{fill:#E4696C;}
	.st103{fill:#BC2325;}
	.st104{fill:#FB8794;}
	.st105{fill:#A3242B;}
</style>
<g id="Layer_1">
</g>
<g id="Layer_2">
</g>
<g id="Layer_3">
	<g>
		<polygon class="st28" points="143.8,33.7 143,27.8 137.2,28.6 136.4,22.7 106.9,26.5 107.7,32.3 90.1,34.6 89.3,28.7 59.9,32.5 
			60.6,38.4 54.7,39.1 55.5,45 49.6,45.8 55.7,92.9 61.6,92.1 62.3,98 68.2,97.2 69,103.1 74.9,102.4 75.6,108.3 81.5,107.5 
			82.2,113.4 135.2,106.6 134.4,100.7 140.3,99.9 139.6,94.1 145.5,93.3 144.7,87.4 150.6,86.7 149.9,80.8 155.8,80.1 149.7,32.9 		
			"/>
		
			<rect x="95.6" y="15.8" transform="matrix(0.9919 -0.1273 0.1273 0.9919 -3.0953 12.8005)" class="st29" width="6" height="29.7"/>
		<rect x="61.8" y="43.9" transform="matrix(0.9919 -0.1273 0.1273 0.9919 -5.4447 8.627)" class="st30" width="6" height="6"/>
		<rect x="66.9" y="36.9" transform="matrix(0.9919 -0.1273 0.1273 0.9919 -4.4905 9.5934)" class="st30" width="11.9" height="6"/>
		<rect x="57.4" y="50.5" transform="matrix(0.9919 -0.1273 0.1273 0.9919 -7.0777 8.1735)" class="st30" width="6" height="17.8"/>
		<rect x="56.6" y="50.2" transform="matrix(0.9919 -0.1273 0.1273 0.9919 -6.2591 8.3955)" class="st30" width="11.9" height="6"/>
		<rect x="118.7" y="87.9" transform="matrix(0.9919 -0.1273 0.1273 0.9919 -10.5751 16.226)" class="st31" width="6" height="6"/>
		
			<rect x="117.1" y="101.9" transform="matrix(0.9919 -0.1273 0.1273 0.9919 -12.3265 16.9003)" class="st31" width="17.8" height="6"/>
		
			<rect x="133.7" y="88.6" transform="matrix(0.9919 -0.1273 0.1273 0.9919 -10.9202 18.1726)" class="st31" width="6" height="11.9"/>
		
			<rect x="133.4" y="88.2" transform="matrix(0.9919 -0.1273 0.1273 0.9919 -10.4778 18.4745)" class="st31" width="11.9" height="6"/>
		<rect x="144" y="75.3" transform="matrix(0.9919 -0.1273 0.1273 0.9919 -9.1421 19.37)" class="st31" width="6" height="11.9"/>
		
			<rect x="149.2" y="68.7" transform="matrix(0.9919 -0.1273 0.1273 0.9919 -8.2575 19.9736)" class="st31" width="6" height="11.9"/>
		<rect x="80.2" y="47.6" transform="matrix(0.9919 -0.1273 0.1273 0.9919 -5.758 10.9994)" class="st7" width="6" height="6"/>
		<rect x="70.3" y="66.6" transform="matrix(0.9919 -0.1273 0.1273 0.9919 -8.2646 9.8951)" class="st7" width="6" height="6"/>
		
			<rect x="97.9" y="44.9" transform="matrix(0.9919 -0.1273 0.1273 0.9919 -5.2584 13.5803)" class="st31" width="11.5" height="6"/>
		<rect x="108.9" y="37.9" transform="matrix(0.9919 -0.1273 0.1273 0.9919 -4.2927 14.5785)" class="st7" width="6" height="6"/>
		
			<rect x="94.5" y="15.9" transform="matrix(0.9919 -0.1273 0.1273 0.9919 -1.9797 12.5803)" class="st32" width="6" height="11.9"/>
		<rect x="125.2" y="29.7" transform="matrix(0.9919 -0.1273 0.1273 0.9919 -3.1143 16.5766)" class="st30" width="6" height="6"/>
	</g>
	<g>
		<polygon class="st37" points="247.1,78.9 247.1,74.6 242.7,74.6 242.7,70.3 234.1,70.3 234.1,66 225.5,66 225.5,61.7 221.3,61.7 
			221.3,44.5 212.6,44.5 212.6,61.7 208.3,61.7 208.3,66 199.7,66 199.7,70.3 191.1,70.3 191.1,74.6 186.8,74.6 186.8,78.9 
			182.5,78.9 182.5,104.7 186.8,104.7 186.8,109 191.1,109 191.1,113.3 212.6,113.3 212.6,109 221.3,109 221.3,113.3 242.7,113.3 
			242.7,109 247.1,109 247.1,104.7 251.3,104.7 251.3,78.9 		"/>
		<rect x="212.6" y="66" class="st38" width="8.6" height="38.7"/>
		<rect x="208.3" y="70.3" class="st39" width="17.2" height="30.1"/>
		<polygon class="st38" points="199.7,74.6 195.4,74.6 195.4,78.9 191.1,78.9 191.1,83.2 186.8,83.2 186.8,100.4 191.1,100.4 
			191.1,104.7 195.4,104.7 195.4,109 199.7,109 199.7,104.7 204,104.7 204,87.5 204,78.9 204,74.6 		"/>
		<rect x="208.3" y="70.3" class="st0" width="4.3" height="8.6"/>
		<rect x="216.9" y="40.2" class="st40" width="4.3" height="17.2"/>
		<rect x="204" y="104.7" class="st40" width="4.3" height="4.3"/>
		<rect x="208.3" y="109" class="st40" width="4.3" height="4.3"/>
		<rect x="225.5" y="104.7" class="st40" width="4.3" height="4.3"/>
		<rect x="221.3" y="109" class="st40" width="4.3" height="4.3"/>
		<polygon class="st38" points="234.1,74.6 238.5,74.6 238.5,78.9 242.7,78.9 242.7,83.2 247.1,83.2 247.1,100.4 242.7,100.4 
			242.7,104.7 238.5,104.7 238.5,109 234.1,109 234.1,104.7 229.8,104.7 229.8,87.5 229.8,78.9 229.8,74.6 		"/>
		<rect x="191.1" y="83.2" class="st0" width="4.3" height="4.3"/>
		<rect x="212.6" y="109" class="st40" width="8.6" height="4.3"/>
	</g>
	<g>
		<polygon class="st57" points="503.3,12.9 487.4,21.5 483.2,13.6 459.4,26.5 455.1,18.5 447.2,22.8 442.9,14.9 427.1,23.4 
			422.8,15.6 407,24.1 402.7,16.2 394.8,20.5 390.5,12.6 375.6,20.7 371.3,12.8 330.8,34.7 348,66.4 355.9,62.1 364.4,77.9 
			372.4,73.6 380.9,89.4 396.8,80.9 401,88.8 409,84.4 417.6,100.3 425.4,96 434,111.9 449.8,103.3 458.4,119 474.3,110.5 
			478.5,118.4 526,92.7 521.7,84.8 537.5,76.2 		"/>
		<rect x="483.2" y="22.6" transform="matrix(0.8793 -0.4763 0.4763 0.8793 43.8359 236.136)" class="st58" width="9" height="18"/>
		<rect x="451.4" y="91.6" transform="matrix(0.8793 -0.4763 0.4763 0.8793 4.9844 229.8635)" class="st59" width="9" height="27"/>
		
			<rect x="475.3" y="105.7" transform="matrix(0.8793 -0.4763 0.4763 0.8793 5.9758 243.9875)" class="st59" width="18" height="9"/>
		<rect x="467.3" y="92" transform="matrix(0.8793 -0.4763 0.4763 0.8793 10.9929 236.3569)" class="st59" width="9" height="9"/>
		
			<rect x="472.7" y="25.2" transform="matrix(0.8793 -0.4763 0.4763 0.8793 44.0062 233.0486)" class="st58" width="18" height="9"/>
		
			<rect x="499.8" y="34.1" transform="matrix(0.8793 -0.4763 0.4763 0.8793 40.3362 245.3954)" class="st58" width="9" height="18"/>
		<rect x="438.9" y="31.2" transform="matrix(0.8793 -0.4763 0.4763 0.8793 36.5191 215.5302)" class="st58" width="9" height="9"/>
		<rect x="431.3" y="101.3" transform="matrix(0.8793 -0.4763 0.4763 0.8793 2.2444 220.3679)" class="st59" width="9" height="9"/>
		<polygon class="st60" points="358.2,9.6 350.3,13.9 342.4,18.2 334.4,22.5 330.2,14.5 314.3,23.2 322.9,39 330.8,34.7 335.1,42.6 
			339.4,50.5 347.3,46.3 343,38.3 358.8,29.7 354.5,21.9 362.5,17.5 		"/>
		<rect x="344" y="15.5" transform="matrix(0.8793 -0.4763 0.4763 0.8793 32.5319 168.4236)" class="st17" width="9" height="9"/>
		<rect x="323.8" y="16.2" transform="matrix(0.8793 -0.4763 0.4763 0.8793 29.7958 158.8852)" class="st17" width="9" height="9"/>
		<rect x="336.1" y="19.8" transform="matrix(0.8793 -0.4763 0.4763 0.8793 29.5314 165.1544)" class="st17" width="9" height="9"/>
	</g>
	<g>
		<polygon class="st79" points="172.2,54.8 173.7,58 176.8,56.4 178.4,59.5 193.8,51.7 192.3,48.6 195.4,47.1 193.8,44 197,42.4 
			186.1,20.8 183,22.3 179.9,16.2 176.8,17.7 175.2,14.6 172.2,16.2 170.6,13.1 167.5,14.6 165.9,11.5 162.9,13.1 164.4,16.2 
			161.3,17.7 162.9,20.8 159.7,22.3 161.3,25.5 158.2,27 161.3,33.2 158.2,34.8 169.1,56.4 		"/>
		
			<rect x="175.9" y="49" transform="matrix(0.8939 -0.4482 0.4482 0.8939 -3.9554 88.2903)" class="st80" width="17.3" height="6.9"/>
		
			<rect x="168.8" y="40.9" transform="matrix(0.8939 -0.4482 0.4482 0.8939 -3.3551 81.5207)" class="st80" width="3.4" height="13.8"/>
		
			<rect x="176.6" y="29.7" transform="matrix(0.8939 -0.4482 0.4482 0.8939 0.9429 84.1884)" class="st80" width="3.4" height="20.8"/>
		
			<rect x="187.5" y="31.6" transform="matrix(0.8939 -0.4482 0.4482 0.8939 2.7925 88.8794)" class="st80" width="3.4" height="13.8"/>
		
			<rect x="161.9" y="32.2" transform="matrix(0.8939 -0.4482 0.4482 0.8939 2.1503 76.9315)" class="st80" width="3.4" height="3.4"/>
		
			<rect x="180.4" y="22.9" transform="matrix(0.8939 -0.4482 0.4482 0.8939 8.289 84.2568)" class="st80" width="3.4" height="3.4"/>
		
			<rect x="168.1" y="21.4" transform="matrix(0.8939 -0.4482 0.4482 0.8939 7.6645 78.5538)" class="st80" width="3.4" height="3.4"/>
		
			<rect x="171.6" y="49.2" transform="matrix(0.8939 -0.4482 0.4482 0.8939 -3.3402 87.7645)" class="st80" width="24.2" height="3.4"/>
		
			<rect x="174.3" y="49.2" transform="matrix(0.8939 -0.4482 0.4482 0.8939 -4.1663 84.2766)" class="st80" width="3.4" height="3.4"/>
		
			<rect x="186.7" y="43" transform="matrix(0.8939 -0.4482 0.4482 0.8939 -7.605596e-02 89.1969)" class="st80" width="3.4" height="3.4"/>
		
			<rect x="189.6" y="40.7" transform="matrix(0.8939 -0.4482 0.4482 0.8939 1.4735 91.013)" class="st80" width="6.9" height="3.4"/>
		
			<rect x="167.9" y="51.6" transform="matrix(0.8939 -0.4482 0.4482 0.8939 -5.7136 82.4591)" class="st80" width="6.9" height="3.4"/>
		
			<rect x="164.2" y="11.9" transform="matrix(0.8939 -0.4482 0.4482 0.8939 10.7203 75.99)" class="st81" width="3.4" height="6.9"/>
		
			<rect x="169.6" y="16.7" transform="matrix(0.8939 -0.4482 0.4482 0.8939 9.9104 78.7449)" class="st81" width="3.4" height="3.4"/>
		
			<rect x="175.8" y="21.4" transform="matrix(0.8939 -0.4482 0.4482 0.8939 8.4783 82.0106)" class="st81" width="3.4" height="3.4"/>
		
			<rect x="179.7" y="27.4" transform="matrix(0.8939 -0.4482 0.4482 0.8939 5.4209 84.5751)" class="st81" width="3.4" height="6.9"/>
		
			<rect x="168.1" y="36.9" transform="matrix(0.8939 -0.4482 0.4482 0.8939 0.7205 80.1961)" class="st81" width="3.4" height="3.4"/>
		
			<rect x="184.3" y="21.2" transform="matrix(0.8939 -0.4482 0.4482 0.8939 8.6839 86.007)" class="st81" width="3.4" height="6.9"/>
		
			<rect x="172.7" y="53.9" transform="matrix(0.8939 -0.4482 0.4482 0.8939 -6.4148 84.0863)" class="st82" width="3.4" height="3.4"/>
		
			<rect x="180.3" y="53.1" transform="matrix(0.8939 -0.4482 0.4482 0.8939 -5.0783 88.1955)" class="st82" width="6.9" height="3.4"/>
		
			<rect x="185.2" y="47.7" transform="matrix(0.8939 -0.4482 0.4482 0.8939 -2.3231 89.0054)" class="st82" width="3.4" height="3.4"/>
		
			<rect x="186.7" y="43" transform="matrix(0.8939 -0.4482 0.4482 0.8939 -7.605596e-02 89.1969)" class="st79" width="3.4" height="3.4"/>
		
			<rect x="163.4" y="27.5" transform="matrix(0.8939 -0.4482 0.4482 0.8939 4.3989 77.123)" class="st81" width="3.4" height="3.4"/>
	</g>
	<g>
		<polygon class="st83" points="628.3,24.5 628.3,24.5 623.8,24.5 623.8,19.9 623.8,19.9 619.2,19.9 619.2,15.3 614.6,15.3 
			614.6,10.7 610.1,10.7 610.1,6.1 605.4,6.1 577.9,6.1 573.3,6.1 573.3,10.7 568.8,10.7 568.8,15.3 564.2,15.3 564.2,19.9 
			559.6,19.9 559.6,24.5 555,24.5 555,61.1 559.6,61.1 559.6,65.7 564.2,65.7 564.2,70.3 568.8,70.3 568.8,74.9 573.3,74.9 
			573.3,79.5 577.9,79.5 605.4,79.5 610.1,79.5 610.1,74.9 614.6,74.9 614.6,70.3 619.2,70.3 619.2,65.7 623.8,65.7 623.8,61.1 
			628.3,61.1 		"/>
		<polygon class="st84" points="624.3,29 619.2,29 619.2,24.5 614.6,24.5 614.6,19.9 610.1,19.9 610.1,15.3 605.4,15.3 605.4,10.7 
			577.9,10.7 577.9,15.3 573.3,15.3 573.3,19.9 568.8,19.9 568.8,24.5 564.2,24.5 564.2,29 559.6,29 559.6,56.5 564.2,56.5 
			564.2,61.1 568.8,61.1 568.8,65.7 573.3,65.7 573.3,70.3 577.9,70.3 577.9,74.9 605.4,74.9 605.4,70.3 610.1,70.3 610.1,65.7 
			614.6,65.7 614.6,61.1 619.2,61.1 619.2,56.5 624.3,56.5 		"/>
		<polygon class="st85" points="614.6,29 610.1,29 610.1,24.5 605.4,24.5 605.4,19.9 577.9,19.9 577.9,24.5 573.3,24.5 573.3,29 
			568.8,29 568.8,56.5 573.3,56.5 573.3,61.1 577.9,61.1 577.9,65.7 605.4,65.7 605.4,61.1 610.1,61.1 610.1,56.5 614.6,56.5 		"/>
		<polygon class="st86" points="596.3,52 596.3,47.3 600.9,47.3 600.9,38.2 596.3,38.2 596.3,33.6 587.1,33.6 587.1,38.2 
			582.5,38.2 582.5,47.3 587.1,47.3 587.1,52 		"/>
		<rect x="577.9" y="29" class="st87" width="4.6" height="4.6"/>
		<rect x="577.9" y="52" class="st87" width="4.6" height="4.6"/>
		<rect x="600.9" y="29" class="st87" width="4.6" height="4.6"/>
		<rect x="600.9" y="52" class="st87" width="4.6" height="4.6"/>
		<rect x="605.4" y="38.2" class="st87" width="4.6" height="4.6"/>
		<rect x="573.3" y="42.8" class="st87" width="4.6" height="4.6"/>
		<rect x="591.7" y="24.5" class="st87" width="4.6" height="4.6"/>
		<rect x="587.1" y="56.5" class="st87" width="4.6" height="4.6"/>
		<rect x="582.5" y="15.3" class="st85" width="9.2" height="9.2"/>
		<rect x="610.1" y="38.2" class="st85" width="9.2" height="13.8"/>
		<rect x="582.5" y="61.1" class="st85" width="18.4" height="9.2"/>
		<rect x="564.2" y="33.6" class="st85" width="9.2" height="18.4"/>
	</g>
	<g>
		<polygon class="st79" points="13.4,109.7 12.9,113 16.2,113.6 15.6,116.9 32.2,119.7 32.7,116.3 36.1,116.9 36.6,113.6 
			39.9,114.1 43.8,90.9 40.5,90.3 41.7,83.7 38.4,83.1 38.9,79.8 35.5,79.3 36.1,75.9 32.7,75.4 33.3,72.1 30,71.5 29.5,74.9 
			26.1,74.3 25.6,77.6 22.3,77.1 21.7,80.4 18.4,79.8 17.3,86.5 13.9,85.9 10.1,109.1 		"/>
		
			<rect x="21.2" y="106.5" transform="matrix(0.1645 -0.9864 0.9864 0.1645 -92.8675 120.2326)" class="st80" width="6.8" height="16.8"/>
		
			<rect x="9.5" y="101.6" transform="matrix(0.1645 -0.9864 0.9864 0.1645 -88.3434 102.3287)" class="st80" width="13.4" height="3.4"/>
		
			<rect x="16.6" y="100" transform="matrix(0.1645 -0.9864 0.9864 0.1645 -77.9293 111.3147)" class="st80" width="20.2" height="3.4"/>
		
			<rect x="29.4" y="104.9" transform="matrix(0.1645 -0.9864 0.9864 0.1645 -74.9452 124.7187)" class="st80" width="13.4" height="3.4"/>
		
			<rect x="17.1" y="86.7" transform="matrix(0.1645 -0.9864 0.9864 0.1645 -71.4687 92.3479)" class="st80" width="3.4" height="3.4"/>
		
			<rect x="36.9" y="90" transform="matrix(0.1645 -0.9864 0.9864 0.1645 -58.1463 114.6892)" class="st80" width="3.4" height="3.4"/>
		
			<rect x="28.1" y="81.6" transform="matrix(0.1645 -0.9864 0.9864 0.1645 -57.3209 98.9895)" class="st80" width="3.4" height="3.4"/>
		
			<rect x="23.1" y="101.5" transform="matrix(0.1645 -0.9864 0.9864 0.1645 -91.0912 119.1181)" class="st80" width="3.4" height="23.6"/>
		
			<rect x="17" y="107.2" transform="matrix(0.1645 -0.9864 0.9864 0.1645 -91.7318 109.4289)" class="st80" width="3.4" height="3.4"/>
		
			<rect x="30.3" y="109.3" transform="matrix(0.1645 -0.9864 0.9864 0.1645 -82.7809 124.3376)" class="st80" width="3.4" height="3.4"/>
		
			<rect x="35.3" y="108.5" transform="matrix(0.1645 -0.9864 0.9864 0.1645 -79.4055 129.9301)" class="st80" width="3.4" height="6.8"/>
		
			<rect x="12.1" y="104.6" transform="matrix(0.1645 -0.9864 0.9864 0.1645 -94.986 103.7933)" class="st80" width="3.4" height="6.8"/>
		
			<rect x="27.8" y="73.4" transform="matrix(0.1645 -0.9864 0.9864 0.1645 -48.0474 93.4719)" class="st81" width="6.8" height="3.4"/>
		
			<rect x="32" y="78.9" transform="matrix(0.1645 -0.9864 0.9864 0.1645 -51.3248 100.5545)" class="st81" width="3.4" height="3.4"/>
		
			<rect x="34.2" y="86.2" transform="matrix(0.1645 -0.9864 0.9864 0.1645 -56.7087 108.762)" class="st81" width="3.4" height="3.4"/>
		
			<rect x="31.1" y="94.5" transform="matrix(0.1645 -0.9864 0.9864 0.1645 -66.0328 114.3262)" class="st81" width="6.8" height="3.4"/>
		
			<rect x="19.3" y="93.9" transform="matrix(0.1645 -0.9864 0.9864 0.1645 -76.7731 100.5108)" class="st81" width="3.4" height="3.4"/>
		
			<rect x="38.3" y="92.2" transform="matrix(0.1645 -0.9864 0.9864 0.1645 -57.7702 119.5084)" class="st81" width="6.8" height="3.4"/>
		
			<rect x="13.2" y="109.9" transform="matrix(0.1645 -0.9864 0.9864 0.1645 -97.6469 107.9502)" class="st82" width="3.4" height="3.4"/>
		
			<rect x="20.9" y="112.9" transform="matrix(0.1645 -0.9864 0.9864 0.1645 -95.8551 119.4672)" class="st82" width="3.4" height="6.8"/>
		
			<rect x="26.5" y="112.1" transform="matrix(0.1645 -0.9864 0.9864 0.1645 -88.7437 122.8414)" class="st82" width="3.4" height="3.4"/>
		
			<rect x="30.3" y="109.3" transform="matrix(0.1645 -0.9864 0.9864 0.1645 -82.7809 124.3376)" class="st79" width="3.4" height="3.4"/>
		
			<rect x="20.9" y="83.9" transform="matrix(0.1645 -0.9864 0.9864 0.1645 -65.5672 93.7955)" class="st81" width="3.4" height="3.4"/>
	</g>
	<g>
		<polygon class="st33" points="688.4,29.1 685.3,30.1 684.2,26.9 681,28 680,24.7 657.6,31.9 658.6,35.1 655.4,36.2 656.4,39.4 
			653.3,40.4 658.4,56.3 661.6,55.3 662.6,58.5 665.8,57.5 666.8,60.7 689.2,53.5 688.2,50.3 691.4,49.3 690.4,46.1 693.5,45 		"/>
		
			<rect x="662.7" y="34.7" transform="matrix(0.952 -0.3062 0.3062 0.952 21.0823 207.2313)" class="st34" width="16.8" height="3.4"/>
		
			<rect x="666" y="31.4" transform="matrix(0.952 -0.3062 0.3062 0.952 21.0697 207.2227)" class="st34" width="10.1" height="10.1"/>
		
			<rect x="659.5" y="45.1" transform="matrix(0.952 -0.3062 0.3062 0.952 16.9391 204.7818)" class="st35" width="3.4" height="6.7"/>
		
			<rect x="664.3" y="50.5" transform="matrix(0.952 -0.3062 0.3062 0.952 16.0178 206.427)" class="st35" width="3.4" height="3.4"/>
		
			<rect x="685.5" y="50.7" transform="matrix(0.952 -0.3062 0.3062 0.952 16.9582 212.9377)" class="st36" width="3.4" height="3.4"/>
		
			<rect x="687.7" y="46.5" transform="matrix(0.952 -0.3062 0.3062 0.952 18.3497 213.3995)" class="st36" width="3.4" height="3.4"/>
		
			<rect x="689.9" y="42.2" transform="matrix(0.952 -0.3062 0.3062 0.952 19.7627 213.8572)" class="st36" width="3.4" height="3.4"/>
		
			<rect x="680.4" y="34.7" transform="matrix(0.952 -0.3062 0.3062 0.952 21.6084 210.5878)" class="st35" width="3.4" height="3.4"/>
	</g>
	<g>
		<polygon class="st61" points="567.4,87.5 565,88.1 563.9,83.2 561.4,83.7 560.9,81.3 558.5,81.8 558,79.4 555.6,79.9 555.1,77.5 
			552.7,78 552.1,75.6 549.7,76.1 550.2,78.5 547.7,79 548.3,81.4 545.8,81.9 546.3,84.4 543.9,84.9 544.4,87.4 542,87.9 
			543.1,92.7 540.6,93.2 543.7,107.8 546.2,107.3 546.7,109.7 549.1,109.2 549.7,111.7 552.1,111.1 552.6,113.6 555,113 
			555.5,115.5 557.9,115 558.5,117.4 560.9,116.9 560.4,114.4 562.9,113.9 562.3,111.5 564.8,111 564.2,108.6 566.7,108 
			566.2,105.6 568.6,105.1 568.1,102.7 570.5,102.1 		"/>
		<rect x="545" y="86.8" transform="matrix(0.9781 -0.2083 0.2083 0.9781 -6.5871 115.9867)" class="st62" width="5" height="5"/>
		
			<rect x="546.7" y="84.1" transform="matrix(0.9781 -0.2083 0.2083 0.9781 -5.7601 116.0006)" class="st63" width="2.5" height="2.5"/>
		
			<rect x="545.3" y="89.5" transform="matrix(0.9781 -0.2083 0.2083 0.9781 -6.9196 115.8274)" class="st63" width="2.5" height="2.5"/>
		
			<rect x="556.4" y="82.1" transform="matrix(0.9781 -0.2083 0.2083 0.9781 -5.1232 117.9734)" class="st63" width="2.5" height="2.5"/>
		
			<rect x="554.5" y="107.9" transform="matrix(0.9781 -0.2083 0.2083 0.9781 -10.7987 118.1818)" class="st64" width="2.5" height="5"/>
		
			<rect x="551.3" y="106" transform="matrix(0.9781 -0.2083 0.2083 0.9781 -10.225 117.4506)" class="st64" width="2.5" height="2.5"/>
		
			<rect x="557.8" y="109.8" transform="matrix(0.9781 -0.2083 0.2083 0.9781 -11.3847 118.9284)" class="st64" width="2.5" height="7.5"/>
		
			<rect x="559.4" y="104.4" transform="matrix(0.9781 -0.2083 0.2083 0.9781 -10.4788 119.1821)" class="st64" width="2.5" height="9.9"/>
		
			<rect x="554.9" y="82.7" transform="matrix(0.9781 -0.2083 0.2083 0.9781 -8.6529 118.0366)" class="st65" width="2.5" height="34.8"/>
		<rect x="560.8" y="101.2" transform="matrix(0.9781 -0.2083 0.2083 0.9781 -9.2404 119.595)" class="st64" width="5" height="5"/>
		
			<rect x="559.4" y="84" transform="matrix(0.9781 -0.2083 0.2083 0.9781 -5.4557 118.6396)" class="st63" width="2.5" height="2.5"/>
		
			<rect x="561.8" y="106.4" transform="matrix(0.9781 -0.2083 0.2083 0.9781 -10.3195 119.6753)" class="st64" width="2.5" height="5"/>
		
			<rect x="557.2" y="84.4" transform="matrix(0.9781 -0.2083 0.2083 0.9781 -5.8545 118.2253)" class="st62" width="2.5" height="5"/>
		<rect x="548" y="89" transform="matrix(0.9781 -0.2083 0.2083 0.9781 -7.0001 116.3995)" class="st62" width="2.5" height="5"/>
		
			<rect x="558.1" y="99.3" transform="matrix(0.9781 -0.2083 0.2083 0.9781 -9.1601 119.0229)" class="st61" width="5" height="7.5"/>
		
			<rect x="563.8" y="93.2" transform="matrix(0.9781 -0.2083 0.2083 0.9781 -7.2692 119.7698)" class="st64" width="2.5" height="2.5"/>
		
			<rect x="546.3" y="94.4" transform="matrix(0.9781 -0.2083 0.2083 0.9781 -7.906 116.1458)" class="st62" width="2.5" height="2.5"/>
		
			<rect x="543.4" y="92.5" transform="matrix(0.9781 -0.2083 0.2083 0.9781 -7.5721 115.4934)" class="st62" width="2.5" height="2.5"/>
		
			<rect x="548.5" y="81.2" transform="matrix(0.9781 -0.2083 0.2083 0.9781 -5.1092 116.3209)" class="st62" width="2.5" height="2.5"/>
	</g>
	<g>
		<polygon class="st101" points="638.7,93.5 641.5,89 639.2,87.6 640.6,85.3 638.3,83.9 639.7,81.6 637.5,80.2 635.2,78.8 633,77.4 
			631.5,79.7 629.3,78.2 627.9,80.5 625.6,79.1 622.8,83.7 620.5,82.2 609.2,100.4 611.5,101.8 610.1,104 612.3,105.5 610.9,107.7 
			613.3,109.2 611.8,111.5 618.6,115.7 620,113.4 622.2,114.8 623.7,112.5 625.9,113.9 627.3,111.6 629.6,113 640.9,94.9 		"/>
		
			<rect x="615.2" y="86.5" transform="matrix(0.5292 -0.8485 0.8485 0.5292 218.2634 568.9658)" class="st102" width="13.3" height="2.7"/>
		
			<rect x="623" y="108.5" transform="matrix(0.5292 -0.8485 0.8485 0.5292 201.9524 583.7216)" class="st103" width="8" height="2.7"/>
		
			<rect x="619.4" y="109.6" transform="matrix(0.5292 -0.8485 0.8485 0.5292 196.9789 579.55)" class="st103" width="2.7" height="5.4"/>
		
			<rect x="626.7" y="107.7" transform="matrix(0.5292 -0.8485 0.8485 0.5292 204.4475 586.4635)" class="st103" width="8" height="2.7"/>
		
			<rect x="616.2" y="111.4" transform="matrix(0.5292 -0.8485 0.8485 0.5292 195.7115 578.2144)" class="st103" width="5.4" height="2.7"/>
		
			<rect x="625" y="82.3" transform="matrix(0.5292 -0.8485 0.8485 0.5292 224.5347 571.91)" class="st104" width="5.4" height="2.7"/>
		
			<rect x="621.9" y="84.2" transform="matrix(0.5292 -0.8485 0.8485 0.5292 220.8703 569.0986)" class="st104" width="2.7" height="2.7"/>
		
			<rect x="628.6" y="99.5" transform="matrix(0.5292 -0.8485 0.8485 0.5292 212.3076 584.2737)" class="st103" width="8" height="2.7"/>
		
			<rect x="622" y="109.4" transform="matrix(0.5292 -0.8485 0.8485 0.5292 199.4824 581.0159)" class="st103" width="2.7" height="2.7"/>
		
			<rect x="624.2" y="110.8" transform="matrix(0.5292 -0.8485 0.8485 0.5292 199.3125 583.5613)" class="st105" width="2.7" height="2.7"/>
		
			<rect x="620.5" y="111.6" transform="matrix(0.5292 -0.8485 0.8485 0.5292 196.9369 580.8459)" class="st105" width="2.7" height="2.7"/>
		
			<rect x="616.9" y="112.6" transform="matrix(0.5292 -0.8485 0.8485 0.5292 194.4172 578.1669)" class="st105" width="2.7" height="2.7"/>
	</g>
	<g>
		<polygon class="st33" points="39.5,23.9 36.4,23.9 36.4,20.9 33.4,20.9 33.4,17.9 12.3,17.9 12.3,20.9 9.3,20.9 9.3,23.9 
			6.3,23.9 6.3,39 9.3,39 9.3,42 12.3,42 12.3,45 33.4,45 33.4,42 36.4,42 36.4,39 39.5,39 		"/>
		<rect x="15" y="23.9" class="st34" width="15.1" height="3"/>
		<rect x="18" y="20.9" class="st34" width="9" height="9"/>
		<rect x="9.3" y="30" class="st35" width="3" height="6"/>
		<rect x="12.3" y="36" class="st35" width="3" height="3"/>
		<rect x="30.4" y="42" class="st36" width="3" height="3"/>
		<rect x="33.4" y="39" class="st36" width="3" height="3"/>
		<rect x="36.4" y="36" class="st36" width="3" height="3"/>
		<rect x="33.4" y="23.9" class="st35" width="3" height="3"/>
	</g>
	<g>
		<polygon class="st16" points="319.7,60 318.3,56.9 315.2,58.3 313.8,55.3 277.1,72 278.5,75.1 275.5,76.5 276.9,79.6 273.8,81 
			282.2,99.3 285.2,97.9 288,104 291.1,102.6 292.5,105.7 295.5,104.3 297,107.4 300,106 301.4,109 304.5,107.7 305.9,110.7 
			308.9,109.3 310.3,112.4 322.6,106.8 321.2,103.7 324.2,102.3 322.8,99.3 325.9,97.9 324.5,94.8 327.5,93.4 326.1,90.3 
			329.2,88.9 327.8,85.9 330.9,84.5 328.1,78.4 331.1,77 322.8,58.7 		"/>
		<g>
			
				<rect x="281" y="62.3" transform="matrix(0.9097 -0.4153 0.4153 0.9097 -1.0424 123.1911)" class="st17" width="3.4" height="3.4"/>
			
				<rect x="283.8" y="68.4" transform="matrix(0.9097 -0.4153 0.4153 0.9097 -3.3293 124.9084)" class="st17" width="3.4" height="3.4"/>
			<polygon class="st17" points="300.2,57.8 297.1,59.2 294.3,53.1 288.2,55.9 291,62 288,63.4 284.9,64.8 286.3,67.9 289.4,66.5 
				290.8,69.6 303,64 301.6,60.9 304.7,59.5 303.3,56.4 			"/>
			
				<rect x="305.3" y="58.7" transform="matrix(0.9097 -0.4153 0.4153 0.9097 2.6523 132.9219)" class="st17" width="3.4" height="3.4"/>
			
				<rect x="302.4" y="52.6" transform="matrix(0.9097 -0.4153 0.4153 0.9097 4.9403 131.2047)" class="st17" width="3.4" height="3.4"/>
		</g>
		
			<rect x="310.9" y="70.9" transform="matrix(0.9097 -0.4153 0.4153 0.9097 -1.9221 136.3588)" class="st18" width="3.4" height="3.4"/>
		
			<rect x="297.8" y="99" transform="matrix(0.9097 -0.4153 0.4153 0.9097 -14.7741 133.4676)" class="st18" width="3.4" height="3.4"/>
		
			<rect x="293.4" y="73.1" transform="matrix(0.9097 -0.4153 0.4153 0.9097 -4.4256 129.3079)" class="st18" width="3.4" height="3.4"/>
		
			<rect x="305.9" y="84.3" transform="matrix(0.9097 -0.4153 0.4153 0.9097 -7.9286 135.5037)" class="st18" width="3.4" height="3.4"/>
		
			<rect x="319.5" y="81.7" transform="matrix(0.9097 -0.4153 0.4153 0.9097 -5.6457 140.9072)" class="st18" width="3.4" height="3.4"/>
		
			<rect x="312.8" y="99.5" transform="matrix(0.9097 -0.4153 0.4153 0.9097 -13.6256 139.7599)" class="st18" width="3.4" height="3.4"/>
		
			<rect x="292.6" y="53.5" transform="matrix(0.9097 -0.4153 0.4153 0.9097 2.9644 127.3368)" class="st1" width="3.4" height="6.7"/>
		<rect x="293" y="64.2" transform="matrix(0.9097 -0.4153 0.4153 0.9097 -0.753 128.3399)" class="st1" width="3.4" height="3.4"/>
		
			<rect x="318.8" y="96.1" transform="matrix(0.9097 -0.4153 0.4153 0.9097 -11.5075 142.6265)" class="st19" width="6.7" height="3.4"/>
		
			<rect x="320.5" y="91.6" transform="matrix(0.9097 -0.4153 0.4153 0.9097 -9.506 142.9121)" class="st19" width="6.7" height="3.4"/>
		
			<rect x="319.7" y="96.6" transform="matrix(0.9097 -0.4153 0.4153 0.9097 -12.4796 142.4764)" class="st19" width="3.4" height="6.7"/>
		
			<rect x="325.3" y="86.5" transform="matrix(0.9097 -0.4153 0.4153 0.9097 -7.0748 143.7681)" class="st19" width="3.4" height="3.4"/>
		
			<rect x="326.4" y="78.7" transform="matrix(0.9097 -0.4153 0.4153 0.9097 -4.4618 143.6458)" class="st19" width="3.4" height="6.7"/>
		
			<rect x="324" y="75.2" transform="matrix(0.9097 -0.4153 0.4153 0.9097 -2.3541 142.9067)" class="st19" width="6.7" height="3.4"/>
		
			<rect x="325.9" y="68" transform="matrix(0.9097 -0.4153 0.4153 0.9097 -0.7593 142.6467)" class="st19" width="3.4" height="10.1"/>
		
			<rect x="315.5" y="105" transform="matrix(0.9097 -0.4153 0.4153 0.9097 -15.5132 142.0576)" class="st19" width="6.7" height="3.4"/>
		
			<rect x="280.3" y="81.5" transform="matrix(0.9097 -0.4153 0.4153 0.9097 -10.4656 124.9094)" class="st20" width="3.4" height="10.1"/>
		
			<rect x="280.5" y="77.3" transform="matrix(0.9097 -0.4153 0.4153 0.9097 -7.3338 124.3396)" class="st20" width="3.4" height="3.4"/>
		
			<rect x="282.2" y="72.9" transform="matrix(0.9097 -0.4153 0.4153 0.9097 -5.3311 124.6243)" class="st20" width="3.4" height="3.4"/>
		
			<rect x="286.4" y="82.1" transform="matrix(0.9097 -0.4153 0.4153 0.9097 -8.7633 127.2012)" class="st18" width="3.4" height="3.4"/>
		
			<rect x="286.8" y="89.4" transform="matrix(0.9097 -0.4153 0.4153 0.9097 -12.4507 128.1963)" class="st20" width="3.4" height="6.7"/>
	</g>
	<g>
		<polygon class="st88" points="275.8,21.7 275.8,18.3 272.5,18.3 272.5,14.8 269,14.8 269,11.5 252,11.5 252,14.8 248.6,14.8 
			248.6,18.3 245.2,18.3 245.2,21.7 241.8,21.7 241.8,38.7 245.2,38.7 245.2,42.1 248.6,42.1 248.6,45.5 252,45.5 252,48.9 
			269,48.9 269,45.5 272.5,45.5 272.5,42.1 275.8,42.1 275.8,38.7 279.2,38.7 279.2,21.7 		"/>
		<polygon class="st89" points="265.6,25.1 265.6,21.7 255.4,21.7 255.4,25.1 252,25.1 252,35.3 255.4,35.3 255.4,38.7 265.6,38.7 
			265.6,35.3 269,35.3 269,25.1 		"/>
		<rect x="248.6" y="18.3" class="st90" width="3.4" height="3.4"/>
		<polygon class="st59" points="265.6,28.5 262.2,28.5 262.2,25.1 258.8,25.1 258.8,28.5 255.4,28.5 255.4,31.9 258.8,31.9 
			258.8,35.3 262.2,35.3 262.2,31.9 265.6,31.9 		"/>
		<rect x="245.2" y="21.7" class="st90" width="3.4" height="10.2"/>
		<rect x="269" y="38.7" class="st90" width="3.4" height="3.4"/>
		<rect x="272.5" y="31.9" class="st90" width="3.4" height="6.8"/>
	</g>
	<g>
		<polygon class="st88" points="687.9,101.6 689.3,98.5 686.1,97.1 687.5,94 684.4,92.7 685.7,89.5 670.1,82.8 668.7,85.9 
			665.6,84.6 664.3,87.7 661.2,86.4 659.8,89.5 656.7,88.1 649.9,103.8 653.1,105.1 651.7,108.2 654.8,109.6 653.5,112.7 656.6,114 
			655.3,117.1 670.9,123.9 672.2,120.8 675.4,122.1 676.7,119 679.8,120.3 681.2,117.2 684.3,118.5 691,102.9 		"/>
		<polygon class="st89" points="677.2,100.7 678.6,97.6 669.2,93.5 667.8,96.6 664.7,95.3 660.6,104.6 663.8,106 662.4,109.1 
			671.8,113.2 673.1,110.1 676.3,111.4 680.3,102 		"/>
		
			<rect x="663.4" y="88.3" transform="matrix(0.3958 -0.9183 0.9183 0.3958 319.1884 665.1564)" class="st90" width="3.4" height="3.4"/>
		<polygon class="st59" points="675.8,103.8 672.8,102.4 674.1,99.3 671,98 669.6,101.1 666.4,99.7 665.1,102.9 668.2,104.2 
			666.9,107.3 670,108.7 671.4,105.6 674.5,106.9 		"/>
		
			<rect x="654.1" y="93.2" transform="matrix(0.3958 -0.9183 0.9183 0.3958 311.1473 662.7392)" class="st90" width="10.2" height="3.4"/>
		
			<rect x="674" y="115.1" transform="matrix(0.3958 -0.9183 0.9183 0.3958 301.0435 691.1134)" class="st90" width="3.4" height="3.4"/>
		
			<rect x="677.4" y="111.7" transform="matrix(0.3958 -0.9183 0.9183 0.3958 307.1728 693.8046)" class="st90" width="6.8" height="3.4"/>
	</g>
</g>
</svg>
