<?xml version="1.0" encoding="utf-8"?>
<!-- Generator: Adobe Illustrator 25.2.3, SVG Export Plug-In . SVG Version: 6.00 Build 0)  -->
<svg version="1.1" xmlns="http://www.w3.org/2000/svg" xmlns:xlink="http://www.w3.org/1999/xlink" x="0px" y="0px"
	 viewBox="0 0 300 350" style="enable-background:new 0 0 300 350;" xml:space="preserve">
<style type="text/css">
	.st0{fill:#E4DED5;}
	.st1{fill:#32A00D;}
	.st2{fill:#ADB9AF;}
	.st3{fill:#735C42;}
	.st4{fill:#6AA266;}
	.st5{fill:#443E93;}
	.st6{fill:#FFFFFF;}
	.st7{fill:#4B6C6B;}
	.st8{fill:#AD2147;}
	.st9{fill:#DE1E69;}
	.st10{fill:#EC5C8F;}
	.st11{fill:#A5A653;}
	.st12{fill:#492C28;}
	.st13{fill:#DD8A34;}
	.st14{fill:#81705E;}
</style>
<g id="layout">
</g>
<g id="Layer_4">
	<rect x="68" y="244" width="9" height="45"/>
	<polygon class="st1" points="78.5,207.5 78.1,215.9 69.6,215.5 70,207.1 44.6,205.8 43.4,231.2 51.8,231.6 51.4,240.1 59.9,240.5 
		59.5,249 84.9,250.2 85.3,241.7 93.8,242.2 94.2,233.7 102.6,234.1 103.9,208.7 	"/>
	<rect x="230" y="100" width="9" height="198"/>
	<polygon class="st1" points="240.5,63.5 240.1,71.9 231.6,71.5 232,63.1 206.6,61.8 205.4,87.2 213.8,87.6 213.4,96.1 221.9,96.5 
		221.5,105 246.9,106.2 247.3,97.7 255.8,98.2 256.2,89.7 264.6,90.1 265.9,64.7 	"/>
	<rect x="146" y="185" width="9" height="113"/>
	<polygon class="st1" points="156.5,148.5 156.1,156.9 147.6,156.5 148,148.1 122.6,146.8 121.4,172.2 129.8,172.6 129.4,181.1 
		137.9,181.5 137.5,190 162.9,191.2 163.3,182.7 171.8,183.2 172.2,174.7 180.6,175.1 181.9,149.7 	"/>
</g>
<g id="AMOUNTS">
</g>
<g id="LABELS">
</g>
</svg>
