<?xml version="1.0" encoding="utf-8"?>
<!-- Generator: Adobe Illustrator 25.2.3, SVG Export Plug-In . SVG Version: 6.00 Build 0)  -->
<svg version="1.1" xmlns="http://www.w3.org/2000/svg" xmlns:xlink="http://www.w3.org/1999/xlink" x="0px" y="0px"
	 viewBox="0 0 700 467" style="enable-background:new 0 0 700 467;" xml:space="preserve">
<style type="text/css">
	.st0{display:none;}
	.st1{display:inline;fill:#026385;}
	.st2{display:inline;fill:#35BCC0;}
	.st3{display:inline;fill:#606161;}
	.st4{display:inline;fill:#BEBFB9;}
	.st5{display:inline;fill:#3A3A3A;}
	.st6{display:inline;fill:#161616;}
	.st7{display:inline;fill:#E1E1DF;}
	.st8{display:inline;fill:#018F9F;}
	.st9{fill:none;stroke:#000000;stroke-miterlimit:10;}
	.st10{fill:#E4DED5;}
	.st11{fill:#3E9B50;}
	.st12{fill:#EE5E2F;}
	.st13{fill:#CF232E;}
	.st14{fill:#F3A634;}
	.st15{fill:#D2276E;}
	.st16{fill:#018F9F;}
	.st17{opacity:0.25;fill:none;stroke:#000000;stroke-miterlimit:10;}
	.st18{opacity:0.25;fill:#EE5E2F;}
	.st19{opacity:0.25;fill:#CF232E;}
	.st20{opacity:0.25;fill:#F3A634;}
	.st21{opacity:0.25;fill:#D2276E;}
	.st22{opacity:0.25;fill:#018F9F;}
</style>
<g id="layout" class="st0">
</g>
<g id="Layer_4">
	<line class="st9" x1="508.5" y1="83.1" x2="508.5" y2="396.7"/>
	<line class="st9" x1="70" y1="229" x2="643.5" y2="229"/>
	<polyline class="st9" points="70,71.8 70,229 70,403 	"/>
	<rect x="37" y="44" class="st11" width="66" height="66"/>
	<rect x="37" y="196" class="st12" width="66" height="66"/>
	
		<rect x="40.3" y="360.9" transform="matrix(0.7071 -0.7071 0.7071 0.7071 -255.901 164.3562)" class="st13" width="60.3" height="60.3"/>
	
		<rect x="184.3" y="199.1" transform="matrix(0.7071 -0.7071 0.7071 0.7071 -99.2908 218.7946)" class="st14" width="60.3" height="60.3"/>
	
		<rect x="331.3" y="198.1" transform="matrix(0.7071 -0.7071 0.7071 0.7071 -55.5284 322.4464)" class="st14" width="60.3" height="60.3"/>
	
		<rect x="478.3" y="59.5" transform="matrix(0.7071 -0.7071 0.7071 0.7071 85.5424 385.7917)" class="st15" width="60.3" height="60.3"/>
	
		<rect x="478.3" y="360.7" transform="matrix(4.495255e-11 -1 1 4.495255e-11 117.6385 899.2876)" class="st13" width="60.3" height="60.3"/>
	
		<rect x="613.3" y="198" transform="matrix(4.495255e-11 -1 1 4.495255e-11 415.3171 871.6089)" class="st13" width="60.3" height="60.3"/>
	
		<rect x="478.3" y="199" transform="matrix(0.7071 -0.7071 0.7071 0.7071 -13.1052 426.6529)" class="st16" width="60.3" height="60.3"/>
	<rect class="st9" width="700" height="467"/>
</g>
<g id="AMOUNTS" class="st0">
</g>
<g id="LABELS" class="st0">
</g>
</svg>
