<?xml version="1.0" encoding="utf-8"?>
<!-- Generator: Adobe Illustrator 25.2.3, SVG Export Plug-In . SVG Version: 6.00 Build 0)  -->
<svg version="1.1" id="Layer_1" xmlns="http://www.w3.org/2000/svg" xmlns:xlink="http://www.w3.org/1999/xlink" x="0px" y="0px"
	 viewBox="0 0 150 150" style="enable-background:new 0 0 150 150;" xml:space="preserve">
<style type="text/css">
	.st0{fill:#515151;}
	.st1{fill:none;}
	.st2{fill:#353535;}
	.st3{font-family:'VCROSDMono';}
	.st4{font-size:25px;}
	.st5{opacity:0.85;}
	.st6{fill:#C4C4C4;}
</style>
<g>
	<g>
		<g>
			<polygon class="st0" points="89.3,109.5 89.3,99.2 84.2,99.2 84.2,109.5 63.5,109.5 63.5,99.2 58.4,99.2 58.4,109.5 53.2,109.5 
				53.2,140.5 94.5,140.5 94.5,109.5 			"/>
			<rect x="63.5" y="94.1" class="st0" width="5.2" height="5.2"/>
			<rect x="79" y="94.1" class="st0" width="5.2" height="5.2"/>
			<rect x="68.7" y="88.9" class="st0" width="10.3" height="5.2"/>
		</g>
		<polygon points="81.6,114.7 66.1,114.7 66.1,125 71.3,125 71.3,135.3 76.4,135.3 76.4,125 81.6,125 		"/>
	</g>
	<rect x="-1.5" y="-1.5" class="st1" width="153" height="153"/>
	<text transform="matrix(1 0 0 1 17.8062 84.1504)" class="st2 st3 st4">AMARANTH</text>
	<g class="st5">
		<rect x="-1.5" y="-1.5" class="st6" width="154" height="153"/>
	</g>
	<path d="M150.5-0.5v151h-152v-151H150.5 M151.5-1.5h-154v153h154V-1.5L151.5-1.5z"/>
</g>
</svg>
