<?xml version="1.0" encoding="utf-8"?>
<!-- Generator: Adobe Illustrator 25.2.3, SVG Export Plug-In . SVG Version: 6.00 Build 0)  -->
<svg version="1.1" xmlns="http://www.w3.org/2000/svg" xmlns:xlink="http://www.w3.org/1999/xlink" x="0px" y="0px"
	 viewBox="0 0 700 467" style="enable-background:new 0 0 700 467;" xml:space="preserve">
<style type="text/css">
	.st0{display:none;}
	.st1{display:inline;fill:#026385;}
	.st2{display:inline;fill:#35BCC0;}
	.st3{display:inline;fill:#606161;}
	.st4{display:inline;fill:#BEBFB9;}
	.st5{display:inline;fill:#3A3A3A;}
	.st6{display:inline;fill:#161616;}
	.st7{display:inline;fill:#E1E1DF;}
	.st8{display:inline;fill:#018F9F;}
	.st9{fill:#E4DED5;}
	.st10{fill:#018F9F;}
	.st11{fill:none;}
	.st12{stroke:#000000;stroke-width:0.25;stroke-miterlimit:10;}
	.st13{font-family:'VCROSDMono';}
	.st14{font-size:20px;}
</style>
<g id="layout" class="st0">
</g>
<g id="Layer_4">
	<polygon points="401,244 401,235 392,235 392,226 374,226 374,217 347.4,217 347.4,207.6 338,207.6 338,199 329,199 329,190 
		320,190 320,181 302,181 302,172 284,172 284,163 266,163 266,154 257,154 257,145 239,145 239,136 230,136 230,127 212,127 
		212,145 221,145 221,154 230,154 230,172 239,172 239,181 248,181 248,199 257,199 257,217 266,217 266,235 275,235 275,244 
		284,244 284,253 293.4,253 293.4,261.9 302,261.9 302,280 311,280 311,298 320,298 320,307 329,307 329,316 338,316 338,325 
		383,325 383,316 392,316 392,307 401,307 401,289 410,289 410,244 	"/>
	<rect x="30.5" y="379.2" class="st11" width="639" height="72"/>
	<text transform="matrix(1 0 0 1 109.7656 393.8629)"><tspan x="0" y="0" class="st12 st13 st14">Chia seeds are high in protein and fiber,</tspan><tspan x="99.6" y="24" class="st12 st13 st14">both aid in weight loss.  </tspan><tspan x="29.3" y="48" class="st12 st13 st14">However, studies show mixed results.</tspan></text>
	<rect x="77" y="343" width="567" height="9"/>
	<rect x="104" y="127" transform="matrix(0.7637 0.6456 -0.6456 0.7637 115.5607 -43.7178)" width="27" height="18"/>
	<rect x="344" y="60.4" transform="matrix(-0.1506 0.9886 -0.9886 -0.1506 480.0005 -273.5786)" width="27" height="18"/>
	<rect x="578" y="142.4" transform="matrix(-0.6629 0.7487 -0.7487 -0.6629 1097.0403 -191.0616)" width="27" height="18"/>
</g>
<g id="AMOUNTS" class="st0">
</g>
<g id="LABELS" class="st0">
</g>
</svg>
