<?xml version="1.0" encoding="utf-8"?>
<!-- Generator: Adobe Illustrator 25.2.3, SVG Export Plug-In . SVG Version: 6.00 Build 0)  -->
<svg version="1.1" xmlns="http://www.w3.org/2000/svg" xmlns:xlink="http://www.w3.org/1999/xlink" x="0px" y="0px"
	 viewBox="0 0 300 350" style="enable-background:new 0 0 300 350;" xml:space="preserve">
<style type="text/css">
	.st0{fill:#E4DED5;}
	.st1{fill:#32A00D;}
	.st2{fill:#ADB9AF;}
	.st3{fill:#735C42;}
	.st4{fill:#6AA266;}
	.st5{fill:#443E93;}
	.st6{fill:#FFFFFF;}
	.st7{fill:#4B6C6B;}
	.st8{fill:#AD2147;}
	.st9{fill:#DE1E69;}
	.st10{fill:#EC5C8F;}
	.st11{fill:#A5A653;}
	.st12{fill:#492C28;}
	.st13{fill:#DD8A34;}
	.st14{fill:#81705E;}
</style>
<g id="layout">
</g>
<g id="Layer_4">
	<rect x="38" y="208" class="st11" width="9" height="99"/>
	<rect x="29" y="217" class="st11" width="27" height="9"/>
	<rect y="244" class="st11" width="300" height="106"/>
	<rect x="29" y="226" class="st11" width="27" height="45"/>
	<g>
		<path class="st4" d="M93.6,300.2c-6.2-6.8-14.6-12.4-25.8-11.9c-11.2,0.5-16.3,15.1-19.4,16.3c-2.2,0.9-6.1,3.2-8.1,4.3
			c0.4-10.5,0.6-22.9,0.6-35.2c2-1.5,5.6-3.5,10-1.9c6.7,2.4,9.5,7.6,10.9,6.4c1.4-1.2-2.1-10.5-7-13.3c-4.8-2.7-9.9-3.6-14-0.4
			c0.3-16.4,0.4-30.6,0.3-38.1c2.2-0.5,5.9-2,7.3-5.8c1.2-3.4,1.4-5.2,1.4-5.2s-0.4,0-1.1,0c0.8-2.5,0.9-3.8,0.9-3.8s-5-0.3-8.2,2.1
			c-0.2-0.3-0.3-0.6-0.5-0.9c0.9-0.1,2.2-0.7,4.1-2.6c3.9-3.9,0.7-12.3,0.7-12.3s-1.5,0.8-4.1,3.2c-0.8,0.8-1.4,1.7-1.8,2.6
			c-0.2-0.4-0.5-0.9-0.7-1.3c0.1-0.2,0.1-0.4,0.2-0.6c0.9-0.2,2.1-0.9,3.8-2.5c3.9-3.9,0.7-12.3,0.7-12.3s-1.5,0.8-4.1,3.2
			c-0.3,0.3-0.6,0.7-0.9,1c-0.2-0.7-0.5-1.4-0.9-2.1c0-0.1,0-0.1,0-0.2c0.7-0.4,1.5-1,2.4-1.9c3.9-3.9,0.7-12.3,0.7-12.3
			s-0.9,0.5-2.4,1.7c1.6-4.2-0.7-10.1-0.7-10.1s-1.2,0.6-3.2,2.4c-1.5-3.5-4.9-6.1-4.9-6.1s-0.9,1.5-1.9,5c-0.2,0.8-0.3,1.5-0.3,2.2
			c-1.8-0.4-3.2-0.3-3.2-0.3s0.1,1.8,1.2,5.3c0.7,2.3,2.4,3.8,4,4.8c-0.1,0.5-0.1,1-0.1,1.5c-2.6-0.9-5.2-0.9-5.2-0.9
			s0.1,1.8,1.2,5.3c1,3.1,3.4,4.7,5.5,5.5c0.1,0.2,0.2,0.4,0.3,0.6c0,0.6,0.1,1.2,0.3,1.8c-3-1.6-6.7-1.5-6.7-1.5s0.1,1.8,1.2,5.3
			c1.2,3.9,4.9,5.5,7.1,6.1c-0.1,0.4-0.2,0.8-0.2,1.3c-3.1-2.4-8-2.3-8-2.3s0.1,1.8,1.2,5.3c0.1,0.2,0.1,0.4,0.2,0.6
			c-1.2,0.1-2,0.2-2,0.2s0.4,1.8,2,5c1.3,2.6,3.7,3.8,5.8,4.3c-2.9-0.6-5.9,0-5.9,0s0.4,1.8,2,5c2.4,4.7,8.3,4.8,9.5,4.7
			c0.3,8.7,0,19.3-0.2,34.7c-0.2-0.2-0.4-0.5-0.6-0.7c-4.2-3.9-9.6-3.2-14.8-0.3c-4.9,2.7-8.4,12.1-7,13.3c1.4,1.2,4.2-4.1,10.9-6.4
			c5.2-1.8,9.4,1.3,11,2.7c0.3,2.4-0.4,13-0.6,17.4c-1.7,1.1-6.1,3.5-8.5,2.6c0,0-10-7.3-22.9-0.5c-12.9,6.8-18.8,15.2-23.7,16.3
			c-4.9,1.1,2.4,3.5,10.4,7.5c8,4,15.1,3.8,25.5-1.1c10.3-4.8,11.6-11,13-14.2c1.2-2.8,4.2-5.2,6.1-6.4c-0.9,19.8-2.8,33.1-2.1,41.3
			c0.1,0.9,2.7,1.5,3.2,0.7c0.7-1,2.1-11.3,2.6-23.4c1.6-1,6.6-3.9,8.8-2c0,0,16,15.1,30.3,13.7c14.3-1.4,24.2-9.1,29.2-8.2
			C113.5,315.6,99.8,307,93.6,300.2z M35.3,218.4c0.1,0.3,0.2,0.6,0.3,0.9c-0.8-0.6-1.8-1-2.7-1.2C33.8,218.3,34.6,218.4,35.3,218.4
			z"/>
		<path class="st5" d="M33.7,170.2c-0.4-0.4-2.6-2.3-2.7-3.2c-0.1-0.8-0.4-1.5-1.2-1.6c-0.7-0.1-1.4,0.4-1.5,1.2
			c-0.2,1.3-3,3.6-3.4,4.2c-0.7,1.3-0.8,2.8-0.2,3.2c0.3,0.2,0.7,0.1,1.1-0.1c0.6,1.8,1.7,2.7,2.1,2.7c1,0,0.7-0.7,1.5-0.7
			c0.8,0,0.5,0.6,1.3,0.9c1,0.3,1.9-1.4,2.3-3.4c0.5,0.2,1,0.3,1.3,0C34.9,172.7,34.6,171.3,33.7,170.2z"/>
		<path class="st6" d="M29.3,170.1c0.1-0.3,0-0.6-0.1-0.7s-0.4,0.1-0.5,0.4c0,0-1.1,2.3-1.1,2.5c-0.1,0.4,0.1,0.8,0.3,0.8
			c0.3,0.1,0.5-0.2,0.6-0.6C28.4,172.4,29.3,170.1,29.3,170.1z"/>
		<path class="st6" d="M29.8,170.2c-0.1-0.3,0-0.6,0.2-0.7s0.4,0.2,0.5,0.5c0,0,0.7,2.5,0.7,2.7c0,0.4-0.2,0.7-0.5,0.7
			c-0.3,0-0.5-0.3-0.5-0.7C30.2,172.5,29.8,170.2,29.8,170.2z"/>
		<path class="st5" d="M50.5,216.8c-0.5-0.3-3.2-1-3.6-1.8c-0.3-0.7-0.9-1.2-1.6-1c-0.7,0.2-1.1,1-1,1.7c0.2,1.3-1.5,4.6-1.6,5.3
			c-0.2,1.5,0.2,2.9,1,3c0.3,0.1,0.7-0.2,1-0.6c1.1,1.4,2.6,1.8,2.9,1.6c0.9-0.4,0.4-1,1.1-1.3c0.7-0.3,0.7,0.3,1.5,0.2
			c1-0.1,1.3-2.2,0.9-4.2c0.6,0,1-0.2,1.2-0.6C52.5,218.6,51.7,217.5,50.5,216.8z"/>
		<path class="st6" d="M46.4,218.6c0-0.3-0.2-0.6-0.4-0.6c-0.2,0-0.4,0.3-0.4,0.6c0,0-0.1,2.6-0.1,2.8c0.1,0.4,0.3,0.7,0.6,0.6
			c0.3-0.1,0.4-0.4,0.3-0.8C46.5,221.1,46.4,218.6,46.4,218.6z"/>
		<path class="st6" d="M46.9,218.5c-0.2-0.3-0.2-0.6,0-0.7c0.2-0.1,0.4,0,0.6,0.2c0,0,1.5,2,1.6,2.2c0.2,0.4,0.1,0.8-0.2,0.9
			s-0.6-0.1-0.7-0.4C48.2,220.5,46.9,218.5,46.9,218.5z"/>
		<path class="st5" d="M36,202.9c-0.3-0.5-2.2-2.8-2.1-3.7c0.1-0.8-0.2-1.5-0.9-1.8c-0.7-0.3-1.4,0.2-1.7,0.9
			c-0.4,1.2-3.6,2.9-4,3.5c-1,1.2-1.3,2.5-0.7,3.1c0.3,0.3,0.7,0.3,1.1,0.1c0.2,1.8,1.2,3,1.6,3.1c1,0.2,0.8-0.5,1.6-0.4
			c0.7,0.2,0.4,0.7,1.1,1.1c0.9,0.5,2.2-1,2.9-2.9c0.5,0.3,0.9,0.5,1.3,0.2C36.8,205.7,36.8,204.2,36,202.9z"/>
		<path class="st6" d="M31.7,202c0.2-0.3,0.1-0.6,0-0.7s-0.4,0-0.6,0.3c0,0-1.4,2.1-1.5,2.2c-0.1,0.4-0.1,0.8,0.2,0.9
			c0.2,0.1,0.6-0.1,0.7-0.5C30.5,204,31.7,202,31.7,202z"/>
		<path class="st6" d="M32.2,202.1c0-0.3,0.2-0.6,0.4-0.6s0.4,0.3,0.4,0.6c0,0,0.2,2.6,0.2,2.8c-0.1,0.4-0.3,0.7-0.6,0.6
			c-0.3,0-0.4-0.4-0.4-0.8C32.3,204.5,32.2,202.1,32.2,202.1z"/>
		<path class="st5" d="M40.3,175c-0.5-0.3-3.1-1.2-3.5-2c-0.3-0.7-0.8-1.3-1.6-1.1c-0.7,0.2-1.2,0.9-1.1,1.7
			c0.2,1.3-1.7,4.5-1.9,5.2c-0.3,1.5,0.1,2.9,0.8,3.1c0.3,0.1,0.7-0.1,1-0.5c1.1,1.5,2.5,1.9,2.8,1.8c1-0.3,0.5-0.9,1.2-1.2
			c0.7-0.3,0.7,0.4,1.5,0.3c1,0,1.4-2.1,1.1-4.1c0.6,0,1-0.1,1.2-0.5C42.3,177,41.5,175.8,40.3,175z"/>
		<path class="st6" d="M36.1,176.6c0-0.3-0.1-0.6-0.3-0.6c-0.2,0-0.4,0.2-0.4,0.6c0,0-0.3,2.6-0.3,2.8c0.1,0.4,0.3,0.7,0.6,0.6
			c0.3,0,0.4-0.4,0.4-0.8C36.1,179,36.1,176.6,36.1,176.6z"/>
		<path class="st6" d="M36.6,176.5c-0.2-0.3-0.1-0.6,0-0.7c0.2-0.1,0.4,0,0.6,0.3c0,0,1.4,2.1,1.5,2.3c0.1,0.4,0,0.8-0.2,0.9
			c-0.2,0.1-0.6-0.1-0.7-0.5C37.8,178.5,36.6,176.5,36.6,176.5z"/>
		<path class="st5" d="M44.9,203.7c-0.5-0.3-3.1-1.2-3.5-2c-0.3-0.7-0.8-1.3-1.6-1.1c-0.7,0.2-1.2,0.9-1.1,1.7
			c0.2,1.3-1.7,4.5-1.9,5.2c-0.3,1.5,0.1,2.9,0.8,3.1c0.3,0.1,0.7-0.1,1-0.5c1.1,1.5,2.5,1.9,2.8,1.8c1-0.3,0.5-0.9,1.2-1.2
			c0.7-0.3,0.7,0.4,1.5,0.3c1,0,1.4-2.1,1.1-4.1c0.6,0,1-0.1,1.2-0.5C46.9,205.7,46.2,204.5,44.9,203.7z"/>
		<path class="st6" d="M40.8,205.3c0-0.3-0.1-0.6-0.3-0.6c-0.2,0-0.4,0.2-0.4,0.6c0,0-0.3,2.6-0.3,2.8c0.1,0.4,0.3,0.7,0.6,0.6
			c0.3,0,0.4-0.4,0.4-0.8C40.7,207.7,40.8,205.3,40.8,205.3z"/>
		<path class="st6" d="M41.3,205.2c-0.2-0.3-0.1-0.6,0-0.7c0.2-0.1,0.4,0,0.6,0.3c0,0,1.4,2.1,1.5,2.3c0.1,0.4,0,0.8-0.2,0.9
			s-0.6-0.1-0.7-0.5C42.4,207.2,41.3,205.2,41.3,205.2z"/>
		<path class="st5" d="M37.9,222.8c-0.3-0.5-2.2-2.8-2.1-3.7c0.1-0.8-0.2-1.5-0.9-1.8c-0.7-0.3-1.4,0.2-1.7,0.9
			c-0.4,1.2-3.6,2.9-4,3.5c-0.9,1.2-1.3,2.5-0.7,3.1c0.3,0.3,0.7,0.3,1.1,0.1c0.3,1.8,1.3,3,1.6,3.1c1,0.2,0.8-0.6,1.6-0.4
			c0.7,0.2,0.4,0.7,1.1,1.1c0.9,0.5,2.2-1,2.8-2.9c0.5,0.3,0.9,0.4,1.3,0.2C38.7,225.6,38.6,224.2,37.9,222.8z"/>
		<path class="st6" d="M33.6,221.9c0.2-0.3,0.1-0.6,0-0.7s-0.4,0-0.6,0.3c0,0-1.4,2.1-1.5,2.3c-0.1,0.4,0,0.8,0.2,0.9
			c0.2,0.1,0.6-0.1,0.7-0.5C32.4,224,33.6,221.9,33.6,221.9z"/>
		<path class="st6" d="M34.1,222.1c0-0.3,0.2-0.6,0.4-0.6c0.2,0,0.4,0.3,0.4,0.6c0,0,0.3,2.6,0.2,2.8c-0.1,0.4-0.3,0.7-0.6,0.6
			c-0.3,0-0.4-0.4-0.4-0.8C34.1,224.5,34.1,222.1,34.1,222.1z"/>
	</g>
	<g>
		<path class="st4" d="M175,274c-6.2-6.8-14.6-12.4-25.8-11.9c-11.2,0.5-16.3,15.1-19.4,16.3c-2.2,0.9-6.1,3.2-8.1,4.3
			c0.4-10.5,0.6-22.9,0.6-35.2c2-1.5,5.6-3.5,10-1.9c6.7,2.4,9.5,7.6,10.9,6.4c1.4-1.2-2.1-10.5-7-13.3c-4.8-2.7-9.9-3.6-14-0.4
			c0.3-16.4,0.4-30.6,0.3-38.1c2.2-0.5,5.9-2,7.3-5.8c1.2-3.4,1.4-5.2,1.4-5.2s-0.4,0-1.1,0c0.8-2.5,0.9-3.8,0.9-3.8s-5-0.3-8.2,2.1
			c-0.2-0.3-0.3-0.6-0.5-0.9c0.9-0.1,2.2-0.7,4.1-2.6c3.9-3.9,0.7-12.3,0.7-12.3s-1.5,0.8-4.1,3.2c-0.8,0.8-1.4,1.7-1.8,2.6
			c-0.2-0.4-0.5-0.9-0.7-1.3c0.1-0.2,0.1-0.4,0.2-0.6c0.9-0.2,2.1-0.9,3.8-2.5c3.9-3.9,0.7-12.3,0.7-12.3s-1.5,0.8-4.1,3.2
			c-0.3,0.3-0.6,0.7-0.9,1c-0.2-0.7-0.5-1.4-0.9-2.1c0-0.1,0-0.1,0-0.2c0.7-0.4,1.5-1,2.4-1.9c3.9-3.9,0.7-12.3,0.7-12.3
			s-0.9,0.5-2.4,1.7c1.6-4.2-0.7-10.1-0.7-10.1s-1.2,0.6-3.2,2.4c-1.5-3.5-4.9-6.1-4.9-6.1s-0.9,1.5-1.9,5c-0.2,0.8-0.3,1.5-0.3,2.2
			c-1.8-0.4-3.2-0.3-3.2-0.3s0.1,1.8,1.2,5.3c0.7,2.3,2.4,3.8,4,4.8c-0.1,0.5-0.1,1-0.1,1.5c-2.6-0.9-5.2-0.9-5.2-0.9
			s0.1,1.8,1.2,5.3c1,3.1,3.4,4.7,5.5,5.5c0.1,0.2,0.2,0.4,0.3,0.6c0,0.6,0.1,1.2,0.3,1.8c-3-1.6-6.7-1.5-6.7-1.5s0.1,1.8,1.2,5.3
			c1.2,3.9,4.9,5.5,7.1,6.1c-0.1,0.4-0.2,0.8-0.2,1.3c-3.1-2.4-8-2.3-8-2.3s0.1,1.8,1.2,5.3c0.1,0.2,0.1,0.4,0.2,0.6
			c-1.2,0.1-2,0.2-2,0.2s0.4,1.8,2,5c1.3,2.6,3.7,3.8,5.8,4.3c-2.9-0.6-5.9,0-5.9,0s0.4,1.8,2,5c2.4,4.7,8.3,4.8,9.5,4.7
			c0.3,8.7,0,19.3-0.2,34.7c-0.2-0.2-0.4-0.5-0.6-0.7c-4.2-3.9-9.6-3.2-14.8-0.3c-4.9,2.7-8.4,12.1-7,13.3c1.4,1.2,4.2-4.1,10.9-6.4
			c5.2-1.8,9.4,1.3,11,2.7c0.3,2.4-0.4,13-0.6,17.4c-1.7,1.1-6.1,3.5-8.5,2.6c0,0-10-7.3-22.9-0.5c-12.9,6.8-18.8,15.2-23.7,16.3
			c-4.9,1.1,2.4,3.5,10.4,7.5c8,4,15.1,3.8,25.5-1.1c10.3-4.8,11.6-11,13-14.2c1.2-2.8,4.2-5.2,6.1-6.4c-0.9,19.8-2.8,33.1-2.1,41.3
			c0.1,0.9,2.7,1.5,3.2,0.7c0.7-1,2.1-11.3,2.6-23.4c1.6-1,6.6-3.9,8.8-2c0,0,16,15.1,30.3,13.7c14.3-1.4,24.2-9.1,29.2-8.2
			C194.8,289.4,181.2,280.9,175,274z M116.6,192.2c0.1,0.3,0.2,0.6,0.3,0.9c-0.8-0.6-1.8-1-2.7-1.2
			C115.1,192.1,116,192.2,116.6,192.2z"/>
		<path class="st5" d="M115,144c-0.4-0.4-2.6-2.3-2.7-3.2c-0.1-0.8-0.4-1.5-1.2-1.6c-0.7-0.1-1.4,0.4-1.5,1.2
			c-0.2,1.3-3,3.6-3.4,4.2c-0.7,1.3-0.8,2.8-0.2,3.2c0.3,0.2,0.7,0.1,1.1-0.1c0.6,1.8,1.7,2.7,2.1,2.7c1,0,0.7-0.7,1.5-0.7
			c0.8,0,0.5,0.6,1.3,0.9c1,0.3,1.9-1.4,2.3-3.4c0.5,0.2,1,0.3,1.3,0C116.3,146.6,116,145.2,115,144z"/>
		<path class="st6" d="M110.6,144c0.1-0.3,0-0.6-0.1-0.7c-0.2-0.1-0.4,0.1-0.5,0.4c0,0-1.1,2.3-1.1,2.5c-0.1,0.4,0.1,0.8,0.3,0.8
			c0.3,0.1,0.5-0.2,0.6-0.6C109.8,146.2,110.6,144,110.6,144z"/>
		<path class="st6" d="M111.1,144c-0.1-0.3,0-0.6,0.2-0.7s0.4,0.2,0.5,0.5c0,0,0.7,2.5,0.7,2.7c0,0.4-0.2,0.7-0.5,0.7
			c-0.3,0-0.5-0.3-0.5-0.7C111.6,146.4,111.1,144,111.1,144z"/>
		<path class="st5" d="M131.8,190.6c-0.5-0.3-3.2-1-3.6-1.8c-0.3-0.7-0.9-1.2-1.6-1c-0.7,0.2-1.1,1-1,1.7c0.2,1.3-1.5,4.6-1.6,5.3
			c-0.2,1.5,0.2,2.9,1,3c0.3,0.1,0.7-0.2,1-0.6c1.1,1.4,2.6,1.8,2.9,1.6c0.9-0.4,0.4-1,1.1-1.3c0.7-0.3,0.7,0.3,1.5,0.2
			c1-0.1,1.3-2.2,0.9-4.2c0.6,0,1-0.2,1.2-0.6C133.9,192.4,133.1,191.3,131.8,190.6z"/>
		<path class="st6" d="M127.8,192.5c0-0.3-0.2-0.6-0.4-0.6s-0.4,0.3-0.4,0.6c0,0-0.1,2.6-0.1,2.8c0.1,0.4,0.3,0.7,0.6,0.6
			c0.3-0.1,0.4-0.4,0.3-0.8C127.8,194.9,127.8,192.5,127.8,192.5z"/>
		<path class="st6" d="M128.3,192.3c-0.2-0.3-0.2-0.6,0-0.7c0.2-0.1,0.4,0,0.6,0.2c0,0,1.5,2,1.6,2.2c0.2,0.4,0.1,0.8-0.2,0.9
			s-0.6-0.1-0.7-0.4C129.5,194.3,128.3,192.3,128.3,192.3z"/>
		<path class="st5" d="M117.4,176.7c-0.3-0.5-2.2-2.8-2.1-3.7c0.1-0.8-0.2-1.5-0.9-1.8c-0.7-0.3-1.4,0.2-1.7,0.9
			c-0.4,1.2-3.6,2.9-4,3.5c-1,1.2-1.3,2.5-0.7,3.1c0.3,0.3,0.7,0.3,1.1,0.1c0.2,1.8,1.2,3,1.6,3.1c1,0.2,0.8-0.5,1.6-0.4
			c0.7,0.2,0.4,0.7,1.1,1.1c0.9,0.5,2.2-1,2.9-2.9c0.5,0.3,0.9,0.5,1.3,0.2C118.2,179.5,118.1,178.1,117.4,176.7z"/>
		<path class="st6" d="M113.1,175.8c0.2-0.3,0.1-0.6,0-0.7s-0.4,0-0.6,0.3c0,0-1.4,2.1-1.5,2.2c-0.1,0.4-0.1,0.8,0.2,0.9
			c0.2,0.1,0.6-0.1,0.7-0.5C111.9,177.8,113.1,175.8,113.1,175.8z"/>
		<path class="st6" d="M113.6,176c0-0.3,0.2-0.6,0.4-0.6c0.2,0,0.4,0.3,0.4,0.6c0,0,0.2,2.6,0.2,2.8c-0.1,0.4-0.3,0.7-0.6,0.6
			c-0.3,0-0.4-0.4-0.4-0.8C113.6,178.4,113.6,176,113.6,176z"/>
		<path class="st5" d="M121.7,148.9c-0.5-0.3-3.1-1.2-3.5-2c-0.3-0.7-0.8-1.3-1.6-1.1c-0.7,0.2-1.2,0.9-1.1,1.7
			c0.2,1.3-1.7,4.5-1.9,5.2c-0.3,1.5,0.1,2.9,0.8,3.1c0.3,0.1,0.7-0.1,1-0.5c1.1,1.5,2.5,1.9,2.8,1.8c1-0.3,0.5-0.9,1.2-1.2
			c0.7-0.3,0.7,0.4,1.5,0.3c1,0,1.4-2.1,1.1-4.1c0.6,0,1-0.1,1.2-0.5C123.6,150.8,122.9,149.6,121.7,148.9z"/>
		<path class="st6" d="M117.5,150.4c0-0.3-0.1-0.6-0.3-0.6c-0.2,0-0.4,0.2-0.4,0.6c0,0-0.3,2.6-0.3,2.8c0.1,0.4,0.3,0.7,0.6,0.6
			c0.3,0,0.4-0.4,0.4-0.8C117.4,152.8,117.5,150.4,117.5,150.4z"/>
		<path class="st6" d="M118,150.3c-0.2-0.3-0.1-0.6,0-0.7c0.2-0.1,0.4,0,0.6,0.3c0,0,1.4,2.1,1.5,2.3c0.1,0.4,0,0.8-0.2,0.9
			s-0.6-0.1-0.7-0.5C119.1,152.4,118,150.3,118,150.3z"/>
		<path class="st5" d="M126.3,177.6c-0.5-0.3-3.1-1.2-3.5-2c-0.3-0.7-0.8-1.3-1.6-1.1c-0.7,0.2-1.2,0.9-1.1,1.7
			c0.2,1.3-1.7,4.5-1.9,5.2c-0.3,1.5,0.1,2.9,0.8,3.1c0.3,0.1,0.7-0.1,1-0.5c1.1,1.5,2.5,1.9,2.8,1.8c1-0.3,0.5-0.9,1.2-1.2
			c0.7-0.3,0.7,0.4,1.5,0.3c1,0,1.4-2.1,1.1-4.1c0.6,0,1-0.1,1.2-0.5C128.3,179.5,127.5,178.3,126.3,177.6z"/>
		<path class="st6" d="M122.1,179.1c0-0.3-0.1-0.6-0.3-0.6s-0.4,0.2-0.4,0.6c0,0-0.3,2.6-0.3,2.8c0.1,0.4,0.3,0.7,0.6,0.6
			s0.4-0.4,0.4-0.8C122.1,181.6,122.1,179.1,122.1,179.1z"/>
		<path class="st6" d="M122.6,179c-0.2-0.3-0.1-0.6,0-0.7c0.2-0.1,0.4,0,0.6,0.3c0,0,1.4,2.1,1.5,2.3c0.1,0.4,0,0.8-0.2,0.9
			c-0.2,0.1-0.6-0.1-0.7-0.5C123.8,181.1,122.6,179,122.6,179z"/>
		<path class="st5" d="M119.3,196.7c-0.3-0.5-2.2-2.8-2.1-3.7c0.1-0.8-0.2-1.5-0.9-1.8c-0.7-0.3-1.4,0.2-1.7,0.9
			c-0.4,1.2-3.6,2.9-4,3.5c-0.9,1.2-1.3,2.5-0.7,3.1c0.3,0.3,0.7,0.3,1.1,0.1c0.3,1.8,1.3,3,1.6,3.1c1,0.2,0.8-0.6,1.6-0.4
			s0.4,0.7,1.1,1.1c0.9,0.5,2.2-1,2.8-2.9c0.5,0.3,0.9,0.4,1.3,0.2C120.1,199.4,120,198,119.3,196.7z"/>
		<path class="st6" d="M115,195.8c0.2-0.3,0.1-0.6,0-0.7s-0.4,0-0.6,0.3c0,0-1.4,2.1-1.5,2.3c-0.1,0.4,0,0.8,0.2,0.9
			s0.6-0.1,0.7-0.5C113.8,197.8,115,195.8,115,195.8z"/>
		<path class="st6" d="M115.4,195.9c0-0.3,0.2-0.6,0.4-0.6c0.2,0,0.4,0.3,0.4,0.6c0,0,0.3,2.6,0.2,2.8c-0.1,0.4-0.3,0.7-0.6,0.6
			c-0.3,0-0.4-0.4-0.4-0.8C115.5,198.3,115.4,195.9,115.4,195.9z"/>
	</g>
	<g>
		<path class="st4" d="M304.7,281.1c-6.2-6.8-14.6-12.4-25.8-11.9c-11.2,0.5-16.3,15.1-19.4,16.3c-2.2,0.9-6.1,3.2-8.1,4.3
			c0.4-10.5,0.6-22.9,0.6-35.2c2-1.5,5.6-3.5,10-1.9c6.7,2.4,9.5,7.6,10.9,6.4c1.4-1.2-2.1-10.5-7-13.3c-4.8-2.7-9.9-3.6-14-0.4
			c0.3-16.4,0.4-30.6,0.3-38.1c2.2-0.5,5.9-2,7.3-5.8c1.2-3.4,1.4-5.2,1.4-5.2s-0.4,0-1.1,0c0.8-2.5,0.9-3.8,0.9-3.8s-5-0.3-8.2,2.1
			c-0.2-0.3-0.3-0.6-0.5-0.9c0.9-0.1,2.2-0.7,4.1-2.6c3.9-3.9,0.7-12.3,0.7-12.3s-1.5,0.8-4.1,3.2c-0.8,0.8-1.4,1.7-1.8,2.6
			c-0.2-0.4-0.5-0.9-0.7-1.3c0.1-0.2,0.1-0.4,0.2-0.6c0.9-0.2,2.1-0.9,3.8-2.5c3.9-3.9,0.7-12.3,0.7-12.3s-1.5,0.8-4.1,3.2
			c-0.3,0.3-0.6,0.7-0.9,1c-0.2-0.7-0.5-1.4-0.9-2.1c0-0.1,0-0.1,0-0.2c0.7-0.4,1.5-1,2.4-1.9c3.9-3.9,0.7-12.3,0.7-12.3
			s-0.9,0.5-2.4,1.7c1.6-4.2-0.7-10.1-0.7-10.1s-1.2,0.6-3.2,2.4c-1.5-3.5-4.9-6.1-4.9-6.1s-0.9,1.5-1.9,5c-0.2,0.8-0.3,1.5-0.3,2.2
			c-1.8-0.4-3.2-0.3-3.2-0.3s0.1,1.8,1.2,5.3c0.7,2.3,2.4,3.8,4,4.8c-0.1,0.5-0.1,1-0.1,1.5c-2.6-0.9-5.2-0.9-5.2-0.9
			s0.1,1.8,1.2,5.3c1,3.1,3.4,4.7,5.5,5.5c0.1,0.2,0.2,0.4,0.3,0.6c0,0.6,0.1,1.2,0.3,1.8c-3-1.6-6.7-1.5-6.7-1.5s0.1,1.8,1.2,5.3
			c1.2,3.9,4.9,5.5,7.1,6.1c-0.1,0.4-0.2,0.8-0.2,1.3c-3.1-2.4-8-2.3-8-2.3s0.1,1.8,1.2,5.3c0.1,0.2,0.1,0.4,0.2,0.6
			c-1.2,0.1-2,0.2-2,0.2s0.4,1.8,2,5c1.3,2.6,3.7,3.8,5.8,4.3c-2.9-0.6-5.9,0-5.9,0s0.4,1.8,2,5c2.4,4.7,8.3,4.8,9.5,4.7
			c0.3,8.7,0,19.3-0.2,34.7c-0.2-0.2-0.4-0.5-0.6-0.7c-4.2-3.9-9.6-3.2-14.8-0.3c-4.9,2.7-8.4,12.1-7,13.3c1.4,1.2,4.2-4.1,10.9-6.4
			c5.2-1.8,9.4,1.3,11,2.7c0.3,2.4-0.4,13-0.6,17.4c-1.7,1.1-6.1,3.5-8.5,2.6c0,0-10-7.3-22.9-0.5c-12.9,6.8-18.8,15.2-23.7,16.3
			c-4.9,1.1,2.4,3.5,10.4,7.5c8,4,15.1,3.8,25.5-1.1c10.3-4.8,11.6-11,13-14.2c1.2-2.8,4.2-5.2,6.1-6.4c-0.9,19.8-2.8,33.1-2.1,41.3
			c0.1,0.9,2.7,1.5,3.2,0.7c0.7-1,2.1-11.3,2.6-23.4c1.6-1,6.6-3.9,8.8-2c0,0,16,15.1,30.3,13.7c14.3-1.4,24.2-9.1,29.2-8.2
			C324.6,296.5,310.9,287.9,304.7,281.1z M246.3,199.3c0.1,0.3,0.2,0.6,0.3,0.9c-0.8-0.6-1.8-1-2.7-1.2
			C244.8,199.2,245.7,199.2,246.3,199.3z"/>
		<path class="st5" d="M244.7,151c-0.4-0.4-2.6-2.3-2.7-3.2c-0.1-0.8-0.4-1.5-1.2-1.6c-0.7-0.1-1.4,0.4-1.5,1.2
			c-0.2,1.3-3,3.6-3.4,4.2c-0.7,1.3-0.8,2.8-0.2,3.2c0.3,0.2,0.7,0.1,1.1-0.1c0.6,1.8,1.7,2.7,2.1,2.7c1,0,0.7-0.7,1.5-0.7
			c0.8,0,0.5,0.6,1.3,0.9c1,0.3,1.9-1.4,2.3-3.4c0.5,0.2,1,0.3,1.3,0C246,153.6,245.7,152.2,244.7,151z"/>
		<path class="st6" d="M240.3,151c0.1-0.3,0-0.6-0.1-0.7s-0.4,0.1-0.5,0.4c0,0-1.1,2.3-1.1,2.5c-0.1,0.4,0.1,0.8,0.3,0.8
			c0.3,0.1,0.5-0.2,0.6-0.6C239.5,153.3,240.3,151,240.3,151z"/>
		<path class="st6" d="M240.8,151.1c-0.1-0.3,0-0.6,0.2-0.7s0.4,0.2,0.5,0.5c0,0,0.7,2.5,0.7,2.7c0,0.4-0.2,0.7-0.5,0.7
			c-0.3,0-0.5-0.3-0.5-0.7C241.3,153.4,240.8,151.1,240.8,151.1z"/>
		<path class="st5" d="M261.5,197.7c-0.5-0.3-3.2-1-3.6-1.8c-0.3-0.7-0.9-1.2-1.6-1c-0.7,0.2-1.1,1-1,1.7c0.2,1.3-1.5,4.6-1.6,5.3
			c-0.2,1.5,0.2,2.9,1,3c0.3,0.1,0.7-0.2,1-0.6c1.1,1.4,2.6,1.8,2.9,1.6c0.9-0.4,0.4-1,1.1-1.3c0.7-0.3,0.7,0.3,1.5,0.2
			c1-0.1,1.3-2.2,0.9-4.2c0.6,0,1-0.2,1.2-0.6C263.6,199.5,262.8,198.3,261.5,197.7z"/>
		<path class="st6" d="M257.5,199.5c0-0.3-0.2-0.6-0.4-0.6c-0.2,0-0.4,0.3-0.4,0.6c0,0-0.1,2.6-0.1,2.8c0.1,0.4,0.3,0.7,0.6,0.6
			s0.4-0.4,0.3-0.8C257.5,201.9,257.5,199.5,257.5,199.5z"/>
		<path class="st6" d="M258,199.4c-0.2-0.3-0.2-0.6,0-0.7s0.4,0,0.6,0.2c0,0,1.5,2,1.6,2.2c0.2,0.4,0.1,0.8-0.2,0.9
			c-0.2,0.1-0.6-0.1-0.7-0.4C259.2,201.3,258,199.4,258,199.4z"/>
		<path class="st5" d="M247.1,183.8c-0.3-0.5-2.2-2.8-2.1-3.7c0.1-0.8-0.2-1.5-0.9-1.8c-0.7-0.3-1.4,0.2-1.7,0.9
			c-0.4,1.2-3.6,2.9-4,3.5c-1,1.2-1.3,2.5-0.7,3.1c0.3,0.3,0.7,0.3,1.1,0.1c0.2,1.8,1.2,3,1.6,3.1c1,0.2,0.8-0.5,1.6-0.4
			c0.7,0.2,0.4,0.7,1.1,1.1c0.9,0.5,2.2-1,2.9-2.9c0.5,0.3,0.9,0.5,1.3,0.2C247.9,186.5,247.8,185.1,247.1,183.8z"/>
		<path class="st6" d="M242.8,182.8c0.2-0.3,0.1-0.6,0-0.7s-0.4,0-0.6,0.3c0,0-1.4,2.1-1.5,2.2c-0.1,0.4-0.1,0.8,0.2,0.9
			s0.6-0.1,0.7-0.5C241.6,184.9,242.8,182.8,242.8,182.8z"/>
		<path class="st6" d="M243.3,183c0-0.3,0.2-0.6,0.4-0.6c0.2,0,0.4,0.3,0.4,0.6c0,0,0.2,2.6,0.2,2.8c-0.1,0.4-0.3,0.7-0.6,0.6
			c-0.3,0-0.4-0.4-0.4-0.8C243.3,185.4,243.3,183,243.3,183z"/>
		<path class="st5" d="M251.4,155.9c-0.5-0.3-3.1-1.2-3.5-2c-0.3-0.7-0.8-1.3-1.6-1.1c-0.7,0.2-1.2,0.9-1.1,1.7
			c0.2,1.3-1.7,4.5-1.9,5.2c-0.3,1.5,0.1,2.9,0.8,3.1c0.3,0.1,0.7-0.1,1-0.5c1.1,1.5,2.5,1.9,2.8,1.8c1-0.3,0.5-0.9,1.2-1.2
			s0.7,0.4,1.5,0.3c1,0,1.4-2.1,1.1-4.1c0.6,0,1-0.1,1.2-0.5C253.3,157.9,252.6,156.7,251.4,155.9z"/>
		<path class="st6" d="M247.2,157.5c0-0.3-0.1-0.6-0.3-0.6c-0.2,0-0.4,0.2-0.4,0.6c0,0-0.3,2.6-0.3,2.8c0.1,0.4,0.3,0.7,0.6,0.6
			c0.3,0,0.4-0.4,0.4-0.8C247.1,159.9,247.2,157.5,247.2,157.5z"/>
		<path class="st6" d="M247.7,157.3c-0.2-0.3-0.1-0.6,0-0.7c0.2-0.1,0.4,0,0.6,0.3c0,0,1.4,2.1,1.5,2.3c0.1,0.4,0,0.8-0.2,0.9
			c-0.2,0.1-0.6-0.1-0.7-0.5C248.9,159.4,247.7,157.3,247.7,157.3z"/>
		<path class="st5" d="M256,184.6c-0.5-0.3-3.1-1.2-3.5-2c-0.3-0.7-0.8-1.3-1.6-1.1c-0.7,0.2-1.2,0.9-1.1,1.7
			c0.2,1.3-1.7,4.5-1.9,5.2c-0.3,1.5,0.1,2.9,0.8,3.1c0.3,0.1,0.7-0.1,1-0.5c1.1,1.5,2.5,1.9,2.8,1.8c1-0.3,0.5-0.9,1.2-1.2
			c0.7-0.3,0.7,0.4,1.5,0.3c1,0,1.4-2.1,1.1-4.1c0.6,0,1-0.1,1.2-0.5C258,186.6,257.3,185.4,256,184.6z"/>
		<path class="st6" d="M251.9,186.2c0-0.3-0.1-0.6-0.3-0.6c-0.2,0-0.4,0.2-0.4,0.6c0,0-0.3,2.6-0.3,2.8c0.1,0.4,0.3,0.7,0.6,0.6
			c0.3,0,0.4-0.4,0.4-0.8C251.8,188.6,251.9,186.2,251.9,186.2z"/>
		<path class="st6" d="M252.4,186.1c-0.2-0.3-0.1-0.6,0-0.7c0.2-0.1,0.4,0,0.6,0.3c0,0,1.4,2.1,1.5,2.3c0.1,0.4,0,0.8-0.2,0.9
			c-0.2,0.1-0.6-0.1-0.7-0.5C253.5,188.1,252.4,186.1,252.4,186.1z"/>
		<path class="st5" d="M249,203.7c-0.3-0.5-2.2-2.8-2.1-3.7c0.1-0.8-0.2-1.5-0.9-1.8c-0.7-0.3-1.4,0.2-1.7,0.9
			c-0.4,1.2-3.6,2.9-4,3.5c-0.9,1.2-1.3,2.5-0.7,3.1c0.3,0.3,0.7,0.3,1.1,0.1c0.3,1.8,1.3,3,1.6,3.1c1,0.2,0.8-0.6,1.6-0.4
			c0.7,0.2,0.4,0.7,1.1,1.1c0.9,0.5,2.2-1,2.8-2.9c0.5,0.3,0.9,0.4,1.3,0.2C249.8,206.5,249.7,205,249,203.7z"/>
		<path class="st6" d="M244.7,202.8c0.2-0.3,0.1-0.6,0-0.7s-0.4,0-0.6,0.3c0,0-1.4,2.1-1.5,2.3c-0.1,0.4,0,0.8,0.2,0.9
			s0.6-0.1,0.7-0.5C243.5,204.8,244.7,202.8,244.7,202.8z"/>
		<path class="st6" d="M245.2,203c0-0.3,0.2-0.6,0.4-0.6c0.2,0,0.4,0.3,0.4,0.6c0,0,0.3,2.6,0.2,2.8c-0.1,0.4-0.3,0.7-0.6,0.6
			s-0.4-0.4-0.4-0.8C245.2,205.4,245.2,203,245.2,203z"/>
	</g>
	<g>
		<path class="st4" d="M240.9,302c-6.2-6.8-14.6-12.4-25.8-11.9c-11.2,0.5-16.3,15.1-19.4,16.3c-2.2,0.9-6.1,3.2-8.1,4.3
			c0.4-10.5,0.6-22.9,0.6-35.2c2-1.5,5.6-3.5,10-1.9c6.7,2.4,9.5,7.6,10.9,6.4c1.4-1.2-2.1-10.5-7-13.3c-4.8-2.7-9.9-3.6-14-0.4
			c0.3-16.4,0.4-30.6,0.3-38.1c2.2-0.5,5.9-2,7.3-5.8c1.2-3.4,1.4-5.2,1.4-5.2s-0.4,0-1.1,0c0.8-2.5,0.9-3.8,0.9-3.8s-5-0.3-8.2,2.1
			c-0.2-0.3-0.3-0.6-0.5-0.9c0.9-0.1,2.2-0.7,4.1-2.6c3.9-3.9,0.7-12.3,0.7-12.3s-1.5,0.8-4.1,3.2c-0.8,0.8-1.4,1.7-1.8,2.6
			c-0.2-0.4-0.5-0.9-0.7-1.3c0.1-0.2,0.1-0.4,0.2-0.6c0.9-0.2,2.1-0.9,3.8-2.5c3.9-3.9,0.7-12.3,0.7-12.3s-1.5,0.8-4.1,3.2
			c-0.3,0.3-0.6,0.7-0.9,1c-0.2-0.7-0.5-1.4-0.9-2.1c0-0.1,0-0.1,0-0.2c0.7-0.4,1.5-1,2.4-1.9c3.9-3.9,0.7-12.3,0.7-12.3
			s-0.9,0.5-2.4,1.7c1.6-4.2-0.7-10.1-0.7-10.1s-1.2,0.6-3.2,2.4c-1.5-3.5-4.9-6.1-4.9-6.1s-0.9,1.5-1.9,5c-0.2,0.8-0.3,1.5-0.3,2.2
			c-1.8-0.4-3.2-0.3-3.2-0.3s0.1,1.8,1.2,5.3c0.7,2.3,2.4,3.8,4,4.8c-0.1,0.5-0.1,1-0.1,1.5c-2.6-0.9-5.2-0.9-5.2-0.9
			s0.1,1.8,1.2,5.3c1,3.1,3.4,4.7,5.5,5.5c0.1,0.2,0.2,0.4,0.3,0.6c0,0.6,0.1,1.2,0.3,1.8c-3-1.6-6.7-1.5-6.7-1.5s0.1,1.8,1.2,5.3
			c1.2,3.9,4.9,5.5,7.1,6.1c-0.1,0.4-0.2,0.8-0.2,1.3c-3.1-2.4-8-2.3-8-2.3s0.1,1.8,1.2,5.3c0.1,0.2,0.1,0.4,0.2,0.6
			c-1.2,0.1-2,0.2-2,0.2s0.4,1.8,2,5c1.3,2.6,3.7,3.8,5.8,4.3c-2.9-0.6-5.9,0-5.9,0s0.4,1.8,2,5c2.4,4.7,8.3,4.8,9.5,4.7
			c0.3,8.7,0,19.3-0.2,34.7c-0.2-0.2-0.4-0.5-0.6-0.7c-4.2-3.9-9.6-3.2-14.8-0.3c-4.9,2.7-8.4,12.1-7,13.3c1.4,1.2,4.2-4.1,10.9-6.4
			c5.2-1.8,9.4,1.3,11,2.7c0.3,2.4-0.4,13-0.6,17.4c-1.7,1.1-6.1,3.5-8.5,2.6c0,0-10-7.3-22.9-0.5s-18.8,15.2-23.7,16.3
			c-4.9,1.1,2.4,3.5,10.4,7.5c8,4,15.1,3.8,25.5-1.1c10.3-4.8,11.6-11,13-14.2c1.2-2.8,4.2-5.2,6.1-6.4c-0.9,19.8-2.8,33.1-2.1,41.3
			c0.1,0.9,2.7,1.5,3.2,0.7c0.7-1,2.1-11.3,2.6-23.4c1.6-1,6.6-3.9,8.8-2c0,0,16,15.1,30.3,13.7c14.3-1.4,24.2-9.1,29.2-8.2
			C260.8,317.4,247.2,308.8,240.9,302z M182.6,220.2c0.1,0.3,0.2,0.6,0.3,0.9c-0.8-0.6-1.8-1-2.7-1.2
			C181.1,220.1,181.9,220.2,182.6,220.2z"/>
		<path class="st5" d="M181,172c-0.4-0.4-2.6-2.3-2.7-3.2c-0.1-0.8-0.4-1.5-1.2-1.6c-0.7-0.1-1.4,0.4-1.5,1.2
			c-0.2,1.3-3,3.6-3.4,4.2c-0.7,1.3-0.8,2.8-0.2,3.2c0.3,0.2,0.7,0.1,1.1-0.1c0.6,1.8,1.7,2.7,2.1,2.7c1,0,0.7-0.7,1.5-0.7
			s0.5,0.6,1.3,0.9c1,0.3,1.9-1.4,2.3-3.4c0.5,0.2,1,0.3,1.3,0C182.2,174.5,181.9,173.1,181,172z"/>
		<path class="st6" d="M176.6,171.9c0.1-0.3,0-0.6-0.1-0.7c-0.2-0.1-0.4,0.1-0.5,0.4c0,0-1.1,2.3-1.1,2.5c-0.1,0.4,0.1,0.8,0.3,0.8
			c0.3,0.1,0.5-0.2,0.6-0.6C175.8,174.2,176.6,171.9,176.6,171.9z"/>
		<path class="st6" d="M177.1,172c-0.1-0.3,0-0.6,0.2-0.7s0.4,0.2,0.5,0.5c0,0,0.7,2.5,0.7,2.7c0,0.4-0.2,0.7-0.5,0.7
			c-0.3,0-0.5-0.3-0.5-0.7C177.5,174.4,177.1,172,177.1,172z"/>
		<path class="st5" d="M197.8,218.6c-0.5-0.3-3.2-1-3.6-1.8c-0.3-0.7-0.9-1.2-1.6-1c-0.7,0.2-1.1,1-1,1.7c0.2,1.3-1.5,4.6-1.6,5.3
			c-0.2,1.5,0.2,2.9,1,3c0.3,0.1,0.7-0.2,1-0.6c1.1,1.4,2.6,1.8,2.9,1.6c0.9-0.4,0.4-1,1.1-1.3c0.7-0.3,0.7,0.3,1.5,0.2
			c1-0.1,1.3-2.2,0.9-4.2c0.6,0,1-0.2,1.2-0.6C199.8,220.4,199.1,219.3,197.8,218.6z"/>
		<path class="st6" d="M193.7,220.5c0-0.3-0.2-0.6-0.4-0.6c-0.2,0-0.4,0.3-0.4,0.6c0,0-0.1,2.6-0.1,2.8c0.1,0.4,0.3,0.7,0.6,0.6
			c0.3-0.1,0.4-0.4,0.3-0.8C193.8,222.9,193.7,220.5,193.7,220.5z"/>
		<path class="st6" d="M194.2,220.3c-0.2-0.3-0.2-0.6,0-0.7s0.4,0,0.6,0.2c0,0,1.5,2,1.6,2.2c0.2,0.4,0.1,0.8-0.2,0.9
			c-0.2,0.1-0.6-0.1-0.7-0.4C195.5,222.3,194.2,220.3,194.2,220.3z"/>
		<path class="st5" d="M183.3,204.7c-0.3-0.5-2.2-2.8-2.1-3.7c0.1-0.8-0.2-1.5-0.9-1.8c-0.7-0.3-1.4,0.2-1.7,0.9
			c-0.4,1.2-3.6,2.9-4,3.5c-1,1.2-1.3,2.5-0.7,3.1c0.3,0.3,0.7,0.3,1.1,0.1c0.2,1.8,1.2,3,1.6,3.1c1,0.2,0.8-0.5,1.6-0.4
			c0.7,0.2,0.4,0.7,1.1,1.1c0.9,0.5,2.2-1,2.9-2.9c0.5,0.3,0.9,0.5,1.3,0.2C184.1,207.5,184.1,206,183.3,204.7z"/>
		<path class="st6" d="M179,203.8c0.2-0.3,0.1-0.6,0-0.7s-0.4,0-0.6,0.3c0,0-1.4,2.1-1.5,2.2c-0.1,0.4-0.1,0.8,0.2,0.9
			c0.2,0.1,0.6-0.1,0.7-0.5C177.8,205.8,179,203.8,179,203.8z"/>
		<path class="st6" d="M179.5,203.9c0-0.3,0.2-0.6,0.4-0.6s0.4,0.3,0.4,0.6c0,0,0.2,2.6,0.2,2.8c-0.1,0.4-0.3,0.7-0.6,0.6
			c-0.3,0-0.4-0.4-0.4-0.8C179.6,206.3,179.5,203.9,179.5,203.9z"/>
		<path class="st5" d="M187.6,176.8c-0.5-0.3-3.1-1.2-3.5-2c-0.3-0.7-0.8-1.3-1.6-1.1c-0.7,0.2-1.2,0.9-1.1,1.7
			c0.2,1.3-1.7,4.5-1.9,5.2c-0.3,1.5,0.1,2.9,0.8,3.1c0.3,0.1,0.7-0.1,1-0.5c1.1,1.5,2.5,1.9,2.8,1.8c1-0.3,0.5-0.9,1.2-1.2
			s0.7,0.4,1.5,0.3c1,0,1.4-2.1,1.1-4.1c0.6,0,1-0.1,1.2-0.5C189.6,178.8,188.8,177.6,187.6,176.8z"/>
		<path class="st6" d="M183.4,178.4c0-0.3-0.1-0.6-0.3-0.6s-0.4,0.2-0.4,0.6c0,0-0.3,2.6-0.3,2.8c0.1,0.4,0.3,0.7,0.6,0.6
			c0.3,0,0.4-0.4,0.4-0.8C183.4,180.8,183.4,178.4,183.4,178.4z"/>
		<path class="st6" d="M183.9,178.3c-0.2-0.3-0.1-0.6,0-0.7c0.2-0.1,0.4,0,0.6,0.3c0,0,1.4,2.1,1.5,2.3c0.1,0.4,0,0.8-0.2,0.9
			c-0.2,0.1-0.6-0.1-0.7-0.5C185.1,180.3,183.9,178.3,183.9,178.3z"/>
		<path class="st5" d="M192.2,205.5c-0.5-0.3-3.1-1.2-3.5-2c-0.3-0.7-0.8-1.3-1.6-1.1c-0.7,0.2-1.2,0.9-1.1,1.7
			c0.2,1.3-1.7,4.5-1.9,5.2c-0.3,1.5,0.1,2.9,0.8,3.1c0.3,0.1,0.7-0.1,1-0.5c1.1,1.5,2.5,1.9,2.8,1.8c1-0.3,0.5-0.9,1.2-1.2
			s0.7,0.4,1.5,0.3c1,0,1.4-2.1,1.1-4.1c0.6,0,1-0.1,1.2-0.5C194.2,207.5,193.5,206.3,192.2,205.5z"/>
		<path class="st6" d="M188.1,207.1c0-0.3-0.1-0.6-0.3-0.6c-0.2,0-0.4,0.2-0.4,0.6c0,0-0.3,2.6-0.3,2.8c0.1,0.4,0.3,0.7,0.6,0.6
			c0.3,0,0.4-0.4,0.4-0.8C188,209.5,188.1,207.1,188.1,207.1z"/>
		<path class="st6" d="M188.6,207c-0.2-0.3-0.1-0.6,0-0.7c0.2-0.1,0.4,0,0.6,0.3c0,0,1.4,2.1,1.5,2.3c0.1,0.4,0,0.8-0.2,0.9
			c-0.2,0.1-0.6-0.1-0.7-0.5C189.7,209,188.6,207,188.6,207z"/>
		<path class="st5" d="M185.2,224.6c-0.3-0.5-2.2-2.8-2.1-3.7c0.1-0.8-0.2-1.5-0.9-1.8c-0.7-0.3-1.4,0.2-1.7,0.9
			c-0.4,1.2-3.6,2.9-4,3.5c-0.9,1.2-1.3,2.5-0.7,3.1c0.3,0.3,0.7,0.3,1.1,0.1c0.3,1.8,1.3,3,1.6,3.1c1,0.2,0.8-0.6,1.6-0.4
			c0.7,0.2,0.4,0.7,1.1,1.1c0.9,0.5,2.2-1,2.8-2.9c0.5,0.3,0.9,0.4,1.3,0.2C186,227.4,186,226,185.2,224.6z"/>
		<path class="st6" d="M180.9,223.7c0.2-0.3,0.1-0.6,0-0.7c-0.2-0.1-0.4,0-0.6,0.3c0,0-1.4,2.1-1.5,2.3c-0.1,0.4,0,0.8,0.2,0.9
			s0.6-0.1,0.7-0.5C179.7,225.8,180.9,223.7,180.9,223.7z"/>
		<path class="st6" d="M181.4,223.9c0-0.3,0.2-0.6,0.4-0.6c0.2,0,0.4,0.3,0.4,0.6c0,0,0.3,2.6,0.2,2.8c-0.1,0.4-0.3,0.7-0.6,0.6
			c-0.3,0-0.4-0.4-0.4-0.8C181.5,226.3,181.4,223.9,181.4,223.9z"/>
	</g>
</g>
<g id="AMOUNTS">
</g>
<g id="LABELS">
</g>
</svg>
