<?xml version="1.0" encoding="utf-8"?>
<!-- Generator: Adobe Illustrator 25.2.3, SVG Export Plug-In . SVG Version: 6.00 Build 0)  -->
<svg version="1.1" xmlns="http://www.w3.org/2000/svg" xmlns:xlink="http://www.w3.org/1999/xlink" x="0px" y="0px"
	 viewBox="0 0 700 467" style="enable-background:new 0 0 700 467;" xml:space="preserve">
<style type="text/css">
	.st0{display:none;}
	.st1{display:inline;fill:#026385;}
	.st2{display:inline;fill:#35BCC0;}
	.st3{display:inline;fill:#606161;}
	.st4{display:inline;fill:#BEBFB9;}
	.st5{display:inline;fill:#3A3A3A;}
	.st6{display:inline;fill:#161616;}
	.st7{display:inline;fill:#E1E1DF;}
	.st8{display:inline;fill:#018F9F;}
	.st9{fill:#E4DED5;}
	.st10{fill:#8B561D;}
	.st11{fill:#95B90B;}
	.st12{fill:#B5CE4D;}
	.st13{fill:#FFFEFF;}
	.st14{fill:#000900;}
	.st15{fill:#8A370F;}
	.st16{fill:#FFDE01;}
	.st17{fill:#FCB912;}
	.st18{fill:#FCF54D;}
	.st19{fill:#FFFFFF;}
	.st20{fill:#EB1C24;}
	.st21{fill:#37A01A;}
	.st22{fill:#F4CB00;}
	.st23{fill:#21851D;}
	.st24{fill:#C30C08;}
	.st25{fill:#FA5810;}
	.st26{fill:#135110;}
	.st27{fill:#A7B941;}
	.st28{fill:#E0E48D;}
	.st29{fill:#DA895E;}
	.st30{fill:#63240B;}
	.st31{fill:#DC0000;}
	.st32{fill:#AE0002;}
	.st33{fill:#FF7A69;}
	.st34{fill:#426024;}
	.st35{fill:#649238;}
	.st36{fill:#432355;}
	.st37{fill:#F8C09D;}
	.st38{fill:#B31D4A;}
	.st39{fill:#DC1C4B;}
	.st40{fill:#FFE627;}
	.st41{fill:#FFAD27;}
	.st42{fill:#FFF576;}
	.st43{fill:#BCD531;}
	.st44{fill:#7F2600;}
	.st45{fill:#E0E11B;}
	.st46{fill:#98C93C;}
	.st47{fill:#A13906;}
	.st48{fill:#0B5389;}
	.st49{fill:#0C3352;}
	.st50{fill:#3279A5;}
	.st51{fill:#0F4B70;}
	.st52{fill:#DBCEAC;}
	.st53{fill:#FFF6DA;}
	.st54{fill:#FFF4D8;}
	.st55{fill:#BFAF8B;}
	.st56{fill:#6B2114;}
	.st57{fill:#F2CF95;}
	.st58{fill:#C88C43;}
	.st59{fill:#7B3720;}
	.st60{fill:#9C5738;}
	.st61{fill:#DDB67D;}
	.st62{fill:#FFE2AE;}
	.st63{fill:#133415;}
	.st64{fill:#608D62;}
	.st65{fill:#305937;}
	.st66{fill:#4E1349;}
	.st67{fill:#8A428E;}
	.st68{fill:#2A0E27;}
	.st69{fill:#2B853F;}
	.st70{fill:#83AA37;}
	.st71{fill:#96CB3B;}
	.st72{fill:#B1E656;}
	.st73{fill:#5C9514;}
	.st74{fill:#4F7319;}
	.st75{fill:#645C5A;}
	.st76{fill:#7F6D57;}
	.st77{fill:#4B423B;}
	.st78{fill:#E9E1D4;}
	.st79{fill:#9A0A14;}
	.st80{fill:#FCFAE1;}
	.st81{fill:#F8151E;}
	.st82{fill:#DA191E;}
	.st83{fill:#F9572B;}
	.st84{fill:#F79B20;}
	.st85{fill:#F36527;}
	.st86{fill:#FBD371;}
	.st87{fill:#EFEF97;}
	.st88{fill:#D87E3D;}
	.st89{fill:#B55E2C;}
	.st90{fill:#ED9857;}
	.st91{fill:#803415;}
	.st92{fill:#61176E;}
	.st93{fill:#4A1056;}
	.st94{fill:#A126B8;}
	.st95{fill:#EA0F13;}
	.st96{fill:#BC0406;}
	.st97{fill:#F9B6BD;}
	.st98{fill:#D1282B;}
	.st99{fill:#EC2125;}
	.st100{fill:#881719;}
	.st101{fill:#ADC45C;}
	.st102{fill:#717D33;}
	.st103{fill:#C0D667;}
	.st104{fill:#78C433;}
	.st105{fill:#D22127;}
	.st106{fill:#E4696C;}
	.st107{fill:#BC2325;}
	.st108{fill:#FB8794;}
	.st109{fill:#A3242B;}
	.st110{fill:#2E9649;}
	.st111{fill:#FF854E;}
	.st112{fill:#3BA746;}
	.st113{fill:#308A43;}
	.st114{fill:#F76140;}
	.st115{fill:#FCBB5E;}
	.st116{fill:#6F6252;}
	.st117{fill:#32A00D;}
</style>
<g id="layout" class="st0">
</g>
<g id="Layer_4">
	<g>
		<polygon class="st23" points="448.9,65.2 441,60.6 436.4,68.4 428.6,63.8 423.9,71.6 416.1,67 411.5,74.8 403.7,70.2 389.8,93.7 
			397.6,98.3 393,106.1 400.8,110.7 396.2,118.6 404,123.2 399.4,131 407.2,135.7 454.2,163.4 462,168 466.7,160.2 474.5,164.8 
			479.1,157 486.9,161.6 491.6,153.8 499.4,158.4 504,150.6 527.5,164.5 532.1,156.6 508.7,142.8 513.3,134.9 505.4,130.3 
			510.1,122.5 502.2,117.9 506.9,110 499,105.4 503.7,97.6 495.8,92.9 		"/>
		
			<rect x="454.8" y="73.5" transform="matrix(0.5086 -0.861 0.861 0.5086 123.3113 453.9312)" class="st26" width="9.1" height="90.9"/>
		
			<rect x="438.4" y="115.3" transform="matrix(0.5086 -0.861 0.861 0.5086 114.4995 440.2735)" class="st26" width="9.1" height="9.1"/>
		
			<rect x="439.9" y="95" transform="matrix(0.5086 -0.861 0.861 0.5086 132.6646 431.5294)" class="st26" width="9.1" height="9.1"/>
		
			<rect x="436.7" y="82.5" transform="matrix(0.5086 -0.861 0.861 0.5086 141.8148 422.6499)" class="st26" width="9.1" height="9.1"/>
		
			<rect x="471.2" y="113.5" transform="matrix(0.5086 -0.861 0.861 0.5086 132.1232 467.5889)" class="st26" width="9.1" height="9.1"/>
		
			<rect x="477.6" y="138.4" transform="matrix(0.5086 -0.861 0.861 0.5086 113.8227 485.3479)" class="st26" width="9.1" height="9.1"/>
		<rect x="468" y="101" transform="matrix(0.5086 -0.861 0.861 0.5086 141.2734 458.7094)" class="st26" width="9.1" height="9.1"/>
		<rect x="426" y="118.5" transform="matrix(0.5086 -0.861 0.861 0.5086 105.62 431.1233)" class="st26" width="9.1" height="9.1"/>
		
			<rect x="465.1" y="141.6" transform="matrix(0.5086 -0.861 0.861 0.5086 104.9432 476.1977)" class="st26" width="9.1" height="9.1"/>
	</g>
	<g>
		<polygon class="st23" points="669.1,214.4 673.4,206.3 665.3,202.1 669.6,194 661.6,189.8 665.8,181.7 657.8,177.5 662.1,169.4 
			637.9,156.6 633.7,164.7 625.7,160.4 621.4,168.5 613.4,164.2 609.1,172.2 601.1,168 596.8,176 571.2,224.2 567,232.2 575,236.5 
			570.7,244.5 578.8,248.8 574.5,256.8 582.5,261.1 578.3,269.1 586.3,273.4 573.5,297.5 581.6,301.8 594.4,277.7 602.4,281.9 
			606.7,273.9 614.7,278.1 618.9,270.1 627,274.4 631.2,266.3 639.3,270.6 643.5,262.6 		"/>
		
			<rect x="611.4" y="181.8" transform="matrix(0.8834 0.4686 -0.4686 0.8834 178.3195 -262.1017)" class="st26" width="9.1" height="90.9"/>
		
			<rect x="609.7" y="206.5" transform="matrix(0.8834 0.4686 -0.4686 0.8834 170.4839 -263.2341)" class="st26" width="9.1" height="9.1"/>
		
			<rect x="630" y="206.9" transform="matrix(0.8834 0.4686 -0.4686 0.8834 173.0831 -272.7037)" class="st26" width="9.1" height="9.1"/>
		
			<rect x="642.3" y="203.2" transform="matrix(0.8834 0.4686 -0.4686 0.8834 172.7487 -278.9054)" class="st26" width="9.1" height="9.1"/>
		
			<rect x="613" y="239.1" transform="matrix(0.8834 0.4686 -0.4686 0.8834 186.1552 -260.9693)" class="st26" width="9.1" height="9.1"/>
		
			<rect x="588.4" y="246.6" transform="matrix(0.8834 0.4686 -0.4686 0.8834 186.824 -248.566)" class="st26" width="9.1" height="9.1"/>
		
			<rect x="625.3" y="235.3" transform="matrix(0.8834 0.4686 -0.4686 0.8834 185.8208 -267.1709)" class="st26" width="9.1" height="9.1"/>
		
			<rect x="605.9" y="194.2" transform="matrix(0.8834 0.4686 -0.4686 0.8834 164.2823 -262.8997)" class="st26" width="9.1" height="9.1"/>
		
			<rect x="584.6" y="234.3" transform="matrix(0.8834 0.4686 -0.4686 0.8834 180.6224 -248.2316)" class="st26" width="9.1" height="9.1"/>
	</g>
	<g>
		<polygon class="st36" points="166,352.3 163.5,338.9 156.8,340.1 155.6,333.5 148.9,334.7 147.6,328 141,329.2 139.7,322.6 
			133,323.8 131.8,317.1 125.1,318.3 123.9,311.6 117.2,312.9 113.5,292.8 100.1,295.3 103.8,315.4 97.1,316.6 98.3,323.3 
			91.7,324.5 92.9,331.2 86.2,332.5 87.4,339.1 80.8,340.4 82,347.1 75.3,348.3 76.5,355 69.9,356.2 72.3,369.6 65.6,370.8 
			73.1,411 79.8,409.7 81,416.4 87.7,415.2 88.9,421.9 169.2,407 167.9,400.3 174.6,399.1 173.4,392.4 180.1,391.2 172.7,351 		"/>
		<polygon class="st37" points="167.2,359 160.5,360.2 158,346.8 151.4,348.1 150.1,341.4 143.4,342.6 142.2,335.9 135.5,337.2 
			134.3,330.5 127.6,331.7 126.3,325 119.7,326.3 118.4,319.6 105,322.1 106.3,328.7 99.6,330 100.8,336.7 94.1,337.9 95.4,344.6 
			88.7,345.8 89.9,352.5 83.2,353.8 84.5,360.4 77.8,361.7 80.3,375.1 73.6,376.3 78.5,403.1 85.2,401.8 86.4,408.5 93.1,407.3 
			94.4,414 121.1,409 134.5,406.5 161.3,401.6 160,394.9 166.7,393.6 165.5,387 172.2,385.7 		"/>
		<polygon class="st38" points="160.5,360.2 153.8,361.4 152.6,354.8 145.9,356 144.7,349.3 138,350.5 136.7,343.9 130.1,345.1 
			128.8,338.4 122.1,339.6 120.9,333 107.5,335.4 108.8,342.1 102.1,343.4 103.3,350 96.6,351.3 97.8,358 91.2,359.2 92.4,365.9 
			85.7,367.1 86.9,373.8 80.3,375.1 84,395.1 90.7,393.9 91.9,400.6 98.6,399.3 99.8,406 153.3,396.1 152.1,389.4 158.8,388.2 
			157.5,381.5 164.2,380.3 		"/>
		
			<rect x="148.3" y="361.9" transform="matrix(0.9833 -0.182 0.182 0.9833 -64.5743 33.7702)" class="st39" width="6.8" height="13.6"/>
		
			<rect x="124" y="380.3" transform="matrix(0.9833 -0.182 0.182 0.9833 -68.3153 29.658)" class="st39" width="6.8" height="13.6"/>
		
			<rect x="99.9" y="363.8" transform="matrix(0.9833 -0.182 0.182 0.9833 -65.7171 24.9888)" class="st39" width="6.8" height="13.6"/>
		
			<rect x="87.5" y="373.1" transform="matrix(0.9833 -0.182 0.182 0.9833 -67.0088 22.8327)" class="st39" width="6.8" height="6.8"/>
		
			<rect x="103.2" y="349.3" transform="matrix(0.9833 -0.182 0.182 0.9833 -62.4072 25.2832)" class="st39" width="6.8" height="6.8"/>
		
			<rect x="111.4" y="389.8" transform="matrix(0.9833 -0.182 0.182 0.9833 -69.6348 27.4544)" class="st39" width="6.8" height="6.8"/>
		
			<rect x="127.8" y="365.8" transform="matrix(0.9833 -0.182 0.182 0.9833 -64.9957 30.0378)" class="st39" width="6.8" height="6.8"/>
		
			<rect x="131.9" y="351.1" transform="matrix(0.9833 -0.182 0.182 0.9833 -62.2569 30.5347)" class="st39" width="6.8" height="6.8"/>
		
			<rect x="116.6" y="340.1" transform="matrix(0.9833 -0.182 0.182 0.9833 -61.136 27.6361)" class="st39" width="6.8" height="13.6"/>
		
			<rect x="114.3" y="368.2" transform="matrix(0.9833 -0.182 0.182 0.9833 -65.6609 27.619)" class="st39" width="6.8" height="6.8"/>
		
			<rect x="96.7" y="385.3" transform="matrix(0.9833 -0.182 0.182 0.9833 -69.0649 24.7033)" class="st39" width="6.8" height="6.8"/>
		
			<rect x="145.4" y="383.3" transform="matrix(0.9833 -0.182 0.182 0.9833 -68.501 33.5846)" class="st39" width="6.8" height="13.6"/>
		
			<rect x="83.3" y="387.8" transform="matrix(0.9833 -0.182 0.182 0.9833 -69.7389 22.3101)" class="st39" width="6.8" height="6.8"/>
	</g>
	<g>
		<polygon class="st63" points="284.1,67.3 276.4,67.3 276.4,59.6 268.8,59.6 268.8,52 222.8,52 222.8,59.6 215.2,59.6 215.2,67.3 
			207.5,67.3 207.5,105.6 215.2,105.6 215.2,113.2 222.8,113.2 222.8,120.9 268.8,120.9 268.8,113.2 276.4,113.2 276.4,105.6 
			284.1,105.6 		"/>
		<rect x="227.1" y="79.2" class="st64" width="7.7" height="7.7"/>
		<rect x="245.8" y="59.6" class="st64" width="7.7" height="7.7"/>
		<rect x="261.1" y="97.9" class="st64" width="7.7" height="7.7"/>
		<rect x="276.4" y="52" class="st64" width="7.7" height="7.7"/>
		<rect x="222.8" y="36.7" class="st64" width="7.7" height="7.7"/>
		<rect x="184.5" y="44.3" class="st64" width="7.7" height="7.7"/>
		<rect x="199.9" y="120.9" class="st65" width="7.7" height="7.7"/>
		<rect x="261.1" y="82.6" class="st65" width="7.7" height="7.7"/>
		<rect x="276.4" y="113.2" class="st65" width="15.3" height="15.3"/>
		<rect x="199.9" y="36.7" class="st65" width="15.3" height="15.3"/>
		<rect x="284.1" y="29" class="st65" width="7.7" height="7.7"/>
		<rect x="230.5" y="136.2" class="st65" width="7.7" height="7.7"/>
		<rect x="299.4" y="90.3" class="st64" width="7.7" height="7.7"/>
	</g>
	<g>
		<polygon class="st66" points="534.1,179.6 505.8,182.1 504.6,168 462.1,171.8 460.9,157.7 446.8,158.9 445.5,144.8 417.2,147.3 
			416,133.2 387.7,135.7 386.4,121.5 372.3,122.8 371,108.7 344.3,111.1 343.1,96.9 270.8,103.4 275.9,159.9 290,158.6 292.5,186.9 
			306.7,185.7 309.2,213.9 337.4,211.4 338.7,225.5 352.8,224.3 355.4,252.6 369.5,251.3 372,279.6 400.3,277 402.8,305.3 
			431.1,302.8 432.4,316.9 517.2,309.4 515.9,295.2 544.2,292.7 		"/>
		
			<rect x="492.9" y="182.7" transform="matrix(0.996 -8.886144e-02 8.886144e-02 0.996 -15.5193 45.2108)" class="st67" width="14.2" height="28.4"/>
		
			<rect x="400.9" y="262.2" transform="matrix(0.996 -8.886144e-02 8.886144e-02 0.996 -23.5767 37.3765)" class="st68" width="14.2" height="42.6"/>
		
			<rect x="431.7" y="301.5" transform="matrix(0.996 -8.886144e-02 8.886144e-02 0.996 -25.6591 40.8404)" class="st68" width="28.4" height="14.2"/>
		
			<rect x="429.2" y="273.9" transform="matrix(0.996 -8.886144e-02 8.886144e-02 0.996 -23.2408 39.8789)" class="st68" width="14.2" height="14.2"/>
		
			<rect x="478.1" y="183.4" transform="matrix(0.996 -8.886144e-02 8.886144e-02 0.996 -14.9777 44.5012)" class="st67" width="28.4" height="14.2"/>
		
			<rect x="509.6" y="209.7" transform="matrix(0.996 -8.886144e-02 8.886144e-02 0.996 -17.8537 46.798)" class="st67" width="14.2" height="28.4"/>
		
			<rect x="426.1" y="168.1" transform="matrix(0.996 -8.886144e-02 8.886144e-02 0.996 -13.8517 39.1843)" class="st67" width="14.2" height="14.2"/>
		
			<rect x="371.4" y="264.8" transform="matrix(0.996 -8.886144e-02 8.886144e-02 0.996 -22.6616 34.7061)" class="st68" width="14.2" height="14.2"/>
		<polygon class="st69" points="326.1,84.2 312,85.4 297.8,86.7 283.7,88 282.4,73.8 254.2,76.4 256.7,104.6 270.8,103.4 
			272.1,117.5 273.3,131.6 287.5,130.4 286.2,116.2 314.5,113.7 313.2,99.6 327.4,98.3 		"/>
		
			<rect x="298.4" y="86" transform="matrix(0.996 -8.886144e-02 8.886144e-02 0.996 -7.0681 27.5175)" class="st21" width="14.2" height="14.2"/>
		
			<rect x="268.9" y="74.4" transform="matrix(0.996 -8.886144e-02 8.886144e-02 0.996 -6.1529 24.8472)" class="st21" width="14.2" height="14.2"/>
		
			<rect x="284.3" y="87.3" transform="matrix(0.996 -8.886144e-02 8.886144e-02 0.996 -7.2361 26.2663)" class="st21" width="14.2" height="14.2"/>
	</g>
	<g>
		<polygon class="st75" points="140.4,171.8 131.4,171.8 131.4,162.8 122.4,162.8 122.4,153.7 68.3,153.7 68.3,162.8 59.2,162.8 
			59.2,171.8 50.2,171.8 50.2,216.9 59.2,216.9 59.2,225.9 68.3,225.9 68.3,234.9 122.4,234.9 122.4,225.9 131.4,225.9 131.4,216.9 
			140.4,216.9 		"/>
		<rect x="104.3" y="189.8" class="st76" width="18" height="9"/>
		<rect x="113.3" y="135.7" class="st76" width="18" height="9"/>
		<rect x="113.3" y="162.8" class="st76" width="18" height="9"/>
		<rect x="68.3" y="171.8" class="st77" width="18" height="9"/>
		<rect x="77.3" y="216.9" class="st77" width="18" height="9"/>
		<rect x="113.3" y="243.9" class="st76" width="18" height="9"/>
		<rect x="77.3" y="126.7" class="st77" width="18" height="9"/>
		<rect x="81.3" y="248.9" class="st77" width="9" height="9"/>
		<rect x="158.4" y="180.8" class="st76" width="9" height="9"/>
		<rect x="59.2" y="189.8" class="st78" width="18" height="9"/>
		<rect x="95.3" y="153.7" class="st78" width="18" height="9"/>
		<rect x="113.3" y="216.9" class="st78" width="9" height="9"/>
		<rect x="95.3" y="180.8" class="st78" width="9" height="9"/>
		<rect x="32.2" y="234.9" class="st78" width="18" height="9"/>
		<rect x="140.4" y="225.9" class="st78" width="9" height="9"/>
		<rect x="104.3" y="198.8" class="st77" width="9" height="9"/>
		<rect x="50.2" y="135.7" class="st77" width="9" height="9"/>
		<rect x="23.2" y="162.8" class="st76" width="18" height="9"/>
		<rect x="32.2" y="207.9" class="st76" width="9" height="9"/>
	</g>
	<g>
		<polygon class="st48" points="609.4,379.9 604.4,379.9 604.4,374.9 599.4,374.9 599.4,369.9 564.4,369.9 564.4,374.9 559.4,374.9 
			559.4,379.9 554.4,379.9 554.4,404.8 559.4,404.8 559.4,409.8 564.4,409.8 564.4,414.8 599.4,414.8 599.4,409.8 604.4,409.8 
			604.4,404.8 609.4,404.8 		"/>
		<rect x="568.8" y="379.9" class="st49" width="25" height="5"/>
		<rect x="573.8" y="374.9" class="st49" width="15" height="15"/>
		<rect x="559.4" y="389.9" class="st50" width="5" height="10"/>
		<rect x="564.4" y="399.8" class="st50" width="5" height="5"/>
		<rect x="594.4" y="409.8" class="st51" width="5" height="5"/>
		<rect x="599.4" y="404.8" class="st51" width="5" height="5"/>
		<rect x="604.4" y="399.8" class="st51" width="5" height="5"/>
		<rect x="599.4" y="379.9" class="st50" width="5" height="5"/>
	</g>
	<g>
		<polygon class="st21" points="595.6,65.1 586.7,69.3 582.5,60.5 573.7,64.7 569.5,55.8 560.6,60 556.4,51.1 547.5,55.3 
			543.3,46.5 516.7,59 520.9,67.9 512.1,72.1 516.3,81 507.4,85.2 511.6,94 502.7,98.2 506.9,107.1 498.1,111.3 527.4,173.4 
			536.3,169.2 540.5,178.1 549.4,173.9 553.6,182.7 562.4,178.5 566.6,187.4 575.5,183.2 579.7,192.1 588.6,187.9 601.2,214.5 
			610,210.3 597.4,183.7 606.3,179.5 602.1,170.6 611,166.4 606.8,157.5 615.6,153.4 611.4,144.5 620.3,140.3 616.1,131.4 
			625,127.2 		"/>
		
			<rect x="562.9" y="83.5" transform="matrix(0.9039 -0.4278 0.4278 0.9039 -2.1346 255.6304)" class="st104" width="9.8" height="98.1"/>
		
			<rect x="537.7" y="69.5" transform="matrix(0.9039 -0.4278 0.4278 0.9039 18.2067 239.7446)" class="st104" width="9.8" height="19.6"/>
		
			<rect x="530.5" y="105" transform="matrix(0.9039 -0.4278 0.4278 0.9039 4.4359 239.5832)" class="st104" width="9.8" height="9.8"/>
		
			<rect x="542.6" y="107.4" transform="matrix(0.9039 -0.4278 0.4278 0.9039 5.0745 247.1714)" class="st104" width="20" height="9.8"/>
		
			<rect x="517" y="100.2" transform="matrix(0.9039 -0.4278 0.4278 0.9039 5.1873 233.3384)" class="st104" width="9.8" height="9.8"/>
		
			<rect x="573.9" y="127.9" transform="matrix(0.9039 -0.4278 0.4278 0.9039 -1.1821 260.3445)" class="st104" width="9.8" height="9.8"/>
		
			<rect x="578.5" y="114.8" transform="matrix(0.9039 -0.4278 0.4278 0.9039 4.8557 261.087)" class="st104" width="9.8" height="9.8"/>
		
			<rect x="583.2" y="101.8" transform="matrix(0.9039 -0.4278 0.4278 0.9039 10.8936 261.8296)" class="st104" width="9.8" height="9.8"/>
		
			<rect x="529.5" y="148.9" transform="matrix(0.9039 -0.4278 0.4278 0.9039 -14.4203 243.3933)" class="st104" width="9.8" height="9.8"/>
		
			<rect x="555.2" y="156.1" transform="matrix(0.9039 -0.4278 0.4278 0.9039 -14.5816 257.1642)" class="st104" width="19.6" height="9.8"/>
		
			<rect x="543.6" y="153.5" transform="matrix(0.9039 -0.4278 0.4278 0.9039 -15.0238 249.8689)" class="st104" width="9.8" height="9.8"/>
		
			<rect x="591.1" y="141.4" transform="matrix(0.9039 -0.4278 0.4278 0.9039 -5.3149 269.0299)" class="st23" width="9.8" height="9.8"/>
		
			<rect x="551" y="79.6" transform="matrix(0.9039 -0.4278 0.4278 0.9039 17.2758 245.9296)" class="st104" width="9.8" height="9.8"/>
		
			<rect x="595.8" y="128.4" transform="matrix(0.9039 -0.4278 0.4278 0.9039 0.7229 269.7725)" class="st23" width="9.8" height="9.8"/>
		
			<rect x="516.9" y="122.3" transform="matrix(0.9039 -0.4278 0.4278 0.9039 -4.2496 235.4504)" class="st23" width="9.8" height="9.8"/>
	</g>
	<g>
		<polygon class="st105" points="477.3,405.2 482,397.6 478.2,395.3 480.5,391.5 476.8,389.2 479.1,385.5 475.4,383.1 471.6,380.8 
			467.9,378.4 465.5,382.2 461.8,379.8 459.4,383.6 455.7,381.3 451,388.8 447.2,386.4 428.5,416.5 432.2,418.8 429.9,422.6 
			433.7,424.9 431.3,428.7 435.2,431.1 432.8,434.9 444.1,441.9 446.5,438.1 450.1,440.4 452.4,436.6 456.2,439 458.5,435.2 
			462.3,437.5 481,407.5 		"/>
		
			<rect x="447.2" y="384.6" transform="matrix(0.8485 0.5292 -0.5292 0.8485 277.4831 -177.8954)" class="st106" width="4.4" height="22.1"/>
		
			<rect x="455.7" y="425.7" transform="matrix(0.8485 0.5292 -0.5292 0.8485 298.1293 -176.8409)" class="st107" width="4.4" height="13.3"/>
		
			<rect x="443.2" y="434.1" transform="matrix(0.8485 0.5292 -0.5292 0.8485 298.682 -170.7751)" class="st107" width="8.9" height="4.4"/>
		
			<rect x="461.8" y="424.2" transform="matrix(0.8485 0.5292 -0.5292 0.8485 298.3051 -180.2819)" class="st107" width="4.4" height="13.3"/>
		
			<rect x="442.4" y="432.6" transform="matrix(0.8485 0.5292 -0.5292 0.8485 298.5941 -169.0546)" class="st107" width="4.4" height="8.9"/>
		
			<rect x="456.9" y="384.2" transform="matrix(0.8485 0.5292 -0.5292 0.8485 275.2098 -184.049)" class="st108" width="4.4" height="8.9"/>
		
			<rect x="449.6" y="389.7" transform="matrix(0.8485 0.5292 -0.5292 0.8485 275.8504 -179.7038)" class="st108" width="4.4" height="4.4"/>
		
			<rect x="465.1" y="410.6" transform="matrix(0.8485 0.5292 -0.5292 0.8485 291.5987 -184.0744)" class="st107" width="4.4" height="13.3"/>
		
			<rect x="449.6" y="431.5" transform="matrix(0.8485 0.5292 -0.5292 0.8485 297.9536 -173.3998)" class="st107" width="4.4" height="4.4"/>
		
			<rect x="453.4" y="433.8" transform="matrix(0.8485 0.5292 -0.5292 0.8485 299.7619 -175.0325)" class="st109" width="4.4" height="4.4"/>
		
			<rect x="447.3" y="435.3" transform="matrix(0.8485 0.5292 -0.5292 0.8485 299.5862 -171.5914)" class="st109" width="4.4" height="4.4"/>
		
			<rect x="441.2" y="436.7" transform="matrix(0.8485 0.5292 -0.5292 0.8485 299.4105 -168.1504)" class="st109" width="4.4" height="4.4"/>
	</g>
	<g>
		<polygon class="st105" points="282.5,192.8 280,184.3 275.7,185.5 274.5,181.3 270.2,182.6 269,178.3 264.7,179.6 260.5,180.9 
			256.2,182.1 257.5,186.4 253.3,187.6 254.5,191.9 250.3,193.1 252.8,201.6 248.6,202.9 258.7,236.8 262.9,235.5 264.2,239.8 
			268.4,238.5 269.7,242.8 274.1,241.5 275.4,245.8 288.1,242 286.8,237.7 290.9,236.4 289.7,232.2 293.9,230.9 292.6,226.7 
			296.9,225.4 286.7,191.5 		"/>
		
			<rect x="254.8" y="196.3" transform="matrix(0.9582 -0.2859 0.2859 0.9582 -48.5619 82.1485)" class="st106" width="4.4" height="22.1"/>
		
			<rect x="287.8" y="218.6" transform="matrix(0.9582 -0.2859 0.2859 0.9582 -52.2877 92.3424)" class="st107" width="4.4" height="13.3"/>
		
			<rect x="281.8" y="233.4" transform="matrix(0.9582 -0.2859 0.2859 0.9582 -55.4162 91.6804)" class="st107" width="8.9" height="4.4"/>
		
			<rect x="290.8" y="213.1" transform="matrix(0.9582 -0.2859 0.2859 0.9582 -50.5888 92.9634)" class="st107" width="4.4" height="13.3"/>
		
			<rect x="282.5" y="233.9" transform="matrix(0.9582 -0.2859 0.2859 0.9582 -56.2657 91.3699)" class="st107" width="4.4" height="8.9"/>
		
			<rect x="255.9" y="191.1" transform="matrix(0.9582 -0.2859 0.2859 0.9582 -45.1229 81.961)" class="st108" width="4.4" height="8.9"/>
		
			<rect x="253.5" y="200.9" transform="matrix(0.9582 -0.2859 0.2859 0.9582 -47.4019 81.6095)" class="st108" width="4.4" height="4.4"/>
		
			<rect x="282.8" y="201.6" transform="matrix(0.9582 -0.2859 0.2859 0.9582 -47.6478 90.1864)" class="st107" width="4.4" height="13.3"/>
		
			<rect x="284.9" y="228.5" transform="matrix(0.9582 -0.2859 0.2859 0.9582 -53.9867 91.7214)" class="st107" width="4.4" height="4.4"/>
		
			<rect x="289.1" y="227.2" transform="matrix(0.9582 -0.2859 0.2859 0.9582 -53.4477 92.8814)" class="st109" width="4.4" height="4.4"/>
		
			<rect x="286.1" y="232.8" transform="matrix(0.9582 -0.2859 0.2859 0.9582 -55.1467 92.2604)" class="st109" width="4.4" height="4.4"/>
		
			<rect x="283.2" y="238.3" transform="matrix(0.9582 -0.2859 0.2859 0.9582 -56.8457 91.6395)" class="st109" width="4.4" height="4.4"/>
	</g>
	<g>
		<g>
			
				<rect x="356.6" y="277.5" transform="matrix(0.972 0.235 -0.235 0.972 80.9982 -79.3861)" class="st110" width="34" height="45.4"/>
			<polygon class="st111" points="379.2,301.5 381.8,290.5 359.8,285.2 362.4,274.2 340.4,268.8 337.7,279.9 326.7,277.2 324,288.2 
				313,285.6 307.7,307.6 296.6,304.9 294,316 282.9,313.3 277.6,335.4 266.6,332.7 261.3,354.7 250.2,352.1 244.9,374.1 
				233.9,371.5 228.5,393.5 217.5,390.9 214.8,401.9 203.8,399.2 201.2,410.2 198.5,421.3 187.5,418.6 184.8,429.6 195.8,432.3 
				206.8,435 209.5,423.9 231.6,429.3 234.2,418.2 245.3,420.9 247.9,409.9 259,412.5 261.6,401.5 283.7,406.8 286.3,395.8 
				297.4,398.5 300,387.5 311.1,390.1 313.7,379.1 324.7,381.8 327.4,370.7 338.4,373.4 341.1,362.4 352.1,365 357.5,343 
				368.5,345.7 371.2,334.6 382.2,337.3 390.2,304.2 			"/>
			
				<rect x="374.3" y="269.6" transform="matrix(0.972 0.235 -0.235 0.972 75.6425 -84.2398)" class="st112" width="34" height="11.3"/>
			
				<rect x="385.7" y="258.3" transform="matrix(0.972 0.235 -0.235 0.972 75.6425 -84.2398)" class="st112" width="11.3" height="34"/>
			
				<rect x="384.3" y="269.5" transform="matrix(0.972 0.235 -0.235 0.972 76.9006 -83.7723)" class="st113" width="11.3" height="22.7"/>
			
				<rect x="262.6" y="393" transform="matrix(0.972 0.235 -0.235 0.972 101.3415 -53.2131)" class="st114" width="22.7" height="11.3"/>
			
				<rect x="287.5" y="386" transform="matrix(0.972 0.235 -0.235 0.972 100.2277 -57.9225)" class="st114" width="11.3" height="11.3"/>
			
				<rect x="333.6" y="292.1" transform="matrix(0.972 0.235 -0.235 0.972 79.4514 -71.3698)" class="st115" width="11.3" height="11.3"/>
			
				<rect x="249.1" y="400" transform="matrix(0.972 0.235 -0.235 0.972 102.4553 -48.5037)" class="st114" width="11.3" height="11.3"/>
			
				<rect x="235.4" y="408.4" transform="matrix(0.972 0.235 -0.235 0.972 104.0366 -45.0525)" class="st114" width="11.3" height="11.3"/>
			
				<rect x="210.5" y="415.4" transform="matrix(0.972 0.235 -0.235 0.972 105.1503 -40.3431)" class="st114" width="22.7" height="11.3"/>
			
				<rect x="325.2" y="278.4" transform="matrix(0.972 0.235 -0.235 0.972 76.0001 -69.7885)" class="st115" width="11.3" height="11.3"/>
			
				<rect x="314.9" y="369.2" transform="matrix(0.972 0.235 -0.235 0.972 97.0652 -64.8249)" class="st114" width="11.3" height="11.3"/>
			
				<rect x="311.9" y="333.5" transform="matrix(0.972 0.235 -0.235 0.972 88.5814 -65.1136)" class="st115" width="11.3" height="11.3"/>
			
				<rect x="273.5" y="347.6" transform="matrix(0.972 0.235 -0.235 0.972 90.809 -55.6949)" class="st115" width="11.3" height="11.3"/>
			
				<rect x="308.8" y="297.8" transform="matrix(0.972 0.235 -0.235 0.972 80.0976 -65.4023)" class="st115" width="11.3" height="11.3"/>
		</g>
		
			<rect x="399.4" y="261.3" transform="matrix(0.972 0.235 -0.235 0.972 74.0612 -87.691)" class="st112" width="11.3" height="11.3"/>
		
			<rect x="411.7" y="252.8" transform="matrix(0.972 0.235 -0.235 0.972 73.7381 -90.6747)" class="st112" width="11.3" height="22.7"/>
		
			<rect x="425.4" y="244.4" transform="matrix(0.972 0.235 -0.235 0.972 72.1568 -94.126)" class="st112" width="11.3" height="22.7"/>
		
			<rect x="439.1" y="236" transform="matrix(0.972 0.235 -0.235 0.972 70.5755 -97.5772)" class="st112" width="11.3" height="22.7"/>
		
			<rect x="445.8" y="214.1" transform="matrix(0.972 0.235 -0.235 0.972 64.2849 -99.9147)" class="st112" width="11.3" height="11.3"/>
		
			<rect x="451.3" y="240.2" transform="matrix(0.972 0.235 -0.235 0.972 70.7199 -101.8191)" class="st110" width="22.7" height="11.3"/>
		
			<rect x="454.1" y="227.8" transform="matrix(0.972 0.235 -0.235 0.972 67.7361 -101.4959)" class="st112" width="11.3" height="11.3"/>
		
			<rect x="443.1" y="225.2" transform="matrix(0.972 0.235 -0.235 0.972 66.8011 -98.9797)" class="st112" width="11.3" height="11.3"/>
		
			<rect x="467.8" y="219.5" transform="matrix(0.972 0.235 -0.235 0.972 66.1548 -104.9472)" class="st112" width="11.3" height="11.3"/>
		
			<rect x="470.5" y="208.4" transform="matrix(0.972 0.235 -0.235 0.972 63.6386 -105.8822)" class="st112" width="11.3" height="11.3"/>
		
			<rect x="478.8" y="222.1" transform="matrix(0.972 0.235 -0.235 0.972 67.0898 -107.4634)" class="st112" width="11.3" height="11.3"/>
		
			<rect x="396.7" y="272.3" transform="matrix(0.972 0.235 -0.235 0.972 76.5775 -86.756)" class="st113" width="11.3" height="11.3"/>
		
			<rect x="465.1" y="230.5" transform="matrix(0.972 0.235 -0.235 0.972 68.6711 -104.0122)" class="st113" width="11.3" height="11.3"/>
		
			<rect x="456.8" y="216.8" transform="matrix(0.972 0.235 -0.235 0.972 65.2199 -102.4309)" class="st113" width="11.3" height="11.3"/>
		
			<rect x="476.2" y="233.2" transform="matrix(0.972 0.235 -0.235 0.972 69.6061 -106.5285)" class="st113" width="11.3" height="11.3"/>
		
			<rect x="459.5" y="205.8" transform="matrix(0.972 0.235 -0.235 0.972 62.7036 -103.3659)" class="st112" width="11.3" height="11.3"/>
	</g>
</g>
<g id="AMOUNTS" class="st0">
</g>
<g id="LABELS" class="st0">
</g>
</svg>
