<?xml version="1.0" encoding="utf-8"?>
<!-- Generator: Adobe Illustrator 25.2.3, SVG Export Plug-In . SVG Version: 6.00 Build 0)  -->
<svg version="1.1" xmlns="http://www.w3.org/2000/svg" xmlns:xlink="http://www.w3.org/1999/xlink" x="0px" y="0px"
	 viewBox="0 0 300 350" style="enable-background:new 0 0 300 350;" xml:space="preserve">
<style type="text/css">
	.st0{fill:#E4DED5;}
	.st1{fill:#6F6252;}
	.st2{fill:#32A00D;}
	.st3{fill:none;stroke:#443E93;stroke-width:5;stroke-miterlimit:10;}
	.st4{fill:#9E1F25;}
	.st5{fill-rule:evenodd;clip-rule:evenodd;fill:#CF232E;}
	.st6{fill:#F7A33B;}
	.st7{fill:#F5C032;}
	.st8{fill:#FFF6D1;}
	.st9{fill:#6AA266;}
	.st10{fill:#443E93;}
	.st11{fill:#FFFFFF;}
</style>
<g id="layout">
</g>
<g id="Layer_4">
</g>
<g id="AMOUNTS">
</g>
<g id="LABELS">
	<path class="st4" d="M263.6,112.4c-9.6-19.4-5.6-3.5-5.8,11.6c-0.2,15.1-4.8,10.8-27.1,1.8c-22.3-9-8.7-47.2-27.8-59.6
		c-19.1-12.4-0.7-24.1,10.7-35s-43.1,21.5-43,37.8s17.6,21.2,18,43.9c0,0.5,0,1,0,1.5c-0.2,0.2-0.4,0.3-0.6,0.5
		c-12.6,9.5-8,20.8-20.7,13.6c-2.9-1.6-5.1-3.3-6.8-4.9c-3.1-15.5-2.9-35.5-4.8-29.1c-0.9,2.9-1.6,5.5-2.6,7.9
		c-0.3,0.3-0.8,1.3-1.3,2.9c-2.4,4.6-6.2,8.1-14.5,10.8c-12.2,3.9-8.5-3.4-14.4-13.3c7.4-11.1,18.8-14.7,21.5-27
		c3.5-16-43.2-58.9-34.3-45.9c9,13,24.5,28.2,3.3,36.5c-8.7,3.4-12.9,12.1-16.5,21.5c-1.6,1.8-2.6,4.3-2.8,7.5
		C90.1,106.5,85.5,117,74,119c-23.7,4.2-29.1,7.5-26.1-7.4C50.8,96.8,58,82,44.6,99.1c-13.3,17.1-34,38.7-14.8,55.4
		c19.2,16.7,10.8,67.2,14.5,91c16.3,105.1,178.2,90.1,189.6,10.3c3.4-24.1,10.7-73.6,32.9-86.1C289,157.3,273.2,131.9,263.6,112.4z"
		/>
	<path class="st5" d="M83.3,149.7c1.9,19,8.2,36.3,26.6,47.4c-20.7-43.4-9-86.4,19.8-103.1c-2.8,5.6-6.6,17.7,0.9,23.7
		c24-26.4,31.5-69.6,27.6-104.7c28,32.4,42.7,76.5,22.6,114.4c-13.8,26.8,5.8,54.1,18.8,0.8c49.4,56,44.4,150.3-34.9,167.7
		c7.2-9.1,50.5-50.8,10.4-101.6c3.8,38.9-92,38.6-47.1,99.1C58.4,274.4,54.9,202.4,83.3,149.7z"/>
	<path class="st6" d="M146.3,214.5c35.4-39.9-34.2-66.8-15.2-65c28.3,2.7,42.2,22.6,57,36.8c14.8,14.3,21.5,126.4-53.8,110.2
		C110.5,291.4,126.4,236.8,146.3,214.5z"/>
	<path class="st7" d="M177.1,258.3c4.1,4.9-2.4,19.3-7.5,27c-11.9,17.8-34.2,15.7-50.5,5.1c-15.4-9.9-13.3-22.2-13.5-28.1
		c-0.2-6,0,0,6,3.2c6,3.2-6.4-12.1-2-23.9c4.4-11.8,6.5-2.7,2.5-24.1c-4.4-23.9-3.1-10-2.5-24.2c0.6-14.2-2.5-20.6,5.9-8.8
		c8.4,11.8-4,8.6,5.4,24.1s23.3,10.5,15.5,26.2c-7.9,15.7-7.8,43.5,2.9,25.5c6.9-11.7,17-13.2,19.5-3.9c3.2,12.1-11.9,20,4.4,13.6
		C179.5,263.7,171.7,251.8,177.1,258.3z"/>
	<path class="st8" d="M135.9,273.6c0,0-0.4,13.4-0.1,16.2c0.3,2.8,0.2,2.6-0.7,2.1s-0.6-4.5-1-6.2s-0.9-9.6-2.6-12.3
		c-1.7-2.7-4.1-8.7-4.5-11.9c-0.4-3.4-0.3-10.1-1.4-10.3s-5.1-0.7-6.2-1.2c-1.1-0.5-1.3-4-0.6-3.8s3.5,0.2,4.8,0.2
		c1.3-0.1,3.7-0.8,4.6-0.3c0.9,0.5,2.9,5.6,5.4,8.2c2.4,2.6,3.3,2.7,3.3,1.7c0.1-1,1.1-8.5,1.3-9.2c0.2-0.7,0-2,0.2-2.5
		c0.2-0.5-8.6-5.8-11-7.3c-2.4-1.5-1.1-1.9,0.5-1.5c1.6,0.3,10.1,5.1,10.9,5.1c0.8,0,1.1-0.4,0.4-0.7s-0.7-4.4-0.6-5
		c0.1-0.7,2.1-0.7,1.3-1s-2.4-1.4-2.6-1.7c-0.2-0.3,1.5-0.1,1.5-0.1s-0.4-1.1,0.7-1.1c1.1,0.1,2-1,2.9-1.4c0.9-0.3,2-1.3,2.4-0.4
		c0.4,0.9,1.6,3.7,1,4.5c-0.6,0.8,1.1,1.3,1.4,1.5c0.4,0.2-1,0.6-2.7,0.6c-1.7,0,0.4,3.5,1.4,4.7c1,1.2,4.1,1.6,4.3,2.3
		c0.2,0.7-0.3,7.2,0.2,8.3c0.5,1.1,1.2,1.9,0.9,3.2c-0.3,1.3-3.6,2-3.4,3.5c0.1,1.5,2.6,2.5,3.9,1.9c1.3-0.5,1.5-1.6,3-2
		s3.3-0.5,5.8,0.4c2.4,1,1.5,6.9,2,9c0.5,2.1,1.1,6.6,1.5,8.1c0.4,1.5,1.5,2.5,0,1.9c-1.5-0.6-1.5-0.3-3.2-3c-1.2-1.9-2-5.6-2.5-6.2
		c-0.5-0.6,0.2,3.5,0.1,5.5s-0.5,4.5,0.4,6.6c0.8,2.1,2.2,10.5,2.4,12s0.1,2.7-1,2.2s-1.7-6.7-2-8.4c0,0-1.7-5.8-3.5-7.5
		s-2-1.9-3.4-2.3c-1.4-0.4-0.2,3.9-0.1,5.1s1.9,11.1,1.8,11.8c0,0.6-1.1,1-1.5,0.3c-0.4-0.7-1.4-7.1-1.7-9c-0.3-1.5-4.4-9.6-6.5-9.6
		c-2.1,0-1.5,1.3-1.3,3.4s2.3,14.3,1.9,15.2c-0.4,0.9-0.5,1.2-1.1,0.6c-0.5-0.6-1.4-5.6-2-8.5C139.9,282.5,137.5,274.5,135.9,273.6z
		"/>
</g>
</svg>
