<?xml version="1.0" encoding="utf-8"?>
<!-- Generator: Adobe Illustrator 25.2.3, SVG Export Plug-In . SVG Version: 6.00 Build 0)  -->
<svg version="1.1" xmlns="http://www.w3.org/2000/svg" xmlns:xlink="http://www.w3.org/1999/xlink" x="0px" y="0px"
	 viewBox="0 0 700 467" style="enable-background:new 0 0 700 467;" xml:space="preserve">
<style type="text/css">
	.st0{fill:#03464F;}
	.st1{fill:#026385;}
	.st2{fill:#35BCC0;}
	.st3{fill:#018F9F;}
	.st4{fill:#606161;}
	.st5{fill:#BEBFB9;}
	.st6{fill:#3A3A3A;}
	.st7{fill:#161616;}
	.st8{fill:#E1E1DF;}
	.st9{fill:#FFE311;}
	.st10{fill:#029746;}
	.st11{fill:#F89B1A;}
	.st12{fill:#FFD70C;}
	.st13{fill:#A06415;}
	.st14{fill:#E4C597;}
	.st15{fill:#E4DED5;}
	.st16{fill:#7F7973;}
	.st17{fill:#C0B5AA;}
	.st18{fill:#514A43;}
	.st19{fill:#302C28;}
	.st20{fill:#6F6252;}
	.st21{fill:#32A00D;}
	.st22{fill:#EAD1A4;}
	.st23{fill:#F9F1C0;}
</style>
<g id="layout">
</g>
<g id="Layer_4">
	<g>
		<rect x="396.4" y="124.9" class="st9" width="36.1" height="5.2"/>
		<rect x="396.4" y="130" class="st10" width="36.1" height="5.2"/>
		<rect x="401.5" y="135.2" class="st10" width="25.8" height="5.2"/>
		<rect x="406.7" y="140.4" class="st10" width="15.5" height="15.5"/>
		<rect x="411.9" y="135.2" class="st10" width="5.2" height="25.8"/>
		<rect x="411.9" y="57.8" class="st9" width="5.2" height="87.8"/>
		<rect x="406.7" y="135.2" class="st9" width="15.5" height="5.2"/>
		<rect x="396.4" y="73.2" class="st9" width="36.1" height="51.6"/>
		<rect x="411.9" y="47.4" class="st9" width="5.2" height="10.3"/>
		<rect x="401.5" y="62.9" class="st9" width="25.8" height="15.5"/>
		<rect x="406.7" y="52.6" class="st9" width="15.5" height="15.5"/>
		<rect x="391.2" y="93.9" class="st10" width="5.2" height="36.1"/>
		<rect x="432.5" y="93.9" class="st10" width="5.2" height="36.1"/>
		<rect x="380.9" y="83.6" class="st10" width="5.2" height="5.2"/>
		<rect x="386" y="88.7" class="st10" width="5.2" height="5.2"/>
		<rect x="437.7" y="88.7" class="st10" width="5.2" height="5.2"/>
		<rect x="442.8" y="83.6" class="st10" width="5.2" height="5.2"/>
		<rect x="411.9" y="130" class="st11" width="5.2" height="5.2"/>
		<rect x="380.9" y="104.2" class="st10" width="5.2" height="5.2"/>
		<rect x="386" y="109.4" class="st10" width="5.2" height="5.2"/>
		<rect x="396.4" y="124.9" class="st10" width="5.2" height="5.2"/>
		<rect x="427.3" y="124.9" class="st10" width="5.2" height="5.2"/>
		<rect x="437.7" y="109.4" class="st10" width="5.2" height="5.2"/>
		<rect x="442.8" y="104.2" class="st10" width="5.2" height="5.2"/>
		<rect x="406.7" y="124.9" class="st12" width="5.2" height="5.2"/>
		<rect x="417" y="124.9" class="st12" width="5.2" height="5.2"/>
		<rect x="401.5" y="114.5" class="st12" width="5.2" height="5.2"/>
		<rect x="411.9" y="114.5" class="st12" width="5.2" height="5.2"/>
		<rect x="422.2" y="114.5" class="st12" width="5.2" height="5.2"/>
		<rect x="396.4" y="104.2" class="st12" width="5.2" height="5.2"/>
		<rect x="406.7" y="104.2" class="st12" width="5.2" height="5.2"/>
		<rect x="417" y="104.2" class="st12" width="5.2" height="5.2"/>
		<rect x="427.3" y="104.2" class="st12" width="5.2" height="5.2"/>
		<rect x="401.5" y="93.9" class="st12" width="5.2" height="5.2"/>
		<rect x="411.9" y="93.9" class="st12" width="5.2" height="5.2"/>
		<rect x="422.2" y="93.9" class="st12" width="5.2" height="5.2"/>
		<rect x="417" y="83.6" class="st12" width="5.2" height="5.2"/>
		<rect x="406.7" y="83.6" class="st12" width="5.2" height="5.2"/>
		<rect x="401.5" y="130" class="st9" width="25.8" height="5.2"/>
		<rect x="396.4" y="83.6" class="st12" width="5.2" height="5.2"/>
		<rect x="427.3" y="83.6" class="st12" width="5.2" height="5.2"/>
		<rect x="401.5" y="73.2" class="st12" width="5.2" height="5.2"/>
		<rect x="411.9" y="73.2" class="st12" width="5.2" height="5.2"/>
		<rect x="422.2" y="73.2" class="st12" width="5.2" height="5.2"/>
		<rect x="406.7" y="62.9" class="st12" width="5.2" height="5.2"/>
		<rect x="417" y="62.9" class="st12" width="5.2" height="5.2"/>
		<rect x="411.9" y="57.8" class="st12" width="5.2" height="5.2"/>
		<rect x="406.7" y="52.6" class="st12" width="5.2" height="5.2"/>
		<rect x="417" y="52.6" class="st12" width="5.2" height="5.2"/>
		<rect x="406.7" y="135.2" class="st12" width="5.2" height="5.2"/>
		<rect x="411.9" y="140.4" class="st12" width="5.2" height="5.2"/>
		<rect x="417" y="135.2" class="st12" width="5.2" height="5.2"/>
	</g>
	<g>
		<polygon class="st13" points="311.9,188.8 308.1,188.8 308.1,181.2 304.3,181.2 304.3,177.4 300.5,177.4 300.5,173.6 296.6,173.6 
			296.6,169.8 277.6,169.8 277.6,173.6 273.8,173.6 273.8,177.4 270,177.4 270,192.6 273.8,192.6 273.8,200.3 277.6,200.3 
			277.6,204.1 281.4,204.1 281.4,211.7 277.6,211.7 277.6,215.5 273.8,215.5 273.8,223.1 270,223.1 270,238.4 273.8,238.4 
			273.8,242.2 277.6,242.2 277.6,246 296.6,246 296.6,242.2 300.5,242.2 300.5,238.4 304.3,238.4 304.3,234.6 308.1,234.6 
			308.1,226.9 311.9,226.9 		"/>
		<rect x="281.4" y="200.3" class="st14" width="3.8" height="15.2"/>
		<rect x="285.2" y="204.1" class="st14" width="3.8" height="7.6"/>
	</g>
	<rect x="264" y="264" class="st15" width="54" height="180"/>
	<rect x="264" y="300" class="st17" width="54" height="9"/>
	<rect x="264" y="381" class="st17" width="54" height="9"/>
	<rect x="300" y="336" class="st17" width="9" height="9"/>
	<rect x="273" y="282" class="st17" width="9" height="9"/>
	<rect x="273" y="336" class="st17" width="9" height="9"/>
	<rect x="300" y="363" class="st17" width="9" height="9"/>
	<rect x="273" y="426" class="st17" width="9" height="9"/>
	<rect x="390" y="174" class="st15" width="54" height="270"/>
	<rect x="390" y="210" class="st17" width="54" height="9"/>
	<rect x="390" y="291" class="st17" width="54" height="9"/>
	<rect x="426" y="246" class="st17" width="9" height="9"/>
	<rect x="399" y="192" class="st17" width="9" height="9"/>
	<rect x="399" y="246" class="st17" width="9" height="9"/>
	<rect x="426" y="273" class="st17" width="9" height="9"/>
	<rect x="399" y="336" class="st17" width="9" height="9"/>
	<rect x="390" y="381" class="st17" width="54" height="9"/>
	<rect x="516" y="354" class="st15" width="54" height="90"/>
	<rect x="138" y="264" class="st15" width="54" height="180"/>
	<rect x="138" y="300" class="st17" width="54" height="9"/>
	<rect x="138" y="381" class="st17" width="54" height="9"/>
	<rect x="174" y="336" class="st17" width="9" height="9"/>
	<rect x="147" y="282" class="st17" width="9" height="9"/>
	<rect x="147" y="336" class="st17" width="9" height="9"/>
	<rect x="174" y="363" class="st17" width="9" height="9"/>
	<rect x="183" y="426" class="st17" width="9" height="9"/>
	<g>
		<polygon class="st20" points="201,224.2 197.4,224.2 197.4,220.5 193.7,220.5 193.7,216.9 135.6,216.9 135.6,220.5 131.9,220.5 
			131.9,224.2 128.3,224.2 128.3,242.3 131.9,242.3 131.9,246 135.6,246 135.6,249.6 193.7,249.6 193.7,246 197.4,246 197.4,242.3 
			201,242.3 		"/>
		<rect x="182.8" y="224.2" width="3.6" height="7.3"/>
		<rect x="193.7" y="224.2" width="3.6" height="7.3"/>
		<rect x="186.5" y="235.1" width="7.3" height="3.6"/>
		<rect x="142.9" y="249.6" width="3.6" height="14.5"/>
		<rect x="182.8" y="249.6" width="3.6" height="14.5"/>
		<rect x="175.6" y="249.6" width="3.6" height="14.5"/>
		<rect x="150.1" y="249.6" width="3.6" height="14.5"/>
		<rect x="182.8" y="198.7" width="3.6" height="18.2"/>
		<polygon class="st21" points="175.5,187.6 177.8,190.2 175.2,192.5 172.9,189.9 165.3,196.8 172.2,204.4 174.8,202.1 177.1,204.7 
			179.6,202.4 181.9,204.9 189.5,198 187.2,195.5 189.8,193.2 187.5,190.6 190,188.3 183.1,180.7 		"/>
	</g>
	<rect y="444" class="st15" width="700" height="23"/>
	<rect x="525" y="399" class="st17" width="9" height="9"/>
	<rect x="561" y="381" class="st17" width="9" height="9"/>
	<rect x="516" y="354" class="st17" width="54" height="9"/>
	<rect x="552" y="417" class="st17" width="9" height="9"/>
	<polygon class="st22" points="534,321 531,321 531,318 519,318 519,321 516,321 516,333 519,333 519,336 531,336 531,333 534,333 	
		"/>
	<polygon class="st22" points="552,330 549,330 549,327 537,327 537,330 534,330 534,342 537,342 537,345 549,345 549,342 552,342 	
		"/>
	<polygon class="st23" points="558,306 555,306 555,303 543,303 543,306 540,306 540,318 543,318 543,321 555,321 555,318 558,318 	
		"/>
	<polygon class="st23" points="543,329.5 540.3,329.5 540.3,326.8 529.5,326.8 529.5,329.5 526.9,329.5 526.9,340.2 529.5,340.2 
		529.5,342.9 540.3,342.9 540.3,340.2 543,340.2 	"/>
	<polygon class="st22" points="560.9,313.4 558.2,313.4 558.2,310.7 547.5,310.7 547.5,313.4 544.8,313.4 544.8,324.2 547.5,324.2 
		547.5,326.9 558.2,326.9 558.2,324.2 560.9,324.2 	"/>
</g>
<g id="AMOUNTS">
</g>
<g id="LABELS">
</g>
</svg>
