<?xml version="1.0" encoding="utf-8"?>
<!-- Generator: Adobe Illustrator 25.2.3, SVG Export Plug-In . SVG Version: 6.00 Build 0)  -->
<svg version="1.1" xmlns="http://www.w3.org/2000/svg" xmlns:xlink="http://www.w3.org/1999/xlink" x="0px" y="0px"
	 viewBox="0 0 700 467" style="enable-background:new 0 0 700 467;" xml:space="preserve">
<style type="text/css">
	.st0{display:none;}
	.st1{display:inline;fill:#026385;}
	.st2{display:inline;fill:#35BCC0;}
	.st3{display:inline;fill:#606161;}
	.st4{display:inline;fill:#BEBFB9;}
	.st5{display:inline;fill:#3A3A3A;}
	.st6{display:inline;fill:#161616;}
	.st7{display:inline;fill:#E1E1DF;}
	.st8{display:inline;fill:#018F9F;}
	.st9{fill:#E4DED5;}
	.st10{fill:#018F9F;}
	.st11{fill:none;}
	.st12{fill:#FFFFFF;}
	.st13{font-family:'VCROSDMono';}
	.st14{font-size:47px;}
	.st15{stroke:#000000;stroke-width:0.25;stroke-miterlimit:10;}
	.st16{font-size:20px;}
</style>
<g id="layout" class="st0">
</g>
<g id="Layer_4">
	<polygon class="st10" points="494.2,108.7 494.2,83.6 481.7,83.6 481.7,71.1 469.1,71.1 469.1,58.6 406.4,58.6 406.4,71.1 
		381.4,71.1 381.4,83.6 368.8,83.6 368.8,96.2 356.3,96.2 356.3,108.7 343.7,108.7 343.7,96.2 331.2,96.2 331.2,83.6 318.6,83.6 
		318.6,71.1 293.6,71.1 293.6,58.6 230.9,58.6 230.9,71.1 218.3,71.1 218.3,83.6 205.8,83.6 205.8,108.7 193.2,108.7 193.2,196.5 
		205.8,196.5 205.8,209 218.3,209 218.3,221.6 230.9,221.6 230.9,234.1 243.4,234.1 243.4,246.7 255.9,246.7 255.9,259.2 
		268.5,259.2 268.5,271.7 281,271.7 281,284.3 293.6,284.3 293.6,296.8 306.1,296.8 306.1,309.4 318.6,309.4 318.6,321.9 
		331.2,321.9 331.2,334.4 368.8,334.4 368.8,321.9 381.4,321.9 381.4,309.4 393.9,309.4 393.9,296.8 406.4,296.8 406.4,284.3 
		419,284.3 419,271.7 431.5,271.7 431.5,259.2 444,259.2 444,246.7 456.6,246.7 456.6,234.1 469.1,234.1 469.1,221.6 481.7,221.6 
		481.7,209 494.2,209 494.2,196.5 506.8,196.5 506.8,108.7 	"/>
	<polygon class="st10" points="130.6,217.4 130.6,212.2 128,212.2 128,209.6 125.4,209.6 125.4,207 112.4,207 112.4,209.6 
		107.2,209.6 107.2,212.2 104.6,212.2 104.6,214.8 102,214.8 102,217.4 99.4,217.4 99.4,214.8 96.8,214.8 96.8,212.2 94.2,212.2 
		94.2,209.6 89,209.6 89,207 76.1,207 76.1,209.6 73.5,209.6 73.5,212.2 70.9,212.2 70.9,217.4 68.3,217.4 68.3,235.6 70.9,235.6 
		70.9,238.1 73.5,238.1 73.5,240.7 76.1,240.7 76.1,243.3 78.7,243.3 78.7,245.9 81.3,245.9 81.3,248.5 83.8,248.5 83.8,251.1 
		86.4,251.1 86.4,253.7 89,253.7 89,256.3 91.6,256.3 91.6,258.9 94.2,258.9 94.2,261.5 96.8,261.5 96.8,264.1 104.6,264.1 
		104.6,261.5 107.2,261.5 107.2,258.9 109.8,258.9 109.8,256.3 112.4,256.3 112.4,253.7 115,253.7 115,251.1 117.6,251.1 
		117.6,248.5 120.2,248.5 120.2,245.9 122.8,245.9 122.8,243.3 125.4,243.3 125.4,240.7 128,240.7 128,238.1 130.6,238.1 
		130.6,235.6 133.2,235.6 133.2,217.4 	"/>
	<polygon class="st10" points="625.6,267.9 625.6,262.7 623,262.7 623,260.1 620.4,260.1 620.4,257.6 607.5,257.6 607.5,260.1 
		602.3,260.1 602.3,262.7 599.7,262.7 599.7,265.3 597.1,265.3 597.1,267.9 594.5,267.9 594.5,265.3 591.9,265.3 591.9,262.7 
		589.3,262.7 589.3,260.1 584.1,260.1 584.1,257.6 571.1,257.6 571.1,260.1 568.5,260.1 568.5,262.7 565.9,262.7 565.9,267.9 
		563.3,267.9 563.3,286.1 565.9,286.1 565.9,288.7 568.5,288.7 568.5,291.3 571.1,291.3 571.1,293.9 573.7,293.9 573.7,296.5 
		576.3,296.5 576.3,299.1 578.9,299.1 578.9,301.7 581.5,301.7 581.5,304.3 584.1,304.3 584.1,306.9 586.7,306.9 586.7,309.5 
		589.3,309.5 589.3,312.1 591.9,312.1 591.9,314.7 599.7,314.7 599.7,312.1 602.3,312.1 602.3,309.5 604.9,309.5 604.9,306.9 
		607.5,306.9 607.5,304.3 610.1,304.3 610.1,301.7 612.6,301.7 612.6,299.1 615.2,299.1 615.2,296.5 617.8,296.5 617.8,293.9 
		620.4,293.9 620.4,291.3 623,291.3 623,288.7 625.6,288.7 625.6,286.1 628.2,286.1 628.2,267.9 	"/>
	<polygon class="st10" points="606.6,90.9 606.6,85.7 604,85.7 604,83.1 601.4,83.1 601.4,80.6 588.5,80.6 588.5,83.1 583.3,83.1 
		583.3,85.7 580.7,85.7 580.7,88.3 578.1,88.3 578.1,90.9 575.5,90.9 575.5,88.3 572.9,88.3 572.9,85.7 570.3,85.7 570.3,83.1 
		565.1,83.1 565.1,80.6 552.1,80.6 552.1,83.1 549.5,83.1 549.5,85.7 546.9,85.7 546.9,90.9 544.3,90.9 544.3,109.1 546.9,109.1 
		546.9,111.7 549.5,111.7 549.5,114.3 552.1,114.3 552.1,116.9 554.7,116.9 554.7,119.5 557.3,119.5 557.3,122.1 559.9,122.1 
		559.9,124.7 562.5,124.7 562.5,127.3 565.1,127.3 565.1,129.9 567.7,129.9 567.7,132.5 570.3,132.5 570.3,135.1 572.9,135.1 
		572.9,137.7 580.7,137.7 580.7,135.1 583.3,135.1 583.3,132.5 585.9,132.5 585.9,129.9 588.5,129.9 588.5,127.3 591.1,127.3 
		591.1,124.7 593.6,124.7 593.6,122.1 596.2,122.1 596.2,119.5 598.8,119.5 598.8,116.9 601.4,116.9 601.4,114.3 604,114.3 
		604,111.7 606.6,111.7 606.6,109.1 609.2,109.1 609.2,90.9 	"/>
	<rect x="199.5" y="162.1" class="st11" width="301" height="44.9"/>
	<text transform="matrix(1 0 0 1 281.1526 196.4735)" class="st12 st13 st14">MAYBE</text>
	<rect x="32" y="379" class="st11" width="639" height="72"/>
	<text transform="matrix(1 0 0 1 87.8281 393.6396)"><tspan x="0" y="0" class="st15 st13 st16">Studies on the effects of chia seeds on heart</tspan><tspan x="41" y="24" class="st15 st13 st16">disease risk factors are inconclusive.  </tspan><tspan x="0" y="48" class="st15 st13 st16">Some studies suggest benefits, others do not.</tspan></text>
</g>
<g id="AMOUNTS" class="st0">
</g>
<g id="LABELS" class="st0">
</g>
</svg>
