<?xml version="1.0" encoding="utf-8"?>
<!-- Generator: Adobe Illustrator 25.2.3, SVG Export Plug-In . SVG Version: 6.00 Build 0)  -->
<svg version="1.1" xmlns="http://www.w3.org/2000/svg" xmlns:xlink="http://www.w3.org/1999/xlink" x="0px" y="0px"
	 viewBox="0 0 700 467" style="enable-background:new 0 0 700 467;" xml:space="preserve">
<style type="text/css">
	.st0{display:none;}
	.st1{display:inline;fill:#026385;}
	.st2{display:inline;fill:#35BCC0;}
	.st3{display:inline;fill:#606161;}
	.st4{display:inline;fill:#BEBFB9;}
	.st5{display:inline;fill:#3A3A3A;}
	.st6{display:inline;fill:#161616;}
	.st7{display:inline;fill:#E1E1DF;}
	.st8{display:inline;fill:#018F9F;}
	.st9{fill:#E4DED5;}
	.st10{fill:#8B561D;}
	.st11{fill:#95B90B;}
	.st12{fill:#B5CE4D;}
	.st13{fill:#FFFEFF;}
	.st14{fill:#000900;}
	.st15{fill:#8A370F;}
	.st16{fill:#FFDE01;}
	.st17{fill:#FCB912;}
	.st18{fill:#FCF54D;}
	.st19{fill:#FFFFFF;}
	.st20{fill:#EB1C24;}
	.st21{fill:#37A01A;}
	.st22{fill:#F4CB00;}
	.st23{fill:#21851D;}
	.st24{fill:#C30C08;}
	.st25{fill:#FA5810;}
	.st26{fill:#135110;}
	.st27{fill:#A7B941;}
	.st28{fill:#E0E48D;}
	.st29{fill:#DA895E;}
	.st30{fill:#63240B;}
	.st31{fill:#DC0000;}
	.st32{fill:#AE0002;}
	.st33{fill:#FF7A69;}
	.st34{fill:#426024;}
	.st35{fill:#649238;}
	.st36{fill:#432355;}
	.st37{fill:#F8C09D;}
	.st38{fill:#B31D4A;}
	.st39{fill:#DC1C4B;}
	.st40{fill:#FFE627;}
	.st41{fill:#FFAD27;}
	.st42{fill:#FFF576;}
	.st43{fill:#BCD531;}
	.st44{fill:#7F2600;}
	.st45{fill:#E0E11B;}
	.st46{fill:#98C93C;}
	.st47{fill:#A13906;}
	.st48{fill:#0B5389;}
	.st49{fill:#0C3352;}
	.st50{fill:#3279A5;}
	.st51{fill:#0F4B70;}
	.st52{fill:#DBCEAC;}
	.st53{fill:#FFF6DA;}
	.st54{fill:#FFF4D8;}
	.st55{fill:#BFAF8B;}
	.st56{fill:#6B2114;}
	.st57{fill:#F2CF95;}
	.st58{fill:#C88C43;}
	.st59{fill:#7B3720;}
	.st60{fill:#9C5738;}
	.st61{fill:#DDB67D;}
	.st62{fill:#FFE2AE;}
	.st63{fill:#133415;}
	.st64{fill:#608D62;}
	.st65{fill:#305937;}
	.st66{fill:#4E1349;}
	.st67{fill:#8A428E;}
	.st68{fill:#2A0E27;}
	.st69{fill:#2B853F;}
	.st70{fill:#83AA37;}
	.st71{fill:#96CB3B;}
	.st72{fill:#B1E656;}
	.st73{fill:#5C9514;}
	.st74{fill:#4F7319;}
	.st75{fill:#645C5A;}
	.st76{fill:#7F6D57;}
	.st77{fill:#4B423B;}
	.st78{fill:#E9E1D4;}
	.st79{fill:#9A0A14;}
	.st80{fill:#FCFAE1;}
	.st81{fill:#F8151E;}
	.st82{fill:#DA191E;}
	.st83{fill:#F9572B;}
	.st84{fill:#F79B20;}
	.st85{fill:#F36527;}
	.st86{fill:#FBD371;}
	.st87{fill:#EFEF97;}
	.st88{fill:#D87E3D;}
	.st89{fill:#B55E2C;}
	.st90{fill:#ED9857;}
	.st91{fill:#803415;}
	.st92{fill:#61176E;}
	.st93{fill:#4A1056;}
	.st94{fill:#A126B8;}
	.st95{fill:#EA0F13;}
	.st96{fill:#BC0406;}
	.st97{fill:#F9B6BD;}
	.st98{fill:#D1282B;}
	.st99{fill:#EC2125;}
	.st100{fill:#881719;}
	.st101{fill:#ADC45C;}
	.st102{fill:#717D33;}
	.st103{fill:#C0D667;}
	.st104{fill:#78C433;}
	.st105{fill:#D22127;}
	.st106{fill:#E4696C;}
	.st107{fill:#BC2325;}
	.st108{fill:#FB8794;}
	.st109{fill:#A3242B;}
	.st110{fill:#2E9649;}
	.st111{fill:#FF854E;}
	.st112{fill:#3BA746;}
	.st113{fill:#308A43;}
	.st114{fill:#F76140;}
	.st115{fill:#FCBB5E;}
	.st116{fill:#6F6252;}
	.st117{fill:#32A00D;}
</style>
<g id="layout" class="st0">
</g>
<g id="Layer_4">
	<g>
		<polygon class="st10" points="239,318.8 239,318.8 231.4,318.8 231.4,311.2 231.4,311.2 223.7,311.2 223.7,303.6 216.1,303.6 
			216.1,296 208.5,296 208.5,288.3 200.9,288.3 155.3,288.3 147.6,288.3 147.6,296 140,296 140,303.6 132.4,303.6 132.4,311.2 
			124.8,311.2 124.8,318.8 117.2,318.8 117.2,379.7 124.8,379.7 124.8,387.3 132.4,387.3 132.4,394.9 140,394.9 140,402.5 
			147.6,402.5 147.6,410.1 155.3,410.1 200.9,410.1 208.5,410.1 208.5,402.5 216.1,402.5 216.1,394.9 223.7,394.9 223.7,387.3 
			231.4,387.3 231.4,379.7 239,379.7 		"/>
		<polygon class="st11" points="232.2,326.4 223.7,326.4 223.7,318.8 216.1,318.8 216.1,311.2 208.5,311.2 208.5,303.6 200.9,303.6 
			200.9,296 155.3,296 155.3,303.6 147.6,303.6 147.6,311.2 140,311.2 140,318.8 132.4,318.8 132.4,326.4 124.8,326.4 124.8,372.1 
			132.4,372.1 132.4,379.7 140,379.7 140,387.3 147.6,387.3 147.6,394.9 155.3,394.9 155.3,402.5 200.9,402.5 200.9,394.9 
			208.5,394.9 208.5,387.3 216.1,387.3 216.1,379.7 223.7,379.7 223.7,372.1 232.2,372.1 		"/>
		<polygon class="st12" points="216.1,326.4 208.5,326.4 208.5,318.8 200.9,318.8 200.9,311.2 155.3,311.2 155.3,318.8 147.6,318.8 
			147.6,326.4 140,326.4 140,372.1 147.6,372.1 147.6,379.7 155.3,379.7 155.3,387.3 200.9,387.3 200.9,379.7 208.5,379.7 
			208.5,372.1 216.1,372.1 		"/>
		<polygon class="st13" points="185.7,364.4 185.7,356.8 193.3,356.8 193.3,341.6 185.7,341.6 185.7,334 170.5,334 170.5,341.6 
			162.9,341.6 162.9,356.8 170.5,356.8 170.5,364.4 		"/>
		<rect x="155.3" y="326.4" class="st14" width="7.6" height="7.6"/>
		<rect x="155.3" y="364.4" class="st14" width="7.6" height="7.6"/>
		<rect x="193.3" y="326.4" class="st14" width="7.6" height="7.6"/>
		<rect x="193.3" y="364.4" class="st14" width="7.6" height="7.6"/>
		<rect x="200.9" y="341.6" class="st14" width="7.6" height="7.6"/>
		<rect x="147.6" y="349.2" class="st14" width="7.6" height="7.6"/>
		<rect x="178.1" y="318.8" class="st14" width="7.6" height="7.6"/>
		<rect x="170.5" y="372.1" class="st14" width="7.6" height="7.6"/>
		<rect x="162.9" y="303.6" class="st12" width="15.2" height="15.2"/>
		<rect x="208.5" y="341.6" class="st12" width="15.2" height="22.8"/>
		<rect x="162.9" y="379.7" class="st12" width="30.4" height="15.2"/>
		<rect x="132.4" y="334" class="st12" width="15.2" height="30.4"/>
	</g>
	<g>
		<polygon class="st20" points="454.2,15.9 451.5,9.8 445.4,12.6 442.7,6.5 370.2,39.6 373,45.6 367,48.4 369.7,54.4 363.7,57.2 
			380.2,93.4 386.3,90.6 391.8,102.7 397.8,100 400.6,106 406.6,103.2 409.3,109.3 415.4,106.5 418.1,112.6 424.2,109.8 
			426.9,115.8 433,113.1 435.7,119.1 459.9,108.1 457.1,102.1 463.1,99.3 460.4,93.3 466.4,90.5 463.7,84.5 469.7,81.7 467,75.7 
			473,72.9 470.2,66.9 476.3,64.1 470.8,52.1 476.8,49.3 460.3,13.1 		"/>
		<g>
			
				<rect x="377.9" y="20.3" transform="matrix(0.9097 -0.4153 0.4153 0.9097 24.6014 160.4503)" class="st21" width="6.6" height="6.6"/>
			
				<rect x="383.4" y="32.4" transform="matrix(0.9097 -0.4153 0.4153 0.9097 20.0859 163.8292)" class="st21" width="6.6" height="6.6"/>
			<polygon class="st21" points="415.8,11.5 409.7,14.3 404.2,2.2 392.2,7.7 397.7,19.8 391.6,22.5 385.6,25.3 388.4,31.3 
				394.4,28.6 397.1,34.6 421.3,23.6 418.5,17.6 424.6,14.8 421.8,8.8 			"/>
			
				<rect x="425.6" y="13.1" transform="matrix(0.9097 -0.4153 0.4153 0.9097 31.9123 179.6337)" class="st21" width="6.6" height="6.6"/>
			
				<rect x="420.1" y="1.1" transform="matrix(0.9097 -0.4153 0.4153 0.9097 36.4278 176.2547)" class="st21" width="6.6" height="6.6"/>
		</g>
		
			<rect x="436.7" y="37.3" transform="matrix(0.9097 -0.4153 0.4153 0.9097 22.8811 186.3917)" class="st22" width="6.6" height="6.6"/>
		
			<rect x="411" y="92.8" transform="matrix(0.9097 -0.4153 0.4153 0.9097 -2.492 180.7241)" class="st22" width="6.6" height="6.6"/>
		
			<rect x="402.2" y="41.7" transform="matrix(0.9097 -0.4153 0.4153 0.9097 17.9458 172.4747)" class="st22" width="6.6" height="6.6"/>
		
			<rect x="426.8" y="63.6" transform="matrix(0.9097 -0.4153 0.4153 0.9097 11.0393 184.6868)" class="st22" width="6.6" height="6.6"/>
		
			<rect x="453.7" y="58.7" transform="matrix(0.9097 -0.4153 0.4153 0.9097 15.5395 195.4074)" class="st22" width="6.6" height="6.6"/>
		
			<rect x="440.6" y="93.8" transform="matrix(0.9097 -0.4153 0.4153 0.9097 -0.2496 193.1342)" class="st22" width="6.6" height="6.6"/>
		
			<rect x="400.7" y="3" transform="matrix(0.9097 -0.4153 0.4153 0.9097 32.4883 168.6367)" class="st23" width="6.6" height="13.3"/>
		
			<rect x="401.5" y="24.1" transform="matrix(0.9097 -0.4153 0.4153 0.9097 25.1543 170.6026)" class="st23" width="6.6" height="6.6"/>
		
			<rect x="452.4" y="86.9" transform="matrix(0.9097 -0.4153 0.4153 0.9097 3.9741 198.7786)" class="st24" width="13.3" height="6.6"/>
		
			<rect x="455.7" y="78.1" transform="matrix(0.9097 -0.4153 0.4153 0.9097 7.9214 199.3469)" class="st24" width="13.3" height="6.6"/>
		
			<rect x="454.1" y="88" transform="matrix(0.9097 -0.4153 0.4153 0.9097 2.0005 198.4945)" class="st24" width="6.6" height="13.3"/>
		
			<rect x="465.3" y="68" transform="matrix(0.9097 -0.4153 0.4153 0.9097 12.7134 201.0441)" class="st24" width="6.6" height="6.6"/>
		
			<rect x="467.2" y="52.8" transform="matrix(0.9097 -0.4153 0.4153 0.9097 17.7896 200.7677)" class="st24" width="6.6" height="13.3"/>
		
			<rect x="462.7" y="45.7" transform="matrix(0.9097 -0.4153 0.4153 0.9097 22.021 199.3624)" class="st24" width="13.3" height="6.6"/>
		
			<rect x="466.3" y="31.7" transform="matrix(0.9097 -0.4153 0.4153 0.9097 25.1235 198.8018)" class="st24" width="6.6" height="19.9"/>
		
			<rect x="445.8" y="104.5" transform="matrix(0.9097 -0.4153 0.4153 0.9097 -3.9204 197.642)" class="st24" width="13.3" height="6.6"/>
		
			<rect x="376.3" y="58.2" transform="matrix(0.9097 -0.4153 0.4153 0.9097 5.9863 163.8138)" class="st25" width="6.6" height="19.9"/>
		
			<rect x="376.8" y="50" transform="matrix(0.9097 -0.4153 0.4153 0.9097 12.1913 162.6926)" class="st25" width="6.6" height="6.6"/>
		
			<rect x="380.1" y="41.2" transform="matrix(0.9097 -0.4153 0.4153 0.9097 16.1386 163.2609)" class="st25" width="6.6" height="6.6"/>
		
			<rect x="388.4" y="59.3" transform="matrix(0.9097 -0.4153 0.4153 0.9097 9.3652 168.3294)" class="st22" width="6.6" height="6.6"/>
		
			<rect x="389.2" y="73.8" transform="matrix(0.9097 -0.4153 0.4153 0.9097 2.0313 170.2953)" class="st25" width="6.6" height="13.3"/>
	</g>
	<g>
		<g>
			<polygon class="st27" points="631.5,155.4 631.5,144.5 631.5,133.7 620.6,133.7 620.6,112 609.8,112 609.8,79.4 598.9,79.4 
				598.9,68.5 588.1,68.5 588.1,57.7 544.7,57.7 544.7,68.5 533.8,68.5 533.8,79.4 523,79.4 523,112 512.1,112 512.1,133.7 
				501.3,133.7 501.3,144.5 501.3,155.4 490.4,155.4 490.4,220.5 501.3,220.5 501.3,231.3 512.1,231.3 512.1,242.2 523,242.2 
				523,253 555.5,253 577.2,253 609.8,253 609.8,242.2 620.6,242.2 620.6,231.3 631.5,231.3 631.5,220.5 642.3,220.5 642.3,155.4 
							"/>
			<polygon class="st28" points="620.6,166.2 620.6,144.5 609.8,144.5 609.8,122.8 598.9,122.8 598.9,90.2 588.1,90.2 588.1,79.4 
				577.2,79.4 577.2,68.5 555.5,68.5 555.5,79.4 544.7,79.4 544.7,90.2 533.8,90.2 533.8,122.8 523,122.8 523,144.5 512.1,144.5 
				512.1,166.2 501.3,166.2 501.3,209.6 512.1,209.6 512.1,220.5 523,220.5 523,231.3 533.8,231.3 533.8,242.2 544.7,242.2 
				555.5,242.2 577.2,242.2 588.1,242.2 598.9,242.2 598.9,231.3 609.8,231.3 609.8,220.5 620.6,220.5 620.6,209.6 631.5,209.6 
				631.5,166.2 			"/>
			<polygon class="st15" points="598.9,177.1 588.1,177.1 588.1,166.2 577.2,166.2 577.2,155.4 555.5,155.4 555.5,166.2 
				544.7,166.2 544.7,177.1 533.8,177.1 533.8,198.8 544.7,198.8 544.7,209.6 555.5,209.6 555.5,220.5 577.2,220.5 577.2,209.6 
				588.1,209.6 588.1,198.8 598.9,198.8 			"/>
			<rect x="566.4" y="166.2" class="st29" width="10.9" height="10.9"/>
		</g>
		<rect x="544.7" y="187.9" class="st30" width="10.9" height="10.9"/>
		<rect x="555.5" y="198.8" class="st30" width="10.9" height="10.9"/>
	</g>
	<g>
		<polygon class="st40" points="507.6,288.2 498.6,291.7 495.1,282.7 486.1,286.2 482.6,277.1 473.6,280.6 470.1,271.6 461.1,275.1 
			457.6,266.1 448.6,269.6 445.1,260.5 372.9,288.5 376.4,297.5 367.4,301 370.8,310 361.8,313.5 365.3,322.5 356.3,326 359.8,335 
			350.8,338.5 354.3,347.5 345.2,351 355.7,378.1 364.7,374.6 368.2,383.6 377.2,380.1 380.7,389.2 389.8,385.7 393.2,394.7 
			402.3,391.2 405.8,400.2 414.8,396.7 418.3,405.8 490.5,377.8 487,368.8 496,365.3 492.5,356.3 501.5,352.8 498,343.8 
			507.1,340.3 503.6,331.3 512.6,327.8 509.1,318.8 518.1,315.3 		"/>
		
			<rect x="389.4" y="374.3" transform="matrix(0.9326 -0.3608 0.3608 0.9326 -111.9686 168.1175)" class="st41" width="9.7" height="19.3"/>
		
			<rect x="424.2" y="385.9" transform="matrix(0.9326 -0.3608 0.3608 0.9326 -111.1169 186.3782)" class="st41" width="38.7" height="9.7"/>
		
			<rect x="401.9" y="379.8" transform="matrix(0.9326 -0.3608 0.3608 0.9326 -113.1218 173.0054)" class="st41" width="9.7" height="19.3"/>
		
			<rect x="378.7" y="378.1" transform="matrix(0.9326 -0.3608 0.3608 0.9326 -112.3257 164.1633)" class="st41" width="9.7" height="9.7"/>
		
			<rect x="412.7" y="385.6" transform="matrix(0.9326 -0.3608 0.3608 0.9326 -112.7647 176.9595)" class="st41" width="9.7" height="9.7"/>
		
			<rect x="431.6" y="272.7" transform="matrix(0.9326 -0.3608 0.3608 0.9326 -70.4219 177.9195)" class="st42" width="19.3" height="9.7"/>
		
			<rect x="451.7" y="267.2" transform="matrix(0.9326 -0.3608 0.3608 0.9326 -69.1312 183.3839)" class="st42" width="9.7" height="19.3"/>
		
			<rect x="439.2" y="261.6" transform="matrix(0.9326 -0.3608 0.3608 0.9326 -67.978 178.4961)" class="st42" width="9.7" height="19.3"/>
		
			<rect x="469.2" y="289.3" transform="matrix(0.9326 -0.3608 0.3608 0.9326 -73.8814 192.583)" class="st42" width="19.3" height="9.7"/>
		
			<rect x="351.9" y="357.7" transform="matrix(0.9326 -0.3608 0.3608 0.9326 -108.5091 153.454)" class="st41" width="9.7" height="19.3"/>
		
			<rect x="475" y="278.6" transform="matrix(0.9326 -0.3608 0.3608 0.9326 -69.9273 192.226)" class="st42" width="9.7" height="9.7"/>
		
			<rect x="507" y="307.7" transform="matrix(0.9326 -0.3608 0.3608 0.9326 -78.2746 205.7363)" class="st41" width="9.7" height="9.7"/>
		
			<rect x="350.1" y="358" transform="matrix(0.9326 -0.3608 0.3608 0.9326 -106.9989 152.5203)" class="st22" width="9.7" height="9.7"/>
		
			<rect x="469.7" y="343.7" transform="matrix(0.9326 -0.3608 0.3608 0.9326 -93.7955 194.6795)" class="st22" width="9.7" height="9.7"/>
		
			<rect x="480.3" y="317.7" transform="matrix(0.9326 -0.3608 0.3608 0.9326 -83.6842 196.7783)" class="st22" width="9.7" height="9.7"/>
		
			<rect x="438.9" y="292.5" transform="matrix(0.9326 -0.3608 0.3608 0.9326 -77.3966 180.1439)" class="st22" width="9.7" height="9.7"/>
	</g>
	<g>
		<polygon class="st48" points="357.1,380.2 352.1,380.2 352.1,375.2 347.1,375.2 347.1,370.2 312.1,370.2 312.1,375.2 307.1,375.2 
			307.1,380.2 302.1,380.2 302.1,405.2 307.1,405.2 307.1,410.2 312.1,410.2 312.1,415.2 347.1,415.2 347.1,410.2 352.1,410.2 
			352.1,405.2 357.1,405.2 		"/>
		<rect x="316.6" y="380.2" class="st49" width="25" height="5"/>
		<rect x="321.6" y="375.2" class="st49" width="15" height="15"/>
		<rect x="307.1" y="390.2" class="st50" width="5" height="10"/>
		<rect x="312.1" y="400.2" class="st50" width="5" height="5"/>
		<rect x="342.1" y="410.2" class="st51" width="5" height="5"/>
		<rect x="347.1" y="405.2" class="st51" width="5" height="5"/>
		<rect x="352.1" y="400.2" class="st51" width="5" height="5"/>
		<rect x="347.1" y="380.2" class="st50" width="5" height="5"/>
	</g>
	<g>
		<polygon class="st52" points="294.9,92.4 294.9,85.3 287.8,85.3 287.8,78.1 273.5,78.1 273.5,71 259.2,71 259.2,63.9 252.1,63.9 
			252.1,35.3 237.8,35.3 237.8,63.9 230.6,63.9 230.6,71 216.4,71 216.4,78.1 202.1,78.1 202.1,85.3 195,85.3 195,92.4 187.8,92.4 
			187.8,135.2 195,135.2 195,142.4 202.1,142.4 202.1,149.5 237.8,149.5 237.8,142.4 252.1,142.4 252.1,149.5 287.8,149.5 
			287.8,142.4 294.9,142.4 294.9,135.2 302,135.2 302,92.4 		"/>
		<rect x="237.8" y="71" class="st53" width="14.3" height="64.2"/>
		<rect x="230.6" y="78.1" class="st54" width="28.6" height="50"/>
		<polygon class="st53" points="216.4,85.3 209.2,85.3 209.2,92.4 202.1,92.4 202.1,99.6 195,99.6 195,128.1 202.1,128.1 
			202.1,135.2 209.2,135.2 209.2,142.4 216.4,142.4 216.4,135.2 223.5,135.2 223.5,106.7 223.5,92.4 223.5,85.3 		"/>
		<rect x="230.6" y="78.1" class="st19" width="7.1" height="14.3"/>
		<rect x="244.9" y="28.2" class="st55" width="7.1" height="28.6"/>
		<rect x="223.5" y="135.2" class="st55" width="7.1" height="7.1"/>
		<rect x="230.6" y="142.4" class="st55" width="7.1" height="7.1"/>
		<rect x="259.2" y="135.2" class="st55" width="7.1" height="7.1"/>
		<rect x="252.1" y="142.4" class="st55" width="7.1" height="7.1"/>
		<polygon class="st53" points="273.5,85.3 280.6,85.3 280.6,92.4 287.8,92.4 287.8,99.6 294.9,99.6 294.9,128.1 287.8,128.1 
			287.8,135.2 280.6,135.2 280.6,142.4 273.5,142.4 273.5,135.2 266.3,135.2 266.3,106.7 266.3,92.4 266.3,85.3 		"/>
		<rect x="202.1" y="99.6" class="st19" width="7.1" height="7.1"/>
		<rect x="237.8" y="142.4" class="st55" width="14.3" height="7.1"/>
	</g>
	<g>
		<polygon class="st56" points="683.3,318.9 674,317.8 675.1,308.6 665.9,307.5 667,298.2 657.8,297.1 658.9,287.9 649.7,286.8 
			650.8,277.6 595.5,270.8 594.4,280.1 585.1,278.9 584,288.2 574.8,287 573.7,296.3 564.4,295.1 563.3,304.4 554.1,303.2 
			550.7,330.9 560,332 558.8,341.3 669.5,354.7 670.7,345.5 679.9,346.6 		"/>
		<polygon class="st57" points="653.3,334 654.5,324.8 645.2,323.7 646.4,314.5 627.9,312.2 629,303 592.1,298.5 591,307.7 
			581.8,306.6 580.7,315.8 571.4,314.7 570.3,323.9 579.5,325.1 578.4,334.3 596.9,336.5 593.5,364.2 590.1,391.9 587.9,410.3 
			586.8,419.6 596,420.7 594.9,429.9 604.1,431 603,440.3 639.9,444.7 645.5,398.6 627,396.4 628.2,387.1 618.9,386 624.5,339.9 
			643,342.1 652.2,343.3 661.4,344.4 662.6,335.2 		"/>
		
			<rect x="580.6" y="307.7" transform="matrix(0.9927 0.1206 -0.1206 0.9927 42.5343 -68.831)" class="st58" width="18.6" height="18.6"/>
		
			<rect x="612.1" y="283.9" transform="matrix(0.9927 0.1206 -0.1206 0.9927 39.3774 -73.4056)" class="st59" width="27.9" height="9.3"/>
		
			<rect x="631.8" y="276.4" transform="matrix(0.9927 0.1206 -0.1206 0.9927 38.5767 -75.2649)" class="st60" width="18.6" height="9.3"/>
		
			<rect x="590.1" y="364.6" transform="matrix(0.9927 0.1206 -0.1206 0.9927 51.6741 -68.8675)" class="st61" width="9.3" height="55.8"/>
		
			<rect x="614.7" y="320.7" transform="matrix(0.9927 0.1206 -0.1206 0.9927 46.0044 -72.1904)" class="st62" width="9.3" height="46.5"/>
		
			<rect x="649.1" y="287.3" transform="matrix(0.9927 0.1206 -0.1206 0.9927 39.985 -76.7191)" class="st60" width="9.3" height="9.3"/>
		
			<rect x="657.2" y="297.7" transform="matrix(0.9927 0.1206 -0.1206 0.9927 41.2921 -77.6211)" class="st60" width="9.3" height="9.3"/>
		
			<rect x="570.8" y="315.8" transform="matrix(0.9927 0.1206 -0.1206 0.9927 42.884 -67.6252)" class="st58" width="18.6" height="9.3"/>
		
			<rect x="591.5" y="299" transform="matrix(0.9927 0.1206 -0.1206 0.9927 40.9788 -69.6871)" class="st58" width="9.3" height="9.3"/>
		
			<rect x="578.9" y="326.1" transform="matrix(0.9927 0.1206 -0.1206 0.9927 44.1911 -68.5272)" class="st58" width="18.6" height="9.3"/>
		
			<rect x="625" y="332.9" transform="matrix(0.9927 0.1206 -0.1206 0.9927 45.4063 -75.1542)" class="st58" width="37.2" height="9.3"/>
		
			<rect x="626.1" y="323.1" transform="matrix(0.9927 0.1206 -0.1206 0.9927 44.2005 -74.8045)" class="st58" width="27.9" height="9.3"/>
		
			<rect x="627.3" y="313.3" transform="matrix(0.9927 0.1206 -0.1206 0.9927 42.9947 -74.4548)" class="st58" width="18.6" height="9.3"/>
		
			<rect x="582.7" y="291.5" transform="matrix(0.9927 0.1206 -0.1206 0.9927 40.7304 -71.4451)" class="st56" width="55.8" height="18.6"/>
		
			<rect x="590.3" y="309.4" transform="matrix(0.9927 0.1206 -0.1206 0.9927 42.2859 -70.589)" class="st57" width="27.9" height="9.3"/>
		
			<rect x="595.9" y="412.5" transform="matrix(0.9927 0.1206 -0.1206 0.9927 55.2914 -69.9166)" class="st61" width="18.6" height="18.6"/>
		
			<rect x="629.5" y="294.9" transform="matrix(0.9927 0.1206 -0.1206 0.9927 40.7857 -74.8598)" class="st59" width="18.6" height="9.3"/>
		
			<rect x="603.4" y="433.2" transform="matrix(0.9927 0.1206 -0.1206 0.9927 57.3532 -71.8218)" class="st61" width="37.2" height="9.3"/>
		
			<rect x="618.3" y="386.5" transform="matrix(0.9927 0.1206 -0.1206 0.9927 51.7294 -72.2823)" class="st62" width="9.3" height="9.3"/>
	</g>
	<g>
		<polygon class="st70" points="234,200.2 229.2,198.4 232.8,188.7 227.9,186.9 229.7,182.1 224.8,180.3 226.6,175.5 221.8,173.7 
			223.6,168.8 218.7,167.1 220.5,162.2 215.7,160.4 213.9,165.3 209,163.5 207.2,168.3 202.4,166.6 200.6,171.4 195.8,169.6 
			194,174.5 189.1,172.7 185.6,182.4 180.7,180.6 170.1,209.7 174.9,211.5 173.1,216.3 178,218.1 176.2,222.9 181,224.7 
			179.3,229.6 184.1,231.3 182.3,236.2 187.2,238 185.4,242.8 190.2,244.6 192,239.7 196.9,241.5 198.6,236.7 203.5,238.5 
			205.3,233.6 210.1,235.4 211.9,230.5 216.7,232.3 218.5,227.5 223.4,229.3 		"/>
		
			<rect x="191.9" y="175.9" transform="matrix(0.9386 0.3449 -0.3449 0.9386 74.5527 -56.8534)" class="st71" width="10.3" height="10.3"/>
		
			<rect x="199.6" y="172.1" transform="matrix(0.9386 0.3449 -0.3449 0.9386 72.6655 -59.0015)" class="st72" width="5.2" height="5.2"/>
		
			<rect x="191.2" y="180" transform="matrix(0.9386 0.3449 -0.3449 0.9386 74.878 -55.6167)" class="st72" width="5.2" height="5.2"/>
		
			<rect x="219" y="179.3" transform="matrix(0.9386 0.3449 -0.3449 0.9386 76.3111 -65.2493)" class="st72" width="5.2" height="5.2"/>
		
			<rect x="185.7" y="222.2" transform="matrix(0.9386 0.3449 -0.3449 0.9386 89.9774 -50.9937)" class="st73" width="5.2" height="10.3"/>
		
			<rect x="183.5" y="215.7" transform="matrix(0.9386 0.3449 -0.3449 0.9386 86.7231 -50.7988)" class="st73" width="5.2" height="5.2"/>
		
			<rect x="187.9" y="228.7" transform="matrix(0.9386 0.3449 -0.3449 0.9386 93.2318 -51.1885)" class="st73" width="5.2" height="15.5"/>
		
			<rect x="195.4" y="220.6" transform="matrix(0.9386 0.3449 -0.3449 0.9386 91.8002 -54.1176)" class="st73" width="5.2" height="20.6"/>
		
			<rect x="197.7" y="173.6" transform="matrix(0.9386 0.3449 -0.3449 0.9386 84.641 -56.2013)" class="st74" width="5.2" height="72.3"/>
		
			<rect x="203.7" y="218.8" transform="matrix(0.9386 0.3449 -0.3449 0.9386 90.0434 -58.2833)" class="st73" width="10.3" height="10.3"/>
		
			<rect x="222" y="185.9" transform="matrix(0.9386 0.3449 -0.3449 0.9386 78.7845 -65.8999)" class="st72" width="5.2" height="5.2"/>
		
			<rect x="200.3" y="227.6" transform="matrix(0.9386 0.3449 -0.3449 0.9386 92.7116 -55.6795)" class="st73" width="5.2" height="10.3"/>
		
			<rect x="216.3" y="183.9" transform="matrix(0.9386 0.3449 -0.3449 0.9386 78.6541 -63.8822)" class="st71" width="5.2" height="10.3"/>
		
			<rect x="195.1" y="181.7" transform="matrix(0.9386 0.3449 -0.3449 0.9386 76.5704 -56.723)" class="st71" width="5.2" height="10.3"/>
		
			<rect x="199.7" y="212" transform="matrix(0.9386 0.3449 -0.3449 0.9386 88.3511 -57.1771)" class="st70" width="10.3" height="15.5"/>
		
			<rect x="219.7" y="207" transform="matrix(0.9386 0.3449 -0.3449 0.9386 85.9437 -63.8162)" class="st73" width="5.2" height="5.2"/>
		
			<rect x="187.6" y="189.7" transform="matrix(0.9386 0.3449 -0.3449 0.9386 78.0019 -53.7939)" class="st71" width="5.2" height="5.2"/>
		
			<rect x="184.5" y="183.1" transform="matrix(0.9386 0.3449 -0.3449 0.9386 75.5285 -53.1434)" class="st71" width="5.2" height="5.2"/>
		
			<rect x="206.2" y="169.1" transform="matrix(0.9386 0.3449 -0.3449 0.9386 72.0149 -61.4749)" class="st71" width="5.2" height="5.2"/>
	</g>
	<g>
		<polygon class="st84" points="427.8,198.2 419,198.2 419,189.3 410.1,189.3 410.1,180.5 401.3,180.5 401.3,171.7 392.5,171.7 
			392.5,162.8 304.1,162.8 304.1,171.7 295.3,171.7 295.3,180.5 286.4,180.5 286.4,189.3 277.6,189.3 277.6,198.2 268.7,198.2 
			268.7,268.9 277.6,268.9 277.6,277.7 286.4,277.7 286.4,286.5 295.3,286.5 295.3,295.4 304.1,295.4 304.1,304.2 392.5,304.2 
			392.5,295.4 401.3,295.4 401.3,286.5 410.1,286.5 410.1,277.7 419,277.7 419,268.9 427.8,268.9 		"/>
		<rect x="357.1" y="286.5" class="st85" width="35.3" height="17.7"/>
		<rect x="392.5" y="268.9" class="st85" width="8.8" height="26.5"/>
		<rect x="401.3" y="268.9" class="st85" width="8.8" height="17.7"/>
		<rect x="410.1" y="260" class="st85" width="8.8" height="17.7"/>
		<rect x="419" y="242.4" class="st85" width="8.8" height="26.5"/>
		<rect x="357.1" y="268.9" class="st84" width="26.5" height="26.5"/>
		<rect x="365.9" y="268.9" class="st85" width="8.8" height="8.8"/>
		<rect x="383.6" y="242.4" class="st85" width="8.8" height="8.8"/>
		<rect x="339.4" y="162.8" class="st85" width="26.5" height="8.8"/>
		<rect x="365.9" y="198.2" class="st85" width="8.8" height="8.8"/>
		<rect x="383.6" y="171.7" class="st85" width="8.8" height="8.8"/>
		<rect x="304.1" y="286.5" class="st85" width="8.8" height="8.8"/>
		<rect x="285.4" y="277.7" class="st85" width="9.8" height="8.8"/>
		<rect x="295.3" y="198.2" class="st86" width="8.8" height="17.7"/>
		<rect x="303.1" y="189.3" class="st86" width="8.8" height="8.8"/>
		<rect x="295.3" y="189.3" class="st87" width="8.8" height="8.8"/>
		<rect x="312.9" y="207" class="st86" width="8.8" height="8.8"/>
		<rect x="286.4" y="198.2" class="st87" width="8.8" height="8.8"/>
		<rect x="410.1" y="233.5" class="st86" width="8.8" height="17.7"/>
		<rect x="295.3" y="224.7" class="st86" width="8.8" height="8.8"/>
		<rect x="277.6" y="215.8" class="st85" width="8.8" height="8.8"/>
		<rect x="419" y="215.8" class="st86" width="8.8" height="17.7"/>
		<rect x="348.3" y="171.7" class="st85" width="26.5" height="8.8"/>
		<rect x="312.9" y="171.7" class="st86" width="8.8" height="8.8"/>
	</g>
	<g>
		<polygon class="st98" points="512.5,388.8 510.5,383.5 505.1,385.5 503.1,380.2 497.8,382.2 497.8,382.2 471.1,392.3 471.1,392.3 
			465.8,394.4 467.8,399.7 462.5,401.7 464.5,407 459.2,409.1 469.3,435.7 474.6,433.7 476.7,439 482,437 484,442.3 489.3,440.3 
			491.4,445.6 518,435.5 516,430.2 521.3,428.2 519.3,422.8 524.6,420.8 522.6,415.5 527.9,413.5 517.8,386.8 		"/>
		
			<rect x="473.7" y="409" transform="matrix(0.935 -0.3548 0.3548 0.935 -116.105 196.0315)" class="st99" width="5.7" height="11.4"/>
		
			<rect x="500.4" y="433" transform="matrix(0.935 -0.3548 0.3548 0.935 -121.5225 208.9157)" class="st100" width="17.1" height="5.7"/>
		
			<rect x="514.8" y="423.7" transform="matrix(0.935 -0.3548 0.3548 0.935 -117.6367 211.3692)" class="st100" width="5.7" height="5.7"/>
		
			<rect x="518.1" y="416.3" transform="matrix(0.935 -0.3548 0.3548 0.935 -114.8145 212.0641)" class="st100" width="5.7" height="5.7"/>
		
			<rect x="521.4" y="409" transform="matrix(0.935 -0.3548 0.3548 0.935 -111.9923 212.759)" class="st100" width="5.7" height="5.7"/>
		
			<rect x="468.5" y="397.5" transform="matrix(0.935 -0.3548 0.3548 0.935 -111.1768 194.2516)" class="st99" width="11.4" height="5.7"/>
		
			<rect x="465.2" y="404.8" transform="matrix(0.935 -0.3548 0.3548 0.935 -113.999 193.5567)" class="st99" width="11.4" height="5.7"/>
		
			<rect x="465.4" y="405.8" transform="matrix(0.935 -0.3548 0.3548 0.935 -114.5309 192.6775)" class="st25" width="5.7" height="5.7"/>
		
			<rect x="468.7" y="398.5" transform="matrix(0.935 -0.3548 0.3548 0.935 -111.7087 193.3724)" class="st25" width="5.7" height="5.7"/>
		
			<rect x="477.3" y="389.1" transform="matrix(0.935 -0.3548 0.3548 0.935 -107.8228 195.8258)" class="st99" width="5.7" height="5.7"/>
		
			<rect x="510.7" y="413" transform="matrix(0.935 -0.3548 0.3548 0.935 -114.1196 209.2419)" class="st100" width="5.7" height="5.7"/>
		
			<rect x="480.6" y="376.1" transform="matrix(0.935 -0.3548 0.3548 0.935 -105.0006 196.5208)" class="st44" width="5.7" height="17.1"/>
		
			<rect x="490" y="390.4" transform="matrix(0.935 -0.3548 0.3548 0.935 -107.4541 200.4066)" class="st44" width="5.7" height="5.7"/>
		
			<rect x="476.8" y="352.9" transform="matrix(0.935 -0.3548 0.3548 0.935 -96.0235 193.4929)" class="st47" width="5.7" height="11.4"/>
		
			<rect x="476.6" y="365.4" transform="matrix(0.935 -0.3548 0.3548 0.935 -101.4835 194.3935)" class="st44" width="5.7" height="17.1"/>
		
			<rect x="479.1" y="345.8" transform="matrix(0.935 -0.3548 0.3548 0.935 -92.322 193.656)" class="st47" width="5.7" height="5.7"/>
		
			<rect x="482.4" y="338.4" transform="matrix(0.935 -0.3548 0.3548 0.935 -89.4998 194.3509)" class="st47" width="5.7" height="5.7"/>
		
			<rect x="475.6" y="365.6" transform="matrix(0.935 -0.3548 0.3548 0.935 -100.6042 193.8616)" class="st47" width="5.7" height="11.4"/>
		
			<rect x="477.8" y="358.4" transform="matrix(0.935 -0.3548 0.3548 0.935 -96.9028 194.0247)" class="st44" width="5.7" height="5.7"/>
	</g>
	<g>
		<polygon class="st48" points="129.6,57.2 124.3,58.9 122.6,53.6 117.3,55.3 115.6,50 78.5,61.9 80.2,67.2 74.9,68.9 76.6,74.2 
			71.3,75.9 79.8,102.4 85.1,100.7 86.8,106 92.1,104.3 93.8,109.6 130.9,97.7 129.2,92.4 134.5,90.7 132.8,85.4 138.1,83.7 		"/>
		
			<rect x="86.8" y="66.6" transform="matrix(0.952 -0.3062 0.3062 0.952 -16.4055 34.166)" class="st49" width="27.8" height="5.6"/>
		<rect x="92.4" y="61" transform="matrix(0.952 -0.3062 0.3062 0.952 -16.4055 34.166)" class="st49" width="16.7" height="16.7"/>
		
			<rect x="81.6" y="83.7" transform="matrix(0.952 -0.3062 0.3062 0.952 -23.2767 30.1149)" class="st50" width="5.6" height="11.1"/>
		
			<rect x="89.4" y="92.7" transform="matrix(0.952 -0.3062 0.3062 0.952 -24.8116 32.8202)" class="st50" width="5.6" height="5.6"/>
		
			<rect x="124.6" y="93.1" transform="matrix(0.952 -0.3062 0.3062 0.952 -23.235 43.6178)" class="st51" width="5.6" height="5.6"/>
		
			<rect x="128.2" y="86.1" transform="matrix(0.952 -0.3062 0.3062 0.952 -20.9178 44.3823)" class="st51" width="5.6" height="5.6"/>
		
			<rect x="131.8" y="79.1" transform="matrix(0.952 -0.3062 0.3062 0.952 -18.6006 45.1467)" class="st51" width="5.6" height="5.6"/>
		
			<rect x="116.1" y="66.6" transform="matrix(0.952 -0.3062 0.3062 0.952 -15.5309 39.736)" class="st50" width="5.6" height="5.6"/>
	</g>
	<g>
		<polygon class="st101" points="123.8,198.5 115.6,198.5 115.6,190.3 107.3,190.3 107.3,182.1 58,182.1 58,190.3 49.7,190.3 
			49.7,198.5 41.5,198.5 41.5,239.7 49.7,239.7 49.7,247.9 58,247.9 58,256.1 107.3,256.1 107.3,247.9 115.6,247.9 115.6,239.7 
			123.8,239.7 		"/>
		<rect x="82.4" y="203.6" class="st102" width="8.2" height="8.2"/>
		<rect x="66.2" y="239.7" class="st102" width="8.2" height="8.2"/>
		<rect x="66.2" y="190.3" class="st103" width="8.2" height="8.2"/>
		<rect x="123.8" y="165.6" class="st103" width="16.5" height="16.5"/>
		<rect x="25" y="247.9" class="st103" width="18.3" height="16.5"/>
		<rect x="111.9" y="227.8" class="st102" width="8.2" height="8.2"/>
		<rect x="66.2" y="215" class="st103" width="8.2" height="8.2"/>
		<rect x="99.1" y="239.7" class="st103" width="8.2" height="8.2"/>
		<rect x="132" y="165.6" class="st101" width="8.2" height="8.2"/>
		<rect x="33.3" y="256.1" class="st101" width="16.5" height="8.2"/>
		<rect x="16.8" y="231.4" class="st101" width="8.2" height="8.2"/>
		<rect x="33.3" y="165.6" class="st102" width="8.2" height="8.2"/>
		<rect x="25" y="157.4" class="st101" width="8.2" height="8.2"/>
		<rect x="132" y="247.9" class="st101" width="8.2" height="8.2"/>
		<rect x="74.4" y="149.1" class="st101" width="8.2" height="8.2"/>
		<rect x="99.1" y="190.3" class="st103" width="8.2" height="8.2"/>
		<rect x="82.6" y="272.6" class="st101" width="16.5" height="8.2"/>
		<rect x="82.6" y="264.3" class="st103" width="8.2" height="8.2"/>
	</g>
	<g>
		<polygon class="st70" points="85.7,356.1 81.6,356.9 79.9,348.9 75.9,349.7 75,345.7 71,346.5 70.1,342.5 66.1,343.4 65.2,339.3 
			61.2,340.2 60.3,336.2 56.3,337 57.2,341 53.1,341.9 54,345.9 49.9,346.8 50.8,350.8 46.8,351.7 47.6,355.7 43.6,356.6 
			45.3,364.7 41.3,365.5 46.4,389.7 50.5,388.9 51.3,392.9 55.4,392 56.2,396.1 60.3,395.2 61.1,399.2 65.1,398.4 66,402.4 
			70,401.6 70.9,405.6 74.9,404.7 74.1,400.7 78.1,399.8 77.3,395.8 81.3,395 80.4,390.9 84.5,390.1 83.6,386 87.6,385.2 
			86.8,381.1 90.8,380.3 		"/>
		
			<rect x="48.4" y="354.8" transform="matrix(0.9781 -0.2083 0.2083 0.9781 -73.6174 18.8158)" class="st71" width="8.2" height="8.2"/>
		
			<rect x="51.2" y="350.4" transform="matrix(0.9781 -0.2083 0.2083 0.9781 -72.2512 18.8253)" class="st72" width="4.1" height="4.1"/>
		
			<rect x="48.9" y="359.3" transform="matrix(0.9781 -0.2083 0.2083 0.9781 -74.1619 18.5388)" class="st72" width="4.1" height="4.1"/>
		
			<rect x="67.3" y="346.9" transform="matrix(0.9781 -0.2083 0.2083 0.9781 -71.181 22.1118)" class="st72" width="4.1" height="4.1"/>
		
			<rect x="64.2" y="389.8" transform="matrix(0.9781 -0.2083 0.2083 0.9781 -80.6107 22.4561)" class="st73" width="4.1" height="8.2"/>
		
			<rect x="58.9" y="386.7" transform="matrix(0.9781 -0.2083 0.2083 0.9781 -79.6458 21.2332)" class="st73" width="4.1" height="4.1"/>
		
			<rect x="69.6" y="392.9" transform="matrix(0.9781 -0.2083 0.2083 0.9781 -81.5756 23.6791)" class="st73" width="4.1" height="12.4"/>
		
			<rect x="72.3" y="384" transform="matrix(0.9781 -0.2083 0.2083 0.9781 -80.0756 24.0994)" class="st73" width="4.1" height="16.5"/>
		
			<rect x="64.8" y="348.1" transform="matrix(0.9781 -0.2083 0.2083 0.9781 -77.0566 22.2076)" class="st74" width="4.1" height="57.7"/>
		
			<rect x="74.6" y="378.7" transform="matrix(0.9781 -0.2083 0.2083 0.9781 -78.031 24.7968)" class="st73" width="8.2" height="8.2"/>
		
			<rect x="72.2" y="350.1" transform="matrix(0.9781 -0.2083 0.2083 0.9781 -71.7351 23.201)" class="st72" width="4.1" height="4.1"/>
		
			<rect x="76.3" y="387.2" transform="matrix(0.9781 -0.2083 0.2083 0.9781 -79.8081 24.921)" class="st73" width="4.1" height="8.2"/>
		
			<rect x="68.6" y="350.9" transform="matrix(0.9781 -0.2083 0.2083 0.9781 -72.4134 22.5131)" class="st71" width="4.1" height="8.2"/>
		
			<rect x="53.3" y="358.4" transform="matrix(0.9781 -0.2083 0.2083 0.9781 -74.3052 19.4942)" class="st71" width="4.1" height="8.2"/>
		
			<rect x="70.1" y="375.5" transform="matrix(0.9781 -0.2083 0.2083 0.9781 -77.8878 23.8414)" class="st70" width="8.2" height="12.4"/>
		
			<rect x="79.7" y="365.4" transform="matrix(0.9781 -0.2083 0.2083 0.9781 -74.754 25.0928)" class="st73" width="4.1" height="4.1"/>
		
			<rect x="50.6" y="367.4" transform="matrix(0.9781 -0.2083 0.2083 0.9781 -75.8052 19.0739)" class="st71" width="4.1" height="4.1"/>
		
			<rect x="45.7" y="364.2" transform="matrix(0.9781 -0.2083 0.2083 0.9781 -75.2511 17.9847)" class="st71" width="4.1" height="4.1"/>
		
			<rect x="54.4" y="345.5" transform="matrix(0.9781 -0.2083 0.2083 0.9781 -71.162 19.3794)" class="st71" width="4.1" height="4.1"/>
	</g>
	<g>
		<polygon class="st105" points="671.4,60.8 674.3,52.4 670.1,51 671.6,46.8 667.4,45.3 668.9,41.2 664.7,39.7 660.5,38.3 
			656.3,36.8 654.9,41 650.7,39.5 649.2,43.7 645.1,42.3 642.1,50.6 638,49.2 626.3,82.6 630.5,84.1 629.1,88.3 633.2,89.7 
			631.8,93.9 636.1,95.4 634.7,99.6 647.2,104 648.7,99.8 652.7,101.2 654.2,97 658.3,98.4 659.8,94.2 664,95.7 675.6,62.3 		"/>
		
			<rect x="640" y="46.7" transform="matrix(0.9445 0.3284 -0.3284 0.9445 54.5776 -207.6931)" class="st106" width="4.4" height="22.1"/>
		
			<rect x="656.3" y="84.9" transform="matrix(0.9445 0.3284 -0.3284 0.9445 66.5872 -211.1919)" class="st107" width="4.4" height="13.3"/>
		
			<rect x="645" y="95.5" transform="matrix(0.9445 0.3284 -0.3284 0.9445 68.1081 -207.8349)" class="st107" width="8.9" height="4.4"/>
		
			<rect x="662" y="82.2" transform="matrix(0.9445 0.3284 -0.3284 0.9445 66.004 -213.1935)" class="st107" width="4.4" height="13.3"/>
		
			<rect x="644.3" y="94.7" transform="matrix(0.9445 0.3284 -0.3284 0.9445 68.3996 -206.8341)" class="st107" width="4.4" height="8.9"/>
		
			<rect x="647.8" y="44.3" transform="matrix(0.9445 0.3284 -0.3284 0.9445 52.0559 -210.7585)" class="st108" width="4.4" height="8.9"/>
		
			<rect x="641.4" y="51.3" transform="matrix(0.9445 0.3284 -0.3284 0.9445 53.2853 -208.4023)" class="st108" width="4.4" height="4.4"/>
		
			<rect x="662.2" y="68.2" transform="matrix(0.9445 0.3284 -0.3284 0.9445 61.4177 -214.0288)" class="st107" width="4.4" height="13.3"/>
		
			<rect x="650.7" y="92.1" transform="matrix(0.9445 0.3284 -0.3284 0.9445 67.1703 -209.1903)" class="st107" width="4.4" height="4.4"/>
		
			<rect x="654.9" y="93.5" transform="matrix(0.9445 0.3284 -0.3284 0.9445 67.8795 -210.4827)" class="st109" width="4.4" height="4.4"/>
		
			<rect x="649.3" y="96.2" transform="matrix(0.9445 0.3284 -0.3284 0.9445 68.4627 -208.4811)" class="st109" width="4.4" height="4.4"/>
		
			<rect x="643.6" y="99" transform="matrix(0.9445 0.3284 -0.3284 0.9445 69.0458 -206.4795)" class="st109" width="4.4" height="4.4"/>
	</g>
</g>
<g id="AMOUNTS" class="st0">
</g>
<g id="LABELS" class="st0">
</g>
</svg>
