<?xml version="1.0" encoding="utf-8"?>
<!-- Generator: Adobe Illustrator 25.2.3, SVG Export Plug-In . SVG Version: 6.00 Build 0)  -->
<svg version="1.1" xmlns="http://www.w3.org/2000/svg" xmlns:xlink="http://www.w3.org/1999/xlink" x="0px" y="0px"
	 viewBox="0 0 700 467" style="enable-background:new 0 0 700 467;" xml:space="preserve">
<style type="text/css">
	.st0{display:none;}
	.st1{display:inline;fill:#026385;}
	.st2{display:inline;fill:#35BCC0;}
	.st3{display:inline;fill:#606161;}
	.st4{display:inline;fill:#BEBFB9;}
	.st5{display:inline;fill:#3A3A3A;}
	.st6{display:inline;fill:#161616;}
	.st7{display:inline;fill:#E1E1DF;}
	.st8{display:inline;fill:#018F9F;}
	.st9{fill:none;stroke:#000000;stroke-miterlimit:10;}
	.st10{fill:#E4DED5;}
	.st11{fill:#D2276E;}
	.st12{fill:#EE5E2F;}
	.st13{fill:#F3A634;}
	.st14{fill:#3E9B50;}
	.st15{fill:#018F9F;}
	.st16{fill:#CF232E;}
	.st17{fill:#614293;}
	.st18{opacity:0.25;fill:none;stroke:#000000;stroke-miterlimit:10;}
	.st19{opacity:0.25;fill:#D2276E;}
	.st20{opacity:0.25;fill:#EE5E2F;}
	.st21{opacity:0.25;fill:#F3A634;}
	.st22{opacity:0.25;fill:#018F9F;}
	.st23{opacity:0.25;fill:#CF232E;}
	.st24{opacity:0.25;fill:#614293;}
	.st25{opacity:0.25;}
	.st26{opacity:0.25;fill:#3E9B50;}
</style>
<g id="layout" class="st0">
</g>
<g id="Layer_4">
	<polyline class="st9" points="257.1,277.6 257.1,347 431.3,347.1 	"/>
	<line class="st9" x1="170.3" y1="183.3" x2="69.8" y2="183.3"/>
	
		<rect x="100.6" y="95.9" transform="matrix(0.7071 -0.7071 0.7071 0.7071 -45.5809 116.7267)" class="st11" width="34.9" height="34.9"/>
	
		<rect x="170" y="165.8" transform="matrix(0.7071 -0.7071 0.7071 0.7071 -74.6677 186.2622)" class="st12" width="34.9" height="34.9"/>
	
		<rect x="240.4" y="95.9" transform="matrix(0.7071 -0.7071 0.7071 0.7071 -4.6469 215.55)" class="st13" width="34.9" height="34.9"/>
	<polyline class="st9" points="187.7,61 187.7,158.6 117.1,87.9 	"/>
	
		<rect x="30.3" y="165.8" transform="matrix(0.7071 -0.7071 0.7071 0.7071 -115.6017 87.4388)" class="st14" width="34.9" height="34.9"/>
	<line class="st9" x1="118.1" y1="138.1" x2="118.1" y2="183.3"/>
	<polyline class="st9" points="351.1,181.9 281,111.9 187.5,18.8 23,183.3 	"/>
	<line class="st9" x1="187.7" y1="158.6" x2="258.4" y2="87.9"/>
	
		<rect x="239.7" y="235.4" transform="matrix(0.7071 -0.7071 0.7071 0.7071 -103.5119 255.8982)" class="st15" width="34.9" height="34.9"/>
	
		<rect x="310" y="166" transform="matrix(0.7071 -0.7071 0.7071 0.7071 -33.8342 285.3282)" class="st16" width="34.9" height="34.9"/>
	<line class="st9" x1="212.2" y1="183.3" x2="302.8" y2="183.3"/>
	<polyline class="st9" points="162.8,183.3 257.1,277.6 351.7,183 	"/>
	
		<rect x="413.3" y="329.4" transform="matrix(0.7071 -0.7071 0.7071 0.7071 -119.1231 406.2094)" class="st17" width="34.9" height="34.9"/>
	
		<rect x="413.3" y="399.8" transform="matrix(0.7071 -0.7071 0.7071 0.7071 -168.8779 426.8185)" class="st16" width="34.9" height="34.9"/>
	
		<rect x="413.3" y="260" transform="matrix(0.7071 -0.7071 0.7071 0.7071 -70.0546 385.8845)" class="st12" width="34.9" height="34.9"/>
	<polyline class="st9" points="430.8,252.8 335.8,347.8 430.8,442 527.1,346.9 431,252.8 	"/>
	<line class="st9" x1="636.5" y1="347.4" x2="453.1" y2="347.4"/>
	<circle cx="636.8" cy="347.4" r="17.2"/>
	
		<rect x="170" y="26" transform="matrix(0.7071 -0.7071 0.7071 0.7071 24.1556 145.3282)" class="st14" width="34.9" height="34.9"/>
	<g>
		<path d="M699,1v465H1V1H699 M700,0H0v467h700V0L700,0z"/>
	</g>
</g>
<g id="AMOUNTS" class="st0">
</g>
<g id="LABELS" class="st0">
</g>
</svg>
