<?xml version="1.0" encoding="utf-8"?>
<!-- Generator: Adobe Illustrator 25.2.3, SVG Export Plug-In . SVG Version: 6.00 Build 0)  -->
<svg version="1.1" id="Layer_1" xmlns="http://www.w3.org/2000/svg" xmlns:xlink="http://www.w3.org/1999/xlink" x="0px" y="0px"
	 viewBox="0 0 150 150" style="enable-background:new 0 0 150 150;" xml:space="preserve">
<style type="text/css">
	.st0{fill:#515151;}
	.st1{fill:none;}
	.st2{fill:#353535;}
	.st3{font-family:'VCROSDMono';}
	.st4{font-size:25px;}
	.st5{opacity:0.85;}
	.st6{fill:#C4C4C4;}
</style>
<g>
	<g>
		<g>
			<polygon class="st0" points="92,109 92,98.7 86.9,98.7 86.9,109 66.2,109 66.2,98.7 61.1,98.7 61.1,109 55.9,109 55.9,140 
				97.2,140 97.2,109 			"/>
			<rect x="66.2" y="93.6" class="st0" width="5.2" height="5.2"/>
			<rect x="81.7" y="93.6" class="st0" width="5.2" height="5.2"/>
			<rect x="71.4" y="88.4" class="st0" width="10.3" height="5.2"/>
		</g>
		<polygon points="84.3,114.2 68.8,114.2 68.8,124.5 74,124.5 74,134.8 79.1,134.8 79.1,124.5 84.3,124.5 		"/>
	</g>
	<rect x="-1.3" y="-1.3" class="st1" width="153" height="153"/>
	<text transform="matrix(1 0 0 1 10.8941 84.3239)" class="st2 st3 st4">SPIRULINA</text>
	<g class="st5">
		<rect x="-1.5" y="-1.7" class="st6" width="154" height="153"/>
	</g>
	<path d="M150.5-0.7v151h-152v-151H150.5 M151.5-1.7h-154v153h154V-1.7L151.5-1.7z"/>
</g>
</svg>
