<?xml version="1.0" encoding="utf-8"?>
<!-- Generator: Adobe Illustrator 25.2.3, SVG Export Plug-In . SVG Version: 6.00 Build 0)  -->
<svg version="1.1" xmlns="http://www.w3.org/2000/svg" xmlns:xlink="http://www.w3.org/1999/xlink" x="0px" y="0px"
	 viewBox="0 0 700 467" style="enable-background:new 0 0 700 467;" xml:space="preserve">
<style type="text/css">
	.st0{display:none;}
	.st1{display:inline;fill:#026385;}
	.st2{display:inline;fill:#35BCC0;}
	.st3{display:inline;fill:#606161;}
	.st4{display:inline;fill:#BEBFB9;}
	.st5{display:inline;fill:#3A3A3A;}
	.st6{display:inline;fill:#161616;}
	.st7{display:inline;fill:#E1E1DF;}
	.st8{display:inline;fill:#018F9F;}
	.st9{fill:#E4DED5;}
	.st10{fill:#8B561D;}
	.st11{fill:#95B90B;}
	.st12{fill:#B5CE4D;}
	.st13{fill:#FFFEFF;}
	.st14{fill:#000900;}
	.st15{fill:#8A370F;}
	.st16{fill:#FFDE01;}
	.st17{fill:#FCB912;}
	.st18{fill:#FCF54D;}
	.st19{fill:#FFFFFF;}
	.st20{fill:#EB1C24;}
	.st21{fill:#37A01A;}
	.st22{fill:#F4CB00;}
	.st23{fill:#21851D;}
	.st24{fill:#C30C08;}
	.st25{fill:#FA5810;}
	.st26{fill:#135110;}
	.st27{fill:#A7B941;}
	.st28{fill:#E0E48D;}
	.st29{fill:#DA895E;}
	.st30{fill:#63240B;}
	.st31{fill:#DC0000;}
	.st32{fill:#AE0002;}
	.st33{fill:#FF7A69;}
	.st34{fill:#426024;}
	.st35{fill:#649238;}
	.st36{fill:#432355;}
	.st37{fill:#F8C09D;}
	.st38{fill:#B31D4A;}
	.st39{fill:#DC1C4B;}
	.st40{fill:#FFE627;}
	.st41{fill:#FFAD27;}
	.st42{fill:#FFF576;}
	.st43{fill:#BCD531;}
	.st44{fill:#7F2600;}
	.st45{fill:#E0E11B;}
	.st46{fill:#98C93C;}
	.st47{fill:#A13906;}
	.st48{fill:#0B5389;}
	.st49{fill:#0C3352;}
	.st50{fill:#3279A5;}
	.st51{fill:#0F4B70;}
	.st52{fill:#DBCEAC;}
	.st53{fill:#FFF6DA;}
	.st54{fill:#FFF4D8;}
	.st55{fill:#BFAF8B;}
	.st56{fill:#6B2114;}
	.st57{fill:#F2CF95;}
	.st58{fill:#C88C43;}
	.st59{fill:#7B3720;}
	.st60{fill:#9C5738;}
	.st61{fill:#DDB67D;}
	.st62{fill:#FFE2AE;}
	.st63{fill:#133415;}
	.st64{fill:#608D62;}
	.st65{fill:#305937;}
	.st66{fill:#4E1349;}
	.st67{fill:#8A428E;}
	.st68{fill:#2A0E27;}
	.st69{fill:#2B853F;}
	.st70{fill:#83AA37;}
	.st71{fill:#96CB3B;}
	.st72{fill:#B1E656;}
	.st73{fill:#5C9514;}
	.st74{fill:#4F7319;}
	.st75{fill:#645C5A;}
	.st76{fill:#7F6D57;}
	.st77{fill:#4B423B;}
	.st78{fill:#E9E1D4;}
	.st79{fill:#9A0A14;}
	.st80{fill:#FCFAE1;}
	.st81{fill:#F8151E;}
	.st82{fill:#DA191E;}
	.st83{fill:#F9572B;}
	.st84{fill:#F79B20;}
	.st85{fill:#F36527;}
	.st86{fill:#FBD371;}
	.st87{fill:#EFEF97;}
	.st88{fill:#D87E3D;}
	.st89{fill:#B55E2C;}
	.st90{fill:#ED9857;}
	.st91{fill:#803415;}
	.st92{fill:#61176E;}
	.st93{fill:#4A1056;}
	.st94{fill:#A126B8;}
	.st95{fill:#EA0F13;}
	.st96{fill:#BC0406;}
	.st97{fill:#F9B6BD;}
	.st98{fill:#D1282B;}
	.st99{fill:#EC2125;}
	.st100{fill:#881719;}
	.st101{fill:#ADC45C;}
	.st102{fill:#717D33;}
	.st103{fill:#C0D667;}
	.st104{fill:#78C433;}
	.st105{fill:#D22127;}
	.st106{fill:#E4696C;}
	.st107{fill:#BC2325;}
	.st108{fill:#FB8794;}
	.st109{fill:#A3242B;}
	.st110{fill:#2E9649;}
	.st111{fill:#FF854E;}
	.st112{fill:#3BA746;}
	.st113{fill:#308A43;}
	.st114{fill:#F76140;}
	.st115{fill:#FCBB5E;}
	.st116{fill:#6F6252;}
	.st117{fill:#32A00D;}
</style>
<g id="layout" class="st0">
</g>
<g id="Layer_4">
	<g>
		<polygon class="st116" points="428,244 419,244 419,235 410,235 410,226 266,226 266,235 257,235 257,244 248,244 248,289 
			257,289 257,298 266,298 266,307 410,307 410,298 419,298 419,289 428,289 		"/>
		<rect x="383" y="244" width="9" height="18"/>
		<rect x="410" y="244" width="9" height="18"/>
		<rect x="392" y="271" width="18" height="9"/>
		<rect x="284" y="307" width="9" height="36"/>
		<rect x="383" y="307" width="9" height="36"/>
		<rect x="365" y="307" width="9" height="36"/>
		<rect x="302" y="307" width="9" height="36"/>
		<rect x="383" y="181" width="9" height="45"/>
		<polygon class="st117" points="364.8,153.5 370.5,159.8 364.2,165.5 358.5,159.2 339.7,176.3 356.8,195.1 363.1,189.4 
			368.8,195.7 375,190 380.7,196.3 399.6,179.2 393.9,172.9 400.2,167.2 394.5,161 400.7,155.3 383.6,136.4 		"/>
	</g>
</g>
<g id="AMOUNTS" class="st0">
</g>
<g id="LABELS" class="st0">
</g>
</svg>
