<?xml version="1.0" encoding="utf-8"?>
<!-- Generator: Adobe Illustrator 25.2.3, SVG Export Plug-In . SVG Version: 6.00 Build 0)  -->
<svg version="1.1" xmlns="http://www.w3.org/2000/svg" xmlns:xlink="http://www.w3.org/1999/xlink" x="0px" y="0px"
	 viewBox="0 0 700 467" style="enable-background:new 0 0 700 467;" xml:space="preserve">
<style type="text/css">
	.st0{display:none;}
	.st1{display:inline;fill:#026385;}
	.st2{display:inline;fill:#35BCC0;}
	.st3{display:inline;fill:#606161;}
	.st4{display:inline;fill:#BEBFB9;}
	.st5{display:inline;fill:#3A3A3A;}
	.st6{display:inline;fill:#161616;}
	.st7{display:inline;fill:#E1E1DF;}
	.st8{display:inline;fill:#018F9F;}
	.st9{display:inline;fill:#E4DED5;}
	.st10{display:inline;opacity:0.51;}
	.st11{fill:#EE5E2F;}
	.st12{fill:#C0B5AA;}
	.st13{fill:#A53A1C;}
	.st14{fill:#DF5330;}
	.st15{fill:#FF8039;}
	.st16{fill:#7F7973;}
	.st17{fill:#E4DED5;}
	.st18{fill:#514A43;}
	.st19{fill:#302C28;}
</style>
<g id="layout" class="st0">
</g>
<g id="Layer_4" class="st0">
	<g class="st10">
		
			<image style="overflow:visible;" width="800" height="560" id="K17H25" xlink:href="9C19140456AF4D2E.jpg"  transform="matrix(0.8232 0 0 0.8232 14 27)">
		</image>
	</g>
</g>
<g id="AMOUNTS">
	<rect x="563" y="343" class="st11" width="9" height="9"/>
	<rect x="590" y="361" class="st11" width="9" height="9"/>
	<rect x="599" y="352" class="st11" width="9" height="9"/>
	<rect x="608" y="334" class="st11" width="9" height="18"/>
	<rect x="527" y="298" class="st11" width="63" height="18"/>
	<rect x="518" y="307" class="st11" width="9" height="18"/>
	<rect x="527" y="298" class="st11" width="9" height="36"/>
	<rect x="536" y="289" class="st11" width="9" height="36"/>
	<rect x="545" y="280" class="st11" width="9" height="27"/>
	<rect x="554" y="289" class="st11" width="27" height="18"/>
	<rect x="563" y="280" class="st11" width="18" height="54"/>
	<rect x="554" y="316" class="st11" width="36" height="9"/>
	<rect x="554" y="262" class="st11" width="18" height="9"/>
	<rect x="545" y="244" class="st11" width="9" height="9"/>
	<rect x="527" y="235" class="st11" width="9" height="9"/>
	<rect x="482" y="244" class="st11" width="9" height="9"/>
	<rect x="500" y="262" class="st11" width="18" height="9"/>
	<rect x="518" y="271" class="st11" width="9" height="9"/>
	<rect x="527" y="253" class="st11" width="9" height="18"/>
	<rect x="491" y="253" class="st11" width="9" height="9"/>
	<rect x="491" y="235" class="st11" width="18" height="9"/>
	<rect x="482" y="109" class="st11" width="18" height="126"/>
	<rect x="194" y="262" class="st11" width="18" height="45"/>
	<rect x="185" y="271" class="st11" width="45" height="27"/>
	<rect x="212" y="271" class="st11" width="18" height="99"/>
	<rect x="203" y="280" class="st11" width="45" height="45"/>
	<rect x="230" y="289" class="st11" width="36" height="18"/>
	<rect x="230" y="280" class="st11" width="9" height="72"/>
	<rect x="230" y="289" class="st11" width="18" height="45"/>
	<rect x="221" y="298" class="st11" width="36" height="18"/>
	<rect x="230" y="370" class="st11" width="9" height="9"/>
	<rect x="239" y="379" class="st11" width="9" height="9"/>
	<rect x="185" y="253" class="st11" width="9" height="9"/>
	<rect x="167" y="244" class="st11" width="18" height="9"/>
	<rect x="149" y="235" class="st11" width="27" height="9"/>
	<rect x="185" y="235" class="st11" width="9" height="9"/>
	<rect x="203" y="235" class="st11" width="18" height="9"/>
	<rect x="221" y="244" class="st11" width="9" height="9"/>
	<rect x="140" y="217" class="st11" width="27" height="18"/>
	<rect x="131" y="163" class="st11" width="81" height="54"/>
	<rect x="203" y="163" class="st11" width="9" height="63"/>
	<rect x="158" y="208" class="st11" width="27" height="18"/>
	<rect x="122" y="163" class="st11" width="90" height="18"/>
	<rect x="194" y="172" class="st11" width="27" height="27"/>
	<rect x="221" y="181" class="st11" width="9" height="9"/>
	<rect x="221" y="172" class="st11" width="18" height="9"/>
	<rect x="221" y="154" class="st11" width="18" height="18"/>
	<rect x="239" y="163" class="st11" width="9" height="9"/>
	<rect x="113" y="154" class="st11" width="81" height="9"/>
	<rect x="86" y="145" class="st11" width="108" height="9"/>
	<rect x="77" y="163" class="st11" width="18" height="9"/>
	<rect x="86" y="145" class="st11" width="18" height="18"/>
	<rect x="104" y="136" class="st11" width="27" height="9"/>
	<rect x="140" y="136" class="st11" width="63" height="18"/>
	<rect x="158" y="127" class="st11" width="9" height="9"/>
	<rect x="140" y="118" class="st11" width="18" height="9"/>
	<rect x="167" y="118" class="st11" width="18" height="9"/>
	<rect x="194" y="127" class="st11" width="9" height="9"/>
	<rect x="176" y="127" class="st11" width="9" height="9"/>
	<rect x="203" y="118" class="st11" width="9" height="9"/>
	<rect x="212" y="127" class="st11" width="9" height="18"/>
	<rect x="203" y="145" class="st11" width="9" height="9"/>
	<rect x="203" y="136" class="st11" width="27" height="9"/>
	<rect x="212" y="109" class="st11" width="18" height="9"/>
	<rect x="221" y="100" class="st11" width="18" height="9"/>
	<rect x="230" y="118" class="st11" width="45" height="9"/>
	<rect x="239" y="109" class="st11" width="45" height="9"/>
	<rect x="257" y="100" class="st11" width="18" height="9"/>
	<rect x="239" y="127" class="st11" width="36" height="9"/>
	<rect x="248" y="118" class="st11" width="9" height="36"/>
	<rect x="248" y="127" class="st11" width="18" height="18"/>
	<rect x="275" y="145" class="st11" width="18" height="9"/>
	<rect x="275" y="235" class="st11" width="9" height="27"/>
	<rect x="284" y="226" class="st11" width="9" height="45"/>
	<rect x="293" y="217" class="st11" width="9" height="54"/>
	<rect x="311" y="217" class="st11" width="18" height="63"/>
	<rect x="302" y="217" class="st11" width="9" height="54"/>
	<rect x="329" y="226" class="st11" width="27" height="99"/>
	<rect x="356" y="235" class="st11" width="9" height="81"/>
	<rect x="365" y="244" class="st11" width="9" height="45"/>
	<rect x="374" y="253" class="st11" width="9" height="18"/>
	<rect x="320" y="271" class="st11" width="18" height="54"/>
	<rect x="329" y="307" class="st11" width="18" height="36"/>
	<rect x="338" y="325" class="st11" width="18" height="9"/>
	<rect x="374" y="307" class="st11" width="9" height="18"/>
	<rect x="293" y="190" class="st11" width="18" height="18"/>
	<rect x="293" y="172" class="st11" width="18" height="9"/>
	<rect x="302" y="163" class="st11" width="9" height="18"/>
	<rect x="311" y="190" class="st11" width="45" height="9"/>
	<rect x="329" y="172" class="st11" width="9" height="36"/>
	<rect x="311" y="181" class="st11" width="63" height="9"/>
	<rect x="320" y="172" class="st11" width="108" height="9"/>
	<rect x="383" y="163" class="st11" width="9" height="45"/>
	<rect x="374" y="163" class="st11" width="9" height="45"/>
	<rect x="347" y="199" class="st11" width="27" height="9"/>
	<rect x="338" y="208" class="st11" width="9" height="9"/>
	<rect x="356" y="208" class="st11" width="18" height="18"/>
	<rect x="374" y="217" class="st11" width="9" height="27"/>
	<rect x="365" y="226" class="st11" width="36" height="9"/>
	<rect x="383" y="244" class="st11" width="9" height="9"/>
	<rect x="401" y="208" class="st11" width="90" height="18"/>
	<rect x="419" y="181" class="st11" width="18" height="72"/>
	<rect x="410" y="226" class="st11" width="45" height="9"/>
	<rect x="437" y="235" class="st11" width="9" height="9"/>
	<rect x="437" y="244" class="st11" width="9" height="18"/>
	<rect x="446" y="262" class="st11" width="9" height="9"/>
	<rect x="473" y="226" class="st11" width="9" height="9"/>
	<rect x="500" y="127" class="st11" width="9" height="108"/>
	<rect x="320" y="154" class="st11" width="18" height="9"/>
	<rect x="329" y="145" class="st11" width="18" height="9"/>
	<rect x="347" y="136" class="st11" width="54" height="9"/>
	<rect x="356" y="127" class="st11" width="18" height="9"/>
	<rect x="347" y="154" class="st11" width="135" height="9"/>
	<rect x="338" y="163" class="st11" width="54" height="9"/>
	<rect x="392" y="181" class="st11" width="36" height="9"/>
	<rect x="401" y="154" class="st11" width="27" height="54"/>
	<rect x="374" y="154" class="st11" width="117" height="27"/>
	<rect x="437" y="127" class="st11" width="45" height="81"/>
	<rect x="401" y="127" class="st11" width="54" height="36"/>
	<rect x="347" y="145" class="st11" width="72" height="9"/>
	<rect x="410" y="118" class="st11" width="45" height="9"/>
	<rect x="419" y="109" class="st11" width="18" height="9"/>
	<rect x="509" y="118" class="st11" width="45" height="27"/>
	<rect x="554" y="118" class="st11" width="9" height="45"/>
	<rect x="500" y="127" class="st11" width="72" height="9"/>
	<rect x="509" y="109" class="st11" width="36" height="18"/>
	<rect x="491" y="118" class="st11" width="27" height="9"/>
	<rect x="500" y="190" class="st11" width="18" height="36"/>
	<rect x="518" y="199" class="st11" width="9" height="18"/>
	<rect x="527" y="217" class="st11" width="9" height="9"/>
	<rect x="536" y="190" class="st11" width="9" height="9"/>
	<rect x="545" y="172" class="st11" width="9" height="18"/>
	<rect x="527" y="181" class="st11" width="9" height="9"/>
	<rect x="500" y="136" class="st11" width="27" height="45"/>
	<rect x="518" y="163" class="st11" width="27" height="9"/>
	<rect x="518" y="154" class="st11" width="18" height="9"/>
	<rect x="518" y="136" class="st11" width="27" height="18"/>
</g>
<g id="LABELS" class="st0">
</g>
</svg>
