<?xml version="1.0" encoding="utf-8"?>
<!-- Generator: Adobe Illustrator 25.2.3, SVG Export Plug-In . SVG Version: 6.00 Build 0)  -->
<svg version="1.1" id="Layer_1" xmlns="http://www.w3.org/2000/svg" xmlns:xlink="http://www.w3.org/1999/xlink" x="0px" y="0px"
	 viewBox="0 0 150 150" style="enable-background:new 0 0 150 150;" xml:space="preserve">
<style type="text/css">
	.st0{clip-path:url(#SVGID_2_);}
	.st1{fill:#6F6252;}
	.st2{fill:#32A00D;}
</style>
<g>
	<defs>
		<rect id="SVGID_1_" y="0" width="151.5" height="150"/>
	</defs>
	<clipPath id="SVGID_2_">
		<use xlink:href="#SVGID_1_"  style="overflow:visible;"/>
	</clipPath>
	<g class="st0">
		<polygon class="st1" points="133.3,87.3 122.3,87.3 122.3,76.4 111.4,76.4 111.4,65.4 -63.9,65.4 -63.9,76.4 -74.8,76.4 
			-74.8,87.3 -85.8,87.3 -85.8,141.9 -74.8,141.9 -74.8,152.8 -63.9,152.8 -63.9,163.7 111.4,163.7 111.4,152.8 122.3,152.8 
			122.3,141.9 133.3,141.9 		"/>
		<rect x="78.5" y="87.3" width="11" height="21.8"/>
		<rect x="111.4" y="87.3" width="11" height="21.8"/>
		<rect x="89.5" y="120" width="21.9" height="10.9"/>
		<rect x="78.5" y="10.9" width="11" height="54.6"/>
		<polygon class="st2" points="56.4,-22.5 63.3,-14.9 55.7,-7.9 48.8,-15.6 25.8,5.2 46.6,28 54.3,21.1 61.2,28.7 68.8,21.8 
			75.8,29.4 98.7,8.7 91.8,1.1 99.4,-5.8 92.5,-13.4 100.1,-20.4 79.3,-43.2 		"/>
	</g>
</g>
</svg>
