<?xml version="1.0" encoding="utf-8"?>
<!-- Generator: Adobe Illustrator 25.2.3, SVG Export Plug-In . SVG Version: 6.00 Build 0)  -->
<svg version="1.1" xmlns="http://www.w3.org/2000/svg" xmlns:xlink="http://www.w3.org/1999/xlink" x="0px" y="0px"
	 viewBox="0 0 700 467" style="enable-background:new 0 0 700 467;" xml:space="preserve">
<style type="text/css">
	.st0{display:none;}
	.st1{display:inline;fill:#026385;}
	.st2{display:inline;fill:#35BCC0;}
	.st3{display:inline;fill:#606161;}
	.st4{display:inline;fill:#BEBFB9;}
	.st5{display:inline;fill:#3A3A3A;}
	.st6{display:inline;fill:#161616;}
	.st7{display:inline;fill:#E1E1DF;}
	.st8{display:inline;fill:#018F9F;}
	.st9{fill:none;stroke:#000000;stroke-miterlimit:10;}
	.st10{fill:#E4DED5;}
	.st11{fill:#D2276E;}
	.st12{fill:#EE5E2F;}
	.st13{fill:#F3A634;}
	.st14{fill:#3E9B50;}
	.st15{fill:#018F9F;}
	.st16{fill:#CF232E;}
	.st17{fill:#614293;}
	.st18{opacity:0.25;fill:none;stroke:#000000;stroke-miterlimit:10;}
	.st19{opacity:0.25;fill:#D2276E;}
	.st20{opacity:0.25;fill:#EE5E2F;}
	.st21{opacity:0.25;fill:#F3A634;}
	.st22{opacity:0.25;fill:#018F9F;}
	.st23{opacity:0.25;fill:#CF232E;}
	.st24{opacity:0.25;fill:#614293;}
	.st25{opacity:0.25;}
	.st26{opacity:0.25;fill:#3E9B50;}
</style>
<g id="layout" class="st0">
</g>
<g id="Layer_4">
	<polyline class="st18" points="257.5,277.4 257.5,346.8 431.6,347 	"/>
	<line class="st18" x1="170.6" y1="183.1" x2="70.1" y2="183.1"/>
	
		<rect x="101" y="95.7" transform="matrix(0.7071 -0.7071 0.7071 0.7071 -45.3561 116.8971)" class="st19" width="34.9" height="34.9"/>
	
		<rect x="170.4" y="165.6" transform="matrix(0.7071 -0.7071 0.7071 0.7071 -74.4429 186.4327)" class="st20" width="34.9" height="34.9"/>
	
		<rect x="240.7" y="95.7" transform="matrix(0.7071 -0.7071 0.7071 0.7071 -4.4221 215.7205)" class="st21" width="34.9" height="34.9"/>
	<polyline class="st18" points="188.1,60.8 188.1,158.4 117.4,87.7 	"/>
	
		<rect x="30.6" y="165.6" transform="matrix(0.7071 -0.7071 0.7071 0.7071 -115.3769 87.6093)" class="st14" width="34.9" height="34.9"/>
	<line class="st18" x1="118.4" y1="137.9" x2="118.4" y2="183.1"/>
	<polyline class="st18" points="351.5,181.8 281.3,111.7 187.8,18.6 23.4,183.1 	"/>
	<line class="st18" x1="188.1" y1="158.4" x2="258.7" y2="87.7"/>
	
		<rect x="240" y="235.2" transform="matrix(0.7071 -0.7071 0.7071 0.7071 -103.2871 256.0687)" class="st22" width="34.9" height="34.9"/>
	
		<rect x="310.4" y="165.8" transform="matrix(0.7071 -0.7071 0.7071 0.7071 -33.6094 285.4987)" class="st23" width="34.9" height="34.9"/>
	<line class="st18" x1="212.5" y1="183.1" x2="303.1" y2="183.1"/>
	<polyline class="st18" points="163.1,183.1 257.5,277.4 352,182.8 	"/>
	
		<rect x="413.6" y="329.2" transform="matrix(0.7071 -0.7071 0.7071 0.7071 -118.8983 406.3798)" class="st24" width="34.9" height="34.9"/>
	
		<rect x="413.6" y="399.6" transform="matrix(0.7071 -0.7071 0.7071 0.7071 -168.6531 426.989)" class="st23" width="34.9" height="34.9"/>
	
		<rect x="413.6" y="259.8" transform="matrix(0.7071 -0.7071 0.7071 0.7071 -69.8298 386.055)" class="st20" width="34.9" height="34.9"/>
	<polyline class="st18" points="431.1,252.6 336.1,347.6 431.1,441.8 527.4,346.7 431.3,252.6 	"/>
	<line class="st18" x1="636.8" y1="347.2" x2="453.4" y2="347.2"/>
	<circle class="st25" cx="637.1" cy="347.2" r="17.2"/>
	
		<rect x="170.4" y="25.8" transform="matrix(0.7071 -0.7071 0.7071 0.7071 24.3805 145.4987)" class="st26" width="34.9" height="34.9"/>
</g>
<g id="AMOUNTS" class="st0">
</g>
<g id="LABELS" class="st0">
</g>
</svg>
