<?xml version="1.0" encoding="utf-8"?>
<!-- Generator: Adobe Illustrator 25.2.3, SVG Export Plug-In . SVG Version: 6.00 Build 0)  -->
<svg version="1.1" xmlns="http://www.w3.org/2000/svg" xmlns:xlink="http://www.w3.org/1999/xlink" x="0px" y="0px"
	 viewBox="0 0 300 350" style="enable-background:new 0 0 300 350;" xml:space="preserve">
<style type="text/css">
	.st0{fill:#E4DED5;}
	.st1{fill:#6F6252;}
	.st2{fill:#32A00D;}
	.st3{fill:none;stroke:#443E93;stroke-width:5;stroke-miterlimit:10;}
	.st4{fill:#9E1F25;}
	.st5{fill-rule:evenodd;clip-rule:evenodd;fill:#CF232E;}
	.st6{fill:#F7A33B;}
	.st7{fill:#F5C032;}
	.st8{fill:#FFF6D1;}
	.st9{fill:#6AA266;}
	.st10{fill:#443E93;}
	.st11{fill:#FFFFFF;}
</style>
<g id="layout">
</g>
<g id="Layer_4">
	<g>
		<polygon class="st1" points="187,244.2 198.4,244.2 198.4,232.7 209.9,232.7 209.9,221.3 392.9,221.3 392.9,232.7 404.4,232.7 
			404.4,244.2 415.8,244.2 415.8,301.4 404.4,301.4 404.4,312.8 392.9,312.8 392.9,324.2 209.9,324.2 209.9,312.8 198.4,312.8 
			198.4,301.4 187,301.4 		"/>
		<rect x="232.8" y="244.2" transform="matrix(-1 -4.483892e-11 4.483892e-11 -1 476.9598 511.2004)" width="11.4" height="22.9"/>
		<rect x="198.4" y="244.2" transform="matrix(-1 -4.483892e-11 4.483892e-11 -1 408.3199 511.2004)" width="11.4" height="22.9"/>
		<rect x="209.9" y="278.5" transform="matrix(-1 -4.499790e-11 4.499790e-11 -1 442.6399 568.4003)" width="22.9" height="11.4"/>
		<rect x="232.8" y="324.2" transform="matrix(-1 -4.499790e-11 4.499790e-11 -1 476.9598 694.2401)" width="11.4" height="45.8"/>
		<rect x="255.6" y="324.2" transform="matrix(-1 -4.483892e-11 4.483892e-11 -1 522.7197 694.2401)" width="11.4" height="45.8"/>
		<rect x="232.8" y="164.1" transform="matrix(-1 -4.499790e-11 4.499790e-11 -1 476.9598 385.3607)" width="11.4" height="57.2"/>
		<polygon class="st2" points="267.3,129.2 260.1,137.1 268.1,144.4 275.3,136.4 299.2,158.1 277.5,182.1 269.5,174.8 262.3,182.8 
			254.3,175.6 247.1,183.5 223.1,161.8 230.4,153.8 222.4,146.6 229.6,138.6 221.7,131.4 243.4,107.4 		"/>
	</g>
	<g>
		<path d="M95.1,61.5h13.2v6.6h6.6v6.6h6.6v13.2h-13.2v-6.6h-6.6v-6.6h-6.6v19.8h13.2v6.6h6.6v6.6h6.6v19.8h-6.6v6.6h-6.6v6.6H95.1
			v6.6H82v-6.6H68.8V134h-6.6v-6.6h-6.6v-13.2h13.2v6.6h6.6v6.6H82v-19.8H68.8v-6.6h-6.6v-6.6h-6.6V74.7h6.6v-6.6h6.6v-6.6H82v-6.6
			h13.2V61.5z M82,74.7h-6.6v6.6h-6.6v6.6h6.6v6.6H82V74.7z M95.1,127.5h6.6v-6.6h6.6v-6.6h-6.6v-6.6h-6.6V127.5z"/>
	</g>
	<g>
		<path class="st2" d="M41.9,38.9V27.9h93.8v10.9h15.6v10.9H167v109.3h-15.6v10.9h-15.6V181H41.9v-10.9H26.2v-10.9H10.6V49.8h15.6
			V38.9H41.9z M120.1,49.8H57.5v10.9H41.9v87.5h15.6v10.9h62.6v-10.9h15.6V60.7h-15.6V49.8z"/>
	</g>
	<rect x="209" y="253" width="27" height="9"/>
	<rect x="231" y="243" width="25" height="25"/>
	<rect x="187" y="243" width="25" height="25"/>
</g>
<g id="AMOUNTS">
</g>
<g id="LABELS">
</g>
</svg>
