<?xml version="1.0" encoding="utf-8"?>
<!-- Generator: Adobe Illustrator 25.2.3, SVG Export Plug-In . SVG Version: 6.00 Build 0)  -->
<svg version="1.1" xmlns="http://www.w3.org/2000/svg" xmlns:xlink="http://www.w3.org/1999/xlink" x="0px" y="0px"
	 viewBox="0 0 300 350" style="enable-background:new 0 0 300 350;" xml:space="preserve">
<style type="text/css">
	.st0{fill:#E4DED5;}
	.st1{fill:#32A00D;}
	.st2{fill:#ADB9AF;}
	.st3{fill:#735C42;}
	.st4{fill:#6AA266;}
	.st5{fill:#443E93;}
	.st6{fill:#FFFFFF;}
	.st7{fill:#4B6C6B;}
	.st8{fill:#AD2147;}
	.st9{fill:#DE1E69;}
	.st10{fill:#EC5C8F;}
	.st11{fill:#A5A653;}
	.st12{fill:#492C28;}
	.st13{fill:#DD8A34;}
	.st14{fill:#81705E;}
</style>
<g id="layout">
</g>
<g id="Layer_4">
	<rect x="43.2" y="266.9" class="st2" width="207.8" height="83.1"/>
	<path class="st3" d="M57,253v69.3c0,0,0,13.9,16.4,13.9s81.9,0,81.9,0s49.1,0,65.5,0s16.4-13.9,16.4-13.9V253H57z"/>
	<g>
		<path class="st4" d="M134.8,238.9c-2.3-2.6-5.5-4.6-9.6-4.5c-4.2,0.2-6.1,5.6-7.2,6.1c-0.8,0.3-2.3,1.2-3,1.6
			c0.1-3.9,0.2-8.6,0.2-13.2c0.7-0.6,2.1-1.3,3.7-0.7c2.5,0.9,3.5,2.8,4.1,2.4c0.5-0.4-0.8-3.9-2.6-5c-1.8-1-3.7-1.3-5.2-0.2
			c0.1-6.1,0.1-11.4,0.1-14.2c0.8-0.2,2.2-0.7,2.7-2.2c0.5-1.3,0.5-2,0.5-2s-0.2,0-0.4,0c0.3-0.9,0.3-1.4,0.3-1.4s-1.9-0.1-3.1,0.8
			c-0.1-0.1-0.1-0.2-0.2-0.3c0.3,0,0.8-0.3,1.5-1c1.5-1.5,0.3-4.6,0.3-4.6s-0.6,0.3-1.5,1.2c-0.3,0.3-0.5,0.6-0.7,1
			c-0.1-0.2-0.2-0.3-0.3-0.5c0-0.1,0-0.1,0.1-0.2c0.3-0.1,0.8-0.3,1.4-1c1.5-1.5,0.3-4.6,0.3-4.6s-0.6,0.3-1.5,1.2
			c-0.1,0.1-0.2,0.3-0.3,0.4c-0.1-0.3-0.2-0.5-0.3-0.8c0,0,0,0,0-0.1c0.3-0.2,0.5-0.4,0.9-0.7c1.5-1.5,0.3-4.6,0.3-4.6
			s-0.3,0.2-0.9,0.6c0.6-1.6-0.2-3.8-0.2-3.8s-0.4,0.2-1.2,0.9c-0.6-1.3-1.8-2.3-1.8-2.3s-0.3,0.6-0.7,1.9c-0.1,0.3-0.1,0.6-0.1,0.8
			c-0.7-0.1-1.2-0.1-1.2-0.1s0,0.7,0.4,2c0.3,0.9,0.9,1.4,1.5,1.8c0,0.2,0,0.4,0,0.6c-1-0.3-1.9-0.3-1.9-0.3s0,0.7,0.4,2
			c0.4,1.1,1.3,1.8,2.1,2.1c0,0.1,0.1,0.1,0.1,0.2c0,0.2,0,0.5,0.1,0.7c-1.1-0.6-2.5-0.6-2.5-0.6s0,0.7,0.4,2c0.5,1.4,1.8,2,2.7,2.3
			c0,0.2-0.1,0.3-0.1,0.5c-1.2-0.9-3-0.9-3-0.9s0,0.7,0.4,2c0,0.1,0.1,0.1,0.1,0.2c-0.4,0-0.7,0.1-0.7,0.1s0.1,0.7,0.7,1.9
			c0.5,1,1.4,1.4,2.2,1.6c-1.1-0.2-2.2,0-2.2,0s0.1,0.7,0.7,1.9c0.9,1.8,3.1,1.8,3.6,1.8c0.1,3.2,0,7.2-0.1,13
			c-0.1-0.1-0.1-0.2-0.2-0.2c-1.6-1.5-3.6-1.2-5.5-0.1c-1.8,1-3.1,4.5-2.6,5c0.5,0.4,1.6-1.5,4.1-2.4c2-0.7,3.5,0.5,4.1,1
			c0.1,0.9-0.1,4.9-0.2,6.5c-0.7,0.4-2.3,1.3-3.2,1c0,0-3.7-2.7-8.6-0.2c-4.8,2.5-7,5.7-8.9,6.1c-1.8,0.4,0.9,1.3,3.9,2.8
			c3,1.5,5.7,1.4,9.5-0.4c3.9-1.8,4.3-4.1,4.9-5.3c0.5-1.1,1.6-1.9,2.3-2.4c-0.4,7.4-1.1,12.4-0.8,15.4c0,0.3,1,0.6,1.2,0.3
			c0.2-0.4,0.8-4.2,1-8.8c0.6-0.4,2.5-1.4,3.3-0.7c0,0,6,5.6,11.3,5.1c5.3-0.5,9-3.4,10.9-3.1C142.3,244.6,137.2,241.4,134.8,238.9z
			 M113,208.3c0,0.1,0.1,0.2,0.1,0.3c-0.3-0.2-0.7-0.4-1-0.4C112.5,208.2,112.8,208.3,113,208.3z"/>
		<path class="st5" d="M112.4,190.3c-0.1-0.2-1-0.9-1-1.2c0-0.3-0.2-0.6-0.4-0.6c-0.3,0-0.5,0.2-0.6,0.4c-0.1,0.5-1.1,1.3-1.3,1.6
			c-0.3,0.5-0.3,1-0.1,1.2c0.1,0.1,0.3,0,0.4-0.1c0.2,0.7,0.6,1,0.8,1c0.4,0,0.3-0.3,0.6-0.3c0.3,0,0.2,0.2,0.5,0.3
			c0.4,0.1,0.7-0.5,0.9-1.3c0.2,0.1,0.4,0.1,0.5,0C112.9,191.2,112.8,190.7,112.4,190.3z"/>
		<path class="st6" d="M110.8,190.2c0-0.1,0-0.2-0.1-0.3c-0.1,0-0.2,0-0.2,0.1c0,0-0.4,0.9-0.4,0.9c0,0.1,0,0.3,0.1,0.3
			c0.1,0,0.2-0.1,0.2-0.2C110.5,191.1,110.8,190.2,110.8,190.2z"/>
		<path class="st6" d="M111,190.3c0-0.1,0-0.2,0.1-0.2c0.1,0,0.2,0.1,0.2,0.2c0,0,0.3,0.9,0.3,1c0,0.2-0.1,0.3-0.2,0.3
			c-0.1,0-0.2-0.1-0.2-0.3C111.2,191.1,111,190.3,111,190.3z"/>
		<path class="st5" d="M118.7,207.7c-0.2-0.1-1.2-0.4-1.3-0.7c-0.1-0.3-0.3-0.4-0.6-0.4c-0.3,0.1-0.4,0.4-0.4,0.7
			c0.1,0.5-0.6,1.7-0.6,2c-0.1,0.6,0.1,1.1,0.4,1.1c0.1,0,0.3-0.1,0.4-0.2c0.4,0.5,1,0.7,1.1,0.6c0.3-0.1,0.2-0.4,0.4-0.5
			c0.3-0.1,0.3,0.1,0.6,0.1c0.4,0,0.5-0.8,0.3-1.6c0.2,0,0.4-0.1,0.4-0.2C119.5,208.4,119.2,207.9,118.7,207.7z"/>
		<path class="st6" d="M117.2,208.4c0-0.1-0.1-0.2-0.1-0.2c-0.1,0-0.1,0.1-0.1,0.2c0,0-0.1,1,0,1c0,0.1,0.1,0.2,0.2,0.2
			s0.2-0.2,0.1-0.3C117.2,209.3,117.2,208.4,117.2,208.4z"/>
		<path class="st6" d="M117.4,208.3c-0.1-0.1-0.1-0.2,0-0.3c0.1,0,0.2,0,0.2,0.1c0,0,0.6,0.8,0.6,0.8c0.1,0.1,0,0.3-0.1,0.3
			c-0.1,0-0.2,0-0.3-0.2C117.9,209.1,117.4,208.3,117.4,208.3z"/>
		<path class="st5" d="M113.3,202.5c-0.1-0.2-0.8-1-0.8-1.4c0-0.3-0.1-0.6-0.3-0.7c-0.3-0.1-0.5,0.1-0.6,0.3
			c-0.2,0.4-1.3,1.1-1.5,1.3c-0.4,0.4-0.5,0.9-0.3,1.1c0.1,0.1,0.3,0.1,0.4,0c0.1,0.7,0.5,1.1,0.6,1.2c0.4,0.1,0.3-0.2,0.6-0.1
			s0.2,0.3,0.4,0.4c0.3,0.2,0.8-0.4,1.1-1.1c0.2,0.1,0.3,0.2,0.5,0.1C113.6,203.5,113.6,203,113.3,202.5z"/>
		<path class="st6" d="M111.7,202.1c0.1-0.1,0.1-0.2,0-0.3c-0.1,0-0.2,0-0.2,0.1c0,0-0.5,0.8-0.6,0.8c-0.1,0.1,0,0.3,0.1,0.3
			s0.2,0,0.3-0.2C111.3,202.9,111.7,202.1,111.7,202.1z"/>
		<path class="st6" d="M111.9,202.2c0-0.1,0.1-0.2,0.1-0.2c0.1,0,0.1,0.1,0.1,0.2c0,0,0.1,1,0.1,1c0,0.1-0.1,0.3-0.2,0.2
			c-0.1,0-0.2-0.2-0.1-0.3C111.9,203.1,111.9,202.2,111.9,202.2z"/>
		<path class="st5" d="M114.9,192.1c-0.2-0.1-1.2-0.5-1.3-0.8c-0.1-0.3-0.3-0.5-0.6-0.4c-0.3,0.1-0.4,0.3-0.4,0.6
			c0.1,0.5-0.7,1.7-0.7,1.9c-0.1,0.6,0,1.1,0.3,1.1c0.1,0,0.3-0.1,0.4-0.2c0.4,0.5,0.9,0.7,1,0.7c0.4-0.1,0.2-0.4,0.4-0.5
			c0.3-0.1,0.3,0.1,0.6,0.1c0.4,0,0.5-0.8,0.4-1.5c0.2,0,0.4,0,0.4-0.2C115.7,192.8,115.4,192.4,114.9,192.1z"/>
		<path class="st6" d="M113.4,192.7c0-0.1-0.1-0.2-0.1-0.2c-0.1,0-0.1,0.1-0.1,0.2c0,0-0.1,1-0.1,1c0,0.1,0.1,0.3,0.2,0.2
			c0.1,0,0.2-0.1,0.1-0.3C113.3,193.6,113.4,192.7,113.4,192.7z"/>
		<path class="st6" d="M113.6,192.6c-0.1-0.1-0.1-0.2,0-0.3c0.1,0,0.2,0,0.2,0.1c0,0,0.5,0.8,0.5,0.8c0,0.1,0,0.3-0.1,0.3
			c-0.1,0-0.2,0-0.3-0.2C114,193.4,113.6,192.6,113.6,192.6z"/>
		<path class="st5" d="M116.7,202.8c-0.2-0.1-1.2-0.5-1.3-0.8c-0.1-0.3-0.3-0.5-0.6-0.4c-0.3,0.1-0.4,0.3-0.4,0.6
			c0.1,0.5-0.7,1.7-0.7,1.9c-0.1,0.6,0,1.1,0.3,1.1c0.1,0,0.3-0.1,0.4-0.2c0.4,0.5,0.9,0.7,1,0.7c0.4-0.1,0.2-0.4,0.4-0.5
			c0.3-0.1,0.3,0.1,0.6,0.1c0.4,0,0.5-0.8,0.4-1.5c0.2,0,0.4,0,0.4-0.2C117.4,203.5,117.1,203.1,116.7,202.8z"/>
		<path class="st6" d="M115.1,203.4c0-0.1-0.1-0.2-0.1-0.2c-0.1,0-0.1,0.1-0.1,0.2c0,0-0.1,1-0.1,1c0,0.1,0.1,0.3,0.2,0.2
			c0.1,0,0.2-0.1,0.1-0.3C115.1,204.3,115.1,203.4,115.1,203.4z"/>
		<path class="st6" d="M115.3,203.3c-0.1-0.1-0.1-0.2,0-0.3c0.1,0,0.2,0,0.2,0.1c0,0,0.5,0.8,0.5,0.8c0,0.1,0,0.3-0.1,0.3
			c-0.1,0-0.2,0-0.3-0.2C115.7,204.1,115.3,203.3,115.3,203.3z"/>
		<path class="st5" d="M114,209.9c-0.1-0.2-0.8-1-0.8-1.4c0-0.3-0.1-0.6-0.3-0.7c-0.3-0.1-0.5,0.1-0.6,0.3c-0.2,0.4-1.3,1.1-1.5,1.3
			c-0.4,0.4-0.5,1-0.3,1.2c0.1,0.1,0.3,0.1,0.4,0c0.1,0.7,0.5,1.1,0.6,1.2c0.4,0.1,0.3-0.2,0.6-0.1c0.3,0.1,0.2,0.3,0.4,0.4
			c0.3,0.2,0.8-0.4,1.1-1.1c0.2,0.1,0.3,0.2,0.5,0.1C114.3,211,114.3,210.4,114,209.9z"/>
		<path class="st6" d="M112.4,209.6c0.1-0.1,0.1-0.2,0-0.3c-0.1,0-0.2,0-0.2,0.1c0,0-0.5,0.8-0.6,0.8c-0.1,0.1,0,0.3,0.1,0.3
			c0.1,0,0.2,0,0.3-0.2C112,210.4,112.4,209.6,112.4,209.6z"/>
		<path class="st6" d="M112.6,209.7c0-0.1,0.1-0.2,0.1-0.2s0.1,0.1,0.1,0.2c0,0,0.1,1,0.1,1c0,0.1-0.1,0.3-0.2,0.2
			c-0.1,0-0.2-0.2-0.1-0.3C112.6,210.6,112.6,209.7,112.6,209.7z"/>
	</g>
	<g>
		<path class="st7" d="M137.4,189.1c0.1-0.1,1.3,0.2,1.5,0.5c1.1,1.5,2.2,5.6,5.3,5.6c0,0-1.1-1.7-0.4-1.3c0.7,0.4,2.7,1.8,3.2,1.6
			c0,0-1.4-1.6-0.3-1.1s3.2,1.7,4.4,1.2c0,0-1.1-1-0.5-0.9s2.5,0.5,3.4,0.6c0.7,0,2.6,1.2,2.9,0.6c0,0-0.8,0-1.4-0.7
			c-0.6-0.7-2.3-4.8-3.1-4.9c0,0,0.7-0.2,1.1,0c0.4,0.1-1.5-1.3-2.2-1.2c2.5,0.2-1.6-0.9-2.1-0.8c-0.4,0,1.1-0.1,0.8-0.3
			c-1.8-1.3-6.5-0.6-5.8-0.8s1.4-1,1-0.8c-0.3,0.1-1.8,0.4-2.5,0.7C141.7,187.4,137.4,189.1,137.4,189.1z"/>
		<path class="st7" d="M139.6,185.7c-0.2,0-1.2,0.9-1.2,1.4c-0.3,2.2,0.8,7-2.3,8.9c0,0,0.2-2.4-0.3-1.5c-0.4,0.8-1.7,3.5-2.4,3.6
			c0,0,0.5-2.4-0.3-1.3c-0.8,1.1-2.3,3.7-3.7,4c0,0,0.6-1.7,0.1-1.2c-0.5,0.6-2.1,2.1-3.1,2.7c-0.6,0.5-1.9,2.8-2.6,2.4
			c0,0,0.8-0.5,1-1.6c0.2-1.1-0.3-6.2,0.4-6.8c0,0-0.8,0.3-1.1,0.6s0.7-2.2,1.6-2.6c0,0-1.1,0.8-0.8,0.3c0.2-0.3,1.9-2.2,2.4-2.5
			c0.4-0.2-1.1,0.6-0.9,0.2c1.1-2.4,6.1-4.6,5.4-4.4s-1.9-0.1-1.5-0.2c0.4-0.1,2-0.7,2.8-0.9C134.4,186.6,139.6,185.7,139.6,185.7z"
			/>
		<path class="st7" d="M137.8,173.1c0.2-0.1,1.4,0.3,1.7,0.7c1.1,1.9,1.9,6.7,5.5,7.1c0,0-1.1-2.1-0.4-1.5c0.7,0.6,2.8,2.4,3.5,2.3
			c0,0-1.4-2-0.3-1.3c1.1,0.7,3.5,2.4,4.9,2c0,0-1.2-1.3-0.5-1.1c0.7,0.3,2.8,0.9,3.8,1.1c0.8,0.1,2.8,1.7,3.3,1c0,0-1-0.1-1.6-1
			c-0.6-0.9-2.1-5.8-3-6c0,0,0.8-0.1,1.2,0.1c0.4,0.2-1.5-1.7-2.4-1.7c0,0,1.3,0.3,0.9-0.1c-0.3-0.2-2.6-1.2-3.2-1.2
			c-0.5,0,1.2,0,0.9-0.2c-1.9-1.7-7.4-1.5-6.6-1.7c0.8-0.2,1.7-0.9,1.3-0.8c-0.4,0.1-2.1,0.2-2.9,0.5
			C142.9,171.6,137.8,173.1,137.8,173.1z"/>
		<path class="st7" d="M137.8,173.1c0.2-0.1,1.4,0.3,1.7,0.7c1.1,1.9,1.9,6.7,5.5,7.1c0,0-1.1-2.1-0.4-1.5c0.7,0.6,2.8,2.4,3.5,2.3
			c0,0-1.4-2-0.3-1.3c1.1,0.7,3.5,2.4,4.9,2c0,0-1.2-1.3-0.5-1.1c0.7,0.3,2.8,0.9,3.8,1.1c0.8,0.1,2.8,1.7,3.3,1c0,0-1-0.1-1.6-1
			c-0.6-0.9-2.1-5.8-3-6c0,0,0.8-0.1,1.2,0.1c0.4,0.2-1.5-1.7-2.4-1.7c0,0,1.3,0.3,0.9-0.1c-0.3-0.2-2.6-1.2-3.2-1.2
			c-0.5,0,1.2,0,0.9-0.2c-1.9-1.7-7.4-1.5-6.6-1.7c0.8-0.2,1.7-0.9,1.3-0.8c-0.4,0.1-2.1,0.2-2.9,0.5
			C142.9,171.6,137.8,173.1,137.8,173.1z"/>
		<path class="st7" d="M138.9,173.8c-0.2-0.1-1.6,0-2,0.4c-1.7,1.8-3.9,7-7.8,6.5c0,0,1.7-2,0.8-1.6c-0.9,0.4-3.7,2-4.4,1.6
			c0,0,2-1.9,0.6-1.4c-1.4,0.5-4.4,1.7-5.7,0.9c0,0,1.6-1.2,0.8-1c-0.8,0.1-3.2,0.3-4.4,0.3c-0.8,0-3.5,1.2-3.8,0.3
			c0,0,1,0.1,1.9-0.7c0.9-0.9,3.8-5.9,4.9-6c0,0-0.8-0.3-1.3-0.2c-0.5,0.1,2.1-1.5,3-1.2c0,0-1.4,0-0.9-0.3c0.4-0.2,3.1-0.6,3.7-0.5
			c0.5,0.1-1.3-0.3-0.9-0.5c2.5-1.4,8.2,0.2,7.4-0.2s-1.5-1.5-1.1-1.3c0.4,0.2,2.1,0.8,3,1.3C133.9,170.8,138.9,173.8,138.9,173.8z"
			/>
		<path class="st7" d="M138.1,173c0,0-1,73.6-1.8,77.6c-0.8,4,3.4,2,3.3,0.8c-0.6-15.6-0.1-78.4-0.1-78.4L138.1,173z"/>
		<path class="st8" d="M140.1,134c0.6-0.3,0.9-1.1,0.6-1.8c-0.2-0.4-0.5-0.7-0.9-0.8c0.1-0.2,0.1-0.4,0.1-0.6c0-0.8-0.6-1.4-1.3-1.4
			c-0.3,0-0.6,0.1-0.8,0.3c0-0.1-0.1-0.1-0.1-0.2c0.5-0.2,0.8-0.7,0.8-1.3c0-0.8-0.6-1.4-1.3-1.4c-0.7,0-1.3,0.6-1.3,1.4
			c0,0.4,0.2,0.7,0.4,1c0,0,0,0,0,0c-0.4,0.2-0.7,0.6-0.7,1.1c-0.7,0-1.2,0.6-1.2,1.4c0,0.5,0.2,0.9,0.6,1.2
			c-0.6,0.3-0.9,1.1-0.6,1.8c0,0.1,0.1,0.1,0.1,0.2c-0.6,0.3-0.9,1.1-0.6,1.8c0.1,0.2,0.2,0.3,0.3,0.5c-0.4,0.4-0.5,1-0.3,1.6
			c0,0.1,0.1,0.1,0.1,0.2c-0.2,0-0.5,0-0.7,0.1c-0.6,0.3-0.9,1.1-0.6,1.8s1,1,1.7,0.7c0.1,0,0.2-0.1,0.3-0.2c0,0,0,0.1,0,0.1
			c-0.1,0-0.2,0-0.3,0.1c-0.6,0.3-0.9,1.1-0.6,1.8c0.3,0.7,1,1,1.7,0.7c0,0,0,0,0.1,0c-0.3,0.3-0.4,0.7-0.3,1.2
			c-0.2,0-0.5,0-0.7,0.1c-0.5,0.2-0.8,0.7-0.8,1.2c-0.6,0.3-0.9,1.1-0.6,1.8c0.1,0.2,0.2,0.4,0.3,0.5c-0.1,0-0.2,0-0.2,0.1
			c-0.6,0.3-0.9,1.1-0.6,1.8c0.1,0.2,0.2,0.3,0.3,0.5c-0.2,0-0.4,0-0.6,0.1c-0.6,0.3-0.9,1.1-0.6,1.8c0.3,0.7,1,1,1.7,0.7
			c0.3-0.1,0.5-0.4,0.6-0.6c0.3,0.3,0.7,0.5,1.1,0.4c-0.1,0.2-0.2,0.4-0.2,0.6c-0.4-0.5-1-0.7-1.5-0.4c-0.5,0.2-0.7,0.7-0.8,1.2
			c-0.1,0.3-0.1,0.7,0,1c0.1,0.2,0.3,0.4,0.4,0.6c0.1,0.3,0.3,0.5,0.6,0.6c-0.2,0.3-0.3,0.8-0.2,1.2c-0.3-0.2-0.7-0.2-1,0
			c-0.5,0.3-0.8,0.9-0.7,1.5c-0.2,0-0.5,0-0.7,0.1c-0.6,0.3-0.9,1.1-0.6,1.8c0.3,0.7,1,1,1.7,0.7c0.1,0,0.2-0.1,0.3-0.2
			c0,0,0,0.1,0,0.1c-0.1,0-0.2,0-0.3,0.1c-0.5,0.2-0.7,0.7-0.8,1.2c0,0,0,0,0,0c-0.1,0-0.2,0-0.3,0c-0.4-0.3-0.8-0.3-1.3-0.1
			c-0.6,0.3-0.9,1.1-0.6,1.8c0.2,0.4,0.5,0.7,0.8,0.8c0.1,0.3,0.4,0.5,0.6,0.6c0.1,0.2,0.3,0.3,0.5,0.4c-0.3,0.4-0.3,0.9-0.1,1.3
			c0.1,0.3,0.4,0.6,0.7,0.7c0.3,0.5,1,0.8,1.6,0.5c0.4-0.2,0.7-0.7,0.7-1.2c0.3,0.1,0.5,0,0.8-0.1c0.2-0.1,0.4-0.3,0.5-0.5
			c0,0,0,0,0,0c0.1,0.1,0.1,0.3,0.2,0.4c-0.2,0-0.5,0-0.7,0.1c-0.6,0.3-0.9,1.1-0.6,1.8c0,0,0,0,0,0c-0.1,0-0.2,0-0.3,0.1
			c-0.3,0.1-0.5,0.3-0.6,0.6c-0.3-0.1-0.6-0.1-0.9,0.1c-0.6,0.3-0.9,1.1-0.6,1.8c0.1,0.3,0.4,0.6,0.7,0.7c-0.2,0.4-0.2,0.8,0,1.1
			c0.3,0.7,1,1,1.7,0.7c0.2-0.1,0.4-0.3,0.5-0.5c0.3,0.1,0.7,0.2,1,0c0.4-0.2,0.6-0.5,0.7-0.9c0.1,0,0.2,0,0.3-0.1
			c0.3-0.2,0.6-0.4,0.7-0.8c0.1-0.2,0.2-0.4,0.3-0.6c0,0.2,0,0.5,0.1,0.7c0.3,0.7,1,1,1.6,0.7c0,0.1,0,0.3,0.1,0.4
			c0.3,0.7,1,1,1.7,0.7c0.6-0.3,0.9-1,0.7-1.6c0.4-0.4,0.6-1,0.3-1.6c-0.3-0.7-1-1-1.7-0.7c-0.3,0.1-0.5,0.4-0.6,0.6
			c-0.4-0.4-1-0.6-1.5-0.3c-0.4,0.2-0.6,0.5-0.7,0.9c0-0.2,0-0.5-0.1-0.7c-0.3-0.7-1-1-1.7-0.7c-0.1,0-0.2,0.1-0.2,0.1c0,0,0,0,0,0
			c0,0,0,0,0,0c0.1,0,0.2,0,0.3-0.1c0.6-0.3,0.9-1.1,0.6-1.8c-0.1-0.1-0.1-0.3-0.2-0.4c0,0,0.1,0,0.1,0c0,0.1,0,0.2,0.1,0.3
			c0.3,0.7,1,1,1.7,0.7c0.1,0,0.2-0.1,0.3-0.2c0.1,0.1,0.1,0.2,0.2,0.3c0,0.2,0,0.4,0.1,0.5c0.3,0.7,1,1,1.7,0.7
			c0.5-0.2,0.7-0.7,0.8-1.2c0.1,0,0.2,0,0.4,0c0.4,0.2,0.8,0.3,1.2,0.1c0.5-0.2,0.7-0.7,0.8-1.2c0.2,0,0.5,0,0.8-0.1
			c0.6-0.3,0.9-1.1,0.6-1.8c0-0.1-0.1-0.1-0.1-0.2c0.1,0,0.2,0,0.3-0.1c0.6-0.3,0.9-1.1,0.6-1.8c-0.1-0.3-0.3-0.5-0.6-0.6
			c0.2-0.3,0.3-0.8,0.2-1.2c0,0,0,0,0.1,0c0.1,0.2,0.3,0.3,0.5,0.4c-0.3,0.4-0.3,0.9-0.1,1.3c0.1,0.3,0.4,0.6,0.7,0.7
			c0.3,0.5,1,0.8,1.6,0.5c0.6-0.3,0.9-1.1,0.6-1.8c-0.1-0.3-0.4-0.6-0.7-0.7c-0.1-0.2-0.3-0.3-0.5-0.4c0.3-0.4,0.3-0.9,0.1-1.3
			c0-0.1-0.1-0.1-0.1-0.2c0.1,0,0.2,0,0.3-0.1c0.6-0.3,0.9-1.1,0.6-1.8c-0.3-0.7-1-1-1.7-0.7c-0.1,0-0.2,0.1-0.3,0.2
			c-0.1-0.1-0.1-0.2-0.2-0.3c0-0.2,0-0.4-0.1-0.5c-0.3-0.7-1-1-1.7-0.7c-0.5,0.2-0.7,0.7-0.8,1.2c-0.2,0-0.5,0-0.8,0.1
			c-0.6,0.3-0.9,1.1-0.6,1.8c0.3,0.7,1,1,1.7,0.7c0.3-0.1,0.5-0.3,0.6-0.6c0.1,0,0.1,0.1,0.2,0.1c-0.2,0.3-0.3,0.8-0.2,1.2
			c-0.3-0.2-0.7-0.2-1,0c-0.3,0.1-0.5,0.3-0.6,0.6c-0.4-0.3-0.8-0.4-1.3-0.2c-0.1,0-0.2,0.1-0.3,0.2c0,0,0-0.1,0-0.1
			c0.1,0,0.2,0,0.3-0.1c0.6-0.3,0.9-1.1,0.6-1.8c-0.2-0.5-0.6-0.8-1-0.8c0-0.1,0-0.3-0.1-0.4c0.2-0.4,0.3-0.8,0.1-1.2
			c0.3,0.1,0.7,0.2,1,0c0.4-0.2,0.7-0.6,0.7-1c0.4,0.4,0.9,0.5,1.4,0.3c0.3-0.1,0.5-0.4,0.6-0.6c0.4,0.4,1,0.6,1.5,0.3
			c0.6-0.3,0.9-1.1,0.6-1.8c-0.3-0.7-1-1-1.7-0.7c-0.3,0.1-0.5,0.4-0.6,0.6c-0.2-0.3-0.5-0.4-0.9-0.4c0.1-0.3,0.1-0.6-0.1-0.9
			c-0.3-0.7-1-1-1.7-0.7c-0.2,0.1-0.4,0.2-0.5,0.4c-0.1-0.1-0.2-0.2-0.3-0.3c0.2,0,0.5,0,0.8-0.1c0.6-0.3,0.9-1.1,0.6-1.8
			c-0.3-0.7-1-1-1.7-0.7c-0.1,0-0.1,0.1-0.2,0.1c0,0,0,0,0,0c0.1,0,0.1,0,0.2-0.1c0.3-0.2,0.6-0.4,0.7-0.8c0-0.1,0.1-0.1,0.1-0.2
			c0.3,0.1,0.7,0.2,1,0c0.6-0.3,0.9-1.1,0.7-1.8c0,0,0.1,0,0.1,0c0.6-0.3,0.9-1.1,0.6-1.8c-0.2-0.5-0.6-0.8-1.1-0.8
			c0-0.2,0-0.3-0.1-0.5c-0.2-0.4-0.5-0.7-0.9-0.8c0.2-0.4,0.2-0.8,0-1.1c-0.3-0.7-1-1-1.7-0.7c-0.1,0-0.1,0.1-0.2,0.1
			c0.1-0.1,0.2-0.3,0.3-0.5c0.2-0.1,0.3-0.3,0.4-0.6c0.3-0.7-0.1-1.5-0.7-1.8c0,0-0.1,0-0.1,0c0.1-0.1,0.2-0.2,0.2-0.3
			c0.1,0.1,0.2,0.1,0.3,0.2c0.7,0.3,1.4-0.1,1.7-0.8c0.3-0.7-0.1-1.5-0.7-1.8c-0.5-0.2-1.1,0-1.5,0.5c-0.1-0.1-0.1-0.1-0.2-0.1
			c0.2-0.2,0.4-0.4,0.5-0.7c0.2-0.6,0-1.2-0.4-1.6c0,0,0,0,0,0c-0.3-0.7-1-1-1.7-0.7c-0.3,0.1-0.5,0.4-0.6,0.6
			c-0.3-0.3-0.6-0.5-1-0.5c0.1-0.3,0-0.6-0.1-0.9c-0.1-0.3-0.3-0.5-0.5-0.6c0.2-0.1,0.3-0.2,0.5-0.4c-0.1,0.3-0.1,0.7,0,1
			c0.3,0.7,1,1,1.7,0.7c0.2-0.1,0.4-0.3,0.5-0.4C139.3,134.2,139.8,134.2,140.1,134z M136.3,146.4c0.1,0,0.2,0,0.2,0
			c-0.1,0.3,0,0.6,0.1,0.9c0.3,0.7,1,1,1.7,0.7c0.2-0.1,0.4-0.3,0.5-0.5c0,0.1,0.1,0.2,0.1,0.4c-0.2,0-0.4,0-0.6,0.1
			c-0.6,0.3-0.9,1.1-0.6,1.8c0,0,0,0,0,0c0,0,0,0,0,0c0,0,0,0,0,0c-0.1-0.2-0.2-0.3-0.3-0.4c0-0.2,0-0.5-0.1-0.7
			c-0.3-0.7-1-1-1.7-0.7c0,0,0,0,0,0C136.1,147.6,136.4,147,136.3,146.4z M137.2,143.8c0.1,0,0.2-0.1,0.3-0.2c0,0,0,0.1,0.1,0.1
			c0,0.2,0,0.5,0.1,0.7c0.2,0.6,0.8,0.9,1.4,0.8c0,0,0,0.1,0.1,0.1c-0.1,0.1-0.3,0.3-0.3,0.4c-0.3-0.3-0.6-0.5-1-0.5
			c0.1-0.3,0-0.6-0.1-0.9C137.5,144.2,137.3,144,137.2,143.8C137.1,143.8,137.1,143.8,137.2,143.8z M138.5,137.2
			C138.5,137.2,138.5,137.1,138.5,137.2C138.5,137.2,138.5,137.2,138.5,137.2C138.5,137.2,138.5,137.2,138.5,137.2z M138.9,137.4
			C138.9,137.4,138.9,137.4,138.9,137.4C138.9,137.4,138.9,137.4,138.9,137.4C138.9,137.4,138.9,137.4,138.9,137.4z M136.4,138.3
			c0.1,0.1,0.2,0.1,0.3,0.1c0,0,0,0.1,0,0.1c-0.2,0.2-0.3,0.5-0.3,0.8c0,0,0,0,0,0.1c0,0,0,0,0,0.1c-0.2-0.1-0.4-0.2-0.5-0.2
			C136.2,139.2,136.4,138.8,136.4,138.3z M135,139.7C135,139.7,134.9,139.7,135,139.7C135,139.6,135,139.6,135,139.7
			C135,139.7,135,139.7,135,139.7z M134.5,165.4c-0.3-0.3-0.6-0.5-1-0.5c0.1-0.2,0.2-0.5,0.2-0.7c0-0.1,0-0.2,0.1-0.3
			c0.4,0.5,1,0.7,1.5,0.4c0.2-0.1,0.3-0.2,0.4-0.4c0.1,0.1,0.2,0.2,0.3,0.3c-0.2,0-0.5,0-0.7,0.1
			C134.8,164.5,134.6,164.9,134.5,165.4z M136.6,158.8c-0.1,0.1-0.2,0.2-0.2,0.3c0,0,0-0.1,0-0.1c0-0.1,0-0.2,0.1-0.3
			C136.5,158.7,136.6,158.8,136.6,158.8z M137.3,154.2C137.3,154.2,137.3,154.2,137.3,154.2C137.3,154.2,137.3,154.2,137.3,154.2
			C137.3,154.2,137.3,154.2,137.3,154.2z M137.1,165.6c0.1,0.1,0.1,0.1,0.2,0.2c-0.1,0.2-0.2,0.4-0.2,0.6c-0.1,0-0.1-0.1-0.2-0.1
			C137,166.1,137.1,165.9,137.1,165.6z M140,167.9c0.1-0.1,0.1-0.2,0.2-0.4c0.1,0.1,0.1,0.2,0.2,0.2c-0.1,0.1-0.1,0.2-0.2,0.3
			C140.1,167.9,140,167.9,140,167.9z M139.4,165.8C139.4,165.8,139.4,165.8,139.4,165.8c-0.2-0.2-0.3-0.4-0.5-0.5
			c0.3-0.4,0.3-0.9,0.1-1.3c-0.1-0.1-0.1-0.2-0.2-0.3c0,0,0.1,0,0.1,0c0,0.1,0,0.2,0.1,0.3c0.1,0.3,0.3,0.5,0.6,0.6
			C139.4,165,139.3,165.4,139.4,165.8z M135.2,150.1c0,0.1,0,0.3,0,0.4c-0.1,0-0.2,0-0.2,0c0.1-0.3,0-0.6-0.1-0.9
			c-0.1-0.2-0.2-0.4-0.3-0.5c0.1,0,0.2,0,0.2-0.1c0,0.2,0,0.4,0.1,0.6C135,149.9,135.1,150,135.2,150.1z M133.6,151.6
			c0.1,0,0.1,0,0.2,0c0,0,0,0.1-0.1,0.1C133.7,151.7,133.6,151.6,133.6,151.6z M136.1,152.7C136.1,152.7,136.1,152.7,136.1,152.7
			c0,0.1,0,0.2,0,0.3c0,0-0.1,0-0.1,0C136,152.9,136,152.8,136.1,152.7z M142.3,167.5C142.3,167.5,142.2,167.5,142.3,167.5
			c-0.1-0.1,0-0.1,0-0.2C142.3,167.4,142.3,167.5,142.3,167.5z M139.4,154.5c-0.3-0.4-0.8-0.6-1.3-0.5c0,0-0.1,0-0.1,0c0,0,0,0,0,0
			c0.4,0,0.8-0.3,1.1-0.6c0.3,0.2,0.7,0.2,1,0c0.2-0.1,0.4-0.2,0.5-0.4c0.1,0.1,0.2,0.2,0.3,0.3c-0.2,0-0.5,0-0.8,0.1
			C139.7,153.6,139.4,154,139.4,154.5z M139.3,150.4C139.3,150.4,139.3,150.5,139.3,150.4C139.2,150.5,139.2,150.5,139.3,150.4
			C139.3,150.4,139.3,150.4,139.3,150.4c0.1,0,0.1-0.1,0.2-0.1c0,0,0,0,0,0C139.4,150.4,139.4,150.4,139.3,150.4z M135.9,143.7
			C136,143.7,136,143.7,135.9,143.7C136,143.7,135.9,143.8,135.9,143.7C135.9,143.8,135.9,143.8,135.9,143.7
			C135.9,143.8,135.9,143.7,135.9,143.7z M142.5,166.9c0-0.2,0-0.3,0-0.5c0.2,0,0.4,0,0.6-0.1c0.1,0,0.2-0.1,0.3-0.2
			c0,0,0,0.1,0,0.1c-0.1,0-0.2,0-0.3,0.1C142.8,166.4,142.6,166.6,142.5,166.9z M140.9,156C140.9,156,140.9,156,140.9,156
			c0.1-0.1,0.2-0.1,0.3-0.2c0.2-0.1,0.4-0.2,0.5-0.4c0.1,0.1,0.2,0.2,0.3,0.3c-0.2,0-0.5,0-0.8,0.1C141.1,155.9,141,156,140.9,156z
			 M142.5,156c0,0,0.1,0,0.1,0c0,0,0,0.1,0,0.1C142.6,156.1,142.5,156.1,142.5,156z M141.3,148c-0.1,0-0.1-0.1-0.2-0.1
			c0.1-0.2,0.2-0.5,0.2-0.7c0-0.2,0-0.3-0.1-0.5c0.2,0.2,0.4,0.2,0.7,0.3c0,0.1,0,0.3,0.1,0.4c0,0-0.1,0-0.1,0
			C141.7,147.6,141.5,147.8,141.3,148z M140.1,142.8C140.1,142.8,140.1,142.8,140.1,142.8c0-0.1,0.1-0.1,0.1-0.1
			C140.2,142.8,140.2,142.8,140.1,142.8z M136.9,132.3c0-0.1,0.1-0.2,0.1-0.3c0.1,0,0.3,0,0.4-0.1c0.1-0.1,0.2-0.1,0.3-0.2
			c0,0,0.1,0.1,0.1,0.1c-0.1,0-0.3,0-0.4,0.1C137.2,132,137,132.1,136.9,132.3z"/>
		<path class="st9" d="M139,127.5c-0.6,0-1.1,0.5-1.3,1.1c-0.1,0-0.2,0-0.3,0c-0.7,0-1.3,0.6-1.3,1.4c0,0,0,0.1,0,0.1
			c-0.7,0-1.3,0.6-1.3,1.4c0,0.8,0.6,1.4,1.3,1.4c0,0,0,0,0,0c0.1,0.2,0.2,0.3,0.4,0.5c-0.4,0.2-0.6,0.7-0.6,1.2
			c0,0.5,0.2,0.9,0.5,1.1c0,0.1,0,0.2,0,0.3c0,0.3,0.1,0.6,0.3,0.8c-0.1,0.1-0.3,0.1-0.4,0.3c-0.2-0.6-0.6-1-1.2-1
			c-0.7,0-1.3,0.6-1.3,1.4c0,0.8,0.6,1.4,1.3,1.4c0.3,0,0.6-0.1,0.8-0.3c0,0.1,0,0.1,0.1,0.2c-0.2,0.2-0.3,0.6-0.3,0.9
			c0,0.2,0,0.3,0.1,0.4c-0.2,0-0.3,0.1-0.5,0.2c-0.7,0.1-1.2,0.6-1.2,1.4c0,0.8,0.6,1.4,1.3,1.4c0.2,0,0.5-0.1,0.7-0.2
			c-0.2,0.2-0.3,0.5-0.3,0.9c0,0.8,0.6,1.4,1.3,1.4c0,0,0,0,0.1,0c0,0.1-0.1,0.2-0.1,0.4c0,0.2,0,0.4,0.1,0.5
			c-0.2-0.2-0.5-0.3-0.8-0.3c-0.7,0-1.3,0.6-1.3,1.4c0,0.1,0,0.2,0,0.3c0,0-0.1,0-0.1,0c-0.7,0-1.3,0.6-1.3,1.4c0,0.1,0,0.2,0,0.3
			c-0.5,0.3-0.8,0.9-0.7,1.5c-0.1,0-0.2,0-0.3,0c-0.7,0.2-1.1,0.9-1,1.6c0.1,0.5,0.5,0.9,0.9,1c-0.2,0.3-0.3,0.7-0.3,1.1
			c0.1,0.3,0.2,0.5,0.4,0.7c0.1,0.3,0.2,0.5,0.4,0.6c-0.1,0-0.2,0-0.3,0c-0.6,0.1-1,0.7-1,1.3c-0.1,0-0.2,0-0.3,0
			c-0.7,0.2-1.1,0.9-1,1.6c0,0.1,0,0.2,0.1,0.2c-0.1,0.2-0.1,0.4-0.1,0.6c0,0.8,0.6,1.4,1.3,1.4c0.5,0,1-0.3,1.2-0.8
			c0.3,0.4,0.8,0.5,1.2,0.4c0.3-0.1,0.5-0.2,0.7-0.4c0.1,0.1,0.3,0.2,0.4,0.2c-0.2,0.3-0.3,0.7-0.3,1.1c0.1,0.3,0.2,0.5,0.4,0.7
			c0.1,0.3,0.2,0.5,0.4,0.6c-0.1,0-0.2,0-0.3,0c-0.6,0.1-1,0.7-1,1.3c-0.1,0-0.2,0-0.3,0c-0.7,0.2-1.1,0.9-1,1.6
			c0,0.1,0,0.2,0.1,0.2c-0.1,0.1-0.1,0.3-0.1,0.4c-0.1,0-0.3-0.1-0.4-0.1c-0.7,0-1.3,0.6-1.3,1.4c0,0.8,0.6,1.4,1.3,1.4
			c0.7,0,1.2-0.5,1.3-1.2c0.1,0,0.3,0.1,0.4,0.1c0.5,0,1-0.3,1.2-0.8c0.3,0.3,0.6,0.5,1,0.5c-0.4,0.2-0.6,0.7-0.6,1.2
			c0,0.2,0,0.3,0.1,0.4c-0.2,0-0.3,0.1-0.5,0.2c-0.7,0.1-1.2,0.6-1.2,1.4c0,0.5,0.3,1,0.7,1.2c-0.2,0.2-0.4,0.6-0.4,0.9
			c0,0.8,0.6,1.4,1.3,1.4c0.7,0,1.3-0.6,1.3-1.4c0,0,0-0.1,0-0.1c0,0,0.1,0,0.1,0c0.4,0,0.8-0.2,1-0.6c0.1,0.6,0.6,1.1,1.3,1.1
			c0.5,0,1-0.3,1.2-0.8c0.2,0.2,0.5,0.3,0.8,0.3c0.7,0,1.3-0.6,1.3-1.4c0-0.8-0.6-1.4-1.3-1.4c-0.5,0-1,0.3-1.2,0.8
			c-0.2-0.2-0.5-0.3-0.8-0.3c-0.4,0-0.8,0.2-1,0.6c-0.1-0.5-0.5-1-1-1.1c0.5-0.2,0.9-0.7,0.9-1.3c0-0.8-0.6-1.4-1.3-1.4
			c0,0,0,0-0.1,0c0.4-0.3,0.7-0.9,0.6-1.4c-0.1-0.5-0.5-0.9-1-1c0,0,0,0,0,0c0.2,0,0.3,0,0.5,0c0.7-0.2,1.1-0.9,1-1.6c0,0,0,0,0-0.1
			c0.2,0.1,0.4,0.2,0.7,0.2c0.4,0,0.7-0.2,1-0.5c0,0,0.1,0.1,0.1,0.1c-0.2,0.2-0.4,0.6-0.4,0.9c0,0.3,0.1,0.5,0.2,0.7
			c-0.5,0.3-0.8,0.9-0.7,1.5c0,0.2,0.2,0.5,0.3,0.6c0,0.1-0.1,0.3-0.1,0.4c0,0.7,0.5,1.2,1.1,1.3c0,0.7,0.6,1.3,1.3,1.3
			c0.7,0,1.3-0.6,1.3-1.4c0-0.7-0.5-1.2-1.1-1.3c0-0.3-0.1-0.6-0.3-0.9c0.1-0.2,0.1-0.5,0-0.7c0-0.1-0.1-0.3-0.2-0.4
			c0.4-0.2,0.7-0.7,0.7-1.2c0,0,0-0.1,0-0.1c0,0,0.1,0,0.1,0c0.4,0,0.7-0.2,1-0.5c0.2,0.2,0.5,0.3,0.7,0.3c0.7,0,1.3-0.6,1.3-1.4
			c0-0.5-0.2-0.9-0.6-1.1c0.1-0.2,0.2-0.4,0.2-0.7c0-0.8-0.6-1.4-1.3-1.4c-0.1,0-0.1,0-0.2,0c0.1-0.2,0.2-0.5,0.2-0.7
			c0-0.8-0.6-1.4-1.3-1.4c-0.7,0-1.3,0.6-1.3,1.4c0,0,0,0.1,0,0.1c-0.2-0.1-0.4-0.1-0.6-0.1c-0.7,0-1.3,0.6-1.3,1.4
			c0,0.2,0,0.3,0.1,0.5c-0.3-0.4-0.8-0.6-1.3-0.5c0,0-0.1,0-0.1,0c0,0,0-0.1,0-0.1c-0.1-0.4-0.4-0.8-0.7-1c0.2-0.1,0.4-0.3,0.5-0.4
			c0.2,0.1,0.3,0.1,0.5,0.1c0.7,0,1.3-0.6,1.3-1.4c0-0.4-0.2-0.8-0.5-1.1c0.2-0.1,0.3-0.2,0.5-0.3c0.4-0.2,0.8-0.7,0.8-1.3
			c0-0.7-0.5-1.3-1.2-1.4c0-0.1,0-0.2,0-0.3c0-0.8-0.6-1.4-1.3-1.4s-1.3,0.6-1.3,1.4c0,0.2,0,0.3,0.1,0.5c-0.3-0.4-0.8-0.6-1.3-0.5
			c0,0-0.1,0-0.1,0c0,0,0-0.1,0-0.1c-0.1-0.4-0.4-0.8-0.7-1c0.5-0.3,0.9-0.9,0.7-1.5c0.2-0.1,0.3-0.2,0.5-0.4
			c0.2,0.4,0.6,0.6,1.1,0.6c0.7,0,1.3-0.6,1.3-1.4c0-0.6-0.3-1.1-0.8-1.3c0.1-0.2,0.1-0.3,0.1-0.5c0-0.2,0-0.4-0.1-0.5
			c0.2,0.2,0.5,0.3,0.8,0.3c0.3,0,0.5-0.1,0.7-0.2c0,0.8,0.6,1.4,1.3,1.4c0.1,0,0.1,0,0.2,0c0,0,0,0.1,0,0.1c0,0,0,0.1,0,0.1
			c-0.6,0.1-1,0.7-1,1.3c0,0.8,0.6,1.4,1.3,1.4c0.7,0,1.3-0.6,1.3-1.4c0,0,0-0.1,0-0.1c0.6-0.1,1-0.7,1-1.3c0-0.1,0-0.3-0.1-0.4
			c0.1-0.1,0.1-0.3,0.1-0.5c0-0.8-0.6-1.4-1.3-1.4c-0.1,0-0.1,0-0.2,0c0.1-0.2,0.2-0.5,0.2-0.7c0-0.8-0.6-1.4-1.3-1.4
			c-0.5,0-1,0.4-1.2,0.8c-0.2-0.3-0.6-0.5-1-0.5c0,0,0,0-0.1,0c0-0.1,0.1-0.2,0.1-0.4c0-0.1,0-0.1,0-0.2c0.2-0.2,0.4-0.6,0.4-1
			c0-0.8-0.6-1.4-1.3-1.4c0,0-0.1,0-0.1,0c0-0.1,0-0.1-0.1-0.2c0.6-0.1,1-0.7,1-1.3c0-0.2-0.1-0.4-0.1-0.6c0.2-0.2,0.3-0.6,0.3-0.9
			c0-0.3-0.1-0.6-0.3-0.8c0.5-0.2,0.8-0.7,0.8-1.3c0-0.5-0.2-0.9-0.5-1.1c0-0.1,0-0.2,0-0.3c0-0.4-0.2-0.8-0.5-1.1
			c0.4-0.2,0.6-0.7,0.6-1.2c0-0.4-0.2-0.8-0.5-1.1c0.3-0.2,0.5-0.5,0.6-0.9c0.1,0,0.2,0,0.3,0c0.7,0,1.3-0.6,1.3-1.4
			C140.3,128.1,139.7,127.5,139,127.5z M137.7,155.7c-0.1,0-0.1-0.1-0.2-0.1c0.1-0.1,0.1-0.1,0.2-0.2c0,0,0.1,0.1,0.1,0.1
			C137.7,155.6,137.7,155.7,137.7,155.7z M134.5,157.5c0.2-0.3,0.2-0.7,0.2-1c-0.1-0.3-0.2-0.6-0.4-0.8c0.1,0,0.2,0,0.3,0
			c0.4-0.1,0.8-0.4,0.9-0.8c0.1,0.5,0.5,0.9,0.9,1.1c-0.4,0.3-0.5,0.8-0.5,1.3c-0.1,0-0.2,0-0.3,0c-0.3,0.1-0.5,0.2-0.7,0.4
			C134.8,157.6,134.6,157.5,134.5,157.5z M138.1,161.9C138.1,161.9,138.1,162,138.1,161.9C138.1,162,138.1,162,138.1,161.9
			C138.1,161.9,138.1,161.9,138.1,161.9z M143,160.7C143,160.7,143,160.7,143,160.7C143,160.7,143,160.7,143,160.7
			C143,160.7,143,160.7,143,160.7z M140.2,160.4c0,0-0.1,0.1-0.1,0.1c0,0,0,0-0.1-0.1c0-0.1,0-0.1,0-0.2c0-0.1,0-0.2-0.1-0.2
			C140,160.2,140.1,160.3,140.2,160.4z M137.6,153.4c0,0-0.1,0.1-0.1,0.1c0,0,0,0-0.1-0.1c0-0.1,0-0.1,0-0.2c0-0.1,0-0.2-0.1-0.2
			C137.4,153.2,137.5,153.3,137.6,153.4z"/>
		<ellipse class="st10" cx="137.4" cy="128.8" rx="1.3" ry="1.4"/>
		<ellipse class="st10" cx="138" cy="145.3" rx="1.3" ry="1.4"/>
		<ellipse class="st10" cx="138.7" cy="147.1" rx="1.3" ry="1.4"/>
		<ellipse class="st10" cx="131.7" cy="156" rx="1.3" ry="1.4"/>
		<ellipse class="st8" cx="139.3" cy="134.2" rx="1.3" ry="1.4"/>
		<ellipse class="st10" cx="141.3" cy="155.4" rx="1.3" ry="1.4"/>
		<ellipse class="st10" cx="133.7" cy="153.5" rx="1.3" ry="1.4"/>
		<ellipse class="st10" cx="135" cy="155.3" rx="1.3" ry="1.4"/>
		<ellipse class="st10" cx="140.1" cy="154.5" rx="1.3" ry="1.4"/>
		<ellipse class="st10" cx="140.9" cy="152.4" rx="1.3" ry="1.4"/>
		<ellipse class="st10" cx="139.2" cy="137.2" rx="1.3" ry="1.4"/>
		<ellipse class="st10" cx="136.3" cy="147.8" rx="1.3" ry="1.4"/>
		<ellipse class="st10" cx="138.3" cy="138.6" rx="1.3" ry="1.4"/>
		<ellipse class="st10" cx="137.8" cy="127" rx="1.3" ry="1.4"/>
		<ellipse class="st10" cx="133.1" cy="155" rx="1.3" ry="1.4"/>
		<ellipse class="st10" cx="136.6" cy="133" rx="1.3" ry="1.4"/>
		<ellipse class="st8" cx="142.3" cy="153.7" rx="1.3" ry="1.4"/>
		<ellipse class="st8" cx="139.3" cy="165.2" rx="1.3" ry="1.4"/>
		<ellipse class="st8" cx="139" cy="163.5" rx="1.3" ry="1.4"/>
		<ellipse class="st8" cx="140.6" cy="168.2" rx="1.3" ry="1.4"/>
		<ellipse class="st8" cx="145.4" cy="164.3" rx="1.3" ry="1.4"/>
		<ellipse class="st8" cx="133.7" cy="164.2" rx="1.3" ry="1.4"/>
		<ellipse class="st8" cx="135.3" cy="168.6" rx="1.3" ry="1.4"/>
		<ellipse class="st8" cx="133.6" cy="169.3" rx="1.3" ry="1.4"/>
		<ellipse class="st8" cx="143.2" cy="166.2" rx="1.3" ry="1.4"/>
		<ellipse class="st8" cx="141" cy="170.4" rx="1.3" ry="1.4"/>
		<ellipse class="st8" cx="131" cy="162.9" rx="1.3" ry="1.4"/>
		<ellipse class="st10" cx="137.6" cy="153.5" rx="1.3" ry="1.4"/>
		<ellipse class="st10" cx="138.4" cy="155.4" rx="1.3" ry="1.4"/>
		<ellipse class="st10" cx="134.7" cy="162.2" rx="1.3" ry="1.4"/>
		<ellipse class="st10" cx="132.2" cy="162.7" rx="1.3" ry="1.4"/>
		<ellipse class="st10" cx="131.9" cy="164.7" rx="1.3" ry="1.4"/>
		<ellipse class="st10" cx="133.2" cy="162.8" rx="1.3" ry="1.4"/>
		<ellipse class="st10" cx="144.7" cy="162" rx="1.3" ry="1.4"/>
		<ellipse class="st10" cx="143.2" cy="163.4" rx="1.3" ry="1.4"/>
		<ellipse class="st10" cx="146" cy="161.2" rx="1.3" ry="1.4"/>
		<ellipse class="st10" cx="143.8" cy="158.3" rx="1.3" ry="1.4"/>
		<ellipse class="st10" cx="136.7" cy="167.6" rx="1.3" ry="1.4"/>
		<ellipse class="st10" cx="135.7" cy="166.2" rx="1.3" ry="1.4"/>
		<ellipse class="st10" cx="134.2" cy="166" rx="1.3" ry="1.4"/>
		<ellipse class="st10" cx="139.1" cy="159.4" rx="1.3" ry="1.4"/>
		<ellipse class="st10" cx="140.6" cy="158.1" rx="1.3" ry="1.4"/>
		<ellipse class="st10" cx="139.8" cy="156.6" rx="1.3" ry="1.4"/>
		<ellipse class="st10" cx="142.8" cy="151.7" rx="1.3" ry="1.4"/>
		<ellipse class="st10" cx="132.3" cy="166.4" rx="1.3" ry="1.4"/>
		<ellipse class="st10" cx="138.4" cy="125" rx="1.3" ry="1.4"/>
		<g>
			<ellipse class="st8" cx="137.1" cy="185.8" rx="1.3" ry="1.4"/>
			<ellipse class="st8" cx="138.7" cy="190.2" rx="1.3" ry="1.4"/>
			<ellipse class="st8" cx="137" cy="190.9" rx="1.3" ry="1.4"/>
			<ellipse class="st8" cx="137.2" cy="188.5" rx="1.3" ry="1.4"/>
			<ellipse class="st10" cx="140.1" cy="189.2" rx="1.3" ry="1.4"/>
			<ellipse class="st9" cx="136.8" cy="183.4" rx="1.3" ry="1.4"/>
			<ellipse class="st9" cx="138.1" cy="185.9" rx="1.3" ry="1.4"/>
			<ellipse class="st9" cx="137.8" cy="187.8" rx="1.3" ry="1.4"/>
			<ellipse class="st9" cx="139.1" cy="186" rx="1.3" ry="1.4"/>
			<ellipse class="st9" cx="138.7" cy="184.7" rx="1.3" ry="1.4"/>
			<ellipse class="st9" cx="139.5" cy="184.2" rx="1.3" ry="1.4"/>
			<ellipse class="st9" cx="135.1" cy="185.1" rx="1.3" ry="1.4"/>
			<ellipse class="st10" cx="139" cy="183.6" rx="1.3" ry="1.4"/>
			<ellipse class="st10" cx="135.8" cy="189.5" rx="1.3" ry="1.4"/>
			<ellipse class="st10" cx="134.9" cy="183.5" rx="1.3" ry="1.4"/>
			<ellipse class="st10" cx="138.3" cy="182.3" rx="1.3" ry="1.4"/>
			<ellipse class="st10" cx="140.1" cy="187.5" rx="1.3" ry="1.4"/>
			<ellipse class="st10" cx="136.6" cy="187.7" rx="1.3" ry="1.4"/>
		</g>
		<path class="st7" d="M138.6,202.4c0.1,0,1,0.8,1.1,1.2c0.3,1.9-0.8,6,1.9,7.7c0,0-0.1-2.1,0.2-1.3c0.4,0.7,1.4,3,2,3.2
			c0,0-0.4-2.1,0.2-1.1s2,3.2,3.2,3.5c0,0-0.5-1.5,0-1c0.4,0.5,1.8,1.8,2.6,2.4c0.5,0.4,1.6,2.4,2.2,2.1c0,0-0.7-0.5-0.9-1.4
			c-0.2-1,0.3-5.4-0.3-5.9c0,0,0.7,0.2,0.9,0.6c0.3,0.3-0.6-2-1.3-2.3c2.1,1.6-1-1.7-1.4-1.8c-0.4-0.2,0.9,0.5,0.8,0.2
			c-0.9-2.1-5.3-4-4.6-3.9c0.7,0.2,1.6-0.1,1.3-0.2c-0.3-0.1-1.7-0.6-2.5-0.8C143.1,203.3,138.6,202.4,138.6,202.4z"/>
		<ellipse class="st8" cx="140.8" cy="205.9" rx="1.3" ry="1.4"/>
		<ellipse class="st8" cx="139" cy="206.6" rx="1.3" ry="1.4"/>
		<ellipse class="st8" cx="139.2" cy="204.1" rx="1.3" ry="1.4"/>
		<ellipse class="st10" cx="142.1" cy="204.8" rx="1.3" ry="1.4"/>
		<ellipse class="st9" cx="140.9" cy="203.3" rx="1.3" ry="1.4"/>
		<ellipse class="st10" cx="137.9" cy="205.2" rx="1.3" ry="1.4"/>
		<ellipse class="st10" cx="140.6" cy="201.9" rx="1.3" ry="1.4"/>
		<ellipse class="st10" cx="138.7" cy="203.4" rx="1.3" ry="1.4"/>
		<ellipse class="st9" cx="139.9" cy="203.4" rx="1.3" ry="1.4"/>
	</g>
	<g>
		<path class="st7" d="M161.1,187.9c0.1-0.1,1.3,0.2,1.5,0.5c1.1,1.5,2.2,5.6,5.3,5.6c0,0-1.1-1.7-0.4-1.3c0.7,0.4,2.7,1.8,3.2,1.6
			c0,0-1.4-1.6-0.3-1.1c1,0.5,3.2,1.7,4.4,1.2c0,0-1.1-1-0.5-0.9s2.5,0.5,3.4,0.6c0.7,0,2.6,1.2,2.9,0.6c0,0-0.8,0-1.4-0.7
			s-2.3-4.8-3.1-4.9c0,0,0.7-0.2,1.1,0c0.4,0.1-1.5-1.3-2.2-1.2c2.5,0.2-1.6-0.9-2.1-0.8c-0.4,0,1.1-0.1,0.8-0.3
			c-1.8-1.3-6.5-0.6-5.8-0.8c0.7-0.2,1.4-1,1-0.8c-0.3,0.1-1.8,0.4-2.5,0.7C165.3,186.2,161.1,187.9,161.1,187.9z"/>
		<path class="st7" d="M163.2,184.5c-0.2,0-1.2,0.9-1.2,1.4c-0.3,2.2,0.8,7-2.3,8.9c0,0,0.2-2.4-0.3-1.5c-0.4,0.8-1.7,3.5-2.4,3.6
			c0,0,0.5-2.4-0.3-1.3c-0.8,1.1-2.3,3.7-3.7,4c0,0,0.6-1.7,0.1-1.2s-2.1,2.1-3.1,2.7c-0.6,0.5-1.9,2.8-2.6,2.4c0,0,0.8-0.5,1-1.6
			s-0.3-6.2,0.4-6.8c0,0-0.8,0.3-1.1,0.6c-0.3,0.4,0.7-2.2,1.6-2.6c0,0-1.1,0.8-0.8,0.3c0.2-0.3,1.9-2.2,2.4-2.5
			c0.4-0.2-1.1,0.6-0.9,0.2c1.1-2.4,6.1-4.6,5.4-4.4s-1.9-0.1-1.5-0.2c0.4-0.1,2-0.7,2.8-0.9C158.1,185.5,163.2,184.5,163.2,184.5z"
			/>
		<path class="st7" d="M161.5,171.9c0.2-0.1,1.4,0.3,1.7,0.7c1.1,1.9,1.9,6.7,5.5,7.1c0,0-1.1-2.1-0.4-1.5c0.7,0.6,2.8,2.4,3.5,2.3
			c0,0-1.4-2-0.3-1.3c1.1,0.7,3.5,2.4,4.9,2c0,0-1.2-1.3-0.5-1.1c0.7,0.3,2.8,0.9,3.8,1.1c0.8,0.1,2.8,1.7,3.3,1c0,0-1-0.1-1.6-1
			c-0.6-0.9-2.1-5.8-3-6c0,0,0.8-0.1,1.2,0.1c0.4,0.2-1.5-1.7-2.4-1.7c0,0,1.3,0.3,0.9-0.1c-0.3-0.2-2.6-1.2-3.2-1.2
			c-0.5,0,1.2,0,0.9-0.2c-1.9-1.7-7.4-1.5-6.6-1.7c0.8-0.2,1.7-0.9,1.3-0.8c-0.4,0.1-2.1,0.2-2.9,0.5
			C166.6,170.5,161.5,171.9,161.5,171.9z"/>
		<path class="st7" d="M161.5,171.9c0.2-0.1,1.4,0.3,1.7,0.7c1.1,1.9,1.9,6.7,5.5,7.1c0,0-1.1-2.1-0.4-1.5c0.7,0.6,2.8,2.4,3.5,2.3
			c0,0-1.4-2-0.3-1.3c1.1,0.7,3.5,2.4,4.9,2c0,0-1.2-1.3-0.5-1.1c0.7,0.3,2.8,0.9,3.8,1.1c0.8,0.1,2.8,1.7,3.3,1c0,0-1-0.1-1.6-1
			c-0.6-0.9-2.1-5.8-3-6c0,0,0.8-0.1,1.2,0.1c0.4,0.2-1.5-1.7-2.4-1.7c0,0,1.3,0.3,0.9-0.1c-0.3-0.2-2.6-1.2-3.2-1.2
			c-0.5,0,1.2,0,0.9-0.2c-1.9-1.7-7.4-1.5-6.6-1.7c0.8-0.2,1.7-0.9,1.3-0.8c-0.4,0.1-2.1,0.2-2.9,0.5
			C166.6,170.5,161.5,171.9,161.5,171.9z"/>
		<path class="st7" d="M162.6,172.6c-0.2-0.1-1.6,0-2,0.4c-1.7,1.8-3.9,7-7.8,6.5c0,0,1.7-2,0.8-1.6c-0.9,0.4-3.7,2-4.4,1.6
			c0,0,2-1.9,0.6-1.4c-1.4,0.5-4.4,1.7-5.7,0.9c0,0,1.6-1.2,0.8-1s-3.2,0.3-4.4,0.3c-0.8,0-3.5,1.2-3.8,0.3c0,0,1,0.1,1.9-0.7
			c0.9-0.9,3.8-5.9,4.9-6c0,0-0.8-0.3-1.3-0.2c-0.5,0.1,2.1-1.5,3-1.2c0,0-1.4,0-0.9-0.3c0.4-0.2,3.1-0.6,3.7-0.5
			c0.5,0.1-1.3-0.3-0.9-0.5c2.5-1.4,8.2,0.2,7.4-0.2s-1.5-1.5-1.1-1.3c0.4,0.2,2.1,0.8,3,1.3C157.6,169.7,162.6,172.6,162.6,172.6z"
			/>
		<path class="st7" d="M161.8,171.8c0,0-1,73.6-1.8,77.6c-0.8,4,3.4,2,3.3,0.8c-0.6-15.6-0.1-78.4-0.1-78.4L161.8,171.8z"/>
		<path class="st8" d="M163.8,132.9c0.6-0.3,0.9-1.1,0.6-1.8c-0.2-0.4-0.5-0.7-0.9-0.8c0.1-0.2,0.1-0.4,0.1-0.6
			c0-0.8-0.6-1.4-1.3-1.4c-0.3,0-0.6,0.1-0.8,0.3c0-0.1-0.1-0.1-0.1-0.2c0.5-0.2,0.8-0.7,0.8-1.3c0-0.8-0.6-1.4-1.3-1.4
			c-0.7,0-1.3,0.6-1.3,1.4c0,0.4,0.2,0.7,0.4,1c0,0,0,0,0,0c-0.4,0.2-0.7,0.6-0.7,1.1c-0.7,0-1.2,0.6-1.2,1.4c0,0.5,0.2,0.9,0.6,1.2
			c-0.6,0.3-0.9,1.1-0.6,1.8c0,0.1,0.1,0.1,0.1,0.2c-0.6,0.3-0.9,1.1-0.6,1.8c0.1,0.2,0.2,0.3,0.3,0.5c-0.4,0.4-0.5,1-0.3,1.6
			c0,0.1,0.1,0.1,0.1,0.2c-0.2,0-0.5,0-0.7,0.1c-0.6,0.3-0.9,1.1-0.6,1.8c0.3,0.7,1,1,1.7,0.7c0.1,0,0.2-0.1,0.3-0.2
			c0,0,0,0.1,0,0.1c-0.1,0-0.2,0-0.3,0.1c-0.6,0.3-0.9,1.1-0.6,1.8c0.3,0.7,1,1,1.7,0.7c0,0,0,0,0.1,0c-0.3,0.3-0.4,0.7-0.3,1.2
			c-0.2,0-0.5,0-0.7,0.1c-0.5,0.2-0.8,0.7-0.8,1.2c-0.6,0.3-0.9,1.1-0.6,1.8c0.1,0.2,0.2,0.4,0.3,0.5c-0.1,0-0.2,0-0.2,0.1
			c-0.6,0.3-0.9,1.1-0.6,1.8c0.1,0.2,0.2,0.3,0.3,0.5c-0.2,0-0.4,0-0.6,0.1c-0.6,0.3-0.9,1.1-0.6,1.8c0.3,0.7,1,1,1.7,0.7
			c0.3-0.1,0.5-0.4,0.6-0.6c0.3,0.3,0.7,0.5,1.1,0.4c-0.1,0.2-0.2,0.4-0.2,0.6c-0.4-0.5-1-0.7-1.5-0.4c-0.5,0.2-0.7,0.7-0.8,1.2
			c-0.1,0.3-0.1,0.7,0,1c0.1,0.2,0.3,0.4,0.4,0.6c0.1,0.3,0.3,0.5,0.6,0.6c-0.2,0.3-0.3,0.8-0.2,1.2c-0.3-0.2-0.7-0.2-1,0
			c-0.5,0.3-0.8,0.9-0.7,1.5c-0.2,0-0.5,0-0.7,0.1c-0.6,0.3-0.9,1.1-0.6,1.8s1,1,1.7,0.7c0.1,0,0.2-0.1,0.3-0.2c0,0,0,0.1,0,0.1
			c-0.1,0-0.2,0-0.3,0.1c-0.5,0.2-0.7,0.7-0.8,1.2c0,0,0,0,0,0c-0.1,0-0.2,0-0.3,0c-0.4-0.3-0.8-0.3-1.3-0.1
			c-0.6,0.3-0.9,1.1-0.6,1.8c0.2,0.4,0.5,0.7,0.8,0.8c0.1,0.3,0.4,0.5,0.6,0.6c0.1,0.2,0.3,0.3,0.5,0.4c-0.3,0.4-0.3,0.9-0.1,1.3
			c0.1,0.3,0.4,0.6,0.7,0.7c0.3,0.5,1,0.8,1.6,0.5c0.4-0.2,0.7-0.7,0.7-1.2c0.3,0.1,0.5,0,0.8-0.1c0.2-0.1,0.4-0.3,0.5-0.5
			c0,0,0,0,0,0c0.1,0.1,0.1,0.3,0.2,0.4c-0.2,0-0.5,0-0.7,0.1c-0.6,0.3-0.9,1.1-0.6,1.8c0,0,0,0,0,0c-0.1,0-0.2,0-0.3,0.1
			c-0.3,0.1-0.5,0.3-0.6,0.6c-0.3-0.1-0.6-0.1-0.9,0.1c-0.6,0.3-0.9,1.1-0.6,1.8c0.1,0.3,0.4,0.6,0.7,0.7c-0.2,0.4-0.2,0.8,0,1.1
			c0.3,0.7,1,1,1.7,0.7c0.2-0.1,0.4-0.3,0.5-0.5c0.3,0.1,0.7,0.2,1,0c0.4-0.2,0.6-0.5,0.7-0.9c0.1,0,0.2,0,0.3-0.1
			c0.3-0.2,0.6-0.4,0.7-0.8c0.1-0.2,0.2-0.4,0.3-0.6c0,0.2,0,0.5,0.1,0.7c0.3,0.7,1,1,1.6,0.7c0,0.1,0,0.3,0.1,0.4
			c0.3,0.7,1,1,1.7,0.7c0.6-0.3,0.9-1,0.7-1.6c0.4-0.4,0.6-1,0.3-1.6c-0.3-0.7-1-1-1.7-0.7c-0.3,0.1-0.5,0.4-0.6,0.6
			c-0.4-0.4-1-0.6-1.5-0.3c-0.4,0.2-0.6,0.5-0.7,0.9c0-0.2,0-0.5-0.1-0.7c-0.3-0.7-1-1-1.7-0.7c-0.1,0-0.2,0.1-0.2,0.1c0,0,0,0,0,0
			c0,0,0,0,0,0c0.1,0,0.2,0,0.3-0.1c0.6-0.3,0.9-1.1,0.6-1.8c-0.1-0.1-0.1-0.3-0.2-0.4c0,0,0.1,0,0.1,0c0,0.1,0,0.2,0.1,0.3
			c0.3,0.7,1,1,1.7,0.7c0.1,0,0.2-0.1,0.3-0.2c0.1,0.1,0.1,0.2,0.2,0.3c0,0.2,0,0.4,0.1,0.5c0.3,0.7,1,1,1.7,0.7
			c0.5-0.2,0.7-0.7,0.8-1.2c0.1,0,0.2,0,0.4,0c0.4,0.2,0.8,0.3,1.2,0.1c0.5-0.2,0.7-0.7,0.8-1.2c0.2,0,0.5,0,0.8-0.1
			c0.6-0.3,0.9-1.1,0.6-1.8c0-0.1-0.1-0.1-0.1-0.2c0.1,0,0.2,0,0.3-0.1c0.6-0.3,0.9-1.1,0.6-1.8c-0.1-0.3-0.3-0.5-0.6-0.6
			c0.2-0.3,0.3-0.8,0.2-1.2c0,0,0,0,0.1,0c0.1,0.2,0.3,0.3,0.5,0.4c-0.3,0.4-0.3,0.9-0.1,1.3c0.1,0.3,0.4,0.6,0.7,0.7
			c0.3,0.5,1,0.8,1.6,0.5c0.6-0.3,0.9-1.1,0.6-1.8c-0.1-0.3-0.4-0.6-0.7-0.7c-0.1-0.2-0.3-0.3-0.5-0.4c0.3-0.4,0.3-0.9,0.1-1.3
			c0-0.1-0.1-0.1-0.1-0.2c0.1,0,0.2,0,0.3-0.1c0.6-0.3,0.9-1.1,0.6-1.8c-0.3-0.7-1-1-1.7-0.7c-0.1,0-0.2,0.1-0.3,0.2
			c-0.1-0.1-0.1-0.2-0.2-0.3c0-0.2,0-0.4-0.1-0.5c-0.3-0.7-1-1-1.7-0.7c-0.5,0.2-0.7,0.7-0.8,1.2c-0.2,0-0.5,0-0.8,0.1
			c-0.6,0.3-0.9,1.1-0.6,1.8c0.3,0.7,1,1,1.7,0.7c0.3-0.1,0.5-0.3,0.6-0.6c0.1,0,0.1,0.1,0.2,0.1c-0.2,0.3-0.3,0.8-0.2,1.2
			c-0.3-0.2-0.7-0.2-1,0c-0.3,0.1-0.5,0.3-0.6,0.6c-0.4-0.3-0.8-0.4-1.3-0.2c-0.1,0-0.2,0.1-0.3,0.2c0,0,0-0.1,0-0.1
			c0.1,0,0.2,0,0.3-0.1c0.6-0.3,0.9-1.1,0.6-1.8c-0.2-0.5-0.6-0.8-1-0.8c0-0.1,0-0.3-0.1-0.4c0.2-0.4,0.3-0.8,0.1-1.2
			c0.3,0.1,0.7,0.2,1,0c0.4-0.2,0.7-0.6,0.7-1c0.4,0.4,0.9,0.5,1.4,0.3c0.3-0.1,0.5-0.4,0.6-0.6c0.4,0.4,1,0.6,1.5,0.3
			c0.6-0.3,0.9-1.1,0.6-1.8c-0.3-0.7-1-1-1.7-0.7c-0.3,0.1-0.5,0.4-0.6,0.6c-0.2-0.3-0.5-0.4-0.9-0.4c0.1-0.3,0.1-0.6-0.1-0.9
			c-0.3-0.7-1-1-1.7-0.7c-0.2,0.1-0.4,0.2-0.5,0.4c-0.1-0.1-0.2-0.2-0.3-0.3c0.2,0,0.5,0,0.8-0.1c0.6-0.3,0.9-1.1,0.6-1.8
			c-0.3-0.7-1-1-1.7-0.7c-0.1,0-0.1,0.1-0.2,0.1c0,0,0,0,0,0c0.1,0,0.1,0,0.2-0.1c0.3-0.2,0.6-0.4,0.7-0.8c0-0.1,0.1-0.1,0.1-0.2
			c0.3,0.1,0.7,0.2,1,0c0.6-0.3,0.9-1.1,0.7-1.8c0,0,0.1,0,0.1,0c0.6-0.3,0.9-1.1,0.6-1.8c-0.2-0.5-0.6-0.8-1.1-0.8
			c0-0.2,0-0.3-0.1-0.5c-0.2-0.4-0.5-0.7-0.9-0.8c0.2-0.4,0.2-0.8,0-1.1c-0.3-0.7-1-1-1.7-0.7c-0.1,0-0.1,0.1-0.2,0.1
			c0.1-0.1,0.2-0.3,0.3-0.5c0.2-0.1,0.3-0.3,0.4-0.6c0.3-0.7-0.1-1.5-0.7-1.8c0,0-0.1,0-0.1,0c0.1-0.1,0.2-0.2,0.2-0.3
			c0.1,0.1,0.2,0.1,0.3,0.2c0.7,0.3,1.4-0.1,1.7-0.8c0.3-0.7-0.1-1.5-0.7-1.8c-0.5-0.2-1.1,0-1.5,0.5c-0.1-0.1-0.1-0.1-0.2-0.1
			c0.2-0.2,0.4-0.4,0.5-0.7c0.2-0.6,0-1.2-0.4-1.6c0,0,0,0,0,0c-0.3-0.7-1-1-1.7-0.7c-0.3,0.1-0.5,0.4-0.6,0.6
			c-0.3-0.3-0.6-0.5-1-0.5c0.1-0.3,0-0.6-0.1-0.9c-0.1-0.3-0.3-0.5-0.5-0.6c0.2-0.1,0.3-0.2,0.5-0.4c-0.1,0.3-0.1,0.7,0,1
			c0.3,0.7,1,1,1.7,0.7c0.2-0.1,0.4-0.3,0.5-0.4C163,133,163.4,133.1,163.8,132.9z M159.9,145.2c0.1,0,0.2,0,0.2,0
			c-0.1,0.3,0,0.6,0.1,0.9c0.3,0.7,1,1,1.7,0.7c0.2-0.1,0.4-0.3,0.5-0.5c0,0.1,0.1,0.2,0.1,0.4c-0.2,0-0.4,0-0.6,0.1
			c-0.6,0.3-0.9,1.1-0.6,1.8c0,0,0,0,0,0c0,0,0,0,0,0c0,0,0,0,0,0c-0.1-0.2-0.2-0.3-0.3-0.4c0-0.2,0-0.5-0.1-0.7
			c-0.3-0.7-1-1-1.7-0.7c0,0,0,0,0,0C159.8,146.5,160,145.8,159.9,145.2z M160.9,142.7c0.1,0,0.2-0.1,0.3-0.2c0,0,0,0.1,0.1,0.1
			c0,0.2,0,0.5,0.1,0.7c0.2,0.6,0.8,0.9,1.4,0.8c0,0,0,0.1,0.1,0.1c-0.1,0.1-0.3,0.3-0.3,0.4c-0.3-0.3-0.6-0.5-1-0.5
			c0.1-0.3,0-0.6-0.1-0.9C161.2,143,161,142.8,160.9,142.7C160.8,142.7,160.8,142.7,160.9,142.7z M162.2,136
			C162.2,136,162.2,136,162.2,136C162.2,136,162.2,136,162.2,136C162.2,136,162.2,136,162.2,136z M162.5,136.3
			C162.5,136.3,162.6,136.3,162.5,136.3C162.6,136.3,162.6,136.3,162.5,136.3C162.5,136.3,162.5,136.3,162.5,136.3z M160.1,137.2
			c0.1,0.1,0.2,0.1,0.3,0.1c0,0,0,0.1,0,0.1c-0.2,0.2-0.3,0.5-0.3,0.8c0,0,0,0,0,0.1c0,0,0,0,0,0.1c-0.2-0.1-0.4-0.2-0.5-0.2
			C159.8,138,160.1,137.6,160.1,137.2z M158.7,138.6C158.6,138.5,158.6,138.5,158.7,138.6C158.7,138.5,158.7,138.5,158.7,138.6
			C158.7,138.5,158.7,138.5,158.7,138.6z M158.2,164.3c-0.3-0.3-0.6-0.5-1-0.5c0.1-0.2,0.2-0.5,0.2-0.7c0-0.1,0-0.2,0.1-0.3
			c0.4,0.5,1,0.7,1.5,0.4c0.2-0.1,0.3-0.2,0.4-0.4c0.1,0.1,0.2,0.2,0.3,0.3c-0.2,0-0.5,0-0.7,0.1
			C158.5,163.4,158.2,163.8,158.2,164.3z M160.3,157.7c-0.1,0.1-0.2,0.2-0.2,0.3c0,0,0-0.1,0-0.1c0-0.1,0-0.2,0.1-0.3
			C160.2,157.6,160.3,157.6,160.3,157.7z M161,153C161,153,161,153,161,153C161,153,161,153,161,153C161,153,161,153,161,153z
			 M160.7,164.5c0.1,0.1,0.1,0.1,0.2,0.2c-0.1,0.2-0.2,0.4-0.2,0.6c-0.1,0-0.1-0.1-0.2-0.1C160.7,164.9,160.7,164.7,160.7,164.5z
			 M163.6,166.7c0.1-0.1,0.1-0.2,0.2-0.4c0.1,0.1,0.1,0.2,0.2,0.2c-0.1,0.1-0.1,0.2-0.2,0.3C163.8,166.8,163.7,166.8,163.6,166.7z
			 M163.1,164.7C163.1,164.7,163.1,164.7,163.1,164.7c-0.2-0.2-0.3-0.4-0.5-0.5c0.3-0.4,0.3-0.9,0.1-1.3c-0.1-0.1-0.1-0.2-0.2-0.3
			c0,0,0.1,0,0.1,0c0,0.1,0,0.2,0.1,0.3c0.1,0.3,0.3,0.5,0.6,0.6C163.1,163.9,163,164.3,163.1,164.7z M158.9,149c0,0.1,0,0.3,0,0.4
			c-0.1,0-0.2,0-0.2,0c0.1-0.3,0-0.6-0.1-0.9c-0.1-0.2-0.2-0.4-0.3-0.5c0.1,0,0.2,0,0.2-0.1c0,0.2,0,0.4,0.1,0.6
			C158.6,148.7,158.7,148.9,158.9,149z M157.3,150.4c0.1,0,0.1,0,0.2,0c0,0,0,0.1-0.1,0.1C157.3,150.5,157.3,150.5,157.3,150.4z
			 M159.7,151.5C159.7,151.5,159.7,151.5,159.7,151.5c0,0.1,0,0.2,0,0.3c0,0-0.1,0-0.1,0C159.7,151.8,159.7,151.7,159.7,151.5z
			 M166,166.4C166,166.4,165.9,166.4,166,166.4c-0.1-0.1,0-0.1,0-0.2C166,166.3,166,166.3,166,166.4z M163.1,153.3
			c-0.3-0.4-0.8-0.6-1.3-0.5c0,0-0.1,0-0.1,0c0,0,0,0,0,0c0.4,0,0.8-0.3,1.1-0.6c0.3,0.2,0.7,0.2,1,0c0.2-0.1,0.4-0.2,0.5-0.4
			c0.1,0.1,0.2,0.2,0.3,0.3c-0.2,0-0.5,0-0.8,0.1C163.4,152.4,163.1,152.9,163.1,153.3z M163,149.3C163,149.3,162.9,149.3,163,149.3
			C162.9,149.3,162.9,149.3,163,149.3C162.9,149.3,163,149.3,163,149.3c0.1,0,0.1-0.1,0.2-0.1c0,0,0,0,0,0
			C163.1,149.2,163.1,149.3,163,149.3z M159.6,142.6C159.6,142.6,159.7,142.6,159.6,142.6C159.6,142.6,159.6,142.6,159.6,142.6
			C159.6,142.6,159.6,142.6,159.6,142.6C159.6,142.6,159.6,142.6,159.6,142.6z M166.1,165.8c0-0.2,0-0.3,0-0.5c0.2,0,0.4,0,0.6-0.1
			c0.1,0,0.2-0.1,0.3-0.2c0,0,0,0.1,0,0.1c-0.1,0-0.2,0-0.3,0.1C166.5,165.3,166.3,165.5,166.1,165.8z M164.6,154.9
			C164.6,154.9,164.6,154.8,164.6,154.9c0.1-0.1,0.2-0.1,0.3-0.2c0.2-0.1,0.4-0.2,0.5-0.4c0.1,0.1,0.2,0.2,0.3,0.3
			c-0.2,0-0.5,0-0.8,0.1C164.7,154.7,164.7,154.8,164.6,154.9z M166.2,154.9c0,0,0.1,0,0.1,0c0,0,0,0.1,0,0.1
			C166.2,154.9,166.2,154.9,166.2,154.9z M165,146.9c-0.1,0-0.1-0.1-0.2-0.1c0.1-0.2,0.2-0.5,0.2-0.7c0-0.2,0-0.3-0.1-0.5
			c0.2,0.2,0.4,0.2,0.7,0.3c0,0.1,0,0.3,0.1,0.4c0,0-0.1,0-0.1,0C165.4,146.4,165.2,146.6,165,146.9z M163.8,141.7
			C163.8,141.7,163.8,141.7,163.8,141.7c0-0.1,0.1-0.1,0.1-0.1C163.9,141.6,163.9,141.7,163.8,141.7z M160.6,131.2
			c0-0.1,0.1-0.2,0.1-0.3c0.1,0,0.3,0,0.4-0.1c0.1-0.1,0.2-0.1,0.3-0.2c0,0,0.1,0.1,0.1,0.1c-0.1,0-0.3,0-0.4,0.1
			C160.9,130.8,160.7,131,160.6,131.2z"/>
		<path class="st9" d="M162.7,126.4c-0.6,0-1.1,0.5-1.3,1.1c-0.1,0-0.2,0-0.3,0c-0.7,0-1.3,0.6-1.3,1.4c0,0,0,0.1,0,0.1
			c-0.7,0-1.3,0.6-1.3,1.4c0,0.8,0.6,1.4,1.3,1.4c0,0,0,0,0,0c0.1,0.2,0.2,0.3,0.4,0.5c-0.4,0.2-0.6,0.7-0.6,1.2
			c0,0.5,0.2,0.9,0.5,1.1c0,0.1,0,0.2,0,0.3c0,0.3,0.1,0.6,0.3,0.8c-0.1,0.1-0.3,0.1-0.4,0.3c-0.2-0.6-0.6-1-1.2-1
			c-0.7,0-1.3,0.6-1.3,1.4c0,0.8,0.6,1.4,1.3,1.4c0.3,0,0.6-0.1,0.8-0.3c0,0.1,0,0.1,0.1,0.2c-0.2,0.2-0.3,0.6-0.3,0.9
			c0,0.2,0,0.3,0.1,0.4c-0.2,0-0.3,0.1-0.5,0.2c-0.7,0.1-1.2,0.6-1.2,1.4c0,0.8,0.6,1.4,1.3,1.4c0.2,0,0.5-0.1,0.7-0.2
			c-0.2,0.2-0.3,0.5-0.3,0.9c0,0.8,0.6,1.4,1.3,1.4c0,0,0,0,0.1,0c0,0.1-0.1,0.2-0.1,0.4c0,0.2,0,0.4,0.1,0.5
			c-0.2-0.2-0.5-0.3-0.8-0.3c-0.7,0-1.3,0.6-1.3,1.4c0,0.1,0,0.2,0,0.3c0,0-0.1,0-0.1,0c-0.7,0-1.3,0.6-1.3,1.4c0,0.1,0,0.2,0,0.3
			c-0.5,0.3-0.8,0.9-0.7,1.5c-0.1,0-0.2,0-0.3,0c-0.7,0.2-1.1,0.9-1,1.6c0.1,0.5,0.5,0.9,0.9,1c-0.2,0.3-0.3,0.7-0.3,1.1
			c0.1,0.3,0.2,0.5,0.4,0.7c0.1,0.3,0.2,0.5,0.4,0.6c-0.1,0-0.2,0-0.3,0c-0.6,0.1-1,0.7-1,1.3c-0.1,0-0.2,0-0.3,0
			c-0.7,0.2-1.1,0.9-1,1.6c0,0.1,0,0.2,0.1,0.2c-0.1,0.2-0.1,0.4-0.1,0.6c0,0.8,0.6,1.4,1.3,1.4c0.5,0,1-0.3,1.2-0.8
			c0.3,0.4,0.8,0.5,1.2,0.4c0.3-0.1,0.5-0.2,0.7-0.4c0.1,0.1,0.3,0.2,0.4,0.2c-0.2,0.3-0.3,0.7-0.3,1.1c0.1,0.3,0.2,0.5,0.4,0.7
			c0.1,0.3,0.2,0.5,0.4,0.6c-0.1,0-0.2,0-0.3,0c-0.6,0.1-1,0.7-1,1.3c-0.1,0-0.2,0-0.3,0c-0.7,0.2-1.1,0.9-1,1.6
			c0,0.1,0,0.2,0.1,0.2c-0.1,0.1-0.1,0.3-0.1,0.4c-0.1,0-0.3-0.1-0.4-0.1c-0.7,0-1.3,0.6-1.3,1.4c0,0.8,0.6,1.4,1.3,1.4
			c0.7,0,1.2-0.5,1.3-1.2c0.1,0,0.3,0.1,0.4,0.1c0.5,0,1-0.3,1.2-0.8c0.3,0.3,0.6,0.5,1,0.5c-0.4,0.2-0.6,0.7-0.6,1.2
			c0,0.2,0,0.3,0.1,0.4c-0.2,0-0.3,0.1-0.5,0.2c-0.7,0.1-1.2,0.6-1.2,1.4c0,0.5,0.3,1,0.7,1.2c-0.2,0.2-0.4,0.6-0.4,0.9
			c0,0.8,0.6,1.4,1.3,1.4c0.7,0,1.3-0.6,1.3-1.4c0,0,0-0.1,0-0.1c0,0,0.1,0,0.1,0c0.4,0,0.8-0.2,1-0.6c0.1,0.6,0.6,1.1,1.3,1.1
			c0.5,0,1-0.3,1.2-0.8c0.2,0.2,0.5,0.3,0.8,0.3c0.7,0,1.3-0.6,1.3-1.4c0-0.8-0.6-1.4-1.3-1.4c-0.5,0-1,0.3-1.2,0.8
			c-0.2-0.2-0.5-0.3-0.8-0.3c-0.4,0-0.8,0.2-1,0.6c-0.1-0.5-0.5-1-1-1.1c0.5-0.2,0.9-0.7,0.9-1.3c0-0.8-0.6-1.4-1.3-1.4
			c0,0,0,0-0.1,0c0.4-0.3,0.7-0.9,0.6-1.4c-0.1-0.5-0.5-0.9-1-1c0,0,0,0,0,0c0.2,0,0.3,0,0.5,0c0.7-0.2,1.1-0.9,1-1.6c0,0,0,0,0-0.1
			c0.2,0.1,0.4,0.2,0.7,0.2c0.4,0,0.7-0.2,1-0.5c0,0,0.1,0.1,0.1,0.1c-0.2,0.2-0.4,0.6-0.4,0.9c0,0.3,0.1,0.5,0.2,0.7
			c-0.5,0.3-0.8,0.9-0.7,1.5c0,0.2,0.2,0.5,0.3,0.6c0,0.1-0.1,0.3-0.1,0.4c0,0.7,0.5,1.2,1.1,1.3c0,0.7,0.6,1.3,1.3,1.3
			c0.7,0,1.3-0.6,1.3-1.4c0-0.7-0.5-1.2-1.1-1.3c0-0.3-0.1-0.6-0.3-0.9c0.1-0.2,0.1-0.5,0-0.7c0-0.1-0.1-0.3-0.2-0.4
			c0.4-0.2,0.7-0.7,0.7-1.2c0,0,0-0.1,0-0.1c0,0,0.1,0,0.1,0c0.4,0,0.7-0.2,1-0.5c0.2,0.2,0.5,0.3,0.7,0.3c0.7,0,1.3-0.6,1.3-1.4
			c0-0.5-0.2-0.9-0.6-1.1c0.1-0.2,0.2-0.4,0.2-0.7c0-0.8-0.6-1.4-1.3-1.4c-0.1,0-0.1,0-0.2,0c0.1-0.2,0.2-0.5,0.2-0.7
			c0-0.8-0.6-1.4-1.3-1.4c-0.7,0-1.3,0.6-1.3,1.4c0,0,0,0.1,0,0.1c-0.2-0.1-0.4-0.1-0.6-0.1c-0.7,0-1.3,0.6-1.3,1.4
			c0,0.2,0,0.3,0.1,0.5c-0.3-0.4-0.8-0.6-1.3-0.5c0,0-0.1,0-0.1,0c0,0,0-0.1,0-0.1c-0.1-0.4-0.4-0.8-0.7-1c0.2-0.1,0.4-0.3,0.5-0.4
			c0.2,0.1,0.3,0.1,0.5,0.1c0.7,0,1.3-0.6,1.3-1.4c0-0.4-0.2-0.8-0.5-1.1c0.2-0.1,0.3-0.2,0.5-0.3c0.4-0.2,0.8-0.7,0.8-1.3
			c0-0.7-0.5-1.3-1.2-1.4c0-0.1,0-0.2,0-0.3c0-0.8-0.6-1.4-1.3-1.4c-0.7,0-1.3,0.6-1.3,1.4c0,0.2,0,0.3,0.1,0.5
			c-0.3-0.4-0.8-0.6-1.3-0.5c0,0-0.1,0-0.1,0c0,0,0-0.1,0-0.1c-0.1-0.4-0.4-0.8-0.7-1c0.5-0.3,0.9-0.9,0.7-1.5
			c0.2-0.1,0.3-0.2,0.5-0.4c0.2,0.4,0.6,0.6,1.1,0.6c0.7,0,1.3-0.6,1.3-1.4c0-0.6-0.3-1.1-0.8-1.3c0.1-0.2,0.1-0.3,0.1-0.5
			c0-0.2,0-0.4-0.1-0.5c0.2,0.2,0.5,0.3,0.8,0.3c0.3,0,0.5-0.1,0.7-0.2c0,0.8,0.6,1.4,1.3,1.4c0.1,0,0.1,0,0.2,0c0,0,0,0.1,0,0.1
			c0,0,0,0.1,0,0.1c-0.6,0.1-1,0.7-1,1.3c0,0.8,0.6,1.4,1.3,1.4c0.7,0,1.3-0.6,1.3-1.4c0,0,0-0.1,0-0.1c0.6-0.1,1-0.7,1-1.3
			c0-0.1,0-0.3-0.1-0.4c0.1-0.1,0.1-0.3,0.1-0.5c0-0.8-0.6-1.4-1.3-1.4c-0.1,0-0.1,0-0.2,0c0.1-0.2,0.2-0.5,0.2-0.7
			c0-0.8-0.6-1.4-1.3-1.4c-0.5,0-1,0.4-1.2,0.8c-0.2-0.3-0.6-0.5-1-0.5c0,0,0,0-0.1,0c0-0.1,0.1-0.2,0.1-0.4c0-0.1,0-0.1,0-0.2
			c0.2-0.2,0.4-0.6,0.4-1c0-0.8-0.6-1.4-1.3-1.4c0,0-0.1,0-0.1,0c0-0.1,0-0.1-0.1-0.2c0.6-0.1,1-0.7,1-1.3c0-0.2-0.1-0.4-0.1-0.6
			c0.2-0.2,0.3-0.6,0.3-0.9c0-0.3-0.1-0.6-0.3-0.8c0.5-0.2,0.8-0.7,0.8-1.3c0-0.5-0.2-0.9-0.5-1.1c0-0.1,0-0.2,0-0.3
			c0-0.4-0.2-0.8-0.5-1.1c0.4-0.2,0.6-0.7,0.6-1.2c0-0.4-0.2-0.8-0.5-1.1c0.3-0.2,0.5-0.5,0.6-0.9c0.1,0,0.2,0,0.3,0
			c0.7,0,1.3-0.6,1.3-1.4C164,127,163.4,126.4,162.7,126.4z M161.3,154.6c-0.1,0-0.1-0.1-0.2-0.1c0.1-0.1,0.1-0.1,0.2-0.2
			c0,0,0.1,0.1,0.1,0.1C161.4,154.5,161.4,154.5,161.3,154.6z M158.2,156.4c0.2-0.3,0.2-0.7,0.2-1c-0.1-0.3-0.2-0.6-0.4-0.8
			c0.1,0,0.2,0,0.3,0c0.4-0.1,0.8-0.4,0.9-0.8c0.1,0.5,0.5,0.9,0.9,1.1c-0.4,0.3-0.5,0.8-0.5,1.3c-0.1,0-0.2,0-0.3,0
			c-0.3,0.1-0.5,0.2-0.7,0.4C158.5,156.5,158.3,156.4,158.2,156.4z M161.8,160.8C161.8,160.8,161.8,160.8,161.8,160.8
			C161.8,160.8,161.8,160.8,161.8,160.8C161.7,160.8,161.8,160.8,161.8,160.8z M166.7,159.6C166.7,159.6,166.7,159.6,166.7,159.6
			C166.7,159.6,166.7,159.6,166.7,159.6C166.7,159.6,166.7,159.6,166.7,159.6z M163.9,159.3c0,0-0.1,0.1-0.1,0.1c0,0,0,0-0.1-0.1
			c0-0.1,0-0.1,0-0.2c0-0.1,0-0.2-0.1-0.2C163.7,159.1,163.8,159.2,163.9,159.3z M161.2,152.2c0,0-0.1,0.1-0.1,0.1c0,0,0,0-0.1-0.1
			c0-0.1,0-0.1,0-0.2c0-0.1,0-0.2-0.1-0.2C161,152,161.1,152.1,161.2,152.2z"/>
		<ellipse class="st10" cx="161.1" cy="127.7" rx="1.3" ry="1.4"/>
		<ellipse class="st10" cx="161.7" cy="144.2" rx="1.3" ry="1.4"/>
		<ellipse class="st10" cx="162.4" cy="146" rx="1.3" ry="1.4"/>
		<ellipse class="st10" cx="155.4" cy="154.9" rx="1.3" ry="1.4"/>
		<ellipse class="st8" cx="162.9" cy="133" rx="1.3" ry="1.4"/>
		<ellipse class="st10" cx="165" cy="154.3" rx="1.3" ry="1.4"/>
		<ellipse class="st10" cx="157.4" cy="152.3" rx="1.3" ry="1.4"/>
		<ellipse class="st10" cx="158.7" cy="154.2" rx="1.3" ry="1.4"/>
		<ellipse class="st10" cx="163.8" cy="153.4" rx="1.3" ry="1.4"/>
		<ellipse class="st10" cx="164.6" cy="151.3" rx="1.3" ry="1.4"/>
		<ellipse class="st10" cx="162.9" cy="136.1" rx="1.3" ry="1.4"/>
		<ellipse class="st10" cx="160" cy="146.7" rx="1.3" ry="1.4"/>
		<ellipse class="st10" cx="162" cy="137.5" rx="1.3" ry="1.4"/>
		<ellipse class="st10" cx="161.4" cy="125.9" rx="1.3" ry="1.4"/>
		<ellipse class="st10" cx="156.8" cy="153.9" rx="1.3" ry="1.4"/>
		<ellipse class="st10" cx="160.2" cy="131.8" rx="1.3" ry="1.4"/>
		<ellipse class="st8" cx="166" cy="152.6" rx="1.3" ry="1.4"/>
		<ellipse class="st8" cx="163" cy="164.1" rx="1.3" ry="1.4"/>
		<ellipse class="st8" cx="162.6" cy="162.3" rx="1.3" ry="1.4"/>
		<ellipse class="st8" cx="164.2" cy="167" rx="1.3" ry="1.4"/>
		<ellipse class="st8" cx="169.1" cy="163.2" rx="1.3" ry="1.4"/>
		<ellipse class="st8" cx="157.4" cy="163.1" rx="1.3" ry="1.4"/>
		<ellipse class="st8" cx="159" cy="167.5" rx="1.3" ry="1.4"/>
		<ellipse class="st8" cx="157.3" cy="168.2" rx="1.3" ry="1.4"/>
		<ellipse class="st8" cx="166.9" cy="165.1" rx="1.3" ry="1.4"/>
		<ellipse class="st8" cx="164.6" cy="169.3" rx="1.3" ry="1.4"/>
		<ellipse class="st8" cx="154.7" cy="161.8" rx="1.3" ry="1.4"/>
		<ellipse class="st10" cx="161.3" cy="152.3" rx="1.3" ry="1.4"/>
		<ellipse class="st10" cx="162.1" cy="154.3" rx="1.3" ry="1.4"/>
		<ellipse class="st10" cx="158.4" cy="161.1" rx="1.3" ry="1.4"/>
		<ellipse class="st10" cx="155.9" cy="161.6" rx="1.3" ry="1.4"/>
		<ellipse class="st10" cx="155.6" cy="163.5" rx="1.3" ry="1.4"/>
		<ellipse class="st10" cx="156.9" cy="161.7" rx="1.3" ry="1.4"/>
		<ellipse class="st10" cx="168.4" cy="160.9" rx="1.3" ry="1.4"/>
		<ellipse class="st10" cx="166.9" cy="162.3" rx="1.3" ry="1.4"/>
		<ellipse class="st10" cx="169.6" cy="160" rx="1.3" ry="1.4"/>
		<ellipse class="st10" cx="167.5" cy="157.2" rx="1.3" ry="1.4"/>
		<ellipse class="st10" cx="160.4" cy="166.4" rx="1.3" ry="1.4"/>
		<ellipse class="st10" cx="159.4" cy="165.1" rx="1.3" ry="1.4"/>
		<ellipse class="st10" cx="157.8" cy="164.9" rx="1.3" ry="1.4"/>
		<ellipse class="st10" cx="162.8" cy="158.2" rx="1.3" ry="1.4"/>
		<ellipse class="st10" cx="164.3" cy="157" rx="1.3" ry="1.4"/>
		<ellipse class="st10" cx="163.4" cy="155.5" rx="1.3" ry="1.4"/>
		<ellipse class="st10" cx="166.5" cy="150.5" rx="1.3" ry="1.4"/>
		<ellipse class="st10" cx="156" cy="165.3" rx="1.3" ry="1.4"/>
		<ellipse class="st10" cx="162.1" cy="123.8" rx="1.3" ry="1.4"/>
		<g>
			<ellipse class="st8" cx="160.8" cy="184.7" rx="1.3" ry="1.4"/>
			<ellipse class="st8" cx="162.4" cy="189.1" rx="1.3" ry="1.4"/>
			<ellipse class="st8" cx="160.7" cy="189.8" rx="1.3" ry="1.4"/>
			<ellipse class="st8" cx="160.9" cy="187.3" rx="1.3" ry="1.4"/>
			<ellipse class="st10" cx="163.8" cy="188" rx="1.3" ry="1.4"/>
			<ellipse class="st9" cx="160.5" cy="182.2" rx="1.3" ry="1.4"/>
			<ellipse class="st9" cx="161.8" cy="184.7" rx="1.3" ry="1.4"/>
			<ellipse class="st9" cx="161.5" cy="186.7" rx="1.3" ry="1.4"/>
			<ellipse class="st9" cx="162.8" cy="184.9" rx="1.3" ry="1.4"/>
			<ellipse class="st9" cx="162.3" cy="183.5" rx="1.3" ry="1.4"/>
			<ellipse class="st9" cx="163.2" cy="183" rx="1.3" ry="1.4"/>
			<ellipse class="st9" cx="158.8" cy="184" rx="1.3" ry="1.4"/>
			<ellipse class="st10" cx="162.7" cy="182.4" rx="1.3" ry="1.4"/>
			<ellipse class="st10" cx="159.5" cy="188.4" rx="1.3" ry="1.4"/>
			<ellipse class="st10" cx="158.6" cy="182.4" rx="1.3" ry="1.4"/>
			<ellipse class="st10" cx="162" cy="181.1" rx="1.3" ry="1.4"/>
			<ellipse class="st10" cx="163.8" cy="186.4" rx="1.3" ry="1.4"/>
			<ellipse class="st10" cx="160.3" cy="186.6" rx="1.3" ry="1.4"/>
		</g>
		<path class="st7" d="M162.3,201.3c0.1,0,1,0.8,1.1,1.2c0.3,1.9-0.8,6,1.9,7.7c0,0-0.1-2.1,0.2-1.3c0.4,0.7,1.4,3,2,3.2
			c0,0-0.4-2.1,0.2-1.1c0.6,1,2,3.2,3.2,3.5c0,0-0.5-1.5,0-1c0.4,0.5,1.8,1.8,2.6,2.4c0.5,0.4,1.6,2.4,2.2,2.1c0,0-0.7-0.5-0.9-1.4
			c-0.2-1,0.3-5.4-0.3-5.9c0,0,0.7,0.2,0.9,0.6s-0.6-2-1.3-2.3c2.1,1.6-1-1.7-1.4-1.8c-0.4-0.2,0.9,0.5,0.8,0.2
			c-0.9-2.1-5.3-4-4.6-3.9c0.7,0.2,1.6-0.1,1.3-0.2c-0.3-0.1-1.7-0.6-2.5-0.8C166.7,202.1,162.3,201.3,162.3,201.3z"/>
		<ellipse class="st8" cx="164.5" cy="204.7" rx="1.3" ry="1.4"/>
		<ellipse class="st8" cx="162.7" cy="205.4" rx="1.3" ry="1.4"/>
		<ellipse class="st8" cx="162.9" cy="203" rx="1.3" ry="1.4"/>
		<ellipse class="st10" cx="165.8" cy="203.7" rx="1.3" ry="1.4"/>
		<ellipse class="st9" cx="164.6" cy="202.2" rx="1.3" ry="1.4"/>
		<ellipse class="st10" cx="161.5" cy="204" rx="1.3" ry="1.4"/>
		<ellipse class="st10" cx="164.3" cy="200.8" rx="1.3" ry="1.4"/>
		<ellipse class="st10" cx="162.4" cy="202.2" rx="1.3" ry="1.4"/>
		<ellipse class="st9" cx="163.6" cy="202.3" rx="1.3" ry="1.4"/>
	</g>
	<g>
		<path class="st4" d="M205.9,239.2c-2.3-2.6-5.5-4.6-9.6-4.5c-4.2,0.2-6.1,5.6-7.2,6.1c-0.8,0.3-2.3,1.2-3,1.6
			c0.1-3.9,0.2-8.6,0.2-13.2c0.7-0.6,2.1-1.3,3.7-0.7c2.5,0.9,3.5,2.8,4.1,2.4c0.5-0.4-0.8-3.9-2.6-5c-1.8-1-3.7-1.3-5.2-0.2
			c0.1-6.1,0.1-11.4,0.1-14.2c0.8-0.2,2.2-0.7,2.7-2.2c0.5-1.3,0.5-2,0.5-2s-0.2,0-0.4,0c0.3-0.9,0.3-1.4,0.3-1.4s-1.9-0.1-3.1,0.8
			c-0.1-0.1-0.1-0.2-0.2-0.3c0.3,0,0.8-0.3,1.5-1c1.5-1.5,0.3-4.6,0.3-4.6s-0.6,0.3-1.5,1.2c-0.3,0.3-0.5,0.6-0.7,1
			c-0.1-0.2-0.2-0.3-0.3-0.5c0-0.1,0-0.1,0.1-0.2c0.3-0.1,0.8-0.3,1.4-1c1.5-1.5,0.3-4.6,0.3-4.6s-0.6,0.3-1.5,1.2
			c-0.1,0.1-0.2,0.3-0.3,0.4c-0.1-0.3-0.2-0.5-0.3-0.8c0,0,0,0,0-0.1c0.3-0.2,0.5-0.4,0.9-0.7c1.5-1.5,0.3-4.6,0.3-4.6
			s-0.3,0.2-0.9,0.6c0.6-1.6-0.2-3.8-0.2-3.8s-0.4,0.2-1.2,0.9c-0.6-1.3-1.8-2.3-1.8-2.3s-0.3,0.6-0.7,1.9c-0.1,0.3-0.1,0.6-0.1,0.8
			c-0.7-0.1-1.2-0.1-1.2-0.1s0,0.7,0.4,2c0.3,0.9,0.9,1.4,1.5,1.8c0,0.2,0,0.4,0,0.6c-1-0.3-1.9-0.3-1.9-0.3s0,0.7,0.4,2
			c0.4,1.1,1.3,1.8,2.1,2.1c0,0.1,0.1,0.1,0.1,0.2c0,0.2,0,0.5,0.1,0.7c-1.1-0.6-2.5-0.6-2.5-0.6s0,0.7,0.4,2c0.5,1.4,1.8,2,2.7,2.3
			c0,0.2-0.1,0.3-0.1,0.5c-1.2-0.9-3-0.9-3-0.9s0,0.7,0.4,2c0,0.1,0.1,0.1,0.1,0.2c-0.4,0-0.7,0.1-0.7,0.1s0.1,0.7,0.7,1.9
			c0.5,1,1.4,1.4,2.2,1.6c-1.1-0.2-2.2,0-2.2,0s0.1,0.7,0.7,1.9c0.9,1.8,3.1,1.8,3.6,1.8c0.1,3.2,0,7.2-0.1,13
			c-0.1-0.1-0.1-0.2-0.2-0.2c-1.6-1.5-3.6-1.2-5.5-0.1c-1.8,1-3.1,4.5-2.6,5c0.5,0.4,1.6-1.5,4.1-2.4c2-0.7,3.5,0.5,4.1,1
			c0.1,0.9-0.1,4.9-0.2,6.5c-0.7,0.4-2.3,1.3-3.2,1c0,0-3.7-2.7-8.6-0.2s-7,5.7-8.9,6.1c-1.8,0.4,0.9,1.3,3.9,2.8
			c3,1.5,5.7,1.4,9.5-0.4c3.9-1.8,4.3-4.1,4.9-5.3c0.5-1.1,1.6-1.9,2.3-2.4c-0.4,7.4-1.1,12.4-0.8,15.4c0,0.3,1,0.6,1.2,0.3
			c0.2-0.4,0.8-4.2,1-8.8c0.6-0.4,2.5-1.4,3.3-0.7c0,0,6,5.6,11.3,5.1s9-3.4,10.9-3.1C213.4,244.9,208.3,241.7,205.9,239.2z
			 M184.1,208.6c0,0.1,0.1,0.2,0.1,0.3c-0.3-0.2-0.7-0.4-1-0.4C183.6,208.5,183.9,208.6,184.1,208.6z"/>
		<path class="st5" d="M183.5,190.5c-0.1-0.2-1-0.9-1-1.2c0-0.3-0.2-0.6-0.4-0.6c-0.3,0-0.5,0.2-0.6,0.4c-0.1,0.5-1.1,1.3-1.3,1.6
			c-0.3,0.5-0.3,1-0.1,1.2c0.1,0.1,0.3,0,0.4-0.1c0.2,0.7,0.6,1,0.8,1c0.4,0,0.3-0.3,0.6-0.3c0.3,0,0.2,0.2,0.5,0.3
			c0.4,0.1,0.7-0.5,0.9-1.3c0.2,0.1,0.4,0.1,0.5,0C184,191.5,183.9,191,183.5,190.5z"/>
		<path class="st6" d="M181.9,190.5c0-0.1,0-0.2-0.1-0.3c-0.1,0-0.2,0-0.2,0.1c0,0-0.4,0.9-0.4,0.9c0,0.1,0,0.3,0.1,0.3
			c0.1,0,0.2-0.1,0.2-0.2C181.6,191.4,181.9,190.5,181.9,190.5z"/>
		<path class="st6" d="M182.1,190.6c0-0.1,0-0.2,0.1-0.2s0.2,0.1,0.2,0.2c0,0,0.3,0.9,0.3,1c0,0.2-0.1,0.3-0.2,0.3
			c-0.1,0-0.2-0.1-0.2-0.3C182.2,191.4,182.1,190.6,182.1,190.6z"/>
		<path class="st5" d="M189.8,208c-0.2-0.1-1.2-0.4-1.3-0.7c-0.1-0.3-0.3-0.4-0.6-0.4c-0.3,0.1-0.4,0.4-0.4,0.7
			c0.1,0.5-0.6,1.7-0.6,2c-0.1,0.6,0.1,1.1,0.4,1.1c0.1,0,0.3-0.1,0.4-0.2c0.4,0.5,1,0.7,1.1,0.6c0.3-0.1,0.2-0.4,0.4-0.5
			c0.3-0.1,0.3,0.1,0.6,0.1c0.4,0,0.5-0.8,0.3-1.6c0.2,0,0.4-0.1,0.4-0.2C190.6,208.7,190.3,208.2,189.8,208z"/>
		<path class="st6" d="M188.3,208.7c0-0.1-0.1-0.2-0.1-0.2c-0.1,0-0.1,0.1-0.1,0.2c0,0-0.1,1,0,1c0,0.1,0.1,0.2,0.2,0.2
			c0.1,0,0.2-0.2,0.1-0.3C188.3,209.6,188.3,208.7,188.3,208.7z"/>
		<path class="st6" d="M188.5,208.6c-0.1-0.1-0.1-0.2,0-0.3c0.1,0,0.2,0,0.2,0.1c0,0,0.6,0.8,0.6,0.8c0.1,0.1,0,0.3-0.1,0.3
			c-0.1,0-0.2,0-0.3-0.2C188.9,209.3,188.5,208.6,188.5,208.6z"/>
		<path class="st5" d="M184.4,202.8c-0.1-0.2-0.8-1-0.8-1.4c0-0.3-0.1-0.6-0.3-0.7s-0.5,0.1-0.6,0.3c-0.2,0.4-1.3,1.1-1.5,1.3
			c-0.4,0.4-0.5,0.9-0.3,1.1c0.1,0.1,0.3,0.1,0.4,0c0.1,0.7,0.5,1.1,0.6,1.2c0.4,0.1,0.3-0.2,0.6-0.1c0.3,0.1,0.2,0.3,0.4,0.4
			c0.3,0.2,0.8-0.4,1.1-1.1c0.2,0.1,0.3,0.2,0.5,0.1C184.7,203.8,184.7,203.3,184.4,202.8z"/>
		<path class="st6" d="M182.8,202.4c0.1-0.1,0.1-0.2,0-0.3c-0.1,0-0.2,0-0.2,0.1c0,0-0.5,0.8-0.6,0.8c-0.1,0.1,0,0.3,0.1,0.3
			s0.2,0,0.3-0.2C182.4,203.2,182.8,202.4,182.8,202.4z"/>
		<path class="st6" d="M183,202.5c0-0.1,0.1-0.2,0.1-0.2s0.1,0.1,0.1,0.2c0,0,0.1,1,0.1,1c0,0.1-0.1,0.3-0.2,0.2
			c-0.1,0-0.2-0.2-0.1-0.3C183,203.4,183,202.5,183,202.5z"/>
		<path class="st5" d="M186,192.4c-0.2-0.1-1.2-0.5-1.3-0.8c-0.1-0.3-0.3-0.5-0.6-0.4s-0.4,0.3-0.4,0.6c0.1,0.5-0.7,1.7-0.7,1.9
			c-0.1,0.6,0,1.1,0.3,1.1c0.1,0,0.3-0.1,0.4-0.2c0.4,0.5,0.9,0.7,1,0.7c0.4-0.1,0.2-0.4,0.4-0.5c0.3-0.1,0.3,0.1,0.6,0.1
			c0.4,0,0.5-0.8,0.4-1.5c0.2,0,0.4,0,0.4-0.2C186.7,193.1,186.5,192.6,186,192.4z"/>
		<path class="st6" d="M184.4,192.9c0-0.1-0.1-0.2-0.1-0.2s-0.1,0.1-0.1,0.2c0,0-0.1,1-0.1,1c0,0.1,0.1,0.3,0.2,0.2
			c0.1,0,0.2-0.1,0.1-0.3C184.4,193.9,184.4,192.9,184.4,192.9z"/>
		<path class="st6" d="M184.6,192.9c-0.1-0.1-0.1-0.2,0-0.3c0.1,0,0.2,0,0.2,0.1c0,0,0.5,0.8,0.5,0.8c0,0.1,0,0.3-0.1,0.3
			c-0.1,0-0.2,0-0.3-0.2C185.1,193.7,184.6,192.9,184.6,192.9z"/>
		<path class="st5" d="M187.7,203.1c-0.2-0.1-1.2-0.5-1.3-0.8c-0.1-0.3-0.3-0.5-0.6-0.4s-0.4,0.3-0.4,0.6c0.1,0.5-0.7,1.7-0.7,1.9
			c-0.1,0.6,0,1.1,0.3,1.1c0.1,0,0.3-0.1,0.4-0.2c0.4,0.5,0.9,0.7,1,0.7c0.4-0.1,0.2-0.4,0.4-0.5c0.3-0.1,0.3,0.1,0.6,0.1
			c0.4,0,0.5-0.8,0.4-1.5c0.2,0,0.4,0,0.4-0.2C188.5,203.8,188.2,203.4,187.7,203.1z"/>
		<path class="st6" d="M186.2,203.7c0-0.1-0.1-0.2-0.1-0.2s-0.1,0.1-0.1,0.2c0,0-0.1,1-0.1,1c0,0.1,0.1,0.3,0.2,0.2
			c0.1,0,0.2-0.1,0.1-0.3C186.2,204.6,186.2,203.7,186.2,203.7z"/>
		<path class="st6" d="M186.4,203.6c-0.1-0.1-0.1-0.2,0-0.3c0.1,0,0.2,0,0.2,0.1c0,0,0.5,0.8,0.5,0.8c0,0.1,0,0.3-0.1,0.3
			c-0.1,0-0.2,0-0.3-0.2C186.8,204.4,186.4,203.6,186.4,203.6z"/>
		<path class="st5" d="M185.1,210.2c-0.1-0.2-0.8-1-0.8-1.4c0-0.3-0.1-0.6-0.3-0.7c-0.3-0.1-0.5,0.1-0.6,0.3
			c-0.2,0.4-1.3,1.1-1.5,1.3c-0.4,0.4-0.5,1-0.3,1.2c0.1,0.1,0.3,0.1,0.4,0c0.1,0.7,0.5,1.1,0.6,1.2c0.4,0.1,0.3-0.2,0.6-0.1
			c0.3,0.1,0.2,0.3,0.4,0.4c0.3,0.2,0.8-0.4,1.1-1.1c0.2,0.1,0.3,0.2,0.5,0.1C185.4,211.3,185.4,210.7,185.1,210.2z"/>
		<path class="st6" d="M183.5,209.9c0.1-0.1,0.1-0.2,0-0.3s-0.2,0-0.2,0.1c0,0-0.5,0.8-0.6,0.8c-0.1,0.1,0,0.3,0.1,0.3
			s0.2,0,0.3-0.2C183.1,210.7,183.5,209.9,183.5,209.9z"/>
		<path class="st6" d="M183.7,210c0-0.1,0.1-0.2,0.1-0.2c0.1,0,0.1,0.1,0.1,0.2c0,0,0.1,1,0.1,1c0,0.1-0.1,0.3-0.2,0.2
			c-0.1,0-0.2-0.2-0.1-0.3C183.7,210.9,183.7,210,183.7,210z"/>
	</g>
	<path class="st11" d="M230,253c0.9-1.7,1.5-5.4-2.6-12.9c-0.1,3-0.8,5.4-1.7,7.6c0.6,2,1.1,3.8,0.5,5.3h-1
		c1.4-3.7-3.9-9.8-1.3-15.9c-1.9,2.7-3.1,5.7-4,7.4l-0.1,0.6c-0.7-3.7-2.4-8.2-6-12.6c1.4,3.4,0.7,8,0,12.2c0.8,3.3,1,6.6,1.1,8.3
		h-0.9c-0.2-3.2-1-12.2-4.6-15.7c1.4,3.2,0.1,6.4-1.1,9.3c-0.8-3.3-2.5-7.4-6.1-11.8c1.6,3.8,0.7,8.3,0.3,12.2c-0.8-2-1.9-4-3.3-5.2
		c-0.9,0.7-1.5,1.5-2,2.4c0.8,3.2,1.3,6.6,1.2,8.9h-0.9c0.3-4.8-2.2-14.4-4.5-17.3c-1.4,1.7-2.9,6-3.8,10.2
		c-1.1-3.6-3.1-8.1-6.8-12.7c1.4,3.4,0.9,7.9,0.5,11.9c-0.5-1-1.1-2.1-2-3.3c-1.3,1.1-2.2,2.4-2.8,3.7c0.1,0.6,0.3,1.2,0.4,1.8
		c0.5,2.1,1,4,0.3,5.6h-0.9c1.5-3.5-2.9-8.7-0.4-14.7c-2.6,3.8-4.2,5.9-5,8.2l0,0c-1-3.3-2.9-7.3-6.5-11.8c1.4,3.4,1.1,7.5,0.9,11.1
		c-0.5-1.2-1.2-2.6-2.3-4c-4.1,3.4-3.5,8.8-3,11.2h-0.9c-0.4-1.7-0.8-5,0.5-8c-0.8-3.6-1.6-7.6-0.2-10.8c-3.1,3.8-4.5,7.5-5.1,10.5
		l-0.1-0.4c-0.9-1.6-2.2-4.1-4-6.7c2.5,6-2,11.8-0.4,15.4h-1c-0.6-1.5-0.3-3.3,0.2-5.3c-1.1-2.2-2-4.4-2.2-7.4
		c-0.5,1.4-1,2.7-1.3,3.8c-0.5-1.3-1.1-2.6-2-4.2c-0.1,3-0.8,5.4-1.7,7.6c0.6,2.1,1.1,3.9,0.5,5.5h-1c1.7-3.7-3.8-9.9-1.3-16
		c-1.9,2.7-3.1,5.7-4,7.4l-0.1,0.6c-0.7-3.7-2.4-8.2-6-12.6c1.4,3.4,0.7,8,0,12.2c0.8,3.4,1.1,6.8,1.1,8.5h-0.9
		c-0.1-3-0.9-12.3-4.6-15.9c1.4,3.2,0.1,6.4-1.1,9.3c-0.8-3.3-2.5-7.4-6.1-11.8c1.6,3.8,0.7,8.3,0.3,12.2c-0.8-2-1.9-4-3.3-5.2
		c-0.9,0.7-1.5,1.5-2,2.4c0.8,3.3,1.3,6.8,1.2,9.1h-0.9c0.4-4.7-2.2-14.6-4.5-17.4c-1.4,1.7-2.9,6-3.8,10.2
		c-1.1-3.6-3.1-8.1-6.8-12.7c1.4,3.4,0.9,7.9,0.5,11.9c-0.5-1-1.1-2.1-2-3.3c-1.3,1.1-2.2,2.4-2.8,3.7c0.1,0.6,0.3,1.2,0.4,1.8
		c0.6,2.2,1,4.1,0.3,5.8h-0.9c1.8-3.5-2.9-8.7-0.3-14.9c-2.6,3.8-4.2,5.9-5,8.2l0,0c-1-3.3-2.9-7.3-6.5-11.8
		c1.4,3.4,1.1,7.5,0.9,11.1c-0.5-1.2-1.2-2.6-2.3-4c-4.3,3.5-3.5,9.1-2.9,11.4h-0.9c-0.4-1.7-0.9-5.1,0.4-8.2
		c-0.8-3.6-1.6-7.6-0.2-10.8c-3.1,3.8-4.5,7.5-5.1,10.5l-0.1-0.4c-0.9-1.6-2.2-4.1-4-6.7c2.6,6.1-2.1,12-0.3,15.6h-1
		c-0.7-1.5-0.4-3.4,0.1-5.4c-1.1-2.2-2-4.4-2.2-7.4c-3,8-2.7,11.4-2.1,12.9H57v13.9h180.1V253H230z"/>
	<path class="st11" d="M137.1,87.7c-0.8-3.2-4.3-13.6-3.4-16.4c0.9-2.8-5.2-9.5-3.7-12.9c1.6-3.4-1.7-10.7-1.2-13.4
		c0.5-2.8-5.8-6-5.6-9.5c0.2-3.5-3.4-10.8-3.2-15S107.7,6.9,105.7,7.7c-2.2-1.4-4.6-2.4-4.7-0.2c-0.3,4.2-11.7,6.2-12,10.4
		s-4.8,10.9-5,14.4c-0.2,3.5-6.9,5.9-6.7,8.7c0.2,2.8-4,9.6-2.9,13.2s-5.7,9.5-5.2,12.3c0.5,2.8-4.2,12.7-5.4,15.8
		c-1.2,3.1,5.6,14.1,5.6,14.1s-6,8.7-4.1,10.3c2,1.5-0.8,12.6-1.1,17.5c-0.3,4.9,8.3,10,11.9,13.4c3.6,3.4,3.3,7.9,9.8,14
		c2.7,2.5,5.2,4.1,7.4,5.1l5.2,1.7l0.1-0.8c2.2-0.7,5-1.9,7.9-4c7.2-5.1,7.5-9.7,11.4-12.6c4-2.9,13.1-6.8,13.4-11.7
		c0.3-4.9-1.1-16.2,1.1-17.5c2.1-1.3-2.8-10.7-2.8-10.7S137.9,90.9,137.1,87.7z"/>
	<path class="st11" d="M234.3,83.1c-1.2-3.1-5.9-13-5.3-15.8s-6.3-8.8-5.1-12.3c1.2-3.6-3-10.4-2.8-13.2c0.2-2.8-6.5-5.2-6.6-8.7
		s-4.7-10.3-4.9-14.5c-0.2-4.2-13.7-12-15.6-11c-2.3-1.1-4.8-1.8-4.7,0.4c0.2,4.2-10.9,7.7-10.7,11.9s-3.5,11.4-3.3,14.9
		c0.2,3.5-6.1,6.7-5.7,9.5c0.5,2.8-2.9,10-1.3,13.4c1.6,3.4-4.6,10.1-3.8,12.9c0.8,2.8-2.7,13.2-3.6,16.4
		c-0.9,3.2,7.2,13.3,7.2,13.3s-5,9.4-2.8,10.7s0.7,12.6,1,17.5c0.3,4.9,9.4,8.9,13.3,11.8c3.9,2.9,4.2,7.5,11.3,12.7
		c2.9,2.1,5.7,3.4,7.9,4.1l5.4,1.1l0-0.8c2.1-1,4.7-2.6,7.4-5c6.5-6,6.3-10.6,9.9-13.9c3.6-3.4,12.2-8.5,12-13.4
		c-0.3-4.9-2.9-16-1-17.5c2-1.5-4-10.3-4-10.3S235.5,86.1,234.3,83.1z"/>
	<path class="st12" d="M63.3,285.9l1.1,1c2.3-2.6,4-4.5,10.1-5.8c-1.6,1.6-3.8,4.1-4.4,6.4l1.5,0.4c0.4-1.6,1.7-3.3,3-4.6
		c1.6-0.8,3.8-1.6,5.8-1.9c2-0.3,6.6-3.2,10.5-5.9c-0.4,2.7-0.9,6.2-1.3,8.7c-1.3,3.5-2.5,6.2-3,7c-1.4,0.2-11,1.6-15.2,1.1
		l-0.2,1.5c0.6,0.1,1.4,0.1,2.2,0.1c3.1,0,7.2-0.4,10.1-0.8c-7.7,4.6-14.8,6.4-14.9,6.4L69,301c0.4-0.1,8.6-2.1,17-7.6
		c-2,3.1-4.3,7.5-4.6,10.6l1.5,0.1c0.3-4.9,6.8-13.5,6.9-13.6l0,0c4.6-4.3,7.8-10.5,9.6-14.7c1.6,3.3,2.2,6.6,2.4,9.5
		c-2.3,15.3-9.6,31.9-9.7,32.1l1.4,0.6c0.2-0.5,2.5-5.6,4.8-12.6c0.8,2.7,2.5,7.4,4.4,10.1l1.2-0.9c-2.6-3.5-4.7-11.5-4.7-11.6
		l-0.1,0c1.3-4.2,2.6-8.8,3.5-13.5l2.7-7.8c0.3,0.4,0.6,0.9,1,1.3c3.5,4.6,7.9,10.4,9.9,16.5l1.5-0.5c-1.4-4.2-3.8-8.2-6.3-11.8
		c-0.8-1.8-1.6-3.8-2.3-5.5l5.2,3.7c3.9,4.3,7.6,8,7.7,8.2l1.1-1.1c0,0-5.8-5.8-10.1-10.7l-2.4-3.1l-0.6-0.6
		c-0.2-0.3-0.4-0.6-0.6-0.8c1.7,0.9,8.9,2.5,10.4,2.5c0.1,0,0.3,0,0.4,0l-0.2-1.5c-1.7,0.2-10.3-2.4-12.3-3.6
		c-1.5-2.6-2.7-5.4-3.4-8.3l0.4-0.2c-1.1-2.4-1.9-23.6-3.1-43.1c0,0-0.8-69.1-0.5-70.5c2.5-12.7,5.7-19,10.8-24.4
		c2.1-1.7,3.5-3.1,3.7-3.3l0.1-0.1l0.1-0.2c0,0,0-0.1,0-0.1c1.9-1.6,4-3.3,6.4-5.2c2.1-1.6,4.3-3.4,6.7-5.5l-1-1.2
		c-2.4,2-4.7,3.8-6.7,5.5c-1.7,1.3-3.2,2.5-4.6,3.7c1.5-5.3,4.6-16.8,5.2-23.9l-1.5-0.1c-0.7,8.3-5,22.9-5.8,25.9
		c-1.3,1.1-2.5,2.2-3.6,3.4c-2.1,1.8-4.7,3.8-7,5.1c-0.1-1-0.3-2.3-0.6-3.7c1.3-6.6,2.9-14.1,4.6-21.6c0.3-0.4,0.8-1.1,1.6-2.4
		c3.6-5.3,11.9-17.6,16.4-19.5l-0.6-1.4c-4.7,2.1-12.4,13.2-16.5,19.2c1.7-7.4,3.4-14.5,4.9-20.4c2.4-6.4,5.6-8.5,11.5-12.3l1.7-1.1
		l-0.8-1.3l-1.7,1.1c-3.9,2.5-6.7,4.3-9,7.2c0.1-0.2,0.1-0.3,0.1-0.3l0,0c3-10.7,7.3-24.4,7.4-24.6l-1.5-0.5
		c-0.1,0.2-4.6,14.4-7.6,25.2c-1.3,3.9-8,23.7-12.6,39.5c0.3-8.4,0.6-17.2,0.8-26.1c1.5-3,5.1-10.5,7.8-19.4
		c1.9-6.3,3.2-12.1,3.6-17.3L112,52c-0.4,5.1-1.6,10.8-3.5,17c0,0,0,0.1,0,0.1c-0.6-6-1.4-19.9,1.1-29.1l-1.5-0.4
		c-3.3,11.9-1.1,30.9-0.7,32.7l0,0c-1.8,5.2-3.7,9.6-5.1,12.7c0.3-7.9,0.5-15.7,0.8-23.1c0.3-4.2,0.4-7.6,0.4-9.7l0,0
		c0.6-19.4,1.1-33.6,1.2-34.3l-1.5-0.3c0,0.2-0.3,6.3-0.6,15.8c-0.7-2.6-1.9-6.1-3.6-9.8l-1.4,0.7c3.6,7.5,4.9,14.1,4.9,14.1
		c-0.2,6.8-0.5,14.8-0.8,23.3c-0.4,6.4-1.2,14.7-2.2,23.5c-1.5-3-3.7-8.1-5.8-14.1l0,0c0.5-1.8,2.6-20.8-0.7-32.7l-1.5,0.4
		c2.5,9.1,1.7,23.1,1.1,29.1c0,0,0-0.1,0-0.1c-1.9-6.2-3.1-11.9-3.5-17L87.3,51c0.4,5.2,1.6,11,3.6,17.3c2.9,9.4,6.7,17.3,8.1,19.9
		c-0.6,5.7-1.3,11.5-1.9,17.1c-4.2-13.7-8.9-27.7-10-31c-3-10.8-7.5-25-7.6-25.2L78,49.5c0.1,0.2,4.4,13.9,7.4,24.6l0,0
		c0,0,0,0.1,0.1,0.3c-2.2-2.9-5.1-4.7-9-7.2l-1.7-1.1L74,67.5l1.7,1.1c5.9,3.8,9.2,5.8,11.5,12.3c1.5,5.9,3.2,13,4.9,20.4
		C88,95.2,80.3,84,75.5,82l-0.6,1.4c4.6,2,12.9,14.3,16.4,19.5c0.9,1.3,1.3,2,1.6,2.4c0.9,4,1.8,8,2.6,11.9
		c-0.6,4.9-1.1,9.1-1.5,12.4c-3.9-2.2-8.7-6.4-10.9-8.4c-0.6-1.9-5.2-17.6-5.9-26.2l-1.5,0.1c0.8,9.3,5.8,26,6,26.7l0.1,0.2l0.1,0.1
		c-1.6-0.8-3.4-1.8-5-2.7c-0.6-0.5-1.3-1-1.9-1.5c-2-1.6-4.3-3.4-6.7-5.5l-1,1.2c2.4,2,4.7,3.8,6.7,5.5
		c10.1,8.1,15.5,12.4,19.3,25.8c0,0,3.3,95.3-4.2,120.8l-1.5,2.8c-0.3,0.3-0.5,0.7-0.8,1.1c-2.9,3.8-6.8,8.9-10,9.4
		C68.4,280.5,66.3,282.5,63.3,285.9z M102.5,132.5C102.5,132.5,102.5,132.5,102.5,132.5C102.5,132.5,102.5,132.5,102.5,132.5
		C102.5,132.5,102.5,132.5,102.5,132.5z M100.4,246.4c0,0.3,0.1,0.5,0.1,0.7l-0.1-0.1V246.4z M75.3,282.5c1-1,1.8-1.7,2.1-1.9
		c0,0,0.1,0,0.1,0C76.8,281.2,76,281.9,75.3,282.5z"/>
	<path class="st12" d="M221.9,276.1c-3.2-0.5-7.1-5.7-10-9.4c-0.3-0.4-0.5-0.7-0.8-1.1l-1.5-2.8c-7.4-25.5-4.2-120.8-4.2-120.8
		c3.8-13.4,9.2-17.7,19.3-25.8c2.1-1.6,4.3-3.4,6.7-5.5l-1-1.2c-2.4,2-4.7,3.8-6.7,5.5c-0.7,0.5-1.3,1-1.9,1.5
		c-1.5,0.9-3.3,1.8-5,2.7l0.1-0.1l0.1-0.2c0.2-0.7,5.2-17.4,6-26.7l-1.5-0.1c-0.8,8.6-5.4,24.3-5.9,26.2c-2.2,2-7,6.2-10.9,8.4
		c-0.4-3.3-1-7.6-1.5-12.4c0.8-3.9,1.7-7.9,2.6-11.9c0.3-0.4,0.8-1.1,1.6-2.4c3.6-5.3,11.9-17.6,16.4-19.5l-0.6-1.4
		c-4.7,2.1-12.4,13.2-16.5,19.2c1.7-7.4,3.4-14.5,4.9-20.4c2.4-6.4,5.6-8.5,11.5-12.3l1.7-1.1l-0.8-1.3l-1.7,1.1
		c-3.9,2.5-6.7,4.3-9,7.2c0.1-0.2,0.1-0.3,0.1-0.3l0,0c3-10.7,7.3-24.4,7.4-24.6l-1.5-0.5c-0.1,0.2-4.6,14.4-7.6,25.2
		c-1.1,3.2-5.8,17.3-10,31c-0.7-5.5-1.3-11.4-1.9-17.1c1.3-2.6,5.1-10.5,8.1-19.9c1.9-6.3,3.2-12.1,3.6-17.3l-1.5-0.1
		c-0.4,5.1-1.6,10.8-3.5,17c0,0,0,0.1,0,0.1c-0.6-6-1.4-19.9,1.1-29.1l-1.5-0.4c-3.3,11.9-1.1,30.9-0.7,32.7l0,0
		c-2.1,6-4.3,11.1-5.8,14.1c-0.9-8.8-1.7-17.1-2.2-23.5c-0.3-8.5-0.5-16.5-0.8-23.3c0,0,1.3-6.6,4.9-14.1l-1.4-0.7
		c-1.8,3.7-2.9,7.1-3.6,9.8c-0.3-9.4-0.5-15.6-0.6-15.8l-1.5,0.3c0.1,0.7,0.6,14.9,1.2,34.3l0,0c-0.1,2.2,0.1,5.5,0.4,9.7
		c0.2,7.4,0.5,15.2,0.8,23.1c-1.4-3.1-3.4-7.6-5.1-12.7l0,0c0.5-1.8,2.6-20.8-0.7-32.7l-1.5,0.4c2.5,9.1,1.7,23.1,1.1,29.1
		c0,0,0-0.1,0-0.1c-1.9-6.2-3.1-11.9-3.5-17l-1.5,0.1c0.4,5.2,1.6,11,3.6,17.3c2.8,8.9,6.4,16.5,7.8,19.4c0.3,8.8,0.6,17.7,0.8,26.1
		C193,96,186.3,76.3,185,72.4c-3-10.8-7.5-25-7.6-25.2l-1.5,0.5c0.1,0.2,4.4,13.9,7.4,24.6l0,0c0,0,0,0.1,0.1,0.3
		c-2.2-2.9-5.1-4.7-9-7.2l-1.7-1.1l-0.8,1.3l1.7,1.1c5.9,3.8,9.2,5.8,11.5,12.3c1.5,5.9,3.2,13,4.9,20.4
		c-4.1-6.1-11.8-17.2-16.5-19.2l-0.6,1.4c4.6,2,12.9,14.3,16.4,19.5c0.9,1.3,1.3,2,1.6,2.4c1.7,7.5,3.3,15,4.6,21.6
		c-0.3,1.4-0.5,2.7-0.6,3.7c-2.3-1.4-4.9-3.3-7-5.1c-1.1-1.2-2.3-2.3-3.6-3.4c-0.9-2.9-5.1-17.6-5.8-25.9l-1.5,0.1
		c0.6,7.2,3.7,18.6,5.2,23.9c-1.4-1.2-3-2.4-4.6-3.7c-2-1.6-4.3-3.4-6.7-5.5l-1,1.2c2.4,2,4.7,3.8,6.7,5.5c2.4,1.9,4.5,3.6,6.4,5.2
		c0,0.1,0,0.1,0,0.1l0.1,0.2l0.1,0.1c0.2,0.2,1.6,1.6,3.7,3.3c5.1,5.4,8.2,11.7,10.8,24.4c0.3,1.5-0.5,70.5-0.5,70.5
		c-1.2,19.5-2,40.7-3.1,43.1l0.4,0.2c-0.7,2.9-2,5.8-3.4,8.3c-2,1.2-10.6,3.8-12.3,3.6l-0.2,1.5c0.1,0,0.3,0,0.4,0
		c1.5,0,8.7-1.6,10.4-2.5c-0.2,0.3-0.4,0.5-0.6,0.8l-0.6,0.6l-2.4,3.1c-4.3,4.9-10,10.7-10.1,10.7l1.1,1.1c0.2-0.2,3.9-3.9,7.7-8.2
		l5.2-3.7c-0.7,1.8-1.5,3.7-2.3,5.5c-2.5,3.6-4.9,7.6-6.3,11.8l1.5,0.5c2-6.1,6.4-11.9,9.9-16.5c0.3-0.4,0.7-0.9,1-1.3l2.7,7.8
		c0.9,4.7,2.2,9.4,3.5,13.5l-0.1,0c0,0.1-2.2,8.1-4.7,11.6l1.2,0.9c1.9-2.6,3.5-7.3,4.4-10.1c2.4,7,4.6,12.1,4.8,12.6l1.4-0.6
		c-0.1-0.2-7.5-16.8-9.7-32.1c0.2-2.9,0.8-6.2,2.4-9.5c1.8,4.2,5,10.4,9.6,14.7l0,0c0.1,0.1,6.6,8.7,6.9,13.6l1.5-0.1
		c-0.2-3.2-2.6-7.5-4.6-10.6c8.4,5.5,16.6,7.5,17,7.6l0.4-1.5c-0.1,0-7.3-1.8-14.9-6.4c2.9,0.4,7,0.8,10.1,0.8c0.8,0,1.6,0,2.2-0.1
		l-0.2-1.5c-4.2,0.5-13.7-0.9-15.2-1.1c-0.5-0.7-1.7-3.5-3-7c-0.4-2.6-0.9-6-1.3-8.7c3.9,2.7,8.5,5.7,10.5,5.9
		c2.1,0.3,4.2,1.1,5.8,1.9c1.3,1.4,2.5,3.1,3,4.6l1.5-0.4c-0.6-2.3-2.8-4.8-4.4-6.4c6.1,1.3,7.8,3.2,10.1,5.8l1.1-1
		C232.5,279.5,230.4,277.5,221.9,276.1z M196.3,129.5C196.3,129.5,196.3,129.5,196.3,129.5C196.3,129.5,196.3,129.5,196.3,129.5
		C196.3,129.5,196.3,129.5,196.3,129.5z M198.4,244L198.4,244c-0.1-0.2,0-0.4,0-0.7V244z M221.3,277.5c0,0,0.1,0,0.1,0
		c0.3,0.2,1.1,1,2.1,1.9C222.8,278.9,222.1,278.2,221.3,277.5z"/>
	<rect x="229.9" y="239.2" class="st13" width="7.3" height="83.1"/>
	<rect x="229.9" y="251.1" class="st14" width="7.3" height="3.8"/>
	<rect x="229.9" y="276.9" class="st14" width="7.3" height="3.8"/>
	<rect x="229.9" y="304.6" class="st14" width="7.3" height="3.8"/>
</g>
<g id="AMOUNTS">
</g>
<g id="LABELS">
</g>
</svg>
