<?xml version="1.0" encoding="utf-8"?>
<!-- Generator: Adobe Illustrator 25.2.3, SVG Export Plug-In . SVG Version: 6.00 Build 0)  -->
<svg version="1.1" id="Layer_1" xmlns="http://www.w3.org/2000/svg" xmlns:xlink="http://www.w3.org/1999/xlink" x="0px" y="0px"
	 viewBox="0 0 594 467" style="enable-background:new 0 0 594 467;" xml:space="preserve">
<style type="text/css">
	.st0{fill:none;stroke:#BEBFB9;stroke-width:0.25;stroke-miterlimit:10;}
	.st1{fill:#E1E1DF;}
	.st2{fill:none;stroke:#BEBFB9;stroke-miterlimit:10;}
	.st3{fill:#018F9F;}
	.st4{fill:#FFFFFF;}
	.st5{fill:none;}
	.st6{font-family:'VCROSDMono';}
	.st7{font-size:22px;}
	.st8{fill:none;stroke:#000000;stroke-miterlimit:10;}
	.st9{font-size:14px;}
	.st10{fill:none;stroke:#000000;stroke-width:0.25;stroke-miterlimit:10;}
	.st11{fill:none;stroke:#3A3A3A;stroke-miterlimit:10;}
	.st12{font-size:7px;}
	.st13{font-size:5px;}
	.st14{font-size:30px;}
	.st15{fill:none;stroke:#000000;stroke-width:0.75;stroke-miterlimit:10;}
</style>
<g>
	<line class="st0" x1="190" y1="72" x2="190" y2="468"/>
	<line class="st0" x1="235" y1="72" x2="235" y2="468"/>
	<line class="st0" x1="280" y1="72" x2="280" y2="468"/>
	<line class="st0" x1="325" y1="72" x2="325" y2="468"/>
	<line class="st0" x1="370" y1="72" x2="370" y2="468"/>
	<line class="st0" x1="415" y1="72" x2="415" y2="468"/>
	<line class="st0" x1="460" y1="72" x2="460" y2="468"/>
	<line class="st0" x1="505" y1="72" x2="505" y2="468"/>
	<line class="st0" x1="550" y1="72" x2="550" y2="468"/>
	<line class="st0" x1="595" y1="72" x2="595" y2="468"/>
</g>
<rect x="1" class="st1" width="144" height="468"/>
<line class="st2" x1="145.3" y1="197.9" x2="594.8" y2="197.9"/>
<rect x="569.4" y="186.2" width="24" height="25"/>
<line class="st2" x1="145.4" y1="90.4" x2="595" y2="90.4"/>
<rect x="291" y="81" class="st3" width="18" height="18"/>
<line class="st2" x1="144.5" y1="162" x2="594" y2="162"/>
<rect x="273" y="153" class="st3" width="18" height="18"/>
<line class="st2" x1="145.2" y1="125.9" x2="594.8" y2="125.9"/>
<rect x="300.8" y="116.9" class="st3" width="18" height="18"/>
<rect x="572.4" y="189.7" class="st3" width="18" height="18"/>
<line class="st2" x1="145.3" y1="233.9" x2="594.9" y2="233.9"/>
<rect x="145" y="225" class="st3" width="18" height="18"/>
<line class="st2" x1="145.5" y1="269.5" x2="595.1" y2="269.5"/>
<rect x="336" y="260.5" class="st3" width="18" height="18"/>
<line class="st2" x1="144.6" y1="306" x2="594.2" y2="306"/>
<rect x="416.1" y="297" class="st3" width="18" height="18"/>
<line class="st2" x1="144.8" y1="341.3" x2="594.3" y2="341.3"/>
<rect x="451.3" y="332.3" class="st3" width="18" height="18"/>
<line class="st2" x1="144.9" y1="377.2" x2="594.5" y2="377.2"/>
<line class="st2" x1="145.4" y1="414.3" x2="595" y2="414.3"/>
<rect x="434" y="405.3" class="st3" width="18" height="18"/>
<line class="st2" x1="145.4" y1="450" x2="595" y2="450"/>
<rect x="416" y="441" class="st3" width="18" height="18"/>
<g>
	<rect x="147.5" y="227.5" class="st4" width="13" height="13"/>
</g>
<rect x="145" y="368" class="st3" width="18" height="18"/>
<g>
	<rect x="147.5" y="370.5" class="st4" width="13" height="13"/>
</g>
<rect x="-154" y="54.3" class="st5" width="45" height="18"/>
<text transform="matrix(1 0 0 1 -137.0864 65.9061)" class="st6 st12">75</text>
<text transform="matrix(1 0 0 1 -128.8864 65.9061)" class="st6 st13">%</text>
<rect x="19.3" y="0.7" class="st5" width="126" height="54"/>
<text transform="matrix(1 0 0 1 19.2979 35.7909)" class="st6 st7">CALORIES</text>
<text transform="matrix(1 0 0 1 19.2979 35.7909)" class="st8 st6 st7">CALORIES</text>
<rect x="19.3" y="72" class="st5" width="71.7" height="36"/>
<text transform="matrix(1 0 0 1 19.2979 95.1239)" class="st6 st9">PROTEIN</text>
<text transform="matrix(1 0 0 1 19.2979 95.1239)" class="st10 st6 st9">PROTEIN</text>
<rect x="19.3" y="144.7" class="st5" width="107.7" height="35.3"/>
<text transform="matrix(1 0 0 1 19.2979 167.4934)" class="st6 st9">CARBOHYDRATES</text>
<text transform="matrix(1 0 0 1 19.2979 167.4934)" class="st10 st6 st9">CARBOHYDRATES</text>
<rect x="19.2" y="108" class="st5" width="80.8" height="36"/>
<text transform="matrix(1 0 0 1 19.238 131.1239)" class="st6 st9">TOTAL FAT</text>
<text transform="matrix(1 0 0 1 19.238 131.1239)" class="st10 st6 st9">TOTAL FAT</text>
<rect x="18.3" y="180" class="st5" width="45.7" height="36"/>
<text transform="matrix(1 0 0 1 18.2559 203.1242)" class="st6 st9">FIBER</text>
<text transform="matrix(1 0 0 1 18.2559 203.1242)" class="st10 st6 st9">FIBER</text>
<rect x="18.3" y="216" class="st5" width="45.7" height="36"/>
<text transform="matrix(1 0 0 1 18.2512 239.1239)" class="st6 st9">SUGAR</text>
<text transform="matrix(1 0 0 1 18.2512 239.1239)" class="st10 st6 st9">SUGAR</text>
<line class="st2" x1="1" y1="54.3" x2="595" y2="54.3"/>
<line class="st2" x1="1" y1="108.5" x2="145" y2="108.5"/>
<line class="st2" x1="1" y1="144.5" x2="145" y2="144.5"/>
<line class="st2" x1="1" y1="180.3" x2="145" y2="180.3"/>
<line class="st2" x1="0.7" y1="216.5" x2="144.7" y2="216.5"/>
<line class="st2" x1="0.7" y1="251.5" x2="144.7" y2="251.5"/>
<rect x="19.5" y="288.5" class="st5" width="107.7" height="35.3"/>
<text transform="matrix(1 0 0 1 19.53 311.2099)" class="st6 st9">Copper</text>
<text transform="matrix(1 0 0 1 19.53 311.2099)" class="st10 st6 st9">Copper</text>
<rect x="19.5" y="251" class="st5" width="116.5" height="36"/>
<text transform="matrix(1 0 0 1 19.4702 274.1241)" class="st6 st9">Calcium </text>
<text transform="matrix(1 0 0 1 19.4702 274.1241)" class="st10 st6 st9">Calcium </text>
<rect x="18.5" y="323" class="st5" width="117.5" height="36"/>
<text transform="matrix(1 0 0 1 18.4875 346.1239)" class="st6 st9">Manganisium</text>
<text transform="matrix(1 0 0 1 18.4875 346.1239)" class="st10 st6 st9">Manganisium</text>
<rect x="18.5" y="359" class="st5" width="90.5" height="36"/>
<text transform="matrix(1 0 0 1 18.4834 382.1241)" class="st6 st9">Sodium</text>
<text transform="matrix(1 0 0 1 18.4834 382.1241)" class="st10 st6 st9">Sodium</text>
<line class="st2" x1="1" y1="287.5" x2="145" y2="287.5"/>
<line class="st2" x1="1" y1="322.5" x2="145" y2="322.5"/>
<line class="st2" x1="1" y1="359.5" x2="145" y2="359.5"/>
<line class="st2" x1="1" y1="395.5" x2="145" y2="395.5"/>
<line class="st2" x1="1" y1="251.5" x2="145" y2="251.5"/>
<rect x="18.5" y="395" class="st5" width="117.5" height="36"/>
<text transform="matrix(1 0 0 1 18.5203 418.1242)" class="st6 st9">Phosphorus</text>
<text transform="matrix(1 0 0 1 18.5203 418.1242)" class="st10 st6 st9">Phosphorus</text>
<rect x="18.5" y="431" class="st5" width="90.5" height="36"/>
<text transform="matrix(1 0 0 1 18.5161 454.1239)" class="st6 st9">Selenium</text>
<text transform="matrix(1 0 0 1 18.5161 454.1239)" class="st10 st6 st9">Selenium</text>
<line class="st2" x1="1" y1="430.5" x2="145" y2="430.5"/>
<rect x="0.5" y="0.5" class="st11" width="594" height="467"/>
<line class="st2" x1="1" y1="71.5" x2="595" y2="71.5"/>
<rect x="361" y="54" class="st5" width="18" height="18"/>
<text transform="matrix(1 0 0 1 364.4333 65.5621)" class="st6 st12">50</text>
<text transform="matrix(1 0 0 1 372.6333 65.5621)" class="st6 st13">%</text>
<rect x="235" y="53.8" class="st5" width="45" height="18"/>
<text transform="matrix(1 0 0 1 251.9336 65.3271)" class="st6 st12">25</text>
<text transform="matrix(1 0 0 1 260.1336 65.3271)" class="st6 st13">%</text>
<rect x="460" y="54.3" class="st5" width="45" height="18"/>
<text transform="matrix(1 0 0 1 476.9136 65.9061)" class="st6 st12">75</text>
<text transform="matrix(1 0 0 1 485.1136 65.9061)" class="st6 st13">%</text>
<rect x="175.2" y="1" class="st5" width="126" height="54"/>
<text transform="matrix(1 0 0 1 175.2029 38.9721)" class="st6 st14">486</text>
<text transform="matrix(1 0 0 1 175.2029 38.9721)" class="st15 st6 st14">486</text>
</svg>
