<?xml version="1.0" encoding="utf-8"?>
<!-- Generator: Adobe Illustrator 25.2.3, SVG Export Plug-In . SVG Version: 6.00 Build 0)  -->
<svg version="1.1" xmlns="http://www.w3.org/2000/svg" xmlns:xlink="http://www.w3.org/1999/xlink" x="0px" y="0px"
	 viewBox="0 0 700 467" style="enable-background:new 0 0 700 467;" xml:space="preserve">
<style type="text/css">
	.st0{display:none;}
	.st1{display:inline;fill:#026385;}
	.st2{display:inline;fill:#35BCC0;}
	.st3{display:inline;fill:#606161;}
	.st4{display:inline;fill:#BEBFB9;}
	.st5{display:inline;fill:#3A3A3A;}
	.st6{display:inline;fill:#161616;}
	.st7{display:inline;fill:#E1E1DF;}
	.st8{display:inline;fill:#018F9F;}
	.st9{fill:#E4DED5;}
	.st10{fill:#8B561D;}
	.st11{fill:#95B90B;}
	.st12{fill:#B5CE4D;}
	.st13{fill:#FFFEFF;}
	.st14{fill:#000900;}
	.st15{fill:#8A370F;}
	.st16{fill:#FFDE01;}
	.st17{fill:#FCB912;}
	.st18{fill:#FCF54D;}
	.st19{fill:#FFFFFF;}
	.st20{fill:#EB1C24;}
	.st21{fill:#37A01A;}
	.st22{fill:#F4CB00;}
	.st23{fill:#21851D;}
	.st24{fill:#C30C08;}
	.st25{fill:#FA5810;}
	.st26{fill:#135110;}
	.st27{fill:#A7B941;}
	.st28{fill:#E0E48D;}
	.st29{fill:#DA895E;}
	.st30{fill:#63240B;}
	.st31{fill:#DC0000;}
	.st32{fill:#AE0002;}
	.st33{fill:#FF7A69;}
	.st34{fill:#426024;}
	.st35{fill:#649238;}
	.st36{fill:#432355;}
	.st37{fill:#F8C09D;}
	.st38{fill:#B31D4A;}
	.st39{fill:#DC1C4B;}
	.st40{fill:#FFE627;}
	.st41{fill:#FFAD27;}
	.st42{fill:#FFF576;}
	.st43{fill:#BCD531;}
	.st44{fill:#7F2600;}
	.st45{fill:#E0E11B;}
	.st46{fill:#98C93C;}
	.st47{fill:#A13906;}
	.st48{fill:#0B5389;}
	.st49{fill:#0C3352;}
	.st50{fill:#3279A5;}
	.st51{fill:#0F4B70;}
	.st52{fill:#DBCEAC;}
	.st53{fill:#FFF6DA;}
	.st54{fill:#FFF4D8;}
	.st55{fill:#BFAF8B;}
	.st56{fill:#6B2114;}
	.st57{fill:#F2CF95;}
	.st58{fill:#C88C43;}
	.st59{fill:#7B3720;}
	.st60{fill:#9C5738;}
	.st61{fill:#DDB67D;}
	.st62{fill:#FFE2AE;}
	.st63{fill:#133415;}
	.st64{fill:#608D62;}
	.st65{fill:#305937;}
	.st66{fill:#4E1349;}
	.st67{fill:#8A428E;}
	.st68{fill:#2A0E27;}
	.st69{fill:#2B853F;}
	.st70{fill:#83AA37;}
	.st71{fill:#96CB3B;}
	.st72{fill:#B1E656;}
	.st73{fill:#5C9514;}
	.st74{fill:#4F7319;}
	.st75{fill:#645C5A;}
	.st76{fill:#7F6D57;}
	.st77{fill:#4B423B;}
	.st78{fill:#E9E1D4;}
	.st79{fill:#9A0A14;}
	.st80{fill:#FCFAE1;}
	.st81{fill:#F8151E;}
	.st82{fill:#DA191E;}
	.st83{fill:#F9572B;}
	.st84{fill:#F79B20;}
	.st85{fill:#F36527;}
	.st86{fill:#FBD371;}
	.st87{fill:#EFEF97;}
	.st88{fill:#D87E3D;}
	.st89{fill:#B55E2C;}
	.st90{fill:#ED9857;}
	.st91{fill:#803415;}
	.st92{fill:#61176E;}
	.st93{fill:#4A1056;}
	.st94{fill:#A126B8;}
	.st95{fill:#EA0F13;}
	.st96{fill:#BC0406;}
	.st97{fill:#F9B6BD;}
	.st98{fill:#D1282B;}
	.st99{fill:#EC2125;}
	.st100{fill:#881719;}
	.st101{fill:#ADC45C;}
	.st102{fill:#717D33;}
	.st103{fill:#C0D667;}
	.st104{fill:#78C433;}
	.st105{fill:#D22127;}
	.st106{fill:#E4696C;}
	.st107{fill:#BC2325;}
	.st108{fill:#FB8794;}
	.st109{fill:#A3242B;}
	.st110{fill:#2E9649;}
	.st111{fill:#FF854E;}
	.st112{fill:#3BA746;}
	.st113{fill:#308A43;}
	.st114{fill:#F76140;}
	.st115{fill:#FCBB5E;}
	.st116{fill:#6F6252;}
	.st117{fill:#32A00D;}
</style>
<g id="layout" class="st0">
</g>
<g id="Layer_4">
	<g>
		<rect x="269.9" y="26" transform="matrix(0.994 0.109 -0.109 0.994 5.1718 -29.9234)" class="st15" width="12.7" height="12.7"/>
		<polygon class="st16" points="293.1,53.3 294.5,40.7 281.9,39.3 283.3,26.7 270.7,25.3 269.3,38 244.1,35.2 241.3,60.4 228.7,59 
			223.2,109.4 210.6,108.1 207.8,133.3 182.6,130.5 181.2,143.1 168.6,141.7 156,140.3 154.6,153 129.4,150.2 104.2,147.4 
			102.8,160 77.6,157.3 76.2,169.9 76.2,169.9 74.8,182.5 87.4,183.9 86,196.5 122.5,200.5 121.1,213.1 122.5,213.2 198.1,221.5 
			199.5,208.9 224.5,211.6 224.7,211.7 226.1,199.1 251.3,201.8 252.7,189.2 265.3,190.6 266.7,178 279.3,179.4 280.7,166.8 
			293.3,168.2 300.2,105.1 305.7,54.7 		"/>
		
			<rect x="75.5" y="170.5" transform="matrix(0.994 0.109 -0.109 0.994 19.7673 -7.8651)" class="st15" width="12.7" height="12.7"/>
		<rect x="258" y="12" transform="matrix(0.994 0.109 -0.109 0.994 4.263 -28.6704)" class="st15" width="12.7" height="25.4"/>
		
			<rect x="174.9" y="194.2" transform="matrix(0.994 0.109 -0.109 0.994 22.9397 -18.5666)" class="st17" width="12.7" height="12.7"/>
		
			<rect x="187.5" y="195.6" transform="matrix(0.994 0.109 -0.109 0.994 23.1655 -19.9325)" class="st17" width="12.7" height="12.7"/>
		
			<rect x="102.1" y="160.7" transform="matrix(0.994 0.109 -0.109 0.994 18.853 -10.8227)" class="st17" width="12.7" height="12.7"/>
		
			<rect x="188.9" y="183.7" transform="matrix(0.994 0.109 -0.109 0.994 21.9125 -20.8413)" class="st17" width="25.4" height="12.7"/>
		
			<rect x="240.7" y="175.9" transform="matrix(0.994 0.109 -0.109 0.994 21.3369 -25.8477)" class="st17" width="12.7" height="12.7"/>
		
			<rect x="254.7" y="164.7" transform="matrix(0.994 0.109 -0.109 0.994 20.1968 -27.4395)" class="st17" width="12.7" height="12.7"/>
		
			<rect x="253.3" y="177.3" transform="matrix(0.994 0.109 -0.109 0.994 21.5627 -27.2137)" class="st17" width="12.7" height="12.7"/>
		
			<rect x="269.4" y="140.8" transform="matrix(0.994 0.109 -0.109 0.994 18.3738 -29.1441)" class="st17" width="12.7" height="25.4"/>
		<rect x="242" y="48.4" transform="matrix(0.994 0.109 -0.109 0.994 7.452 -26.74)" class="st18" width="12.7" height="12.7"/>
		
			<rect x="288.2" y="66.4" transform="matrix(0.994 0.109 -0.109 0.994 12.453 -31.5262)" class="st17" width="12.7" height="63.4"/>
		
			<rect x="271.3" y="13.4" transform="matrix(0.994 0.109 -0.109 0.994 3.8059 -30.1492)" class="st15" width="12.7" height="12.7"/>
		<rect x="272.7" y="0.8" transform="matrix(0.994 0.109 -0.109 0.994 2.44 -30.375)" class="st15" width="12.7" height="12.7"/>
		
			<rect x="240.6" y="61.1" transform="matrix(0.994 0.109 -0.109 0.994 8.8179 -26.5142)" class="st18" width="12.7" height="12.7"/>
		
			<rect x="76.9" y="157.9" transform="matrix(0.994 0.109 -0.109 0.994 18.4013 -8.0909)" class="st15" width="12.7" height="12.7"/>
		
			<rect x="90.8" y="147.4" transform="matrix(0.994 0.109 -0.109 0.994 17.3742 -10.3656)" class="st19" width="25.4" height="12.7"/>
	</g>
	<g>
		<polygon class="st31" points="518.9,364.2 518.9,345.7 509.6,345.7 509.6,336.4 500.4,336.4 500.4,327.2 491.1,327.2 491.1,318 
			463.4,318 398.7,318 398.7,327.2 389.5,327.2 389.5,336.4 380.3,336.4 380.3,345.7 371,345.7 371,364.2 361.8,364.2 361.8,410.3 
			371,410.3 371,419.6 380.3,419.6 380.3,428.8 389.5,428.8 389.5,438.1 398.7,438.1 398.7,447.3 491.1,447.3 491.1,438.1 
			500.4,438.1 500.4,428.8 509.6,428.8 509.6,419.6 518.9,419.6 518.9,410.3 528.1,410.3 528.1,364.2 		"/>
		<rect x="408" y="438.2" class="st32" width="27.7" height="9.2"/>
		<rect x="398.7" y="345.7" class="st33" width="9.2" height="9.2"/>
		<polygon class="st33" points="398.7,354.9 389.5,354.9 380.3,354.9 380.3,373.4 380.3,391.9 389.5,391.9 389.5,373.4 398.7,373.4 
					"/>
		<g>
			<rect x="417.2" y="299.5" class="st34" width="9.2" height="9.2"/>
			<rect x="398.7" y="327.2" class="st34" width="9.2" height="9.2"/>
			<rect x="481.9" y="345.7" class="st34" width="9.2" height="9.2"/>
			<rect x="472.7" y="299.5" class="st34" width="9.2" height="9.2"/>
			<rect x="417.2" y="345.7" class="st34" width="9.2" height="9.2"/>
			<rect x="482.3" y="290.1" class="st34" width="9.2" height="9.2"/>
			<rect x="408" y="290.2" class="st34" width="9.2" height="9.2"/>
			<rect x="491.1" y="308.7" class="st34" width="9.2" height="9.2"/>
			<polygon class="st34" points="472.7,308.7 454.2,308.7 426.5,308.7 426.5,318 408,318 408,327.2 426.5,327.2 435.7,327.2 
				435.7,336.4 426.5,336.4 426.5,345.7 444.9,345.7 444.9,336.4 454.2,336.4 463.4,336.4 463.4,345.7 472.7,345.7 481.9,345.7 
				481.9,336.4 472.7,336.4 472.7,327.2 491.1,327.2 491.1,318 472.7,318 			"/>
		</g>
		<polygon class="st35" points="454.2,290.2 454.2,299.5 444.9,299.5 444.9,308.7 444.9,318 454.2,318 454.2,308.7 463.4,308.7 
			463.4,299.5 463.4,290.2 		"/>
		<rect x="435.7" y="318" class="st35" width="9.2" height="9.2"/>
		<polygon class="st32" points="527.8,401.1 527.8,391.5 518.6,391.5 518.6,401.1 509.6,401.1 509.6,410.3 500.4,410.3 500.4,428.8 
			491.1,428.8 491.1,419.6 481.9,419.6 481.9,428.8 472.7,428.8 472.7,438.1 454.2,438.1 454.2,447.3 472.7,447.3 481.9,447.3 
			491.1,447.3 491.1,438.1 500.4,438.1 500.4,429.5 509.9,429.5 509.9,419.6 518.9,419.6 518.9,410.3 528.1,410.3 528.1,401.1 		"/>
	</g>
	<g>
		<polygon class="st43" points="626.3,153.1 625.2,144.6 616.6,145.7 615.5,137.1 572.7,142.6 573.8,151.2 548.1,154.5 547,145.9 
			504.2,151.4 505.3,159.9 496.8,161 497.9,169.6 489.3,170.7 498.1,239.2 506.7,238.1 507.8,246.6 516.3,245.5 517.4,254.1 
			526,253 527.1,261.6 535.6,260.5 536.7,269 613.8,259.1 612.7,250.6 621.2,249.5 620.1,240.9 628.7,239.8 627.6,231.2 
			636.1,230.1 635,221.6 643.6,220.5 634.8,152 		"/>
		
			<rect x="556.1" y="127" transform="matrix(0.9919 -0.1273 0.1273 0.9919 -14.3502 72.5692)" class="st44" width="8.6" height="43.1"/>
		
			<rect x="507" y="167.9" transform="matrix(0.9919 -0.1273 0.1273 0.9919 -17.7694 66.5032)" class="st45" width="8.6" height="8.6"/>
		
			<rect x="514.4" y="157.7" transform="matrix(0.9919 -0.1273 0.1273 0.9919 -16.3742 67.9149)" class="st45" width="17.3" height="8.6"/>
		
			<rect x="500.6" y="177.5" transform="matrix(0.9919 -0.1273 0.1273 0.9919 -20.1407 65.8414)" class="st45" width="8.6" height="25.9"/>
		
			<rect x="499.5" y="177" transform="matrix(0.9919 -0.1273 0.1273 0.9919 -18.9551 66.1723)" class="st45" width="17.3" height="8.6"/>
		
			<rect x="589.6" y="231.7" transform="matrix(0.9919 -0.1273 0.1273 0.9919 -25.2238 77.5436)" class="st46" width="8.6" height="8.6"/>
		
			<rect x="587.4" y="252.2" transform="matrix(0.9919 -0.1273 0.1273 0.9919 -27.7728 78.5363)" class="st46" width="25.9" height="8.6"/>
		
			<rect x="611.5" y="232.8" transform="matrix(0.9919 -0.1273 0.1273 0.9919 -25.7323 80.3837)" class="st46" width="8.6" height="17.3"/>
		
			<rect x="611" y="232.3" transform="matrix(0.9919 -0.1273 0.1273 0.9919 -25.0871 80.8193)" class="st46" width="17.3" height="8.6"/>
		
			<rect x="626.5" y="213.5" transform="matrix(0.9919 -0.1273 0.1273 0.9919 -23.1514 82.1263)" class="st46" width="8.6" height="17.3"/>
		
			<rect x="633.9" y="203.9" transform="matrix(0.9919 -0.1273 0.1273 0.9919 -21.861 82.9976)" class="st46" width="8.6" height="17.3"/>
		
			<rect x="533.7" y="173.2" transform="matrix(0.9919 -0.1273 0.1273 0.9919 -18.2215 69.9553)" class="st27" width="8.6" height="8.6"/>
		
			<rect x="519.3" y="200.9" transform="matrix(0.9919 -0.1273 0.1273 0.9919 -21.8736 68.3438)" class="st27" width="8.6" height="8.6"/>
		
			<rect x="559.4" y="169.4" transform="matrix(0.9919 -0.1273 0.1273 0.9919 -17.4952 73.7014)" class="st46" width="16.7" height="8.6"/>
		
			<rect x="575.4" y="159.1" transform="matrix(0.9919 -0.1273 0.1273 0.9919 -16.0928 75.1501)" class="st27" width="8.6" height="8.6"/>
		
			<rect x="554.5" y="127.1" transform="matrix(0.9919 -0.1273 0.1273 0.9919 -12.7289 72.2548)" class="st47" width="8.6" height="17.3"/>
		
			<rect x="599" y="147.2" transform="matrix(0.9919 -0.1273 0.1273 0.9919 -14.383 78.0585)" class="st45" width="8.6" height="8.6"/>
	</g>
	<g>
		<polygon class="st79" points="211.4,304.8 211.4,293.9 200.5,293.9 200.5,282.9 189.5,282.9 189.5,272 156.7,272 156.7,261 
			156.7,250.1 145.7,250.1 145.7,261 134.8,261 134.8,250.1 123.8,250.1 123.8,261 112.9,261 112.9,250.1 101.9,250.1 101.9,261 
			101.9,272 69.1,272 69.1,282.9 58.1,282.9 58.1,293.9 47.1,293.9 47.1,304.8 36.2,304.8 36.2,392.5 47.1,392.5 47.1,403.4 
			58.1,403.4 58.1,414.4 69.1,414.4 69.1,425.3 189.5,425.3 189.5,414.4 200.5,414.4 200.5,403.4 211.4,403.4 211.4,392.5 
			222.4,392.5 222.4,304.8 		"/>
		<polygon class="st80" points="211.4,315.8 200.5,315.8 200.5,304.8 189.5,304.8 189.5,293.9 178.6,293.9 178.6,282.9 145.7,282.9 
			145.7,272 134.8,272 134.8,282.9 123.8,282.9 123.8,272 112.9,272 112.9,282.9 80,282.9 80,293.9 69.1,293.9 69.1,304.8 
			58.1,304.8 58.1,315.8 47.1,315.8 47.1,381.5 58.1,381.5 58.1,392.5 69.1,392.5 69.1,403.4 78.8,403.4 78.8,414.4 178.6,414.4 
			178.6,403.4 189.5,403.4 189.5,392.5 200.5,392.5 200.5,381.5 211.4,381.5 		"/>
		<polygon class="st81" points="91,293.9 91,304.8 80,304.8 80,315.8 69.1,315.8 69.1,326.8 58.1,326.8 58.1,359.6 69.1,359.6 
			91,359.6 123.8,359.6 123.8,337.7 123.8,315.8 123.8,304.8 123.8,293.9 		"/>
		<polygon class="st81" points="91,370.6 69.1,370.6 69.1,381.5 80,381.5 80,392.5 91,392.5 91,403.4 123.8,403.4 123.8,381.5 
			123.8,370.6 		"/>
		<polygon class="st81" points="167.6,293.9 167.6,304.8 178.6,304.8 178.6,315.8 189.5,315.8 189.5,326.8 200.5,326.8 200.5,359.6 
			189.5,359.6 167.6,359.6 134.8,359.6 134.8,337.7 134.8,315.8 134.8,304.8 134.8,293.9 		"/>
		<polygon class="st81" points="167.6,370.6 189.5,370.6 189.5,381.5 178.6,381.5 178.6,392.5 167.6,392.5 167.6,403.4 134.8,403.4 
			134.8,381.5 134.8,370.6 		"/>
		<rect x="145.7" y="315.8" class="st82" width="11" height="11"/>
		<rect x="167.6" y="326.8" class="st82" width="11" height="11"/>
		<rect x="145.7" y="337.7" class="st82" width="11" height="11"/>
		<rect x="156.7" y="304.8" class="st82" width="11" height="11"/>
		<rect x="134.8" y="293.9" class="st82" width="11" height="11"/>
		<rect x="189.5" y="337.7" class="st82" width="11" height="11"/>
		<rect x="167.6" y="348.7" class="st82" width="11" height="11"/>
		<rect x="145.7" y="370.6" class="st82" width="11" height="11"/>
		<rect x="167.6" y="381.5" class="st82" width="11" height="11"/>
		<rect x="101.9" y="370.6" class="st82" width="11" height="11"/>
		<rect x="80" y="337.7" class="st82" width="11" height="11"/>
		<rect x="101.9" y="315.8" class="st82" width="11" height="11"/>
		<rect x="91" y="381.5" class="st82" width="11" height="11"/>
		<rect x="112.9" y="337.7" class="st82" width="11" height="11"/>
		<rect x="80" y="315.8" class="st82" width="11" height="11"/>
		<rect x="112.9" y="293.9" class="st82" width="11" height="11"/>
		<rect x="58.1" y="337.7" class="st82" width="11" height="11"/>
		<rect x="145.7" y="392.5" class="st82" width="11" height="11"/>
		<rect x="101.9" y="392.5" class="st82" width="11" height="11"/>
		<rect x="69.1" y="370.6" class="st82" width="11" height="11"/>
		<rect x="178.6" y="370.6" class="st82" width="11" height="11"/>
		<rect x="156.7" y="326.8" class="st83" width="11" height="11"/>
		<rect x="91" y="326.8" class="st83" width="11" height="11"/>
		<rect x="101.9" y="348.7" class="st83" width="11" height="11"/>
		<rect x="112.9" y="381.5" class="st83" width="11" height="11"/>
		<rect x="145.7" y="381.5" class="st83" width="11" height="11"/>
		<rect x="167.6" y="370.6" class="st83" width="11" height="11"/>
		<rect x="112.9" y="304.8" class="st83" width="11" height="11"/>
		<rect x="91" y="304.8" class="st83" width="11" height="11"/>
		<rect x="80" y="370.6" class="st83" width="11" height="11"/>
		<rect x="178.6" y="315.8" class="st83" width="11" height="11"/>
		<rect x="134.8" y="348.7" class="st83" width="11" height="11"/>
	</g>
	<g>
		<polygon class="st88" points="392,215.7 394.6,220.8 399.7,218.3 402.3,223.4 428,210.5 425.4,205.4 430.5,202.8 428,197.7 
			433.1,195.1 415.1,159.2 409.9,161.8 404.8,151.5 399.7,154.1 397.1,148.9 392,151.5 389.4,146.4 384.3,149 381.7,143.8 
			376.5,146.4 379.1,151.5 374,154.1 376.6,159.2 371.4,161.8 374,166.9 368.9,169.5 374,179.8 368.9,182.3 386.9,218.3 		"/>
		
			<rect x="398.2" y="206.1" transform="matrix(-0.8939 0.4482 -0.4482 -0.8939 876.3122 216.2519)" class="st89" width="28.7" height="11.5"/>
		
			<rect x="386.6" y="192.7" transform="matrix(-0.8939 0.4482 -0.4482 -0.8939 829.0922 212.0747)" class="st89" width="5.7" height="23"/>
		
			<rect x="399.4" y="174.1" transform="matrix(-0.8939 0.4482 -0.4482 -0.8939 847.617 181.9871)" class="st89" width="5.7" height="34.4"/>
		
			<rect x="417.4" y="177.2" transform="matrix(-0.8939 0.4482 -0.4482 -0.8939 880.4894 169.0319)" class="st89" width="5.7" height="23"/>
		
			<rect x="375" y="178.2" transform="matrix(-0.8939 0.4482 -0.4482 -0.8939 796.8101 173.5268)" class="st89" width="5.7" height="5.7"/>
		
			<rect x="405.8" y="162.7" transform="matrix(-0.8939 0.4482 -0.4482 -0.8939 848.2073 130.484)" class="st89" width="5.7" height="5.7"/>
		
			<rect x="385.3" y="160.2" transform="matrix(-0.8939 0.4482 -0.4482 -0.8939 808.1611 134.873)" class="st89" width="5.7" height="5.7"/>
		
			<rect x="391.2" y="206.4" transform="matrix(-0.8939 0.4482 -0.4482 -0.8939 872.7253 211.9688)" class="st89" width="40.2" height="5.7"/>
		
			<rect x="395.6" y="206.4" transform="matrix(-0.8939 0.4482 -0.4482 -0.8939 848.4191 217.7502)" class="st89" width="5.7" height="5.7"/>
		
			<rect x="416.1" y="196.1" transform="matrix(-0.8939 0.4482 -0.4482 -0.8939 882.6839 189.055)" class="st89" width="5.7" height="5.7"/>
		
			<rect x="420.9" y="192.2" transform="matrix(-0.8939 0.4482 -0.4482 -0.8939 895.5332 178.2943)" class="st89" width="11.5" height="5.7"/>
		
			<rect x="385" y="210.3" transform="matrix(-0.8939 0.4482 -0.4482 -0.8939 835.5698 228.5109)" class="st89" width="11.5" height="5.7"/>
		
			<rect x="378.8" y="144.5" transform="matrix(-0.8939 0.4482 -0.4482 -0.8939 790.2266 113.4575)" class="st90" width="5.7" height="11.5"/>
		
			<rect x="387.8" y="152.5" transform="matrix(-0.8939 0.4482 -0.4482 -0.8939 809.5535 119.133)" class="st90" width="5.7" height="5.7"/>
		
			<rect x="398.1" y="160.2" transform="matrix(-0.8939 0.4482 -0.4482 -0.8939 832.4673 129.0916)" class="st90" width="5.7" height="5.7"/>
		
			<rect x="404.5" y="170.1" transform="matrix(-0.8939 0.4482 -0.4482 -0.8939 850.4018 150.5071)" class="st90" width="5.7" height="11.5"/>
		
			<rect x="385.3" y="185.9" transform="matrix(-0.8939 0.4482 -0.4482 -0.8939 819.7239 183.4854)" class="st90" width="5.7" height="5.7"/>
		
			<rect x="412.2" y="159.9" transform="matrix(-0.8939 0.4482 -0.4482 -0.8939 860.3604 127.5933)" class="st90" width="5.7" height="11.5"/>
		
			<rect x="393" y="214.1" transform="matrix(-0.8939 0.4482 -0.4482 -0.8939 847.0267 233.4902)" class="st91" width="5.7" height="5.7"/>
		
			<rect x="405.5" y="212.8" transform="matrix(-0.8939 0.4482 -0.4482 -0.8939 875.616 224.1219)" class="st91" width="11.5" height="5.7"/>
		
			<rect x="413.5" y="203.8" transform="matrix(-0.8939 0.4482 -0.4482 -0.8939 881.2915 204.795)" class="st91" width="5.7" height="5.7"/>
		
			<rect x="416.1" y="196.1" transform="matrix(-0.8939 0.4482 -0.4482 -0.8939 882.6839 189.055)" class="st88" width="5.7" height="5.7"/>
		
			<rect x="377.6" y="170.5" transform="matrix(-0.8939 0.4482 -0.4482 -0.8939 798.2025 157.7868)" class="st90" width="5.7" height="5.7"/>
	</g>
	<g>
		<polygon class="st92" points="305.2,371.3 305.2,365.6 299.6,365.6 299.6,360 293.9,360 293.9,354.3 265.7,354.3 265.7,360 
			260,360 260,365.6 254.4,365.6 254.4,371.3 248.7,371.3 248.7,399.5 254.4,399.5 254.4,405.1 260,405.1 260,410.8 265.7,410.8 
			265.7,416.4 293.9,416.4 293.9,410.8 299.6,410.8 299.6,405.1 305.2,405.1 305.2,399.5 310.8,399.5 310.8,371.3 		"/>
		<polygon class="st93" points="288.3,376.9 288.3,371.3 271.3,371.3 271.3,376.9 265.7,376.9 265.7,393.9 271.3,393.9 271.3,399.5 
			288.3,399.5 288.3,393.9 293.9,393.9 293.9,376.9 		"/>
		<rect x="260" y="365.6" class="st94" width="5.6" height="5.6"/>
		<polygon class="st68" points="288.3,382.6 282.6,382.6 282.6,376.9 277,376.9 277,382.6 271.3,382.6 271.3,388.2 277,388.2 
			277,393.9 282.6,393.9 282.6,388.2 288.3,388.2 		"/>
		<rect x="254.4" y="371.3" class="st94" width="5.6" height="16.9"/>
		<rect x="293.9" y="399.5" class="st94" width="5.6" height="5.6"/>
		<rect x="299.6" y="388.2" class="st94" width="5.6" height="11.3"/>
	</g>
	<g>
		<polygon class="st92" points="607,31.6 604.1,26.8 599.3,29.6 596.4,24.7 591.5,27.6 588.7,22.7 564.3,37 567.2,41.9 562.3,44.8 
			565.2,49.6 560.3,52.5 563.2,57.3 558.3,60.2 572.6,84.6 577.5,81.7 580.3,86.6 585.2,83.7 588.1,88.6 592.9,85.7 595.8,90.6 
			620.1,76.3 617.3,71.4 622.1,68.6 619.3,63.7 624.2,60.8 621.3,56 626.2,53.1 611.9,28.8 		"/>
		<polygon class="st93" points="595.3,45.1 592.4,40.2 577.8,48.8 580.6,53.6 575.8,56.5 584.3,71.1 589.2,68.3 592.1,73.1 
			606.7,64.5 603.8,59.7 608.7,56.8 600.1,42.2 		"/>
		
			<rect x="566.2" y="47.8" transform="matrix(0.8624 -0.5061 0.5061 0.8624 52.6498 294.9865)" class="st94" width="5.6" height="5.6"/>
		<polygon class="st68" points="598.1,49.9 593.2,52.8 590.4,47.9 585.5,50.8 588.4,55.7 583.5,58.5 586.4,63.4 591.2,60.5 
			594.1,65.4 599,62.5 596.1,57.7 601,54.8 		"/>
		
			<rect x="567.1" y="54.8" transform="matrix(0.8624 -0.5061 0.5061 0.8624 46.3904 297.1474)" class="st94" width="5.6" height="16.9"/>
		
			<rect x="612.6" y="59.9" transform="matrix(0.8624 -0.5061 0.5061 0.8624 52.9178 320.1136)" class="st94" width="5.6" height="5.6"/>
		
			<rect x="613.2" y="46.9" transform="matrix(0.8624 -0.5061 0.5061 0.8624 58.1414 319.0108)" class="st94" width="5.6" height="11.3"/>
	</g>
	<g>
		<polygon class="st92" points="653.7,334.7 656,329.5 650.8,327.3 653,322.1 647.8,319.9 650.1,314.7 624.2,303.5 621.9,308.7 
			616.7,306.5 614.5,311.7 609.3,309.4 607.1,314.6 601.9,312.4 590.7,338.3 595.9,340.5 593.7,345.7 598.9,348 596.6,353.1 
			601.8,355.4 599.6,360.6 625.5,371.7 627.7,366.5 632.9,368.8 635.2,363.6 640.3,365.8 642.6,360.6 647.8,362.9 658.9,337 		"/>
		<polygon class="st93" points="636,333.2 638.2,328 622.6,321.3 620.4,326.5 615.2,324.3 608.5,339.8 613.7,342.1 611.5,347.2 
			627,353.9 629.2,348.8 634.4,351 641.1,335.4 		"/>
		
			<rect x="613.2" y="312.5" transform="matrix(0.9183 0.3958 -0.3958 0.9183 175.1194 -218.0435)" class="st94" width="5.6" height="5.6"/>
		<polygon class="st68" points="633.7,338.4 628.5,336.2 630.8,331 625.6,328.7 623.3,333.9 618.2,331.7 615.9,336.9 621.1,339.1 
			618.9,344.3 624.1,346.5 626.3,341.3 631.5,343.6 		"/>
		
			<rect x="603.5" y="315" transform="matrix(0.9183 0.3958 -0.3958 0.9183 177.551 -213.558)" class="st94" width="5.6" height="16.9"/>
		
			<rect x="630.9" y="357.1" transform="matrix(0.9183 0.3958 -0.3958 0.9183 194.1851 -221.4146)" class="st94" width="5.6" height="5.6"/>
		
			<rect x="639.4" y="348.7" transform="matrix(0.9183 0.3958 -0.3958 0.9183 192.6884 -225.2461)" class="st94" width="5.6" height="11.3"/>
	</g>
	<g>
		<polygon class="st95" points="297,232.9 292,226.9 316.2,207.1 321.1,213.1 327.2,208.1 332.1,214.2 338.2,209.2 353,227.3 
			362.9,239.4 367.9,245.5 373.9,240.5 378.9,246.5 383.8,252.6 389.9,247.6 394.8,253.7 400.9,248.7 405.8,254.7 410.8,260.8 
			392.7,275.6 387.7,269.6 375.6,279.5 370.7,273.5 364.6,278.4 359.7,272.4 353.6,277.3 348.7,271.3 342.6,276.3 337.7,270.2 
			331.7,275.2 326.7,269.1 320.7,274.1 290.9,237.9 		"/>
		
			<rect x="350.3" y="267.9" transform="matrix(-0.7731 0.6343 -0.6343 -0.7731 800.4269 257.3717)" class="st96" width="7.8" height="7.8"/>
		
			<rect x="361.3" y="269" transform="matrix(-0.7731 0.6343 -0.6343 -0.7731 820.6042 252.3224)" class="st96" width="7.8" height="7.8"/>
		
			<rect x="371.4" y="267.6" transform="matrix(-0.7731 0.6343 -0.6343 -0.7731 844.5635 240.9664)" class="st96" width="15.6" height="7.8"/>
		
			<rect x="389.3" y="266.2" transform="matrix(-0.7731 0.6343 -0.6343 -0.7731 868.5228 229.6103)" class="st96" width="7.8" height="7.8"/>
		
			<rect x="330.2" y="214.9" transform="matrix(-0.7731 0.6343 -0.6343 -0.7731 733.5682 182.9793)" class="st97" width="7.8" height="15.6"/>
		
			<rect x="316.7" y="214.7" transform="matrix(-0.7731 0.6343 -0.6343 -0.7731 707.0842 184.2467)" class="st97" width="7.8" height="7.8"/>
		
			<rect x="339.3" y="266.9" transform="matrix(-0.7731 0.6343 -0.6343 -0.7731 780.2496 262.4211)" class="st96" width="7.8" height="7.8"/>
		<g>
			
				<rect x="291.9" y="184.5" transform="matrix(0.7731 -0.6343 0.6343 0.7731 -52.3801 230.3791)" class="st69" width="7.8" height="7.8"/>
			
				<rect x="317.8" y="203.7" transform="matrix(0.7731 -0.6343 0.6343 0.7731 -58.6912 251.1332)" class="st69" width="7.8" height="7.8"/>
			<polygon class="st69" points="292,226.9 287.1,220.8 293.1,215.9 288.2,209.8 294.2,204.9 289.2,198.9 295.3,193.9 305.2,206 
				311.2,201 316.2,207.1 298.1,221.9 303,228 297,232.9 290.9,237.9 286,231.8 			"/>
			
				<rect x="304.6" y="224.6" transform="matrix(0.7731 -0.6343 0.6343 0.7731 -74.9332 247.5278)" class="st69" width="7.8" height="7.8"/>
		</g>
		
			<rect x="295.8" y="201.5" transform="matrix(-0.7731 0.6343 -0.6343 -0.7731 661.6802 174.1681)" class="st21" width="7.8" height="7.8"/>
		
			<rect x="296.9" y="190.5" transform="matrix(-0.7731 0.6343 -0.6343 -0.7731 656.6309 153.9908)" class="st21" width="7.8" height="7.8"/>
		
			<rect x="299.7" y="218.6" transform="matrix(-0.7731 0.6343 -0.6343 -0.7731 679.343 201.9094)" class="st21" width="7.8" height="7.8"/>
	</g>
	<g>
		<polygon class="st88" points="414.5,130.7 413.6,136.2 419.1,137.1 418.1,142.6 445.7,147.2 446.6,141.7 452.1,142.6 453,137.1 
			458.5,138 465,99.4 459.5,98.5 461.3,87.5 455.8,86.6 456.7,81.1 451.2,80.2 452.1,74.7 446.6,73.7 447.5,68.2 442,67.3 
			441.1,72.8 435.6,71.9 434.7,77.4 429.2,76.5 428.2,82 422.7,81.1 420.9,92.1 415.4,91.2 409,129.7 		"/>
		
			<rect x="418.9" y="133.8" transform="matrix(-0.9864 -0.1645 0.1645 -0.9864 836.8465 348.0707)" class="st89" width="27.9" height="11.2"/>
		
			<rect x="416.3" y="108.9" transform="matrix(-0.9864 -0.1645 0.1645 -0.9864 812.6639 307.5023)" class="st89" width="5.6" height="22.3"/>
		
			<rect x="433.7" y="100.6" transform="matrix(-0.9864 -0.1645 0.1645 -0.9864 847.7704 304.9034)" class="st89" width="5.6" height="33.5"/>
		
			<rect x="449.3" y="114.4" transform="matrix(-0.9864 -0.1645 0.1645 -0.9864 877.4149 323.8881)" class="st89" width="5.6" height="22.3"/>
		
			<rect x="420.4" y="92.5" transform="matrix(-0.9864 -0.1645 0.1645 -0.9864 824.9532 258.9391)" class="st89" width="5.6" height="5.6"/>
		
			<rect x="453.5" y="98" transform="matrix(-0.9864 -0.1645 0.1645 -0.9864 889.7042 275.3249)" class="st89" width="5.6" height="5.6"/>
		
			<rect x="438.8" y="84.3" transform="matrix(-0.9864 -0.1645 0.1645 -0.9864 862.7906 245.5484)" class="st89" width="5.6" height="5.6"/>
		
			<rect x="413.7" y="133.8" transform="matrix(-0.9864 -0.1645 0.1645 -0.9864 838.212 342.6748)" class="st89" width="39.1" height="5.6"/>
		
			<rect x="420.4" y="126.5" transform="matrix(-0.9864 -0.1645 0.1645 -0.9864 819.3593 326.421)" class="st89" width="5.6" height="5.6"/>
		
			<rect x="442.4" y="130.2" transform="matrix(-0.9864 -0.1645 0.1645 -0.9864 862.5266 337.3449)" class="st89" width="5.6" height="5.6"/>
		
			<rect x="447.9" y="131.5" transform="matrix(-0.9864 -0.1645 0.1645 -0.9864 878.7144 341.4413)" class="st89" width="11.2" height="5.6"/>
		
			<rect x="409.3" y="125.1" transform="matrix(-0.9864 -0.1645 0.1645 -0.9864 803.1716 322.3246)" class="st89" width="11.2" height="5.6"/>
		
			<rect x="441.1" y="67.7" transform="matrix(-0.9864 -0.1645 0.1645 -0.9864 869.6181 218.5688)" class="st90" width="5.6" height="11.2"/>
		
			<rect x="445.2" y="79.7" transform="matrix(-0.9864 -0.1645 0.1645 -0.9864 876.3135 237.4875)" class="st90" width="5.6" height="5.6"/>
		
			<rect x="448.9" y="91.6" transform="matrix(-0.9864 -0.1645 0.1645 -0.9864 881.6434 261.8021)" class="st90" width="5.6" height="5.6"/>
		
			<rect x="446.6" y="102.6" transform="matrix(-0.9864 -0.1645 0.1645 -0.9864 874.8159 288.7817)" class="st90" width="5.6" height="11.2"/>
		
			<rect x="424.1" y="104.5" transform="matrix(-0.9864 -0.1645 0.1645 -0.9864 830.2831 283.2537)" class="st90" width="5.6" height="5.6"/>
		
			<rect x="458.5" y="98.9" transform="matrix(-0.9864 -0.1645 0.1645 -0.9864 899.1306 283.4518)" class="st90" width="5.6" height="11.2"/>
		
			<rect x="414" y="131.1" transform="matrix(-0.9864 -0.1645 0.1645 -0.9864 805.8365 334.4819)" class="st91" width="5.6" height="5.6"/>
		
			<rect x="424" y="138.9" transform="matrix(-0.9864 -0.1645 0.1645 -0.9864 830.0851 352.1011)" class="st91" width="11.2" height="5.6"/>
		
			<rect x="436" y="134.8" transform="matrix(-0.9864 -0.1645 0.1645 -0.9864 849.0038 345.4058)" class="st91" width="5.6" height="5.6"/>
		
			<rect x="442.4" y="130.2" transform="matrix(-0.9864 -0.1645 0.1645 -0.9864 862.5266 337.3449)" class="st88" width="5.6" height="5.6"/>
		
			<rect x="426.8" y="87.9" transform="matrix(-0.9864 -0.1645 0.1645 -0.9864 838.4761 250.8783)" class="st90" width="5.6" height="5.6"/>
	</g>
	<g>
		<polygon class="st98" points="89.2,93.9 89.2,88.2 83.5,88.2 83.5,82.5 77.9,82.5 77.9,82.5 49.4,82.5 49.4,82.5 43.7,82.5 
			43.7,88.2 38,88.2 38,93.9 32.3,93.9 32.3,122.4 38,122.4 38,128.1 43.7,128.1 43.7,133.8 49.4,133.8 49.4,139.5 77.9,139.5 
			77.9,133.8 83.5,133.8 83.5,128.1 89.2,128.1 89.2,122.4 94.9,122.4 94.9,93.9 		"/>
		<rect x="43.7" y="99.6" class="st99" width="5.7" height="11.4"/>
		<rect x="60.8" y="133.8" class="st100" width="17.1" height="5.7"/>
		<rect x="77.9" y="128.1" class="st100" width="5.7" height="5.7"/>
		<rect x="83.5" y="122.4" class="st100" width="5.7" height="5.7"/>
		<rect x="89.2" y="116.7" class="st100" width="5.7" height="5.7"/>
		<rect x="43.7" y="88.2" class="st99" width="11.4" height="5.7"/>
		<rect x="38" y="93.9" class="st99" width="11.4" height="5.7"/>
		<rect x="38" y="93.9" class="st25" width="5.7" height="5.7"/>
		<rect x="43.7" y="88.2" class="st25" width="5.7" height="5.7"/>
		<rect x="55.1" y="82.5" class="st99" width="5.7" height="5.7"/>
		<rect x="77.9" y="116.7" class="st100" width="5.7" height="5.7"/>
		<rect x="60.8" y="71.1" class="st44" width="5.7" height="17.1"/>
		<rect x="66.5" y="88.2" class="st44" width="5.7" height="5.7"/>
		<rect x="66.5" y="48.3" class="st47" width="5.7" height="11.4"/>
		<rect x="60.8" y="59.7" class="st44" width="5.7" height="17.1"/>
		<rect x="72.2" y="42.7" class="st47" width="5.7" height="5.7"/>
		<rect x="77.9" y="37" class="st47" width="5.7" height="5.7"/>
		<rect x="60.8" y="59.7" class="st47" width="5.7" height="11.4"/>
		<rect x="66.5" y="54" class="st44" width="5.7" height="5.7"/>
	</g>
</g>
<g id="AMOUNTS" class="st0">
</g>
<g id="LABELS" class="st0">
</g>
</svg>
