<?xml version="1.0" encoding="utf-8"?>
<!-- Generator: Adobe Illustrator 25.2.3, SVG Export Plug-In . SVG Version: 6.00 Build 0)  -->
<svg version="1.1" xmlns="http://www.w3.org/2000/svg" xmlns:xlink="http://www.w3.org/1999/xlink" x="0px" y="0px"
	 viewBox="0 0 300 350" style="enable-background:new 0 0 300 350;" xml:space="preserve">
<style type="text/css">
	.st0{fill:#E4DED5;}
	.st1{fill:#6F6252;}
	.st2{fill:#32A00D;}
	.st3{fill:none;stroke:#443E93;stroke-width:5;stroke-miterlimit:10;}
	.st4{fill:#9E1F25;}
	.st5{fill-rule:evenodd;clip-rule:evenodd;fill:#CF232E;}
	.st6{fill:#F7A33B;}
	.st7{fill:#F5C032;}
	.st8{fill:#FFF6D1;}
	.st9{fill:#6AA266;}
	.st10{fill:#443E93;}
	.st11{fill:#FFFFFF;}
</style>
<g id="layout">
</g>
<g id="Layer_4">
</g>
<g id="AMOUNTS">
</g>
<g id="LABELS">
	<polyline class="st3" points="9.9,257.7 74.8,192.8 118.7,236.7 207.7,147.6 235.1,174.9 285,60.8 	"/>
	<g>
		<path class="st9" d="M223.6,283c-8.1-8.8-18.8-16-33.3-15.4c-14.5,0.7-21.1,19.4-25,21c-2.9,1.1-7.9,4.1-10.4,5.6
			c0.5-13.5,0.7-29.6,0.8-45.5c2.6-2,7.2-4.5,12.9-2.5c8.7,3.1,12.3,9.8,14.1,8.3c1.9-1.5-2.7-13.6-9-17.1c-6.2-3.5-12.8-4.6-18-0.6
			c0.4-21.2,0.5-39.5,0.4-49.1c2.9-0.7,7.7-2.5,9.4-7.5c1.6-4.4,1.8-6.8,1.8-6.8s-0.6,0-1.5,0c1-3.2,1.1-4.9,1.1-4.9
			s-6.4-0.4-10.6,2.7c-0.2-0.4-0.4-0.8-0.7-1.1c1.2-0.2,2.9-0.9,5.2-3.3c5-5.1,0.9-15.8,0.9-15.8s-1.9,1-5.2,4.1
			c-1.1,1-1.8,2.2-2.3,3.4c-0.3-0.6-0.6-1.1-0.9-1.6c0.1-0.2,0.2-0.5,0.2-0.7c1.1-0.3,2.8-1.1,4.9-3.3c5-5.1,0.9-15.8,0.9-15.8
			s-1.9,1-5.2,4.1c-0.4,0.4-0.8,0.9-1.1,1.3c-0.3-0.9-0.7-1.8-1.1-2.7c0-0.1,0-0.1,0-0.2c0.9-0.5,1.9-1.3,3.1-2.5
			c5-5.1,0.9-15.8,0.9-15.8s-1.1,0.6-3.1,2.2c2.1-5.4-0.8-13.1-0.8-13.1s-1.5,0.8-4.1,3.1c-1.9-4.5-6.3-7.9-6.3-7.9s-1.2,2-2.4,6.5
			c-0.3,1-0.4,1.9-0.4,2.9c-2.3-0.5-4.1-0.4-4.1-0.4s0.1,2.3,1.5,6.8c0.9,3,3,4.9,5.2,6.2c-0.1,0.7-0.2,1.3-0.1,1.9
			c-3.4-1.2-6.7-1.1-6.7-1.1s0.1,2.3,1.5,6.8c1.2,3.9,4.4,6,7.2,7.2c0.1,0.2,0.2,0.5,0.3,0.7c0,0.8,0.2,1.6,0.3,2.4
			c-3.9-2-8.6-1.9-8.6-1.9s0.1,2.3,1.5,6.8c1.6,5,6.3,7,9.2,7.8c-0.1,0.5-0.2,1.1-0.3,1.6c-4-3.1-10.3-3-10.3-3s0.1,2.3,1.5,6.8
			c0.1,0.3,0.2,0.5,0.3,0.7c-1.5,0.1-2.5,0.3-2.5,0.3s0.5,2.3,2.6,6.5c1.7,3.4,4.8,4.9,7.5,5.6c-3.8-0.8-7.6,0-7.6,0
			s0.5,2.3,2.6,6.5c3,6.1,10.7,6.2,12.3,6.1c0.4,11.2,0,24.9-0.3,44.8c-0.3-0.3-0.5-0.6-0.8-0.9c-5.4-5.1-12.4-4.1-19.1-0.3
			c-6.3,3.5-10.9,15.6-9,17.1c1.9,1.5,5.4-5.3,14.1-8.3c6.8-2.4,12.1,1.6,14.2,3.5c0.4,3.1-0.5,16.7-0.7,22.5
			c-2.3,1.4-7.8,4.6-11,3.4c0,0-12.9-9.4-29.6-0.7c-16.6,8.8-24.2,19.6-30.6,21c-6.4,1.4,3.1,4.6,13.4,9.7
			c10.4,5.1,19.5,4.8,32.9-1.4c13.3-6.2,14.9-14.2,16.8-18.3c1.6-3.7,5.4-6.6,7.8-8.3c-1.2,25.6-3.6,42.7-2.7,53.3
			c0.1,1.1,3.4,2,4.1,0.9c0.8-1.3,2.7-14.6,3.3-30.2c2-1.3,8.6-5,11.4-2.5c0,0,20.7,19.4,39.1,17.6c18.4-1.8,31.2-11.7,37.6-10.6
			C249.3,302.9,231.7,291.8,223.6,283z M148.3,177.4c0.1,0.4,0.2,0.8,0.4,1.1c-1.1-0.7-2.3-1.2-3.5-1.6
			C146.4,177.3,147.5,177.4,148.3,177.4z"/>
		<path class="st10" d="M146.2,115.2c-0.5-0.6-3.4-2.9-3.4-4.1c-0.1-1-0.5-1.9-1.5-2.1c-0.9-0.1-1.8,0.6-1.9,1.5
			c-0.3,1.6-3.9,4.6-4.3,5.4c-1,1.7-1.1,3.6-0.3,4.1c0.4,0.3,0.9,0.2,1.5-0.2c0.7,2.3,2.2,3.5,2.7,3.5c1.3,0.1,1-0.9,1.9-0.9
			c1,0,0.7,0.8,1.7,1.1c1.2,0.4,2.5-1.9,3-4.4c0.7,0.3,1.3,0.3,1.6,0C147.9,118.5,147.5,116.7,146.2,115.2z"/>
		<path class="st11" d="M140.6,115.2c0.1-0.4,0.1-0.8-0.2-0.9c-0.2-0.1-0.6,0.1-0.7,0.5c0,0-1.4,3-1.4,3.2c-0.1,0.5,0.1,1,0.4,1.1
			s0.7-0.3,0.8-0.8C139.5,118.1,140.6,115.2,140.6,115.2z"/>
		<path class="st11" d="M141.2,115.2c-0.1-0.4,0.1-0.8,0.3-0.9s0.5,0.2,0.6,0.6c0,0,0.9,3.2,0.9,3.4c0,0.5-0.3,0.9-0.6,1
			c-0.3,0-0.6-0.4-0.6-0.9C141.8,118.3,141.2,115.2,141.2,115.2z"/>
		<path class="st10" d="M167.9,175.4c-0.6-0.3-4.1-1.3-4.6-2.3c-0.4-0.9-1.2-1.5-2.1-1.3c-0.9,0.3-1.4,1.3-1.2,2.3
			c0.3,1.6-1.9,5.9-2,6.8c-0.3,2,0.3,3.7,1.2,3.9c0.4,0.1,0.9-0.2,1.3-0.8c1.5,1.8,3.3,2.3,3.7,2.1c1.2-0.5,0.6-1.3,1.4-1.7
			s0.9,0.4,1.9,0.3c1.3-0.1,1.6-2.8,1.2-5.4c0.7,0,1.3-0.2,1.5-0.7C170.6,177.7,169.6,176.3,167.9,175.4z"/>
		<path class="st11" d="M162.7,177.8c0-0.4-0.2-0.8-0.5-0.7c-0.3,0-0.5,0.4-0.5,0.8c0,0-0.2,3.4-0.1,3.6c0.1,0.5,0.4,0.9,0.8,0.8
			c0.3-0.1,0.5-0.6,0.4-1.1C162.8,180.9,162.7,177.8,162.7,177.8z"/>
		<path class="st11" d="M163.3,177.6c-0.2-0.3-0.2-0.8,0-0.9c0.2-0.2,0.6,0,0.8,0.3c0,0,2,2.6,2.1,2.8c0.2,0.5,0.1,1-0.2,1.1
			c-0.3,0.2-0.7-0.1-0.9-0.6C165,180.1,163.3,177.6,163.3,177.6z"/>
		<path class="st10" d="M149.3,157.4c-0.4-0.7-2.8-3.6-2.7-4.7c0.1-1-0.2-2-1.1-2.3c-0.9-0.3-1.8,0.2-2.2,1.1
			c-0.6,1.5-4.6,3.8-5.2,4.5c-1.2,1.5-1.7,3.3-0.9,4c0.3,0.3,0.9,0.3,1.5,0.1c0.3,2.4,1.6,3.9,2,4c1.3,0.3,1.1-0.7,2-0.5
			c1,0.2,0.5,0.9,1.5,1.4c1.1,0.7,2.8-1.3,3.7-3.7c0.6,0.4,1.2,0.6,1.6,0.3C150.3,161,150.2,159.2,149.3,157.4z"/>
		<path class="st11" d="M143.7,156.3c0.2-0.4,0.2-0.8,0-0.9c-0.2-0.2-0.6,0-0.8,0.4c0,0-1.9,2.7-1.9,2.9c-0.2,0.5-0.1,1,0.3,1.1
			c0.3,0.1,0.7-0.1,0.9-0.6C142.2,158.9,143.7,156.3,143.7,156.3z"/>
		<path class="st11" d="M144.4,156.5c0-0.4,0.2-0.8,0.5-0.8s0.5,0.3,0.5,0.7c0,0,0.3,3.4,0.3,3.6c-0.1,0.5-0.4,0.9-0.7,0.8
			c-0.3-0.1-0.5-0.5-0.5-1C144.4,159.6,144.4,156.5,144.4,156.5z"/>
		<path class="st10" d="M154.8,121.5c-0.6-0.4-4.1-1.6-4.5-2.6c-0.4-0.9-1.1-1.6-2-1.4c-0.9,0.2-1.5,1.2-1.4,2.2
			c0.2,1.6-2.3,5.8-2.4,6.7c-0.4,2,0.1,3.7,1,3.9c0.4,0.1,0.9-0.2,1.3-0.7c1.4,1.9,3.2,2.5,3.6,2.4c1.2-0.4,0.6-1.2,1.5-1.6
			c0.9-0.3,0.9,0.5,1.9,0.4c1.3,0,1.8-2.7,1.5-5.3c0.7,0.1,1.3-0.2,1.5-0.6C157.3,124,156.4,122.5,154.8,121.5z"/>
		<path class="st11" d="M149.5,123.5c0-0.4-0.2-0.8-0.4-0.8s-0.5,0.3-0.5,0.7c0,0-0.4,3.3-0.3,3.6c0.1,0.5,0.4,0.9,0.7,0.8
			c0.3-0.1,0.6-0.5,0.5-1C149.3,126.6,149.5,123.5,149.5,123.5z"/>
		<path class="st11" d="M150.1,123.3c-0.2-0.4-0.2-0.8,0-0.9s0.6,0,0.8,0.4c0,0,1.8,2.7,1.9,2.9c0.2,0.5,0.1,1-0.3,1.1
			c-0.3,0.1-0.7-0.2-0.9-0.6C151.6,126,150.1,123.3,150.1,123.3z"/>
		<path class="st10" d="M160.8,158.5c-0.6-0.4-4.1-1.6-4.5-2.6c-0.4-0.9-1.1-1.6-2-1.4c-0.9,0.2-1.5,1.2-1.4,2.2
			c0.2,1.6-2.3,5.8-2.4,6.7c-0.4,2,0.1,3.7,1,3.9c0.4,0.1,0.9-0.2,1.3-0.7c1.4,1.9,3.2,2.5,3.6,2.4c1.2-0.4,0.6-1.2,1.5-1.6
			c0.9-0.3,0.9,0.5,1.9,0.4c1.3,0,1.8-2.7,1.5-5.3c0.7,0.1,1.3-0.2,1.5-0.6C163.3,161.1,162.4,159.5,160.8,158.5z"/>
		<path class="st11" d="M155.5,160.6c0-0.4-0.2-0.8-0.4-0.8s-0.5,0.3-0.5,0.7c0,0-0.4,3.3-0.3,3.6c0.1,0.5,0.4,0.9,0.7,0.8
			s0.6-0.5,0.5-1C155.3,163.7,155.5,160.6,155.5,160.6z"/>
		<path class="st11" d="M156.1,160.4c-0.2-0.4-0.2-0.8,0-0.9c0.2-0.2,0.6,0,0.8,0.4c0,0,1.8,2.7,1.9,2.9c0.2,0.5,0.1,1-0.3,1.1
			s-0.7-0.2-0.9-0.6C157.6,163.1,156.1,160.4,156.1,160.4z"/>
		<path class="st10" d="M151.7,183.2c-0.4-0.7-2.8-3.6-2.7-4.7c0.1-1-0.2-2-1.1-2.3c-0.9-0.3-1.8,0.2-2.2,1.1
			c-0.6,1.5-4.6,3.8-5.2,4.5c-1.2,1.5-1.6,3.3-0.9,4c0.3,0.3,0.9,0.3,1.5,0.1c0.3,2.4,1.6,3.9,2,4c1.3,0.3,1.1-0.7,2-0.5
			c1,0.2,0.5,0.9,1.5,1.4c1.1,0.7,2.8-1.3,3.7-3.8c0.6,0.4,1.2,0.6,1.6,0.3C152.8,186.7,152.7,184.9,151.7,183.2z"/>
		<path class="st11" d="M146.2,182c0.2-0.4,0.2-0.8,0-0.9c-0.2-0.2-0.6,0-0.8,0.4c0,0-1.8,2.7-1.9,2.9c-0.2,0.5-0.1,1,0.3,1.1
			c0.3,0.1,0.7-0.1,0.9-0.6C144.7,184.6,146.2,182,146.2,182z"/>
		<path class="st11" d="M146.8,182.2c0-0.4,0.2-0.8,0.5-0.8c0.3,0,0.5,0.3,0.5,0.7c0,0,0.3,3.4,0.3,3.6c-0.1,0.5-0.4,0.9-0.7,0.8
			c-0.3-0.1-0.5-0.5-0.5-1C146.9,185.3,146.8,182.2,146.8,182.2z"/>
	</g>
</g>
</svg>
