<?xml version="1.0" encoding="utf-8"?>
<!-- Generator: Adobe Illustrator 25.2.3, SVG Export Plug-In . SVG Version: 6.00 Build 0)  -->
<svg version="1.1" xmlns="http://www.w3.org/2000/svg" xmlns:xlink="http://www.w3.org/1999/xlink" x="0px" y="0px"
	 viewBox="0 0 700 467" style="enable-background:new 0 0 700 467;" xml:space="preserve">
<style type="text/css">
	.st0{display:none;}
	.st1{display:inline;fill:#026385;}
	.st2{display:inline;fill:#35BCC0;}
	.st3{display:inline;fill:#606161;}
	.st4{display:inline;fill:#BEBFB9;}
	.st5{display:inline;fill:#3A3A3A;}
	.st6{display:inline;fill:#161616;}
	.st7{display:inline;fill:#E1E1DF;}
	.st8{display:inline;fill:#018F9F;}
	.st9{display:inline;fill:#E4DED5;}
	.st10{display:inline;opacity:0.51;}
	.st11{fill:#EE5E2F;}
	.st12{fill:#C0B5AA;}
	.st13{fill:#A53A1C;}
	.st14{fill:#DF5330;}
	.st15{fill:#FF8039;}
	.st16{fill:#7F7973;}
	.st17{fill:#E4DED5;}
	.st18{fill:#514A43;}
	.st19{fill:#302C28;}
</style>
<g id="layout" class="st0">
</g>
<g id="Layer_4" class="st0">
</g>
<g id="AMOUNTS">
	<g>
		<polygon class="st12" points="170.9,278.5 170.9,308.4 180.8,308.4 180.8,318.3 190.8,318.3 190.8,338.2 200.8,338.2 200.8,388 
			220.7,388 220.7,368.1 230.6,368.1 230.6,348.2 240.6,348.2 240.6,338.2 240.6,328.3 250.5,328.3 250.5,318.3 260.4,318.3 
			260.4,298.5 240.6,298.5 240.6,288.5 230.6,288.5 220.7,288.5 220.7,278.5 200.8,278.5 200.8,268.6 180.8,268.6 180.8,278.5 		"/>
		<rect x="220.7" y="388" class="st12" width="9.9" height="10"/>
		<rect x="230.6" y="398" class="st12" width="10" height="9.9"/>
		<rect x="170.9" y="258.6" class="st12" width="9.9" height="10"/>
		<rect x="170.9" y="238.8" class="st12" width="9.9" height="10"/>
		<rect x="190.8" y="238.8" class="st12" width="19.9" height="10"/>
		<rect x="210.7" y="248.7" class="st12" width="10" height="9.9"/>
		<rect x="121.2" y="109.4" class="st12" width="19.9" height="10"/>
		<rect x="190.8" y="109.4" class="st12" width="9.9" height="10"/>
		<polygon class="st12" points="190.8,129.3 190.8,119.3 180.8,119.3 180.8,129.3 170.9,129.3 170.9,119.3 170.9,109.4 151,109.4 
			151,119.3 160.9,119.3 160.9,129.3 151,129.3 151,119.3 141.1,119.3 141.1,129.3 121.2,129.3 121.2,139.2 111.2,139.2 
			111.2,129.3 81.3,129.3 81.3,139.2 61.4,139.2 61.4,149.2 61.4,159.1 51.5,159.1 51.5,169.1 71.4,169.1 71.4,159.1 81.3,159.1 
			81.3,149.2 91.3,149.2 91.3,159.1 101.2,159.1 101.2,179 111.2,179 111.2,218.8 121.2,218.8 121.2,238.8 131.1,238.8 131.1,248.7 
			151,248.7 151,258.6 170.9,258.6 170.9,248.7 160.9,248.7 160.9,238.8 151,238.8 151,228.8 170.9,228.8 170.9,218.8 190.8,218.8 
			190.8,228.8 200.8,228.8 200.8,218.8 200.8,199 210.7,199 210.7,189 220.7,189 220.7,179 230.6,179 230.6,169.1 240.6,169.1 
			240.6,159.1 230.6,159.1 230.6,149.2 210.7,149.2 210.7,169.1 200.8,169.1 200.8,159.1 190.8,159.1 180.8,159.1 180.8,149.2 
			190.8,149.2 200.8,149.2 200.8,139.2 210.7,139.2 220.7,139.2 220.7,129.3 210.7,129.3 210.7,119.3 200.8,119.3 200.8,129.3 		"/>
		<polygon class="st12" points="230.6,99.5 230.6,89.5 210.7,89.5 210.7,99.5 200.8,99.5 200.8,109.4 220.7,109.4 220.7,99.5 		"/>
		<polygon class="st12" points="270.4,99.5 270.4,89.5 250.5,89.5 250.5,99.5 230.6,99.5 230.6,109.4 220.7,109.4 220.7,119.3 
			230.6,119.3 230.6,129.3 240.6,129.3 240.6,139.2 240.6,149.2 250.5,149.2 250.5,139.2 260.4,139.2 260.4,129.3 270.4,129.3 
			270.4,119.3 270.4,109.4 280.3,109.4 280.3,99.5 		"/>
	</g>
	<rect x="270.4" y="139.2" class="st12" width="19.9" height="9.9"/>
	<rect x="270.4" y="238.8" class="st12" width="9.9" height="29.9"/>
	<rect x="280.4" y="228.8" class="st12" width="9.9" height="49.8"/>
	<rect x="588.8" y="358.1" class="st12" width="9.9" height="10"/>
	<rect x="618.7" y="378" class="st12" width="9.9" height="10"/>
	<rect x="628.6" y="368.1" class="st12" width="10" height="10"/>
	<rect x="638.6" y="348.2" class="st12" width="9.9" height="19.9"/>
	<polygon class="st15" points="618.7,338.2 618.7,328.3 618.7,308.4 608.7,308.4 608.7,298.5 608.7,288.5 588.8,288.5 588.8,298.5 
		578.8,298.5 578.8,288.5 568.9,288.5 568.9,298.5 558.9,298.5 558.9,308.4 549,308.4 549,318.3 539.1,318.3 539.1,338.2 549,338.2 
		549,348.2 558.9,348.2 558.9,338.2 568.9,338.2 568.9,328.3 578.8,328.3 578.8,338.2 588.8,338.2 588.8,348.2 608.7,348.2 
		608.7,338.2 	"/>
	<rect x="578.8" y="268.6" class="st12" width="19.9" height="10"/>
	<rect x="568.9" y="248.7" class="st12" width="9.9" height="9.9"/>
	<rect x="549" y="238.8" class="st12" width="9.9" height="10"/>
	<rect x="499.2" y="248.7" class="st12" width="9.9" height="9.9"/>
	<rect x="519.2" y="268.6" class="st12" width="19.9" height="10"/>
	<rect x="539.1" y="278.5" class="st12" width="9.9" height="10"/>
	<rect x="549" y="258.6" class="st12" width="9.9" height="19.9"/>
	<rect x="509.2" y="258.6" class="st12" width="10" height="10"/>
	<path class="st12" d="M529.1,238.8v-10h10v-10h9.9V199h-9.9v-10h-10v-10H549v-10h19.9v-10h-10v-9.9h10v-10h9.9v19.9h10v-29.8h9.9
		v-10h-9.9v-10h-10h-9.9v-9.9h-39.8v9.9h-9.9v-9.9h-19.9v19.9h-29.8v-10h-19.9v-9.9h-19.9v9.9h-9.9v10h-10v10h-29.8v-10h-19.9v10
		H350v10h-19.9v10h-9.9v9.9h19.9v-9.9h9.9v9.9h-9.9v10h-10h-9.9v10h-10v10h-19.9v19.9h19.9V199h19.9v9.9h10V199h9.9v9.9h9.9v19.9h10
		v10h9.9v10h10v-10h19.9v-10h-19.9v-10h-10v-10h10h9.9V189h9.9v19.9v19.9h10v10h9.9v19.9h19.9v10h9.9v-19.9v-10h10v-10h19.9v10h9.9
		h9.9v10h19.9V238.8z M379.8,199h-19.9v-10h19.9V199z"/>
	<polygon class="st12" points="379.8,248.7 369.9,248.7 369.9,238.8 359.9,238.8 359.9,228.8 330.1,228.8 330.1,218.8 310.2,218.8 
		300.2,218.8 290.3,218.8 290.3,278.5 300.2,278.5 310.2,278.5 310.2,288.5 320.2,288.5 320.2,338.2 330.1,338.2 330.1,358.1 
		350,358.1 350,348.2 359.9,348.2 359.9,338.2 359.9,328.3 369.9,328.3 369.9,298.5 379.8,298.5 379.8,278.5 389.8,278.5 
		389.8,258.6 379.8,258.6 	"/>
	<rect x="379.8" y="318.3" class="st12" width="10" height="19.9"/>
	<polygon class="st12" points="310.2,159.1 300.2,159.1 300.2,169.1 290.3,169.1 290.3,179 300.2,179 310.2,179 310.2,169.1 	"/>
	<rect x="340.1" y="208.9" class="st12" width="9.9" height="10"/>
	<rect x="389.8" y="248.7" class="st12" width="9.9" height="9.9"/>
	<rect x="459.4" y="268.6" class="st12" width="10" height="10"/>
	<rect x="549" y="218.8" class="st12" width="9.9" height="10"/>
	<rect x="558.9" y="189" class="st12" width="10" height="10"/>
	<rect x="568.9" y="169.1" class="st12" width="9.9" height="19.9"/>
	<rect x="549" y="179" class="st12" width="9.9" height="10"/>
	<rect x="509" y="172" class="st15" width="18" height="72"/>
	<rect x="473" y="190" class="st15" width="72" height="36"/>
	<rect x="491" y="172" class="st15" width="27" height="63"/>
	<rect x="446" y="190" class="st15" width="45" height="36"/>
	<rect x="455" y="172" class="st15" width="9" height="9"/>
	<rect x="446" y="181" class="st15" width="45" height="9"/>
	<rect x="527" y="163" class="st15" width="18" height="18"/>
</g>
<g id="LABELS" class="st0">
</g>
</svg>
