<?xml version="1.0" encoding="utf-8"?>
<!-- Generator: Adobe Illustrator 25.2.3, SVG Export Plug-In . SVG Version: 6.00 Build 0)  -->
<svg version="1.1" xmlns="http://www.w3.org/2000/svg" xmlns:xlink="http://www.w3.org/1999/xlink" x="0px" y="0px"
	 viewBox="0 0 900 400" style="enable-background:new 0 0 900 400;" xml:space="preserve">
<style type="text/css">
	.st0{display:none;}
	.st1{display:inline;fill:#026385;}
	.st2{display:inline;fill:#35BCC0;}
	.st3{display:inline;fill:#606161;}
	.st4{display:inline;fill:#BEBFB9;}
	.st5{display:inline;fill:#3A3A3A;}
	.st6{display:inline;fill:#161616;}
	.st7{display:inline;fill:#E1E1DF;}
	.st8{display:inline;fill:#018F9F;}
	.st9{fill:#E4DED5;}
	.st10{fill:#C0B5AA;}
	.st11{fill:#026385;}
	.st12{fill:#9E1F25;}
	.st13{fill:#7F7973;}
</style>
<g id="layout" class="st0">
</g>
<g id="Layer_4">
	<g>
		<polygon class="st9" points="720,330 711,330 711,285 693,285 684,285 684,240 657,240 657,195 630,195 630,150 603,150 603,123 
			594,123 594,69 585,69 585,51 576,51 576,42 495,42 495,51 486,51 486,69 477,69 477,123 423,123 423,69 414,69 414,51 405,51 
			405,42 324,42 324,51 315,51 315,69 306,69 306,123 297,123 297,150 270,150 270,195 243,195 243,240 216,240 216,285 207,285 
			189,285 189,330 180,330 162,330 162,357 180,357 720,357 738,357 738,330 		"/>
		<rect x="333" y="33" class="st11" width="63" height="9"/>
		<rect x="333" y="51" class="st11" width="9" height="18"/>
		<rect x="351" y="51" class="st11" width="9" height="18"/>
		<rect x="324" y="96" class="st10" width="81" height="27"/>
		<rect x="324" y="69" class="st11" width="9" height="18"/>
		<rect x="342" y="69" class="st11" width="9" height="18"/>
		<rect x="360" y="69" class="st11" width="9" height="18"/>
		<rect x="369" y="51" class="st11" width="9" height="18"/>
		<rect x="387" y="51" class="st11" width="9" height="18"/>
		<rect x="378" y="69" class="st11" width="9" height="18"/>
		<rect x="396" y="69" class="st11" width="9" height="18"/>
		<rect x="351" y="96" class="st13" width="27" height="27"/>
		<rect x="324" y="96" class="st13" width="9" height="27"/>
		<rect x="396" y="96" class="st13" width="9" height="27"/>
		<rect x="324" y="96" class="st12" width="81" height="9"/>
		<path class="st10" d="M414,132h-99h-9v225h9h99h9V132H414z M414,348h-99v-18h99V348z M414,321h-99v-18h99V321z M414,294h-99v-18
			h99V294z M414,267h-99v-18h99V267z M414,240h-99v-18h99V240z M414,213h-99v-18h99V213z M414,186h-99v-18h99V186z M414,159h-99v-18
			h99V159z"/>
		<rect x="414" y="123" class="st12" width="72" height="9"/>
		<rect x="297" y="123" class="st12" width="18" height="9"/>
		<path class="st10" d="M585,132h-99h-9v225h9h99h9V132H585z M585,348h-99v-18h99V348z M585,321h-99v-18h99V321z M585,294h-99v-18
			h99V294z M585,267h-99v-18h99V267z M585,240h-99v-18h99V240z M585,213h-99v-18h99V213z M585,186h-99v-18h99V186z M585,159h-99v-18
			h99V159z"/>
		<rect x="585" y="123" class="st12" width="18" height="9"/>
		<rect x="504" y="33" class="st12" width="63" height="9"/>
		<rect x="504" y="51" class="st12" width="63" height="9"/>
		<rect x="495" y="96" class="st10" width="81" height="27"/>
		<rect x="495" y="69" class="st12" width="81" height="18"/>
		<rect x="522" y="96" class="st13" width="27" height="27"/>
		<rect x="495" y="96" class="st13" width="9" height="27"/>
		<rect x="567" y="96" class="st13" width="9" height="27"/>
		<rect x="495" y="96" class="st12" width="81" height="9"/>
	</g>
	<rect y="356" class="st9" width="900" height="44"/>
</g>
<g id="AMOUNTS" class="st0">
</g>
<g id="LABELS" class="st0">
</g>
</svg>
