<?xml version="1.0" encoding="utf-8"?>
<!-- Generator: Adobe Illustrator 25.2.3, SVG Export Plug-In . SVG Version: 6.00 Build 0)  -->
<svg version="1.1" xmlns="http://www.w3.org/2000/svg" xmlns:xlink="http://www.w3.org/1999/xlink" x="0px" y="0px"
	 viewBox="0 0 594 467" style="enable-background:new 0 0 594 467;" xml:space="preserve">
<style type="text/css">
	.st0{fill:#03464F;}
	.st1{fill:#026385;}
	.st2{fill:#35BCC0;}
	.st3{fill:#018F9F;}
	.st4{fill:#606161;}
	.st5{fill:#BEBFB9;}
	.st6{fill:#3A3A3A;}
	.st7{fill:#161616;}
	.st8{fill:#E1E1DF;}
	.st9{fill:#FFE311;}
	.st10{fill:#029746;}
	.st11{fill:#F89B1A;}
	.st12{fill:#FFD70C;}
	.st13{fill:#A06415;}
	.st14{fill:#E4C597;}
	.st15{fill:#E4DED5;}
	.st16{fill:#7F7973;}
	.st17{fill:#C0B5AA;}
	.st18{fill:#514A43;}
	.st19{fill:#302C28;}
	.st20{fill:#6F6252;}
	.st21{fill:#32A00D;}
	.st22{fill:#EAD1A4;}
	.st23{fill:#F9F1C0;}
</style>
<g id="layout">
</g>
<g id="Layer_4">
	<g>
		<rect x="343.4" y="124.9" class="st9" width="36.1" height="5.2"/>
		<rect x="343.4" y="130" class="st10" width="36.1" height="5.2"/>
		<rect x="348.5" y="135.2" class="st10" width="25.8" height="5.2"/>
		<rect x="353.7" y="140.4" class="st10" width="15.5" height="15.5"/>
		<rect x="358.9" y="135.2" class="st10" width="5.2" height="25.8"/>
		<rect x="358.9" y="57.8" class="st9" width="5.2" height="87.8"/>
		<rect x="353.7" y="135.2" class="st9" width="15.5" height="5.2"/>
		<rect x="343.4" y="73.2" class="st9" width="36.1" height="51.6"/>
		<rect x="358.9" y="47.4" class="st9" width="5.2" height="10.3"/>
		<rect x="348.5" y="62.9" class="st9" width="25.8" height="15.5"/>
		<rect x="353.7" y="52.6" class="st9" width="15.5" height="15.5"/>
		<rect x="338.2" y="93.9" class="st10" width="5.2" height="36.1"/>
		<rect x="379.5" y="93.9" class="st10" width="5.2" height="36.1"/>
		<rect x="327.9" y="83.6" class="st10" width="5.2" height="5.2"/>
		<rect x="333" y="88.7" class="st10" width="5.2" height="5.2"/>
		<rect x="384.7" y="88.7" class="st10" width="5.2" height="5.2"/>
		<rect x="389.8" y="83.6" class="st10" width="5.2" height="5.2"/>
		<rect x="358.9" y="130" class="st11" width="5.2" height="5.2"/>
		<rect x="327.9" y="104.2" class="st10" width="5.2" height="5.2"/>
		<rect x="333" y="109.4" class="st10" width="5.2" height="5.2"/>
		<rect x="343.4" y="124.9" class="st10" width="5.2" height="5.2"/>
		<rect x="374.3" y="124.9" class="st10" width="5.2" height="5.2"/>
		<rect x="384.7" y="109.4" class="st10" width="5.2" height="5.2"/>
		<rect x="389.8" y="104.2" class="st10" width="5.2" height="5.2"/>
		<rect x="353.7" y="124.9" class="st12" width="5.2" height="5.2"/>
		<rect x="364" y="124.9" class="st12" width="5.2" height="5.2"/>
		<rect x="348.5" y="114.5" class="st12" width="5.2" height="5.2"/>
		<rect x="358.9" y="114.5" class="st12" width="5.2" height="5.2"/>
		<rect x="369.2" y="114.5" class="st12" width="5.2" height="5.2"/>
		<rect x="343.4" y="104.2" class="st12" width="5.2" height="5.2"/>
		<rect x="353.7" y="104.2" class="st12" width="5.2" height="5.2"/>
		<rect x="364" y="104.2" class="st12" width="5.2" height="5.2"/>
		<rect x="374.3" y="104.2" class="st12" width="5.2" height="5.2"/>
		<rect x="348.5" y="93.9" class="st12" width="5.2" height="5.2"/>
		<rect x="358.9" y="93.9" class="st12" width="5.2" height="5.2"/>
		<rect x="369.2" y="93.9" class="st12" width="5.2" height="5.2"/>
		<rect x="364" y="83.6" class="st12" width="5.2" height="5.2"/>
		<rect x="353.7" y="83.6" class="st12" width="5.2" height="5.2"/>
		<rect x="348.5" y="130" class="st9" width="25.8" height="5.2"/>
		<rect x="343.4" y="83.6" class="st12" width="5.2" height="5.2"/>
		<rect x="374.3" y="83.6" class="st12" width="5.2" height="5.2"/>
		<rect x="348.5" y="73.2" class="st12" width="5.2" height="5.2"/>
		<rect x="358.9" y="73.2" class="st12" width="5.2" height="5.2"/>
		<rect x="369.2" y="73.2" class="st12" width="5.2" height="5.2"/>
		<rect x="353.7" y="62.9" class="st12" width="5.2" height="5.2"/>
		<rect x="364" y="62.9" class="st12" width="5.2" height="5.2"/>
		<rect x="358.9" y="57.8" class="st12" width="5.2" height="5.2"/>
		<rect x="353.7" y="52.6" class="st12" width="5.2" height="5.2"/>
		<rect x="364" y="52.6" class="st12" width="5.2" height="5.2"/>
		<rect x="353.7" y="135.2" class="st12" width="5.2" height="5.2"/>
		<rect x="358.9" y="140.4" class="st12" width="5.2" height="5.2"/>
		<rect x="364" y="135.2" class="st12" width="5.2" height="5.2"/>
	</g>
	<g>
		<polygon class="st13" points="258.9,188.8 255.1,188.8 255.1,181.2 251.3,181.2 251.3,177.4 247.5,177.4 247.5,173.6 243.6,173.6 
			243.6,169.8 224.6,169.8 224.6,173.6 220.8,173.6 220.8,177.4 217,177.4 217,192.6 220.8,192.6 220.8,200.3 224.6,200.3 
			224.6,204.1 228.4,204.1 228.4,211.7 224.6,211.7 224.6,215.5 220.8,215.5 220.8,223.1 217,223.1 217,238.4 220.8,238.4 
			220.8,242.2 224.6,242.2 224.6,246 243.6,246 243.6,242.2 247.5,242.2 247.5,238.4 251.3,238.4 251.3,234.6 255.1,234.6 
			255.1,226.9 258.9,226.9 		"/>
		<rect x="228.4" y="200.3" class="st14" width="3.8" height="15.2"/>
		<rect x="232.2" y="204.1" class="st14" width="3.8" height="7.6"/>
	</g>
	<rect x="211" y="264" class="st15" width="54" height="180"/>
	<rect x="211" y="300" class="st17" width="54" height="9"/>
	<rect x="211" y="381" class="st17" width="54" height="9"/>
	<rect x="247" y="336" class="st17" width="9" height="9"/>
	<rect x="220" y="282" class="st17" width="9" height="9"/>
	<rect x="220" y="336" class="st17" width="9" height="9"/>
	<rect x="247" y="363" class="st17" width="9" height="9"/>
	<rect x="220" y="426" class="st17" width="9" height="9"/>
	<rect x="337" y="174" class="st15" width="54" height="270"/>
	<rect x="337" y="210" class="st17" width="54" height="9"/>
	<rect x="337" y="291" class="st17" width="54" height="9"/>
	<rect x="373" y="246" class="st17" width="9" height="9"/>
	<rect x="346" y="192" class="st17" width="9" height="9"/>
	<rect x="346" y="246" class="st17" width="9" height="9"/>
	<rect x="373" y="273" class="st17" width="9" height="9"/>
	<rect x="346" y="336" class="st17" width="9" height="9"/>
	<rect x="337" y="381" class="st17" width="54" height="9"/>
	<rect x="463" y="354" class="st15" width="54" height="90"/>
	<rect x="85" y="264" class="st15" width="54" height="180"/>
	<rect x="85" y="300" class="st17" width="54" height="9"/>
	<rect x="85" y="381" class="st17" width="54" height="9"/>
	<rect x="121" y="336" class="st17" width="9" height="9"/>
	<rect x="94" y="282" class="st17" width="9" height="9"/>
	<rect x="94" y="336" class="st17" width="9" height="9"/>
	<rect x="121" y="363" class="st17" width="9" height="9"/>
	<rect x="130" y="426" class="st17" width="9" height="9"/>
	<g>
		<polygon class="st20" points="148,224.2 144.4,224.2 144.4,220.5 140.7,220.5 140.7,216.9 82.6,216.9 82.6,220.5 78.9,220.5 
			78.9,224.2 75.3,224.2 75.3,242.3 78.9,242.3 78.9,246 82.6,246 82.6,249.6 140.7,249.6 140.7,246 144.4,246 144.4,242.3 
			148,242.3 		"/>
		<rect x="129.8" y="224.2" width="3.6" height="7.3"/>
		<rect x="140.7" y="224.2" width="3.6" height="7.3"/>
		<rect x="133.5" y="235.1" width="7.3" height="3.6"/>
		<rect x="89.9" y="249.6" width="3.6" height="14.5"/>
		<rect x="129.8" y="249.6" width="3.6" height="14.5"/>
		<rect x="122.6" y="249.6" width="3.6" height="14.5"/>
		<rect x="97.1" y="249.6" width="3.6" height="14.5"/>
		<rect x="129.8" y="198.7" width="3.6" height="18.2"/>
		<polygon class="st21" points="122.5,187.6 124.8,190.2 122.2,192.5 119.9,189.9 112.3,196.8 119.2,204.4 121.8,202.1 124.1,204.7 
			126.6,202.4 128.9,204.9 136.5,198 134.2,195.5 136.8,193.2 134.5,190.6 137,188.3 130.1,180.7 		"/>
	</g>
	<rect y="444" class="st15" width="594" height="23"/>
	<rect x="472" y="399" class="st17" width="9" height="9"/>
	<rect x="508" y="381" class="st17" width="9" height="9"/>
	<rect x="463" y="354" class="st17" width="54" height="9"/>
	<rect x="499" y="417" class="st17" width="9" height="9"/>
	<polygon class="st22" points="481,321 478,321 478,318 466,318 466,321 463,321 463,333 466,333 466,336 478,336 478,333 481,333 	
		"/>
	<polygon class="st22" points="499,330 496,330 496,327 484,327 484,330 481,330 481,342 484,342 484,345 496,345 496,342 499,342 	
		"/>
	<polygon class="st23" points="505,306 502,306 502,303 490,303 490,306 487,306 487,318 490,318 490,321 502,321 502,318 505,318 	
		"/>
	<polygon class="st23" points="490,329.5 487.3,329.5 487.3,326.8 476.5,326.8 476.5,329.5 473.9,329.5 473.9,340.2 476.5,340.2 
		476.5,342.9 487.3,342.9 487.3,340.2 490,340.2 	"/>
	<polygon class="st22" points="507.9,313.4 505.2,313.4 505.2,310.7 494.5,310.7 494.5,313.4 491.8,313.4 491.8,324.2 494.5,324.2 
		494.5,326.9 505.2,326.9 505.2,324.2 507.9,324.2 	"/>
</g>
<g id="AMOUNTS">
</g>
<g id="LABELS">
</g>
</svg>
